<?xml version="1.0" encoding="UTF-8" standalone="no"?>
<!DOCTYPE svg PUBLIC "-//W3C//DTD SVG 1.1//EN"
 "http://www.w3.org/Graphics/SVG/1.1/DTD/svg11.dtd">
<!-- Generated by graphviz version 2.43.0 (0)
 -->
<!-- Title: pocketmine\block\Torch Pages: 1 -->
<svg width="330pt" height="873pt"
 viewBox="0.00 0.00 329.50 873.00" xmlns="http://www.w3.org/2000/svg" xmlns:xlink="http://www.w3.org/1999/xlink">
<g id="graph0" class="graph" transform="scale(1 1) rotate(0) translate(4 869)">
<title>pocketmine\block\Torch</title>
<!-- Node1 -->
<g id="Node000001" class="node">
<title>Node1</title>
<g id="a_Node000001"><a xlink:title=" ">
<polygon fill="#999999" stroke="transparent" points="230.5,-250 85.5,-250 85.5,-126 230.5,-126 230.5,-250"/>
<text text-anchor="start" x="101" y="-238" font-family="Helvetica,sans-Serif" font-size="10.00">pocketmine\block\Torch</text>
<text text-anchor="start" x="90" y="-223" font-family="Helvetica,sans-Serif" font-size="10.00">#</text>
<text text-anchor="start" x="103" y="-223" font-family="Helvetica,sans-Serif" font-size="10.00">$facing</text>
<text text-anchor="start" x="90" y="-208" font-family="Helvetica,sans-Serif" font-size="10.00">+</text>
<text text-anchor="start" x="103" y="-208" font-family="Helvetica,sans-Serif" font-size="10.00">getFacing()</text>
<text text-anchor="start" x="90" y="-193" font-family="Helvetica,sans-Serif" font-size="10.00">+</text>
<text text-anchor="start" x="103" y="-193" font-family="Helvetica,sans-Serif" font-size="10.00">getLightLevel()</text>
<text text-anchor="start" x="90" y="-178" font-family="Helvetica,sans-Serif" font-size="10.00">+</text>
<text text-anchor="start" x="103" y="-178" font-family="Helvetica,sans-Serif" font-size="10.00">onNearbyBlockChange()</text>
<text text-anchor="start" x="90" y="-163" font-family="Helvetica,sans-Serif" font-size="10.00">+</text>
<text text-anchor="start" x="103" y="-163" font-family="Helvetica,sans-Serif" font-size="10.00">place()</text>
<text text-anchor="start" x="90" y="-148" font-family="Helvetica,sans-Serif" font-size="10.00">+</text>
<text text-anchor="start" x="103" y="-148" font-family="Helvetica,sans-Serif" font-size="10.00">setFacing()</text>
<text text-anchor="start" x="90" y="-133" font-family="Helvetica,sans-Serif" font-size="10.00">#</text>
<text text-anchor="start" x="103" y="-133" font-family="Helvetica,sans-Serif" font-size="10.00">describeBlockOnlyState()</text>
<polygon fill="#666666" stroke="#666666" points="86,-233 86,-233 231,-233 231,-233 86,-233"/>
<polygon fill="#666666" stroke="#666666" points="86,-218 86,-218 101,-218 101,-218 86,-218"/>
<polygon fill="#666666" stroke="#666666" points="101,-218 101,-218 231,-218 231,-218 101,-218"/>
<polygon fill="none" stroke="#666666" points="85.5,-126 85.5,-250 230.5,-250 230.5,-126 85.5,-126"/>
</a>
</g>
</g>
<!-- Node5 -->
<g id="Node000005" class="node">
<title>Node5</title>
<g id="a_Node000005"><a xlink:href="../../d6/d4f/classpocketmine_1_1block_1_1_redstone_torch.html" target="_top" xlink:title=" ">
<polygon fill="white" stroke="transparent" points="146,-90 0,-90 0,0 146,0 146,-90"/>
<text text-anchor="start" x="5" y="-78" font-family="Helvetica,sans-Serif" font-size="10.00">pocketmine\block\Redstone</text>
<text text-anchor="start" x="60" y="-67" font-family="Helvetica,sans-Serif" font-size="10.00">Torch</text>
<text text-anchor="start" x="71" y="-52" font-family="Helvetica,sans-Serif" font-size="10.00"> </text>
<text text-anchor="start" x="4" y="-37" font-family="Helvetica,sans-Serif" font-size="10.00">+</text>
<text text-anchor="start" x="17" y="-37" font-family="Helvetica,sans-Serif" font-size="10.00">__construct()</text>
<text text-anchor="start" x="4" y="-22" font-family="Helvetica,sans-Serif" font-size="10.00">+</text>
<text text-anchor="start" x="17" y="-22" font-family="Helvetica,sans-Serif" font-size="10.00">getLightLevel()</text>
<text text-anchor="start" x="4" y="-7" font-family="Helvetica,sans-Serif" font-size="10.00">#</text>
<text text-anchor="start" x="17" y="-7" font-family="Helvetica,sans-Serif" font-size="10.00">describeBlockOnlyState()</text>
<polygon fill="#bfbfbf" stroke="#bfbfbf" points="0,-62 0,-62 146,-62 146,-62 0,-62"/>
<polygon fill="#bfbfbf" stroke="#bfbfbf" points="0,-47 0,-47 146,-47 146,-47 0,-47"/>
<polygon fill="none" stroke="#bfbfbf" points="0,0 0,-90 146,-90 146,0 0,0"/>
</a>
</g>
</g>
<!-- Node1&#45;&gt;Node5 -->
<g id="edge4_Node000001_Node000005" class="edge">
<title>Node1&#45;&gt;Node5</title>
<g id="a_edge4_Node000001_Node000005"><a xlink:title=" ">
<path fill="none" stroke="#63b8ff" d="M115.9,-117.17C110.35,-107.96 104.79,-98.73 99.6,-90.12"/>
<polygon fill="none" stroke="#63b8ff" points="113.05,-119.22 121.21,-125.98 119.05,-115.6 113.05,-119.22"/>
</a>
</g>
</g>
<!-- Node6 -->
<g id="Node000006" class="node">
<title>Node6</title>
<g id="a_Node000006"><a xlink:href="../../da/dd1/classpocketmine_1_1block_1_1_underwater_torch.html" target="_top" xlink:title=" ">
<polygon fill="white" stroke="transparent" points="321.5,-75 164.5,-75 164.5,-15 321.5,-15 321.5,-75"/>
<text text-anchor="start" x="170" y="-63" font-family="Helvetica,sans-Serif" font-size="10.00">pocketmine\block\Underwater</text>
<text text-anchor="start" x="230.5" y="-52" font-family="Helvetica,sans-Serif" font-size="10.00">Torch</text>
<text text-anchor="start" x="241.5" y="-37" font-family="Helvetica,sans-Serif" font-size="10.00"> </text>
<text text-anchor="start" x="180" y="-22" font-family="Helvetica,sans-Serif" font-size="10.00">+</text>
<text text-anchor="start" x="204" y="-22" font-family="Helvetica,sans-Serif" font-size="10.00">canBeFlowedInto()</text>
<polygon fill="#bfbfbf" stroke="#bfbfbf" points="165,-47 165,-47 322,-47 322,-47 165,-47"/>
<polygon fill="#bfbfbf" stroke="#bfbfbf" points="165,-32 165,-32 322,-32 322,-32 165,-32"/>
<polygon fill="none" stroke="#bfbfbf" points="164.5,-15 164.5,-75 321.5,-75 321.5,-15 164.5,-15"/>
</a>
</g>
</g>
<!-- Node1&#45;&gt;Node6 -->
<g id="edge5_Node000001_Node000006" class="edge">
<title>Node1&#45;&gt;Node6</title>
<g id="a_edge5_Node000001_Node000006"><a xlink:title=" ">
<path fill="none" stroke="#63b8ff" d="M200.03,-117.29C208.95,-102.48 217.9,-87.64 225.31,-75.35"/>
<polygon fill="none" stroke="#63b8ff" points="196.95,-115.6 194.79,-125.98 202.95,-119.22 196.95,-115.6"/>
</a>
</g>
</g>
<!-- Node2 -->
<g id="Node000002" class="node">
<title>Node2</title>
<g id="a_Node000002"><a xlink:href="../../d3/d1e/classpocketmine_1_1block_1_1_flowable.html" target="_top" xlink:title=" ">
<polygon fill="white" stroke="transparent" points="235,-380 81,-380 81,-286 235,-286 235,-380"/>
<text text-anchor="start" x="91" y="-368" font-family="Helvetica,sans-Serif" font-size="10.00">pocketmine\block\Flowable</text>
<text text-anchor="start" x="156" y="-353" font-family="Helvetica,sans-Serif" font-size="10.00"> </text>
<text text-anchor="start" x="85" y="-338" font-family="Helvetica,sans-Serif" font-size="10.00">+</text>
<text text-anchor="start" x="98" y="-338" font-family="Helvetica,sans-Serif" font-size="10.00">canBeFlowedInto()</text>
<text text-anchor="start" x="85" y="-323" font-family="Helvetica,sans-Serif" font-size="10.00">+</text>
<text text-anchor="start" x="98" y="-323" font-family="Helvetica,sans-Serif" font-size="10.00">getSupportType()</text>
<text text-anchor="start" x="85" y="-308" font-family="Helvetica,sans-Serif" font-size="10.00">+</text>
<text text-anchor="start" x="98" y="-308" font-family="Helvetica,sans-Serif" font-size="10.00">isSolid()</text>
<text text-anchor="start" x="85" y="-293" font-family="Helvetica,sans-Serif" font-size="10.00">#</text>
<text text-anchor="start" x="98" y="-293" font-family="Helvetica,sans-Serif" font-size="10.00">recalculateCollisionBoxes()</text>
<polygon fill="#666666" stroke="#666666" points="81,-363 81,-363 235,-363 235,-363 81,-363"/>
<polygon fill="#666666" stroke="#666666" points="81,-348 81,-348 235,-348 235,-348 81,-348"/>
<polygon fill="none" stroke="#666666" points="81,-286 81,-380 235,-380 235,-286 81,-286"/>
</a>
</g>
</g>
<!-- Node2&#45;&gt;Node1 -->
<g id="edge1_Node000001_Node000002" class="edge">
<title>Node2&#45;&gt;Node1</title>
<g id="a_edge1_Node000001_Node000002"><a xlink:title=" ">
<path fill="none" stroke="#63b8ff" d="M158,-275.84C158,-267.38 158,-258.63 158,-250.08"/>
<polygon fill="none" stroke="#63b8ff" points="154.5,-275.97 158,-285.97 161.5,-275.97 154.5,-275.97"/>
</a>
</g>
</g>
<!-- Node3 -->
<g id="Node000003" class="node">
<title>Node3</title>
<g id="a_Node000003"><a xlink:href="../../d5/d1b/classpocketmine_1_1block_1_1_transparent.html" target="_top" xlink:title=" ">
<polygon fill="white" stroke="transparent" points="236.5,-465 79.5,-465 79.5,-416 236.5,-416 236.5,-465"/>
<text text-anchor="start" x="85" y="-452.5" font-family="Helvetica,sans-Serif" font-size="10.00">pocketmine\block\Transparent</text>
<text text-anchor="start" x="156.5" y="-437.5" font-family="Helvetica,sans-Serif" font-size="10.00"> </text>
<text text-anchor="start" x="99.5" y="-422.5" font-family="Helvetica,sans-Serif" font-size="10.00">+</text>
<text text-anchor="start" x="128" y="-422.5" font-family="Helvetica,sans-Serif" font-size="10.00">isTransparent()</text>
<polygon fill="#666666" stroke="#666666" points="80,-447.5 80,-447.5 237,-447.5 237,-447.5 80,-447.5"/>
<polygon fill="#666666" stroke="#666666" points="80,-432.5 80,-432.5 237,-432.5 237,-432.5 80,-432.5"/>
<polygon fill="none" stroke="#666666" points="79.5,-416 79.5,-465 236.5,-465 236.5,-416 79.5,-416"/>
</a>
</g>
</g>
<!-- Node3&#45;&gt;Node2 -->
<g id="edge2_Node000002_Node000003" class="edge">
<title>Node3&#45;&gt;Node2</title>
<g id="a_edge2_Node000002_Node000003"><a xlink:title=" ">
<path fill="none" stroke="#63b8ff" d="M158,-405.61C158,-397.48 158,-388.66 158,-380.08"/>
<polygon fill="none" stroke="#63b8ff" points="154.5,-405.82 158,-415.82 161.5,-405.82 154.5,-405.82"/>
</a>
</g>
</g>
<!-- Node4 -->
<g id="Node000004" class="node">
<title>Node4</title>
<g id="a_Node000004"><a xlink:href="../../d7/d27/classpocketmine_1_1block_1_1_block.html" target="_top" xlink:title=" ">
<polygon fill="white" stroke="transparent" points="242.5,-865 73.5,-865 73.5,-501 242.5,-501 242.5,-865"/>
<text text-anchor="start" x="100" y="-853" font-family="Helvetica,sans-Serif" font-size="10.00">pocketmine\block\Block</text>
<text text-anchor="start" x="78" y="-838" font-family="Helvetica,sans-Serif" font-size="10.00">+</text>
<text text-anchor="start" x="91" y="-838" font-family="Helvetica,sans-Serif" font-size="10.00">EMPTY_STATE_ID</text>
<text text-anchor="start" x="78" y="-823" font-family="Helvetica,sans-Serif" font-size="10.00">+</text>
<text text-anchor="start" x="91" y="-823" font-family="Helvetica,sans-Serif" font-size="10.00">INTERNAL_STATE_DATA_BITS</text>
<text text-anchor="start" x="78" y="-808" font-family="Helvetica,sans-Serif" font-size="10.00">+</text>
<text text-anchor="start" x="91" y="-808" font-family="Helvetica,sans-Serif" font-size="10.00">INTERNAL_STATE_DATA_MASK</text>
<text text-anchor="start" x="78" y="-793" font-family="Helvetica,sans-Serif" font-size="10.00">#</text>
<text text-anchor="start" x="91" y="-793" font-family="Helvetica,sans-Serif" font-size="10.00">$collisionBoxes</text>
<text text-anchor="start" x="78" y="-778" font-family="Helvetica,sans-Serif" font-size="10.00">#</text>
<text text-anchor="start" x="91" y="-778" font-family="Helvetica,sans-Serif" font-size="10.00">$fallbackName</text>
<text text-anchor="start" x="78" y="-763" font-family="Helvetica,sans-Serif" font-size="10.00">#</text>
<text text-anchor="start" x="91" y="-763" font-family="Helvetica,sans-Serif" font-size="10.00">$idInfo</text>
<text text-anchor="start" x="78" y="-748" font-family="Helvetica,sans-Serif" font-size="10.00">#</text>
<text text-anchor="start" x="91" y="-748" font-family="Helvetica,sans-Serif" font-size="10.00">$position</text>
<text text-anchor="start" x="78" y="-733" font-family="Helvetica,sans-Serif" font-size="10.00">#</text>
<text text-anchor="start" x="91" y="-733" font-family="Helvetica,sans-Serif" font-size="10.00">$typeInfo</text>
<text text-anchor="start" x="78" y="-718" font-family="Helvetica,sans-Serif" font-size="10.00">+</text>
<text text-anchor="start" x="91" y="-718" font-family="Helvetica,sans-Serif" font-size="10.00">__construct()</text>
<text text-anchor="start" x="78" y="-703" font-family="Helvetica,sans-Serif" font-size="10.00">+</text>
<text text-anchor="start" x="91" y="-703" font-family="Helvetica,sans-Serif" font-size="10.00">__clone()</text>
<text text-anchor="start" x="78" y="-688" font-family="Helvetica,sans-Serif" font-size="10.00">+</text>
<text text-anchor="start" x="91" y="-688" font-family="Helvetica,sans-Serif" font-size="10.00">__toString()</text>
<text text-anchor="start" x="78" y="-673" font-family="Helvetica,sans-Serif" font-size="10.00">+</text>
<text text-anchor="start" x="91" y="-673" font-family="Helvetica,sans-Serif" font-size="10.00">addVelocityToEntity()</text>
<text text-anchor="start" x="78" y="-658" font-family="Helvetica,sans-Serif" font-size="10.00">+</text>
<text text-anchor="start" x="91" y="-658" font-family="Helvetica,sans-Serif" font-size="10.00">asItem()</text>
<text text-anchor="start" x="78" y="-643" font-family="Helvetica,sans-Serif" font-size="10.00">+</text>
<text text-anchor="start" x="91" y="-643" font-family="Helvetica,sans-Serif" font-size="10.00">blocksDirectSkyLight()</text>
<text text-anchor="start" x="78" y="-628" font-family="Helvetica,sans-Serif" font-size="10.00">+</text>
<text text-anchor="start" x="91" y="-628" font-family="Helvetica,sans-Serif" font-size="10.00">burnsForever()</text>
<text text-anchor="start" x="78" y="-613" font-family="Helvetica,sans-Serif" font-size="10.00">+</text>
<text text-anchor="start" x="91" y="-613" font-family="Helvetica,sans-Serif" font-size="10.00">calculateIntercept()</text>
<text text-anchor="start" x="78" y="-598" font-family="Helvetica,sans-Serif" font-size="10.00">+</text>
<text text-anchor="start" x="91" y="-598" font-family="Helvetica,sans-Serif" font-size="10.00">canBeFlowedInto()</text>
<text text-anchor="start" x="78" y="-583" font-family="Helvetica,sans-Serif" font-size="10.00">+</text>
<text text-anchor="start" x="91" y="-583" font-family="Helvetica,sans-Serif" font-size="10.00">canBePlaced()</text>
<text text-anchor="start" x="91" y="-568" font-family="Helvetica,sans-Serif" font-size="10.00">and 60 more...</text>
<text text-anchor="start" x="78" y="-553" font-family="Helvetica,sans-Serif" font-size="10.00">#</text>
<text text-anchor="start" x="91" y="-553" font-family="Helvetica,sans-Serif" font-size="10.00">describeBlockOnlyState()</text>
<text text-anchor="start" x="78" y="-538" font-family="Helvetica,sans-Serif" font-size="10.00">#</text>
<text text-anchor="start" x="91" y="-538" font-family="Helvetica,sans-Serif" font-size="10.00">getAdjacentSupportType()</text>
<text text-anchor="start" x="78" y="-523" font-family="Helvetica,sans-Serif" font-size="10.00">#</text>
<text text-anchor="start" x="91" y="-523" font-family="Helvetica,sans-Serif" font-size="10.00">getXpDropAmount()</text>
<text text-anchor="start" x="78" y="-508" font-family="Helvetica,sans-Serif" font-size="10.00">#</text>
<text text-anchor="start" x="91" y="-508" font-family="Helvetica,sans-Serif" font-size="10.00">recalculateCollisionBoxes()</text>
<polygon fill="#bfbfbf" stroke="#bfbfbf" points="74,-848 74,-848 243,-848 243,-848 74,-848"/>
<polygon fill="#bfbfbf" stroke="#bfbfbf" points="74,-728 74,-728 89,-728 89,-728 74,-728"/>
<polygon fill="#bfbfbf" stroke="#bfbfbf" points="89,-728 89,-728 243,-728 243,-728 89,-728"/>
<polygon fill="none" stroke="#bfbfbf" points="73.5,-501 73.5,-865 242.5,-865 242.5,-501 73.5,-501"/>
</a>
</g>
</g>
<!-- Node4&#45;&gt;Node3 -->
<g id="edge3_Node000003_Node000004" class="edge">
<title>Node4&#45;&gt;Node3</title>
<g id="a_edge3_Node000003_Node000004"><a xlink:title=" ">
<path fill="none" stroke="#63b8ff" d="M158,-490.93C158,-481.2 158,-472.44 158,-465.09"/>
<polygon fill="none" stroke="#63b8ff" points="154.5,-490.95 158,-500.95 161.5,-490.95 154.5,-490.95"/>
</a>
</g>
</g>
</g>
</svg>
