<?xml version="1.0" encoding="UTF-8" standalone="no"?>
<!DOCTYPE svg PUBLIC "-//W3C//DTD SVG 1.1//EN"
 "http://www.w3.org/Graphics/SVG/1.1/DTD/svg11.dtd">
<!-- Generated by graphviz version 2.43.0 (0)
 -->
<!-- Title: pocketmine\network\mcpe\protocol\types\login\openid\SelfSignedJwtBody Pages: 1 -->
<svg width="176pt" height="411pt"
 viewBox="0.00 0.00 176.00 411.00" xmlns="http://www.w3.org/2000/svg" xmlns:xlink="http://www.w3.org/1999/xlink">
<g id="graph0" class="graph" transform="scale(1 1) rotate(0) translate(4 407)">
<title>pocketmine\network\mcpe\protocol\types\login\openid\SelfSignedJwtBody</title>
<!-- Node1 -->
<g id="Node000001" class="node">
<title>Node1</title>
<g id="a_Node000001"><a xlink:title=" ">
<polygon fill="#999999" stroke="transparent" points="168,-206 0,-206 0,0 168,0 168,-206"/>
<text text-anchor="start" x="5" y="-194" font-family="Helvetica,sans-Serif" font-size="10.00">pocketmine\network</text>
<text text-anchor="start" x="5" y="-183" font-family="Helvetica,sans-Serif" font-size="10.00">\mcpe\protocol\types</text>
<text text-anchor="start" x="5" y="-172" font-family="Helvetica,sans-Serif" font-size="10.00">\login\openid\SelfSignedJwtBody</text>
<text text-anchor="start" x="30" y="-157" font-family="Helvetica,sans-Serif" font-size="10.00">+</text>
<text text-anchor="start" x="69" y="-157" font-family="Helvetica,sans-Serif" font-size="10.00">$ap</text>
<text text-anchor="start" x="30" y="-142" font-family="Helvetica,sans-Serif" font-size="10.00">+</text>
<text text-anchor="start" x="69" y="-142" font-family="Helvetica,sans-Serif" font-size="10.00">$cpk</text>
<text text-anchor="start" x="30" y="-127" font-family="Helvetica,sans-Serif" font-size="10.00">+</text>
<text text-anchor="start" x="69" y="-127" font-family="Helvetica,sans-Serif" font-size="10.00">$leguuid</text>
<text text-anchor="start" x="30" y="-112" font-family="Helvetica,sans-Serif" font-size="10.00">+</text>
<text text-anchor="start" x="69" y="-112" font-family="Helvetica,sans-Serif" font-size="10.00">$mid</text>
<text text-anchor="start" x="30" y="-97" font-family="Helvetica,sans-Serif" font-size="10.00">+</text>
<text text-anchor="start" x="69" y="-97" font-family="Helvetica,sans-Serif" font-size="10.00">$nid</text>
<text text-anchor="start" x="30" y="-82" font-family="Helvetica,sans-Serif" font-size="10.00">+</text>
<text text-anchor="start" x="69" y="-82" font-family="Helvetica,sans-Serif" font-size="10.00">$nname</text>
<text text-anchor="start" x="30" y="-67" font-family="Helvetica,sans-Serif" font-size="10.00">+</text>
<text text-anchor="start" x="69" y="-67" font-family="Helvetica,sans-Serif" font-size="10.00">$pid</text>
<text text-anchor="start" x="30" y="-52" font-family="Helvetica,sans-Serif" font-size="10.00">+</text>
<text text-anchor="start" x="69" y="-52" font-family="Helvetica,sans-Serif" font-size="10.00">$pname</text>
<text text-anchor="start" x="30" y="-37" font-family="Helvetica,sans-Serif" font-size="10.00">+</text>
<text text-anchor="start" x="69" y="-37" font-family="Helvetica,sans-Serif" font-size="10.00">$xid</text>
<text text-anchor="start" x="30" y="-22" font-family="Helvetica,sans-Serif" font-size="10.00">+</text>
<text text-anchor="start" x="69" y="-22" font-family="Helvetica,sans-Serif" font-size="10.00">$xname</text>
<text text-anchor="start" x="82" y="-7" font-family="Helvetica,sans-Serif" font-size="10.00"> </text>
<polygon fill="#666666" stroke="#666666" points="0,-167 0,-167 168,-167 168,-167 0,-167"/>
<polygon fill="#666666" stroke="#666666" points="0,-17 0,-17 67,-17 67,-17 0,-17"/>
<polygon fill="#666666" stroke="#666666" points="67,-17 67,-17 168,-17 168,-17 67,-17"/>
<polygon fill="none" stroke="#666666" points="0,0 0,-206 168,-206 168,0 0,0"/>
</a>
</g>
</g>
<!-- Node2 -->
<g id="Node000002" class="node">
<title>Node2</title>
<g id="a_Node000002"><a xlink:href="../../d8/df3/classpocketmine_1_1network_1_1mcpe_1_1protocol_1_1types_1_1login_1_1_jwt_body_rfc7519.html" target="_top" xlink:title=" ">
<polygon fill="white" stroke="transparent" points="144,-403 24,-403 24,-242 144,-242 144,-403"/>
<text text-anchor="start" x="29" y="-390.5" font-family="Helvetica,sans-Serif" font-size="10.00">pocketmine\network</text>
<text text-anchor="start" x="29" y="-379.5" font-family="Helvetica,sans-Serif" font-size="10.00">\mcpe\protocol\types</text>
<text text-anchor="start" x="29" y="-368.5" font-family="Helvetica,sans-Serif" font-size="10.00">\login\JwtBodyRfc7519</text>
<text text-anchor="start" x="46.5" y="-353.5" font-family="Helvetica,sans-Serif" font-size="10.00">+</text>
<text text-anchor="start" x="78" y="-353.5" font-family="Helvetica,sans-Serif" font-size="10.00">$aud</text>
<text text-anchor="start" x="46.5" y="-338.5" font-family="Helvetica,sans-Serif" font-size="10.00">+</text>
<text text-anchor="start" x="78" y="-338.5" font-family="Helvetica,sans-Serif" font-size="10.00">$exp</text>
<text text-anchor="start" x="46.5" y="-323.5" font-family="Helvetica,sans-Serif" font-size="10.00">+</text>
<text text-anchor="start" x="78" y="-323.5" font-family="Helvetica,sans-Serif" font-size="10.00">$iat</text>
<text text-anchor="start" x="46.5" y="-308.5" font-family="Helvetica,sans-Serif" font-size="10.00">+</text>
<text text-anchor="start" x="78" y="-308.5" font-family="Helvetica,sans-Serif" font-size="10.00">$iss</text>
<text text-anchor="start" x="46.5" y="-293.5" font-family="Helvetica,sans-Serif" font-size="10.00">+</text>
<text text-anchor="start" x="78" y="-293.5" font-family="Helvetica,sans-Serif" font-size="10.00">$jti</text>
<text text-anchor="start" x="46.5" y="-278.5" font-family="Helvetica,sans-Serif" font-size="10.00">+</text>
<text text-anchor="start" x="78" y="-278.5" font-family="Helvetica,sans-Serif" font-size="10.00">$nbf</text>
<text text-anchor="start" x="46.5" y="-263.5" font-family="Helvetica,sans-Serif" font-size="10.00">+</text>
<text text-anchor="start" x="78" y="-263.5" font-family="Helvetica,sans-Serif" font-size="10.00">$sub</text>
<text text-anchor="start" x="82" y="-248.5" font-family="Helvetica,sans-Serif" font-size="10.00"> </text>
<polygon fill="#666666" stroke="#666666" points="24,-363.5 24,-363.5 144,-363.5 144,-363.5 24,-363.5"/>
<polygon fill="#666666" stroke="#666666" points="24,-258.5 24,-258.5 76,-258.5 76,-258.5 24,-258.5"/>
<polygon fill="#666666" stroke="#666666" points="76,-258.5 76,-258.5 144,-258.5 144,-258.5 76,-258.5"/>
<polygon fill="none" stroke="#666666" points="24,-242 24,-403 144,-403 144,-242 24,-242"/>
</a>
</g>
</g>
<!-- Node2&#45;&gt;Node1 -->
<g id="edge1_Node000001_Node000002" class="edge">
<title>Node2&#45;&gt;Node1</title>
<g id="a_edge1_Node000001_Node000002"><a xlink:title=" ">
<path fill="none" stroke="#63b8ff" d="M84,-231.65C84,-223.31 84,-214.81 84,-206.36"/>
<polygon fill="none" stroke="#63b8ff" points="80.5,-231.75 84,-241.75 87.5,-231.75 80.5,-231.75"/>
</a>
</g>
</g>
</g>
</svg>
