<?xml version="1.0" encoding="UTF-8" standalone="no"?>
<!DOCTYPE svg PUBLIC "-//W3C//DTD SVG 1.1//EN"
 "http://www.w3.org/Graphics/SVG/1.1/DTD/svg11.dtd">
<!-- Generated by graphviz version 2.43.0 (0)
 -->
<!-- Title: pocketmine\block\WallSign Pages: 1 -->
<svg width="861pt" height="1300pt"
 viewBox="0.00 0.00 860.50 1300.00" xmlns="http://www.w3.org/2000/svg" xmlns:xlink="http://www.w3.org/1999/xlink">
<g id="graph0" class="graph" transform="scale(1 1) rotate(0) translate(4 1296)">
<title>pocketmine\block\WallSign</title>
<polygon fill="white" stroke="transparent" points="-4,4 -4,-1296 856.5,-1296 856.5,4 -4,4"/>
<!-- Node1 -->
<g id="node1" class="node">
<title>Node1</title>
<g id="a_node1"><a xlink:title=" ">
<polygon fill="#bfbfbf" stroke="black" points="66.5,-0.5 66.5,-68.5 214.5,-68.5 214.5,-0.5 66.5,-0.5"/>
<text text-anchor="middle" x="140.5" y="-56.5" font-family="Helvetica,sans-Serif" font-size="10.00">pocketmine\block\WallSign</text>
<polyline fill="none" stroke="black" points="66.5,-49.5 214.5,-49.5 "/>
<text text-anchor="middle" x="140.5" y="-37.5" font-family="Helvetica,sans-Serif" font-size="10.00"> </text>
<polyline fill="none" stroke="black" points="66.5,-30.5 214.5,-30.5 "/>
<text text-anchor="start" x="74.5" y="-18.5" font-family="Helvetica,sans-Serif" font-size="10.00">+ place()</text>
<text text-anchor="start" x="74.5" y="-7.5" font-family="Helvetica,sans-Serif" font-size="10.00"># getSupportingFace()</text>
</a>
</g>
</g>
<!-- Node2 -->
<g id="node2" class="node">
<title>Node2</title>
<g id="a_node2"><a xlink:href="../../df/d0b/classpocketmine_1_1block_1_1_base_sign.html" target="_top" xlink:title=" ">
<polygon fill="white" stroke="#bfbfbf" points="60,-106.5 60,-328.5 221,-328.5 221,-106.5 60,-106.5"/>
<text text-anchor="middle" x="140.5" y="-316.5" font-family="Helvetica,sans-Serif" font-size="10.00">pocketmine\block\BaseSign</text>
<polyline fill="none" stroke="#bfbfbf" points="60,-309.5 221,-309.5 "/>
<text text-anchor="start" x="68" y="-297.5" font-family="Helvetica,sans-Serif" font-size="10.00"># $editorEntityRuntimeId</text>
<polyline fill="none" stroke="#bfbfbf" points="60,-290.5 221,-290.5 "/>
<text text-anchor="start" x="68" y="-278.5" font-family="Helvetica,sans-Serif" font-size="10.00">+ __construct()</text>
<text text-anchor="start" x="68" y="-267.5" font-family="Helvetica,sans-Serif" font-size="10.00">+ getEditorEntityRuntimeId()</text>
<text text-anchor="start" x="68" y="-256.5" font-family="Helvetica,sans-Serif" font-size="10.00">+ getMaxStackSize()</text>
<text text-anchor="start" x="68" y="-245.5" font-family="Helvetica,sans-Serif" font-size="10.00">+ getSupportType()</text>
<text text-anchor="start" x="68" y="-234.5" font-family="Helvetica,sans-Serif" font-size="10.00">+ getText()</text>
<text text-anchor="start" x="68" y="-223.5" font-family="Helvetica,sans-Serif" font-size="10.00">+ isSolid()</text>
<text text-anchor="start" x="68" y="-212.5" font-family="Helvetica,sans-Serif" font-size="10.00">+ onNearbyBlockChange()</text>
<text text-anchor="start" x="68" y="-201.5" font-family="Helvetica,sans-Serif" font-size="10.00">+ onPostPlace()</text>
<text text-anchor="start" x="68" y="-190.5" font-family="Helvetica,sans-Serif" font-size="10.00">+ place()</text>
<text text-anchor="start" x="68" y="-179.5" font-family="Helvetica,sans-Serif" font-size="10.00">+ readStateFromWorld()</text>
<text text-anchor="start" x="68" y="-168.5" font-family="Helvetica,sans-Serif" font-size="10.00">+ setEditorEntityRuntimeId()</text>
<text text-anchor="start" x="68" y="-157.5" font-family="Helvetica,sans-Serif" font-size="10.00">+ setText()</text>
<text text-anchor="start" x="68" y="-146.5" font-family="Helvetica,sans-Serif" font-size="10.00">+ updateText()</text>
<text text-anchor="start" x="68" y="-135.5" font-family="Helvetica,sans-Serif" font-size="10.00">+ writeStateToWorld()</text>
<text text-anchor="start" x="68" y="-124.5" font-family="Helvetica,sans-Serif" font-size="10.00"># getSupportingFace()</text>
<text text-anchor="start" x="68" y="-113.5" font-family="Helvetica,sans-Serif" font-size="10.00"># recalculateCollisionBoxes()</text>
</a>
</g>
</g>
<!-- Node2&#45;&gt;Node1 -->
<g id="edge1" class="edge">
<title>Node2&#45;&gt;Node1</title>
<path fill="none" stroke="midnightblue" d="M140.5,-96.21C140.5,-86.32 140.5,-76.96 140.5,-68.69"/>
<polygon fill="none" stroke="midnightblue" points="137,-96.26 140.5,-106.26 144,-96.26 137,-96.26"/>
</g>
<!-- Node3 -->
<g id="node3" class="node">
<title>Node3</title>
<g id="a_node3"><a xlink:href="../../d5/d1b/classpocketmine_1_1block_1_1_transparent.html" target="_top" xlink:title=" ">
<polygon fill="white" stroke="black" points="178,-366.5 178,-423.5 341,-423.5 341,-366.5 178,-366.5"/>
<text text-anchor="middle" x="259.5" y="-411.5" font-family="Helvetica,sans-Serif" font-size="10.00">pocketmine\block\Transparent</text>
<polyline fill="none" stroke="black" points="178,-404.5 341,-404.5 "/>
<text text-anchor="middle" x="259.5" y="-392.5" font-family="Helvetica,sans-Serif" font-size="10.00"> </text>
<polyline fill="none" stroke="black" points="178,-385.5 341,-385.5 "/>
<text text-anchor="start" x="186" y="-373.5" font-family="Helvetica,sans-Serif" font-size="10.00">+ isTransparent()</text>
</a>
</g>
</g>
<!-- Node3&#45;&gt;Node2 -->
<g id="edge2" class="edge">
<title>Node3&#45;&gt;Node2</title>
<path fill="none" stroke="midnightblue" d="M234.91,-357.74C228.92,-348.9 222.2,-338.99 215.18,-328.63"/>
<polygon fill="none" stroke="midnightblue" points="232.14,-359.88 240.64,-366.19 237.93,-355.95 232.14,-359.88"/>
</g>
<!-- Node4 -->
<g id="node4" class="node">
<title>Node4</title>
<g id="a_node4"><a xlink:href="../../d7/d27/classpocketmine_1_1block_1_1_block.html" target="_top" xlink:title=" ">
<polygon fill="white" stroke="#bfbfbf" points="322,-471.5 322,-693.5 483,-693.5 483,-471.5 322,-471.5"/>
<text text-anchor="middle" x="402.5" y="-681.5" font-family="Helvetica,sans-Serif" font-size="10.00">pocketmine\block\Block</text>
<polyline fill="none" stroke="#bfbfbf" points="322,-674.5 483,-674.5 "/>
<text text-anchor="start" x="330" y="-662.5" font-family="Helvetica,sans-Serif" font-size="10.00"># $collisionBoxes</text>
<text text-anchor="start" x="330" y="-651.5" font-family="Helvetica,sans-Serif" font-size="10.00"># $fallbackName</text>
<polyline fill="none" stroke="#bfbfbf" points="322,-644.5 483,-644.5 "/>
<text text-anchor="start" x="330" y="-632.5" font-family="Helvetica,sans-Serif" font-size="10.00">+ __construct()</text>
<text text-anchor="start" x="330" y="-621.5" font-family="Helvetica,sans-Serif" font-size="10.00">+ __clone()</text>
<text text-anchor="start" x="330" y="-610.5" font-family="Helvetica,sans-Serif" font-size="10.00">+ __toString()</text>
<text text-anchor="start" x="330" y="-599.5" font-family="Helvetica,sans-Serif" font-size="10.00">+ addVelocityToEntity()</text>
<text text-anchor="start" x="330" y="-588.5" font-family="Helvetica,sans-Serif" font-size="10.00">+ asItem()</text>
<text text-anchor="start" x="330" y="-577.5" font-family="Helvetica,sans-Serif" font-size="10.00">+ blocksDirectSkyLight()</text>
<text text-anchor="start" x="330" y="-566.5" font-family="Helvetica,sans-Serif" font-size="10.00">+ burnsForever()</text>
<text text-anchor="start" x="330" y="-555.5" font-family="Helvetica,sans-Serif" font-size="10.00">+ calculateIntercept()</text>
<text text-anchor="start" x="330" y="-544.5" font-family="Helvetica,sans-Serif" font-size="10.00">+ canBeFlowedInto()</text>
<text text-anchor="start" x="330" y="-533.5" font-family="Helvetica,sans-Serif" font-size="10.00">+ canBePlaced()</text>
<text text-anchor="start" x="330" y="-522.5" font-family="Helvetica,sans-Serif" font-size="10.00">and 57 more...</text>
<text text-anchor="start" x="330" y="-511.5" font-family="Helvetica,sans-Serif" font-size="10.00"># getXpDropAmount()</text>
<text text-anchor="start" x="330" y="-500.5" font-family="Helvetica,sans-Serif" font-size="10.00"># recalculateCollisionBoxes()</text>
<text text-anchor="start" x="330" y="-489.5" font-family="Helvetica,sans-Serif" font-size="10.00"># writeStateToItemMeta()</text>
<text text-anchor="start" x="330" y="-478.5" font-family="Helvetica,sans-Serif" font-size="10.00"># writeStateToMeta()</text>
</a>
</g>
</g>
<!-- Node4&#45;&gt;Node3 -->
<g id="edge3" class="edge">
<title>Node4&#45;&gt;Node3</title>
<path fill="none" stroke="midnightblue" d="M315.49,-468.62C302.71,-452.05 290.63,-436.38 280.98,-423.86"/>
<polygon fill="none" stroke="midnightblue" points="312.93,-471.04 321.81,-476.82 318.47,-466.77 312.93,-471.04"/>
</g>
<!-- Node5 -->
<g id="node5" class="node">
<title>Node5</title>
<g id="a_node5"><a xlink:title=" ">
<polygon fill="white" stroke="#bfbfbf" points="126,-1146.5 126,-1203.5 169,-1203.5 169,-1146.5 126,-1146.5"/>
<text text-anchor="middle" x="147.5" y="-1191.5" font-family="Helvetica,sans-Serif" font-size="10.00">const</text>
<polyline fill="none" stroke="#bfbfbf" points="126,-1184.5 169,-1184.5 "/>
<text text-anchor="middle" x="147.5" y="-1172.5" font-family="Helvetica,sans-Serif" font-size="10.00"> </text>
<polyline fill="none" stroke="#bfbfbf" points="126,-1165.5 169,-1165.5 "/>
<text text-anchor="middle" x="147.5" y="-1153.5" font-family="Helvetica,sans-Serif" font-size="10.00"> </text>
</a>
</g>
</g>
<!-- Node5&#45;&gt;Node4 -->
<g id="edge4" class="edge">
<title>Node5&#45;&gt;Node4</title>
<path fill="none" stroke="#404040" d="M145.65,-1146.4C141.29,-1075.43 132.49,-888.27 156.5,-832 188.88,-756.13 256.2,-690.78 312.24,-646.17"/>
<polygon fill="none" stroke="#404040" points="312.4,-646.04 314.65,-639.19 321.84,-638.64 319.59,-645.49 312.4,-646.04"/>
<text text-anchor="start" x="156.5" y="-924.5" font-family="Helvetica,sans-Serif" font-size="10.00"> +INTERNAL_METADATA</text>
<text text-anchor="middle" x="231" y="-913.5" font-family="Helvetica,sans-Serif" font-size="10.00">_BITS</text>
<text text-anchor="middle" x="231" y="-902.5" font-family="Helvetica,sans-Serif" font-size="10.00">+INTERNAL_METADATA_MASK</text>
</g>
<!-- Node7 -->
<g id="node7" class="node">
<title>Node7</title>
<g id="a_node7"><a xlink:href="../../d3/d10/classpocketmine_1_1block_1_1_block_break_info.html" target="_top" xlink:title=" ">
<polygon fill="white" stroke="#bfbfbf" points="508.5,-832.5 508.5,-999.5 688.5,-999.5 688.5,-832.5 508.5,-832.5"/>
<text text-anchor="middle" x="598.5" y="-987.5" font-family="Helvetica,sans-Serif" font-size="10.00">pocketmine\block\BlockBreakInfo</text>
<polyline fill="none" stroke="#bfbfbf" points="508.5,-980.5 688.5,-980.5 "/>
<text text-anchor="middle" x="598.5" y="-968.5" font-family="Helvetica,sans-Serif" font-size="10.00"> </text>
<polyline fill="none" stroke="#bfbfbf" points="508.5,-961.5 688.5,-961.5 "/>
<text text-anchor="start" x="516.5" y="-949.5" font-family="Helvetica,sans-Serif" font-size="10.00">+ __construct()</text>
<text text-anchor="start" x="516.5" y="-938.5" font-family="Helvetica,sans-Serif" font-size="10.00">+ breaksInstantly()</text>
<text text-anchor="start" x="516.5" y="-927.5" font-family="Helvetica,sans-Serif" font-size="10.00">+ getBlastResistance()</text>
<text text-anchor="start" x="516.5" y="-916.5" font-family="Helvetica,sans-Serif" font-size="10.00">+ getBreakTime()</text>
<text text-anchor="start" x="516.5" y="-905.5" font-family="Helvetica,sans-Serif" font-size="10.00">+ getHardness()</text>
<text text-anchor="start" x="516.5" y="-894.5" font-family="Helvetica,sans-Serif" font-size="10.00">+ getToolHarvestLevel()</text>
<text text-anchor="start" x="516.5" y="-883.5" font-family="Helvetica,sans-Serif" font-size="10.00">+ getToolType()</text>
<text text-anchor="start" x="516.5" y="-872.5" font-family="Helvetica,sans-Serif" font-size="10.00">+ isBreakable()</text>
<text text-anchor="start" x="516.5" y="-861.5" font-family="Helvetica,sans-Serif" font-size="10.00">+ isToolCompatible()</text>
<text text-anchor="start" x="516.5" y="-850.5" font-family="Helvetica,sans-Serif" font-size="10.00">+ indestructible()</text>
<text text-anchor="start" x="516.5" y="-839.5" font-family="Helvetica,sans-Serif" font-size="10.00">+ instant()</text>
</a>
</g>
</g>
<!-- Node5&#45;&gt;Node7 -->
<g id="edge7" class="edge">
<title>Node5&#45;&gt;Node7</title>
<path fill="none" stroke="#404040" d="M169.08,-1165.47C224.09,-1143.28 373.44,-1080.34 497.82,-1000.84"/>
<polygon fill="none" stroke="#404040" points="498.18,-1000.61 501.04,-993.99 508.25,-994.09 505.39,-1000.71 498.18,-1000.61"/>
<text text-anchor="middle" x="551" y="-1032" font-family="Helvetica,sans-Serif" font-size="10.00"> +COMPATIBLE_TOOL_MULTIPLIER</text>
<text text-anchor="middle" x="551" y="-1021" font-family="Helvetica,sans-Serif" font-size="10.00">+INCOMPATIBLE_TOOL_MULTIPLIER</text>
</g>
<!-- Node10 -->
<g id="node10" class="node">
<title>Node10</title>
<g id="a_node10"><a xlink:href="../../d3/d1c/classpocketmine_1_1block_1_1utils_1_1_sign_text.html" target="_top" xlink:title=" ">
<polygon fill="white" stroke="#bfbfbf" points="0,-712.5 0,-813.5 127,-813.5 127,-712.5 0,-712.5"/>
<text text-anchor="start" x="8" y="-801.5" font-family="Helvetica,sans-Serif" font-size="10.00">pocketmine\block\utils</text>
<text text-anchor="middle" x="63.5" y="-790.5" font-family="Helvetica,sans-Serif" font-size="10.00">\SignText</text>
<polyline fill="none" stroke="#bfbfbf" points="0,-783.5 127,-783.5 "/>
<text text-anchor="middle" x="63.5" y="-771.5" font-family="Helvetica,sans-Serif" font-size="10.00"> </text>
<polyline fill="none" stroke="#bfbfbf" points="0,-764.5 127,-764.5 "/>
<text text-anchor="start" x="8" y="-752.5" font-family="Helvetica,sans-Serif" font-size="10.00">+ __construct()</text>
<text text-anchor="start" x="8" y="-741.5" font-family="Helvetica,sans-Serif" font-size="10.00">+ getLine()</text>
<text text-anchor="start" x="8" y="-730.5" font-family="Helvetica,sans-Serif" font-size="10.00">+ getLines()</text>
<text text-anchor="start" x="8" y="-719.5" font-family="Helvetica,sans-Serif" font-size="10.00">+ fromBlob()</text>
</a>
</g>
</g>
<!-- Node5&#45;&gt;Node10 -->
<g id="edge11" class="edge">
<title>Node5&#45;&gt;Node10</title>
<path fill="none" stroke="#404040" d="M125.84,-1150.54C104.23,-1125.38 72.42,-1083.2 59.5,-1040 38.21,-968.78 44.19,-882.54 52.21,-825.62"/>
<polygon fill="none" stroke="#404040" points="52.23,-825.45 49.16,-818.93 53.99,-813.58 57.07,-820.11 52.23,-825.45"/>
<text text-anchor="middle" x="96.5" y="-1026.5" font-family="Helvetica,sans-Serif" font-size="10.00"> +LINE_COUNT</text>
</g>
<!-- Node6 -->
<g id="node6" class="node">
<title>Node6</title>
<g id="a_node6"><a xlink:href="../../dd/d18/classpocketmine_1_1block_1_1_block_identifier.html" target="_top" xlink:title=" ">
<polygon fill="white" stroke="#bfbfbf" points="314.5,-860 314.5,-972 490.5,-972 490.5,-860 314.5,-860"/>
<text text-anchor="middle" x="402.5" y="-960" font-family="Helvetica,sans-Serif" font-size="10.00">pocketmine\block\BlockIdentifier</text>
<polyline fill="none" stroke="#bfbfbf" points="314.5,-953 490.5,-953 "/>
<text text-anchor="middle" x="402.5" y="-941" font-family="Helvetica,sans-Serif" font-size="10.00"> </text>
<polyline fill="none" stroke="#bfbfbf" points="314.5,-934 490.5,-934 "/>
<text text-anchor="start" x="322.5" y="-922" font-family="Helvetica,sans-Serif" font-size="10.00">+ __construct()</text>
<text text-anchor="start" x="322.5" y="-911" font-family="Helvetica,sans-Serif" font-size="10.00">+ getAllBlockIds()</text>
<text text-anchor="start" x="322.5" y="-900" font-family="Helvetica,sans-Serif" font-size="10.00">+ getBlockId()</text>
<text text-anchor="start" x="322.5" y="-889" font-family="Helvetica,sans-Serif" font-size="10.00">+ getItemId()</text>
<text text-anchor="start" x="322.5" y="-878" font-family="Helvetica,sans-Serif" font-size="10.00">+ getTileClass()</text>
<text text-anchor="start" x="322.5" y="-867" font-family="Helvetica,sans-Serif" font-size="10.00">+ getVariant()</text>
</a>
</g>
</g>
<!-- Node6&#45;&gt;Node4 -->
<g id="edge5" class="edge">
<title>Node6&#45;&gt;Node4</title>
<path fill="none" stroke="#404040" d="M402.5,-859.89C402.5,-818.04 402.5,-758.88 402.5,-706.02"/>
<polygon fill="none" stroke="#404040" points="402.5,-705.8 398.5,-699.8 402.5,-693.8 406.5,-699.8 402.5,-705.8"/>
<text text-anchor="middle" x="425.5" y="-760.5" font-family="Helvetica,sans-Serif" font-size="10.00"> #$idInfo</text>
</g>
<!-- Node7&#45;&gt;Node4 -->
<g id="edge6" class="edge">
<title>Node7&#45;&gt;Node4</title>
<path fill="none" stroke="#404040" d="M549.55,-832.2C526.66,-793.49 498.96,-746.65 473.81,-704.1"/>
<polygon fill="none" stroke="#404040" points="473.75,-704 467.25,-700.87 467.64,-693.67 474.14,-696.8 473.75,-704"/>
<text text-anchor="middle" x="567.5" y="-760.5" font-family="Helvetica,sans-Serif" font-size="10.00"> #$breakInfo</text>
</g>
<!-- Node8 -->
<g id="node8" class="node">
<title>Node8</title>
<g id="a_node8"><a xlink:href="../../d5/dd2/classpocketmine_1_1world_1_1_position.html" target="_top" xlink:title=" ">
<polygon fill="white" stroke="#bfbfbf" points="706.5,-849 706.5,-983 852.5,-983 852.5,-849 706.5,-849"/>
<text text-anchor="middle" x="779.5" y="-971" font-family="Helvetica,sans-Serif" font-size="10.00">pocketmine\world\Position</text>
<polyline fill="none" stroke="#bfbfbf" points="706.5,-964 852.5,-964 "/>
<text text-anchor="start" x="714.5" y="-952" font-family="Helvetica,sans-Serif" font-size="10.00">+ $world</text>
<polyline fill="none" stroke="#bfbfbf" points="706.5,-945 852.5,-945 "/>
<text text-anchor="start" x="714.5" y="-933" font-family="Helvetica,sans-Serif" font-size="10.00">+ __construct()</text>
<text text-anchor="start" x="714.5" y="-922" font-family="Helvetica,sans-Serif" font-size="10.00">+ __toString()</text>
<text text-anchor="start" x="714.5" y="-911" font-family="Helvetica,sans-Serif" font-size="10.00">+ asPosition()</text>
<text text-anchor="start" x="714.5" y="-900" font-family="Helvetica,sans-Serif" font-size="10.00">+ equals()</text>
<text text-anchor="start" x="714.5" y="-889" font-family="Helvetica,sans-Serif" font-size="10.00">+ getSide()</text>
<text text-anchor="start" x="714.5" y="-878" font-family="Helvetica,sans-Serif" font-size="10.00">+ getWorld()</text>
<text text-anchor="start" x="714.5" y="-867" font-family="Helvetica,sans-Serif" font-size="10.00">+ isValid()</text>
<text text-anchor="start" x="714.5" y="-856" font-family="Helvetica,sans-Serif" font-size="10.00">+ fromObject()</text>
</a>
</g>
</g>
<!-- Node8&#45;&gt;Node4 -->
<g id="edge8" class="edge">
<title>Node8&#45;&gt;Node4</title>
<path fill="none" stroke="#404040" d="M730.27,-848.95C697.14,-806.97 650.97,-753.02 603.5,-712 569.99,-683.04 529.4,-655.85 493.49,-634.01"/>
<polygon fill="none" stroke="#404040" points="493.29,-633.88 486.08,-634.22 483.01,-627.7 490.21,-627.36 493.29,-633.88"/>
<text text-anchor="middle" x="729" y="-760.5" font-family="Helvetica,sans-Serif" font-size="10.00"> #$position</text>
</g>
<!-- Node9 -->
<g id="node9" class="node">
<title>Node9</title>
<g id="a_node9"><a xlink:href="../../d2/d90/classpocketmine_1_1math_1_1_vector3.html" target="_top" xlink:title=" ">
<polygon fill="white" stroke="#bfbfbf" points="708.5,-1058.5 708.5,-1291.5 850.5,-1291.5 850.5,-1058.5 708.5,-1058.5"/>
<text text-anchor="middle" x="779.5" y="-1279.5" font-family="Helvetica,sans-Serif" font-size="10.00">pocketmine\math\Vector3</text>
<polyline fill="none" stroke="#bfbfbf" points="708.5,-1272.5 850.5,-1272.5 "/>
<text text-anchor="start" x="716.5" y="-1260.5" font-family="Helvetica,sans-Serif" font-size="10.00">+ $x</text>
<text text-anchor="start" x="716.5" y="-1249.5" font-family="Helvetica,sans-Serif" font-size="10.00">+ $y</text>
<text text-anchor="start" x="716.5" y="-1238.5" font-family="Helvetica,sans-Serif" font-size="10.00">+ $z</text>
<polyline fill="none" stroke="#bfbfbf" points="708.5,-1231.5 850.5,-1231.5 "/>
<text text-anchor="start" x="716.5" y="-1219.5" font-family="Helvetica,sans-Serif" font-size="10.00">+ __construct()</text>
<text text-anchor="start" x="716.5" y="-1208.5" font-family="Helvetica,sans-Serif" font-size="10.00">+ __toString()</text>
<text text-anchor="start" x="716.5" y="-1197.5" font-family="Helvetica,sans-Serif" font-size="10.00">+ abs()</text>
<text text-anchor="start" x="716.5" y="-1186.5" font-family="Helvetica,sans-Serif" font-size="10.00">+ add()</text>
<text text-anchor="start" x="716.5" y="-1175.5" font-family="Helvetica,sans-Serif" font-size="10.00">+ addVector()</text>
<text text-anchor="start" x="716.5" y="-1164.5" font-family="Helvetica,sans-Serif" font-size="10.00">+ asVector3()</text>
<text text-anchor="start" x="716.5" y="-1153.5" font-family="Helvetica,sans-Serif" font-size="10.00">+ ceil()</text>
<text text-anchor="start" x="716.5" y="-1142.5" font-family="Helvetica,sans-Serif" font-size="10.00">+ cross()</text>
<text text-anchor="start" x="716.5" y="-1131.5" font-family="Helvetica,sans-Serif" font-size="10.00">+ distance()</text>
<text text-anchor="start" x="716.5" y="-1120.5" font-family="Helvetica,sans-Serif" font-size="10.00">+ distanceSquared()</text>
<text text-anchor="start" x="716.5" y="-1109.5" font-family="Helvetica,sans-Serif" font-size="10.00">and 32 more...</text>
<text text-anchor="start" x="716.5" y="-1098.5" font-family="Helvetica,sans-Serif" font-size="10.00">+ maxComponents()</text>
<text text-anchor="start" x="716.5" y="-1087.5" font-family="Helvetica,sans-Serif" font-size="10.00">+ minComponents()</text>
<text text-anchor="start" x="716.5" y="-1076.5" font-family="Helvetica,sans-Serif" font-size="10.00">+ sum()</text>
<text text-anchor="start" x="716.5" y="-1065.5" font-family="Helvetica,sans-Serif" font-size="10.00">+ zero()</text>
</a>
</g>
</g>
<!-- Node9&#45;&gt;Node8 -->
<g id="edge9" class="edge">
<title>Node9&#45;&gt;Node8</title>
<path fill="none" stroke="midnightblue" d="M779.5,-1048.01C779.5,-1025.62 779.5,-1003.12 779.5,-983.25"/>
<polygon fill="none" stroke="midnightblue" points="776,-1048.28 779.5,-1058.28 783,-1048.28 776,-1048.28"/>
</g>
<!-- Node10&#45;&gt;Node2 -->
<g id="edge10" class="edge">
<title>Node10&#45;&gt;Node2</title>
<path fill="none" stroke="#404040" d="M70.54,-712.33C82.37,-628.81 106.58,-457.91 123.18,-340.78"/>
<polygon fill="none" stroke="#404040" points="123.22,-340.44 120.11,-333.93 124.91,-328.55 128.03,-335.06 123.22,-340.44"/>
<text text-anchor="middle" x="128" y="-445" font-family="Helvetica,sans-Serif" font-size="10.00"> #$text</text>
</g>
</g>
</svg>
