<?xml version="1.0" encoding="UTF-8" standalone="no"?>
<!DOCTYPE svg PUBLIC "-//W3C//DTD SVG 1.1//EN"
 "http://www.w3.org/Graphics/SVG/1.1/DTD/svg11.dtd">
<!-- Generated by graphviz version 2.43.0 (0)
 -->
<!-- Title: pocketmine\inventory\PlayerCraftingInventory Pages: 1 -->
<svg width="576pt" height="1124pt"
 viewBox="0.00 0.00 575.50 1124.00" xmlns="http://www.w3.org/2000/svg" xmlns:xlink="http://www.w3.org/1999/xlink">
<g id="graph0" class="graph" transform="scale(1 1) rotate(0) translate(4 1120)">
<title>pocketmine\inventory\PlayerCraftingInventory</title>
<polygon fill="white" stroke="transparent" points="-4,4 -4,-1120 571.5,-1120 571.5,4 -4,4"/>
<!-- Node1 -->
<g id="node1" class="node">
<title>Node1</title>
<g id="a_node1"><a xlink:title=" ">
<polygon fill="#bfbfbf" stroke="black" points="283,-0.5 283,-79.5 418,-79.5 418,-0.5 283,-0.5"/>
<text text-anchor="start" x="291" y="-67.5" font-family="Helvetica,sans-Serif" font-size="10.00">pocketmine\inventory</text>
<text text-anchor="middle" x="350.5" y="-56.5" font-family="Helvetica,sans-Serif" font-size="10.00">\PlayerCraftingInventory</text>
<polyline fill="none" stroke="black" points="283,-49.5 418,-49.5 "/>
<text text-anchor="middle" x="350.5" y="-37.5" font-family="Helvetica,sans-Serif" font-size="10.00"> </text>
<polyline fill="none" stroke="black" points="283,-30.5 418,-30.5 "/>
<text text-anchor="start" x="291" y="-18.5" font-family="Helvetica,sans-Serif" font-size="10.00">+ __construct()</text>
<text text-anchor="start" x="291" y="-7.5" font-family="Helvetica,sans-Serif" font-size="10.00">+ getHolder()</text>
</a>
</g>
</g>
<!-- Node2 -->
<g id="node2" class="node">
<title>Node2</title>
<g id="a_node2"><a xlink:href="../../de/d7a/classpocketmine_1_1crafting_1_1_crafting_grid.html" target="_top" xlink:title=" ">
<polygon fill="white" stroke="#bfbfbf" points="249.5,-117.5 249.5,-240.5 365.5,-240.5 365.5,-117.5 249.5,-117.5"/>
<text text-anchor="start" x="257.5" y="-228.5" font-family="Helvetica,sans-Serif" font-size="10.00">pocketmine\crafting</text>
<text text-anchor="middle" x="307.5" y="-217.5" font-family="Helvetica,sans-Serif" font-size="10.00">\CraftingGrid</text>
<polyline fill="none" stroke="#bfbfbf" points="249.5,-210.5 365.5,-210.5 "/>
<text text-anchor="middle" x="307.5" y="-198.5" font-family="Helvetica,sans-Serif" font-size="10.00"> </text>
<polyline fill="none" stroke="#bfbfbf" points="249.5,-191.5 365.5,-191.5 "/>
<text text-anchor="start" x="257.5" y="-179.5" font-family="Helvetica,sans-Serif" font-size="10.00">+ __construct()</text>
<text text-anchor="start" x="257.5" y="-168.5" font-family="Helvetica,sans-Serif" font-size="10.00">+ getGridWidth()</text>
<text text-anchor="start" x="257.5" y="-157.5" font-family="Helvetica,sans-Serif" font-size="10.00">+ getIngredient()</text>
<text text-anchor="start" x="257.5" y="-146.5" font-family="Helvetica,sans-Serif" font-size="10.00">+ getRecipeHeight()</text>
<text text-anchor="start" x="257.5" y="-135.5" font-family="Helvetica,sans-Serif" font-size="10.00">+ getRecipeWidth()</text>
<text text-anchor="start" x="257.5" y="-124.5" font-family="Helvetica,sans-Serif" font-size="10.00">+ setItem()</text>
</a>
</g>
</g>
<!-- Node2&#45;&gt;Node1 -->
<g id="edge1" class="edge">
<title>Node2&#45;&gt;Node1</title>
<path fill="none" stroke="midnightblue" d="M329.62,-107.53C332.63,-97.94 335.62,-88.41 338.36,-79.67"/>
<polygon fill="none" stroke="midnightblue" points="326.27,-106.52 326.61,-117.11 332.94,-108.62 326.27,-106.52"/>
</g>
<!-- Node3 -->
<g id="node3" class="node">
<title>Node3</title>
<g id="a_node3"><a xlink:href="../../d6/dc1/classpocketmine_1_1inventory_1_1_simple_inventory.html" target="_top" xlink:title=" ">
<polygon fill="white" stroke="black" points="217,-278.5 217,-423.5 364,-423.5 364,-278.5 217,-278.5"/>
<text text-anchor="start" x="225" y="-411.5" font-family="Helvetica,sans-Serif" font-size="10.00">pocketmine\inventory</text>
<text text-anchor="middle" x="290.5" y="-400.5" font-family="Helvetica,sans-Serif" font-size="10.00">\SimpleInventory</text>
<polyline fill="none" stroke="black" points="217,-393.5 364,-393.5 "/>
<text text-anchor="start" x="225" y="-381.5" font-family="Helvetica,sans-Serif" font-size="10.00"># $slots</text>
<polyline fill="none" stroke="black" points="217,-374.5 364,-374.5 "/>
<text text-anchor="start" x="225" y="-362.5" font-family="Helvetica,sans-Serif" font-size="10.00">+ __construct()</text>
<text text-anchor="start" x="225" y="-351.5" font-family="Helvetica,sans-Serif" font-size="10.00">+ getContents()</text>
<text text-anchor="start" x="225" y="-340.5" font-family="Helvetica,sans-Serif" font-size="10.00">+ getItem()</text>
<text text-anchor="start" x="225" y="-329.5" font-family="Helvetica,sans-Serif" font-size="10.00">+ getSize()</text>
<text text-anchor="start" x="225" y="-318.5" font-family="Helvetica,sans-Serif" font-size="10.00">+ isSlotEmpty()</text>
<text text-anchor="start" x="225" y="-307.5" font-family="Helvetica,sans-Serif" font-size="10.00"># getMatchingItemCount()</text>
<text text-anchor="start" x="225" y="-296.5" font-family="Helvetica,sans-Serif" font-size="10.00"># internalSetContents()</text>
<text text-anchor="start" x="225" y="-285.5" font-family="Helvetica,sans-Serif" font-size="10.00"># internalSetItem()</text>
</a>
</g>
</g>
<!-- Node3&#45;&gt;Node2 -->
<g id="edge2" class="edge">
<title>Node3&#45;&gt;Node2</title>
<path fill="none" stroke="midnightblue" d="M298.66,-268.36C299.59,-259.06 300.53,-249.72 301.42,-240.76"/>
<polygon fill="none" stroke="midnightblue" points="295.17,-268.1 297.66,-278.4 302.14,-268.8 295.17,-268.1"/>
</g>
<!-- Node4 -->
<g id="node4" class="node">
<title>Node4</title>
<g id="a_node4"><a xlink:href="../../d5/dc4/classpocketmine_1_1inventory_1_1_base_inventory.html" target="_top" xlink:title=" ">
<polygon fill="white" stroke="black" points="178,-529.5 178,-773.5 333,-773.5 333,-529.5 178,-529.5"/>
<text text-anchor="start" x="186" y="-761.5" font-family="Helvetica,sans-Serif" font-size="10.00">pocketmine\inventory</text>
<text text-anchor="middle" x="255.5" y="-750.5" font-family="Helvetica,sans-Serif" font-size="10.00">\BaseInventory</text>
<polyline fill="none" stroke="black" points="178,-743.5 333,-743.5 "/>
<text text-anchor="start" x="186" y="-731.5" font-family="Helvetica,sans-Serif" font-size="10.00"># $maxStackSize</text>
<text text-anchor="start" x="186" y="-720.5" font-family="Helvetica,sans-Serif" font-size="10.00"># $viewers</text>
<polyline fill="none" stroke="black" points="178,-713.5 333,-713.5 "/>
<text text-anchor="start" x="186" y="-701.5" font-family="Helvetica,sans-Serif" font-size="10.00">+ __construct()</text>
<text text-anchor="start" x="186" y="-690.5" font-family="Helvetica,sans-Serif" font-size="10.00">+ addItem()</text>
<text text-anchor="start" x="186" y="-679.5" font-family="Helvetica,sans-Serif" font-size="10.00">+ all()</text>
<text text-anchor="start" x="186" y="-668.5" font-family="Helvetica,sans-Serif" font-size="10.00">+ canAddItem()</text>
<text text-anchor="start" x="186" y="-657.5" font-family="Helvetica,sans-Serif" font-size="10.00">+ clear()</text>
<text text-anchor="start" x="186" y="-646.5" font-family="Helvetica,sans-Serif" font-size="10.00">+ clearAll()</text>
<text text-anchor="start" x="186" y="-635.5" font-family="Helvetica,sans-Serif" font-size="10.00">+ contains()</text>
<text text-anchor="start" x="186" y="-624.5" font-family="Helvetica,sans-Serif" font-size="10.00">+ first()</text>
<text text-anchor="start" x="186" y="-613.5" font-family="Helvetica,sans-Serif" font-size="10.00">+ firstEmpty()</text>
<text text-anchor="start" x="186" y="-602.5" font-family="Helvetica,sans-Serif" font-size="10.00">+ getAddableItemQuantity()</text>
<text text-anchor="start" x="186" y="-591.5" font-family="Helvetica,sans-Serif" font-size="10.00">and 15 more...</text>
<text text-anchor="start" x="186" y="-580.5" font-family="Helvetica,sans-Serif" font-size="10.00"># getMatchingItemCount()</text>
<text text-anchor="start" x="186" y="-569.5" font-family="Helvetica,sans-Serif" font-size="10.00"># internalSetContents()</text>
<text text-anchor="start" x="186" y="-558.5" font-family="Helvetica,sans-Serif" font-size="10.00"># internalSetItem()</text>
<text text-anchor="start" x="186" y="-547.5" font-family="Helvetica,sans-Serif" font-size="10.00"># onContentChange()</text>
<text text-anchor="start" x="186" y="-536.5" font-family="Helvetica,sans-Serif" font-size="10.00"># onSlotChange()</text>
</a>
</g>
</g>
<!-- Node4&#45;&gt;Node3 -->
<g id="edge3" class="edge">
<title>Node4&#45;&gt;Node3</title>
<path fill="none" stroke="midnightblue" d="M270.92,-518.96C274.77,-486.18 278.75,-452.24 282.11,-423.59"/>
<polygon fill="none" stroke="midnightblue" points="267.42,-518.75 269.74,-529.09 274.38,-519.56 267.42,-518.75"/>
</g>
<!-- Node5 -->
<g id="node5" class="node">
<title>Node5</title>
<g id="a_node5"><a xlink:href="../../db/d39/interfacepocketmine_1_1inventory_1_1_inventory.html" target="_top" xlink:title=" ">
<polygon fill="white" stroke="#bfbfbf" points="316,-832.5 316,-1010.5 471,-1010.5 471,-832.5 316,-832.5"/>
<text text-anchor="start" x="324" y="-998.5" font-family="Helvetica,sans-Serif" font-size="10.00">pocketmine\inventory</text>
<text text-anchor="middle" x="393.5" y="-987.5" font-family="Helvetica,sans-Serif" font-size="10.00">\Inventory</text>
<polyline fill="none" stroke="#bfbfbf" points="316,-980.5 471,-980.5 "/>
<text text-anchor="middle" x="393.5" y="-968.5" font-family="Helvetica,sans-Serif" font-size="10.00"> </text>
<polyline fill="none" stroke="#bfbfbf" points="316,-961.5 471,-961.5 "/>
<text text-anchor="start" x="324" y="-949.5" font-family="Helvetica,sans-Serif" font-size="10.00">+ addItem()</text>
<text text-anchor="start" x="324" y="-938.5" font-family="Helvetica,sans-Serif" font-size="10.00">+ all()</text>
<text text-anchor="start" x="324" y="-927.5" font-family="Helvetica,sans-Serif" font-size="10.00">+ canAddItem()</text>
<text text-anchor="start" x="324" y="-916.5" font-family="Helvetica,sans-Serif" font-size="10.00">+ clear()</text>
<text text-anchor="start" x="324" y="-905.5" font-family="Helvetica,sans-Serif" font-size="10.00">+ clearAll()</text>
<text text-anchor="start" x="324" y="-894.5" font-family="Helvetica,sans-Serif" font-size="10.00">+ contains()</text>
<text text-anchor="start" x="324" y="-883.5" font-family="Helvetica,sans-Serif" font-size="10.00">+ first()</text>
<text text-anchor="start" x="324" y="-872.5" font-family="Helvetica,sans-Serif" font-size="10.00">+ firstEmpty()</text>
<text text-anchor="start" x="324" y="-861.5" font-family="Helvetica,sans-Serif" font-size="10.00">+ getAddableItemQuantity()</text>
<text text-anchor="start" x="324" y="-850.5" font-family="Helvetica,sans-Serif" font-size="10.00">+ getContents()</text>
<text text-anchor="start" x="324" y="-839.5" font-family="Helvetica,sans-Serif" font-size="10.00">and 15 more...</text>
</a>
</g>
</g>
<!-- Node5&#45;&gt;Node4 -->
<g id="edge4" class="edge">
<title>Node5&#45;&gt;Node4</title>
<path fill="none" stroke="midnightblue" d="M343.31,-823.04C335.06,-807.02 326.43,-790.24 317.92,-773.72"/>
<polygon fill="none" stroke="midnightblue" points="340.43,-825.09 348.12,-832.38 346.66,-821.88 340.43,-825.09"/>
</g>
<!-- Node10 -->
<g id="node10" class="node">
<title>Node10</title>
<g id="a_node10"><a xlink:href="../../d5/d7b/interfacepocketmine_1_1inventory_1_1_temporary_inventory.html" target="_top" xlink:title=" ">
<polygon fill="white" stroke="#bfbfbf" points="332,-442.5 332,-510.5 455,-510.5 455,-442.5 332,-442.5"/>
<text text-anchor="start" x="340" y="-498.5" font-family="Helvetica,sans-Serif" font-size="10.00">pocketmine\inventory</text>
<text text-anchor="middle" x="393.5" y="-487.5" font-family="Helvetica,sans-Serif" font-size="10.00">\TemporaryInventory</text>
<polyline fill="none" stroke="#bfbfbf" points="332,-480.5 455,-480.5 "/>
<text text-anchor="middle" x="393.5" y="-468.5" font-family="Helvetica,sans-Serif" font-size="10.00"> </text>
<polyline fill="none" stroke="#bfbfbf" points="332,-461.5 455,-461.5 "/>
<text text-anchor="middle" x="393.5" y="-449.5" font-family="Helvetica,sans-Serif" font-size="10.00"> </text>
</a>
</g>
</g>
<!-- Node5&#45;&gt;Node10 -->
<g id="edge11" class="edge">
<title>Node5&#45;&gt;Node10</title>
<path fill="none" stroke="midnightblue" d="M393.5,-822.41C393.5,-723.3 393.5,-575.78 393.5,-510.55"/>
<polygon fill="none" stroke="midnightblue" points="390,-822.45 393.5,-832.45 397,-822.45 390,-822.45"/>
</g>
<!-- Node6 -->
<g id="node6" class="node">
<title>Node6</title>
<g id="a_node6"><a xlink:title=" ">
<polygon fill="white" stroke="#bfbfbf" points="435,-1058.5 435,-1115.5 478,-1115.5 478,-1058.5 435,-1058.5"/>
<text text-anchor="middle" x="456.5" y="-1103.5" font-family="Helvetica,sans-Serif" font-size="10.00">const</text>
<polyline fill="none" stroke="#bfbfbf" points="435,-1096.5 478,-1096.5 "/>
<text text-anchor="middle" x="456.5" y="-1084.5" font-family="Helvetica,sans-Serif" font-size="10.00"> </text>
<polyline fill="none" stroke="#bfbfbf" points="435,-1077.5 478,-1077.5 "/>
<text text-anchor="middle" x="456.5" y="-1065.5" font-family="Helvetica,sans-Serif" font-size="10.00"> </text>
</a>
</g>
</g>
<!-- Node6&#45;&gt;Node2 -->
<g id="edge9" class="edge">
<title>Node6&#45;&gt;Node2</title>
<path fill="none" stroke="#404040" d="M476.69,-1058.3C480.12,-1052.49 483.29,-1046.23 485.5,-1040 503.07,-990.43 499.5,-975.09 499.5,-922.5 499.5,-922.5 499.5,-922.5 499.5,-350 499.5,-282.32 431.79,-235.07 376.79,-207.85"/>
<polygon fill="none" stroke="#404040" points="376.45,-207.69 369.31,-208.71 365.63,-202.51 372.77,-201.5 376.45,-207.69"/>
<text text-anchor="middle" x="533.5" y="-654.5" font-family="Helvetica,sans-Serif" font-size="10.00"> +SIZE_BIG</text>
<text text-anchor="middle" x="533.5" y="-643.5" font-family="Helvetica,sans-Serif" font-size="10.00">+SIZE_SMALL</text>
</g>
<!-- Node6&#45;&gt;Node5 -->
<g id="edge5" class="edge">
<title>Node6&#45;&gt;Node5</title>
<path fill="none" stroke="#404040" d="M434.93,-1067.27C427.34,-1059.57 419.48,-1050.09 414.5,-1040 411.73,-1034.39 409.33,-1028.48 407.24,-1022.4"/>
<polygon fill="none" stroke="#404040" points="407.12,-1022.03 401.53,-1017.48 403.59,-1010.56 409.18,-1015.12 407.12,-1022.03"/>
<text text-anchor="middle" x="450" y="-1032" font-family="Helvetica,sans-Serif" font-size="10.00"> +MAX_STACK</text>
</g>
<!-- Node7 -->
<g id="node7" class="node">
<title>Node7</title>
<g id="a_node7"><a xlink:href="../../dd/d33/interfacepocketmine_1_1inventory_1_1_slot_validated_inventory.html" target="_top" xlink:title=" ">
<polygon fill="white" stroke="black" points="0,-887.5 0,-955.5 131,-955.5 131,-887.5 0,-887.5"/>
<text text-anchor="start" x="8" y="-943.5" font-family="Helvetica,sans-Serif" font-size="10.00">pocketmine\inventory</text>
<text text-anchor="middle" x="65.5" y="-932.5" font-family="Helvetica,sans-Serif" font-size="10.00">\SlotValidatedInventory</text>
<polyline fill="none" stroke="black" points="0,-925.5 131,-925.5 "/>
<text text-anchor="middle" x="65.5" y="-913.5" font-family="Helvetica,sans-Serif" font-size="10.00"> </text>
<polyline fill="none" stroke="black" points="0,-906.5 131,-906.5 "/>
<text text-anchor="start" x="8" y="-894.5" font-family="Helvetica,sans-Serif" font-size="10.00">+ getSlotValidators()</text>
</a>
</g>
</g>
<!-- Node7&#45;&gt;Node4 -->
<g id="edge6" class="edge">
<title>Node7&#45;&gt;Node4</title>
<path fill="none" stroke="midnightblue" d="M94.99,-878.91C117.16,-847.63 148.63,-803.25 177.83,-762.06"/>
<polygon fill="none" stroke="midnightblue" points="91.92,-877.19 88.99,-887.37 97.63,-881.24 91.92,-877.19"/>
</g>
<!-- Node8 -->
<g id="node8" class="node">
<title>Node8</title>
<g id="a_node8"><a xlink:href="../../dd/de5/classpocketmine_1_1utils_1_1_object_set.html" target="_top" xlink:title=" ">
<polygon fill="white" stroke="black" points="149.5,-865.5 149.5,-977.5 297.5,-977.5 297.5,-865.5 149.5,-865.5"/>
<text text-anchor="middle" x="223.5" y="-965.5" font-family="Helvetica,sans-Serif" font-size="10.00">pocketmine\utils\ObjectSet</text>
<polyline fill="none" stroke="black" points="149.5,-958.5 297.5,-958.5 "/>
<text text-anchor="middle" x="223.5" y="-946.5" font-family="Helvetica,sans-Serif" font-size="10.00"> </text>
<polyline fill="none" stroke="black" points="149.5,-939.5 297.5,-939.5 "/>
<text text-anchor="start" x="157.5" y="-927.5" font-family="Helvetica,sans-Serif" font-size="10.00">+ add()</text>
<text text-anchor="start" x="157.5" y="-916.5" font-family="Helvetica,sans-Serif" font-size="10.00">+ clear()</text>
<text text-anchor="start" x="157.5" y="-905.5" font-family="Helvetica,sans-Serif" font-size="10.00">+ contains()</text>
<text text-anchor="start" x="157.5" y="-894.5" font-family="Helvetica,sans-Serif" font-size="10.00">+ getIterator()</text>
<text text-anchor="start" x="157.5" y="-883.5" font-family="Helvetica,sans-Serif" font-size="10.00">+ remove()</text>
<text text-anchor="start" x="157.5" y="-872.5" font-family="Helvetica,sans-Serif" font-size="10.00">+ toArray()</text>
</a>
</g>
</g>
<!-- Node8&#45;&gt;Node4 -->
<g id="edge7" class="edge">
<title>Node8&#45;&gt;Node4</title>
<path fill="none" stroke="#404040" d="M230.09,-865.3C232.87,-842.03 236.23,-813.86 239.59,-785.73"/>
<polygon fill="none" stroke="#404040" points="239.61,-785.6 236.35,-779.17 241.03,-773.69 244.29,-780.12 239.61,-785.6"/>
<text text-anchor="middle" x="270.5" y="-806" font-family="Helvetica,sans-Serif" font-size="10.00"> #$listeners</text>
<text text-anchor="middle" x="270.5" y="-795" font-family="Helvetica,sans-Serif" font-size="10.00">#$validators</text>
</g>
<!-- Node9 -->
<g id="node9" class="node">
<title>Node9</title>
<g id="a_node9"><a xlink:title=" ">
<polygon fill="white" stroke="#bfbfbf" points="172,-1058.5 172,-1115.5 275,-1115.5 275,-1058.5 172,-1058.5"/>
<text text-anchor="middle" x="223.5" y="-1103.5" font-family="Helvetica,sans-Serif" font-size="10.00">IteratorAggregate</text>
<polyline fill="none" stroke="#bfbfbf" points="172,-1096.5 275,-1096.5 "/>
<text text-anchor="middle" x="223.5" y="-1084.5" font-family="Helvetica,sans-Serif" font-size="10.00"> </text>
<polyline fill="none" stroke="#bfbfbf" points="172,-1077.5 275,-1077.5 "/>
<text text-anchor="middle" x="223.5" y="-1065.5" font-family="Helvetica,sans-Serif" font-size="10.00"> </text>
</a>
</g>
</g>
<!-- Node9&#45;&gt;Node8 -->
<g id="edge8" class="edge">
<title>Node9&#45;&gt;Node8</title>
<path fill="none" stroke="midnightblue" d="M223.5,-1048.15C223.5,-1027.19 223.5,-1000.76 223.5,-977.55"/>
<polygon fill="none" stroke="midnightblue" points="220,-1048.26 223.5,-1058.26 227,-1048.26 220,-1048.26"/>
</g>
<!-- Node10&#45;&gt;Node1 -->
<g id="edge10" class="edge">
<title>Node10&#45;&gt;Node1</title>
<path fill="none" stroke="midnightblue" d="M394.72,-431.74C395.81,-363.79 394.82,-229.06 374.5,-117 372.25,-104.61 368.57,-91.43 364.76,-79.58"/>
<polygon fill="none" stroke="midnightblue" points="391.21,-432 394.52,-442.06 398.21,-432.13 391.21,-432"/>
</g>
</g>
</svg>
