<?xml version="1.0" encoding="UTF-8" standalone="no"?>
<!DOCTYPE svg PUBLIC "-//W3C//DTD SVG 1.1//EN"
 "http://www.w3.org/Graphics/SVG/1.1/DTD/svg11.dtd">
<!-- Generated by graphviz version 2.43.0 (0)
 -->
<!-- Title: pocketmine\world\ChunkListener Pages: 1 -->
<svg width="318pt" height="757pt"
 viewBox="0.00 0.00 317.50 757.00" xmlns="http://www.w3.org/2000/svg" xmlns:xlink="http://www.w3.org/1999/xlink">
<g id="graph0" class="graph" transform="scale(1 1) rotate(0) translate(4 753)">
<title>pocketmine\world\ChunkListener</title>
<!-- Node1 -->
<g id="Node000001" class="node">
<title>Node1</title>
<g id="a_Node000001"><a xlink:title=" ">
<polygon fill="#999999" stroke="transparent" points="235,-749 65,-749 65,-640 235,-640 235,-749"/>
<text text-anchor="start" x="70" y="-736.5" font-family="Helvetica,sans-Serif" font-size="10.00">pocketmine\world\ChunkListener</text>
<text text-anchor="start" x="148" y="-721.5" font-family="Helvetica,sans-Serif" font-size="10.00"> </text>
<text text-anchor="start" x="81" y="-706.5" font-family="Helvetica,sans-Serif" font-size="10.00">+</text>
<text text-anchor="start" x="106" y="-706.5" font-family="Helvetica,sans-Serif" font-size="10.00">onBlockChanged()</text>
<text text-anchor="start" x="81" y="-691.5" font-family="Helvetica,sans-Serif" font-size="10.00">+</text>
<text text-anchor="start" x="106" y="-691.5" font-family="Helvetica,sans-Serif" font-size="10.00">onChunkChanged()</text>
<text text-anchor="start" x="81" y="-676.5" font-family="Helvetica,sans-Serif" font-size="10.00">+</text>
<text text-anchor="start" x="106" y="-676.5" font-family="Helvetica,sans-Serif" font-size="10.00">onChunkLoaded()</text>
<text text-anchor="start" x="81" y="-661.5" font-family="Helvetica,sans-Serif" font-size="10.00">+</text>
<text text-anchor="start" x="106" y="-661.5" font-family="Helvetica,sans-Serif" font-size="10.00">onChunkPopulated()</text>
<text text-anchor="start" x="81" y="-646.5" font-family="Helvetica,sans-Serif" font-size="10.00">+</text>
<text text-anchor="start" x="106" y="-646.5" font-family="Helvetica,sans-Serif" font-size="10.00">onChunkUnloaded()</text>
<polygon fill="#666666" stroke="#666666" points="65,-731.5 65,-731.5 235,-731.5 235,-731.5 65,-731.5"/>
<polygon fill="#666666" stroke="#666666" points="65,-716.5 65,-716.5 235,-716.5 235,-716.5 65,-716.5"/>
<polygon fill="none" stroke="#666666" points="65,-640 65,-749 235,-749 235,-640 65,-640"/>
</a>
</g>
</g>
<!-- Node2 -->
<g id="Node000002" class="node">
<title>Node2</title>
<g id="a_Node000002"><a xlink:href="../../d0/deb/classpocketmine_1_1network_1_1mcpe_1_1cache_1_1_chunk_cache.html" target="_top" xlink:title=" ">
<polygon fill="white" stroke="transparent" points="136,-384.5 0,-384.5 0,-219.5 136,-219.5 136,-384.5"/>
<text text-anchor="start" x="5" y="-372" font-family="Helvetica,sans-Serif" font-size="10.00">pocketmine\network</text>
<text text-anchor="start" x="5" y="-361" font-family="Helvetica,sans-Serif" font-size="10.00">\mcpe\cache\ChunkCache</text>
<text text-anchor="start" x="66" y="-346" font-family="Helvetica,sans-Serif" font-size="10.00"> </text>
<text text-anchor="start" x="7" y="-331" font-family="Helvetica,sans-Serif" font-size="10.00">+</text>
<text text-anchor="start" x="23" y="-331" font-family="Helvetica,sans-Serif" font-size="10.00">calculateCacheSize()</text>
<text text-anchor="start" x="7" y="-316" font-family="Helvetica,sans-Serif" font-size="10.00">+</text>
<text text-anchor="start" x="23" y="-316" font-family="Helvetica,sans-Serif" font-size="10.00">getHitPercentage()</text>
<text text-anchor="start" x="7" y="-301" font-family="Helvetica,sans-Serif" font-size="10.00">+</text>
<text text-anchor="start" x="23" y="-301" font-family="Helvetica,sans-Serif" font-size="10.00">onBlockChanged()</text>
<text text-anchor="start" x="7" y="-286" font-family="Helvetica,sans-Serif" font-size="10.00">+</text>
<text text-anchor="start" x="23" y="-286" font-family="Helvetica,sans-Serif" font-size="10.00">onChunkChanged()</text>
<text text-anchor="start" x="7" y="-271" font-family="Helvetica,sans-Serif" font-size="10.00">+</text>
<text text-anchor="start" x="23" y="-271" font-family="Helvetica,sans-Serif" font-size="10.00">onChunkUnloaded()</text>
<text text-anchor="start" x="7" y="-256" font-family="Helvetica,sans-Serif" font-size="10.00">+</text>
<text text-anchor="start" x="23" y="-256" font-family="Helvetica,sans-Serif" font-size="10.00">request()</text>
<text text-anchor="start" x="7" y="-241" font-family="Helvetica,sans-Serif" font-size="10.00">+</text>
<text text-anchor="start" x="23" y="-241" font-family="Helvetica,sans-Serif" font-size="10.00">getInstance()</text>
<text text-anchor="start" x="7" y="-226" font-family="Helvetica,sans-Serif" font-size="10.00">+</text>
<text text-anchor="start" x="23" y="-226" font-family="Helvetica,sans-Serif" font-size="10.00">pruneCaches()</text>
<polygon fill="#666666" stroke="#666666" points="0,-356 0,-356 136,-356 136,-356 0,-356"/>
<polygon fill="#666666" stroke="#666666" points="0,-341 0,-341 136,-341 136,-341 0,-341"/>
<polygon fill="none" stroke="#666666" points="0,-219.5 0,-384.5 136,-384.5 136,-219.5 0,-219.5"/>
</a>
</g>
</g>
<!-- Node1&#45;&gt;Node2 -->
<g id="edge1_Node000001_Node000002" class="edge">
<title>Node1&#45;&gt;Node2</title>
<g id="a_edge1_Node000001_Node000002"><a xlink:title=" ">
<path fill="none" stroke="#63b8ff" d="M136.59,-629.62C122.53,-562.7 100.42,-457.39 85.12,-384.52"/>
<polygon fill="none" stroke="#63b8ff" points="133.2,-630.55 138.68,-639.61 140.05,-629.11 133.2,-630.55"/>
</a>
</g>
</g>
<!-- Node3 -->
<g id="Node000003" class="node">
<title>Node3</title>
<g id="a_Node000003"><a xlink:href="../../d0/d6f/classpocketmine_1_1player_1_1_player.html" target="_top" xlink:title=" ">
<polygon fill="white" stroke="transparent" points="309.5,-604 154.5,-604 154.5,0 309.5,0 309.5,-604"/>
<text text-anchor="start" x="170" y="-592" font-family="Helvetica,sans-Serif" font-size="10.00">pocketmine\player\Player</text>
<text text-anchor="start" x="159" y="-577" font-family="Helvetica,sans-Serif" font-size="10.00">+</text>
<text text-anchor="start" x="172" y="-577" font-family="Helvetica,sans-Serif" font-size="10.00">$spawned</text>
<text text-anchor="start" x="159" y="-562" font-family="Helvetica,sans-Serif" font-size="10.00">+</text>
<text text-anchor="start" x="172" y="-562" font-family="Helvetica,sans-Serif" font-size="10.00">TAG_FIRST_PLAYED</text>
<text text-anchor="start" x="159" y="-547" font-family="Helvetica,sans-Serif" font-size="10.00">+</text>
<text text-anchor="start" x="172" y="-547" font-family="Helvetica,sans-Serif" font-size="10.00">TAG_LAST_KNOWN_XUID</text>
<text text-anchor="start" x="159" y="-532" font-family="Helvetica,sans-Serif" font-size="10.00">+</text>
<text text-anchor="start" x="172" y="-532" font-family="Helvetica,sans-Serif" font-size="10.00">TAG_LAST_PLAYED</text>
<text text-anchor="start" x="159" y="-517" font-family="Helvetica,sans-Serif" font-size="10.00">+</text>
<text text-anchor="start" x="172" y="-517" font-family="Helvetica,sans-Serif" font-size="10.00">TAG_LEVEL</text>
<text text-anchor="start" x="159" y="-502" font-family="Helvetica,sans-Serif" font-size="10.00">#</text>
<text text-anchor="start" x="172" y="-502" font-family="Helvetica,sans-Serif" font-size="10.00">$allowFlight</text>
<text text-anchor="start" x="159" y="-487" font-family="Helvetica,sans-Serif" font-size="10.00">#</text>
<text text-anchor="start" x="172" y="-487" font-family="Helvetica,sans-Serif" font-size="10.00">$authenticated</text>
<text text-anchor="start" x="159" y="-472" font-family="Helvetica,sans-Serif" font-size="10.00">#</text>
<text text-anchor="start" x="172" y="-472" font-family="Helvetica,sans-Serif" font-size="10.00">$autoJump</text>
<text text-anchor="start" x="159" y="-457" font-family="Helvetica,sans-Serif" font-size="10.00">#</text>
<text text-anchor="start" x="172" y="-457" font-family="Helvetica,sans-Serif" font-size="10.00">$blockBreakHandler</text>
<text text-anchor="start" x="159" y="-442" font-family="Helvetica,sans-Serif" font-size="10.00">#</text>
<text text-anchor="start" x="172" y="-442" font-family="Helvetica,sans-Serif" font-size="10.00">$blockCollision</text>
<text text-anchor="start" x="159" y="-427" font-family="Helvetica,sans-Serif" font-size="10.00">#</text>
<text text-anchor="start" x="172" y="-427" font-family="Helvetica,sans-Serif" font-size="10.00">$chunkLoader</text>
<text text-anchor="start" x="159" y="-412" font-family="Helvetica,sans-Serif" font-size="10.00">#</text>
<text text-anchor="start" x="172" y="-412" font-family="Helvetica,sans-Serif" font-size="10.00">$chunkSelector</text>
<text text-anchor="start" x="159" y="-397" font-family="Helvetica,sans-Serif" font-size="10.00">#</text>
<text text-anchor="start" x="172" y="-397" font-family="Helvetica,sans-Serif" font-size="10.00">$chunksPerTick</text>
<text text-anchor="start" x="159" y="-382" font-family="Helvetica,sans-Serif" font-size="10.00">#</text>
<text text-anchor="start" x="172" y="-382" font-family="Helvetica,sans-Serif" font-size="10.00">$chunkTicker</text>
<text text-anchor="start" x="159" y="-367" font-family="Helvetica,sans-Serif" font-size="10.00">#</text>
<text text-anchor="start" x="172" y="-367" font-family="Helvetica,sans-Serif" font-size="10.00">$craftingGrid</text>
<text text-anchor="start" x="172" y="-352" font-family="Helvetica,sans-Serif" font-size="10.00">and 33 more...</text>
<text text-anchor="start" x="159" y="-337" font-family="Helvetica,sans-Serif" font-size="10.00">+</text>
<text text-anchor="start" x="172" y="-337" font-family="Helvetica,sans-Serif" font-size="10.00">__construct()</text>
<text text-anchor="start" x="159" y="-322" font-family="Helvetica,sans-Serif" font-size="10.00">+</text>
<text text-anchor="start" x="172" y="-322" font-family="Helvetica,sans-Serif" font-size="10.00">__destruct()</text>
<text text-anchor="start" x="159" y="-307" font-family="Helvetica,sans-Serif" font-size="10.00">+</text>
<text text-anchor="start" x="172" y="-307" font-family="Helvetica,sans-Serif" font-size="10.00">__debugInfo()</text>
<text text-anchor="start" x="159" y="-292" font-family="Helvetica,sans-Serif" font-size="10.00">+</text>
<text text-anchor="start" x="172" y="-292" font-family="Helvetica,sans-Serif" font-size="10.00">attack()</text>
<text text-anchor="start" x="159" y="-277" font-family="Helvetica,sans-Serif" font-size="10.00">+</text>
<text text-anchor="start" x="172" y="-277" font-family="Helvetica,sans-Serif" font-size="10.00">attackBlock()</text>
<text text-anchor="start" x="159" y="-262" font-family="Helvetica,sans-Serif" font-size="10.00">+</text>
<text text-anchor="start" x="172" y="-262" font-family="Helvetica,sans-Serif" font-size="10.00">attackEntity()</text>
<text text-anchor="start" x="159" y="-247" font-family="Helvetica,sans-Serif" font-size="10.00">+</text>
<text text-anchor="start" x="172" y="-247" font-family="Helvetica,sans-Serif" font-size="10.00">breakBlock()</text>
<text text-anchor="start" x="159" y="-232" font-family="Helvetica,sans-Serif" font-size="10.00">+</text>
<text text-anchor="start" x="172" y="-232" font-family="Helvetica,sans-Serif" font-size="10.00">broadcastAnimation()</text>
<text text-anchor="start" x="159" y="-217" font-family="Helvetica,sans-Serif" font-size="10.00">+</text>
<text text-anchor="start" x="172" y="-217" font-family="Helvetica,sans-Serif" font-size="10.00">broadcastSound()</text>
<text text-anchor="start" x="159" y="-202" font-family="Helvetica,sans-Serif" font-size="10.00">+</text>
<text text-anchor="start" x="172" y="-202" font-family="Helvetica,sans-Serif" font-size="10.00">canBeCollidedWith()</text>
<text text-anchor="start" x="172" y="-187" font-family="Helvetica,sans-Serif" font-size="10.00">and 130 more...</text>
<text text-anchor="start" x="159" y="-172" font-family="Helvetica,sans-Serif" font-size="10.00">+</text>
<text text-anchor="start" x="172" y="-172" font-family="Helvetica,sans-Serif" font-size="10.00">isValidUserName()</text>
<text text-anchor="start" x="159" y="-157" font-family="Helvetica,sans-Serif" font-size="10.00">#</text>
<text text-anchor="start" x="172" y="-157" font-family="Helvetica,sans-Serif" font-size="10.00">actuallyRespawn()</text>
<text text-anchor="start" x="159" y="-142" font-family="Helvetica,sans-Serif" font-size="10.00">#</text>
<text text-anchor="start" x="172" y="-142" font-family="Helvetica,sans-Serif" font-size="10.00">addDefaultWindows()</text>
<text text-anchor="start" x="159" y="-127" font-family="Helvetica,sans-Serif" font-size="10.00">#</text>
<text text-anchor="start" x="172" y="-127" font-family="Helvetica,sans-Serif" font-size="10.00">addPermanentInventories()</text>
<text text-anchor="start" x="159" y="-112" font-family="Helvetica,sans-Serif" font-size="10.00">#</text>
<text text-anchor="start" x="172" y="-112" font-family="Helvetica,sans-Serif" font-size="10.00">applyPostDamageEffects()</text>
<text text-anchor="start" x="159" y="-97" font-family="Helvetica,sans-Serif" font-size="10.00">#</text>
<text text-anchor="start" x="172" y="-97" font-family="Helvetica,sans-Serif" font-size="10.00">calculateFallDamage()</text>
<text text-anchor="start" x="159" y="-82" font-family="Helvetica,sans-Serif" font-size="10.00">#</text>
<text text-anchor="start" x="172" y="-82" font-family="Helvetica,sans-Serif" font-size="10.00">checkGroundState()</text>
<text text-anchor="start" x="159" y="-67" font-family="Helvetica,sans-Serif" font-size="10.00">#</text>
<text text-anchor="start" x="172" y="-67" font-family="Helvetica,sans-Serif" font-size="10.00">checkItemCooldowns()</text>
<text text-anchor="start" x="159" y="-52" font-family="Helvetica,sans-Serif" font-size="10.00">#</text>
<text text-anchor="start" x="172" y="-52" font-family="Helvetica,sans-Serif" font-size="10.00">checkNearEntities()</text>
<text text-anchor="start" x="159" y="-37" font-family="Helvetica,sans-Serif" font-size="10.00">#</text>
<text text-anchor="start" x="172" y="-37" font-family="Helvetica,sans-Serif" font-size="10.00">destroyCycles()</text>
<text text-anchor="start" x="159" y="-22" font-family="Helvetica,sans-Serif" font-size="10.00">#</text>
<text text-anchor="start" x="172" y="-22" font-family="Helvetica,sans-Serif" font-size="10.00">initEntity()</text>
<text text-anchor="start" x="172" y="-7" font-family="Helvetica,sans-Serif" font-size="10.00">and 18 more...</text>
<polygon fill="#666666" stroke="#666666" points="155,-587 155,-587 310,-587 310,-587 155,-587"/>
<polygon fill="#666666" stroke="#666666" points="155,-347 155,-347 170,-347 170,-347 155,-347"/>
<polygon fill="#666666" stroke="#666666" points="170,-347 170,-347 310,-347 310,-347 170,-347"/>
<polygon fill="none" stroke="#666666" points="154.5,0 154.5,-604 309.5,-604 309.5,0 154.5,0"/>
</a>
</g>
</g>
<!-- Node1&#45;&gt;Node3 -->
<g id="edge2_Node000001_Node000003" class="edge">
<title>Node1&#45;&gt;Node3</title>
<g id="a_edge2_Node000001_Node000003"><a xlink:title=" ">
<path fill="none" stroke="#63b8ff" d="M163.38,-629.8C165.05,-621.81 166.85,-613.27 168.73,-604.31"/>
<polygon fill="none" stroke="#63b8ff" points="159.95,-629.11 161.32,-639.61 166.8,-630.55 159.95,-629.11"/>
</a>
</g>
</g>
</g>
</svg>
