<?xml version="1.0" encoding="UTF-8" standalone="no"?>
<!DOCTYPE svg PUBLIC "-//W3C//DTD SVG 1.1//EN"
 "http://www.w3.org/Graphics/SVG/1.1/DTD/svg11.dtd">
<!-- Generated by graphviz version 2.43.0 (0)
 -->
<!-- Title: pocketmine\world\generator\populator\Tree Pages: 1 -->
<svg width="162pt" height="215pt"
 viewBox="0.00 0.00 162.00 215.00" xmlns="http://www.w3.org/2000/svg" xmlns:xlink="http://www.w3.org/1999/xlink">
<g id="graph0" class="graph" transform="scale(1 1) rotate(0) translate(4 211)">
<title>pocketmine\world\generator\populator\Tree</title>
<polygon fill="white" stroke="transparent" points="-4,4 -4,-211 158,-211 158,4 -4,4"/>
<!-- Node1 -->
<g id="node1" class="node">
<title>Node1</title>
<g id="a_node1"><a xlink:title=" ">
<polygon fill="#bfbfbf" stroke="black" points="0,-0.5 0,-101.5 154,-101.5 154,-0.5 0,-0.5"/>
<text text-anchor="start" x="8" y="-89.5" font-family="Helvetica,sans-Serif" font-size="10.00">pocketmine\world\generator</text>
<text text-anchor="middle" x="77" y="-78.5" font-family="Helvetica,sans-Serif" font-size="10.00">\populator\Tree</text>
<polyline fill="none" stroke="black" points="0,-71.5 154,-71.5 "/>
<text text-anchor="middle" x="77" y="-59.5" font-family="Helvetica,sans-Serif" font-size="10.00"> </text>
<polyline fill="none" stroke="black" points="0,-52.5 154,-52.5 "/>
<text text-anchor="start" x="8" y="-40.5" font-family="Helvetica,sans-Serif" font-size="10.00">+ __construct()</text>
<text text-anchor="start" x="8" y="-29.5" font-family="Helvetica,sans-Serif" font-size="10.00">+ populate()</text>
<text text-anchor="start" x="8" y="-18.5" font-family="Helvetica,sans-Serif" font-size="10.00">+ setBaseAmount()</text>
<text text-anchor="start" x="8" y="-7.5" font-family="Helvetica,sans-Serif" font-size="10.00">+ setRandomAmount()</text>
</a>
</g>
</g>
<!-- Node2 -->
<g id="node2" class="node">
<title>Node2</title>
<g id="a_node2"><a xlink:href="../../dd/d63/interfacepocketmine_1_1world_1_1generator_1_1populator_1_1_populator.html" target="_top" xlink:title=" ">
<polygon fill="white" stroke="#bfbfbf" points="0,-138.5 0,-206.5 154,-206.5 154,-138.5 0,-138.5"/>
<text text-anchor="start" x="8" y="-194.5" font-family="Helvetica,sans-Serif" font-size="10.00">pocketmine\world\generator</text>
<text text-anchor="middle" x="77" y="-183.5" font-family="Helvetica,sans-Serif" font-size="10.00">\populator\Populator</text>
<polyline fill="none" stroke="#bfbfbf" points="0,-176.5 154,-176.5 "/>
<text text-anchor="middle" x="77" y="-164.5" font-family="Helvetica,sans-Serif" font-size="10.00"> </text>
<polyline fill="none" stroke="#bfbfbf" points="0,-157.5 154,-157.5 "/>
<text text-anchor="start" x="8" y="-145.5" font-family="Helvetica,sans-Serif" font-size="10.00">+ populate()</text>
</a>
</g>
</g>
<!-- Node2&#45;&gt;Node1 -->
<g id="edge1" class="edge">
<title>Node2&#45;&gt;Node1</title>
<path fill="none" stroke="midnightblue" d="M77,-128.05C77,-119.47 77,-110.41 77,-101.65"/>
<polygon fill="none" stroke="midnightblue" points="73.5,-128.21 77,-138.21 80.5,-128.21 73.5,-128.21"/>
</g>
</g>
</svg>
