<?xml version="1.0" encoding="UTF-8" standalone="no"?>
<!DOCTYPE svg PUBLIC "-//W3C//DTD SVG 1.1//EN"
 "http://www.w3.org/Graphics/SVG/1.1/DTD/svg11.dtd">
<!-- Generated by graphviz version 2.43.0 (0)
 -->
<!-- Title: pocketmine\block\Carrot Pages: 1 -->
<svg width="184pt" height="739pt"
 viewBox="0.00 0.00 184.00 739.00" xmlns="http://www.w3.org/2000/svg" xmlns:xlink="http://www.w3.org/1999/xlink">
<g id="graph0" class="graph" transform="scale(1 1) rotate(0) translate(4 735)">
<title>pocketmine\block\Carrot</title>
<polygon fill="white" stroke="transparent" points="-4,4 -4,-735 180,-735 180,4 -4,4"/>
<!-- Node1 -->
<g id="node1" class="node">
<title>Node1</title>
<g id="a_node1"><a xlink:title=" ">
<polygon fill="#bfbfbf" stroke="black" points="3,-0.5 3,-68.5 173,-68.5 173,-0.5 3,-0.5"/>
<text text-anchor="middle" x="88" y="-56.5" font-family="Helvetica,sans-Serif" font-size="10.00">pocketmine\block\Carrot</text>
<polyline fill="none" stroke="black" points="3,-49.5 173,-49.5 "/>
<text text-anchor="middle" x="88" y="-37.5" font-family="Helvetica,sans-Serif" font-size="10.00"> </text>
<polyline fill="none" stroke="black" points="3,-30.5 173,-30.5 "/>
<text text-anchor="start" x="11" y="-18.5" font-family="Helvetica,sans-Serif" font-size="10.00">+ asItem()</text>
<text text-anchor="start" x="11" y="-7.5" font-family="Helvetica,sans-Serif" font-size="10.00">+ getDropsForCompatibleTool()</text>
</a>
</g>
</g>
<!-- Node2 -->
<g id="node2" class="node">
<title>Node2</title>
<g id="a_node2"><a xlink:href="../../d2/d70/classpocketmine_1_1block_1_1_crops.html" target="_top" xlink:title=" ">
<polygon fill="white" stroke="#bfbfbf" points="21,-105.5 21,-184.5 155,-184.5 155,-105.5 21,-105.5"/>
<text text-anchor="middle" x="88" y="-172.5" font-family="Helvetica,sans-Serif" font-size="10.00">pocketmine\block\Crops</text>
<polyline fill="none" stroke="#bfbfbf" points="21,-165.5 155,-165.5 "/>
<text text-anchor="start" x="29" y="-153.5" font-family="Helvetica,sans-Serif" font-size="10.00">+ MAX_AGE</text>
<polyline fill="none" stroke="#bfbfbf" points="21,-146.5 155,-146.5 "/>
<text text-anchor="start" x="29" y="-134.5" font-family="Helvetica,sans-Serif" font-size="10.00">+ onInteract()</text>
<text text-anchor="start" x="29" y="-123.5" font-family="Helvetica,sans-Serif" font-size="10.00">+ onRandomTick()</text>
<text text-anchor="start" x="29" y="-112.5" font-family="Helvetica,sans-Serif" font-size="10.00">+ ticksRandomly()</text>
</a>
</g>
</g>
<!-- Node2&#45;&gt;Node1 -->
<g id="edge1" class="edge">
<title>Node2&#45;&gt;Node1</title>
<path fill="none" stroke="midnightblue" d="M88,-95.35C88,-86.28 88,-77 88,-68.54"/>
<polygon fill="none" stroke="midnightblue" points="84.5,-95.44 88,-105.44 91.5,-95.44 84.5,-95.44"/>
</g>
<!-- Node3 -->
<g id="node3" class="node">
<title>Node3</title>
<g id="a_node3"><a xlink:href="../../d3/d1e/classpocketmine_1_1block_1_1_flowable.html" target="_top" xlink:title=" ">
<polygon fill="white" stroke="black" points="7.5,-221.5 7.5,-311.5 168.5,-311.5 168.5,-221.5 7.5,-221.5"/>
<text text-anchor="middle" x="88" y="-299.5" font-family="Helvetica,sans-Serif" font-size="10.00">pocketmine\block\Flowable</text>
<polyline fill="none" stroke="black" points="7.5,-292.5 168.5,-292.5 "/>
<text text-anchor="middle" x="88" y="-280.5" font-family="Helvetica,sans-Serif" font-size="10.00"> </text>
<polyline fill="none" stroke="black" points="7.5,-273.5 168.5,-273.5 "/>
<text text-anchor="start" x="15.5" y="-261.5" font-family="Helvetica,sans-Serif" font-size="10.00">+ canBeFlowedInto()</text>
<text text-anchor="start" x="15.5" y="-250.5" font-family="Helvetica,sans-Serif" font-size="10.00">+ getSupportType()</text>
<text text-anchor="start" x="15.5" y="-239.5" font-family="Helvetica,sans-Serif" font-size="10.00">+ isSolid()</text>
<text text-anchor="start" x="15.5" y="-228.5" font-family="Helvetica,sans-Serif" font-size="10.00"># recalculateCollisionBoxes()</text>
</a>
</g>
</g>
<!-- Node3&#45;&gt;Node2 -->
<g id="edge2" class="edge">
<title>Node3&#45;&gt;Node2</title>
<path fill="none" stroke="midnightblue" d="M88,-211.08C88,-202.23 88,-193.23 88,-184.86"/>
<polygon fill="none" stroke="midnightblue" points="84.5,-211.34 88,-221.34 91.5,-211.34 84.5,-211.34"/>
</g>
<!-- Node4 -->
<g id="node4" class="node">
<title>Node4</title>
<g id="a_node4"><a xlink:href="../../d5/d1b/classpocketmine_1_1block_1_1_transparent.html" target="_top" xlink:title=" ">
<polygon fill="white" stroke="black" points="6.5,-348.5 6.5,-405.5 169.5,-405.5 169.5,-348.5 6.5,-348.5"/>
<text text-anchor="middle" x="88" y="-393.5" font-family="Helvetica,sans-Serif" font-size="10.00">pocketmine\block\Transparent</text>
<polyline fill="none" stroke="black" points="6.5,-386.5 169.5,-386.5 "/>
<text text-anchor="middle" x="88" y="-374.5" font-family="Helvetica,sans-Serif" font-size="10.00"> </text>
<polyline fill="none" stroke="black" points="6.5,-367.5 169.5,-367.5 "/>
<text text-anchor="start" x="14.5" y="-355.5" font-family="Helvetica,sans-Serif" font-size="10.00">+ isTransparent()</text>
</a>
</g>
</g>
<!-- Node4&#45;&gt;Node3 -->
<g id="edge3" class="edge">
<title>Node4&#45;&gt;Node3</title>
<path fill="none" stroke="midnightblue" d="M88,-338.21C88,-329.61 88,-320.39 88,-311.55"/>
<polygon fill="none" stroke="midnightblue" points="84.5,-338.34 88,-348.34 91.5,-338.34 84.5,-338.34"/>
</g>
<!-- Node5 -->
<g id="node5" class="node">
<title>Node5</title>
<g id="a_node5"><a xlink:href="../../d7/d27/classpocketmine_1_1block_1_1_block.html" target="_top" xlink:title=" ">
<polygon fill="white" stroke="#bfbfbf" points="0,-442.5 0,-730.5 176,-730.5 176,-442.5 0,-442.5"/>
<text text-anchor="middle" x="88" y="-718.5" font-family="Helvetica,sans-Serif" font-size="10.00">pocketmine\block\Block</text>
<polyline fill="none" stroke="#bfbfbf" points="0,-711.5 176,-711.5 "/>
<text text-anchor="start" x="8" y="-699.5" font-family="Helvetica,sans-Serif" font-size="10.00">+ EMPTY_STATE_ID</text>
<text text-anchor="start" x="8" y="-688.5" font-family="Helvetica,sans-Serif" font-size="10.00">+ INTERNAL_STATE_DATA_BITS</text>
<text text-anchor="start" x="8" y="-677.5" font-family="Helvetica,sans-Serif" font-size="10.00">+ INTERNAL_STATE_DATA_MASK</text>
<text text-anchor="start" x="8" y="-666.5" font-family="Helvetica,sans-Serif" font-size="10.00"># $collisionBoxes</text>
<text text-anchor="start" x="8" y="-655.5" font-family="Helvetica,sans-Serif" font-size="10.00"># $fallbackName</text>
<text text-anchor="start" x="8" y="-644.5" font-family="Helvetica,sans-Serif" font-size="10.00"># $idInfo</text>
<text text-anchor="start" x="8" y="-633.5" font-family="Helvetica,sans-Serif" font-size="10.00"># $position</text>
<text text-anchor="start" x="8" y="-622.5" font-family="Helvetica,sans-Serif" font-size="10.00"># $typeInfo</text>
<polyline fill="none" stroke="#bfbfbf" points="0,-615.5 176,-615.5 "/>
<text text-anchor="start" x="8" y="-603.5" font-family="Helvetica,sans-Serif" font-size="10.00">+ __construct()</text>
<text text-anchor="start" x="8" y="-592.5" font-family="Helvetica,sans-Serif" font-size="10.00">+ __clone()</text>
<text text-anchor="start" x="8" y="-581.5" font-family="Helvetica,sans-Serif" font-size="10.00">+ __toString()</text>
<text text-anchor="start" x="8" y="-570.5" font-family="Helvetica,sans-Serif" font-size="10.00">+ addVelocityToEntity()</text>
<text text-anchor="start" x="8" y="-559.5" font-family="Helvetica,sans-Serif" font-size="10.00">+ asItem()</text>
<text text-anchor="start" x="8" y="-548.5" font-family="Helvetica,sans-Serif" font-size="10.00">+ blocksDirectSkyLight()</text>
<text text-anchor="start" x="8" y="-537.5" font-family="Helvetica,sans-Serif" font-size="10.00">+ burnsForever()</text>
<text text-anchor="start" x="8" y="-526.5" font-family="Helvetica,sans-Serif" font-size="10.00">+ calculateIntercept()</text>
<text text-anchor="start" x="8" y="-515.5" font-family="Helvetica,sans-Serif" font-size="10.00">+ canBeFlowedInto()</text>
<text text-anchor="start" x="8" y="-504.5" font-family="Helvetica,sans-Serif" font-size="10.00">+ canBePlaced()</text>
<text text-anchor="start" x="8" y="-493.5" font-family="Helvetica,sans-Serif" font-size="10.00">and 60 more...</text>
<text text-anchor="start" x="8" y="-482.5" font-family="Helvetica,sans-Serif" font-size="10.00"># describeBlockOnlyState()</text>
<text text-anchor="start" x="8" y="-471.5" font-family="Helvetica,sans-Serif" font-size="10.00"># getAdjacentSupportType()</text>
<text text-anchor="start" x="8" y="-460.5" font-family="Helvetica,sans-Serif" font-size="10.00"># getXpDropAmount()</text>
<text text-anchor="start" x="8" y="-449.5" font-family="Helvetica,sans-Serif" font-size="10.00"># recalculateCollisionBoxes()</text>
</a>
</g>
</g>
<!-- Node5&#45;&gt;Node4 -->
<g id="edge4" class="edge">
<title>Node5&#45;&gt;Node4</title>
<path fill="none" stroke="midnightblue" d="M88,-432.17C88,-422.35 88,-413.31 88,-405.54"/>
<polygon fill="none" stroke="midnightblue" points="84.5,-432.23 88,-442.23 91.5,-432.23 84.5,-432.23"/>
</g>
</g>
</svg>
