<?xml version="1.0" encoding="UTF-8" standalone="no"?>
<!DOCTYPE svg PUBLIC "-//W3C//DTD SVG 1.1//EN"
 "http://www.w3.org/Graphics/SVG/1.1/DTD/svg11.dtd">
<!-- Generated by graphviz version 2.43.0 (0)
 -->
<!-- Title: pocketmine\block\WeightedPressurePlateHeavy Pages: 1 -->
<svg width="732pt" height="1217pt"
 viewBox="0.00 0.00 732.31 1217.00" xmlns="http://www.w3.org/2000/svg" xmlns:xlink="http://www.w3.org/1999/xlink">
<g id="graph0" class="graph" transform="scale(1 1) rotate(0) translate(4 1213)">
<title>pocketmine\block\WeightedPressurePlateHeavy</title>
<polygon fill="white" stroke="transparent" points="-4,4 -4,-1213 728.31,-1213 728.31,4 -4,4"/>
<!-- Node1 -->
<g id="node1" class="node">
<title>Node1</title>
<g id="a_node1"><a xlink:title=" ">
<polygon fill="#bfbfbf" stroke="black" points="347.31,-0.5 347.31,-68.5 499.31,-68.5 499.31,-0.5 347.31,-0.5"/>
<text text-anchor="start" x="355.31" y="-56.5" font-family="Helvetica,sans-Serif" font-size="10.00">pocketmine\block\Weighted</text>
<text text-anchor="middle" x="423.31" y="-45.5" font-family="Helvetica,sans-Serif" font-size="10.00">PressurePlateHeavy</text>
<polyline fill="none" stroke="black" points="347.31,-38.5 499.31,-38.5 "/>
<text text-anchor="middle" x="423.31" y="-26.5" font-family="Helvetica,sans-Serif" font-size="10.00"> </text>
<polyline fill="none" stroke="black" points="347.31,-19.5 499.31,-19.5 "/>
<text text-anchor="middle" x="423.31" y="-7.5" font-family="Helvetica,sans-Serif" font-size="10.00"> </text>
</a>
</g>
</g>
<!-- Node2 -->
<g id="node2" class="node">
<title>Node2</title>
<g id="a_node2"><a xlink:href="../../d6/dc1/classpocketmine_1_1block_1_1_weighted_pressure_plate.html" target="_top" xlink:title=" ">
<polygon fill="white" stroke="#bfbfbf" points="347.31,-106.5 347.31,-196.5 499.31,-196.5 499.31,-106.5 347.31,-106.5"/>
<text text-anchor="start" x="355.31" y="-184.5" font-family="Helvetica,sans-Serif" font-size="10.00">pocketmine\block\Weighted</text>
<text text-anchor="middle" x="423.31" y="-173.5" font-family="Helvetica,sans-Serif" font-size="10.00">PressurePlate</text>
<polyline fill="none" stroke="#bfbfbf" points="347.31,-166.5 499.31,-166.5 "/>
<text text-anchor="middle" x="423.31" y="-154.5" font-family="Helvetica,sans-Serif" font-size="10.00"> </text>
<polyline fill="none" stroke="#bfbfbf" points="347.31,-147.5 499.31,-147.5 "/>
<text text-anchor="start" x="355.31" y="-135.5" font-family="Helvetica,sans-Serif" font-size="10.00">+ getStateBitmask()</text>
<text text-anchor="start" x="355.31" y="-124.5" font-family="Helvetica,sans-Serif" font-size="10.00">+ readStateFromData()</text>
<text text-anchor="start" x="355.31" y="-113.5" font-family="Helvetica,sans-Serif" font-size="10.00"># writeStateToMeta()</text>
</a>
</g>
</g>
<!-- Node2&#45;&gt;Node1 -->
<g id="edge1" class="edge">
<title>Node2&#45;&gt;Node1</title>
<path fill="none" stroke="midnightblue" d="M423.31,-96.23C423.31,-86.8 423.31,-77.26 423.31,-68.62"/>
<polygon fill="none" stroke="midnightblue" points="419.81,-96.37 423.31,-106.37 426.81,-96.37 419.81,-96.37"/>
</g>
<!-- Node3 -->
<g id="node3" class="node">
<title>Node3</title>
<g id="a_node3"><a xlink:href="../../de/d89/classpocketmine_1_1block_1_1_pressure_plate.html" target="_top" xlink:title=" ">
<polygon fill="white" stroke="#bfbfbf" points="342.81,-234.5 342.81,-346.5 503.81,-346.5 503.81,-234.5 342.81,-234.5"/>
<text text-anchor="start" x="350.81" y="-334.5" font-family="Helvetica,sans-Serif" font-size="10.00">pocketmine\block\Pressure</text>
<text text-anchor="middle" x="423.31" y="-323.5" font-family="Helvetica,sans-Serif" font-size="10.00">Plate</text>
<polyline fill="none" stroke="#bfbfbf" points="342.81,-316.5 503.81,-316.5 "/>
<text text-anchor="middle" x="423.31" y="-304.5" font-family="Helvetica,sans-Serif" font-size="10.00"> </text>
<polyline fill="none" stroke="#bfbfbf" points="342.81,-297.5 503.81,-297.5 "/>
<text text-anchor="start" x="350.81" y="-285.5" font-family="Helvetica,sans-Serif" font-size="10.00">+ getSupportType()</text>
<text text-anchor="start" x="350.81" y="-274.5" font-family="Helvetica,sans-Serif" font-size="10.00">+ isSolid()</text>
<text text-anchor="start" x="350.81" y="-263.5" font-family="Helvetica,sans-Serif" font-size="10.00">+ onNearbyBlockChange()</text>
<text text-anchor="start" x="350.81" y="-252.5" font-family="Helvetica,sans-Serif" font-size="10.00">+ place()</text>
<text text-anchor="start" x="350.81" y="-241.5" font-family="Helvetica,sans-Serif" font-size="10.00"># recalculateCollisionBoxes()</text>
</a>
</g>
</g>
<!-- Node3&#45;&gt;Node2 -->
<g id="edge2" class="edge">
<title>Node3&#45;&gt;Node2</title>
<path fill="none" stroke="midnightblue" d="M423.31,-224.13C423.31,-214.83 423.31,-205.44 423.31,-196.67"/>
<polygon fill="none" stroke="midnightblue" points="419.81,-224.17 423.31,-234.17 426.81,-224.17 419.81,-224.17"/>
</g>
<!-- Node4 -->
<g id="node4" class="node">
<title>Node4</title>
<g id="a_node4"><a xlink:href="../../d5/d1b/classpocketmine_1_1block_1_1_transparent.html" target="_top" xlink:title=" ">
<polygon fill="white" stroke="black" points="341.81,-384.5 341.81,-441.5 504.81,-441.5 504.81,-384.5 341.81,-384.5"/>
<text text-anchor="middle" x="423.31" y="-429.5" font-family="Helvetica,sans-Serif" font-size="10.00">pocketmine\block\Transparent</text>
<polyline fill="none" stroke="black" points="341.81,-422.5 504.81,-422.5 "/>
<text text-anchor="middle" x="423.31" y="-410.5" font-family="Helvetica,sans-Serif" font-size="10.00"> </text>
<polyline fill="none" stroke="black" points="341.81,-403.5 504.81,-403.5 "/>
<text text-anchor="start" x="349.81" y="-391.5" font-family="Helvetica,sans-Serif" font-size="10.00">+ isTransparent()</text>
</a>
</g>
</g>
<!-- Node4&#45;&gt;Node3 -->
<g id="edge3" class="edge">
<title>Node4&#45;&gt;Node3</title>
<path fill="none" stroke="midnightblue" d="M423.31,-374.11C423.31,-365.36 423.31,-355.88 423.31,-346.57"/>
<polygon fill="none" stroke="midnightblue" points="419.81,-374.35 423.31,-384.35 426.81,-374.35 419.81,-374.35"/>
</g>
<!-- Node5 -->
<g id="node5" class="node">
<title>Node5</title>
<g id="a_node5"><a xlink:href="../../d7/d27/classpocketmine_1_1block_1_1_block.html" target="_top" xlink:title=" ">
<polygon fill="white" stroke="#bfbfbf" points="342.81,-479.5 342.81,-701.5 503.81,-701.5 503.81,-479.5 342.81,-479.5"/>
<text text-anchor="middle" x="423.31" y="-689.5" font-family="Helvetica,sans-Serif" font-size="10.00">pocketmine\block\Block</text>
<polyline fill="none" stroke="#bfbfbf" points="342.81,-682.5 503.81,-682.5 "/>
<text text-anchor="start" x="350.81" y="-670.5" font-family="Helvetica,sans-Serif" font-size="10.00"># $collisionBoxes</text>
<text text-anchor="start" x="350.81" y="-659.5" font-family="Helvetica,sans-Serif" font-size="10.00"># $fallbackName</text>
<polyline fill="none" stroke="#bfbfbf" points="342.81,-652.5 503.81,-652.5 "/>
<text text-anchor="start" x="350.81" y="-640.5" font-family="Helvetica,sans-Serif" font-size="10.00">+ __construct()</text>
<text text-anchor="start" x="350.81" y="-629.5" font-family="Helvetica,sans-Serif" font-size="10.00">+ __clone()</text>
<text text-anchor="start" x="350.81" y="-618.5" font-family="Helvetica,sans-Serif" font-size="10.00">+ __toString()</text>
<text text-anchor="start" x="350.81" y="-607.5" font-family="Helvetica,sans-Serif" font-size="10.00">+ addVelocityToEntity()</text>
<text text-anchor="start" x="350.81" y="-596.5" font-family="Helvetica,sans-Serif" font-size="10.00">+ asItem()</text>
<text text-anchor="start" x="350.81" y="-585.5" font-family="Helvetica,sans-Serif" font-size="10.00">+ blocksDirectSkyLight()</text>
<text text-anchor="start" x="350.81" y="-574.5" font-family="Helvetica,sans-Serif" font-size="10.00">+ burnsForever()</text>
<text text-anchor="start" x="350.81" y="-563.5" font-family="Helvetica,sans-Serif" font-size="10.00">+ calculateIntercept()</text>
<text text-anchor="start" x="350.81" y="-552.5" font-family="Helvetica,sans-Serif" font-size="10.00">+ canBeFlowedInto()</text>
<text text-anchor="start" x="350.81" y="-541.5" font-family="Helvetica,sans-Serif" font-size="10.00">+ canBePlaced()</text>
<text text-anchor="start" x="350.81" y="-530.5" font-family="Helvetica,sans-Serif" font-size="10.00">and 57 more...</text>
<text text-anchor="start" x="350.81" y="-519.5" font-family="Helvetica,sans-Serif" font-size="10.00"># getXpDropAmount()</text>
<text text-anchor="start" x="350.81" y="-508.5" font-family="Helvetica,sans-Serif" font-size="10.00"># recalculateCollisionBoxes()</text>
<text text-anchor="start" x="350.81" y="-497.5" font-family="Helvetica,sans-Serif" font-size="10.00"># writeStateToItemMeta()</text>
<text text-anchor="start" x="350.81" y="-486.5" font-family="Helvetica,sans-Serif" font-size="10.00"># writeStateToMeta()</text>
</a>
</g>
</g>
<!-- Node5&#45;&gt;Node4 -->
<g id="edge4" class="edge">
<title>Node5&#45;&gt;Node4</title>
<path fill="none" stroke="midnightblue" d="M423.31,-469.09C423.31,-459.03 423.31,-449.64 423.31,-441.56"/>
<polygon fill="none" stroke="midnightblue" points="419.81,-469.35 423.31,-479.35 426.81,-469.35 419.81,-469.35"/>
</g>
<!-- Node6 -->
<g id="node6" class="node">
<title>Node6</title>
<g id="a_node6"><a xlink:title=" ">
<polygon fill="white" stroke="#bfbfbf" points="62.81,-1063.5 62.81,-1120.5 105.81,-1120.5 105.81,-1063.5 62.81,-1063.5"/>
<text text-anchor="middle" x="84.31" y="-1108.5" font-family="Helvetica,sans-Serif" font-size="10.00">const</text>
<polyline fill="none" stroke="#bfbfbf" points="62.81,-1101.5 105.81,-1101.5 "/>
<text text-anchor="middle" x="84.31" y="-1089.5" font-family="Helvetica,sans-Serif" font-size="10.00"> </text>
<polyline fill="none" stroke="#bfbfbf" points="62.81,-1082.5 105.81,-1082.5 "/>
<text text-anchor="middle" x="84.31" y="-1070.5" font-family="Helvetica,sans-Serif" font-size="10.00"> </text>
</a>
</g>
</g>
<!-- Node6&#45;&gt;Node5 -->
<g id="edge5" class="edge">
<title>Node6&#45;&gt;Node5</title>
<path fill="none" stroke="#404040" d="M67.75,-1063.36C32.95,-1001.32 -39.21,-848.61 28.31,-749 95.57,-649.77 236.43,-613.05 330.46,-599.47"/>
<polygon fill="none" stroke="#404040" points="330.65,-599.44 336.05,-594.67 342.54,-597.82 337.14,-602.59 330.65,-599.44"/>
<text text-anchor="start" x="28.31" y="-841.5" font-family="Helvetica,sans-Serif" font-size="10.00"> +INTERNAL_METADATA</text>
<text text-anchor="middle" x="102.81" y="-830.5" font-family="Helvetica,sans-Serif" font-size="10.00">_BITS</text>
<text text-anchor="middle" x="102.81" y="-819.5" font-family="Helvetica,sans-Serif" font-size="10.00">+INTERNAL_METADATA_MASK</text>
</g>
<!-- Node8 -->
<g id="node8" class="node">
<title>Node8</title>
<g id="a_node8"><a xlink:href="../../d3/d10/classpocketmine_1_1block_1_1_block_break_info.html" target="_top" xlink:title=" ">
<polygon fill="white" stroke="#bfbfbf" points="186.31,-749.5 186.31,-916.5 366.31,-916.5 366.31,-749.5 186.31,-749.5"/>
<text text-anchor="middle" x="276.31" y="-904.5" font-family="Helvetica,sans-Serif" font-size="10.00">pocketmine\block\BlockBreakInfo</text>
<polyline fill="none" stroke="#bfbfbf" points="186.31,-897.5 366.31,-897.5 "/>
<text text-anchor="middle" x="276.31" y="-885.5" font-family="Helvetica,sans-Serif" font-size="10.00"> </text>
<polyline fill="none" stroke="#bfbfbf" points="186.31,-878.5 366.31,-878.5 "/>
<text text-anchor="start" x="194.31" y="-866.5" font-family="Helvetica,sans-Serif" font-size="10.00">+ __construct()</text>
<text text-anchor="start" x="194.31" y="-855.5" font-family="Helvetica,sans-Serif" font-size="10.00">+ breaksInstantly()</text>
<text text-anchor="start" x="194.31" y="-844.5" font-family="Helvetica,sans-Serif" font-size="10.00">+ getBlastResistance()</text>
<text text-anchor="start" x="194.31" y="-833.5" font-family="Helvetica,sans-Serif" font-size="10.00">+ getBreakTime()</text>
<text text-anchor="start" x="194.31" y="-822.5" font-family="Helvetica,sans-Serif" font-size="10.00">+ getHardness()</text>
<text text-anchor="start" x="194.31" y="-811.5" font-family="Helvetica,sans-Serif" font-size="10.00">+ getToolHarvestLevel()</text>
<text text-anchor="start" x="194.31" y="-800.5" font-family="Helvetica,sans-Serif" font-size="10.00">+ getToolType()</text>
<text text-anchor="start" x="194.31" y="-789.5" font-family="Helvetica,sans-Serif" font-size="10.00">+ isBreakable()</text>
<text text-anchor="start" x="194.31" y="-778.5" font-family="Helvetica,sans-Serif" font-size="10.00">+ isToolCompatible()</text>
<text text-anchor="start" x="194.31" y="-767.5" font-family="Helvetica,sans-Serif" font-size="10.00">+ indestructible()</text>
<text text-anchor="start" x="194.31" y="-756.5" font-family="Helvetica,sans-Serif" font-size="10.00">+ instant()</text>
</a>
</g>
</g>
<!-- Node6&#45;&gt;Node8 -->
<g id="edge8" class="edge">
<title>Node6&#45;&gt;Node8</title>
<path fill="none" stroke="#404040" d="M104.85,-1063.5C129.15,-1030.97 170.88,-975.12 207.08,-926.66"/>
<polygon fill="none" stroke="#404040" points="207.3,-926.37 207.68,-919.17 214.48,-916.76 214.09,-923.96 207.3,-926.37"/>
<text text-anchor="middle" x="285.81" y="-949" font-family="Helvetica,sans-Serif" font-size="10.00"> +COMPATIBLE_TOOL_MULTIPLIER</text>
<text text-anchor="middle" x="285.81" y="-938" font-family="Helvetica,sans-Serif" font-size="10.00">+INCOMPATIBLE_TOOL_MULTIPLIER</text>
</g>
<!-- Node7 -->
<g id="node7" class="node">
<title>Node7</title>
<g id="a_node7"><a xlink:href="../../dd/d18/classpocketmine_1_1block_1_1_block_identifier.html" target="_top" xlink:title=" ">
<polygon fill="white" stroke="#bfbfbf" points="384.31,-777 384.31,-889 560.31,-889 560.31,-777 384.31,-777"/>
<text text-anchor="middle" x="472.31" y="-877" font-family="Helvetica,sans-Serif" font-size="10.00">pocketmine\block\BlockIdentifier</text>
<polyline fill="none" stroke="#bfbfbf" points="384.31,-870 560.31,-870 "/>
<text text-anchor="middle" x="472.31" y="-858" font-family="Helvetica,sans-Serif" font-size="10.00"> </text>
<polyline fill="none" stroke="#bfbfbf" points="384.31,-851 560.31,-851 "/>
<text text-anchor="start" x="392.31" y="-839" font-family="Helvetica,sans-Serif" font-size="10.00">+ __construct()</text>
<text text-anchor="start" x="392.31" y="-828" font-family="Helvetica,sans-Serif" font-size="10.00">+ getAllBlockIds()</text>
<text text-anchor="start" x="392.31" y="-817" font-family="Helvetica,sans-Serif" font-size="10.00">+ getBlockId()</text>
<text text-anchor="start" x="392.31" y="-806" font-family="Helvetica,sans-Serif" font-size="10.00">+ getItemId()</text>
<text text-anchor="start" x="392.31" y="-795" font-family="Helvetica,sans-Serif" font-size="10.00">+ getTileClass()</text>
<text text-anchor="start" x="392.31" y="-784" font-family="Helvetica,sans-Serif" font-size="10.00">+ getVariant()</text>
</a>
</g>
</g>
<!-- Node7&#45;&gt;Node5 -->
<g id="edge6" class="edge">
<title>Node7&#45;&gt;Node5</title>
<path fill="none" stroke="#404040" d="M461.07,-776.82C457.21,-757.9 452.73,-735.89 448.22,-713.8"/>
<polygon fill="none" stroke="#404040" points="448.19,-713.65 443.08,-708.57 445.8,-701.89 450.92,-706.97 448.19,-713.65"/>
<text text-anchor="middle" x="474.31" y="-723" font-family="Helvetica,sans-Serif" font-size="10.00"> #$idInfo</text>
</g>
<!-- Node8&#45;&gt;Node5 -->
<g id="edge7" class="edge">
<title>Node8&#45;&gt;Node5</title>
<path fill="none" stroke="#404040" d="M326.9,-749.23C334.23,-737.24 341.9,-724.69 349.57,-712.14"/>
<polygon fill="none" stroke="#404040" points="349.75,-711.84 349.47,-704.64 356.01,-701.6 356.29,-708.81 349.75,-711.84"/>
<text text-anchor="middle" x="373.31" y="-723" font-family="Helvetica,sans-Serif" font-size="10.00"> #$breakInfo</text>
</g>
<!-- Node9 -->
<g id="node9" class="node">
<title>Node9</title>
<g id="a_node9"><a xlink:href="../../d5/dd2/classpocketmine_1_1world_1_1_position.html" target="_top" xlink:title=" ">
<polygon fill="white" stroke="#bfbfbf" points="578.31,-766 578.31,-900 724.31,-900 724.31,-766 578.31,-766"/>
<text text-anchor="middle" x="651.31" y="-888" font-family="Helvetica,sans-Serif" font-size="10.00">pocketmine\world\Position</text>
<polyline fill="none" stroke="#bfbfbf" points="578.31,-881 724.31,-881 "/>
<text text-anchor="start" x="586.31" y="-869" font-family="Helvetica,sans-Serif" font-size="10.00">+ $world</text>
<polyline fill="none" stroke="#bfbfbf" points="578.31,-862 724.31,-862 "/>
<text text-anchor="start" x="586.31" y="-850" font-family="Helvetica,sans-Serif" font-size="10.00">+ __construct()</text>
<text text-anchor="start" x="586.31" y="-839" font-family="Helvetica,sans-Serif" font-size="10.00">+ __toString()</text>
<text text-anchor="start" x="586.31" y="-828" font-family="Helvetica,sans-Serif" font-size="10.00">+ asPosition()</text>
<text text-anchor="start" x="586.31" y="-817" font-family="Helvetica,sans-Serif" font-size="10.00">+ equals()</text>
<text text-anchor="start" x="586.31" y="-806" font-family="Helvetica,sans-Serif" font-size="10.00">+ getSide()</text>
<text text-anchor="start" x="586.31" y="-795" font-family="Helvetica,sans-Serif" font-size="10.00">+ getWorld()</text>
<text text-anchor="start" x="586.31" y="-784" font-family="Helvetica,sans-Serif" font-size="10.00">+ isValid()</text>
<text text-anchor="start" x="586.31" y="-773" font-family="Helvetica,sans-Serif" font-size="10.00">+ fromObject()</text>
</a>
</g>
</g>
<!-- Node9&#45;&gt;Node5 -->
<g id="edge9" class="edge">
<title>Node9&#45;&gt;Node5</title>
<path fill="none" stroke="#404040" d="M588.7,-765.96C565.25,-741.23 538.13,-712.62 512.72,-685.82"/>
<polygon fill="none" stroke="#404040" points="512.43,-685.51 505.4,-683.91 504.18,-676.8 511.21,-678.41 512.43,-685.51"/>
<text text-anchor="middle" x="579.81" y="-723" font-family="Helvetica,sans-Serif" font-size="10.00"> #$position</text>
</g>
<!-- Node10 -->
<g id="node10" class="node">
<title>Node10</title>
<g id="a_node10"><a xlink:href="../../d2/d90/classpocketmine_1_1math_1_1_vector3.html" target="_top" xlink:title=" ">
<polygon fill="white" stroke="#bfbfbf" points="580.31,-975.5 580.31,-1208.5 722.31,-1208.5 722.31,-975.5 580.31,-975.5"/>
<text text-anchor="middle" x="651.31" y="-1196.5" font-family="Helvetica,sans-Serif" font-size="10.00">pocketmine\math\Vector3</text>
<polyline fill="none" stroke="#bfbfbf" points="580.31,-1189.5 722.31,-1189.5 "/>
<text text-anchor="start" x="588.31" y="-1177.5" font-family="Helvetica,sans-Serif" font-size="10.00">+ $x</text>
<text text-anchor="start" x="588.31" y="-1166.5" font-family="Helvetica,sans-Serif" font-size="10.00">+ $y</text>
<text text-anchor="start" x="588.31" y="-1155.5" font-family="Helvetica,sans-Serif" font-size="10.00">+ $z</text>
<polyline fill="none" stroke="#bfbfbf" points="580.31,-1148.5 722.31,-1148.5 "/>
<text text-anchor="start" x="588.31" y="-1136.5" font-family="Helvetica,sans-Serif" font-size="10.00">+ __construct()</text>
<text text-anchor="start" x="588.31" y="-1125.5" font-family="Helvetica,sans-Serif" font-size="10.00">+ __toString()</text>
<text text-anchor="start" x="588.31" y="-1114.5" font-family="Helvetica,sans-Serif" font-size="10.00">+ abs()</text>
<text text-anchor="start" x="588.31" y="-1103.5" font-family="Helvetica,sans-Serif" font-size="10.00">+ add()</text>
<text text-anchor="start" x="588.31" y="-1092.5" font-family="Helvetica,sans-Serif" font-size="10.00">+ addVector()</text>
<text text-anchor="start" x="588.31" y="-1081.5" font-family="Helvetica,sans-Serif" font-size="10.00">+ asVector3()</text>
<text text-anchor="start" x="588.31" y="-1070.5" font-family="Helvetica,sans-Serif" font-size="10.00">+ ceil()</text>
<text text-anchor="start" x="588.31" y="-1059.5" font-family="Helvetica,sans-Serif" font-size="10.00">+ cross()</text>
<text text-anchor="start" x="588.31" y="-1048.5" font-family="Helvetica,sans-Serif" font-size="10.00">+ distance()</text>
<text text-anchor="start" x="588.31" y="-1037.5" font-family="Helvetica,sans-Serif" font-size="10.00">+ distanceSquared()</text>
<text text-anchor="start" x="588.31" y="-1026.5" font-family="Helvetica,sans-Serif" font-size="10.00">and 32 more...</text>
<text text-anchor="start" x="588.31" y="-1015.5" font-family="Helvetica,sans-Serif" font-size="10.00">+ maxComponents()</text>
<text text-anchor="start" x="588.31" y="-1004.5" font-family="Helvetica,sans-Serif" font-size="10.00">+ minComponents()</text>
<text text-anchor="start" x="588.31" y="-993.5" font-family="Helvetica,sans-Serif" font-size="10.00">+ sum()</text>
<text text-anchor="start" x="588.31" y="-982.5" font-family="Helvetica,sans-Serif" font-size="10.00">+ zero()</text>
</a>
</g>
</g>
<!-- Node10&#45;&gt;Node9 -->
<g id="edge10" class="edge">
<title>Node10&#45;&gt;Node9</title>
<path fill="none" stroke="midnightblue" d="M651.31,-965.01C651.31,-942.62 651.31,-920.12 651.31,-900.25"/>
<polygon fill="none" stroke="midnightblue" points="647.81,-965.28 651.31,-975.28 654.81,-965.28 647.81,-965.28"/>
</g>
</g>
</svg>
