<?xml version="1.0" encoding="UTF-8" standalone="no"?>
<!DOCTYPE svg PUBLIC "-//W3C//DTD SVG 1.1//EN"
 "http://www.w3.org/Graphics/SVG/1.1/DTD/svg11.dtd">
<!-- Generated by graphviz version 2.43.0 (0)
 -->
<!-- Title: raklib\protocol\Datagram Pages: 1 -->
<svg width="277pt" height="391pt"
 viewBox="0.00 0.00 277.00 391.00" xmlns="http://www.w3.org/2000/svg" xmlns:xlink="http://www.w3.org/1999/xlink">
<g id="graph0" class="graph" transform="scale(1 1) rotate(0) translate(4 387)">
<title>raklib\protocol\Datagram</title>
<polygon fill="white" stroke="transparent" points="-4,4 -4,-387 273,-387 273,4 -4,4"/>
<!-- Node1 -->
<g id="node1" class="node">
<title>Node1</title>
<g id="a_node1"><a xlink:title=" ">
<polygon fill="#bfbfbf" stroke="black" points="41.5,-0.5 41.5,-123.5 180.5,-123.5 180.5,-0.5 41.5,-0.5"/>
<text text-anchor="middle" x="111" y="-111.5" font-family="Helvetica,sans-Serif" font-size="10.00">raklib\protocol\Datagram</text>
<polyline fill="none" stroke="black" points="41.5,-104.5 180.5,-104.5 "/>
<text text-anchor="start" x="49.5" y="-92.5" font-family="Helvetica,sans-Serif" font-size="10.00">+ $headerFlags</text>
<text text-anchor="start" x="49.5" y="-81.5" font-family="Helvetica,sans-Serif" font-size="10.00">+ $packets</text>
<text text-anchor="start" x="49.5" y="-70.5" font-family="Helvetica,sans-Serif" font-size="10.00">+ $seqNumber</text>
<polyline fill="none" stroke="black" points="41.5,-63.5 180.5,-63.5 "/>
<text text-anchor="start" x="49.5" y="-51.5" font-family="Helvetica,sans-Serif" font-size="10.00">+ length()</text>
<text text-anchor="start" x="49.5" y="-40.5" font-family="Helvetica,sans-Serif" font-size="10.00"># decodeHeader()</text>
<text text-anchor="start" x="49.5" y="-29.5" font-family="Helvetica,sans-Serif" font-size="10.00"># decodePayload()</text>
<text text-anchor="start" x="49.5" y="-18.5" font-family="Helvetica,sans-Serif" font-size="10.00"># encodeHeader()</text>
<text text-anchor="start" x="49.5" y="-7.5" font-family="Helvetica,sans-Serif" font-size="10.00"># encodePayload()</text>
</a>
</g>
</g>
<!-- Node2 -->
<g id="node2" class="node">
<title>Node2</title>
<g id="a_node2"><a xlink:href="../../d6/d53/classraklib_1_1protocol_1_1_packet.html" target="_top" xlink:title=" ">
<polygon fill="white" stroke="#bfbfbf" points="0,-270.5 0,-382.5 122,-382.5 122,-270.5 0,-270.5"/>
<text text-anchor="middle" x="61" y="-370.5" font-family="Helvetica,sans-Serif" font-size="10.00">raklib\protocol\Packet</text>
<polyline fill="none" stroke="#bfbfbf" points="0,-363.5 122,-363.5 "/>
<text text-anchor="start" x="8" y="-351.5" font-family="Helvetica,sans-Serif" font-size="10.00">+ $ID</text>
<polyline fill="none" stroke="#bfbfbf" points="0,-344.5 122,-344.5 "/>
<text text-anchor="start" x="8" y="-332.5" font-family="Helvetica,sans-Serif" font-size="10.00">+ decode()</text>
<text text-anchor="start" x="8" y="-321.5" font-family="Helvetica,sans-Serif" font-size="10.00">+ encode()</text>
<text text-anchor="start" x="8" y="-310.5" font-family="Helvetica,sans-Serif" font-size="10.00"># decodeHeader()</text>
<text text-anchor="start" x="8" y="-299.5" font-family="Helvetica,sans-Serif" font-size="10.00"># decodePayload()</text>
<text text-anchor="start" x="8" y="-288.5" font-family="Helvetica,sans-Serif" font-size="10.00"># encodeHeader()</text>
<text text-anchor="start" x="8" y="-277.5" font-family="Helvetica,sans-Serif" font-size="10.00"># encodePayload()</text>
</a>
</g>
</g>
<!-- Node2&#45;&gt;Node1 -->
<g id="edge1" class="edge">
<title>Node2&#45;&gt;Node1</title>
<path fill="none" stroke="midnightblue" d="M73.4,-260.41C81.35,-218.66 91.61,-164.82 99.4,-123.92"/>
<polygon fill="none" stroke="midnightblue" points="69.91,-259.99 71.48,-270.47 76.79,-261.3 69.91,-259.99"/>
</g>
<!-- Node3 -->
<g id="node3" class="node">
<title>Node3</title>
<g id="a_node3"><a xlink:title=" ">
<polygon fill="white" stroke="#bfbfbf" points="140.5,-298 140.5,-355 183.5,-355 183.5,-298 140.5,-298"/>
<text text-anchor="middle" x="162" y="-343" font-family="Helvetica,sans-Serif" font-size="10.00">const</text>
<polyline fill="none" stroke="#bfbfbf" points="140.5,-336 183.5,-336 "/>
<text text-anchor="middle" x="162" y="-324" font-family="Helvetica,sans-Serif" font-size="10.00"> </text>
<polyline fill="none" stroke="#bfbfbf" points="140.5,-317 183.5,-317 "/>
<text text-anchor="middle" x="162" y="-305" font-family="Helvetica,sans-Serif" font-size="10.00"> </text>
</a>
</g>
</g>
<!-- Node3&#45;&gt;Node1 -->
<g id="edge2" class="edge">
<title>Node3&#45;&gt;Node1</title>
<path fill="none" stroke="#404040" d="M156.64,-297.9C149.22,-259.72 135.56,-189.41 125.11,-135.63"/>
<polygon fill="none" stroke="#404040" points="125.09,-135.51 120.02,-130.38 122.8,-123.73 127.87,-128.85 125.09,-135.51"/>
<text text-anchor="middle" x="207.5" y="-244" font-family="Helvetica,sans-Serif" font-size="10.00"> +BITFLAG_ACK</text>
<text text-anchor="start" x="146" y="-233" font-family="Helvetica,sans-Serif" font-size="10.00">+BITFLAG_CONTINUOUS</text>
<text text-anchor="middle" x="207.5" y="-222" font-family="Helvetica,sans-Serif" font-size="10.00">_SEND</text>
<text text-anchor="middle" x="207.5" y="-211" font-family="Helvetica,sans-Serif" font-size="10.00">+BITFLAG_NAK</text>
<text text-anchor="start" x="146" y="-200" font-family="Helvetica,sans-Serif" font-size="10.00">+BITFLAG_NEEDS_B</text>
<text text-anchor="middle" x="207.5" y="-189" font-family="Helvetica,sans-Serif" font-size="10.00">_AND_AS</text>
<text text-anchor="start" x="146" y="-178" font-family="Helvetica,sans-Serif" font-size="10.00">+BITFLAG_PACKET</text>
<text text-anchor="middle" x="207.5" y="-167" font-family="Helvetica,sans-Serif" font-size="10.00">_PAIR</text>
<text text-anchor="middle" x="207.5" y="-156" font-family="Helvetica,sans-Serif" font-size="10.00">+BITFLAG_VALID</text>
<text text-anchor="middle" x="207.5" y="-145" font-family="Helvetica,sans-Serif" font-size="10.00">+HEADER_SIZE</text>
</g>
</g>
</svg>
