<?xml version="1.0" encoding="UTF-8" standalone="no"?>
<!DOCTYPE svg PUBLIC "-//W3C//DTD SVG 1.1//EN"
 "http://www.w3.org/Graphics/SVG/1.1/DTD/svg11.dtd">
<!-- Generated by graphviz version 2.43.0 (0)
 -->
<!-- Title: pocketmine\world\BlockTransaction\addBlock Pages: 1 -->
<svg width="398pt" height="137pt"
 viewBox="0.00 0.00 398.00 137.00" xmlns="http://www.w3.org/2000/svg" xmlns:xlink="http://www.w3.org/1999/xlink">
<g id="graph0" class="graph" transform="scale(1 1) rotate(0) translate(4 133)">
<title>pocketmine\world\BlockTransaction\addBlock</title>
<polygon fill="white" stroke="transparent" points="-4,4 -4,-133 394,-133 394,4 -4,4"/>
<!-- Node1 -->
<g id="node1" class="node">
<title>Node1</title>
<g id="a_node1"><a xlink:title=" ">
<polygon fill="#bfbfbf" stroke="black" points="201,-49.5 201,-79.5 390,-79.5 390,-49.5 201,-49.5"/>
<text text-anchor="start" x="209" y="-67.5" font-family="Helvetica,sans-Serif" font-size="10.00">pocketmine\world\BlockTransaction</text>
<text text-anchor="middle" x="295.5" y="-56.5" font-family="Helvetica,sans-Serif" font-size="10.00">\addBlock</text>
</a>
</g>
</g>
<!-- Node2 -->
<g id="node2" class="node">
<title>Node2</title>
<g id="a_node2"><a xlink:href="../../d0/dde/classpocketmine_1_1block_1_1_bed.html#a8ced7767ef44dcf627c0a14da18f4ce7" target="_top" xlink:title=" ">
<polygon fill="white" stroke="black" points="20,-98.5 20,-128.5 145,-128.5 145,-98.5 20,-98.5"/>
<text text-anchor="start" x="28" y="-116.5" font-family="Helvetica,sans-Serif" font-size="10.00">pocketmine\block\Bed</text>
<text text-anchor="middle" x="82.5" y="-105.5" font-family="Helvetica,sans-Serif" font-size="10.00">\place</text>
</a>
</g>
</g>
<!-- Node1&#45;&gt;Node2 -->
<g id="edge1" class="edge">
<title>Node1&#45;&gt;Node2</title>
<path fill="none" stroke="midnightblue" d="M219.82,-81.84C195.41,-87.51 168.58,-93.74 145.23,-99.16"/>
<polygon fill="midnightblue" stroke="midnightblue" points="220.81,-85.21 229.76,-79.53 219.23,-78.39 220.81,-85.21"/>
</g>
<!-- Node3 -->
<g id="node3" class="node">
<title>Node3</title>
<g id="a_node3"><a xlink:href="../../d9/d20/classpocketmine_1_1block_1_1_door.html#a4e92ec8dbe95032fc8574fac38b139d0" target="_top" xlink:title=" ">
<polygon fill="white" stroke="black" points="18,-49.5 18,-79.5 147,-79.5 147,-49.5 18,-49.5"/>
<text text-anchor="start" x="26" y="-67.5" font-family="Helvetica,sans-Serif" font-size="10.00">pocketmine\block\Door</text>
<text text-anchor="middle" x="82.5" y="-56.5" font-family="Helvetica,sans-Serif" font-size="10.00">\place</text>
</a>
</g>
</g>
<!-- Node1&#45;&gt;Node3 -->
<g id="edge2" class="edge">
<title>Node1&#45;&gt;Node3</title>
<path fill="none" stroke="midnightblue" d="M190.47,-64.5C175.64,-64.5 160.76,-64.5 147.02,-64.5"/>
<polygon fill="midnightblue" stroke="midnightblue" points="190.72,-68 200.72,-64.5 190.72,-61 190.72,-68"/>
</g>
<!-- Node4 -->
<g id="node4" class="node">
<title>Node4</title>
<g id="a_node4"><a xlink:href="../../dd/d6a/classpocketmine_1_1block_1_1_double_plant.html#a61cb83624f4ee1b5f66ddd3dfe0f0bb6" target="_top" xlink:title=" ">
<polygon fill="white" stroke="black" points="0,-0.5 0,-30.5 165,-30.5 165,-0.5 0,-0.5"/>
<text text-anchor="start" x="8" y="-18.5" font-family="Helvetica,sans-Serif" font-size="10.00">pocketmine\block\DoublePlant</text>
<text text-anchor="middle" x="82.5" y="-7.5" font-family="Helvetica,sans-Serif" font-size="10.00">\place</text>
</a>
</g>
</g>
<!-- Node1&#45;&gt;Node4 -->
<g id="edge3" class="edge">
<title>Node1&#45;&gt;Node4</title>
<path fill="none" stroke="midnightblue" d="M219.87,-47.17C196.44,-41.73 170.79,-35.77 148.12,-30.51"/>
<polygon fill="midnightblue" stroke="midnightblue" points="219.23,-50.61 229.76,-49.47 220.81,-43.79 219.23,-50.61"/>
</g>
</g>
</svg>
