<?xml version="1.0" encoding="UTF-8" standalone="no"?>
<!DOCTYPE svg PUBLIC "-//W3C//DTD SVG 1.1//EN"
 "http://www.w3.org/Graphics/SVG/1.1/DTD/svg11.dtd">
<!-- Generated by graphviz version 2.43.0 (0)
 -->
<!-- Title: pocketmine\item\FireworkRocket Pages: 1 -->
<svg width="343pt" height="1292pt"
 viewBox="0.00 0.00 343.00 1292.00" xmlns="http://www.w3.org/2000/svg" xmlns:xlink="http://www.w3.org/1999/xlink">
<g id="graph0" class="graph" transform="scale(1 1) rotate(0) translate(4 1288)">
<title>pocketmine\item\FireworkRocket</title>
<!-- Node1 -->
<g id="Node000001" class="node">
<title>Node1</title>
<g id="a_Node000001"><a xlink:title=" ">
<polygon fill="#999999" stroke="transparent" points="173,-210 0,-210 0,0 173,0 173,-210"/>
<text text-anchor="start" x="23" y="-198" font-family="Helvetica,sans-Serif" font-size="10.00">pocketmine\item\Firework</text>
<text text-anchor="start" x="70" y="-187" font-family="Helvetica,sans-Serif" font-size="10.00">Rocket</text>
<text text-anchor="start" x="4.5" y="-172" font-family="Helvetica,sans-Serif" font-size="10.00">+</text>
<text text-anchor="start" x="17.5" y="-172" font-family="Helvetica,sans-Serif" font-size="10.00">TAG_EXPLOSIONS</text>
<text text-anchor="start" x="4.5" y="-157" font-family="Helvetica,sans-Serif" font-size="10.00">+</text>
<text text-anchor="start" x="17.5" y="-157" font-family="Helvetica,sans-Serif" font-size="10.00">TAG_FIREWORK_DATA</text>
<text text-anchor="start" x="4.5" y="-142" font-family="Helvetica,sans-Serif" font-size="10.00">#</text>
<text text-anchor="start" x="17.5" y="-142" font-family="Helvetica,sans-Serif" font-size="10.00">$explosions</text>
<text text-anchor="start" x="4.5" y="-127" font-family="Helvetica,sans-Serif" font-size="10.00">#</text>
<text text-anchor="start" x="17.5" y="-127" font-family="Helvetica,sans-Serif" font-size="10.00">$flightTimeMultiplier</text>
<text text-anchor="start" x="4.5" y="-112" font-family="Helvetica,sans-Serif" font-size="10.00">#</text>
<text text-anchor="start" x="17.5" y="-112" font-family="Helvetica,sans-Serif" font-size="10.00">TAG_FLIGHT_TIME_MULTIPLIER</text>
<text text-anchor="start" x="4.5" y="-97" font-family="Helvetica,sans-Serif" font-size="10.00">+</text>
<text text-anchor="start" x="17.5" y="-97" font-family="Helvetica,sans-Serif" font-size="10.00">getExplosions()</text>
<text text-anchor="start" x="4.5" y="-82" font-family="Helvetica,sans-Serif" font-size="10.00">+</text>
<text text-anchor="start" x="17.5" y="-82" font-family="Helvetica,sans-Serif" font-size="10.00">getFlightTimeMultiplier()</text>
<text text-anchor="start" x="4.5" y="-67" font-family="Helvetica,sans-Serif" font-size="10.00">+</text>
<text text-anchor="start" x="17.5" y="-67" font-family="Helvetica,sans-Serif" font-size="10.00">onInteractBlock()</text>
<text text-anchor="start" x="4.5" y="-52" font-family="Helvetica,sans-Serif" font-size="10.00">+</text>
<text text-anchor="start" x="17.5" y="-52" font-family="Helvetica,sans-Serif" font-size="10.00">setExplosions()</text>
<text text-anchor="start" x="4.5" y="-37" font-family="Helvetica,sans-Serif" font-size="10.00">+</text>
<text text-anchor="start" x="17.5" y="-37" font-family="Helvetica,sans-Serif" font-size="10.00">setFlightTimeMultiplier()</text>
<text text-anchor="start" x="4.5" y="-22" font-family="Helvetica,sans-Serif" font-size="10.00">#</text>
<text text-anchor="start" x="17.5" y="-22" font-family="Helvetica,sans-Serif" font-size="10.00">deserializeCompoundTag()</text>
<text text-anchor="start" x="4.5" y="-7" font-family="Helvetica,sans-Serif" font-size="10.00">#</text>
<text text-anchor="start" x="17.5" y="-7" font-family="Helvetica,sans-Serif" font-size="10.00">serializeCompoundTag()</text>
<polygon fill="#666666" stroke="#666666" points="0.5,-182 0.5,-182 173.5,-182 173.5,-182 0.5,-182"/>
<polygon fill="#666666" stroke="#666666" points="0.5,-107 0.5,-107 15.5,-107 15.5,-107 0.5,-107"/>
<polygon fill="#666666" stroke="#666666" points="15.5,-107 15.5,-107 173.5,-107 173.5,-107 15.5,-107"/>
<polygon fill="none" stroke="#666666" points="0,0 0,-210 173,-210 173,0 0,0"/>
</a>
</g>
</g>
<!-- Node2 -->
<g id="Node000002" class="node">
<title>Node2</title>
<g id="a_Node000002"><a xlink:href="../../d5/d8a/classpocketmine_1_1item_1_1_item.html" target="_top" xlink:title=" ">
<polygon fill="white" stroke="transparent" points="162,-716 11,-716 11,-247 162,-247 162,-716"/>
<text text-anchor="start" x="32.5" y="-703.5" font-family="Helvetica,sans-Serif" font-size="10.00">pocketmine\item\Item</text>
<text text-anchor="start" x="15.5" y="-688.5" font-family="Helvetica,sans-Serif" font-size="10.00">+</text>
<text text-anchor="start" x="28.5" y="-688.5" font-family="Helvetica,sans-Serif" font-size="10.00">TAG_BLOCK_ENTITY_TAG</text>
<text text-anchor="start" x="15.5" y="-673.5" font-family="Helvetica,sans-Serif" font-size="10.00">+</text>
<text text-anchor="start" x="28.5" y="-673.5" font-family="Helvetica,sans-Serif" font-size="10.00">TAG_DISPLAY</text>
<text text-anchor="start" x="15.5" y="-658.5" font-family="Helvetica,sans-Serif" font-size="10.00">+</text>
<text text-anchor="start" x="28.5" y="-658.5" font-family="Helvetica,sans-Serif" font-size="10.00">TAG_DISPLAY_LORE</text>
<text text-anchor="start" x="15.5" y="-643.5" font-family="Helvetica,sans-Serif" font-size="10.00">+</text>
<text text-anchor="start" x="28.5" y="-643.5" font-family="Helvetica,sans-Serif" font-size="10.00">TAG_DISPLAY_NAME</text>
<text text-anchor="start" x="15.5" y="-628.5" font-family="Helvetica,sans-Serif" font-size="10.00">+</text>
<text text-anchor="start" x="28.5" y="-628.5" font-family="Helvetica,sans-Serif" font-size="10.00">TAG_ENCH</text>
<text text-anchor="start" x="15.5" y="-613.5" font-family="Helvetica,sans-Serif" font-size="10.00">+</text>
<text text-anchor="start" x="28.5" y="-613.5" font-family="Helvetica,sans-Serif" font-size="10.00">TAG_KEEP_ON_DEATH</text>
<text text-anchor="start" x="15.5" y="-598.5" font-family="Helvetica,sans-Serif" font-size="10.00">#</text>
<text text-anchor="start" x="28.5" y="-598.5" font-family="Helvetica,sans-Serif" font-size="10.00">$canDestroy</text>
<text text-anchor="start" x="15.5" y="-583.5" font-family="Helvetica,sans-Serif" font-size="10.00">#</text>
<text text-anchor="start" x="28.5" y="-583.5" font-family="Helvetica,sans-Serif" font-size="10.00">$canPlaceOn</text>
<text text-anchor="start" x="15.5" y="-568.5" font-family="Helvetica,sans-Serif" font-size="10.00">#</text>
<text text-anchor="start" x="28.5" y="-568.5" font-family="Helvetica,sans-Serif" font-size="10.00">$count</text>
<text text-anchor="start" x="15.5" y="-553.5" font-family="Helvetica,sans-Serif" font-size="10.00">#</text>
<text text-anchor="start" x="28.5" y="-553.5" font-family="Helvetica,sans-Serif" font-size="10.00">$customName</text>
<text text-anchor="start" x="15.5" y="-538.5" font-family="Helvetica,sans-Serif" font-size="10.00">#</text>
<text text-anchor="start" x="28.5" y="-538.5" font-family="Helvetica,sans-Serif" font-size="10.00">$keepOnDeath</text>
<text text-anchor="start" x="15.5" y="-523.5" font-family="Helvetica,sans-Serif" font-size="10.00">#</text>
<text text-anchor="start" x="28.5" y="-523.5" font-family="Helvetica,sans-Serif" font-size="10.00">$lore</text>
<text text-anchor="start" x="15.5" y="-508.5" font-family="Helvetica,sans-Serif" font-size="10.00">+</text>
<text text-anchor="start" x="28.5" y="-508.5" font-family="Helvetica,sans-Serif" font-size="10.00">__construct()</text>
<text text-anchor="start" x="15.5" y="-493.5" font-family="Helvetica,sans-Serif" font-size="10.00">+</text>
<text text-anchor="start" x="28.5" y="-493.5" font-family="Helvetica,sans-Serif" font-size="10.00">__clone()</text>
<text text-anchor="start" x="15.5" y="-478.5" font-family="Helvetica,sans-Serif" font-size="10.00">+</text>
<text text-anchor="start" x="28.5" y="-478.5" font-family="Helvetica,sans-Serif" font-size="10.00">__toString()</text>
<text text-anchor="start" x="15.5" y="-463.5" font-family="Helvetica,sans-Serif" font-size="10.00">+</text>
<text text-anchor="start" x="28.5" y="-463.5" font-family="Helvetica,sans-Serif" font-size="10.00">canBePlaced()</text>
<text text-anchor="start" x="15.5" y="-448.5" font-family="Helvetica,sans-Serif" font-size="10.00">+</text>
<text text-anchor="start" x="28.5" y="-448.5" font-family="Helvetica,sans-Serif" font-size="10.00">canStackWith()</text>
<text text-anchor="start" x="15.5" y="-433.5" font-family="Helvetica,sans-Serif" font-size="10.00">+</text>
<text text-anchor="start" x="28.5" y="-433.5" font-family="Helvetica,sans-Serif" font-size="10.00">clearCustomBlockData()</text>
<text text-anchor="start" x="15.5" y="-418.5" font-family="Helvetica,sans-Serif" font-size="10.00">+</text>
<text text-anchor="start" x="28.5" y="-418.5" font-family="Helvetica,sans-Serif" font-size="10.00">clearCustomName()</text>
<text text-anchor="start" x="15.5" y="-403.5" font-family="Helvetica,sans-Serif" font-size="10.00">+</text>
<text text-anchor="start" x="28.5" y="-403.5" font-family="Helvetica,sans-Serif" font-size="10.00">clearNamedTag()</text>
<text text-anchor="start" x="15.5" y="-388.5" font-family="Helvetica,sans-Serif" font-size="10.00">+</text>
<text text-anchor="start" x="28.5" y="-388.5" font-family="Helvetica,sans-Serif" font-size="10.00">equals()</text>
<text text-anchor="start" x="15.5" y="-373.5" font-family="Helvetica,sans-Serif" font-size="10.00">+</text>
<text text-anchor="start" x="28.5" y="-373.5" font-family="Helvetica,sans-Serif" font-size="10.00">equalsExact()</text>
<text text-anchor="start" x="28.5" y="-358.5" font-family="Helvetica,sans-Serif" font-size="10.00">and 49 more...</text>
<text text-anchor="start" x="15.5" y="-343.5" font-family="Helvetica,sans-Serif" font-size="10.00">+</text>
<text text-anchor="start" x="28.5" y="-343.5" font-family="Helvetica,sans-Serif" font-size="10.00">legacyJsonDeserialize()</text>
<text text-anchor="start" x="15.5" y="-328.5" font-family="Helvetica,sans-Serif" font-size="10.00">+</text>
<text text-anchor="start" x="28.5" y="-328.5" font-family="Helvetica,sans-Serif" font-size="10.00">nbtDeserialize()</text>
<text text-anchor="start" x="15.5" y="-313.5" font-family="Helvetica,sans-Serif" font-size="10.00">+</text>
<text text-anchor="start" x="28.5" y="-313.5" font-family="Helvetica,sans-Serif" font-size="10.00">safeNbtDeserialize()</text>
<text text-anchor="start" x="15.5" y="-298.5" font-family="Helvetica,sans-Serif" font-size="10.00">#</text>
<text text-anchor="start" x="28.5" y="-298.5" font-family="Helvetica,sans-Serif" font-size="10.00">describeState()</text>
<text text-anchor="start" x="15.5" y="-283.5" font-family="Helvetica,sans-Serif" font-size="10.00">#</text>
<text text-anchor="start" x="28.5" y="-283.5" font-family="Helvetica,sans-Serif" font-size="10.00">deserializeCompoundTag()</text>
<text text-anchor="start" x="15.5" y="-268.5" font-family="Helvetica,sans-Serif" font-size="10.00">#</text>
<text text-anchor="start" x="28.5" y="-268.5" font-family="Helvetica,sans-Serif" font-size="10.00">serializeCompoundTag()</text>
<text text-anchor="start" x="15.5" y="-253.5" font-family="Helvetica,sans-Serif" font-size="10.00">#</text>
<text text-anchor="start" x="28.5" y="-253.5" font-family="Helvetica,sans-Serif" font-size="10.00">tryPlacementTransaction()</text>
<polygon fill="#bfbfbf" stroke="#bfbfbf" points="11.5,-698.5 11.5,-698.5 162.5,-698.5 162.5,-698.5 11.5,-698.5"/>
<polygon fill="#bfbfbf" stroke="#bfbfbf" points="11.5,-518.5 11.5,-518.5 26.5,-518.5 26.5,-518.5 11.5,-518.5"/>
<polygon fill="#bfbfbf" stroke="#bfbfbf" points="26.5,-518.5 26.5,-518.5 162.5,-518.5 162.5,-518.5 26.5,-518.5"/>
<polygon fill="none" stroke="#bfbfbf" points="11,-247 11,-716 162,-716 162,-247 11,-247"/>
</a>
</g>
</g>
<!-- Node2&#45;&gt;Node1 -->
<g id="edge1_Node000001_Node000002" class="edge">
<title>Node2&#45;&gt;Node1</title>
<g id="a_edge1_Node000001_Node000002"><a xlink:title=" ">
<path fill="none" stroke="#63b8ff" d="M86.5,-236.53C86.5,-227.52 86.5,-218.7 86.5,-210.17"/>
<polygon fill="none" stroke="#63b8ff" points="83,-236.78 86.5,-246.78 90,-236.78 83,-236.78"/>
</a>
</g>
</g>
<!-- Node3 -->
<g id="Node000003" class="node">
<title>Node3</title>
<g id="a_Node000003"><a xlink:title=" ">
<polygon fill="white" stroke="transparent" points="114.5,-930 26.5,-930 26.5,-881 114.5,-881 114.5,-930"/>
<text text-anchor="start" x="31.5" y="-917.5" font-family="Helvetica,sans-Serif" font-size="10.00">JsonSerializable</text>
<text text-anchor="start" x="68.5" y="-902.5" font-family="Helvetica,sans-Serif" font-size="10.00"> </text>
<text text-anchor="start" x="68.5" y="-887.5" font-family="Helvetica,sans-Serif" font-size="10.00"> </text>
<polygon fill="#bfbfbf" stroke="#bfbfbf" points="26.5,-912.5 26.5,-912.5 114.5,-912.5 114.5,-912.5 26.5,-912.5"/>
<polygon fill="#bfbfbf" stroke="#bfbfbf" points="26.5,-897.5 26.5,-897.5 114.5,-897.5 114.5,-897.5 26.5,-897.5"/>
<polygon fill="none" stroke="#bfbfbf" points="26.5,-881 26.5,-930 114.5,-930 114.5,-881 26.5,-881"/>
</a>
</g>
</g>
<!-- Node3&#45;&gt;Node2 -->
<g id="edge2_Node000002_Node000003" class="edge">
<title>Node3&#45;&gt;Node2</title>
<g id="a_edge2_Node000002_Node000003"><a xlink:title=" ">
<path fill="none" stroke="#63b8ff" d="M71.78,-870.75C73.11,-835.55 75.33,-777.08 77.64,-716.06"/>
<polygon fill="none" stroke="#63b8ff" points="68.28,-870.78 71.39,-880.91 75.27,-871.05 68.28,-870.78"/>
</a>
</g>
</g>
<!-- Node4 -->
<g id="Node000004" class="node">
<title>Node4</title>
<g id="a_Node000004"><a xlink:href="../../de/d67/classpocketmine_1_1nbt_1_1tag_1_1_compound_tag.html" target="_top" xlink:title=" ">
<polygon fill="white" stroke="transparent" points="246.5,-1048 132.5,-1048 132.5,-763 246.5,-763 246.5,-1048"/>
<text text-anchor="start" x="142" y="-1035.5" font-family="Helvetica,sans-Serif" font-size="10.00">pocketmine\nbt\tag</text>
<text text-anchor="start" x="153" y="-1024.5" font-family="Helvetica,sans-Serif" font-size="10.00">\CompoundTag</text>
<text text-anchor="start" x="187.5" y="-1009.5" font-family="Helvetica,sans-Serif" font-size="10.00"> </text>
<text text-anchor="start" x="136.5" y="-994.5" font-family="Helvetica,sans-Serif" font-size="10.00">+</text>
<text text-anchor="start" x="149.5" y="-994.5" font-family="Helvetica,sans-Serif" font-size="10.00">__construct()</text>
<text text-anchor="start" x="136.5" y="-979.5" font-family="Helvetica,sans-Serif" font-size="10.00">+</text>
<text text-anchor="start" x="149.5" y="-979.5" font-family="Helvetica,sans-Serif" font-size="10.00">__clone()</text>
<text text-anchor="start" x="136.5" y="-964.5" font-family="Helvetica,sans-Serif" font-size="10.00">+</text>
<text text-anchor="start" x="149.5" y="-964.5" font-family="Helvetica,sans-Serif" font-size="10.00">count()</text>
<text text-anchor="start" x="136.5" y="-949.5" font-family="Helvetica,sans-Serif" font-size="10.00">+</text>
<text text-anchor="start" x="149.5" y="-949.5" font-family="Helvetica,sans-Serif" font-size="10.00">equals()</text>
<text text-anchor="start" x="136.5" y="-934.5" font-family="Helvetica,sans-Serif" font-size="10.00">+</text>
<text text-anchor="start" x="149.5" y="-934.5" font-family="Helvetica,sans-Serif" font-size="10.00">getByte()</text>
<text text-anchor="start" x="136.5" y="-919.5" font-family="Helvetica,sans-Serif" font-size="10.00">+</text>
<text text-anchor="start" x="149.5" y="-919.5" font-family="Helvetica,sans-Serif" font-size="10.00">getByteArray()</text>
<text text-anchor="start" x="136.5" y="-904.5" font-family="Helvetica,sans-Serif" font-size="10.00">+</text>
<text text-anchor="start" x="149.5" y="-904.5" font-family="Helvetica,sans-Serif" font-size="10.00">getCompoundTag()</text>
<text text-anchor="start" x="136.5" y="-889.5" font-family="Helvetica,sans-Serif" font-size="10.00">+</text>
<text text-anchor="start" x="149.5" y="-889.5" font-family="Helvetica,sans-Serif" font-size="10.00">getCount()</text>
<text text-anchor="start" x="136.5" y="-874.5" font-family="Helvetica,sans-Serif" font-size="10.00">+</text>
<text text-anchor="start" x="149.5" y="-874.5" font-family="Helvetica,sans-Serif" font-size="10.00">getDouble()</text>
<text text-anchor="start" x="136.5" y="-859.5" font-family="Helvetica,sans-Serif" font-size="10.00">+</text>
<text text-anchor="start" x="149.5" y="-859.5" font-family="Helvetica,sans-Serif" font-size="10.00">getFloat()</text>
<text text-anchor="start" x="149.5" y="-844.5" font-family="Helvetica,sans-Serif" font-size="10.00">and 23 more...</text>
<text text-anchor="start" x="136.5" y="-829.5" font-family="Helvetica,sans-Serif" font-size="10.00">+</text>
<text text-anchor="start" x="149.5" y="-829.5" font-family="Helvetica,sans-Serif" font-size="10.00">create()</text>
<text text-anchor="start" x="136.5" y="-814.5" font-family="Helvetica,sans-Serif" font-size="10.00">+</text>
<text text-anchor="start" x="149.5" y="-814.5" font-family="Helvetica,sans-Serif" font-size="10.00">read()</text>
<text text-anchor="start" x="136.5" y="-799.5" font-family="Helvetica,sans-Serif" font-size="10.00">#</text>
<text text-anchor="start" x="149.5" y="-799.5" font-family="Helvetica,sans-Serif" font-size="10.00">getTypeName()</text>
<text text-anchor="start" x="136.5" y="-784.5" font-family="Helvetica,sans-Serif" font-size="10.00">#</text>
<text text-anchor="start" x="149.5" y="-784.5" font-family="Helvetica,sans-Serif" font-size="10.00">makeCopy()</text>
<text text-anchor="start" x="136.5" y="-769.5" font-family="Helvetica,sans-Serif" font-size="10.00">#</text>
<text text-anchor="start" x="149.5" y="-769.5" font-family="Helvetica,sans-Serif" font-size="10.00">stringifyValue()</text>
<polygon fill="#666666" stroke="#666666" points="132.5,-1019.5 132.5,-1019.5 246.5,-1019.5 246.5,-1019.5 132.5,-1019.5"/>
<polygon fill="#666666" stroke="#666666" points="132.5,-1004.5 132.5,-1004.5 246.5,-1004.5 246.5,-1004.5 132.5,-1004.5"/>
<polygon fill="none" stroke="#666666" points="132.5,-763 132.5,-1048 246.5,-1048 246.5,-763 132.5,-763"/>
</a>
</g>
</g>
<!-- Node4&#45;&gt;Node2 -->
<g id="edge3_Node000002_Node000004" class="edge">
<title>Node4&#45;&gt;Node2</title>
<g id="a_edge3_Node000002_Node000004"><a xlink:title=" ">
<path fill="none" stroke="#63b8ff" d="M154.92,-762.81C152.15,-751.49 149.32,-739.88 146.45,-728.12"/>
<polygon fill="none" stroke="#63b8ff" points="146.41,-727.97 141.11,-723.09 143.57,-716.32 148.88,-721.2 146.41,-727.97"/>
</a>
</g>
<text text-anchor="middle" x="195" y="-737" font-family="Helvetica,sans-Serif" font-size="10.00" fill="grey"> #$blockEntityTag</text>
</g>
<!-- Node5 -->
<g id="Node000005" class="node">
<title>Node5</title>
<g id="a_Node000005"><a xlink:href="../../dc/d26/classpocketmine_1_1nbt_1_1tag_1_1_tag.html" target="_top" xlink:title=" ">
<polygon fill="white" stroke="transparent" points="141,-1284 16,-1284 16,-1085 141,-1085 141,-1284"/>
<text text-anchor="start" x="21.5" y="-1271.5" font-family="Helvetica,sans-Serif" font-size="10.00">pocketmine\nbt\tag\Tag</text>
<text text-anchor="start" x="24.5" y="-1256.5" font-family="Helvetica,sans-Serif" font-size="10.00">#</text>
<text text-anchor="start" x="41.5" y="-1256.5" font-family="Helvetica,sans-Serif" font-size="10.00">$cloning</text>
<text text-anchor="start" x="24.5" y="-1241.5" font-family="Helvetica,sans-Serif" font-size="10.00">+</text>
<text text-anchor="start" x="41.5" y="-1241.5" font-family="Helvetica,sans-Serif" font-size="10.00">__toString()</text>
<text text-anchor="start" x="24.5" y="-1226.5" font-family="Helvetica,sans-Serif" font-size="10.00">+</text>
<text text-anchor="start" x="41.5" y="-1226.5" font-family="Helvetica,sans-Serif" font-size="10.00">equals()</text>
<text text-anchor="start" x="24.5" y="-1211.5" font-family="Helvetica,sans-Serif" font-size="10.00">+</text>
<text text-anchor="start" x="41.5" y="-1211.5" font-family="Helvetica,sans-Serif" font-size="10.00">getType()</text>
<text text-anchor="start" x="24.5" y="-1196.5" font-family="Helvetica,sans-Serif" font-size="10.00">+</text>
<text text-anchor="start" x="41.5" y="-1196.5" font-family="Helvetica,sans-Serif" font-size="10.00">getValue()</text>
<text text-anchor="start" x="24.5" y="-1181.5" font-family="Helvetica,sans-Serif" font-size="10.00">+</text>
<text text-anchor="start" x="41.5" y="-1181.5" font-family="Helvetica,sans-Serif" font-size="10.00">safeClone()</text>
<text text-anchor="start" x="24.5" y="-1166.5" font-family="Helvetica,sans-Serif" font-size="10.00">+</text>
<text text-anchor="start" x="41.5" y="-1166.5" font-family="Helvetica,sans-Serif" font-size="10.00">toString()</text>
<text text-anchor="start" x="24.5" y="-1151.5" font-family="Helvetica,sans-Serif" font-size="10.00">+</text>
<text text-anchor="start" x="41.5" y="-1151.5" font-family="Helvetica,sans-Serif" font-size="10.00">write()</text>
<text text-anchor="start" x="24.5" y="-1136.5" font-family="Helvetica,sans-Serif" font-size="10.00">#</text>
<text text-anchor="start" x="41.5" y="-1136.5" font-family="Helvetica,sans-Serif" font-size="10.00">getTypeName()</text>
<text text-anchor="start" x="24.5" y="-1121.5" font-family="Helvetica,sans-Serif" font-size="10.00">#</text>
<text text-anchor="start" x="41.5" y="-1121.5" font-family="Helvetica,sans-Serif" font-size="10.00">makeCopy()</text>
<text text-anchor="start" x="24.5" y="-1106.5" font-family="Helvetica,sans-Serif" font-size="10.00">#</text>
<text text-anchor="start" x="41.5" y="-1106.5" font-family="Helvetica,sans-Serif" font-size="10.00">stringifyValue()</text>
<text text-anchor="start" x="24.5" y="-1091.5" font-family="Helvetica,sans-Serif" font-size="10.00">#</text>
<text text-anchor="start" x="41.5" y="-1091.5" font-family="Helvetica,sans-Serif" font-size="10.00">restrictArgCount()</text>
<polygon fill="#bfbfbf" stroke="#bfbfbf" points="16.5,-1266.5 16.5,-1266.5 141.5,-1266.5 141.5,-1266.5 16.5,-1266.5"/>
<polygon fill="#bfbfbf" stroke="#bfbfbf" points="16.5,-1251.5 16.5,-1251.5 39.5,-1251.5 39.5,-1251.5 16.5,-1251.5"/>
<polygon fill="#bfbfbf" stroke="#bfbfbf" points="39.5,-1251.5 39.5,-1251.5 141.5,-1251.5 141.5,-1251.5 39.5,-1251.5"/>
<polygon fill="none" stroke="#bfbfbf" points="16,-1085 16,-1284 141,-1284 141,-1085 16,-1085"/>
</a>
</g>
</g>
<!-- Node5&#45;&gt;Node4 -->
<g id="edge4_Node000004_Node000005" class="edge">
<title>Node5&#45;&gt;Node4</title>
<g id="a_edge4_Node000004_Node000005"><a xlink:title=" ">
<path fill="none" stroke="#63b8ff" d="M121.91,-1075.18C125.44,-1066.36 129.04,-1057.38 132.65,-1048.37"/>
<polygon fill="none" stroke="#63b8ff" points="118.57,-1074.09 118.1,-1084.67 125.07,-1076.69 118.57,-1074.09"/>
</a>
</g>
</g>
<!-- Node6 -->
<g id="Node000006" class="node">
<title>Node6</title>
<g id="a_Node000006"><a xlink:title=" ">
<polygon fill="white" stroke="transparent" points="219.5,-1209 159.5,-1209 159.5,-1160 219.5,-1160 219.5,-1209"/>
<text text-anchor="start" x="164.5" y="-1196.5" font-family="Helvetica,sans-Serif" font-size="10.00">Countable</text>
<text text-anchor="start" x="187.5" y="-1181.5" font-family="Helvetica,sans-Serif" font-size="10.00"> </text>
<text text-anchor="start" x="187.5" y="-1166.5" font-family="Helvetica,sans-Serif" font-size="10.00"> </text>
<polygon fill="#bfbfbf" stroke="#bfbfbf" points="159.5,-1191.5 159.5,-1191.5 219.5,-1191.5 219.5,-1191.5 159.5,-1191.5"/>
<polygon fill="#bfbfbf" stroke="#bfbfbf" points="159.5,-1176.5 159.5,-1176.5 219.5,-1176.5 219.5,-1176.5 159.5,-1176.5"/>
<polygon fill="none" stroke="#bfbfbf" points="159.5,-1160 159.5,-1209 219.5,-1209 219.5,-1160 159.5,-1160"/>
</a>
</g>
</g>
<!-- Node6&#45;&gt;Node4 -->
<g id="edge5_Node000004_Node000006" class="edge">
<title>Node6&#45;&gt;Node4</title>
<g id="a_edge5_Node000004_Node000006"><a xlink:title=" ">
<path fill="none" stroke="#63b8ff" d="M189.5,-1149.88C189.5,-1123.99 189.5,-1086.3 189.5,-1048.28"/>
<polygon fill="none" stroke="#63b8ff" points="186,-1149.88 189.5,-1159.88 193,-1149.88 186,-1149.88"/>
</a>
</g>
</g>
<!-- Node7 -->
<g id="Node000007" class="node">
<title>Node7</title>
<g id="a_Node000007"><a xlink:title=" ">
<polygon fill="white" stroke="transparent" points="335,-1209 238,-1209 238,-1160 335,-1160 335,-1209"/>
<text text-anchor="start" x="243.5" y="-1196.5" font-family="Helvetica,sans-Serif" font-size="10.00">IteratorAggregate</text>
<text text-anchor="start" x="285" y="-1181.5" font-family="Helvetica,sans-Serif" font-size="10.00"> </text>
<text text-anchor="start" x="285" y="-1166.5" font-family="Helvetica,sans-Serif" font-size="10.00"> </text>
<polygon fill="#bfbfbf" stroke="#bfbfbf" points="238.5,-1191.5 238.5,-1191.5 335.5,-1191.5 335.5,-1191.5 238.5,-1191.5"/>
<polygon fill="#bfbfbf" stroke="#bfbfbf" points="238.5,-1176.5 238.5,-1176.5 335.5,-1176.5 335.5,-1176.5 238.5,-1176.5"/>
<polygon fill="none" stroke="#bfbfbf" points="238,-1160 238,-1209 335,-1209 335,-1160 238,-1160"/>
</a>
</g>
</g>
<!-- Node7&#45;&gt;Node4 -->
<g id="edge6_Node000004_Node000007" class="edge">
<title>Node7&#45;&gt;Node4</title>
<g id="a_edge6_Node000004_Node000007"><a xlink:title=" ">
<path fill="none" stroke="#63b8ff" d="M274.85,-1150.23C265.78,-1124.33 252.52,-1086.47 239.15,-1048.28"/>
<polygon fill="none" stroke="#63b8ff" points="271.62,-1151.6 278.23,-1159.88 278.23,-1149.29 271.62,-1151.6"/>
</a>
</g>
</g>
</g>
</svg>
