<?xml version="1.0" encoding="UTF-8" standalone="no"?>
<!DOCTYPE svg PUBLIC "-//W3C//DTD SVG 1.1//EN"
 "http://www.w3.org/Graphics/SVG/1.1/DTD/svg11.dtd">
<!-- Generated by graphviz version 2.43.0 (0)
 -->
<!-- Title: DaveRandom\CallbackValidator\BuiltInTypes Pages: 1 -->
<svg width="173pt" height="188pt"
 viewBox="0.00 0.00 173.00 188.00" xmlns="http://www.w3.org/2000/svg" xmlns:xlink="http://www.w3.org/1999/xlink">
<g id="graph0" class="graph" transform="scale(1 1) rotate(0) translate(4 184)">
<title>DaveRandom\CallbackValidator\BuiltInTypes</title>
<!-- Node1 -->
<g id="Node000001" class="node">
<title>Node1</title>
<g id="a_Node000001"><a xlink:title=" ">
<polygon fill="#999999" stroke="transparent" points="165,-180 0,-180 0,0 165,0 165,-180"/>
<text text-anchor="start" x="5.5" y="-168" font-family="Helvetica,sans-Serif" font-size="10.00">DaveRandom\CallbackValidator</text>
<text text-anchor="start" x="51.5" y="-157" font-family="Helvetica,sans-Serif" font-size="10.00">\BuiltInTypes</text>
<text text-anchor="start" x="28" y="-142" font-family="Helvetica,sans-Serif" font-size="10.00">+</text>
<text text-anchor="start" x="64.5" y="-142" font-family="Helvetica,sans-Serif" font-size="10.00">ARRAY</text>
<text text-anchor="start" x="28" y="-127" font-family="Helvetica,sans-Serif" font-size="10.00">+</text>
<text text-anchor="start" x="64.5" y="-127" font-family="Helvetica,sans-Serif" font-size="10.00">BOOL</text>
<text text-anchor="start" x="28" y="-112" font-family="Helvetica,sans-Serif" font-size="10.00">+</text>
<text text-anchor="start" x="64.5" y="-112" font-family="Helvetica,sans-Serif" font-size="10.00">CALLABLE</text>
<text text-anchor="start" x="28" y="-97" font-family="Helvetica,sans-Serif" font-size="10.00">+</text>
<text text-anchor="start" x="64.5" y="-97" font-family="Helvetica,sans-Serif" font-size="10.00">FLOAT</text>
<text text-anchor="start" x="28" y="-82" font-family="Helvetica,sans-Serif" font-size="10.00">+</text>
<text text-anchor="start" x="64.5" y="-82" font-family="Helvetica,sans-Serif" font-size="10.00">INT</text>
<text text-anchor="start" x="28" y="-67" font-family="Helvetica,sans-Serif" font-size="10.00">+</text>
<text text-anchor="start" x="64.5" y="-67" font-family="Helvetica,sans-Serif" font-size="10.00">ITERABLE</text>
<text text-anchor="start" x="28" y="-52" font-family="Helvetica,sans-Serif" font-size="10.00">+</text>
<text text-anchor="start" x="64.5" y="-52" font-family="Helvetica,sans-Serif" font-size="10.00">OBJECT</text>
<text text-anchor="start" x="28" y="-37" font-family="Helvetica,sans-Serif" font-size="10.00">+</text>
<text text-anchor="start" x="64.5" y="-37" font-family="Helvetica,sans-Serif" font-size="10.00">STRING</text>
<text text-anchor="start" x="28" y="-22" font-family="Helvetica,sans-Serif" font-size="10.00">+</text>
<text text-anchor="start" x="64.5" y="-22" font-family="Helvetica,sans-Serif" font-size="10.00">VOID</text>
<text text-anchor="start" x="81" y="-7" font-family="Helvetica,sans-Serif" font-size="10.00"> </text>
<polygon fill="#666666" stroke="#666666" points="0.5,-152 0.5,-152 165.5,-152 165.5,-152 0.5,-152"/>
<polygon fill="#666666" stroke="#666666" points="0.5,-17 0.5,-17 62.5,-17 62.5,-17 0.5,-17"/>
<polygon fill="#666666" stroke="#666666" points="62.5,-17 62.5,-17 165.5,-17 165.5,-17 62.5,-17"/>
<polygon fill="none" stroke="#666666" points="0,0 0,-180 165,-180 165,0 0,0"/>
</a>
</g>
</g>
</g>
</svg>
