<?xml version="1.0" encoding="UTF-8" standalone="no"?>
<!DOCTYPE svg PUBLIC "-//W3C//DTD SVG 1.1//EN"
 "http://www.w3.org/Graphics/SVG/1.1/DTD/svg11.dtd">
<!-- Generated by graphviz version 2.43.0 (0)
 -->
<!-- Title: pocketmine\item\WritableBook Pages: 1 -->
<!--zoomable 801 -->
<svg id="main" version="1.1" xmlns="http://www.w3.org/2000/svg" xmlns:xlink="http://www.w3.org/1999/xlink" xml:space="preserve" onload="init(evt)">
<style type="text/css"><![CDATA[
.edge:hover path { stroke: red; }
.edge:hover polygon { stroke: red; fill: red; }
]]></style>
<script type="text/javascript"><![CDATA[
var edges = document.getElementsByTagName('g');
if (edges && edges.length) {
  for (var i=0;i<edges.length;i++) {
    if (edges[i].id.substr(0,4)=='edge') {
      edges[i].setAttribute('class','edge');
    }
  }
}
]]></script>
        <defs>
                <circle id="rim" cx="0" cy="0" r="7"/>
                <circle id="rim2" cx="0" cy="0" r="3.5"/>
                <g id="zoomPlus">
                        <use xlink:href="#rim" fill="#404040">
                                <set attributeName="fill" to="#808080" begin="zoomplus.mouseover" end="zoomplus.mouseout"/>
                        </use>
                        <path d="M-4,0h8M0,-4v8" fill="none" stroke="white" stroke-width="1.5" pointer-events="none"/>
                </g>
                <g id="zoomMin">
                        <use xlink:href="#rim" fill="#404040">
                                <set attributeName="fill" to="#808080" begin="zoomminus.mouseover" end="zoomminus.mouseout"/>
                        </use>
                        <path d="M-4,0h8" fill="none" stroke="white" stroke-width="1.5" pointer-events="none"/>
                </g>
                <g id="dirArrow">
                        <path fill="none" stroke="white" stroke-width="1.5" d="M0,-3.0v7 M-2.5,-0.5L0,-3.0L2.5,-0.5"/>
                </g>
               <g id="resetDef">
                       <use xlink:href="#rim2" fill="#404040">
                               <set attributeName="fill" to="#808080" begin="reset.mouseover" end="reset.mouseout"/>
                       </use>
               </g>
        </defs>

<script type="text/javascript">
var viewWidth = 349;
var viewHeight = 801;
var sectionId = 'dynsection-1';
</script>
<script xlink:href="../../svgpan.js"/>
<svg id="graph" class="graph">
<g id="viewport">
<title>pocketmine\item\WritableBook</title>
<polygon fill="white" stroke="transparent" points="-4,4 -4,-797 345,-797 345,4 -4,4"/>
<!-- Node1 -->
<g id="node1" class="node">
<title>Node1</title>
<g id="a_node1"><a xlink:title=" ">
<polygon fill="#bfbfbf" stroke="black" points="70,-0.5 70,-57.5 238,-57.5 238,-0.5 70,-0.5"/>
<text text-anchor="middle" x="154" y="-45.5" font-family="Helvetica,sans-Serif" font-size="10.00">pocketmine\item\WritableBook</text>
<polyline fill="none" stroke="black" points="70,-38.5 238,-38.5 "/>
<text text-anchor="middle" x="154" y="-26.5" font-family="Helvetica,sans-Serif" font-size="10.00"> </text>
<polyline fill="none" stroke="black" points="70,-19.5 238,-19.5 "/>
<text text-anchor="middle" x="154" y="-7.5" font-family="Helvetica,sans-Serif" font-size="10.00"> </text>
</a>
</g>
</g>
<!-- Node2 -->
<g id="node2" class="node">
<title>Node2</title>
<g id="a_node2"><a xlink:href="../../d7/d37/classpocketmine_1_1item_1_1_writable_book_base.html" target="_top" xlink:title=" ">
<polygon fill="white" stroke="#bfbfbf" points="75,-95.5 75,-295.5 233,-295.5 233,-95.5 75,-95.5"/>
<text text-anchor="start" x="83" y="-283.5" font-family="Helvetica,sans-Serif" font-size="10.00">pocketmine\item\Writable</text>
<text text-anchor="middle" x="154" y="-272.5" font-family="Helvetica,sans-Serif" font-size="10.00">BookBase</text>
<polyline fill="none" stroke="#bfbfbf" points="75,-265.5 233,-265.5 "/>
<text text-anchor="middle" x="154" y="-253.5" font-family="Helvetica,sans-Serif" font-size="10.00"> </text>
<polyline fill="none" stroke="#bfbfbf" points="75,-246.5 233,-246.5 "/>
<text text-anchor="start" x="83" y="-234.5" font-family="Helvetica,sans-Serif" font-size="10.00">+ __construct()</text>
<text text-anchor="start" x="83" y="-223.5" font-family="Helvetica,sans-Serif" font-size="10.00">+ addPage()</text>
<text text-anchor="start" x="83" y="-212.5" font-family="Helvetica,sans-Serif" font-size="10.00">+ deletePage()</text>
<text text-anchor="start" x="83" y="-201.5" font-family="Helvetica,sans-Serif" font-size="10.00">+ getMaxStackSize()</text>
<text text-anchor="start" x="83" y="-190.5" font-family="Helvetica,sans-Serif" font-size="10.00">+ getPages()</text>
<text text-anchor="start" x="83" y="-179.5" font-family="Helvetica,sans-Serif" font-size="10.00">+ getPageText()</text>
<text text-anchor="start" x="83" y="-168.5" font-family="Helvetica,sans-Serif" font-size="10.00">+ insertPage()</text>
<text text-anchor="start" x="83" y="-157.5" font-family="Helvetica,sans-Serif" font-size="10.00">+ pageExists()</text>
<text text-anchor="start" x="83" y="-146.5" font-family="Helvetica,sans-Serif" font-size="10.00">+ setPages()</text>
<text text-anchor="start" x="83" y="-135.5" font-family="Helvetica,sans-Serif" font-size="10.00">+ setPageText()</text>
<text text-anchor="start" x="83" y="-124.5" font-family="Helvetica,sans-Serif" font-size="10.00">+ swapPages()</text>
<text text-anchor="start" x="83" y="-113.5" font-family="Helvetica,sans-Serif" font-size="10.00"># deserializeCompoundTag()</text>
<text text-anchor="start" x="83" y="-102.5" font-family="Helvetica,sans-Serif" font-size="10.00"># serializeCompoundTag()</text>
</a>
</g>
</g>
<!-- Node2&#45;&gt;Node1 -->
<g id="edge1" class="edge">
<title>Node2&#45;&gt;Node1</title>
<path fill="none" stroke="midnightblue" d="M154,-85.23C154,-75.14 154,-65.67 154,-57.51"/>
<polygon fill="none" stroke="midnightblue" points="150.5,-85.49 154,-95.49 157.5,-85.49 150.5,-85.49"/>
</g>
<!-- Node3 -->
<g id="node3" class="node">
<title>Node3</title>
<g id="a_node3"><a xlink:href="../../d5/d8a/classpocketmine_1_1item_1_1_item.html" target="_top" xlink:title=" ">
<polygon fill="white" stroke="#bfbfbf" points="1,-333.5 1,-621.5 159,-621.5 159,-333.5 1,-333.5"/>
<text text-anchor="middle" x="80" y="-609.5" font-family="Helvetica,sans-Serif" font-size="10.00">pocketmine\item\Item</text>
<polyline fill="none" stroke="#bfbfbf" points="1,-602.5 159,-602.5 "/>
<text text-anchor="start" x="9" y="-590.5" font-family="Helvetica,sans-Serif" font-size="10.00"># $blockEntityTag</text>
<text text-anchor="start" x="9" y="-579.5" font-family="Helvetica,sans-Serif" font-size="10.00"># $canDestroy</text>
<text text-anchor="start" x="9" y="-568.5" font-family="Helvetica,sans-Serif" font-size="10.00"># $canPlaceOn</text>
<text text-anchor="start" x="9" y="-557.5" font-family="Helvetica,sans-Serif" font-size="10.00"># $count</text>
<text text-anchor="start" x="9" y="-546.5" font-family="Helvetica,sans-Serif" font-size="10.00"># $customName</text>
<text text-anchor="start" x="9" y="-535.5" font-family="Helvetica,sans-Serif" font-size="10.00"># $keepOnDeath</text>
<text text-anchor="start" x="9" y="-524.5" font-family="Helvetica,sans-Serif" font-size="10.00"># $lore</text>
<text text-anchor="start" x="9" y="-513.5" font-family="Helvetica,sans-Serif" font-size="10.00"># $name</text>
<polyline fill="none" stroke="#bfbfbf" points="1,-506.5 159,-506.5 "/>
<text text-anchor="start" x="9" y="-494.5" font-family="Helvetica,sans-Serif" font-size="10.00">+ __construct()</text>
<text text-anchor="start" x="9" y="-483.5" font-family="Helvetica,sans-Serif" font-size="10.00">+ __clone()</text>
<text text-anchor="start" x="9" y="-472.5" font-family="Helvetica,sans-Serif" font-size="10.00">+ __toString()</text>
<text text-anchor="start" x="9" y="-461.5" font-family="Helvetica,sans-Serif" font-size="10.00">+ canBePlaced()</text>
<text text-anchor="start" x="9" y="-450.5" font-family="Helvetica,sans-Serif" font-size="10.00">+ canStackWith()</text>
<text text-anchor="start" x="9" y="-439.5" font-family="Helvetica,sans-Serif" font-size="10.00">+ clearCustomBlockData()</text>
<text text-anchor="start" x="9" y="-428.5" font-family="Helvetica,sans-Serif" font-size="10.00">+ clearCustomName()</text>
<text text-anchor="start" x="9" y="-417.5" font-family="Helvetica,sans-Serif" font-size="10.00">+ clearNamedTag()</text>
<text text-anchor="start" x="9" y="-406.5" font-family="Helvetica,sans-Serif" font-size="10.00">+ equals()</text>
<text text-anchor="start" x="9" y="-395.5" font-family="Helvetica,sans-Serif" font-size="10.00">+ equalsExact()</text>
<text text-anchor="start" x="9" y="-384.5" font-family="Helvetica,sans-Serif" font-size="10.00">and 44 more...</text>
<text text-anchor="start" x="9" y="-373.5" font-family="Helvetica,sans-Serif" font-size="10.00">+ jsonDeserialize()</text>
<text text-anchor="start" x="9" y="-362.5" font-family="Helvetica,sans-Serif" font-size="10.00">+ nbtDeserialize()</text>
<text text-anchor="start" x="9" y="-351.5" font-family="Helvetica,sans-Serif" font-size="10.00"># deserializeCompoundTag()</text>
<text text-anchor="start" x="9" y="-340.5" font-family="Helvetica,sans-Serif" font-size="10.00"># serializeCompoundTag()</text>
</a>
</g>
</g>
<!-- Node3&#45;&gt;Node2 -->
<g id="edge2" class="edge">
<title>Node3&#45;&gt;Node2</title>
<path fill="none" stroke="midnightblue" d="M120.45,-323.45C122.92,-314.1 125.37,-304.82 127.76,-295.8"/>
<polygon fill="none" stroke="midnightblue" points="117.04,-322.66 117.87,-333.22 123.81,-324.45 117.04,-322.66"/>
</g>
<!-- Node4 -->
<g id="node4" class="node">
<title>Node4</title>
<g id="a_node4"><a xlink:title=" ">
<polygon fill="white" stroke="#bfbfbf" points="0,-735.5 0,-792.5 94,-792.5 94,-735.5 0,-735.5"/>
<text text-anchor="middle" x="47" y="-780.5" font-family="Helvetica,sans-Serif" font-size="10.00">JsonSerializable</text>
<polyline fill="none" stroke="#bfbfbf" points="0,-773.5 94,-773.5 "/>
<text text-anchor="middle" x="47" y="-761.5" font-family="Helvetica,sans-Serif" font-size="10.00"> </text>
<polyline fill="none" stroke="#bfbfbf" points="0,-754.5 94,-754.5 "/>
<text text-anchor="middle" x="47" y="-742.5" font-family="Helvetica,sans-Serif" font-size="10.00"> </text>
</a>
</g>
</g>
<!-- Node4&#45;&gt;Node3 -->
<g id="edge3" class="edge">
<title>Node4&#45;&gt;Node3</title>
<path fill="none" stroke="midnightblue" d="M51.3,-724.92C54.05,-700.62 57.71,-668.45 61,-640 61.7,-633.97 62.41,-627.81 63.14,-621.6"/>
<polygon fill="none" stroke="midnightblue" points="47.79,-724.82 50.14,-735.15 54.74,-725.61 47.79,-724.82"/>
</g>
<!-- Node5 -->
<g id="node5" class="node">
<title>Node5</title>
<g id="a_node5"><a xlink:title=" ">
<polygon fill="white" stroke="#bfbfbf" points="159.5,-735.5 159.5,-792.5 202.5,-792.5 202.5,-735.5 159.5,-735.5"/>
<text text-anchor="middle" x="181" y="-780.5" font-family="Helvetica,sans-Serif" font-size="10.00">const</text>
<polyline fill="none" stroke="#bfbfbf" points="159.5,-773.5 202.5,-773.5 "/>
<text text-anchor="middle" x="181" y="-761.5" font-family="Helvetica,sans-Serif" font-size="10.00"> </text>
<polyline fill="none" stroke="#bfbfbf" points="159.5,-754.5 202.5,-754.5 "/>
<text text-anchor="middle" x="181" y="-742.5" font-family="Helvetica,sans-Serif" font-size="10.00"> </text>
</a>
</g>
</g>
<!-- Node5&#45;&gt;Node2 -->
<g id="edge5" class="edge">
<title>Node5&#45;&gt;Node2</title>
<path fill="none" stroke="#404040" d="M202.53,-739.82C207.61,-732.96 212.33,-725.11 215,-717 225.71,-684.5 217.34,-674.14 215,-640 207.21,-526.21 188.31,-397.13 173.59,-307.7"/>
<polygon fill="none" stroke="#404040" points="173.55,-307.46 168.62,-302.19 171.59,-295.62 176.52,-300.88 173.55,-307.46"/>
<text text-anchor="middle" x="277" y="-486" font-family="Helvetica,sans-Serif" font-size="10.00"> +TAG_PAGES</text>
<text text-anchor="middle" x="277" y="-475" font-family="Helvetica,sans-Serif" font-size="10.00">+TAG_PAGE_PHOTONAME</text>
<text text-anchor="middle" x="277" y="-464" font-family="Helvetica,sans-Serif" font-size="10.00">+TAG_PAGE_TEXT</text>
</g>
<!-- Node5&#45;&gt;Node3 -->
<g id="edge4" class="edge">
<title>Node5&#45;&gt;Node3</title>
<path fill="none" stroke="#404040" d="M159.1,-756.01C132.47,-747.02 89.95,-730.9 81,-717 71.31,-701.95 68.05,-669.85 67.99,-633.94"/>
<polygon fill="none" stroke="#404040" points="67.99,-633.63 64.04,-627.6 68.08,-621.64 72.04,-627.67 67.99,-633.63"/>
<text text-anchor="middle" x="148" y="-709" font-family="Helvetica,sans-Serif" font-size="10.00"> +TAG_BLOCK_ENTITY_TAG</text>
<text text-anchor="middle" x="148" y="-698" font-family="Helvetica,sans-Serif" font-size="10.00">+TAG_DISPLAY</text>
<text text-anchor="middle" x="148" y="-687" font-family="Helvetica,sans-Serif" font-size="10.00">+TAG_DISPLAY_LORE</text>
<text text-anchor="middle" x="148" y="-676" font-family="Helvetica,sans-Serif" font-size="10.00">+TAG_DISPLAY_NAME</text>
<text text-anchor="middle" x="148" y="-665" font-family="Helvetica,sans-Serif" font-size="10.00">+TAG_ENCH</text>
<text text-anchor="middle" x="148" y="-654" font-family="Helvetica,sans-Serif" font-size="10.00">+TAG_KEEP_ON_DEATH</text>
<text text-anchor="middle" x="148" y="-643" font-family="Helvetica,sans-Serif" font-size="10.00">+TAG_SLOT</text>
</g>
</g>
</svg>
        <g id="navigator" transform="translate(0 0)" fill="#404254">
                <rect fill="#f2f5e9" fill-opacity="0.5" stroke="#606060" stroke-width=".5" x="0" y="0" width="60" height="60"/>
                <use id="zoomplus" xlink:href="#zoomPlus" x="17" y="9" onmousedown="handleZoom(evt,'in')"/>
                <use id="zoomminus" xlink:href="#zoomMin" x="42" y="9" onmousedown="handleZoom(evt,'out')"/>
                <use id="reset" xlink:href="#resetDef" x="30" y="36" onmousedown="handleReset()"/>
                <g id="arrowUp" xlink:href="#dirArrow" transform="translate(30 24)" onmousedown="handlePan(0,-1)">
                  <use xlink:href="#rim" fill="#404040">
                        <set attributeName="fill" to="#808080" begin="arrowUp.mouseover" end="arrowUp.mouseout"/>
                  </use>
                  <path fill="none" stroke="white" stroke-width="1.5" d="M0,-3.0v7 M-2.5,-0.5L0,-3.0L2.5,-0.5"/>
                </g>
                <g id="arrowRight" xlink:href="#dirArrow" transform="rotate(90) translate(36 -43)" onmousedown="handlePan(1,0)">
                  <use xlink:href="#rim" fill="#404040">
                        <set attributeName="fill" to="#808080" begin="arrowRight.mouseover" end="arrowRight.mouseout"/>
                  </use>
                  <path fill="none" stroke="white" stroke-width="1.5" d="M0,-3.0v7 M-2.5,-0.5L0,-3.0L2.5,-0.5"/>
                </g>
                <g id="arrowDown" xlink:href="#dirArrow" transform="rotate(180) translate(-30 -48)" onmousedown="handlePan(0,1)">
                  <use xlink:href="#rim" fill="#404040">
                        <set attributeName="fill" to="#808080" begin="arrowDown.mouseover" end="arrowDown.mouseout"/>
                  </use>
                  <path fill="none" stroke="white" stroke-width="1.5" d="M0,-3.0v7 M-2.5,-0.5L0,-3.0L2.5,-0.5"/>
                </g>
                <g id="arrowLeft" xlink:href="#dirArrow" transform="rotate(270) translate(-36 17)" onmousedown="handlePan(-1,0)">
                  <use xlink:href="#rim" fill="#404040">
                        <set attributeName="fill" to="#808080" begin="arrowLeft.mouseover" end="arrowLeft.mouseout"/>
                  </use>
                  <path fill="none" stroke="white" stroke-width="1.5" d="M0,-3.0v7 M-2.5,-0.5L0,-3.0L2.5,-0.5"/>
                </g>
        </g>
        <svg viewBox="0 0 15 15" width="100%" height="30px" preserveAspectRatio="xMaxYMin meet">
         <g id="arrow_out" transform="scale(0.3 0.3)">
          <a xlink:href="classpocketmine_1_1item_1_1_writable_book__coll__graph_org.svg" target="_base">
           <rect id="button" ry="5" rx="5" y="6" x="6" height="38" width="38"
                fill="#f2f5e9" fill-opacity="0.5" stroke="#606060" stroke-width="1.0"/>
           <path id="arrow"
             d="M 11.500037,31.436501 C 11.940474,20.09759 22.043105,11.32322 32.158766,21.979434 L 37.068811,17.246167 C 37.068811,17.246167 37.088388,32 37.088388,32 L 22.160133,31.978069 C 22.160133,31.978069 26.997745,27.140456 26.997745,27.140456 C 18.528582,18.264221 13.291696,25.230495 11.500037,31.436501 z"
             style="fill:#404040;"/>
          </a>
         </g>
        </svg>
</svg>
