<?xml version="1.0" encoding="UTF-8" standalone="no"?>
<!DOCTYPE svg PUBLIC "-//W3C//DTD SVG 1.1//EN"
 "http://www.w3.org/Graphics/SVG/1.1/DTD/svg11.dtd">
<!-- Generated by graphviz version 2.43.0 (0)
 -->
<!-- Title: pocketmine\item\WritableBook Pages: 1 -->
<svg width="338pt" height="1408pt"
 viewBox="0.00 0.00 337.50 1408.00" xmlns="http://www.w3.org/2000/svg" xmlns:xlink="http://www.w3.org/1999/xlink">
<g id="graph0" class="graph" transform="scale(1 1) rotate(0) translate(4 1404)">
<title>pocketmine\item\WritableBook</title>
<!-- Node1 -->
<g id="Node000001" class="node">
<title>Node1</title>
<g id="a_Node000001"><a xlink:title=" ">
<polygon fill="#999999" stroke="transparent" points="162,-49 0,-49 0,0 162,0 162,-49"/>
<text text-anchor="start" x="5" y="-36.5" font-family="Helvetica,sans-Serif" font-size="10.00">pocketmine\item\WritableBook</text>
<text text-anchor="start" x="79" y="-21.5" font-family="Helvetica,sans-Serif" font-size="10.00"> </text>
<text text-anchor="start" x="79" y="-6.5" font-family="Helvetica,sans-Serif" font-size="10.00"> </text>
<polygon fill="#666666" stroke="#666666" points="0,-31.5 0,-31.5 162,-31.5 162,-31.5 0,-31.5"/>
<polygon fill="#666666" stroke="#666666" points="0,-16.5 0,-16.5 162,-16.5 162,-16.5 0,-16.5"/>
<polygon fill="none" stroke="#666666" points="0,0 0,-49 162,-49 162,0 0,0"/>
</a>
</g>
</g>
<!-- Node2 -->
<g id="Node000002" class="node">
<title>Node2</title>
<g id="a_Node000002"><a xlink:href="../../d7/d37/classpocketmine_1_1item_1_1_writable_book_base.html" target="_top" xlink:title=" ">
<polygon fill="white" stroke="transparent" points="156.5,-356 5.5,-356 5.5,-86 156.5,-86 156.5,-356"/>
<text text-anchor="start" x="18" y="-344" font-family="Helvetica,sans-Serif" font-size="10.00">pocketmine\item\Writable</text>
<text text-anchor="start" x="57" y="-333" font-family="Helvetica,sans-Serif" font-size="10.00">BookBase</text>
<text text-anchor="start" x="10" y="-318" font-family="Helvetica,sans-Serif" font-size="10.00">+</text>
<text text-anchor="start" x="23" y="-318" font-family="Helvetica,sans-Serif" font-size="10.00">TAG_PAGE_PHOTONAME</text>
<text text-anchor="start" x="10" y="-303" font-family="Helvetica,sans-Serif" font-size="10.00">+</text>
<text text-anchor="start" x="23" y="-303" font-family="Helvetica,sans-Serif" font-size="10.00">TAG_PAGE_TEXT</text>
<text text-anchor="start" x="10" y="-288" font-family="Helvetica,sans-Serif" font-size="10.00">+</text>
<text text-anchor="start" x="23" y="-288" font-family="Helvetica,sans-Serif" font-size="10.00">TAG_PAGES</text>
<text text-anchor="start" x="10" y="-273" font-family="Helvetica,sans-Serif" font-size="10.00">+</text>
<text text-anchor="start" x="23" y="-273" font-family="Helvetica,sans-Serif" font-size="10.00">__construct()</text>
<text text-anchor="start" x="10" y="-258" font-family="Helvetica,sans-Serif" font-size="10.00">+</text>
<text text-anchor="start" x="23" y="-258" font-family="Helvetica,sans-Serif" font-size="10.00">addPage()</text>
<text text-anchor="start" x="10" y="-243" font-family="Helvetica,sans-Serif" font-size="10.00">+</text>
<text text-anchor="start" x="23" y="-243" font-family="Helvetica,sans-Serif" font-size="10.00">deletePage()</text>
<text text-anchor="start" x="10" y="-228" font-family="Helvetica,sans-Serif" font-size="10.00">+</text>
<text text-anchor="start" x="23" y="-228" font-family="Helvetica,sans-Serif" font-size="10.00">getMaxStackSize()</text>
<text text-anchor="start" x="10" y="-213" font-family="Helvetica,sans-Serif" font-size="10.00">+</text>
<text text-anchor="start" x="23" y="-213" font-family="Helvetica,sans-Serif" font-size="10.00">getPages()</text>
<text text-anchor="start" x="10" y="-198" font-family="Helvetica,sans-Serif" font-size="10.00">+</text>
<text text-anchor="start" x="23" y="-198" font-family="Helvetica,sans-Serif" font-size="10.00">getPageText()</text>
<text text-anchor="start" x="10" y="-183" font-family="Helvetica,sans-Serif" font-size="10.00">+</text>
<text text-anchor="start" x="23" y="-183" font-family="Helvetica,sans-Serif" font-size="10.00">insertPage()</text>
<text text-anchor="start" x="10" y="-168" font-family="Helvetica,sans-Serif" font-size="10.00">+</text>
<text text-anchor="start" x="23" y="-168" font-family="Helvetica,sans-Serif" font-size="10.00">pageExists()</text>
<text text-anchor="start" x="10" y="-153" font-family="Helvetica,sans-Serif" font-size="10.00">+</text>
<text text-anchor="start" x="23" y="-153" font-family="Helvetica,sans-Serif" font-size="10.00">setPages()</text>
<text text-anchor="start" x="10" y="-138" font-family="Helvetica,sans-Serif" font-size="10.00">+</text>
<text text-anchor="start" x="23" y="-138" font-family="Helvetica,sans-Serif" font-size="10.00">setPageText()</text>
<text text-anchor="start" x="10" y="-123" font-family="Helvetica,sans-Serif" font-size="10.00">+</text>
<text text-anchor="start" x="23" y="-123" font-family="Helvetica,sans-Serif" font-size="10.00">swapPages()</text>
<text text-anchor="start" x="10" y="-108" font-family="Helvetica,sans-Serif" font-size="10.00">#</text>
<text text-anchor="start" x="23" y="-108" font-family="Helvetica,sans-Serif" font-size="10.00">deserializeCompoundTag()</text>
<text text-anchor="start" x="10" y="-93" font-family="Helvetica,sans-Serif" font-size="10.00">#</text>
<text text-anchor="start" x="23" y="-93" font-family="Helvetica,sans-Serif" font-size="10.00">serializeCompoundTag()</text>
<polygon fill="#bfbfbf" stroke="#bfbfbf" points="6,-328 6,-328 157,-328 157,-328 6,-328"/>
<polygon fill="#bfbfbf" stroke="#bfbfbf" points="6,-283 6,-283 21,-283 21,-283 6,-283"/>
<polygon fill="#bfbfbf" stroke="#bfbfbf" points="21,-283 21,-283 157,-283 157,-283 21,-283"/>
<polygon fill="none" stroke="#bfbfbf" points="5.5,-86 5.5,-356 156.5,-356 156.5,-86 5.5,-86"/>
</a>
</g>
</g>
<!-- Node2&#45;&gt;Node1 -->
<g id="edge1_Node000001_Node000002" class="edge">
<title>Node2&#45;&gt;Node1</title>
<g id="a_edge1_Node000001_Node000002"><a xlink:title=" ">
<path fill="none" stroke="#63b8ff" d="M81,-75.76C81,-65.8 81,-56.72 81,-49.09"/>
<polygon fill="none" stroke="#63b8ff" points="77.5,-75.97 81,-85.97 84.5,-75.97 77.5,-75.97"/>
</a>
</g>
</g>
<!-- Node3 -->
<g id="Node000003" class="node">
<title>Node3</title>
<g id="a_Node000003"><a xlink:href="../../d5/d8a/classpocketmine_1_1item_1_1_item.html" target="_top" xlink:title=" ">
<polygon fill="white" stroke="transparent" points="156.5,-832 5.5,-832 5.5,-393 156.5,-393 156.5,-832"/>
<text text-anchor="start" x="27" y="-819.5" font-family="Helvetica,sans-Serif" font-size="10.00">pocketmine\item\Item</text>
<text text-anchor="start" x="10" y="-804.5" font-family="Helvetica,sans-Serif" font-size="10.00">+</text>
<text text-anchor="start" x="23" y="-804.5" font-family="Helvetica,sans-Serif" font-size="10.00">TAG_BLOCK_ENTITY_TAG</text>
<text text-anchor="start" x="10" y="-789.5" font-family="Helvetica,sans-Serif" font-size="10.00">+</text>
<text text-anchor="start" x="23" y="-789.5" font-family="Helvetica,sans-Serif" font-size="10.00">TAG_DISPLAY</text>
<text text-anchor="start" x="10" y="-774.5" font-family="Helvetica,sans-Serif" font-size="10.00">+</text>
<text text-anchor="start" x="23" y="-774.5" font-family="Helvetica,sans-Serif" font-size="10.00">TAG_DISPLAY_LORE</text>
<text text-anchor="start" x="10" y="-759.5" font-family="Helvetica,sans-Serif" font-size="10.00">+</text>
<text text-anchor="start" x="23" y="-759.5" font-family="Helvetica,sans-Serif" font-size="10.00">TAG_DISPLAY_NAME</text>
<text text-anchor="start" x="10" y="-744.5" font-family="Helvetica,sans-Serif" font-size="10.00">+</text>
<text text-anchor="start" x="23" y="-744.5" font-family="Helvetica,sans-Serif" font-size="10.00">TAG_ENCH</text>
<text text-anchor="start" x="10" y="-729.5" font-family="Helvetica,sans-Serif" font-size="10.00">+</text>
<text text-anchor="start" x="23" y="-729.5" font-family="Helvetica,sans-Serif" font-size="10.00">TAG_KEEP_ON_DEATH</text>
<text text-anchor="start" x="10" y="-714.5" font-family="Helvetica,sans-Serif" font-size="10.00">#</text>
<text text-anchor="start" x="23" y="-714.5" font-family="Helvetica,sans-Serif" font-size="10.00">$canDestroy</text>
<text text-anchor="start" x="10" y="-699.5" font-family="Helvetica,sans-Serif" font-size="10.00">#</text>
<text text-anchor="start" x="23" y="-699.5" font-family="Helvetica,sans-Serif" font-size="10.00">$canPlaceOn</text>
<text text-anchor="start" x="10" y="-684.5" font-family="Helvetica,sans-Serif" font-size="10.00">#</text>
<text text-anchor="start" x="23" y="-684.5" font-family="Helvetica,sans-Serif" font-size="10.00">$count</text>
<text text-anchor="start" x="10" y="-669.5" font-family="Helvetica,sans-Serif" font-size="10.00">#</text>
<text text-anchor="start" x="23" y="-669.5" font-family="Helvetica,sans-Serif" font-size="10.00">$customName</text>
<text text-anchor="start" x="10" y="-654.5" font-family="Helvetica,sans-Serif" font-size="10.00">#</text>
<text text-anchor="start" x="23" y="-654.5" font-family="Helvetica,sans-Serif" font-size="10.00">$keepOnDeath</text>
<text text-anchor="start" x="10" y="-639.5" font-family="Helvetica,sans-Serif" font-size="10.00">#</text>
<text text-anchor="start" x="23" y="-639.5" font-family="Helvetica,sans-Serif" font-size="10.00">$lore</text>
<text text-anchor="start" x="10" y="-624.5" font-family="Helvetica,sans-Serif" font-size="10.00">+</text>
<text text-anchor="start" x="23" y="-624.5" font-family="Helvetica,sans-Serif" font-size="10.00">__construct()</text>
<text text-anchor="start" x="10" y="-609.5" font-family="Helvetica,sans-Serif" font-size="10.00">+</text>
<text text-anchor="start" x="23" y="-609.5" font-family="Helvetica,sans-Serif" font-size="10.00">__clone()</text>
<text text-anchor="start" x="10" y="-594.5" font-family="Helvetica,sans-Serif" font-size="10.00">+</text>
<text text-anchor="start" x="23" y="-594.5" font-family="Helvetica,sans-Serif" font-size="10.00">__toString()</text>
<text text-anchor="start" x="10" y="-579.5" font-family="Helvetica,sans-Serif" font-size="10.00">+</text>
<text text-anchor="start" x="23" y="-579.5" font-family="Helvetica,sans-Serif" font-size="10.00">canBePlaced()</text>
<text text-anchor="start" x="10" y="-564.5" font-family="Helvetica,sans-Serif" font-size="10.00">+</text>
<text text-anchor="start" x="23" y="-564.5" font-family="Helvetica,sans-Serif" font-size="10.00">canStackWith()</text>
<text text-anchor="start" x="10" y="-549.5" font-family="Helvetica,sans-Serif" font-size="10.00">+</text>
<text text-anchor="start" x="23" y="-549.5" font-family="Helvetica,sans-Serif" font-size="10.00">clearCustomBlockData()</text>
<text text-anchor="start" x="10" y="-534.5" font-family="Helvetica,sans-Serif" font-size="10.00">+</text>
<text text-anchor="start" x="23" y="-534.5" font-family="Helvetica,sans-Serif" font-size="10.00">clearCustomName()</text>
<text text-anchor="start" x="10" y="-519.5" font-family="Helvetica,sans-Serif" font-size="10.00">+</text>
<text text-anchor="start" x="23" y="-519.5" font-family="Helvetica,sans-Serif" font-size="10.00">clearNamedTag()</text>
<text text-anchor="start" x="10" y="-504.5" font-family="Helvetica,sans-Serif" font-size="10.00">+</text>
<text text-anchor="start" x="23" y="-504.5" font-family="Helvetica,sans-Serif" font-size="10.00">equals()</text>
<text text-anchor="start" x="10" y="-489.5" font-family="Helvetica,sans-Serif" font-size="10.00">+</text>
<text text-anchor="start" x="23" y="-489.5" font-family="Helvetica,sans-Serif" font-size="10.00">equalsExact()</text>
<text text-anchor="start" x="23" y="-474.5" font-family="Helvetica,sans-Serif" font-size="10.00">and 48 more...</text>
<text text-anchor="start" x="10" y="-459.5" font-family="Helvetica,sans-Serif" font-size="10.00">+</text>
<text text-anchor="start" x="23" y="-459.5" font-family="Helvetica,sans-Serif" font-size="10.00">legacyJsonDeserialize()</text>
<text text-anchor="start" x="10" y="-444.5" font-family="Helvetica,sans-Serif" font-size="10.00">+</text>
<text text-anchor="start" x="23" y="-444.5" font-family="Helvetica,sans-Serif" font-size="10.00">nbtDeserialize()</text>
<text text-anchor="start" x="10" y="-429.5" font-family="Helvetica,sans-Serif" font-size="10.00">#</text>
<text text-anchor="start" x="23" y="-429.5" font-family="Helvetica,sans-Serif" font-size="10.00">describeState()</text>
<text text-anchor="start" x="10" y="-414.5" font-family="Helvetica,sans-Serif" font-size="10.00">#</text>
<text text-anchor="start" x="23" y="-414.5" font-family="Helvetica,sans-Serif" font-size="10.00">deserializeCompoundTag()</text>
<text text-anchor="start" x="10" y="-399.5" font-family="Helvetica,sans-Serif" font-size="10.00">#</text>
<text text-anchor="start" x="23" y="-399.5" font-family="Helvetica,sans-Serif" font-size="10.00">serializeCompoundTag()</text>
<polygon fill="#bfbfbf" stroke="#bfbfbf" points="6,-814.5 6,-814.5 157,-814.5 157,-814.5 6,-814.5"/>
<polygon fill="#bfbfbf" stroke="#bfbfbf" points="6,-634.5 6,-634.5 21,-634.5 21,-634.5 6,-634.5"/>
<polygon fill="#bfbfbf" stroke="#bfbfbf" points="21,-634.5 21,-634.5 157,-634.5 157,-634.5 21,-634.5"/>
<polygon fill="none" stroke="#bfbfbf" points="5.5,-393 5.5,-832 156.5,-832 156.5,-393 5.5,-393"/>
</a>
</g>
</g>
<!-- Node3&#45;&gt;Node2 -->
<g id="edge2_Node000002_Node000003" class="edge">
<title>Node3&#45;&gt;Node2</title>
<g id="a_edge2_Node000002_Node000003"><a xlink:title=" ">
<path fill="none" stroke="#63b8ff" d="M81,-382.7C81,-373.76 81,-364.91 81,-356.24"/>
<polygon fill="none" stroke="#63b8ff" points="77.5,-382.84 81,-392.84 84.5,-382.84 77.5,-382.84"/>
</a>
</g>
</g>
<!-- Node4 -->
<g id="Node000004" class="node">
<title>Node4</title>
<g id="a_Node000004"><a xlink:title=" ">
<polygon fill="white" stroke="transparent" points="109,-1046 21,-1046 21,-997 109,-997 109,-1046"/>
<text text-anchor="start" x="26" y="-1033.5" font-family="Helvetica,sans-Serif" font-size="10.00">JsonSerializable</text>
<text text-anchor="start" x="63" y="-1018.5" font-family="Helvetica,sans-Serif" font-size="10.00"> </text>
<text text-anchor="start" x="63" y="-1003.5" font-family="Helvetica,sans-Serif" font-size="10.00"> </text>
<polygon fill="#bfbfbf" stroke="#bfbfbf" points="21,-1028.5 21,-1028.5 109,-1028.5 109,-1028.5 21,-1028.5"/>
<polygon fill="#bfbfbf" stroke="#bfbfbf" points="21,-1013.5 21,-1013.5 109,-1013.5 109,-1013.5 21,-1013.5"/>
<polygon fill="none" stroke="#bfbfbf" points="21,-997 21,-1046 109,-1046 109,-997 21,-997"/>
</a>
</g>
</g>
<!-- Node4&#45;&gt;Node3 -->
<g id="edge3_Node000003_Node000004" class="edge">
<title>Node4&#45;&gt;Node3</title>
<g id="a_edge3_Node000003_Node000004"><a xlink:title=" ">
<path fill="none" stroke="#63b8ff" d="M66.33,-986.65C67.72,-951.27 70.03,-892.56 72.41,-832.06"/>
<polygon fill="none" stroke="#63b8ff" points="62.82,-986.73 65.93,-996.86 69.82,-987 62.82,-986.73"/>
</a>
</g>
</g>
<!-- Node5 -->
<g id="Node000005" class="node">
<title>Node5</title>
<g id="a_Node000005"><a xlink:href="../../de/d67/classpocketmine_1_1nbt_1_1tag_1_1_compound_tag.html" target="_top" xlink:title=" ">
<polygon fill="white" stroke="transparent" points="241,-1164 127,-1164 127,-879 241,-879 241,-1164"/>
<text text-anchor="start" x="136.5" y="-1151.5" font-family="Helvetica,sans-Serif" font-size="10.00">pocketmine\nbt\tag</text>
<text text-anchor="start" x="147.5" y="-1140.5" font-family="Helvetica,sans-Serif" font-size="10.00">\CompoundTag</text>
<text text-anchor="start" x="182" y="-1125.5" font-family="Helvetica,sans-Serif" font-size="10.00"> </text>
<text text-anchor="start" x="131" y="-1110.5" font-family="Helvetica,sans-Serif" font-size="10.00">+</text>
<text text-anchor="start" x="144" y="-1110.5" font-family="Helvetica,sans-Serif" font-size="10.00">__construct()</text>
<text text-anchor="start" x="131" y="-1095.5" font-family="Helvetica,sans-Serif" font-size="10.00">+</text>
<text text-anchor="start" x="144" y="-1095.5" font-family="Helvetica,sans-Serif" font-size="10.00">__clone()</text>
<text text-anchor="start" x="131" y="-1080.5" font-family="Helvetica,sans-Serif" font-size="10.00">+</text>
<text text-anchor="start" x="144" y="-1080.5" font-family="Helvetica,sans-Serif" font-size="10.00">count()</text>
<text text-anchor="start" x="131" y="-1065.5" font-family="Helvetica,sans-Serif" font-size="10.00">+</text>
<text text-anchor="start" x="144" y="-1065.5" font-family="Helvetica,sans-Serif" font-size="10.00">equals()</text>
<text text-anchor="start" x="131" y="-1050.5" font-family="Helvetica,sans-Serif" font-size="10.00">+</text>
<text text-anchor="start" x="144" y="-1050.5" font-family="Helvetica,sans-Serif" font-size="10.00">getByte()</text>
<text text-anchor="start" x="131" y="-1035.5" font-family="Helvetica,sans-Serif" font-size="10.00">+</text>
<text text-anchor="start" x="144" y="-1035.5" font-family="Helvetica,sans-Serif" font-size="10.00">getByteArray()</text>
<text text-anchor="start" x="131" y="-1020.5" font-family="Helvetica,sans-Serif" font-size="10.00">+</text>
<text text-anchor="start" x="144" y="-1020.5" font-family="Helvetica,sans-Serif" font-size="10.00">getCompoundTag()</text>
<text text-anchor="start" x="131" y="-1005.5" font-family="Helvetica,sans-Serif" font-size="10.00">+</text>
<text text-anchor="start" x="144" y="-1005.5" font-family="Helvetica,sans-Serif" font-size="10.00">getCount()</text>
<text text-anchor="start" x="131" y="-990.5" font-family="Helvetica,sans-Serif" font-size="10.00">+</text>
<text text-anchor="start" x="144" y="-990.5" font-family="Helvetica,sans-Serif" font-size="10.00">getDouble()</text>
<text text-anchor="start" x="131" y="-975.5" font-family="Helvetica,sans-Serif" font-size="10.00">+</text>
<text text-anchor="start" x="144" y="-975.5" font-family="Helvetica,sans-Serif" font-size="10.00">getFloat()</text>
<text text-anchor="start" x="144" y="-960.5" font-family="Helvetica,sans-Serif" font-size="10.00">and 23 more...</text>
<text text-anchor="start" x="131" y="-945.5" font-family="Helvetica,sans-Serif" font-size="10.00">+</text>
<text text-anchor="start" x="144" y="-945.5" font-family="Helvetica,sans-Serif" font-size="10.00">create()</text>
<text text-anchor="start" x="131" y="-930.5" font-family="Helvetica,sans-Serif" font-size="10.00">+</text>
<text text-anchor="start" x="144" y="-930.5" font-family="Helvetica,sans-Serif" font-size="10.00">read()</text>
<text text-anchor="start" x="131" y="-915.5" font-family="Helvetica,sans-Serif" font-size="10.00">#</text>
<text text-anchor="start" x="144" y="-915.5" font-family="Helvetica,sans-Serif" font-size="10.00">getTypeName()</text>
<text text-anchor="start" x="131" y="-900.5" font-family="Helvetica,sans-Serif" font-size="10.00">#</text>
<text text-anchor="start" x="144" y="-900.5" font-family="Helvetica,sans-Serif" font-size="10.00">makeCopy()</text>
<text text-anchor="start" x="131" y="-885.5" font-family="Helvetica,sans-Serif" font-size="10.00">#</text>
<text text-anchor="start" x="144" y="-885.5" font-family="Helvetica,sans-Serif" font-size="10.00">stringifyValue()</text>
<polygon fill="#666666" stroke="#666666" points="127,-1135.5 127,-1135.5 241,-1135.5 241,-1135.5 127,-1135.5"/>
<polygon fill="#666666" stroke="#666666" points="127,-1120.5 127,-1120.5 241,-1120.5 241,-1120.5 127,-1120.5"/>
<polygon fill="none" stroke="#666666" points="127,-879 127,-1164 241,-1164 241,-879 127,-879"/>
</a>
</g>
</g>
<!-- Node5&#45;&gt;Node3 -->
<g id="edge4_Node000003_Node000005" class="edge">
<title>Node5&#45;&gt;Node3</title>
<g id="a_edge4_Node000003_Node000005"><a xlink:title=" ">
<path fill="none" stroke="#63b8ff" d="M148.12,-878.72C145.25,-867.37 142.3,-855.73 139.32,-843.97"/>
<polygon fill="none" stroke="#63b8ff" points="139.28,-843.8 133.93,-838.97 136.34,-832.17 141.69,-837 139.28,-843.8"/>
</a>
</g>
<text text-anchor="middle" x="186.5" y="-853" font-family="Helvetica,sans-Serif" font-size="10.00" fill="grey"> #$blockEntityTag</text>
</g>
<!-- Node6 -->
<g id="Node000006" class="node">
<title>Node6</title>
<g id="a_Node000006"><a xlink:href="../../dc/d26/classpocketmine_1_1nbt_1_1tag_1_1_tag.html" target="_top" xlink:title=" ">
<polygon fill="white" stroke="transparent" points="135.5,-1400 10.5,-1400 10.5,-1201 135.5,-1201 135.5,-1400"/>
<text text-anchor="start" x="16" y="-1387.5" font-family="Helvetica,sans-Serif" font-size="10.00">pocketmine\nbt\tag\Tag</text>
<text text-anchor="start" x="19" y="-1372.5" font-family="Helvetica,sans-Serif" font-size="10.00">#</text>
<text text-anchor="start" x="36" y="-1372.5" font-family="Helvetica,sans-Serif" font-size="10.00">$cloning</text>
<text text-anchor="start" x="19" y="-1357.5" font-family="Helvetica,sans-Serif" font-size="10.00">+</text>
<text text-anchor="start" x="36" y="-1357.5" font-family="Helvetica,sans-Serif" font-size="10.00">__toString()</text>
<text text-anchor="start" x="19" y="-1342.5" font-family="Helvetica,sans-Serif" font-size="10.00">+</text>
<text text-anchor="start" x="36" y="-1342.5" font-family="Helvetica,sans-Serif" font-size="10.00">equals()</text>
<text text-anchor="start" x="19" y="-1327.5" font-family="Helvetica,sans-Serif" font-size="10.00">+</text>
<text text-anchor="start" x="36" y="-1327.5" font-family="Helvetica,sans-Serif" font-size="10.00">getType()</text>
<text text-anchor="start" x="19" y="-1312.5" font-family="Helvetica,sans-Serif" font-size="10.00">+</text>
<text text-anchor="start" x="36" y="-1312.5" font-family="Helvetica,sans-Serif" font-size="10.00">getValue()</text>
<text text-anchor="start" x="19" y="-1297.5" font-family="Helvetica,sans-Serif" font-size="10.00">+</text>
<text text-anchor="start" x="36" y="-1297.5" font-family="Helvetica,sans-Serif" font-size="10.00">safeClone()</text>
<text text-anchor="start" x="19" y="-1282.5" font-family="Helvetica,sans-Serif" font-size="10.00">+</text>
<text text-anchor="start" x="36" y="-1282.5" font-family="Helvetica,sans-Serif" font-size="10.00">toString()</text>
<text text-anchor="start" x="19" y="-1267.5" font-family="Helvetica,sans-Serif" font-size="10.00">+</text>
<text text-anchor="start" x="36" y="-1267.5" font-family="Helvetica,sans-Serif" font-size="10.00">write()</text>
<text text-anchor="start" x="19" y="-1252.5" font-family="Helvetica,sans-Serif" font-size="10.00">#</text>
<text text-anchor="start" x="36" y="-1252.5" font-family="Helvetica,sans-Serif" font-size="10.00">getTypeName()</text>
<text text-anchor="start" x="19" y="-1237.5" font-family="Helvetica,sans-Serif" font-size="10.00">#</text>
<text text-anchor="start" x="36" y="-1237.5" font-family="Helvetica,sans-Serif" font-size="10.00">makeCopy()</text>
<text text-anchor="start" x="19" y="-1222.5" font-family="Helvetica,sans-Serif" font-size="10.00">#</text>
<text text-anchor="start" x="36" y="-1222.5" font-family="Helvetica,sans-Serif" font-size="10.00">stringifyValue()</text>
<text text-anchor="start" x="19" y="-1207.5" font-family="Helvetica,sans-Serif" font-size="10.00">#</text>
<text text-anchor="start" x="36" y="-1207.5" font-family="Helvetica,sans-Serif" font-size="10.00">restrictArgCount()</text>
<polygon fill="#bfbfbf" stroke="#bfbfbf" points="11,-1382.5 11,-1382.5 136,-1382.5 136,-1382.5 11,-1382.5"/>
<polygon fill="#bfbfbf" stroke="#bfbfbf" points="11,-1367.5 11,-1367.5 34,-1367.5 34,-1367.5 11,-1367.5"/>
<polygon fill="#bfbfbf" stroke="#bfbfbf" points="34,-1367.5 34,-1367.5 136,-1367.5 136,-1367.5 34,-1367.5"/>
<polygon fill="none" stroke="#bfbfbf" points="10.5,-1201 10.5,-1400 135.5,-1400 135.5,-1201 10.5,-1201"/>
</a>
</g>
</g>
<!-- Node6&#45;&gt;Node5 -->
<g id="edge5_Node000005_Node000006" class="edge">
<title>Node6&#45;&gt;Node5</title>
<g id="a_edge5_Node000005_Node000006"><a xlink:title=" ">
<path fill="none" stroke="#63b8ff" d="M116.41,-1191.18C119.94,-1182.36 123.54,-1173.38 127.15,-1164.37"/>
<polygon fill="none" stroke="#63b8ff" points="113.07,-1190.09 112.6,-1200.67 119.57,-1192.69 113.07,-1190.09"/>
</a>
</g>
</g>
<!-- Node7 -->
<g id="Node000007" class="node">
<title>Node7</title>
<g id="a_Node000007"><a xlink:title=" ">
<polygon fill="white" stroke="transparent" points="214,-1325 154,-1325 154,-1276 214,-1276 214,-1325"/>
<text text-anchor="start" x="159" y="-1312.5" font-family="Helvetica,sans-Serif" font-size="10.00">Countable</text>
<text text-anchor="start" x="182" y="-1297.5" font-family="Helvetica,sans-Serif" font-size="10.00"> </text>
<text text-anchor="start" x="182" y="-1282.5" font-family="Helvetica,sans-Serif" font-size="10.00"> </text>
<polygon fill="#bfbfbf" stroke="#bfbfbf" points="154,-1307.5 154,-1307.5 214,-1307.5 214,-1307.5 154,-1307.5"/>
<polygon fill="#bfbfbf" stroke="#bfbfbf" points="154,-1292.5 154,-1292.5 214,-1292.5 214,-1292.5 154,-1292.5"/>
<polygon fill="none" stroke="#bfbfbf" points="154,-1276 154,-1325 214,-1325 214,-1276 154,-1276"/>
</a>
</g>
</g>
<!-- Node7&#45;&gt;Node5 -->
<g id="edge6_Node000005_Node000007" class="edge">
<title>Node7&#45;&gt;Node5</title>
<g id="a_edge6_Node000005_Node000007"><a xlink:title=" ">
<path fill="none" stroke="#63b8ff" d="M184,-1265.88C184,-1239.99 184,-1202.3 184,-1164.28"/>
<polygon fill="none" stroke="#63b8ff" points="180.5,-1265.88 184,-1275.88 187.5,-1265.88 180.5,-1265.88"/>
</a>
</g>
</g>
<!-- Node8 -->
<g id="Node000008" class="node">
<title>Node8</title>
<g id="a_Node000008"><a xlink:title=" ">
<polygon fill="white" stroke="transparent" points="329.5,-1325 232.5,-1325 232.5,-1276 329.5,-1276 329.5,-1325"/>
<text text-anchor="start" x="238" y="-1312.5" font-family="Helvetica,sans-Serif" font-size="10.00">IteratorAggregate</text>
<text text-anchor="start" x="279.5" y="-1297.5" font-family="Helvetica,sans-Serif" font-size="10.00"> </text>
<text text-anchor="start" x="279.5" y="-1282.5" font-family="Helvetica,sans-Serif" font-size="10.00"> </text>
<polygon fill="#bfbfbf" stroke="#bfbfbf" points="233,-1307.5 233,-1307.5 330,-1307.5 330,-1307.5 233,-1307.5"/>
<polygon fill="#bfbfbf" stroke="#bfbfbf" points="233,-1292.5 233,-1292.5 330,-1292.5 330,-1292.5 233,-1292.5"/>
<polygon fill="none" stroke="#bfbfbf" points="232.5,-1276 232.5,-1325 329.5,-1325 329.5,-1276 232.5,-1276"/>
</a>
</g>
</g>
<!-- Node8&#45;&gt;Node5 -->
<g id="edge7_Node000005_Node000008" class="edge">
<title>Node8&#45;&gt;Node5</title>
<g id="a_edge7_Node000005_Node000008"><a xlink:title=" ">
<path fill="none" stroke="#63b8ff" d="M269.35,-1266.23C260.28,-1240.33 247.02,-1202.47 233.65,-1164.28"/>
<polygon fill="none" stroke="#63b8ff" points="266.12,-1267.6 272.73,-1275.88 272.73,-1265.29 266.12,-1267.6"/>
</a>
</g>
</g>
</g>
</svg>
