<?xml version="1.0" encoding="UTF-8" standalone="no"?>
<!DOCTYPE svg PUBLIC "-//W3C//DTD SVG 1.1//EN"
 "http://www.w3.org/Graphics/SVG/1.1/DTD/svg11.dtd">
<!-- Generated by graphviz version 2.43.0 (0)
 -->
<!-- Title: pocketmine\network\mcpe\protocol\serializer\PacketSerializer\getActorUniqueId Pages: 1 -->
<svg width="420pt" height="167pt"
 viewBox="0.00 0.00 420.00 167.00" xmlns="http://www.w3.org/2000/svg" xmlns:xlink="http://www.w3.org/1999/xlink">
<g id="graph0" class="graph" transform="scale(1 1) rotate(0) translate(4 163)">
<title>pocketmine\network\mcpe\protocol\serializer\PacketSerializer\getActorUniqueId</title>
<!-- Node1 -->
<g id="Node000001" class="node">
<title>Node1</title>
<g id="a_Node000001"><a xlink:title=" ">
<polygon fill="#999999" stroke="#666666" points="412,-100 227,-100 227,-59 412,-59 412,-100"/>
<text text-anchor="start" x="235" y="-88" font-family="Helvetica,sans-Serif" font-size="10.00">pocketmine\network</text>
<text text-anchor="start" x="235" y="-77" font-family="Helvetica,sans-Serif" font-size="10.00">\mcpe\protocol\serializer</text>
<text text-anchor="middle" x="319.5" y="-66" font-family="Helvetica,sans-Serif" font-size="10.00">\PacketSerializer\getActorUniqueId</text>
</a>
</g>
</g>
<!-- Node2 -->
<g id="Node000002" class="node">
<title>Node2</title>
<g id="a_Node000002"><a xlink:href="../../da/d87/classpocketmine_1_1network_1_1mcpe_1_1protocol_1_1_boss_event_packet.html#a915e8dcc7b734e14ecae04df68ee1c49" target="_top" xlink:title=" ">
<polygon fill="white" stroke="#666666" points="183,-159 8,-159 8,-118 183,-118 183,-159"/>
<text text-anchor="start" x="16" y="-147" font-family="Helvetica,sans-Serif" font-size="10.00">pocketmine\network</text>
<text text-anchor="start" x="16" y="-136" font-family="Helvetica,sans-Serif" font-size="10.00">\mcpe\protocol\BossEventPacket</text>
<text text-anchor="middle" x="95.5" y="-125" font-family="Helvetica,sans-Serif" font-size="10.00">\decodePayload</text>
</a>
</g>
</g>
<!-- Node1&#45;&gt;Node2 -->
<g id="edge1_Node000001_Node000002" class="edge">
<title>Node1&#45;&gt;Node2</title>
<g id="a_edge1_Node000001_Node000002"><a xlink:title=" ">
<path fill="none" stroke="#63b8ff" d="M231.36,-102.66C212.4,-107.7 192.48,-112.99 173.93,-117.92"/>
<polygon fill="#63b8ff" stroke="#63b8ff" points="232.4,-106 241.17,-100.05 230.6,-99.24 232.4,-106"/>
</a>
</g>
</g>
<!-- Node3 -->
<g id="Node000003" class="node">
<title>Node3</title>
<g id="a_Node000003"><a xlink:href="../../d6/d0a/classpocketmine_1_1network_1_1mcpe_1_1protocol_1_1_clientbound_map_item_data_packet.html#a6236d1194877ab01292b60a017d94ff4" target="_top" xlink:title=" ">
<polygon fill="white" stroke="#666666" points="191,-100 0,-100 0,-59 191,-59 191,-100"/>
<text text-anchor="start" x="8" y="-88" font-family="Helvetica,sans-Serif" font-size="10.00">pocketmine\network</text>
<text text-anchor="start" x="8" y="-77" font-family="Helvetica,sans-Serif" font-size="10.00">\mcpe\protocol\Clientbound</text>
<text text-anchor="middle" x="95.5" y="-66" font-family="Helvetica,sans-Serif" font-size="10.00">MapItemDataPacket\decodePayload</text>
</a>
</g>
</g>
<!-- Node1&#45;&gt;Node3 -->
<g id="edge2_Node000001_Node000003" class="edge">
<title>Node1&#45;&gt;Node3</title>
<g id="a_edge2_Node000001_Node000003"><a xlink:title=" ">
<path fill="none" stroke="#63b8ff" d="M216.89,-79.5C208.3,-79.5 199.63,-79.5 191.1,-79.5"/>
<polygon fill="#63b8ff" stroke="#63b8ff" points="216.92,-83 226.92,-79.5 216.92,-76 216.92,-83"/>
</a>
</g>
</g>
<!-- Node4 -->
<g id="Node000004" class="node">
<title>Node4</title>
<g id="a_Node000004"><a xlink:href="../../d2/dc3/classpocketmine_1_1network_1_1mcpe_1_1protocol_1_1_player_list_packet.html#a10143c280d4a33eadc501a116e4da874" target="_top" xlink:title=" ">
<polygon fill="white" stroke="#666666" points="181.5,-41 9.5,-41 9.5,0 181.5,0 181.5,-41"/>
<text text-anchor="start" x="17.5" y="-29" font-family="Helvetica,sans-Serif" font-size="10.00">pocketmine\network</text>
<text text-anchor="start" x="17.5" y="-18" font-family="Helvetica,sans-Serif" font-size="10.00">\mcpe\protocol\PlayerListPacket</text>
<text text-anchor="middle" x="95.5" y="-7" font-family="Helvetica,sans-Serif" font-size="10.00">\decodePayload</text>
</a>
</g>
</g>
<!-- Node1&#45;&gt;Node4 -->
<g id="edge3_Node000001_Node000004" class="edge">
<title>Node1&#45;&gt;Node4</title>
<g id="a_edge3_Node000001_Node000004"><a xlink:title=" ">
<path fill="none" stroke="#63b8ff" d="M231.36,-56.34C212.4,-51.3 192.48,-46.01 173.93,-41.08"/>
<polygon fill="#63b8ff" stroke="#63b8ff" points="230.6,-59.76 241.17,-58.95 232.4,-53 230.6,-59.76"/>
</a>
</g>
</g>
</g>
</svg>
