<?xml version="1.0" encoding="UTF-8" standalone="no"?>
<!DOCTYPE svg PUBLIC "-//W3C//DTD SVG 1.1//EN"
 "http://www.w3.org/Graphics/SVG/1.1/DTD/svg11.dtd">
<!-- Generated by graphviz version 2.43.0 (0)
 -->
<!-- Title: pocketmine\block\inventory\BrewingStandInventory Pages: 1 -->
<svg width="322pt" height="777pt"
 viewBox="0.00 0.00 321.50 777.00" xmlns="http://www.w3.org/2000/svg" xmlns:xlink="http://www.w3.org/1999/xlink">
<g id="graph0" class="graph" transform="scale(1 1) rotate(0) translate(4 773)">
<title>pocketmine\block\inventory\BrewingStandInventory</title>
<polygon fill="white" stroke="transparent" points="-4,4 -4,-773 317.5,-773 317.5,4 -4,4"/>
<!-- Node1 -->
<g id="node1" class="node">
<title>Node1</title>
<g id="a_node1"><a xlink:title=" ">
<polygon fill="#bfbfbf" stroke="black" points="81.5,-0.5 81.5,-112.5 233.5,-112.5 233.5,-0.5 81.5,-0.5"/>
<text text-anchor="start" x="89.5" y="-100.5" font-family="Helvetica,sans-Serif" font-size="10.00">pocketmine\block\inventory</text>
<text text-anchor="middle" x="157.5" y="-89.5" font-family="Helvetica,sans-Serif" font-size="10.00">\BrewingStandInventory</text>
<polyline fill="none" stroke="black" points="81.5,-82.5 233.5,-82.5 "/>
<text text-anchor="start" x="89.5" y="-70.5" font-family="Helvetica,sans-Serif" font-size="10.00">+ SLOT_BOTTLE_LEFT</text>
<text text-anchor="start" x="89.5" y="-59.5" font-family="Helvetica,sans-Serif" font-size="10.00">+ SLOT_BOTTLE_MIDDLE</text>
<text text-anchor="start" x="89.5" y="-48.5" font-family="Helvetica,sans-Serif" font-size="10.00">+ SLOT_BOTTLE_RIGHT</text>
<text text-anchor="start" x="89.5" y="-37.5" font-family="Helvetica,sans-Serif" font-size="10.00">+ SLOT_FUEL</text>
<text text-anchor="start" x="89.5" y="-26.5" font-family="Helvetica,sans-Serif" font-size="10.00">+ SLOT_INGREDIENT</text>
<polyline fill="none" stroke="black" points="81.5,-19.5 233.5,-19.5 "/>
<text text-anchor="start" x="89.5" y="-7.5" font-family="Helvetica,sans-Serif" font-size="10.00">+ __construct()</text>
</a>
</g>
</g>
<!-- Node2 -->
<g id="node2" class="node">
<title>Node2</title>
<g id="a_node2"><a xlink:href="../../d6/dc1/classpocketmine_1_1inventory_1_1_simple_inventory.html" target="_top" xlink:title=" ">
<polygon fill="white" stroke="black" points="11.5,-149.5 11.5,-272.5 143.5,-272.5 143.5,-149.5 11.5,-149.5"/>
<text text-anchor="start" x="19.5" y="-260.5" font-family="Helvetica,sans-Serif" font-size="10.00">pocketmine\inventory</text>
<text text-anchor="middle" x="77.5" y="-249.5" font-family="Helvetica,sans-Serif" font-size="10.00">\SimpleInventory</text>
<polyline fill="none" stroke="black" points="11.5,-242.5 143.5,-242.5 "/>
<text text-anchor="start" x="19.5" y="-230.5" font-family="Helvetica,sans-Serif" font-size="10.00"># $slots</text>
<polyline fill="none" stroke="black" points="11.5,-223.5 143.5,-223.5 "/>
<text text-anchor="start" x="19.5" y="-211.5" font-family="Helvetica,sans-Serif" font-size="10.00">+ __construct()</text>
<text text-anchor="start" x="19.5" y="-200.5" font-family="Helvetica,sans-Serif" font-size="10.00">+ getContents()</text>
<text text-anchor="start" x="19.5" y="-189.5" font-family="Helvetica,sans-Serif" font-size="10.00">+ getItem()</text>
<text text-anchor="start" x="19.5" y="-178.5" font-family="Helvetica,sans-Serif" font-size="10.00">+ getSize()</text>
<text text-anchor="start" x="19.5" y="-167.5" font-family="Helvetica,sans-Serif" font-size="10.00"># internalSetContents()</text>
<text text-anchor="start" x="19.5" y="-156.5" font-family="Helvetica,sans-Serif" font-size="10.00"># internalSetItem()</text>
</a>
</g>
</g>
<!-- Node2&#45;&gt;Node1 -->
<g id="edge1" class="edge">
<title>Node2&#45;&gt;Node1</title>
<path fill="none" stroke="midnightblue" d="M114.01,-140.4C118.91,-131.07 123.87,-121.6 128.61,-112.56"/>
<polygon fill="none" stroke="midnightblue" points="110.89,-138.81 109.35,-149.29 117.09,-142.06 110.89,-138.81"/>
</g>
<!-- Node3 -->
<g id="node3" class="node">
<title>Node3</title>
<g id="a_node3"><a xlink:href="../../d5/dc4/classpocketmine_1_1inventory_1_1_base_inventory.html" target="_top" xlink:title=" ">
<polygon fill="white" stroke="black" points="0,-309.5 0,-553.5 155,-553.5 155,-309.5 0,-309.5"/>
<text text-anchor="start" x="8" y="-541.5" font-family="Helvetica,sans-Serif" font-size="10.00">pocketmine\inventory</text>
<text text-anchor="middle" x="77.5" y="-530.5" font-family="Helvetica,sans-Serif" font-size="10.00">\BaseInventory</text>
<polyline fill="none" stroke="black" points="0,-523.5 155,-523.5 "/>
<text text-anchor="start" x="8" y="-511.5" font-family="Helvetica,sans-Serif" font-size="10.00"># $listeners</text>
<text text-anchor="start" x="8" y="-500.5" font-family="Helvetica,sans-Serif" font-size="10.00"># $maxStackSize</text>
<text text-anchor="start" x="8" y="-489.5" font-family="Helvetica,sans-Serif" font-size="10.00"># $viewers</text>
<polyline fill="none" stroke="black" points="0,-482.5 155,-482.5 "/>
<text text-anchor="start" x="8" y="-470.5" font-family="Helvetica,sans-Serif" font-size="10.00">+ __construct()</text>
<text text-anchor="start" x="8" y="-459.5" font-family="Helvetica,sans-Serif" font-size="10.00">+ addItem()</text>
<text text-anchor="start" x="8" y="-448.5" font-family="Helvetica,sans-Serif" font-size="10.00">+ all()</text>
<text text-anchor="start" x="8" y="-437.5" font-family="Helvetica,sans-Serif" font-size="10.00">+ canAddItem()</text>
<text text-anchor="start" x="8" y="-426.5" font-family="Helvetica,sans-Serif" font-size="10.00">+ clear()</text>
<text text-anchor="start" x="8" y="-415.5" font-family="Helvetica,sans-Serif" font-size="10.00">+ clearAll()</text>
<text text-anchor="start" x="8" y="-404.5" font-family="Helvetica,sans-Serif" font-size="10.00">+ contains()</text>
<text text-anchor="start" x="8" y="-393.5" font-family="Helvetica,sans-Serif" font-size="10.00">+ first()</text>
<text text-anchor="start" x="8" y="-382.5" font-family="Helvetica,sans-Serif" font-size="10.00">+ firstEmpty()</text>
<text text-anchor="start" x="8" y="-371.5" font-family="Helvetica,sans-Serif" font-size="10.00">+ getAddableItemQuantity()</text>
<text text-anchor="start" x="8" y="-360.5" font-family="Helvetica,sans-Serif" font-size="10.00">and 14 more...</text>
<text text-anchor="start" x="8" y="-349.5" font-family="Helvetica,sans-Serif" font-size="10.00"># internalSetContents()</text>
<text text-anchor="start" x="8" y="-338.5" font-family="Helvetica,sans-Serif" font-size="10.00"># internalSetItem()</text>
<text text-anchor="start" x="8" y="-327.5" font-family="Helvetica,sans-Serif" font-size="10.00"># onContentChange()</text>
<text text-anchor="start" x="8" y="-316.5" font-family="Helvetica,sans-Serif" font-size="10.00"># onSlotChange()</text>
</a>
</g>
</g>
<!-- Node3&#45;&gt;Node2 -->
<g id="edge2" class="edge">
<title>Node3&#45;&gt;Node2</title>
<path fill="none" stroke="midnightblue" d="M77.5,-299.37C77.5,-290.16 77.5,-281.17 77.5,-272.67"/>
<polygon fill="none" stroke="midnightblue" points="74,-299.43 77.5,-309.43 81,-299.43 74,-299.43"/>
</g>
<!-- Node4 -->
<g id="node4" class="node">
<title>Node4</title>
<g id="a_node4"><a xlink:href="../../db/d39/interfacepocketmine_1_1inventory_1_1_inventory.html" target="_top" xlink:title=" ">
<polygon fill="white" stroke="#bfbfbf" points="0,-590.5 0,-768.5 155,-768.5 155,-590.5 0,-590.5"/>
<text text-anchor="start" x="8" y="-756.5" font-family="Helvetica,sans-Serif" font-size="10.00">pocketmine\inventory</text>
<text text-anchor="middle" x="77.5" y="-745.5" font-family="Helvetica,sans-Serif" font-size="10.00">\Inventory</text>
<polyline fill="none" stroke="#bfbfbf" points="0,-738.5 155,-738.5 "/>
<text text-anchor="start" x="8" y="-726.5" font-family="Helvetica,sans-Serif" font-size="10.00">+ MAX_STACK</text>
<polyline fill="none" stroke="#bfbfbf" points="0,-719.5 155,-719.5 "/>
<text text-anchor="start" x="8" y="-707.5" font-family="Helvetica,sans-Serif" font-size="10.00">+ addItem()</text>
<text text-anchor="start" x="8" y="-696.5" font-family="Helvetica,sans-Serif" font-size="10.00">+ all()</text>
<text text-anchor="start" x="8" y="-685.5" font-family="Helvetica,sans-Serif" font-size="10.00">+ canAddItem()</text>
<text text-anchor="start" x="8" y="-674.5" font-family="Helvetica,sans-Serif" font-size="10.00">+ clear()</text>
<text text-anchor="start" x="8" y="-663.5" font-family="Helvetica,sans-Serif" font-size="10.00">+ clearAll()</text>
<text text-anchor="start" x="8" y="-652.5" font-family="Helvetica,sans-Serif" font-size="10.00">+ contains()</text>
<text text-anchor="start" x="8" y="-641.5" font-family="Helvetica,sans-Serif" font-size="10.00">+ first()</text>
<text text-anchor="start" x="8" y="-630.5" font-family="Helvetica,sans-Serif" font-size="10.00">+ firstEmpty()</text>
<text text-anchor="start" x="8" y="-619.5" font-family="Helvetica,sans-Serif" font-size="10.00">+ getAddableItemQuantity()</text>
<text text-anchor="start" x="8" y="-608.5" font-family="Helvetica,sans-Serif" font-size="10.00">+ getContents()</text>
<text text-anchor="start" x="8" y="-597.5" font-family="Helvetica,sans-Serif" font-size="10.00">and 15 more...</text>
</a>
</g>
</g>
<!-- Node4&#45;&gt;Node3 -->
<g id="edge3" class="edge">
<title>Node4&#45;&gt;Node3</title>
<path fill="none" stroke="midnightblue" d="M77.5,-580.28C77.5,-571.59 77.5,-562.74 77.5,-553.89"/>
<polygon fill="none" stroke="midnightblue" points="74,-580.38 77.5,-590.38 81,-580.38 74,-580.38"/>
</g>
<!-- Node5 -->
<g id="node5" class="node">
<title>Node5</title>
<g id="a_node5"><a xlink:href="../../d4/d3a/interfacepocketmine_1_1block_1_1inventory_1_1_block_inventory.html" target="_top" xlink:title=" ">
<polygon fill="white" stroke="#bfbfbf" points="161.5,-177 161.5,-245 313.5,-245 313.5,-177 161.5,-177"/>
<text text-anchor="start" x="169.5" y="-233" font-family="Helvetica,sans-Serif" font-size="10.00">pocketmine\block\inventory</text>
<text text-anchor="middle" x="237.5" y="-222" font-family="Helvetica,sans-Serif" font-size="10.00">\BlockInventory</text>
<polyline fill="none" stroke="#bfbfbf" points="161.5,-215 313.5,-215 "/>
<text text-anchor="middle" x="237.5" y="-203" font-family="Helvetica,sans-Serif" font-size="10.00"> </text>
<polyline fill="none" stroke="#bfbfbf" points="161.5,-196 313.5,-196 "/>
<text text-anchor="start" x="169.5" y="-184" font-family="Helvetica,sans-Serif" font-size="10.00">+ getHolder()</text>
</a>
</g>
</g>
<!-- Node5&#45;&gt;Node1 -->
<g id="edge4" class="edge">
<title>Node5&#45;&gt;Node1</title>
<path fill="none" stroke="midnightblue" d="M215.35,-167.77C206.41,-150.74 195.99,-130.87 186.46,-112.71"/>
<polygon fill="none" stroke="midnightblue" points="212.4,-169.68 220.14,-176.91 218.6,-166.43 212.4,-169.68"/>
</g>
</g>
</svg>
