<?xml version="1.0" encoding="UTF-8" standalone="no"?>
<!DOCTYPE svg PUBLIC "-//W3C//DTD SVG 1.1//EN"
 "http://www.w3.org/Graphics/SVG/1.1/DTD/svg11.dtd">
<!-- Generated by graphviz version 2.43.0 (0)
 -->
<!-- Title: pocketmine\utils\MainLoggerThread Pages: 1 -->
<svg width="160pt" height="298pt"
 viewBox="0.00 0.00 160.00 298.00" xmlns="http://www.w3.org/2000/svg" xmlns:xlink="http://www.w3.org/1999/xlink">
<g id="graph0" class="graph" transform="scale(1 1) rotate(0) translate(4 294)">
<title>pocketmine\utils\MainLoggerThread</title>
<!-- Node1 -->
<g id="Node000001" class="node">
<title>Node1</title>
<g id="a_Node000001"><a xlink:title=" ">
<polygon fill="#999999" stroke="transparent" points="152,-120 0,-120 0,0 152,0 152,-120"/>
<text text-anchor="start" x="5" y="-108" font-family="Helvetica,sans-Serif" font-size="10.00">pocketmine\utils\MainLogger</text>
<text text-anchor="start" x="59" y="-97" font-family="Helvetica,sans-Serif" font-size="10.00">Thread</text>
<text text-anchor="start" x="74" y="-82" font-family="Helvetica,sans-Serif" font-size="10.00"> </text>
<text text-anchor="start" x="15" y="-67" font-family="Helvetica,sans-Serif" font-size="10.00">+</text>
<text text-anchor="start" x="39" y="-67" font-family="Helvetica,sans-Serif" font-size="10.00">__construct()</text>
<text text-anchor="start" x="15" y="-52" font-family="Helvetica,sans-Serif" font-size="10.00">+</text>
<text text-anchor="start" x="39" y="-52" font-family="Helvetica,sans-Serif" font-size="10.00">run()</text>
<text text-anchor="start" x="15" y="-37" font-family="Helvetica,sans-Serif" font-size="10.00">+</text>
<text text-anchor="start" x="39" y="-37" font-family="Helvetica,sans-Serif" font-size="10.00">shutdown()</text>
<text text-anchor="start" x="15" y="-22" font-family="Helvetica,sans-Serif" font-size="10.00">+</text>
<text text-anchor="start" x="39" y="-22" font-family="Helvetica,sans-Serif" font-size="10.00">syncFlushBuffer()</text>
<text text-anchor="start" x="15" y="-7" font-family="Helvetica,sans-Serif" font-size="10.00">+</text>
<text text-anchor="start" x="39" y="-7" font-family="Helvetica,sans-Serif" font-size="10.00">write()</text>
<polygon fill="#666666" stroke="#666666" points="0,-92 0,-92 152,-92 152,-92 0,-92"/>
<polygon fill="#666666" stroke="#666666" points="0,-77 0,-77 152,-77 152,-77 0,-77"/>
<polygon fill="none" stroke="#666666" points="0,0 0,-120 152,-120 152,0 0,0"/>
</a>
</g>
</g>
<!-- Node2 -->
<g id="Node000002" class="node">
<title>Node2</title>
<g id="a_Node000002"><a xlink:href="../../d0/d6e/classpocketmine_1_1thread_1_1_thread.html" target="_top" xlink:title=" ">
<polygon fill="white" stroke="transparent" points="145.5,-205 6.5,-205 6.5,-156 145.5,-156 145.5,-205"/>
<text text-anchor="start" x="12" y="-192.5" font-family="Helvetica,sans-Serif" font-size="10.00">pocketmine\thread\Thread</text>
<text text-anchor="start" x="74.5" y="-177.5" font-family="Helvetica,sans-Serif" font-size="10.00"> </text>
<text text-anchor="start" x="74.5" y="-162.5" font-family="Helvetica,sans-Serif" font-size="10.00"> </text>
<polygon fill="#666666" stroke="#666666" points="7,-187.5 7,-187.5 146,-187.5 146,-187.5 7,-187.5"/>
<polygon fill="#666666" stroke="#666666" points="7,-172.5 7,-172.5 146,-172.5 146,-172.5 7,-172.5"/>
<polygon fill="none" stroke="#666666" points="6.5,-156 6.5,-205 145.5,-205 145.5,-156 6.5,-156"/>
</a>
</g>
</g>
<!-- Node2&#45;&gt;Node1 -->
<g id="edge1_Node000001_Node000002" class="edge">
<title>Node2&#45;&gt;Node1</title>
<g id="a_edge1_Node000001_Node000002"><a xlink:title=" ">
<path fill="none" stroke="#63b8ff" d="M76,-145.59C76,-137.71 76,-129.09 76,-120.47"/>
<polygon fill="none" stroke="#63b8ff" points="72.5,-145.8 76,-155.8 79.5,-145.8 72.5,-145.8"/>
</a>
</g>
</g>
<!-- Node3 -->
<g id="Node000003" class="node">
<title>Node3</title>
<g id="a_Node000003"><a xlink:title=" ">
<polygon fill="white" stroke="transparent" points="114.5,-290 37.5,-290 37.5,-241 114.5,-241 114.5,-290"/>
<text text-anchor="start" x="43" y="-277.5" font-family="Helvetica,sans-Serif" font-size="10.00">NativeThread</text>
<text text-anchor="start" x="74.5" y="-262.5" font-family="Helvetica,sans-Serif" font-size="10.00"> </text>
<text text-anchor="start" x="74.5" y="-247.5" font-family="Helvetica,sans-Serif" font-size="10.00"> </text>
<polygon fill="#bfbfbf" stroke="#bfbfbf" points="38,-272.5 38,-272.5 115,-272.5 115,-272.5 38,-272.5"/>
<polygon fill="#bfbfbf" stroke="#bfbfbf" points="38,-257.5 38,-257.5 115,-257.5 115,-257.5 38,-257.5"/>
<polygon fill="none" stroke="#bfbfbf" points="37.5,-241 37.5,-290 114.5,-290 114.5,-241 37.5,-241"/>
</a>
</g>
</g>
<!-- Node3&#45;&gt;Node2 -->
<g id="edge2_Node000002_Node000003" class="edge">
<title>Node3&#45;&gt;Node2</title>
<g id="a_edge2_Node000002_Node000003"><a xlink:title=" ">
<path fill="none" stroke="#63b8ff" d="M76,-230.77C76,-222.17 76,-213.1 76,-205.12"/>
<polygon fill="none" stroke="#63b8ff" points="72.5,-230.94 76,-240.94 79.5,-230.94 72.5,-230.94"/>
</a>
</g>
</g>
</g>
</svg>
