<?xml version="1.0" encoding="UTF-8" standalone="no"?>
<!DOCTYPE svg PUBLIC "-//W3C//DTD SVG 1.1//EN"
 "http://www.w3.org/Graphics/SVG/1.1/DTD/svg11.dtd">
<!-- Generated by graphviz version 2.43.0 (0)
 -->
<!-- Title: pocketmine\event\entity\EntityRegainHealthEvent Pages: 1 -->
<svg width="439pt" height="376pt"
 viewBox="0.00 0.00 439.00 376.00" xmlns="http://www.w3.org/2000/svg" xmlns:xlink="http://www.w3.org/1999/xlink">
<g id="graph0" class="graph" transform="scale(1 1) rotate(0) translate(4 372)">
<title>pocketmine\event\entity\EntityRegainHealthEvent</title>
<polygon fill="white" stroke="transparent" points="-4,4 -4,-372 435,-372 435,4 -4,4"/>
<!-- Node1 -->
<g id="node1" class="node">
<title>Node1</title>
<g id="a_node1"><a xlink:title=" ">
<polygon fill="#bfbfbf" stroke="black" points="165,-0.5 165,-101.5 307,-101.5 307,-0.5 165,-0.5"/>
<text text-anchor="start" x="173" y="-89.5" font-family="Helvetica,sans-Serif" font-size="10.00">pocketmine\event\entity</text>
<text text-anchor="middle" x="236" y="-78.5" font-family="Helvetica,sans-Serif" font-size="10.00">\EntityRegainHealthEvent</text>
<polyline fill="none" stroke="black" points="165,-71.5 307,-71.5 "/>
<text text-anchor="middle" x="236" y="-59.5" font-family="Helvetica,sans-Serif" font-size="10.00"> </text>
<polyline fill="none" stroke="black" points="165,-52.5 307,-52.5 "/>
<text text-anchor="start" x="173" y="-40.5" font-family="Helvetica,sans-Serif" font-size="10.00">+ __construct()</text>
<text text-anchor="start" x="173" y="-29.5" font-family="Helvetica,sans-Serif" font-size="10.00">+ getAmount()</text>
<text text-anchor="start" x="173" y="-18.5" font-family="Helvetica,sans-Serif" font-size="10.00">+ getRegainReason()</text>
<text text-anchor="start" x="173" y="-7.5" font-family="Helvetica,sans-Serif" font-size="10.00">+ setAmount()</text>
</a>
</g>
</g>
<!-- Node2 -->
<g id="node2" class="node">
<title>Node2</title>
<g id="a_node2"><a xlink:href="../../de/d84/classpocketmine_1_1event_1_1entity_1_1_entity_event.html" target="_top" xlink:title=" ">
<polygon fill="white" stroke="black" points="0,-193.5 0,-261.5 136,-261.5 136,-193.5 0,-193.5"/>
<text text-anchor="start" x="8" y="-249.5" font-family="Helvetica,sans-Serif" font-size="10.00">pocketmine\event\entity</text>
<text text-anchor="middle" x="68" y="-238.5" font-family="Helvetica,sans-Serif" font-size="10.00">\EntityEvent</text>
<polyline fill="none" stroke="black" points="0,-231.5 136,-231.5 "/>
<text text-anchor="start" x="8" y="-219.5" font-family="Helvetica,sans-Serif" font-size="10.00"># $entity</text>
<polyline fill="none" stroke="black" points="0,-212.5 136,-212.5 "/>
<text text-anchor="start" x="8" y="-200.5" font-family="Helvetica,sans-Serif" font-size="10.00">+ getEntity()</text>
</a>
</g>
</g>
<!-- Node2&#45;&gt;Node1 -->
<g id="edge1" class="edge">
<title>Node2&#45;&gt;Node1</title>
<path fill="none" stroke="midnightblue" d="M106.95,-186.04C131.18,-160.88 162.51,-128.34 188.23,-101.62"/>
<polygon fill="none" stroke="midnightblue" points="104.41,-183.64 99.99,-193.27 109.45,-188.49 104.41,-183.64"/>
</g>
<!-- Node3 -->
<g id="node3" class="node">
<title>Node3</title>
<g id="a_node3"><a xlink:href="../../d1/d2f/classpocketmine_1_1event_1_1_event.html" target="_top" xlink:title=" ">
<polygon fill="white" stroke="#bfbfbf" points="0.5,-299.5 0.5,-367.5 135.5,-367.5 135.5,-299.5 0.5,-299.5"/>
<text text-anchor="middle" x="68" y="-355.5" font-family="Helvetica,sans-Serif" font-size="10.00">pocketmine\event\Event</text>
<polyline fill="none" stroke="#bfbfbf" points="0.5,-348.5 135.5,-348.5 "/>
<text text-anchor="start" x="8.5" y="-336.5" font-family="Helvetica,sans-Serif" font-size="10.00"># $eventName</text>
<polyline fill="none" stroke="#bfbfbf" points="0.5,-329.5 135.5,-329.5 "/>
<text text-anchor="start" x="8.5" y="-317.5" font-family="Helvetica,sans-Serif" font-size="10.00">+ call()</text>
<text text-anchor="start" x="8.5" y="-306.5" font-family="Helvetica,sans-Serif" font-size="10.00">+ getEventName()</text>
</a>
</g>
</g>
<!-- Node3&#45;&gt;Node2 -->
<g id="edge2" class="edge">
<title>Node3&#45;&gt;Node2</title>
<path fill="none" stroke="midnightblue" d="M68,-289.17C68,-280 68,-270.46 68,-261.73"/>
<polygon fill="none" stroke="midnightblue" points="64.5,-289.31 68,-299.31 71.5,-289.31 64.5,-289.31"/>
</g>
<!-- Node4 -->
<g id="node4" class="node">
<title>Node4</title>
<g id="a_node4"><a xlink:href="../../db/d62/interfacepocketmine_1_1event_1_1_cancellable.html" target="_top" xlink:title=" ">
<polygon fill="white" stroke="black" points="154,-199 154,-256 318,-256 318,-199 154,-199"/>
<text text-anchor="middle" x="236" y="-244" font-family="Helvetica,sans-Serif" font-size="10.00">pocketmine\event\Cancellable</text>
<polyline fill="none" stroke="black" points="154,-237 318,-237 "/>
<text text-anchor="middle" x="236" y="-225" font-family="Helvetica,sans-Serif" font-size="10.00"> </text>
<polyline fill="none" stroke="black" points="154,-218 318,-218 "/>
<text text-anchor="start" x="162" y="-206" font-family="Helvetica,sans-Serif" font-size="10.00">+ isCancelled()</text>
</a>
</g>
</g>
<!-- Node4&#45;&gt;Node1 -->
<g id="edge3" class="edge">
<title>Node4&#45;&gt;Node1</title>
<path fill="none" stroke="midnightblue" d="M236,-188.83C236,-163.33 236,-129.37 236,-101.67"/>
<polygon fill="none" stroke="midnightblue" points="232.5,-188.85 236,-198.85 239.5,-188.85 232.5,-188.85"/>
</g>
<!-- Node5 -->
<g id="node5" class="node">
<title>Node5</title>
<g id="a_node5"><a xlink:title=" ">
<polygon fill="white" stroke="#bfbfbf" points="336.5,-199 336.5,-256 379.5,-256 379.5,-199 336.5,-199"/>
<text text-anchor="middle" x="358" y="-244" font-family="Helvetica,sans-Serif" font-size="10.00">const</text>
<polyline fill="none" stroke="#bfbfbf" points="336.5,-237 379.5,-237 "/>
<text text-anchor="middle" x="358" y="-225" font-family="Helvetica,sans-Serif" font-size="10.00"> </text>
<polyline fill="none" stroke="#bfbfbf" points="336.5,-218 379.5,-218 "/>
<text text-anchor="middle" x="358" y="-206" font-family="Helvetica,sans-Serif" font-size="10.00"> </text>
</a>
</g>
</g>
<!-- Node5&#45;&gt;Node1 -->
<g id="edge4" class="edge">
<title>Node5&#45;&gt;Node1</title>
<path fill="none" stroke="#404040" d="M338.67,-198.85C322.38,-175.55 298.5,-141.4 277.87,-111.89"/>
<polygon fill="none" stroke="#404040" points="277.6,-111.5 270.88,-108.88 270.73,-101.67 277.44,-104.29 277.6,-111.5"/>
<text text-anchor="middle" x="376" y="-167" font-family="Helvetica,sans-Serif" font-size="10.00"> +CAUSE_CUSTOM</text>
<text text-anchor="middle" x="376" y="-156" font-family="Helvetica,sans-Serif" font-size="10.00">+CAUSE_EATING</text>
<text text-anchor="middle" x="376" y="-145" font-family="Helvetica,sans-Serif" font-size="10.00">+CAUSE_MAGIC</text>
<text text-anchor="middle" x="376" y="-134" font-family="Helvetica,sans-Serif" font-size="10.00">+CAUSE_REGEN</text>
<text text-anchor="middle" x="376" y="-123" font-family="Helvetica,sans-Serif" font-size="10.00">+CAUSE_SATURATION</text>
</g>
</g>
</svg>
