<?xml version="1.0" encoding="UTF-8" standalone="no"?>
<!DOCTYPE svg PUBLIC "-//W3C//DTD SVG 1.1//EN"
 "http://www.w3.org/Graphics/SVG/1.1/DTD/svg11.dtd">
<!-- Generated by graphviz version 2.43.0 (0)
 -->
<!-- Title: pocketmine\network\mcpe\protocol\types\login\JwtChainLinkBody Pages: 1 -->
<svg width="142pt" height="270pt"
 viewBox="0.00 0.00 142.00 270.00" xmlns="http://www.w3.org/2000/svg" xmlns:xlink="http://www.w3.org/1999/xlink">
<g id="graph0" class="graph" transform="scale(1 1) rotate(0) translate(4 266)">
<title>pocketmine\network\mcpe\protocol\types\login\JwtChainLinkBody</title>
<polygon fill="white" stroke="transparent" points="-4,4 -4,-266 138,-266 138,4 -4,4"/>
<!-- Node1 -->
<g id="node1" class="node">
<title>Node1</title>
<g id="a_node1"><a xlink:title=" ">
<polygon fill="#bfbfbf" stroke="black" points="0,-0.5 0,-79.5 134,-79.5 134,-0.5 0,-0.5"/>
<text text-anchor="start" x="8" y="-67.5" font-family="Helvetica,sans-Serif" font-size="10.00">pocketmine\network</text>
<text text-anchor="start" x="8" y="-56.5" font-family="Helvetica,sans-Serif" font-size="10.00">\mcpe\protocol\types</text>
<text text-anchor="middle" x="67" y="-45.5" font-family="Helvetica,sans-Serif" font-size="10.00">\login\JwtChainLinkBody</text>
<polyline fill="none" stroke="black" points="0,-38.5 134,-38.5 "/>
<text text-anchor="start" x="8" y="-26.5" font-family="Helvetica,sans-Serif" font-size="10.00">+ $identityPublicKey</text>
<polyline fill="none" stroke="black" points="0,-19.5 134,-19.5 "/>
<text text-anchor="middle" x="67" y="-7.5" font-family="Helvetica,sans-Serif" font-size="10.00"> </text>
</a>
</g>
</g>
<!-- Node2 -->
<g id="node2" class="node">
<title>Node2</title>
<g id="a_node2"><a xlink:href="../../d8/df3/classpocketmine_1_1network_1_1mcpe_1_1protocol_1_1types_1_1login_1_1_jwt_body_rfc7519.html" target="_top" xlink:title=" ">
<polygon fill="white" stroke="black" points="4,-116.5 4,-261.5 130,-261.5 130,-116.5 4,-116.5"/>
<text text-anchor="start" x="12" y="-249.5" font-family="Helvetica,sans-Serif" font-size="10.00">pocketmine\network</text>
<text text-anchor="start" x="12" y="-238.5" font-family="Helvetica,sans-Serif" font-size="10.00">\mcpe\protocol\types</text>
<text text-anchor="middle" x="67" y="-227.5" font-family="Helvetica,sans-Serif" font-size="10.00">\login\JwtBodyRfc7519</text>
<polyline fill="none" stroke="black" points="4,-220.5 130,-220.5 "/>
<text text-anchor="start" x="12" y="-208.5" font-family="Helvetica,sans-Serif" font-size="10.00">+ $aud</text>
<text text-anchor="start" x="12" y="-197.5" font-family="Helvetica,sans-Serif" font-size="10.00">+ $exp</text>
<text text-anchor="start" x="12" y="-186.5" font-family="Helvetica,sans-Serif" font-size="10.00">+ $iat</text>
<text text-anchor="start" x="12" y="-175.5" font-family="Helvetica,sans-Serif" font-size="10.00">+ $iss</text>
<text text-anchor="start" x="12" y="-164.5" font-family="Helvetica,sans-Serif" font-size="10.00">+ $jti</text>
<text text-anchor="start" x="12" y="-153.5" font-family="Helvetica,sans-Serif" font-size="10.00">+ $nbf</text>
<text text-anchor="start" x="12" y="-142.5" font-family="Helvetica,sans-Serif" font-size="10.00">+ $sub</text>
<polyline fill="none" stroke="black" points="4,-135.5 130,-135.5 "/>
<text text-anchor="middle" x="67" y="-123.5" font-family="Helvetica,sans-Serif" font-size="10.00"> </text>
</a>
</g>
</g>
<!-- Node2&#45;&gt;Node1 -->
<g id="edge1" class="edge">
<title>Node2&#45;&gt;Node1</title>
<path fill="none" stroke="midnightblue" d="M67,-105.95C67,-96.9 67,-88.02 67,-79.87"/>
<polygon fill="none" stroke="midnightblue" points="63.5,-106.22 67,-116.22 70.5,-106.22 63.5,-106.22"/>
</g>
</g>
</svg>
