<?xml version="1.0" encoding="UTF-8" standalone="no"?>
<!DOCTYPE svg PUBLIC "-//W3C//DTD SVG 1.1//EN"
 "http://www.w3.org/Graphics/SVG/1.1/DTD/svg11.dtd">
<!-- Generated by graphviz version 2.43.0 (0)
 -->
<!-- Title: pocketmine\item\HangingSign Pages: 1 -->
<!--zoomable 1176 -->

<svg id="main" version="1.1" xmlns="http://www.w3.org/2000/svg" xmlns:xlink="http://www.w3.org/1999/xlink" xml:space="preserve" onload="init(evt)">

<style type="text/css"><![CDATA[
.node, .edge {opacity: 0.7;}
.node.selected, .edge.selected {opacity: 1;}
.edge:hover path { stroke: red; }
.edge:hover polygon { stroke: red; fill: red; }
]]></style>

<defs>
  <circle id="rim" cx="0" cy="0" r="7"/>
  <circle id="rim2" cx="0" cy="0" r="3.5"/>
  <g id="zoomPlus">
    <use xlink:href="#rim" fill="#404040"><set attributeName="fill" to="#808080" begin="zoomplus.mouseover" end="zoomplus.mouseout"/></use>
    <path d="M-4,0h8M0,-4v8" fill="none" stroke="white" stroke-width="1.5" pointer-events="none"/>
  </g>
  <g id="zoomMin">
    <use xlink:href="#rim" fill="#404040"><set attributeName="fill" to="#808080" begin="zoomminus.mouseover" end="zoomminus.mouseout"/></use>
    <path d="M-4,0h8" fill="none" stroke="white" stroke-width="1.5" pointer-events="none"/>
  </g>
  <g id="arrowUp" transform="translate(30 24)">
    <use xlink:href="#rim"/>
    <path pointer-events="none" fill="none" stroke="white" stroke-width="1.5" d="M0,-3.0v7 M-2.5,-0.5L0,-3.0L2.5,-0.5"/>
  </g>
  <g id="arrowRight" transform="rotate(90) translate(36 -43)">
    <use xlink:href="#rim"/>
    <path pointer-events="none" fill="none" stroke="white" stroke-width="1.5" d="M0,-3.0v7 M-2.5,-0.5L0,-3.0L2.5,-0.5"/>
  </g>
  <g id="arrowDown" transform="rotate(180) translate(-30 -48)">
    <use xlink:href="#rim"/>
    <path pointer-events="none" fill="none" stroke="white" stroke-width="1.5" d="M0,-3.0v7 M-2.5,-0.5L0,-3.0L2.5,-0.5"/>
  </g>
  <g id="arrowLeft" transform="rotate(270) translate(-36 17)">
    <use xlink:href="#rim"/>
    <path pointer-events="none" fill="none" stroke="white" stroke-width="1.5" d="M0,-3.0v7 M-2.5,-0.5L0,-3.0L2.5,-0.5"/>
  </g>
  <g id="resetDef">
    <use xlink:href="#rim2" fill="#404040"><set attributeName="fill" to="#808080" begin="reset.mouseover" end="reset.mouseout"/></use>
  </g>
</defs>
<script type="application/ecmascript">
var viewWidth = 336;
var viewHeight = 1176;
var sectionId = 'dynsection-1';
</script>
<script type="application/ecmascript" xlink:href="../../svg.min.js"/>
<svg id="graph" class="graph">
<g id="viewport">
<title>pocketmine\item\HangingSign</title>
<!-- Node1 -->
<g id="Node000001" class="node">
<title>Node1</title>
<g id="a_Node000001"><a xlink:title=" ">
<polygon fill="#999999" stroke="transparent" points="158,-109 0,-109 0,0 158,0 158,-109"/>
<text text-anchor="start" x="5" y="-96.5" font-family="Helvetica,sans-Serif" font-size="10.00">pocketmine\item\HangingSign</text>
<text text-anchor="start" x="77" y="-81.5" font-family="Helvetica,sans-Serif" font-size="10.00"> </text>
<text text-anchor="start" x="5.5" y="-66.5" font-family="Helvetica,sans-Serif" font-size="10.00">+</text>
<text text-anchor="start" x="20" y="-66.5" font-family="Helvetica,sans-Serif" font-size="10.00">__construct()</text>
<text text-anchor="start" x="5.5" y="-51.5" font-family="Helvetica,sans-Serif" font-size="10.00">+</text>
<text text-anchor="start" x="20" y="-51.5" font-family="Helvetica,sans-Serif" font-size="10.00">getBlock()</text>
<text text-anchor="start" x="5.5" y="-36.5" font-family="Helvetica,sans-Serif" font-size="10.00">+</text>
<text text-anchor="start" x="20" y="-36.5" font-family="Helvetica,sans-Serif" font-size="10.00">getFuelTime()</text>
<text text-anchor="start" x="5.5" y="-21.5" font-family="Helvetica,sans-Serif" font-size="10.00">+</text>
<text text-anchor="start" x="20" y="-21.5" font-family="Helvetica,sans-Serif" font-size="10.00">getMaxStackSize()</text>
<text text-anchor="start" x="5.5" y="-6.5" font-family="Helvetica,sans-Serif" font-size="10.00">+</text>
<text text-anchor="start" x="20" y="-6.5" font-family="Helvetica,sans-Serif" font-size="10.00">getPlacementTransaction()</text>
<polygon fill="#666666" stroke="#666666" points="0,-91.5 0,-91.5 158,-91.5 158,-91.5 0,-91.5"/>
<polygon fill="#666666" stroke="#666666" points="0,-76.5 0,-76.5 158,-76.5 158,-76.5 0,-76.5"/>
<polygon fill="none" stroke="#666666" points="0,0 0,-109 158,-109 158,0 0,0"/>
</a>
</g>
</g>
<!-- Node2 -->
<g id="Node000002" class="node">
<title>Node2</title>
<g id="a_Node000002"><a xlink:href="../../d5/d8a/classpocketmine_1_1item_1_1_item.html" target="_top" xlink:title=" ">
<polygon fill="white" stroke="transparent" points="154.5,-600 3.5,-600 3.5,-146 154.5,-146 154.5,-600"/>
<text text-anchor="start" x="25" y="-588" font-family="Helvetica,sans-Serif" font-size="10.00">pocketmine\item\Item</text>
<text text-anchor="start" x="8" y="-573" font-family="Helvetica,sans-Serif" font-size="10.00">+</text>
<text text-anchor="start" x="21" y="-573" font-family="Helvetica,sans-Serif" font-size="10.00">TAG_BLOCK_ENTITY_TAG</text>
<text text-anchor="start" x="8" y="-558" font-family="Helvetica,sans-Serif" font-size="10.00">+</text>
<text text-anchor="start" x="21" y="-558" font-family="Helvetica,sans-Serif" font-size="10.00">TAG_DISPLAY</text>
<text text-anchor="start" x="8" y="-543" font-family="Helvetica,sans-Serif" font-size="10.00">+</text>
<text text-anchor="start" x="21" y="-543" font-family="Helvetica,sans-Serif" font-size="10.00">TAG_DISPLAY_LORE</text>
<text text-anchor="start" x="8" y="-528" font-family="Helvetica,sans-Serif" font-size="10.00">+</text>
<text text-anchor="start" x="21" y="-528" font-family="Helvetica,sans-Serif" font-size="10.00">TAG_DISPLAY_NAME</text>
<text text-anchor="start" x="8" y="-513" font-family="Helvetica,sans-Serif" font-size="10.00">+</text>
<text text-anchor="start" x="21" y="-513" font-family="Helvetica,sans-Serif" font-size="10.00">TAG_ENCH</text>
<text text-anchor="start" x="8" y="-498" font-family="Helvetica,sans-Serif" font-size="10.00">+</text>
<text text-anchor="start" x="21" y="-498" font-family="Helvetica,sans-Serif" font-size="10.00">TAG_KEEP_ON_DEATH</text>
<text text-anchor="start" x="8" y="-483" font-family="Helvetica,sans-Serif" font-size="10.00">#</text>
<text text-anchor="start" x="21" y="-483" font-family="Helvetica,sans-Serif" font-size="10.00">$canDestroy</text>
<text text-anchor="start" x="8" y="-468" font-family="Helvetica,sans-Serif" font-size="10.00">#</text>
<text text-anchor="start" x="21" y="-468" font-family="Helvetica,sans-Serif" font-size="10.00">$canPlaceOn</text>
<text text-anchor="start" x="8" y="-453" font-family="Helvetica,sans-Serif" font-size="10.00">#</text>
<text text-anchor="start" x="21" y="-453" font-family="Helvetica,sans-Serif" font-size="10.00">$count</text>
<text text-anchor="start" x="8" y="-438" font-family="Helvetica,sans-Serif" font-size="10.00">#</text>
<text text-anchor="start" x="21" y="-438" font-family="Helvetica,sans-Serif" font-size="10.00">$customName</text>
<text text-anchor="start" x="8" y="-423" font-family="Helvetica,sans-Serif" font-size="10.00">#</text>
<text text-anchor="start" x="21" y="-423" font-family="Helvetica,sans-Serif" font-size="10.00">$keepOnDeath</text>
<text text-anchor="start" x="8" y="-408" font-family="Helvetica,sans-Serif" font-size="10.00">#</text>
<text text-anchor="start" x="21" y="-408" font-family="Helvetica,sans-Serif" font-size="10.00">$lore</text>
<text text-anchor="start" x="8" y="-393" font-family="Helvetica,sans-Serif" font-size="10.00">+</text>
<text text-anchor="start" x="21" y="-393" font-family="Helvetica,sans-Serif" font-size="10.00">__construct()</text>
<text text-anchor="start" x="8" y="-378" font-family="Helvetica,sans-Serif" font-size="10.00">+</text>
<text text-anchor="start" x="21" y="-378" font-family="Helvetica,sans-Serif" font-size="10.00">__clone()</text>
<text text-anchor="start" x="8" y="-363" font-family="Helvetica,sans-Serif" font-size="10.00">+</text>
<text text-anchor="start" x="21" y="-363" font-family="Helvetica,sans-Serif" font-size="10.00">__toString()</text>
<text text-anchor="start" x="8" y="-348" font-family="Helvetica,sans-Serif" font-size="10.00">+</text>
<text text-anchor="start" x="21" y="-348" font-family="Helvetica,sans-Serif" font-size="10.00">canBePlaced()</text>
<text text-anchor="start" x="8" y="-333" font-family="Helvetica,sans-Serif" font-size="10.00">+</text>
<text text-anchor="start" x="21" y="-333" font-family="Helvetica,sans-Serif" font-size="10.00">canStackWith()</text>
<text text-anchor="start" x="8" y="-318" font-family="Helvetica,sans-Serif" font-size="10.00">+</text>
<text text-anchor="start" x="21" y="-318" font-family="Helvetica,sans-Serif" font-size="10.00">clearCustomBlockData()</text>
<text text-anchor="start" x="8" y="-303" font-family="Helvetica,sans-Serif" font-size="10.00">+</text>
<text text-anchor="start" x="21" y="-303" font-family="Helvetica,sans-Serif" font-size="10.00">clearCustomName()</text>
<text text-anchor="start" x="8" y="-288" font-family="Helvetica,sans-Serif" font-size="10.00">+</text>
<text text-anchor="start" x="21" y="-288" font-family="Helvetica,sans-Serif" font-size="10.00">clearNamedTag()</text>
<text text-anchor="start" x="8" y="-273" font-family="Helvetica,sans-Serif" font-size="10.00">+</text>
<text text-anchor="start" x="21" y="-273" font-family="Helvetica,sans-Serif" font-size="10.00">equals()</text>
<text text-anchor="start" x="8" y="-258" font-family="Helvetica,sans-Serif" font-size="10.00">+</text>
<text text-anchor="start" x="21" y="-258" font-family="Helvetica,sans-Serif" font-size="10.00">equalsExact()</text>
<text text-anchor="start" x="21" y="-243" font-family="Helvetica,sans-Serif" font-size="10.00">and 49 more...</text>
<text text-anchor="start" x="8" y="-228" font-family="Helvetica,sans-Serif" font-size="10.00">+</text>
<text text-anchor="start" x="21" y="-228" font-family="Helvetica,sans-Serif" font-size="10.00">legacyJsonDeserialize()</text>
<text text-anchor="start" x="8" y="-213" font-family="Helvetica,sans-Serif" font-size="10.00">+</text>
<text text-anchor="start" x="21" y="-213" font-family="Helvetica,sans-Serif" font-size="10.00">nbtDeserialize()</text>
<text text-anchor="start" x="8" y="-198" font-family="Helvetica,sans-Serif" font-size="10.00">#</text>
<text text-anchor="start" x="21" y="-198" font-family="Helvetica,sans-Serif" font-size="10.00">describeState()</text>
<text text-anchor="start" x="8" y="-183" font-family="Helvetica,sans-Serif" font-size="10.00">#</text>
<text text-anchor="start" x="21" y="-183" font-family="Helvetica,sans-Serif" font-size="10.00">deserializeCompoundTag()</text>
<text text-anchor="start" x="8" y="-168" font-family="Helvetica,sans-Serif" font-size="10.00">#</text>
<text text-anchor="start" x="21" y="-168" font-family="Helvetica,sans-Serif" font-size="10.00">serializeCompoundTag()</text>
<text text-anchor="start" x="8" y="-153" font-family="Helvetica,sans-Serif" font-size="10.00">#</text>
<text text-anchor="start" x="21" y="-153" font-family="Helvetica,sans-Serif" font-size="10.00">tryPlacementTransaction()</text>
<polygon fill="#bfbfbf" stroke="#bfbfbf" points="4,-583 4,-583 155,-583 155,-583 4,-583"/>
<polygon fill="#bfbfbf" stroke="#bfbfbf" points="4,-403 4,-403 19,-403 19,-403 4,-403"/>
<polygon fill="#bfbfbf" stroke="#bfbfbf" points="19,-403 19,-403 155,-403 155,-403 19,-403"/>
<polygon fill="none" stroke="#bfbfbf" points="3.5,-146 3.5,-600 154.5,-600 154.5,-146 3.5,-146"/>
</a>
</g>
</g>
<!-- Node2&#45;&gt;Node1 -->
<g id="edge1_Node000001_Node000002" class="edge">
<title>Node2&#45;&gt;Node1</title>
<g id="a_edge1_Node000001_Node000002"><a xlink:title=" ">
<path fill="none" stroke="#63b8ff" d="M79,-135.48C79,-126.16 79,-117.33 79,-109.16"/>
<polygon fill="none" stroke="#63b8ff" points="75.5,-135.77 79,-145.77 82.5,-135.77 75.5,-135.77"/>
</a>
</g>
</g>
<!-- Node3 -->
<g id="Node000003" class="node">
<title>Node3</title>
<g id="a_Node000003"><a xlink:title=" ">
<polygon fill="white" stroke="transparent" points="107,-814 19,-814 19,-765 107,-765 107,-814"/>
<text text-anchor="start" x="24" y="-801.5" font-family="Helvetica,sans-Serif" font-size="10.00">JsonSerializable</text>
<text text-anchor="start" x="61" y="-786.5" font-family="Helvetica,sans-Serif" font-size="10.00"> </text>
<text text-anchor="start" x="61" y="-771.5" font-family="Helvetica,sans-Serif" font-size="10.00"> </text>
<polygon fill="#bfbfbf" stroke="#bfbfbf" points="19,-796.5 19,-796.5 107,-796.5 107,-796.5 19,-796.5"/>
<polygon fill="#bfbfbf" stroke="#bfbfbf" points="19,-781.5 19,-781.5 107,-781.5 107,-781.5 19,-781.5"/>
<polygon fill="none" stroke="#bfbfbf" points="19,-765 19,-814 107,-814 107,-765 19,-765"/>
</a>
</g>
</g>
<!-- Node3&#45;&gt;Node2 -->
<g id="edge2_Node000002_Node000003" class="edge">
<title>Node3&#45;&gt;Node2</title>
<g id="a_edge2_Node000002_Node000003"><a xlink:title=" ">
<path fill="none" stroke="#63b8ff" d="M64.31,-754.54C65.67,-719.23 67.93,-660.73 70.27,-600.07"/>
<polygon fill="none" stroke="#63b8ff" points="60.81,-754.6 63.92,-764.73 67.8,-754.87 60.81,-754.6"/>
</a>
</g>
</g>
<!-- Node4 -->
<g id="Node000004" class="node">
<title>Node4</title>
<g id="a_Node000004"><a xlink:href="../../de/d67/classpocketmine_1_1nbt_1_1tag_1_1_compound_tag.html" target="_top" xlink:title=" ">
<polygon fill="white" stroke="transparent" points="239,-932 125,-932 125,-647 239,-647 239,-932"/>
<text text-anchor="start" x="134.5" y="-919.5" font-family="Helvetica,sans-Serif" font-size="10.00">pocketmine\nbt\tag</text>
<text text-anchor="start" x="145.5" y="-908.5" font-family="Helvetica,sans-Serif" font-size="10.00">\CompoundTag</text>
<text text-anchor="start" x="180" y="-893.5" font-family="Helvetica,sans-Serif" font-size="10.00"> </text>
<text text-anchor="start" x="129" y="-878.5" font-family="Helvetica,sans-Serif" font-size="10.00">+</text>
<text text-anchor="start" x="142" y="-878.5" font-family="Helvetica,sans-Serif" font-size="10.00">__construct()</text>
<text text-anchor="start" x="129" y="-863.5" font-family="Helvetica,sans-Serif" font-size="10.00">+</text>
<text text-anchor="start" x="142" y="-863.5" font-family="Helvetica,sans-Serif" font-size="10.00">__clone()</text>
<text text-anchor="start" x="129" y="-848.5" font-family="Helvetica,sans-Serif" font-size="10.00">+</text>
<text text-anchor="start" x="142" y="-848.5" font-family="Helvetica,sans-Serif" font-size="10.00">count()</text>
<text text-anchor="start" x="129" y="-833.5" font-family="Helvetica,sans-Serif" font-size="10.00">+</text>
<text text-anchor="start" x="142" y="-833.5" font-family="Helvetica,sans-Serif" font-size="10.00">equals()</text>
<text text-anchor="start" x="129" y="-818.5" font-family="Helvetica,sans-Serif" font-size="10.00">+</text>
<text text-anchor="start" x="142" y="-818.5" font-family="Helvetica,sans-Serif" font-size="10.00">getByte()</text>
<text text-anchor="start" x="129" y="-803.5" font-family="Helvetica,sans-Serif" font-size="10.00">+</text>
<text text-anchor="start" x="142" y="-803.5" font-family="Helvetica,sans-Serif" font-size="10.00">getByteArray()</text>
<text text-anchor="start" x="129" y="-788.5" font-family="Helvetica,sans-Serif" font-size="10.00">+</text>
<text text-anchor="start" x="142" y="-788.5" font-family="Helvetica,sans-Serif" font-size="10.00">getCompoundTag()</text>
<text text-anchor="start" x="129" y="-773.5" font-family="Helvetica,sans-Serif" font-size="10.00">+</text>
<text text-anchor="start" x="142" y="-773.5" font-family="Helvetica,sans-Serif" font-size="10.00">getCount()</text>
<text text-anchor="start" x="129" y="-758.5" font-family="Helvetica,sans-Serif" font-size="10.00">+</text>
<text text-anchor="start" x="142" y="-758.5" font-family="Helvetica,sans-Serif" font-size="10.00">getDouble()</text>
<text text-anchor="start" x="129" y="-743.5" font-family="Helvetica,sans-Serif" font-size="10.00">+</text>
<text text-anchor="start" x="142" y="-743.5" font-family="Helvetica,sans-Serif" font-size="10.00">getFloat()</text>
<text text-anchor="start" x="142" y="-728.5" font-family="Helvetica,sans-Serif" font-size="10.00">and 23 more...</text>
<text text-anchor="start" x="129" y="-713.5" font-family="Helvetica,sans-Serif" font-size="10.00">+</text>
<text text-anchor="start" x="142" y="-713.5" font-family="Helvetica,sans-Serif" font-size="10.00">create()</text>
<text text-anchor="start" x="129" y="-698.5" font-family="Helvetica,sans-Serif" font-size="10.00">+</text>
<text text-anchor="start" x="142" y="-698.5" font-family="Helvetica,sans-Serif" font-size="10.00">read()</text>
<text text-anchor="start" x="129" y="-683.5" font-family="Helvetica,sans-Serif" font-size="10.00">#</text>
<text text-anchor="start" x="142" y="-683.5" font-family="Helvetica,sans-Serif" font-size="10.00">getTypeName()</text>
<text text-anchor="start" x="129" y="-668.5" font-family="Helvetica,sans-Serif" font-size="10.00">#</text>
<text text-anchor="start" x="142" y="-668.5" font-family="Helvetica,sans-Serif" font-size="10.00">makeCopy()</text>
<text text-anchor="start" x="129" y="-653.5" font-family="Helvetica,sans-Serif" font-size="10.00">#</text>
<text text-anchor="start" x="142" y="-653.5" font-family="Helvetica,sans-Serif" font-size="10.00">stringifyValue()</text>
<polygon fill="#666666" stroke="#666666" points="125,-903.5 125,-903.5 239,-903.5 239,-903.5 125,-903.5"/>
<polygon fill="#666666" stroke="#666666" points="125,-888.5 125,-888.5 239,-888.5 239,-888.5 125,-888.5"/>
<polygon fill="none" stroke="#666666" points="125,-647 125,-932 239,-932 239,-647 125,-647"/>
</a>
</g>
</g>
<!-- Node4&#45;&gt;Node2 -->
<g id="edge3_Node000002_Node000004" class="edge">
<title>Node4&#45;&gt;Node2</title>
<g id="a_edge3_Node000002_Node000004"><a xlink:title=" ">
<path fill="none" stroke="#63b8ff" d="M146.77,-646.72C143.95,-635.38 141.06,-623.75 138.14,-611.98"/>
<polygon fill="none" stroke="#63b8ff" points="138.1,-611.82 132.77,-606.96 135.2,-600.17 140.53,-605.03 138.1,-611.82"/>
</a>
</g>
<text text-anchor="middle" x="184.5" y="-621" font-family="Helvetica,sans-Serif" font-size="10.00" fill="grey"> #$blockEntityTag</text>
</g>
<!-- Node5 -->
<g id="Node000005" class="node">
<title>Node5</title>
<g id="a_Node000005"><a xlink:href="../../dc/d26/classpocketmine_1_1nbt_1_1tag_1_1_tag.html" target="_top" xlink:title=" ">
<polygon fill="white" stroke="transparent" points="133.5,-1168 8.5,-1168 8.5,-969 133.5,-969 133.5,-1168"/>
<text text-anchor="start" x="14" y="-1155.5" font-family="Helvetica,sans-Serif" font-size="10.00">pocketmine\nbt\tag\Tag</text>
<text text-anchor="start" x="17" y="-1140.5" font-family="Helvetica,sans-Serif" font-size="10.00">#</text>
<text text-anchor="start" x="34" y="-1140.5" font-family="Helvetica,sans-Serif" font-size="10.00">$cloning</text>
<text text-anchor="start" x="17" y="-1125.5" font-family="Helvetica,sans-Serif" font-size="10.00">+</text>
<text text-anchor="start" x="34" y="-1125.5" font-family="Helvetica,sans-Serif" font-size="10.00">__toString()</text>
<text text-anchor="start" x="17" y="-1110.5" font-family="Helvetica,sans-Serif" font-size="10.00">+</text>
<text text-anchor="start" x="34" y="-1110.5" font-family="Helvetica,sans-Serif" font-size="10.00">equals()</text>
<text text-anchor="start" x="17" y="-1095.5" font-family="Helvetica,sans-Serif" font-size="10.00">+</text>
<text text-anchor="start" x="34" y="-1095.5" font-family="Helvetica,sans-Serif" font-size="10.00">getType()</text>
<text text-anchor="start" x="17" y="-1080.5" font-family="Helvetica,sans-Serif" font-size="10.00">+</text>
<text text-anchor="start" x="34" y="-1080.5" font-family="Helvetica,sans-Serif" font-size="10.00">getValue()</text>
<text text-anchor="start" x="17" y="-1065.5" font-family="Helvetica,sans-Serif" font-size="10.00">+</text>
<text text-anchor="start" x="34" y="-1065.5" font-family="Helvetica,sans-Serif" font-size="10.00">safeClone()</text>
<text text-anchor="start" x="17" y="-1050.5" font-family="Helvetica,sans-Serif" font-size="10.00">+</text>
<text text-anchor="start" x="34" y="-1050.5" font-family="Helvetica,sans-Serif" font-size="10.00">toString()</text>
<text text-anchor="start" x="17" y="-1035.5" font-family="Helvetica,sans-Serif" font-size="10.00">+</text>
<text text-anchor="start" x="34" y="-1035.5" font-family="Helvetica,sans-Serif" font-size="10.00">write()</text>
<text text-anchor="start" x="17" y="-1020.5" font-family="Helvetica,sans-Serif" font-size="10.00">#</text>
<text text-anchor="start" x="34" y="-1020.5" font-family="Helvetica,sans-Serif" font-size="10.00">getTypeName()</text>
<text text-anchor="start" x="17" y="-1005.5" font-family="Helvetica,sans-Serif" font-size="10.00">#</text>
<text text-anchor="start" x="34" y="-1005.5" font-family="Helvetica,sans-Serif" font-size="10.00">makeCopy()</text>
<text text-anchor="start" x="17" y="-990.5" font-family="Helvetica,sans-Serif" font-size="10.00">#</text>
<text text-anchor="start" x="34" y="-990.5" font-family="Helvetica,sans-Serif" font-size="10.00">stringifyValue()</text>
<text text-anchor="start" x="17" y="-975.5" font-family="Helvetica,sans-Serif" font-size="10.00">#</text>
<text text-anchor="start" x="34" y="-975.5" font-family="Helvetica,sans-Serif" font-size="10.00">restrictArgCount()</text>
<polygon fill="#bfbfbf" stroke="#bfbfbf" points="9,-1150.5 9,-1150.5 134,-1150.5 134,-1150.5 9,-1150.5"/>
<polygon fill="#bfbfbf" stroke="#bfbfbf" points="9,-1135.5 9,-1135.5 32,-1135.5 32,-1135.5 9,-1135.5"/>
<polygon fill="#bfbfbf" stroke="#bfbfbf" points="32,-1135.5 32,-1135.5 134,-1135.5 134,-1135.5 32,-1135.5"/>
<polygon fill="none" stroke="#bfbfbf" points="8.5,-969 8.5,-1168 133.5,-1168 133.5,-969 8.5,-969"/>
</a>
</g>
</g>
<!-- Node5&#45;&gt;Node4 -->
<g id="edge4_Node000004_Node000005" class="edge">
<title>Node5&#45;&gt;Node4</title>
<g id="a_edge4_Node000004_Node000005"><a xlink:title=" ">
<path fill="none" stroke="#63b8ff" d="M114.41,-959.18C117.94,-950.36 121.54,-941.38 125.15,-932.37"/>
<polygon fill="none" stroke="#63b8ff" points="111.07,-958.09 110.6,-968.67 117.57,-960.69 111.07,-958.09"/>
</a>
</g>
</g>
<!-- Node6 -->
<g id="Node000006" class="node">
<title>Node6</title>
<g id="a_Node000006"><a xlink:title=" ">
<polygon fill="white" stroke="transparent" points="212,-1093 152,-1093 152,-1044 212,-1044 212,-1093"/>
<text text-anchor="start" x="157" y="-1080.5" font-family="Helvetica,sans-Serif" font-size="10.00">Countable</text>
<text text-anchor="start" x="180" y="-1065.5" font-family="Helvetica,sans-Serif" font-size="10.00"> </text>
<text text-anchor="start" x="180" y="-1050.5" font-family="Helvetica,sans-Serif" font-size="10.00"> </text>
<polygon fill="#bfbfbf" stroke="#bfbfbf" points="152,-1075.5 152,-1075.5 212,-1075.5 212,-1075.5 152,-1075.5"/>
<polygon fill="#bfbfbf" stroke="#bfbfbf" points="152,-1060.5 152,-1060.5 212,-1060.5 212,-1060.5 152,-1060.5"/>
<polygon fill="none" stroke="#bfbfbf" points="152,-1044 152,-1093 212,-1093 212,-1044 152,-1044"/>
</a>
</g>
</g>
<!-- Node6&#45;&gt;Node4 -->
<g id="edge5_Node000004_Node000006" class="edge">
<title>Node6&#45;&gt;Node4</title>
<g id="a_edge5_Node000004_Node000006"><a xlink:title=" ">
<path fill="none" stroke="#63b8ff" d="M182,-1033.88C182,-1007.99 182,-970.3 182,-932.28"/>
<polygon fill="none" stroke="#63b8ff" points="178.5,-1033.88 182,-1043.88 185.5,-1033.88 178.5,-1033.88"/>
</a>
</g>
</g>
<!-- Node7 -->
<g id="Node000007" class="node">
<title>Node7</title>
<g id="a_Node000007"><a xlink:title=" ">
<polygon fill="white" stroke="transparent" points="327.5,-1093 230.5,-1093 230.5,-1044 327.5,-1044 327.5,-1093"/>
<text text-anchor="start" x="236" y="-1080.5" font-family="Helvetica,sans-Serif" font-size="10.00">IteratorAggregate</text>
<text text-anchor="start" x="277.5" y="-1065.5" font-family="Helvetica,sans-Serif" font-size="10.00"> </text>
<text text-anchor="start" x="277.5" y="-1050.5" font-family="Helvetica,sans-Serif" font-size="10.00"> </text>
<polygon fill="#bfbfbf" stroke="#bfbfbf" points="231,-1075.5 231,-1075.5 328,-1075.5 328,-1075.5 231,-1075.5"/>
<polygon fill="#bfbfbf" stroke="#bfbfbf" points="231,-1060.5 231,-1060.5 328,-1060.5 328,-1060.5 231,-1060.5"/>
<polygon fill="none" stroke="#bfbfbf" points="230.5,-1044 230.5,-1093 327.5,-1093 327.5,-1044 230.5,-1044"/>
</a>
</g>
</g>
<!-- Node7&#45;&gt;Node4 -->
<g id="edge6_Node000004_Node000007" class="edge">
<title>Node7&#45;&gt;Node4</title>
<g id="a_edge6_Node000004_Node000007"><a xlink:title=" ">
<path fill="none" stroke="#63b8ff" d="M267.35,-1034.23C258.28,-1008.33 245.02,-970.47 231.65,-932.28"/>
<polygon fill="none" stroke="#63b8ff" points="264.12,-1035.6 270.73,-1043.88 270.73,-1033.29 264.12,-1035.6"/>
</a>
</g>
</g>
</g>
</svg>

<g id="navigator" transform="translate(0 0)" fill="#404254">
  <rect fill="#f2f5e9" fill-opacity="0.5" stroke="#606060" stroke-width=".5" x="0" y="0" width="60" height="60"/>
  <use id="zoomplus" xlink:href="#zoomPlus" x="17" y="9" onmousedown="handleZoom(evt,'in')"/>
  <use id="zoomminus" xlink:href="#zoomMin" x="42" y="9" onmousedown="handleZoom(evt,'out')"/>
  <use id="reset" xlink:href="#resetDef" x="30" y="36" onmousedown="handleReset()"/>
   <use id="arrowup" xlink:href="#arrowUp" x="0" y="0" onmousedown="handlePan(0,-1)"/>
  <use id="arrowright" xlink:href="#arrowRight" x="0" y="0" onmousedown="handlePan(1,0)"/>
  <use id="arrowdown" xlink:href="#arrowDown" x="0" y="0" onmousedown="handlePan(0,1)"/>
  <use id="arrowleft" xlink:href="#arrowLeft" x="0" y="0" onmousedown="handlePan(-1,0)"/>
</g>
<svg viewBox="0 0 15 15" width="100%" height="30px" preserveAspectRatio="xMaxYMin meet">
 <g id="arrow_out" transform="scale(0.3 0.3)">
  <a xlink:href="classpocketmine_1_1item_1_1_hanging_sign__coll__graph_org.svg" target="_base">
   <rect id="button" ry="5" rx="5" y="6" x="6" height="38" width="38"
        fill="#f2f5e9" fill-opacity="0.5" stroke="#606060" stroke-width="1.0"/>
   <path id="arrow"
     d="M 11.500037,31.436501 C 11.940474,20.09759 22.043105,11.32322 32.158766,21.979434 L 37.068811,17.246167 C 37.068811,17.246167 37.088388,32 37.088388,32 L 22.160133,31.978069 C 22.160133,31.978069 26.997745,27.140456 26.997745,27.140456 C 18.528582,18.264221 13.291696,25.230495 11.500037,31.436501 z"
     style="fill:#404040;"/>
  </a>
 </g>
</svg>

<style type='text/css'>
<![CDATA[
[data-mouse-over-selected='false'] { opacity: 0.7; }
[data-mouse-over-selected='true']  { opacity: 1.0; }
]]>
</style>
<script type="application/ecmascript"><![CDATA[
document.addEventListener('DOMContentLoaded', (event) => {
  highlightEdges();
  highlightAdjacentNodes();
});
]]></script>
</svg>
