<?xml version="1.0" encoding="UTF-8" standalone="no"?>
<!DOCTYPE svg PUBLIC "-//W3C//DTD SVG 1.1//EN"
 "http://www.w3.org/Graphics/SVG/1.1/DTD/svg11.dtd">
<!-- Generated by graphviz version 2.43.0 (0)
 -->
<!-- Title: pocketmine\network\mcpe\raklib\RakLibServer Pages: 1 -->
<svg width="153pt" height="375pt"
 viewBox="0.00 0.00 153.00 375.00" xmlns="http://www.w3.org/2000/svg" xmlns:xlink="http://www.w3.org/1999/xlink">
<g id="graph0" class="graph" transform="scale(1 1) rotate(0) translate(4 371)">
<title>pocketmine\network\mcpe\raklib\RakLibServer</title>
<polygon fill="white" stroke="transparent" points="-4,4 -4,-371 149,-371 149,4 -4,4"/>
<!-- Node1 -->
<g id="node1" class="node">
<title>Node1</title>
<g id="a_node1"><a xlink:title=" ">
<polygon fill="#bfbfbf" stroke="black" points="0,-0.5 0,-167.5 145,-167.5 145,-0.5 0,-0.5"/>
<text text-anchor="start" x="8" y="-155.5" font-family="Helvetica,sans-Serif" font-size="10.00">pocketmine\network</text>
<text text-anchor="middle" x="72.5" y="-144.5" font-family="Helvetica,sans-Serif" font-size="10.00">\mcpe\raklib\RakLibServer</text>
<polyline fill="none" stroke="black" points="0,-137.5 145,-137.5 "/>
<text text-anchor="start" x="8" y="-125.5" font-family="Helvetica,sans-Serif" font-size="10.00">+ $crashInfo</text>
<text text-anchor="start" x="8" y="-114.5" font-family="Helvetica,sans-Serif" font-size="10.00"># $address</text>
<text text-anchor="start" x="8" y="-103.5" font-family="Helvetica,sans-Serif" font-size="10.00"># $cleanShutdown</text>
<text text-anchor="start" x="8" y="-92.5" font-family="Helvetica,sans-Serif" font-size="10.00"># $mainPath</text>
<text text-anchor="start" x="8" y="-81.5" font-family="Helvetica,sans-Serif" font-size="10.00"># $ready</text>
<polyline fill="none" stroke="black" points="0,-74.5 145,-74.5 "/>
<text text-anchor="start" x="8" y="-62.5" font-family="Helvetica,sans-Serif" font-size="10.00">+ __construct()</text>
<text text-anchor="start" x="8" y="-51.5" font-family="Helvetica,sans-Serif" font-size="10.00">+ getCrashInfo()</text>
<text text-anchor="start" x="8" y="-40.5" font-family="Helvetica,sans-Serif" font-size="10.00">+ getThreadName()</text>
<text text-anchor="start" x="8" y="-29.5" font-family="Helvetica,sans-Serif" font-size="10.00">+ shutdownHandler()</text>
<text text-anchor="start" x="8" y="-18.5" font-family="Helvetica,sans-Serif" font-size="10.00">+ startAndWait()</text>
<text text-anchor="start" x="8" y="-7.5" font-family="Helvetica,sans-Serif" font-size="10.00"># onRun()</text>
</a>
</g>
</g>
<!-- Node2 -->
<g id="node2" class="node">
<title>Node2</title>
<g id="a_node2"><a xlink:href="../../d0/d6e/classpocketmine_1_1thread_1_1_thread.html" target="_top" xlink:title=" ">
<polygon fill="white" stroke="black" points="0,-204.5 0,-272.5 145,-272.5 145,-204.5 0,-204.5"/>
<text text-anchor="middle" x="72.5" y="-260.5" font-family="Helvetica,sans-Serif" font-size="10.00">pocketmine\thread\Thread</text>
<polyline fill="none" stroke="black" points="0,-253.5 145,-253.5 "/>
<text text-anchor="middle" x="72.5" y="-241.5" font-family="Helvetica,sans-Serif" font-size="10.00"> </text>
<polyline fill="none" stroke="black" points="0,-234.5 145,-234.5 "/>
<text text-anchor="start" x="8" y="-222.5" font-family="Helvetica,sans-Serif" font-size="10.00">+ quit()</text>
<text text-anchor="start" x="8" y="-211.5" font-family="Helvetica,sans-Serif" font-size="10.00">+ start()</text>
</a>
</g>
</g>
<!-- Node2&#45;&gt;Node1 -->
<g id="edge1" class="edge">
<title>Node2&#45;&gt;Node1</title>
<path fill="none" stroke="midnightblue" d="M72.5,-194.23C72.5,-185.88 72.5,-176.89 72.5,-167.76"/>
<polygon fill="none" stroke="midnightblue" points="69,-194.41 72.5,-204.41 76,-194.41 69,-194.41"/>
</g>
<!-- Node3 -->
<g id="node3" class="node">
<title>Node3</title>
<g id="a_node3"><a xlink:title=" ">
<polygon fill="white" stroke="#bfbfbf" points="31,-309.5 31,-366.5 114,-366.5 114,-309.5 31,-309.5"/>
<text text-anchor="middle" x="72.5" y="-354.5" font-family="Helvetica,sans-Serif" font-size="10.00">NativeThread</text>
<polyline fill="none" stroke="#bfbfbf" points="31,-347.5 114,-347.5 "/>
<text text-anchor="middle" x="72.5" y="-335.5" font-family="Helvetica,sans-Serif" font-size="10.00"> </text>
<polyline fill="none" stroke="#bfbfbf" points="31,-328.5 114,-328.5 "/>
<text text-anchor="middle" x="72.5" y="-316.5" font-family="Helvetica,sans-Serif" font-size="10.00"> </text>
</a>
</g>
</g>
<!-- Node3&#45;&gt;Node2 -->
<g id="edge2" class="edge">
<title>Node3&#45;&gt;Node2</title>
<path fill="none" stroke="midnightblue" d="M72.5,-299.06C72.5,-290.39 72.5,-281.24 72.5,-272.79"/>
<polygon fill="none" stroke="midnightblue" points="69,-299.32 72.5,-309.32 76,-299.32 69,-299.32"/>
</g>
</g>
</svg>
