<?xml version="1.0" encoding="UTF-8" standalone="no"?>
<!DOCTYPE svg PUBLIC "-//W3C//DTD SVG 1.1//EN"
 "http://www.w3.org/Graphics/SVG/1.1/DTD/svg11.dtd">
<!-- Generated by graphviz version 2.43.0 (0)
 -->
<!-- Title: pocketmine\event\entity\EntityDamageByBlockEvent Pages: 1 -->
<!--zoomable 750 -->

<svg id="main" version="1.1" xmlns="http://www.w3.org/2000/svg" xmlns:xlink="http://www.w3.org/1999/xlink" xml:space="preserve" onload="init(evt)">

<style type="text/css"><![CDATA[
.node, .edge {opacity: 0.7;}
.node.selected, .edge.selected {opacity: 1;}
.edge:hover path { stroke: red; }
.edge:hover polygon { stroke: red; fill: red; }
]]></style>

<defs>
  <circle id="rim" cx="0" cy="0" r="7"/>
  <circle id="rim2" cx="0" cy="0" r="3.5"/>
  <g id="zoomPlus">
    <use xlink:href="#rim" fill="#404040"><set attributeName="fill" to="#808080" begin="zoomplus.mouseover" end="zoomplus.mouseout"/></use>
    <path d="M-4,0h8M0,-4v8" fill="none" stroke="white" stroke-width="1.5" pointer-events="none"/>
  </g>
  <g id="zoomMin">
    <use xlink:href="#rim" fill="#404040"><set attributeName="fill" to="#808080" begin="zoomminus.mouseover" end="zoomminus.mouseout"/></use>
    <path d="M-4,0h8" fill="none" stroke="white" stroke-width="1.5" pointer-events="none"/>
  </g>
  <g id="arrowUp" transform="translate(30 24)">
    <use xlink:href="#rim"/>
    <path pointer-events="none" fill="none" stroke="white" stroke-width="1.5" d="M0,-3.0v7 M-2.5,-0.5L0,-3.0L2.5,-0.5"/>
  </g>
  <g id="arrowRight" transform="rotate(90) translate(36 -43)">
    <use xlink:href="#rim"/>
    <path pointer-events="none" fill="none" stroke="white" stroke-width="1.5" d="M0,-3.0v7 M-2.5,-0.5L0,-3.0L2.5,-0.5"/>
  </g>
  <g id="arrowDown" transform="rotate(180) translate(-30 -48)">
    <use xlink:href="#rim"/>
    <path pointer-events="none" fill="none" stroke="white" stroke-width="1.5" d="M0,-3.0v7 M-2.5,-0.5L0,-3.0L2.5,-0.5"/>
  </g>
  <g id="arrowLeft" transform="rotate(270) translate(-36 17)">
    <use xlink:href="#rim"/>
    <path pointer-events="none" fill="none" stroke="white" stroke-width="1.5" d="M0,-3.0v7 M-2.5,-0.5L0,-3.0L2.5,-0.5"/>
  </g>
  <g id="resetDef">
    <use xlink:href="#rim2" fill="#404040"><set attributeName="fill" to="#808080" begin="reset.mouseover" end="reset.mouseout"/></use>
  </g>
</defs>
<script type="application/ecmascript">
var viewWidth = 314;
var viewHeight = 750;
var sectionId = 'dynsection-0';
</script>
<script type="application/ecmascript" xlink:href="../../svg.min.js"/>
<svg id="graph" class="graph">
<g id="viewport">
<title>pocketmine\event\entity\EntityDamageByBlockEvent</title>
<!-- Node1 -->
<g id="Node000001" class="node">
<title>Node1</title>
<g id="a_Node000001"><a xlink:title=" ">
<polygon fill="#999999" stroke="transparent" points="221.5,-75 70.5,-75 70.5,0 221.5,0 221.5,-75"/>
<text text-anchor="start" x="76" y="-62.5" font-family="Helvetica,sans-Serif" font-size="10.00">pocketmine\event\entity</text>
<text text-anchor="start" x="76" y="-51.5" font-family="Helvetica,sans-Serif" font-size="10.00">\EntityDamageByBlockEvent</text>
<text text-anchor="start" x="144.5" y="-36.5" font-family="Helvetica,sans-Serif" font-size="10.00"> </text>
<text text-anchor="start" x="90" y="-21.5" font-family="Helvetica,sans-Serif" font-size="10.00">+</text>
<text text-anchor="start" x="118" y="-21.5" font-family="Helvetica,sans-Serif" font-size="10.00">__construct()</text>
<text text-anchor="start" x="90" y="-6.5" font-family="Helvetica,sans-Serif" font-size="10.00">+</text>
<text text-anchor="start" x="118" y="-6.5" font-family="Helvetica,sans-Serif" font-size="10.00">getDamager()</text>
<polygon fill="#666666" stroke="#666666" points="71,-46.5 71,-46.5 222,-46.5 222,-46.5 71,-46.5"/>
<polygon fill="#666666" stroke="#666666" points="71,-31.5 71,-31.5 222,-31.5 222,-31.5 71,-31.5"/>
<polygon fill="none" stroke="#666666" points="70.5,0 70.5,-75 221.5,-75 221.5,0 70.5,0"/>
</a>
</g>
</g>
<!-- Node2 -->
<g id="Node000002" class="node">
<title>Node2</title>
<g id="a_Node000002"><a xlink:href="../../d5/de3/classpocketmine_1_1event_1_1entity_1_1_entity_damage_event.html" target="_top" xlink:title=" ">
<polygon fill="white" stroke="transparent" points="223.5,-531 68.5,-531 68.5,-111 223.5,-111 223.5,-531"/>
<text text-anchor="start" x="86.5" y="-519" font-family="Helvetica,sans-Serif" font-size="10.00">pocketmine\event\entity</text>
<text text-anchor="start" x="96" y="-508" font-family="Helvetica,sans-Serif" font-size="10.00">\EntityDamageEvent</text>
<text text-anchor="start" x="73" y="-493" font-family="Helvetica,sans-Serif" font-size="10.00">+</text>
<text text-anchor="start" x="86" y="-493" font-family="Helvetica,sans-Serif" font-size="10.00">CAUSE_BLOCK_EXPLOSION</text>
<text text-anchor="start" x="73" y="-478" font-family="Helvetica,sans-Serif" font-size="10.00">+</text>
<text text-anchor="start" x="86" y="-478" font-family="Helvetica,sans-Serif" font-size="10.00">CAUSE_CONTACT</text>
<text text-anchor="start" x="73" y="-463" font-family="Helvetica,sans-Serif" font-size="10.00">+</text>
<text text-anchor="start" x="86" y="-463" font-family="Helvetica,sans-Serif" font-size="10.00">CAUSE_CUSTOM</text>
<text text-anchor="start" x="73" y="-448" font-family="Helvetica,sans-Serif" font-size="10.00">+</text>
<text text-anchor="start" x="86" y="-448" font-family="Helvetica,sans-Serif" font-size="10.00">CAUSE_DROWNING</text>
<text text-anchor="start" x="73" y="-433" font-family="Helvetica,sans-Serif" font-size="10.00">+</text>
<text text-anchor="start" x="86" y="-433" font-family="Helvetica,sans-Serif" font-size="10.00">CAUSE_ENTITY_ATTACK</text>
<text text-anchor="start" x="73" y="-418" font-family="Helvetica,sans-Serif" font-size="10.00">+</text>
<text text-anchor="start" x="86" y="-418" font-family="Helvetica,sans-Serif" font-size="10.00">CAUSE_ENTITY_EXPLOSION</text>
<text text-anchor="start" x="73" y="-403" font-family="Helvetica,sans-Serif" font-size="10.00">+</text>
<text text-anchor="start" x="86" y="-403" font-family="Helvetica,sans-Serif" font-size="10.00">CAUSE_FALL</text>
<text text-anchor="start" x="73" y="-388" font-family="Helvetica,sans-Serif" font-size="10.00">+</text>
<text text-anchor="start" x="86" y="-388" font-family="Helvetica,sans-Serif" font-size="10.00">CAUSE_FALLING_BLOCK</text>
<text text-anchor="start" x="73" y="-373" font-family="Helvetica,sans-Serif" font-size="10.00">+</text>
<text text-anchor="start" x="86" y="-373" font-family="Helvetica,sans-Serif" font-size="10.00">CAUSE_FIRE</text>
<text text-anchor="start" x="73" y="-358" font-family="Helvetica,sans-Serif" font-size="10.00">+</text>
<text text-anchor="start" x="86" y="-358" font-family="Helvetica,sans-Serif" font-size="10.00">CAUSE_FIRE_TICK</text>
<text text-anchor="start" x="86" y="-343" font-family="Helvetica,sans-Serif" font-size="10.00">and 18 more...</text>
<text text-anchor="start" x="73" y="-328" font-family="Helvetica,sans-Serif" font-size="10.00">+</text>
<text text-anchor="start" x="86" y="-328" font-family="Helvetica,sans-Serif" font-size="10.00">__construct()</text>
<text text-anchor="start" x="73" y="-313" font-family="Helvetica,sans-Serif" font-size="10.00">+</text>
<text text-anchor="start" x="86" y="-313" font-family="Helvetica,sans-Serif" font-size="10.00">canBeReducedByArmor()</text>
<text text-anchor="start" x="73" y="-298" font-family="Helvetica,sans-Serif" font-size="10.00">+</text>
<text text-anchor="start" x="86" y="-298" font-family="Helvetica,sans-Serif" font-size="10.00">getAttackCooldown()</text>
<text text-anchor="start" x="73" y="-283" font-family="Helvetica,sans-Serif" font-size="10.00">+</text>
<text text-anchor="start" x="86" y="-283" font-family="Helvetica,sans-Serif" font-size="10.00">getBaseDamage()</text>
<text text-anchor="start" x="73" y="-268" font-family="Helvetica,sans-Serif" font-size="10.00">+</text>
<text text-anchor="start" x="86" y="-268" font-family="Helvetica,sans-Serif" font-size="10.00">getCause()</text>
<text text-anchor="start" x="73" y="-253" font-family="Helvetica,sans-Serif" font-size="10.00">+</text>
<text text-anchor="start" x="86" y="-253" font-family="Helvetica,sans-Serif" font-size="10.00">getFinalDamage()</text>
<text text-anchor="start" x="73" y="-238" font-family="Helvetica,sans-Serif" font-size="10.00">+</text>
<text text-anchor="start" x="86" y="-238" font-family="Helvetica,sans-Serif" font-size="10.00">getModifier()</text>
<text text-anchor="start" x="73" y="-223" font-family="Helvetica,sans-Serif" font-size="10.00">+</text>
<text text-anchor="start" x="86" y="-223" font-family="Helvetica,sans-Serif" font-size="10.00">getModifiers()</text>
<text text-anchor="start" x="73" y="-208" font-family="Helvetica,sans-Serif" font-size="10.00">+</text>
<text text-anchor="start" x="86" y="-208" font-family="Helvetica,sans-Serif" font-size="10.00">getOriginalBaseDamage()</text>
<text text-anchor="start" x="73" y="-193" font-family="Helvetica,sans-Serif" font-size="10.00">+</text>
<text text-anchor="start" x="86" y="-193" font-family="Helvetica,sans-Serif" font-size="10.00">getOriginalModifier()</text>
<text text-anchor="start" x="73" y="-178" font-family="Helvetica,sans-Serif" font-size="10.00">+</text>
<text text-anchor="start" x="86" y="-178" font-family="Helvetica,sans-Serif" font-size="10.00">getOriginalModifiers()</text>
<text text-anchor="start" x="73" y="-163" font-family="Helvetica,sans-Serif" font-size="10.00">+</text>
<text text-anchor="start" x="86" y="-163" font-family="Helvetica,sans-Serif" font-size="10.00">isApplicable()</text>
<text text-anchor="start" x="73" y="-148" font-family="Helvetica,sans-Serif" font-size="10.00">+</text>
<text text-anchor="start" x="86" y="-148" font-family="Helvetica,sans-Serif" font-size="10.00">setAttackCooldown()</text>
<text text-anchor="start" x="73" y="-133" font-family="Helvetica,sans-Serif" font-size="10.00">+</text>
<text text-anchor="start" x="86" y="-133" font-family="Helvetica,sans-Serif" font-size="10.00">setBaseDamage()</text>
<text text-anchor="start" x="73" y="-118" font-family="Helvetica,sans-Serif" font-size="10.00">+</text>
<text text-anchor="start" x="86" y="-118" font-family="Helvetica,sans-Serif" font-size="10.00">setModifier()</text>
<polygon fill="#666666" stroke="#666666" points="69,-503 69,-503 224,-503 224,-503 69,-503"/>
<polygon fill="#666666" stroke="#666666" points="69,-338 69,-338 84,-338 84,-338 69,-338"/>
<polygon fill="#666666" stroke="#666666" points="84,-338 84,-338 224,-338 224,-338 84,-338"/>
<polygon fill="none" stroke="#666666" points="68.5,-111 68.5,-531 223.5,-531 223.5,-111 68.5,-111"/>
</a>
</g>
</g>
<!-- Node2&#45;&gt;Node1 -->
<g id="edge1_Node000001_Node000002" class="edge">
<title>Node2&#45;&gt;Node1</title>
<g id="a_edge1_Node000001_Node000002"><a xlink:title=" ">
<path fill="none" stroke="#63b8ff" d="M146,-100.95C146,-91.53 146,-82.81 146,-75.04"/>
<polygon fill="none" stroke="#63b8ff" points="142.5,-100.99 146,-110.99 149.5,-100.99 142.5,-100.99"/>
</a>
</g>
</g>
<!-- Node3 -->
<g id="Node000003" class="node">
<title>Node3</title>
<g id="a_Node000003"><a xlink:href="../../de/d84/classpocketmine_1_1event_1_1entity_1_1_entity_event.html" target="_top" xlink:title=" ">
<polygon fill="white" stroke="transparent" points="130,-627 0,-627 0,-567 130,-567 130,-627"/>
<text text-anchor="start" x="5" y="-615" font-family="Helvetica,sans-Serif" font-size="10.00">pocketmine\event\entity</text>
<text text-anchor="start" x="35" y="-604" font-family="Helvetica,sans-Serif" font-size="10.00">\EntityEvent</text>
<text text-anchor="start" x="18" y="-589" font-family="Helvetica,sans-Serif" font-size="10.00">#</text>
<text text-anchor="start" x="45" y="-589" font-family="Helvetica,sans-Serif" font-size="10.00">$entity</text>
<text text-anchor="start" x="18" y="-574" font-family="Helvetica,sans-Serif" font-size="10.00">+</text>
<text text-anchor="start" x="45" y="-574" font-family="Helvetica,sans-Serif" font-size="10.00">getEntity()</text>
<polygon fill="#666666" stroke="#666666" points="0,-599 0,-599 130,-599 130,-599 0,-599"/>
<polygon fill="#666666" stroke="#666666" points="0,-584 0,-584 43,-584 43,-584 0,-584"/>
<polygon fill="#666666" stroke="#666666" points="43,-584 43,-584 130,-584 130,-584 43,-584"/>
<polygon fill="none" stroke="#666666" points="0,-567 0,-627 130,-627 130,-567 0,-567"/>
</a>
</g>
</g>
<!-- Node3&#45;&gt;Node2 -->
<g id="edge2_Node000002_Node000003" class="edge">
<title>Node3&#45;&gt;Node2</title>
<g id="a_edge2_Node000002_Node000003"><a xlink:title=" ">
<path fill="none" stroke="#63b8ff" d="M76.48,-557.18C78.79,-549.35 81.37,-540.61 84.14,-531.24"/>
<polygon fill="none" stroke="#63b8ff" points="73.07,-556.35 73.59,-566.94 79.78,-558.34 73.07,-556.35"/>
</a>
</g>
</g>
<!-- Node4 -->
<g id="Node000004" class="node">
<title>Node4</title>
<g id="a_Node000004"><a xlink:href="../../d1/d2f/classpocketmine_1_1event_1_1_event.html" target="_top" xlink:title=" ">
<polygon fill="white" stroke="transparent" points="129.5,-742 0.5,-742 0.5,-663 129.5,-663 129.5,-742"/>
<text text-anchor="start" x="6" y="-729.5" font-family="Helvetica,sans-Serif" font-size="10.00">pocketmine\event\Event</text>
<text text-anchor="start" x="11.5" y="-714.5" font-family="Helvetica,sans-Serif" font-size="10.00">#</text>
<text text-anchor="start" x="31" y="-714.5" font-family="Helvetica,sans-Serif" font-size="10.00">$eventName</text>
<text text-anchor="start" x="11.5" y="-699.5" font-family="Helvetica,sans-Serif" font-size="10.00">+</text>
<text text-anchor="start" x="31" y="-699.5" font-family="Helvetica,sans-Serif" font-size="10.00">call()</text>
<text text-anchor="start" x="11.5" y="-684.5" font-family="Helvetica,sans-Serif" font-size="10.00">+</text>
<text text-anchor="start" x="31" y="-684.5" font-family="Helvetica,sans-Serif" font-size="10.00">getEventName()</text>
<text text-anchor="start" x="11.5" y="-669.5" font-family="Helvetica,sans-Serif" font-size="10.00">+</text>
<text text-anchor="start" x="31" y="-669.5" font-family="Helvetica,sans-Serif" font-size="10.00">hasHandlers()</text>
<polygon fill="#bfbfbf" stroke="#bfbfbf" points="1,-724.5 1,-724.5 130,-724.5 130,-724.5 1,-724.5"/>
<polygon fill="#bfbfbf" stroke="#bfbfbf" points="1,-709.5 1,-709.5 29,-709.5 29,-709.5 1,-709.5"/>
<polygon fill="#bfbfbf" stroke="#bfbfbf" points="29,-709.5 29,-709.5 130,-709.5 130,-709.5 29,-709.5"/>
<polygon fill="none" stroke="#bfbfbf" points="0.5,-663 0.5,-742 129.5,-742 129.5,-663 0.5,-663"/>
</a>
</g>
</g>
<!-- Node4&#45;&gt;Node3 -->
<g id="edge3_Node000003_Node000004" class="edge">
<title>Node4&#45;&gt;Node3</title>
<g id="a_edge3_Node000003_Node000004"><a xlink:title=" ">
<path fill="none" stroke="#63b8ff" d="M65,-652.8C65,-644.04 65,-635.17 65,-627.19"/>
<polygon fill="none" stroke="#63b8ff" points="61.5,-652.96 65,-662.96 68.5,-652.96 61.5,-652.96"/>
</a>
</g>
</g>
<!-- Node5 -->
<g id="Node000005" class="node">
<title>Node5</title>
<g id="a_Node000005"><a xlink:href="../../db/d62/interfacepocketmine_1_1event_1_1_cancellable.html" target="_top" xlink:title=" ">
<polygon fill="white" stroke="transparent" points="306,-621.5 148,-621.5 148,-572.5 306,-572.5 306,-621.5"/>
<text text-anchor="start" x="153" y="-609" font-family="Helvetica,sans-Serif" font-size="10.00">pocketmine\event\Cancellable</text>
<text text-anchor="start" x="225" y="-594" font-family="Helvetica,sans-Serif" font-size="10.00"> </text>
<text text-anchor="start" x="170" y="-579" font-family="Helvetica,sans-Serif" font-size="10.00">+</text>
<text text-anchor="start" x="201" y="-579" font-family="Helvetica,sans-Serif" font-size="10.00">isCancelled()</text>
<polygon fill="#666666" stroke="#666666" points="148,-604 148,-604 306,-604 306,-604 148,-604"/>
<polygon fill="#666666" stroke="#666666" points="148,-589 148,-589 306,-589 306,-589 148,-589"/>
<polygon fill="none" stroke="#666666" points="148,-572.5 148,-621.5 306,-621.5 306,-572.5 148,-572.5"/>
</a>
</g>
</g>
<!-- Node5&#45;&gt;Node2 -->
<g id="edge4_Node000002_Node000005" class="edge">
<title>Node5&#45;&gt;Node2</title>
<g id="a_edge4_Node000002_Node000005"><a xlink:title=" ">
<path fill="none" stroke="#63b8ff" d="M217.1,-562.51C214.4,-553.39 211.27,-542.8 207.86,-531.24"/>
<polygon fill="none" stroke="#63b8ff" points="213.76,-563.57 219.95,-572.16 220.47,-561.58 213.76,-563.57"/>
</a>
</g>
</g>
</g>
</svg>

<g id="navigator" transform="translate(0 0)" fill="#404254">
  <rect fill="#f2f5e9" fill-opacity="0.5" stroke="#606060" stroke-width=".5" x="0" y="0" width="60" height="60"/>
  <use id="zoomplus" xlink:href="#zoomPlus" x="17" y="9" onmousedown="handleZoom(evt,'in')"/>
  <use id="zoomminus" xlink:href="#zoomMin" x="42" y="9" onmousedown="handleZoom(evt,'out')"/>
  <use id="reset" xlink:href="#resetDef" x="30" y="36" onmousedown="handleReset()"/>
   <use id="arrowup" xlink:href="#arrowUp" x="0" y="0" onmousedown="handlePan(0,-1)"/>
  <use id="arrowright" xlink:href="#arrowRight" x="0" y="0" onmousedown="handlePan(1,0)"/>
  <use id="arrowdown" xlink:href="#arrowDown" x="0" y="0" onmousedown="handlePan(0,1)"/>
  <use id="arrowleft" xlink:href="#arrowLeft" x="0" y="0" onmousedown="handlePan(-1,0)"/>
</g>
<svg viewBox="0 0 15 15" width="100%" height="30px" preserveAspectRatio="xMaxYMin meet">
 <g id="arrow_out" transform="scale(0.3 0.3)">
  <a xlink:href="classpocketmine_1_1event_1_1entity_1_1_entity_damage_by_block_event__inherit__graph_org.svg" target="_base">
   <rect id="button" ry="5" rx="5" y="6" x="6" height="38" width="38"
        fill="#f2f5e9" fill-opacity="0.5" stroke="#606060" stroke-width="1.0"/>
   <path id="arrow"
     d="M 11.500037,31.436501 C 11.940474,20.09759 22.043105,11.32322 32.158766,21.979434 L 37.068811,17.246167 C 37.068811,17.246167 37.088388,32 37.088388,32 L 22.160133,31.978069 C 22.160133,31.978069 26.997745,27.140456 26.997745,27.140456 C 18.528582,18.264221 13.291696,25.230495 11.500037,31.436501 z"
     style="fill:#404040;"/>
  </a>
 </g>
</svg>

<style type='text/css'>
<![CDATA[
[data-mouse-over-selected='false'] { opacity: 0.7; }
[data-mouse-over-selected='true']  { opacity: 1.0; }
]]>
</style>
<script type="application/ecmascript"><![CDATA[
document.addEventListener('DOMContentLoaded', (event) => {
  highlightEdges();
  highlightAdjacentNodes();
});
]]></script>
</svg>
