<?xml version="1.0" encoding="UTF-8" standalone="no"?>
<!DOCTYPE svg PUBLIC "-//W3C//DTD SVG 1.1//EN"
 "http://www.w3.org/Graphics/SVG/1.1/DTD/svg11.dtd">
<!-- Generated by graphviz version 2.43.0 (0)
 -->
<!-- Title: pocketmine\network\mcpe\protocol\TextPacket Pages: 1 -->
<svg width="684pt" height="662pt"
 viewBox="0.00 0.00 684.00 662.00" xmlns="http://www.w3.org/2000/svg" xmlns:xlink="http://www.w3.org/1999/xlink">
<g id="graph0" class="graph" transform="scale(1 1) rotate(0) translate(4 658)">
<title>pocketmine\network\mcpe\protocol\TextPacket</title>
<polygon fill="white" stroke="transparent" points="-4,4 -4,-658 680,-658 680,4 -4,4"/>
<!-- Node1 -->
<g id="node1" class="node">
<title>Node1</title>
<g id="a_node1"><a xlink:title=" ">
<polygon fill="#bfbfbf" stroke="black" points="280,-0.5 280,-244.5 424,-244.5 424,-0.5 280,-0.5"/>
<text text-anchor="start" x="288" y="-232.5" font-family="Helvetica,sans-Serif" font-size="10.00">pocketmine\network</text>
<text text-anchor="middle" x="352" y="-221.5" font-family="Helvetica,sans-Serif" font-size="10.00">\mcpe\protocol\TextPacket</text>
<polyline fill="none" stroke="black" points="280,-214.5 424,-214.5 "/>
<text text-anchor="start" x="288" y="-202.5" font-family="Helvetica,sans-Serif" font-size="10.00">+ $message</text>
<text text-anchor="start" x="288" y="-191.5" font-family="Helvetica,sans-Serif" font-size="10.00">+ $needsTranslation</text>
<text text-anchor="start" x="288" y="-180.5" font-family="Helvetica,sans-Serif" font-size="10.00">+ $parameters</text>
<text text-anchor="start" x="288" y="-169.5" font-family="Helvetica,sans-Serif" font-size="10.00">+ $platformChatId</text>
<text text-anchor="start" x="288" y="-158.5" font-family="Helvetica,sans-Serif" font-size="10.00">+ $sourceName</text>
<text text-anchor="start" x="288" y="-147.5" font-family="Helvetica,sans-Serif" font-size="10.00">+ $type</text>
<text text-anchor="start" x="288" y="-136.5" font-family="Helvetica,sans-Serif" font-size="10.00">+ $xboxUserId</text>
<text text-anchor="start" x="288" y="-125.5" font-family="Helvetica,sans-Serif" font-size="10.00">+ TYPE_TRANSLATION</text>
<text text-anchor="start" x="288" y="-114.5" font-family="Helvetica,sans-Serif" font-size="10.00">+ TYPE_WHISPER</text>
<polyline fill="none" stroke="black" points="280,-107.5 424,-107.5 "/>
<text text-anchor="start" x="288" y="-95.5" font-family="Helvetica,sans-Serif" font-size="10.00">+ handle()</text>
<text text-anchor="start" x="288" y="-84.5" font-family="Helvetica,sans-Serif" font-size="10.00">+ jukeboxPopup()</text>
<text text-anchor="start" x="288" y="-73.5" font-family="Helvetica,sans-Serif" font-size="10.00">+ popup()</text>
<text text-anchor="start" x="288" y="-62.5" font-family="Helvetica,sans-Serif" font-size="10.00">+ raw()</text>
<text text-anchor="start" x="288" y="-51.5" font-family="Helvetica,sans-Serif" font-size="10.00">+ tip()</text>
<text text-anchor="start" x="288" y="-40.5" font-family="Helvetica,sans-Serif" font-size="10.00">+ translatedPopup()</text>
<text text-anchor="start" x="288" y="-29.5" font-family="Helvetica,sans-Serif" font-size="10.00">+ translation()</text>
<text text-anchor="start" x="288" y="-18.5" font-family="Helvetica,sans-Serif" font-size="10.00"># decodePayload()</text>
<text text-anchor="start" x="288" y="-7.5" font-family="Helvetica,sans-Serif" font-size="10.00"># encodePayload()</text>
</a>
</g>
</g>
<!-- Node2 -->
<g id="node2" class="node">
<title>Node2</title>
<g id="a_node2"><a xlink:href="../../d1/ddb/classpocketmine_1_1network_1_1mcpe_1_1protocol_1_1_data_packet.html" target="_top" xlink:title=" ">
<polygon fill="white" stroke="#bfbfbf" points="341.5,-282.5 341.5,-471.5 488.5,-471.5 488.5,-282.5 341.5,-282.5"/>
<text text-anchor="start" x="349.5" y="-459.5" font-family="Helvetica,sans-Serif" font-size="10.00">pocketmine\network</text>
<text text-anchor="middle" x="415" y="-448.5" font-family="Helvetica,sans-Serif" font-size="10.00">\mcpe\protocol\DataPacket</text>
<polyline fill="none" stroke="#bfbfbf" points="341.5,-441.5 488.5,-441.5 "/>
<text text-anchor="start" x="349.5" y="-429.5" font-family="Helvetica,sans-Serif" font-size="10.00">+ $recipientSubId</text>
<text text-anchor="start" x="349.5" y="-418.5" font-family="Helvetica,sans-Serif" font-size="10.00">+ $senderSubId</text>
<polyline fill="none" stroke="#bfbfbf" points="341.5,-411.5 488.5,-411.5 "/>
<text text-anchor="start" x="349.5" y="-399.5" font-family="Helvetica,sans-Serif" font-size="10.00">+ __get()</text>
<text text-anchor="start" x="349.5" y="-388.5" font-family="Helvetica,sans-Serif" font-size="10.00">+ __set()</text>
<text text-anchor="start" x="349.5" y="-377.5" font-family="Helvetica,sans-Serif" font-size="10.00">+ canBeSentBeforeLogin()</text>
<text text-anchor="start" x="349.5" y="-366.5" font-family="Helvetica,sans-Serif" font-size="10.00">+ decode()</text>
<text text-anchor="start" x="349.5" y="-355.5" font-family="Helvetica,sans-Serif" font-size="10.00">+ encode()</text>
<text text-anchor="start" x="349.5" y="-344.5" font-family="Helvetica,sans-Serif" font-size="10.00">+ getName()</text>
<text text-anchor="start" x="349.5" y="-333.5" font-family="Helvetica,sans-Serif" font-size="10.00">+ pid()</text>
<text text-anchor="start" x="349.5" y="-322.5" font-family="Helvetica,sans-Serif" font-size="10.00"># decodeHeader()</text>
<text text-anchor="start" x="349.5" y="-311.5" font-family="Helvetica,sans-Serif" font-size="10.00"># decodePayload()</text>
<text text-anchor="start" x="349.5" y="-300.5" font-family="Helvetica,sans-Serif" font-size="10.00"># encodeHeader()</text>
<text text-anchor="start" x="349.5" y="-289.5" font-family="Helvetica,sans-Serif" font-size="10.00"># encodePayload()</text>
</a>
</g>
</g>
<!-- Node2&#45;&gt;Node1 -->
<g id="edge1" class="edge">
<title>Node2&#45;&gt;Node1</title>
<path fill="none" stroke="midnightblue" d="M389.18,-272.52C386.91,-263.41 384.59,-254.14 382.29,-244.9"/>
<polygon fill="none" stroke="midnightblue" points="385.81,-273.48 391.63,-282.34 392.61,-271.79 385.81,-273.48"/>
</g>
<!-- Node3 -->
<g id="node3" class="node">
<title>Node3</title>
<g id="a_node3"><a xlink:href="../../d4/d5d/interfacepocketmine_1_1network_1_1mcpe_1_1protocol_1_1_packet.html" target="_top" xlink:title=" ">
<polygon fill="white" stroke="#bfbfbf" points="175,-530.5 175,-653.5 321,-653.5 321,-530.5 175,-530.5"/>
<text text-anchor="start" x="183" y="-641.5" font-family="Helvetica,sans-Serif" font-size="10.00">pocketmine\network</text>
<text text-anchor="middle" x="248" y="-630.5" font-family="Helvetica,sans-Serif" font-size="10.00">\mcpe\protocol\Packet</text>
<polyline fill="none" stroke="#bfbfbf" points="175,-623.5 321,-623.5 "/>
<text text-anchor="middle" x="248" y="-611.5" font-family="Helvetica,sans-Serif" font-size="10.00"> </text>
<polyline fill="none" stroke="#bfbfbf" points="175,-604.5 321,-604.5 "/>
<text text-anchor="start" x="183" y="-592.5" font-family="Helvetica,sans-Serif" font-size="10.00">+ canBeSentBeforeLogin()</text>
<text text-anchor="start" x="183" y="-581.5" font-family="Helvetica,sans-Serif" font-size="10.00">+ decode()</text>
<text text-anchor="start" x="183" y="-570.5" font-family="Helvetica,sans-Serif" font-size="10.00">+ encode()</text>
<text text-anchor="start" x="183" y="-559.5" font-family="Helvetica,sans-Serif" font-size="10.00">+ getName()</text>
<text text-anchor="start" x="183" y="-548.5" font-family="Helvetica,sans-Serif" font-size="10.00">+ handle()</text>
<text text-anchor="start" x="183" y="-537.5" font-family="Helvetica,sans-Serif" font-size="10.00">+ pid()</text>
</a>
</g>
</g>
<!-- Node3&#45;&gt;Node2 -->
<g id="edge2" class="edge">
<title>Node3&#45;&gt;Node2</title>
<path fill="none" stroke="midnightblue" d="M302.09,-522.01C314.64,-506.01 328.2,-488.71 341.42,-471.84"/>
<polygon fill="none" stroke="midnightblue" points="299.05,-520.22 295.63,-530.25 304.56,-524.54 299.05,-520.22"/>
</g>
<!-- Node5 -->
<g id="node5" class="node">
<title>Node5</title>
<g id="a_node5"><a xlink:href="../../da/d77/interfacepocketmine_1_1network_1_1mcpe_1_1protocol_1_1_clientbound_packet.html" target="_top" xlink:title=" ">
<polygon fill="white" stroke="#bfbfbf" points="172.5,-337.5 172.5,-416.5 323.5,-416.5 323.5,-337.5 172.5,-337.5"/>
<text text-anchor="start" x="180.5" y="-404.5" font-family="Helvetica,sans-Serif" font-size="10.00">pocketmine\network</text>
<text text-anchor="start" x="180.5" y="-393.5" font-family="Helvetica,sans-Serif" font-size="10.00">\mcpe\protocol\Clientbound</text>
<text text-anchor="middle" x="248" y="-382.5" font-family="Helvetica,sans-Serif" font-size="10.00">Packet</text>
<polyline fill="none" stroke="#bfbfbf" points="172.5,-375.5 323.5,-375.5 "/>
<text text-anchor="middle" x="248" y="-363.5" font-family="Helvetica,sans-Serif" font-size="10.00"> </text>
<polyline fill="none" stroke="#bfbfbf" points="172.5,-356.5 323.5,-356.5 "/>
<text text-anchor="middle" x="248" y="-344.5" font-family="Helvetica,sans-Serif" font-size="10.00"> </text>
</a>
</g>
</g>
<!-- Node3&#45;&gt;Node5 -->
<g id="edge5" class="edge">
<title>Node3&#45;&gt;Node5</title>
<path fill="none" stroke="midnightblue" d="M248,-520.21C248,-485.68 248,-445.5 248,-416.67"/>
<polygon fill="none" stroke="midnightblue" points="244.5,-520.25 248,-530.25 251.5,-520.25 244.5,-520.25"/>
</g>
<!-- Node6 -->
<g id="node6" class="node">
<title>Node6</title>
<g id="a_node6"><a xlink:href="../../dd/de6/interfacepocketmine_1_1network_1_1mcpe_1_1protocol_1_1_serverbound_packet.html" target="_top" xlink:title=" ">
<polygon fill="white" stroke="#bfbfbf" points="0,-337.5 0,-416.5 154,-416.5 154,-337.5 0,-337.5"/>
<text text-anchor="start" x="8" y="-404.5" font-family="Helvetica,sans-Serif" font-size="10.00">pocketmine\network</text>
<text text-anchor="start" x="8" y="-393.5" font-family="Helvetica,sans-Serif" font-size="10.00">\mcpe\protocol\Serverbound</text>
<text text-anchor="middle" x="77" y="-382.5" font-family="Helvetica,sans-Serif" font-size="10.00">Packet</text>
<polyline fill="none" stroke="#bfbfbf" points="0,-375.5 154,-375.5 "/>
<text text-anchor="middle" x="77" y="-363.5" font-family="Helvetica,sans-Serif" font-size="10.00"> </text>
<polyline fill="none" stroke="#bfbfbf" points="0,-356.5 154,-356.5 "/>
<text text-anchor="middle" x="77" y="-344.5" font-family="Helvetica,sans-Serif" font-size="10.00"> </text>
</a>
</g>
</g>
<!-- Node3&#45;&gt;Node6 -->
<g id="edge7" class="edge">
<title>Node3&#45;&gt;Node6</title>
<path fill="none" stroke="midnightblue" d="M192.94,-522.42C164.84,-487.41 131.69,-446.12 108.05,-416.67"/>
<polygon fill="none" stroke="midnightblue" points="190.24,-524.64 199.23,-530.25 195.7,-520.26 190.24,-524.64"/>
</g>
<!-- Node4 -->
<g id="node4" class="node">
<title>Node4</title>
<g id="a_node4"><a xlink:title=" ">
<polygon fill="white" stroke="#bfbfbf" points="456.5,-563.5 456.5,-620.5 499.5,-620.5 499.5,-563.5 456.5,-563.5"/>
<text text-anchor="middle" x="478" y="-608.5" font-family="Helvetica,sans-Serif" font-size="10.00">const</text>
<polyline fill="none" stroke="#bfbfbf" points="456.5,-601.5 499.5,-601.5 "/>
<text text-anchor="middle" x="478" y="-589.5" font-family="Helvetica,sans-Serif" font-size="10.00"> </text>
<polyline fill="none" stroke="#bfbfbf" points="456.5,-582.5 499.5,-582.5 "/>
<text text-anchor="middle" x="478" y="-570.5" font-family="Helvetica,sans-Serif" font-size="10.00"> </text>
</a>
</g>
</g>
<!-- Node4&#45;&gt;Node1 -->
<g id="edge8" class="edge">
<title>Node4&#45;&gt;Node1</title>
<path fill="none" stroke="#404040" d="M492.73,-563.34C499.77,-548.56 507.44,-529.78 511,-512 524.11,-446.62 604.22,-530.87 498,-282 483.42,-247.84 458.19,-216.34 432.77,-190.57"/>
<polygon fill="none" stroke="#404040" points="432.69,-190.49 425.61,-189.12 424.15,-182.05 431.23,-183.43 432.69,-190.49"/>
<text text-anchor="middle" x="614" y="-429.5" font-family="Helvetica,sans-Serif" font-size="10.00"> +NETWORK_ID</text>
<text text-anchor="middle" x="614" y="-418.5" font-family="Helvetica,sans-Serif" font-size="10.00">+TYPE_ANNOUNCEMENT</text>
<text text-anchor="middle" x="614" y="-407.5" font-family="Helvetica,sans-Serif" font-size="10.00">+TYPE_CHAT</text>
<text text-anchor="middle" x="614" y="-396.5" font-family="Helvetica,sans-Serif" font-size="10.00">+TYPE_JSON</text>
<text text-anchor="middle" x="614" y="-385.5" font-family="Helvetica,sans-Serif" font-size="10.00">+TYPE_JSON_WHISPER</text>
<text text-anchor="middle" x="614" y="-374.5" font-family="Helvetica,sans-Serif" font-size="10.00">+TYPE_JUKEBOX_POPUP</text>
<text text-anchor="middle" x="614" y="-363.5" font-family="Helvetica,sans-Serif" font-size="10.00">+TYPE_POPUP</text>
<text text-anchor="middle" x="614" y="-352.5" font-family="Helvetica,sans-Serif" font-size="10.00">+TYPE_RAW</text>
<text text-anchor="middle" x="614" y="-341.5" font-family="Helvetica,sans-Serif" font-size="10.00">+TYPE_SYSTEM</text>
<text text-anchor="middle" x="614" y="-330.5" font-family="Helvetica,sans-Serif" font-size="10.00">+TYPE_TIP</text>
<text text-anchor="middle" x="614" y="-319.5" font-family="Helvetica,sans-Serif" font-size="10.00">...</text>
</g>
<!-- Node4&#45;&gt;Node2 -->
<g id="edge3" class="edge">
<title>Node4&#45;&gt;Node2</title>
<path fill="none" stroke="#404040" d="M458.75,-563.36C449.5,-548.73 439.11,-530.1 433,-512 429.93,-502.91 427.38,-493.3 425.27,-483.58"/>
<polygon fill="none" stroke="#404040" points="425.24,-483.46 420.15,-478.36 422.9,-471.69 427.99,-476.79 425.24,-483.46"/>
<text text-anchor="middle" x="472" y="-504" font-family="Helvetica,sans-Serif" font-size="10.00"> +NETWORK_ID</text>
<text text-anchor="middle" x="472" y="-493" font-family="Helvetica,sans-Serif" font-size="10.00">+PID_MASK</text>
</g>
<!-- Node5&#45;&gt;Node1 -->
<g id="edge4" class="edge">
<title>Node5&#45;&gt;Node1</title>
<path fill="none" stroke="midnightblue" d="M267.81,-327.91C277.6,-304.13 289.91,-274.25 302.07,-244.74"/>
<polygon fill="none" stroke="midnightblue" points="264.48,-326.8 263.91,-337.38 270.95,-329.46 264.48,-326.8"/>
</g>
<!-- Node6&#45;&gt;Node1 -->
<g id="edge6" class="edge">
<title>Node6&#45;&gt;Node1</title>
<path fill="none" stroke="midnightblue" d="M116.96,-329.9C131.08,-314.27 147.35,-296.99 163,-282 199.96,-246.6 243.59,-209.72 279.62,-180.44"/>
<polygon fill="none" stroke="midnightblue" points="114.29,-327.64 110.22,-337.42 119.5,-332.31 114.29,-327.64"/>
</g>
</g>
</svg>
