<?xml version="1.0" encoding="UTF-8" standalone="no"?>
<!DOCTYPE svg PUBLIC "-//W3C//DTD SVG 1.1//EN"
 "http://www.w3.org/Graphics/SVG/1.1/DTD/svg11.dtd">
<!-- Generated by graphviz version 2.43.0 (0)
 -->
<!-- Title: pocketmine\block\ActivatorRail Pages: 1 -->
<svg width="196pt" height="921pt"
 viewBox="0.00 0.00 196.00 921.00" xmlns="http://www.w3.org/2000/svg" xmlns:xlink="http://www.w3.org/1999/xlink">
<g id="graph0" class="graph" transform="scale(1 1) rotate(0) translate(4 917)">
<title>pocketmine\block\ActivatorRail</title>
<polygon fill="white" stroke="transparent" points="-4,4 -4,-917 192,-917 192,4 -4,4"/>
<!-- Node1 -->
<g id="node1" class="node">
<title>Node1</title>
<g id="a_node1"><a xlink:title=" ">
<polygon fill="#bfbfbf" stroke="black" points="9.5,-0.5 9.5,-57.5 178.5,-57.5 178.5,-0.5 9.5,-0.5"/>
<text text-anchor="middle" x="94" y="-45.5" font-family="Helvetica,sans-Serif" font-size="10.00">pocketmine\block\ActivatorRail</text>
<polyline fill="none" stroke="black" points="9.5,-38.5 178.5,-38.5 "/>
<text text-anchor="middle" x="94" y="-26.5" font-family="Helvetica,sans-Serif" font-size="10.00"> </text>
<polyline fill="none" stroke="black" points="9.5,-19.5 178.5,-19.5 "/>
<text text-anchor="middle" x="94" y="-7.5" font-family="Helvetica,sans-Serif" font-size="10.00"> </text>
</a>
</g>
</g>
<!-- Node2 -->
<g id="node2" class="node">
<title>Node2</title>
<g id="a_node2"><a xlink:href="../../d7/d52/classpocketmine_1_1block_1_1_straight_only_rail.html" target="_top" xlink:title=" ">
<polygon fill="white" stroke="black" points="5.5,-94.5 5.5,-206.5 182.5,-206.5 182.5,-94.5 5.5,-94.5"/>
<text text-anchor="start" x="13.5" y="-194.5" font-family="Helvetica,sans-Serif" font-size="10.00">pocketmine\block\Straight</text>
<text text-anchor="middle" x="94" y="-183.5" font-family="Helvetica,sans-Serif" font-size="10.00">OnlyRail</text>
<polyline fill="none" stroke="black" points="5.5,-176.5 182.5,-176.5 "/>
<text text-anchor="middle" x="94" y="-164.5" font-family="Helvetica,sans-Serif" font-size="10.00"> </text>
<polyline fill="none" stroke="black" points="5.5,-157.5 182.5,-157.5 "/>
<text text-anchor="start" x="13.5" y="-145.5" font-family="Helvetica,sans-Serif" font-size="10.00">+ getShape()</text>
<text text-anchor="start" x="13.5" y="-134.5" font-family="Helvetica,sans-Serif" font-size="10.00">+ setShape()</text>
<text text-anchor="start" x="13.5" y="-123.5" font-family="Helvetica,sans-Serif" font-size="10.00"># describeBlockOnlyState()</text>
<text text-anchor="start" x="13.5" y="-112.5" font-family="Helvetica,sans-Serif" font-size="10.00"># getCurrentShapeConnections()</text>
<text text-anchor="start" x="13.5" y="-101.5" font-family="Helvetica,sans-Serif" font-size="10.00"># setShapeFromConnections()</text>
</a>
</g>
</g>
<!-- Node2&#45;&gt;Node1 -->
<g id="edge1" class="edge">
<title>Node2&#45;&gt;Node1</title>
<path fill="none" stroke="midnightblue" d="M94,-84.15C94,-74.82 94,-65.67 94,-57.63"/>
<polygon fill="none" stroke="midnightblue" points="90.5,-84.3 94,-94.3 97.5,-84.3 90.5,-84.3"/>
</g>
<!-- Node3 -->
<g id="node3" class="node">
<title>Node3</title>
<g id="a_node3"><a xlink:href="../../d2/d83/classpocketmine_1_1block_1_1_base_rail.html" target="_top" xlink:title=" ">
<polygon fill="white" stroke="#bfbfbf" points="0,-243.5 0,-377.5 188,-377.5 188,-243.5 0,-243.5"/>
<text text-anchor="middle" x="94" y="-365.5" font-family="Helvetica,sans-Serif" font-size="10.00">pocketmine\block\BaseRail</text>
<polyline fill="none" stroke="#bfbfbf" points="0,-358.5 188,-358.5 "/>
<text text-anchor="middle" x="94" y="-346.5" font-family="Helvetica,sans-Serif" font-size="10.00"> </text>
<polyline fill="none" stroke="#bfbfbf" points="0,-339.5 188,-339.5 "/>
<text text-anchor="start" x="8" y="-327.5" font-family="Helvetica,sans-Serif" font-size="10.00">+ onNearbyBlockChange()</text>
<text text-anchor="start" x="8" y="-316.5" font-family="Helvetica,sans-Serif" font-size="10.00">+ onPostPlace()</text>
<text text-anchor="start" x="8" y="-305.5" font-family="Helvetica,sans-Serif" font-size="10.00">+ place()</text>
<text text-anchor="start" x="8" y="-294.5" font-family="Helvetica,sans-Serif" font-size="10.00"># getCurrentShapeConnections()</text>
<text text-anchor="start" x="8" y="-283.5" font-family="Helvetica,sans-Serif" font-size="10.00"># getPossibleConnectionDirections</text>
<text text-anchor="start" x="8" y="-272.5" font-family="Helvetica,sans-Serif" font-size="10.00">OneConstraint()</text>
<text text-anchor="start" x="8" y="-261.5" font-family="Helvetica,sans-Serif" font-size="10.00"># setShapeFromConnections()</text>
<text text-anchor="start" x="8" y="-250.5" font-family="Helvetica,sans-Serif" font-size="10.00"># searchState()</text>
</a>
</g>
</g>
<!-- Node3&#45;&gt;Node2 -->
<g id="edge2" class="edge">
<title>Node3&#45;&gt;Node2</title>
<path fill="none" stroke="midnightblue" d="M94,-233.35C94,-224.4 94,-215.4 94,-206.82"/>
<polygon fill="none" stroke="midnightblue" points="90.5,-233.41 94,-243.41 97.5,-233.41 90.5,-233.41"/>
</g>
<!-- Node4 -->
<g id="node4" class="node">
<title>Node4</title>
<g id="a_node4"><a xlink:href="../../d3/d1e/classpocketmine_1_1block_1_1_flowable.html" target="_top" xlink:title=" ">
<polygon fill="white" stroke="black" points="13.5,-414.5 13.5,-504.5 174.5,-504.5 174.5,-414.5 13.5,-414.5"/>
<text text-anchor="middle" x="94" y="-492.5" font-family="Helvetica,sans-Serif" font-size="10.00">pocketmine\block\Flowable</text>
<polyline fill="none" stroke="black" points="13.5,-485.5 174.5,-485.5 "/>
<text text-anchor="middle" x="94" y="-473.5" font-family="Helvetica,sans-Serif" font-size="10.00"> </text>
<polyline fill="none" stroke="black" points="13.5,-466.5 174.5,-466.5 "/>
<text text-anchor="start" x="21.5" y="-454.5" font-family="Helvetica,sans-Serif" font-size="10.00">+ canBeFlowedInto()</text>
<text text-anchor="start" x="21.5" y="-443.5" font-family="Helvetica,sans-Serif" font-size="10.00">+ getSupportType()</text>
<text text-anchor="start" x="21.5" y="-432.5" font-family="Helvetica,sans-Serif" font-size="10.00">+ isSolid()</text>
<text text-anchor="start" x="21.5" y="-421.5" font-family="Helvetica,sans-Serif" font-size="10.00"># recalculateCollisionBoxes()</text>
</a>
</g>
</g>
<!-- Node4&#45;&gt;Node3 -->
<g id="edge3" class="edge">
<title>Node4&#45;&gt;Node3</title>
<path fill="none" stroke="midnightblue" d="M94,-404.37C94,-395.66 94,-386.55 94,-377.59"/>
<polygon fill="none" stroke="midnightblue" points="90.5,-404.4 94,-414.4 97.5,-404.4 90.5,-404.4"/>
</g>
<!-- Node5 -->
<g id="node5" class="node">
<title>Node5</title>
<g id="a_node5"><a xlink:href="../../d5/d1b/classpocketmine_1_1block_1_1_transparent.html" target="_top" xlink:title=" ">
<polygon fill="white" stroke="black" points="12.5,-541.5 12.5,-598.5 175.5,-598.5 175.5,-541.5 12.5,-541.5"/>
<text text-anchor="middle" x="94" y="-586.5" font-family="Helvetica,sans-Serif" font-size="10.00">pocketmine\block\Transparent</text>
<polyline fill="none" stroke="black" points="12.5,-579.5 175.5,-579.5 "/>
<text text-anchor="middle" x="94" y="-567.5" font-family="Helvetica,sans-Serif" font-size="10.00"> </text>
<polyline fill="none" stroke="black" points="12.5,-560.5 175.5,-560.5 "/>
<text text-anchor="start" x="20.5" y="-548.5" font-family="Helvetica,sans-Serif" font-size="10.00">+ isTransparent()</text>
</a>
</g>
</g>
<!-- Node5&#45;&gt;Node4 -->
<g id="edge4" class="edge">
<title>Node5&#45;&gt;Node4</title>
<path fill="none" stroke="midnightblue" d="M94,-531.21C94,-522.61 94,-513.39 94,-504.55"/>
<polygon fill="none" stroke="midnightblue" points="90.5,-531.34 94,-541.34 97.5,-531.34 90.5,-531.34"/>
</g>
<!-- Node6 -->
<g id="node6" class="node">
<title>Node6</title>
<g id="a_node6"><a xlink:href="../../d7/d27/classpocketmine_1_1block_1_1_block.html" target="_top" xlink:title=" ">
<polygon fill="white" stroke="#bfbfbf" points="6,-635.5 6,-912.5 182,-912.5 182,-635.5 6,-635.5"/>
<text text-anchor="middle" x="94" y="-900.5" font-family="Helvetica,sans-Serif" font-size="10.00">pocketmine\block\Block</text>
<polyline fill="none" stroke="#bfbfbf" points="6,-893.5 182,-893.5 "/>
<text text-anchor="start" x="14" y="-881.5" font-family="Helvetica,sans-Serif" font-size="10.00">+ EMPTY_STATE_ID</text>
<text text-anchor="start" x="14" y="-870.5" font-family="Helvetica,sans-Serif" font-size="10.00">+ INTERNAL_STATE_DATA_BITS</text>
<text text-anchor="start" x="14" y="-859.5" font-family="Helvetica,sans-Serif" font-size="10.00">+ INTERNAL_STATE_DATA_MASK</text>
<text text-anchor="start" x="14" y="-848.5" font-family="Helvetica,sans-Serif" font-size="10.00"># $collisionBoxes</text>
<text text-anchor="start" x="14" y="-837.5" font-family="Helvetica,sans-Serif" font-size="10.00"># $fallbackName</text>
<text text-anchor="start" x="14" y="-826.5" font-family="Helvetica,sans-Serif" font-size="10.00"># $idInfo</text>
<text text-anchor="start" x="14" y="-815.5" font-family="Helvetica,sans-Serif" font-size="10.00"># $position</text>
<text text-anchor="start" x="14" y="-804.5" font-family="Helvetica,sans-Serif" font-size="10.00"># $typeInfo</text>
<polyline fill="none" stroke="#bfbfbf" points="6,-797.5 182,-797.5 "/>
<text text-anchor="start" x="14" y="-785.5" font-family="Helvetica,sans-Serif" font-size="10.00">+ __construct()</text>
<text text-anchor="start" x="14" y="-774.5" font-family="Helvetica,sans-Serif" font-size="10.00">+ __clone()</text>
<text text-anchor="start" x="14" y="-763.5" font-family="Helvetica,sans-Serif" font-size="10.00">+ __toString()</text>
<text text-anchor="start" x="14" y="-752.5" font-family="Helvetica,sans-Serif" font-size="10.00">+ addVelocityToEntity()</text>
<text text-anchor="start" x="14" y="-741.5" font-family="Helvetica,sans-Serif" font-size="10.00">+ asItem()</text>
<text text-anchor="start" x="14" y="-730.5" font-family="Helvetica,sans-Serif" font-size="10.00">+ blocksDirectSkyLight()</text>
<text text-anchor="start" x="14" y="-719.5" font-family="Helvetica,sans-Serif" font-size="10.00">+ burnsForever()</text>
<text text-anchor="start" x="14" y="-708.5" font-family="Helvetica,sans-Serif" font-size="10.00">+ calculateIntercept()</text>
<text text-anchor="start" x="14" y="-697.5" font-family="Helvetica,sans-Serif" font-size="10.00">+ canBeFlowedInto()</text>
<text text-anchor="start" x="14" y="-686.5" font-family="Helvetica,sans-Serif" font-size="10.00">+ canBePlaced()</text>
<text text-anchor="start" x="14" y="-675.5" font-family="Helvetica,sans-Serif" font-size="10.00">and 59 more...</text>
<text text-anchor="start" x="14" y="-664.5" font-family="Helvetica,sans-Serif" font-size="10.00"># describeBlockOnlyState()</text>
<text text-anchor="start" x="14" y="-653.5" font-family="Helvetica,sans-Serif" font-size="10.00"># getXpDropAmount()</text>
<text text-anchor="start" x="14" y="-642.5" font-family="Helvetica,sans-Serif" font-size="10.00"># recalculateCollisionBoxes()</text>
</a>
</g>
</g>
<!-- Node6&#45;&gt;Node5 -->
<g id="edge5" class="edge">
<title>Node6&#45;&gt;Node5</title>
<path fill="none" stroke="midnightblue" d="M94,-625.41C94,-615.59 94,-606.52 94,-598.71"/>
<polygon fill="none" stroke="midnightblue" points="90.5,-625.47 94,-635.47 97.5,-625.47 90.5,-625.47"/>
</g>
</g>
</svg>
