<?xml version="1.0" encoding="UTF-8" standalone="no"?>
<!DOCTYPE svg PUBLIC "-//W3C//DTD SVG 1.1//EN"
 "http://www.w3.org/Graphics/SVG/1.1/DTD/svg11.dtd">
<!-- Generated by graphviz version 2.43.0 (0)
 -->
<!-- Title: pocketmine\world\format\io\region\RegionWorldProvider\getAllChunks Pages: 1 -->
<svg width="287pt" height="50pt"
 viewBox="0.00 0.00 287.00 50.00" xmlns="http://www.w3.org/2000/svg" xmlns:xlink="http://www.w3.org/1999/xlink">
<g id="graph0" class="graph" transform="scale(1 1) rotate(0) translate(4 46)">
<title>pocketmine\world\format\io\region\RegionWorldProvider\getAllChunks</title>
<polygon fill="white" stroke="transparent" points="-4,4 -4,-46 283,-46 283,4 -4,4"/>
<!-- Node1 -->
<g id="node1" class="node">
<title>Node1</title>
<g id="a_node1"><a xlink:title=" ">
<polygon fill="#bfbfbf" stroke="black" points="0,-0.5 0,-41.5 167,-41.5 167,-0.5 0,-0.5"/>
<text text-anchor="start" x="8" y="-29.5" font-family="Helvetica,sans-Serif" font-size="10.00">pocketmine\world\format</text>
<text text-anchor="start" x="8" y="-18.5" font-family="Helvetica,sans-Serif" font-size="10.00">\io\region\RegionWorldProvider</text>
<text text-anchor="middle" x="83.5" y="-7.5" font-family="Helvetica,sans-Serif" font-size="10.00">\getAllChunks</text>
</a>
</g>
</g>
<!-- Node2 -->
<g id="node2" class="node">
<title>Node2</title>
<g id="a_node2"><a xlink:href="../../d4/d00/interface_logger.html#a711b6da57691871ad09531bae84d7c5e" target="_top" xlink:title=" ">
<polygon fill="white" stroke="black" points="203,-11.5 203,-30.5 279,-30.5 279,-11.5 203,-11.5"/>
<text text-anchor="middle" x="241" y="-18.5" font-family="Helvetica,sans-Serif" font-size="10.00">Logger\error</text>
</a>
</g>
</g>
<!-- Node1&#45;&gt;Node2 -->
<g id="edge1" class="edge">
<title>Node1&#45;&gt;Node2</title>
<path fill="none" stroke="midnightblue" d="M167.26,-21C176.03,-21 184.72,-21 192.87,-21"/>
<polygon fill="midnightblue" stroke="midnightblue" points="192.87,-24.5 202.87,-21 192.87,-17.5 192.87,-24.5"/>
</g>
</g>
</svg>
