<?xml version="1.0" encoding="UTF-8" standalone="no"?>
<!DOCTYPE svg PUBLIC "-//W3C//DTD SVG 1.1//EN"
 "http://www.w3.org/Graphics/SVG/1.1/DTD/svg11.dtd">
<!-- Generated by graphviz version 2.43.0 (0)
 -->
<!-- Title: pocketmine\world\format\io\FastChunkSerializer\serializeTerrain Pages: 1 -->
<svg width="338pt" height="100pt"
 viewBox="0.00 0.00 338.00 99.50" xmlns="http://www.w3.org/2000/svg" xmlns:xlink="http://www.w3.org/1999/xlink">
<g id="graph0" class="graph" transform="scale(1 1) rotate(0) translate(4 95.5)">
<title>pocketmine\world\format\io\FastChunkSerializer\serializeTerrain</title>
<polygon fill="white" stroke="transparent" points="-4,4 -4,-95.5 334,-95.5 334,4 -4,4"/>
<!-- Node1 -->
<g id="node1" class="node">
<title>Node1</title>
<g id="a_node1"><a xlink:title=" ">
<polygon fill="#bfbfbf" stroke="black" points="190,-22 190,-63 330,-63 330,-22 190,-22"/>
<text text-anchor="start" x="198" y="-51" font-family="Helvetica,sans-Serif" font-size="10.00">pocketmine\world\format</text>
<text text-anchor="start" x="198" y="-40" font-family="Helvetica,sans-Serif" font-size="10.00">\io\FastChunkSerializer</text>
<text text-anchor="middle" x="260" y="-29" font-family="Helvetica,sans-Serif" font-size="10.00">\serializeTerrain</text>
</a>
</g>
</g>
<!-- Node2 -->
<g id="node2" class="node">
<title>Node2</title>
<g id="a_node2"><a xlink:href="../../d9/d7c/classpocketmine_1_1world_1_1light_1_1_light_population_task.html#a9039acb7a57973b64b732ae79458bdc2" target="_top" xlink:title=" ">
<polygon fill="white" stroke="black" points="13,-50 13,-91 141,-91 141,-50 13,-50"/>
<text text-anchor="start" x="21" y="-79" font-family="Helvetica,sans-Serif" font-size="10.00">pocketmine\world\light</text>
<text text-anchor="start" x="21" y="-68" font-family="Helvetica,sans-Serif" font-size="10.00">\LightPopulationTask\</text>
<text text-anchor="middle" x="77" y="-57" font-family="Helvetica,sans-Serif" font-size="10.00">__construct</text>
</a>
</g>
</g>
<!-- Node1&#45;&gt;Node2 -->
<g id="edge1" class="edge">
<title>Node1&#45;&gt;Node2</title>
<path fill="none" stroke="midnightblue" d="M179.59,-54.78C166.75,-56.77 153.61,-58.8 141.23,-60.72"/>
<polygon fill="midnightblue" stroke="midnightblue" points="180.45,-58.19 189.8,-53.21 179.38,-51.28 180.45,-58.19"/>
</g>
<!-- Node3 -->
<g id="node3" class="node">
<title>Node3</title>
<g id="a_node3"><a xlink:href="../../d9/d4a/classpocketmine_1_1world_1_1generator_1_1_population_task.html#aa59692e58ab8ccd632cd68383350ff05" target="_top" xlink:title=" ">
<polygon fill="white" stroke="black" points="0,-0.5 0,-30.5 154,-30.5 154,-0.5 0,-0.5"/>
<text text-anchor="start" x="8" y="-18.5" font-family="Helvetica,sans-Serif" font-size="10.00">pocketmine\world\generator</text>
<text text-anchor="middle" x="77" y="-7.5" font-family="Helvetica,sans-Serif" font-size="10.00">\PopulationTask\__construct</text>
</a>
</g>
</g>
<!-- Node1&#45;&gt;Node3 -->
<g id="edge2" class="edge">
<title>Node1&#45;&gt;Node3</title>
<path fill="none" stroke="midnightblue" d="M179.84,-30.69C171.3,-29.42 162.61,-28.12 154.1,-26.85"/>
<polygon fill="midnightblue" stroke="midnightblue" points="179.39,-34.16 189.8,-32.18 180.42,-27.24 179.39,-34.16"/>
</g>
</g>
</svg>
