<?xml version="1.0" encoding="UTF-8" standalone="no"?>
<!DOCTYPE svg PUBLIC "-//W3C//DTD SVG 1.1//EN"
 "http://www.w3.org/Graphics/SVG/1.1/DTD/svg11.dtd">
<!-- Generated by graphviz version 2.43.0 (0)
 -->
<!-- Title: pocketmine\block\utils\PillarRotation Pages: 1 -->
<svg width="848pt" height="388pt"
 viewBox="0.00 0.00 848.00 388.00" xmlns="http://www.w3.org/2000/svg" xmlns:xlink="http://www.w3.org/1999/xlink">
<g id="graph0" class="graph" transform="scale(1 1) rotate(0) translate(4 384)">
<title>pocketmine\block\utils\PillarRotation</title>
<!-- Node1 -->
<g id="Node000001" class="node">
<title>Node1</title>
<g id="a_Node000001"><a xlink:title=" ">
<polygon fill="#999999" stroke="transparent" points="478.5,-380 357.5,-380 357.5,-305 478.5,-305 478.5,-380"/>
<text text-anchor="start" x="363" y="-367.5" font-family="Helvetica,sans-Serif" font-size="10.00">pocketmine\block\utils</text>
<text text-anchor="start" x="383.5" y="-356.5" font-family="Helvetica,sans-Serif" font-size="10.00">\PillarRotation</text>
<text text-anchor="start" x="416.5" y="-341.5" font-family="Helvetica,sans-Serif" font-size="10.00"> </text>
<text text-anchor="start" x="375.5" y="-326.5" font-family="Helvetica,sans-Serif" font-size="10.00">+</text>
<text text-anchor="start" x="402" y="-326.5" font-family="Helvetica,sans-Serif" font-size="10.00">getAxis()</text>
<text text-anchor="start" x="375.5" y="-311.5" font-family="Helvetica,sans-Serif" font-size="10.00">+</text>
<text text-anchor="start" x="402" y="-311.5" font-family="Helvetica,sans-Serif" font-size="10.00">setAxis()</text>
<polygon fill="#666666" stroke="#666666" points="358,-351.5 358,-351.5 479,-351.5 479,-351.5 358,-351.5"/>
<polygon fill="#666666" stroke="#666666" points="358,-336.5 358,-336.5 479,-336.5 479,-336.5 358,-336.5"/>
<polygon fill="none" stroke="#666666" points="357.5,-305 357.5,-380 478.5,-380 478.5,-305 357.5,-305"/>
</a>
</g>
</g>
<!-- Node2 -->
<g id="Node000002" class="node">
<title>Node2</title>
<g id="a_Node000002"><a xlink:href="../../da/d24/classpocketmine_1_1block_1_1_bone_block.html" target="_top" xlink:title=" ">
<polygon fill="white" stroke="transparent" points="152,-224 0,-224 0,-175 152,-175 152,-224"/>
<text text-anchor="start" x="5" y="-211.5" font-family="Helvetica,sans-Serif" font-size="10.00">pocketmine\block\BoneBlock</text>
<text text-anchor="start" x="74" y="-196.5" font-family="Helvetica,sans-Serif" font-size="10.00"> </text>
<text text-anchor="start" x="74" y="-181.5" font-family="Helvetica,sans-Serif" font-size="10.00"> </text>
<polygon fill="#bfbfbf" stroke="#bfbfbf" points="0,-206.5 0,-206.5 152,-206.5 152,-206.5 0,-206.5"/>
<polygon fill="#bfbfbf" stroke="#bfbfbf" points="0,-191.5 0,-191.5 152,-191.5 152,-191.5 0,-191.5"/>
<polygon fill="none" stroke="#bfbfbf" points="0,-175 0,-224 152,-224 152,-175 0,-175"/>
</a>
</g>
</g>
<!-- Node1&#45;&gt;Node2 -->
<g id="edge1_Node000001_Node000002" class="edge">
<title>Node1&#45;&gt;Node2</title>
<g id="a_edge1_Node000001_Node000002"><a xlink:title=" ">
<path fill="none" stroke="#63b8ff" d="M347.24,-329.54C293.95,-318.67 220.21,-299.57 161,-269 138.27,-257.26 115.87,-238.85 99.78,-224.08"/>
<polygon fill="none" stroke="#63b8ff" points="346.78,-333.02 357.28,-331.54 348.15,-326.15 346.78,-333.02"/>
</a>
</g>
</g>
<!-- Node3 -->
<g id="Node000003" class="node">
<title>Node3</title>
<g id="a_Node000003"><a xlink:href="../../d3/dbc/classpocketmine_1_1block_1_1_chain.html" target="_top" xlink:title=" ">
<polygon fill="white" stroke="transparent" points="324,-231.5 170,-231.5 170,-167.5 324,-167.5 324,-231.5"/>
<text text-anchor="start" x="188" y="-219.5" font-family="Helvetica,sans-Serif" font-size="10.00">pocketmine\block\Chain</text>
<text text-anchor="start" x="245" y="-204.5" font-family="Helvetica,sans-Serif" font-size="10.00"> </text>
<text text-anchor="start" x="174" y="-189.5" font-family="Helvetica,sans-Serif" font-size="10.00">+</text>
<text text-anchor="start" x="187" y="-189.5" font-family="Helvetica,sans-Serif" font-size="10.00">getSupportType()</text>
<text text-anchor="start" x="174" y="-174.5" font-family="Helvetica,sans-Serif" font-size="10.00">#</text>
<text text-anchor="start" x="187" y="-174.5" font-family="Helvetica,sans-Serif" font-size="10.00">recalculateCollisionBoxes()</text>
<polygon fill="#bfbfbf" stroke="#bfbfbf" points="170,-214.5 170,-214.5 324,-214.5 324,-214.5 170,-214.5"/>
<polygon fill="#bfbfbf" stroke="#bfbfbf" points="170,-199.5 170,-199.5 324,-199.5 324,-199.5 170,-199.5"/>
<polygon fill="none" stroke="#bfbfbf" points="170,-167.5 170,-231.5 324,-231.5 324,-167.5 170,-167.5"/>
</a>
</g>
</g>
<!-- Node1&#45;&gt;Node3 -->
<g id="edge2_Node000001_Node000003" class="edge">
<title>Node1&#45;&gt;Node3</title>
<g id="a_edge2_Node000001_Node000003"><a xlink:title=" ">
<path fill="none" stroke="#63b8ff" d="M365.57,-298.27C339.41,-276.7 308.36,-251.1 284.6,-231.51"/>
<polygon fill="none" stroke="#63b8ff" points="363.58,-301.16 373.52,-304.82 368.03,-295.76 363.58,-301.16"/>
</a>
</g>
</g>
<!-- Node4 -->
<g id="Node000004" class="node">
<title>Node4</title>
<g id="a_Node000004"><a xlink:href="../../dd/dc1/classpocketmine_1_1block_1_1_hay_bale.html" target="_top" xlink:title=" ">
<polygon fill="white" stroke="transparent" points="494,-239 342,-239 342,-160 494,-160 494,-239"/>
<text text-anchor="start" x="352.5" y="-226.5" font-family="Helvetica,sans-Serif" font-size="10.00">pocketmine\block\HayBale</text>
<text text-anchor="start" x="416" y="-211.5" font-family="Helvetica,sans-Serif" font-size="10.00"> </text>
<text text-anchor="start" x="346" y="-196.5" font-family="Helvetica,sans-Serif" font-size="10.00">+</text>
<text text-anchor="start" x="359" y="-196.5" font-family="Helvetica,sans-Serif" font-size="10.00">getFlameEncouragement()</text>
<text text-anchor="start" x="346" y="-181.5" font-family="Helvetica,sans-Serif" font-size="10.00">+</text>
<text text-anchor="start" x="359" y="-181.5" font-family="Helvetica,sans-Serif" font-size="10.00">getFlammability()</text>
<text text-anchor="start" x="346" y="-166.5" font-family="Helvetica,sans-Serif" font-size="10.00">+</text>
<text text-anchor="start" x="359" y="-166.5" font-family="Helvetica,sans-Serif" font-size="10.00">onEntityLand()</text>
<polygon fill="#bfbfbf" stroke="#bfbfbf" points="342,-221.5 342,-221.5 494,-221.5 494,-221.5 342,-221.5"/>
<polygon fill="#bfbfbf" stroke="#bfbfbf" points="342,-206.5 342,-206.5 494,-206.5 494,-206.5 342,-206.5"/>
<polygon fill="none" stroke="#bfbfbf" points="342,-160 342,-239 494,-239 494,-160 342,-160"/>
</a>
</g>
</g>
<!-- Node1&#45;&gt;Node4 -->
<g id="edge3_Node000001_Node000004" class="edge">
<title>Node1&#45;&gt;Node4</title>
<g id="a_edge3_Node000001_Node000004"><a xlink:title=" ">
<path fill="none" stroke="#63b8ff" d="M418,-294.6C418,-276.71 418,-256.53 418,-239.46"/>
<polygon fill="none" stroke="#63b8ff" points="414.5,-294.82 418,-304.82 421.5,-294.82 414.5,-294.82"/>
</a>
</g>
</g>
<!-- Node5 -->
<g id="Node000005" class="node">
<title>Node5</title>
<g id="a_Node000005"><a xlink:href="../../df/d01/classpocketmine_1_1block_1_1_simple_pillar.html" target="_top" xlink:title=" ">
<polygon fill="white" stroke="transparent" points="670,-224 512,-224 512,-175 670,-175 670,-224"/>
<text text-anchor="start" x="517" y="-211.5" font-family="Helvetica,sans-Serif" font-size="10.00">pocketmine\block\SimplePillar</text>
<text text-anchor="start" x="589" y="-196.5" font-family="Helvetica,sans-Serif" font-size="10.00"> </text>
<text text-anchor="start" x="589" y="-181.5" font-family="Helvetica,sans-Serif" font-size="10.00"> </text>
<polygon fill="#bfbfbf" stroke="#bfbfbf" points="512,-206.5 512,-206.5 670,-206.5 670,-206.5 512,-206.5"/>
<polygon fill="#bfbfbf" stroke="#bfbfbf" points="512,-191.5 512,-191.5 670,-191.5 670,-191.5 512,-191.5"/>
<polygon fill="none" stroke="#bfbfbf" points="512,-175 512,-224 670,-224 670,-175 512,-175"/>
</a>
</g>
</g>
<!-- Node1&#45;&gt;Node5 -->
<g id="edge4_Node000001_Node000005" class="edge">
<title>Node1&#45;&gt;Node5</title>
<g id="a_edge4_Node000001_Node000005"><a xlink:title=" ">
<path fill="none" stroke="#63b8ff" d="M470.87,-298.41C500.82,-274 537.15,-244.39 561.96,-224.16"/>
<polygon fill="none" stroke="#63b8ff" points="468.54,-295.79 463,-304.82 472.96,-301.22 468.54,-295.79"/>
</a>
</g>
</g>
<!-- Node7 -->
<g id="Node000007" class="node">
<title>Node7</title>
<g id="a_Node000007"><a xlink:href="../../dc/d9e/classpocketmine_1_1block_1_1_wood.html" target="_top" xlink:title=" ">
<polygon fill="white" stroke="transparent" points="840,-269 688,-269 688,-130 840,-130 840,-269"/>
<text text-anchor="start" x="705.5" y="-256.5" font-family="Helvetica,sans-Serif" font-size="10.00">pocketmine\block\Wood</text>
<text text-anchor="start" x="762" y="-241.5" font-family="Helvetica,sans-Serif" font-size="10.00"> </text>
<text text-anchor="start" x="692" y="-226.5" font-family="Helvetica,sans-Serif" font-size="10.00">+</text>
<text text-anchor="start" x="705" y="-226.5" font-family="Helvetica,sans-Serif" font-size="10.00">describeBlockItemState()</text>
<text text-anchor="start" x="692" y="-211.5" font-family="Helvetica,sans-Serif" font-size="10.00">+</text>
<text text-anchor="start" x="705" y="-211.5" font-family="Helvetica,sans-Serif" font-size="10.00">getFlameEncouragement()</text>
<text text-anchor="start" x="692" y="-196.5" font-family="Helvetica,sans-Serif" font-size="10.00">+</text>
<text text-anchor="start" x="705" y="-196.5" font-family="Helvetica,sans-Serif" font-size="10.00">getFlammability()</text>
<text text-anchor="start" x="692" y="-181.5" font-family="Helvetica,sans-Serif" font-size="10.00">+</text>
<text text-anchor="start" x="705" y="-181.5" font-family="Helvetica,sans-Serif" font-size="10.00">getFuelTime()</text>
<text text-anchor="start" x="692" y="-166.5" font-family="Helvetica,sans-Serif" font-size="10.00">+</text>
<text text-anchor="start" x="705" y="-166.5" font-family="Helvetica,sans-Serif" font-size="10.00">isStripped()</text>
<text text-anchor="start" x="692" y="-151.5" font-family="Helvetica,sans-Serif" font-size="10.00">+</text>
<text text-anchor="start" x="705" y="-151.5" font-family="Helvetica,sans-Serif" font-size="10.00">onInteract()</text>
<text text-anchor="start" x="692" y="-136.5" font-family="Helvetica,sans-Serif" font-size="10.00">+</text>
<text text-anchor="start" x="705" y="-136.5" font-family="Helvetica,sans-Serif" font-size="10.00">setStripped()</text>
<polygon fill="#bfbfbf" stroke="#bfbfbf" points="688,-251.5 688,-251.5 840,-251.5 840,-251.5 688,-251.5"/>
<polygon fill="#bfbfbf" stroke="#bfbfbf" points="688,-236.5 688,-236.5 840,-236.5 840,-236.5 688,-236.5"/>
<polygon fill="none" stroke="#bfbfbf" points="688,-130 688,-269 840,-269 840,-130 688,-130"/>
</a>
</g>
</g>
<!-- Node1&#45;&gt;Node7 -->
<g id="edge6_Node000001_Node000007" class="edge">
<title>Node1&#45;&gt;Node7</title>
<g id="a_edge6_Node000001_Node000007"><a xlink:title=" ">
<path fill="none" stroke="#63b8ff" d="M488.47,-330C542.69,-319.28 618.36,-300.16 679,-269 681.95,-267.48 684.89,-265.86 687.82,-264.14"/>
<polygon fill="none" stroke="#63b8ff" points="487.76,-326.57 478.61,-331.91 489.09,-333.45 487.76,-326.57"/>
</a>
</g>
</g>
<!-- Node6 -->
<g id="Node000006" class="node">
<title>Node6</title>
<g id="a_Node000006"><a xlink:href="../../de/d96/classpocketmine_1_1block_1_1_froglight.html" target="_top" xlink:title=" ">
<polygon fill="white" stroke="transparent" points="663.5,-94 518.5,-94 518.5,0 663.5,0 663.5,-94"/>
<text text-anchor="start" x="525" y="-82" font-family="Helvetica,sans-Serif" font-size="10.00">pocketmine\block\Froglight</text>
<text text-anchor="start" x="589.5" y="-67" font-family="Helvetica,sans-Serif" font-size="10.00"> </text>
<text text-anchor="start" x="523" y="-52" font-family="Helvetica,sans-Serif" font-size="10.00">+</text>
<text text-anchor="start" x="536" y="-52" font-family="Helvetica,sans-Serif" font-size="10.00">describeBlockItemState()</text>
<text text-anchor="start" x="523" y="-37" font-family="Helvetica,sans-Serif" font-size="10.00">+</text>
<text text-anchor="start" x="536" y="-37" font-family="Helvetica,sans-Serif" font-size="10.00">getFroglightType()</text>
<text text-anchor="start" x="523" y="-22" font-family="Helvetica,sans-Serif" font-size="10.00">+</text>
<text text-anchor="start" x="536" y="-22" font-family="Helvetica,sans-Serif" font-size="10.00">getLightLevel()</text>
<text text-anchor="start" x="523" y="-7" font-family="Helvetica,sans-Serif" font-size="10.00">+</text>
<text text-anchor="start" x="536" y="-7" font-family="Helvetica,sans-Serif" font-size="10.00">setFroglightType()</text>
<polygon fill="#bfbfbf" stroke="#bfbfbf" points="519,-77 519,-77 664,-77 664,-77 519,-77"/>
<polygon fill="#bfbfbf" stroke="#bfbfbf" points="519,-62 519,-62 664,-62 664,-62 519,-62"/>
<polygon fill="none" stroke="#bfbfbf" points="518.5,0 518.5,-94 663.5,-94 663.5,0 518.5,0"/>
</a>
</g>
</g>
<!-- Node5&#45;&gt;Node6 -->
<g id="edge5_Node000005_Node000006" class="edge">
<title>Node5&#45;&gt;Node6</title>
<g id="a_edge5_Node000005_Node000006"><a xlink:title=" ">
<path fill="none" stroke="#63b8ff" d="M591,-164.7C591,-143.86 591,-116.86 591,-94.08"/>
<polygon fill="none" stroke="#63b8ff" points="587.5,-164.98 591,-174.98 594.5,-164.98 587.5,-164.98"/>
</a>
</g>
</g>
</g>
</svg>
