<?xml version="1.0" encoding="UTF-8" standalone="no"?>
<!DOCTYPE svg PUBLIC "-//W3C//DTD SVG 1.1//EN"
 "http://www.w3.org/Graphics/SVG/1.1/DTD/svg11.dtd">
<!-- Generated by graphviz version 2.43.0 (0)
 -->
<!-- Title: pocketmine\inventory\transaction\action\InventoryAction Pages: 1 -->
<svg width="675pt" height="351pt"
 viewBox="0.00 0.00 674.50 351.00" xmlns="http://www.w3.org/2000/svg" xmlns:xlink="http://www.w3.org/1999/xlink">
<g id="graph0" class="graph" transform="scale(1 1) rotate(0) translate(4 347)">
<title>pocketmine\inventory\transaction\action\InventoryAction</title>
<!-- Node1 -->
<g id="Node000001" class="node">
<title>Node1</title>
<g id="a_Node000001"><a xlink:title=" ">
<polygon fill="#999999" stroke="transparent" points="406,-343 255,-343 255,-182 406,-182 406,-343"/>
<text text-anchor="start" x="260.5" y="-330.5" font-family="Helvetica,sans-Serif" font-size="10.00">pocketmine\inventory</text>
<text text-anchor="start" x="260.5" y="-319.5" font-family="Helvetica,sans-Serif" font-size="10.00">\transaction\action\Inventory</text>
<text text-anchor="start" x="315.5" y="-308.5" font-family="Helvetica,sans-Serif" font-size="10.00">Action</text>
<text text-anchor="start" x="329" y="-293.5" font-family="Helvetica,sans-Serif" font-size="10.00"> </text>
<text text-anchor="start" x="265.5" y="-278.5" font-family="Helvetica,sans-Serif" font-size="10.00">+</text>
<text text-anchor="start" x="284.5" y="-278.5" font-family="Helvetica,sans-Serif" font-size="10.00">__construct()</text>
<text text-anchor="start" x="265.5" y="-263.5" font-family="Helvetica,sans-Serif" font-size="10.00">+</text>
<text text-anchor="start" x="284.5" y="-263.5" font-family="Helvetica,sans-Serif" font-size="10.00">execute()</text>
<text text-anchor="start" x="265.5" y="-248.5" font-family="Helvetica,sans-Serif" font-size="10.00">+</text>
<text text-anchor="start" x="284.5" y="-248.5" font-family="Helvetica,sans-Serif" font-size="10.00">getSourceItem()</text>
<text text-anchor="start" x="265.5" y="-233.5" font-family="Helvetica,sans-Serif" font-size="10.00">+</text>
<text text-anchor="start" x="284.5" y="-233.5" font-family="Helvetica,sans-Serif" font-size="10.00">getTargetItem()</text>
<text text-anchor="start" x="265.5" y="-218.5" font-family="Helvetica,sans-Serif" font-size="10.00">+</text>
<text text-anchor="start" x="284.5" y="-218.5" font-family="Helvetica,sans-Serif" font-size="10.00">onAddToTransaction()</text>
<text text-anchor="start" x="265.5" y="-203.5" font-family="Helvetica,sans-Serif" font-size="10.00">+</text>
<text text-anchor="start" x="284.5" y="-203.5" font-family="Helvetica,sans-Serif" font-size="10.00">onPreExecute()</text>
<text text-anchor="start" x="265.5" y="-188.5" font-family="Helvetica,sans-Serif" font-size="10.00">+</text>
<text text-anchor="start" x="284.5" y="-188.5" font-family="Helvetica,sans-Serif" font-size="10.00">validate()</text>
<polygon fill="#666666" stroke="#666666" points="255.5,-303.5 255.5,-303.5 406.5,-303.5 406.5,-303.5 255.5,-303.5"/>
<polygon fill="#666666" stroke="#666666" points="255.5,-288.5 255.5,-288.5 406.5,-288.5 406.5,-288.5 255.5,-288.5"/>
<polygon fill="none" stroke="#666666" points="255,-182 255,-343 406,-343 406,-182 255,-182"/>
</a>
</g>
</g>
<!-- Node2 -->
<g id="Node000002" class="node">
<title>Node2</title>
<g id="a_Node000002"><a xlink:href="../../d8/dcd/classpocketmine_1_1inventory_1_1transaction_1_1action_1_1_create_item_action.html" target="_top" xlink:title=" ">
<polygon fill="white" stroke="transparent" points="159,-123.5 0,-123.5 0,-22.5 159,-22.5 159,-123.5"/>
<text text-anchor="start" x="5.5" y="-111" font-family="Helvetica,sans-Serif" font-size="10.00">pocketmine\inventory</text>
<text text-anchor="start" x="5.5" y="-100" font-family="Helvetica,sans-Serif" font-size="10.00">\transaction\action\CreateItem</text>
<text text-anchor="start" x="64.5" y="-89" font-family="Helvetica,sans-Serif" font-size="10.00">Action</text>
<text text-anchor="start" x="78" y="-74" font-family="Helvetica,sans-Serif" font-size="10.00"> </text>
<text text-anchor="start" x="23" y="-59" font-family="Helvetica,sans-Serif" font-size="10.00">+</text>
<text text-anchor="start" x="54.5" y="-59" font-family="Helvetica,sans-Serif" font-size="10.00">__construct()</text>
<text text-anchor="start" x="23" y="-44" font-family="Helvetica,sans-Serif" font-size="10.00">+</text>
<text text-anchor="start" x="54.5" y="-44" font-family="Helvetica,sans-Serif" font-size="10.00">execute()</text>
<text text-anchor="start" x="23" y="-29" font-family="Helvetica,sans-Serif" font-size="10.00">+</text>
<text text-anchor="start" x="54.5" y="-29" font-family="Helvetica,sans-Serif" font-size="10.00">validate()</text>
<polygon fill="#666666" stroke="#666666" points="0.5,-84 0.5,-84 159.5,-84 159.5,-84 0.5,-84"/>
<polygon fill="#666666" stroke="#666666" points="0.5,-69 0.5,-69 159.5,-69 159.5,-69 0.5,-69"/>
<polygon fill="none" stroke="#666666" points="0,-22.5 0,-123.5 159,-123.5 159,-22.5 0,-22.5"/>
</a>
</g>
</g>
<!-- Node1&#45;&gt;Node2 -->
<g id="edge1_Node000001_Node000002" class="edge">
<title>Node1&#45;&gt;Node2</title>
<g id="a_edge1_Node000001_Node000002"><a xlink:title=" ">
<path fill="none" stroke="#63b8ff" d="M246.43,-203.59C220.82,-185.51 192.77,-165.25 167.5,-146 158.24,-138.94 148.57,-131.31 139.17,-123.75"/>
<polygon fill="none" stroke="#63b8ff" points="244.46,-206.49 254.65,-209.38 248.49,-200.77 244.46,-206.49"/>
</a>
</g>
</g>
<!-- Node3 -->
<g id="Node000003" class="node">
<title>Node3</title>
<g id="a_Node000003"><a xlink:href="../../d1/d7b/classpocketmine_1_1inventory_1_1transaction_1_1action_1_1_destroy_item_action.html" target="_top" xlink:title=" ">
<polygon fill="white" stroke="transparent" points="320,-123.5 177,-123.5 177,-22.5 320,-22.5 320,-123.5"/>
<text text-anchor="start" x="182.5" y="-111" font-family="Helvetica,sans-Serif" font-size="10.00">pocketmine\inventory</text>
<text text-anchor="start" x="182.5" y="-100" font-family="Helvetica,sans-Serif" font-size="10.00">\transaction\action\Destroy</text>
<text text-anchor="start" x="222" y="-89" font-family="Helvetica,sans-Serif" font-size="10.00">ItemAction</text>
<text text-anchor="start" x="247" y="-74" font-family="Helvetica,sans-Serif" font-size="10.00"> </text>
<text text-anchor="start" x="196" y="-59" font-family="Helvetica,sans-Serif" font-size="10.00">+</text>
<text text-anchor="start" x="223.5" y="-59" font-family="Helvetica,sans-Serif" font-size="10.00">__construct()</text>
<text text-anchor="start" x="196" y="-44" font-family="Helvetica,sans-Serif" font-size="10.00">+</text>
<text text-anchor="start" x="223.5" y="-44" font-family="Helvetica,sans-Serif" font-size="10.00">execute()</text>
<text text-anchor="start" x="196" y="-29" font-family="Helvetica,sans-Serif" font-size="10.00">+</text>
<text text-anchor="start" x="223.5" y="-29" font-family="Helvetica,sans-Serif" font-size="10.00">validate()</text>
<polygon fill="#666666" stroke="#666666" points="177.5,-84 177.5,-84 320.5,-84 320.5,-84 177.5,-84"/>
<polygon fill="#666666" stroke="#666666" points="177.5,-69 177.5,-69 320.5,-69 320.5,-69 177.5,-69"/>
<polygon fill="none" stroke="#666666" points="177,-22.5 177,-123.5 320,-123.5 320,-22.5 177,-22.5"/>
</a>
</g>
</g>
<!-- Node1&#45;&gt;Node3 -->
<g id="edge2_Node000001_Node000003" class="edge">
<title>Node1&#45;&gt;Node3</title>
<g id="a_edge2_Node000001_Node000003"><a xlink:title=" ">
<path fill="none" stroke="#63b8ff" d="M291.65,-172.67C284.29,-155.84 276.84,-138.8 270.25,-123.73"/>
<polygon fill="none" stroke="#63b8ff" points="288.51,-174.22 295.72,-181.98 294.92,-171.42 288.51,-174.22"/>
</a>
</g>
</g>
<!-- Node4 -->
<g id="Node000004" class="node">
<title>Node4</title>
<g id="a_Node000004"><a xlink:href="../../d1/dbe/classpocketmine_1_1inventory_1_1transaction_1_1action_1_1_drop_item_action.html" target="_top" xlink:title=" ">
<polygon fill="white" stroke="transparent" points="488.5,-131 338.5,-131 338.5,-15 488.5,-15 488.5,-131"/>
<text text-anchor="start" x="343.5" y="-119" font-family="Helvetica,sans-Serif" font-size="10.00">pocketmine\inventory</text>
<text text-anchor="start" x="343.5" y="-108" font-family="Helvetica,sans-Serif" font-size="10.00">\transaction\action\DropItem</text>
<text text-anchor="start" x="398" y="-97" font-family="Helvetica,sans-Serif" font-size="10.00">Action</text>
<text text-anchor="start" x="411.5" y="-82" font-family="Helvetica,sans-Serif" font-size="10.00"> </text>
<text text-anchor="start" x="356" y="-67" font-family="Helvetica,sans-Serif" font-size="10.00">+</text>
<text text-anchor="start" x="382.5" y="-67" font-family="Helvetica,sans-Serif" font-size="10.00">__construct()</text>
<text text-anchor="start" x="356" y="-52" font-family="Helvetica,sans-Serif" font-size="10.00">+</text>
<text text-anchor="start" x="382.5" y="-52" font-family="Helvetica,sans-Serif" font-size="10.00">execute()</text>
<text text-anchor="start" x="356" y="-37" font-family="Helvetica,sans-Serif" font-size="10.00">+</text>
<text text-anchor="start" x="382.5" y="-37" font-family="Helvetica,sans-Serif" font-size="10.00">onPreExecute()</text>
<text text-anchor="start" x="356" y="-22" font-family="Helvetica,sans-Serif" font-size="10.00">+</text>
<text text-anchor="start" x="382.5" y="-22" font-family="Helvetica,sans-Serif" font-size="10.00">validate()</text>
<polygon fill="#666666" stroke="#666666" points="338.5,-92 338.5,-92 488.5,-92 488.5,-92 338.5,-92"/>
<polygon fill="#666666" stroke="#666666" points="338.5,-77 338.5,-77 488.5,-77 488.5,-77 338.5,-77"/>
<polygon fill="none" stroke="#666666" points="338.5,-15 338.5,-131 488.5,-131 488.5,-15 338.5,-15"/>
</a>
</g>
</g>
<!-- Node1&#45;&gt;Node4 -->
<g id="edge3_Node000001_Node000004" class="edge">
<title>Node1&#45;&gt;Node4</title>
<g id="a_edge3_Node000001_Node000004"><a xlink:title=" ">
<path fill="none" stroke="#63b8ff" d="M369.79,-172.73C376.05,-158.6 382.37,-144.32 388.19,-131.18"/>
<polygon fill="none" stroke="#63b8ff" points="366.55,-171.42 365.7,-181.98 372.95,-174.26 366.55,-171.42"/>
</a>
</g>
</g>
<!-- Node5 -->
<g id="Node000005" class="node">
<title>Node5</title>
<g id="a_Node000005"><a xlink:href="../../d9/dc8/classpocketmine_1_1inventory_1_1transaction_1_1action_1_1_slot_change_action.html" target="_top" xlink:title=" ">
<polygon fill="white" stroke="transparent" points="666.5,-146 506.5,-146 506.5,0 666.5,0 666.5,-146"/>
<text text-anchor="start" x="511.5" y="-134" font-family="Helvetica,sans-Serif" font-size="10.00">pocketmine\inventory</text>
<text text-anchor="start" x="511.5" y="-123" font-family="Helvetica,sans-Serif" font-size="10.00">\transaction\action\SlotChange</text>
<text text-anchor="start" x="571" y="-112" font-family="Helvetica,sans-Serif" font-size="10.00">Action</text>
<text text-anchor="start" x="584.5" y="-97" font-family="Helvetica,sans-Serif" font-size="10.00"> </text>
<text text-anchor="start" x="519" y="-82" font-family="Helvetica,sans-Serif" font-size="10.00">+</text>
<text text-anchor="start" x="540.5" y="-82" font-family="Helvetica,sans-Serif" font-size="10.00">__construct()</text>
<text text-anchor="start" x="519" y="-67" font-family="Helvetica,sans-Serif" font-size="10.00">+</text>
<text text-anchor="start" x="540.5" y="-67" font-family="Helvetica,sans-Serif" font-size="10.00">execute()</text>
<text text-anchor="start" x="519" y="-52" font-family="Helvetica,sans-Serif" font-size="10.00">+</text>
<text text-anchor="start" x="540.5" y="-52" font-family="Helvetica,sans-Serif" font-size="10.00">getInventory()</text>
<text text-anchor="start" x="519" y="-37" font-family="Helvetica,sans-Serif" font-size="10.00">+</text>
<text text-anchor="start" x="540.5" y="-37" font-family="Helvetica,sans-Serif" font-size="10.00">getSlot()</text>
<text text-anchor="start" x="519" y="-22" font-family="Helvetica,sans-Serif" font-size="10.00">+</text>
<text text-anchor="start" x="540.5" y="-22" font-family="Helvetica,sans-Serif" font-size="10.00">onAddToTransaction()</text>
<text text-anchor="start" x="519" y="-7" font-family="Helvetica,sans-Serif" font-size="10.00">+</text>
<text text-anchor="start" x="540.5" y="-7" font-family="Helvetica,sans-Serif" font-size="10.00">validate()</text>
<polygon fill="#666666" stroke="#666666" points="506.5,-107 506.5,-107 666.5,-107 666.5,-107 506.5,-107"/>
<polygon fill="#666666" stroke="#666666" points="506.5,-92 506.5,-92 666.5,-92 666.5,-92 506.5,-92"/>
<polygon fill="none" stroke="#666666" points="506.5,0 506.5,-146 666.5,-146 666.5,0 506.5,0"/>
</a>
</g>
</g>
<!-- Node1&#45;&gt;Node5 -->
<g id="edge4_Node000001_Node000005" class="edge">
<title>Node1&#45;&gt;Node5</title>
<g id="a_edge4_Node000001_Node000005"><a xlink:title=" ">
<path fill="none" stroke="#63b8ff" d="M414.75,-205.05C441.51,-186.64 471.02,-165.83 497.5,-146 500.36,-143.86 503.26,-141.66 506.18,-139.42"/>
<polygon fill="none" stroke="#63b8ff" points="412.44,-202.39 406.17,-210.94 416.4,-208.16 412.44,-202.39"/>
</a>
</g>
</g>
</g>
</svg>
