<?xml version="1.0" encoding="UTF-8" standalone="no"?>
<!DOCTYPE svg PUBLIC "-//W3C//DTD SVG 1.1//EN"
 "http://www.w3.org/Graphics/SVG/1.1/DTD/svg11.dtd">
<!-- Generated by graphviz version 2.43.0 (0)
 -->
<!-- Title: pocketmine\inventory\transaction\action\InventoryAction Pages: 1 -->
<svg width="699pt" height="325pt"
 viewBox="0.00 0.00 698.50 325.00" xmlns="http://www.w3.org/2000/svg" xmlns:xlink="http://www.w3.org/1999/xlink">
<g id="graph0" class="graph" transform="scale(1 1) rotate(0) translate(4 321)">
<title>pocketmine\inventory\transaction\action\InventoryAction</title>
<polygon fill="white" stroke="transparent" points="-4,4 -4,-321 694.5,-321 694.5,4 -4,4"/>
<!-- Node1 -->
<g id="node1" class="node">
<title>Node1</title>
<g id="a_node1"><a xlink:title=" ">
<polygon fill="#bfbfbf" stroke="black" points="264,-171.5 264,-316.5 421,-316.5 421,-171.5 264,-171.5"/>
<text text-anchor="start" x="272" y="-304.5" font-family="Helvetica,sans-Serif" font-size="10.00">pocketmine\inventory</text>
<text text-anchor="start" x="272" y="-293.5" font-family="Helvetica,sans-Serif" font-size="10.00">\transaction\action\Inventory</text>
<text text-anchor="middle" x="342.5" y="-282.5" font-family="Helvetica,sans-Serif" font-size="10.00">Action</text>
<polyline fill="none" stroke="black" points="264,-275.5 421,-275.5 "/>
<text text-anchor="middle" x="342.5" y="-263.5" font-family="Helvetica,sans-Serif" font-size="10.00"> </text>
<polyline fill="none" stroke="black" points="264,-256.5 421,-256.5 "/>
<text text-anchor="start" x="272" y="-244.5" font-family="Helvetica,sans-Serif" font-size="10.00">+ __construct()</text>
<text text-anchor="start" x="272" y="-233.5" font-family="Helvetica,sans-Serif" font-size="10.00">+ execute()</text>
<text text-anchor="start" x="272" y="-222.5" font-family="Helvetica,sans-Serif" font-size="10.00">+ getSourceItem()</text>
<text text-anchor="start" x="272" y="-211.5" font-family="Helvetica,sans-Serif" font-size="10.00">+ getTargetItem()</text>
<text text-anchor="start" x="272" y="-200.5" font-family="Helvetica,sans-Serif" font-size="10.00">+ onAddToTransaction()</text>
<text text-anchor="start" x="272" y="-189.5" font-family="Helvetica,sans-Serif" font-size="10.00">+ onPreExecute()</text>
<text text-anchor="start" x="272" y="-178.5" font-family="Helvetica,sans-Serif" font-size="10.00">+ validate()</text>
</a>
</g>
</g>
<!-- Node2 -->
<g id="node2" class="node">
<title>Node2</title>
<g id="a_node2"><a xlink:href="../../d8/dcd/classpocketmine_1_1inventory_1_1transaction_1_1action_1_1_create_item_action.html" target="_top" xlink:title=" ">
<polygon fill="white" stroke="black" points="0,-17 0,-118 165,-118 165,-17 0,-17"/>
<text text-anchor="start" x="8" y="-106" font-family="Helvetica,sans-Serif" font-size="10.00">pocketmine\inventory</text>
<text text-anchor="start" x="8" y="-95" font-family="Helvetica,sans-Serif" font-size="10.00">\transaction\action\CreateItem</text>
<text text-anchor="middle" x="82.5" y="-84" font-family="Helvetica,sans-Serif" font-size="10.00">Action</text>
<polyline fill="none" stroke="black" points="0,-77 165,-77 "/>
<text text-anchor="middle" x="82.5" y="-65" font-family="Helvetica,sans-Serif" font-size="10.00"> </text>
<polyline fill="none" stroke="black" points="0,-58 165,-58 "/>
<text text-anchor="start" x="8" y="-46" font-family="Helvetica,sans-Serif" font-size="10.00">+ __construct()</text>
<text text-anchor="start" x="8" y="-35" font-family="Helvetica,sans-Serif" font-size="10.00">+ execute()</text>
<text text-anchor="start" x="8" y="-24" font-family="Helvetica,sans-Serif" font-size="10.00">+ validate()</text>
</a>
</g>
</g>
<!-- Node1&#45;&gt;Node2 -->
<g id="edge1" class="edge">
<title>Node1&#45;&gt;Node2</title>
<path fill="none" stroke="midnightblue" d="M255.1,-188.61C228.66,-171.76 199.69,-152.91 173.5,-135 165.59,-129.59 157.37,-123.81 149.25,-118.01"/>
<polygon fill="none" stroke="midnightblue" points="253.27,-191.59 263.58,-194 257.02,-185.68 253.27,-191.59"/>
</g>
<!-- Node3 -->
<g id="node3" class="node">
<title>Node3</title>
<g id="a_node3"><a xlink:href="../../d1/d7b/classpocketmine_1_1inventory_1_1transaction_1_1action_1_1_destroy_item_action.html" target="_top" xlink:title=" ">
<polygon fill="white" stroke="black" points="183,-17 183,-118 332,-118 332,-17 183,-17"/>
<text text-anchor="start" x="191" y="-106" font-family="Helvetica,sans-Serif" font-size="10.00">pocketmine\inventory</text>
<text text-anchor="start" x="191" y="-95" font-family="Helvetica,sans-Serif" font-size="10.00">\transaction\action\Destroy</text>
<text text-anchor="middle" x="257.5" y="-84" font-family="Helvetica,sans-Serif" font-size="10.00">ItemAction</text>
<polyline fill="none" stroke="black" points="183,-77 332,-77 "/>
<text text-anchor="middle" x="257.5" y="-65" font-family="Helvetica,sans-Serif" font-size="10.00"> </text>
<polyline fill="none" stroke="black" points="183,-58 332,-58 "/>
<text text-anchor="start" x="191" y="-46" font-family="Helvetica,sans-Serif" font-size="10.00">+ __construct()</text>
<text text-anchor="start" x="191" y="-35" font-family="Helvetica,sans-Serif" font-size="10.00">+ execute()</text>
<text text-anchor="start" x="191" y="-24" font-family="Helvetica,sans-Serif" font-size="10.00">+ validate()</text>
</a>
</g>
</g>
<!-- Node1&#45;&gt;Node3 -->
<g id="edge2" class="edge">
<title>Node1&#45;&gt;Node3</title>
<path fill="none" stroke="midnightblue" d="M303.04,-162C295.75,-147.03 288.34,-131.81 281.67,-118.12"/>
<polygon fill="none" stroke="midnightblue" points="300.03,-163.81 307.56,-171.27 306.33,-160.75 300.03,-163.81"/>
</g>
<!-- Node4 -->
<g id="node4" class="node">
<title>Node4</title>
<g id="a_node4"><a xlink:href="../../d1/dbe/classpocketmine_1_1inventory_1_1transaction_1_1action_1_1_drop_item_action.html" target="_top" xlink:title=" ">
<polygon fill="white" stroke="black" points="350.5,-11.5 350.5,-123.5 506.5,-123.5 506.5,-11.5 350.5,-11.5"/>
<text text-anchor="start" x="358.5" y="-111.5" font-family="Helvetica,sans-Serif" font-size="10.00">pocketmine\inventory</text>
<text text-anchor="start" x="358.5" y="-100.5" font-family="Helvetica,sans-Serif" font-size="10.00">\transaction\action\DropItem</text>
<text text-anchor="middle" x="428.5" y="-89.5" font-family="Helvetica,sans-Serif" font-size="10.00">Action</text>
<polyline fill="none" stroke="black" points="350.5,-82.5 506.5,-82.5 "/>
<text text-anchor="middle" x="428.5" y="-70.5" font-family="Helvetica,sans-Serif" font-size="10.00"> </text>
<polyline fill="none" stroke="black" points="350.5,-63.5 506.5,-63.5 "/>
<text text-anchor="start" x="358.5" y="-51.5" font-family="Helvetica,sans-Serif" font-size="10.00">+ __construct()</text>
<text text-anchor="start" x="358.5" y="-40.5" font-family="Helvetica,sans-Serif" font-size="10.00">+ execute()</text>
<text text-anchor="start" x="358.5" y="-29.5" font-family="Helvetica,sans-Serif" font-size="10.00">+ onPreExecute()</text>
<text text-anchor="start" x="358.5" y="-18.5" font-family="Helvetica,sans-Serif" font-size="10.00">+ validate()</text>
</a>
</g>
</g>
<!-- Node1&#45;&gt;Node4 -->
<g id="edge3" class="edge">
<title>Node1&#45;&gt;Node4</title>
<path fill="none" stroke="midnightblue" d="M382.29,-162.27C388.72,-149.21 395.26,-135.95 401.3,-123.68"/>
<polygon fill="none" stroke="midnightblue" points="379.13,-160.75 377.85,-171.27 385.41,-163.85 379.13,-160.75"/>
</g>
<!-- Node5 -->
<g id="node5" class="node">
<title>Node5</title>
<g id="a_node5"><a xlink:href="../../d9/dc8/classpocketmine_1_1inventory_1_1transaction_1_1action_1_1_slot_change_action.html" target="_top" xlink:title=" ">
<polygon fill="white" stroke="black" points="524.5,-0.5 524.5,-134.5 690.5,-134.5 690.5,-0.5 524.5,-0.5"/>
<text text-anchor="start" x="532.5" y="-122.5" font-family="Helvetica,sans-Serif" font-size="10.00">pocketmine\inventory</text>
<text text-anchor="start" x="532.5" y="-111.5" font-family="Helvetica,sans-Serif" font-size="10.00">\transaction\action\SlotChange</text>
<text text-anchor="middle" x="607.5" y="-100.5" font-family="Helvetica,sans-Serif" font-size="10.00">Action</text>
<polyline fill="none" stroke="black" points="524.5,-93.5 690.5,-93.5 "/>
<text text-anchor="middle" x="607.5" y="-81.5" font-family="Helvetica,sans-Serif" font-size="10.00"> </text>
<polyline fill="none" stroke="black" points="524.5,-74.5 690.5,-74.5 "/>
<text text-anchor="start" x="532.5" y="-62.5" font-family="Helvetica,sans-Serif" font-size="10.00">+ __construct()</text>
<text text-anchor="start" x="532.5" y="-51.5" font-family="Helvetica,sans-Serif" font-size="10.00">+ execute()</text>
<text text-anchor="start" x="532.5" y="-40.5" font-family="Helvetica,sans-Serif" font-size="10.00">+ getInventory()</text>
<text text-anchor="start" x="532.5" y="-29.5" font-family="Helvetica,sans-Serif" font-size="10.00">+ getSlot()</text>
<text text-anchor="start" x="532.5" y="-18.5" font-family="Helvetica,sans-Serif" font-size="10.00">+ onAddToTransaction()</text>
<text text-anchor="start" x="532.5" y="-7.5" font-family="Helvetica,sans-Serif" font-size="10.00">+ validate()</text>
</a>
</g>
</g>
<!-- Node1&#45;&gt;Node5 -->
<g id="edge4" class="edge">
<title>Node1&#45;&gt;Node5</title>
<path fill="none" stroke="midnightblue" d="M430.01,-189.97C457.62,-172.81 488.06,-153.45 515.5,-135 518.44,-133.02 521.43,-130.99 524.43,-128.93"/>
<polygon fill="none" stroke="midnightblue" points="427.81,-187.21 421.16,-195.45 431.5,-193.16 427.81,-187.21"/>
</g>
</g>
</svg>
