<?xml version="1.0" encoding="UTF-8" standalone="no"?>
<!DOCTYPE svg PUBLIC "-//W3C//DTD SVG 1.1//EN"
 "http://www.w3.org/Graphics/SVG/1.1/DTD/svg11.dtd">
<!-- Generated by graphviz version 2.43.0 (0)
 -->
<!-- Title: pocketmine\block\WoodenStairs Pages: 1 -->
<!--zoomable 1165 -->
<svg id="main" version="1.1" xmlns="http://www.w3.org/2000/svg" xmlns:xlink="http://www.w3.org/1999/xlink" xml:space="preserve" onload="init(evt)">
<style type="text/css"><![CDATA[
.edge:hover path { stroke: red; }
.edge:hover polygon { stroke: red; fill: red; }
]]></style>
<script type="text/javascript"><![CDATA[
var edges = document.getElementsByTagName('g');
if (edges && edges.length) {
  for (var i=0;i<edges.length;i++) {
    if (edges[i].id.substr(0,4)=='edge') {
      edges[i].setAttribute('class','edge');
    }
  }
}
]]></script>
        <defs>
                <circle id="rim" cx="0" cy="0" r="7"/>
                <circle id="rim2" cx="0" cy="0" r="3.5"/>
                <g id="zoomPlus">
                        <use xlink:href="#rim" fill="#404040">
                                <set attributeName="fill" to="#808080" begin="zoomplus.mouseover" end="zoomplus.mouseout"/>
                        </use>
                        <path d="M-4,0h8M0,-4v8" fill="none" stroke="white" stroke-width="1.5" pointer-events="none"/>
                </g>
                <g id="zoomMin">
                        <use xlink:href="#rim" fill="#404040">
                                <set attributeName="fill" to="#808080" begin="zoomminus.mouseover" end="zoomminus.mouseout"/>
                        </use>
                        <path d="M-4,0h8" fill="none" stroke="white" stroke-width="1.5" pointer-events="none"/>
                </g>
                <g id="dirArrow">
                        <path fill="none" stroke="white" stroke-width="1.5" d="M0,-3.0v7 M-2.5,-0.5L0,-3.0L2.5,-0.5"/>
                </g>
               <g id="resetDef">
                       <use xlink:href="#rim2" fill="#404040">
                               <set attributeName="fill" to="#808080" begin="reset.mouseover" end="reset.mouseout"/>
                       </use>
               </g>
        </defs>

<script type="text/javascript">
var viewWidth = 732;
var viewHeight = 1165;
var sectionId = 'dynsection-1';
</script>
<script xlink:href="../../svgpan.js"/>
<svg id="graph" class="graph">
<g id="viewport">
<title>pocketmine\block\WoodenStairs</title>
<polygon fill="white" stroke="transparent" points="-4,4 -4,-1161 728.31,-1161 728.31,4 -4,4"/>
<!-- Node1 -->
<g id="node1" class="node">
<title>Node1</title>
<g id="a_node1"><a xlink:title=" ">
<polygon fill="#bfbfbf" stroke="black" points="417.81,-0.5 417.81,-68.5 590.81,-68.5 590.81,-0.5 417.81,-0.5"/>
<text text-anchor="middle" x="504.31" y="-56.5" font-family="Helvetica,sans-Serif" font-size="10.00">pocketmine\block\WoodenStairs</text>
<polyline fill="none" stroke="black" points="417.81,-49.5 590.81,-49.5 "/>
<text text-anchor="middle" x="504.31" y="-37.5" font-family="Helvetica,sans-Serif" font-size="10.00"> </text>
<polyline fill="none" stroke="black" points="417.81,-30.5 590.81,-30.5 "/>
<text text-anchor="start" x="425.81" y="-18.5" font-family="Helvetica,sans-Serif" font-size="10.00">+ getFlameEncouragement()</text>
<text text-anchor="start" x="425.81" y="-7.5" font-family="Helvetica,sans-Serif" font-size="10.00">+ getFlammability()</text>
</a>
</g>
</g>
<!-- Node2 -->
<g id="node2" class="node">
<title>Node2</title>
<g id="a_node2"><a xlink:href="../../d7/d95/classpocketmine_1_1block_1_1_stair.html" target="_top" xlink:title=" ">
<polygon fill="white" stroke="#bfbfbf" points="423.81,-106.5 423.81,-273.5 584.81,-273.5 584.81,-106.5 423.81,-106.5"/>
<text text-anchor="middle" x="504.31" y="-261.5" font-family="Helvetica,sans-Serif" font-size="10.00">pocketmine\block\Stair</text>
<polyline fill="none" stroke="#bfbfbf" points="423.81,-254.5 584.81,-254.5 "/>
<text text-anchor="start" x="431.81" y="-242.5" font-family="Helvetica,sans-Serif" font-size="10.00"># $upsideDown</text>
<polyline fill="none" stroke="#bfbfbf" points="423.81,-235.5 584.81,-235.5 "/>
<text text-anchor="start" x="431.81" y="-223.5" font-family="Helvetica,sans-Serif" font-size="10.00">+ __construct()</text>
<text text-anchor="start" x="431.81" y="-212.5" font-family="Helvetica,sans-Serif" font-size="10.00">+ getShape()</text>
<text text-anchor="start" x="431.81" y="-201.5" font-family="Helvetica,sans-Serif" font-size="10.00">+ getStateBitmask()</text>
<text text-anchor="start" x="431.81" y="-190.5" font-family="Helvetica,sans-Serif" font-size="10.00">+ isUpsideDown()</text>
<text text-anchor="start" x="431.81" y="-179.5" font-family="Helvetica,sans-Serif" font-size="10.00">+ place()</text>
<text text-anchor="start" x="431.81" y="-168.5" font-family="Helvetica,sans-Serif" font-size="10.00">+ readStateFromData()</text>
<text text-anchor="start" x="431.81" y="-157.5" font-family="Helvetica,sans-Serif" font-size="10.00">+ readStateFromWorld()</text>
<text text-anchor="start" x="431.81" y="-146.5" font-family="Helvetica,sans-Serif" font-size="10.00">+ setShape()</text>
<text text-anchor="start" x="431.81" y="-135.5" font-family="Helvetica,sans-Serif" font-size="10.00">+ setUpsideDown()</text>
<text text-anchor="start" x="431.81" y="-124.5" font-family="Helvetica,sans-Serif" font-size="10.00"># recalculateCollisionBoxes()</text>
<text text-anchor="start" x="431.81" y="-113.5" font-family="Helvetica,sans-Serif" font-size="10.00"># writeStateToMeta()</text>
</a>
</g>
</g>
<!-- Node2&#45;&gt;Node1 -->
<g id="edge1" class="edge">
<title>Node2&#45;&gt;Node1</title>
<path fill="none" stroke="midnightblue" d="M504.31,-96.17C504.31,-86.44 504.31,-77.07 504.31,-68.72"/>
<polygon fill="none" stroke="midnightblue" points="500.81,-96.41 504.31,-106.41 507.81,-96.41 500.81,-96.41"/>
</g>
<!-- Node3 -->
<g id="node3" class="node">
<title>Node3</title>
<g id="a_node3"><a xlink:href="../../d5/d1b/classpocketmine_1_1block_1_1_transparent.html" target="_top" xlink:title=" ">
<polygon fill="white" stroke="#bfbfbf" points="341.81,-327 341.81,-384 504.81,-384 504.81,-327 341.81,-327"/>
<text text-anchor="middle" x="423.31" y="-372" font-family="Helvetica,sans-Serif" font-size="10.00">pocketmine\block\Transparent</text>
<polyline fill="none" stroke="#bfbfbf" points="341.81,-365 504.81,-365 "/>
<text text-anchor="middle" x="423.31" y="-353" font-family="Helvetica,sans-Serif" font-size="10.00"> </text>
<polyline fill="none" stroke="#bfbfbf" points="341.81,-346 504.81,-346 "/>
<text text-anchor="start" x="349.81" y="-334" font-family="Helvetica,sans-Serif" font-size="10.00">+ isTransparent()</text>
</a>
</g>
</g>
<!-- Node3&#45;&gt;Node2 -->
<g id="edge2" class="edge">
<title>Node3&#45;&gt;Node2</title>
<path fill="none" stroke="midnightblue" d="M441.59,-317.6C448.11,-304.43 455.75,-289.01 463.41,-273.55"/>
<polygon fill="none" stroke="midnightblue" points="438.35,-316.25 437.05,-326.76 444.62,-319.36 438.35,-316.25"/>
</g>
<!-- Node4 -->
<g id="node4" class="node">
<title>Node4</title>
<g id="a_node4"><a xlink:href="../../d7/d27/classpocketmine_1_1block_1_1_block.html" target="_top" xlink:title=" ">
<polygon fill="white" stroke="#bfbfbf" points="342.81,-427.5 342.81,-649.5 503.81,-649.5 503.81,-427.5 342.81,-427.5"/>
<text text-anchor="middle" x="423.31" y="-637.5" font-family="Helvetica,sans-Serif" font-size="10.00">pocketmine\block\Block</text>
<polyline fill="none" stroke="#bfbfbf" points="342.81,-630.5 503.81,-630.5 "/>
<text text-anchor="start" x="350.81" y="-618.5" font-family="Helvetica,sans-Serif" font-size="10.00"># $collisionBoxes</text>
<text text-anchor="start" x="350.81" y="-607.5" font-family="Helvetica,sans-Serif" font-size="10.00"># $fallbackName</text>
<polyline fill="none" stroke="#bfbfbf" points="342.81,-600.5 503.81,-600.5 "/>
<text text-anchor="start" x="350.81" y="-588.5" font-family="Helvetica,sans-Serif" font-size="10.00">+ __construct()</text>
<text text-anchor="start" x="350.81" y="-577.5" font-family="Helvetica,sans-Serif" font-size="10.00">+ __clone()</text>
<text text-anchor="start" x="350.81" y="-566.5" font-family="Helvetica,sans-Serif" font-size="10.00">+ __toString()</text>
<text text-anchor="start" x="350.81" y="-555.5" font-family="Helvetica,sans-Serif" font-size="10.00">+ addVelocityToEntity()</text>
<text text-anchor="start" x="350.81" y="-544.5" font-family="Helvetica,sans-Serif" font-size="10.00">+ asItem()</text>
<text text-anchor="start" x="350.81" y="-533.5" font-family="Helvetica,sans-Serif" font-size="10.00">+ blocksDirectSkyLight()</text>
<text text-anchor="start" x="350.81" y="-522.5" font-family="Helvetica,sans-Serif" font-size="10.00">+ burnsForever()</text>
<text text-anchor="start" x="350.81" y="-511.5" font-family="Helvetica,sans-Serif" font-size="10.00">+ calculateIntercept()</text>
<text text-anchor="start" x="350.81" y="-500.5" font-family="Helvetica,sans-Serif" font-size="10.00">+ canBeFlowedInto()</text>
<text text-anchor="start" x="350.81" y="-489.5" font-family="Helvetica,sans-Serif" font-size="10.00">+ canBePlaced()</text>
<text text-anchor="start" x="350.81" y="-478.5" font-family="Helvetica,sans-Serif" font-size="10.00">and 56 more...</text>
<text text-anchor="start" x="350.81" y="-467.5" font-family="Helvetica,sans-Serif" font-size="10.00"># getXpDropAmount()</text>
<text text-anchor="start" x="350.81" y="-456.5" font-family="Helvetica,sans-Serif" font-size="10.00"># recalculateCollisionBoxes()</text>
<text text-anchor="start" x="350.81" y="-445.5" font-family="Helvetica,sans-Serif" font-size="10.00"># writeStateToItemMeta()</text>
<text text-anchor="start" x="350.81" y="-434.5" font-family="Helvetica,sans-Serif" font-size="10.00"># writeStateToMeta()</text>
</a>
</g>
</g>
<!-- Node4&#45;&gt;Node3 -->
<g id="edge3" class="edge">
<title>Node4&#45;&gt;Node3</title>
<path fill="none" stroke="midnightblue" d="M423.31,-416.94C423.31,-404.86 423.31,-393.58 423.31,-384.12"/>
<polygon fill="none" stroke="midnightblue" points="419.81,-417.26 423.31,-427.26 426.81,-417.26 419.81,-417.26"/>
</g>
<!-- Node5 -->
<g id="node5" class="node">
<title>Node5</title>
<g id="a_node5"><a xlink:title=" ">
<polygon fill="white" stroke="#bfbfbf" points="62.81,-1011.5 62.81,-1068.5 105.81,-1068.5 105.81,-1011.5 62.81,-1011.5"/>
<text text-anchor="middle" x="84.31" y="-1056.5" font-family="Helvetica,sans-Serif" font-size="10.00">const</text>
<polyline fill="none" stroke="#bfbfbf" points="62.81,-1049.5 105.81,-1049.5 "/>
<text text-anchor="middle" x="84.31" y="-1037.5" font-family="Helvetica,sans-Serif" font-size="10.00"> </text>
<polyline fill="none" stroke="#bfbfbf" points="62.81,-1030.5 105.81,-1030.5 "/>
<text text-anchor="middle" x="84.31" y="-1018.5" font-family="Helvetica,sans-Serif" font-size="10.00"> </text>
</a>
</g>
</g>
<!-- Node5&#45;&gt;Node4 -->
<g id="edge4" class="edge">
<title>Node5&#45;&gt;Node4</title>
<path fill="none" stroke="#404040" d="M67.75,-1011.36C32.95,-949.32 -39.21,-796.61 28.31,-697 95.57,-597.77 236.43,-561.05 330.46,-547.47"/>
<polygon fill="none" stroke="#404040" points="330.65,-547.44 336.05,-542.67 342.54,-545.82 337.14,-550.59 330.65,-547.44"/>
<text text-anchor="start" x="28.31" y="-789.5" font-family="Helvetica,sans-Serif" font-size="10.00"> +INTERNAL_METADATA</text>
<text text-anchor="middle" x="102.81" y="-778.5" font-family="Helvetica,sans-Serif" font-size="10.00">_BITS</text>
<text text-anchor="middle" x="102.81" y="-767.5" font-family="Helvetica,sans-Serif" font-size="10.00">+INTERNAL_METADATA_MASK</text>
</g>
<!-- Node7 -->
<g id="node7" class="node">
<title>Node7</title>
<g id="a_node7"><a xlink:href="../../d3/d10/classpocketmine_1_1block_1_1_block_break_info.html" target="_top" xlink:title=" ">
<polygon fill="white" stroke="#bfbfbf" points="186.31,-697.5 186.31,-864.5 366.31,-864.5 366.31,-697.5 186.31,-697.5"/>
<text text-anchor="middle" x="276.31" y="-852.5" font-family="Helvetica,sans-Serif" font-size="10.00">pocketmine\block\BlockBreakInfo</text>
<polyline fill="none" stroke="#bfbfbf" points="186.31,-845.5 366.31,-845.5 "/>
<text text-anchor="middle" x="276.31" y="-833.5" font-family="Helvetica,sans-Serif" font-size="10.00"> </text>
<polyline fill="none" stroke="#bfbfbf" points="186.31,-826.5 366.31,-826.5 "/>
<text text-anchor="start" x="194.31" y="-814.5" font-family="Helvetica,sans-Serif" font-size="10.00">+ __construct()</text>
<text text-anchor="start" x="194.31" y="-803.5" font-family="Helvetica,sans-Serif" font-size="10.00">+ breaksInstantly()</text>
<text text-anchor="start" x="194.31" y="-792.5" font-family="Helvetica,sans-Serif" font-size="10.00">+ getBlastResistance()</text>
<text text-anchor="start" x="194.31" y="-781.5" font-family="Helvetica,sans-Serif" font-size="10.00">+ getBreakTime()</text>
<text text-anchor="start" x="194.31" y="-770.5" font-family="Helvetica,sans-Serif" font-size="10.00">+ getHardness()</text>
<text text-anchor="start" x="194.31" y="-759.5" font-family="Helvetica,sans-Serif" font-size="10.00">+ getToolHarvestLevel()</text>
<text text-anchor="start" x="194.31" y="-748.5" font-family="Helvetica,sans-Serif" font-size="10.00">+ getToolType()</text>
<text text-anchor="start" x="194.31" y="-737.5" font-family="Helvetica,sans-Serif" font-size="10.00">+ isBreakable()</text>
<text text-anchor="start" x="194.31" y="-726.5" font-family="Helvetica,sans-Serif" font-size="10.00">+ isToolCompatible()</text>
<text text-anchor="start" x="194.31" y="-715.5" font-family="Helvetica,sans-Serif" font-size="10.00">+ indestructible()</text>
<text text-anchor="start" x="194.31" y="-704.5" font-family="Helvetica,sans-Serif" font-size="10.00">+ instant()</text>
</a>
</g>
</g>
<!-- Node5&#45;&gt;Node7 -->
<g id="edge7" class="edge">
<title>Node5&#45;&gt;Node7</title>
<path fill="none" stroke="#404040" d="M104.85,-1011.5C129.15,-978.97 170.88,-923.12 207.08,-874.66"/>
<polygon fill="none" stroke="#404040" points="207.3,-874.37 207.68,-867.17 214.48,-864.76 214.09,-871.96 207.3,-874.37"/>
<text text-anchor="middle" x="285.81" y="-897" font-family="Helvetica,sans-Serif" font-size="10.00"> +COMPATIBLE_TOOL_MULTIPLIER</text>
<text text-anchor="middle" x="285.81" y="-886" font-family="Helvetica,sans-Serif" font-size="10.00">+INCOMPATIBLE_TOOL_MULTIPLIER</text>
</g>
<!-- Node6 -->
<g id="node6" class="node">
<title>Node6</title>
<g id="a_node6"><a xlink:href="../../dd/d18/classpocketmine_1_1block_1_1_block_identifier.html" target="_top" xlink:title=" ">
<polygon fill="white" stroke="#bfbfbf" points="384.31,-725 384.31,-837 560.31,-837 560.31,-725 384.31,-725"/>
<text text-anchor="middle" x="472.31" y="-825" font-family="Helvetica,sans-Serif" font-size="10.00">pocketmine\block\BlockIdentifier</text>
<polyline fill="none" stroke="#bfbfbf" points="384.31,-818 560.31,-818 "/>
<text text-anchor="middle" x="472.31" y="-806" font-family="Helvetica,sans-Serif" font-size="10.00"> </text>
<polyline fill="none" stroke="#bfbfbf" points="384.31,-799 560.31,-799 "/>
<text text-anchor="start" x="392.31" y="-787" font-family="Helvetica,sans-Serif" font-size="10.00">+ __construct()</text>
<text text-anchor="start" x="392.31" y="-776" font-family="Helvetica,sans-Serif" font-size="10.00">+ getAllBlockIds()</text>
<text text-anchor="start" x="392.31" y="-765" font-family="Helvetica,sans-Serif" font-size="10.00">+ getBlockId()</text>
<text text-anchor="start" x="392.31" y="-754" font-family="Helvetica,sans-Serif" font-size="10.00">+ getItemId()</text>
<text text-anchor="start" x="392.31" y="-743" font-family="Helvetica,sans-Serif" font-size="10.00">+ getTileClass()</text>
<text text-anchor="start" x="392.31" y="-732" font-family="Helvetica,sans-Serif" font-size="10.00">+ getVariant()</text>
</a>
</g>
</g>
<!-- Node6&#45;&gt;Node4 -->
<g id="edge5" class="edge">
<title>Node6&#45;&gt;Node4</title>
<path fill="none" stroke="#404040" d="M461.07,-724.82C457.21,-705.9 452.73,-683.89 448.22,-661.8"/>
<polygon fill="none" stroke="#404040" points="448.19,-661.65 443.08,-656.57 445.8,-649.89 450.92,-654.97 448.19,-661.65"/>
<text text-anchor="middle" x="474.31" y="-671" font-family="Helvetica,sans-Serif" font-size="10.00"> #$idInfo</text>
</g>
<!-- Node7&#45;&gt;Node4 -->
<g id="edge6" class="edge">
<title>Node7&#45;&gt;Node4</title>
<path fill="none" stroke="#404040" d="M326.9,-697.23C334.23,-685.24 341.9,-672.69 349.57,-660.14"/>
<polygon fill="none" stroke="#404040" points="349.75,-659.84 349.47,-652.64 356.01,-649.6 356.29,-656.81 349.75,-659.84"/>
<text text-anchor="middle" x="373.31" y="-671" font-family="Helvetica,sans-Serif" font-size="10.00"> #$breakInfo</text>
</g>
<!-- Node8 -->
<g id="node8" class="node">
<title>Node8</title>
<g id="a_node8"><a xlink:href="../../d5/dd2/classpocketmine_1_1world_1_1_position.html" target="_top" xlink:title=" ">
<polygon fill="white" stroke="#bfbfbf" points="578.31,-714 578.31,-848 724.31,-848 724.31,-714 578.31,-714"/>
<text text-anchor="middle" x="651.31" y="-836" font-family="Helvetica,sans-Serif" font-size="10.00">pocketmine\world\Position</text>
<polyline fill="none" stroke="#bfbfbf" points="578.31,-829 724.31,-829 "/>
<text text-anchor="start" x="586.31" y="-817" font-family="Helvetica,sans-Serif" font-size="10.00">+ $world</text>
<polyline fill="none" stroke="#bfbfbf" points="578.31,-810 724.31,-810 "/>
<text text-anchor="start" x="586.31" y="-798" font-family="Helvetica,sans-Serif" font-size="10.00">+ __construct()</text>
<text text-anchor="start" x="586.31" y="-787" font-family="Helvetica,sans-Serif" font-size="10.00">+ __toString()</text>
<text text-anchor="start" x="586.31" y="-776" font-family="Helvetica,sans-Serif" font-size="10.00">+ asPosition()</text>
<text text-anchor="start" x="586.31" y="-765" font-family="Helvetica,sans-Serif" font-size="10.00">+ equals()</text>
<text text-anchor="start" x="586.31" y="-754" font-family="Helvetica,sans-Serif" font-size="10.00">+ getSide()</text>
<text text-anchor="start" x="586.31" y="-743" font-family="Helvetica,sans-Serif" font-size="10.00">+ getWorld()</text>
<text text-anchor="start" x="586.31" y="-732" font-family="Helvetica,sans-Serif" font-size="10.00">+ isValid()</text>
<text text-anchor="start" x="586.31" y="-721" font-family="Helvetica,sans-Serif" font-size="10.00">+ fromObject()</text>
</a>
</g>
</g>
<!-- Node8&#45;&gt;Node4 -->
<g id="edge8" class="edge">
<title>Node8&#45;&gt;Node4</title>
<path fill="none" stroke="#404040" d="M588.7,-713.96C565.25,-689.23 538.13,-660.62 512.72,-633.82"/>
<polygon fill="none" stroke="#404040" points="512.43,-633.51 505.4,-631.91 504.18,-624.8 511.21,-626.41 512.43,-633.51"/>
<text text-anchor="middle" x="579.81" y="-671" font-family="Helvetica,sans-Serif" font-size="10.00"> #$position</text>
</g>
<!-- Node9 -->
<g id="node9" class="node">
<title>Node9</title>
<g id="a_node9"><a xlink:href="../../d2/d90/classpocketmine_1_1math_1_1_vector3.html" target="_top" xlink:title=" ">
<polygon fill="white" stroke="#bfbfbf" points="580.31,-923.5 580.31,-1156.5 722.31,-1156.5 722.31,-923.5 580.31,-923.5"/>
<text text-anchor="middle" x="651.31" y="-1144.5" font-family="Helvetica,sans-Serif" font-size="10.00">pocketmine\math\Vector3</text>
<polyline fill="none" stroke="#bfbfbf" points="580.31,-1137.5 722.31,-1137.5 "/>
<text text-anchor="start" x="588.31" y="-1125.5" font-family="Helvetica,sans-Serif" font-size="10.00">+ $x</text>
<text text-anchor="start" x="588.31" y="-1114.5" font-family="Helvetica,sans-Serif" font-size="10.00">+ $y</text>
<text text-anchor="start" x="588.31" y="-1103.5" font-family="Helvetica,sans-Serif" font-size="10.00">+ $z</text>
<polyline fill="none" stroke="#bfbfbf" points="580.31,-1096.5 722.31,-1096.5 "/>
<text text-anchor="start" x="588.31" y="-1084.5" font-family="Helvetica,sans-Serif" font-size="10.00">+ __construct()</text>
<text text-anchor="start" x="588.31" y="-1073.5" font-family="Helvetica,sans-Serif" font-size="10.00">+ __toString()</text>
<text text-anchor="start" x="588.31" y="-1062.5" font-family="Helvetica,sans-Serif" font-size="10.00">+ abs()</text>
<text text-anchor="start" x="588.31" y="-1051.5" font-family="Helvetica,sans-Serif" font-size="10.00">+ add()</text>
<text text-anchor="start" x="588.31" y="-1040.5" font-family="Helvetica,sans-Serif" font-size="10.00">+ addVector()</text>
<text text-anchor="start" x="588.31" y="-1029.5" font-family="Helvetica,sans-Serif" font-size="10.00">+ asVector3()</text>
<text text-anchor="start" x="588.31" y="-1018.5" font-family="Helvetica,sans-Serif" font-size="10.00">+ ceil()</text>
<text text-anchor="start" x="588.31" y="-1007.5" font-family="Helvetica,sans-Serif" font-size="10.00">+ cross()</text>
<text text-anchor="start" x="588.31" y="-996.5" font-family="Helvetica,sans-Serif" font-size="10.00">+ distance()</text>
<text text-anchor="start" x="588.31" y="-985.5" font-family="Helvetica,sans-Serif" font-size="10.00">+ distanceSquared()</text>
<text text-anchor="start" x="588.31" y="-974.5" font-family="Helvetica,sans-Serif" font-size="10.00">and 32 more...</text>
<text text-anchor="start" x="588.31" y="-963.5" font-family="Helvetica,sans-Serif" font-size="10.00">+ maxComponents()</text>
<text text-anchor="start" x="588.31" y="-952.5" font-family="Helvetica,sans-Serif" font-size="10.00">+ minComponents()</text>
<text text-anchor="start" x="588.31" y="-941.5" font-family="Helvetica,sans-Serif" font-size="10.00">+ sum()</text>
<text text-anchor="start" x="588.31" y="-930.5" font-family="Helvetica,sans-Serif" font-size="10.00">+ zero()</text>
</a>
</g>
</g>
<!-- Node9&#45;&gt;Node8 -->
<g id="edge9" class="edge">
<title>Node9&#45;&gt;Node8</title>
<path fill="none" stroke="midnightblue" d="M651.31,-913.01C651.31,-890.62 651.31,-868.12 651.31,-848.25"/>
<polygon fill="none" stroke="midnightblue" points="647.81,-913.28 651.31,-923.28 654.81,-913.28 647.81,-913.28"/>
</g>
<!-- Node10 -->
<g id="node10" class="node">
<title>Node10</title>
<g id="a_node10"><a xlink:href="../../df/d5a/classpocketmine_1_1block_1_1utils_1_1_stair_shape.html" target="_top" xlink:title=" ">
<polygon fill="white" stroke="black" points="522.81,-321.5 522.81,-389.5 649.81,-389.5 649.81,-321.5 522.81,-321.5"/>
<text text-anchor="start" x="530.81" y="-377.5" font-family="Helvetica,sans-Serif" font-size="10.00">pocketmine\block\utils</text>
<text text-anchor="middle" x="586.31" y="-366.5" font-family="Helvetica,sans-Serif" font-size="10.00">\StairShape</text>
<polyline fill="none" stroke="black" points="522.81,-359.5 649.81,-359.5 "/>
<text text-anchor="middle" x="586.31" y="-347.5" font-family="Helvetica,sans-Serif" font-size="10.00"> </text>
<polyline fill="none" stroke="black" points="522.81,-340.5 649.81,-340.5 "/>
<text text-anchor="start" x="530.81" y="-328.5" font-family="Helvetica,sans-Serif" font-size="10.00"># setup()</text>
</a>
</g>
</g>
<!-- Node10&#45;&gt;Node2 -->
<g id="edge10" class="edge">
<title>Node10&#45;&gt;Node2</title>
<path fill="none" stroke="#404040" d="M569.71,-321.41C564.27,-310.55 557.91,-297.89 551.35,-284.8"/>
<polygon fill="none" stroke="#404040" points="551.18,-284.47 544.92,-280.9 545.8,-273.74 552.07,-277.31 551.18,-284.47"/>
<text text-anchor="middle" x="582.81" y="-295" font-family="Helvetica,sans-Serif" font-size="10.00"> #$shape</text>
</g>
</g>
</svg>
        <g id="navigator" transform="translate(0 0)" fill="#404254">
                <rect fill="#f2f5e9" fill-opacity="0.5" stroke="#606060" stroke-width=".5" x="0" y="0" width="60" height="60"/>
                <use id="zoomplus" xlink:href="#zoomPlus" x="17" y="9" onmousedown="handleZoom(evt,'in')"/>
                <use id="zoomminus" xlink:href="#zoomMin" x="42" y="9" onmousedown="handleZoom(evt,'out')"/>
                <use id="reset" xlink:href="#resetDef" x="30" y="36" onmousedown="handleReset()"/>
                <g id="arrowUp" xlink:href="#dirArrow" transform="translate(30 24)" onmousedown="handlePan(0,-1)">
                  <use xlink:href="#rim" fill="#404040">
                        <set attributeName="fill" to="#808080" begin="arrowUp.mouseover" end="arrowUp.mouseout"/>
                  </use>
                  <path fill="none" stroke="white" stroke-width="1.5" d="M0,-3.0v7 M-2.5,-0.5L0,-3.0L2.5,-0.5"/>
                </g>
                <g id="arrowRight" xlink:href="#dirArrow" transform="rotate(90) translate(36 -43)" onmousedown="handlePan(1,0)">
                  <use xlink:href="#rim" fill="#404040">
                        <set attributeName="fill" to="#808080" begin="arrowRight.mouseover" end="arrowRight.mouseout"/>
                  </use>
                  <path fill="none" stroke="white" stroke-width="1.5" d="M0,-3.0v7 M-2.5,-0.5L0,-3.0L2.5,-0.5"/>
                </g>
                <g id="arrowDown" xlink:href="#dirArrow" transform="rotate(180) translate(-30 -48)" onmousedown="handlePan(0,1)">
                  <use xlink:href="#rim" fill="#404040">
                        <set attributeName="fill" to="#808080" begin="arrowDown.mouseover" end="arrowDown.mouseout"/>
                  </use>
                  <path fill="none" stroke="white" stroke-width="1.5" d="M0,-3.0v7 M-2.5,-0.5L0,-3.0L2.5,-0.5"/>
                </g>
                <g id="arrowLeft" xlink:href="#dirArrow" transform="rotate(270) translate(-36 17)" onmousedown="handlePan(-1,0)">
                  <use xlink:href="#rim" fill="#404040">
                        <set attributeName="fill" to="#808080" begin="arrowLeft.mouseover" end="arrowLeft.mouseout"/>
                  </use>
                  <path fill="none" stroke="white" stroke-width="1.5" d="M0,-3.0v7 M-2.5,-0.5L0,-3.0L2.5,-0.5"/>
                </g>
        </g>
        <svg viewBox="0 0 15 15" width="100%" height="30px" preserveAspectRatio="xMaxYMin meet">
         <g id="arrow_out" transform="scale(0.3 0.3)">
          <a xlink:href="classpocketmine_1_1block_1_1_wooden_stairs__coll__graph_org.svg" target="_base">
           <rect id="button" ry="5" rx="5" y="6" x="6" height="38" width="38"
                fill="#f2f5e9" fill-opacity="0.5" stroke="#606060" stroke-width="1.0"/>
           <path id="arrow"
             d="M 11.500037,31.436501 C 11.940474,20.09759 22.043105,11.32322 32.158766,21.979434 L 37.068811,17.246167 C 37.068811,17.246167 37.088388,32 37.088388,32 L 22.160133,31.978069 C 22.160133,31.978069 26.997745,27.140456 26.997745,27.140456 C 18.528582,18.264221 13.291696,25.230495 11.500037,31.436501 z"
             style="fill:#404040;"/>
          </a>
         </g>
        </svg>
</svg>
