<?xml version="1.0" encoding="UTF-8" standalone="no"?>
<!DOCTYPE svg PUBLIC "-//W3C//DTD SVG 1.1//EN"
 "http://www.w3.org/Graphics/SVG/1.1/DTD/svg11.dtd">
<!-- Generated by graphviz version 2.43.0 (0)
 -->
<!-- Title: pocketmine\network\mcpe\protocol\types\AttributesUpdateEnvironment Pages: 1 -->
<svg width="167pt" height="291pt"
 viewBox="0.00 0.00 167.00 291.00" xmlns="http://www.w3.org/2000/svg" xmlns:xlink="http://www.w3.org/1999/xlink">

<svg id="main" version="1.1" xmlns="http://www.w3.org/2000/svg" xmlns:xlink="http://www.w3.org/1999/xlink" xml:space="preserve">

<style type="text/css"><![CDATA[
.node, .edge {opacity: 0.7;}
.node.selected, .edge.selected {opacity: 1;}
.edge:hover path { stroke: red; }
.edge:hover polygon { stroke: red; fill: red; }
]]></style>
<script type="application/ecmascript" xlink:href="../../svg.min.js"/>
<svg id="graph" class="graph">
<g id="graph0" class="graph" transform="scale(1 1) rotate(0) translate(4 287)">
<title>pocketmine\network\mcpe\protocol\types\AttributesUpdateEnvironment</title>
<!-- Node1 -->
<g id="Node000001" class="node">
<title>Node1</title>
<g id="a_Node000001"><a xlink:title=" ">
<polygon fill="#999999" stroke="transparent" points="159,-161 0,-161 0,0 159,0 159,-161"/>
<text text-anchor="start" x="5.5" y="-148.5" font-family="Helvetica,sans-Serif" font-size="10.00">pocketmine\network</text>
<text text-anchor="start" x="5.5" y="-137.5" font-family="Helvetica,sans-Serif" font-size="10.00">\mcpe\protocol\types</text>
<text text-anchor="start" x="5.5" y="-126.5" font-family="Helvetica,sans-Serif" font-size="10.00">\AttributesUpdateEnvironment</text>
<text text-anchor="start" x="20" y="-111.5" font-family="Helvetica,sans-Serif" font-size="10.00">+</text>
<text text-anchor="start" x="48.5" y="-111.5" font-family="Helvetica,sans-Serif" font-size="10.00">ID</text>
<text text-anchor="start" x="20" y="-96.5" font-family="Helvetica,sans-Serif" font-size="10.00">+</text>
<text text-anchor="start" x="48.5" y="-96.5" font-family="Helvetica,sans-Serif" font-size="10.00">__construct()</text>
<text text-anchor="start" x="20" y="-81.5" font-family="Helvetica,sans-Serif" font-size="10.00">+</text>
<text text-anchor="start" x="48.5" y="-81.5" font-family="Helvetica,sans-Serif" font-size="10.00">getAttributes()</text>
<text text-anchor="start" x="20" y="-66.5" font-family="Helvetica,sans-Serif" font-size="10.00">+</text>
<text text-anchor="start" x="48.5" y="-66.5" font-family="Helvetica,sans-Serif" font-size="10.00">getDimension()</text>
<text text-anchor="start" x="20" y="-51.5" font-family="Helvetica,sans-Serif" font-size="10.00">+</text>
<text text-anchor="start" x="48.5" y="-51.5" font-family="Helvetica,sans-Serif" font-size="10.00">getName()</text>
<text text-anchor="start" x="20" y="-36.5" font-family="Helvetica,sans-Serif" font-size="10.00">+</text>
<text text-anchor="start" x="48.5" y="-36.5" font-family="Helvetica,sans-Serif" font-size="10.00">getTypeId()</text>
<text text-anchor="start" x="20" y="-21.5" font-family="Helvetica,sans-Serif" font-size="10.00">+</text>
<text text-anchor="start" x="48.5" y="-21.5" font-family="Helvetica,sans-Serif" font-size="10.00">write()</text>
<text text-anchor="start" x="20" y="-6.5" font-family="Helvetica,sans-Serif" font-size="10.00">+</text>
<text text-anchor="start" x="48.5" y="-6.5" font-family="Helvetica,sans-Serif" font-size="10.00">read()</text>
<polygon fill="#666666" stroke="#666666" points="0.5,-121.5 0.5,-121.5 159.5,-121.5 159.5,-121.5 0.5,-121.5"/>
<polygon fill="#666666" stroke="#666666" points="0.5,-106.5 0.5,-106.5 46.5,-106.5 46.5,-106.5 0.5,-106.5"/>
<polygon fill="#666666" stroke="#666666" points="46.5,-106.5 46.5,-106.5 159.5,-106.5 159.5,-106.5 46.5,-106.5"/>
<polygon fill="none" stroke="#666666" points="0,0 0,-161 159,-161 159,0 0,0"/>
</a>
</g>
</g>
<!-- Node2 -->
<g id="Node000002" class="node">
<title>Node2</title>
<g id="a_Node000002"><a xlink:href="../../d6/d30/classpocketmine_1_1network_1_1mcpe_1_1protocol_1_1types_1_1_attribute_layer_sync_payload.html" target="_top" xlink:title=" ">
<polygon fill="white" stroke="transparent" points="152,-283 7,-283 7,-197 152,-197 152,-283"/>
<text text-anchor="start" x="12.5" y="-271" font-family="Helvetica,sans-Serif" font-size="10.00">pocketmine\network</text>
<text text-anchor="start" x="12.5" y="-260" font-family="Helvetica,sans-Serif" font-size="10.00">\mcpe\protocol\types</text>
<text text-anchor="start" x="12.5" y="-249" font-family="Helvetica,sans-Serif" font-size="10.00">\AttributeLayerSyncPayload</text>
<text text-anchor="start" x="78" y="-234" font-family="Helvetica,sans-Serif" font-size="10.00"> </text>
<text text-anchor="start" x="28.5" y="-219" font-family="Helvetica,sans-Serif" font-size="10.00">+</text>
<text text-anchor="start" x="58.5" y="-219" font-family="Helvetica,sans-Serif" font-size="10.00">getTypeId()</text>
<text text-anchor="start" x="28.5" y="-204" font-family="Helvetica,sans-Serif" font-size="10.00">+</text>
<text text-anchor="start" x="58.5" y="-204" font-family="Helvetica,sans-Serif" font-size="10.00">write()</text>
<polygon fill="#666666" stroke="#666666" points="7.5,-244 7.5,-244 152.5,-244 152.5,-244 7.5,-244"/>
<polygon fill="#666666" stroke="#666666" points="7.5,-229 7.5,-229 152.5,-229 152.5,-229 7.5,-229"/>
<polygon fill="none" stroke="#666666" points="7,-197 7,-283 152,-283 152,-197 7,-197"/>
</a>
</g>
</g>
<!-- Node2&#45;&gt;Node1 -->
<g id="edge1_Node000001_Node000002" class="edge">
<title>Node2&#45;&gt;Node1</title>
<g id="a_edge1_Node000001_Node000002"><a xlink:title=" ">
<path fill="none" stroke="#63b8ff" d="M79.5,-186.68C79.5,-178.49 79.5,-169.87 79.5,-161.23"/>
<polygon fill="none" stroke="#63b8ff" points="76,-186.79 79.5,-196.79 83,-186.79 76,-186.79"/>
</a>
</g>
</g>
</g>
</svg>
</svg>

<style type='text/css'>
<![CDATA[
[data-mouse-over-selected='false'] { opacity: 0.7; }
[data-mouse-over-selected='true']  { opacity: 1.0; }
]]>
</style>
<script type="application/ecmascript"><![CDATA[
document.addEventListener('DOMContentLoaded', (event) => {
  highlightEdges();
  highlightAdjacentNodes();
});
]]></script>
</svg>
