<?xml version="1.0" encoding="UTF-8" standalone="no"?>
<!DOCTYPE svg PUBLIC "-//W3C//DTD SVG 1.1//EN"
 "http://www.w3.org/Graphics/SVG/1.1/DTD/svg11.dtd">
<!-- Generated by graphviz version 2.43.0 (0)
 -->
<!-- Title: pocketmine\event\block\BlockEvent Pages: 1 -->
<svg width="2311pt" height="513pt"
 viewBox="0.00 0.00 2311.00 513.00" xmlns="http://www.w3.org/2000/svg" xmlns:xlink="http://www.w3.org/1999/xlink">
<g id="graph0" class="graph" transform="scale(1 1) rotate(0) translate(4 509)">
<title>pocketmine\event\block\BlockEvent</title>
<polygon fill="white" stroke="transparent" points="-4,4 -4,-509 2307,-509 2307,4 -4,4"/>
<!-- Node1 -->
<g id="node1" class="node">
<title>Node1</title>
<g id="a_node1"><a xlink:title=" ">
<polygon fill="#bfbfbf" stroke="black" points="1217,-320.5 1217,-399.5 1351,-399.5 1351,-320.5 1217,-320.5"/>
<text text-anchor="start" x="1225" y="-387.5" font-family="Helvetica,sans-Serif" font-size="10.00">pocketmine\event\block</text>
<text text-anchor="middle" x="1284" y="-376.5" font-family="Helvetica,sans-Serif" font-size="10.00">\BlockEvent</text>
<polyline fill="none" stroke="black" points="1217,-369.5 1351,-369.5 "/>
<text text-anchor="middle" x="1284" y="-357.5" font-family="Helvetica,sans-Serif" font-size="10.00"> </text>
<polyline fill="none" stroke="black" points="1217,-350.5 1351,-350.5 "/>
<text text-anchor="start" x="1225" y="-338.5" font-family="Helvetica,sans-Serif" font-size="10.00">+ __construct()</text>
<text text-anchor="start" x="1225" y="-327.5" font-family="Helvetica,sans-Serif" font-size="10.00">+ getBlock()</text>
</a>
</g>
</g>
<!-- Node3 -->
<g id="node3" class="node">
<title>Node3</title>
<g id="a_node3"><a xlink:href="../../d0/df9/classpocketmine_1_1event_1_1block_1_1_base_block_change_event.html" target="_top" xlink:title=" ">
<polygon fill="white" stroke="#bfbfbf" points="303.5,-160.5 303.5,-239.5 438.5,-239.5 438.5,-160.5 303.5,-160.5"/>
<text text-anchor="start" x="311.5" y="-227.5" font-family="Helvetica,sans-Serif" font-size="10.00">pocketmine\event\block</text>
<text text-anchor="middle" x="371" y="-216.5" font-family="Helvetica,sans-Serif" font-size="10.00">\BaseBlockChangeEvent</text>
<polyline fill="none" stroke="#bfbfbf" points="303.5,-209.5 438.5,-209.5 "/>
<text text-anchor="middle" x="371" y="-197.5" font-family="Helvetica,sans-Serif" font-size="10.00"> </text>
<polyline fill="none" stroke="#bfbfbf" points="303.5,-190.5 438.5,-190.5 "/>
<text text-anchor="start" x="311.5" y="-178.5" font-family="Helvetica,sans-Serif" font-size="10.00">+ __construct()</text>
<text text-anchor="start" x="311.5" y="-167.5" font-family="Helvetica,sans-Serif" font-size="10.00">+ getNewState()</text>
</a>
</g>
</g>
<!-- Node1&#45;&gt;Node3 -->
<g id="edge2" class="edge">
<title>Node1&#45;&gt;Node3</title>
<path fill="none" stroke="midnightblue" d="M1206.6,-359.06C1025.67,-358.08 580.34,-348.94 448,-284 427.71,-274.04 410.11,-256.28 396.88,-239.74"/>
<polygon fill="none" stroke="midnightblue" points="1206.82,-362.56 1216.84,-359.1 1206.85,-355.56 1206.82,-362.56"/>
</g>
<!-- Node9 -->
<g id="node9" class="node">
<title>Node9</title>
<g id="a_node9"><a xlink:href="../../de/d3a/classpocketmine_1_1event_1_1block_1_1_block_break_event.html" target="_top" xlink:title=" ">
<polygon fill="white" stroke="black" points="457,-116.5 457,-283.5 591,-283.5 591,-116.5 457,-116.5"/>
<text text-anchor="start" x="465" y="-271.5" font-family="Helvetica,sans-Serif" font-size="10.00">pocketmine\event\block</text>
<text text-anchor="middle" x="524" y="-260.5" font-family="Helvetica,sans-Serif" font-size="10.00">\BlockBreakEvent</text>
<polyline fill="none" stroke="black" points="457,-253.5 591,-253.5 "/>
<text text-anchor="start" x="465" y="-241.5" font-family="Helvetica,sans-Serif" font-size="10.00"># $blockDrops</text>
<polyline fill="none" stroke="black" points="457,-234.5 591,-234.5 "/>
<text text-anchor="start" x="465" y="-222.5" font-family="Helvetica,sans-Serif" font-size="10.00">+ __construct()</text>
<text text-anchor="start" x="465" y="-211.5" font-family="Helvetica,sans-Serif" font-size="10.00">+ getDrops()</text>
<text text-anchor="start" x="465" y="-200.5" font-family="Helvetica,sans-Serif" font-size="10.00">+ getInstaBreak()</text>
<text text-anchor="start" x="465" y="-189.5" font-family="Helvetica,sans-Serif" font-size="10.00">+ getItem()</text>
<text text-anchor="start" x="465" y="-178.5" font-family="Helvetica,sans-Serif" font-size="10.00">+ getPlayer()</text>
<text text-anchor="start" x="465" y="-167.5" font-family="Helvetica,sans-Serif" font-size="10.00">+ getXpDropAmount()</text>
<text text-anchor="start" x="465" y="-156.5" font-family="Helvetica,sans-Serif" font-size="10.00">+ setDrops()</text>
<text text-anchor="start" x="465" y="-145.5" font-family="Helvetica,sans-Serif" font-size="10.00">+ setDropsVariadic()</text>
<text text-anchor="start" x="465" y="-134.5" font-family="Helvetica,sans-Serif" font-size="10.00">+ setInstaBreak()</text>
<text text-anchor="start" x="465" y="-123.5" font-family="Helvetica,sans-Serif" font-size="10.00">+ setXpDropAmount()</text>
</a>
</g>
</g>
<!-- Node1&#45;&gt;Node9 -->
<g id="edge8" class="edge">
<title>Node1&#45;&gt;Node9</title>
<path fill="none" stroke="midnightblue" d="M1206.38,-357.31C1050.31,-352.8 704.48,-336.98 600,-284 596.95,-282.45 593.96,-280.73 591.04,-278.86"/>
<polygon fill="none" stroke="midnightblue" points="1206.74,-360.82 1216.84,-357.6 1206.94,-353.82 1206.74,-360.82"/>
</g>
<!-- Node10 -->
<g id="node10" class="node">
<title>Node10</title>
<g id="a_node10"><a xlink:href="../../db/da8/classpocketmine_1_1event_1_1block_1_1_block_burn_event.html" target="_top" xlink:title=" ">
<polygon fill="white" stroke="black" points="609,-160.5 609,-239.5 743,-239.5 743,-160.5 609,-160.5"/>
<text text-anchor="start" x="617" y="-227.5" font-family="Helvetica,sans-Serif" font-size="10.00">pocketmine\event\block</text>
<text text-anchor="middle" x="676" y="-216.5" font-family="Helvetica,sans-Serif" font-size="10.00">\BlockBurnEvent</text>
<polyline fill="none" stroke="black" points="609,-209.5 743,-209.5 "/>
<text text-anchor="middle" x="676" y="-197.5" font-family="Helvetica,sans-Serif" font-size="10.00"> </text>
<polyline fill="none" stroke="black" points="609,-190.5 743,-190.5 "/>
<text text-anchor="start" x="617" y="-178.5" font-family="Helvetica,sans-Serif" font-size="10.00">+ __construct()</text>
<text text-anchor="start" x="617" y="-167.5" font-family="Helvetica,sans-Serif" font-size="10.00">+ getCausingBlock()</text>
</a>
</g>
</g>
<!-- Node1&#45;&gt;Node10 -->
<g id="edge9" class="edge">
<title>Node1&#45;&gt;Node10</title>
<path fill="none" stroke="midnightblue" d="M1206.58,-354.51C1078.59,-346.02 829.34,-324.73 752,-284 732.29,-273.62 715.07,-256.03 702.02,-239.7"/>
<polygon fill="none" stroke="midnightblue" points="1206.5,-358.01 1216.7,-355.17 1206.95,-351.02 1206.5,-358.01"/>
</g>
<!-- Node11 -->
<g id="node11" class="node">
<title>Node11</title>
<g id="a_node11"><a xlink:href="../../d6/dfa/classpocketmine_1_1event_1_1block_1_1_block_item_pickup_event.html" target="_top" xlink:title=" ">
<polygon fill="white" stroke="black" points="761,-138.5 761,-261.5 895,-261.5 895,-138.5 761,-138.5"/>
<text text-anchor="start" x="769" y="-249.5" font-family="Helvetica,sans-Serif" font-size="10.00">pocketmine\event\block</text>
<text text-anchor="middle" x="828" y="-238.5" font-family="Helvetica,sans-Serif" font-size="10.00">\BlockItemPickupEvent</text>
<polyline fill="none" stroke="black" points="761,-231.5 895,-231.5 "/>
<text text-anchor="middle" x="828" y="-219.5" font-family="Helvetica,sans-Serif" font-size="10.00"> </text>
<polyline fill="none" stroke="black" points="761,-212.5 895,-212.5 "/>
<text text-anchor="start" x="769" y="-200.5" font-family="Helvetica,sans-Serif" font-size="10.00">+ __construct()</text>
<text text-anchor="start" x="769" y="-189.5" font-family="Helvetica,sans-Serif" font-size="10.00">+ getInventory()</text>
<text text-anchor="start" x="769" y="-178.5" font-family="Helvetica,sans-Serif" font-size="10.00">+ getItem()</text>
<text text-anchor="start" x="769" y="-167.5" font-family="Helvetica,sans-Serif" font-size="10.00">+ getOrigin()</text>
<text text-anchor="start" x="769" y="-156.5" font-family="Helvetica,sans-Serif" font-size="10.00">+ setInventory()</text>
<text text-anchor="start" x="769" y="-145.5" font-family="Helvetica,sans-Serif" font-size="10.00">+ setItem()</text>
</a>
</g>
</g>
<!-- Node1&#45;&gt;Node11 -->
<g id="edge10" class="edge">
<title>Node1&#45;&gt;Node11</title>
<path fill="none" stroke="midnightblue" d="M1206.79,-357.71C1126.39,-353.3 999.14,-337.48 904,-284 893.44,-278.06 883.54,-270.13 874.59,-261.53"/>
<polygon fill="none" stroke="midnightblue" points="1206.68,-361.21 1216.84,-358.21 1207.03,-354.22 1206.68,-361.21"/>
</g>
<!-- Node12 -->
<g id="node12" class="node">
<title>Node12</title>
<g id="a_node12"><a xlink:href="../../d9/dc5/classpocketmine_1_1event_1_1block_1_1_block_teleport_event.html" target="_top" xlink:title=" ">
<polygon fill="white" stroke="#bfbfbf" points="913,-155 913,-245 1047,-245 1047,-155 913,-155"/>
<text text-anchor="start" x="921" y="-233" font-family="Helvetica,sans-Serif" font-size="10.00">pocketmine\event\block</text>
<text text-anchor="middle" x="980" y="-222" font-family="Helvetica,sans-Serif" font-size="10.00">\BlockTeleportEvent</text>
<polyline fill="none" stroke="#bfbfbf" points="913,-215 1047,-215 "/>
<text text-anchor="middle" x="980" y="-203" font-family="Helvetica,sans-Serif" font-size="10.00"> </text>
<polyline fill="none" stroke="#bfbfbf" points="913,-196 1047,-196 "/>
<text text-anchor="start" x="921" y="-184" font-family="Helvetica,sans-Serif" font-size="10.00">+ __construct()</text>
<text text-anchor="start" x="921" y="-173" font-family="Helvetica,sans-Serif" font-size="10.00">+ getTo()</text>
<text text-anchor="start" x="921" y="-162" font-family="Helvetica,sans-Serif" font-size="10.00">+ setTo()</text>
</a>
</g>
</g>
<!-- Node1&#45;&gt;Node12 -->
<g id="edge11" class="edge">
<title>Node1&#45;&gt;Node12</title>
<path fill="none" stroke="midnightblue" d="M1206.94,-344.04C1160.59,-332.6 1101.9,-313.65 1056,-284 1040.08,-273.72 1025.31,-259.31 1013.11,-245.38"/>
<polygon fill="none" stroke="midnightblue" points="1206.39,-347.51 1216.93,-346.44 1208.02,-340.7 1206.39,-347.51"/>
</g>
<!-- Node13 -->
<g id="node13" class="node">
<title>Node13</title>
<g id="a_node13"><a xlink:href="../../d2/dfc/classpocketmine_1_1event_1_1block_1_1_block_update_event.html" target="_top" xlink:title=" ">
<polygon fill="white" stroke="black" points="1065,-166 1065,-234 1199,-234 1199,-166 1065,-166"/>
<text text-anchor="start" x="1073" y="-222" font-family="Helvetica,sans-Serif" font-size="10.00">pocketmine\event\block</text>
<text text-anchor="middle" x="1132" y="-211" font-family="Helvetica,sans-Serif" font-size="10.00">\BlockUpdateEvent</text>
<polyline fill="none" stroke="black" points="1065,-204 1199,-204 "/>
<text text-anchor="middle" x="1132" y="-192" font-family="Helvetica,sans-Serif" font-size="10.00"> </text>
<polyline fill="none" stroke="black" points="1065,-185 1199,-185 "/>
<text text-anchor="middle" x="1132" y="-173" font-family="Helvetica,sans-Serif" font-size="10.00"> </text>
</a>
</g>
</g>
<!-- Node1&#45;&gt;Node13 -->
<g id="edge12" class="edge">
<title>Node1&#45;&gt;Node13</title>
<path fill="none" stroke="midnightblue" d="M1236.89,-313.25C1227.24,-303.67 1217.22,-293.57 1208,-284 1192.41,-267.82 1175.49,-249.43 1161.58,-234.07"/>
<polygon fill="none" stroke="midnightblue" points="1234.6,-315.91 1244.18,-320.45 1239.53,-310.93 1234.6,-315.91"/>
</g>
<!-- Node14 -->
<g id="node14" class="node">
<title>Node14</title>
<g id="a_node14"><a xlink:href="../../d0/df2/classpocketmine_1_1event_1_1block_1_1_brew_item_event.html" target="_top" xlink:title=" ">
<polygon fill="white" stroke="#bfbfbf" points="1217,-133 1217,-267 1351,-267 1351,-133 1217,-133"/>
<text text-anchor="start" x="1225" y="-255" font-family="Helvetica,sans-Serif" font-size="10.00">pocketmine\event\block</text>
<text text-anchor="middle" x="1284" y="-244" font-family="Helvetica,sans-Serif" font-size="10.00">\BrewItemEvent</text>
<polyline fill="none" stroke="#bfbfbf" points="1217,-237 1351,-237 "/>
<text text-anchor="middle" x="1284" y="-225" font-family="Helvetica,sans-Serif" font-size="10.00"> </text>
<polyline fill="none" stroke="#bfbfbf" points="1217,-218 1351,-218 "/>
<text text-anchor="start" x="1225" y="-206" font-family="Helvetica,sans-Serif" font-size="10.00">+ __construct()</text>
<text text-anchor="start" x="1225" y="-195" font-family="Helvetica,sans-Serif" font-size="10.00">+ getBrewingStand()</text>
<text text-anchor="start" x="1225" y="-184" font-family="Helvetica,sans-Serif" font-size="10.00">+ getInput()</text>
<text text-anchor="start" x="1225" y="-173" font-family="Helvetica,sans-Serif" font-size="10.00">+ getRecipe()</text>
<text text-anchor="start" x="1225" y="-162" font-family="Helvetica,sans-Serif" font-size="10.00">+ getResult()</text>
<text text-anchor="start" x="1225" y="-151" font-family="Helvetica,sans-Serif" font-size="10.00">+ getSlot()</text>
<text text-anchor="start" x="1225" y="-140" font-family="Helvetica,sans-Serif" font-size="10.00">+ setResult()</text>
</a>
</g>
</g>
<!-- Node1&#45;&gt;Node14 -->
<g id="edge13" class="edge">
<title>Node1&#45;&gt;Node14</title>
<path fill="none" stroke="midnightblue" d="M1284,-310.27C1284,-296.68 1284,-281.69 1284,-267.27"/>
<polygon fill="none" stroke="midnightblue" points="1280.5,-310.35 1284,-320.35 1287.5,-310.35 1280.5,-310.35"/>
</g>
<!-- Node15 -->
<g id="node15" class="node">
<title>Node15</title>
<g id="a_node15"><a xlink:href="../../d6/d91/classpocketmine_1_1event_1_1block_1_1_brewing_fuel_use_event.html" target="_top" xlink:title=" ">
<polygon fill="white" stroke="black" points="1369,-149.5 1369,-250.5 1503,-250.5 1503,-149.5 1369,-149.5"/>
<text text-anchor="start" x="1377" y="-238.5" font-family="Helvetica,sans-Serif" font-size="10.00">pocketmine\event\block</text>
<text text-anchor="middle" x="1436" y="-227.5" font-family="Helvetica,sans-Serif" font-size="10.00">\BrewingFuelUseEvent</text>
<polyline fill="none" stroke="black" points="1369,-220.5 1503,-220.5 "/>
<text text-anchor="middle" x="1436" y="-208.5" font-family="Helvetica,sans-Serif" font-size="10.00"> </text>
<polyline fill="none" stroke="black" points="1369,-201.5 1503,-201.5 "/>
<text text-anchor="start" x="1377" y="-189.5" font-family="Helvetica,sans-Serif" font-size="10.00">+ __construct()</text>
<text text-anchor="start" x="1377" y="-178.5" font-family="Helvetica,sans-Serif" font-size="10.00">+ getBrewingStand()</text>
<text text-anchor="start" x="1377" y="-167.5" font-family="Helvetica,sans-Serif" font-size="10.00">+ getFuelTime()</text>
<text text-anchor="start" x="1377" y="-156.5" font-family="Helvetica,sans-Serif" font-size="10.00">+ setFuelTime()</text>
</a>
</g>
</g>
<!-- Node1&#45;&gt;Node15 -->
<g id="edge14" class="edge">
<title>Node1&#45;&gt;Node15</title>
<path fill="none" stroke="midnightblue" d="M1331.11,-313.25C1340.76,-303.67 1350.78,-293.57 1360,-284 1370.3,-273.31 1381.19,-261.65 1391.4,-250.54"/>
<polygon fill="none" stroke="midnightblue" points="1328.47,-310.93 1323.82,-320.45 1333.4,-315.91 1328.47,-310.93"/>
</g>
<!-- Node16 -->
<g id="node16" class="node">
<title>Node16</title>
<g id="a_node16"><a xlink:href="../../d1/d8d/classpocketmine_1_1event_1_1block_1_1_leaves_decay_event.html" target="_top" xlink:title=" ">
<polygon fill="white" stroke="black" points="1521,-166 1521,-234 1655,-234 1655,-166 1521,-166"/>
<text text-anchor="start" x="1529" y="-222" font-family="Helvetica,sans-Serif" font-size="10.00">pocketmine\event\block</text>
<text text-anchor="middle" x="1588" y="-211" font-family="Helvetica,sans-Serif" font-size="10.00">\LeavesDecayEvent</text>
<polyline fill="none" stroke="black" points="1521,-204 1655,-204 "/>
<text text-anchor="middle" x="1588" y="-192" font-family="Helvetica,sans-Serif" font-size="10.00"> </text>
<polyline fill="none" stroke="black" points="1521,-185 1655,-185 "/>
<text text-anchor="middle" x="1588" y="-173" font-family="Helvetica,sans-Serif" font-size="10.00"> </text>
</a>
</g>
</g>
<!-- Node1&#45;&gt;Node16 -->
<g id="edge15" class="edge">
<title>Node1&#45;&gt;Node16</title>
<path fill="none" stroke="midnightblue" d="M1361.06,-344.04C1407.41,-332.6 1466.1,-313.65 1512,-284 1532.19,-270.96 1550.52,-251.29 1564.12,-234.37"/>
<polygon fill="none" stroke="midnightblue" points="1359.98,-340.7 1351.07,-346.44 1361.61,-347.51 1359.98,-340.7"/>
</g>
<!-- Node17 -->
<g id="node17" class="node">
<title>Node17</title>
<g id="a_node17"><a xlink:href="../../dd/d93/classpocketmine_1_1event_1_1block_1_1_sign_change_event.html" target="_top" xlink:title=" ">
<polygon fill="white" stroke="black" points="1673,-138.5 1673,-261.5 1807,-261.5 1807,-138.5 1673,-138.5"/>
<text text-anchor="start" x="1681" y="-249.5" font-family="Helvetica,sans-Serif" font-size="10.00">pocketmine\event\block</text>
<text text-anchor="middle" x="1740" y="-238.5" font-family="Helvetica,sans-Serif" font-size="10.00">\SignChangeEvent</text>
<polyline fill="none" stroke="black" points="1673,-231.5 1807,-231.5 "/>
<text text-anchor="middle" x="1740" y="-219.5" font-family="Helvetica,sans-Serif" font-size="10.00"> </text>
<polyline fill="none" stroke="black" points="1673,-212.5 1807,-212.5 "/>
<text text-anchor="start" x="1681" y="-200.5" font-family="Helvetica,sans-Serif" font-size="10.00">+ __construct()</text>
<text text-anchor="start" x="1681" y="-189.5" font-family="Helvetica,sans-Serif" font-size="10.00">+ getNewText()</text>
<text text-anchor="start" x="1681" y="-178.5" font-family="Helvetica,sans-Serif" font-size="10.00">+ getOldText()</text>
<text text-anchor="start" x="1681" y="-167.5" font-family="Helvetica,sans-Serif" font-size="10.00">+ getPlayer()</text>
<text text-anchor="start" x="1681" y="-156.5" font-family="Helvetica,sans-Serif" font-size="10.00">+ getSign()</text>
<text text-anchor="start" x="1681" y="-145.5" font-family="Helvetica,sans-Serif" font-size="10.00">+ setNewText()</text>
</a>
</g>
</g>
<!-- Node1&#45;&gt;Node17 -->
<g id="edge16" class="edge">
<title>Node1&#45;&gt;Node17</title>
<path fill="none" stroke="midnightblue" d="M1361.21,-357.71C1441.61,-353.3 1568.86,-337.48 1664,-284 1674.56,-278.06 1684.46,-270.13 1693.41,-261.53"/>
<polygon fill="none" stroke="midnightblue" points="1360.97,-354.22 1351.16,-358.21 1361.32,-361.21 1360.97,-354.22"/>
</g>
<!-- Node18 -->
<g id="node18" class="node">
<title>Node18</title>
<g id="a_node18"><a xlink:href="../../dd/d17/classpocketmine_1_1event_1_1block_1_1_structure_grow_event.html" target="_top" xlink:title=" ">
<polygon fill="white" stroke="black" points="1825,-155 1825,-245 1959,-245 1959,-155 1825,-155"/>
<text text-anchor="start" x="1833" y="-233" font-family="Helvetica,sans-Serif" font-size="10.00">pocketmine\event\block</text>
<text text-anchor="middle" x="1892" y="-222" font-family="Helvetica,sans-Serif" font-size="10.00">\StructureGrowEvent</text>
<polyline fill="none" stroke="black" points="1825,-215 1959,-215 "/>
<text text-anchor="middle" x="1892" y="-203" font-family="Helvetica,sans-Serif" font-size="10.00"> </text>
<polyline fill="none" stroke="black" points="1825,-196 1959,-196 "/>
<text text-anchor="start" x="1833" y="-184" font-family="Helvetica,sans-Serif" font-size="10.00">+ __construct()</text>
<text text-anchor="start" x="1833" y="-173" font-family="Helvetica,sans-Serif" font-size="10.00">+ getPlayer()</text>
<text text-anchor="start" x="1833" y="-162" font-family="Helvetica,sans-Serif" font-size="10.00">+ getTransaction()</text>
</a>
</g>
</g>
<!-- Node1&#45;&gt;Node18 -->
<g id="edge17" class="edge">
<title>Node1&#45;&gt;Node18</title>
<path fill="none" stroke="midnightblue" d="M1361.42,-354.51C1489.41,-346.02 1738.66,-324.73 1816,-284 1833.46,-274.8 1848.97,-259.95 1861.36,-245.32"/>
<polygon fill="none" stroke="midnightblue" points="1361.05,-351.02 1351.3,-355.17 1361.5,-358.01 1361.05,-351.02"/>
</g>
<!-- Node19 -->
<g id="node19" class="node">
<title>Node19</title>
<g id="a_node19"><a xlink:href="../../d5/d82/classpocketmine_1_1event_1_1inventory_1_1_furnace_burn_event.html" target="_top" xlink:title=" ">
<polygon fill="white" stroke="black" points="1977,-133 1977,-267 2131,-267 2131,-133 1977,-133"/>
<text text-anchor="start" x="1985" y="-255" font-family="Helvetica,sans-Serif" font-size="10.00">pocketmine\event\inventory</text>
<text text-anchor="middle" x="2054" y="-244" font-family="Helvetica,sans-Serif" font-size="10.00">\FurnaceBurnEvent</text>
<polyline fill="none" stroke="black" points="1977,-237 2131,-237 "/>
<text text-anchor="middle" x="2054" y="-225" font-family="Helvetica,sans-Serif" font-size="10.00"> </text>
<polyline fill="none" stroke="black" points="1977,-218 2131,-218 "/>
<text text-anchor="start" x="1985" y="-206" font-family="Helvetica,sans-Serif" font-size="10.00">+ __construct()</text>
<text text-anchor="start" x="1985" y="-195" font-family="Helvetica,sans-Serif" font-size="10.00">+ getBurnTime()</text>
<text text-anchor="start" x="1985" y="-184" font-family="Helvetica,sans-Serif" font-size="10.00">+ getFuel()</text>
<text text-anchor="start" x="1985" y="-173" font-family="Helvetica,sans-Serif" font-size="10.00">+ getFurnace()</text>
<text text-anchor="start" x="1985" y="-162" font-family="Helvetica,sans-Serif" font-size="10.00">+ isBurning()</text>
<text text-anchor="start" x="1985" y="-151" font-family="Helvetica,sans-Serif" font-size="10.00">+ setBurning()</text>
<text text-anchor="start" x="1985" y="-140" font-family="Helvetica,sans-Serif" font-size="10.00">+ setBurnTime()</text>
</a>
</g>
</g>
<!-- Node1&#45;&gt;Node19 -->
<g id="edge18" class="edge">
<title>Node1&#45;&gt;Node19</title>
<path fill="none" stroke="midnightblue" d="M1361.65,-356.76C1517.38,-351.26 1862,-333.7 1968,-284 1977.39,-279.6 1986.4,-273.75 1994.81,-267.18"/>
<polygon fill="none" stroke="midnightblue" points="1361.09,-353.28 1351.22,-357.12 1361.33,-360.27 1361.09,-353.28"/>
</g>
<!-- Node20 -->
<g id="node20" class="node">
<title>Node20</title>
<g id="a_node20"><a xlink:href="../../d8/df1/classpocketmine_1_1event_1_1inventory_1_1_furnace_smelt_event.html" target="_top" xlink:title=" ">
<polygon fill="white" stroke="#bfbfbf" points="2149,-144 2149,-256 2303,-256 2303,-144 2149,-144"/>
<text text-anchor="start" x="2157" y="-244" font-family="Helvetica,sans-Serif" font-size="10.00">pocketmine\event\inventory</text>
<text text-anchor="middle" x="2226" y="-233" font-family="Helvetica,sans-Serif" font-size="10.00">\FurnaceSmeltEvent</text>
<polyline fill="none" stroke="#bfbfbf" points="2149,-226 2303,-226 "/>
<text text-anchor="middle" x="2226" y="-214" font-family="Helvetica,sans-Serif" font-size="10.00"> </text>
<polyline fill="none" stroke="#bfbfbf" points="2149,-207 2303,-207 "/>
<text text-anchor="start" x="2157" y="-195" font-family="Helvetica,sans-Serif" font-size="10.00">+ __construct()</text>
<text text-anchor="start" x="2157" y="-184" font-family="Helvetica,sans-Serif" font-size="10.00">+ getFurnace()</text>
<text text-anchor="start" x="2157" y="-173" font-family="Helvetica,sans-Serif" font-size="10.00">+ getResult()</text>
<text text-anchor="start" x="2157" y="-162" font-family="Helvetica,sans-Serif" font-size="10.00">+ getSource()</text>
<text text-anchor="start" x="2157" y="-151" font-family="Helvetica,sans-Serif" font-size="10.00">+ setResult()</text>
</a>
</g>
</g>
<!-- Node1&#45;&gt;Node20 -->
<g id="edge19" class="edge">
<title>Node1&#45;&gt;Node20</title>
<path fill="none" stroke="midnightblue" d="M1361.39,-358.76C1545.08,-357.15 2002.27,-346.75 2140,-284 2154.54,-277.38 2168.11,-267.23 2179.99,-256.27"/>
<polygon fill="none" stroke="midnightblue" points="1361.24,-355.26 1351.27,-358.84 1361.3,-362.26 1361.24,-355.26"/>
</g>
<!-- Node2 -->
<g id="node2" class="node">
<title>Node2</title>
<g id="a_node2"><a xlink:href="../../d1/d2f/classpocketmine_1_1event_1_1_event.html" target="_top" xlink:title=" ">
<polygon fill="white" stroke="#bfbfbf" points="1216.5,-436.5 1216.5,-504.5 1351.5,-504.5 1351.5,-436.5 1216.5,-436.5"/>
<text text-anchor="middle" x="1284" y="-492.5" font-family="Helvetica,sans-Serif" font-size="10.00">pocketmine\event\Event</text>
<polyline fill="none" stroke="#bfbfbf" points="1216.5,-485.5 1351.5,-485.5 "/>
<text text-anchor="start" x="1224.5" y="-473.5" font-family="Helvetica,sans-Serif" font-size="10.00"># $eventName</text>
<polyline fill="none" stroke="#bfbfbf" points="1216.5,-466.5 1351.5,-466.5 "/>
<text text-anchor="start" x="1224.5" y="-454.5" font-family="Helvetica,sans-Serif" font-size="10.00">+ call()</text>
<text text-anchor="start" x="1224.5" y="-443.5" font-family="Helvetica,sans-Serif" font-size="10.00">+ getEventName()</text>
</a>
</g>
</g>
<!-- Node2&#45;&gt;Node1 -->
<g id="edge1" class="edge">
<title>Node2&#45;&gt;Node1</title>
<path fill="none" stroke="midnightblue" d="M1284,-426.27C1284,-417.48 1284,-408.28 1284,-399.65"/>
<polygon fill="none" stroke="midnightblue" points="1280.5,-426.36 1284,-436.36 1287.5,-426.36 1280.5,-426.36"/>
</g>
<!-- Node4 -->
<g id="node4" class="node">
<title>Node4</title>
<g id="a_node4"><a xlink:href="../../df/d82/classpocketmine_1_1event_1_1block_1_1_block_death_event.html" target="_top" xlink:title=" ">
<polygon fill="white" stroke="black" points="0,-6 0,-74 134,-74 134,-6 0,-6"/>
<text text-anchor="start" x="8" y="-62" font-family="Helvetica,sans-Serif" font-size="10.00">pocketmine\event\block</text>
<text text-anchor="middle" x="67" y="-51" font-family="Helvetica,sans-Serif" font-size="10.00">\BlockDeathEvent</text>
<polyline fill="none" stroke="black" points="0,-44 134,-44 "/>
<text text-anchor="middle" x="67" y="-32" font-family="Helvetica,sans-Serif" font-size="10.00"> </text>
<polyline fill="none" stroke="black" points="0,-25 134,-25 "/>
<text text-anchor="middle" x="67" y="-13" font-family="Helvetica,sans-Serif" font-size="10.00"> </text>
</a>
</g>
</g>
<!-- Node3&#45;&gt;Node4 -->
<g id="edge3" class="edge">
<title>Node3&#45;&gt;Node4</title>
<path fill="none" stroke="midnightblue" d="M294.22,-159.1C243.71,-132.84 178.38,-98.89 130.74,-74.13"/>
<polygon fill="none" stroke="midnightblue" points="292.67,-162.23 303.15,-163.74 295.9,-156.02 292.67,-162.23"/>
</g>
<!-- Node5 -->
<g id="node5" class="node">
<title>Node5</title>
<g id="a_node5"><a xlink:href="../../dc/d51/classpocketmine_1_1event_1_1block_1_1_block_form_event.html" target="_top" xlink:title=" ">
<polygon fill="white" stroke="black" points="152,-0.5 152,-79.5 286,-79.5 286,-0.5 152,-0.5"/>
<text text-anchor="start" x="160" y="-67.5" font-family="Helvetica,sans-Serif" font-size="10.00">pocketmine\event\block</text>
<text text-anchor="middle" x="219" y="-56.5" font-family="Helvetica,sans-Serif" font-size="10.00">\BlockFormEvent</text>
<polyline fill="none" stroke="black" points="152,-49.5 286,-49.5 "/>
<text text-anchor="middle" x="219" y="-37.5" font-family="Helvetica,sans-Serif" font-size="10.00"> </text>
<polyline fill="none" stroke="black" points="152,-30.5 286,-30.5 "/>
<text text-anchor="start" x="160" y="-18.5" font-family="Helvetica,sans-Serif" font-size="10.00">+ __construct()</text>
<text text-anchor="start" x="160" y="-7.5" font-family="Helvetica,sans-Serif" font-size="10.00">+ getCausingBlock()</text>
</a>
</g>
</g>
<!-- Node3&#45;&gt;Node5 -->
<g id="edge4" class="edge">
<title>Node3&#45;&gt;Node5</title>
<path fill="none" stroke="midnightblue" d="M326.71,-152.96C304.28,-129.65 277.37,-101.68 256.06,-79.53"/>
<polygon fill="none" stroke="midnightblue" points="324.36,-155.57 333.82,-160.35 329.41,-150.72 324.36,-155.57"/>
</g>
<!-- Node6 -->
<g id="node6" class="node">
<title>Node6</title>
<g id="a_node6"><a xlink:href="../../db/d04/classpocketmine_1_1event_1_1block_1_1_block_grow_event.html" target="_top" xlink:title=" ">
<polygon fill="white" stroke="black" points="304,-0.5 304,-79.5 438,-79.5 438,-0.5 304,-0.5"/>
<text text-anchor="start" x="312" y="-67.5" font-family="Helvetica,sans-Serif" font-size="10.00">pocketmine\event\block</text>
<text text-anchor="middle" x="371" y="-56.5" font-family="Helvetica,sans-Serif" font-size="10.00">\BlockGrowEvent</text>
<polyline fill="none" stroke="black" points="304,-49.5 438,-49.5 "/>
<text text-anchor="middle" x="371" y="-37.5" font-family="Helvetica,sans-Serif" font-size="10.00"> </text>
<polyline fill="none" stroke="black" points="304,-30.5 438,-30.5 "/>
<text text-anchor="start" x="312" y="-18.5" font-family="Helvetica,sans-Serif" font-size="10.00">+ __construct()</text>
<text text-anchor="start" x="312" y="-7.5" font-family="Helvetica,sans-Serif" font-size="10.00">+ getPlayer()</text>
</a>
</g>
</g>
<!-- Node3&#45;&gt;Node6 -->
<g id="edge5" class="edge">
<title>Node3&#45;&gt;Node6</title>
<path fill="none" stroke="midnightblue" d="M371,-150.21C371,-127.48 371,-100.82 371,-79.53"/>
<polygon fill="none" stroke="midnightblue" points="367.5,-150.35 371,-160.35 374.5,-150.35 367.5,-150.35"/>
</g>
<!-- Node7 -->
<g id="node7" class="node">
<title>Node7</title>
<g id="a_node7"><a xlink:href="../../d1/d80/classpocketmine_1_1event_1_1block_1_1_block_melt_event.html" target="_top" xlink:title=" ">
<polygon fill="white" stroke="black" points="456,-6 456,-74 590,-74 590,-6 456,-6"/>
<text text-anchor="start" x="464" y="-62" font-family="Helvetica,sans-Serif" font-size="10.00">pocketmine\event\block</text>
<text text-anchor="middle" x="523" y="-51" font-family="Helvetica,sans-Serif" font-size="10.00">\BlockMeltEvent</text>
<polyline fill="none" stroke="black" points="456,-44 590,-44 "/>
<text text-anchor="middle" x="523" y="-32" font-family="Helvetica,sans-Serif" font-size="10.00"> </text>
<polyline fill="none" stroke="black" points="456,-25 590,-25 "/>
<text text-anchor="middle" x="523" y="-13" font-family="Helvetica,sans-Serif" font-size="10.00"> </text>
</a>
</g>
</g>
<!-- Node3&#45;&gt;Node7 -->
<g id="edge6" class="edge">
<title>Node3&#45;&gt;Node7</title>
<path fill="none" stroke="midnightblue" d="M413.2,-152.89C424.42,-140.8 436.59,-127.84 448,-116 461.29,-102.21 476.15,-87.24 489.13,-74.34"/>
<polygon fill="none" stroke="midnightblue" points="410.58,-150.57 406.35,-160.29 415.72,-155.33 410.58,-150.57"/>
</g>
<!-- Node8 -->
<g id="node8" class="node">
<title>Node8</title>
<g id="a_node8"><a xlink:href="../../d7/dd6/classpocketmine_1_1event_1_1block_1_1_block_spread_event.html" target="_top" xlink:title=" ">
<polygon fill="white" stroke="black" points="608,-0.5 608,-79.5 742,-79.5 742,-0.5 608,-0.5"/>
<text text-anchor="start" x="616" y="-67.5" font-family="Helvetica,sans-Serif" font-size="10.00">pocketmine\event\block</text>
<text text-anchor="middle" x="675" y="-56.5" font-family="Helvetica,sans-Serif" font-size="10.00">\BlockSpreadEvent</text>
<polyline fill="none" stroke="black" points="608,-49.5 742,-49.5 "/>
<text text-anchor="middle" x="675" y="-37.5" font-family="Helvetica,sans-Serif" font-size="10.00"> </text>
<polyline fill="none" stroke="black" points="608,-30.5 742,-30.5 "/>
<text text-anchor="start" x="616" y="-18.5" font-family="Helvetica,sans-Serif" font-size="10.00">+ __construct()</text>
<text text-anchor="start" x="616" y="-7.5" font-family="Helvetica,sans-Serif" font-size="10.00">+ getSource()</text>
</a>
</g>
</g>
<!-- Node3&#45;&gt;Node8 -->
<g id="edge7" class="edge">
<title>Node3&#45;&gt;Node8</title>
<path fill="none" stroke="midnightblue" d="M405.46,-152.38C417.54,-138.87 432.11,-125.28 448,-116 507.58,-81.21 534.29,-103.92 599,-80 601.92,-78.92 604.87,-77.76 607.84,-76.53"/>
<polygon fill="none" stroke="midnightblue" points="402.51,-150.44 398.64,-160.3 407.82,-155.01 402.51,-150.44"/>
</g>
</g>
</svg>
