<?xml version="1.0" encoding="UTF-8" standalone="no"?>
<!DOCTYPE svg PUBLIC "-//W3C//DTD SVG 1.1//EN"
 "http://www.w3.org/Graphics/SVG/1.1/DTD/svg11.dtd">
<!-- Generated by graphviz version 2.43.0 (0)
 -->
<!-- Title: pocketmine\item\Item\pop Pages: 1 -->
<svg width="372pt" height="1238pt"
 viewBox="0.00 0.00 372.00 1238.00" xmlns="http://www.w3.org/2000/svg" xmlns:xlink="http://www.w3.org/1999/xlink">
<g id="graph0" class="graph" transform="scale(1 1) rotate(0) translate(4 1234)">
<title>pocketmine\item\Item\pop</title>
<!-- Node1 -->
<g id="Node000001" class="node">
<title>Node1</title>
<g id="a_Node000001"><a xlink:title=" ">
<polygon fill="#999999" stroke="#666666" points="364,-624.5 218,-624.5 218,-605.5 364,-605.5 364,-624.5"/>
<text text-anchor="middle" x="291" y="-612.5" font-family="Helvetica,sans-Serif" font-size="10.00">pocketmine\item\Item\pop</text>
</a>
</g>
</g>
<!-- Node2 -->
<g id="Node000002" class="node">
<title>Node2</title>
<g id="a_Node000002"><a xlink:href="../../d1/dae/classpocketmine_1_1block_1_1_bamboo.html#a86b636e543cc443407c3b0c6347444a1" target="_top" xlink:title=" ">
<polygon fill="white" stroke="#666666" points="164,-1230 18,-1230 18,-1200 164,-1200 164,-1230"/>
<text text-anchor="start" x="26" y="-1218" font-family="Helvetica,sans-Serif" font-size="10.00">pocketmine\block\Bamboo</text>
<text text-anchor="middle" x="91" y="-1207" font-family="Helvetica,sans-Serif" font-size="10.00">\onInteract</text>
</a>
</g>
</g>
<!-- Node1&#45;&gt;Node2 -->
<g id="edge1_Node000001_Node000002" class="edge">
<title>Node1&#45;&gt;Node2</title>
<g id="a_edge1_Node000001_Node000002"><a xlink:title=" ">
<path fill="none" stroke="#63b8ff" d="M289.05,-634.75C284.25,-726.13 259.79,-1107.12 182,-1191 176.94,-1196.45 170.8,-1200.72 164.12,-1204.06"/>
<polygon fill="#63b8ff" stroke="#63b8ff" points="292.55,-634.82 289.56,-624.66 285.56,-634.47 292.55,-634.82"/>
</a>
</g>
</g>
<!-- Node3 -->
<g id="Node000003" class="node">
<title>Node3</title>
<g id="a_Node000003"><a xlink:href="../../d6/dae/classpocketmine_1_1block_1_1_bamboo_sapling.html#af01e5cc00d9fa23654cffaf5254fe75e" target="_top" xlink:title=" ">
<polygon fill="white" stroke="#666666" points="182,-1182 0,-1182 0,-1152 182,-1152 182,-1182"/>
<text text-anchor="start" x="8" y="-1170" font-family="Helvetica,sans-Serif" font-size="10.00">pocketmine\block\BambooSapling</text>
<text text-anchor="middle" x="91" y="-1159" font-family="Helvetica,sans-Serif" font-size="10.00">\onInteract</text>
</a>
</g>
</g>
<!-- Node1&#45;&gt;Node3 -->
<g id="edge2_Node000001_Node000003" class="edge">
<title>Node1&#45;&gt;Node3</title>
<g id="a_edge2_Node000001_Node000003"><a xlink:title=" ">
<path fill="none" stroke="#63b8ff" d="M288.69,-634.73C282.52,-721.34 253.72,-1066.93 182,-1143 178.78,-1146.41 175.14,-1149.36 171.21,-1151.9"/>
<polygon fill="#63b8ff" stroke="#63b8ff" points="292.18,-634.89 289.38,-624.68 285.2,-634.41 292.18,-634.89"/>
</a>
</g>
</g>
<!-- Node4 -->
<g id="Node000004" class="node">
<title>Node4</title>
<g id="a_Node000004"><a xlink:href="../../d5/d5a/classpocketmine_1_1block_1_1_base_big_dripleaf.html#ad4c153b1920d1b9e5bc201d5a6de7054" target="_top" xlink:title=" ">
<polygon fill="white" stroke="#666666" points="164,-1134 18,-1134 18,-1104 164,-1104 164,-1134"/>
<text text-anchor="start" x="26" y="-1122" font-family="Helvetica,sans-Serif" font-size="10.00">pocketmine\block\BaseBig</text>
<text text-anchor="middle" x="91" y="-1111" font-family="Helvetica,sans-Serif" font-size="10.00">Dripleaf\onInteract</text>
</a>
</g>
</g>
<!-- Node1&#45;&gt;Node4 -->
<g id="edge3_Node000001_Node000004" class="edge">
<title>Node1&#45;&gt;Node4</title>
<g id="a_edge3_Node000001_Node000004"><a xlink:title=" ">
<path fill="none" stroke="#63b8ff" d="M288.23,-634.97C280.55,-716.99 247.59,-1026.78 182,-1095 176.96,-1100.25 170.91,-1104.39 164.36,-1107.65"/>
<polygon fill="#63b8ff" stroke="#63b8ff" points="291.75,-634.86 289.18,-624.58 284.78,-634.22 291.75,-634.86"/>
</a>
</g>
</g>
<!-- Node5 -->
<g id="Node000005" class="node">
<title>Node5</title>
<g id="a_Node000005"><a xlink:href="../../df/d1c/classpocketmine_1_1block_1_1_cake.html#a45815ac91b49c1d30b1ea40fabdd3ce9" target="_top" xlink:title=" ">
<polygon fill="white" stroke="#666666" points="156,-1086 26,-1086 26,-1056 156,-1056 156,-1086"/>
<text text-anchor="start" x="34" y="-1074" font-family="Helvetica,sans-Serif" font-size="10.00">pocketmine\block\Cake</text>
<text text-anchor="middle" x="91" y="-1063" font-family="Helvetica,sans-Serif" font-size="10.00">\onInteract</text>
</a>
</g>
</g>
<!-- Node1&#45;&gt;Node5 -->
<g id="edge4_Node000001_Node000005" class="edge">
<title>Node1&#45;&gt;Node5</title>
<g id="a_edge4_Node000001_Node000005"><a xlink:title=" ">
<path fill="none" stroke="#63b8ff" d="M287.7,-634.92C278.45,-711.61 241.58,-986.48 182,-1047 174.85,-1054.26 165.77,-1059.4 156.14,-1063.02"/>
<polygon fill="#63b8ff" stroke="#63b8ff" points="291.2,-635.08 288.9,-624.73 284.25,-634.25 291.2,-635.08"/>
</a>
</g>
</g>
<!-- Node6 -->
<g id="Node000006" class="node">
<title>Node6</title>
<g id="a_Node000006"><a xlink:href="../../d9/d68/classpocketmine_1_1block_1_1_cocoa_block.html#a8dac94b490c40381a68ed917c0083c01" target="_top" xlink:title=" ">
<polygon fill="white" stroke="#666666" points="172.5,-1038 9.5,-1038 9.5,-1008 172.5,-1008 172.5,-1038"/>
<text text-anchor="start" x="17.5" y="-1026" font-family="Helvetica,sans-Serif" font-size="10.00">pocketmine\block\CocoaBlock</text>
<text text-anchor="middle" x="91" y="-1015" font-family="Helvetica,sans-Serif" font-size="10.00">\onInteract</text>
</a>
</g>
</g>
<!-- Node1&#45;&gt;Node6 -->
<g id="edge5_Node000001_Node000006" class="edge">
<title>Node1&#45;&gt;Node6</title>
<g id="a_edge5_Node000001_Node000006"><a xlink:title=" ">
<path fill="none" stroke="#63b8ff" d="M290.77,-634.89C292.05,-697.94 287.12,-895.29 182,-999 178.55,-1002.41 174.67,-1005.35 170.51,-1007.88"/>
<polygon fill="#63b8ff" stroke="#63b8ff" points="294.26,-634.63 290.48,-624.73 287.26,-634.83 294.26,-634.63"/>
</a>
</g>
</g>
<!-- Node7 -->
<g id="Node000007" class="node">
<title>Node7</title>
<g id="a_Node000007"><a xlink:href="../../d2/d70/classpocketmine_1_1block_1_1_crops.html#a6c9da7f1ae5d2201f833497a2d8e915f" target="_top" xlink:title=" ">
<polygon fill="white" stroke="#666666" points="158,-990 24,-990 24,-960 158,-960 158,-990"/>
<text text-anchor="start" x="32" y="-978" font-family="Helvetica,sans-Serif" font-size="10.00">pocketmine\block\Crops</text>
<text text-anchor="middle" x="91" y="-967" font-family="Helvetica,sans-Serif" font-size="10.00">\onInteract</text>
</a>
</g>
</g>
<!-- Node1&#45;&gt;Node7 -->
<g id="edge6_Node000001_Node000007" class="edge">
<title>Node1&#45;&gt;Node7</title>
<g id="a_edge6_Node000001_Node000007"><a xlink:title=" ">
<path fill="none" stroke="#63b8ff" d="M289.83,-635.03C288.19,-692.99 275.26,-862.32 182,-951 175.2,-957.46 166.87,-962.23 158.04,-965.74"/>
<polygon fill="#63b8ff" stroke="#63b8ff" points="293.33,-634.77 290.02,-624.7 286.33,-634.63 293.33,-634.77"/>
</a>
</g>
</g>
<!-- Node8 -->
<g id="Node000008" class="node">
<title>Node8</title>
<g id="a_Node000008"><a xlink:href="../../da/d01/classpocketmine_1_1block_1_1_double_pitcher_crop.html#a8bb2a541b8977cdb13024f71d754d959" target="_top" xlink:title=" ">
<polygon fill="white" stroke="#666666" points="178,-942 4,-942 4,-912 178,-912 178,-942"/>
<text text-anchor="start" x="12" y="-930" font-family="Helvetica,sans-Serif" font-size="10.00">pocketmine\block\DoublePitcher</text>
<text text-anchor="middle" x="91" y="-919" font-family="Helvetica,sans-Serif" font-size="10.00">Crop\onInteract</text>
</a>
</g>
</g>
<!-- Node1&#45;&gt;Node8 -->
<g id="edge7_Node000001_Node000008" class="edge">
<title>Node1&#45;&gt;Node8</title>
<g id="a_edge7_Node000001_Node000008"><a xlink:title=" ">
<path fill="none" stroke="#63b8ff" d="M288.6,-634.92C283.85,-687.12 263.66,-828.99 182,-903 178.29,-906.37 174.15,-909.27 169.75,-911.77"/>
<polygon fill="#63b8ff" stroke="#63b8ff" points="292.12,-634.93 289.44,-624.68 285.14,-634.36 292.12,-634.93"/>
</a>
</g>
</g>
<!-- Node9 -->
<g id="Node000009" class="node">
<title>Node9</title>
<g id="a_Node000009"><a xlink:href="../../d4/dc5/classpocketmine_1_1block_1_1_glow_lichen.html#a9f1a594e1821b190423f067b6f151940" target="_top" xlink:title=" ">
<polygon fill="white" stroke="#666666" points="172,-894 10,-894 10,-864 172,-864 172,-894"/>
<text text-anchor="start" x="18" y="-882" font-family="Helvetica,sans-Serif" font-size="10.00">pocketmine\block\GlowLichen</text>
<text text-anchor="middle" x="91" y="-871" font-family="Helvetica,sans-Serif" font-size="10.00">\onInteract</text>
</a>
</g>
</g>
<!-- Node1&#45;&gt;Node9 -->
<g id="edge8_Node000001_Node000009" class="edge">
<title>Node1&#45;&gt;Node9</title>
<g id="a_edge8_Node000001_Node000009"><a xlink:title=" ">
<path fill="none" stroke="#63b8ff" d="M286.99,-634.63C278.89,-680.48 252.3,-795.27 182,-855 177.93,-858.46 173.42,-861.42 168.64,-863.96"/>
<polygon fill="#63b8ff" stroke="#63b8ff" points="290.48,-634.97 288.66,-624.53 283.57,-633.82 290.48,-634.97"/>
</a>
</g>
</g>
<!-- Node10 -->
<g id="Node000010" class="node">
<title>Node10</title>
<g id="a_Node000010"><a xlink:href="../../db/d15/classpocketmine_1_1block_1_1_jukebox.html#ad282da10a5427d2fb36ae427bf6480b0" target="_top" xlink:title=" ">
<polygon fill="white" stroke="#666666" points="163,-846 19,-846 19,-816 163,-816 163,-846"/>
<text text-anchor="start" x="27" y="-834" font-family="Helvetica,sans-Serif" font-size="10.00">pocketmine\block\Jukebox</text>
<text text-anchor="middle" x="91" y="-823" font-family="Helvetica,sans-Serif" font-size="10.00">\onInteract</text>
</a>
</g>
</g>
<!-- Node1&#45;&gt;Node10 -->
<g id="edge9_Node000001_Node000010" class="edge">
<title>Node1&#45;&gt;Node10</title>
<g id="a_edge9_Node000001_Node000010"><a xlink:title=" ">
<path fill="none" stroke="#63b8ff" d="M284.6,-634.61C272.81,-673.65 241,-761.26 182,-807 176.38,-811.36 170.03,-814.93 163.37,-817.85"/>
<polygon fill="#63b8ff" stroke="#63b8ff" points="288.03,-635.34 287.46,-624.76 281.31,-633.39 288.03,-635.34"/>
</a>
</g>
</g>
<!-- Node11 -->
<g id="Node000011" class="node">
<title>Node11</title>
<g id="a_Node000011"><a xlink:href="../../de/d09/classpocketmine_1_1block_1_1_lectern.html#a84faa25359442844f27348bad5b95fc9" target="_top" xlink:title=" ">
<polygon fill="white" stroke="#666666" points="162,-798 20,-798 20,-768 162,-768 162,-798"/>
<text text-anchor="start" x="28" y="-786" font-family="Helvetica,sans-Serif" font-size="10.00">pocketmine\block\Lectern</text>
<text text-anchor="middle" x="91" y="-775" font-family="Helvetica,sans-Serif" font-size="10.00">\onInteract</text>
</a>
</g>
</g>
<!-- Node1&#45;&gt;Node11 -->
<g id="edge10_Node000001_Node000011" class="edge">
<title>Node1&#45;&gt;Node11</title>
<g id="a_edge10_Node000001_Node000011"><a xlink:title=" ">
<path fill="none" stroke="#63b8ff" d="M280.99,-634.13C265.35,-665.21 230.16,-726.48 182,-759 175.97,-763.07 169.28,-766.45 162.34,-769.26"/>
<polygon fill="#63b8ff" stroke="#63b8ff" points="284.29,-635.35 285.54,-624.83 278,-632.27 284.29,-635.35"/>
</a>
</g>
</g>
<!-- Node12 -->
<g id="Node000012" class="node">
<title>Node12</title>
<g id="a_Node000012"><a xlink:href="../../da/dfb/classpocketmine_1_1block_1_1_nether_fungus.html#a074bd183d96abde52dce4e8adbb0ecbd" target="_top" xlink:title=" ">
<polygon fill="white" stroke="#666666" points="177.5,-750 4.5,-750 4.5,-720 177.5,-720 177.5,-750"/>
<text text-anchor="start" x="12.5" y="-738" font-family="Helvetica,sans-Serif" font-size="10.00">pocketmine\block\NetherFungus</text>
<text text-anchor="middle" x="91" y="-727" font-family="Helvetica,sans-Serif" font-size="10.00">\onInteract</text>
</a>
</g>
</g>
<!-- Node1&#45;&gt;Node12 -->
<g id="edge11_Node000001_Node000012" class="edge">
<title>Node1&#45;&gt;Node12</title>
<g id="a_edge11_Node000001_Node000012"><a xlink:title=" ">
<path fill="none" stroke="#63b8ff" d="M275.37,-632.23C256.12,-653.81 220.23,-690.43 182,-711 175.59,-714.45 168.66,-717.43 161.57,-719.99"/>
<polygon fill="#63b8ff" stroke="#63b8ff" points="278.17,-634.34 282.12,-624.51 272.9,-629.73 278.17,-634.34"/>
</a>
</g>
</g>
<!-- Node13 -->
<g id="Node000013" class="node">
<title>Node13</title>
<g id="a_Node000013"><a xlink:href="../../d5/d84/classpocketmine_1_1block_1_1_netherrack.html#aa020a81c7c374c5310d13bb64558517d" target="_top" xlink:title=" ">
<polygon fill="white" stroke="#666666" points="171,-702 11,-702 11,-672 171,-672 171,-702"/>
<text text-anchor="start" x="19" y="-690" font-family="Helvetica,sans-Serif" font-size="10.00">pocketmine\block\Netherrack</text>
<text text-anchor="middle" x="91" y="-679" font-family="Helvetica,sans-Serif" font-size="10.00">\onInteract</text>
</a>
</g>
</g>
<!-- Node1&#45;&gt;Node13 -->
<g id="edge12_Node000001_Node000013" class="edge">
<title>Node1&#45;&gt;Node13</title>
<g id="a_edge12_Node000001_Node000013"><a xlink:title=" ">
<path fill="none" stroke="#63b8ff" d="M261.66,-629.07C240.16,-639.38 209.68,-653.23 182,-663 173,-666.18 163.37,-669.16 153.88,-671.88"/>
<polygon fill="#63b8ff" stroke="#63b8ff" points="263.39,-632.12 270.86,-624.61 260.34,-625.82 263.39,-632.12"/>
</a>
</g>
</g>
<!-- Node14 -->
<g id="Node000014" class="node">
<title>Node14</title>
<g id="a_Node000014"><a xlink:href="../../d0/dbe/classpocketmine_1_1block_1_1_nether_vines.html#ac266ed61314519f7c450516441686da6" target="_top" xlink:title=" ">
<polygon fill="white" stroke="#666666" points="174,-654 8,-654 8,-624 174,-624 174,-654"/>
<text text-anchor="start" x="16" y="-642" font-family="Helvetica,sans-Serif" font-size="10.00">pocketmine\block\NetherVines</text>
<text text-anchor="middle" x="91" y="-631" font-family="Helvetica,sans-Serif" font-size="10.00">\onInteract</text>
</a>
</g>
</g>
<!-- Node1&#45;&gt;Node14 -->
<g id="edge13_Node000001_Node000014" class="edge">
<title>Node1&#45;&gt;Node14</title>
<g id="a_edge13_Node000001_Node000014"><a xlink:title=" ">
<path fill="none" stroke="#63b8ff" d="M207.81,-624.96C196.66,-626.31 185.21,-627.7 174.05,-629.05"/>
<polygon fill="#63b8ff" stroke="#63b8ff" points="208.45,-628.41 217.96,-623.73 207.61,-621.46 208.45,-628.41"/>
</a>
</g>
</g>
<!-- Node15 -->
<g id="Node000015" class="node">
<title>Node15</title>
<g id="a_Node000015"><a xlink:href="../../d9/d9d/classpocketmine_1_1block_1_1_nylium.html#aafe8974a36baa4d3a92fd9935520e594" target="_top" xlink:title=" ">
<polygon fill="white" stroke="#666666" points="161.5,-606 20.5,-606 20.5,-576 161.5,-576 161.5,-606"/>
<text text-anchor="start" x="28.5" y="-594" font-family="Helvetica,sans-Serif" font-size="10.00">pocketmine\block\Nylium</text>
<text text-anchor="middle" x="91" y="-583" font-family="Helvetica,sans-Serif" font-size="10.00">\onInteract</text>
</a>
</g>
</g>
<!-- Node1&#45;&gt;Node15 -->
<g id="edge14_Node000001_Node000015" class="edge">
<title>Node1&#45;&gt;Node15</title>
<g id="a_edge14_Node000001_Node000015"><a xlink:title=" ">
<path fill="none" stroke="#63b8ff" d="M207.95,-605.05C192.57,-603.19 176.63,-601.26 161.67,-599.45"/>
<polygon fill="#63b8ff" stroke="#63b8ff" points="207.61,-608.54 217.96,-606.27 208.45,-601.59 207.61,-608.54"/>
</a>
</g>
</g>
<!-- Node16 -->
<g id="Node000016" class="node">
<title>Node16</title>
<g id="a_Node000016"><a xlink:href="../../db/dc0/classpocketmine_1_1block_1_1_pink_petals.html#a5c103dd12f2f2a138eec2f26dc2dfe9d" target="_top" xlink:title=" ">
<polygon fill="white" stroke="#666666" points="169.5,-558 12.5,-558 12.5,-528 169.5,-528 169.5,-558"/>
<text text-anchor="start" x="20.5" y="-546" font-family="Helvetica,sans-Serif" font-size="10.00">pocketmine\block\PinkPetals</text>
<text text-anchor="middle" x="91" y="-535" font-family="Helvetica,sans-Serif" font-size="10.00">\onInteract</text>
</a>
</g>
</g>
<!-- Node1&#45;&gt;Node16 -->
<g id="edge15_Node000001_Node000016" class="edge">
<title>Node1&#45;&gt;Node16</title>
<g id="a_edge15_Node000001_Node000016"><a xlink:title=" ">
<path fill="none" stroke="#63b8ff" d="M261.66,-600.93C240.16,-590.62 209.68,-576.77 182,-567 173,-563.82 163.37,-560.84 153.88,-558.12"/>
<polygon fill="#63b8ff" stroke="#63b8ff" points="260.34,-604.18 270.86,-605.39 263.39,-597.88 260.34,-604.18"/>
</a>
</g>
</g>
<!-- Node17 -->
<g id="Node000017" class="node">
<title>Node17</title>
<g id="a_Node000017"><a xlink:href="../../da/d04/classpocketmine_1_1block_1_1_pitcher_crop.html#a47c98c95d1c7c33fdbd913a05f8d7d59" target="_top" xlink:title=" ">
<polygon fill="white" stroke="#666666" points="161,-510 21,-510 21,-480 161,-480 161,-510"/>
<text text-anchor="start" x="29" y="-498" font-family="Helvetica,sans-Serif" font-size="10.00">pocketmine\block\Pitcher</text>
<text text-anchor="middle" x="91" y="-487" font-family="Helvetica,sans-Serif" font-size="10.00">Crop\onInteract</text>
</a>
</g>
</g>
<!-- Node1&#45;&gt;Node17 -->
<g id="edge16_Node000001_Node000017" class="edge">
<title>Node1&#45;&gt;Node17</title>
<g id="a_edge16_Node000001_Node000017"><a xlink:title=" ">
<path fill="none" stroke="#63b8ff" d="M275.37,-597.77C256.12,-576.19 220.23,-539.57 182,-519 175.45,-515.48 168.35,-512.44 161.1,-509.84"/>
<polygon fill="#63b8ff" stroke="#63b8ff" points="272.9,-600.27 282.12,-605.49 278.17,-595.66 272.9,-600.27"/>
</a>
</g>
</g>
<!-- Node18 -->
<g id="Node000018" class="node">
<title>Node18</title>
<g id="a_Node000018"><a xlink:href="../../d6/d87/classpocketmine_1_1block_1_1_sapling.html#a33754eb89d9bc549b8529a5a800c62f2" target="_top" xlink:title=" ">
<polygon fill="white" stroke="#666666" points="162,-462 20,-462 20,-432 162,-432 162,-462"/>
<text text-anchor="start" x="28" y="-450" font-family="Helvetica,sans-Serif" font-size="10.00">pocketmine\block\Sapling</text>
<text text-anchor="middle" x="91" y="-439" font-family="Helvetica,sans-Serif" font-size="10.00">\onInteract</text>
</a>
</g>
</g>
<!-- Node1&#45;&gt;Node18 -->
<g id="edge17_Node000001_Node000018" class="edge">
<title>Node1&#45;&gt;Node18</title>
<g id="a_edge17_Node000001_Node000018"><a xlink:title=" ">
<path fill="none" stroke="#63b8ff" d="M280.99,-595.87C265.35,-564.79 230.16,-503.52 182,-471 175.97,-466.93 169.28,-463.55 162.34,-460.74"/>
<polygon fill="#63b8ff" stroke="#63b8ff" points="278,-597.73 285.54,-605.17 284.29,-594.65 278,-597.73"/>
</a>
</g>
</g>
<!-- Node19 -->
<g id="Node000019" class="node">
<title>Node19</title>
<g id="a_Node000019"><a xlink:href="../../df/d71/classpocketmine_1_1block_1_1_small_dripleaf.html#a177d359388b09f7cfbdafaf528450626" target="_top" xlink:title=" ">
<polygon fill="white" stroke="#666666" points="177.5,-414 4.5,-414 4.5,-384 177.5,-384 177.5,-414"/>
<text text-anchor="start" x="12.5" y="-402" font-family="Helvetica,sans-Serif" font-size="10.00">pocketmine\block\SmallDripleaf</text>
<text text-anchor="middle" x="91" y="-391" font-family="Helvetica,sans-Serif" font-size="10.00">\onInteract</text>
</a>
</g>
</g>
<!-- Node1&#45;&gt;Node19 -->
<g id="edge18_Node000001_Node000019" class="edge">
<title>Node1&#45;&gt;Node19</title>
<g id="a_edge18_Node000001_Node000019"><a xlink:title=" ">
<path fill="none" stroke="#63b8ff" d="M284.6,-595.39C272.81,-556.35 241,-468.74 182,-423 177.53,-419.53 172.59,-416.56 167.41,-414.02"/>
<polygon fill="#63b8ff" stroke="#63b8ff" points="281.31,-596.61 287.46,-605.24 288.03,-594.66 281.31,-596.61"/>
</a>
</g>
</g>
<!-- Node20 -->
<g id="Node000020" class="node">
<title>Node20</title>
<g id="a_Node000020"><a xlink:href="../../da/da9/classpocketmine_1_1block_1_1_sugarcane.html#a7442fd80109d1e73aa4d62a0d1b85a6b" target="_top" xlink:title=" ">
<polygon fill="white" stroke="#666666" points="169.5,-366 12.5,-366 12.5,-336 169.5,-336 169.5,-366"/>
<text text-anchor="start" x="20.5" y="-354" font-family="Helvetica,sans-Serif" font-size="10.00">pocketmine\block\Sugarcane</text>
<text text-anchor="middle" x="91" y="-343" font-family="Helvetica,sans-Serif" font-size="10.00">\onInteract</text>
</a>
</g>
</g>
<!-- Node1&#45;&gt;Node20 -->
<g id="edge19_Node000001_Node000020" class="edge">
<title>Node1&#45;&gt;Node20</title>
<g id="a_edge19_Node000001_Node000020"><a xlink:title=" ">
<path fill="none" stroke="#63b8ff" d="M286.99,-595.37C278.89,-549.52 252.3,-434.73 182,-375 177.93,-371.54 173.42,-368.58 168.64,-366.04"/>
<polygon fill="#63b8ff" stroke="#63b8ff" points="283.57,-596.18 288.66,-605.47 290.48,-595.03 283.57,-596.18"/>
</a>
</g>
</g>
<!-- Node21 -->
<g id="Node000021" class="node">
<title>Node21</title>
<g id="a_Node000021"><a xlink:href="../../d4/d4c/classpocketmine_1_1block_1_1_sweet_berry_bush.html#ad9edd253072c13db2a4f52090c826303" target="_top" xlink:title=" ">
<polygon fill="white" stroke="#666666" points="172,-318 10,-318 10,-288 172,-288 172,-318"/>
<text text-anchor="start" x="18" y="-306" font-family="Helvetica,sans-Serif" font-size="10.00">pocketmine\block\SweetBerry</text>
<text text-anchor="middle" x="91" y="-295" font-family="Helvetica,sans-Serif" font-size="10.00">Bush\onInteract</text>
</a>
</g>
</g>
<!-- Node1&#45;&gt;Node21 -->
<g id="edge20_Node000001_Node000021" class="edge">
<title>Node1&#45;&gt;Node21</title>
<g id="a_edge20_Node000001_Node000021"><a xlink:title=" ">
<path fill="none" stroke="#63b8ff" d="M288.6,-595.08C283.85,-542.88 263.66,-401.01 182,-327 178.29,-323.63 174.15,-320.73 169.75,-318.23"/>
<polygon fill="#63b8ff" stroke="#63b8ff" points="285.14,-595.64 289.44,-605.32 292.12,-595.07 285.14,-595.64"/>
</a>
</g>
</g>
<!-- Node22 -->
<g id="Node000022" class="node">
<title>Node22</title>
<g id="a_Node000022"><a xlink:href="../../dc/dce/classpocketmine_1_1block_1_1_t_n_t.html#af27c2026d3226e84e3d3aede48933e01" target="_top" xlink:title=" ">
<polygon fill="white" stroke="#666666" points="153.5,-270 28.5,-270 28.5,-240 153.5,-240 153.5,-270"/>
<text text-anchor="start" x="36.5" y="-258" font-family="Helvetica,sans-Serif" font-size="10.00">pocketmine\block\TNT</text>
<text text-anchor="middle" x="91" y="-247" font-family="Helvetica,sans-Serif" font-size="10.00">\onInteract</text>
</a>
</g>
</g>
<!-- Node1&#45;&gt;Node22 -->
<g id="edge21_Node000001_Node000022" class="edge">
<title>Node1&#45;&gt;Node22</title>
<g id="a_edge21_Node000001_Node000022"><a xlink:title=" ">
<path fill="none" stroke="#63b8ff" d="M289.83,-594.97C288.19,-537.01 275.26,-367.68 182,-279 174.15,-271.53 164.24,-266.33 153.89,-262.72"/>
<polygon fill="#63b8ff" stroke="#63b8ff" points="286.33,-595.37 290.02,-605.3 293.33,-595.23 286.33,-595.37"/>
</a>
</g>
</g>
<!-- Node23 -->
<g id="Node000023" class="node">
<title>Node23</title>
<g id="a_Node000023"><a xlink:href="../../de/d91/classpocketmine_1_1block_1_1_torchflower_crop.html#aaf61de947d43fdb7cb09ce1bef780fdd" target="_top" xlink:title=" ">
<polygon fill="white" stroke="#666666" points="171.5,-222 10.5,-222 10.5,-192 171.5,-192 171.5,-222"/>
<text text-anchor="start" x="18.5" y="-210" font-family="Helvetica,sans-Serif" font-size="10.00">pocketmine\block\Torchflower</text>
<text text-anchor="middle" x="91" y="-199" font-family="Helvetica,sans-Serif" font-size="10.00">Crop\onInteract</text>
</a>
</g>
</g>
<!-- Node1&#45;&gt;Node23 -->
<g id="edge22_Node000001_Node000023" class="edge">
<title>Node1&#45;&gt;Node23</title>
<g id="a_edge22_Node000001_Node000023"><a xlink:title=" ">
<path fill="none" stroke="#63b8ff" d="M290.77,-595.11C292.05,-532.06 287.12,-334.71 182,-231 178.55,-227.59 174.67,-224.65 170.51,-222.12"/>
<polygon fill="#63b8ff" stroke="#63b8ff" points="287.26,-595.17 290.48,-605.27 294.26,-595.37 287.26,-595.17"/>
</a>
</g>
</g>
<!-- Node24 -->
<g id="Node000024" class="node">
<title>Node24</title>
<g id="a_Node000024"><a xlink:href="../../d2/d6f/classpocketmine_1_1item_1_1_end_crystal.html#ae7b76b6c65cd0eac23cbe2db6a661a7f" target="_top" xlink:title=" ">
<polygon fill="white" stroke="#666666" points="168.5,-174 13.5,-174 13.5,-144 168.5,-144 168.5,-174"/>
<text text-anchor="start" x="21.5" y="-162" font-family="Helvetica,sans-Serif" font-size="10.00">pocketmine\item\EndCrystal</text>
<text text-anchor="middle" x="91" y="-151" font-family="Helvetica,sans-Serif" font-size="10.00">\onInteractBlock</text>
</a>
</g>
</g>
<!-- Node1&#45;&gt;Node24 -->
<g id="edge23_Node000001_Node000024" class="edge">
<title>Node1&#45;&gt;Node24</title>
<g id="a_edge23_Node000001_Node000024"><a xlink:title=" ">
<path fill="none" stroke="#63b8ff" d="M287.7,-595.08C278.45,-518.39 241.58,-243.52 182,-183 178.03,-178.97 173.46,-175.59 168.54,-172.76"/>
<polygon fill="#63b8ff" stroke="#63b8ff" points="284.25,-595.75 288.9,-605.27 291.2,-594.92 284.25,-595.75"/>
</a>
</g>
</g>
<!-- Node25 -->
<g id="Node000025" class="node">
<title>Node25</title>
<g id="a_Node000025"><a xlink:href="../../d9/d13/classpocketmine_1_1item_1_1_fire_charge.html#aa46b353b8b7765f4ab780a997a55affc" target="_top" xlink:title=" ">
<polygon fill="white" stroke="#666666" points="168.5,-126 13.5,-126 13.5,-96 168.5,-96 168.5,-126"/>
<text text-anchor="start" x="21.5" y="-114" font-family="Helvetica,sans-Serif" font-size="10.00">pocketmine\item\FireCharge</text>
<text text-anchor="middle" x="91" y="-103" font-family="Helvetica,sans-Serif" font-size="10.00">\onInteractBlock</text>
</a>
</g>
</g>
<!-- Node1&#45;&gt;Node25 -->
<g id="edge24_Node000001_Node000025" class="edge">
<title>Node1&#45;&gt;Node25</title>
<g id="a_edge24_Node000001_Node000025"><a xlink:title=" ">
<path fill="none" stroke="#63b8ff" d="M288.23,-595.03C280.55,-513.01 247.59,-203.22 182,-135 178.08,-130.92 173.54,-127.51 168.64,-124.66"/>
<polygon fill="#63b8ff" stroke="#63b8ff" points="284.78,-595.78 289.18,-605.42 291.75,-595.14 284.78,-595.78"/>
</a>
</g>
</g>
<!-- Node26 -->
<g id="Node000026" class="node">
<title>Node26</title>
<g id="a_Node000026"><a xlink:href="../../d2/d57/classpocketmine_1_1item_1_1_glass_bottle.html#a552e338f3abfb3e855e2bdbe57bf3b09" target="_top" xlink:title=" ">
<polygon fill="white" stroke="#666666" points="170,-78 12,-78 12,-48 170,-48 170,-78"/>
<text text-anchor="start" x="20" y="-66" font-family="Helvetica,sans-Serif" font-size="10.00">pocketmine\item\GlassBottle</text>
<text text-anchor="middle" x="91" y="-55" font-family="Helvetica,sans-Serif" font-size="10.00">\onInteractBlock</text>
</a>
</g>
</g>
<!-- Node1&#45;&gt;Node26 -->
<g id="edge25_Node000001_Node000026" class="edge">
<title>Node1&#45;&gt;Node26</title>
<g id="a_edge25_Node000001_Node000026"><a xlink:title=" ">
<path fill="none" stroke="#63b8ff" d="M288.69,-595.27C282.52,-508.66 253.72,-163.07 182,-87 178.56,-83.35 174.64,-80.24 170.39,-77.58"/>
<polygon fill="#63b8ff" stroke="#63b8ff" points="285.2,-595.59 289.38,-605.32 292.18,-595.11 285.2,-595.59"/>
</a>
</g>
</g>
<!-- Node27 -->
<g id="Node000027" class="node">
<title>Node27</title>
<g id="a_Node000027"><a xlink:href="../../d3/d79/classpocketmine_1_1item_1_1_name_tag.html#adde078c8ddbfbb441aba92114e72ab60" target="_top" xlink:title=" ">
<polygon fill="white" stroke="#666666" points="165,-30 17,-30 17,0 165,0 165,-30"/>
<text text-anchor="start" x="25" y="-18" font-family="Helvetica,sans-Serif" font-size="10.00">pocketmine\item\NameTag</text>
<text text-anchor="middle" x="91" y="-7" font-family="Helvetica,sans-Serif" font-size="10.00">\onInteractEntity</text>
</a>
</g>
</g>
<!-- Node1&#45;&gt;Node27 -->
<g id="edge26_Node000001_Node000027" class="edge">
<title>Node1&#45;&gt;Node27</title>
<g id="a_edge26_Node000001_Node000027"><a xlink:title=" ">
<path fill="none" stroke="#63b8ff" d="M289.05,-595.25C284.25,-503.87 259.79,-122.88 182,-39 177.27,-33.9 171.59,-29.84 165.42,-26.61"/>
<polygon fill="#63b8ff" stroke="#63b8ff" points="285.56,-595.53 289.56,-605.34 292.55,-595.18 285.56,-595.53"/>
</a>
</g>
</g>
</g>
</svg>
