<?xml version="1.0" encoding="UTF-8" standalone="no"?>
<!DOCTYPE svg PUBLIC "-//W3C//DTD SVG 1.1//EN"
 "http://www.w3.org/Graphics/SVG/1.1/DTD/svg11.dtd">
<!-- Generated by graphviz version 2.43.0 (0)
 -->
<!-- Title: pocketmine\item\Item\pop Pages: 1 -->
<!--zoomable 1068 -->
<svg id="main" version="1.1" xmlns="http://www.w3.org/2000/svg" xmlns:xlink="http://www.w3.org/1999/xlink" xml:space="preserve" onload="init(evt)">
<style type="text/css"><![CDATA[
.edge:hover path { stroke: red; }
.edge:hover polygon { stroke: red; fill: red; }
]]></style>
<script type="text/javascript"><![CDATA[
var edges = document.getElementsByTagName('g');
if (edges && edges.length) {
  for (var i=0;i<edges.length;i++) {
    if (edges[i].id.substr(0,4)=='edge') {
      edges[i].setAttribute('class','edge');
    }
  }
}
]]></script>
        <defs>
                <circle id="rim" cx="0" cy="0" r="7"/>
                <circle id="rim2" cx="0" cy="0" r="3.5"/>
                <g id="zoomPlus">
                        <use xlink:href="#rim" fill="#404040">
                                <set attributeName="fill" to="#808080" begin="zoomplus.mouseover" end="zoomplus.mouseout"/>
                        </use>
                        <path d="M-4,0h8M0,-4v8" fill="none" stroke="white" stroke-width="1.5" pointer-events="none"/>
                </g>
                <g id="zoomMin">
                        <use xlink:href="#rim" fill="#404040">
                                <set attributeName="fill" to="#808080" begin="zoomminus.mouseover" end="zoomminus.mouseout"/>
                        </use>
                        <path d="M-4,0h8" fill="none" stroke="white" stroke-width="1.5" pointer-events="none"/>
                </g>
                <g id="dirArrow">
                        <path fill="none" stroke="white" stroke-width="1.5" d="M0,-3.0v7 M-2.5,-0.5L0,-3.0L2.5,-0.5"/>
                </g>
               <g id="resetDef">
                       <use xlink:href="#rim2" fill="#404040">
                               <set attributeName="fill" to="#808080" begin="reset.mouseover" end="reset.mouseout"/>
                       </use>
               </g>
        </defs>

<script type="text/javascript">
var viewWidth = 372;
var viewHeight = 1068;
var sectionId = 'dynsection-3';
</script>
<script xlink:href="../../svgpan.js"/>
<svg id="graph" class="graph">
<g id="viewport">
<title>pocketmine\item\Item\pop</title>
<polygon fill="white" stroke="transparent" points="-4,4 -4,-1064 368,-1064 368,4 -4,4"/>
<!-- Node1 -->
<g id="node1" class="node">
<title>Node1</title>
<g id="a_node1"><a xlink:title=" ">
<polygon fill="#bfbfbf" stroke="black" points="218,-520 218,-539 364,-539 364,-520 218,-520"/>
<text text-anchor="middle" x="291" y="-527" font-family="Helvetica,sans-Serif" font-size="10.00">pocketmine\item\Item\pop</text>
</a>
</g>
</g>
<!-- Node2 -->
<g id="node2" class="node">
<title>Node2</title>
<g id="a_node2"><a xlink:href="../../d1/dae/classpocketmine_1_1block_1_1_bamboo.html#a86b636e543cc443407c3b0c6347444a1" target="_top" xlink:title=" ">
<polygon fill="white" stroke="black" points="18,-1029.5 18,-1059.5 164,-1059.5 164,-1029.5 18,-1029.5"/>
<text text-anchor="start" x="26" y="-1047.5" font-family="Helvetica,sans-Serif" font-size="10.00">pocketmine\block\Bamboo</text>
<text text-anchor="middle" x="91" y="-1036.5" font-family="Helvetica,sans-Serif" font-size="10.00">\onInteract</text>
</a>
</g>
</g>
<!-- Node1&#45;&gt;Node2 -->
<g id="edge1" class="edge">
<title>Node1&#45;&gt;Node2</title>
<path fill="none" stroke="midnightblue" d="M288.34,-549.42C281.02,-632.51 249,-950.48 182,-1020.5 176.97,-1025.76 170.93,-1029.91 164.38,-1033.18"/>
<polygon fill="midnightblue" stroke="midnightblue" points="291.84,-549.56 289.21,-539.3 284.87,-548.96 291.84,-549.56"/>
</g>
<!-- Node3 -->
<g id="node3" class="node">
<title>Node3</title>
<g id="a_node3"><a xlink:href="../../d6/dae/classpocketmine_1_1block_1_1_bamboo_sapling.html#af01e5cc00d9fa23654cffaf5254fe75e" target="_top" xlink:title=" ">
<polygon fill="white" stroke="black" points="0,-980.5 0,-1010.5 182,-1010.5 182,-980.5 0,-980.5"/>
<text text-anchor="start" x="8" y="-998.5" font-family="Helvetica,sans-Serif" font-size="10.00">pocketmine\block\BambooSapling</text>
<text text-anchor="middle" x="91" y="-987.5" font-family="Helvetica,sans-Serif" font-size="10.00">\onInteract</text>
</a>
</g>
</g>
<!-- Node1&#45;&gt;Node3 -->
<g id="edge2" class="edge">
<title>Node1&#45;&gt;Node3</title>
<path fill="none" stroke="midnightblue" d="M287.82,-549.37C278.92,-627.11 242.85,-909.36 182,-971.5 178.72,-974.85 175.03,-977.75 171.06,-980.26"/>
<polygon fill="midnightblue" stroke="midnightblue" points="291.34,-549.4 288.98,-539.08 284.39,-548.62 291.34,-549.4"/>
</g>
<!-- Node4 -->
<g id="node4" class="node">
<title>Node4</title>
<g id="a_node4"><a xlink:href="../../d5/d5a/classpocketmine_1_1block_1_1_base_big_dripleaf.html#ad4c153b1920d1b9e5bc201d5a6de7054" target="_top" xlink:title=" ">
<polygon fill="white" stroke="black" points="18,-931.5 18,-961.5 164,-961.5 164,-931.5 18,-931.5"/>
<text text-anchor="start" x="26" y="-949.5" font-family="Helvetica,sans-Serif" font-size="10.00">pocketmine\block\BaseBig</text>
<text text-anchor="middle" x="91" y="-938.5" font-family="Helvetica,sans-Serif" font-size="10.00">Dripleaf\onInteract</text>
</a>
</g>
</g>
<!-- Node1&#45;&gt;Node4 -->
<g id="edge3" class="edge">
<title>Node1&#45;&gt;Node4</title>
<path fill="none" stroke="midnightblue" d="M287.23,-549C276.69,-620.66 236.82,-868.09 182,-922.5 176.83,-927.63 170.7,-931.69 164.11,-934.91"/>
<polygon fill="midnightblue" stroke="midnightblue" points="290.7,-549.46 288.67,-539.06 283.77,-548.46 290.7,-549.46"/>
</g>
<!-- Node5 -->
<g id="node5" class="node">
<title>Node5</title>
<g id="a_node5"><a xlink:href="../../df/d1c/classpocketmine_1_1block_1_1_cake.html#a45815ac91b49c1d30b1ea40fabdd3ce9" target="_top" xlink:title=" ">
<polygon fill="white" stroke="black" points="26,-882.5 26,-912.5 156,-912.5 156,-882.5 26,-882.5"/>
<text text-anchor="start" x="34" y="-900.5" font-family="Helvetica,sans-Serif" font-size="10.00">pocketmine\block\Cake</text>
<text text-anchor="middle" x="91" y="-889.5" font-family="Helvetica,sans-Serif" font-size="10.00">\onInteract</text>
</a>
</g>
</g>
<!-- Node1&#45;&gt;Node5 -->
<g id="edge4" class="edge">
<title>Node1&#45;&gt;Node5</title>
<path fill="none" stroke="midnightblue" d="M290,-549.24C288.9,-607.8 277.38,-782.19 182,-873.5 174.76,-880.43 165.74,-885.42 156.24,-888.99"/>
<polygon fill="midnightblue" stroke="midnightblue" points="293.51,-549.16 290.11,-539.13 286.51,-549.09 293.51,-549.16"/>
</g>
<!-- Node6 -->
<g id="node6" class="node">
<title>Node6</title>
<g id="a_node6"><a xlink:href="../../d9/d68/classpocketmine_1_1block_1_1_cocoa_block.html#a8dac94b490c40381a68ed917c0083c01" target="_top" xlink:title=" ">
<polygon fill="white" stroke="black" points="9.5,-833.5 9.5,-863.5 172.5,-863.5 172.5,-833.5 9.5,-833.5"/>
<text text-anchor="start" x="17.5" y="-851.5" font-family="Helvetica,sans-Serif" font-size="10.00">pocketmine\block\CocoaBlock</text>
<text text-anchor="middle" x="91" y="-840.5" font-family="Helvetica,sans-Serif" font-size="10.00">\onInteract</text>
</a>
</g>
</g>
<!-- Node1&#45;&gt;Node6 -->
<g id="edge5" class="edge">
<title>Node1&#45;&gt;Node6</title>
<path fill="none" stroke="midnightblue" d="M288.82,-549.19C284.58,-602.06 265.47,-748.25 182,-824.5 178.3,-827.88 174.17,-830.8 169.78,-833.31"/>
<polygon fill="midnightblue" stroke="midnightblue" points="292.32,-549.35 289.54,-539.13 285.34,-548.86 292.32,-549.35"/>
</g>
<!-- Node7 -->
<g id="node7" class="node">
<title>Node7</title>
<g id="a_node7"><a xlink:href="../../d2/d70/classpocketmine_1_1block_1_1_crops.html#a6c9da7f1ae5d2201f833497a2d8e915f" target="_top" xlink:title=" ">
<polygon fill="white" stroke="black" points="24,-784.5 24,-814.5 158,-814.5 158,-784.5 24,-784.5"/>
<text text-anchor="start" x="32" y="-802.5" font-family="Helvetica,sans-Serif" font-size="10.00">pocketmine\block\Crops</text>
<text text-anchor="middle" x="91" y="-791.5" font-family="Helvetica,sans-Serif" font-size="10.00">\onInteract</text>
</a>
</g>
</g>
<!-- Node1&#45;&gt;Node7 -->
<g id="edge6" class="edge">
<title>Node1&#45;&gt;Node7</title>
<path fill="none" stroke="midnightblue" d="M287.25,-548.99C279.62,-595.55 253.8,-713.93 182,-775.5 175.13,-781.39 166.95,-785.86 158.38,-789.24"/>
<polygon fill="midnightblue" stroke="midnightblue" points="290.72,-549.43 288.78,-539.01 283.8,-548.36 290.72,-549.43"/>
</g>
<!-- Node8 -->
<g id="node8" class="node">
<title>Node8</title>
<g id="a_node8"><a xlink:href="../../da/d01/classpocketmine_1_1block_1_1_double_pitcher_crop.html#a8bb2a541b8977cdb13024f71d754d959" target="_top" xlink:title=" ">
<polygon fill="white" stroke="black" points="4,-735.5 4,-765.5 178,-765.5 178,-735.5 4,-735.5"/>
<text text-anchor="start" x="12" y="-753.5" font-family="Helvetica,sans-Serif" font-size="10.00">pocketmine\block\DoublePitcher</text>
<text text-anchor="middle" x="91" y="-742.5" font-family="Helvetica,sans-Serif" font-size="10.00">Crop\onInteract</text>
</a>
</g>
</g>
<!-- Node1&#45;&gt;Node8 -->
<g id="edge7" class="edge">
<title>Node1&#45;&gt;Node8</title>
<path fill="none" stroke="midnightblue" d="M284.99,-548.8C273.67,-588.43 242.32,-679.2 182,-726.5 177.67,-729.89 172.91,-732.81 167.9,-735.31"/>
<polygon fill="midnightblue" stroke="midnightblue" points="288.39,-549.63 287.65,-539.06 281.64,-547.78 288.39,-549.63"/>
</g>
<!-- Node9 -->
<g id="node9" class="node">
<title>Node9</title>
<g id="a_node9"><a xlink:href="../../d4/dc5/classpocketmine_1_1block_1_1_glow_lichen.html#a9f1a594e1821b190423f067b6f151940" target="_top" xlink:title=" ">
<polygon fill="white" stroke="black" points="10,-686.5 10,-716.5 172,-716.5 172,-686.5 10,-686.5"/>
<text text-anchor="start" x="18" y="-704.5" font-family="Helvetica,sans-Serif" font-size="10.00">pocketmine\block\GlowLichen</text>
<text text-anchor="middle" x="91" y="-693.5" font-family="Helvetica,sans-Serif" font-size="10.00">\onInteract</text>
</a>
</g>
</g>
<!-- Node1&#45;&gt;Node9 -->
<g id="edge8" class="edge">
<title>Node1&#45;&gt;Node9</title>
<path fill="none" stroke="midnightblue" d="M281.56,-548.29C266.34,-579.94 231.26,-643.77 182,-677.5 176.93,-680.97 171.38,-683.94 165.61,-686.48"/>
<polygon fill="midnightblue" stroke="midnightblue" points="284.73,-549.76 285.79,-539.22 278.39,-546.8 284.73,-549.76"/>
</g>
<!-- Node10 -->
<g id="node10" class="node">
<title>Node10</title>
<g id="a_node10"><a xlink:href="../../db/d15/classpocketmine_1_1block_1_1_jukebox.html#ad282da10a5427d2fb36ae427bf6480b0" target="_top" xlink:title=" ">
<polygon fill="white" stroke="black" points="19,-637.5 19,-667.5 163,-667.5 163,-637.5 19,-637.5"/>
<text text-anchor="start" x="27" y="-655.5" font-family="Helvetica,sans-Serif" font-size="10.00">pocketmine\block\Jukebox</text>
<text text-anchor="middle" x="91" y="-644.5" font-family="Helvetica,sans-Serif" font-size="10.00">\onInteract</text>
</a>
</g>
</g>
<!-- Node1&#45;&gt;Node10 -->
<g id="edge9" class="edge">
<title>Node1&#45;&gt;Node10</title>
<path fill="none" stroke="midnightblue" d="M275.77,-546.95C256.72,-569.18 220.79,-607.24 182,-628.5 175.76,-631.92 169.01,-634.87 162.1,-637.42"/>
<polygon fill="midnightblue" stroke="midnightblue" points="278.69,-548.92 282.44,-539.01 273.33,-544.42 278.69,-548.92"/>
</g>
<!-- Node11 -->
<g id="node11" class="node">
<title>Node11</title>
<g id="a_node11"><a xlink:href="../../de/d09/classpocketmine_1_1block_1_1_lectern.html#a84faa25359442844f27348bad5b95fc9" target="_top" xlink:title=" ">
<polygon fill="white" stroke="black" points="20,-588.5 20,-618.5 162,-618.5 162,-588.5 20,-588.5"/>
<text text-anchor="start" x="28" y="-606.5" font-family="Helvetica,sans-Serif" font-size="10.00">pocketmine\block\Lectern</text>
<text text-anchor="middle" x="91" y="-595.5" font-family="Helvetica,sans-Serif" font-size="10.00">\onInteract</text>
</a>
</g>
</g>
<!-- Node1&#45;&gt;Node11 -->
<g id="edge10" class="edge">
<title>Node1&#45;&gt;Node11</title>
<path fill="none" stroke="midnightblue" d="M262.5,-543.84C241,-554.66 210.14,-569.32 182,-579.5 173.18,-582.69 163.74,-585.67 154.41,-588.36"/>
<polygon fill="midnightblue" stroke="midnightblue" points="264.36,-546.83 271.68,-539.17 261.18,-540.59 264.36,-546.83"/>
</g>
<!-- Node12 -->
<g id="node12" class="node">
<title>Node12</title>
<g id="a_node12"><a xlink:href="../../d0/dbe/classpocketmine_1_1block_1_1_nether_vines.html#ac266ed61314519f7c450516441686da6" target="_top" xlink:title=" ">
<polygon fill="white" stroke="black" points="8,-539.5 8,-569.5 174,-569.5 174,-539.5 8,-539.5"/>
<text text-anchor="start" x="16" y="-557.5" font-family="Helvetica,sans-Serif" font-size="10.00">pocketmine\block\NetherVines</text>
<text text-anchor="middle" x="91" y="-546.5" font-family="Helvetica,sans-Serif" font-size="10.00">\onInteract</text>
</a>
</g>
</g>
<!-- Node1&#45;&gt;Node12 -->
<g id="edge11" class="edge">
<title>Node1&#45;&gt;Node12</title>
<path fill="none" stroke="midnightblue" d="M207.81,-539.88C196.66,-541.29 185.21,-542.73 174.05,-544.14"/>
<polygon fill="midnightblue" stroke="midnightblue" points="208.47,-543.32 217.96,-538.6 207.6,-536.38 208.47,-543.32"/>
</g>
<!-- Node13 -->
<g id="node13" class="node">
<title>Node13</title>
<g id="a_node13"><a xlink:href="../../db/dc0/classpocketmine_1_1block_1_1_pink_petals.html#a5c103dd12f2f2a138eec2f26dc2dfe9d" target="_top" xlink:title=" ">
<polygon fill="white" stroke="black" points="12.5,-490.5 12.5,-520.5 169.5,-520.5 169.5,-490.5 12.5,-490.5"/>
<text text-anchor="start" x="20.5" y="-508.5" font-family="Helvetica,sans-Serif" font-size="10.00">pocketmine\block\PinkPetals</text>
<text text-anchor="middle" x="91" y="-497.5" font-family="Helvetica,sans-Serif" font-size="10.00">\onInteract</text>
</a>
</g>
</g>
<!-- Node1&#45;&gt;Node13 -->
<g id="edge12" class="edge">
<title>Node1&#45;&gt;Node13</title>
<path fill="none" stroke="midnightblue" d="M207.91,-519.55C195.25,-518.02 182.22,-516.44 169.67,-514.91"/>
<polygon fill="midnightblue" stroke="midnightblue" points="207.61,-523.04 217.96,-520.77 208.45,-516.09 207.61,-523.04"/>
</g>
<!-- Node14 -->
<g id="node14" class="node">
<title>Node14</title>
<g id="a_node14"><a xlink:href="../../da/d04/classpocketmine_1_1block_1_1_pitcher_crop.html#a47c98c95d1c7c33fdbd913a05f8d7d59" target="_top" xlink:title=" ">
<polygon fill="white" stroke="black" points="21,-441.5 21,-471.5 161,-471.5 161,-441.5 21,-441.5"/>
<text text-anchor="start" x="29" y="-459.5" font-family="Helvetica,sans-Serif" font-size="10.00">pocketmine\block\Pitcher</text>
<text text-anchor="middle" x="91" y="-448.5" font-family="Helvetica,sans-Serif" font-size="10.00">Crop\onInteract</text>
</a>
</g>
</g>
<!-- Node1&#45;&gt;Node14 -->
<g id="edge13" class="edge">
<title>Node1&#45;&gt;Node14</title>
<path fill="none" stroke="midnightblue" d="M261.63,-515.51C240.12,-505.24 209.63,-491.42 182,-481.5 172.08,-477.94 161.39,-474.57 150.97,-471.54"/>
<polygon fill="midnightblue" stroke="midnightblue" points="260.31,-518.76 270.84,-519.95 263.35,-512.46 260.31,-518.76"/>
</g>
<!-- Node15 -->
<g id="node15" class="node">
<title>Node15</title>
<g id="a_node15"><a xlink:href="../../d6/d87/classpocketmine_1_1block_1_1_sapling.html#a33754eb89d9bc549b8529a5a800c62f2" target="_top" xlink:title=" ">
<polygon fill="white" stroke="black" points="20,-392.5 20,-422.5 162,-422.5 162,-392.5 20,-392.5"/>
<text text-anchor="start" x="28" y="-410.5" font-family="Helvetica,sans-Serif" font-size="10.00">pocketmine\block\Sapling</text>
<text text-anchor="middle" x="91" y="-399.5" font-family="Helvetica,sans-Serif" font-size="10.00">\onInteract</text>
</a>
</g>
</g>
<!-- Node1&#45;&gt;Node15 -->
<g id="edge14" class="edge">
<title>Node1&#45;&gt;Node15</title>
<path fill="none" stroke="midnightblue" d="M275.37,-512.14C256.13,-490.4 220.24,-453.46 182,-432.5 175.03,-428.68 167.43,-425.41 159.7,-422.61"/>
<polygon fill="midnightblue" stroke="midnightblue" points="272.93,-514.66 282.12,-519.93 278.21,-510.08 272.93,-514.66"/>
</g>
<!-- Node16 -->
<g id="node16" class="node">
<title>Node16</title>
<g id="a_node16"><a xlink:href="../../df/d71/classpocketmine_1_1block_1_1_small_dripleaf.html#a177d359388b09f7cfbdafaf528450626" target="_top" xlink:title=" ">
<polygon fill="white" stroke="black" points="4.5,-343.5 4.5,-373.5 177.5,-373.5 177.5,-343.5 4.5,-343.5"/>
<text text-anchor="start" x="12.5" y="-361.5" font-family="Helvetica,sans-Serif" font-size="10.00">pocketmine\block\SmallDripleaf</text>
<text text-anchor="middle" x="91" y="-350.5" font-family="Helvetica,sans-Serif" font-size="10.00">\onInteract</text>
</a>
</g>
</g>
<!-- Node1&#45;&gt;Node16 -->
<g id="edge15" class="edge">
<title>Node1&#45;&gt;Node16</title>
<path fill="none" stroke="midnightblue" d="M281.25,-510.62C265.77,-479.33 230.55,-416.89 182,-383.5 176.39,-379.64 170.19,-376.37 163.76,-373.61"/>
<polygon fill="midnightblue" stroke="midnightblue" points="278.25,-512.45 285.73,-519.95 284.55,-509.42 278.25,-512.45"/>
</g>
<!-- Node17 -->
<g id="node17" class="node">
<title>Node17</title>
<g id="a_node17"><a xlink:href="../../da/da9/classpocketmine_1_1block_1_1_sugarcane.html#a7442fd80109d1e73aa4d62a0d1b85a6b" target="_top" xlink:title=" ">
<polygon fill="white" stroke="black" points="12.5,-294.5 12.5,-324.5 169.5,-324.5 169.5,-294.5 12.5,-294.5"/>
<text text-anchor="start" x="20.5" y="-312.5" font-family="Helvetica,sans-Serif" font-size="10.00">pocketmine\block\Sugarcane</text>
<text text-anchor="middle" x="91" y="-301.5" font-family="Helvetica,sans-Serif" font-size="10.00">\onInteract</text>
</a>
</g>
</g>
<!-- Node1&#45;&gt;Node17 -->
<g id="edge16" class="edge">
<title>Node1&#45;&gt;Node17</title>
<path fill="none" stroke="midnightblue" d="M284.73,-509.89C273.09,-470.47 241.43,-381.39 182,-334.5 177.16,-330.68 171.78,-327.45 166.11,-324.71"/>
<polygon fill="midnightblue" stroke="midnightblue" points="281.39,-510.95 287.48,-519.62 288.12,-509.04 281.39,-510.95"/>
</g>
<!-- Node18 -->
<g id="node18" class="node">
<title>Node18</title>
<g id="a_node18"><a xlink:href="../../d4/d4c/classpocketmine_1_1block_1_1_sweet_berry_bush.html#ad9edd253072c13db2a4f52090c826303" target="_top" xlink:title=" ">
<polygon fill="white" stroke="black" points="10,-245.5 10,-275.5 172,-275.5 172,-245.5 10,-245.5"/>
<text text-anchor="start" x="18" y="-263.5" font-family="Helvetica,sans-Serif" font-size="10.00">pocketmine\block\SweetBerry</text>
<text text-anchor="middle" x="91" y="-252.5" font-family="Helvetica,sans-Serif" font-size="10.00">Bush\onInteract</text>
</a>
</g>
</g>
<!-- Node1&#45;&gt;Node18 -->
<g id="edge17" class="edge">
<title>Node1&#45;&gt;Node18</title>
<path fill="none" stroke="midnightblue" d="M287.1,-509.9C279.2,-463.6 252.92,-346.77 182,-285.5 177.58,-281.68 172.63,-278.45 167.37,-275.7"/>
<polygon fill="midnightblue" stroke="midnightblue" points="283.66,-510.52 288.7,-519.84 290.57,-509.41 283.66,-510.52"/>
</g>
<!-- Node19 -->
<g id="node19" class="node">
<title>Node19</title>
<g id="a_node19"><a xlink:href="../../dc/dce/classpocketmine_1_1block_1_1_t_n_t.html#af27c2026d3226e84e3d3aede48933e01" target="_top" xlink:title=" ">
<polygon fill="white" stroke="black" points="28.5,-196.5 28.5,-226.5 153.5,-226.5 153.5,-196.5 28.5,-196.5"/>
<text text-anchor="start" x="36.5" y="-214.5" font-family="Helvetica,sans-Serif" font-size="10.00">pocketmine\block\TNT</text>
<text text-anchor="middle" x="91" y="-203.5" font-family="Helvetica,sans-Serif" font-size="10.00">\onInteract</text>
</a>
</g>
</g>
<!-- Node1&#45;&gt;Node19 -->
<g id="edge18" class="edge">
<title>Node1&#45;&gt;Node19</title>
<path fill="none" stroke="midnightblue" d="M288.74,-509.98C284.27,-457.58 264.66,-312.63 182,-236.5 174.01,-229.14 164.03,-223.92 153.66,-220.22"/>
<polygon fill="midnightblue" stroke="midnightblue" points="285.25,-510.25 289.49,-519.96 292.23,-509.72 285.25,-510.25"/>
</g>
<!-- Node20 -->
<g id="node20" class="node">
<title>Node20</title>
<g id="a_node20"><a xlink:href="../../de/d91/classpocketmine_1_1block_1_1_torchflower_crop.html#aaf61de947d43fdb7cb09ce1bef780fdd" target="_top" xlink:title=" ">
<polygon fill="white" stroke="black" points="10.5,-147.5 10.5,-177.5 171.5,-177.5 171.5,-147.5 10.5,-147.5"/>
<text text-anchor="start" x="18.5" y="-165.5" font-family="Helvetica,sans-Serif" font-size="10.00">pocketmine\block\Torchflower</text>
<text text-anchor="middle" x="91" y="-154.5" font-family="Helvetica,sans-Serif" font-size="10.00">Crop\onInteract</text>
</a>
</g>
</g>
<!-- Node1&#45;&gt;Node20 -->
<g id="edge19" class="edge">
<title>Node1&#45;&gt;Node20</title>
<path fill="none" stroke="midnightblue" d="M289.92,-509.92C288.59,-451.82 276.48,-278.74 182,-187.5 178.03,-183.67 173.53,-180.42 168.71,-177.65"/>
<polygon fill="midnightblue" stroke="midnightblue" points="286.42,-510 290.07,-519.95 293.42,-509.9 286.42,-510"/>
</g>
<!-- Node21 -->
<g id="node21" class="node">
<title>Node21</title>
<g id="a_node21"><a xlink:href="../../d8/d25/classpocketmine_1_1block_1_1_water_cauldron.html#a8457410996d3eaa88f0165a70671bd8b" target="_top" xlink:title=" ">
<polygon fill="white" stroke="black" points="2,-98.5 2,-128.5 180,-128.5 180,-98.5 2,-98.5"/>
<text text-anchor="start" x="10" y="-116.5" font-family="Helvetica,sans-Serif" font-size="10.00">pocketmine\block\WaterCauldron</text>
<text text-anchor="middle" x="91" y="-105.5" font-family="Helvetica,sans-Serif" font-size="10.00">\onInteract</text>
</a>
</g>
</g>
<!-- Node1&#45;&gt;Node21 -->
<g id="edge20" class="edge">
<title>Node1&#45;&gt;Node21</title>
<path fill="none" stroke="midnightblue" d="M287.13,-509.68C276.37,-437.87 236.21,-192.79 182,-138.5 178.22,-134.71 173.92,-131.49 169.29,-128.74"/>
<polygon fill="midnightblue" stroke="midnightblue" points="283.73,-510.61 288.66,-519.99 290.66,-509.59 283.73,-510.61"/>
</g>
<!-- Node22 -->
<g id="node22" class="node">
<title>Node22</title>
<g id="a_node22"><a xlink:href="../../d9/d13/classpocketmine_1_1item_1_1_fire_charge.html#aa46b353b8b7765f4ab780a997a55affc" target="_top" xlink:title=" ">
<polygon fill="white" stroke="black" points="13.5,-49.5 13.5,-79.5 168.5,-79.5 168.5,-49.5 13.5,-49.5"/>
<text text-anchor="start" x="21.5" y="-67.5" font-family="Helvetica,sans-Serif" font-size="10.00">pocketmine\item\FireCharge</text>
<text text-anchor="middle" x="91" y="-56.5" font-family="Helvetica,sans-Serif" font-size="10.00">\onInteractBlock</text>
</a>
</g>
</g>
<!-- Node1&#45;&gt;Node22 -->
<g id="edge21" class="edge">
<title>Node1&#45;&gt;Node22</title>
<path fill="none" stroke="midnightblue" d="M287.79,-509.74C278.77,-432.42 242.3,-151.65 182,-89.5 178.05,-85.43 173.49,-82 168.58,-79.12"/>
<polygon fill="midnightblue" stroke="midnightblue" points="284.35,-510.44 288.96,-519.98 291.3,-509.64 284.35,-510.44"/>
</g>
<!-- Node23 -->
<g id="node23" class="node">
<title>Node23</title>
<g id="a_node23"><a xlink:href="../../d2/d57/classpocketmine_1_1item_1_1_glass_bottle.html#a552e338f3abfb3e855e2bdbe57bf3b09" target="_top" xlink:title=" ">
<polygon fill="white" stroke="black" points="12,-0.5 12,-30.5 170,-30.5 170,-0.5 12,-0.5"/>
<text text-anchor="start" x="20" y="-18.5" font-family="Helvetica,sans-Serif" font-size="10.00">pocketmine\item\GlassBottle</text>
<text text-anchor="middle" x="91" y="-7.5" font-family="Helvetica,sans-Serif" font-size="10.00">\onInteractBlock</text>
</a>
</g>
</g>
<!-- Node1&#45;&gt;Node23 -->
<g id="edge22" class="edge">
<title>Node1&#45;&gt;Node23</title>
<path fill="none" stroke="midnightblue" d="M288.31,-509.68C280.87,-427 248.4,-110.56 182,-40.5 178.32,-36.62 174.09,-33.32 169.52,-30.52"/>
<polygon fill="midnightblue" stroke="midnightblue" points="284.83,-510.09 289.19,-519.75 291.81,-509.48 284.83,-510.09"/>
</g>
</g>
</svg>
        <g id="navigator" transform="translate(0 0)" fill="#404254">
                <rect fill="#f2f5e9" fill-opacity="0.5" stroke="#606060" stroke-width=".5" x="0" y="0" width="60" height="60"/>
                <use id="zoomplus" xlink:href="#zoomPlus" x="17" y="9" onmousedown="handleZoom(evt,'in')"/>
                <use id="zoomminus" xlink:href="#zoomMin" x="42" y="9" onmousedown="handleZoom(evt,'out')"/>
                <use id="reset" xlink:href="#resetDef" x="30" y="36" onmousedown="handleReset()"/>
                <g id="arrowUp" xlink:href="#dirArrow" transform="translate(30 24)" onmousedown="handlePan(0,-1)">
                  <use xlink:href="#rim" fill="#404040">
                        <set attributeName="fill" to="#808080" begin="arrowUp.mouseover" end="arrowUp.mouseout"/>
                  </use>
                  <path fill="none" stroke="white" stroke-width="1.5" d="M0,-3.0v7 M-2.5,-0.5L0,-3.0L2.5,-0.5"/>
                </g>
                <g id="arrowRight" xlink:href="#dirArrow" transform="rotate(90) translate(36 -43)" onmousedown="handlePan(1,0)">
                  <use xlink:href="#rim" fill="#404040">
                        <set attributeName="fill" to="#808080" begin="arrowRight.mouseover" end="arrowRight.mouseout"/>
                  </use>
                  <path fill="none" stroke="white" stroke-width="1.5" d="M0,-3.0v7 M-2.5,-0.5L0,-3.0L2.5,-0.5"/>
                </g>
                <g id="arrowDown" xlink:href="#dirArrow" transform="rotate(180) translate(-30 -48)" onmousedown="handlePan(0,1)">
                  <use xlink:href="#rim" fill="#404040">
                        <set attributeName="fill" to="#808080" begin="arrowDown.mouseover" end="arrowDown.mouseout"/>
                  </use>
                  <path fill="none" stroke="white" stroke-width="1.5" d="M0,-3.0v7 M-2.5,-0.5L0,-3.0L2.5,-0.5"/>
                </g>
                <g id="arrowLeft" xlink:href="#dirArrow" transform="rotate(270) translate(-36 17)" onmousedown="handlePan(-1,0)">
                  <use xlink:href="#rim" fill="#404040">
                        <set attributeName="fill" to="#808080" begin="arrowLeft.mouseover" end="arrowLeft.mouseout"/>
                  </use>
                  <path fill="none" stroke="white" stroke-width="1.5" d="M0,-3.0v7 M-2.5,-0.5L0,-3.0L2.5,-0.5"/>
                </g>
        </g>
        <svg viewBox="0 0 15 15" width="100%" height="30px" preserveAspectRatio="xMaxYMin meet">
         <g id="arrow_out" transform="scale(0.3 0.3)">
          <a xlink:href="classpocketmine_1_1item_1_1_item_a67b44433c553602d7c851b1ca23e6e5e_icgraph_org.svg" target="_base">
           <rect id="button" ry="5" rx="5" y="6" x="6" height="38" width="38"
                fill="#f2f5e9" fill-opacity="0.5" stroke="#606060" stroke-width="1.0"/>
           <path id="arrow"
             d="M 11.500037,31.436501 C 11.940474,20.09759 22.043105,11.32322 32.158766,21.979434 L 37.068811,17.246167 C 37.068811,17.246167 37.088388,32 37.088388,32 L 22.160133,31.978069 C 22.160133,31.978069 26.997745,27.140456 26.997745,27.140456 C 18.528582,18.264221 13.291696,25.230495 11.500037,31.436501 z"
             style="fill:#404040;"/>
          </a>
         </g>
        </svg>
</svg>
