<?xml version="1.0" encoding="UTF-8" standalone="no"?>
<!DOCTYPE svg PUBLIC "-//W3C//DTD SVG 1.1//EN"
 "http://www.w3.org/Graphics/SVG/1.1/DTD/svg11.dtd">
<!-- Generated by graphviz version 2.43.0 (0)
 -->
<!-- Title: pocketmine\item\Item\pop Pages: 1 -->
<svg width="372pt" height="1334pt"
 viewBox="0.00 0.00 372.00 1334.00" xmlns="http://www.w3.org/2000/svg" xmlns:xlink="http://www.w3.org/1999/xlink">
<g id="graph0" class="graph" transform="scale(1 1) rotate(0) translate(4 1330)">
<title>pocketmine\item\Item\pop</title>
<!-- Node1 -->
<g id="Node000001" class="node">
<title>Node1</title>
<g id="a_Node000001"><a xlink:title=" ">
<polygon fill="#999999" stroke="#666666" points="364,-672.5 218,-672.5 218,-653.5 364,-653.5 364,-672.5"/>
<text text-anchor="middle" x="291" y="-660.5" font-family="Helvetica,sans-Serif" font-size="10.00">pocketmine\item\Item\pop</text>
</a>
</g>
</g>
<!-- Node2 -->
<g id="Node000002" class="node">
<title>Node2</title>
<g id="a_Node000002"><a xlink:href="../../db/df1/classpocketmine_1_1block_1_1_azalea.html#a5005a95d3665f9b25a739c7d604e0d47" target="_top" xlink:title=" ">
<polygon fill="white" stroke="#666666" points="160.5,-1326 21.5,-1326 21.5,-1296 160.5,-1296 160.5,-1326"/>
<text text-anchor="start" x="29.5" y="-1314" font-family="Helvetica,sans-Serif" font-size="10.00">pocketmine\block\Azalea</text>
<text text-anchor="middle" x="91" y="-1303" font-family="Helvetica,sans-Serif" font-size="10.00">\onInteract</text>
</a>
</g>
</g>
<!-- Node1&#45;&gt;Node2 -->
<g id="edge1_Node000001_Node000002" class="edge">
<title>Node1&#45;&gt;Node2</title>
<g id="a_edge1_Node000001_Node000002"><a xlink:title=" ">
<path fill="none" stroke="#63b8ff" d="M289.37,-682.54C285.87,-778.09 265.96,-1195.2 182,-1287 176.11,-1293.44 168.7,-1298.24 160.67,-1301.79"/>
<polygon fill="#63b8ff" stroke="#63b8ff" points="292.86,-682.64 289.71,-672.53 285.87,-682.4 292.86,-682.64"/>
</a>
</g>
</g>
<!-- Node3 -->
<g id="Node000003" class="node">
<title>Node3</title>
<g id="a_Node000003"><a xlink:href="../../d1/dae/classpocketmine_1_1block_1_1_bamboo.html#a86b636e543cc443407c3b0c6347444a1" target="_top" xlink:title=" ">
<polygon fill="white" stroke="#666666" points="164,-1278 18,-1278 18,-1248 164,-1248 164,-1278"/>
<text text-anchor="start" x="26" y="-1266" font-family="Helvetica,sans-Serif" font-size="10.00">pocketmine\block\Bamboo</text>
<text text-anchor="middle" x="91" y="-1255" font-family="Helvetica,sans-Serif" font-size="10.00">\onInteract</text>
</a>
</g>
</g>
<!-- Node1&#45;&gt;Node3 -->
<g id="edge2_Node000001_Node000003" class="edge">
<title>Node1&#45;&gt;Node3</title>
<g id="a_edge2_Node000001_Node000003"><a xlink:title=" ">
<path fill="none" stroke="#63b8ff" d="M289.05,-682.75C284.25,-774.13 259.79,-1155.12 182,-1239 176.94,-1244.45 170.8,-1248.72 164.12,-1252.06"/>
<polygon fill="#63b8ff" stroke="#63b8ff" points="292.55,-682.82 289.56,-672.66 285.56,-682.47 292.55,-682.82"/>
</a>
</g>
</g>
<!-- Node4 -->
<g id="Node000004" class="node">
<title>Node4</title>
<g id="a_Node000004"><a xlink:href="../../d6/dae/classpocketmine_1_1block_1_1_bamboo_sapling.html#af01e5cc00d9fa23654cffaf5254fe75e" target="_top" xlink:title=" ">
<polygon fill="white" stroke="#666666" points="182,-1230 0,-1230 0,-1200 182,-1200 182,-1230"/>
<text text-anchor="start" x="8" y="-1218" font-family="Helvetica,sans-Serif" font-size="10.00">pocketmine\block\BambooSapling</text>
<text text-anchor="middle" x="91" y="-1207" font-family="Helvetica,sans-Serif" font-size="10.00">\onInteract</text>
</a>
</g>
</g>
<!-- Node1&#45;&gt;Node4 -->
<g id="edge3_Node000001_Node000004" class="edge">
<title>Node1&#45;&gt;Node4</title>
<g id="a_edge3_Node000001_Node000004"><a xlink:title=" ">
<path fill="none" stroke="#63b8ff" d="M288.69,-682.73C282.52,-769.34 253.72,-1114.93 182,-1191 178.78,-1194.41 175.14,-1197.36 171.21,-1199.9"/>
<polygon fill="#63b8ff" stroke="#63b8ff" points="292.18,-682.89 289.38,-672.68 285.2,-682.41 292.18,-682.89"/>
</a>
</g>
</g>
<!-- Node5 -->
<g id="Node000005" class="node">
<title>Node5</title>
<g id="a_Node000005"><a xlink:href="../../d5/d5a/classpocketmine_1_1block_1_1_base_big_dripleaf.html#ad4c153b1920d1b9e5bc201d5a6de7054" target="_top" xlink:title=" ">
<polygon fill="white" stroke="#666666" points="164,-1182 18,-1182 18,-1152 164,-1152 164,-1182"/>
<text text-anchor="start" x="26" y="-1170" font-family="Helvetica,sans-Serif" font-size="10.00">pocketmine\block\BaseBig</text>
<text text-anchor="middle" x="91" y="-1159" font-family="Helvetica,sans-Serif" font-size="10.00">Dripleaf\onInteract</text>
</a>
</g>
</g>
<!-- Node1&#45;&gt;Node5 -->
<g id="edge4_Node000001_Node000005" class="edge">
<title>Node1&#45;&gt;Node5</title>
<g id="a_edge4_Node000001_Node000005"><a xlink:title=" ">
<path fill="none" stroke="#63b8ff" d="M288.23,-682.97C280.55,-764.99 247.59,-1074.78 182,-1143 176.96,-1148.25 170.91,-1152.39 164.36,-1155.65"/>
<polygon fill="#63b8ff" stroke="#63b8ff" points="291.75,-682.86 289.18,-672.58 284.78,-682.22 291.75,-682.86"/>
</a>
</g>
</g>
<!-- Node6 -->
<g id="Node000006" class="node">
<title>Node6</title>
<g id="a_Node000006"><a xlink:href="../../df/d1c/classpocketmine_1_1block_1_1_cake.html#a45815ac91b49c1d30b1ea40fabdd3ce9" target="_top" xlink:title=" ">
<polygon fill="white" stroke="#666666" points="156,-1134 26,-1134 26,-1104 156,-1104 156,-1134"/>
<text text-anchor="start" x="34" y="-1122" font-family="Helvetica,sans-Serif" font-size="10.00">pocketmine\block\Cake</text>
<text text-anchor="middle" x="91" y="-1111" font-family="Helvetica,sans-Serif" font-size="10.00">\onInteract</text>
</a>
</g>
</g>
<!-- Node1&#45;&gt;Node6 -->
<g id="edge5_Node000001_Node000006" class="edge">
<title>Node1&#45;&gt;Node6</title>
<g id="a_edge5_Node000001_Node000006"><a xlink:title=" ">
<path fill="none" stroke="#63b8ff" d="M287.7,-682.92C278.45,-759.61 241.58,-1034.48 182,-1095 174.85,-1102.26 165.77,-1107.4 156.14,-1111.02"/>
<polygon fill="#63b8ff" stroke="#63b8ff" points="291.2,-683.08 288.9,-672.73 284.25,-682.25 291.2,-683.08"/>
</a>
</g>
</g>
<!-- Node7 -->
<g id="Node000007" class="node">
<title>Node7</title>
<g id="a_Node000007"><a xlink:href="../../d9/d68/classpocketmine_1_1block_1_1_cocoa_block.html#a8dac94b490c40381a68ed917c0083c01" target="_top" xlink:title=" ">
<polygon fill="white" stroke="#666666" points="172.5,-1086 9.5,-1086 9.5,-1056 172.5,-1056 172.5,-1086"/>
<text text-anchor="start" x="17.5" y="-1074" font-family="Helvetica,sans-Serif" font-size="10.00">pocketmine\block\CocoaBlock</text>
<text text-anchor="middle" x="91" y="-1063" font-family="Helvetica,sans-Serif" font-size="10.00">\onInteract</text>
</a>
</g>
</g>
<!-- Node1&#45;&gt;Node7 -->
<g id="edge6_Node000001_Node000007" class="edge">
<title>Node1&#45;&gt;Node7</title>
<g id="a_edge6_Node000001_Node000007"><a xlink:title=" ">
<path fill="none" stroke="#63b8ff" d="M290.77,-682.89C292.05,-745.94 287.12,-943.29 182,-1047 178.55,-1050.41 174.67,-1053.35 170.51,-1055.88"/>
<polygon fill="#63b8ff" stroke="#63b8ff" points="294.26,-682.63 290.48,-672.73 287.26,-682.83 294.26,-682.63"/>
</a>
</g>
</g>
<!-- Node8 -->
<g id="Node000008" class="node">
<title>Node8</title>
<g id="a_Node000008"><a xlink:href="../../d2/d70/classpocketmine_1_1block_1_1_crops.html#a6c9da7f1ae5d2201f833497a2d8e915f" target="_top" xlink:title=" ">
<polygon fill="white" stroke="#666666" points="158,-1038 24,-1038 24,-1008 158,-1008 158,-1038"/>
<text text-anchor="start" x="32" y="-1026" font-family="Helvetica,sans-Serif" font-size="10.00">pocketmine\block\Crops</text>
<text text-anchor="middle" x="91" y="-1015" font-family="Helvetica,sans-Serif" font-size="10.00">\onInteract</text>
</a>
</g>
</g>
<!-- Node1&#45;&gt;Node8 -->
<g id="edge7_Node000001_Node000008" class="edge">
<title>Node1&#45;&gt;Node8</title>
<g id="a_edge7_Node000001_Node000008"><a xlink:title=" ">
<path fill="none" stroke="#63b8ff" d="M289.83,-683.03C288.19,-740.99 275.26,-910.32 182,-999 175.2,-1005.46 166.87,-1010.23 158.04,-1013.74"/>
<polygon fill="#63b8ff" stroke="#63b8ff" points="293.33,-682.77 290.02,-672.7 286.33,-682.63 293.33,-682.77"/>
</a>
</g>
</g>
<!-- Node9 -->
<g id="Node000009" class="node">
<title>Node9</title>
<g id="a_Node000009"><a xlink:href="../../da/d01/classpocketmine_1_1block_1_1_double_pitcher_crop.html#a8bb2a541b8977cdb13024f71d754d959" target="_top" xlink:title=" ">
<polygon fill="white" stroke="#666666" points="178,-990 4,-990 4,-960 178,-960 178,-990"/>
<text text-anchor="start" x="12" y="-978" font-family="Helvetica,sans-Serif" font-size="10.00">pocketmine\block\DoublePitcher</text>
<text text-anchor="middle" x="91" y="-967" font-family="Helvetica,sans-Serif" font-size="10.00">Crop\onInteract</text>
</a>
</g>
</g>
<!-- Node1&#45;&gt;Node9 -->
<g id="edge8_Node000001_Node000009" class="edge">
<title>Node1&#45;&gt;Node9</title>
<g id="a_edge8_Node000001_Node000009"><a xlink:title=" ">
<path fill="none" stroke="#63b8ff" d="M288.6,-682.92C283.85,-735.12 263.66,-876.99 182,-951 178.29,-954.37 174.15,-957.27 169.75,-959.77"/>
<polygon fill="#63b8ff" stroke="#63b8ff" points="292.12,-682.93 289.44,-672.68 285.14,-682.36 292.12,-682.93"/>
</a>
</g>
</g>
<!-- Node10 -->
<g id="Node000010" class="node">
<title>Node10</title>
<g id="a_Node000010"><a xlink:href="../../d4/dc5/classpocketmine_1_1block_1_1_glow_lichen.html#a9f1a594e1821b190423f067b6f151940" target="_top" xlink:title=" ">
<polygon fill="white" stroke="#666666" points="172,-942 10,-942 10,-912 172,-912 172,-942"/>
<text text-anchor="start" x="18" y="-930" font-family="Helvetica,sans-Serif" font-size="10.00">pocketmine\block\GlowLichen</text>
<text text-anchor="middle" x="91" y="-919" font-family="Helvetica,sans-Serif" font-size="10.00">\onInteract</text>
</a>
</g>
</g>
<!-- Node1&#45;&gt;Node10 -->
<g id="edge9_Node000001_Node000010" class="edge">
<title>Node1&#45;&gt;Node10</title>
<g id="a_edge9_Node000001_Node000010"><a xlink:title=" ">
<path fill="none" stroke="#63b8ff" d="M286.99,-682.63C278.89,-728.48 252.3,-843.27 182,-903 177.93,-906.46 173.42,-909.42 168.64,-911.96"/>
<polygon fill="#63b8ff" stroke="#63b8ff" points="290.48,-682.97 288.66,-672.53 283.57,-681.82 290.48,-682.97"/>
</a>
</g>
</g>
<!-- Node11 -->
<g id="Node000011" class="node">
<title>Node11</title>
<g id="a_Node000011"><a xlink:href="../../db/d15/classpocketmine_1_1block_1_1_jukebox.html#ad282da10a5427d2fb36ae427bf6480b0" target="_top" xlink:title=" ">
<polygon fill="white" stroke="#666666" points="163,-894 19,-894 19,-864 163,-864 163,-894"/>
<text text-anchor="start" x="27" y="-882" font-family="Helvetica,sans-Serif" font-size="10.00">pocketmine\block\Jukebox</text>
<text text-anchor="middle" x="91" y="-871" font-family="Helvetica,sans-Serif" font-size="10.00">\onInteract</text>
</a>
</g>
</g>
<!-- Node1&#45;&gt;Node11 -->
<g id="edge10_Node000001_Node000011" class="edge">
<title>Node1&#45;&gt;Node11</title>
<g id="a_edge10_Node000001_Node000011"><a xlink:title=" ">
<path fill="none" stroke="#63b8ff" d="M284.6,-682.61C272.81,-721.65 241,-809.26 182,-855 176.38,-859.36 170.03,-862.93 163.37,-865.85"/>
<polygon fill="#63b8ff" stroke="#63b8ff" points="288.03,-683.34 287.46,-672.76 281.31,-681.39 288.03,-683.34"/>
</a>
</g>
</g>
<!-- Node12 -->
<g id="Node000012" class="node">
<title>Node12</title>
<g id="a_Node000012"><a xlink:href="../../de/d09/classpocketmine_1_1block_1_1_lectern.html#a84faa25359442844f27348bad5b95fc9" target="_top" xlink:title=" ">
<polygon fill="white" stroke="#666666" points="162,-846 20,-846 20,-816 162,-816 162,-846"/>
<text text-anchor="start" x="28" y="-834" font-family="Helvetica,sans-Serif" font-size="10.00">pocketmine\block\Lectern</text>
<text text-anchor="middle" x="91" y="-823" font-family="Helvetica,sans-Serif" font-size="10.00">\onInteract</text>
</a>
</g>
</g>
<!-- Node1&#45;&gt;Node12 -->
<g id="edge11_Node000001_Node000012" class="edge">
<title>Node1&#45;&gt;Node12</title>
<g id="a_edge11_Node000001_Node000012"><a xlink:title=" ">
<path fill="none" stroke="#63b8ff" d="M280.99,-682.13C265.35,-713.21 230.16,-774.48 182,-807 175.97,-811.07 169.28,-814.45 162.34,-817.26"/>
<polygon fill="#63b8ff" stroke="#63b8ff" points="284.29,-683.35 285.54,-672.83 278,-680.27 284.29,-683.35"/>
</a>
</g>
</g>
<!-- Node13 -->
<g id="Node000013" class="node">
<title>Node13</title>
<g id="a_Node000013"><a xlink:href="../../da/dfb/classpocketmine_1_1block_1_1_nether_fungus.html#a074bd183d96abde52dce4e8adbb0ecbd" target="_top" xlink:title=" ">
<polygon fill="white" stroke="#666666" points="177.5,-798 4.5,-798 4.5,-768 177.5,-768 177.5,-798"/>
<text text-anchor="start" x="12.5" y="-786" font-family="Helvetica,sans-Serif" font-size="10.00">pocketmine\block\NetherFungus</text>
<text text-anchor="middle" x="91" y="-775" font-family="Helvetica,sans-Serif" font-size="10.00">\onInteract</text>
</a>
</g>
</g>
<!-- Node1&#45;&gt;Node13 -->
<g id="edge12_Node000001_Node000013" class="edge">
<title>Node1&#45;&gt;Node13</title>
<g id="a_edge12_Node000001_Node000013"><a xlink:title=" ">
<path fill="none" stroke="#63b8ff" d="M275.37,-680.23C256.12,-701.81 220.23,-738.43 182,-759 175.59,-762.45 168.66,-765.43 161.57,-767.99"/>
<polygon fill="#63b8ff" stroke="#63b8ff" points="278.17,-682.34 282.12,-672.51 272.9,-677.73 278.17,-682.34"/>
</a>
</g>
</g>
<!-- Node14 -->
<g id="Node000014" class="node">
<title>Node14</title>
<g id="a_Node000014"><a xlink:href="../../d5/d84/classpocketmine_1_1block_1_1_netherrack.html#aa020a81c7c374c5310d13bb64558517d" target="_top" xlink:title=" ">
<polygon fill="white" stroke="#666666" points="171,-750 11,-750 11,-720 171,-720 171,-750"/>
<text text-anchor="start" x="19" y="-738" font-family="Helvetica,sans-Serif" font-size="10.00">pocketmine\block\Netherrack</text>
<text text-anchor="middle" x="91" y="-727" font-family="Helvetica,sans-Serif" font-size="10.00">\onInteract</text>
</a>
</g>
</g>
<!-- Node1&#45;&gt;Node14 -->
<g id="edge13_Node000001_Node000014" class="edge">
<title>Node1&#45;&gt;Node14</title>
<g id="a_edge13_Node000001_Node000014"><a xlink:title=" ">
<path fill="none" stroke="#63b8ff" d="M261.66,-677.07C240.16,-687.38 209.68,-701.23 182,-711 173,-714.18 163.37,-717.16 153.88,-719.88"/>
<polygon fill="#63b8ff" stroke="#63b8ff" points="263.39,-680.12 270.86,-672.61 260.34,-673.82 263.39,-680.12"/>
</a>
</g>
</g>
<!-- Node15 -->
<g id="Node000015" class="node">
<title>Node15</title>
<g id="a_Node000015"><a xlink:href="../../d0/dbe/classpocketmine_1_1block_1_1_nether_vines.html#ac266ed61314519f7c450516441686da6" target="_top" xlink:title=" ">
<polygon fill="white" stroke="#666666" points="174,-702 8,-702 8,-672 174,-672 174,-702"/>
<text text-anchor="start" x="16" y="-690" font-family="Helvetica,sans-Serif" font-size="10.00">pocketmine\block\NetherVines</text>
<text text-anchor="middle" x="91" y="-679" font-family="Helvetica,sans-Serif" font-size="10.00">\onInteract</text>
</a>
</g>
</g>
<!-- Node1&#45;&gt;Node15 -->
<g id="edge14_Node000001_Node000015" class="edge">
<title>Node1&#45;&gt;Node15</title>
<g id="a_edge14_Node000001_Node000015"><a xlink:title=" ">
<path fill="none" stroke="#63b8ff" d="M207.81,-672.96C196.66,-674.31 185.21,-675.7 174.05,-677.05"/>
<polygon fill="#63b8ff" stroke="#63b8ff" points="208.45,-676.41 217.96,-671.73 207.61,-669.46 208.45,-676.41"/>
</a>
</g>
</g>
<!-- Node16 -->
<g id="Node000016" class="node">
<title>Node16</title>
<g id="a_Node000016"><a xlink:href="../../d9/d9d/classpocketmine_1_1block_1_1_nylium.html#aafe8974a36baa4d3a92fd9935520e594" target="_top" xlink:title=" ">
<polygon fill="white" stroke="#666666" points="161.5,-654 20.5,-654 20.5,-624 161.5,-624 161.5,-654"/>
<text text-anchor="start" x="28.5" y="-642" font-family="Helvetica,sans-Serif" font-size="10.00">pocketmine\block\Nylium</text>
<text text-anchor="middle" x="91" y="-631" font-family="Helvetica,sans-Serif" font-size="10.00">\onInteract</text>
</a>
</g>
</g>
<!-- Node1&#45;&gt;Node16 -->
<g id="edge15_Node000001_Node000016" class="edge">
<title>Node1&#45;&gt;Node16</title>
<g id="a_edge15_Node000001_Node000016"><a xlink:title=" ">
<path fill="none" stroke="#63b8ff" d="M207.95,-653.05C192.57,-651.19 176.63,-649.26 161.67,-647.45"/>
<polygon fill="#63b8ff" stroke="#63b8ff" points="207.61,-656.54 217.96,-654.27 208.45,-649.59 207.61,-656.54"/>
</a>
</g>
</g>
<!-- Node17 -->
<g id="Node000017" class="node">
<title>Node17</title>
<g id="a_Node000017"><a xlink:href="../../db/dc0/classpocketmine_1_1block_1_1_pink_petals.html#a5c103dd12f2f2a138eec2f26dc2dfe9d" target="_top" xlink:title=" ">
<polygon fill="white" stroke="#666666" points="169.5,-606 12.5,-606 12.5,-576 169.5,-576 169.5,-606"/>
<text text-anchor="start" x="20.5" y="-594" font-family="Helvetica,sans-Serif" font-size="10.00">pocketmine\block\PinkPetals</text>
<text text-anchor="middle" x="91" y="-583" font-family="Helvetica,sans-Serif" font-size="10.00">\onInteract</text>
</a>
</g>
</g>
<!-- Node1&#45;&gt;Node17 -->
<g id="edge16_Node000001_Node000017" class="edge">
<title>Node1&#45;&gt;Node17</title>
<g id="a_edge16_Node000001_Node000017"><a xlink:title=" ">
<path fill="none" stroke="#63b8ff" d="M261.66,-648.93C240.16,-638.62 209.68,-624.77 182,-615 173,-611.82 163.37,-608.84 153.88,-606.12"/>
<polygon fill="#63b8ff" stroke="#63b8ff" points="260.34,-652.18 270.86,-653.39 263.39,-645.88 260.34,-652.18"/>
</a>
</g>
</g>
<!-- Node18 -->
<g id="Node000018" class="node">
<title>Node18</title>
<g id="a_Node000018"><a xlink:href="../../da/d04/classpocketmine_1_1block_1_1_pitcher_crop.html#a47c98c95d1c7c33fdbd913a05f8d7d59" target="_top" xlink:title=" ">
<polygon fill="white" stroke="#666666" points="161,-558 21,-558 21,-528 161,-528 161,-558"/>
<text text-anchor="start" x="29" y="-546" font-family="Helvetica,sans-Serif" font-size="10.00">pocketmine\block\Pitcher</text>
<text text-anchor="middle" x="91" y="-535" font-family="Helvetica,sans-Serif" font-size="10.00">Crop\onInteract</text>
</a>
</g>
</g>
<!-- Node1&#45;&gt;Node18 -->
<g id="edge17_Node000001_Node000018" class="edge">
<title>Node1&#45;&gt;Node18</title>
<g id="a_edge17_Node000001_Node000018"><a xlink:title=" ">
<path fill="none" stroke="#63b8ff" d="M275.37,-645.77C256.12,-624.19 220.23,-587.57 182,-567 175.45,-563.48 168.35,-560.44 161.1,-557.84"/>
<polygon fill="#63b8ff" stroke="#63b8ff" points="272.9,-648.27 282.12,-653.49 278.17,-643.66 272.9,-648.27"/>
</a>
</g>
</g>
<!-- Node19 -->
<g id="Node000019" class="node">
<title>Node19</title>
<g id="a_Node000019"><a xlink:href="../../d3/dfe/classpocketmine_1_1block_1_1_respawn_anchor.html#a86867b597b461c412a38cb3e46732872" target="_top" xlink:title=" ">
<polygon fill="white" stroke="#666666" points="166,-510 16,-510 16,-480 166,-480 166,-510"/>
<text text-anchor="start" x="24" y="-498" font-family="Helvetica,sans-Serif" font-size="10.00">pocketmine\block\Respawn</text>
<text text-anchor="middle" x="91" y="-487" font-family="Helvetica,sans-Serif" font-size="10.00">Anchor\onInteract</text>
</a>
</g>
</g>
<!-- Node1&#45;&gt;Node19 -->
<g id="edge18_Node000001_Node000019" class="edge">
<title>Node1&#45;&gt;Node19</title>
<g id="a_edge18_Node000001_Node000019"><a xlink:title=" ">
<path fill="none" stroke="#63b8ff" d="M280.99,-643.87C265.35,-612.79 230.16,-551.52 182,-519 176.91,-515.56 171.34,-512.61 165.56,-510.09"/>
<polygon fill="#63b8ff" stroke="#63b8ff" points="278,-645.73 285.54,-653.17 284.29,-642.65 278,-645.73"/>
</a>
</g>
</g>
<!-- Node20 -->
<g id="Node000020" class="node">
<title>Node20</title>
<g id="a_Node000020"><a xlink:href="../../d6/d87/classpocketmine_1_1block_1_1_sapling.html#a33754eb89d9bc549b8529a5a800c62f2" target="_top" xlink:title=" ">
<polygon fill="white" stroke="#666666" points="162,-462 20,-462 20,-432 162,-432 162,-462"/>
<text text-anchor="start" x="28" y="-450" font-family="Helvetica,sans-Serif" font-size="10.00">pocketmine\block\Sapling</text>
<text text-anchor="middle" x="91" y="-439" font-family="Helvetica,sans-Serif" font-size="10.00">\onInteract</text>
</a>
</g>
</g>
<!-- Node1&#45;&gt;Node20 -->
<g id="edge19_Node000001_Node000020" class="edge">
<title>Node1&#45;&gt;Node20</title>
<g id="a_edge19_Node000001_Node000020"><a xlink:title=" ">
<path fill="none" stroke="#63b8ff" d="M284.6,-643.39C272.81,-604.35 241,-516.74 182,-471 175.99,-466.34 169.16,-462.59 162,-459.56"/>
<polygon fill="#63b8ff" stroke="#63b8ff" points="281.31,-644.61 287.46,-653.24 288.03,-642.66 281.31,-644.61"/>
</a>
</g>
</g>
<!-- Node21 -->
<g id="Node000021" class="node">
<title>Node21</title>
<g id="a_Node000021"><a xlink:href="../../df/d71/classpocketmine_1_1block_1_1_small_dripleaf.html#a177d359388b09f7cfbdafaf528450626" target="_top" xlink:title=" ">
<polygon fill="white" stroke="#666666" points="177.5,-414 4.5,-414 4.5,-384 177.5,-384 177.5,-414"/>
<text text-anchor="start" x="12.5" y="-402" font-family="Helvetica,sans-Serif" font-size="10.00">pocketmine\block\SmallDripleaf</text>
<text text-anchor="middle" x="91" y="-391" font-family="Helvetica,sans-Serif" font-size="10.00">\onInteract</text>
</a>
</g>
</g>
<!-- Node1&#45;&gt;Node21 -->
<g id="edge20_Node000001_Node000021" class="edge">
<title>Node1&#45;&gt;Node21</title>
<g id="a_edge20_Node000001_Node000021"><a xlink:title=" ">
<path fill="none" stroke="#63b8ff" d="M286.99,-643.37C278.89,-597.52 252.3,-482.73 182,-423 177.93,-419.54 173.42,-416.58 168.64,-414.04"/>
<polygon fill="#63b8ff" stroke="#63b8ff" points="283.57,-644.18 288.66,-653.47 290.48,-643.03 283.57,-644.18"/>
</a>
</g>
</g>
<!-- Node22 -->
<g id="Node000022" class="node">
<title>Node22</title>
<g id="a_Node000022"><a xlink:href="../../da/da9/classpocketmine_1_1block_1_1_sugarcane.html#a7442fd80109d1e73aa4d62a0d1b85a6b" target="_top" xlink:title=" ">
<polygon fill="white" stroke="#666666" points="169.5,-366 12.5,-366 12.5,-336 169.5,-336 169.5,-366"/>
<text text-anchor="start" x="20.5" y="-354" font-family="Helvetica,sans-Serif" font-size="10.00">pocketmine\block\Sugarcane</text>
<text text-anchor="middle" x="91" y="-343" font-family="Helvetica,sans-Serif" font-size="10.00">\onInteract</text>
</a>
</g>
</g>
<!-- Node1&#45;&gt;Node22 -->
<g id="edge21_Node000001_Node000022" class="edge">
<title>Node1&#45;&gt;Node22</title>
<g id="a_edge21_Node000001_Node000022"><a xlink:title=" ">
<path fill="none" stroke="#63b8ff" d="M288.6,-643.08C283.85,-590.88 263.66,-449.01 182,-375 178.29,-371.63 174.15,-368.73 169.75,-366.23"/>
<polygon fill="#63b8ff" stroke="#63b8ff" points="285.14,-643.64 289.44,-653.32 292.12,-643.07 285.14,-643.64"/>
</a>
</g>
</g>
<!-- Node23 -->
<g id="Node000023" class="node">
<title>Node23</title>
<g id="a_Node000023"><a xlink:href="../../d4/d4c/classpocketmine_1_1block_1_1_sweet_berry_bush.html#ad9edd253072c13db2a4f52090c826303" target="_top" xlink:title=" ">
<polygon fill="white" stroke="#666666" points="172,-318 10,-318 10,-288 172,-288 172,-318"/>
<text text-anchor="start" x="18" y="-306" font-family="Helvetica,sans-Serif" font-size="10.00">pocketmine\block\SweetBerry</text>
<text text-anchor="middle" x="91" y="-295" font-family="Helvetica,sans-Serif" font-size="10.00">Bush\onInteract</text>
</a>
</g>
</g>
<!-- Node1&#45;&gt;Node23 -->
<g id="edge22_Node000001_Node000023" class="edge">
<title>Node1&#45;&gt;Node23</title>
<g id="a_edge22_Node000001_Node000023"><a xlink:title=" ">
<path fill="none" stroke="#63b8ff" d="M289.83,-642.97C288.19,-585.01 275.26,-415.68 182,-327 178.37,-323.55 174.29,-320.58 169.94,-318.02"/>
<polygon fill="#63b8ff" stroke="#63b8ff" points="286.33,-643.37 290.02,-653.3 293.33,-643.23 286.33,-643.37"/>
</a>
</g>
</g>
<!-- Node24 -->
<g id="Node000024" class="node">
<title>Node24</title>
<g id="a_Node000024"><a xlink:href="../../dc/dce/classpocketmine_1_1block_1_1_t_n_t.html#af27c2026d3226e84e3d3aede48933e01" target="_top" xlink:title=" ">
<polygon fill="white" stroke="#666666" points="153.5,-270 28.5,-270 28.5,-240 153.5,-240 153.5,-270"/>
<text text-anchor="start" x="36.5" y="-258" font-family="Helvetica,sans-Serif" font-size="10.00">pocketmine\block\TNT</text>
<text text-anchor="middle" x="91" y="-247" font-family="Helvetica,sans-Serif" font-size="10.00">\onInteract</text>
</a>
</g>
</g>
<!-- Node1&#45;&gt;Node24 -->
<g id="edge23_Node000001_Node000024" class="edge">
<title>Node1&#45;&gt;Node24</title>
<g id="a_edge23_Node000001_Node000024"><a xlink:title=" ">
<path fill="none" stroke="#63b8ff" d="M290.77,-643.11C292.05,-580.06 287.12,-382.71 182,-279 174.17,-271.28 164.15,-265.96 153.66,-262.32"/>
<polygon fill="#63b8ff" stroke="#63b8ff" points="287.26,-643.17 290.48,-653.27 294.26,-643.37 287.26,-643.17"/>
</a>
</g>
</g>
<!-- Node25 -->
<g id="Node000025" class="node">
<title>Node25</title>
<g id="a_Node000025"><a xlink:href="../../de/d91/classpocketmine_1_1block_1_1_torchflower_crop.html#aaf61de947d43fdb7cb09ce1bef780fdd" target="_top" xlink:title=" ">
<polygon fill="white" stroke="#666666" points="171.5,-222 10.5,-222 10.5,-192 171.5,-192 171.5,-222"/>
<text text-anchor="start" x="18.5" y="-210" font-family="Helvetica,sans-Serif" font-size="10.00">pocketmine\block\Torchflower</text>
<text text-anchor="middle" x="91" y="-199" font-family="Helvetica,sans-Serif" font-size="10.00">Crop\onInteract</text>
</a>
</g>
</g>
<!-- Node1&#45;&gt;Node25 -->
<g id="edge24_Node000001_Node000025" class="edge">
<title>Node1&#45;&gt;Node25</title>
<g id="a_edge24_Node000001_Node000025"><a xlink:title=" ">
<path fill="none" stroke="#63b8ff" d="M287.7,-643.08C278.45,-566.39 241.58,-291.52 182,-231 178.6,-227.54 174.75,-224.57 170.62,-222.01"/>
<polygon fill="#63b8ff" stroke="#63b8ff" points="284.25,-643.75 288.9,-653.27 291.2,-642.92 284.25,-643.75"/>
</a>
</g>
</g>
<!-- Node26 -->
<g id="Node000026" class="node">
<title>Node26</title>
<g id="a_Node000026"><a xlink:href="../../d2/d6f/classpocketmine_1_1item_1_1_end_crystal.html#ae7b76b6c65cd0eac23cbe2db6a661a7f" target="_top" xlink:title=" ">
<polygon fill="white" stroke="#666666" points="168.5,-174 13.5,-174 13.5,-144 168.5,-144 168.5,-174"/>
<text text-anchor="start" x="21.5" y="-162" font-family="Helvetica,sans-Serif" font-size="10.00">pocketmine\item\EndCrystal</text>
<text text-anchor="middle" x="91" y="-151" font-family="Helvetica,sans-Serif" font-size="10.00">\onInteractBlock</text>
</a>
</g>
</g>
<!-- Node1&#45;&gt;Node26 -->
<g id="edge25_Node000001_Node000026" class="edge">
<title>Node1&#45;&gt;Node26</title>
<g id="a_edge25_Node000001_Node000026"><a xlink:title=" ">
<path fill="none" stroke="#63b8ff" d="M288.23,-643.03C280.55,-561.01 247.59,-251.22 182,-183 178.08,-178.92 173.54,-175.51 168.64,-172.66"/>
<polygon fill="#63b8ff" stroke="#63b8ff" points="284.78,-643.78 289.18,-653.42 291.75,-643.14 284.78,-643.78"/>
</a>
</g>
</g>
<!-- Node27 -->
<g id="Node000027" class="node">
<title>Node27</title>
<g id="a_Node000027"><a xlink:href="../../d9/d13/classpocketmine_1_1item_1_1_fire_charge.html#aa46b353b8b7765f4ab780a997a55affc" target="_top" xlink:title=" ">
<polygon fill="white" stroke="#666666" points="168.5,-126 13.5,-126 13.5,-96 168.5,-96 168.5,-126"/>
<text text-anchor="start" x="21.5" y="-114" font-family="Helvetica,sans-Serif" font-size="10.00">pocketmine\item\FireCharge</text>
<text text-anchor="middle" x="91" y="-103" font-family="Helvetica,sans-Serif" font-size="10.00">\onInteractBlock</text>
</a>
</g>
</g>
<!-- Node1&#45;&gt;Node27 -->
<g id="edge26_Node000001_Node000027" class="edge">
<title>Node1&#45;&gt;Node27</title>
<g id="a_edge26_Node000001_Node000027"><a xlink:title=" ">
<path fill="none" stroke="#63b8ff" d="M288.69,-643.27C282.52,-556.66 253.72,-211.07 182,-135 178.12,-130.88 173.61,-127.44 168.73,-124.57"/>
<polygon fill="#63b8ff" stroke="#63b8ff" points="285.2,-643.59 289.38,-653.32 292.18,-643.11 285.2,-643.59"/>
</a>
</g>
</g>
<!-- Node28 -->
<g id="Node000028" class="node">
<title>Node28</title>
<g id="a_Node000028"><a xlink:href="../../d2/d57/classpocketmine_1_1item_1_1_glass_bottle.html#a552e338f3abfb3e855e2bdbe57bf3b09" target="_top" xlink:title=" ">
<polygon fill="white" stroke="#666666" points="170,-78 12,-78 12,-48 170,-48 170,-78"/>
<text text-anchor="start" x="20" y="-66" font-family="Helvetica,sans-Serif" font-size="10.00">pocketmine\item\GlassBottle</text>
<text text-anchor="middle" x="91" y="-55" font-family="Helvetica,sans-Serif" font-size="10.00">\onInteractBlock</text>
</a>
</g>
</g>
<!-- Node1&#45;&gt;Node28 -->
<g id="edge27_Node000001_Node000028" class="edge">
<title>Node1&#45;&gt;Node28</title>
<g id="a_edge27_Node000001_Node000028"><a xlink:title=" ">
<path fill="none" stroke="#63b8ff" d="M289.05,-643.25C284.25,-551.87 259.79,-170.88 182,-87 178.48,-83.21 174.44,-79.99 170.05,-77.25"/>
<polygon fill="#63b8ff" stroke="#63b8ff" points="285.56,-643.53 289.56,-653.34 292.55,-643.18 285.56,-643.53"/>
</a>
</g>
</g>
<!-- Node29 -->
<g id="Node000029" class="node">
<title>Node29</title>
<g id="a_Node000029"><a xlink:href="../../d3/d79/classpocketmine_1_1item_1_1_name_tag.html#adde078c8ddbfbb441aba92114e72ab60" target="_top" xlink:title=" ">
<polygon fill="white" stroke="#666666" points="165,-30 17,-30 17,0 165,0 165,-30"/>
<text text-anchor="start" x="25" y="-18" font-family="Helvetica,sans-Serif" font-size="10.00">pocketmine\item\NameTag</text>
<text text-anchor="middle" x="91" y="-7" font-family="Helvetica,sans-Serif" font-size="10.00">\onInteractEntity</text>
</a>
</g>
</g>
<!-- Node1&#45;&gt;Node29 -->
<g id="edge28_Node000001_Node000029" class="edge">
<title>Node1&#45;&gt;Node29</title>
<g id="a_edge28_Node000001_Node000029"><a xlink:title=" ">
<path fill="none" stroke="#63b8ff" d="M289.37,-643.46C285.87,-547.91 265.96,-130.8 182,-39 177.2,-33.75 171.39,-29.59 165.06,-26.31"/>
<polygon fill="#63b8ff" stroke="#63b8ff" points="285.87,-643.6 289.71,-653.47 292.86,-643.36 285.87,-643.6"/>
</a>
</g>
</g>
</g>
</svg>
