<?xml version="1.0" encoding="UTF-8" standalone="no"?>
<!DOCTYPE svg PUBLIC "-//W3C//DTD SVG 1.1//EN"
 "http://www.w3.org/Graphics/SVG/1.1/DTD/svg11.dtd">
<!-- Generated by graphviz version 2.43.0 (0)
 -->
<!-- Title: pocketmine\item\Item\pop Pages: 1 -->
<!--zoomable 1286 -->

<svg id="main" version="1.1" xmlns="http://www.w3.org/2000/svg" xmlns:xlink="http://www.w3.org/1999/xlink" xml:space="preserve" onload="init(evt)">

<style type="text/css"><![CDATA[
.node, .edge {opacity: 0.7;}
.node.selected, .edge.selected {opacity: 1;}
.edge:hover path { stroke: red; }
.edge:hover polygon { stroke: red; fill: red; }
]]></style>

<defs>
  <circle id="rim" cx="0" cy="0" r="7"/>
  <circle id="rim2" cx="0" cy="0" r="3.5"/>
  <g id="zoomPlus">
    <use xlink:href="#rim" fill="#404040"><set attributeName="fill" to="#808080" begin="zoomplus.mouseover" end="zoomplus.mouseout"/></use>
    <path d="M-4,0h8M0,-4v8" fill="none" stroke="white" stroke-width="1.5" pointer-events="none"/>
  </g>
  <g id="zoomMin">
    <use xlink:href="#rim" fill="#404040"><set attributeName="fill" to="#808080" begin="zoomminus.mouseover" end="zoomminus.mouseout"/></use>
    <path d="M-4,0h8" fill="none" stroke="white" stroke-width="1.5" pointer-events="none"/>
  </g>
  <g id="arrowUp" transform="translate(30 24)">
    <use xlink:href="#rim"/>
    <path pointer-events="none" fill="none" stroke="white" stroke-width="1.5" d="M0,-3.0v7 M-2.5,-0.5L0,-3.0L2.5,-0.5"/>
  </g>
  <g id="arrowRight" transform="rotate(90) translate(36 -43)">
    <use xlink:href="#rim"/>
    <path pointer-events="none" fill="none" stroke="white" stroke-width="1.5" d="M0,-3.0v7 M-2.5,-0.5L0,-3.0L2.5,-0.5"/>
  </g>
  <g id="arrowDown" transform="rotate(180) translate(-30 -48)">
    <use xlink:href="#rim"/>
    <path pointer-events="none" fill="none" stroke="white" stroke-width="1.5" d="M0,-3.0v7 M-2.5,-0.5L0,-3.0L2.5,-0.5"/>
  </g>
  <g id="arrowLeft" transform="rotate(270) translate(-36 17)">
    <use xlink:href="#rim"/>
    <path pointer-events="none" fill="none" stroke="white" stroke-width="1.5" d="M0,-3.0v7 M-2.5,-0.5L0,-3.0L2.5,-0.5"/>
  </g>
  <g id="resetDef">
    <use xlink:href="#rim2" fill="#404040"><set attributeName="fill" to="#808080" begin="reset.mouseover" end="reset.mouseout"/></use>
  </g>
</defs>
<script type="application/ecmascript">
var viewWidth = 372;
var viewHeight = 1286;
var sectionId = 'dynsection-4';
</script>
<script type="application/ecmascript" xlink:href="../../svg.min.js"/>
<svg id="graph" class="graph">
<g id="viewport">
<title>pocketmine\item\Item\pop</title>
<!-- Node1 -->
<g id="Node000001" class="node">
<title>Node1</title>
<g id="a_Node000001"><a xlink:title=" ">
<polygon fill="#999999" stroke="#666666" points="364,-648.5 218,-648.5 218,-629.5 364,-629.5 364,-648.5"/>
<text text-anchor="middle" x="291" y="-636.5" font-family="Helvetica,sans-Serif" font-size="10.00">pocketmine\item\Item\pop</text>
</a>
</g>
</g>
<!-- Node2 -->
<g id="Node000002" class="node">
<title>Node2</title>
<g id="a_Node000002"><a xlink:href="../../db/df1/classpocketmine_1_1block_1_1_azalea.html#a5005a95d3665f9b25a739c7d604e0d47" target="_top" xlink:title=" ">
<polygon fill="white" stroke="#666666" points="160.5,-1278 21.5,-1278 21.5,-1248 160.5,-1248 160.5,-1278"/>
<text text-anchor="start" x="29.5" y="-1266" font-family="Helvetica,sans-Serif" font-size="10.00">pocketmine\block\Azalea</text>
<text text-anchor="middle" x="91" y="-1255" font-family="Helvetica,sans-Serif" font-size="10.00">\onInteract</text>
</a>
</g>
</g>
<!-- Node1&#45;&gt;Node2 -->
<g id="edge1_Node000001_Node000002" class="edge">
<title>Node1&#45;&gt;Node2</title>
<g id="a_edge1_Node000001_Node000002"><a xlink:title=" ">
<path fill="none" stroke="#63b8ff" d="M289.21,-658.67C285.08,-752.21 262.86,-1151.17 182,-1239 176.09,-1245.42 168.66,-1250.21 160.63,-1253.75"/>
<polygon fill="#63b8ff" stroke="#63b8ff" points="292.71,-658.74 289.64,-648.6 285.72,-658.45 292.71,-658.74"/>
</a>
</g>
</g>
<!-- Node3 -->
<g id="Node000003" class="node">
<title>Node3</title>
<g id="a_Node000003"><a xlink:href="../../d1/dae/classpocketmine_1_1block_1_1_bamboo.html#a86b636e543cc443407c3b0c6347444a1" target="_top" xlink:title=" ">
<polygon fill="white" stroke="#666666" points="164,-1230 18,-1230 18,-1200 164,-1200 164,-1230"/>
<text text-anchor="start" x="26" y="-1218" font-family="Helvetica,sans-Serif" font-size="10.00">pocketmine\block\Bamboo</text>
<text text-anchor="middle" x="91" y="-1207" font-family="Helvetica,sans-Serif" font-size="10.00">\onInteract</text>
</a>
</g>
</g>
<!-- Node1&#45;&gt;Node3 -->
<g id="edge2_Node000001_Node000003" class="edge">
<title>Node1&#45;&gt;Node3</title>
<g id="a_edge2_Node000001_Node000003"><a xlink:title=" ">
<path fill="none" stroke="#63b8ff" d="M288.87,-658.77C283.4,-747.84 256.74,-1111.04 182,-1191 176.92,-1196.43 170.76,-1200.69 164.07,-1204.02"/>
<polygon fill="#63b8ff" stroke="#63b8ff" points="292.37,-658.87 289.47,-648.68 285.39,-658.45 292.37,-658.87"/>
</a>
</g>
</g>
<!-- Node4 -->
<g id="Node000004" class="node">
<title>Node4</title>
<g id="a_Node000004"><a xlink:href="../../d6/dae/classpocketmine_1_1block_1_1_bamboo_sapling.html#af01e5cc00d9fa23654cffaf5254fe75e" target="_top" xlink:title=" ">
<polygon fill="white" stroke="#666666" points="182,-1182 0,-1182 0,-1152 182,-1152 182,-1182"/>
<text text-anchor="start" x="8" y="-1170" font-family="Helvetica,sans-Serif" font-size="10.00">pocketmine\block\BambooSapling</text>
<text text-anchor="middle" x="91" y="-1159" font-family="Helvetica,sans-Serif" font-size="10.00">\onInteract</text>
</a>
</g>
</g>
<!-- Node1&#45;&gt;Node4 -->
<g id="edge3_Node000001_Node000004" class="edge">
<title>Node1&#45;&gt;Node4</title>
<g id="a_edge3_Node000001_Node000004"><a xlink:title=" ">
<path fill="none" stroke="#63b8ff" d="M288.49,-658.63C281.62,-742.63 250.71,-1070.8 182,-1143 178.77,-1146.4 175.11,-1149.33 171.17,-1151.87"/>
<polygon fill="#63b8ff" stroke="#63b8ff" points="291.98,-658.89 289.28,-648.64 285,-658.34 291.98,-658.89"/>
</a>
</g>
</g>
<!-- Node5 -->
<g id="Node000005" class="node">
<title>Node5</title>
<g id="a_Node000005"><a xlink:href="../../d5/d5a/classpocketmine_1_1block_1_1_base_big_dripleaf.html#ad4c153b1920d1b9e5bc201d5a6de7054" target="_top" xlink:title=" ">
<polygon fill="white" stroke="#666666" points="164,-1134 18,-1134 18,-1104 164,-1104 164,-1134"/>
<text text-anchor="start" x="26" y="-1122" font-family="Helvetica,sans-Serif" font-size="10.00">pocketmine\block\BaseBig</text>
<text text-anchor="middle" x="91" y="-1111" font-family="Helvetica,sans-Serif" font-size="10.00">Dripleaf\onInteract</text>
</a>
</g>
</g>
<!-- Node1&#45;&gt;Node5 -->
<g id="edge4_Node000001_Node000005" class="edge">
<title>Node1&#45;&gt;Node5</title>
<g id="a_edge4_Node000001_Node000005"><a xlink:title=" ">
<path fill="none" stroke="#63b8ff" d="M287.97,-659C279.51,-738.47 244.57,-1030.65 182,-1095 176.93,-1100.22 170.86,-1104.34 164.3,-1107.6"/>
<polygon fill="#63b8ff" stroke="#63b8ff" points="291.47,-659.18 289.03,-648.88 284.51,-658.46 291.47,-659.18"/>
</a>
</g>
</g>
<!-- Node6 -->
<g id="Node000006" class="node">
<title>Node6</title>
<g id="a_Node000006"><a xlink:href="../../df/d1c/classpocketmine_1_1block_1_1_cake.html#a45815ac91b49c1d30b1ea40fabdd3ce9" target="_top" xlink:title=" ">
<polygon fill="white" stroke="#666666" points="156,-1086 26,-1086 26,-1056 156,-1056 156,-1086"/>
<text text-anchor="start" x="34" y="-1074" font-family="Helvetica,sans-Serif" font-size="10.00">pocketmine\block\Cake</text>
<text text-anchor="middle" x="91" y="-1063" font-family="Helvetica,sans-Serif" font-size="10.00">\onInteract</text>
</a>
</g>
</g>
<!-- Node1&#45;&gt;Node6 -->
<g id="edge5_Node000001_Node000006" class="edge">
<title>Node1&#45;&gt;Node6</title>
<g id="a_edge5_Node000001_Node000006"><a xlink:title=" ">
<path fill="none" stroke="#63b8ff" d="M287.41,-658.75C277.35,-732.48 238.63,-990.27 182,-1047 174.8,-1054.21 165.7,-1059.33 156.06,-1062.94"/>
<polygon fill="#63b8ff" stroke="#63b8ff" points="290.91,-658.94 288.77,-648.56 283.98,-658.01 290.91,-658.94"/>
</a>
</g>
</g>
<!-- Node7 -->
<g id="Node000007" class="node">
<title>Node7</title>
<g id="a_Node000007"><a xlink:href="../../d9/d68/classpocketmine_1_1block_1_1_cocoa_block.html#a8dac94b490c40381a68ed917c0083c01" target="_top" xlink:title=" ">
<polygon fill="white" stroke="#666666" points="172.5,-1038 9.5,-1038 9.5,-1008 172.5,-1008 172.5,-1038"/>
<text text-anchor="start" x="17.5" y="-1026" font-family="Helvetica,sans-Serif" font-size="10.00">pocketmine\block\CocoaBlock</text>
<text text-anchor="middle" x="91" y="-1015" font-family="Helvetica,sans-Serif" font-size="10.00">\onInteract</text>
</a>
</g>
</g>
<!-- Node1&#45;&gt;Node7 -->
<g id="edge6_Node000001_Node000007" class="edge">
<title>Node1&#45;&gt;Node7</title>
<g id="a_edge6_Node000001_Node000007"><a xlink:title=" ">
<path fill="none" stroke="#63b8ff" d="M290.33,-658.85C290.19,-719.28 281.24,-902.77 182,-999 178.52,-1002.38 174.61,-1005.29 170.44,-1007.81"/>
<polygon fill="#63b8ff" stroke="#63b8ff" points="293.83,-658.73 290.26,-648.75 286.83,-658.77 293.83,-658.73"/>
</a>
</g>
</g>
<!-- Node8 -->
<g id="Node000008" class="node">
<title>Node8</title>
<g id="a_Node000008"><a xlink:href="../../d2/d70/classpocketmine_1_1block_1_1_crops.html#a6c9da7f1ae5d2201f833497a2d8e915f" target="_top" xlink:title=" ">
<polygon fill="white" stroke="#666666" points="158,-990 24,-990 24,-960 158,-960 158,-990"/>
<text text-anchor="start" x="32" y="-978" font-family="Helvetica,sans-Serif" font-size="10.00">pocketmine\block\Crops</text>
<text text-anchor="middle" x="91" y="-967" font-family="Helvetica,sans-Serif" font-size="10.00">\onInteract</text>
</a>
</g>
</g>
<!-- Node1&#45;&gt;Node8 -->
<g id="edge7_Node000001_Node000008" class="edge">
<title>Node1&#45;&gt;Node8</title>
<g id="a_edge7_Node000001_Node000008"><a xlink:title=" ">
<path fill="none" stroke="#63b8ff" d="M289.27,-658.71C286.14,-713.6 269.59,-869.55 182,-951 175.25,-957.28 167.04,-961.95 158.36,-965.42"/>
<polygon fill="#63b8ff" stroke="#63b8ff" points="292.77,-658.75 289.76,-648.59 285.78,-658.41 292.77,-658.75"/>
</a>
</g>
</g>
<!-- Node9 -->
<g id="Node000009" class="node">
<title>Node9</title>
<g id="a_Node000009"><a xlink:href="../../da/d01/classpocketmine_1_1block_1_1_double_pitcher_crop.html#a8bb2a541b8977cdb13024f71d754d959" target="_top" xlink:title=" ">
<polygon fill="white" stroke="#666666" points="178,-942 4,-942 4,-912 178,-912 178,-942"/>
<text text-anchor="start" x="12" y="-930" font-family="Helvetica,sans-Serif" font-size="10.00">pocketmine\block\DoublePitcher</text>
<text text-anchor="middle" x="91" y="-919" font-family="Helvetica,sans-Serif" font-size="10.00">Crop\onInteract</text>
</a>
</g>
</g>
<!-- Node1&#45;&gt;Node9 -->
<g id="edge8_Node000001_Node000009" class="edge">
<title>Node1&#45;&gt;Node9</title>
<g id="a_edge8_Node000001_Node000009"><a xlink:title=" ">
<path fill="none" stroke="#63b8ff" d="M287.84,-658.9C281.42,-708.08 257.9,-836.23 182,-903 178.11,-906.42 173.79,-909.36 169.21,-911.88"/>
<polygon fill="#63b8ff" stroke="#63b8ff" points="291.35,-659.01 289.07,-648.66 284.4,-658.17 291.35,-659.01"/>
</a>
</g>
</g>
<!-- Node10 -->
<g id="Node000010" class="node">
<title>Node10</title>
<g id="a_Node000010"><a xlink:href="../../d4/dc5/classpocketmine_1_1block_1_1_glow_lichen.html#a9f1a594e1821b190423f067b6f151940" target="_top" xlink:title=" ">
<polygon fill="white" stroke="#666666" points="172,-894 10,-894 10,-864 172,-864 172,-894"/>
<text text-anchor="start" x="18" y="-882" font-family="Helvetica,sans-Serif" font-size="10.00">pocketmine\block\GlowLichen</text>
<text text-anchor="middle" x="91" y="-871" font-family="Helvetica,sans-Serif" font-size="10.00">\onInteract</text>
</a>
</g>
</g>
<!-- Node1&#45;&gt;Node10 -->
<g id="edge9_Node000001_Node000010" class="edge">
<title>Node1&#45;&gt;Node10</title>
<g id="a_edge9_Node000001_Node000010"><a xlink:title=" ">
<path fill="none" stroke="#63b8ff" d="M285.97,-658.39C276.12,-700.8 246.74,-802.23 182,-855 177.74,-858.47 173.02,-861.45 168.04,-863.99"/>
<polygon fill="#63b8ff" stroke="#63b8ff" points="289.41,-659.03 288.15,-648.51 282.58,-657.52 289.41,-659.03"/>
</a>
</g>
</g>
<!-- Node11 -->
<g id="Node000011" class="node">
<title>Node11</title>
<g id="a_Node000011"><a xlink:href="../../db/d15/classpocketmine_1_1block_1_1_jukebox.html#ad282da10a5427d2fb36ae427bf6480b0" target="_top" xlink:title=" ">
<polygon fill="white" stroke="#666666" points="163,-846 19,-846 19,-816 163,-816 163,-846"/>
<text text-anchor="start" x="27" y="-834" font-family="Helvetica,sans-Serif" font-size="10.00">pocketmine\block\Jukebox</text>
<text text-anchor="middle" x="91" y="-823" font-family="Helvetica,sans-Serif" font-size="10.00">\onInteract</text>
</a>
</g>
</g>
<!-- Node1&#45;&gt;Node11 -->
<g id="edge10_Node000001_Node000011" class="edge">
<title>Node1&#45;&gt;Node11</title>
<g id="a_edge10_Node000001_Node000011"><a xlink:title=" ">
<path fill="none" stroke="#63b8ff" d="M283.04,-658.32C269.37,-693.5 235.57,-767.94 182,-807 176.25,-811.19 169.82,-814.65 163.11,-817.51"/>
<polygon fill="#63b8ff" stroke="#63b8ff" points="286.4,-659.34 286.64,-648.75 279.85,-656.88 286.4,-659.34"/>
</a>
</g>
</g>
<!-- Node12 -->
<g id="Node000012" class="node">
<title>Node12</title>
<g id="a_Node000012"><a xlink:href="../../de/d09/classpocketmine_1_1block_1_1_lectern.html#a84faa25359442844f27348bad5b95fc9" target="_top" xlink:title=" ">
<polygon fill="white" stroke="#666666" points="162,-798 20,-798 20,-768 162,-768 162,-798"/>
<text text-anchor="start" x="28" y="-786" font-family="Helvetica,sans-Serif" font-size="10.00">pocketmine\block\Lectern</text>
<text text-anchor="middle" x="91" y="-775" font-family="Helvetica,sans-Serif" font-size="10.00">\onInteract</text>
</a>
</g>
</g>
<!-- Node1&#45;&gt;Node12 -->
<g id="edge11_Node000001_Node000012" class="edge">
<title>Node1&#45;&gt;Node12</title>
<g id="a_edge11_Node000001_Node000012"><a xlink:title=" ">
<path fill="none" stroke="#63b8ff" d="M278.45,-657.53C260.9,-684.09 225.01,-732.67 182,-759 175.93,-762.71 169.29,-765.86 162.45,-768.53"/>
<polygon fill="#63b8ff" stroke="#63b8ff" points="281.58,-659.12 284.06,-648.82 275.7,-655.33 281.58,-659.12"/>
</a>
</g>
</g>
<!-- Node13 -->
<g id="Node000013" class="node">
<title>Node13</title>
<g id="a_Node000013"><a xlink:href="../../da/dfb/classpocketmine_1_1block_1_1_nether_fungus.html#a074bd183d96abde52dce4e8adbb0ecbd" target="_top" xlink:title=" ">
<polygon fill="white" stroke="#666666" points="177.5,-750 4.5,-750 4.5,-720 177.5,-720 177.5,-750"/>
<text text-anchor="start" x="12.5" y="-738" font-family="Helvetica,sans-Serif" font-size="10.00">pocketmine\block\NetherFungus</text>
<text text-anchor="middle" x="91" y="-727" font-family="Helvetica,sans-Serif" font-size="10.00">\onInteract</text>
</a>
</g>
</g>
<!-- Node1&#45;&gt;Node13 -->
<g id="edge12_Node000001_Node000013" class="edge">
<title>Node1&#45;&gt;Node13</title>
<g id="a_edge12_Node000001_Node000013"><a xlink:title=" ">
<path fill="none" stroke="#63b8ff" d="M270.42,-654.95C249.63,-671.17 215.24,-695.98 182,-711 174.63,-714.33 166.71,-717.27 158.73,-719.86"/>
<polygon fill="#63b8ff" stroke="#63b8ff" points="272.79,-657.54 278.45,-648.58 268.44,-652.05 272.79,-657.54"/>
</a>
</g>
</g>
<!-- Node14 -->
<g id="Node000014" class="node">
<title>Node14</title>
<g id="a_Node000014"><a xlink:href="../../d5/d84/classpocketmine_1_1block_1_1_netherrack.html#aa020a81c7c374c5310d13bb64558517d" target="_top" xlink:title=" ">
<polygon fill="white" stroke="#666666" points="171,-702 11,-702 11,-672 171,-672 171,-702"/>
<text text-anchor="start" x="19" y="-690" font-family="Helvetica,sans-Serif" font-size="10.00">pocketmine\block\Netherrack</text>
<text text-anchor="middle" x="91" y="-679" font-family="Helvetica,sans-Serif" font-size="10.00">\onInteract</text>
</a>
</g>
</g>
<!-- Node1&#45;&gt;Node14 -->
<g id="edge13_Node000001_Node000014" class="edge">
<title>Node1&#45;&gt;Node14</title>
<g id="a_edge13_Node000001_Node000014"><a xlink:title=" ">
<path fill="none" stroke="#63b8ff" d="M240.35,-651.04C214.22,-657.37 181.92,-665.2 154.13,-671.94"/>
<polygon fill="#63b8ff" stroke="#63b8ff" points="241.51,-654.36 250.41,-648.6 239.86,-647.55 241.51,-654.36"/>
</a>
</g>
</g>
<!-- Node15 -->
<g id="Node000015" class="node">
<title>Node15</title>
<g id="a_Node000015"><a xlink:href="../../d0/dbe/classpocketmine_1_1block_1_1_nether_vines.html#ac266ed61314519f7c450516441686da6" target="_top" xlink:title=" ">
<polygon fill="white" stroke="#666666" points="174,-654 8,-654 8,-624 174,-624 174,-654"/>
<text text-anchor="start" x="16" y="-642" font-family="Helvetica,sans-Serif" font-size="10.00">pocketmine\block\NetherVines</text>
<text text-anchor="middle" x="91" y="-631" font-family="Helvetica,sans-Serif" font-size="10.00">\onInteract</text>
</a>
</g>
</g>
<!-- Node1&#45;&gt;Node15 -->
<g id="edge14_Node000001_Node000015" class="edge">
<title>Node1&#45;&gt;Node15</title>
<g id="a_edge14_Node000001_Node000015"><a xlink:title=" ">
<path fill="none" stroke="#63b8ff" d="M207.81,-639C196.66,-639 185.21,-639 174.05,-639"/>
<polygon fill="#63b8ff" stroke="#63b8ff" points="207.96,-642.5 217.96,-639 207.96,-635.5 207.96,-642.5"/>
</a>
</g>
</g>
<!-- Node16 -->
<g id="Node000016" class="node">
<title>Node16</title>
<g id="a_Node000016"><a xlink:href="../../d9/d9d/classpocketmine_1_1block_1_1_nylium.html#aafe8974a36baa4d3a92fd9935520e594" target="_top" xlink:title=" ">
<polygon fill="white" stroke="#666666" points="161.5,-606 20.5,-606 20.5,-576 161.5,-576 161.5,-606"/>
<text text-anchor="start" x="28.5" y="-594" font-family="Helvetica,sans-Serif" font-size="10.00">pocketmine\block\Nylium</text>
<text text-anchor="middle" x="91" y="-583" font-family="Helvetica,sans-Serif" font-size="10.00">\onInteract</text>
</a>
</g>
</g>
<!-- Node1&#45;&gt;Node16 -->
<g id="edge15_Node000001_Node000016" class="edge">
<title>Node1&#45;&gt;Node16</title>
<g id="a_edge15_Node000001_Node000016"><a xlink:title=" ">
<path fill="none" stroke="#63b8ff" d="M240.35,-626.96C214.22,-620.63 181.92,-612.8 154.13,-606.06"/>
<polygon fill="#63b8ff" stroke="#63b8ff" points="239.86,-630.45 250.41,-629.4 241.51,-623.64 239.86,-630.45"/>
</a>
</g>
</g>
<!-- Node17 -->
<g id="Node000017" class="node">
<title>Node17</title>
<g id="a_Node000017"><a xlink:href="../../db/dc0/classpocketmine_1_1block_1_1_pink_petals.html#a5c103dd12f2f2a138eec2f26dc2dfe9d" target="_top" xlink:title=" ">
<polygon fill="white" stroke="#666666" points="169.5,-558 12.5,-558 12.5,-528 169.5,-528 169.5,-558"/>
<text text-anchor="start" x="20.5" y="-546" font-family="Helvetica,sans-Serif" font-size="10.00">pocketmine\block\PinkPetals</text>
<text text-anchor="middle" x="91" y="-535" font-family="Helvetica,sans-Serif" font-size="10.00">\onInteract</text>
</a>
</g>
</g>
<!-- Node1&#45;&gt;Node17 -->
<g id="edge16_Node000001_Node000017" class="edge">
<title>Node1&#45;&gt;Node17</title>
<g id="a_edge16_Node000001_Node000017"><a xlink:title=" ">
<path fill="none" stroke="#63b8ff" d="M270.42,-623.05C249.63,-606.83 215.24,-582.02 182,-567 174.63,-563.67 166.71,-560.73 158.73,-558.14"/>
<polygon fill="#63b8ff" stroke="#63b8ff" points="268.44,-625.95 278.45,-629.42 272.79,-620.46 268.44,-625.95"/>
</a>
</g>
</g>
<!-- Node18 -->
<g id="Node000018" class="node">
<title>Node18</title>
<g id="a_Node000018"><a xlink:href="../../da/d04/classpocketmine_1_1block_1_1_pitcher_crop.html#a47c98c95d1c7c33fdbd913a05f8d7d59" target="_top" xlink:title=" ">
<polygon fill="white" stroke="#666666" points="161,-510 21,-510 21,-480 161,-480 161,-510"/>
<text text-anchor="start" x="29" y="-498" font-family="Helvetica,sans-Serif" font-size="10.00">pocketmine\block\Pitcher</text>
<text text-anchor="middle" x="91" y="-487" font-family="Helvetica,sans-Serif" font-size="10.00">Crop\onInteract</text>
</a>
</g>
</g>
<!-- Node1&#45;&gt;Node18 -->
<g id="edge17_Node000001_Node000018" class="edge">
<title>Node1&#45;&gt;Node18</title>
<g id="a_edge17_Node000001_Node000018"><a xlink:title=" ">
<path fill="none" stroke="#63b8ff" d="M278.45,-620.47C260.9,-593.91 225.01,-545.33 182,-519 175.52,-515.03 168.38,-511.71 161.05,-508.94"/>
<polygon fill="#63b8ff" stroke="#63b8ff" points="275.7,-622.67 284.06,-629.18 281.58,-618.88 275.7,-622.67"/>
</a>
</g>
</g>
<!-- Node19 -->
<g id="Node000019" class="node">
<title>Node19</title>
<g id="a_Node000019"><a xlink:href="../../d6/d87/classpocketmine_1_1block_1_1_sapling.html#a33754eb89d9bc549b8529a5a800c62f2" target="_top" xlink:title=" ">
<polygon fill="white" stroke="#666666" points="162,-462 20,-462 20,-432 162,-432 162,-462"/>
<text text-anchor="start" x="28" y="-450" font-family="Helvetica,sans-Serif" font-size="10.00">pocketmine\block\Sapling</text>
<text text-anchor="middle" x="91" y="-439" font-family="Helvetica,sans-Serif" font-size="10.00">\onInteract</text>
</a>
</g>
</g>
<!-- Node1&#45;&gt;Node19 -->
<g id="edge18_Node000001_Node000019" class="edge">
<title>Node1&#45;&gt;Node19</title>
<g id="a_edge18_Node000001_Node000019"><a xlink:title=" ">
<path fill="none" stroke="#63b8ff" d="M283.04,-619.68C269.37,-584.5 235.57,-510.06 182,-471 175.99,-466.62 169.23,-463.03 162.19,-460.11"/>
<polygon fill="#63b8ff" stroke="#63b8ff" points="279.85,-621.12 286.64,-629.25 286.4,-618.66 279.85,-621.12"/>
</a>
</g>
</g>
<!-- Node20 -->
<g id="Node000020" class="node">
<title>Node20</title>
<g id="a_Node000020"><a xlink:href="../../df/d71/classpocketmine_1_1block_1_1_small_dripleaf.html#a177d359388b09f7cfbdafaf528450626" target="_top" xlink:title=" ">
<polygon fill="white" stroke="#666666" points="177.5,-414 4.5,-414 4.5,-384 177.5,-384 177.5,-414"/>
<text text-anchor="start" x="12.5" y="-402" font-family="Helvetica,sans-Serif" font-size="10.00">pocketmine\block\SmallDripleaf</text>
<text text-anchor="middle" x="91" y="-391" font-family="Helvetica,sans-Serif" font-size="10.00">\onInteract</text>
</a>
</g>
</g>
<!-- Node1&#45;&gt;Node20 -->
<g id="edge19_Node000001_Node000020" class="edge">
<title>Node1&#45;&gt;Node20</title>
<g id="a_edge19_Node000001_Node000020"><a xlink:title=" ">
<path fill="none" stroke="#63b8ff" d="M285.97,-619.61C276.12,-577.2 246.74,-475.77 182,-423 177.74,-419.53 173.02,-416.55 168.04,-414.01"/>
<polygon fill="#63b8ff" stroke="#63b8ff" points="282.58,-620.48 288.15,-629.49 289.41,-618.97 282.58,-620.48"/>
</a>
</g>
</g>
<!-- Node21 -->
<g id="Node000021" class="node">
<title>Node21</title>
<g id="a_Node000021"><a xlink:href="../../da/da9/classpocketmine_1_1block_1_1_sugarcane.html#a7442fd80109d1e73aa4d62a0d1b85a6b" target="_top" xlink:title=" ">
<polygon fill="white" stroke="#666666" points="169.5,-366 12.5,-366 12.5,-336 169.5,-336 169.5,-366"/>
<text text-anchor="start" x="20.5" y="-354" font-family="Helvetica,sans-Serif" font-size="10.00">pocketmine\block\Sugarcane</text>
<text text-anchor="middle" x="91" y="-343" font-family="Helvetica,sans-Serif" font-size="10.00">\onInteract</text>
</a>
</g>
</g>
<!-- Node1&#45;&gt;Node21 -->
<g id="edge20_Node000001_Node000021" class="edge">
<title>Node1&#45;&gt;Node21</title>
<g id="a_edge20_Node000001_Node000021"><a xlink:title=" ">
<path fill="none" stroke="#63b8ff" d="M287.84,-619.1C281.42,-569.92 257.9,-441.77 182,-375 178.11,-371.58 173.79,-368.64 169.21,-366.12"/>
<polygon fill="#63b8ff" stroke="#63b8ff" points="284.4,-619.83 289.07,-629.34 291.35,-618.99 284.4,-619.83"/>
</a>
</g>
</g>
<!-- Node22 -->
<g id="Node000022" class="node">
<title>Node22</title>
<g id="a_Node000022"><a xlink:href="../../d4/d4c/classpocketmine_1_1block_1_1_sweet_berry_bush.html#ad9edd253072c13db2a4f52090c826303" target="_top" xlink:title=" ">
<polygon fill="white" stroke="#666666" points="172,-318 10,-318 10,-288 172,-288 172,-318"/>
<text text-anchor="start" x="18" y="-306" font-family="Helvetica,sans-Serif" font-size="10.00">pocketmine\block\SweetBerry</text>
<text text-anchor="middle" x="91" y="-295" font-family="Helvetica,sans-Serif" font-size="10.00">Bush\onInteract</text>
</a>
</g>
</g>
<!-- Node1&#45;&gt;Node22 -->
<g id="edge21_Node000001_Node000022" class="edge">
<title>Node1&#45;&gt;Node22</title>
<g id="a_edge21_Node000001_Node000022"><a xlink:title=" ">
<path fill="none" stroke="#63b8ff" d="M289.27,-619.29C286.14,-564.4 269.59,-408.45 182,-327 178.33,-323.59 174.23,-320.65 169.85,-318.12"/>
<polygon fill="#63b8ff" stroke="#63b8ff" points="285.78,-619.59 289.76,-629.41 292.77,-619.25 285.78,-619.59"/>
</a>
</g>
</g>
<!-- Node23 -->
<g id="Node000023" class="node">
<title>Node23</title>
<g id="a_Node000023"><a xlink:href="../../dc/dce/classpocketmine_1_1block_1_1_t_n_t.html#af27c2026d3226e84e3d3aede48933e01" target="_top" xlink:title=" ">
<polygon fill="white" stroke="#666666" points="153.5,-270 28.5,-270 28.5,-240 153.5,-240 153.5,-270"/>
<text text-anchor="start" x="36.5" y="-258" font-family="Helvetica,sans-Serif" font-size="10.00">pocketmine\block\TNT</text>
<text text-anchor="middle" x="91" y="-247" font-family="Helvetica,sans-Serif" font-size="10.00">\onInteract</text>
</a>
</g>
</g>
<!-- Node1&#45;&gt;Node23 -->
<g id="edge22_Node000001_Node000023" class="edge">
<title>Node1&#45;&gt;Node23</title>
<g id="a_edge22_Node000001_Node000023"><a xlink:title=" ">
<path fill="none" stroke="#63b8ff" d="M290.33,-619.15C290.19,-558.72 281.24,-375.23 182,-279 174.11,-271.35 164.05,-266.06 153.55,-262.43"/>
<polygon fill="#63b8ff" stroke="#63b8ff" points="286.83,-619.23 290.26,-629.25 293.83,-619.27 286.83,-619.23"/>
</a>
</g>
</g>
<!-- Node24 -->
<g id="Node000024" class="node">
<title>Node24</title>
<g id="a_Node000024"><a xlink:href="../../de/d91/classpocketmine_1_1block_1_1_torchflower_crop.html#aaf61de947d43fdb7cb09ce1bef780fdd" target="_top" xlink:title=" ">
<polygon fill="white" stroke="#666666" points="171.5,-222 10.5,-222 10.5,-192 171.5,-192 171.5,-222"/>
<text text-anchor="start" x="18.5" y="-210" font-family="Helvetica,sans-Serif" font-size="10.00">pocketmine\block\Torchflower</text>
<text text-anchor="middle" x="91" y="-199" font-family="Helvetica,sans-Serif" font-size="10.00">Crop\onInteract</text>
</a>
</g>
</g>
<!-- Node1&#45;&gt;Node24 -->
<g id="edge23_Node000001_Node000024" class="edge">
<title>Node1&#45;&gt;Node24</title>
<g id="a_edge23_Node000001_Node000024"><a xlink:title=" ">
<path fill="none" stroke="#63b8ff" d="M287.41,-619.25C277.35,-545.52 238.63,-287.73 182,-231 178.57,-227.57 174.71,-224.61 170.57,-222.06"/>
<polygon fill="#63b8ff" stroke="#63b8ff" points="283.98,-619.99 288.77,-629.44 290.91,-619.06 283.98,-619.99"/>
</a>
</g>
</g>
<!-- Node25 -->
<g id="Node000025" class="node">
<title>Node25</title>
<g id="a_Node000025"><a xlink:href="../../d2/d6f/classpocketmine_1_1item_1_1_end_crystal.html#ae7b76b6c65cd0eac23cbe2db6a661a7f" target="_top" xlink:title=" ">
<polygon fill="white" stroke="#666666" points="168.5,-174 13.5,-174 13.5,-144 168.5,-144 168.5,-174"/>
<text text-anchor="start" x="21.5" y="-162" font-family="Helvetica,sans-Serif" font-size="10.00">pocketmine\item\EndCrystal</text>
<text text-anchor="middle" x="91" y="-151" font-family="Helvetica,sans-Serif" font-size="10.00">\onInteractBlock</text>
</a>
</g>
</g>
<!-- Node1&#45;&gt;Node25 -->
<g id="edge24_Node000001_Node000025" class="edge">
<title>Node1&#45;&gt;Node25</title>
<g id="a_edge24_Node000001_Node000025"><a xlink:title=" ">
<path fill="none" stroke="#63b8ff" d="M287.97,-619C279.51,-539.53 244.57,-247.35 182,-183 178.05,-178.94 173.51,-175.55 168.59,-172.7"/>
<polygon fill="#63b8ff" stroke="#63b8ff" points="284.51,-619.54 289.03,-629.12 291.47,-618.82 284.51,-619.54"/>
</a>
</g>
</g>
<!-- Node26 -->
<g id="Node000026" class="node">
<title>Node26</title>
<g id="a_Node000026"><a xlink:href="../../d9/d13/classpocketmine_1_1item_1_1_fire_charge.html#aa46b353b8b7765f4ab780a997a55affc" target="_top" xlink:title=" ">
<polygon fill="white" stroke="#666666" points="168.5,-126 13.5,-126 13.5,-96 168.5,-96 168.5,-126"/>
<text text-anchor="start" x="21.5" y="-114" font-family="Helvetica,sans-Serif" font-size="10.00">pocketmine\item\FireCharge</text>
<text text-anchor="middle" x="91" y="-103" font-family="Helvetica,sans-Serif" font-size="10.00">\onInteractBlock</text>
</a>
</g>
</g>
<!-- Node1&#45;&gt;Node26 -->
<g id="edge25_Node000001_Node000026" class="edge">
<title>Node1&#45;&gt;Node26</title>
<g id="a_edge25_Node000001_Node000026"><a xlink:title=" ">
<path fill="none" stroke="#63b8ff" d="M288.49,-619.37C281.62,-535.37 250.71,-207.2 182,-135 178.1,-130.9 173.58,-127.47 168.69,-124.61"/>
<polygon fill="#63b8ff" stroke="#63b8ff" points="285,-619.66 289.28,-629.36 291.98,-619.11 285,-619.66"/>
</a>
</g>
</g>
<!-- Node27 -->
<g id="Node000027" class="node">
<title>Node27</title>
<g id="a_Node000027"><a xlink:href="../../d2/d57/classpocketmine_1_1item_1_1_glass_bottle.html#a552e338f3abfb3e855e2bdbe57bf3b09" target="_top" xlink:title=" ">
<polygon fill="white" stroke="#666666" points="170,-78 12,-78 12,-48 170,-48 170,-78"/>
<text text-anchor="start" x="20" y="-66" font-family="Helvetica,sans-Serif" font-size="10.00">pocketmine\item\GlassBottle</text>
<text text-anchor="middle" x="91" y="-55" font-family="Helvetica,sans-Serif" font-size="10.00">\onInteractBlock</text>
</a>
</g>
</g>
<!-- Node1&#45;&gt;Node27 -->
<g id="edge26_Node000001_Node000027" class="edge">
<title>Node1&#45;&gt;Node27</title>
<g id="a_edge26_Node000001_Node000027"><a xlink:title=" ">
<path fill="none" stroke="#63b8ff" d="M288.87,-619.23C283.4,-530.16 256.74,-166.96 182,-87 178.47,-83.22 174.41,-80.01 170.02,-77.29"/>
<polygon fill="#63b8ff" stroke="#63b8ff" points="285.39,-619.55 289.47,-629.32 292.37,-619.13 285.39,-619.55"/>
</a>
</g>
</g>
<!-- Node28 -->
<g id="Node000028" class="node">
<title>Node28</title>
<g id="a_Node000028"><a xlink:href="../../d3/d79/classpocketmine_1_1item_1_1_name_tag.html#adde078c8ddbfbb441aba92114e72ab60" target="_top" xlink:title=" ">
<polygon fill="white" stroke="#666666" points="165,-30 17,-30 17,0 165,0 165,-30"/>
<text text-anchor="start" x="25" y="-18" font-family="Helvetica,sans-Serif" font-size="10.00">pocketmine\item\NameTag</text>
<text text-anchor="middle" x="91" y="-7" font-family="Helvetica,sans-Serif" font-size="10.00">\onInteractEntity</text>
</a>
</g>
</g>
<!-- Node1&#45;&gt;Node28 -->
<g id="edge27_Node000001_Node000028" class="edge">
<title>Node1&#45;&gt;Node28</title>
<g id="a_edge27_Node000001_Node000028"><a xlink:title=" ">
<path fill="none" stroke="#63b8ff" d="M289.21,-619.33C285.08,-525.79 262.86,-126.83 182,-39 177.18,-33.77 171.36,-29.62 165.02,-26.35"/>
<polygon fill="#63b8ff" stroke="#63b8ff" points="285.72,-619.55 289.64,-629.4 292.71,-619.26 285.72,-619.55"/>
</a>
</g>
</g>
</g>
</svg>

<g id="navigator" transform="translate(0 0)" fill="#404254">
  <rect fill="#f2f5e9" fill-opacity="0.5" stroke="#606060" stroke-width=".5" x="0" y="0" width="60" height="60"/>
  <use id="zoomplus" xlink:href="#zoomPlus" x="17" y="9" onmousedown="handleZoom(evt,'in')"/>
  <use id="zoomminus" xlink:href="#zoomMin" x="42" y="9" onmousedown="handleZoom(evt,'out')"/>
  <use id="reset" xlink:href="#resetDef" x="30" y="36" onmousedown="handleReset()"/>
   <use id="arrowup" xlink:href="#arrowUp" x="0" y="0" onmousedown="handlePan(0,-1)"/>
  <use id="arrowright" xlink:href="#arrowRight" x="0" y="0" onmousedown="handlePan(1,0)"/>
  <use id="arrowdown" xlink:href="#arrowDown" x="0" y="0" onmousedown="handlePan(0,1)"/>
  <use id="arrowleft" xlink:href="#arrowLeft" x="0" y="0" onmousedown="handlePan(-1,0)"/>
</g>
<svg viewBox="0 0 15 15" width="100%" height="30px" preserveAspectRatio="xMaxYMin meet">
 <g id="arrow_out" transform="scale(0.3 0.3)">
  <a xlink:href="classpocketmine_1_1item_1_1_item_a67b44433c553602d7c851b1ca23e6e5e_icgraph_org.svg" target="_base">
   <rect id="button" ry="5" rx="5" y="6" x="6" height="38" width="38"
        fill="#f2f5e9" fill-opacity="0.5" stroke="#606060" stroke-width="1.0"/>
   <path id="arrow"
     d="M 11.500037,31.436501 C 11.940474,20.09759 22.043105,11.32322 32.158766,21.979434 L 37.068811,17.246167 C 37.068811,17.246167 37.088388,32 37.088388,32 L 22.160133,31.978069 C 22.160133,31.978069 26.997745,27.140456 26.997745,27.140456 C 18.528582,18.264221 13.291696,25.230495 11.500037,31.436501 z"
     style="fill:#404040;"/>
  </a>
 </g>
</svg>

<style type='text/css'>
<![CDATA[
[data-mouse-over-selected='false'] { opacity: 0.7; }
[data-mouse-over-selected='true']  { opacity: 1.0; }
]]>
</style>
<script type="application/ecmascript"><![CDATA[
document.addEventListener('DOMContentLoaded', (event) => {
  highlightEdges();
  highlightAdjacentNodes();
});
]]></script>
</svg>
