<?xml version="1.0" encoding="UTF-8" standalone="no"?>
<!DOCTYPE svg PUBLIC "-//W3C//DTD SVG 1.1//EN"
 "http://www.w3.org/Graphics/SVG/1.1/DTD/svg11.dtd">
<!-- Generated by graphviz version 2.43.0 (0)
 -->
<!-- Title: pocketmine\item\ItemBlockWallOrFloor Pages: 1 -->
<svg width="166pt" height="777pt"
 viewBox="0.00 0.00 166.00 777.00" xmlns="http://www.w3.org/2000/svg" xmlns:xlink="http://www.w3.org/1999/xlink">
<g id="graph0" class="graph" transform="scale(1 1) rotate(0) translate(4 773)">
<title>pocketmine\item\ItemBlockWallOrFloor</title>
<polygon fill="white" stroke="transparent" points="-4,4 -4,-773 162,-773 162,4 -4,4"/>
<!-- Node1 -->
<g id="node1" class="node">
<title>Node1</title>
<g id="a_node1"><a xlink:title=" ">
<polygon fill="#bfbfbf" stroke="black" points="3,-204.5 3,-305.5 155,-305.5 155,-204.5 3,-204.5"/>
<text text-anchor="start" x="11" y="-293.5" font-family="Helvetica,sans-Serif" font-size="10.00">pocketmine\item\ItemBlock</text>
<text text-anchor="middle" x="79" y="-282.5" font-family="Helvetica,sans-Serif" font-size="10.00">WallOrFloor</text>
<polyline fill="none" stroke="black" points="3,-275.5 155,-275.5 "/>
<text text-anchor="middle" x="79" y="-263.5" font-family="Helvetica,sans-Serif" font-size="10.00"> </text>
<polyline fill="none" stroke="black" points="3,-256.5 155,-256.5 "/>
<text text-anchor="start" x="11" y="-244.5" font-family="Helvetica,sans-Serif" font-size="10.00">+ __construct()</text>
<text text-anchor="start" x="11" y="-233.5" font-family="Helvetica,sans-Serif" font-size="10.00">+ getBlock()</text>
<text text-anchor="start" x="11" y="-222.5" font-family="Helvetica,sans-Serif" font-size="10.00">+ getFuelTime()</text>
<text text-anchor="start" x="11" y="-211.5" font-family="Helvetica,sans-Serif" font-size="10.00">+ getMaxStackSize()</text>
</a>
</g>
</g>
<!-- Node4 -->
<g id="node4" class="node">
<title>Node4</title>
<g id="a_node4"><a xlink:href="../../d8/d7a/classpocketmine_1_1item_1_1_banner.html" target="_top" xlink:title=" ">
<polygon fill="white" stroke="#bfbfbf" points="0,-0.5 0,-167.5 158,-167.5 158,-0.5 0,-0.5"/>
<text text-anchor="middle" x="79" y="-155.5" font-family="Helvetica,sans-Serif" font-size="10.00">pocketmine\item\Banner</text>
<polyline fill="none" stroke="#bfbfbf" points="0,-148.5 158,-148.5 "/>
<text text-anchor="start" x="8" y="-136.5" font-family="Helvetica,sans-Serif" font-size="10.00">+ TAG_PATTERN_COLOR</text>
<text text-anchor="start" x="8" y="-125.5" font-family="Helvetica,sans-Serif" font-size="10.00">+ TAG_PATTERN_NAME</text>
<text text-anchor="start" x="8" y="-114.5" font-family="Helvetica,sans-Serif" font-size="10.00">+ TAG_PATTERNS</text>
<polyline fill="none" stroke="#bfbfbf" points="0,-107.5 158,-107.5 "/>
<text text-anchor="start" x="8" y="-95.5" font-family="Helvetica,sans-Serif" font-size="10.00">+ __construct()</text>
<text text-anchor="start" x="8" y="-84.5" font-family="Helvetica,sans-Serif" font-size="10.00">+ getColor()</text>
<text text-anchor="start" x="8" y="-73.5" font-family="Helvetica,sans-Serif" font-size="10.00">+ getFuelTime()</text>
<text text-anchor="start" x="8" y="-62.5" font-family="Helvetica,sans-Serif" font-size="10.00">+ getMeta()</text>
<text text-anchor="start" x="8" y="-51.5" font-family="Helvetica,sans-Serif" font-size="10.00">+ getPatterns()</text>
<text text-anchor="start" x="8" y="-40.5" font-family="Helvetica,sans-Serif" font-size="10.00">+ setColor()</text>
<text text-anchor="start" x="8" y="-29.5" font-family="Helvetica,sans-Serif" font-size="10.00">+ setPatterns()</text>
<text text-anchor="start" x="8" y="-18.5" font-family="Helvetica,sans-Serif" font-size="10.00"># deserializeCompoundTag()</text>
<text text-anchor="start" x="8" y="-7.5" font-family="Helvetica,sans-Serif" font-size="10.00"># serializeCompoundTag()</text>
</a>
</g>
</g>
<!-- Node1&#45;&gt;Node4 -->
<g id="edge3" class="edge">
<title>Node1&#45;&gt;Node4</title>
<path fill="none" stroke="midnightblue" d="M79,-194.01C79,-185.48 79,-176.59 79,-167.72"/>
<polygon fill="none" stroke="midnightblue" points="75.5,-194.21 79,-204.21 82.5,-194.21 75.5,-194.21"/>
</g>
<!-- Node2 -->
<g id="node2" class="node">
<title>Node2</title>
<g id="a_node2"><a xlink:href="../../d5/d8a/classpocketmine_1_1item_1_1_item.html" target="_top" xlink:title=" ">
<polygon fill="white" stroke="#bfbfbf" points="0,-342.5 0,-674.5 158,-674.5 158,-342.5 0,-342.5"/>
<text text-anchor="middle" x="79" y="-662.5" font-family="Helvetica,sans-Serif" font-size="10.00">pocketmine\item\Item</text>
<polyline fill="none" stroke="#bfbfbf" points="0,-655.5 158,-655.5 "/>
<text text-anchor="start" x="8" y="-643.5" font-family="Helvetica,sans-Serif" font-size="10.00">+ TAG_BLOCK_ENTITY_TAG</text>
<text text-anchor="start" x="8" y="-632.5" font-family="Helvetica,sans-Serif" font-size="10.00">+ TAG_DISPLAY</text>
<text text-anchor="start" x="8" y="-621.5" font-family="Helvetica,sans-Serif" font-size="10.00">+ TAG_DISPLAY_LORE</text>
<text text-anchor="start" x="8" y="-610.5" font-family="Helvetica,sans-Serif" font-size="10.00">+ TAG_DISPLAY_NAME</text>
<text text-anchor="start" x="8" y="-599.5" font-family="Helvetica,sans-Serif" font-size="10.00">+ TAG_ENCH</text>
<text text-anchor="start" x="8" y="-588.5" font-family="Helvetica,sans-Serif" font-size="10.00"># $blockEntityTag</text>
<text text-anchor="start" x="8" y="-577.5" font-family="Helvetica,sans-Serif" font-size="10.00"># $canDestroy</text>
<text text-anchor="start" x="8" y="-566.5" font-family="Helvetica,sans-Serif" font-size="10.00"># $canPlaceOn</text>
<text text-anchor="start" x="8" y="-555.5" font-family="Helvetica,sans-Serif" font-size="10.00"># $count</text>
<text text-anchor="start" x="8" y="-544.5" font-family="Helvetica,sans-Serif" font-size="10.00"># $customName</text>
<text text-anchor="start" x="8" y="-533.5" font-family="Helvetica,sans-Serif" font-size="10.00"># $lore</text>
<text text-anchor="start" x="8" y="-522.5" font-family="Helvetica,sans-Serif" font-size="10.00"># $name</text>
<polyline fill="none" stroke="#bfbfbf" points="0,-515.5 158,-515.5 "/>
<text text-anchor="start" x="8" y="-503.5" font-family="Helvetica,sans-Serif" font-size="10.00">+ __construct()</text>
<text text-anchor="start" x="8" y="-492.5" font-family="Helvetica,sans-Serif" font-size="10.00">+ __clone()</text>
<text text-anchor="start" x="8" y="-481.5" font-family="Helvetica,sans-Serif" font-size="10.00">+ __toString()</text>
<text text-anchor="start" x="8" y="-470.5" font-family="Helvetica,sans-Serif" font-size="10.00">+ canBePlaced()</text>
<text text-anchor="start" x="8" y="-459.5" font-family="Helvetica,sans-Serif" font-size="10.00">+ canStackWith()</text>
<text text-anchor="start" x="8" y="-448.5" font-family="Helvetica,sans-Serif" font-size="10.00">+ clearCustomBlockData()</text>
<text text-anchor="start" x="8" y="-437.5" font-family="Helvetica,sans-Serif" font-size="10.00">+ clearCustomName()</text>
<text text-anchor="start" x="8" y="-426.5" font-family="Helvetica,sans-Serif" font-size="10.00">+ clearNamedTag()</text>
<text text-anchor="start" x="8" y="-415.5" font-family="Helvetica,sans-Serif" font-size="10.00">+ equals()</text>
<text text-anchor="start" x="8" y="-404.5" font-family="Helvetica,sans-Serif" font-size="10.00">+ equalsExact()</text>
<text text-anchor="start" x="8" y="-393.5" font-family="Helvetica,sans-Serif" font-size="10.00">and 41 more...</text>
<text text-anchor="start" x="8" y="-382.5" font-family="Helvetica,sans-Serif" font-size="10.00">+ jsonDeserialize()</text>
<text text-anchor="start" x="8" y="-371.5" font-family="Helvetica,sans-Serif" font-size="10.00">+ nbtDeserialize()</text>
<text text-anchor="start" x="8" y="-360.5" font-family="Helvetica,sans-Serif" font-size="10.00"># deserializeCompoundTag()</text>
<text text-anchor="start" x="8" y="-349.5" font-family="Helvetica,sans-Serif" font-size="10.00"># serializeCompoundTag()</text>
</a>
</g>
</g>
<!-- Node2&#45;&gt;Node1 -->
<g id="edge1" class="edge">
<title>Node2&#45;&gt;Node1</title>
<path fill="none" stroke="midnightblue" d="M79,-332.05C79,-322.84 79,-314.05 79,-305.93"/>
<polygon fill="none" stroke="midnightblue" points="75.5,-332.2 79,-342.2 82.5,-332.2 75.5,-332.2"/>
</g>
<!-- Node3 -->
<g id="node3" class="node">
<title>Node3</title>
<g id="a_node3"><a xlink:title=" ">
<polygon fill="white" stroke="#bfbfbf" points="32,-711.5 32,-768.5 126,-768.5 126,-711.5 32,-711.5"/>
<text text-anchor="middle" x="79" y="-756.5" font-family="Helvetica,sans-Serif" font-size="10.00">JsonSerializable</text>
<polyline fill="none" stroke="#bfbfbf" points="32,-749.5 126,-749.5 "/>
<text text-anchor="middle" x="79" y="-737.5" font-family="Helvetica,sans-Serif" font-size="10.00"> </text>
<polyline fill="none" stroke="#bfbfbf" points="32,-730.5 126,-730.5 "/>
<text text-anchor="middle" x="79" y="-718.5" font-family="Helvetica,sans-Serif" font-size="10.00"> </text>
</a>
</g>
</g>
<!-- Node3&#45;&gt;Node2 -->
<g id="edge2" class="edge">
<title>Node3&#45;&gt;Node2</title>
<path fill="none" stroke="midnightblue" d="M79,-701.08C79,-693.13 79,-684.28 79,-674.85"/>
<polygon fill="none" stroke="midnightblue" points="75.5,-701.32 79,-711.32 82.5,-701.32 75.5,-701.32"/>
</g>
</g>
</svg>
