<?xml version="1.0" encoding="UTF-8" standalone="no"?>
<!DOCTYPE svg PUBLIC "-//W3C//DTD SVG 1.1//EN"
 "http://www.w3.org/Graphics/SVG/1.1/DTD/svg11.dtd">
<!-- Generated by graphviz version 2.43.0 (0)
 -->
<!-- Title: pocketmine\item\ItemBlockWallOrFloor Pages: 1 -->
<!--zoomable 938 -->

<svg id="main" version="1.1" xmlns="http://www.w3.org/2000/svg" xmlns:xlink="http://www.w3.org/1999/xlink" xml:space="preserve" onload="init(evt)">

<style type="text/css"><![CDATA[
.node, .edge {opacity: 0.7;}
.node.selected, .edge.selected {opacity: 1;}
.edge:hover path { stroke: red; }
.edge:hover polygon { stroke: red; fill: red; }
]]></style>

<defs>
  <circle id="rim" cx="0" cy="0" r="7"/>
  <circle id="rim2" cx="0" cy="0" r="3.5"/>
  <g id="zoomPlus">
    <use xlink:href="#rim" fill="#404040"><set attributeName="fill" to="#808080" begin="zoomplus.mouseover" end="zoomplus.mouseout"/></use>
    <path d="M-4,0h8M0,-4v8" fill="none" stroke="white" stroke-width="1.5" pointer-events="none"/>
  </g>
  <g id="zoomMin">
    <use xlink:href="#rim" fill="#404040"><set attributeName="fill" to="#808080" begin="zoomminus.mouseover" end="zoomminus.mouseout"/></use>
    <path d="M-4,0h8" fill="none" stroke="white" stroke-width="1.5" pointer-events="none"/>
  </g>
  <g id="arrowUp" transform="translate(30 24)">
    <use xlink:href="#rim"/>
    <path pointer-events="none" fill="none" stroke="white" stroke-width="1.5" d="M0,-3.0v7 M-2.5,-0.5L0,-3.0L2.5,-0.5"/>
  </g>
  <g id="arrowRight" transform="rotate(90) translate(36 -43)">
    <use xlink:href="#rim"/>
    <path pointer-events="none" fill="none" stroke="white" stroke-width="1.5" d="M0,-3.0v7 M-2.5,-0.5L0,-3.0L2.5,-0.5"/>
  </g>
  <g id="arrowDown" transform="rotate(180) translate(-30 -48)">
    <use xlink:href="#rim"/>
    <path pointer-events="none" fill="none" stroke="white" stroke-width="1.5" d="M0,-3.0v7 M-2.5,-0.5L0,-3.0L2.5,-0.5"/>
  </g>
  <g id="arrowLeft" transform="rotate(270) translate(-36 17)">
    <use xlink:href="#rim"/>
    <path pointer-events="none" fill="none" stroke="white" stroke-width="1.5" d="M0,-3.0v7 M-2.5,-0.5L0,-3.0L2.5,-0.5"/>
  </g>
  <g id="resetDef">
    <use xlink:href="#rim2" fill="#404040"><set attributeName="fill" to="#808080" begin="reset.mouseover" end="reset.mouseout"/></use>
  </g>
</defs>
<script type="application/ecmascript">
var viewWidth = 159;
var viewHeight = 938;
var sectionId = 'dynsection-0';
</script>
<script type="application/ecmascript" xlink:href="../../svg.min.js"/>
<svg id="graph" class="graph">
<g id="viewport">
<title>pocketmine\item\ItemBlockWallOrFloor</title>
<!-- Node1 -->
<g id="Node000001" class="node">
<title>Node1</title>
<g id="a_Node000001"><a xlink:title=" ">
<polygon fill="#999999" stroke="transparent" points="148.5,-325 2.5,-325 2.5,-220 148.5,-220 148.5,-325"/>
<text text-anchor="start" x="7.5" y="-312.5" font-family="Helvetica,sans-Serif" font-size="10.00">pocketmine\item\ItemBlock</text>
<text text-anchor="start" x="46.5" y="-301.5" font-family="Helvetica,sans-Serif" font-size="10.00">WallOrFloor</text>
<text text-anchor="start" x="73.5" y="-286.5" font-family="Helvetica,sans-Serif" font-size="10.00"> </text>
<text text-anchor="start" x="14.5" y="-271.5" font-family="Helvetica,sans-Serif" font-size="10.00">+</text>
<text text-anchor="start" x="35.5" y="-271.5" font-family="Helvetica,sans-Serif" font-size="10.00">__construct()</text>
<text text-anchor="start" x="14.5" y="-256.5" font-family="Helvetica,sans-Serif" font-size="10.00">+</text>
<text text-anchor="start" x="35.5" y="-256.5" font-family="Helvetica,sans-Serif" font-size="10.00">getBlock()</text>
<text text-anchor="start" x="14.5" y="-241.5" font-family="Helvetica,sans-Serif" font-size="10.00">+</text>
<text text-anchor="start" x="35.5" y="-241.5" font-family="Helvetica,sans-Serif" font-size="10.00">getFuelTime()</text>
<text text-anchor="start" x="14.5" y="-226.5" font-family="Helvetica,sans-Serif" font-size="10.00">+</text>
<text text-anchor="start" x="35.5" y="-226.5" font-family="Helvetica,sans-Serif" font-size="10.00">getMaxStackSize()</text>
<polygon fill="#666666" stroke="#666666" points="2.5,-296.5 2.5,-296.5 148.5,-296.5 148.5,-296.5 2.5,-296.5"/>
<polygon fill="#666666" stroke="#666666" points="2.5,-281.5 2.5,-281.5 148.5,-281.5 148.5,-281.5 2.5,-281.5"/>
<polygon fill="none" stroke="#666666" points="2.5,-220 2.5,-325 148.5,-325 148.5,-220 2.5,-220"/>
</a>
</g>
</g>
<!-- Node4 -->
<g id="Node000004" class="node">
<title>Node4</title>
<g id="a_Node000004"><a xlink:href="../../d8/d7a/classpocketmine_1_1item_1_1_banner.html" target="_top" xlink:title=" ">
<polygon fill="white" stroke="transparent" points="151,-184 0,-184 0,0 151,0 151,-184"/>
<text text-anchor="start" x="15.5" y="-172" font-family="Helvetica,sans-Serif" font-size="10.00">pocketmine\item\Banner</text>
<text text-anchor="start" x="4.5" y="-157" font-family="Helvetica,sans-Serif" font-size="10.00">+</text>
<text text-anchor="start" x="17.5" y="-157" font-family="Helvetica,sans-Serif" font-size="10.00">TAG_PATTERN_COLOR</text>
<text text-anchor="start" x="4.5" y="-142" font-family="Helvetica,sans-Serif" font-size="10.00">+</text>
<text text-anchor="start" x="17.5" y="-142" font-family="Helvetica,sans-Serif" font-size="10.00">TAG_PATTERN_NAME</text>
<text text-anchor="start" x="4.5" y="-127" font-family="Helvetica,sans-Serif" font-size="10.00">+</text>
<text text-anchor="start" x="17.5" y="-127" font-family="Helvetica,sans-Serif" font-size="10.00">TAG_PATTERNS</text>
<text text-anchor="start" x="4.5" y="-112" font-family="Helvetica,sans-Serif" font-size="10.00">+</text>
<text text-anchor="start" x="17.5" y="-112" font-family="Helvetica,sans-Serif" font-size="10.00">getColor()</text>
<text text-anchor="start" x="4.5" y="-97" font-family="Helvetica,sans-Serif" font-size="10.00">+</text>
<text text-anchor="start" x="17.5" y="-97" font-family="Helvetica,sans-Serif" font-size="10.00">getFuelTime()</text>
<text text-anchor="start" x="4.5" y="-82" font-family="Helvetica,sans-Serif" font-size="10.00">+</text>
<text text-anchor="start" x="17.5" y="-82" font-family="Helvetica,sans-Serif" font-size="10.00">getPatterns()</text>
<text text-anchor="start" x="4.5" y="-67" font-family="Helvetica,sans-Serif" font-size="10.00">+</text>
<text text-anchor="start" x="17.5" y="-67" font-family="Helvetica,sans-Serif" font-size="10.00">setColor()</text>
<text text-anchor="start" x="4.5" y="-52" font-family="Helvetica,sans-Serif" font-size="10.00">+</text>
<text text-anchor="start" x="17.5" y="-52" font-family="Helvetica,sans-Serif" font-size="10.00">setPatterns()</text>
<text text-anchor="start" x="4.5" y="-37" font-family="Helvetica,sans-Serif" font-size="10.00">#</text>
<text text-anchor="start" x="17.5" y="-37" font-family="Helvetica,sans-Serif" font-size="10.00">describeState()</text>
<text text-anchor="start" x="4.5" y="-22" font-family="Helvetica,sans-Serif" font-size="10.00">#</text>
<text text-anchor="start" x="17.5" y="-22" font-family="Helvetica,sans-Serif" font-size="10.00">deserializeCompoundTag()</text>
<text text-anchor="start" x="4.5" y="-7" font-family="Helvetica,sans-Serif" font-size="10.00">#</text>
<text text-anchor="start" x="17.5" y="-7" font-family="Helvetica,sans-Serif" font-size="10.00">serializeCompoundTag()</text>
<polygon fill="#bfbfbf" stroke="#bfbfbf" points="0.5,-167 0.5,-167 151.5,-167 151.5,-167 0.5,-167"/>
<polygon fill="#bfbfbf" stroke="#bfbfbf" points="0.5,-122 0.5,-122 15.5,-122 15.5,-122 0.5,-122"/>
<polygon fill="#bfbfbf" stroke="#bfbfbf" points="15.5,-122 15.5,-122 151.5,-122 151.5,-122 15.5,-122"/>
<polygon fill="none" stroke="#bfbfbf" points="0,0 0,-184 151,-184 151,0 0,0"/>
</a>
</g>
</g>
<!-- Node1&#45;&gt;Node4 -->
<g id="edge3_Node000001_Node000004" class="edge">
<title>Node1&#45;&gt;Node4</title>
<g id="a_edge3_Node000001_Node000004"><a xlink:title=" ">
<path fill="none" stroke="#63b8ff" d="M75.5,-209.64C75.5,-201.4 75.5,-192.82 75.5,-184.21"/>
<polygon fill="none" stroke="#63b8ff" points="72,-209.87 75.5,-219.87 79,-209.87 72,-209.87"/>
</a>
</g>
</g>
<!-- Node2 -->
<g id="Node000002" class="node">
<title>Node2</title>
<g id="a_Node000002"><a xlink:href="../../d5/d8a/classpocketmine_1_1item_1_1_item.html" target="_top" xlink:title=" ">
<polygon fill="white" stroke="transparent" points="151,-845 0,-845 0,-361 151,-361 151,-845"/>
<text text-anchor="start" x="21.5" y="-833" font-family="Helvetica,sans-Serif" font-size="10.00">pocketmine\item\Item</text>
<text text-anchor="start" x="4.5" y="-818" font-family="Helvetica,sans-Serif" font-size="10.00">+</text>
<text text-anchor="start" x="17.5" y="-818" font-family="Helvetica,sans-Serif" font-size="10.00">TAG_BLOCK_ENTITY_TAG</text>
<text text-anchor="start" x="4.5" y="-803" font-family="Helvetica,sans-Serif" font-size="10.00">+</text>
<text text-anchor="start" x="17.5" y="-803" font-family="Helvetica,sans-Serif" font-size="10.00">TAG_DISPLAY</text>
<text text-anchor="start" x="4.5" y="-788" font-family="Helvetica,sans-Serif" font-size="10.00">+</text>
<text text-anchor="start" x="17.5" y="-788" font-family="Helvetica,sans-Serif" font-size="10.00">TAG_DISPLAY_LORE</text>
<text text-anchor="start" x="4.5" y="-773" font-family="Helvetica,sans-Serif" font-size="10.00">+</text>
<text text-anchor="start" x="17.5" y="-773" font-family="Helvetica,sans-Serif" font-size="10.00">TAG_DISPLAY_NAME</text>
<text text-anchor="start" x="4.5" y="-758" font-family="Helvetica,sans-Serif" font-size="10.00">+</text>
<text text-anchor="start" x="17.5" y="-758" font-family="Helvetica,sans-Serif" font-size="10.00">TAG_ENCH</text>
<text text-anchor="start" x="4.5" y="-743" font-family="Helvetica,sans-Serif" font-size="10.00">+</text>
<text text-anchor="start" x="17.5" y="-743" font-family="Helvetica,sans-Serif" font-size="10.00">TAG_KEEP_ON_DEATH</text>
<text text-anchor="start" x="4.5" y="-728" font-family="Helvetica,sans-Serif" font-size="10.00">#</text>
<text text-anchor="start" x="17.5" y="-728" font-family="Helvetica,sans-Serif" font-size="10.00">$blockEntityTag</text>
<text text-anchor="start" x="4.5" y="-713" font-family="Helvetica,sans-Serif" font-size="10.00">#</text>
<text text-anchor="start" x="17.5" y="-713" font-family="Helvetica,sans-Serif" font-size="10.00">$canDestroy</text>
<text text-anchor="start" x="4.5" y="-698" font-family="Helvetica,sans-Serif" font-size="10.00">#</text>
<text text-anchor="start" x="17.5" y="-698" font-family="Helvetica,sans-Serif" font-size="10.00">$canPlaceOn</text>
<text text-anchor="start" x="4.5" y="-683" font-family="Helvetica,sans-Serif" font-size="10.00">#</text>
<text text-anchor="start" x="17.5" y="-683" font-family="Helvetica,sans-Serif" font-size="10.00">$count</text>
<text text-anchor="start" x="4.5" y="-668" font-family="Helvetica,sans-Serif" font-size="10.00">#</text>
<text text-anchor="start" x="17.5" y="-668" font-family="Helvetica,sans-Serif" font-size="10.00">$customName</text>
<text text-anchor="start" x="4.5" y="-653" font-family="Helvetica,sans-Serif" font-size="10.00">#</text>
<text text-anchor="start" x="17.5" y="-653" font-family="Helvetica,sans-Serif" font-size="10.00">$keepOnDeath</text>
<text text-anchor="start" x="4.5" y="-638" font-family="Helvetica,sans-Serif" font-size="10.00">#</text>
<text text-anchor="start" x="17.5" y="-638" font-family="Helvetica,sans-Serif" font-size="10.00">$lore</text>
<text text-anchor="start" x="4.5" y="-623" font-family="Helvetica,sans-Serif" font-size="10.00">+</text>
<text text-anchor="start" x="17.5" y="-623" font-family="Helvetica,sans-Serif" font-size="10.00">__construct()</text>
<text text-anchor="start" x="4.5" y="-608" font-family="Helvetica,sans-Serif" font-size="10.00">+</text>
<text text-anchor="start" x="17.5" y="-608" font-family="Helvetica,sans-Serif" font-size="10.00">__clone()</text>
<text text-anchor="start" x="4.5" y="-593" font-family="Helvetica,sans-Serif" font-size="10.00">+</text>
<text text-anchor="start" x="17.5" y="-593" font-family="Helvetica,sans-Serif" font-size="10.00">__toString()</text>
<text text-anchor="start" x="4.5" y="-578" font-family="Helvetica,sans-Serif" font-size="10.00">+</text>
<text text-anchor="start" x="17.5" y="-578" font-family="Helvetica,sans-Serif" font-size="10.00">canBePlaced()</text>
<text text-anchor="start" x="4.5" y="-563" font-family="Helvetica,sans-Serif" font-size="10.00">+</text>
<text text-anchor="start" x="17.5" y="-563" font-family="Helvetica,sans-Serif" font-size="10.00">canStackWith()</text>
<text text-anchor="start" x="4.5" y="-548" font-family="Helvetica,sans-Serif" font-size="10.00">+</text>
<text text-anchor="start" x="17.5" y="-548" font-family="Helvetica,sans-Serif" font-size="10.00">clearCustomBlockData()</text>
<text text-anchor="start" x="4.5" y="-533" font-family="Helvetica,sans-Serif" font-size="10.00">+</text>
<text text-anchor="start" x="17.5" y="-533" font-family="Helvetica,sans-Serif" font-size="10.00">clearCustomName()</text>
<text text-anchor="start" x="4.5" y="-518" font-family="Helvetica,sans-Serif" font-size="10.00">+</text>
<text text-anchor="start" x="17.5" y="-518" font-family="Helvetica,sans-Serif" font-size="10.00">clearNamedTag()</text>
<text text-anchor="start" x="4.5" y="-503" font-family="Helvetica,sans-Serif" font-size="10.00">+</text>
<text text-anchor="start" x="17.5" y="-503" font-family="Helvetica,sans-Serif" font-size="10.00">equals()</text>
<text text-anchor="start" x="4.5" y="-488" font-family="Helvetica,sans-Serif" font-size="10.00">+</text>
<text text-anchor="start" x="17.5" y="-488" font-family="Helvetica,sans-Serif" font-size="10.00">equalsExact()</text>
<text text-anchor="start" x="17.5" y="-473" font-family="Helvetica,sans-Serif" font-size="10.00">and 49 more...</text>
<text text-anchor="start" x="4.5" y="-458" font-family="Helvetica,sans-Serif" font-size="10.00">+</text>
<text text-anchor="start" x="17.5" y="-458" font-family="Helvetica,sans-Serif" font-size="10.00">legacyJsonDeserialize()</text>
<text text-anchor="start" x="4.5" y="-443" font-family="Helvetica,sans-Serif" font-size="10.00">+</text>
<text text-anchor="start" x="17.5" y="-443" font-family="Helvetica,sans-Serif" font-size="10.00">nbtDeserialize()</text>
<text text-anchor="start" x="4.5" y="-428" font-family="Helvetica,sans-Serif" font-size="10.00">+</text>
<text text-anchor="start" x="17.5" y="-428" font-family="Helvetica,sans-Serif" font-size="10.00">safeNbtDeserialize()</text>
<text text-anchor="start" x="4.5" y="-413" font-family="Helvetica,sans-Serif" font-size="10.00">#</text>
<text text-anchor="start" x="17.5" y="-413" font-family="Helvetica,sans-Serif" font-size="10.00">describeState()</text>
<text text-anchor="start" x="4.5" y="-398" font-family="Helvetica,sans-Serif" font-size="10.00">#</text>
<text text-anchor="start" x="17.5" y="-398" font-family="Helvetica,sans-Serif" font-size="10.00">deserializeCompoundTag()</text>
<text text-anchor="start" x="4.5" y="-383" font-family="Helvetica,sans-Serif" font-size="10.00">#</text>
<text text-anchor="start" x="17.5" y="-383" font-family="Helvetica,sans-Serif" font-size="10.00">serializeCompoundTag()</text>
<text text-anchor="start" x="4.5" y="-368" font-family="Helvetica,sans-Serif" font-size="10.00">#</text>
<text text-anchor="start" x="17.5" y="-368" font-family="Helvetica,sans-Serif" font-size="10.00">tryPlacementTransaction()</text>
<polygon fill="#bfbfbf" stroke="#bfbfbf" points="0.5,-828 0.5,-828 151.5,-828 151.5,-828 0.5,-828"/>
<polygon fill="#bfbfbf" stroke="#bfbfbf" points="0.5,-633 0.5,-633 15.5,-633 15.5,-633 0.5,-633"/>
<polygon fill="#bfbfbf" stroke="#bfbfbf" points="15.5,-633 15.5,-633 151.5,-633 151.5,-633 15.5,-633"/>
<polygon fill="none" stroke="#bfbfbf" points="0,-361 0,-845 151,-845 151,-361 0,-361"/>
</a>
</g>
</g>
<!-- Node2&#45;&gt;Node1 -->
<g id="edge1_Node000001_Node000002" class="edge">
<title>Node2&#45;&gt;Node1</title>
<g id="a_edge1_Node000001_Node000002"><a xlink:title=" ">
<path fill="none" stroke="#63b8ff" d="M75.5,-350.65C75.5,-341.58 75.5,-333.01 75.5,-325.12"/>
<polygon fill="none" stroke="#63b8ff" points="72,-350.67 75.5,-360.67 79,-350.67 72,-350.67"/>
</a>
</g>
</g>
<!-- Node3 -->
<g id="Node000003" class="node">
<title>Node3</title>
<g id="a_Node000003"><a xlink:title=" ">
<polygon fill="white" stroke="transparent" points="119.5,-930 31.5,-930 31.5,-881 119.5,-881 119.5,-930"/>
<text text-anchor="start" x="36.5" y="-917.5" font-family="Helvetica,sans-Serif" font-size="10.00">JsonSerializable</text>
<text text-anchor="start" x="73.5" y="-902.5" font-family="Helvetica,sans-Serif" font-size="10.00"> </text>
<text text-anchor="start" x="73.5" y="-887.5" font-family="Helvetica,sans-Serif" font-size="10.00"> </text>
<polygon fill="#bfbfbf" stroke="#bfbfbf" points="31.5,-912.5 31.5,-912.5 119.5,-912.5 119.5,-912.5 31.5,-912.5"/>
<polygon fill="#bfbfbf" stroke="#bfbfbf" points="31.5,-897.5 31.5,-897.5 119.5,-897.5 119.5,-897.5 31.5,-897.5"/>
<polygon fill="none" stroke="#bfbfbf" points="31.5,-881 31.5,-930 119.5,-930 119.5,-881 31.5,-881"/>
</a>
</g>
</g>
<!-- Node3&#45;&gt;Node2 -->
<g id="edge2_Node000002_Node000003" class="edge">
<title>Node3&#45;&gt;Node2</title>
<g id="a_edge2_Node000002_Node000003"><a xlink:title=" ">
<path fill="none" stroke="#63b8ff" d="M75.5,-870.86C75.5,-863.24 75.5,-854.58 75.5,-845.15"/>
<polygon fill="none" stroke="#63b8ff" points="72,-870.92 75.5,-880.92 79,-870.92 72,-870.92"/>
</a>
</g>
</g>
</g>
</svg>

<g id="navigator" transform="translate(0 0)" fill="#404254">
  <rect fill="#f2f5e9" fill-opacity="0.5" stroke="#606060" stroke-width=".5" x="0" y="0" width="60" height="60"/>
  <use id="zoomplus" xlink:href="#zoomPlus" x="17" y="9" onmousedown="handleZoom(evt,'in')"/>
  <use id="zoomminus" xlink:href="#zoomMin" x="42" y="9" onmousedown="handleZoom(evt,'out')"/>
  <use id="reset" xlink:href="#resetDef" x="30" y="36" onmousedown="handleReset()"/>
   <use id="arrowup" xlink:href="#arrowUp" x="0" y="0" onmousedown="handlePan(0,-1)"/>
  <use id="arrowright" xlink:href="#arrowRight" x="0" y="0" onmousedown="handlePan(1,0)"/>
  <use id="arrowdown" xlink:href="#arrowDown" x="0" y="0" onmousedown="handlePan(0,1)"/>
  <use id="arrowleft" xlink:href="#arrowLeft" x="0" y="0" onmousedown="handlePan(-1,0)"/>
</g>
<svg viewBox="0 0 15 15" width="100%" height="30px" preserveAspectRatio="xMaxYMin meet">
 <g id="arrow_out" transform="scale(0.3 0.3)">
  <a xlink:href="classpocketmine_1_1item_1_1_item_block_wall_or_floor__inherit__graph_org.svg" target="_base">
   <rect id="button" ry="5" rx="5" y="6" x="6" height="38" width="38"
        fill="#f2f5e9" fill-opacity="0.5" stroke="#606060" stroke-width="1.0"/>
   <path id="arrow"
     d="M 11.500037,31.436501 C 11.940474,20.09759 22.043105,11.32322 32.158766,21.979434 L 37.068811,17.246167 C 37.068811,17.246167 37.088388,32 37.088388,32 L 22.160133,31.978069 C 22.160133,31.978069 26.997745,27.140456 26.997745,27.140456 C 18.528582,18.264221 13.291696,25.230495 11.500037,31.436501 z"
     style="fill:#404040;"/>
  </a>
 </g>
</svg>

<style type='text/css'>
<![CDATA[
[data-mouse-over-selected='false'] { opacity: 0.7; }
[data-mouse-over-selected='true']  { opacity: 1.0; }
]]>
</style>
<script type="application/ecmascript"><![CDATA[
document.addEventListener('DOMContentLoaded', (event) => {
  highlightEdges();
  highlightAdjacentNodes();
});
]]></script>
</svg>
