<?xml version="1.0" encoding="UTF-8" standalone="no"?>
<!DOCTYPE svg PUBLIC "-//W3C//DTD SVG 1.1//EN"
 "http://www.w3.org/Graphics/SVG/1.1/DTD/svg11.dtd">
<!-- Generated by graphviz version 2.43.0 (0)
 -->
<!-- Title: pocketmine\player\chat\ChatFormatter Pages: 1 -->
<svg width="306pt" height="193pt"
 viewBox="0.00 0.00 306.00 193.00" xmlns="http://www.w3.org/2000/svg" xmlns:xlink="http://www.w3.org/1999/xlink">
<g id="graph0" class="graph" transform="scale(1 1) rotate(0) translate(4 189)">
<title>pocketmine\player\chat\ChatFormatter</title>
<polygon fill="white" stroke="transparent" points="-4,4 -4,-189 302,-189 302,4 -4,4"/>
<!-- Node1 -->
<g id="node1" class="node">
<title>Node1</title>
<g id="a_node1"><a xlink:title=" ">
<polygon fill="#bfbfbf" stroke="black" points="86.5,-116.5 86.5,-184.5 217.5,-184.5 217.5,-116.5 86.5,-116.5"/>
<text text-anchor="start" x="94.5" y="-172.5" font-family="Helvetica,sans-Serif" font-size="10.00">pocketmine\player\chat</text>
<text text-anchor="middle" x="152" y="-161.5" font-family="Helvetica,sans-Serif" font-size="10.00">\ChatFormatter</text>
<polyline fill="none" stroke="black" points="86.5,-154.5 217.5,-154.5 "/>
<text text-anchor="middle" x="152" y="-142.5" font-family="Helvetica,sans-Serif" font-size="10.00"> </text>
<polyline fill="none" stroke="black" points="86.5,-135.5 217.5,-135.5 "/>
<text text-anchor="start" x="94.5" y="-123.5" font-family="Helvetica,sans-Serif" font-size="10.00">+ format()</text>
</a>
</g>
</g>
<!-- Node2 -->
<g id="node2" class="node">
<title>Node2</title>
<g id="a_node2"><a xlink:href="../../d4/d87/classpocketmine_1_1player_1_1chat_1_1_legacy_raw_chat_formatter.html" target="_top" xlink:title=" ">
<polygon fill="white" stroke="black" points="0,-0.5 0,-79.5 146,-79.5 146,-0.5 0,-0.5"/>
<text text-anchor="start" x="8" y="-67.5" font-family="Helvetica,sans-Serif" font-size="10.00">pocketmine\player\chat</text>
<text text-anchor="middle" x="73" y="-56.5" font-family="Helvetica,sans-Serif" font-size="10.00">\LegacyRawChatFormatter</text>
<polyline fill="none" stroke="black" points="0,-49.5 146,-49.5 "/>
<text text-anchor="middle" x="73" y="-37.5" font-family="Helvetica,sans-Serif" font-size="10.00"> </text>
<polyline fill="none" stroke="black" points="0,-30.5 146,-30.5 "/>
<text text-anchor="start" x="8" y="-18.5" font-family="Helvetica,sans-Serif" font-size="10.00">+ __construct()</text>
<text text-anchor="start" x="8" y="-7.5" font-family="Helvetica,sans-Serif" font-size="10.00">+ format()</text>
</a>
</g>
</g>
<!-- Node1&#45;&gt;Node2 -->
<g id="edge1" class="edge">
<title>Node1&#45;&gt;Node2</title>
<path fill="none" stroke="midnightblue" d="M121.78,-107.99C115,-98.68 107.83,-88.84 101.14,-79.65"/>
<polygon fill="none" stroke="midnightblue" points="119.15,-110.33 127.87,-116.36 124.81,-106.21 119.15,-110.33"/>
</g>
<!-- Node3 -->
<g id="node3" class="node">
<title>Node3</title>
<g id="a_node3"><a xlink:href="../../d6/d17/classpocketmine_1_1player_1_1chat_1_1_standard_chat_formatter.html" target="_top" xlink:title=" ">
<polygon fill="white" stroke="black" points="164,-6 164,-74 298,-74 298,-6 164,-6"/>
<text text-anchor="start" x="172" y="-62" font-family="Helvetica,sans-Serif" font-size="10.00">pocketmine\player\chat</text>
<text text-anchor="middle" x="231" y="-51" font-family="Helvetica,sans-Serif" font-size="10.00">\StandardChatFormatter</text>
<polyline fill="none" stroke="black" points="164,-44 298,-44 "/>
<text text-anchor="middle" x="231" y="-32" font-family="Helvetica,sans-Serif" font-size="10.00"> </text>
<polyline fill="none" stroke="black" points="164,-25 298,-25 "/>
<text text-anchor="start" x="172" y="-13" font-family="Helvetica,sans-Serif" font-size="10.00">+ format()</text>
</a>
</g>
</g>
<!-- Node1&#45;&gt;Node3 -->
<g id="edge2" class="edge">
<title>Node1&#45;&gt;Node3</title>
<path fill="none" stroke="midnightblue" d="M182.21,-108.01C190.32,-96.87 199,-84.96 206.74,-74.31"/>
<polygon fill="none" stroke="midnightblue" points="179.19,-106.21 176.13,-116.36 184.85,-110.33 179.19,-106.21"/>
</g>
</g>
</svg>
