<?xml version="1.0" encoding="UTF-8" standalone="no"?>
<!DOCTYPE svg PUBLIC "-//W3C//DTD SVG 1.1//EN"
 "http://www.w3.org/Graphics/SVG/1.1/DTD/svg11.dtd">
<!-- Generated by graphviz version 2.43.0 (0)
 -->
<!-- Title: pocketmine\network\mcpe\ChunkRequestTask Pages: 1 -->
<svg width="336pt" height="475pt"
 viewBox="0.00 0.00 336.00 475.00" xmlns="http://www.w3.org/2000/svg" xmlns:xlink="http://www.w3.org/1999/xlink">
<g id="graph0" class="graph" transform="scale(1 1) rotate(0) translate(4 471)">
<title>pocketmine\network\mcpe\ChunkRequestTask</title>
<polygon fill="white" stroke="transparent" points="-4,4 -4,-471 332,-471 332,4 -4,4"/>
<!-- Node1 -->
<g id="node1" class="node">
<title>Node1</title>
<g id="a_node1"><a xlink:title=" ">
<polygon fill="#bfbfbf" stroke="black" points="88,-0.5 88,-112.5 230,-112.5 230,-0.5 88,-0.5"/>
<text text-anchor="start" x="96" y="-100.5" font-family="Helvetica,sans-Serif" font-size="10.00">pocketmine\network</text>
<text text-anchor="middle" x="159" y="-89.5" font-family="Helvetica,sans-Serif" font-size="10.00">\mcpe\ChunkRequestTask</text>
<polyline fill="none" stroke="black" points="88,-82.5 230,-82.5 "/>
<text text-anchor="start" x="96" y="-70.5" font-family="Helvetica,sans-Serif" font-size="10.00"># $chunk</text>
<text text-anchor="start" x="96" y="-59.5" font-family="Helvetica,sans-Serif" font-size="10.00"># $chunkX</text>
<text text-anchor="start" x="96" y="-48.5" font-family="Helvetica,sans-Serif" font-size="10.00"># $chunkZ</text>
<polyline fill="none" stroke="black" points="88,-41.5 230,-41.5 "/>
<text text-anchor="start" x="96" y="-29.5" font-family="Helvetica,sans-Serif" font-size="10.00">+ __construct()</text>
<text text-anchor="start" x="96" y="-18.5" font-family="Helvetica,sans-Serif" font-size="10.00">+ onCompletion()</text>
<text text-anchor="start" x="96" y="-7.5" font-family="Helvetica,sans-Serif" font-size="10.00">+ onRun()</text>
</a>
</g>
</g>
<!-- Node2 -->
<g id="node2" class="node">
<title>Node2</title>
<g id="a_node2"><a xlink:href="../../df/dfa/classpocketmine_1_1scheduler_1_1_async_task.html" target="_top" xlink:title=" ">
<polygon fill="white" stroke="black" points="0,-160.5 0,-371.5 146,-371.5 146,-160.5 0,-160.5"/>
<text text-anchor="start" x="8" y="-359.5" font-family="Helvetica,sans-Serif" font-size="10.00">pocketmine\scheduler</text>
<text text-anchor="middle" x="73" y="-348.5" font-family="Helvetica,sans-Serif" font-size="10.00">\AsyncTask</text>
<polyline fill="none" stroke="black" points="0,-341.5 146,-341.5 "/>
<text text-anchor="middle" x="73" y="-329.5" font-family="Helvetica,sans-Serif" font-size="10.00"> </text>
<polyline fill="none" stroke="black" points="0,-322.5 146,-322.5 "/>
<text text-anchor="start" x="8" y="-310.5" font-family="Helvetica,sans-Serif" font-size="10.00">+ __destruct()</text>
<text text-anchor="start" x="8" y="-299.5" font-family="Helvetica,sans-Serif" font-size="10.00">+ cancelRun()</text>
<text text-anchor="start" x="8" y="-288.5" font-family="Helvetica,sans-Serif" font-size="10.00">+ checkProgressUpdates()</text>
<text text-anchor="start" x="8" y="-277.5" font-family="Helvetica,sans-Serif" font-size="10.00">+ getResult()</text>
<text text-anchor="start" x="8" y="-266.5" font-family="Helvetica,sans-Serif" font-size="10.00">+ hasCancelledRun()</text>
<text text-anchor="start" x="8" y="-255.5" font-family="Helvetica,sans-Serif" font-size="10.00">+ hasResult()</text>
<text text-anchor="start" x="8" y="-244.5" font-family="Helvetica,sans-Serif" font-size="10.00">+ isCrashed()</text>
<text text-anchor="start" x="8" y="-233.5" font-family="Helvetica,sans-Serif" font-size="10.00">+ isFinished()</text>
<text text-anchor="start" x="8" y="-222.5" font-family="Helvetica,sans-Serif" font-size="10.00">+ isSubmitted()</text>
<text text-anchor="start" x="8" y="-211.5" font-family="Helvetica,sans-Serif" font-size="10.00">+ onCompletion()</text>
<text text-anchor="start" x="8" y="-200.5" font-family="Helvetica,sans-Serif" font-size="10.00">and 7 more...</text>
<text text-anchor="start" x="8" y="-189.5" font-family="Helvetica,sans-Serif" font-size="10.00"># fetchLocal()</text>
<text text-anchor="start" x="8" y="-178.5" font-family="Helvetica,sans-Serif" font-size="10.00"># reallyDestruct()</text>
<text text-anchor="start" x="8" y="-167.5" font-family="Helvetica,sans-Serif" font-size="10.00"># storeLocal()</text>
</a>
</g>
</g>
<!-- Node2&#45;&gt;Node1 -->
<g id="edge1" class="edge">
<title>Node2&#45;&gt;Node1</title>
<path fill="none" stroke="midnightblue" d="M120.22,-151.06C125.76,-137.7 131.21,-124.56 136.18,-112.55"/>
<polygon fill="none" stroke="midnightblue" points="116.97,-149.76 116.38,-160.34 123.44,-152.44 116.97,-149.76"/>
</g>
<!-- Node3 -->
<g id="node3" class="node">
<title>Node3</title>
<g id="a_node3"><a xlink:title=" ">
<polygon fill="white" stroke="#bfbfbf" points="42,-409.5 42,-466.5 104,-466.5 104,-409.5 42,-409.5"/>
<text text-anchor="middle" x="73" y="-454.5" font-family="Helvetica,sans-Serif" font-size="10.00">Runnable</text>
<polyline fill="none" stroke="#bfbfbf" points="42,-447.5 104,-447.5 "/>
<text text-anchor="middle" x="73" y="-435.5" font-family="Helvetica,sans-Serif" font-size="10.00"> </text>
<polyline fill="none" stroke="#bfbfbf" points="42,-428.5 104,-428.5 "/>
<text text-anchor="middle" x="73" y="-416.5" font-family="Helvetica,sans-Serif" font-size="10.00"> </text>
</a>
</g>
</g>
<!-- Node3&#45;&gt;Node2 -->
<g id="edge2" class="edge">
<title>Node3&#45;&gt;Node2</title>
<path fill="none" stroke="midnightblue" d="M73,-399.19C73,-390.8 73,-381.5 73,-371.84"/>
<polygon fill="none" stroke="midnightblue" points="69.5,-399.31 73,-409.31 76.5,-399.31 69.5,-399.31"/>
</g>
<!-- Node4 -->
<g id="node4" class="node">
<title>Node4</title>
<g id="a_node4"><a xlink:href="../../d4/d69/classpocketmine_1_1thread_1_1_non_thread_safe_value.html" target="_top" xlink:title=" ">
<polygon fill="white" stroke="black" points="164,-226.5 164,-305.5 328,-305.5 328,-226.5 164,-226.5"/>
<text text-anchor="start" x="172" y="-293.5" font-family="Helvetica,sans-Serif" font-size="10.00">pocketmine\thread\NonThread</text>
<text text-anchor="middle" x="246" y="-282.5" font-family="Helvetica,sans-Serif" font-size="10.00">SafeValue</text>
<polyline fill="none" stroke="black" points="164,-275.5 328,-275.5 "/>
<text text-anchor="middle" x="246" y="-263.5" font-family="Helvetica,sans-Serif" font-size="10.00"> </text>
<polyline fill="none" stroke="black" points="164,-256.5 328,-256.5 "/>
<text text-anchor="start" x="172" y="-244.5" font-family="Helvetica,sans-Serif" font-size="10.00">+ __construct()</text>
<text text-anchor="start" x="172" y="-233.5" font-family="Helvetica,sans-Serif" font-size="10.00">+ deserialize()</text>
</a>
</g>
</g>
<!-- Node4&#45;&gt;Node1 -->
<g id="edge3" class="edge">
<title>Node4&#45;&gt;Node1</title>
<path fill="none" stroke="#404040" d="M229.84,-226.46C217.79,-197.71 201.03,-157.73 186.83,-123.88"/>
<polygon fill="none" stroke="#404040" points="186.77,-123.73 180.76,-119.74 182.13,-112.66 188.14,-116.65 186.77,-123.73"/>
<text text-anchor="middle" x="230.5" y="-134" font-family="Helvetica,sans-Serif" font-size="10.00"> #$compressor</text>
</g>
<!-- Node5 -->
<g id="node5" class="node">
<title>Node5</title>
<g id="a_node5"><a xlink:title=" ">
<polygon fill="white" stroke="#bfbfbf" points="210,-409.5 210,-466.5 282,-466.5 282,-409.5 210,-409.5"/>
<text text-anchor="middle" x="246" y="-454.5" font-family="Helvetica,sans-Serif" font-size="10.00">ThreadSafe</text>
<polyline fill="none" stroke="#bfbfbf" points="210,-447.5 282,-447.5 "/>
<text text-anchor="middle" x="246" y="-435.5" font-family="Helvetica,sans-Serif" font-size="10.00"> </text>
<polyline fill="none" stroke="#bfbfbf" points="210,-428.5 282,-428.5 "/>
<text text-anchor="middle" x="246" y="-416.5" font-family="Helvetica,sans-Serif" font-size="10.00"> </text>
</a>
</g>
</g>
<!-- Node5&#45;&gt;Node4 -->
<g id="edge4" class="edge">
<title>Node5&#45;&gt;Node4</title>
<path fill="none" stroke="midnightblue" d="M246,-399.18C246,-371.41 246,-333.79 246,-305.79"/>
<polygon fill="none" stroke="midnightblue" points="242.5,-399.31 246,-409.31 249.5,-399.31 242.5,-399.31"/>
</g>
</g>
</svg>
