<?xml version="1.0" encoding="UTF-8" standalone="no"?>
<!DOCTYPE svg PUBLIC "-//W3C//DTD SVG 1.1//EN"
 "http://www.w3.org/Graphics/SVG/1.1/DTD/svg11.dtd">
<!-- Generated by graphviz version 2.43.0 (0)
 -->
<!-- Title: pocketmine\network\mcpe\protocol\AdventureSettingsPacket Pages: 1 -->
<!--zoomable 706 -->
<svg id="main" version="1.1" xmlns="http://www.w3.org/2000/svg" xmlns:xlink="http://www.w3.org/1999/xlink" xml:space="preserve" onload="init(evt)">
<style type="text/css"><![CDATA[
.edge:hover path { stroke: red; }
.edge:hover polygon { stroke: red; fill: red; }
]]></style>
<script type="text/javascript"><![CDATA[
var edges = document.getElementsByTagName('g');
if (edges && edges.length) {
  for (var i=0;i<edges.length;i++) {
    if (edges[i].id.substr(0,4)=='edge') {
      edges[i].setAttribute('class','edge');
    }
  }
}
]]></script>
        <defs>
                <circle id="rim" cx="0" cy="0" r="7"/>
                <circle id="rim2" cx="0" cy="0" r="3.5"/>
                <g id="zoomPlus">
                        <use xlink:href="#rim" fill="#404040">
                                <set attributeName="fill" to="#808080" begin="zoomplus.mouseover" end="zoomplus.mouseout"/>
                        </use>
                        <path d="M-4,0h8M0,-4v8" fill="none" stroke="white" stroke-width="1.5" pointer-events="none"/>
                </g>
                <g id="zoomMin">
                        <use xlink:href="#rim" fill="#404040">
                                <set attributeName="fill" to="#808080" begin="zoomminus.mouseover" end="zoomminus.mouseout"/>
                        </use>
                        <path d="M-4,0h8" fill="none" stroke="white" stroke-width="1.5" pointer-events="none"/>
                </g>
                <g id="dirArrow">
                        <path fill="none" stroke="white" stroke-width="1.5" d="M0,-3.0v7 M-2.5,-0.5L0,-3.0L2.5,-0.5"/>
                </g>
               <g id="resetDef">
                       <use xlink:href="#rim2" fill="#404040">
                               <set attributeName="fill" to="#808080" begin="reset.mouseover" end="reset.mouseout"/>
                       </use>
               </g>
        </defs>

<script type="text/javascript">
var viewWidth = 685;
var viewHeight = 706;
var sectionId = 'dynsection-1';
</script>
<script xlink:href="../../svgpan.js"/>
<svg id="graph" class="graph">
<g id="viewport">
<title>pocketmine\network\mcpe\protocol\AdventureSettingsPacket</title>
<polygon fill="white" stroke="transparent" points="-4,4 -4,-702 681,-702 681,4 -4,4"/>
<!-- Node1 -->
<g id="node1" class="node">
<title>Node1</title>
<g id="a_node1"><a xlink:title=" ">
<polygon fill="#bfbfbf" stroke="black" points="261,-0.5 261,-288.5 443,-288.5 443,-0.5 261,-0.5"/>
<text text-anchor="start" x="269" y="-276.5" font-family="Helvetica,sans-Serif" font-size="10.00">pocketmine\network</text>
<text text-anchor="start" x="269" y="-265.5" font-family="Helvetica,sans-Serif" font-size="10.00">\mcpe\protocol\AdventureSettings</text>
<text text-anchor="middle" x="352" y="-254.5" font-family="Helvetica,sans-Serif" font-size="10.00">Packet</text>
<polyline fill="none" stroke="black" points="261,-247.5 443,-247.5 "/>
<text text-anchor="start" x="269" y="-235.5" font-family="Helvetica,sans-Serif" font-size="10.00">+ $commandPermission</text>
<text text-anchor="start" x="269" y="-224.5" font-family="Helvetica,sans-Serif" font-size="10.00">+ $customFlags</text>
<text text-anchor="start" x="269" y="-213.5" font-family="Helvetica,sans-Serif" font-size="10.00">+ $flags</text>
<text text-anchor="start" x="269" y="-202.5" font-family="Helvetica,sans-Serif" font-size="10.00">+ $flags2</text>
<text text-anchor="start" x="269" y="-191.5" font-family="Helvetica,sans-Serif" font-size="10.00">+ $playerPermission</text>
<text text-anchor="start" x="269" y="-180.5" font-family="Helvetica,sans-Serif" font-size="10.00">+ $targetActorUniqueId</text>
<text text-anchor="start" x="269" y="-169.5" font-family="Helvetica,sans-Serif" font-size="10.00">+ MUTED</text>
<text text-anchor="start" x="269" y="-158.5" font-family="Helvetica,sans-Serif" font-size="10.00">+ NETWORK_ID</text>
<text text-anchor="start" x="269" y="-147.5" font-family="Helvetica,sans-Serif" font-size="10.00">+ NO_CLIP</text>
<text text-anchor="start" x="269" y="-136.5" font-family="Helvetica,sans-Serif" font-size="10.00">+ NO_PVP</text>
<text text-anchor="start" x="269" y="-125.5" font-family="Helvetica,sans-Serif" font-size="10.00">+ OPEN_CONTAINERS</text>
<text text-anchor="start" x="269" y="-114.5" font-family="Helvetica,sans-Serif" font-size="10.00">+ OPERATOR</text>
<text text-anchor="start" x="269" y="-103.5" font-family="Helvetica,sans-Serif" font-size="10.00">+ TELEPORT</text>
<text text-anchor="start" x="269" y="-92.5" font-family="Helvetica,sans-Serif" font-size="10.00">+ WORLD_BUILDER</text>
<text text-anchor="start" x="269" y="-81.5" font-family="Helvetica,sans-Serif" font-size="10.00">+ WORLD_IMMUTABLE</text>
<polyline fill="none" stroke="black" points="261,-74.5 443,-74.5 "/>
<text text-anchor="start" x="269" y="-62.5" font-family="Helvetica,sans-Serif" font-size="10.00">+ getFlag()</text>
<text text-anchor="start" x="269" y="-51.5" font-family="Helvetica,sans-Serif" font-size="10.00">+ handle()</text>
<text text-anchor="start" x="269" y="-40.5" font-family="Helvetica,sans-Serif" font-size="10.00">+ setFlag()</text>
<text text-anchor="start" x="269" y="-29.5" font-family="Helvetica,sans-Serif" font-size="10.00">+ create()</text>
<text text-anchor="start" x="269" y="-18.5" font-family="Helvetica,sans-Serif" font-size="10.00"># decodePayload()</text>
<text text-anchor="start" x="269" y="-7.5" font-family="Helvetica,sans-Serif" font-size="10.00"># encodePayload()</text>
</a>
</g>
</g>
<!-- Node2 -->
<g id="node2" class="node">
<title>Node2</title>
<g id="a_node2"><a xlink:href="../../d1/ddb/classpocketmine_1_1network_1_1mcpe_1_1protocol_1_1_data_packet.html" target="_top" xlink:title=" ">
<polygon fill="white" stroke="#bfbfbf" points="341.5,-326.5 341.5,-515.5 488.5,-515.5 488.5,-326.5 341.5,-326.5"/>
<text text-anchor="start" x="349.5" y="-503.5" font-family="Helvetica,sans-Serif" font-size="10.00">pocketmine\network</text>
<text text-anchor="middle" x="415" y="-492.5" font-family="Helvetica,sans-Serif" font-size="10.00">\mcpe\protocol\DataPacket</text>
<polyline fill="none" stroke="#bfbfbf" points="341.5,-485.5 488.5,-485.5 "/>
<text text-anchor="start" x="349.5" y="-473.5" font-family="Helvetica,sans-Serif" font-size="10.00">+ $recipientSubId</text>
<text text-anchor="start" x="349.5" y="-462.5" font-family="Helvetica,sans-Serif" font-size="10.00">+ $senderSubId</text>
<polyline fill="none" stroke="#bfbfbf" points="341.5,-455.5 488.5,-455.5 "/>
<text text-anchor="start" x="349.5" y="-443.5" font-family="Helvetica,sans-Serif" font-size="10.00">+ __get()</text>
<text text-anchor="start" x="349.5" y="-432.5" font-family="Helvetica,sans-Serif" font-size="10.00">+ __set()</text>
<text text-anchor="start" x="349.5" y="-421.5" font-family="Helvetica,sans-Serif" font-size="10.00">+ canBeSentBeforeLogin()</text>
<text text-anchor="start" x="349.5" y="-410.5" font-family="Helvetica,sans-Serif" font-size="10.00">+ decode()</text>
<text text-anchor="start" x="349.5" y="-399.5" font-family="Helvetica,sans-Serif" font-size="10.00">+ encode()</text>
<text text-anchor="start" x="349.5" y="-388.5" font-family="Helvetica,sans-Serif" font-size="10.00">+ getName()</text>
<text text-anchor="start" x="349.5" y="-377.5" font-family="Helvetica,sans-Serif" font-size="10.00">+ pid()</text>
<text text-anchor="start" x="349.5" y="-366.5" font-family="Helvetica,sans-Serif" font-size="10.00"># decodeHeader()</text>
<text text-anchor="start" x="349.5" y="-355.5" font-family="Helvetica,sans-Serif" font-size="10.00"># decodePayload()</text>
<text text-anchor="start" x="349.5" y="-344.5" font-family="Helvetica,sans-Serif" font-size="10.00"># encodeHeader()</text>
<text text-anchor="start" x="349.5" y="-333.5" font-family="Helvetica,sans-Serif" font-size="10.00"># encodePayload()</text>
</a>
</g>
</g>
<!-- Node2&#45;&gt;Node1 -->
<g id="edge1" class="edge">
<title>Node2&#45;&gt;Node1</title>
<path fill="none" stroke="midnightblue" d="M391.26,-316.55C389.18,-307.48 387.04,-298.2 384.91,-288.88"/>
<polygon fill="none" stroke="midnightblue" points="387.85,-317.34 393.5,-326.3 394.67,-315.77 387.85,-317.34"/>
</g>
<!-- Node3 -->
<g id="node3" class="node">
<title>Node3</title>
<g id="a_node3"><a xlink:href="../../d4/d5d/interfacepocketmine_1_1network_1_1mcpe_1_1protocol_1_1_packet.html" target="_top" xlink:title=" ">
<polygon fill="white" stroke="#bfbfbf" points="175,-574.5 175,-697.5 321,-697.5 321,-574.5 175,-574.5"/>
<text text-anchor="start" x="183" y="-685.5" font-family="Helvetica,sans-Serif" font-size="10.00">pocketmine\network</text>
<text text-anchor="middle" x="248" y="-674.5" font-family="Helvetica,sans-Serif" font-size="10.00">\mcpe\protocol\Packet</text>
<polyline fill="none" stroke="#bfbfbf" points="175,-667.5 321,-667.5 "/>
<text text-anchor="middle" x="248" y="-655.5" font-family="Helvetica,sans-Serif" font-size="10.00"> </text>
<polyline fill="none" stroke="#bfbfbf" points="175,-648.5 321,-648.5 "/>
<text text-anchor="start" x="183" y="-636.5" font-family="Helvetica,sans-Serif" font-size="10.00">+ canBeSentBeforeLogin()</text>
<text text-anchor="start" x="183" y="-625.5" font-family="Helvetica,sans-Serif" font-size="10.00">+ decode()</text>
<text text-anchor="start" x="183" y="-614.5" font-family="Helvetica,sans-Serif" font-size="10.00">+ encode()</text>
<text text-anchor="start" x="183" y="-603.5" font-family="Helvetica,sans-Serif" font-size="10.00">+ getName()</text>
<text text-anchor="start" x="183" y="-592.5" font-family="Helvetica,sans-Serif" font-size="10.00">+ handle()</text>
<text text-anchor="start" x="183" y="-581.5" font-family="Helvetica,sans-Serif" font-size="10.00">+ pid()</text>
</a>
</g>
</g>
<!-- Node3&#45;&gt;Node2 -->
<g id="edge2" class="edge">
<title>Node3&#45;&gt;Node2</title>
<path fill="none" stroke="midnightblue" d="M302.09,-566.01C314.64,-550.01 328.2,-532.71 341.42,-515.84"/>
<polygon fill="none" stroke="midnightblue" points="299.05,-564.22 295.63,-574.25 304.56,-568.54 299.05,-564.22"/>
</g>
<!-- Node5 -->
<g id="node5" class="node">
<title>Node5</title>
<g id="a_node5"><a xlink:href="../../da/d77/interfacepocketmine_1_1network_1_1mcpe_1_1protocol_1_1_clientbound_packet.html" target="_top" xlink:title=" ">
<polygon fill="white" stroke="#bfbfbf" points="172.5,-381.5 172.5,-460.5 323.5,-460.5 323.5,-381.5 172.5,-381.5"/>
<text text-anchor="start" x="180.5" y="-448.5" font-family="Helvetica,sans-Serif" font-size="10.00">pocketmine\network</text>
<text text-anchor="start" x="180.5" y="-437.5" font-family="Helvetica,sans-Serif" font-size="10.00">\mcpe\protocol\Clientbound</text>
<text text-anchor="middle" x="248" y="-426.5" font-family="Helvetica,sans-Serif" font-size="10.00">Packet</text>
<polyline fill="none" stroke="#bfbfbf" points="172.5,-419.5 323.5,-419.5 "/>
<text text-anchor="middle" x="248" y="-407.5" font-family="Helvetica,sans-Serif" font-size="10.00"> </text>
<polyline fill="none" stroke="#bfbfbf" points="172.5,-400.5 323.5,-400.5 "/>
<text text-anchor="middle" x="248" y="-388.5" font-family="Helvetica,sans-Serif" font-size="10.00"> </text>
</a>
</g>
</g>
<!-- Node3&#45;&gt;Node5 -->
<g id="edge5" class="edge">
<title>Node3&#45;&gt;Node5</title>
<path fill="none" stroke="midnightblue" d="M248,-564.21C248,-529.68 248,-489.5 248,-460.67"/>
<polygon fill="none" stroke="midnightblue" points="244.5,-564.25 248,-574.25 251.5,-564.25 244.5,-564.25"/>
</g>
<!-- Node6 -->
<g id="node6" class="node">
<title>Node6</title>
<g id="a_node6"><a xlink:href="../../dd/de6/interfacepocketmine_1_1network_1_1mcpe_1_1protocol_1_1_serverbound_packet.html" target="_top" xlink:title=" ">
<polygon fill="white" stroke="#bfbfbf" points="0,-381.5 0,-460.5 154,-460.5 154,-381.5 0,-381.5"/>
<text text-anchor="start" x="8" y="-448.5" font-family="Helvetica,sans-Serif" font-size="10.00">pocketmine\network</text>
<text text-anchor="start" x="8" y="-437.5" font-family="Helvetica,sans-Serif" font-size="10.00">\mcpe\protocol\Serverbound</text>
<text text-anchor="middle" x="77" y="-426.5" font-family="Helvetica,sans-Serif" font-size="10.00">Packet</text>
<polyline fill="none" stroke="#bfbfbf" points="0,-419.5 154,-419.5 "/>
<text text-anchor="middle" x="77" y="-407.5" font-family="Helvetica,sans-Serif" font-size="10.00"> </text>
<polyline fill="none" stroke="#bfbfbf" points="0,-400.5 154,-400.5 "/>
<text text-anchor="middle" x="77" y="-388.5" font-family="Helvetica,sans-Serif" font-size="10.00"> </text>
</a>
</g>
</g>
<!-- Node3&#45;&gt;Node6 -->
<g id="edge7" class="edge">
<title>Node3&#45;&gt;Node6</title>
<path fill="none" stroke="midnightblue" d="M192.94,-566.42C164.84,-531.41 131.69,-490.12 108.05,-460.67"/>
<polygon fill="none" stroke="midnightblue" points="190.24,-568.64 199.23,-574.25 195.7,-564.26 190.24,-568.64"/>
</g>
<!-- Node4 -->
<g id="node4" class="node">
<title>Node4</title>
<g id="a_node4"><a xlink:title=" ">
<polygon fill="white" stroke="#bfbfbf" points="456.5,-607.5 456.5,-664.5 499.5,-664.5 499.5,-607.5 456.5,-607.5"/>
<text text-anchor="middle" x="478" y="-652.5" font-family="Helvetica,sans-Serif" font-size="10.00">const</text>
<polyline fill="none" stroke="#bfbfbf" points="456.5,-645.5 499.5,-645.5 "/>
<text text-anchor="middle" x="478" y="-633.5" font-family="Helvetica,sans-Serif" font-size="10.00"> </text>
<polyline fill="none" stroke="#bfbfbf" points="456.5,-626.5 499.5,-626.5 "/>
<text text-anchor="middle" x="478" y="-614.5" font-family="Helvetica,sans-Serif" font-size="10.00"> </text>
</a>
</g>
</g>
<!-- Node4&#45;&gt;Node1 -->
<g id="edge8" class="edge">
<title>Node4&#45;&gt;Node1</title>
<path fill="none" stroke="#404040" d="M492.73,-607.34C499.77,-592.56 507.44,-573.78 511,-556 523.77,-492.29 601.05,-590.68 498,-326 486.9,-297.48 469.54,-270.01 450.61,-245.46"/>
<polygon fill="none" stroke="#404040" points="450.45,-245.25 443.59,-243.03 443,-235.84 449.86,-238.07 450.45,-245.25"/>
<text text-anchor="middle" x="613.5" y="-479" font-family="Helvetica,sans-Serif" font-size="10.00"> +ALLOW_FLIGHT</text>
<text text-anchor="middle" x="613.5" y="-468" font-family="Helvetica,sans-Serif" font-size="10.00">+ATTACK_MOBS</text>
<text text-anchor="middle" x="613.5" y="-457" font-family="Helvetica,sans-Serif" font-size="10.00">+ATTACK_PLAYERS</text>
<text text-anchor="middle" x="613.5" y="-446" font-family="Helvetica,sans-Serif" font-size="10.00">+AUTO_JUMP</text>
<text text-anchor="start" x="550" y="-435" font-family="Helvetica,sans-Serif" font-size="10.00">+BITFLAG_SECOND</text>
<text text-anchor="middle" x="613.5" y="-424" font-family="Helvetica,sans-Serif" font-size="10.00">_SET</text>
<text text-anchor="middle" x="613.5" y="-413" font-family="Helvetica,sans-Serif" font-size="10.00">+BUILD</text>
<text text-anchor="middle" x="613.5" y="-402" font-family="Helvetica,sans-Serif" font-size="10.00">+DEFAULT</text>
<text text-anchor="middle" x="613.5" y="-391" font-family="Helvetica,sans-Serif" font-size="10.00">+DOORS_AND_SWITCHES</text>
<text text-anchor="middle" x="613.5" y="-380" font-family="Helvetica,sans-Serif" font-size="10.00">+FLYING</text>
<text text-anchor="middle" x="613.5" y="-369" font-family="Helvetica,sans-Serif" font-size="10.00">+MINE</text>
<text text-anchor="middle" x="613.5" y="-358" font-family="Helvetica,sans-Serif" font-size="10.00">...</text>
</g>
<!-- Node4&#45;&gt;Node2 -->
<g id="edge3" class="edge">
<title>Node4&#45;&gt;Node2</title>
<path fill="none" stroke="#404040" d="M458.75,-607.36C449.5,-592.73 439.11,-574.1 433,-556 429.93,-546.91 427.38,-537.3 425.27,-527.58"/>
<polygon fill="none" stroke="#404040" points="425.24,-527.46 420.15,-522.36 422.9,-515.69 427.99,-520.79 425.24,-527.46"/>
<text text-anchor="middle" x="472" y="-548" font-family="Helvetica,sans-Serif" font-size="10.00"> +NETWORK_ID</text>
<text text-anchor="middle" x="472" y="-537" font-family="Helvetica,sans-Serif" font-size="10.00">+PID_MASK</text>
</g>
<!-- Node5&#45;&gt;Node1 -->
<g id="edge4" class="edge">
<title>Node5&#45;&gt;Node1</title>
<path fill="none" stroke="midnightblue" d="M266.34,-371.59C275.22,-348.15 286.4,-318.64 297.73,-288.75"/>
<polygon fill="none" stroke="midnightblue" points="262.95,-370.66 262.68,-381.25 269.5,-373.14 262.95,-370.66"/>
</g>
<!-- Node6&#45;&gt;Node1 -->
<g id="edge6" class="edge">
<title>Node6&#45;&gt;Node1</title>
<path fill="none" stroke="midnightblue" d="M117.9,-374.06C131.97,-358.58 147.98,-341.35 163,-326 194.26,-294.06 229.45,-259.98 260.91,-230.13"/>
<polygon fill="none" stroke="midnightblue" points="115.28,-371.74 111.16,-381.5 120.47,-376.44 115.28,-371.74"/>
</g>
</g>
</svg>
        <g id="navigator" transform="translate(0 0)" fill="#404254">
                <rect fill="#f2f5e9" fill-opacity="0.5" stroke="#606060" stroke-width=".5" x="0" y="0" width="60" height="60"/>
                <use id="zoomplus" xlink:href="#zoomPlus" x="17" y="9" onmousedown="handleZoom(evt,'in')"/>
                <use id="zoomminus" xlink:href="#zoomMin" x="42" y="9" onmousedown="handleZoom(evt,'out')"/>
                <use id="reset" xlink:href="#resetDef" x="30" y="36" onmousedown="handleReset()"/>
                <g id="arrowUp" xlink:href="#dirArrow" transform="translate(30 24)" onmousedown="handlePan(0,-1)">
                  <use xlink:href="#rim" fill="#404040">
                        <set attributeName="fill" to="#808080" begin="arrowUp.mouseover" end="arrowUp.mouseout"/>
                  </use>
                  <path fill="none" stroke="white" stroke-width="1.5" d="M0,-3.0v7 M-2.5,-0.5L0,-3.0L2.5,-0.5"/>
                </g>
                <g id="arrowRight" xlink:href="#dirArrow" transform="rotate(90) translate(36 -43)" onmousedown="handlePan(1,0)">
                  <use xlink:href="#rim" fill="#404040">
                        <set attributeName="fill" to="#808080" begin="arrowRight.mouseover" end="arrowRight.mouseout"/>
                  </use>
                  <path fill="none" stroke="white" stroke-width="1.5" d="M0,-3.0v7 M-2.5,-0.5L0,-3.0L2.5,-0.5"/>
                </g>
                <g id="arrowDown" xlink:href="#dirArrow" transform="rotate(180) translate(-30 -48)" onmousedown="handlePan(0,1)">
                  <use xlink:href="#rim" fill="#404040">
                        <set attributeName="fill" to="#808080" begin="arrowDown.mouseover" end="arrowDown.mouseout"/>
                  </use>
                  <path fill="none" stroke="white" stroke-width="1.5" d="M0,-3.0v7 M-2.5,-0.5L0,-3.0L2.5,-0.5"/>
                </g>
                <g id="arrowLeft" xlink:href="#dirArrow" transform="rotate(270) translate(-36 17)" onmousedown="handlePan(-1,0)">
                  <use xlink:href="#rim" fill="#404040">
                        <set attributeName="fill" to="#808080" begin="arrowLeft.mouseover" end="arrowLeft.mouseout"/>
                  </use>
                  <path fill="none" stroke="white" stroke-width="1.5" d="M0,-3.0v7 M-2.5,-0.5L0,-3.0L2.5,-0.5"/>
                </g>
        </g>
        <svg viewBox="0 0 15 15" width="100%" height="30px" preserveAspectRatio="xMaxYMin meet">
         <g id="arrow_out" transform="scale(0.3 0.3)">
          <a xlink:href="classpocketmine_1_1network_1_1mcpe_1_1protocol_1_1_adventure_settings_packet__coll__graph_org.svg" target="_base">
           <rect id="button" ry="5" rx="5" y="6" x="6" height="38" width="38"
                fill="#f2f5e9" fill-opacity="0.5" stroke="#606060" stroke-width="1.0"/>
           <path id="arrow"
             d="M 11.500037,31.436501 C 11.940474,20.09759 22.043105,11.32322 32.158766,21.979434 L 37.068811,17.246167 C 37.068811,17.246167 37.088388,32 37.088388,32 L 22.160133,31.978069 C 22.160133,31.978069 26.997745,27.140456 26.997745,27.140456 C 18.528582,18.264221 13.291696,25.230495 11.500037,31.436501 z"
             style="fill:#404040;"/>
          </a>
         </g>
        </svg>
</svg>
