<?xml version="1.0" encoding="UTF-8" standalone="no"?>
<!DOCTYPE svg PUBLIC "-//W3C//DTD SVG 1.1//EN"
 "http://www.w3.org/Graphics/SVG/1.1/DTD/svg11.dtd">
<!-- Generated by graphviz version 2.43.0 (0)
 -->
<!-- Title: pocketmine\block\BaseCoral Pages: 1 -->
<svg width="499pt" height="792pt"
 viewBox="0.00 0.00 499.00 792.00" xmlns="http://www.w3.org/2000/svg" xmlns:xlink="http://www.w3.org/1999/xlink">
<g id="graph0" class="graph" transform="scale(1 1) rotate(0) translate(4 788)">
<title>pocketmine\block\BaseCoral</title>
<!-- Node1 -->
<g id="Node000001" class="node">
<title>Node1</title>
<g id="a_Node000001"><a xlink:title=" ">
<polygon fill="#999999" stroke="transparent" points="308.5,-299 144.5,-299 144.5,-145 308.5,-145 308.5,-299"/>
<text text-anchor="start" x="157" y="-287" font-family="Helvetica,sans-Serif" font-size="10.00">pocketmine\block\BaseCoral</text>
<text text-anchor="start" x="224.5" y="-272" font-family="Helvetica,sans-Serif" font-size="10.00"> </text>
<text text-anchor="start" x="148.5" y="-257" font-family="Helvetica,sans-Serif" font-size="10.00">+</text>
<text text-anchor="start" x="161.5" y="-257" font-family="Helvetica,sans-Serif" font-size="10.00">getDropsForCompatibleTool()</text>
<text text-anchor="start" x="148.5" y="-242" font-family="Helvetica,sans-Serif" font-size="10.00">+</text>
<text text-anchor="start" x="161.5" y="-242" font-family="Helvetica,sans-Serif" font-size="10.00">getSupportType()</text>
<text text-anchor="start" x="148.5" y="-227" font-family="Helvetica,sans-Serif" font-size="10.00">+</text>
<text text-anchor="start" x="161.5" y="-227" font-family="Helvetica,sans-Serif" font-size="10.00">isAffectedBySilkTouch()</text>
<text text-anchor="start" x="148.5" y="-212" font-family="Helvetica,sans-Serif" font-size="10.00">+</text>
<text text-anchor="start" x="161.5" y="-212" font-family="Helvetica,sans-Serif" font-size="10.00">isSolid()</text>
<text text-anchor="start" x="148.5" y="-197" font-family="Helvetica,sans-Serif" font-size="10.00">+</text>
<text text-anchor="start" x="161.5" y="-197" font-family="Helvetica,sans-Serif" font-size="10.00">onNearbyBlockChange()</text>
<text text-anchor="start" x="148.5" y="-182" font-family="Helvetica,sans-Serif" font-size="10.00">+</text>
<text text-anchor="start" x="161.5" y="-182" font-family="Helvetica,sans-Serif" font-size="10.00">onScheduledUpdate()</text>
<text text-anchor="start" x="148.5" y="-167" font-family="Helvetica,sans-Serif" font-size="10.00">#</text>
<text text-anchor="start" x="161.5" y="-167" font-family="Helvetica,sans-Serif" font-size="10.00">isCoveredWithWater()</text>
<text text-anchor="start" x="148.5" y="-152" font-family="Helvetica,sans-Serif" font-size="10.00">#</text>
<text text-anchor="start" x="161.5" y="-152" font-family="Helvetica,sans-Serif" font-size="10.00">recalculateCollisionBoxes()</text>
<polygon fill="#666666" stroke="#666666" points="144.5,-282 144.5,-282 308.5,-282 308.5,-282 144.5,-282"/>
<polygon fill="#666666" stroke="#666666" points="144.5,-267 144.5,-267 308.5,-267 308.5,-267 144.5,-267"/>
<polygon fill="none" stroke="#666666" points="144.5,-145 144.5,-299 308.5,-299 308.5,-145 144.5,-145"/>
</a>
</g>
</g>
<!-- Node4 -->
<g id="Node000004" class="node">
<title>Node4</title>
<g id="a_Node000004"><a xlink:href="../../dc/dc9/classpocketmine_1_1block_1_1_coral.html" target="_top" xlink:title=" ">
<polygon fill="white" stroke="transparent" points="125,-79 0,-79 0,-30 125,-30 125,-79"/>
<text text-anchor="start" x="5.5" y="-66.5" font-family="Helvetica,sans-Serif" font-size="10.00">pocketmine\block\Coral</text>
<text text-anchor="start" x="61" y="-51.5" font-family="Helvetica,sans-Serif" font-size="10.00"> </text>
<text text-anchor="start" x="61" y="-36.5" font-family="Helvetica,sans-Serif" font-size="10.00"> </text>
<polygon fill="#bfbfbf" stroke="#bfbfbf" points="0.5,-61.5 0.5,-61.5 125.5,-61.5 125.5,-61.5 0.5,-61.5"/>
<polygon fill="#bfbfbf" stroke="#bfbfbf" points="0.5,-46.5 0.5,-46.5 125.5,-46.5 125.5,-46.5 0.5,-46.5"/>
<polygon fill="none" stroke="#bfbfbf" points="0,-30 0,-79 125,-79 125,-30 0,-30"/>
</a>
</g>
</g>
<!-- Node1&#45;&gt;Node4 -->
<g id="edge3_Node000001_Node000004" class="edge">
<title>Node1&#45;&gt;Node4</title>
<g id="a_edge3_Node000001_Node000004"><a xlink:title=" ">
<path fill="none" stroke="#63b8ff" d="M143.57,-137.31C122.4,-115.95 101.32,-94.67 85.96,-79.17"/>
<polygon fill="none" stroke="#63b8ff" points="141.22,-139.91 150.74,-144.55 146.19,-134.98 141.22,-139.91"/>
</a>
</g>
</g>
<!-- Node5 -->
<g id="Node000005" class="node">
<title>Node5</title>
<g id="a_Node000005"><a xlink:href="../../d1/d8d/classpocketmine_1_1block_1_1_floor_coral_fan.html" target="_top" xlink:title=" ">
<polygon fill="white" stroke="transparent" points="310,-109 143,-109 143,0 310,0 310,-109"/>
<text text-anchor="start" x="148.5" y="-96.5" font-family="Helvetica,sans-Serif" font-size="10.00">pocketmine\block\FloorCoralFan</text>
<text text-anchor="start" x="225" y="-81.5" font-family="Helvetica,sans-Serif" font-size="10.00"> </text>
<text text-anchor="start" x="153" y="-66.5" font-family="Helvetica,sans-Serif" font-size="10.00">+</text>
<text text-anchor="start" x="171.5" y="-66.5" font-family="Helvetica,sans-Serif" font-size="10.00">asItem()</text>
<text text-anchor="start" x="153" y="-51.5" font-family="Helvetica,sans-Serif" font-size="10.00">+</text>
<text text-anchor="start" x="171.5" y="-51.5" font-family="Helvetica,sans-Serif" font-size="10.00">getAxis()</text>
<text text-anchor="start" x="153" y="-36.5" font-family="Helvetica,sans-Serif" font-size="10.00">+</text>
<text text-anchor="start" x="171.5" y="-36.5" font-family="Helvetica,sans-Serif" font-size="10.00">place()</text>
<text text-anchor="start" x="153" y="-21.5" font-family="Helvetica,sans-Serif" font-size="10.00">+</text>
<text text-anchor="start" x="171.5" y="-21.5" font-family="Helvetica,sans-Serif" font-size="10.00">setAxis()</text>
<text text-anchor="start" x="153" y="-6.5" font-family="Helvetica,sans-Serif" font-size="10.00">#</text>
<text text-anchor="start" x="171.5" y="-6.5" font-family="Helvetica,sans-Serif" font-size="10.00">describeBlockOnlyState()</text>
<polygon fill="#bfbfbf" stroke="#bfbfbf" points="143.5,-91.5 143.5,-91.5 310.5,-91.5 310.5,-91.5 143.5,-91.5"/>
<polygon fill="#bfbfbf" stroke="#bfbfbf" points="143.5,-76.5 143.5,-76.5 310.5,-76.5 310.5,-76.5 143.5,-76.5"/>
<polygon fill="none" stroke="#bfbfbf" points="143,0 143,-109 310,-109 310,0 143,0"/>
</a>
</g>
</g>
<!-- Node1&#45;&gt;Node5 -->
<g id="edge4_Node000001_Node000005" class="edge">
<title>Node1&#45;&gt;Node5</title>
<g id="a_edge4_Node000001_Node000005"><a xlink:title=" ">
<path fill="none" stroke="#63b8ff" d="M226.5,-134.52C226.5,-125.99 226.5,-117.5 226.5,-109.44"/>
<polygon fill="none" stroke="#63b8ff" points="223,-134.55 226.5,-144.55 230,-134.55 223,-134.55"/>
</a>
</g>
</g>
<!-- Node6 -->
<g id="Node000006" class="node">
<title>Node6</title>
<g id="a_Node000006"><a xlink:href="../../d1/dfd/classpocketmine_1_1block_1_1_wall_coral_fan.html" target="_top" xlink:title=" ">
<polygon fill="white" stroke="transparent" points="491,-101.5 328,-101.5 328,-7.5 491,-7.5 491,-101.5"/>
<text text-anchor="start" x="333.5" y="-89.5" font-family="Helvetica,sans-Serif" font-size="10.00">pocketmine\block\WallCoralFan</text>
<text text-anchor="start" x="408" y="-74.5" font-family="Helvetica,sans-Serif" font-size="10.00"> </text>
<text text-anchor="start" x="337" y="-59.5" font-family="Helvetica,sans-Serif" font-size="10.00">+</text>
<text text-anchor="start" x="354.5" y="-59.5" font-family="Helvetica,sans-Serif" font-size="10.00">asItem()</text>
<text text-anchor="start" x="337" y="-44.5" font-family="Helvetica,sans-Serif" font-size="10.00">+</text>
<text text-anchor="start" x="354.5" y="-44.5" font-family="Helvetica,sans-Serif" font-size="10.00">onNearbyBlockChange()</text>
<text text-anchor="start" x="337" y="-29.5" font-family="Helvetica,sans-Serif" font-size="10.00">+</text>
<text text-anchor="start" x="354.5" y="-29.5" font-family="Helvetica,sans-Serif" font-size="10.00">place()</text>
<text text-anchor="start" x="337" y="-14.5" font-family="Helvetica,sans-Serif" font-size="10.00">#</text>
<text text-anchor="start" x="354.5" y="-14.5" font-family="Helvetica,sans-Serif" font-size="10.00">describeBlockOnlyState()</text>
<polygon fill="#bfbfbf" stroke="#bfbfbf" points="328.5,-84.5 328.5,-84.5 491.5,-84.5 491.5,-84.5 328.5,-84.5"/>
<polygon fill="#bfbfbf" stroke="#bfbfbf" points="328.5,-69.5 328.5,-69.5 491.5,-69.5 491.5,-69.5 328.5,-69.5"/>
<polygon fill="none" stroke="#bfbfbf" points="328,-7.5 328,-101.5 491,-101.5 491,-7.5 328,-7.5"/>
</a>
</g>
</g>
<!-- Node1&#45;&gt;Node6 -->
<g id="edge5_Node000001_Node000006" class="edge">
<title>Node1&#45;&gt;Node6</title>
<g id="a_edge5_Node000001_Node000006"><a xlink:title=" ">
<path fill="none" stroke="#63b8ff" d="M316.23,-139.85C330.78,-126.7 345.39,-113.48 358.58,-101.55"/>
<polygon fill="none" stroke="#63b8ff" points="313.7,-137.42 308.63,-146.72 318.4,-142.61 313.7,-137.42"/>
</a>
</g>
</g>
<!-- Node2 -->
<g id="Node000002" class="node">
<title>Node2</title>
<g id="a_Node000002"><a xlink:href="../../d5/d1b/classpocketmine_1_1block_1_1_transparent.html" target="_top" xlink:title=" ">
<polygon fill="white" stroke="transparent" points="305,-384 148,-384 148,-335 305,-335 305,-384"/>
<text text-anchor="start" x="153.5" y="-371.5" font-family="Helvetica,sans-Serif" font-size="10.00">pocketmine\block\Transparent</text>
<text text-anchor="start" x="225" y="-356.5" font-family="Helvetica,sans-Serif" font-size="10.00"> </text>
<text text-anchor="start" x="168" y="-341.5" font-family="Helvetica,sans-Serif" font-size="10.00">+</text>
<text text-anchor="start" x="196.5" y="-341.5" font-family="Helvetica,sans-Serif" font-size="10.00">isTransparent()</text>
<polygon fill="#666666" stroke="#666666" points="148.5,-366.5 148.5,-366.5 305.5,-366.5 305.5,-366.5 148.5,-366.5"/>
<polygon fill="#666666" stroke="#666666" points="148.5,-351.5 148.5,-351.5 305.5,-351.5 305.5,-351.5 148.5,-351.5"/>
<polygon fill="none" stroke="#666666" points="148,-335 148,-384 305,-384 305,-335 148,-335"/>
</a>
</g>
</g>
<!-- Node2&#45;&gt;Node1 -->
<g id="edge1_Node000001_Node000002" class="edge">
<title>Node2&#45;&gt;Node1</title>
<g id="a_edge1_Node000001_Node000002"><a xlink:title=" ">
<path fill="none" stroke="#63b8ff" d="M226.5,-324.66C226.5,-316.74 226.5,-307.97 226.5,-299.01"/>
<polygon fill="none" stroke="#63b8ff" points="223,-324.9 226.5,-334.9 230,-324.9 223,-324.9"/>
</a>
</g>
</g>
<!-- Node3 -->
<g id="Node000003" class="node">
<title>Node3</title>
<g id="a_Node000003"><a xlink:href="../../d7/d27/classpocketmine_1_1block_1_1_block.html" target="_top" xlink:title=" ">
<polygon fill="white" stroke="transparent" points="311,-784 142,-784 142,-420 311,-420 311,-784"/>
<text text-anchor="start" x="168.5" y="-772" font-family="Helvetica,sans-Serif" font-size="10.00">pocketmine\block\Block</text>
<text text-anchor="start" x="146.5" y="-757" font-family="Helvetica,sans-Serif" font-size="10.00">+</text>
<text text-anchor="start" x="159.5" y="-757" font-family="Helvetica,sans-Serif" font-size="10.00">EMPTY_STATE_ID</text>
<text text-anchor="start" x="146.5" y="-742" font-family="Helvetica,sans-Serif" font-size="10.00">+</text>
<text text-anchor="start" x="159.5" y="-742" font-family="Helvetica,sans-Serif" font-size="10.00">INTERNAL_STATE_DATA_BITS</text>
<text text-anchor="start" x="146.5" y="-727" font-family="Helvetica,sans-Serif" font-size="10.00">+</text>
<text text-anchor="start" x="159.5" y="-727" font-family="Helvetica,sans-Serif" font-size="10.00">INTERNAL_STATE_DATA_MASK</text>
<text text-anchor="start" x="146.5" y="-712" font-family="Helvetica,sans-Serif" font-size="10.00">#</text>
<text text-anchor="start" x="159.5" y="-712" font-family="Helvetica,sans-Serif" font-size="10.00">$collisionBoxes</text>
<text text-anchor="start" x="146.5" y="-697" font-family="Helvetica,sans-Serif" font-size="10.00">#</text>
<text text-anchor="start" x="159.5" y="-697" font-family="Helvetica,sans-Serif" font-size="10.00">$fallbackName</text>
<text text-anchor="start" x="146.5" y="-682" font-family="Helvetica,sans-Serif" font-size="10.00">#</text>
<text text-anchor="start" x="159.5" y="-682" font-family="Helvetica,sans-Serif" font-size="10.00">$idInfo</text>
<text text-anchor="start" x="146.5" y="-667" font-family="Helvetica,sans-Serif" font-size="10.00">#</text>
<text text-anchor="start" x="159.5" y="-667" font-family="Helvetica,sans-Serif" font-size="10.00">$position</text>
<text text-anchor="start" x="146.5" y="-652" font-family="Helvetica,sans-Serif" font-size="10.00">#</text>
<text text-anchor="start" x="159.5" y="-652" font-family="Helvetica,sans-Serif" font-size="10.00">$typeInfo</text>
<text text-anchor="start" x="146.5" y="-637" font-family="Helvetica,sans-Serif" font-size="10.00">+</text>
<text text-anchor="start" x="159.5" y="-637" font-family="Helvetica,sans-Serif" font-size="10.00">__construct()</text>
<text text-anchor="start" x="146.5" y="-622" font-family="Helvetica,sans-Serif" font-size="10.00">+</text>
<text text-anchor="start" x="159.5" y="-622" font-family="Helvetica,sans-Serif" font-size="10.00">__clone()</text>
<text text-anchor="start" x="146.5" y="-607" font-family="Helvetica,sans-Serif" font-size="10.00">+</text>
<text text-anchor="start" x="159.5" y="-607" font-family="Helvetica,sans-Serif" font-size="10.00">__toString()</text>
<text text-anchor="start" x="146.5" y="-592" font-family="Helvetica,sans-Serif" font-size="10.00">+</text>
<text text-anchor="start" x="159.5" y="-592" font-family="Helvetica,sans-Serif" font-size="10.00">addVelocityToEntity()</text>
<text text-anchor="start" x="146.5" y="-577" font-family="Helvetica,sans-Serif" font-size="10.00">+</text>
<text text-anchor="start" x="159.5" y="-577" font-family="Helvetica,sans-Serif" font-size="10.00">asItem()</text>
<text text-anchor="start" x="146.5" y="-562" font-family="Helvetica,sans-Serif" font-size="10.00">+</text>
<text text-anchor="start" x="159.5" y="-562" font-family="Helvetica,sans-Serif" font-size="10.00">blocksDirectSkyLight()</text>
<text text-anchor="start" x="146.5" y="-547" font-family="Helvetica,sans-Serif" font-size="10.00">+</text>
<text text-anchor="start" x="159.5" y="-547" font-family="Helvetica,sans-Serif" font-size="10.00">burnsForever()</text>
<text text-anchor="start" x="146.5" y="-532" font-family="Helvetica,sans-Serif" font-size="10.00">+</text>
<text text-anchor="start" x="159.5" y="-532" font-family="Helvetica,sans-Serif" font-size="10.00">calculateIntercept()</text>
<text text-anchor="start" x="146.5" y="-517" font-family="Helvetica,sans-Serif" font-size="10.00">+</text>
<text text-anchor="start" x="159.5" y="-517" font-family="Helvetica,sans-Serif" font-size="10.00">canBeFlowedInto()</text>
<text text-anchor="start" x="146.5" y="-502" font-family="Helvetica,sans-Serif" font-size="10.00">+</text>
<text text-anchor="start" x="159.5" y="-502" font-family="Helvetica,sans-Serif" font-size="10.00">canBePlaced()</text>
<text text-anchor="start" x="159.5" y="-487" font-family="Helvetica,sans-Serif" font-size="10.00">and 60 more...</text>
<text text-anchor="start" x="146.5" y="-472" font-family="Helvetica,sans-Serif" font-size="10.00">#</text>
<text text-anchor="start" x="159.5" y="-472" font-family="Helvetica,sans-Serif" font-size="10.00">describeBlockOnlyState()</text>
<text text-anchor="start" x="146.5" y="-457" font-family="Helvetica,sans-Serif" font-size="10.00">#</text>
<text text-anchor="start" x="159.5" y="-457" font-family="Helvetica,sans-Serif" font-size="10.00">getAdjacentSupportType()</text>
<text text-anchor="start" x="146.5" y="-442" font-family="Helvetica,sans-Serif" font-size="10.00">#</text>
<text text-anchor="start" x="159.5" y="-442" font-family="Helvetica,sans-Serif" font-size="10.00">getXpDropAmount()</text>
<text text-anchor="start" x="146.5" y="-427" font-family="Helvetica,sans-Serif" font-size="10.00">#</text>
<text text-anchor="start" x="159.5" y="-427" font-family="Helvetica,sans-Serif" font-size="10.00">recalculateCollisionBoxes()</text>
<polygon fill="#bfbfbf" stroke="#bfbfbf" points="142.5,-767 142.5,-767 311.5,-767 311.5,-767 142.5,-767"/>
<polygon fill="#bfbfbf" stroke="#bfbfbf" points="142.5,-647 142.5,-647 157.5,-647 157.5,-647 142.5,-647"/>
<polygon fill="#bfbfbf" stroke="#bfbfbf" points="157.5,-647 157.5,-647 311.5,-647 311.5,-647 157.5,-647"/>
<polygon fill="none" stroke="#bfbfbf" points="142,-420 142,-784 311,-784 311,-420 142,-420"/>
</a>
</g>
</g>
<!-- Node3&#45;&gt;Node2 -->
<g id="edge2_Node000002_Node000003" class="edge">
<title>Node3&#45;&gt;Node2</title>
<g id="a_edge2_Node000002_Node000003"><a xlink:title=" ">
<path fill="none" stroke="#63b8ff" d="M226.5,-409.93C226.5,-400.2 226.5,-391.44 226.5,-384.09"/>
<polygon fill="none" stroke="#63b8ff" points="223,-409.95 226.5,-419.95 230,-409.95 223,-409.95"/>
</a>
</g>
</g>
</g>
</svg>
