<?xml version="1.0" encoding="UTF-8" standalone="no"?>
<!DOCTYPE svg PUBLIC "-//W3C//DTD SVG 1.1//EN"
 "http://www.w3.org/Graphics/SVG/1.1/DTD/svg11.dtd">
<!-- Generated by graphviz version 2.43.0 (0)
 -->
<!-- Title: pocketmine\block\inventory\HopperInventory Pages: 1 -->
<svg width="395pt" height="881pt"
 viewBox="0.00 0.00 394.50 881.00" xmlns="http://www.w3.org/2000/svg" xmlns:xlink="http://www.w3.org/1999/xlink">
<g id="graph0" class="graph" transform="scale(1 1) rotate(0) translate(4 877)">
<title>pocketmine\block\inventory\HopperInventory</title>
<!-- Node1 -->
<g id="Node000001" class="node">
<title>Node1</title>
<g id="a_Node000001"><a xlink:title=" ">
<polygon fill="#999999" stroke="transparent" points="305.5,-60 159.5,-60 159.5,0 305.5,0 305.5,-60"/>
<text text-anchor="start" x="164.5" y="-48" font-family="Helvetica,sans-Serif" font-size="10.00">pocketmine\block\inventory</text>
<text text-anchor="start" x="190" y="-37" font-family="Helvetica,sans-Serif" font-size="10.00">\HopperInventory</text>
<text text-anchor="start" x="230.5" y="-22" font-family="Helvetica,sans-Serif" font-size="10.00"> </text>
<text text-anchor="start" x="178.5" y="-7" font-family="Helvetica,sans-Serif" font-size="10.00">+</text>
<text text-anchor="start" x="206.5" y="-7" font-family="Helvetica,sans-Serif" font-size="10.00">__construct()</text>
<polygon fill="#666666" stroke="#666666" points="159.5,-32 159.5,-32 305.5,-32 305.5,-32 159.5,-32"/>
<polygon fill="#666666" stroke="#666666" points="159.5,-17 159.5,-17 305.5,-17 305.5,-17 159.5,-17"/>
<polygon fill="none" stroke="#666666" points="159.5,0 159.5,-60 305.5,-60 305.5,0 159.5,0"/>
</a>
</g>
</g>
<!-- Node2 -->
<g id="Node000002" class="node">
<title>Node2</title>
<g id="a_Node000002"><a xlink:href="../../d6/dc1/classpocketmine_1_1inventory_1_1_simple_inventory.html" target="_top" xlink:title=" ">
<polygon fill="white" stroke="transparent" points="222,-261 81,-261 81,-96 222,-96 222,-261"/>
<text text-anchor="start" x="98.5" y="-248.5" font-family="Helvetica,sans-Serif" font-size="10.00">pocketmine\inventory</text>
<text text-anchor="start" x="110" y="-237.5" font-family="Helvetica,sans-Serif" font-size="10.00">\SimpleInventory</text>
<text text-anchor="start" x="85.5" y="-222.5" font-family="Helvetica,sans-Serif" font-size="10.00">#</text>
<text text-anchor="start" x="98.5" y="-222.5" font-family="Helvetica,sans-Serif" font-size="10.00">$slots</text>
<text text-anchor="start" x="85.5" y="-207.5" font-family="Helvetica,sans-Serif" font-size="10.00">+</text>
<text text-anchor="start" x="98.5" y="-207.5" font-family="Helvetica,sans-Serif" font-size="10.00">__construct()</text>
<text text-anchor="start" x="85.5" y="-192.5" font-family="Helvetica,sans-Serif" font-size="10.00">+</text>
<text text-anchor="start" x="98.5" y="-192.5" font-family="Helvetica,sans-Serif" font-size="10.00">getContents()</text>
<text text-anchor="start" x="85.5" y="-177.5" font-family="Helvetica,sans-Serif" font-size="10.00">+</text>
<text text-anchor="start" x="98.5" y="-177.5" font-family="Helvetica,sans-Serif" font-size="10.00">getItem()</text>
<text text-anchor="start" x="85.5" y="-162.5" font-family="Helvetica,sans-Serif" font-size="10.00">+</text>
<text text-anchor="start" x="98.5" y="-162.5" font-family="Helvetica,sans-Serif" font-size="10.00">getSize()</text>
<text text-anchor="start" x="85.5" y="-147.5" font-family="Helvetica,sans-Serif" font-size="10.00">+</text>
<text text-anchor="start" x="98.5" y="-147.5" font-family="Helvetica,sans-Serif" font-size="10.00">isSlotEmpty()</text>
<text text-anchor="start" x="85.5" y="-132.5" font-family="Helvetica,sans-Serif" font-size="10.00">#</text>
<text text-anchor="start" x="98.5" y="-132.5" font-family="Helvetica,sans-Serif" font-size="10.00">getMatchingItemCount()</text>
<text text-anchor="start" x="85.5" y="-117.5" font-family="Helvetica,sans-Serif" font-size="10.00">#</text>
<text text-anchor="start" x="98.5" y="-117.5" font-family="Helvetica,sans-Serif" font-size="10.00">internalSetContents()</text>
<text text-anchor="start" x="85.5" y="-102.5" font-family="Helvetica,sans-Serif" font-size="10.00">#</text>
<text text-anchor="start" x="98.5" y="-102.5" font-family="Helvetica,sans-Serif" font-size="10.00">internalSetItem()</text>
<polygon fill="#666666" stroke="#666666" points="81.5,-232.5 81.5,-232.5 222.5,-232.5 222.5,-232.5 81.5,-232.5"/>
<polygon fill="#666666" stroke="#666666" points="81.5,-217.5 81.5,-217.5 96.5,-217.5 96.5,-217.5 81.5,-217.5"/>
<polygon fill="#666666" stroke="#666666" points="96.5,-217.5 96.5,-217.5 222.5,-217.5 222.5,-217.5 96.5,-217.5"/>
<polygon fill="none" stroke="#666666" points="81,-96 81,-261 222,-261 222,-96 81,-96"/>
</a>
</g>
</g>
<!-- Node2&#45;&gt;Node1 -->
<g id="edge1_Node000001_Node000002" class="edge">
<title>Node2&#45;&gt;Node1</title>
<g id="a_edge1_Node000001_Node000002"><a xlink:title=" ">
<path fill="none" stroke="#63b8ff" d="M201.64,-86.82C206.91,-77.28 211.96,-68.15 216.39,-60.15"/>
<polygon fill="none" stroke="#63b8ff" points="198.51,-85.24 196.74,-95.68 204.64,-88.63 198.51,-85.24"/>
</a>
</g>
</g>
<!-- Node3 -->
<g id="Node000003" class="node">
<title>Node3</title>
<g id="a_Node000003"><a xlink:href="../../d5/dc4/classpocketmine_1_1inventory_1_1_base_inventory.html" target="_top" xlink:title=" ">
<polygon fill="white" stroke="transparent" points="226,-627 77,-627 77,-297 226,-297 226,-627"/>
<text text-anchor="start" x="98.5" y="-615" font-family="Helvetica,sans-Serif" font-size="10.00">pocketmine\inventory</text>
<text text-anchor="start" x="115" y="-604" font-family="Helvetica,sans-Serif" font-size="10.00">\BaseInventory</text>
<text text-anchor="start" x="81.5" y="-589" font-family="Helvetica,sans-Serif" font-size="10.00">#</text>
<text text-anchor="start" x="94.5" y="-589" font-family="Helvetica,sans-Serif" font-size="10.00">$listeners</text>
<text text-anchor="start" x="81.5" y="-574" font-family="Helvetica,sans-Serif" font-size="10.00">#</text>
<text text-anchor="start" x="94.5" y="-574" font-family="Helvetica,sans-Serif" font-size="10.00">$maxStackSize</text>
<text text-anchor="start" x="81.5" y="-559" font-family="Helvetica,sans-Serif" font-size="10.00">#</text>
<text text-anchor="start" x="94.5" y="-559" font-family="Helvetica,sans-Serif" font-size="10.00">$validators</text>
<text text-anchor="start" x="81.5" y="-544" font-family="Helvetica,sans-Serif" font-size="10.00">#</text>
<text text-anchor="start" x="94.5" y="-544" font-family="Helvetica,sans-Serif" font-size="10.00">$viewers</text>
<text text-anchor="start" x="81.5" y="-529" font-family="Helvetica,sans-Serif" font-size="10.00">+</text>
<text text-anchor="start" x="94.5" y="-529" font-family="Helvetica,sans-Serif" font-size="10.00">__construct()</text>
<text text-anchor="start" x="81.5" y="-514" font-family="Helvetica,sans-Serif" font-size="10.00">+</text>
<text text-anchor="start" x="94.5" y="-514" font-family="Helvetica,sans-Serif" font-size="10.00">addItem()</text>
<text text-anchor="start" x="81.5" y="-499" font-family="Helvetica,sans-Serif" font-size="10.00">+</text>
<text text-anchor="start" x="94.5" y="-499" font-family="Helvetica,sans-Serif" font-size="10.00">all()</text>
<text text-anchor="start" x="81.5" y="-484" font-family="Helvetica,sans-Serif" font-size="10.00">+</text>
<text text-anchor="start" x="94.5" y="-484" font-family="Helvetica,sans-Serif" font-size="10.00">canAddItem()</text>
<text text-anchor="start" x="81.5" y="-469" font-family="Helvetica,sans-Serif" font-size="10.00">+</text>
<text text-anchor="start" x="94.5" y="-469" font-family="Helvetica,sans-Serif" font-size="10.00">clear()</text>
<text text-anchor="start" x="81.5" y="-454" font-family="Helvetica,sans-Serif" font-size="10.00">+</text>
<text text-anchor="start" x="94.5" y="-454" font-family="Helvetica,sans-Serif" font-size="10.00">clearAll()</text>
<text text-anchor="start" x="81.5" y="-439" font-family="Helvetica,sans-Serif" font-size="10.00">+</text>
<text text-anchor="start" x="94.5" y="-439" font-family="Helvetica,sans-Serif" font-size="10.00">contains()</text>
<text text-anchor="start" x="81.5" y="-424" font-family="Helvetica,sans-Serif" font-size="10.00">+</text>
<text text-anchor="start" x="94.5" y="-424" font-family="Helvetica,sans-Serif" font-size="10.00">first()</text>
<text text-anchor="start" x="81.5" y="-409" font-family="Helvetica,sans-Serif" font-size="10.00">+</text>
<text text-anchor="start" x="94.5" y="-409" font-family="Helvetica,sans-Serif" font-size="10.00">firstEmpty()</text>
<text text-anchor="start" x="81.5" y="-394" font-family="Helvetica,sans-Serif" font-size="10.00">+</text>
<text text-anchor="start" x="94.5" y="-394" font-family="Helvetica,sans-Serif" font-size="10.00">getAddableItemQuantity()</text>
<text text-anchor="start" x="94.5" y="-379" font-family="Helvetica,sans-Serif" font-size="10.00">and 15 more...</text>
<text text-anchor="start" x="81.5" y="-364" font-family="Helvetica,sans-Serif" font-size="10.00">#</text>
<text text-anchor="start" x="94.5" y="-364" font-family="Helvetica,sans-Serif" font-size="10.00">getMatchingItemCount()</text>
<text text-anchor="start" x="81.5" y="-349" font-family="Helvetica,sans-Serif" font-size="10.00">#</text>
<text text-anchor="start" x="94.5" y="-349" font-family="Helvetica,sans-Serif" font-size="10.00">internalSetContents()</text>
<text text-anchor="start" x="81.5" y="-334" font-family="Helvetica,sans-Serif" font-size="10.00">#</text>
<text text-anchor="start" x="94.5" y="-334" font-family="Helvetica,sans-Serif" font-size="10.00">internalSetItem()</text>
<text text-anchor="start" x="81.5" y="-319" font-family="Helvetica,sans-Serif" font-size="10.00">#</text>
<text text-anchor="start" x="94.5" y="-319" font-family="Helvetica,sans-Serif" font-size="10.00">onContentChange()</text>
<text text-anchor="start" x="81.5" y="-304" font-family="Helvetica,sans-Serif" font-size="10.00">#</text>
<text text-anchor="start" x="94.5" y="-304" font-family="Helvetica,sans-Serif" font-size="10.00">onSlotChange()</text>
<polygon fill="#666666" stroke="#666666" points="77.5,-599 77.5,-599 226.5,-599 226.5,-599 77.5,-599"/>
<polygon fill="#666666" stroke="#666666" points="77.5,-539 77.5,-539 92.5,-539 92.5,-539 77.5,-539"/>
<polygon fill="#666666" stroke="#666666" points="92.5,-539 92.5,-539 226.5,-539 226.5,-539 92.5,-539"/>
<polygon fill="none" stroke="#666666" points="77,-297 77,-627 226,-627 226,-297 77,-297"/>
</a>
</g>
</g>
<!-- Node3&#45;&gt;Node2 -->
<g id="edge2_Node000002_Node000003" class="edge">
<title>Node3&#45;&gt;Node2</title>
<g id="a_edge2_Node000002_Node000003"><a xlink:title=" ">
<path fill="none" stroke="#63b8ff" d="M151.5,-286.81C151.5,-277.99 151.5,-269.36 151.5,-261.06"/>
<polygon fill="none" stroke="#63b8ff" points="148,-286.84 151.5,-296.84 155,-286.84 148,-286.84"/>
</a>
</g>
</g>
<!-- Node4 -->
<g id="Node000004" class="node">
<title>Node4</title>
<g id="a_Node000004"><a xlink:href="../../db/d39/interfacepocketmine_1_1inventory_1_1_inventory.html" target="_top" xlink:title=" ">
<polygon fill="white" stroke="transparent" points="149,-873 0,-873 0,-663 149,-663 149,-873"/>
<text text-anchor="start" x="21.5" y="-861" font-family="Helvetica,sans-Serif" font-size="10.00">pocketmine\inventory</text>
<text text-anchor="start" x="50" y="-850" font-family="Helvetica,sans-Serif" font-size="10.00">\Inventory</text>
<text text-anchor="start" x="4.5" y="-835" font-family="Helvetica,sans-Serif" font-size="10.00">+</text>
<text text-anchor="start" x="17.5" y="-835" font-family="Helvetica,sans-Serif" font-size="10.00">MAX_STACK</text>
<text text-anchor="start" x="4.5" y="-820" font-family="Helvetica,sans-Serif" font-size="10.00">+</text>
<text text-anchor="start" x="17.5" y="-820" font-family="Helvetica,sans-Serif" font-size="10.00">addItem()</text>
<text text-anchor="start" x="4.5" y="-805" font-family="Helvetica,sans-Serif" font-size="10.00">+</text>
<text text-anchor="start" x="17.5" y="-805" font-family="Helvetica,sans-Serif" font-size="10.00">all()</text>
<text text-anchor="start" x="4.5" y="-790" font-family="Helvetica,sans-Serif" font-size="10.00">+</text>
<text text-anchor="start" x="17.5" y="-790" font-family="Helvetica,sans-Serif" font-size="10.00">canAddItem()</text>
<text text-anchor="start" x="4.5" y="-775" font-family="Helvetica,sans-Serif" font-size="10.00">+</text>
<text text-anchor="start" x="17.5" y="-775" font-family="Helvetica,sans-Serif" font-size="10.00">clear()</text>
<text text-anchor="start" x="4.5" y="-760" font-family="Helvetica,sans-Serif" font-size="10.00">+</text>
<text text-anchor="start" x="17.5" y="-760" font-family="Helvetica,sans-Serif" font-size="10.00">clearAll()</text>
<text text-anchor="start" x="4.5" y="-745" font-family="Helvetica,sans-Serif" font-size="10.00">+</text>
<text text-anchor="start" x="17.5" y="-745" font-family="Helvetica,sans-Serif" font-size="10.00">contains()</text>
<text text-anchor="start" x="4.5" y="-730" font-family="Helvetica,sans-Serif" font-size="10.00">+</text>
<text text-anchor="start" x="17.5" y="-730" font-family="Helvetica,sans-Serif" font-size="10.00">first()</text>
<text text-anchor="start" x="4.5" y="-715" font-family="Helvetica,sans-Serif" font-size="10.00">+</text>
<text text-anchor="start" x="17.5" y="-715" font-family="Helvetica,sans-Serif" font-size="10.00">firstEmpty()</text>
<text text-anchor="start" x="4.5" y="-700" font-family="Helvetica,sans-Serif" font-size="10.00">+</text>
<text text-anchor="start" x="17.5" y="-700" font-family="Helvetica,sans-Serif" font-size="10.00">getAddableItemQuantity()</text>
<text text-anchor="start" x="4.5" y="-685" font-family="Helvetica,sans-Serif" font-size="10.00">+</text>
<text text-anchor="start" x="17.5" y="-685" font-family="Helvetica,sans-Serif" font-size="10.00">getContents()</text>
<text text-anchor="start" x="17.5" y="-670" font-family="Helvetica,sans-Serif" font-size="10.00">and 15 more...</text>
<polygon fill="#bfbfbf" stroke="#bfbfbf" points="0.5,-845 0.5,-845 149.5,-845 149.5,-845 0.5,-845"/>
<polygon fill="#bfbfbf" stroke="#bfbfbf" points="0.5,-830 0.5,-830 15.5,-830 15.5,-830 0.5,-830"/>
<polygon fill="#bfbfbf" stroke="#bfbfbf" points="15.5,-830 15.5,-830 149.5,-830 149.5,-830 15.5,-830"/>
<polygon fill="none" stroke="#bfbfbf" points="0,-663 0,-873 149,-873 149,-663 0,-663"/>
</a>
</g>
</g>
<!-- Node4&#45;&gt;Node3 -->
<g id="edge3_Node000003_Node000004" class="edge">
<title>Node4&#45;&gt;Node3</title>
<g id="a_edge3_Node000003_Node000004"><a xlink:title=" ">
<path fill="none" stroke="#63b8ff" d="M103.39,-652.93C105.54,-644.44 107.74,-635.78 109.94,-627.07"/>
<polygon fill="none" stroke="#63b8ff" points="99.95,-652.25 100.89,-662.81 106.74,-653.97 99.95,-652.25"/>
</a>
</g>
</g>
<!-- Node5 -->
<g id="Node000005" class="node">
<title>Node5</title>
<g id="a_Node000005"><a xlink:href="../../dd/d33/interfacepocketmine_1_1inventory_1_1_slot_validated_inventory.html" target="_top" xlink:title=" ">
<polygon fill="white" stroke="transparent" points="292,-798 167,-798 167,-738 292,-738 292,-798"/>
<text text-anchor="start" x="172.5" y="-786" font-family="Helvetica,sans-Serif" font-size="10.00">pocketmine\inventory</text>
<text text-anchor="start" x="172.5" y="-775" font-family="Helvetica,sans-Serif" font-size="10.00">\SlotValidatedInventory</text>
<text text-anchor="start" x="228" y="-760" font-family="Helvetica,sans-Serif" font-size="10.00"> </text>
<text text-anchor="start" x="174.5" y="-745" font-family="Helvetica,sans-Serif" font-size="10.00">+</text>
<text text-anchor="start" x="190.5" y="-745" font-family="Helvetica,sans-Serif" font-size="10.00">getSlotValidators()</text>
<polygon fill="#666666" stroke="#666666" points="167.5,-770 167.5,-770 292.5,-770 292.5,-770 167.5,-770"/>
<polygon fill="#666666" stroke="#666666" points="167.5,-755 167.5,-755 292.5,-755 292.5,-755 167.5,-755"/>
<polygon fill="none" stroke="#666666" points="167,-738 167,-798 292,-798 292,-738 167,-738"/>
</a>
</g>
</g>
<!-- Node5&#45;&gt;Node3 -->
<g id="edge4_Node000003_Node000005" class="edge">
<title>Node5&#45;&gt;Node3</title>
<g id="a_edge4_Node000003_Node000005"><a xlink:title=" ">
<path fill="none" stroke="#63b8ff" d="M219.48,-727.93C212.72,-701.59 203.3,-664.88 193.62,-627.16"/>
<polygon fill="none" stroke="#63b8ff" points="216.15,-729.03 222.02,-737.85 222.93,-727.3 216.15,-729.03"/>
</a>
</g>
</g>
<!-- Node6 -->
<g id="Node000006" class="node">
<title>Node6</title>
<g id="a_Node000006"><a xlink:href="../../d4/d3a/interfacepocketmine_1_1block_1_1inventory_1_1_block_inventory.html" target="_top" xlink:title=" ">
<polygon fill="white" stroke="transparent" points="386.5,-208.5 240.5,-208.5 240.5,-148.5 386.5,-148.5 386.5,-208.5"/>
<text text-anchor="start" x="245.5" y="-196.5" font-family="Helvetica,sans-Serif" font-size="10.00">pocketmine\block\inventory</text>
<text text-anchor="start" x="275" y="-185.5" font-family="Helvetica,sans-Serif" font-size="10.00">\BlockInventory</text>
<text text-anchor="start" x="311.5" y="-170.5" font-family="Helvetica,sans-Serif" font-size="10.00"> </text>
<text text-anchor="start" x="261.5" y="-155.5" font-family="Helvetica,sans-Serif" font-size="10.00">+</text>
<text text-anchor="start" x="291.5" y="-155.5" font-family="Helvetica,sans-Serif" font-size="10.00">getHolder()</text>
<polygon fill="#bfbfbf" stroke="#bfbfbf" points="240.5,-180.5 240.5,-180.5 386.5,-180.5 386.5,-180.5 240.5,-180.5"/>
<polygon fill="#bfbfbf" stroke="#bfbfbf" points="240.5,-165.5 240.5,-165.5 386.5,-165.5 386.5,-165.5 240.5,-165.5"/>
<polygon fill="none" stroke="#bfbfbf" points="240.5,-148.5 240.5,-208.5 386.5,-208.5 386.5,-148.5 240.5,-148.5"/>
</a>
</g>
</g>
<!-- Node6&#45;&gt;Node1 -->
<g id="edge5_Node000001_Node000006" class="edge">
<title>Node6&#45;&gt;Node1</title>
<g id="a_edge5_Node000001_Node000006"><a xlink:title=" ">
<path fill="none" stroke="#63b8ff" d="M292.46,-139.44C278.79,-114.72 261.24,-82.99 248.67,-60.24"/>
<polygon fill="none" stroke="#63b8ff" points="289.4,-141.15 297.3,-148.21 295.53,-137.76 289.4,-141.15"/>
</a>
</g>
</g>
</g>
</svg>
