<?xml version="1.0" encoding="UTF-8" standalone="no"?>
<!DOCTYPE svg PUBLIC "-//W3C//DTD SVG 1.1//EN"
 "http://www.w3.org/Graphics/SVG/1.1/DTD/svg11.dtd">
<!-- Generated by graphviz version 2.43.0 (0)
 -->
<!-- Title: pocketmine\item\Pufferfish Pages: 1 -->
<svg width="516pt" height="952pt"
 viewBox="0.00 0.00 515.50 952.00" xmlns="http://www.w3.org/2000/svg" xmlns:xlink="http://www.w3.org/1999/xlink">
<g id="graph0" class="graph" transform="scale(1 1) rotate(0) translate(4 948)">
<title>pocketmine\item\Pufferfish</title>
<!-- Node1 -->
<g id="Node000001" class="node">
<title>Node1</title>
<g id="a_Node000001"><a xlink:title=" ">
<polygon fill="#999999" stroke="transparent" points="236.5,-79 94.5,-79 94.5,0 236.5,0 236.5,-79"/>
<text text-anchor="start" x="99.5" y="-66.5" font-family="Helvetica,sans-Serif" font-size="10.00">pocketmine\item\Pufferfish</text>
<text text-anchor="start" x="163.5" y="-51.5" font-family="Helvetica,sans-Serif" font-size="10.00"> </text>
<text text-anchor="start" x="100.5" y="-36.5" font-family="Helvetica,sans-Serif" font-size="10.00">+</text>
<text text-anchor="start" x="115.5" y="-36.5" font-family="Helvetica,sans-Serif" font-size="10.00">getAdditionalEffects()</text>
<text text-anchor="start" x="100.5" y="-21.5" font-family="Helvetica,sans-Serif" font-size="10.00">+</text>
<text text-anchor="start" x="115.5" y="-21.5" font-family="Helvetica,sans-Serif" font-size="10.00">getFoodRestore()</text>
<text text-anchor="start" x="100.5" y="-6.5" font-family="Helvetica,sans-Serif" font-size="10.00">+</text>
<text text-anchor="start" x="115.5" y="-6.5" font-family="Helvetica,sans-Serif" font-size="10.00">getSaturationRestore()</text>
<polygon fill="#666666" stroke="#666666" points="94.5,-61.5 94.5,-61.5 236.5,-61.5 236.5,-61.5 94.5,-61.5"/>
<polygon fill="#666666" stroke="#666666" points="94.5,-46.5 94.5,-46.5 236.5,-46.5 236.5,-46.5 94.5,-46.5"/>
<polygon fill="none" stroke="#666666" points="94.5,0 94.5,-79 236.5,-79 236.5,0 94.5,0"/>
</a>
</g>
</g>
<!-- Node2 -->
<g id="Node000002" class="node">
<title>Node2</title>
<g id="a_Node000002"><a xlink:href="../../dc/de1/classpocketmine_1_1item_1_1_food.html" target="_top" xlink:title=" ">
<polygon fill="white" stroke="transparent" points="229,-224 102,-224 102,-115 229,-115 229,-224"/>
<text text-anchor="start" x="111.5" y="-211.5" font-family="Helvetica,sans-Serif" font-size="10.00">pocketmine\item\Food</text>
<text text-anchor="start" x="164" y="-196.5" font-family="Helvetica,sans-Serif" font-size="10.00"> </text>
<text text-anchor="start" x="106.5" y="-181.5" font-family="Helvetica,sans-Serif" font-size="10.00">+</text>
<text text-anchor="start" x="119.5" y="-181.5" font-family="Helvetica,sans-Serif" font-size="10.00">canStartUsingItem()</text>
<text text-anchor="start" x="106.5" y="-166.5" font-family="Helvetica,sans-Serif" font-size="10.00">+</text>
<text text-anchor="start" x="119.5" y="-166.5" font-family="Helvetica,sans-Serif" font-size="10.00">getAdditionalEffects()</text>
<text text-anchor="start" x="106.5" y="-151.5" font-family="Helvetica,sans-Serif" font-size="10.00">+</text>
<text text-anchor="start" x="119.5" y="-151.5" font-family="Helvetica,sans-Serif" font-size="10.00">getResidue()</text>
<text text-anchor="start" x="106.5" y="-136.5" font-family="Helvetica,sans-Serif" font-size="10.00">+</text>
<text text-anchor="start" x="119.5" y="-136.5" font-family="Helvetica,sans-Serif" font-size="10.00">onConsume()</text>
<text text-anchor="start" x="106.5" y="-121.5" font-family="Helvetica,sans-Serif" font-size="10.00">+</text>
<text text-anchor="start" x="119.5" y="-121.5" font-family="Helvetica,sans-Serif" font-size="10.00">requiresHunger()</text>
<polygon fill="#bfbfbf" stroke="#bfbfbf" points="102.5,-206.5 102.5,-206.5 229.5,-206.5 229.5,-206.5 102.5,-206.5"/>
<polygon fill="#bfbfbf" stroke="#bfbfbf" points="102.5,-191.5 102.5,-191.5 229.5,-191.5 229.5,-191.5 102.5,-191.5"/>
<polygon fill="none" stroke="#bfbfbf" points="102,-115 102,-224 229,-224 229,-115 102,-115"/>
</a>
</g>
</g>
<!-- Node2&#45;&gt;Node1 -->
<g id="edge1_Node000001_Node000002" class="edge">
<title>Node2&#45;&gt;Node1</title>
<g id="a_edge1_Node000001_Node000002"><a xlink:title=" ">
<path fill="none" stroke="#63b8ff" d="M165.5,-104.7C165.5,-95.93 165.5,-87.16 165.5,-79.03"/>
<polygon fill="none" stroke="#63b8ff" points="162,-104.96 165.5,-114.96 169,-104.96 162,-104.96"/>
</a>
</g>
</g>
<!-- Node3 -->
<g id="Node000003" class="node">
<title>Node3</title>
<g id="a_Node000003"><a xlink:href="../../d5/d8a/classpocketmine_1_1item_1_1_item.html" target="_top" xlink:title=" ">
<polygon fill="white" stroke="transparent" points="151,-729 0,-729 0,-260 151,-260 151,-729"/>
<text text-anchor="start" x="21.5" y="-716.5" font-family="Helvetica,sans-Serif" font-size="10.00">pocketmine\item\Item</text>
<text text-anchor="start" x="4.5" y="-701.5" font-family="Helvetica,sans-Serif" font-size="10.00">+</text>
<text text-anchor="start" x="17.5" y="-701.5" font-family="Helvetica,sans-Serif" font-size="10.00">TAG_BLOCK_ENTITY_TAG</text>
<text text-anchor="start" x="4.5" y="-686.5" font-family="Helvetica,sans-Serif" font-size="10.00">+</text>
<text text-anchor="start" x="17.5" y="-686.5" font-family="Helvetica,sans-Serif" font-size="10.00">TAG_DISPLAY</text>
<text text-anchor="start" x="4.5" y="-671.5" font-family="Helvetica,sans-Serif" font-size="10.00">+</text>
<text text-anchor="start" x="17.5" y="-671.5" font-family="Helvetica,sans-Serif" font-size="10.00">TAG_DISPLAY_LORE</text>
<text text-anchor="start" x="4.5" y="-656.5" font-family="Helvetica,sans-Serif" font-size="10.00">+</text>
<text text-anchor="start" x="17.5" y="-656.5" font-family="Helvetica,sans-Serif" font-size="10.00">TAG_DISPLAY_NAME</text>
<text text-anchor="start" x="4.5" y="-641.5" font-family="Helvetica,sans-Serif" font-size="10.00">+</text>
<text text-anchor="start" x="17.5" y="-641.5" font-family="Helvetica,sans-Serif" font-size="10.00">TAG_ENCH</text>
<text text-anchor="start" x="4.5" y="-626.5" font-family="Helvetica,sans-Serif" font-size="10.00">+</text>
<text text-anchor="start" x="17.5" y="-626.5" font-family="Helvetica,sans-Serif" font-size="10.00">TAG_KEEP_ON_DEATH</text>
<text text-anchor="start" x="4.5" y="-611.5" font-family="Helvetica,sans-Serif" font-size="10.00">#</text>
<text text-anchor="start" x="17.5" y="-611.5" font-family="Helvetica,sans-Serif" font-size="10.00">$blockEntityTag</text>
<text text-anchor="start" x="4.5" y="-596.5" font-family="Helvetica,sans-Serif" font-size="10.00">#</text>
<text text-anchor="start" x="17.5" y="-596.5" font-family="Helvetica,sans-Serif" font-size="10.00">$canDestroy</text>
<text text-anchor="start" x="4.5" y="-581.5" font-family="Helvetica,sans-Serif" font-size="10.00">#</text>
<text text-anchor="start" x="17.5" y="-581.5" font-family="Helvetica,sans-Serif" font-size="10.00">$canPlaceOn</text>
<text text-anchor="start" x="4.5" y="-566.5" font-family="Helvetica,sans-Serif" font-size="10.00">#</text>
<text text-anchor="start" x="17.5" y="-566.5" font-family="Helvetica,sans-Serif" font-size="10.00">$count</text>
<text text-anchor="start" x="4.5" y="-551.5" font-family="Helvetica,sans-Serif" font-size="10.00">#</text>
<text text-anchor="start" x="17.5" y="-551.5" font-family="Helvetica,sans-Serif" font-size="10.00">$customName</text>
<text text-anchor="start" x="4.5" y="-536.5" font-family="Helvetica,sans-Serif" font-size="10.00">#</text>
<text text-anchor="start" x="17.5" y="-536.5" font-family="Helvetica,sans-Serif" font-size="10.00">$keepOnDeath</text>
<text text-anchor="start" x="4.5" y="-521.5" font-family="Helvetica,sans-Serif" font-size="10.00">#</text>
<text text-anchor="start" x="17.5" y="-521.5" font-family="Helvetica,sans-Serif" font-size="10.00">$lore</text>
<text text-anchor="start" x="4.5" y="-506.5" font-family="Helvetica,sans-Serif" font-size="10.00">+</text>
<text text-anchor="start" x="17.5" y="-506.5" font-family="Helvetica,sans-Serif" font-size="10.00">__construct()</text>
<text text-anchor="start" x="4.5" y="-491.5" font-family="Helvetica,sans-Serif" font-size="10.00">+</text>
<text text-anchor="start" x="17.5" y="-491.5" font-family="Helvetica,sans-Serif" font-size="10.00">__clone()</text>
<text text-anchor="start" x="4.5" y="-476.5" font-family="Helvetica,sans-Serif" font-size="10.00">+</text>
<text text-anchor="start" x="17.5" y="-476.5" font-family="Helvetica,sans-Serif" font-size="10.00">__toString()</text>
<text text-anchor="start" x="4.5" y="-461.5" font-family="Helvetica,sans-Serif" font-size="10.00">+</text>
<text text-anchor="start" x="17.5" y="-461.5" font-family="Helvetica,sans-Serif" font-size="10.00">canBePlaced()</text>
<text text-anchor="start" x="4.5" y="-446.5" font-family="Helvetica,sans-Serif" font-size="10.00">+</text>
<text text-anchor="start" x="17.5" y="-446.5" font-family="Helvetica,sans-Serif" font-size="10.00">canStackWith()</text>
<text text-anchor="start" x="4.5" y="-431.5" font-family="Helvetica,sans-Serif" font-size="10.00">+</text>
<text text-anchor="start" x="17.5" y="-431.5" font-family="Helvetica,sans-Serif" font-size="10.00">clearCustomBlockData()</text>
<text text-anchor="start" x="4.5" y="-416.5" font-family="Helvetica,sans-Serif" font-size="10.00">+</text>
<text text-anchor="start" x="17.5" y="-416.5" font-family="Helvetica,sans-Serif" font-size="10.00">clearCustomName()</text>
<text text-anchor="start" x="4.5" y="-401.5" font-family="Helvetica,sans-Serif" font-size="10.00">+</text>
<text text-anchor="start" x="17.5" y="-401.5" font-family="Helvetica,sans-Serif" font-size="10.00">clearNamedTag()</text>
<text text-anchor="start" x="4.5" y="-386.5" font-family="Helvetica,sans-Serif" font-size="10.00">+</text>
<text text-anchor="start" x="17.5" y="-386.5" font-family="Helvetica,sans-Serif" font-size="10.00">equals()</text>
<text text-anchor="start" x="4.5" y="-371.5" font-family="Helvetica,sans-Serif" font-size="10.00">+</text>
<text text-anchor="start" x="17.5" y="-371.5" font-family="Helvetica,sans-Serif" font-size="10.00">equalsExact()</text>
<text text-anchor="start" x="17.5" y="-356.5" font-family="Helvetica,sans-Serif" font-size="10.00">and 49 more...</text>
<text text-anchor="start" x="4.5" y="-341.5" font-family="Helvetica,sans-Serif" font-size="10.00">+</text>
<text text-anchor="start" x="17.5" y="-341.5" font-family="Helvetica,sans-Serif" font-size="10.00">legacyJsonDeserialize()</text>
<text text-anchor="start" x="4.5" y="-326.5" font-family="Helvetica,sans-Serif" font-size="10.00">+</text>
<text text-anchor="start" x="17.5" y="-326.5" font-family="Helvetica,sans-Serif" font-size="10.00">nbtDeserialize()</text>
<text text-anchor="start" x="4.5" y="-311.5" font-family="Helvetica,sans-Serif" font-size="10.00">#</text>
<text text-anchor="start" x="17.5" y="-311.5" font-family="Helvetica,sans-Serif" font-size="10.00">describeState()</text>
<text text-anchor="start" x="4.5" y="-296.5" font-family="Helvetica,sans-Serif" font-size="10.00">#</text>
<text text-anchor="start" x="17.5" y="-296.5" font-family="Helvetica,sans-Serif" font-size="10.00">deserializeCompoundTag()</text>
<text text-anchor="start" x="4.5" y="-281.5" font-family="Helvetica,sans-Serif" font-size="10.00">#</text>
<text text-anchor="start" x="17.5" y="-281.5" font-family="Helvetica,sans-Serif" font-size="10.00">serializeCompoundTag()</text>
<text text-anchor="start" x="4.5" y="-266.5" font-family="Helvetica,sans-Serif" font-size="10.00">#</text>
<text text-anchor="start" x="17.5" y="-266.5" font-family="Helvetica,sans-Serif" font-size="10.00">tryPlacementTransaction()</text>
<polygon fill="#bfbfbf" stroke="#bfbfbf" points="0.5,-711.5 0.5,-711.5 151.5,-711.5 151.5,-711.5 0.5,-711.5"/>
<polygon fill="#bfbfbf" stroke="#bfbfbf" points="0.5,-516.5 0.5,-516.5 15.5,-516.5 15.5,-516.5 0.5,-516.5"/>
<polygon fill="#bfbfbf" stroke="#bfbfbf" points="15.5,-516.5 15.5,-516.5 151.5,-516.5 151.5,-516.5 15.5,-516.5"/>
<polygon fill="none" stroke="#bfbfbf" points="0,-260 0,-729 151,-729 151,-260 0,-260"/>
</a>
</g>
</g>
<!-- Node3&#45;&gt;Node2 -->
<g id="edge2_Node000002_Node000003" class="edge">
<title>Node3&#45;&gt;Node2</title>
<g id="a_edge2_Node000002_Node000003"><a xlink:title=" ">
<path fill="none" stroke="#63b8ff" d="M143.37,-249.93C145.91,-240.8 148.33,-232.14 150.56,-224.13"/>
<polygon fill="none" stroke="#63b8ff" points="139.98,-249.04 140.67,-259.62 146.72,-250.92 139.98,-249.04"/>
</a>
</g>
</g>
<!-- Node4 -->
<g id="Node000004" class="node">
<title>Node4</title>
<g id="a_Node000004"><a xlink:title=" ">
<polygon fill="white" stroke="transparent" points="119.5,-829 31.5,-829 31.5,-780 119.5,-780 119.5,-829"/>
<text text-anchor="start" x="36.5" y="-816.5" font-family="Helvetica,sans-Serif" font-size="10.00">JsonSerializable</text>
<text text-anchor="start" x="73.5" y="-801.5" font-family="Helvetica,sans-Serif" font-size="10.00"> </text>
<text text-anchor="start" x="73.5" y="-786.5" font-family="Helvetica,sans-Serif" font-size="10.00"> </text>
<polygon fill="#bfbfbf" stroke="#bfbfbf" points="31.5,-811.5 31.5,-811.5 119.5,-811.5 119.5,-811.5 31.5,-811.5"/>
<polygon fill="#bfbfbf" stroke="#bfbfbf" points="31.5,-796.5 31.5,-796.5 119.5,-796.5 119.5,-796.5 31.5,-796.5"/>
<polygon fill="none" stroke="#bfbfbf" points="31.5,-780 31.5,-829 119.5,-829 119.5,-780 31.5,-780"/>
</a>
</g>
</g>
<!-- Node4&#45;&gt;Node3 -->
<g id="edge3_Node000003_Node000004" class="edge">
<title>Node4&#45;&gt;Node3</title>
<g id="a_edge3_Node000003_Node000004"><a xlink:title=" ">
<path fill="none" stroke="#63b8ff" d="M75.5,-769.6C75.5,-758.14 75.5,-744.34 75.5,-729.11"/>
<polygon fill="none" stroke="#63b8ff" points="72,-769.84 75.5,-779.84 79,-769.84 72,-769.84"/>
</a>
</g>
</g>
<!-- Node5 -->
<g id="Node000005" class="node">
<title>Node5</title>
<g id="a_Node000005"><a xlink:href="../../de/d44/interfacepocketmine_1_1item_1_1_food_source_item.html" target="_top" xlink:title=" ">
<polygon fill="white" stroke="transparent" points="344,-519 169,-519 169,-470 344,-470 344,-519"/>
<text text-anchor="start" x="174.5" y="-506.5" font-family="Helvetica,sans-Serif" font-size="10.00">pocketmine\item\FoodSourceItem</text>
<text text-anchor="start" x="255" y="-491.5" font-family="Helvetica,sans-Serif" font-size="10.00"> </text>
<text text-anchor="start" x="255" y="-476.5" font-family="Helvetica,sans-Serif" font-size="10.00"> </text>
<polygon fill="#bfbfbf" stroke="#bfbfbf" points="169.5,-501.5 169.5,-501.5 344.5,-501.5 344.5,-501.5 169.5,-501.5"/>
<polygon fill="#bfbfbf" stroke="#bfbfbf" points="169.5,-486.5 169.5,-486.5 344.5,-486.5 344.5,-486.5 169.5,-486.5"/>
<polygon fill="none" stroke="#bfbfbf" points="169,-470 169,-519 344,-519 344,-470 169,-470"/>
</a>
</g>
</g>
<!-- Node5&#45;&gt;Node2 -->
<g id="edge4_Node000002_Node000005" class="edge">
<title>Node5&#45;&gt;Node2</title>
<g id="a_edge4_Node000002_Node000005"><a xlink:title=" ">
<path fill="none" stroke="#63b8ff" d="M247.06,-460C231.32,-404.11 199.56,-291.38 180.65,-224.27"/>
<polygon fill="none" stroke="#63b8ff" points="243.73,-461.07 249.81,-469.75 250.47,-459.17 243.73,-461.07"/>
</a>
</g>
</g>
<!-- Node6 -->
<g id="Node000006" class="node">
<title>Node6</title>
<g id="a_Node000006"><a xlink:href="../../d2/de2/interfacepocketmine_1_1item_1_1_consumable_item.html" target="_top" xlink:title=" ">
<polygon fill="white" stroke="transparent" points="331,-829 152,-829 152,-780 331,-780 331,-829"/>
<text text-anchor="start" x="157.5" y="-816.5" font-family="Helvetica,sans-Serif" font-size="10.00">pocketmine\item\ConsumableItem</text>
<text text-anchor="start" x="240" y="-801.5" font-family="Helvetica,sans-Serif" font-size="10.00"> </text>
<text text-anchor="start" x="180" y="-786.5" font-family="Helvetica,sans-Serif" font-size="10.00">+</text>
<text text-anchor="start" x="216.5" y="-786.5" font-family="Helvetica,sans-Serif" font-size="10.00">getResidue()</text>
<polygon fill="#666666" stroke="#666666" points="152.5,-811.5 152.5,-811.5 331.5,-811.5 331.5,-811.5 152.5,-811.5"/>
<polygon fill="#666666" stroke="#666666" points="152.5,-796.5 152.5,-796.5 331.5,-796.5 331.5,-796.5 152.5,-796.5"/>
<polygon fill="none" stroke="#666666" points="152,-780 152,-829 331,-829 331,-780 152,-780"/>
</a>
</g>
</g>
<!-- Node6&#45;&gt;Node5 -->
<g id="edge5_Node000005_Node000006" class="edge">
<title>Node6&#45;&gt;Node5</title>
<g id="a_edge5_Node000005_Node000006"><a xlink:title=" ">
<path fill="none" stroke="#63b8ff" d="M243.15,-769.67C246.21,-706.82 252.7,-573.51 255.34,-519.24"/>
<polygon fill="none" stroke="#63b8ff" points="239.64,-769.68 242.65,-779.84 246.63,-770.03 239.64,-769.68"/>
</a>
</g>
</g>
<!-- Node7 -->
<g id="Node000007" class="node">
<title>Node7</title>
<g id="a_Node000007"><a xlink:href="../../db/d3f/interfacepocketmine_1_1entity_1_1_consumable.html" target="_top" xlink:title=" ">
<polygon fill="white" stroke="transparent" points="504,-944 341,-944 341,-880 504,-880 504,-944"/>
<text text-anchor="start" x="346.5" y="-932" font-family="Helvetica,sans-Serif" font-size="10.00">pocketmine\entity\Consumable</text>
<text text-anchor="start" x="421" y="-917" font-family="Helvetica,sans-Serif" font-size="10.00"> </text>
<text text-anchor="start" x="354.5" y="-902" font-family="Helvetica,sans-Serif" font-size="10.00">+</text>
<text text-anchor="start" x="376.5" y="-902" font-family="Helvetica,sans-Serif" font-size="10.00">getAdditionalEffects()</text>
<text text-anchor="start" x="354.5" y="-887" font-family="Helvetica,sans-Serif" font-size="10.00">+</text>
<text text-anchor="start" x="376.5" y="-887" font-family="Helvetica,sans-Serif" font-size="10.00">onConsume()</text>
<polygon fill="#666666" stroke="#666666" points="341.5,-927 341.5,-927 504.5,-927 504.5,-927 341.5,-927"/>
<polygon fill="#666666" stroke="#666666" points="341.5,-912 341.5,-912 504.5,-912 504.5,-912 341.5,-912"/>
<polygon fill="none" stroke="#666666" points="341,-880 341,-944 504,-944 504,-880 341,-880"/>
</a>
</g>
</g>
<!-- Node7&#45;&gt;Node6 -->
<g id="edge6_Node000006_Node000007" class="edge">
<title>Node7&#45;&gt;Node6</title>
<g id="a_edge6_Node000006_Node000007"><a xlink:title=" ">
<path fill="none" stroke="#63b8ff" d="M360.53,-874.88C334.6,-859.77 305.2,-842.63 282.1,-829.16"/>
<polygon fill="none" stroke="#63b8ff" points="358.77,-877.91 369.17,-879.92 362.3,-871.86 358.77,-877.91"/>
</a>
</g>
</g>
<!-- Node9 -->
<g id="Node000009" class="node">
<title>Node9</title>
<g id="a_Node000009"><a xlink:href="../../df/dfd/interfacepocketmine_1_1entity_1_1_food_source.html" target="_top" xlink:title=" ">
<polygon fill="white" stroke="transparent" points="507.5,-844 349.5,-844 349.5,-765 507.5,-765 507.5,-844"/>
<text text-anchor="start" x="354.5" y="-831.5" font-family="Helvetica,sans-Serif" font-size="10.00">pocketmine\entity\FoodSource</text>
<text text-anchor="start" x="426.5" y="-816.5" font-family="Helvetica,sans-Serif" font-size="10.00"> </text>
<text text-anchor="start" x="359.5" y="-801.5" font-family="Helvetica,sans-Serif" font-size="10.00">+</text>
<text text-anchor="start" x="378.5" y="-801.5" font-family="Helvetica,sans-Serif" font-size="10.00">getFoodRestore()</text>
<text text-anchor="start" x="359.5" y="-786.5" font-family="Helvetica,sans-Serif" font-size="10.00">+</text>
<text text-anchor="start" x="378.5" y="-786.5" font-family="Helvetica,sans-Serif" font-size="10.00">getSaturationRestore()</text>
<text text-anchor="start" x="359.5" y="-771.5" font-family="Helvetica,sans-Serif" font-size="10.00">+</text>
<text text-anchor="start" x="378.5" y="-771.5" font-family="Helvetica,sans-Serif" font-size="10.00">requiresHunger()</text>
<polygon fill="#666666" stroke="#666666" points="349.5,-826.5 349.5,-826.5 507.5,-826.5 507.5,-826.5 349.5,-826.5"/>
<polygon fill="#666666" stroke="#666666" points="349.5,-811.5 349.5,-811.5 507.5,-811.5 507.5,-811.5 349.5,-811.5"/>
<polygon fill="none" stroke="#666666" points="349.5,-765 349.5,-844 507.5,-844 507.5,-765 349.5,-765"/>
</a>
</g>
</g>
<!-- Node7&#45;&gt;Node9 -->
<g id="edge9_Node000009_Node000007" class="edge">
<title>Node7&#45;&gt;Node9</title>
<g id="a_edge9_Node000009_Node000007"><a xlink:title=" ">
<path fill="none" stroke="#63b8ff" d="M424.84,-869.89C425.32,-861.44 425.82,-852.58 426.3,-844.22"/>
<polygon fill="none" stroke="#63b8ff" points="421.34,-869.73 424.27,-879.92 428.33,-870.13 421.34,-869.73"/>
</a>
</g>
</g>
<!-- Node8 -->
<g id="Node000008" class="node">
<title>Node8</title>
<g id="a_Node000008"><a xlink:href="../../d4/d35/interfacepocketmine_1_1item_1_1_releasable.html" target="_top" xlink:title=" ">
<polygon fill="white" stroke="transparent" points="316.5,-936.5 166.5,-936.5 166.5,-887.5 316.5,-887.5 316.5,-936.5"/>
<text text-anchor="start" x="171.5" y="-924" font-family="Helvetica,sans-Serif" font-size="10.00">pocketmine\item\Releasable</text>
<text text-anchor="start" x="239.5" y="-909" font-family="Helvetica,sans-Serif" font-size="10.00"> </text>
<text text-anchor="start" x="178" y="-894" font-family="Helvetica,sans-Serif" font-size="10.00">+</text>
<text text-anchor="start" x="198.5" y="-894" font-family="Helvetica,sans-Serif" font-size="10.00">canStartUsingItem()</text>
<polygon fill="#666666" stroke="#666666" points="166.5,-919 166.5,-919 316.5,-919 316.5,-919 166.5,-919"/>
<polygon fill="#666666" stroke="#666666" points="166.5,-904 166.5,-904 316.5,-904 316.5,-904 166.5,-904"/>
<polygon fill="none" stroke="#666666" points="166.5,-887.5 166.5,-936.5 316.5,-936.5 316.5,-887.5 166.5,-887.5"/>
</a>
</g>
</g>
<!-- Node8&#45;&gt;Node6 -->
<g id="edge7_Node000006_Node000008" class="edge">
<title>Node8&#45;&gt;Node6</title>
<g id="a_edge7_Node000006_Node000008"><a xlink:title=" ">
<path fill="none" stroke="#63b8ff" d="M241.5,-876.99C241.5,-861.35 241.5,-843.2 241.5,-829.1"/>
<polygon fill="none" stroke="#63b8ff" points="238,-877.32 241.5,-887.32 245,-877.32 238,-877.32"/>
</a>
</g>
</g>
<!-- Node9&#45;&gt;Node5 -->
<g id="edge8_Node000005_Node000009" class="edge">
<title>Node9&#45;&gt;Node5</title>
<g id="a_edge8_Node000005_Node000009"><a xlink:title=" ">
<path fill="none" stroke="#63b8ff" d="M401.82,-755.72C364.46,-688.83 297.98,-569.78 269.76,-519.24"/>
<polygon fill="none" stroke="#63b8ff" points="398.96,-757.78 406.89,-764.8 405.07,-754.37 398.96,-757.78"/>
</a>
</g>
</g>
</g>
</svg>
