<?xml version="1.0" encoding="UTF-8" standalone="no"?>
<!DOCTYPE svg PUBLIC "-//W3C//DTD SVG 1.1//EN"
 "http://www.w3.org/Graphics/SVG/1.1/DTD/svg11.dtd">
<!-- Generated by graphviz version 2.43.0 (0)
 -->
<!-- Title: pocketmine\event\player\PlayerQuitEvent Pages: 1 -->
<svg width="146pt" height="331pt"
 viewBox="0.00 0.00 146.00 331.00" xmlns="http://www.w3.org/2000/svg" xmlns:xlink="http://www.w3.org/1999/xlink">
<g id="graph0" class="graph" transform="scale(1 1) rotate(0) translate(4 327)">
<title>pocketmine\event\player\PlayerQuitEvent</title>
<polygon fill="white" stroke="transparent" points="-4,4 -4,-327 142,-327 142,4 -4,4"/>
<!-- Node1 -->
<g id="node1" class="node">
<title>Node1</title>
<g id="a_node1"><a xlink:title=" ">
<polygon fill="#bfbfbf" stroke="black" points="0,-0.5 0,-112.5 138,-112.5 138,-0.5 0,-0.5"/>
<text text-anchor="start" x="8" y="-100.5" font-family="Helvetica,sans-Serif" font-size="10.00">pocketmine\event\player</text>
<text text-anchor="middle" x="69" y="-89.5" font-family="Helvetica,sans-Serif" font-size="10.00">\PlayerQuitEvent</text>
<polyline fill="none" stroke="black" points="0,-82.5 138,-82.5 "/>
<text text-anchor="start" x="8" y="-70.5" font-family="Helvetica,sans-Serif" font-size="10.00"># $quitMessage</text>
<text text-anchor="start" x="8" y="-59.5" font-family="Helvetica,sans-Serif" font-size="10.00"># $quitReason</text>
<polyline fill="none" stroke="black" points="0,-52.5 138,-52.5 "/>
<text text-anchor="start" x="8" y="-40.5" font-family="Helvetica,sans-Serif" font-size="10.00">+ __construct()</text>
<text text-anchor="start" x="8" y="-29.5" font-family="Helvetica,sans-Serif" font-size="10.00">+ getQuitMessage()</text>
<text text-anchor="start" x="8" y="-18.5" font-family="Helvetica,sans-Serif" font-size="10.00">+ getQuitReason()</text>
<text text-anchor="start" x="8" y="-7.5" font-family="Helvetica,sans-Serif" font-size="10.00">+ setQuitMessage()</text>
</a>
</g>
</g>
<!-- Node2 -->
<g id="node2" class="node">
<title>Node2</title>
<g id="a_node2"><a xlink:href="../../d1/db1/classpocketmine_1_1event_1_1player_1_1_player_event.html" target="_top" xlink:title=" ">
<polygon fill="white" stroke="#bfbfbf" points="0,-149.5 0,-217.5 138,-217.5 138,-149.5 0,-149.5"/>
<text text-anchor="start" x="8" y="-205.5" font-family="Helvetica,sans-Serif" font-size="10.00">pocketmine\event\player</text>
<text text-anchor="middle" x="69" y="-194.5" font-family="Helvetica,sans-Serif" font-size="10.00">\PlayerEvent</text>
<polyline fill="none" stroke="#bfbfbf" points="0,-187.5 138,-187.5 "/>
<text text-anchor="start" x="8" y="-175.5" font-family="Helvetica,sans-Serif" font-size="10.00"># $player</text>
<polyline fill="none" stroke="#bfbfbf" points="0,-168.5 138,-168.5 "/>
<text text-anchor="start" x="8" y="-156.5" font-family="Helvetica,sans-Serif" font-size="10.00">+ getPlayer()</text>
</a>
</g>
</g>
<!-- Node2&#45;&gt;Node1 -->
<g id="edge1" class="edge">
<title>Node2&#45;&gt;Node1</title>
<path fill="none" stroke="midnightblue" d="M69,-139.18C69,-130.6 69,-121.49 69,-112.59"/>
<polygon fill="none" stroke="midnightblue" points="65.5,-139.33 69,-149.33 72.5,-139.33 65.5,-139.33"/>
</g>
<!-- Node3 -->
<g id="node3" class="node">
<title>Node3</title>
<g id="a_node3"><a xlink:href="../../d1/d2f/classpocketmine_1_1event_1_1_event.html" target="_top" xlink:title=" ">
<polygon fill="white" stroke="#bfbfbf" points="1.5,-254.5 1.5,-322.5 136.5,-322.5 136.5,-254.5 1.5,-254.5"/>
<text text-anchor="middle" x="69" y="-310.5" font-family="Helvetica,sans-Serif" font-size="10.00">pocketmine\event\Event</text>
<polyline fill="none" stroke="#bfbfbf" points="1.5,-303.5 136.5,-303.5 "/>
<text text-anchor="start" x="9.5" y="-291.5" font-family="Helvetica,sans-Serif" font-size="10.00"># $eventName</text>
<polyline fill="none" stroke="#bfbfbf" points="1.5,-284.5 136.5,-284.5 "/>
<text text-anchor="start" x="9.5" y="-272.5" font-family="Helvetica,sans-Serif" font-size="10.00">+ call()</text>
<text text-anchor="start" x="9.5" y="-261.5" font-family="Helvetica,sans-Serif" font-size="10.00">+ getEventName()</text>
</a>
</g>
</g>
<!-- Node3&#45;&gt;Node2 -->
<g id="edge2" class="edge">
<title>Node3&#45;&gt;Node2</title>
<path fill="none" stroke="midnightblue" d="M69,-244.14C69,-235.26 69,-226.04 69,-217.59"/>
<polygon fill="none" stroke="midnightblue" points="65.5,-244.34 69,-254.34 72.5,-244.34 65.5,-244.34"/>
</g>
</g>
</svg>
