<?xml version="1.0" encoding="UTF-8" standalone="no"?>
<!DOCTYPE svg PUBLIC "-//W3C//DTD SVG 1.1//EN"
 "http://www.w3.org/Graphics/SVG/1.1/DTD/svg11.dtd">
<!-- Generated by graphviz version 2.43.0 (0)
 -->
<!-- Title: pocketmine\world\generator\object\NetherTree Pages: 1 -->
<svg width="156pt" height="374pt"
 viewBox="0.00 0.00 156.00 374.00" xmlns="http://www.w3.org/2000/svg" xmlns:xlink="http://www.w3.org/1999/xlink">
<g id="graph0" class="graph" transform="scale(1 1) rotate(0) translate(4 370)">
<title>pocketmine\world\generator\object\NetherTree</title>
<!-- Node1 -->
<g id="Node000001" class="node">
<title>Node1</title>
<g id="a_Node000001"><a xlink:title=" ">
<polygon fill="#999999" stroke="transparent" points="148,-180 0,-180 0,0 148,0 148,-180"/>
<text text-anchor="start" x="5" y="-168" font-family="Helvetica,sans-Serif" font-size="10.00">pocketmine\world\generator</text>
<text text-anchor="start" x="29" y="-157" font-family="Helvetica,sans-Serif" font-size="10.00">\object\NetherTree</text>
<text text-anchor="start" x="72" y="-142" font-family="Helvetica,sans-Serif" font-size="10.00"> </text>
<text text-anchor="start" x="6.5" y="-127" font-family="Helvetica,sans-Serif" font-size="10.00">+</text>
<text text-anchor="start" x="22" y="-127" font-family="Helvetica,sans-Serif" font-size="10.00">__construct()</text>
<text text-anchor="start" x="6.5" y="-112" font-family="Helvetica,sans-Serif" font-size="10.00">+</text>
<text text-anchor="start" x="22" y="-112" font-family="Helvetica,sans-Serif" font-size="10.00">canPlaceObject()</text>
<text text-anchor="start" x="6.5" y="-97" font-family="Helvetica,sans-Serif" font-size="10.00">#</text>
<text text-anchor="start" x="22" y="-97" font-family="Helvetica,sans-Serif" font-size="10.00">canOverride()</text>
<text text-anchor="start" x="6.5" y="-82" font-family="Helvetica,sans-Serif" font-size="10.00">#</text>
<text text-anchor="start" x="22" y="-82" font-family="Helvetica,sans-Serif" font-size="10.00">generateTrunkHeight()</text>
<text text-anchor="start" x="6.5" y="-67" font-family="Helvetica,sans-Serif" font-size="10.00">#</text>
<text text-anchor="start" x="22" y="-67" font-family="Helvetica,sans-Serif" font-size="10.00">placeCanopy()</text>
<text text-anchor="start" x="6.5" y="-52" font-family="Helvetica,sans-Serif" font-size="10.00">#</text>
<text text-anchor="start" x="22" y="-52" font-family="Helvetica,sans-Serif" font-size="10.00">placeHatBlock()</text>
<text text-anchor="start" x="6.5" y="-37" font-family="Helvetica,sans-Serif" font-size="10.00">#</text>
<text text-anchor="start" x="22" y="-37" font-family="Helvetica,sans-Serif" font-size="10.00">placeHatDropBlock()</text>
<text text-anchor="start" x="6.5" y="-22" font-family="Helvetica,sans-Serif" font-size="10.00">#</text>
<text text-anchor="start" x="22" y="-22" font-family="Helvetica,sans-Serif" font-size="10.00">placeTrunk()</text>
<text text-anchor="start" x="6.5" y="-7" font-family="Helvetica,sans-Serif" font-size="10.00">#</text>
<text text-anchor="start" x="22" y="-7" font-family="Helvetica,sans-Serif" font-size="10.00">tryPlaceWeepingVines()</text>
<polygon fill="#666666" stroke="#666666" points="0,-152 0,-152 148,-152 148,-152 0,-152"/>
<polygon fill="#666666" stroke="#666666" points="0,-137 0,-137 148,-137 148,-137 0,-137"/>
<polygon fill="none" stroke="#666666" points="0,0 0,-180 148,-180 148,0 0,0"/>
</a>
</g>
</g>
<!-- Node2 -->
<g id="Node000002" class="node">
<title>Node2</title>
<g id="a_Node000002"><a xlink:href="../../d2/da7/classpocketmine_1_1world_1_1generator_1_1object_1_1_tree.html" target="_top" xlink:title=" ">
<polygon fill="white" stroke="transparent" points="148,-366 0,-366 0,-216 148,-216 148,-366"/>
<text text-anchor="start" x="5" y="-354" font-family="Helvetica,sans-Serif" font-size="10.00">pocketmine\world\generator</text>
<text text-anchor="start" x="45.5" y="-343" font-family="Helvetica,sans-Serif" font-size="10.00">\object\Tree</text>
<text text-anchor="start" x="72" y="-328" font-family="Helvetica,sans-Serif" font-size="10.00"> </text>
<text text-anchor="start" x="8" y="-313" font-family="Helvetica,sans-Serif" font-size="10.00">+</text>
<text text-anchor="start" x="25" y="-313" font-family="Helvetica,sans-Serif" font-size="10.00">__construct()</text>
<text text-anchor="start" x="8" y="-298" font-family="Helvetica,sans-Serif" font-size="10.00">+</text>
<text text-anchor="start" x="25" y="-298" font-family="Helvetica,sans-Serif" font-size="10.00">canPlaceObject()</text>
<text text-anchor="start" x="8" y="-283" font-family="Helvetica,sans-Serif" font-size="10.00">+</text>
<text text-anchor="start" x="25" y="-283" font-family="Helvetica,sans-Serif" font-size="10.00">getBlockTransaction()</text>
<text text-anchor="start" x="8" y="-268" font-family="Helvetica,sans-Serif" font-size="10.00">#</text>
<text text-anchor="start" x="25" y="-268" font-family="Helvetica,sans-Serif" font-size="10.00">canOverride()</text>
<text text-anchor="start" x="8" y="-253" font-family="Helvetica,sans-Serif" font-size="10.00">#</text>
<text text-anchor="start" x="25" y="-253" font-family="Helvetica,sans-Serif" font-size="10.00">generateTrunkHeight()</text>
<text text-anchor="start" x="8" y="-238" font-family="Helvetica,sans-Serif" font-size="10.00">#</text>
<text text-anchor="start" x="25" y="-238" font-family="Helvetica,sans-Serif" font-size="10.00">placeCanopy()</text>
<text text-anchor="start" x="8" y="-223" font-family="Helvetica,sans-Serif" font-size="10.00">#</text>
<text text-anchor="start" x="25" y="-223" font-family="Helvetica,sans-Serif" font-size="10.00">placeTrunk()</text>
<polygon fill="#bfbfbf" stroke="#bfbfbf" points="0,-338 0,-338 148,-338 148,-338 0,-338"/>
<polygon fill="#bfbfbf" stroke="#bfbfbf" points="0,-323 0,-323 148,-323 148,-323 0,-323"/>
<polygon fill="none" stroke="#bfbfbf" points="0,-216 0,-366 148,-366 148,-216 0,-216"/>
</a>
</g>
</g>
<!-- Node2&#45;&gt;Node1 -->
<g id="edge1_Node000001_Node000002" class="edge">
<title>Node2&#45;&gt;Node1</title>
<g id="a_edge1_Node000001_Node000002"><a xlink:title=" ">
<path fill="none" stroke="#63b8ff" d="M74,-205.73C74,-197.32 74,-188.76 74,-180.3"/>
<polygon fill="none" stroke="#63b8ff" points="70.5,-205.9 74,-215.9 77.5,-205.9 70.5,-205.9"/>
</a>
</g>
</g>
</g>
</svg>
