<?xml version="1.0" encoding="UTF-8" standalone="no"?>
<!DOCTYPE svg PUBLIC "-//W3C//DTD SVG 1.1//EN"
 "http://www.w3.org/Graphics/SVG/1.1/DTD/svg11.dtd">
<!-- Generated by graphviz version 2.43.0 (0)
 -->
<!-- Title: pocketmine\block\TNT Pages: 1 -->
<svg width="732pt" height="1104pt"
 viewBox="0.00 0.00 732.31 1104.00" xmlns="http://www.w3.org/2000/svg" xmlns:xlink="http://www.w3.org/1999/xlink">
<g id="graph0" class="graph" transform="scale(1 1) rotate(0) translate(4 1100)">
<title>pocketmine\block\TNT</title>
<polygon fill="white" stroke="transparent" points="-4,4 -4,-1100 728.31,-1100 728.31,4 -4,4"/>
<!-- Node1 -->
<g id="node1" class="node">
<title>Node1</title>
<g id="a_node1"><a xlink:title=" ">
<polygon fill="#bfbfbf" stroke="black" points="344.31,-0.5 344.31,-233.5 502.31,-233.5 502.31,-0.5 344.31,-0.5"/>
<text text-anchor="middle" x="423.31" y="-221.5" font-family="Helvetica,sans-Serif" font-size="10.00">pocketmine\block\TNT</text>
<polyline fill="none" stroke="black" points="344.31,-214.5 502.31,-214.5 "/>
<text text-anchor="start" x="352.31" y="-202.5" font-family="Helvetica,sans-Serif" font-size="10.00"># $unstable</text>
<text text-anchor="start" x="352.31" y="-191.5" font-family="Helvetica,sans-Serif" font-size="10.00"># $worksUnderwater</text>
<polyline fill="none" stroke="black" points="344.31,-184.5 502.31,-184.5 "/>
<text text-anchor="start" x="352.31" y="-172.5" font-family="Helvetica,sans-Serif" font-size="10.00">+ getFlameEncouragement()</text>
<text text-anchor="start" x="352.31" y="-161.5" font-family="Helvetica,sans-Serif" font-size="10.00">+ getFlammability()</text>
<text text-anchor="start" x="352.31" y="-150.5" font-family="Helvetica,sans-Serif" font-size="10.00">+ getStateBitmask()</text>
<text text-anchor="start" x="352.31" y="-139.5" font-family="Helvetica,sans-Serif" font-size="10.00">+ hasEntityCollision()</text>
<text text-anchor="start" x="352.31" y="-128.5" font-family="Helvetica,sans-Serif" font-size="10.00">+ ignite()</text>
<text text-anchor="start" x="352.31" y="-117.5" font-family="Helvetica,sans-Serif" font-size="10.00">+ isUnstable()</text>
<text text-anchor="start" x="352.31" y="-106.5" font-family="Helvetica,sans-Serif" font-size="10.00">+ onBreak()</text>
<text text-anchor="start" x="352.31" y="-95.5" font-family="Helvetica,sans-Serif" font-size="10.00">+ onEntityInside()</text>
<text text-anchor="start" x="352.31" y="-84.5" font-family="Helvetica,sans-Serif" font-size="10.00">+ onIncinerate()</text>
<text text-anchor="start" x="352.31" y="-73.5" font-family="Helvetica,sans-Serif" font-size="10.00">+ onInteract()</text>
<text text-anchor="start" x="352.31" y="-62.5" font-family="Helvetica,sans-Serif" font-size="10.00">+ readStateFromData()</text>
<text text-anchor="start" x="352.31" y="-51.5" font-family="Helvetica,sans-Serif" font-size="10.00">+ setUnstable()</text>
<text text-anchor="start" x="352.31" y="-40.5" font-family="Helvetica,sans-Serif" font-size="10.00">+ setWorksUnderwater()</text>
<text text-anchor="start" x="352.31" y="-29.5" font-family="Helvetica,sans-Serif" font-size="10.00">+ worksUnderwater()</text>
<text text-anchor="start" x="352.31" y="-18.5" font-family="Helvetica,sans-Serif" font-size="10.00"># writeStateToItemMeta()</text>
<text text-anchor="start" x="352.31" y="-7.5" font-family="Helvetica,sans-Serif" font-size="10.00"># writeStateToMeta()</text>
</a>
</g>
</g>
<!-- Node2 -->
<g id="node2" class="node">
<title>Node2</title>
<g id="a_node2"><a xlink:href="../../db/dc5/classpocketmine_1_1block_1_1_opaque.html" target="_top" xlink:title=" ">
<polygon fill="white" stroke="black" points="351.81,-271.5 351.81,-328.5 494.81,-328.5 494.81,-271.5 351.81,-271.5"/>
<text text-anchor="middle" x="423.31" y="-316.5" font-family="Helvetica,sans-Serif" font-size="10.00">pocketmine\block\Opaque</text>
<polyline fill="none" stroke="black" points="351.81,-309.5 494.81,-309.5 "/>
<text text-anchor="middle" x="423.31" y="-297.5" font-family="Helvetica,sans-Serif" font-size="10.00"> </text>
<polyline fill="none" stroke="black" points="351.81,-290.5 494.81,-290.5 "/>
<text text-anchor="start" x="359.81" y="-278.5" font-family="Helvetica,sans-Serif" font-size="10.00">+ isSolid()</text>
</a>
</g>
</g>
<!-- Node2&#45;&gt;Node1 -->
<g id="edge1" class="edge">
<title>Node2&#45;&gt;Node1</title>
<path fill="none" stroke="midnightblue" d="M423.31,-261.01C423.31,-252.61 423.31,-243.29 423.31,-233.55"/>
<polygon fill="none" stroke="midnightblue" points="419.81,-261.12 423.31,-271.12 426.81,-261.12 419.81,-261.12"/>
</g>
<!-- Node3 -->
<g id="node3" class="node">
<title>Node3</title>
<g id="a_node3"><a xlink:href="../../d7/d27/classpocketmine_1_1block_1_1_block.html" target="_top" xlink:title=" ">
<polygon fill="white" stroke="#bfbfbf" points="342.81,-366.5 342.81,-588.5 503.81,-588.5 503.81,-366.5 342.81,-366.5"/>
<text text-anchor="middle" x="423.31" y="-576.5" font-family="Helvetica,sans-Serif" font-size="10.00">pocketmine\block\Block</text>
<polyline fill="none" stroke="#bfbfbf" points="342.81,-569.5 503.81,-569.5 "/>
<text text-anchor="start" x="350.81" y="-557.5" font-family="Helvetica,sans-Serif" font-size="10.00"># $collisionBoxes</text>
<text text-anchor="start" x="350.81" y="-546.5" font-family="Helvetica,sans-Serif" font-size="10.00"># $fallbackName</text>
<polyline fill="none" stroke="#bfbfbf" points="342.81,-539.5 503.81,-539.5 "/>
<text text-anchor="start" x="350.81" y="-527.5" font-family="Helvetica,sans-Serif" font-size="10.00">+ __construct()</text>
<text text-anchor="start" x="350.81" y="-516.5" font-family="Helvetica,sans-Serif" font-size="10.00">+ __clone()</text>
<text text-anchor="start" x="350.81" y="-505.5" font-family="Helvetica,sans-Serif" font-size="10.00">+ __toString()</text>
<text text-anchor="start" x="350.81" y="-494.5" font-family="Helvetica,sans-Serif" font-size="10.00">+ addVelocityToEntity()</text>
<text text-anchor="start" x="350.81" y="-483.5" font-family="Helvetica,sans-Serif" font-size="10.00">+ asItem()</text>
<text text-anchor="start" x="350.81" y="-472.5" font-family="Helvetica,sans-Serif" font-size="10.00">+ blocksDirectSkyLight()</text>
<text text-anchor="start" x="350.81" y="-461.5" font-family="Helvetica,sans-Serif" font-size="10.00">+ burnsForever()</text>
<text text-anchor="start" x="350.81" y="-450.5" font-family="Helvetica,sans-Serif" font-size="10.00">+ calculateIntercept()</text>
<text text-anchor="start" x="350.81" y="-439.5" font-family="Helvetica,sans-Serif" font-size="10.00">+ canBeFlowedInto()</text>
<text text-anchor="start" x="350.81" y="-428.5" font-family="Helvetica,sans-Serif" font-size="10.00">+ canBePlaced()</text>
<text text-anchor="start" x="350.81" y="-417.5" font-family="Helvetica,sans-Serif" font-size="10.00">and 57 more...</text>
<text text-anchor="start" x="350.81" y="-406.5" font-family="Helvetica,sans-Serif" font-size="10.00"># getXpDropAmount()</text>
<text text-anchor="start" x="350.81" y="-395.5" font-family="Helvetica,sans-Serif" font-size="10.00"># recalculateCollisionBoxes()</text>
<text text-anchor="start" x="350.81" y="-384.5" font-family="Helvetica,sans-Serif" font-size="10.00"># writeStateToItemMeta()</text>
<text text-anchor="start" x="350.81" y="-373.5" font-family="Helvetica,sans-Serif" font-size="10.00"># writeStateToMeta()</text>
</a>
</g>
</g>
<!-- Node3&#45;&gt;Node2 -->
<g id="edge2" class="edge">
<title>Node3&#45;&gt;Node2</title>
<path fill="none" stroke="midnightblue" d="M423.31,-356.09C423.31,-346.03 423.31,-336.64 423.31,-328.56"/>
<polygon fill="none" stroke="midnightblue" points="419.81,-356.35 423.31,-366.35 426.81,-356.35 419.81,-356.35"/>
</g>
<!-- Node4 -->
<g id="node4" class="node">
<title>Node4</title>
<g id="a_node4"><a xlink:title=" ">
<polygon fill="white" stroke="#bfbfbf" points="62.81,-950.5 62.81,-1007.5 105.81,-1007.5 105.81,-950.5 62.81,-950.5"/>
<text text-anchor="middle" x="84.31" y="-995.5" font-family="Helvetica,sans-Serif" font-size="10.00">const</text>
<polyline fill="none" stroke="#bfbfbf" points="62.81,-988.5 105.81,-988.5 "/>
<text text-anchor="middle" x="84.31" y="-976.5" font-family="Helvetica,sans-Serif" font-size="10.00"> </text>
<polyline fill="none" stroke="#bfbfbf" points="62.81,-969.5 105.81,-969.5 "/>
<text text-anchor="middle" x="84.31" y="-957.5" font-family="Helvetica,sans-Serif" font-size="10.00"> </text>
</a>
</g>
</g>
<!-- Node4&#45;&gt;Node3 -->
<g id="edge3" class="edge">
<title>Node4&#45;&gt;Node3</title>
<path fill="none" stroke="#404040" d="M67.75,-950.36C32.95,-888.32 -39.21,-735.61 28.31,-636 95.57,-536.77 236.43,-500.05 330.46,-486.47"/>
<polygon fill="none" stroke="#404040" points="330.65,-486.44 336.05,-481.67 342.54,-484.82 337.14,-489.59 330.65,-486.44"/>
<text text-anchor="start" x="28.31" y="-728.5" font-family="Helvetica,sans-Serif" font-size="10.00"> +INTERNAL_METADATA</text>
<text text-anchor="middle" x="102.81" y="-717.5" font-family="Helvetica,sans-Serif" font-size="10.00">_BITS</text>
<text text-anchor="middle" x="102.81" y="-706.5" font-family="Helvetica,sans-Serif" font-size="10.00">+INTERNAL_METADATA_MASK</text>
</g>
<!-- Node6 -->
<g id="node6" class="node">
<title>Node6</title>
<g id="a_node6"><a xlink:href="../../d3/d10/classpocketmine_1_1block_1_1_block_break_info.html" target="_top" xlink:title=" ">
<polygon fill="white" stroke="#bfbfbf" points="186.31,-636.5 186.31,-803.5 366.31,-803.5 366.31,-636.5 186.31,-636.5"/>
<text text-anchor="middle" x="276.31" y="-791.5" font-family="Helvetica,sans-Serif" font-size="10.00">pocketmine\block\BlockBreakInfo</text>
<polyline fill="none" stroke="#bfbfbf" points="186.31,-784.5 366.31,-784.5 "/>
<text text-anchor="middle" x="276.31" y="-772.5" font-family="Helvetica,sans-Serif" font-size="10.00"> </text>
<polyline fill="none" stroke="#bfbfbf" points="186.31,-765.5 366.31,-765.5 "/>
<text text-anchor="start" x="194.31" y="-753.5" font-family="Helvetica,sans-Serif" font-size="10.00">+ __construct()</text>
<text text-anchor="start" x="194.31" y="-742.5" font-family="Helvetica,sans-Serif" font-size="10.00">+ breaksInstantly()</text>
<text text-anchor="start" x="194.31" y="-731.5" font-family="Helvetica,sans-Serif" font-size="10.00">+ getBlastResistance()</text>
<text text-anchor="start" x="194.31" y="-720.5" font-family="Helvetica,sans-Serif" font-size="10.00">+ getBreakTime()</text>
<text text-anchor="start" x="194.31" y="-709.5" font-family="Helvetica,sans-Serif" font-size="10.00">+ getHardness()</text>
<text text-anchor="start" x="194.31" y="-698.5" font-family="Helvetica,sans-Serif" font-size="10.00">+ getToolHarvestLevel()</text>
<text text-anchor="start" x="194.31" y="-687.5" font-family="Helvetica,sans-Serif" font-size="10.00">+ getToolType()</text>
<text text-anchor="start" x="194.31" y="-676.5" font-family="Helvetica,sans-Serif" font-size="10.00">+ isBreakable()</text>
<text text-anchor="start" x="194.31" y="-665.5" font-family="Helvetica,sans-Serif" font-size="10.00">+ isToolCompatible()</text>
<text text-anchor="start" x="194.31" y="-654.5" font-family="Helvetica,sans-Serif" font-size="10.00">+ indestructible()</text>
<text text-anchor="start" x="194.31" y="-643.5" font-family="Helvetica,sans-Serif" font-size="10.00">+ instant()</text>
</a>
</g>
</g>
<!-- Node4&#45;&gt;Node6 -->
<g id="edge6" class="edge">
<title>Node4&#45;&gt;Node6</title>
<path fill="none" stroke="#404040" d="M104.85,-950.5C129.15,-917.97 170.88,-862.12 207.08,-813.66"/>
<polygon fill="none" stroke="#404040" points="207.3,-813.37 207.68,-806.17 214.48,-803.76 214.09,-810.96 207.3,-813.37"/>
<text text-anchor="middle" x="285.81" y="-836" font-family="Helvetica,sans-Serif" font-size="10.00"> +COMPATIBLE_TOOL_MULTIPLIER</text>
<text text-anchor="middle" x="285.81" y="-825" font-family="Helvetica,sans-Serif" font-size="10.00">+INCOMPATIBLE_TOOL_MULTIPLIER</text>
</g>
<!-- Node5 -->
<g id="node5" class="node">
<title>Node5</title>
<g id="a_node5"><a xlink:href="../../dd/d18/classpocketmine_1_1block_1_1_block_identifier.html" target="_top" xlink:title=" ">
<polygon fill="white" stroke="#bfbfbf" points="384.31,-664 384.31,-776 560.31,-776 560.31,-664 384.31,-664"/>
<text text-anchor="middle" x="472.31" y="-764" font-family="Helvetica,sans-Serif" font-size="10.00">pocketmine\block\BlockIdentifier</text>
<polyline fill="none" stroke="#bfbfbf" points="384.31,-757 560.31,-757 "/>
<text text-anchor="middle" x="472.31" y="-745" font-family="Helvetica,sans-Serif" font-size="10.00"> </text>
<polyline fill="none" stroke="#bfbfbf" points="384.31,-738 560.31,-738 "/>
<text text-anchor="start" x="392.31" y="-726" font-family="Helvetica,sans-Serif" font-size="10.00">+ __construct()</text>
<text text-anchor="start" x="392.31" y="-715" font-family="Helvetica,sans-Serif" font-size="10.00">+ getAllBlockIds()</text>
<text text-anchor="start" x="392.31" y="-704" font-family="Helvetica,sans-Serif" font-size="10.00">+ getBlockId()</text>
<text text-anchor="start" x="392.31" y="-693" font-family="Helvetica,sans-Serif" font-size="10.00">+ getItemId()</text>
<text text-anchor="start" x="392.31" y="-682" font-family="Helvetica,sans-Serif" font-size="10.00">+ getTileClass()</text>
<text text-anchor="start" x="392.31" y="-671" font-family="Helvetica,sans-Serif" font-size="10.00">+ getVariant()</text>
</a>
</g>
</g>
<!-- Node5&#45;&gt;Node3 -->
<g id="edge4" class="edge">
<title>Node5&#45;&gt;Node3</title>
<path fill="none" stroke="#404040" d="M461.07,-663.82C457.21,-644.9 452.73,-622.89 448.22,-600.8"/>
<polygon fill="none" stroke="#404040" points="448.19,-600.65 443.08,-595.57 445.8,-588.89 450.92,-593.97 448.19,-600.65"/>
<text text-anchor="middle" x="474.31" y="-610" font-family="Helvetica,sans-Serif" font-size="10.00"> #$idInfo</text>
</g>
<!-- Node6&#45;&gt;Node3 -->
<g id="edge5" class="edge">
<title>Node6&#45;&gt;Node3</title>
<path fill="none" stroke="#404040" d="M326.9,-636.23C334.23,-624.24 341.9,-611.69 349.57,-599.14"/>
<polygon fill="none" stroke="#404040" points="349.75,-598.84 349.47,-591.64 356.01,-588.6 356.29,-595.81 349.75,-598.84"/>
<text text-anchor="middle" x="373.31" y="-610" font-family="Helvetica,sans-Serif" font-size="10.00"> #$breakInfo</text>
</g>
<!-- Node7 -->
<g id="node7" class="node">
<title>Node7</title>
<g id="a_node7"><a xlink:href="../../d5/dd2/classpocketmine_1_1world_1_1_position.html" target="_top" xlink:title=" ">
<polygon fill="white" stroke="#bfbfbf" points="578.31,-653 578.31,-787 724.31,-787 724.31,-653 578.31,-653"/>
<text text-anchor="middle" x="651.31" y="-775" font-family="Helvetica,sans-Serif" font-size="10.00">pocketmine\world\Position</text>
<polyline fill="none" stroke="#bfbfbf" points="578.31,-768 724.31,-768 "/>
<text text-anchor="start" x="586.31" y="-756" font-family="Helvetica,sans-Serif" font-size="10.00">+ $world</text>
<polyline fill="none" stroke="#bfbfbf" points="578.31,-749 724.31,-749 "/>
<text text-anchor="start" x="586.31" y="-737" font-family="Helvetica,sans-Serif" font-size="10.00">+ __construct()</text>
<text text-anchor="start" x="586.31" y="-726" font-family="Helvetica,sans-Serif" font-size="10.00">+ __toString()</text>
<text text-anchor="start" x="586.31" y="-715" font-family="Helvetica,sans-Serif" font-size="10.00">+ asPosition()</text>
<text text-anchor="start" x="586.31" y="-704" font-family="Helvetica,sans-Serif" font-size="10.00">+ equals()</text>
<text text-anchor="start" x="586.31" y="-693" font-family="Helvetica,sans-Serif" font-size="10.00">+ getSide()</text>
<text text-anchor="start" x="586.31" y="-682" font-family="Helvetica,sans-Serif" font-size="10.00">+ getWorld()</text>
<text text-anchor="start" x="586.31" y="-671" font-family="Helvetica,sans-Serif" font-size="10.00">+ isValid()</text>
<text text-anchor="start" x="586.31" y="-660" font-family="Helvetica,sans-Serif" font-size="10.00">+ fromObject()</text>
</a>
</g>
</g>
<!-- Node7&#45;&gt;Node3 -->
<g id="edge7" class="edge">
<title>Node7&#45;&gt;Node3</title>
<path fill="none" stroke="#404040" d="M588.7,-652.96C565.25,-628.23 538.13,-599.62 512.72,-572.82"/>
<polygon fill="none" stroke="#404040" points="512.43,-572.51 505.4,-570.91 504.18,-563.8 511.21,-565.41 512.43,-572.51"/>
<text text-anchor="middle" x="579.81" y="-610" font-family="Helvetica,sans-Serif" font-size="10.00"> #$position</text>
</g>
<!-- Node8 -->
<g id="node8" class="node">
<title>Node8</title>
<g id="a_node8"><a xlink:href="../../d2/d90/classpocketmine_1_1math_1_1_vector3.html" target="_top" xlink:title=" ">
<polygon fill="white" stroke="#bfbfbf" points="580.31,-862.5 580.31,-1095.5 722.31,-1095.5 722.31,-862.5 580.31,-862.5"/>
<text text-anchor="middle" x="651.31" y="-1083.5" font-family="Helvetica,sans-Serif" font-size="10.00">pocketmine\math\Vector3</text>
<polyline fill="none" stroke="#bfbfbf" points="580.31,-1076.5 722.31,-1076.5 "/>
<text text-anchor="start" x="588.31" y="-1064.5" font-family="Helvetica,sans-Serif" font-size="10.00">+ $x</text>
<text text-anchor="start" x="588.31" y="-1053.5" font-family="Helvetica,sans-Serif" font-size="10.00">+ $y</text>
<text text-anchor="start" x="588.31" y="-1042.5" font-family="Helvetica,sans-Serif" font-size="10.00">+ $z</text>
<polyline fill="none" stroke="#bfbfbf" points="580.31,-1035.5 722.31,-1035.5 "/>
<text text-anchor="start" x="588.31" y="-1023.5" font-family="Helvetica,sans-Serif" font-size="10.00">+ __construct()</text>
<text text-anchor="start" x="588.31" y="-1012.5" font-family="Helvetica,sans-Serif" font-size="10.00">+ __toString()</text>
<text text-anchor="start" x="588.31" y="-1001.5" font-family="Helvetica,sans-Serif" font-size="10.00">+ abs()</text>
<text text-anchor="start" x="588.31" y="-990.5" font-family="Helvetica,sans-Serif" font-size="10.00">+ add()</text>
<text text-anchor="start" x="588.31" y="-979.5" font-family="Helvetica,sans-Serif" font-size="10.00">+ addVector()</text>
<text text-anchor="start" x="588.31" y="-968.5" font-family="Helvetica,sans-Serif" font-size="10.00">+ asVector3()</text>
<text text-anchor="start" x="588.31" y="-957.5" font-family="Helvetica,sans-Serif" font-size="10.00">+ ceil()</text>
<text text-anchor="start" x="588.31" y="-946.5" font-family="Helvetica,sans-Serif" font-size="10.00">+ cross()</text>
<text text-anchor="start" x="588.31" y="-935.5" font-family="Helvetica,sans-Serif" font-size="10.00">+ distance()</text>
<text text-anchor="start" x="588.31" y="-924.5" font-family="Helvetica,sans-Serif" font-size="10.00">+ distanceSquared()</text>
<text text-anchor="start" x="588.31" y="-913.5" font-family="Helvetica,sans-Serif" font-size="10.00">and 32 more...</text>
<text text-anchor="start" x="588.31" y="-902.5" font-family="Helvetica,sans-Serif" font-size="10.00">+ maxComponents()</text>
<text text-anchor="start" x="588.31" y="-891.5" font-family="Helvetica,sans-Serif" font-size="10.00">+ minComponents()</text>
<text text-anchor="start" x="588.31" y="-880.5" font-family="Helvetica,sans-Serif" font-size="10.00">+ sum()</text>
<text text-anchor="start" x="588.31" y="-869.5" font-family="Helvetica,sans-Serif" font-size="10.00">+ zero()</text>
</a>
</g>
</g>
<!-- Node8&#45;&gt;Node7 -->
<g id="edge8" class="edge">
<title>Node8&#45;&gt;Node7</title>
<path fill="none" stroke="midnightblue" d="M651.31,-852.01C651.31,-829.62 651.31,-807.12 651.31,-787.25"/>
<polygon fill="none" stroke="midnightblue" points="647.81,-852.28 651.31,-862.28 654.81,-852.28 647.81,-852.28"/>
</g>
</g>
</svg>
