<?xml version="1.0" encoding="UTF-8" standalone="no"?>
<!DOCTYPE svg PUBLIC "-//W3C//DTD SVG 1.1//EN"
 "http://www.w3.org/Graphics/SVG/1.1/DTD/svg11.dtd">
<!-- Generated by graphviz version 2.43.0 (0)
 -->
<!-- Title: pocketmine\item\RawBeef Pages: 1 -->
<!--zoomable 1277 -->

<svg id="main" version="1.1" xmlns="http://www.w3.org/2000/svg" xmlns:xlink="http://www.w3.org/1999/xlink" xml:space="preserve" onload="init(evt)">

<style type="text/css"><![CDATA[
.node, .edge {opacity: 0.7;}
.node.selected, .edge.selected {opacity: 1;}
.edge:hover path { stroke: red; }
.edge:hover polygon { stroke: red; fill: red; }
]]></style>

<defs>
  <circle id="rim" cx="0" cy="0" r="7"/>
  <circle id="rim2" cx="0" cy="0" r="3.5"/>
  <g id="zoomPlus">
    <use xlink:href="#rim" fill="#404040"><set attributeName="fill" to="#808080" begin="zoomplus.mouseover" end="zoomplus.mouseout"/></use>
    <path d="M-4,0h8M0,-4v8" fill="none" stroke="white" stroke-width="1.5" pointer-events="none"/>
  </g>
  <g id="zoomMin">
    <use xlink:href="#rim" fill="#404040"><set attributeName="fill" to="#808080" begin="zoomminus.mouseover" end="zoomminus.mouseout"/></use>
    <path d="M-4,0h8" fill="none" stroke="white" stroke-width="1.5" pointer-events="none"/>
  </g>
  <g id="arrowUp" transform="translate(30 24)">
    <use xlink:href="#rim"/>
    <path pointer-events="none" fill="none" stroke="white" stroke-width="1.5" d="M0,-3.0v7 M-2.5,-0.5L0,-3.0L2.5,-0.5"/>
  </g>
  <g id="arrowRight" transform="rotate(90) translate(36 -43)">
    <use xlink:href="#rim"/>
    <path pointer-events="none" fill="none" stroke="white" stroke-width="1.5" d="M0,-3.0v7 M-2.5,-0.5L0,-3.0L2.5,-0.5"/>
  </g>
  <g id="arrowDown" transform="rotate(180) translate(-30 -48)">
    <use xlink:href="#rim"/>
    <path pointer-events="none" fill="none" stroke="white" stroke-width="1.5" d="M0,-3.0v7 M-2.5,-0.5L0,-3.0L2.5,-0.5"/>
  </g>
  <g id="arrowLeft" transform="rotate(270) translate(-36 17)">
    <use xlink:href="#rim"/>
    <path pointer-events="none" fill="none" stroke="white" stroke-width="1.5" d="M0,-3.0v7 M-2.5,-0.5L0,-3.0L2.5,-0.5"/>
  </g>
  <g id="resetDef">
    <use xlink:href="#rim2" fill="#404040"><set attributeName="fill" to="#808080" begin="reset.mouseover" end="reset.mouseout"/></use>
  </g>
</defs>
<script type="application/ecmascript">
var viewWidth = 684;
var viewHeight = 1277;
var sectionId = 'dynsection-1';
</script>
<script type="application/ecmascript" xlink:href="../../svg.min.js"/>
<svg id="graph" class="graph">
<g id="viewport">
<title>pocketmine\item\RawBeef</title>
<!-- Node1 -->
<g id="Node000001" class="node">
<title>Node1</title>
<g id="a_Node000001"><a xlink:title=" ">
<polygon fill="#999999" stroke="transparent" points="359.5,-64 219.5,-64 219.5,0 359.5,0 359.5,-64"/>
<text text-anchor="start" x="224.5" y="-52" font-family="Helvetica,sans-Serif" font-size="10.00">pocketmine\item\RawBeef</text>
<text text-anchor="start" x="287.5" y="-37" font-family="Helvetica,sans-Serif" font-size="10.00"> </text>
<text text-anchor="start" x="225" y="-22" font-family="Helvetica,sans-Serif" font-size="10.00">+</text>
<text text-anchor="start" x="239.5" y="-22" font-family="Helvetica,sans-Serif" font-size="10.00">getFoodRestore()</text>
<text text-anchor="start" x="225" y="-7" font-family="Helvetica,sans-Serif" font-size="10.00">+</text>
<text text-anchor="start" x="239.5" y="-7" font-family="Helvetica,sans-Serif" font-size="10.00">getSaturationRestore()</text>
<polygon fill="#666666" stroke="#666666" points="219.5,-47 219.5,-47 359.5,-47 359.5,-47 219.5,-47"/>
<polygon fill="#666666" stroke="#666666" points="219.5,-32 219.5,-32 359.5,-32 359.5,-32 219.5,-32"/>
<polygon fill="none" stroke="#666666" points="219.5,0 219.5,-64 359.5,-64 359.5,0 219.5,0"/>
</a>
</g>
</g>
<!-- Node2 -->
<g id="Node000002" class="node">
<title>Node2</title>
<g id="a_Node000002"><a xlink:href="../../dc/de1/classpocketmine_1_1item_1_1_food.html" target="_top" xlink:title=" ">
<polygon fill="white" stroke="transparent" points="353,-210 226,-210 226,-101 353,-101 353,-210"/>
<text text-anchor="start" x="235.5" y="-197.5" font-family="Helvetica,sans-Serif" font-size="10.00">pocketmine\item\Food</text>
<text text-anchor="start" x="288" y="-182.5" font-family="Helvetica,sans-Serif" font-size="10.00"> </text>
<text text-anchor="start" x="230.5" y="-167.5" font-family="Helvetica,sans-Serif" font-size="10.00">+</text>
<text text-anchor="start" x="243.5" y="-167.5" font-family="Helvetica,sans-Serif" font-size="10.00">canStartUsingItem()</text>
<text text-anchor="start" x="230.5" y="-152.5" font-family="Helvetica,sans-Serif" font-size="10.00">+</text>
<text text-anchor="start" x="243.5" y="-152.5" font-family="Helvetica,sans-Serif" font-size="10.00">getAdditionalEffects()</text>
<text text-anchor="start" x="230.5" y="-137.5" font-family="Helvetica,sans-Serif" font-size="10.00">+</text>
<text text-anchor="start" x="243.5" y="-137.5" font-family="Helvetica,sans-Serif" font-size="10.00">getResidue()</text>
<text text-anchor="start" x="230.5" y="-122.5" font-family="Helvetica,sans-Serif" font-size="10.00">+</text>
<text text-anchor="start" x="243.5" y="-122.5" font-family="Helvetica,sans-Serif" font-size="10.00">onConsume()</text>
<text text-anchor="start" x="230.5" y="-107.5" font-family="Helvetica,sans-Serif" font-size="10.00">+</text>
<text text-anchor="start" x="243.5" y="-107.5" font-family="Helvetica,sans-Serif" font-size="10.00">requiresHunger()</text>
<polygon fill="#bfbfbf" stroke="#bfbfbf" points="226.5,-192.5 226.5,-192.5 353.5,-192.5 353.5,-192.5 226.5,-192.5"/>
<polygon fill="#bfbfbf" stroke="#bfbfbf" points="226.5,-177.5 226.5,-177.5 353.5,-177.5 353.5,-177.5 226.5,-177.5"/>
<polygon fill="none" stroke="#bfbfbf" points="226,-101 226,-210 353,-210 353,-101 226,-101"/>
</a>
</g>
</g>
<!-- Node2&#45;&gt;Node1 -->
<g id="edge1_Node000001_Node000002" class="edge">
<title>Node2&#45;&gt;Node1</title>
<g id="a_edge1_Node000001_Node000002"><a xlink:title=" ">
<path fill="none" stroke="#63b8ff" d="M289.5,-90.78C289.5,-81.49 289.5,-72.29 289.5,-64.06"/>
<polygon fill="none" stroke="#63b8ff" points="286,-90.85 289.5,-100.85 293,-90.85 286,-90.85"/>
</a>
</g>
</g>
<!-- Node3 -->
<g id="Node000003" class="node">
<title>Node3</title>
<g id="a_Node000003"><a xlink:href="../../d5/d8a/classpocketmine_1_1item_1_1_item.html" target="_top" xlink:title=" ">
<polygon fill="white" stroke="transparent" points="275,-701 124,-701 124,-247 275,-247 275,-701"/>
<text text-anchor="start" x="145.5" y="-689" font-family="Helvetica,sans-Serif" font-size="10.00">pocketmine\item\Item</text>
<text text-anchor="start" x="128.5" y="-674" font-family="Helvetica,sans-Serif" font-size="10.00">+</text>
<text text-anchor="start" x="141.5" y="-674" font-family="Helvetica,sans-Serif" font-size="10.00">TAG_BLOCK_ENTITY_TAG</text>
<text text-anchor="start" x="128.5" y="-659" font-family="Helvetica,sans-Serif" font-size="10.00">+</text>
<text text-anchor="start" x="141.5" y="-659" font-family="Helvetica,sans-Serif" font-size="10.00">TAG_DISPLAY</text>
<text text-anchor="start" x="128.5" y="-644" font-family="Helvetica,sans-Serif" font-size="10.00">+</text>
<text text-anchor="start" x="141.5" y="-644" font-family="Helvetica,sans-Serif" font-size="10.00">TAG_DISPLAY_LORE</text>
<text text-anchor="start" x="128.5" y="-629" font-family="Helvetica,sans-Serif" font-size="10.00">+</text>
<text text-anchor="start" x="141.5" y="-629" font-family="Helvetica,sans-Serif" font-size="10.00">TAG_DISPLAY_NAME</text>
<text text-anchor="start" x="128.5" y="-614" font-family="Helvetica,sans-Serif" font-size="10.00">+</text>
<text text-anchor="start" x="141.5" y="-614" font-family="Helvetica,sans-Serif" font-size="10.00">TAG_ENCH</text>
<text text-anchor="start" x="128.5" y="-599" font-family="Helvetica,sans-Serif" font-size="10.00">+</text>
<text text-anchor="start" x="141.5" y="-599" font-family="Helvetica,sans-Serif" font-size="10.00">TAG_KEEP_ON_DEATH</text>
<text text-anchor="start" x="128.5" y="-584" font-family="Helvetica,sans-Serif" font-size="10.00">#</text>
<text text-anchor="start" x="141.5" y="-584" font-family="Helvetica,sans-Serif" font-size="10.00">$canDestroy</text>
<text text-anchor="start" x="128.5" y="-569" font-family="Helvetica,sans-Serif" font-size="10.00">#</text>
<text text-anchor="start" x="141.5" y="-569" font-family="Helvetica,sans-Serif" font-size="10.00">$canPlaceOn</text>
<text text-anchor="start" x="128.5" y="-554" font-family="Helvetica,sans-Serif" font-size="10.00">#</text>
<text text-anchor="start" x="141.5" y="-554" font-family="Helvetica,sans-Serif" font-size="10.00">$count</text>
<text text-anchor="start" x="128.5" y="-539" font-family="Helvetica,sans-Serif" font-size="10.00">#</text>
<text text-anchor="start" x="141.5" y="-539" font-family="Helvetica,sans-Serif" font-size="10.00">$customName</text>
<text text-anchor="start" x="128.5" y="-524" font-family="Helvetica,sans-Serif" font-size="10.00">#</text>
<text text-anchor="start" x="141.5" y="-524" font-family="Helvetica,sans-Serif" font-size="10.00">$keepOnDeath</text>
<text text-anchor="start" x="128.5" y="-509" font-family="Helvetica,sans-Serif" font-size="10.00">#</text>
<text text-anchor="start" x="141.5" y="-509" font-family="Helvetica,sans-Serif" font-size="10.00">$lore</text>
<text text-anchor="start" x="128.5" y="-494" font-family="Helvetica,sans-Serif" font-size="10.00">+</text>
<text text-anchor="start" x="141.5" y="-494" font-family="Helvetica,sans-Serif" font-size="10.00">__construct()</text>
<text text-anchor="start" x="128.5" y="-479" font-family="Helvetica,sans-Serif" font-size="10.00">+</text>
<text text-anchor="start" x="141.5" y="-479" font-family="Helvetica,sans-Serif" font-size="10.00">__clone()</text>
<text text-anchor="start" x="128.5" y="-464" font-family="Helvetica,sans-Serif" font-size="10.00">+</text>
<text text-anchor="start" x="141.5" y="-464" font-family="Helvetica,sans-Serif" font-size="10.00">__toString()</text>
<text text-anchor="start" x="128.5" y="-449" font-family="Helvetica,sans-Serif" font-size="10.00">+</text>
<text text-anchor="start" x="141.5" y="-449" font-family="Helvetica,sans-Serif" font-size="10.00">canBePlaced()</text>
<text text-anchor="start" x="128.5" y="-434" font-family="Helvetica,sans-Serif" font-size="10.00">+</text>
<text text-anchor="start" x="141.5" y="-434" font-family="Helvetica,sans-Serif" font-size="10.00">canStackWith()</text>
<text text-anchor="start" x="128.5" y="-419" font-family="Helvetica,sans-Serif" font-size="10.00">+</text>
<text text-anchor="start" x="141.5" y="-419" font-family="Helvetica,sans-Serif" font-size="10.00">clearCustomBlockData()</text>
<text text-anchor="start" x="128.5" y="-404" font-family="Helvetica,sans-Serif" font-size="10.00">+</text>
<text text-anchor="start" x="141.5" y="-404" font-family="Helvetica,sans-Serif" font-size="10.00">clearCustomName()</text>
<text text-anchor="start" x="128.5" y="-389" font-family="Helvetica,sans-Serif" font-size="10.00">+</text>
<text text-anchor="start" x="141.5" y="-389" font-family="Helvetica,sans-Serif" font-size="10.00">clearNamedTag()</text>
<text text-anchor="start" x="128.5" y="-374" font-family="Helvetica,sans-Serif" font-size="10.00">+</text>
<text text-anchor="start" x="141.5" y="-374" font-family="Helvetica,sans-Serif" font-size="10.00">equals()</text>
<text text-anchor="start" x="128.5" y="-359" font-family="Helvetica,sans-Serif" font-size="10.00">+</text>
<text text-anchor="start" x="141.5" y="-359" font-family="Helvetica,sans-Serif" font-size="10.00">equalsExact()</text>
<text text-anchor="start" x="141.5" y="-344" font-family="Helvetica,sans-Serif" font-size="10.00">and 49 more...</text>
<text text-anchor="start" x="128.5" y="-329" font-family="Helvetica,sans-Serif" font-size="10.00">+</text>
<text text-anchor="start" x="141.5" y="-329" font-family="Helvetica,sans-Serif" font-size="10.00">legacyJsonDeserialize()</text>
<text text-anchor="start" x="128.5" y="-314" font-family="Helvetica,sans-Serif" font-size="10.00">+</text>
<text text-anchor="start" x="141.5" y="-314" font-family="Helvetica,sans-Serif" font-size="10.00">nbtDeserialize()</text>
<text text-anchor="start" x="128.5" y="-299" font-family="Helvetica,sans-Serif" font-size="10.00">#</text>
<text text-anchor="start" x="141.5" y="-299" font-family="Helvetica,sans-Serif" font-size="10.00">describeState()</text>
<text text-anchor="start" x="128.5" y="-284" font-family="Helvetica,sans-Serif" font-size="10.00">#</text>
<text text-anchor="start" x="141.5" y="-284" font-family="Helvetica,sans-Serif" font-size="10.00">deserializeCompoundTag()</text>
<text text-anchor="start" x="128.5" y="-269" font-family="Helvetica,sans-Serif" font-size="10.00">#</text>
<text text-anchor="start" x="141.5" y="-269" font-family="Helvetica,sans-Serif" font-size="10.00">serializeCompoundTag()</text>
<text text-anchor="start" x="128.5" y="-254" font-family="Helvetica,sans-Serif" font-size="10.00">#</text>
<text text-anchor="start" x="141.5" y="-254" font-family="Helvetica,sans-Serif" font-size="10.00">tryPlacementTransaction()</text>
<polygon fill="#bfbfbf" stroke="#bfbfbf" points="124.5,-684 124.5,-684 275.5,-684 275.5,-684 124.5,-684"/>
<polygon fill="#bfbfbf" stroke="#bfbfbf" points="124.5,-504 124.5,-504 139.5,-504 139.5,-504 124.5,-504"/>
<polygon fill="#bfbfbf" stroke="#bfbfbf" points="139.5,-504 139.5,-504 275.5,-504 275.5,-504 139.5,-504"/>
<polygon fill="none" stroke="#bfbfbf" points="124,-247 124,-701 275,-701 275,-247 124,-247"/>
</a>
</g>
</g>
<!-- Node3&#45;&gt;Node2 -->
<g id="edge2_Node000002_Node000003" class="edge">
<title>Node3&#45;&gt;Node2</title>
<g id="a_edge2_Node000002_Node000003"><a xlink:title=" ">
<path fill="none" stroke="#63b8ff" d="M266.59,-237.08C269.3,-227.54 271.87,-218.5 274.24,-210.16"/>
<polygon fill="none" stroke="#63b8ff" points="263.2,-236.2 263.83,-246.77 269.93,-238.11 263.2,-236.2"/>
</a>
</g>
</g>
<!-- Node4 -->
<g id="Node000004" class="node">
<title>Node4</title>
<g id="a_Node000004"><a xlink:title=" ">
<polygon fill="white" stroke="transparent" points="124.5,-915 36.5,-915 36.5,-866 124.5,-866 124.5,-915"/>
<text text-anchor="start" x="41.5" y="-902.5" font-family="Helvetica,sans-Serif" font-size="10.00">JsonSerializable</text>
<text text-anchor="start" x="78.5" y="-887.5" font-family="Helvetica,sans-Serif" font-size="10.00"> </text>
<text text-anchor="start" x="78.5" y="-872.5" font-family="Helvetica,sans-Serif" font-size="10.00"> </text>
<polygon fill="#bfbfbf" stroke="#bfbfbf" points="36.5,-897.5 36.5,-897.5 124.5,-897.5 124.5,-897.5 36.5,-897.5"/>
<polygon fill="#bfbfbf" stroke="#bfbfbf" points="36.5,-882.5 36.5,-882.5 124.5,-882.5 124.5,-882.5 36.5,-882.5"/>
<polygon fill="none" stroke="#bfbfbf" points="36.5,-866 36.5,-915 124.5,-915 124.5,-866 36.5,-866"/>
</a>
</g>
</g>
<!-- Node4&#45;&gt;Node3 -->
<g id="edge3_Node000003_Node000004" class="edge">
<title>Node4&#45;&gt;Node3</title>
<g id="a_edge3_Node000003_Node000004"><a xlink:title=" ">
<path fill="none" stroke="#63b8ff" d="M90.12,-855.99C100.24,-820.73 117.11,-761.99 134.6,-701.07"/>
<polygon fill="none" stroke="#63b8ff" points="86.72,-855.15 87.33,-865.73 93.45,-857.08 86.72,-855.15"/>
</a>
</g>
</g>
<!-- Node5 -->
<g id="Node000005" class="node">
<title>Node5</title>
<g id="a_Node000005"><a xlink:href="../../de/d67/classpocketmine_1_1nbt_1_1tag_1_1_compound_tag.html" target="_top" xlink:title=" ">
<polygon fill="white" stroke="transparent" points="256.5,-1033 142.5,-1033 142.5,-748 256.5,-748 256.5,-1033"/>
<text text-anchor="start" x="152" y="-1020.5" font-family="Helvetica,sans-Serif" font-size="10.00">pocketmine\nbt\tag</text>
<text text-anchor="start" x="163" y="-1009.5" font-family="Helvetica,sans-Serif" font-size="10.00">\CompoundTag</text>
<text text-anchor="start" x="197.5" y="-994.5" font-family="Helvetica,sans-Serif" font-size="10.00"> </text>
<text text-anchor="start" x="146.5" y="-979.5" font-family="Helvetica,sans-Serif" font-size="10.00">+</text>
<text text-anchor="start" x="159.5" y="-979.5" font-family="Helvetica,sans-Serif" font-size="10.00">__construct()</text>
<text text-anchor="start" x="146.5" y="-964.5" font-family="Helvetica,sans-Serif" font-size="10.00">+</text>
<text text-anchor="start" x="159.5" y="-964.5" font-family="Helvetica,sans-Serif" font-size="10.00">__clone()</text>
<text text-anchor="start" x="146.5" y="-949.5" font-family="Helvetica,sans-Serif" font-size="10.00">+</text>
<text text-anchor="start" x="159.5" y="-949.5" font-family="Helvetica,sans-Serif" font-size="10.00">count()</text>
<text text-anchor="start" x="146.5" y="-934.5" font-family="Helvetica,sans-Serif" font-size="10.00">+</text>
<text text-anchor="start" x="159.5" y="-934.5" font-family="Helvetica,sans-Serif" font-size="10.00">equals()</text>
<text text-anchor="start" x="146.5" y="-919.5" font-family="Helvetica,sans-Serif" font-size="10.00">+</text>
<text text-anchor="start" x="159.5" y="-919.5" font-family="Helvetica,sans-Serif" font-size="10.00">getByte()</text>
<text text-anchor="start" x="146.5" y="-904.5" font-family="Helvetica,sans-Serif" font-size="10.00">+</text>
<text text-anchor="start" x="159.5" y="-904.5" font-family="Helvetica,sans-Serif" font-size="10.00">getByteArray()</text>
<text text-anchor="start" x="146.5" y="-889.5" font-family="Helvetica,sans-Serif" font-size="10.00">+</text>
<text text-anchor="start" x="159.5" y="-889.5" font-family="Helvetica,sans-Serif" font-size="10.00">getCompoundTag()</text>
<text text-anchor="start" x="146.5" y="-874.5" font-family="Helvetica,sans-Serif" font-size="10.00">+</text>
<text text-anchor="start" x="159.5" y="-874.5" font-family="Helvetica,sans-Serif" font-size="10.00">getCount()</text>
<text text-anchor="start" x="146.5" y="-859.5" font-family="Helvetica,sans-Serif" font-size="10.00">+</text>
<text text-anchor="start" x="159.5" y="-859.5" font-family="Helvetica,sans-Serif" font-size="10.00">getDouble()</text>
<text text-anchor="start" x="146.5" y="-844.5" font-family="Helvetica,sans-Serif" font-size="10.00">+</text>
<text text-anchor="start" x="159.5" y="-844.5" font-family="Helvetica,sans-Serif" font-size="10.00">getFloat()</text>
<text text-anchor="start" x="159.5" y="-829.5" font-family="Helvetica,sans-Serif" font-size="10.00">and 23 more...</text>
<text text-anchor="start" x="146.5" y="-814.5" font-family="Helvetica,sans-Serif" font-size="10.00">+</text>
<text text-anchor="start" x="159.5" y="-814.5" font-family="Helvetica,sans-Serif" font-size="10.00">create()</text>
<text text-anchor="start" x="146.5" y="-799.5" font-family="Helvetica,sans-Serif" font-size="10.00">+</text>
<text text-anchor="start" x="159.5" y="-799.5" font-family="Helvetica,sans-Serif" font-size="10.00">read()</text>
<text text-anchor="start" x="146.5" y="-784.5" font-family="Helvetica,sans-Serif" font-size="10.00">#</text>
<text text-anchor="start" x="159.5" y="-784.5" font-family="Helvetica,sans-Serif" font-size="10.00">getTypeName()</text>
<text text-anchor="start" x="146.5" y="-769.5" font-family="Helvetica,sans-Serif" font-size="10.00">#</text>
<text text-anchor="start" x="159.5" y="-769.5" font-family="Helvetica,sans-Serif" font-size="10.00">makeCopy()</text>
<text text-anchor="start" x="146.5" y="-754.5" font-family="Helvetica,sans-Serif" font-size="10.00">#</text>
<text text-anchor="start" x="159.5" y="-754.5" font-family="Helvetica,sans-Serif" font-size="10.00">stringifyValue()</text>
<polygon fill="#666666" stroke="#666666" points="142.5,-1004.5 142.5,-1004.5 256.5,-1004.5 256.5,-1004.5 142.5,-1004.5"/>
<polygon fill="#666666" stroke="#666666" points="142.5,-989.5 142.5,-989.5 256.5,-989.5 256.5,-989.5 142.5,-989.5"/>
<polygon fill="none" stroke="#666666" points="142.5,-748 142.5,-1033 256.5,-1033 256.5,-748 142.5,-748"/>
</a>
</g>
</g>
<!-- Node5&#45;&gt;Node3 -->
<g id="edge4_Node000003_Node000005" class="edge">
<title>Node5&#45;&gt;Node3</title>
<g id="a_edge4_Node000003_Node000005"><a xlink:title=" ">
<path fill="none" stroke="#63b8ff" d="M199.5,-747.72C199.5,-736.5 199.5,-724.99 199.5,-713.35"/>
<polygon fill="none" stroke="#63b8ff" points="199.5,-713.17 195.5,-707.17 199.5,-701.17 203.5,-707.17 199.5,-713.17"/>
</a>
</g>
<text text-anchor="middle" x="244" y="-722" font-family="Helvetica,sans-Serif" font-size="10.00" fill="grey"> #$blockEntityTag</text>
</g>
<!-- Node6 -->
<g id="Node000006" class="node">
<title>Node6</title>
<g id="a_Node000006"><a xlink:href="../../dc/d26/classpocketmine_1_1nbt_1_1tag_1_1_tag.html" target="_top" xlink:title=" ">
<polygon fill="white" stroke="transparent" points="125,-1269 0,-1269 0,-1070 125,-1070 125,-1269"/>
<text text-anchor="start" x="5.5" y="-1256.5" font-family="Helvetica,sans-Serif" font-size="10.00">pocketmine\nbt\tag\Tag</text>
<text text-anchor="start" x="8.5" y="-1241.5" font-family="Helvetica,sans-Serif" font-size="10.00">#</text>
<text text-anchor="start" x="25.5" y="-1241.5" font-family="Helvetica,sans-Serif" font-size="10.00">$cloning</text>
<text text-anchor="start" x="8.5" y="-1226.5" font-family="Helvetica,sans-Serif" font-size="10.00">+</text>
<text text-anchor="start" x="25.5" y="-1226.5" font-family="Helvetica,sans-Serif" font-size="10.00">__toString()</text>
<text text-anchor="start" x="8.5" y="-1211.5" font-family="Helvetica,sans-Serif" font-size="10.00">+</text>
<text text-anchor="start" x="25.5" y="-1211.5" font-family="Helvetica,sans-Serif" font-size="10.00">equals()</text>
<text text-anchor="start" x="8.5" y="-1196.5" font-family="Helvetica,sans-Serif" font-size="10.00">+</text>
<text text-anchor="start" x="25.5" y="-1196.5" font-family="Helvetica,sans-Serif" font-size="10.00">getType()</text>
<text text-anchor="start" x="8.5" y="-1181.5" font-family="Helvetica,sans-Serif" font-size="10.00">+</text>
<text text-anchor="start" x="25.5" y="-1181.5" font-family="Helvetica,sans-Serif" font-size="10.00">getValue()</text>
<text text-anchor="start" x="8.5" y="-1166.5" font-family="Helvetica,sans-Serif" font-size="10.00">+</text>
<text text-anchor="start" x="25.5" y="-1166.5" font-family="Helvetica,sans-Serif" font-size="10.00">safeClone()</text>
<text text-anchor="start" x="8.5" y="-1151.5" font-family="Helvetica,sans-Serif" font-size="10.00">+</text>
<text text-anchor="start" x="25.5" y="-1151.5" font-family="Helvetica,sans-Serif" font-size="10.00">toString()</text>
<text text-anchor="start" x="8.5" y="-1136.5" font-family="Helvetica,sans-Serif" font-size="10.00">+</text>
<text text-anchor="start" x="25.5" y="-1136.5" font-family="Helvetica,sans-Serif" font-size="10.00">write()</text>
<text text-anchor="start" x="8.5" y="-1121.5" font-family="Helvetica,sans-Serif" font-size="10.00">#</text>
<text text-anchor="start" x="25.5" y="-1121.5" font-family="Helvetica,sans-Serif" font-size="10.00">getTypeName()</text>
<text text-anchor="start" x="8.5" y="-1106.5" font-family="Helvetica,sans-Serif" font-size="10.00">#</text>
<text text-anchor="start" x="25.5" y="-1106.5" font-family="Helvetica,sans-Serif" font-size="10.00">makeCopy()</text>
<text text-anchor="start" x="8.5" y="-1091.5" font-family="Helvetica,sans-Serif" font-size="10.00">#</text>
<text text-anchor="start" x="25.5" y="-1091.5" font-family="Helvetica,sans-Serif" font-size="10.00">stringifyValue()</text>
<text text-anchor="start" x="8.5" y="-1076.5" font-family="Helvetica,sans-Serif" font-size="10.00">#</text>
<text text-anchor="start" x="25.5" y="-1076.5" font-family="Helvetica,sans-Serif" font-size="10.00">restrictArgCount()</text>
<polygon fill="#bfbfbf" stroke="#bfbfbf" points="0.5,-1251.5 0.5,-1251.5 125.5,-1251.5 125.5,-1251.5 0.5,-1251.5"/>
<polygon fill="#bfbfbf" stroke="#bfbfbf" points="0.5,-1236.5 0.5,-1236.5 23.5,-1236.5 23.5,-1236.5 0.5,-1236.5"/>
<polygon fill="#bfbfbf" stroke="#bfbfbf" points="23.5,-1236.5 23.5,-1236.5 125.5,-1236.5 125.5,-1236.5 23.5,-1236.5"/>
<polygon fill="none" stroke="#bfbfbf" points="0,-1070 0,-1269 125,-1269 125,-1070 0,-1070"/>
</a>
</g>
</g>
<!-- Node6&#45;&gt;Node5 -->
<g id="edge5_Node000005_Node000006" class="edge">
<title>Node6&#45;&gt;Node5</title>
<g id="a_edge5_Node000005_Node000006"><a xlink:title=" ">
<path fill="none" stroke="#63b8ff" d="M119.43,-1060.95C124.25,-1051.52 128.99,-1042.11 133.5,-1033 136.45,-1027.05 139.43,-1020.94 142.42,-1014.76"/>
<polygon fill="none" stroke="#63b8ff" points="116.25,-1059.48 114.8,-1069.98 122.48,-1062.67 116.25,-1059.48"/>
</a>
</g>
</g>
<!-- Node7 -->
<g id="Node000007" class="node">
<title>Node7</title>
<g id="a_Node000007"><a xlink:title=" ">
<polygon fill="white" stroke="transparent" points="203.5,-1194 143.5,-1194 143.5,-1145 203.5,-1145 203.5,-1194"/>
<text text-anchor="start" x="148.5" y="-1181.5" font-family="Helvetica,sans-Serif" font-size="10.00">Countable</text>
<text text-anchor="start" x="171.5" y="-1166.5" font-family="Helvetica,sans-Serif" font-size="10.00"> </text>
<text text-anchor="start" x="171.5" y="-1151.5" font-family="Helvetica,sans-Serif" font-size="10.00"> </text>
<polygon fill="#bfbfbf" stroke="#bfbfbf" points="143.5,-1176.5 143.5,-1176.5 203.5,-1176.5 203.5,-1176.5 143.5,-1176.5"/>
<polygon fill="#bfbfbf" stroke="#bfbfbf" points="143.5,-1161.5 143.5,-1161.5 203.5,-1161.5 203.5,-1161.5 143.5,-1161.5"/>
<polygon fill="none" stroke="#bfbfbf" points="143.5,-1145 143.5,-1194 203.5,-1194 203.5,-1145 143.5,-1145"/>
</a>
</g>
</g>
<!-- Node7&#45;&gt;Node5 -->
<g id="edge6_Node000005_Node000007" class="edge">
<title>Node7&#45;&gt;Node5</title>
<g id="a_edge6_Node000005_Node000007"><a xlink:title=" ">
<path fill="none" stroke="#63b8ff" d="M176.66,-1134.88C179.09,-1108.99 182.62,-1071.3 186.19,-1033.28"/>
<polygon fill="none" stroke="#63b8ff" points="173.17,-1134.6 175.72,-1144.88 180.14,-1135.25 173.17,-1134.6"/>
</a>
</g>
</g>
<!-- Node8 -->
<g id="Node000008" class="node">
<title>Node8</title>
<g id="a_Node000008"><a xlink:title=" ">
<polygon fill="white" stroke="transparent" points="319,-1194 222,-1194 222,-1145 319,-1145 319,-1194"/>
<text text-anchor="start" x="227.5" y="-1181.5" font-family="Helvetica,sans-Serif" font-size="10.00">IteratorAggregate</text>
<text text-anchor="start" x="269" y="-1166.5" font-family="Helvetica,sans-Serif" font-size="10.00"> </text>
<text text-anchor="start" x="269" y="-1151.5" font-family="Helvetica,sans-Serif" font-size="10.00"> </text>
<polygon fill="#bfbfbf" stroke="#bfbfbf" points="222.5,-1176.5 222.5,-1176.5 319.5,-1176.5 319.5,-1176.5 222.5,-1176.5"/>
<polygon fill="#bfbfbf" stroke="#bfbfbf" points="222.5,-1161.5 222.5,-1161.5 319.5,-1161.5 319.5,-1161.5 222.5,-1161.5"/>
<polygon fill="none" stroke="#bfbfbf" points="222,-1145 222,-1194 319,-1194 319,-1145 222,-1145"/>
</a>
</g>
</g>
<!-- Node8&#45;&gt;Node5 -->
<g id="edge7_Node000005_Node000008" class="edge">
<title>Node8&#45;&gt;Node5</title>
<g id="a_edge7_Node000005_Node000008"><a xlink:title=" ">
<path fill="none" stroke="#63b8ff" d="M261.88,-1134.88C255.25,-1108.99 245.59,-1071.3 235.84,-1033.28"/>
<polygon fill="none" stroke="#63b8ff" points="258.57,-1136.07 264.45,-1144.88 265.35,-1134.33 258.57,-1136.07"/>
</a>
</g>
</g>
<!-- Node9 -->
<g id="Node000009" class="node">
<title>Node9</title>
<g id="a_Node000009"><a xlink:href="../../de/d44/interfacepocketmine_1_1item_1_1_food_source_item.html" target="_top" xlink:title=" ">
<polygon fill="white" stroke="transparent" points="497,-498.5 322,-498.5 322,-449.5 497,-449.5 497,-498.5"/>
<text text-anchor="start" x="327.5" y="-486" font-family="Helvetica,sans-Serif" font-size="10.00">pocketmine\item\FoodSourceItem</text>
<text text-anchor="start" x="408" y="-471" font-family="Helvetica,sans-Serif" font-size="10.00"> </text>
<text text-anchor="start" x="408" y="-456" font-family="Helvetica,sans-Serif" font-size="10.00"> </text>
<polygon fill="#bfbfbf" stroke="#bfbfbf" points="322.5,-481 322.5,-481 497.5,-481 497.5,-481 322.5,-481"/>
<polygon fill="#bfbfbf" stroke="#bfbfbf" points="322.5,-466 322.5,-466 497.5,-466 497.5,-466 322.5,-466"/>
<polygon fill="none" stroke="#bfbfbf" points="322,-449.5 322,-498.5 497,-498.5 497,-449.5 322,-449.5"/>
</a>
</g>
</g>
<!-- Node9&#45;&gt;Node2 -->
<g id="edge8_Node000002_Node000009" class="edge">
<title>Node9&#45;&gt;Node2</title>
<g id="a_edge8_Node000002_Node000009"><a xlink:title=" ">
<path fill="none" stroke="#63b8ff" d="M396.97,-439.95C376.29,-385.41 334.83,-276.06 309.89,-210.27"/>
<polygon fill="none" stroke="#63b8ff" points="393.76,-441.36 400.58,-449.47 400.31,-438.88 393.76,-441.36"/>
</a>
</g>
</g>
<!-- Node10 -->
<g id="Node000010" class="node">
<title>Node10</title>
<g id="a_Node000010"><a xlink:href="../../d2/de2/interfacepocketmine_1_1item_1_1_consumable_item.html" target="_top" xlink:title=" ">
<polygon fill="white" stroke="transparent" points="499,-915 320,-915 320,-866 499,-866 499,-915"/>
<text text-anchor="start" x="325.5" y="-902.5" font-family="Helvetica,sans-Serif" font-size="10.00">pocketmine\item\ConsumableItem</text>
<text text-anchor="start" x="408" y="-887.5" font-family="Helvetica,sans-Serif" font-size="10.00"> </text>
<text text-anchor="start" x="348" y="-872.5" font-family="Helvetica,sans-Serif" font-size="10.00">+</text>
<text text-anchor="start" x="384.5" y="-872.5" font-family="Helvetica,sans-Serif" font-size="10.00">getResidue()</text>
<polygon fill="#666666" stroke="#666666" points="320.5,-897.5 320.5,-897.5 499.5,-897.5 499.5,-897.5 320.5,-897.5"/>
<polygon fill="#666666" stroke="#666666" points="320.5,-882.5 320.5,-882.5 499.5,-882.5 499.5,-882.5 320.5,-882.5"/>
<polygon fill="none" stroke="#666666" points="320,-866 320,-915 499,-915 499,-866 320,-866"/>
</a>
</g>
</g>
<!-- Node10&#45;&gt;Node9 -->
<g id="edge9_Node000009_Node000010" class="edge">
<title>Node10&#45;&gt;Node9</title>
<g id="a_edge9_Node000009_Node000010"><a xlink:title=" ">
<path fill="none" stroke="#63b8ff" d="M409.5,-855.51C409.5,-773.9 409.5,-568.52 409.5,-498.68"/>
<polygon fill="none" stroke="#63b8ff" points="406,-855.73 409.5,-865.73 413,-855.73 406,-855.73"/>
</a>
</g>
</g>
<!-- Node11 -->
<g id="Node000011" class="node">
<title>Node11</title>
<g id="a_Node000011"><a xlink:href="../../db/d3f/interfacepocketmine_1_1entity_1_1_consumable.html" target="_top" xlink:title=" ">
<polygon fill="white" stroke="transparent" points="675,-1201.5 512,-1201.5 512,-1137.5 675,-1137.5 675,-1201.5"/>
<text text-anchor="start" x="517.5" y="-1189.5" font-family="Helvetica,sans-Serif" font-size="10.00">pocketmine\entity\Consumable</text>
<text text-anchor="start" x="592" y="-1174.5" font-family="Helvetica,sans-Serif" font-size="10.00"> </text>
<text text-anchor="start" x="525.5" y="-1159.5" font-family="Helvetica,sans-Serif" font-size="10.00">+</text>
<text text-anchor="start" x="547.5" y="-1159.5" font-family="Helvetica,sans-Serif" font-size="10.00">getAdditionalEffects()</text>
<text text-anchor="start" x="525.5" y="-1144.5" font-family="Helvetica,sans-Serif" font-size="10.00">+</text>
<text text-anchor="start" x="547.5" y="-1144.5" font-family="Helvetica,sans-Serif" font-size="10.00">onConsume()</text>
<polygon fill="#666666" stroke="#666666" points="512.5,-1184.5 512.5,-1184.5 675.5,-1184.5 675.5,-1184.5 512.5,-1184.5"/>
<polygon fill="#666666" stroke="#666666" points="512.5,-1169.5 512.5,-1169.5 675.5,-1169.5 675.5,-1169.5 512.5,-1169.5"/>
<polygon fill="none" stroke="#666666" points="512,-1137.5 512,-1201.5 675,-1201.5 675,-1137.5 512,-1137.5"/>
</a>
</g>
</g>
<!-- Node11&#45;&gt;Node10 -->
<g id="edge10_Node000010_Node000011" class="edge">
<title>Node11&#45;&gt;Node10</title>
<g id="a_edge10_Node000010_Node000011"><a xlink:title=" ">
<path fill="none" stroke="#63b8ff" d="M567.02,-1128.64C528.09,-1070.03 456.61,-962.42 425.11,-915"/>
<polygon fill="none" stroke="#63b8ff" points="564.3,-1130.87 572.75,-1137.26 570.13,-1127 564.3,-1130.87"/>
</a>
</g>
</g>
<!-- Node13 -->
<g id="Node000013" class="node">
<title>Node13</title>
<g id="a_Node000013"><a xlink:href="../../df/dfd/interfacepocketmine_1_1entity_1_1_food_source.html" target="_top" xlink:title=" ">
<polygon fill="white" stroke="transparent" points="675.5,-930 517.5,-930 517.5,-851 675.5,-851 675.5,-930"/>
<text text-anchor="start" x="522.5" y="-917.5" font-family="Helvetica,sans-Serif" font-size="10.00">pocketmine\entity\FoodSource</text>
<text text-anchor="start" x="594.5" y="-902.5" font-family="Helvetica,sans-Serif" font-size="10.00"> </text>
<text text-anchor="start" x="527.5" y="-887.5" font-family="Helvetica,sans-Serif" font-size="10.00">+</text>
<text text-anchor="start" x="546.5" y="-887.5" font-family="Helvetica,sans-Serif" font-size="10.00">getFoodRestore()</text>
<text text-anchor="start" x="527.5" y="-872.5" font-family="Helvetica,sans-Serif" font-size="10.00">+</text>
<text text-anchor="start" x="546.5" y="-872.5" font-family="Helvetica,sans-Serif" font-size="10.00">getSaturationRestore()</text>
<text text-anchor="start" x="527.5" y="-857.5" font-family="Helvetica,sans-Serif" font-size="10.00">+</text>
<text text-anchor="start" x="546.5" y="-857.5" font-family="Helvetica,sans-Serif" font-size="10.00">requiresHunger()</text>
<polygon fill="#666666" stroke="#666666" points="517.5,-912.5 517.5,-912.5 675.5,-912.5 675.5,-912.5 517.5,-912.5"/>
<polygon fill="#666666" stroke="#666666" points="517.5,-897.5 517.5,-897.5 675.5,-897.5 675.5,-897.5 517.5,-897.5"/>
<polygon fill="none" stroke="#666666" points="517.5,-851 517.5,-930 675.5,-930 675.5,-851 517.5,-851"/>
</a>
</g>
</g>
<!-- Node11&#45;&gt;Node13 -->
<g id="edge13_Node000013_Node000011" class="edge">
<title>Node11&#45;&gt;Node13</title>
<g id="a_edge13_Node000013_Node000011"><a xlink:title=" ">
<path fill="none" stroke="#63b8ff" d="M593.95,-1127.15C594.52,-1073.9 595.52,-982.06 596.08,-930.15"/>
<polygon fill="none" stroke="#63b8ff" points="590.45,-1127.23 593.84,-1137.26 597.45,-1127.3 590.45,-1127.23"/>
</a>
</g>
</g>
<!-- Node12 -->
<g id="Node000012" class="node">
<title>Node12</title>
<g id="a_Node000012"><a xlink:href="../../d4/d35/interfacepocketmine_1_1item_1_1_releasable.html" target="_top" xlink:title=" ">
<polygon fill="white" stroke="transparent" points="487.5,-1194 337.5,-1194 337.5,-1145 487.5,-1145 487.5,-1194"/>
<text text-anchor="start" x="342.5" y="-1181.5" font-family="Helvetica,sans-Serif" font-size="10.00">pocketmine\item\Releasable</text>
<text text-anchor="start" x="410.5" y="-1166.5" font-family="Helvetica,sans-Serif" font-size="10.00"> </text>
<text text-anchor="start" x="349" y="-1151.5" font-family="Helvetica,sans-Serif" font-size="10.00">+</text>
<text text-anchor="start" x="369.5" y="-1151.5" font-family="Helvetica,sans-Serif" font-size="10.00">canStartUsingItem()</text>
<polygon fill="#666666" stroke="#666666" points="337.5,-1176.5 337.5,-1176.5 487.5,-1176.5 487.5,-1176.5 337.5,-1176.5"/>
<polygon fill="#666666" stroke="#666666" points="337.5,-1161.5 337.5,-1161.5 487.5,-1161.5 487.5,-1161.5 337.5,-1161.5"/>
<polygon fill="none" stroke="#666666" points="337.5,-1145 337.5,-1194 487.5,-1194 487.5,-1145 337.5,-1145"/>
</a>
</g>
</g>
<!-- Node12&#45;&gt;Node10 -->
<g id="edge11_Node000010_Node000012" class="edge">
<title>Node12&#45;&gt;Node10</title>
<g id="a_edge11_Node000010_Node000012"><a xlink:title=" ">
<path fill="none" stroke="#63b8ff" d="M412.13,-1134.61C411.52,-1077.65 410.29,-964.17 409.76,-915.06"/>
<polygon fill="none" stroke="#63b8ff" points="408.64,-1134.92 412.24,-1144.88 415.64,-1134.85 408.64,-1134.92"/>
</a>
</g>
</g>
<!-- Node13&#45;&gt;Node9 -->
<g id="edge12_Node000009_Node000013" class="edge">
<title>Node13&#45;&gt;Node9</title>
<g id="a_edge12_Node000009_Node000013"><a xlink:title=" ">
<path fill="none" stroke="#63b8ff" d="M574.87,-841.56C534.76,-752.65 450.19,-565.19 420.27,-498.87"/>
<polygon fill="none" stroke="#63b8ff" points="571.77,-843.2 579.08,-850.88 578.15,-840.32 571.77,-843.2"/>
</a>
</g>
</g>
</g>
</svg>

<g id="navigator" transform="translate(0 0)" fill="#404254">
  <rect fill="#f2f5e9" fill-opacity="0.5" stroke="#606060" stroke-width=".5" x="0" y="0" width="60" height="60"/>
  <use id="zoomplus" xlink:href="#zoomPlus" x="17" y="9" onmousedown="handleZoom(evt,'in')"/>
  <use id="zoomminus" xlink:href="#zoomMin" x="42" y="9" onmousedown="handleZoom(evt,'out')"/>
  <use id="reset" xlink:href="#resetDef" x="30" y="36" onmousedown="handleReset()"/>
   <use id="arrowup" xlink:href="#arrowUp" x="0" y="0" onmousedown="handlePan(0,-1)"/>
  <use id="arrowright" xlink:href="#arrowRight" x="0" y="0" onmousedown="handlePan(1,0)"/>
  <use id="arrowdown" xlink:href="#arrowDown" x="0" y="0" onmousedown="handlePan(0,1)"/>
  <use id="arrowleft" xlink:href="#arrowLeft" x="0" y="0" onmousedown="handlePan(-1,0)"/>
</g>
<svg viewBox="0 0 15 15" width="100%" height="30px" preserveAspectRatio="xMaxYMin meet">
 <g id="arrow_out" transform="scale(0.3 0.3)">
  <a xlink:href="classpocketmine_1_1item_1_1_raw_beef__coll__graph_org.svg" target="_base">
   <rect id="button" ry="5" rx="5" y="6" x="6" height="38" width="38"
        fill="#f2f5e9" fill-opacity="0.5" stroke="#606060" stroke-width="1.0"/>
   <path id="arrow"
     d="M 11.500037,31.436501 C 11.940474,20.09759 22.043105,11.32322 32.158766,21.979434 L 37.068811,17.246167 C 37.068811,17.246167 37.088388,32 37.088388,32 L 22.160133,31.978069 C 22.160133,31.978069 26.997745,27.140456 26.997745,27.140456 C 18.528582,18.264221 13.291696,25.230495 11.500037,31.436501 z"
     style="fill:#404040;"/>
  </a>
 </g>
</svg>

<style type='text/css'>
<![CDATA[
[data-mouse-over-selected='false'] { opacity: 0.7; }
[data-mouse-over-selected='true']  { opacity: 1.0; }
]]>
</style>
<script type="application/ecmascript"><![CDATA[
document.addEventListener('DOMContentLoaded', (event) => {
  highlightEdges();
  highlightAdjacentNodes();
});
]]></script>
</svg>
