<?xml version="1.0" encoding="UTF-8" standalone="no"?>
<!DOCTYPE svg PUBLIC "-//W3C//DTD SVG 1.1//EN"
 "http://www.w3.org/Graphics/SVG/1.1/DTD/svg11.dtd">
<!-- Generated by graphviz version 2.43.0 (0)
 -->
<!-- Title: pocketmine\block\Podzol Pages: 1 -->
<svg width="178pt" height="474pt"
 viewBox="0.00 0.00 178.00 474.00" xmlns="http://www.w3.org/2000/svg" xmlns:xlink="http://www.w3.org/1999/xlink">
<g id="graph0" class="graph" transform="scale(1 1) rotate(0) translate(4 470)">
<title>pocketmine\block\Podzol</title>
<polygon fill="white" stroke="transparent" points="-4,4 -4,-470 174,-470 174,4 -4,4"/>
<!-- Node1 -->
<g id="node1" class="node">
<title>Node1</title>
<g id="a_node1"><a xlink:title=" ">
<polygon fill="#bfbfbf" stroke="black" points="0,-0.5 0,-57.5 170,-57.5 170,-0.5 0,-0.5"/>
<text text-anchor="middle" x="85" y="-45.5" font-family="Helvetica,sans-Serif" font-size="10.00">pocketmine\block\Podzol</text>
<polyline fill="none" stroke="black" points="0,-38.5 170,-38.5 "/>
<text text-anchor="middle" x="85" y="-26.5" font-family="Helvetica,sans-Serif" font-size="10.00"> </text>
<polyline fill="none" stroke="black" points="0,-19.5 170,-19.5 "/>
<text text-anchor="start" x="8" y="-7.5" font-family="Helvetica,sans-Serif" font-size="10.00">+ getDropsForCompatibleTool()</text>
</a>
</g>
</g>
<!-- Node2 -->
<g id="node2" class="node">
<title>Node2</title>
<g id="a_node2"><a xlink:href="../../db/dc5/classpocketmine_1_1block_1_1_opaque.html" target="_top" xlink:title=" ">
<polygon fill="white" stroke="#bfbfbf" points="13.5,-94.5 13.5,-151.5 156.5,-151.5 156.5,-94.5 13.5,-94.5"/>
<text text-anchor="middle" x="85" y="-139.5" font-family="Helvetica,sans-Serif" font-size="10.00">pocketmine\block\Opaque</text>
<polyline fill="none" stroke="#bfbfbf" points="13.5,-132.5 156.5,-132.5 "/>
<text text-anchor="middle" x="85" y="-120.5" font-family="Helvetica,sans-Serif" font-size="10.00"> </text>
<polyline fill="none" stroke="#bfbfbf" points="13.5,-113.5 156.5,-113.5 "/>
<text text-anchor="start" x="21.5" y="-101.5" font-family="Helvetica,sans-Serif" font-size="10.00">+ isSolid()</text>
</a>
</g>
</g>
<!-- Node2&#45;&gt;Node1 -->
<g id="edge1" class="edge">
<title>Node2&#45;&gt;Node1</title>
<path fill="none" stroke="midnightblue" d="M85,-84.21C85,-75.29 85,-65.95 85,-57.58"/>
<polygon fill="none" stroke="midnightblue" points="81.5,-84.4 85,-94.4 88.5,-84.4 81.5,-84.4"/>
</g>
<!-- Node3 -->
<g id="node3" class="node">
<title>Node3</title>
<g id="a_node3"><a xlink:href="../../d7/d27/classpocketmine_1_1block_1_1_block.html" target="_top" xlink:title=" ">
<polygon fill="white" stroke="#bfbfbf" points="1,-188.5 1,-465.5 169,-465.5 169,-188.5 1,-188.5"/>
<text text-anchor="middle" x="85" y="-453.5" font-family="Helvetica,sans-Serif" font-size="10.00">pocketmine\block\Block</text>
<polyline fill="none" stroke="#bfbfbf" points="1,-446.5 169,-446.5 "/>
<text text-anchor="start" x="9" y="-434.5" font-family="Helvetica,sans-Serif" font-size="10.00">+ INTERNAL_METADATA_BITS</text>
<text text-anchor="start" x="9" y="-423.5" font-family="Helvetica,sans-Serif" font-size="10.00">+ INTERNAL_METADATA_MASK</text>
<text text-anchor="start" x="9" y="-412.5" font-family="Helvetica,sans-Serif" font-size="10.00"># $breakInfo</text>
<text text-anchor="start" x="9" y="-401.5" font-family="Helvetica,sans-Serif" font-size="10.00"># $collisionBoxes</text>
<text text-anchor="start" x="9" y="-390.5" font-family="Helvetica,sans-Serif" font-size="10.00"># $fallbackName</text>
<text text-anchor="start" x="9" y="-379.5" font-family="Helvetica,sans-Serif" font-size="10.00"># $idInfo</text>
<text text-anchor="start" x="9" y="-368.5" font-family="Helvetica,sans-Serif" font-size="10.00"># $position</text>
<polyline fill="none" stroke="#bfbfbf" points="1,-361.5 169,-361.5 "/>
<text text-anchor="start" x="9" y="-349.5" font-family="Helvetica,sans-Serif" font-size="10.00">+ __construct()</text>
<text text-anchor="start" x="9" y="-338.5" font-family="Helvetica,sans-Serif" font-size="10.00">+ __clone()</text>
<text text-anchor="start" x="9" y="-327.5" font-family="Helvetica,sans-Serif" font-size="10.00">+ __toString()</text>
<text text-anchor="start" x="9" y="-316.5" font-family="Helvetica,sans-Serif" font-size="10.00">+ addVelocityToEntity()</text>
<text text-anchor="start" x="9" y="-305.5" font-family="Helvetica,sans-Serif" font-size="10.00">+ asItem()</text>
<text text-anchor="start" x="9" y="-294.5" font-family="Helvetica,sans-Serif" font-size="10.00">+ blocksDirectSkyLight()</text>
<text text-anchor="start" x="9" y="-283.5" font-family="Helvetica,sans-Serif" font-size="10.00">+ burnsForever()</text>
<text text-anchor="start" x="9" y="-272.5" font-family="Helvetica,sans-Serif" font-size="10.00">+ calculateIntercept()</text>
<text text-anchor="start" x="9" y="-261.5" font-family="Helvetica,sans-Serif" font-size="10.00">+ canBeFlowedInto()</text>
<text text-anchor="start" x="9" y="-250.5" font-family="Helvetica,sans-Serif" font-size="10.00">+ canBePlaced()</text>
<text text-anchor="start" x="9" y="-239.5" font-family="Helvetica,sans-Serif" font-size="10.00">and 57 more...</text>
<text text-anchor="start" x="9" y="-228.5" font-family="Helvetica,sans-Serif" font-size="10.00"># getXpDropAmount()</text>
<text text-anchor="start" x="9" y="-217.5" font-family="Helvetica,sans-Serif" font-size="10.00"># recalculateCollisionBoxes()</text>
<text text-anchor="start" x="9" y="-206.5" font-family="Helvetica,sans-Serif" font-size="10.00"># writeStateToItemMeta()</text>
<text text-anchor="start" x="9" y="-195.5" font-family="Helvetica,sans-Serif" font-size="10.00"># writeStateToMeta()</text>
</a>
</g>
</g>
<!-- Node3&#45;&gt;Node2 -->
<g id="edge2" class="edge">
<title>Node3&#45;&gt;Node2</title>
<path fill="none" stroke="midnightblue" d="M85,-178.41C85,-168.59 85,-159.52 85,-151.71"/>
<polygon fill="none" stroke="midnightblue" points="81.5,-178.47 85,-188.47 88.5,-178.47 81.5,-178.47"/>
</g>
</g>
</svg>
