<?xml version="1.0" encoding="UTF-8" standalone="no"?>
<!DOCTYPE svg PUBLIC "-//W3C//DTD SVG 1.1//EN"
 "http://www.w3.org/Graphics/SVG/1.1/DTD/svg11.dtd">
<!-- Generated by graphviz version 2.43.0 (0)
 -->
<!-- Title: pocketmine\command\PluginCommand Pages: 1 -->
<svg width="344pt" height="369pt"
 viewBox="0.00 0.00 343.50 369.00" xmlns="http://www.w3.org/2000/svg" xmlns:xlink="http://www.w3.org/1999/xlink">
<g id="graph0" class="graph" transform="scale(1 1) rotate(0) translate(4 365)">
<title>pocketmine\command\PluginCommand</title>
<polygon fill="white" stroke="transparent" points="-4,4 -4,-365 339.5,-365 339.5,4 -4,4"/>
<!-- Node1 -->
<g id="node1" class="node">
<title>Node1</title>
<g id="a_node1"><a xlink:title=" ">
<polygon fill="#bfbfbf" stroke="black" points="114,-0.5 114,-112.5 239,-112.5 239,-0.5 114,-0.5"/>
<text text-anchor="start" x="122" y="-100.5" font-family="Helvetica,sans-Serif" font-size="10.00">pocketmine\command</text>
<text text-anchor="middle" x="176.5" y="-89.5" font-family="Helvetica,sans-Serif" font-size="10.00">\PluginCommand</text>
<polyline fill="none" stroke="black" points="114,-82.5 239,-82.5 "/>
<text text-anchor="middle" x="176.5" y="-70.5" font-family="Helvetica,sans-Serif" font-size="10.00"> </text>
<polyline fill="none" stroke="black" points="114,-63.5 239,-63.5 "/>
<text text-anchor="start" x="122" y="-51.5" font-family="Helvetica,sans-Serif" font-size="10.00">+ __construct()</text>
<text text-anchor="start" x="122" y="-40.5" font-family="Helvetica,sans-Serif" font-size="10.00">+ execute()</text>
<text text-anchor="start" x="122" y="-29.5" font-family="Helvetica,sans-Serif" font-size="10.00">+ getExecutor()</text>
<text text-anchor="start" x="122" y="-18.5" font-family="Helvetica,sans-Serif" font-size="10.00">+ getOwningPlugin()</text>
<text text-anchor="start" x="122" y="-7.5" font-family="Helvetica,sans-Serif" font-size="10.00">+ setExecutor()</text>
</a>
</g>
</g>
<!-- Node2 -->
<g id="node2" class="node">
<title>Node2</title>
<g id="a_node2"><a xlink:href="../../d6/df1/classpocketmine_1_1command_1_1_command.html" target="_top" xlink:title=" ">
<polygon fill="white" stroke="#bfbfbf" points="0,-149.5 0,-360.5 177,-360.5 177,-149.5 0,-149.5"/>
<text text-anchor="start" x="8" y="-348.5" font-family="Helvetica,sans-Serif" font-size="10.00">pocketmine\command</text>
<text text-anchor="middle" x="88.5" y="-337.5" font-family="Helvetica,sans-Serif" font-size="10.00">\Command</text>
<polyline fill="none" stroke="#bfbfbf" points="0,-330.5 177,-330.5 "/>
<text text-anchor="start" x="8" y="-318.5" font-family="Helvetica,sans-Serif" font-size="10.00">+ $timings</text>
<text text-anchor="start" x="8" y="-307.5" font-family="Helvetica,sans-Serif" font-size="10.00"># $description</text>
<text text-anchor="start" x="8" y="-296.5" font-family="Helvetica,sans-Serif" font-size="10.00"># $usageMessage</text>
<polyline fill="none" stroke="#bfbfbf" points="0,-289.5 177,-289.5 "/>
<text text-anchor="start" x="8" y="-277.5" font-family="Helvetica,sans-Serif" font-size="10.00">+ __construct()</text>
<text text-anchor="start" x="8" y="-266.5" font-family="Helvetica,sans-Serif" font-size="10.00">+ __toString()</text>
<text text-anchor="start" x="8" y="-255.5" font-family="Helvetica,sans-Serif" font-size="10.00">+ execute()</text>
<text text-anchor="start" x="8" y="-244.5" font-family="Helvetica,sans-Serif" font-size="10.00">+ getAliases()</text>
<text text-anchor="start" x="8" y="-233.5" font-family="Helvetica,sans-Serif" font-size="10.00">+ getDescription()</text>
<text text-anchor="start" x="8" y="-222.5" font-family="Helvetica,sans-Serif" font-size="10.00">+ getLabel()</text>
<text text-anchor="start" x="8" y="-211.5" font-family="Helvetica,sans-Serif" font-size="10.00">+ getName()</text>
<text text-anchor="start" x="8" y="-200.5" font-family="Helvetica,sans-Serif" font-size="10.00">+ getPermission()</text>
<text text-anchor="start" x="8" y="-189.5" font-family="Helvetica,sans-Serif" font-size="10.00">+ getPermissionMessage()</text>
<text text-anchor="start" x="8" y="-178.5" font-family="Helvetica,sans-Serif" font-size="10.00">+ getUsage()</text>
<text text-anchor="start" x="8" y="-167.5" font-family="Helvetica,sans-Serif" font-size="10.00">and 11 more...</text>
<text text-anchor="start" x="8" y="-156.5" font-family="Helvetica,sans-Serif" font-size="10.00">+ broadcastCommandMessage()</text>
</a>
</g>
</g>
<!-- Node2&#45;&gt;Node1 -->
<g id="edge1" class="edge">
<title>Node2&#45;&gt;Node1</title>
<path fill="none" stroke="midnightblue" d="M139.43,-140.27C143.69,-130.77 147.85,-121.47 151.76,-112.74"/>
<polygon fill="none" stroke="midnightblue" points="136.23,-138.86 135.33,-149.42 142.62,-141.73 136.23,-138.86"/>
</g>
<!-- Node3 -->
<g id="node3" class="node">
<title>Node3</title>
<g id="a_node3"><a xlink:href="../../d0/dcc/interfacepocketmine_1_1plugin_1_1_plugin_owned.html" target="_top" xlink:title=" ">
<polygon fill="white" stroke="black" points="195.5,-221 195.5,-289 335.5,-289 335.5,-221 195.5,-221"/>
<text text-anchor="start" x="203.5" y="-277" font-family="Helvetica,sans-Serif" font-size="10.00">pocketmine\plugin\Plugin</text>
<text text-anchor="middle" x="265.5" y="-266" font-family="Helvetica,sans-Serif" font-size="10.00">Owned</text>
<polyline fill="none" stroke="black" points="195.5,-259 335.5,-259 "/>
<text text-anchor="middle" x="265.5" y="-247" font-family="Helvetica,sans-Serif" font-size="10.00"> </text>
<polyline fill="none" stroke="black" points="195.5,-240 335.5,-240 "/>
<text text-anchor="start" x="203.5" y="-228" font-family="Helvetica,sans-Serif" font-size="10.00">+ getOwningPlugin()</text>
</a>
</g>
</g>
<!-- Node3&#45;&gt;Node1 -->
<g id="edge2" class="edge">
<title>Node3&#45;&gt;Node1</title>
<path fill="none" stroke="midnightblue" d="M246.13,-211.24C233.03,-182.31 215.59,-143.81 201.45,-112.58"/>
<polygon fill="none" stroke="midnightblue" points="243.09,-213 250.4,-220.67 249.46,-210.11 243.09,-213"/>
</g>
</g>
</svg>
