<?xml version="1.0" encoding="UTF-8" standalone="no"?>
<!DOCTYPE svg PUBLIC "-//W3C//DTD SVG 1.1//EN"
 "http://www.w3.org/Graphics/SVG/1.1/DTD/svg11.dtd">
<!-- Generated by graphviz version 2.43.0 (0)
 -->
<!-- Title: pocketmine\event\block\BlockGrowEvent Pages: 1 -->
<svg width="325pt" height="425pt"
 viewBox="0.00 0.00 324.50 425.00" xmlns="http://www.w3.org/2000/svg" xmlns:xlink="http://www.w3.org/1999/xlink">
<g id="graph0" class="graph" transform="scale(1 1) rotate(0) translate(4 421)">
<title>pocketmine\event\block\BlockGrowEvent</title>
<polygon fill="white" stroke="transparent" points="-4,4 -4,-421 320.5,-421 320.5,4 -4,4"/>
<!-- Node1 -->
<g id="node1" class="node">
<title>Node1</title>
<g id="a_node1"><a xlink:title=" ">
<polygon fill="#bfbfbf" stroke="black" points="83.5,-0.5 83.5,-79.5 217.5,-79.5 217.5,-0.5 83.5,-0.5"/>
<text text-anchor="start" x="91.5" y="-67.5" font-family="Helvetica,sans-Serif" font-size="10.00">pocketmine\event\block</text>
<text text-anchor="middle" x="150.5" y="-56.5" font-family="Helvetica,sans-Serif" font-size="10.00">\BlockGrowEvent</text>
<polyline fill="none" stroke="black" points="83.5,-49.5 217.5,-49.5 "/>
<text text-anchor="middle" x="150.5" y="-37.5" font-family="Helvetica,sans-Serif" font-size="10.00"> </text>
<polyline fill="none" stroke="black" points="83.5,-30.5 217.5,-30.5 "/>
<text text-anchor="start" x="91.5" y="-18.5" font-family="Helvetica,sans-Serif" font-size="10.00">+ __construct()</text>
<text text-anchor="start" x="91.5" y="-7.5" font-family="Helvetica,sans-Serif" font-size="10.00">+ getPlayer()</text>
</a>
</g>
</g>
<!-- Node2 -->
<g id="node2" class="node">
<title>Node2</title>
<g id="a_node2"><a xlink:href="../../d0/df9/classpocketmine_1_1event_1_1block_1_1_base_block_change_event.html" target="_top" xlink:title=" ">
<polygon fill="white" stroke="#bfbfbf" points="83,-116.5 83,-195.5 218,-195.5 218,-116.5 83,-116.5"/>
<text text-anchor="start" x="91" y="-183.5" font-family="Helvetica,sans-Serif" font-size="10.00">pocketmine\event\block</text>
<text text-anchor="middle" x="150.5" y="-172.5" font-family="Helvetica,sans-Serif" font-size="10.00">\BaseBlockChangeEvent</text>
<polyline fill="none" stroke="#bfbfbf" points="83,-165.5 218,-165.5 "/>
<text text-anchor="middle" x="150.5" y="-153.5" font-family="Helvetica,sans-Serif" font-size="10.00"> </text>
<polyline fill="none" stroke="#bfbfbf" points="83,-146.5 218,-146.5 "/>
<text text-anchor="start" x="91" y="-134.5" font-family="Helvetica,sans-Serif" font-size="10.00">+ __construct()</text>
<text text-anchor="start" x="91" y="-123.5" font-family="Helvetica,sans-Serif" font-size="10.00">+ getNewState()</text>
</a>
</g>
</g>
<!-- Node2&#45;&gt;Node1 -->
<g id="edge1" class="edge">
<title>Node2&#45;&gt;Node1</title>
<path fill="none" stroke="midnightblue" d="M150.5,-106.15C150.5,-97.26 150.5,-88.1 150.5,-79.56"/>
<polygon fill="none" stroke="midnightblue" points="147,-106.4 150.5,-116.4 154,-106.4 147,-106.4"/>
</g>
<!-- Node3 -->
<g id="node3" class="node">
<title>Node3</title>
<g id="a_node3"><a xlink:href="../../df/d69/classpocketmine_1_1event_1_1block_1_1_block_event.html" target="_top" xlink:title=" ">
<polygon fill="white" stroke="#bfbfbf" points="0.5,-232.5 0.5,-311.5 134.5,-311.5 134.5,-232.5 0.5,-232.5"/>
<text text-anchor="start" x="8.5" y="-299.5" font-family="Helvetica,sans-Serif" font-size="10.00">pocketmine\event\block</text>
<text text-anchor="middle" x="67.5" y="-288.5" font-family="Helvetica,sans-Serif" font-size="10.00">\BlockEvent</text>
<polyline fill="none" stroke="#bfbfbf" points="0.5,-281.5 134.5,-281.5 "/>
<text text-anchor="middle" x="67.5" y="-269.5" font-family="Helvetica,sans-Serif" font-size="10.00"> </text>
<polyline fill="none" stroke="#bfbfbf" points="0.5,-262.5 134.5,-262.5 "/>
<text text-anchor="start" x="8.5" y="-250.5" font-family="Helvetica,sans-Serif" font-size="10.00">+ __construct()</text>
<text text-anchor="start" x="8.5" y="-239.5" font-family="Helvetica,sans-Serif" font-size="10.00">+ getBlock()</text>
</a>
</g>
</g>
<!-- Node3&#45;&gt;Node2 -->
<g id="edge2" class="edge">
<title>Node3&#45;&gt;Node2</title>
<path fill="none" stroke="midnightblue" d="M101.6,-224.17C108.52,-214.65 115.74,-204.75 122.43,-195.56"/>
<polygon fill="none" stroke="midnightblue" points="98.66,-222.26 95.6,-232.4 104.32,-226.38 98.66,-222.26"/>
</g>
<!-- Node4 -->
<g id="node4" class="node">
<title>Node4</title>
<g id="a_node4"><a xlink:href="../../d1/d2f/classpocketmine_1_1event_1_1_event.html" target="_top" xlink:title=" ">
<polygon fill="white" stroke="#bfbfbf" points="0,-348.5 0,-416.5 135,-416.5 135,-348.5 0,-348.5"/>
<text text-anchor="middle" x="67.5" y="-404.5" font-family="Helvetica,sans-Serif" font-size="10.00">pocketmine\event\Event</text>
<polyline fill="none" stroke="#bfbfbf" points="0,-397.5 135,-397.5 "/>
<text text-anchor="start" x="8" y="-385.5" font-family="Helvetica,sans-Serif" font-size="10.00"># $eventName</text>
<polyline fill="none" stroke="#bfbfbf" points="0,-378.5 135,-378.5 "/>
<text text-anchor="start" x="8" y="-366.5" font-family="Helvetica,sans-Serif" font-size="10.00">+ call()</text>
<text text-anchor="start" x="8" y="-355.5" font-family="Helvetica,sans-Serif" font-size="10.00">+ getEventName()</text>
</a>
</g>
</g>
<!-- Node4&#45;&gt;Node3 -->
<g id="edge3" class="edge">
<title>Node4&#45;&gt;Node3</title>
<path fill="none" stroke="midnightblue" d="M67.5,-338.27C67.5,-329.48 67.5,-320.28 67.5,-311.65"/>
<polygon fill="none" stroke="midnightblue" points="64,-338.36 67.5,-348.36 71,-338.36 64,-338.36"/>
</g>
<!-- Node5 -->
<g id="node5" class="node">
<title>Node5</title>
<g id="a_node5"><a xlink:href="../../db/d62/interfacepocketmine_1_1event_1_1_cancellable.html" target="_top" xlink:title=" ">
<polygon fill="white" stroke="black" points="152.5,-243.5 152.5,-300.5 316.5,-300.5 316.5,-243.5 152.5,-243.5"/>
<text text-anchor="middle" x="234.5" y="-288.5" font-family="Helvetica,sans-Serif" font-size="10.00">pocketmine\event\Cancellable</text>
<polyline fill="none" stroke="black" points="152.5,-281.5 316.5,-281.5 "/>
<text text-anchor="middle" x="234.5" y="-269.5" font-family="Helvetica,sans-Serif" font-size="10.00"> </text>
<polyline fill="none" stroke="black" points="152.5,-262.5 316.5,-262.5 "/>
<text text-anchor="start" x="160.5" y="-250.5" font-family="Helvetica,sans-Serif" font-size="10.00">+ isCancelled()</text>
</a>
</g>
</g>
<!-- Node5&#45;&gt;Node2 -->
<g id="edge4" class="edge">
<title>Node5&#45;&gt;Node2</title>
<path fill="none" stroke="midnightblue" d="M207.97,-235C198.72,-222.44 188.3,-208.3 178.9,-195.54"/>
<polygon fill="none" stroke="midnightblue" points="205.42,-237.43 214.17,-243.4 211.05,-233.28 205.42,-237.43"/>
</g>
</g>
</svg>
