<?xml version="1.0" encoding="UTF-8" standalone="no"?>
<!DOCTYPE svg PUBLIC "-//W3C//DTD SVG 1.1//EN"
 "http://www.w3.org/Graphics/SVG/1.1/DTD/svg11.dtd">
<!-- Generated by graphviz version 2.43.0 (0)
 -->
<!-- Title: pocketmine\event\player\PlayerEditBookEvent Pages: 1 -->
<svg width="458pt" height="398pt"
 viewBox="0.00 0.00 458.00 398.00" xmlns="http://www.w3.org/2000/svg" xmlns:xlink="http://www.w3.org/1999/xlink">
<g id="graph0" class="graph" transform="scale(1 1) rotate(0) translate(4 394)">
<title>pocketmine\event\player\PlayerEditBookEvent</title>
<polygon fill="white" stroke="transparent" points="-4,4 -4,-394 454,-394 454,4 -4,4"/>
<!-- Node1 -->
<g id="node1" class="node">
<title>Node1</title>
<g id="a_node1"><a xlink:title=" ">
<polygon fill="#bfbfbf" stroke="black" points="169,-0.5 169,-123.5 307,-123.5 307,-0.5 169,-0.5"/>
<text text-anchor="start" x="177" y="-111.5" font-family="Helvetica,sans-Serif" font-size="10.00">pocketmine\event\player</text>
<text text-anchor="middle" x="238" y="-100.5" font-family="Helvetica,sans-Serif" font-size="10.00">\PlayerEditBookEvent</text>
<polyline fill="none" stroke="black" points="169,-93.5 307,-93.5 "/>
<text text-anchor="middle" x="238" y="-81.5" font-family="Helvetica,sans-Serif" font-size="10.00"> </text>
<polyline fill="none" stroke="black" points="169,-74.5 307,-74.5 "/>
<text text-anchor="start" x="177" y="-62.5" font-family="Helvetica,sans-Serif" font-size="10.00">+ __construct()</text>
<text text-anchor="start" x="177" y="-51.5" font-family="Helvetica,sans-Serif" font-size="10.00">+ getAction()</text>
<text text-anchor="start" x="177" y="-40.5" font-family="Helvetica,sans-Serif" font-size="10.00">+ getModifiedPages()</text>
<text text-anchor="start" x="177" y="-29.5" font-family="Helvetica,sans-Serif" font-size="10.00">+ getNewBook()</text>
<text text-anchor="start" x="177" y="-18.5" font-family="Helvetica,sans-Serif" font-size="10.00">+ getOldBook()</text>
<text text-anchor="start" x="177" y="-7.5" font-family="Helvetica,sans-Serif" font-size="10.00">+ setNewBook()</text>
</a>
</g>
</g>
<!-- Node2 -->
<g id="node2" class="node">
<title>Node2</title>
<g id="a_node2"><a xlink:href="../../d1/db1/classpocketmine_1_1event_1_1player_1_1_player_event.html" target="_top" xlink:title=" ">
<polygon fill="white" stroke="#bfbfbf" points="0,-215.5 0,-283.5 138,-283.5 138,-215.5 0,-215.5"/>
<text text-anchor="start" x="8" y="-271.5" font-family="Helvetica,sans-Serif" font-size="10.00">pocketmine\event\player</text>
<text text-anchor="middle" x="69" y="-260.5" font-family="Helvetica,sans-Serif" font-size="10.00">\PlayerEvent</text>
<polyline fill="none" stroke="#bfbfbf" points="0,-253.5 138,-253.5 "/>
<text text-anchor="start" x="8" y="-241.5" font-family="Helvetica,sans-Serif" font-size="10.00"># $player</text>
<polyline fill="none" stroke="#bfbfbf" points="0,-234.5 138,-234.5 "/>
<text text-anchor="start" x="8" y="-222.5" font-family="Helvetica,sans-Serif" font-size="10.00">+ getPlayer()</text>
</a>
</g>
</g>
<!-- Node2&#45;&gt;Node1 -->
<g id="edge1" class="edge">
<title>Node2&#45;&gt;Node1</title>
<path fill="none" stroke="midnightblue" d="M105.97,-207.92C128.45,-183.24 157.59,-151.26 182.77,-123.62"/>
<polygon fill="none" stroke="midnightblue" points="103.36,-205.59 99.21,-215.34 108.54,-210.3 103.36,-205.59"/>
</g>
<!-- Node3 -->
<g id="node3" class="node">
<title>Node3</title>
<g id="a_node3"><a xlink:href="../../d1/d2f/classpocketmine_1_1event_1_1_event.html" target="_top" xlink:title=" ">
<polygon fill="white" stroke="#bfbfbf" points="1.5,-321.5 1.5,-389.5 136.5,-389.5 136.5,-321.5 1.5,-321.5"/>
<text text-anchor="middle" x="69" y="-377.5" font-family="Helvetica,sans-Serif" font-size="10.00">pocketmine\event\Event</text>
<polyline fill="none" stroke="#bfbfbf" points="1.5,-370.5 136.5,-370.5 "/>
<text text-anchor="start" x="9.5" y="-358.5" font-family="Helvetica,sans-Serif" font-size="10.00"># $eventName</text>
<polyline fill="none" stroke="#bfbfbf" points="1.5,-351.5 136.5,-351.5 "/>
<text text-anchor="start" x="9.5" y="-339.5" font-family="Helvetica,sans-Serif" font-size="10.00">+ call()</text>
<text text-anchor="start" x="9.5" y="-328.5" font-family="Helvetica,sans-Serif" font-size="10.00">+ getEventName()</text>
</a>
</g>
</g>
<!-- Node3&#45;&gt;Node2 -->
<g id="edge2" class="edge">
<title>Node3&#45;&gt;Node2</title>
<path fill="none" stroke="midnightblue" d="M69,-311.17C69,-302 69,-292.46 69,-283.73"/>
<polygon fill="none" stroke="midnightblue" points="65.5,-311.31 69,-321.31 72.5,-311.31 65.5,-311.31"/>
</g>
<!-- Node4 -->
<g id="node4" class="node">
<title>Node4</title>
<g id="a_node4"><a xlink:href="../../db/d62/interfacepocketmine_1_1event_1_1_cancellable.html" target="_top" xlink:title=" ">
<polygon fill="white" stroke="black" points="156,-221 156,-278 320,-278 320,-221 156,-221"/>
<text text-anchor="middle" x="238" y="-266" font-family="Helvetica,sans-Serif" font-size="10.00">pocketmine\event\Cancellable</text>
<polyline fill="none" stroke="black" points="156,-259 320,-259 "/>
<text text-anchor="middle" x="238" y="-247" font-family="Helvetica,sans-Serif" font-size="10.00"> </text>
<polyline fill="none" stroke="black" points="156,-240 320,-240 "/>
<text text-anchor="start" x="164" y="-228" font-family="Helvetica,sans-Serif" font-size="10.00">+ isCancelled()</text>
</a>
</g>
</g>
<!-- Node4&#45;&gt;Node1 -->
<g id="edge3" class="edge">
<title>Node4&#45;&gt;Node1</title>
<path fill="none" stroke="midnightblue" d="M238,-210.56C238,-185.55 238,-152.25 238,-123.62"/>
<polygon fill="none" stroke="midnightblue" points="234.5,-210.73 238,-220.73 241.5,-210.73 234.5,-210.73"/>
</g>
<!-- Node5 -->
<g id="node5" class="node">
<title>Node5</title>
<g id="a_node5"><a xlink:title=" ">
<polygon fill="white" stroke="#bfbfbf" points="338.5,-221 338.5,-278 381.5,-278 381.5,-221 338.5,-221"/>
<text text-anchor="middle" x="360" y="-266" font-family="Helvetica,sans-Serif" font-size="10.00">const</text>
<polyline fill="none" stroke="#bfbfbf" points="338.5,-259 381.5,-259 "/>
<text text-anchor="middle" x="360" y="-247" font-family="Helvetica,sans-Serif" font-size="10.00"> </text>
<polyline fill="none" stroke="#bfbfbf" points="338.5,-240 381.5,-240 "/>
<text text-anchor="middle" x="360" y="-228" font-family="Helvetica,sans-Serif" font-size="10.00"> </text>
</a>
</g>
</g>
<!-- Node5&#45;&gt;Node1 -->
<g id="edge4" class="edge">
<title>Node5&#45;&gt;Node1</title>
<path fill="none" stroke="#404040" d="M341.74,-220.73C326.63,-197.75 304.49,-164.09 284.54,-133.76"/>
<polygon fill="none" stroke="#404040" points="284.46,-133.65 277.82,-130.83 277.87,-123.62 284.51,-126.44 284.46,-133.65"/>
<text text-anchor="middle" x="386.5" y="-189" font-family="Helvetica,sans-Serif" font-size="10.00"> +ACTION_ADD_PAGE</text>
<text text-anchor="middle" x="386.5" y="-178" font-family="Helvetica,sans-Serif" font-size="10.00">+ACTION_DELETE_PAGE</text>
<text text-anchor="middle" x="386.5" y="-167" font-family="Helvetica,sans-Serif" font-size="10.00">+ACTION_REPLACE_PAGE</text>
<text text-anchor="middle" x="386.5" y="-156" font-family="Helvetica,sans-Serif" font-size="10.00">+ACTION_SIGN_BOOK</text>
<text text-anchor="middle" x="386.5" y="-145" font-family="Helvetica,sans-Serif" font-size="10.00">+ACTION_SWAP_PAGES</text>
</g>
</g>
</svg>
