<?xml version="1.0" encoding="UTF-8" standalone="no"?>
<!DOCTYPE svg PUBLIC "-//W3C//DTD SVG 1.1//EN"
 "http://www.w3.org/Graphics/SVG/1.1/DTD/svg11.dtd">
<!-- Generated by graphviz version 2.43.0 (0)
 -->
<!-- Title: pocketmine\network\mcpe\protocol\PacketHandlerInterface Pages: 1 -->
<svg width="1590pt" height="702pt"
 viewBox="0.00 0.00 1590.00 702.00" xmlns="http://www.w3.org/2000/svg" xmlns:xlink="http://www.w3.org/1999/xlink">
<g id="graph0" class="graph" transform="scale(1 1) rotate(0) translate(4 698)">
<title>pocketmine\network\mcpe\protocol\PacketHandlerInterface</title>
<!-- Node1 -->
<g id="Node000001" class="node">
<title>Node1</title>
<g id="a_Node000001"><a xlink:title=" ">
<polygon fill="#999999" stroke="transparent" points="849,-694 693,-694 693,-473 849,-473 849,-694"/>
<text text-anchor="start" x="698" y="-681.5" font-family="Helvetica,sans-Serif" font-size="10.00">pocketmine\network</text>
<text text-anchor="start" x="698" y="-670.5" font-family="Helvetica,sans-Serif" font-size="10.00">\mcpe\protocol\PacketHandler</text>
<text text-anchor="start" x="749" y="-659.5" font-family="Helvetica,sans-Serif" font-size="10.00">Interface</text>
<text text-anchor="start" x="769" y="-644.5" font-family="Helvetica,sans-Serif" font-size="10.00"> </text>
<text text-anchor="start" x="698.5" y="-629.5" font-family="Helvetica,sans-Serif" font-size="10.00">+</text>
<text text-anchor="start" x="713" y="-629.5" font-family="Helvetica,sans-Serif" font-size="10.00">handleActorEvent()</text>
<text text-anchor="start" x="698.5" y="-614.5" font-family="Helvetica,sans-Serif" font-size="10.00">+</text>
<text text-anchor="start" x="713" y="-614.5" font-family="Helvetica,sans-Serif" font-size="10.00">handleActorPickRequest()</text>
<text text-anchor="start" x="698.5" y="-599.5" font-family="Helvetica,sans-Serif" font-size="10.00">+</text>
<text text-anchor="start" x="713" y="-599.5" font-family="Helvetica,sans-Serif" font-size="10.00">handleAddActor()</text>
<text text-anchor="start" x="698.5" y="-584.5" font-family="Helvetica,sans-Serif" font-size="10.00">+</text>
<text text-anchor="start" x="713" y="-584.5" font-family="Helvetica,sans-Serif" font-size="10.00">handleAddBehaviorTree()</text>
<text text-anchor="start" x="698.5" y="-569.5" font-family="Helvetica,sans-Serif" font-size="10.00">+</text>
<text text-anchor="start" x="713" y="-569.5" font-family="Helvetica,sans-Serif" font-size="10.00">handleAddItemActor()</text>
<text text-anchor="start" x="698.5" y="-554.5" font-family="Helvetica,sans-Serif" font-size="10.00">+</text>
<text text-anchor="start" x="713" y="-554.5" font-family="Helvetica,sans-Serif" font-size="10.00">handleAddPainting()</text>
<text text-anchor="start" x="698.5" y="-539.5" font-family="Helvetica,sans-Serif" font-size="10.00">+</text>
<text text-anchor="start" x="713" y="-539.5" font-family="Helvetica,sans-Serif" font-size="10.00">handleAddPlayer()</text>
<text text-anchor="start" x="698.5" y="-524.5" font-family="Helvetica,sans-Serif" font-size="10.00">+</text>
<text text-anchor="start" x="713" y="-524.5" font-family="Helvetica,sans-Serif" font-size="10.00">handleAddVolumeEntity()</text>
<text text-anchor="start" x="698.5" y="-509.5" font-family="Helvetica,sans-Serif" font-size="10.00">+</text>
<text text-anchor="start" x="713" y="-509.5" font-family="Helvetica,sans-Serif" font-size="10.00">handleAgentActionEvent()</text>
<text text-anchor="start" x="698.5" y="-494.5" font-family="Helvetica,sans-Serif" font-size="10.00">+</text>
<text text-anchor="start" x="713" y="-494.5" font-family="Helvetica,sans-Serif" font-size="10.00">handleAgentAnimation()</text>
<text text-anchor="start" x="713" y="-479.5" font-family="Helvetica,sans-Serif" font-size="10.00">and 208 more...</text>
<polygon fill="#666666" stroke="#666666" points="693,-654.5 693,-654.5 849,-654.5 849,-654.5 693,-654.5"/>
<polygon fill="#666666" stroke="#666666" points="693,-639.5 693,-639.5 849,-639.5 849,-639.5 693,-639.5"/>
<polygon fill="none" stroke="#666666" points="693,-473 693,-694 849,-694 849,-473 693,-473"/>
</a>
</g>
</g>
<!-- Node2 -->
<g id="Node000002" class="node">
<title>Node2</title>
<g id="a_Node000002"><a xlink:href="../../d5/d23/classpocketmine_1_1network_1_1mcpe_1_1handler_1_1_packet_handler.html" target="_top" xlink:title=" ">
<polygon fill="white" stroke="transparent" points="847.5,-437 694.5,-437 694.5,-377 847.5,-377 847.5,-437"/>
<text text-anchor="start" x="700" y="-425" font-family="Helvetica,sans-Serif" font-size="10.00">pocketmine\network</text>
<text text-anchor="start" x="700" y="-414" font-family="Helvetica,sans-Serif" font-size="10.00">\mcpe\handler\PacketHandler</text>
<text text-anchor="start" x="769.5" y="-399" font-family="Helvetica,sans-Serif" font-size="10.00"> </text>
<text text-anchor="start" x="722.5" y="-384" font-family="Helvetica,sans-Serif" font-size="10.00">+</text>
<text text-anchor="start" x="759" y="-384" font-family="Helvetica,sans-Serif" font-size="10.00">setUp()</text>
<polygon fill="#666666" stroke="#666666" points="695,-409 695,-409 848,-409 848,-409 695,-409"/>
<polygon fill="#666666" stroke="#666666" points="695,-394 695,-394 848,-394 848,-394 695,-394"/>
<polygon fill="none" stroke="#666666" points="694.5,-377 694.5,-437 847.5,-437 847.5,-377 694.5,-377"/>
</a>
</g>
</g>
<!-- Node1&#45;&gt;Node2 -->
<g id="edge1_Node000001_Node000002" class="edge">
<title>Node1&#45;&gt;Node2</title>
<g id="a_edge1_Node000001_Node000002"><a xlink:title=" ">
<path fill="none" stroke="#63b8ff" d="M771,-462.98C771,-453.56 771,-444.73 771,-437.01"/>
<polygon fill="none" stroke="#63b8ff" points="767.5,-462.98 771,-472.98 774.5,-462.98 767.5,-462.98"/>
</a>
</g>
</g>
<!-- Node3 -->
<g id="Node000003" class="node">
<title>Node3</title>
<g id="a_Node000003"><a xlink:href="../../d9/dca/classpocketmine_1_1network_1_1mcpe_1_1handler_1_1_death_packet_handler.html" target="_top" xlink:title=" ">
<polygon fill="white" stroke="transparent" points="182,-230.5 0,-230.5 0,-110.5 182,-110.5 182,-230.5"/>
<text text-anchor="start" x="5" y="-218.5" font-family="Helvetica,sans-Serif" font-size="10.00">pocketmine\network</text>
<text text-anchor="start" x="5" y="-207.5" font-family="Helvetica,sans-Serif" font-size="10.00">\mcpe\handler\DeathPacketHandler</text>
<text text-anchor="start" x="89" y="-192.5" font-family="Helvetica,sans-Serif" font-size="10.00"> </text>
<text text-anchor="start" x="15.5" y="-177.5" font-family="Helvetica,sans-Serif" font-size="10.00">+</text>
<text text-anchor="start" x="40" y="-177.5" font-family="Helvetica,sans-Serif" font-size="10.00">__construct()</text>
<text text-anchor="start" x="15.5" y="-162.5" font-family="Helvetica,sans-Serif" font-size="10.00">+</text>
<text text-anchor="start" x="40" y="-162.5" font-family="Helvetica,sans-Serif" font-size="10.00">handleContainerClose()</text>
<text text-anchor="start" x="15.5" y="-147.5" font-family="Helvetica,sans-Serif" font-size="10.00">+</text>
<text text-anchor="start" x="40" y="-147.5" font-family="Helvetica,sans-Serif" font-size="10.00">handlePlayerAction()</text>
<text text-anchor="start" x="15.5" y="-132.5" font-family="Helvetica,sans-Serif" font-size="10.00">+</text>
<text text-anchor="start" x="40" y="-132.5" font-family="Helvetica,sans-Serif" font-size="10.00">handleRespawn()</text>
<text text-anchor="start" x="15.5" y="-117.5" font-family="Helvetica,sans-Serif" font-size="10.00">+</text>
<text text-anchor="start" x="40" y="-117.5" font-family="Helvetica,sans-Serif" font-size="10.00">setUp()</text>
<polygon fill="#bfbfbf" stroke="#bfbfbf" points="0,-202.5 0,-202.5 182,-202.5 182,-202.5 0,-202.5"/>
<polygon fill="#bfbfbf" stroke="#bfbfbf" points="0,-187.5 0,-187.5 182,-187.5 182,-187.5 0,-187.5"/>
<polygon fill="none" stroke="#bfbfbf" points="0,-110.5 0,-230.5 182,-230.5 182,-110.5 0,-110.5"/>
</a>
</g>
</g>
<!-- Node2&#45;&gt;Node3 -->
<g id="edge2_Node000002_Node000003" class="edge">
<title>Node2&#45;&gt;Node3</title>
<g id="a_edge2_Node000002_Node000003"><a xlink:title=" ">
<path fill="none" stroke="#63b8ff" d="M683.96,-405.59C542.48,-403.41 270.39,-392.42 191,-341 151.71,-315.56 125.83,-268.8 110.27,-230.83"/>
<polygon fill="none" stroke="#63b8ff" points="684.29,-409.1 694.34,-405.74 684.39,-402.1 684.29,-409.1"/>
</a>
</g>
</g>
<!-- Node4 -->
<g id="Node000004" class="node">
<title>Node4</title>
<g id="a_Node000004"><a xlink:href="../../d5/d2e/classpocketmine_1_1network_1_1mcpe_1_1handler_1_1_handshake_packet_handler.html" target="_top" xlink:title=" ">
<polygon fill="white" stroke="transparent" points="387.5,-213.5 200.5,-213.5 200.5,-127.5 387.5,-127.5 387.5,-213.5"/>
<text text-anchor="start" x="215" y="-201.5" font-family="Helvetica,sans-Serif" font-size="10.00">pocketmine\network</text>
<text text-anchor="start" x="215" y="-190.5" font-family="Helvetica,sans-Serif" font-size="10.00">\mcpe\handler\HandshakePacket</text>
<text text-anchor="start" x="275" y="-179.5" font-family="Helvetica,sans-Serif" font-size="10.00">Handler</text>
<text text-anchor="start" x="292.5" y="-164.5" font-family="Helvetica,sans-Serif" font-size="10.00"> </text>
<text text-anchor="start" x="205" y="-149.5" font-family="Helvetica,sans-Serif" font-size="10.00">+</text>
<text text-anchor="start" x="218" y="-149.5" font-family="Helvetica,sans-Serif" font-size="10.00">__construct()</text>
<text text-anchor="start" x="205" y="-134.5" font-family="Helvetica,sans-Serif" font-size="10.00">+</text>
<text text-anchor="start" x="218" y="-134.5" font-family="Helvetica,sans-Serif" font-size="10.00">handleClientToServerHandshake()</text>
<polygon fill="#666666" stroke="#666666" points="201,-174.5 201,-174.5 388,-174.5 388,-174.5 201,-174.5"/>
<polygon fill="#666666" stroke="#666666" points="201,-159.5 201,-159.5 388,-159.5 388,-159.5 201,-159.5"/>
<polygon fill="none" stroke="#666666" points="200.5,-127.5 200.5,-213.5 387.5,-213.5 387.5,-127.5 200.5,-127.5"/>
</a>
</g>
</g>
<!-- Node2&#45;&gt;Node4 -->
<g id="edge3_Node000002_Node000004" class="edge">
<title>Node2&#45;&gt;Node4</title>
<g id="a_edge3_Node000002_Node000004"><a xlink:title=" ">
<path fill="none" stroke="#63b8ff" d="M684.44,-399.32C588.65,-390.51 441.75,-372.32 396,-341 351.22,-310.34 322.86,-252.96 307.71,-213.52"/>
<polygon fill="none" stroke="#63b8ff" points="684.14,-402.81 694.41,-400.22 684.77,-395.84 684.14,-402.81"/>
</a>
</g>
</g>
<!-- Node5 -->
<g id="Node000005" class="node">
<title>Node5</title>
<g id="a_Node000005"><a xlink:href="../../d9/ded/classpocketmine_1_1network_1_1mcpe_1_1handler_1_1_in_game_packet_handler.html" target="_top" xlink:title=" ">
<polygon fill="white" stroke="transparent" points="568.5,-341 405.5,-341 405.5,0 568.5,0 568.5,-341"/>
<text text-anchor="start" x="416" y="-328.5" font-family="Helvetica,sans-Serif" font-size="10.00">pocketmine\network</text>
<text text-anchor="start" x="416" y="-317.5" font-family="Helvetica,sans-Serif" font-size="10.00">\mcpe\handler\InGamePacket</text>
<text text-anchor="start" x="468" y="-306.5" font-family="Helvetica,sans-Serif" font-size="10.00">Handler</text>
<text text-anchor="start" x="410" y="-291.5" font-family="Helvetica,sans-Serif" font-size="10.00">+</text>
<text text-anchor="start" x="423" y="-291.5" font-family="Helvetica,sans-Serif" font-size="10.00">$forceMoveSync</text>
<text text-anchor="start" x="410" y="-276.5" font-family="Helvetica,sans-Serif" font-size="10.00">#</text>
<text text-anchor="start" x="423" y="-276.5" font-family="Helvetica,sans-Serif" font-size="10.00">$lastBlockAttacked</text>
<text text-anchor="start" x="410" y="-261.5" font-family="Helvetica,sans-Serif" font-size="10.00">#</text>
<text text-anchor="start" x="423" y="-261.5" font-family="Helvetica,sans-Serif" font-size="10.00">$lastPlayerAuthInputFlags</text>
<text text-anchor="start" x="410" y="-246.5" font-family="Helvetica,sans-Serif" font-size="10.00">#</text>
<text text-anchor="start" x="423" y="-246.5" font-family="Helvetica,sans-Serif" font-size="10.00">$lastPlayerAuthInputPitch</text>
<text text-anchor="start" x="410" y="-231.5" font-family="Helvetica,sans-Serif" font-size="10.00">#</text>
<text text-anchor="start" x="423" y="-231.5" font-family="Helvetica,sans-Serif" font-size="10.00">$lastPlayerAuthInputPosition</text>
<text text-anchor="start" x="410" y="-216.5" font-family="Helvetica,sans-Serif" font-size="10.00">#</text>
<text text-anchor="start" x="423" y="-216.5" font-family="Helvetica,sans-Serif" font-size="10.00">$lastPlayerAuthInputYaw</text>
<text text-anchor="start" x="410" y="-201.5" font-family="Helvetica,sans-Serif" font-size="10.00">#</text>
<text text-anchor="start" x="423" y="-201.5" font-family="Helvetica,sans-Serif" font-size="10.00">$lastRequestedFullSkinId</text>
<text text-anchor="start" x="410" y="-186.5" font-family="Helvetica,sans-Serif" font-size="10.00">#</text>
<text text-anchor="start" x="423" y="-186.5" font-family="Helvetica,sans-Serif" font-size="10.00">$lastRightClickData</text>
<text text-anchor="start" x="410" y="-171.5" font-family="Helvetica,sans-Serif" font-size="10.00">#</text>
<text text-anchor="start" x="423" y="-171.5" font-family="Helvetica,sans-Serif" font-size="10.00">$lastRightClickTime</text>
<text text-anchor="start" x="410" y="-156.5" font-family="Helvetica,sans-Serif" font-size="10.00">+</text>
<text text-anchor="start" x="423" y="-156.5" font-family="Helvetica,sans-Serif" font-size="10.00">__construct()</text>
<text text-anchor="start" x="410" y="-141.5" font-family="Helvetica,sans-Serif" font-size="10.00">+</text>
<text text-anchor="start" x="423" y="-141.5" font-family="Helvetica,sans-Serif" font-size="10.00">handleActorPickRequest()</text>
<text text-anchor="start" x="410" y="-126.5" font-family="Helvetica,sans-Serif" font-size="10.00">+</text>
<text text-anchor="start" x="423" y="-126.5" font-family="Helvetica,sans-Serif" font-size="10.00">handleAnimate()</text>
<text text-anchor="start" x="410" y="-111.5" font-family="Helvetica,sans-Serif" font-size="10.00">+</text>
<text text-anchor="start" x="423" y="-111.5" font-family="Helvetica,sans-Serif" font-size="10.00">handleBlockActorData()</text>
<text text-anchor="start" x="410" y="-96.5" font-family="Helvetica,sans-Serif" font-size="10.00">+</text>
<text text-anchor="start" x="423" y="-96.5" font-family="Helvetica,sans-Serif" font-size="10.00">handleBlockPickRequest()</text>
<text text-anchor="start" x="410" y="-81.5" font-family="Helvetica,sans-Serif" font-size="10.00">+</text>
<text text-anchor="start" x="423" y="-81.5" font-family="Helvetica,sans-Serif" font-size="10.00">handleBookEdit()</text>
<text text-anchor="start" x="410" y="-66.5" font-family="Helvetica,sans-Serif" font-size="10.00">+</text>
<text text-anchor="start" x="423" y="-66.5" font-family="Helvetica,sans-Serif" font-size="10.00">handleCommandRequest()</text>
<text text-anchor="start" x="410" y="-51.5" font-family="Helvetica,sans-Serif" font-size="10.00">+</text>
<text text-anchor="start" x="423" y="-51.5" font-family="Helvetica,sans-Serif" font-size="10.00">handleContainerClose()</text>
<text text-anchor="start" x="410" y="-36.5" font-family="Helvetica,sans-Serif" font-size="10.00">+</text>
<text text-anchor="start" x="423" y="-36.5" font-family="Helvetica,sans-Serif" font-size="10.00">handleEmote()</text>
<text text-anchor="start" x="410" y="-21.5" font-family="Helvetica,sans-Serif" font-size="10.00">+</text>
<text text-anchor="start" x="423" y="-21.5" font-family="Helvetica,sans-Serif" font-size="10.00">handleInteract()</text>
<text text-anchor="start" x="423" y="-6.5" font-family="Helvetica,sans-Serif" font-size="10.00">and 11 more...</text>
<polygon fill="#666666" stroke="#666666" points="406,-301.5 406,-301.5 569,-301.5 569,-301.5 406,-301.5"/>
<polygon fill="#666666" stroke="#666666" points="406,-166.5 406,-166.5 421,-166.5 421,-166.5 406,-166.5"/>
<polygon fill="#666666" stroke="#666666" points="421,-166.5 421,-166.5 569,-166.5 569,-166.5 421,-166.5"/>
<polygon fill="none" stroke="#666666" points="405.5,0 405.5,-341 568.5,-341 568.5,0 405.5,0"/>
</a>
</g>
</g>
<!-- Node2&#45;&gt;Node5 -->
<g id="edge4_Node000002_Node000005" class="edge">
<title>Node2&#45;&gt;Node5</title>
<g id="a_edge4_Node000002_Node000005"><a xlink:title=" ">
<path fill="none" stroke="#63b8ff" d="M684.24,-391.73C647.92,-382.24 607.22,-366.61 577,-341 574.2,-338.63 571.48,-336.15 568.83,-333.58"/>
<polygon fill="none" stroke="#63b8ff" points="683.81,-395.23 694.36,-394.24 685.5,-388.43 683.81,-395.23"/>
</a>
</g>
</g>
<!-- Node6 -->
<g id="Node000006" class="node">
<title>Node6</title>
<g id="a_Node000006"><a xlink:href="../../d7/d77/classpocketmine_1_1network_1_1mcpe_1_1handler_1_1_login_packet_handler.html" target="_top" xlink:title=" ">
<polygon fill="white" stroke="transparent" points="765.5,-253 586.5,-253 586.5,-88 765.5,-88 765.5,-253"/>
<text text-anchor="start" x="592" y="-240.5" font-family="Helvetica,sans-Serif" font-size="10.00">pocketmine\network</text>
<text text-anchor="start" x="592" y="-229.5" font-family="Helvetica,sans-Serif" font-size="10.00">\mcpe\handler\LoginPacketHandler</text>
<text text-anchor="start" x="674.5" y="-214.5" font-family="Helvetica,sans-Serif" font-size="10.00"> </text>
<text text-anchor="start" x="599.5" y="-199.5" font-family="Helvetica,sans-Serif" font-size="10.00">+</text>
<text text-anchor="start" x="621" y="-199.5" font-family="Helvetica,sans-Serif" font-size="10.00">__construct()</text>
<text text-anchor="start" x="599.5" y="-184.5" font-family="Helvetica,sans-Serif" font-size="10.00">+</text>
<text text-anchor="start" x="621" y="-184.5" font-family="Helvetica,sans-Serif" font-size="10.00">handleLogin()</text>
<text text-anchor="start" x="599.5" y="-169.5" font-family="Helvetica,sans-Serif" font-size="10.00">#</text>
<text text-anchor="start" x="621" y="-169.5" font-family="Helvetica,sans-Serif" font-size="10.00">mapXboxTokenBody()</text>
<text text-anchor="start" x="599.5" y="-154.5" font-family="Helvetica,sans-Serif" font-size="10.00">#</text>
<text text-anchor="start" x="621" y="-154.5" font-family="Helvetica,sans-Serif" font-size="10.00">mapXboxTokenHeader()</text>
<text text-anchor="start" x="599.5" y="-139.5" font-family="Helvetica,sans-Serif" font-size="10.00">#</text>
<text text-anchor="start" x="621" y="-139.5" font-family="Helvetica,sans-Serif" font-size="10.00">parseAuthInfo()</text>
<text text-anchor="start" x="599.5" y="-124.5" font-family="Helvetica,sans-Serif" font-size="10.00">#</text>
<text text-anchor="start" x="621" y="-124.5" font-family="Helvetica,sans-Serif" font-size="10.00">parseClientData()</text>
<text text-anchor="start" x="599.5" y="-109.5" font-family="Helvetica,sans-Serif" font-size="10.00">#</text>
<text text-anchor="start" x="621" y="-109.5" font-family="Helvetica,sans-Serif" font-size="10.00">processOpenIdLogin()</text>
<text text-anchor="start" x="599.5" y="-94.5" font-family="Helvetica,sans-Serif" font-size="10.00">#</text>
<text text-anchor="start" x="621" y="-94.5" font-family="Helvetica,sans-Serif" font-size="10.00">processSelfSignedLogin()</text>
<polygon fill="#666666" stroke="#666666" points="587,-224.5 587,-224.5 766,-224.5 766,-224.5 587,-224.5"/>
<polygon fill="#666666" stroke="#666666" points="587,-209.5 587,-209.5 766,-209.5 766,-209.5 587,-209.5"/>
<polygon fill="none" stroke="#666666" points="586.5,-88 586.5,-253 765.5,-253 765.5,-88 586.5,-88"/>
</a>
</g>
</g>
<!-- Node2&#45;&gt;Node6 -->
<g id="edge5_Node000002_Node000006" class="edge">
<title>Node2&#45;&gt;Node6</title>
<g id="a_edge5_Node000002_Node000006"><a xlink:title=" ">
<path fill="none" stroke="#63b8ff" d="M755.29,-367.22C742.75,-336.27 724.75,-291.83 709.07,-253.12"/>
<polygon fill="none" stroke="#63b8ff" points="752.16,-368.82 759.16,-376.77 758.65,-366.19 752.16,-368.82"/>
</a>
</g>
</g>
<!-- Node7 -->
<g id="Node000007" class="node">
<title>Node7</title>
<g id="a_Node000007"><a xlink:href="../../d0/d3c/classpocketmine_1_1network_1_1mcpe_1_1handler_1_1_pre_spawn_packet_handler.html" target="_top" xlink:title=" ">
<polygon fill="white" stroke="transparent" points="950,-221 784,-221 784,-120 950,-120 950,-221"/>
<text text-anchor="start" x="790.5" y="-208.5" font-family="Helvetica,sans-Serif" font-size="10.00">pocketmine\network</text>
<text text-anchor="start" x="790.5" y="-197.5" font-family="Helvetica,sans-Serif" font-size="10.00">\mcpe\handler\PreSpawnPacket</text>
<text text-anchor="start" x="847.5" y="-186.5" font-family="Helvetica,sans-Serif" font-size="10.00">Handler</text>
<text text-anchor="start" x="865" y="-171.5" font-family="Helvetica,sans-Serif" font-size="10.00"> </text>
<text text-anchor="start" x="788" y="-156.5" font-family="Helvetica,sans-Serif" font-size="10.00">+</text>
<text text-anchor="start" x="801" y="-156.5" font-family="Helvetica,sans-Serif" font-size="10.00">__construct()</text>
<text text-anchor="start" x="788" y="-141.5" font-family="Helvetica,sans-Serif" font-size="10.00">+</text>
<text text-anchor="start" x="801" y="-141.5" font-family="Helvetica,sans-Serif" font-size="10.00">handleRequestChunkRadius()</text>
<text text-anchor="start" x="788" y="-126.5" font-family="Helvetica,sans-Serif" font-size="10.00">+</text>
<text text-anchor="start" x="801" y="-126.5" font-family="Helvetica,sans-Serif" font-size="10.00">setUp()</text>
<polygon fill="#666666" stroke="#666666" points="784,-181.5 784,-181.5 950,-181.5 950,-181.5 784,-181.5"/>
<polygon fill="#666666" stroke="#666666" points="784,-166.5 784,-166.5 950,-166.5 950,-166.5 784,-166.5"/>
<polygon fill="none" stroke="#666666" points="784,-120 784,-221 950,-221 950,-120 784,-120"/>
</a>
</g>
</g>
<!-- Node2&#45;&gt;Node7 -->
<g id="edge6_Node000002_Node000007" class="edge">
<title>Node2&#45;&gt;Node7</title>
<g id="a_edge6_Node000002_Node000007"><a xlink:title=" ">
<path fill="none" stroke="#63b8ff" d="M786.81,-367.37C803.17,-327.41 828.79,-264.84 846.65,-221.21"/>
<polygon fill="none" stroke="#63b8ff" points="783.51,-366.19 782.96,-376.77 789.99,-368.85 783.51,-366.19"/>
</a>
</g>
</g>
<!-- Node8 -->
<g id="Node000008" class="node">
<title>Node8</title>
<g id="a_Node000008"><a xlink:href="../../d4/d06/classpocketmine_1_1network_1_1mcpe_1_1handler_1_1_resource_packs_packet_handler.html" target="_top" xlink:title=" ">
<polygon fill="white" stroke="transparent" points="1168,-234 968,-234 968,-107 1168,-107 1168,-234"/>
<text text-anchor="start" x="995" y="-221.5" font-family="Helvetica,sans-Serif" font-size="10.00">pocketmine\network</text>
<text text-anchor="start" x="995" y="-210.5" font-family="Helvetica,sans-Serif" font-size="10.00">\mcpe\handler\ResourcePacks</text>
<text text-anchor="start" x="1033" y="-199.5" font-family="Helvetica,sans-Serif" font-size="10.00">PacketHandler</text>
<text text-anchor="start" x="1066" y="-184.5" font-family="Helvetica,sans-Serif" font-size="10.00"> </text>
<text text-anchor="start" x="972" y="-169.5" font-family="Helvetica,sans-Serif" font-size="10.00">+</text>
<text text-anchor="start" x="985" y="-169.5" font-family="Helvetica,sans-Serif" font-size="10.00">__construct()</text>
<text text-anchor="start" x="972" y="-154.5" font-family="Helvetica,sans-Serif" font-size="10.00">+</text>
<text text-anchor="start" x="985" y="-154.5" font-family="Helvetica,sans-Serif" font-size="10.00">handleResourcePackChunkRequest()</text>
<text text-anchor="start" x="972" y="-139.5" font-family="Helvetica,sans-Serif" font-size="10.00">+</text>
<text text-anchor="start" x="985" y="-139.5" font-family="Helvetica,sans-Serif" font-size="10.00">handleResourcePackClient</text>
<text text-anchor="start" x="985" y="-128.5" font-family="Helvetica,sans-Serif" font-size="10.00">Response()</text>
<text text-anchor="start" x="972" y="-113.5" font-family="Helvetica,sans-Serif" font-size="10.00">+</text>
<text text-anchor="start" x="985" y="-113.5" font-family="Helvetica,sans-Serif" font-size="10.00">setUp()</text>
<polygon fill="#666666" stroke="#666666" points="968,-194.5 968,-194.5 1168,-194.5 1168,-194.5 968,-194.5"/>
<polygon fill="#666666" stroke="#666666" points="968,-179.5 968,-179.5 1168,-179.5 1168,-179.5 968,-179.5"/>
<polygon fill="none" stroke="#666666" points="968,-107 968,-234 1168,-234 1168,-107 968,-107"/>
</a>
</g>
</g>
<!-- Node2&#45;&gt;Node8 -->
<g id="edge7_Node000002_Node000008" class="edge">
<title>Node2&#45;&gt;Node8</title>
<g id="a_edge7_Node000002_Node000008"><a xlink:title=" ">
<path fill="none" stroke="#63b8ff" d="M857.59,-389.01C891.74,-379.18 929.72,-364.02 959,-341 994.62,-313 1022.1,-269.96 1040.55,-234.25"/>
<polygon fill="none" stroke="#63b8ff" points="856.31,-385.74 847.6,-391.77 858.17,-392.48 856.31,-385.74"/>
</a>
</g>
</g>
<!-- Node9 -->
<g id="Node000009" class="node">
<title>Node9</title>
<g id="a_Node000009"><a xlink:href="../../dd/ddd/classpocketmine_1_1network_1_1mcpe_1_1handler_1_1_session_start_packet_handler.html" target="_top" xlink:title=" ">
<polygon fill="white" stroke="transparent" points="1369.5,-221 1186.5,-221 1186.5,-120 1369.5,-120 1369.5,-221"/>
<text text-anchor="start" x="1211.5" y="-208.5" font-family="Helvetica,sans-Serif" font-size="10.00">pocketmine\network</text>
<text text-anchor="start" x="1211.5" y="-197.5" font-family="Helvetica,sans-Serif" font-size="10.00">\mcpe\handler\SessionStart</text>
<text text-anchor="start" x="1243.5" y="-186.5" font-family="Helvetica,sans-Serif" font-size="10.00">PacketHandler</text>
<text text-anchor="start" x="1276.5" y="-171.5" font-family="Helvetica,sans-Serif" font-size="10.00"> </text>
<text text-anchor="start" x="1191" y="-156.5" font-family="Helvetica,sans-Serif" font-size="10.00">+</text>
<text text-anchor="start" x="1204" y="-156.5" font-family="Helvetica,sans-Serif" font-size="10.00">__construct()</text>
<text text-anchor="start" x="1191" y="-141.5" font-family="Helvetica,sans-Serif" font-size="10.00">+</text>
<text text-anchor="start" x="1204" y="-141.5" font-family="Helvetica,sans-Serif" font-size="10.00">handleRequestNetworkSettings()</text>
<text text-anchor="start" x="1191" y="-126.5" font-family="Helvetica,sans-Serif" font-size="10.00">#</text>
<text text-anchor="start" x="1204" y="-126.5" font-family="Helvetica,sans-Serif" font-size="10.00">isCompatibleProtocol()</text>
<polygon fill="#bfbfbf" stroke="#bfbfbf" points="1187,-181.5 1187,-181.5 1370,-181.5 1370,-181.5 1187,-181.5"/>
<polygon fill="#bfbfbf" stroke="#bfbfbf" points="1187,-166.5 1187,-166.5 1370,-166.5 1370,-166.5 1187,-166.5"/>
<polygon fill="none" stroke="#bfbfbf" points="1186.5,-120 1186.5,-221 1369.5,-221 1369.5,-120 1186.5,-120"/>
</a>
</g>
</g>
<!-- Node2&#45;&gt;Node9 -->
<g id="edge8_Node000002_Node000009" class="edge">
<title>Node2&#45;&gt;Node9</title>
<g id="a_edge8_Node000002_Node000009"><a xlink:title=" ">
<path fill="none" stroke="#63b8ff" d="M857.88,-400.67C961.28,-392.87 1126.33,-375.37 1177,-341 1218.95,-312.54 1246.16,-260.33 1261.64,-221.35"/>
<polygon fill="none" stroke="#63b8ff" points="857.47,-397.19 847.76,-401.41 857.99,-404.17 857.47,-397.19"/>
</a>
</g>
</g>
<!-- Node10 -->
<g id="Node000010" class="node">
<title>Node10</title>
<g id="a_Node000010"><a xlink:href="../../d0/dd8/classpocketmine_1_1network_1_1mcpe_1_1handler_1_1_spawn_response_packet_handler.html" target="_top" xlink:title=" ">
<polygon fill="white" stroke="transparent" points="1582,-213.5 1388,-213.5 1388,-127.5 1582,-127.5 1582,-213.5"/>
<text text-anchor="start" x="1408.5" y="-201.5" font-family="Helvetica,sans-Serif" font-size="10.00">pocketmine\network</text>
<text text-anchor="start" x="1408.5" y="-190.5" font-family="Helvetica,sans-Serif" font-size="10.00">\mcpe\handler\SpawnResponse</text>
<text text-anchor="start" x="1450" y="-179.5" font-family="Helvetica,sans-Serif" font-size="10.00">PacketHandler</text>
<text text-anchor="start" x="1483" y="-164.5" font-family="Helvetica,sans-Serif" font-size="10.00"> </text>
<text text-anchor="start" x="1392" y="-149.5" font-family="Helvetica,sans-Serif" font-size="10.00">+</text>
<text text-anchor="start" x="1405" y="-149.5" font-family="Helvetica,sans-Serif" font-size="10.00">__construct()</text>
<text text-anchor="start" x="1392" y="-134.5" font-family="Helvetica,sans-Serif" font-size="10.00">+</text>
<text text-anchor="start" x="1405" y="-134.5" font-family="Helvetica,sans-Serif" font-size="10.00">handleSetLocalPlayerAsInitialized()</text>
<polygon fill="#bfbfbf" stroke="#bfbfbf" points="1388,-174.5 1388,-174.5 1582,-174.5 1582,-174.5 1388,-174.5"/>
<polygon fill="#bfbfbf" stroke="#bfbfbf" points="1388,-159.5 1388,-159.5 1582,-159.5 1582,-159.5 1388,-159.5"/>
<polygon fill="none" stroke="#bfbfbf" points="1388,-127.5 1388,-213.5 1582,-213.5 1582,-127.5 1388,-127.5"/>
</a>
</g>
</g>
<!-- Node2&#45;&gt;Node10 -->
<g id="edge9_Node000002_Node000010" class="edge">
<title>Node2&#45;&gt;Node10</title>
<g id="a_edge9_Node000002_Node000010"><a xlink:title=" ">
<path fill="none" stroke="#63b8ff" d="M857.88,-405.9C1004.7,-404.23 1294.2,-394.07 1379,-341 1425.63,-311.82 1455.15,-253.79 1470.88,-213.83"/>
<polygon fill="none" stroke="#63b8ff" points="857.53,-402.4 847.57,-406 857.6,-409.4 857.53,-402.4"/>
</a>
</g>
</g>
</g>
</svg>
