<?xml version="1.0" encoding="UTF-8" standalone="no"?>
<!DOCTYPE svg PUBLIC "-//W3C//DTD SVG 1.1//EN"
 "http://www.w3.org/Graphics/SVG/1.1/DTD/svg11.dtd">
<!-- Generated by graphviz version 2.43.0 (0)
 -->
<!-- Title: pocketmine\network\mcpe\protocol\AnimateEntityPacket Pages: 1 -->
<svg width="469pt" height="607pt"
 viewBox="0.00 0.00 468.50 607.00" xmlns="http://www.w3.org/2000/svg" xmlns:xlink="http://www.w3.org/1999/xlink">
<g id="graph0" class="graph" transform="scale(1 1) rotate(0) translate(4 603)">
<title>pocketmine\network\mcpe\protocol\AnimateEntityPacket</title>
<polygon fill="white" stroke="transparent" points="-4,4 -4,-603 464.5,-603 464.5,4 -4,4"/>
<!-- Node1 -->
<g id="node1" class="node">
<title>Node1</title>
<g id="a_node1"><a xlink:title=" ">
<polygon fill="#bfbfbf" stroke="black" points="161.5,-0.5 161.5,-189.5 323.5,-189.5 323.5,-0.5 161.5,-0.5"/>
<text text-anchor="start" x="169.5" y="-177.5" font-family="Helvetica,sans-Serif" font-size="10.00">pocketmine\network</text>
<text text-anchor="start" x="169.5" y="-166.5" font-family="Helvetica,sans-Serif" font-size="10.00">\mcpe\protocol\AnimateEntity</text>
<text text-anchor="middle" x="242.5" y="-155.5" font-family="Helvetica,sans-Serif" font-size="10.00">Packet</text>
<polyline fill="none" stroke="black" points="161.5,-148.5 323.5,-148.5 "/>
<text text-anchor="middle" x="242.5" y="-136.5" font-family="Helvetica,sans-Serif" font-size="10.00"> </text>
<polyline fill="none" stroke="black" points="161.5,-129.5 323.5,-129.5 "/>
<text text-anchor="start" x="169.5" y="-117.5" font-family="Helvetica,sans-Serif" font-size="10.00">+ getActorRuntimeIds()</text>
<text text-anchor="start" x="169.5" y="-106.5" font-family="Helvetica,sans-Serif" font-size="10.00">+ getAnimation()</text>
<text text-anchor="start" x="169.5" y="-95.5" font-family="Helvetica,sans-Serif" font-size="10.00">+ getBlendOutTime()</text>
<text text-anchor="start" x="169.5" y="-84.5" font-family="Helvetica,sans-Serif" font-size="10.00">+ getController()</text>
<text text-anchor="start" x="169.5" y="-73.5" font-family="Helvetica,sans-Serif" font-size="10.00">+ getNextState()</text>
<text text-anchor="start" x="169.5" y="-62.5" font-family="Helvetica,sans-Serif" font-size="10.00">+ getStopExpression()</text>
<text text-anchor="start" x="169.5" y="-51.5" font-family="Helvetica,sans-Serif" font-size="10.00">+ getStopExpressionVersion()</text>
<text text-anchor="start" x="169.5" y="-40.5" font-family="Helvetica,sans-Serif" font-size="10.00">+ handle()</text>
<text text-anchor="start" x="169.5" y="-29.5" font-family="Helvetica,sans-Serif" font-size="10.00">+ create()</text>
<text text-anchor="start" x="169.5" y="-18.5" font-family="Helvetica,sans-Serif" font-size="10.00"># decodePayload()</text>
<text text-anchor="start" x="169.5" y="-7.5" font-family="Helvetica,sans-Serif" font-size="10.00"># encodePayload()</text>
</a>
</g>
</g>
<!-- Node2 -->
<g id="node2" class="node">
<title>Node2</title>
<g id="a_node2"><a xlink:href="../../d1/ddb/classpocketmine_1_1network_1_1mcpe_1_1protocol_1_1_data_packet.html" target="_top" xlink:title=" ">
<polygon fill="white" stroke="#bfbfbf" points="169,-227.5 169,-416.5 316,-416.5 316,-227.5 169,-227.5"/>
<text text-anchor="start" x="177" y="-404.5" font-family="Helvetica,sans-Serif" font-size="10.00">pocketmine\network</text>
<text text-anchor="middle" x="242.5" y="-393.5" font-family="Helvetica,sans-Serif" font-size="10.00">\mcpe\protocol\DataPacket</text>
<polyline fill="none" stroke="#bfbfbf" points="169,-386.5 316,-386.5 "/>
<text text-anchor="start" x="177" y="-374.5" font-family="Helvetica,sans-Serif" font-size="10.00">+ $recipientSubId</text>
<text text-anchor="start" x="177" y="-363.5" font-family="Helvetica,sans-Serif" font-size="10.00">+ $senderSubId</text>
<polyline fill="none" stroke="#bfbfbf" points="169,-356.5 316,-356.5 "/>
<text text-anchor="start" x="177" y="-344.5" font-family="Helvetica,sans-Serif" font-size="10.00">+ __get()</text>
<text text-anchor="start" x="177" y="-333.5" font-family="Helvetica,sans-Serif" font-size="10.00">+ __set()</text>
<text text-anchor="start" x="177" y="-322.5" font-family="Helvetica,sans-Serif" font-size="10.00">+ canBeSentBeforeLogin()</text>
<text text-anchor="start" x="177" y="-311.5" font-family="Helvetica,sans-Serif" font-size="10.00">+ decode()</text>
<text text-anchor="start" x="177" y="-300.5" font-family="Helvetica,sans-Serif" font-size="10.00">+ encode()</text>
<text text-anchor="start" x="177" y="-289.5" font-family="Helvetica,sans-Serif" font-size="10.00">+ getName()</text>
<text text-anchor="start" x="177" y="-278.5" font-family="Helvetica,sans-Serif" font-size="10.00">+ pid()</text>
<text text-anchor="start" x="177" y="-267.5" font-family="Helvetica,sans-Serif" font-size="10.00"># decodeHeader()</text>
<text text-anchor="start" x="177" y="-256.5" font-family="Helvetica,sans-Serif" font-size="10.00"># decodePayload()</text>
<text text-anchor="start" x="177" y="-245.5" font-family="Helvetica,sans-Serif" font-size="10.00"># encodeHeader()</text>
<text text-anchor="start" x="177" y="-234.5" font-family="Helvetica,sans-Serif" font-size="10.00"># encodePayload()</text>
</a>
</g>
</g>
<!-- Node2&#45;&gt;Node1 -->
<g id="edge1" class="edge">
<title>Node2&#45;&gt;Node1</title>
<path fill="none" stroke="midnightblue" d="M242.5,-216.96C242.5,-207.85 242.5,-198.66 242.5,-189.64"/>
<polygon fill="none" stroke="midnightblue" points="239,-217.21 242.5,-227.21 246,-217.21 239,-217.21"/>
</g>
<!-- Node3 -->
<g id="node3" class="node">
<title>Node3</title>
<g id="a_node3"><a xlink:href="../../d4/d5d/interfacepocketmine_1_1network_1_1mcpe_1_1protocol_1_1_packet.html" target="_top" xlink:title=" ">
<polygon fill="white" stroke="#bfbfbf" points="65.5,-475.5 65.5,-598.5 211.5,-598.5 211.5,-475.5 65.5,-475.5"/>
<text text-anchor="start" x="73.5" y="-586.5" font-family="Helvetica,sans-Serif" font-size="10.00">pocketmine\network</text>
<text text-anchor="middle" x="138.5" y="-575.5" font-family="Helvetica,sans-Serif" font-size="10.00">\mcpe\protocol\Packet</text>
<polyline fill="none" stroke="#bfbfbf" points="65.5,-568.5 211.5,-568.5 "/>
<text text-anchor="middle" x="138.5" y="-556.5" font-family="Helvetica,sans-Serif" font-size="10.00"> </text>
<polyline fill="none" stroke="#bfbfbf" points="65.5,-549.5 211.5,-549.5 "/>
<text text-anchor="start" x="73.5" y="-537.5" font-family="Helvetica,sans-Serif" font-size="10.00">+ canBeSentBeforeLogin()</text>
<text text-anchor="start" x="73.5" y="-526.5" font-family="Helvetica,sans-Serif" font-size="10.00">+ decode()</text>
<text text-anchor="start" x="73.5" y="-515.5" font-family="Helvetica,sans-Serif" font-size="10.00">+ encode()</text>
<text text-anchor="start" x="73.5" y="-504.5" font-family="Helvetica,sans-Serif" font-size="10.00">+ getName()</text>
<text text-anchor="start" x="73.5" y="-493.5" font-family="Helvetica,sans-Serif" font-size="10.00">+ handle()</text>
<text text-anchor="start" x="73.5" y="-482.5" font-family="Helvetica,sans-Serif" font-size="10.00">+ pid()</text>
</a>
</g>
</g>
<!-- Node3&#45;&gt;Node2 -->
<g id="edge2" class="edge">
<title>Node3&#45;&gt;Node2</title>
<path fill="none" stroke="midnightblue" d="M172.62,-466.13C180.31,-450.37 188.6,-433.4 196.68,-416.84"/>
<polygon fill="none" stroke="midnightblue" points="169.41,-464.73 168.16,-475.25 175.7,-467.8 169.41,-464.73"/>
</g>
<!-- Node5 -->
<g id="node5" class="node">
<title>Node5</title>
<g id="a_node5"><a xlink:href="../../da/d77/interfacepocketmine_1_1network_1_1mcpe_1_1protocol_1_1_clientbound_packet.html" target="_top" xlink:title=" ">
<polygon fill="white" stroke="#bfbfbf" points="0,-282.5 0,-361.5 151,-361.5 151,-282.5 0,-282.5"/>
<text text-anchor="start" x="8" y="-349.5" font-family="Helvetica,sans-Serif" font-size="10.00">pocketmine\network</text>
<text text-anchor="start" x="8" y="-338.5" font-family="Helvetica,sans-Serif" font-size="10.00">\mcpe\protocol\Clientbound</text>
<text text-anchor="middle" x="75.5" y="-327.5" font-family="Helvetica,sans-Serif" font-size="10.00">Packet</text>
<polyline fill="none" stroke="#bfbfbf" points="0,-320.5 151,-320.5 "/>
<text text-anchor="middle" x="75.5" y="-308.5" font-family="Helvetica,sans-Serif" font-size="10.00"> </text>
<polyline fill="none" stroke="#bfbfbf" points="0,-301.5 151,-301.5 "/>
<text text-anchor="middle" x="75.5" y="-289.5" font-family="Helvetica,sans-Serif" font-size="10.00"> </text>
</a>
</g>
</g>
<!-- Node3&#45;&gt;Node5 -->
<g id="edge5" class="edge">
<title>Node3&#45;&gt;Node5</title>
<path fill="none" stroke="midnightblue" d="M117.69,-465.65C107.45,-431.03 95.5,-390.62 86.94,-361.67"/>
<polygon fill="none" stroke="midnightblue" points="114.34,-466.65 120.53,-475.25 121.05,-464.67 114.34,-466.65"/>
</g>
<!-- Node4 -->
<g id="node4" class="node">
<title>Node4</title>
<g id="a_node4"><a xlink:title=" ">
<polygon fill="white" stroke="#bfbfbf" points="251,-508.5 251,-565.5 294,-565.5 294,-508.5 251,-508.5"/>
<text text-anchor="middle" x="272.5" y="-553.5" font-family="Helvetica,sans-Serif" font-size="10.00">const</text>
<polyline fill="none" stroke="#bfbfbf" points="251,-546.5 294,-546.5 "/>
<text text-anchor="middle" x="272.5" y="-534.5" font-family="Helvetica,sans-Serif" font-size="10.00"> </text>
<polyline fill="none" stroke="#bfbfbf" points="251,-527.5 294,-527.5 "/>
<text text-anchor="middle" x="272.5" y="-515.5" font-family="Helvetica,sans-Serif" font-size="10.00"> </text>
</a>
</g>
</g>
<!-- Node4&#45;&gt;Node1 -->
<g id="edge6" class="edge">
<title>Node4&#45;&gt;Node1</title>
<path fill="none" stroke="#404040" d="M294.31,-517.76C309.94,-503.16 329.72,-481.19 338.5,-457 355.19,-410.98 465.69,-659.3 325.5,-227 322.64,-218.18 319.04,-209.35 314.97,-200.69"/>
<polygon fill="none" stroke="#404040" points="314.9,-200.57 308.65,-196.98 309.56,-189.82 315.81,-193.42 314.9,-200.57"/>
<text text-anchor="middle" x="421.5" y="-319.5" font-family="Helvetica,sans-Serif" font-size="10.00"> +NETWORK_ID</text>
</g>
<!-- Node4&#45;&gt;Node2 -->
<g id="edge3" class="edge">
<title>Node4&#45;&gt;Node2</title>
<path fill="none" stroke="#404040" d="M268.16,-508.23C265.83,-493.1 262.94,-474.03 260.5,-457 259.19,-447.85 257.86,-438.35 256.54,-428.81"/>
<polygon fill="none" stroke="#404040" points="256.52,-428.63 251.74,-423.23 254.88,-416.74 259.66,-422.14 256.52,-428.63"/>
<text text-anchor="middle" x="299.5" y="-449" font-family="Helvetica,sans-Serif" font-size="10.00"> +NETWORK_ID</text>
<text text-anchor="middle" x="299.5" y="-438" font-family="Helvetica,sans-Serif" font-size="10.00">+PID_MASK</text>
</g>
<!-- Node5&#45;&gt;Node1 -->
<g id="edge4" class="edge">
<title>Node5&#45;&gt;Node1</title>
<path fill="none" stroke="midnightblue" d="M110.18,-274.28C128.34,-249.81 151.24,-218.95 172.87,-189.81"/>
<polygon fill="none" stroke="midnightblue" points="107.36,-272.21 104.21,-282.32 112.98,-276.38 107.36,-272.21"/>
</g>
</g>
</svg>
