<?xml version="1.0" encoding="UTF-8" standalone="no"?>
<!DOCTYPE svg PUBLIC "-//W3C//DTD SVG 1.1//EN"
 "http://www.w3.org/Graphics/SVG/1.1/DTD/svg11.dtd">
<!-- Generated by graphviz version 2.43.0 (0)
 -->
<!-- Title: pocketmine\network\mcpe\protocol\types\AttributeLayerSettingsWeightFloat Pages: 1 -->
<svg width="165pt" height="272pt"
 viewBox="0.00 0.00 165.00 272.00" xmlns="http://www.w3.org/2000/svg" xmlns:xlink="http://www.w3.org/1999/xlink">

<svg id="main" version="1.1" xmlns="http://www.w3.org/2000/svg" xmlns:xlink="http://www.w3.org/1999/xlink" xml:space="preserve">

<style type="text/css"><![CDATA[
.node, .edge {opacity: 0.7;}
.node.selected, .edge.selected {opacity: 1;}
.edge:hover path { stroke: red; }
.edge:hover polygon { stroke: red; fill: red; }
]]></style>
<script type="application/ecmascript" xlink:href="../../svg.min.js"/>
<svg id="graph" class="graph">
<g id="graph0" class="graph" transform="scale(1 1) rotate(0) translate(4 268)">
<title>pocketmine\network\mcpe\protocol\types\AttributeLayerSettingsWeightFloat</title>
<!-- Node1 -->
<g id="Node000001" class="node">
<title>Node1</title>
<g id="a_Node000001"><a xlink:title=" ">
<polygon fill="#999999" stroke="transparent" points="157,-142 0,-142 0,0 157,0 157,-142"/>
<text text-anchor="start" x="5.5" y="-130" font-family="Helvetica,sans-Serif" font-size="10.00">pocketmine\network</text>
<text text-anchor="start" x="5.5" y="-119" font-family="Helvetica,sans-Serif" font-size="10.00">\mcpe\protocol\types</text>
<text text-anchor="start" x="5.5" y="-108" font-family="Helvetica,sans-Serif" font-size="10.00">\AttributeLayerSettingsWeight</text>
<text text-anchor="start" x="66.5" y="-97" font-family="Helvetica,sans-Serif" font-size="10.00">Float</text>
<text text-anchor="start" x="22.5" y="-82" font-family="Helvetica,sans-Serif" font-size="10.00">+</text>
<text text-anchor="start" x="53.5" y="-82" font-family="Helvetica,sans-Serif" font-size="10.00">ID</text>
<text text-anchor="start" x="22.5" y="-67" font-family="Helvetica,sans-Serif" font-size="10.00">+</text>
<text text-anchor="start" x="53.5" y="-67" font-family="Helvetica,sans-Serif" font-size="10.00">__construct()</text>
<text text-anchor="start" x="22.5" y="-52" font-family="Helvetica,sans-Serif" font-size="10.00">+</text>
<text text-anchor="start" x="53.5" y="-52" font-family="Helvetica,sans-Serif" font-size="10.00">getTypeId()</text>
<text text-anchor="start" x="22.5" y="-37" font-family="Helvetica,sans-Serif" font-size="10.00">+</text>
<text text-anchor="start" x="53.5" y="-37" font-family="Helvetica,sans-Serif" font-size="10.00">getValue()</text>
<text text-anchor="start" x="22.5" y="-22" font-family="Helvetica,sans-Serif" font-size="10.00">+</text>
<text text-anchor="start" x="53.5" y="-22" font-family="Helvetica,sans-Serif" font-size="10.00">write()</text>
<text text-anchor="start" x="22.5" y="-7" font-family="Helvetica,sans-Serif" font-size="10.00">+</text>
<text text-anchor="start" x="53.5" y="-7" font-family="Helvetica,sans-Serif" font-size="10.00">read()</text>
<polygon fill="#666666" stroke="#666666" points="0.5,-92 0.5,-92 157.5,-92 157.5,-92 0.5,-92"/>
<polygon fill="#666666" stroke="#666666" points="0.5,-77 0.5,-77 51.5,-77 51.5,-77 0.5,-77"/>
<polygon fill="#666666" stroke="#666666" points="51.5,-77 51.5,-77 157.5,-77 157.5,-77 51.5,-77"/>
<polygon fill="none" stroke="#666666" points="0,0 0,-142 157,-142 157,0 0,0"/>
</a>
</g>
</g>
<!-- Node2 -->
<g id="Node000002" class="node">
<title>Node2</title>
<g id="a_Node000002"><a xlink:href="../../d0/dd0/classpocketmine_1_1network_1_1mcpe_1_1protocol_1_1types_1_1_attribute_layer_settings_weight.html" target="_top" xlink:title=" ">
<polygon fill="white" stroke="transparent" points="157,-264 0,-264 0,-178 157,-178 157,-264"/>
<text text-anchor="start" x="5.5" y="-252" font-family="Helvetica,sans-Serif" font-size="10.00">pocketmine\network</text>
<text text-anchor="start" x="5.5" y="-241" font-family="Helvetica,sans-Serif" font-size="10.00">\mcpe\protocol\types</text>
<text text-anchor="start" x="5.5" y="-230" font-family="Helvetica,sans-Serif" font-size="10.00">\AttributeLayerSettingsWeight</text>
<text text-anchor="start" x="77" y="-215" font-family="Helvetica,sans-Serif" font-size="10.00"> </text>
<text text-anchor="start" x="24.5" y="-200" font-family="Helvetica,sans-Serif" font-size="10.00">+</text>
<text text-anchor="start" x="57.5" y="-200" font-family="Helvetica,sans-Serif" font-size="10.00">getTypeId()</text>
<text text-anchor="start" x="24.5" y="-185" font-family="Helvetica,sans-Serif" font-size="10.00">+</text>
<text text-anchor="start" x="57.5" y="-185" font-family="Helvetica,sans-Serif" font-size="10.00">write()</text>
<polygon fill="#666666" stroke="#666666" points="0.5,-225 0.5,-225 157.5,-225 157.5,-225 0.5,-225"/>
<polygon fill="#666666" stroke="#666666" points="0.5,-210 0.5,-210 157.5,-210 157.5,-210 0.5,-210"/>
<polygon fill="none" stroke="#666666" points="0,-178 0,-264 157,-264 157,-178 0,-178"/>
</a>
</g>
</g>
<!-- Node2&#45;&gt;Node1 -->
<g id="edge1_Node000001_Node000002" class="edge">
<title>Node2&#45;&gt;Node1</title>
<g id="a_edge1_Node000001_Node000002"><a xlink:title=" ">
<path fill="none" stroke="#63b8ff" d="M78.5,-167.73C78.5,-159.44 78.5,-150.74 78.5,-142.12"/>
<polygon fill="none" stroke="#63b8ff" points="75,-167.98 78.5,-177.99 82,-167.99 75,-167.98"/>
</a>
</g>
</g>
</g>
</svg>
</svg>

<style type='text/css'>
<![CDATA[
[data-mouse-over-selected='false'] { opacity: 0.7; }
[data-mouse-over-selected='true']  { opacity: 1.0; }
]]>
</style>
<script type="application/ecmascript"><![CDATA[
document.addEventListener('DOMContentLoaded', (event) => {
  highlightEdges();
  highlightAdjacentNodes();
});
]]></script>
</svg>
