<?xml version="1.0" encoding="UTF-8" standalone="no"?>
<!DOCTYPE svg PUBLIC "-//W3C//DTD SVG 1.1//EN"
 "http://www.w3.org/Graphics/SVG/1.1/DTD/svg11.dtd">
<!-- Generated by graphviz version 2.43.0 (0)
 -->
<!-- Title: pocketmine\data\bedrock\block\BlockStateNames Pages: 1 -->
<svg width="229pt" height="435pt"
 viewBox="0.00 0.00 228.50 435.00" xmlns="http://www.w3.org/2000/svg" xmlns:xlink="http://www.w3.org/1999/xlink">
<g id="graph0" class="graph" transform="scale(1 1) rotate(0) translate(4 431)">
<title>pocketmine\data\bedrock\block\BlockStateNames</title>
<polygon fill="white" stroke="transparent" points="-4,4 -4,-431 224.5,-431 224.5,4 -4,4"/>
<!-- Node1 -->
<g id="node1" class="node">
<title>Node1</title>
<g id="a_node1"><a xlink:title=" ">
<polygon fill="#bfbfbf" stroke="black" points="0,-0.5 0,-211.5 143,-211.5 143,-0.5 0,-0.5"/>
<text text-anchor="start" x="8" y="-199.5" font-family="Helvetica,sans-Serif" font-size="10.00">pocketmine\data\bedrock</text>
<text text-anchor="middle" x="71.5" y="-188.5" font-family="Helvetica,sans-Serif" font-size="10.00">\block\BlockStateNames</text>
<polyline fill="none" stroke="black" points="0,-181.5 143,-181.5 "/>
<text text-anchor="start" x="8" y="-169.5" font-family="Helvetica,sans-Serif" font-size="10.00">+ BLOOM</text>
<text text-anchor="start" x="8" y="-158.5" font-family="Helvetica,sans-Serif" font-size="10.00">+ BOOKS_STORED</text>
<text text-anchor="start" x="8" y="-147.5" font-family="Helvetica,sans-Serif" font-size="10.00">+ BREWING_STAND_SLOT</text>
<text text-anchor="start" x="8" y="-136.5" font-family="Helvetica,sans-Serif" font-size="10.00">_A_BIT</text>
<text text-anchor="start" x="8" y="-125.5" font-family="Helvetica,sans-Serif" font-size="10.00">+ BREWING_STAND_SLOT</text>
<text text-anchor="start" x="8" y="-114.5" font-family="Helvetica,sans-Serif" font-size="10.00">_B_BIT</text>
<text text-anchor="start" x="8" y="-103.5" font-family="Helvetica,sans-Serif" font-size="10.00">+ BREWING_STAND_SLOT</text>
<text text-anchor="start" x="8" y="-92.5" font-family="Helvetica,sans-Serif" font-size="10.00">_C_BIT</text>
<text text-anchor="start" x="8" y="-81.5" font-family="Helvetica,sans-Serif" font-size="10.00">+ BRUSHED_PROGRESS</text>
<text text-anchor="start" x="8" y="-70.5" font-family="Helvetica,sans-Serif" font-size="10.00">+ BUTTON_PRESSED_BIT</text>
<text text-anchor="start" x="8" y="-59.5" font-family="Helvetica,sans-Serif" font-size="10.00">+ CAN_SUMMON</text>
<text text-anchor="start" x="8" y="-48.5" font-family="Helvetica,sans-Serif" font-size="10.00">+ CANDLES</text>
<text text-anchor="start" x="8" y="-37.5" font-family="Helvetica,sans-Serif" font-size="10.00">+ CAULDRON_LIQUID</text>
<text text-anchor="start" x="8" y="-26.5" font-family="Helvetica,sans-Serif" font-size="10.00">and 83 more...</text>
<polyline fill="none" stroke="black" points="0,-19.5 143,-19.5 "/>
<text text-anchor="middle" x="71.5" y="-7.5" font-family="Helvetica,sans-Serif" font-size="10.00"> </text>
</a>
</g>
</g>
<!-- Node2 -->
<g id="node2" class="node">
<title>Node2</title>
<g id="a_node2"><a xlink:title=" ">
<polygon fill="white" stroke="#bfbfbf" points="50,-369.5 50,-426.5 93,-426.5 93,-369.5 50,-369.5"/>
<text text-anchor="middle" x="71.5" y="-414.5" font-family="Helvetica,sans-Serif" font-size="10.00">const</text>
<polyline fill="none" stroke="#bfbfbf" points="50,-407.5 93,-407.5 "/>
<text text-anchor="middle" x="71.5" y="-395.5" font-family="Helvetica,sans-Serif" font-size="10.00"> </text>
<polyline fill="none" stroke="#bfbfbf" points="50,-388.5 93,-388.5 "/>
<text text-anchor="middle" x="71.5" y="-376.5" font-family="Helvetica,sans-Serif" font-size="10.00"> </text>
</a>
</g>
</g>
<!-- Node2&#45;&gt;Node1 -->
<g id="edge1" class="edge">
<title>Node2&#45;&gt;Node1</title>
<path fill="none" stroke="#404040" d="M71.5,-369.46C71.5,-335.94 71.5,-277.19 71.5,-223.76"/>
<polygon fill="none" stroke="#404040" points="71.5,-223.75 67.5,-217.75 71.5,-211.75 75.5,-217.75 71.5,-223.75"/>
<text text-anchor="middle" x="146" y="-343" font-family="Helvetica,sans-Serif" font-size="10.00"> +ACTIVE</text>
<text text-anchor="middle" x="146" y="-332" font-family="Helvetica,sans-Serif" font-size="10.00">+AGE</text>
<text text-anchor="middle" x="146" y="-321" font-family="Helvetica,sans-Serif" font-size="10.00">+AGE_BIT</text>
<text text-anchor="middle" x="146" y="-310" font-family="Helvetica,sans-Serif" font-size="10.00">+ATTACHED_BIT</text>
<text text-anchor="middle" x="146" y="-299" font-family="Helvetica,sans-Serif" font-size="10.00">+ATTACHMENT</text>
<text text-anchor="middle" x="146" y="-288" font-family="Helvetica,sans-Serif" font-size="10.00">+BAMBOO_LEAF_SIZE</text>
<text text-anchor="middle" x="146" y="-277" font-family="Helvetica,sans-Serif" font-size="10.00">+BAMBOO_STALK_THICKNESS</text>
<text text-anchor="middle" x="146" y="-266" font-family="Helvetica,sans-Serif" font-size="10.00">+BIG_DRIPLEAF_HEAD</text>
<text text-anchor="middle" x="146" y="-255" font-family="Helvetica,sans-Serif" font-size="10.00">+BIG_DRIPLEAF_TILT</text>
<text text-anchor="middle" x="146" y="-244" font-family="Helvetica,sans-Serif" font-size="10.00">+BITE_COUNTER</text>
<text text-anchor="middle" x="146" y="-233" font-family="Helvetica,sans-Serif" font-size="10.00">...</text>
</g>
</g>
</svg>
