<?xml version="1.0" encoding="UTF-8" standalone="no"?>
<!DOCTYPE svg PUBLIC "-//W3C//DTD SVG 1.1//EN"
 "http://www.w3.org/Graphics/SVG/1.1/DTD/svg11.dtd">
<!-- Generated by graphviz version 2.43.0 (0)
 -->
<!-- Title: pocketmine\network\mcpe\handler\LoginPacketHandler Pages: 1 -->
<svg width="193pt" height="452pt"
 viewBox="0.00 0.00 193.00 452.00" xmlns="http://www.w3.org/2000/svg" xmlns:xlink="http://www.w3.org/1999/xlink">
<g id="graph0" class="graph" transform="scale(1 1) rotate(0) translate(4 448)">
<title>pocketmine\network\mcpe\handler\LoginPacketHandler</title>
<polygon fill="white" stroke="transparent" points="-4,4 -4,-448 189,-448 189,4 -4,4"/>
<!-- Node1 -->
<g id="node1" class="node">
<title>Node1</title>
<g id="a_node1"><a xlink:title=" ">
<polygon fill="#bfbfbf" stroke="black" points="0,-0.5 0,-112.5 185,-112.5 185,-0.5 0,-0.5"/>
<text text-anchor="start" x="8" y="-100.5" font-family="Helvetica,sans-Serif" font-size="10.00">pocketmine\network</text>
<text text-anchor="middle" x="92.5" y="-89.5" font-family="Helvetica,sans-Serif" font-size="10.00">\mcpe\handler\LoginPacketHandler</text>
<polyline fill="none" stroke="black" points="0,-82.5 185,-82.5 "/>
<text text-anchor="middle" x="92.5" y="-70.5" font-family="Helvetica,sans-Serif" font-size="10.00"> </text>
<polyline fill="none" stroke="black" points="0,-63.5 185,-63.5 "/>
<text text-anchor="start" x="8" y="-51.5" font-family="Helvetica,sans-Serif" font-size="10.00">+ __construct()</text>
<text text-anchor="start" x="8" y="-40.5" font-family="Helvetica,sans-Serif" font-size="10.00">+ handleLogin()</text>
<text text-anchor="start" x="8" y="-29.5" font-family="Helvetica,sans-Serif" font-size="10.00"># fetchAuthData()</text>
<text text-anchor="start" x="8" y="-18.5" font-family="Helvetica,sans-Serif" font-size="10.00"># parseClientData()</text>
<text text-anchor="start" x="8" y="-7.5" font-family="Helvetica,sans-Serif" font-size="10.00"># processLogin()</text>
</a>
</g>
</g>
<!-- Node2 -->
<g id="node2" class="node">
<title>Node2</title>
<g id="a_node2"><a xlink:href="../../d5/d23/classpocketmine_1_1network_1_1mcpe_1_1handler_1_1_packet_handler.html" target="_top" xlink:title=" ">
<polygon fill="white" stroke="black" points="13,-149.5 13,-217.5 172,-217.5 172,-149.5 13,-149.5"/>
<text text-anchor="start" x="21" y="-205.5" font-family="Helvetica,sans-Serif" font-size="10.00">pocketmine\network</text>
<text text-anchor="middle" x="92.5" y="-194.5" font-family="Helvetica,sans-Serif" font-size="10.00">\mcpe\handler\PacketHandler</text>
<polyline fill="none" stroke="black" points="13,-187.5 172,-187.5 "/>
<text text-anchor="middle" x="92.5" y="-175.5" font-family="Helvetica,sans-Serif" font-size="10.00"> </text>
<polyline fill="none" stroke="black" points="13,-168.5 172,-168.5 "/>
<text text-anchor="start" x="21" y="-156.5" font-family="Helvetica,sans-Serif" font-size="10.00">+ setUp()</text>
</a>
</g>
</g>
<!-- Node2&#45;&gt;Node1 -->
<g id="edge1" class="edge">
<title>Node2&#45;&gt;Node1</title>
<path fill="none" stroke="midnightblue" d="M92.5,-139.18C92.5,-130.6 92.5,-121.49 92.5,-112.59"/>
<polygon fill="none" stroke="midnightblue" points="89,-139.33 92.5,-149.33 96,-139.33 89,-139.33"/>
</g>
<!-- Node3 -->
<g id="node3" class="node">
<title>Node3</title>
<g id="a_node3"><a xlink:href="../../d1/d7c/interfacepocketmine_1_1network_1_1mcpe_1_1protocol_1_1_packet_handler_interface.html" target="_top" xlink:title=" ">
<polygon fill="white" stroke="black" points="11.5,-254.5 11.5,-443.5 173.5,-443.5 173.5,-254.5 11.5,-254.5"/>
<text text-anchor="start" x="19.5" y="-431.5" font-family="Helvetica,sans-Serif" font-size="10.00">pocketmine\network</text>
<text text-anchor="start" x="19.5" y="-420.5" font-family="Helvetica,sans-Serif" font-size="10.00">\mcpe\protocol\PacketHandler</text>
<text text-anchor="middle" x="92.5" y="-409.5" font-family="Helvetica,sans-Serif" font-size="10.00">Interface</text>
<polyline fill="none" stroke="black" points="11.5,-402.5 173.5,-402.5 "/>
<text text-anchor="middle" x="92.5" y="-390.5" font-family="Helvetica,sans-Serif" font-size="10.00"> </text>
<polyline fill="none" stroke="black" points="11.5,-383.5 173.5,-383.5 "/>
<text text-anchor="start" x="19.5" y="-371.5" font-family="Helvetica,sans-Serif" font-size="10.00">+ handleActorEvent()</text>
<text text-anchor="start" x="19.5" y="-360.5" font-family="Helvetica,sans-Serif" font-size="10.00">+ handleActorPickRequest()</text>
<text text-anchor="start" x="19.5" y="-349.5" font-family="Helvetica,sans-Serif" font-size="10.00">+ handleAddActor()</text>
<text text-anchor="start" x="19.5" y="-338.5" font-family="Helvetica,sans-Serif" font-size="10.00">+ handleAddBehaviorTree()</text>
<text text-anchor="start" x="19.5" y="-327.5" font-family="Helvetica,sans-Serif" font-size="10.00">+ handleAddEntity()</text>
<text text-anchor="start" x="19.5" y="-316.5" font-family="Helvetica,sans-Serif" font-size="10.00">+ handleAddItemActor()</text>
<text text-anchor="start" x="19.5" y="-305.5" font-family="Helvetica,sans-Serif" font-size="10.00">+ handleAddPainting()</text>
<text text-anchor="start" x="19.5" y="-294.5" font-family="Helvetica,sans-Serif" font-size="10.00">+ handleAddPlayer()</text>
<text text-anchor="start" x="19.5" y="-283.5" font-family="Helvetica,sans-Serif" font-size="10.00">+ handleAddVolumeEntity()</text>
<text text-anchor="start" x="19.5" y="-272.5" font-family="Helvetica,sans-Serif" font-size="10.00">+ handleAgentActionEvent()</text>
<text text-anchor="start" x="19.5" y="-261.5" font-family="Helvetica,sans-Serif" font-size="10.00">and 184 more...</text>
</a>
</g>
</g>
<!-- Node3&#45;&gt;Node2 -->
<g id="edge2" class="edge">
<title>Node3&#45;&gt;Node2</title>
<path fill="none" stroke="midnightblue" d="M92.5,-244.27C92.5,-234.75 92.5,-225.67 92.5,-217.58"/>
<polygon fill="none" stroke="midnightblue" points="89,-244.31 92.5,-254.31 96,-244.31 89,-244.31"/>
</g>
</g>
</svg>
