<?xml version="1.0" encoding="UTF-8" standalone="no"?>
<!DOCTYPE svg PUBLIC "-//W3C//DTD SVG 1.1//EN"
 "http://www.w3.org/Graphics/SVG/1.1/DTD/svg11.dtd">
<!-- Generated by graphviz version 2.43.0 (0)
 -->
<!-- Title: JsonMapper\map Pages: 1 -->
<!--zoomable 610 -->
<svg id="main" version="1.1" xmlns="http://www.w3.org/2000/svg" xmlns:xlink="http://www.w3.org/1999/xlink" xml:space="preserve" onload="init(evt)">
<style type="text/css"><![CDATA[
.edge:hover path { stroke: red; }
.edge:hover polygon { stroke: red; fill: red; }
]]></style>
<script type="text/javascript"><![CDATA[
var edges = document.getElementsByTagName('g');
if (edges && edges.length) {
  for (var i=0;i<edges.length;i++) {
    if (edges[i].id.substr(0,4)=='edge') {
      edges[i].setAttribute('class','edge');
    }
  }
}
]]></script>
        <defs>
                <circle id="rim" cx="0" cy="0" r="7"/>
                <circle id="rim2" cx="0" cy="0" r="3.5"/>
                <g id="zoomPlus">
                        <use xlink:href="#rim" fill="#404040">
                                <set attributeName="fill" to="#808080" begin="zoomplus.mouseover" end="zoomplus.mouseout"/>
                        </use>
                        <path d="M-4,0h8M0,-4v8" fill="none" stroke="white" stroke-width="1.5" pointer-events="none"/>
                </g>
                <g id="zoomMin">
                        <use xlink:href="#rim" fill="#404040">
                                <set attributeName="fill" to="#808080" begin="zoomminus.mouseover" end="zoomminus.mouseout"/>
                        </use>
                        <path d="M-4,0h8" fill="none" stroke="white" stroke-width="1.5" pointer-events="none"/>
                </g>
                <g id="dirArrow">
                        <path fill="none" stroke="white" stroke-width="1.5" d="M0,-3.0v7 M-2.5,-0.5L0,-3.0L2.5,-0.5"/>
                </g>
               <g id="resetDef">
                       <use xlink:href="#rim2" fill="#404040">
                               <set attributeName="fill" to="#808080" begin="reset.mouseover" end="reset.mouseout"/>
                       </use>
               </g>
        </defs>

<script type="text/javascript">
var viewWidth = 501;
var viewHeight = 610;
var sectionId = 'dynsection-14';
</script>
<script xlink:href="../../svgpan.js"/>
<svg id="graph" class="graph">
<g id="viewport">
<title>JsonMapper\map</title>
<polygon fill="white" stroke="transparent" points="-4,4 -4,-606 497,-606 497,4 -4,4"/>
<!-- Node1 -->
<g id="node1" class="node">
<title>Node1</title>
<g id="a_node1"><a xlink:title=" ">
<polygon fill="#bfbfbf" stroke="black" points="0,-297.5 0,-316.5 98,-316.5 98,-297.5 0,-297.5"/>
<text text-anchor="middle" x="49" y="-304.5" font-family="Helvetica,sans-Serif" font-size="10.00">JsonMapper\map</text>
</a>
</g>
</g>
<!-- Node1&#45;&gt;Node1 -->
<g id="edge14" class="edge">
<title>Node1&#45;&gt;Node1</title>
<path fill="none" stroke="midnightblue" d="M21.87,-316.76C8.68,-325.57 17.72,-335 49,-335 70.51,-335 81.5,-330.54 81.98,-324.89"/>
<polygon fill="midnightblue" stroke="midnightblue" points="84.81,-322.83 76.13,-316.76 79.13,-326.92 84.81,-322.83"/>
</g>
<!-- Node2 -->
<g id="node2" class="node">
<title>Node2</title>
<g id="a_node2"><a xlink:href="../../df/d33/class_json_mapper.html#afef29dc6f5962775c3d21e8882b573fe" target="_top" xlink:title=" ">
<polygon fill="white" stroke="black" points="142,-582.5 142,-601.5 308,-601.5 308,-582.5 142,-582.5"/>
<text text-anchor="middle" x="225" y="-589.5" font-family="Helvetica,sans-Serif" font-size="10.00">JsonMapper\checkMissingData</text>
</a>
</g>
</g>
<!-- Node1&#45;&gt;Node2 -->
<g id="edge1" class="edge">
<title>Node1&#45;&gt;Node2</title>
<path fill="none" stroke="midnightblue" d="M49.83,-316.53C49.72,-355.11 54.71,-501.11 134,-573 135.55,-574.41 137.18,-575.72 138.88,-576.95"/>
<polygon fill="midnightblue" stroke="midnightblue" points="137.48,-580.19 147.84,-582.36 141.09,-574.2 137.48,-580.19"/>
</g>
<!-- Node3 -->
<g id="node3" class="node">
<title>Node3</title>
<g id="a_node3"><a xlink:href="../../df/d33/class_json_mapper.html#a8554b4a541070950998b4b43b7e723c3" target="_top" xlink:title=" ">
<polygon fill="white" stroke="black" points="150.5,-544.5 150.5,-563.5 299.5,-563.5 299.5,-544.5 150.5,-544.5"/>
<text text-anchor="middle" x="225" y="-551.5" font-family="Helvetica,sans-Serif" font-size="10.00">JsonMapper\createInstance</text>
</a>
</g>
</g>
<!-- Node1&#45;&gt;Node3 -->
<g id="edge2" class="edge">
<title>Node1&#45;&gt;Node3</title>
<path fill="none" stroke="midnightblue" d="M50.4,-316.6C52.43,-351.81 64.44,-474.85 134,-535 136.27,-536.96 138.68,-538.73 141.21,-540.34"/>
<polygon fill="midnightblue" stroke="midnightblue" points="139.76,-543.53 150.23,-545.17 143.07,-537.36 139.76,-543.53"/>
</g>
<!-- Node4 -->
<g id="node4" class="node">
<title>Node4</title>
<g id="a_node4"><a xlink:href="../../df/d33/class_json_mapper.html#ad62d04bda0c3c721e0a7a8954144d3d4" target="_top" xlink:title=" ">
<polygon fill="white" stroke="black" points="141.5,-506.5 141.5,-525.5 308.5,-525.5 308.5,-506.5 141.5,-506.5"/>
<text text-anchor="middle" x="225" y="-513.5" font-family="Helvetica,sans-Serif" font-size="10.00">JsonMapper\getFullNamespace</text>
</a>
</g>
</g>
<!-- Node1&#45;&gt;Node4 -->
<g id="edge3" class="edge">
<title>Node1&#45;&gt;Node4</title>
<path fill="none" stroke="midnightblue" d="M51.46,-316.8C56.59,-347.62 76.66,-443.45 134,-492 138.86,-496.11 144.35,-499.53 150.17,-502.37"/>
<polygon fill="midnightblue" stroke="midnightblue" points="148.96,-505.66 159.54,-506.36 151.71,-499.22 148.96,-505.66"/>
</g>
<!-- Node5 -->
<g id="node5" class="node">
<title>Node5</title>
<g id="a_node5"><a xlink:href="../../df/d33/class_json_mapper.html#af934b6a4e0dc5da15bc8f4f0b0b9d305" target="_top" xlink:title=" ">
<polygon fill="white" stroke="black" points="352,-487.5 352,-506.5 493,-506.5 493,-487.5 352,-487.5"/>
<text text-anchor="middle" x="422.5" y="-494.5" font-family="Helvetica,sans-Serif" font-size="10.00">JsonMapper\isSimpleType</text>
</a>
</g>
</g>
<!-- Node1&#45;&gt;Node5 -->
<g id="edge12" class="edge">
<title>Node1&#45;&gt;Node5</title>
<path fill="none" stroke="midnightblue" d="M52.1,-316.5C58.68,-343.89 81.7,-423.32 134,-459 166.82,-481.39 268.45,-490.62 341.57,-494.4"/>
<polygon fill="midnightblue" stroke="midnightblue" points="341.52,-497.9 351.68,-494.9 341.87,-490.91 341.52,-497.9"/>
</g>
<!-- Node6 -->
<g id="node6" class="node">
<title>Node6</title>
<g id="a_node6"><a xlink:href="../../df/d33/class_json_mapper.html#abd7a5d7f3d79410b14cbbe2b421d3e4d" target="_top" xlink:title=" ">
<polygon fill="white" stroke="black" points="148,-430.5 148,-449.5 302,-449.5 302,-430.5 148,-430.5"/>
<text text-anchor="middle" x="225" y="-437.5" font-family="Helvetica,sans-Serif" font-size="10.00">JsonMapper\getMappedType</text>
</a>
</g>
</g>
<!-- Node1&#45;&gt;Node6 -->
<g id="edge5" class="edge">
<title>Node1&#45;&gt;Node6</title>
<path fill="none" stroke="midnightblue" d="M54.21,-316.82C64.36,-339.23 92.45,-394.25 134,-421 137.21,-423.07 140.61,-424.91 144.12,-426.56"/>
<polygon fill="midnightblue" stroke="midnightblue" points="143.1,-429.92 153.68,-430.48 145.76,-423.45 143.1,-429.92"/>
</g>
<!-- Node7 -->
<g id="node7" class="node">
<title>Node7</title>
<g id="a_node7"><a xlink:href="../../df/d33/class_json_mapper.html#a98bcd21a174db450c379419566a449ff" target="_top" xlink:title=" ">
<polygon fill="white" stroke="black" points="153.5,-392.5 153.5,-411.5 296.5,-411.5 296.5,-392.5 153.5,-392.5"/>
<text text-anchor="middle" x="225" y="-399.5" font-family="Helvetica,sans-Serif" font-size="10.00">JsonMapper\getSafeName</text>
</a>
</g>
</g>
<!-- Node1&#45;&gt;Node7 -->
<g id="edge6" class="edge">
<title>Node1&#45;&gt;Node7</title>
<path fill="none" stroke="midnightblue" d="M57.66,-316.68C71.2,-333.09 101.07,-366.2 134,-383 138.8,-385.45 143.9,-387.58 149.14,-389.44"/>
<polygon fill="midnightblue" stroke="midnightblue" points="148.08,-392.78 158.67,-392.5 150.22,-386.11 148.08,-392.78"/>
</g>
<!-- Node8 -->
<g id="node8" class="node">
<title>Node8</title>
<g id="a_node8"><a xlink:href="../../df/d33/class_json_mapper.html#a79338103d96ff6ad6aab2b1191e2dc5a" target="_top" xlink:title=" ">
<polygon fill="white" stroke="black" points="134,-354.5 134,-373.5 316,-373.5 316,-354.5 134,-354.5"/>
<text text-anchor="middle" x="225" y="-361.5" font-family="Helvetica,sans-Serif" font-size="10.00">JsonMapper\hasVariadicArrayType</text>
</a>
</g>
</g>
<!-- Node1&#45;&gt;Node8 -->
<g id="edge7" class="edge">
<title>Node1&#45;&gt;Node8</title>
<path fill="none" stroke="midnightblue" d="M68.22,-316.64C84.94,-325.14 110.57,-337.33 134,-345 142.07,-347.64 150.67,-350.01 159.24,-352.1"/>
<polygon fill="midnightblue" stroke="midnightblue" points="158.71,-355.57 169.24,-354.42 160.29,-348.75 158.71,-355.57"/>
</g>
<!-- Node9 -->
<g id="node9" class="node">
<title>Node9</title>
<g id="a_node9"><a xlink:href="../../df/d33/class_json_mapper.html#ab7f52dad4560287d566a4b368832b6ad" target="_top" xlink:title=" ">
<polygon fill="white" stroke="black" points="148.5,-316.5 148.5,-335.5 301.5,-335.5 301.5,-316.5 148.5,-316.5"/>
<text text-anchor="middle" x="225" y="-323.5" font-family="Helvetica,sans-Serif" font-size="10.00">JsonMapper\inspectProperty</text>
</a>
</g>
</g>
<!-- Node1&#45;&gt;Node9 -->
<g id="edge8" class="edge">
<title>Node1&#45;&gt;Node9</title>
<path fill="none" stroke="midnightblue" d="M98.01,-312.24C110.55,-313.61 124.46,-315.13 138.33,-316.65"/>
<polygon fill="midnightblue" stroke="midnightblue" points="138.08,-320.14 148.4,-317.74 138.84,-313.18 138.08,-320.14"/>
</g>
<!-- Node10 -->
<g id="node10" class="node">
<title>Node10</title>
<g id="a_node10"><a xlink:href="../../df/d33/class_json_mapper.html#acea6a35cf00954ae98da9a1fce69fd55" target="_top" xlink:title=" ">
<polygon fill="white" stroke="black" points="152.5,-278.5 152.5,-297.5 297.5,-297.5 297.5,-278.5 152.5,-278.5"/>
<text text-anchor="middle" x="225" y="-285.5" font-family="Helvetica,sans-Serif" font-size="10.00">JsonMapper\isArrayOfType</text>
</a>
</g>
</g>
<!-- Node1&#45;&gt;Node10 -->
<g id="edge9" class="edge">
<title>Node1&#45;&gt;Node10</title>
<path fill="none" stroke="midnightblue" d="M98.01,-301.76C111.66,-300.27 126.92,-298.6 141.98,-296.96"/>
<polygon fill="midnightblue" stroke="midnightblue" points="142.8,-300.39 152.36,-295.82 142.04,-293.43 142.8,-300.39"/>
</g>
<!-- Node11 -->
<g id="node11" class="node">
<title>Node11</title>
<g id="a_node11"><a xlink:href="../../df/d33/class_json_mapper.html#ac1f687492f00c29fb02832109e1a7460" target="_top" xlink:title=" ">
<polygon fill="white" stroke="black" points="162,-240.5 162,-259.5 288,-259.5 288,-240.5 162,-240.5"/>
<text text-anchor="middle" x="225" y="-247.5" font-family="Helvetica,sans-Serif" font-size="10.00">JsonMapper\isFlatType</text>
</a>
</g>
</g>
<!-- Node1&#45;&gt;Node11 -->
<g id="edge10" class="edge">
<title>Node1&#45;&gt;Node11</title>
<path fill="none" stroke="midnightblue" d="M68.22,-297.36C84.94,-288.86 110.57,-276.67 134,-269 142.07,-266.36 150.67,-263.99 159.24,-261.9"/>
<polygon fill="midnightblue" stroke="midnightblue" points="160.29,-265.25 169.24,-259.58 158.71,-258.43 160.29,-265.25"/>
</g>
<!-- Node12 -->
<g id="node12" class="node">
<title>Node12</title>
<g id="a_node12"><a xlink:href="../../df/d33/class_json_mapper.html#ac7db2a1759f7909b045cb4c597ebd169" target="_top" xlink:title=" ">
<polygon fill="white" stroke="black" points="136,-202.5 136,-221.5 314,-221.5 314,-202.5 136,-202.5"/>
<text text-anchor="middle" x="225" y="-209.5" font-family="Helvetica,sans-Serif" font-size="10.00">JsonMapper\isObjectOfSameType</text>
</a>
</g>
</g>
<!-- Node1&#45;&gt;Node12 -->
<g id="edge11" class="edge">
<title>Node1&#45;&gt;Node12</title>
<path fill="none" stroke="midnightblue" d="M57.66,-297.32C71.2,-280.91 101.07,-247.8 134,-231 138.8,-228.55 143.9,-226.42 149.14,-224.56"/>
<polygon fill="midnightblue" stroke="midnightblue" points="150.22,-227.89 158.67,-221.5 148.08,-221.22 150.22,-227.89"/>
</g>
<!-- Node13 -->
<g id="node13" class="node">
<title>Node13</title>
<g id="a_node13"><a xlink:href="../../df/d33/class_json_mapper.html#ae1feb3357ff2c46f27d3f4820f31d80d" target="_top" xlink:title=" ">
<polygon fill="white" stroke="black" points="179,-164.5 179,-183.5 271,-183.5 271,-164.5 179,-164.5"/>
<text text-anchor="middle" x="225" y="-171.5" font-family="Helvetica,sans-Serif" font-size="10.00">JsonMapper\log</text>
</a>
</g>
</g>
<!-- Node1&#45;&gt;Node13 -->
<g id="edge13" class="edge">
<title>Node1&#45;&gt;Node13</title>
<path fill="none" stroke="midnightblue" d="M54.21,-297.18C64.36,-274.77 92.45,-219.75 134,-193 144.39,-186.31 156.71,-181.94 168.86,-179.08"/>
<polygon fill="midnightblue" stroke="midnightblue" points="169.87,-182.44 178.97,-177.02 168.47,-175.58 169.87,-182.44"/>
</g>
<!-- Node14 -->
<g id="node14" class="node">
<title>Node14</title>
<g id="a_node14"><a xlink:href="../../df/d33/class_json_mapper.html#af4e591ac464a6d0a3e8cab3eaaa77e8c" target="_top" xlink:title=" ">
<polygon fill="white" stroke="black" points="162.5,-126.5 162.5,-145.5 287.5,-145.5 287.5,-126.5 162.5,-126.5"/>
<text text-anchor="middle" x="225" y="-133.5" font-family="Helvetica,sans-Serif" font-size="10.00">JsonMapper\mapArray</text>
</a>
</g>
</g>
<!-- Node1&#45;&gt;Node14 -->
<g id="edge15" class="edge">
<title>Node1&#45;&gt;Node14</title>
<path fill="none" stroke="midnightblue" d="M52.33,-297.3C59.41,-270.07 83.34,-192.48 134,-155 139.61,-150.85 145.92,-147.57 152.53,-144.97"/>
<polygon fill="midnightblue" stroke="midnightblue" points="154.04,-148.15 162.39,-141.64 151.8,-141.52 154.04,-148.15"/>
</g>
<!-- Node15 -->
<g id="node15" class="node">
<title>Node15</title>
<g id="a_node15"><a xlink:href="../../df/d33/class_json_mapper.html#a22f5616fc52f267dc42b1733cd438793" target="_top" xlink:title=" ">
<polygon fill="white" stroke="black" points="147.5,-88.5 147.5,-107.5 302.5,-107.5 302.5,-88.5 147.5,-88.5"/>
<text text-anchor="middle" x="225" y="-95.5" font-family="Helvetica,sans-Serif" font-size="10.00">JsonMapper\removeNullable</text>
</a>
</g>
</g>
<!-- Node1&#45;&gt;Node15 -->
<g id="edge16" class="edge">
<title>Node1&#45;&gt;Node15</title>
<path fill="none" stroke="midnightblue" d="M51.2,-297.26C55.63,-265.72 74.05,-165.61 134,-117 136.06,-115.33 138.24,-113.79 140.5,-112.38"/>
<polygon fill="midnightblue" stroke="midnightblue" points="142.42,-115.33 149.61,-107.55 139.14,-109.14 142.42,-115.33"/>
</g>
<!-- Node16 -->
<g id="node16" class="node">
<title>Node16</title>
<g id="a_node16"><a xlink:href="../../df/d33/class_json_mapper.html#ac5140104fbe93d8efd647f292b3cad79" target="_top" xlink:title=" ">
<polygon fill="white" stroke="black" points="143,-39 143,-69 307,-69 307,-39 143,-39"/>
<text text-anchor="start" x="151" y="-57" font-family="Helvetica,sans-Serif" font-size="10.00">JsonMapper\removeUndefined</text>
<text text-anchor="middle" x="225" y="-46" font-family="Helvetica,sans-Serif" font-size="10.00">Attributes</text>
</a>
</g>
</g>
<!-- Node1&#45;&gt;Node16 -->
<g id="edge17" class="edge">
<title>Node1&#45;&gt;Node16</title>
<path fill="none" stroke="midnightblue" d="M50.57,-297.06C53.13,-261.72 66.67,-141.02 134,-79 135.7,-77.44 137.48,-75.97 139.34,-74.6"/>
<polygon fill="midnightblue" stroke="midnightblue" points="141.37,-77.45 147.92,-69.13 137.61,-71.55 141.37,-77.45"/>
</g>
<!-- Node17 -->
<g id="node17" class="node">
<title>Node17</title>
<g id="a_node17"><a xlink:href="../../df/d33/class_json_mapper.html#ae65221b298106430cc907710f584f3ad" target="_top" xlink:title=" ">
<polygon fill="white" stroke="black" points="158.5,-0.5 158.5,-19.5 291.5,-19.5 291.5,-0.5 158.5,-0.5"/>
<text text-anchor="middle" x="225" y="-7.5" font-family="Helvetica,sans-Serif" font-size="10.00">JsonMapper\setProperty</text>
</a>
</g>
</g>
<!-- Node1&#45;&gt;Node17 -->
<g id="edge18" class="edge">
<title>Node1&#45;&gt;Node17</title>
<path fill="none" stroke="midnightblue" d="M49.72,-297.39C49.11,-257.77 52.37,-105.67 134,-30 138.44,-25.89 143.53,-22.55 148.98,-19.86"/>
<polygon fill="midnightblue" stroke="midnightblue" points="150.57,-22.99 158.44,-15.9 147.87,-16.53 150.57,-22.99"/>
</g>
<!-- Node4&#45;&gt;Node5 -->
<g id="edge4" class="edge">
<title>Node4&#45;&gt;Node5</title>
<path fill="none" stroke="midnightblue" d="M308.63,-507.97C319.64,-506.9 330.91,-505.8 341.87,-504.74"/>
<polygon fill="midnightblue" stroke="midnightblue" points="342.21,-508.22 351.83,-503.77 341.53,-501.26 342.21,-508.22"/>
</g>
</g>
</svg>
        <g id="navigator" transform="translate(0 0)" fill="#404254">
                <rect fill="#f2f5e9" fill-opacity="0.5" stroke="#606060" stroke-width=".5" x="0" y="0" width="60" height="60"/>
                <use id="zoomplus" xlink:href="#zoomPlus" x="17" y="9" onmousedown="handleZoom(evt,'in')"/>
                <use id="zoomminus" xlink:href="#zoomMin" x="42" y="9" onmousedown="handleZoom(evt,'out')"/>
                <use id="reset" xlink:href="#resetDef" x="30" y="36" onmousedown="handleReset()"/>
                <g id="arrowUp" xlink:href="#dirArrow" transform="translate(30 24)" onmousedown="handlePan(0,-1)">
                  <use xlink:href="#rim" fill="#404040">
                        <set attributeName="fill" to="#808080" begin="arrowUp.mouseover" end="arrowUp.mouseout"/>
                  </use>
                  <path fill="none" stroke="white" stroke-width="1.5" d="M0,-3.0v7 M-2.5,-0.5L0,-3.0L2.5,-0.5"/>
                </g>
                <g id="arrowRight" xlink:href="#dirArrow" transform="rotate(90) translate(36 -43)" onmousedown="handlePan(1,0)">
                  <use xlink:href="#rim" fill="#404040">
                        <set attributeName="fill" to="#808080" begin="arrowRight.mouseover" end="arrowRight.mouseout"/>
                  </use>
                  <path fill="none" stroke="white" stroke-width="1.5" d="M0,-3.0v7 M-2.5,-0.5L0,-3.0L2.5,-0.5"/>
                </g>
                <g id="arrowDown" xlink:href="#dirArrow" transform="rotate(180) translate(-30 -48)" onmousedown="handlePan(0,1)">
                  <use xlink:href="#rim" fill="#404040">
                        <set attributeName="fill" to="#808080" begin="arrowDown.mouseover" end="arrowDown.mouseout"/>
                  </use>
                  <path fill="none" stroke="white" stroke-width="1.5" d="M0,-3.0v7 M-2.5,-0.5L0,-3.0L2.5,-0.5"/>
                </g>
                <g id="arrowLeft" xlink:href="#dirArrow" transform="rotate(270) translate(-36 17)" onmousedown="handlePan(-1,0)">
                  <use xlink:href="#rim" fill="#404040">
                        <set attributeName="fill" to="#808080" begin="arrowLeft.mouseover" end="arrowLeft.mouseout"/>
                  </use>
                  <path fill="none" stroke="white" stroke-width="1.5" d="M0,-3.0v7 M-2.5,-0.5L0,-3.0L2.5,-0.5"/>
                </g>
        </g>
        <svg viewBox="0 0 15 15" width="100%" height="30px" preserveAspectRatio="xMaxYMin meet">
         <g id="arrow_out" transform="scale(0.3 0.3)">
          <a xlink:href="class_json_mapper_a9f67ac538b21f01591bf89f3f2ae0ece_cgraph_org.svg" target="_base">
           <rect id="button" ry="5" rx="5" y="6" x="6" height="38" width="38"
                fill="#f2f5e9" fill-opacity="0.5" stroke="#606060" stroke-width="1.0"/>
           <path id="arrow"
             d="M 11.500037,31.436501 C 11.940474,20.09759 22.043105,11.32322 32.158766,21.979434 L 37.068811,17.246167 C 37.068811,17.246167 37.088388,32 37.088388,32 L 22.160133,31.978069 C 22.160133,31.978069 26.997745,27.140456 26.997745,27.140456 C 18.528582,18.264221 13.291696,25.230495 11.500037,31.436501 z"
             style="fill:#404040;"/>
          </a>
         </g>
        </svg>
</svg>
