<?xml version="1.0" encoding="UTF-8" standalone="no"?>
<!DOCTYPE svg PUBLIC "-//W3C//DTD SVG 1.1//EN"
 "http://www.w3.org/Graphics/SVG/1.1/DTD/svg11.dtd">
<!-- Generated by graphviz version 2.43.0 (0)
 -->
<!-- Title: JsonMapper\getFullNamespace Pages: 1 -->
<svg width="309pt" height="46pt"
 viewBox="0.00 0.00 309.00 46.00" xmlns="http://www.w3.org/2000/svg" xmlns:xlink="http://www.w3.org/1999/xlink">
<g id="graph0" class="graph" transform="scale(1 1) rotate(0) translate(4 42)">
<title>JsonMapper\getFullNamespace</title>
<polygon fill="white" stroke="transparent" points="-4,4 -4,-42 305,-42 305,4 -4,4"/>
<!-- Node1 -->
<g id="node1" class="node">
<title>Node1</title>
<g id="a_node1"><a xlink:title=" ">
<polygon fill="#bfbfbf" stroke="black" points="134,-0.5 134,-19.5 301,-19.5 301,-0.5 134,-0.5"/>
<text text-anchor="middle" x="217.5" y="-7.5" font-family="Helvetica,sans-Serif" font-size="10.00">JsonMapper\getFullNamespace</text>
</a>
</g>
</g>
<!-- Node2 -->
<g id="node2" class="node">
<title>Node2</title>
<g id="a_node2"><a xlink:href="../../df/d33/class_json_mapper.html#a9f67ac538b21f01591bf89f3f2ae0ece" target="_top" xlink:title=" ">
<polygon fill="white" stroke="black" points="0,-0.5 0,-19.5 98,-19.5 98,-0.5 0,-0.5"/>
<text text-anchor="middle" x="49" y="-7.5" font-family="Helvetica,sans-Serif" font-size="10.00">JsonMapper\map</text>
</a>
</g>
</g>
<!-- Node1&#45;&gt;Node2 -->
<g id="edge1" class="edge">
<title>Node1&#45;&gt;Node2</title>
<path fill="none" stroke="midnightblue" d="M123.71,-10C114.87,-10 106.17,-10 98.03,-10"/>
<polygon fill="midnightblue" stroke="midnightblue" points="123.74,-13.5 133.74,-10 123.74,-6.5 123.74,-13.5"/>
</g>
<!-- Node2&#45;&gt;Node2 -->
<g id="edge2" class="edge">
<title>Node2&#45;&gt;Node2</title>
<path fill="none" stroke="midnightblue" d="M80.44,-28.27C79.54,-33.74 69.06,-38 49,-38 19.14,-38 10.51,-28.57 23.11,-19.76"/>
<polygon fill="midnightblue" stroke="midnightblue" points="83.28,-26.23 74.89,-19.76 77.42,-30.05 83.28,-26.23"/>
</g>
</g>
</svg>
