<?xml version="1.0" encoding="UTF-8" standalone="no"?>
<!DOCTYPE svg PUBLIC "-//W3C//DTD SVG 1.1//EN"
 "http://www.w3.org/Graphics/SVG/1.1/DTD/svg11.dtd">
<!-- Generated by graphviz version 2.43.0 (0)
 -->
<!-- Title: pocketmine\block\Lava Pages: 1 -->
<svg width="177pt" height="1062pt"
 viewBox="0.00 0.00 177.00 1062.00" xmlns="http://www.w3.org/2000/svg" xmlns:xlink="http://www.w3.org/1999/xlink">
<g id="graph0" class="graph" transform="scale(1 1) rotate(0) translate(4 1058)">
<title>pocketmine\block\Lava</title>
<!-- Node1 -->
<g id="Node000001" class="node">
<title>Node1</title>
<g id="a_Node000001"><a xlink:title=" ">
<polygon fill="#999999" stroke="transparent" points="155.5,-154 13.5,-154 13.5,0 155.5,0 155.5,-154"/>
<text text-anchor="start" x="28" y="-142" font-family="Helvetica,sans-Serif" font-size="10.00">pocketmine\block\Lava</text>
<text text-anchor="start" x="82.5" y="-127" font-family="Helvetica,sans-Serif" font-size="10.00"> </text>
<text text-anchor="start" x="17.5" y="-112" font-family="Helvetica,sans-Serif" font-size="10.00">+</text>
<text text-anchor="start" x="30.5" y="-112" font-family="Helvetica,sans-Serif" font-size="10.00">getBucketEmptySound()</text>
<text text-anchor="start" x="17.5" y="-97" font-family="Helvetica,sans-Serif" font-size="10.00">+</text>
<text text-anchor="start" x="30.5" y="-97" font-family="Helvetica,sans-Serif" font-size="10.00">getBucketFillSound()</text>
<text text-anchor="start" x="17.5" y="-82" font-family="Helvetica,sans-Serif" font-size="10.00">+</text>
<text text-anchor="start" x="30.5" y="-82" font-family="Helvetica,sans-Serif" font-size="10.00">getFlowDecayPerBlock()</text>
<text text-anchor="start" x="17.5" y="-67" font-family="Helvetica,sans-Serif" font-size="10.00">+</text>
<text text-anchor="start" x="30.5" y="-67" font-family="Helvetica,sans-Serif" font-size="10.00">getLightLevel()</text>
<text text-anchor="start" x="17.5" y="-52" font-family="Helvetica,sans-Serif" font-size="10.00">+</text>
<text text-anchor="start" x="30.5" y="-52" font-family="Helvetica,sans-Serif" font-size="10.00">onEntityInside()</text>
<text text-anchor="start" x="17.5" y="-37" font-family="Helvetica,sans-Serif" font-size="10.00">+</text>
<text text-anchor="start" x="30.5" y="-37" font-family="Helvetica,sans-Serif" font-size="10.00">tickRate()</text>
<text text-anchor="start" x="17.5" y="-22" font-family="Helvetica,sans-Serif" font-size="10.00">#</text>
<text text-anchor="start" x="30.5" y="-22" font-family="Helvetica,sans-Serif" font-size="10.00">checkForHarden()</text>
<text text-anchor="start" x="17.5" y="-7" font-family="Helvetica,sans-Serif" font-size="10.00">#</text>
<text text-anchor="start" x="30.5" y="-7" font-family="Helvetica,sans-Serif" font-size="10.00">flowIntoBlock()</text>
<polygon fill="#666666" stroke="#666666" points="13.5,-137 13.5,-137 155.5,-137 155.5,-137 13.5,-137"/>
<polygon fill="#666666" stroke="#666666" points="13.5,-122 13.5,-122 155.5,-122 155.5,-122 13.5,-122"/>
<polygon fill="none" stroke="#666666" points="13.5,0 13.5,-154 155.5,-154 155.5,0 13.5,0"/>
</a>
</g>
</g>
<!-- Node2 -->
<g id="Node000002" class="node">
<title>Node2</title>
<g id="a_Node000002"><a xlink:href="../../d8/d57/classpocketmine_1_1block_1_1_liquid.html" target="_top" xlink:title=" ">
<polygon fill="white" stroke="transparent" points="166.5,-569 2.5,-569 2.5,-190 166.5,-190 166.5,-569"/>
<text text-anchor="start" x="25" y="-556.5" font-family="Helvetica,sans-Serif" font-size="10.00">pocketmine\block\Liquid</text>
<text text-anchor="start" x="6.5" y="-541.5" font-family="Helvetica,sans-Serif" font-size="10.00">+</text>
<text text-anchor="start" x="19.5" y="-541.5" font-family="Helvetica,sans-Serif" font-size="10.00">$adjacentSources</text>
<text text-anchor="start" x="6.5" y="-526.5" font-family="Helvetica,sans-Serif" font-size="10.00">+</text>
<text text-anchor="start" x="19.5" y="-526.5" font-family="Helvetica,sans-Serif" font-size="10.00">MAX_DECAY</text>
<text text-anchor="start" x="6.5" y="-511.5" font-family="Helvetica,sans-Serif" font-size="10.00">#</text>
<text text-anchor="start" x="19.5" y="-511.5" font-family="Helvetica,sans-Serif" font-size="10.00">$decay</text>
<text text-anchor="start" x="6.5" y="-496.5" font-family="Helvetica,sans-Serif" font-size="10.00">#</text>
<text text-anchor="start" x="19.5" y="-496.5" font-family="Helvetica,sans-Serif" font-size="10.00">$falling</text>
<text text-anchor="start" x="6.5" y="-481.5" font-family="Helvetica,sans-Serif" font-size="10.00">#</text>
<text text-anchor="start" x="19.5" y="-481.5" font-family="Helvetica,sans-Serif" font-size="10.00">$flowVector</text>
<text text-anchor="start" x="6.5" y="-466.5" font-family="Helvetica,sans-Serif" font-size="10.00">#</text>
<text text-anchor="start" x="19.5" y="-466.5" font-family="Helvetica,sans-Serif" font-size="10.00">$still</text>
<text text-anchor="start" x="6.5" y="-451.5" font-family="Helvetica,sans-Serif" font-size="10.00">+</text>
<text text-anchor="start" x="19.5" y="-451.5" font-family="Helvetica,sans-Serif" font-size="10.00">addVelocityToEntity()</text>
<text text-anchor="start" x="6.5" y="-436.5" font-family="Helvetica,sans-Serif" font-size="10.00">+</text>
<text text-anchor="start" x="19.5" y="-436.5" font-family="Helvetica,sans-Serif" font-size="10.00">canBeFlowedInto()</text>
<text text-anchor="start" x="6.5" y="-421.5" font-family="Helvetica,sans-Serif" font-size="10.00">+</text>
<text text-anchor="start" x="19.5" y="-421.5" font-family="Helvetica,sans-Serif" font-size="10.00">canBeReplaced()</text>
<text text-anchor="start" x="6.5" y="-406.5" font-family="Helvetica,sans-Serif" font-size="10.00">+</text>
<text text-anchor="start" x="19.5" y="-406.5" font-family="Helvetica,sans-Serif" font-size="10.00">getBucketEmptySound()</text>
<text text-anchor="start" x="6.5" y="-391.5" font-family="Helvetica,sans-Serif" font-size="10.00">+</text>
<text text-anchor="start" x="19.5" y="-391.5" font-family="Helvetica,sans-Serif" font-size="10.00">getBucketFillSound()</text>
<text text-anchor="start" x="6.5" y="-376.5" font-family="Helvetica,sans-Serif" font-size="10.00">+</text>
<text text-anchor="start" x="19.5" y="-376.5" font-family="Helvetica,sans-Serif" font-size="10.00">getDecay()</text>
<text text-anchor="start" x="6.5" y="-361.5" font-family="Helvetica,sans-Serif" font-size="10.00">+</text>
<text text-anchor="start" x="19.5" y="-361.5" font-family="Helvetica,sans-Serif" font-size="10.00">getDropsForCompatibleTool()</text>
<text text-anchor="start" x="6.5" y="-346.5" font-family="Helvetica,sans-Serif" font-size="10.00">+</text>
<text text-anchor="start" x="19.5" y="-346.5" font-family="Helvetica,sans-Serif" font-size="10.00">getFlowDecayPerBlock()</text>
<text text-anchor="start" x="6.5" y="-331.5" font-family="Helvetica,sans-Serif" font-size="10.00">+</text>
<text text-anchor="start" x="19.5" y="-331.5" font-family="Helvetica,sans-Serif" font-size="10.00">getFlowingForm()</text>
<text text-anchor="start" x="6.5" y="-316.5" font-family="Helvetica,sans-Serif" font-size="10.00">+</text>
<text text-anchor="start" x="19.5" y="-316.5" font-family="Helvetica,sans-Serif" font-size="10.00">getFlowVector()</text>
<text text-anchor="start" x="19.5" y="-301.5" font-family="Helvetica,sans-Serif" font-size="10.00">and 16 more...</text>
<text text-anchor="start" x="6.5" y="-286.5" font-family="Helvetica,sans-Serif" font-size="10.00">#</text>
<text text-anchor="start" x="19.5" y="-286.5" font-family="Helvetica,sans-Serif" font-size="10.00">canFlowInto()</text>
<text text-anchor="start" x="6.5" y="-271.5" font-family="Helvetica,sans-Serif" font-size="10.00">#</text>
<text text-anchor="start" x="19.5" y="-271.5" font-family="Helvetica,sans-Serif" font-size="10.00">checkForHarden()</text>
<text text-anchor="start" x="6.5" y="-256.5" font-family="Helvetica,sans-Serif" font-size="10.00">#</text>
<text text-anchor="start" x="19.5" y="-256.5" font-family="Helvetica,sans-Serif" font-size="10.00">describeBlockOnlyState()</text>
<text text-anchor="start" x="6.5" y="-241.5" font-family="Helvetica,sans-Serif" font-size="10.00">#</text>
<text text-anchor="start" x="19.5" y="-241.5" font-family="Helvetica,sans-Serif" font-size="10.00">flowIntoBlock()</text>
<text text-anchor="start" x="6.5" y="-226.5" font-family="Helvetica,sans-Serif" font-size="10.00">#</text>
<text text-anchor="start" x="19.5" y="-226.5" font-family="Helvetica,sans-Serif" font-size="10.00">getEffectiveFlowDecay()</text>
<text text-anchor="start" x="6.5" y="-211.5" font-family="Helvetica,sans-Serif" font-size="10.00">#</text>
<text text-anchor="start" x="19.5" y="-211.5" font-family="Helvetica,sans-Serif" font-size="10.00">liquidCollide()</text>
<text text-anchor="start" x="6.5" y="-196.5" font-family="Helvetica,sans-Serif" font-size="10.00">#</text>
<text text-anchor="start" x="19.5" y="-196.5" font-family="Helvetica,sans-Serif" font-size="10.00">recalculateCollisionBoxes()</text>
<polygon fill="#bfbfbf" stroke="#bfbfbf" points="2.5,-551.5 2.5,-551.5 166.5,-551.5 166.5,-551.5 2.5,-551.5"/>
<polygon fill="#bfbfbf" stroke="#bfbfbf" points="2.5,-461.5 2.5,-461.5 17.5,-461.5 17.5,-461.5 2.5,-461.5"/>
<polygon fill="#bfbfbf" stroke="#bfbfbf" points="17.5,-461.5 17.5,-461.5 166.5,-461.5 166.5,-461.5 17.5,-461.5"/>
<polygon fill="none" stroke="#bfbfbf" points="2.5,-190 2.5,-569 166.5,-569 166.5,-190 2.5,-190"/>
</a>
</g>
</g>
<!-- Node2&#45;&gt;Node1 -->
<g id="edge1_Node000001_Node000002" class="edge">
<title>Node2&#45;&gt;Node1</title>
<g id="a_edge1_Node000001_Node000002"><a xlink:title=" ">
<path fill="none" stroke="#63b8ff" d="M84.5,-179.83C84.5,-171 84.5,-162.42 84.5,-154.24"/>
<polygon fill="none" stroke="#63b8ff" points="81,-179.9 84.5,-189.9 88,-179.9 81,-179.9"/>
</a>
</g>
</g>
<!-- Node3 -->
<g id="Node000003" class="node">
<title>Node3</title>
<g id="a_Node000003"><a xlink:href="../../d5/d1b/classpocketmine_1_1block_1_1_transparent.html" target="_top" xlink:title=" ">
<polygon fill="white" stroke="transparent" points="163,-654 6,-654 6,-605 163,-605 163,-654"/>
<text text-anchor="start" x="11.5" y="-641.5" font-family="Helvetica,sans-Serif" font-size="10.00">pocketmine\block\Transparent</text>
<text text-anchor="start" x="83" y="-626.5" font-family="Helvetica,sans-Serif" font-size="10.00"> </text>
<text text-anchor="start" x="26" y="-611.5" font-family="Helvetica,sans-Serif" font-size="10.00">+</text>
<text text-anchor="start" x="54.5" y="-611.5" font-family="Helvetica,sans-Serif" font-size="10.00">isTransparent()</text>
<polygon fill="#666666" stroke="#666666" points="6.5,-636.5 6.5,-636.5 163.5,-636.5 163.5,-636.5 6.5,-636.5"/>
<polygon fill="#666666" stroke="#666666" points="6.5,-621.5 6.5,-621.5 163.5,-621.5 163.5,-621.5 6.5,-621.5"/>
<polygon fill="none" stroke="#666666" points="6,-605 6,-654 163,-654 163,-605 6,-605"/>
</a>
</g>
</g>
<!-- Node3&#45;&gt;Node2 -->
<g id="edge2_Node000002_Node000003" class="edge">
<title>Node3&#45;&gt;Node2</title>
<g id="a_edge2_Node000002_Node000003"><a xlink:title=" ">
<path fill="none" stroke="#63b8ff" d="M84.5,-594.61C84.5,-586.98 84.5,-578.34 84.5,-569.04"/>
<polygon fill="none" stroke="#63b8ff" points="81,-594.72 84.5,-604.72 88,-594.72 81,-594.72"/>
</a>
</g>
</g>
<!-- Node4 -->
<g id="Node000004" class="node">
<title>Node4</title>
<g id="a_Node000004"><a xlink:href="../../d7/d27/classpocketmine_1_1block_1_1_block.html" target="_top" xlink:title=" ">
<polygon fill="white" stroke="transparent" points="169,-1054 0,-1054 0,-690 169,-690 169,-1054"/>
<text text-anchor="start" x="26.5" y="-1042" font-family="Helvetica,sans-Serif" font-size="10.00">pocketmine\block\Block</text>
<text text-anchor="start" x="4.5" y="-1027" font-family="Helvetica,sans-Serif" font-size="10.00">+</text>
<text text-anchor="start" x="17.5" y="-1027" font-family="Helvetica,sans-Serif" font-size="10.00">EMPTY_STATE_ID</text>
<text text-anchor="start" x="4.5" y="-1012" font-family="Helvetica,sans-Serif" font-size="10.00">+</text>
<text text-anchor="start" x="17.5" y="-1012" font-family="Helvetica,sans-Serif" font-size="10.00">INTERNAL_STATE_DATA_BITS</text>
<text text-anchor="start" x="4.5" y="-997" font-family="Helvetica,sans-Serif" font-size="10.00">+</text>
<text text-anchor="start" x="17.5" y="-997" font-family="Helvetica,sans-Serif" font-size="10.00">INTERNAL_STATE_DATA_MASK</text>
<text text-anchor="start" x="4.5" y="-982" font-family="Helvetica,sans-Serif" font-size="10.00">#</text>
<text text-anchor="start" x="17.5" y="-982" font-family="Helvetica,sans-Serif" font-size="10.00">$collisionBoxes</text>
<text text-anchor="start" x="4.5" y="-967" font-family="Helvetica,sans-Serif" font-size="10.00">#</text>
<text text-anchor="start" x="17.5" y="-967" font-family="Helvetica,sans-Serif" font-size="10.00">$fallbackName</text>
<text text-anchor="start" x="4.5" y="-952" font-family="Helvetica,sans-Serif" font-size="10.00">#</text>
<text text-anchor="start" x="17.5" y="-952" font-family="Helvetica,sans-Serif" font-size="10.00">$idInfo</text>
<text text-anchor="start" x="4.5" y="-937" font-family="Helvetica,sans-Serif" font-size="10.00">#</text>
<text text-anchor="start" x="17.5" y="-937" font-family="Helvetica,sans-Serif" font-size="10.00">$position</text>
<text text-anchor="start" x="4.5" y="-922" font-family="Helvetica,sans-Serif" font-size="10.00">#</text>
<text text-anchor="start" x="17.5" y="-922" font-family="Helvetica,sans-Serif" font-size="10.00">$typeInfo</text>
<text text-anchor="start" x="4.5" y="-907" font-family="Helvetica,sans-Serif" font-size="10.00">+</text>
<text text-anchor="start" x="17.5" y="-907" font-family="Helvetica,sans-Serif" font-size="10.00">__construct()</text>
<text text-anchor="start" x="4.5" y="-892" font-family="Helvetica,sans-Serif" font-size="10.00">+</text>
<text text-anchor="start" x="17.5" y="-892" font-family="Helvetica,sans-Serif" font-size="10.00">__clone()</text>
<text text-anchor="start" x="4.5" y="-877" font-family="Helvetica,sans-Serif" font-size="10.00">+</text>
<text text-anchor="start" x="17.5" y="-877" font-family="Helvetica,sans-Serif" font-size="10.00">__toString()</text>
<text text-anchor="start" x="4.5" y="-862" font-family="Helvetica,sans-Serif" font-size="10.00">+</text>
<text text-anchor="start" x="17.5" y="-862" font-family="Helvetica,sans-Serif" font-size="10.00">addVelocityToEntity()</text>
<text text-anchor="start" x="4.5" y="-847" font-family="Helvetica,sans-Serif" font-size="10.00">+</text>
<text text-anchor="start" x="17.5" y="-847" font-family="Helvetica,sans-Serif" font-size="10.00">asItem()</text>
<text text-anchor="start" x="4.5" y="-832" font-family="Helvetica,sans-Serif" font-size="10.00">+</text>
<text text-anchor="start" x="17.5" y="-832" font-family="Helvetica,sans-Serif" font-size="10.00">blocksDirectSkyLight()</text>
<text text-anchor="start" x="4.5" y="-817" font-family="Helvetica,sans-Serif" font-size="10.00">+</text>
<text text-anchor="start" x="17.5" y="-817" font-family="Helvetica,sans-Serif" font-size="10.00">burnsForever()</text>
<text text-anchor="start" x="4.5" y="-802" font-family="Helvetica,sans-Serif" font-size="10.00">+</text>
<text text-anchor="start" x="17.5" y="-802" font-family="Helvetica,sans-Serif" font-size="10.00">calculateIntercept()</text>
<text text-anchor="start" x="4.5" y="-787" font-family="Helvetica,sans-Serif" font-size="10.00">+</text>
<text text-anchor="start" x="17.5" y="-787" font-family="Helvetica,sans-Serif" font-size="10.00">canBeFlowedInto()</text>
<text text-anchor="start" x="4.5" y="-772" font-family="Helvetica,sans-Serif" font-size="10.00">+</text>
<text text-anchor="start" x="17.5" y="-772" font-family="Helvetica,sans-Serif" font-size="10.00">canBePlaced()</text>
<text text-anchor="start" x="17.5" y="-757" font-family="Helvetica,sans-Serif" font-size="10.00">and 60 more...</text>
<text text-anchor="start" x="4.5" y="-742" font-family="Helvetica,sans-Serif" font-size="10.00">#</text>
<text text-anchor="start" x="17.5" y="-742" font-family="Helvetica,sans-Serif" font-size="10.00">describeBlockOnlyState()</text>
<text text-anchor="start" x="4.5" y="-727" font-family="Helvetica,sans-Serif" font-size="10.00">#</text>
<text text-anchor="start" x="17.5" y="-727" font-family="Helvetica,sans-Serif" font-size="10.00">getAdjacentSupportType()</text>
<text text-anchor="start" x="4.5" y="-712" font-family="Helvetica,sans-Serif" font-size="10.00">#</text>
<text text-anchor="start" x="17.5" y="-712" font-family="Helvetica,sans-Serif" font-size="10.00">getXpDropAmount()</text>
<text text-anchor="start" x="4.5" y="-697" font-family="Helvetica,sans-Serif" font-size="10.00">#</text>
<text text-anchor="start" x="17.5" y="-697" font-family="Helvetica,sans-Serif" font-size="10.00">recalculateCollisionBoxes()</text>
<polygon fill="#bfbfbf" stroke="#bfbfbf" points="0.5,-1037 0.5,-1037 169.5,-1037 169.5,-1037 0.5,-1037"/>
<polygon fill="#bfbfbf" stroke="#bfbfbf" points="0.5,-917 0.5,-917 15.5,-917 15.5,-917 0.5,-917"/>
<polygon fill="#bfbfbf" stroke="#bfbfbf" points="15.5,-917 15.5,-917 169.5,-917 169.5,-917 15.5,-917"/>
<polygon fill="none" stroke="#bfbfbf" points="0,-690 0,-1054 169,-1054 169,-690 0,-690"/>
</a>
</g>
</g>
<!-- Node4&#45;&gt;Node3 -->
<g id="edge3_Node000003_Node000004" class="edge">
<title>Node4&#45;&gt;Node3</title>
<g id="a_edge3_Node000003_Node000004"><a xlink:title=" ">
<path fill="none" stroke="#63b8ff" d="M84.5,-679.93C84.5,-670.2 84.5,-661.44 84.5,-654.09"/>
<polygon fill="none" stroke="#63b8ff" points="81,-679.95 84.5,-689.95 88,-679.95 81,-679.95"/>
</a>
</g>
</g>
</g>
</svg>
