<?xml version="1.0" encoding="UTF-8" standalone="no"?>
<!DOCTYPE svg PUBLIC "-//W3C//DTD SVG 1.1//EN"
 "http://www.w3.org/Graphics/SVG/1.1/DTD/svg11.dtd">
<!-- Generated by graphviz version 2.43.0 (0)
 -->
<!-- Title: pocketmine\network\mcpe\protocol\types\AttributeLayerSyncPayload Pages: 1 -->
<!--zoomable 291 -->

<svg id="main" version="1.1" xmlns="http://www.w3.org/2000/svg" xmlns:xlink="http://www.w3.org/1999/xlink" xml:space="preserve" onload="init(evt)">

<style type="text/css"><![CDATA[
.node, .edge {opacity: 0.7;}
.node.selected, .edge.selected {opacity: 1;}
.edge:hover path { stroke: red; }
.edge:hover polygon { stroke: red; fill: red; }
]]></style>

<defs>
  <circle id="rim" cx="0" cy="0" r="7"/>
  <circle id="rim2" cx="0" cy="0" r="3.5"/>
  <g id="zoomPlus">
    <use xlink:href="#rim" fill="#404040"><set attributeName="fill" to="#808080" begin="zoomplus.mouseover" end="zoomplus.mouseout"/></use>
    <path d="M-4,0h8M0,-4v8" fill="none" stroke="white" stroke-width="1.5" pointer-events="none"/>
  </g>
  <g id="zoomMin">
    <use xlink:href="#rim" fill="#404040"><set attributeName="fill" to="#808080" begin="zoomminus.mouseover" end="zoomminus.mouseout"/></use>
    <path d="M-4,0h8" fill="none" stroke="white" stroke-width="1.5" pointer-events="none"/>
  </g>
  <g id="arrowUp" transform="translate(30 24)">
    <use xlink:href="#rim"/>
    <path pointer-events="none" fill="none" stroke="white" stroke-width="1.5" d="M0,-3.0v7 M-2.5,-0.5L0,-3.0L2.5,-0.5"/>
  </g>
  <g id="arrowRight" transform="rotate(90) translate(36 -43)">
    <use xlink:href="#rim"/>
    <path pointer-events="none" fill="none" stroke="white" stroke-width="1.5" d="M0,-3.0v7 M-2.5,-0.5L0,-3.0L2.5,-0.5"/>
  </g>
  <g id="arrowDown" transform="rotate(180) translate(-30 -48)">
    <use xlink:href="#rim"/>
    <path pointer-events="none" fill="none" stroke="white" stroke-width="1.5" d="M0,-3.0v7 M-2.5,-0.5L0,-3.0L2.5,-0.5"/>
  </g>
  <g id="arrowLeft" transform="rotate(270) translate(-36 17)">
    <use xlink:href="#rim"/>
    <path pointer-events="none" fill="none" stroke="white" stroke-width="1.5" d="M0,-3.0v7 M-2.5,-0.5L0,-3.0L2.5,-0.5"/>
  </g>
  <g id="resetDef">
    <use xlink:href="#rim2" fill="#404040"><set attributeName="fill" to="#808080" begin="reset.mouseover" end="reset.mouseout"/></use>
  </g>
</defs>
<script type="application/ecmascript">
var viewWidth = 668;
var viewHeight = 291;
var sectionId = 'dynsection-0';
</script>
<script type="application/ecmascript" xlink:href="../../svg.min.js"/>
<svg id="graph" class="graph">
<g id="viewport">
<title>pocketmine\network\mcpe\protocol\types\AttributeLayerSyncPayload</title>
<!-- Node1 -->
<g id="Node000001" class="node">
<title>Node1</title>
<g id="a_Node000001"><a xlink:title=" ">
<polygon fill="#999999" stroke="transparent" points="391.5,-283 246.5,-283 246.5,-197 391.5,-197 391.5,-283"/>
<text text-anchor="start" x="252" y="-271" font-family="Helvetica,sans-Serif" font-size="10.00">pocketmine\network</text>
<text text-anchor="start" x="252" y="-260" font-family="Helvetica,sans-Serif" font-size="10.00">\mcpe\protocol\types</text>
<text text-anchor="start" x="252" y="-249" font-family="Helvetica,sans-Serif" font-size="10.00">\AttributeLayerSyncPayload</text>
<text text-anchor="start" x="317.5" y="-234" font-family="Helvetica,sans-Serif" font-size="10.00"> </text>
<text text-anchor="start" x="268" y="-219" font-family="Helvetica,sans-Serif" font-size="10.00">+</text>
<text text-anchor="start" x="298" y="-219" font-family="Helvetica,sans-Serif" font-size="10.00">getTypeId()</text>
<text text-anchor="start" x="268" y="-204" font-family="Helvetica,sans-Serif" font-size="10.00">+</text>
<text text-anchor="start" x="298" y="-204" font-family="Helvetica,sans-Serif" font-size="10.00">write()</text>
<polygon fill="#666666" stroke="#666666" points="247,-244 247,-244 392,-244 392,-244 247,-244"/>
<polygon fill="#666666" stroke="#666666" points="247,-229 247,-229 392,-229 392,-229 247,-229"/>
<polygon fill="none" stroke="#666666" points="246.5,-197 246.5,-283 391.5,-283 391.5,-197 246.5,-197"/>
</a>
</g>
</g>
<!-- Node2 -->
<g id="Node000002" class="node">
<title>Node2</title>
<g id="a_Node000002"><a xlink:href="../../d0/d17/classpocketmine_1_1network_1_1mcpe_1_1protocol_1_1types_1_1_attribute_update_layer_settings.html" target="_top" xlink:title=" ">
<polygon fill="white" stroke="transparent" points="158,-161 0,-161 0,0 158,0 158,-161"/>
<text text-anchor="start" x="5" y="-148.5" font-family="Helvetica,sans-Serif" font-size="10.00">pocketmine\network</text>
<text text-anchor="start" x="5" y="-137.5" font-family="Helvetica,sans-Serif" font-size="10.00">\mcpe\protocol\types</text>
<text text-anchor="start" x="5" y="-126.5" font-family="Helvetica,sans-Serif" font-size="10.00">\AttributeUpdateLayerSettings</text>
<text text-anchor="start" x="19" y="-111.5" font-family="Helvetica,sans-Serif" font-size="10.00">+</text>
<text text-anchor="start" x="47" y="-111.5" font-family="Helvetica,sans-Serif" font-size="10.00">ID</text>
<text text-anchor="start" x="19" y="-96.5" font-family="Helvetica,sans-Serif" font-size="10.00">+</text>
<text text-anchor="start" x="47" y="-96.5" font-family="Helvetica,sans-Serif" font-size="10.00">__construct()</text>
<text text-anchor="start" x="19" y="-81.5" font-family="Helvetica,sans-Serif" font-size="10.00">+</text>
<text text-anchor="start" x="47" y="-81.5" font-family="Helvetica,sans-Serif" font-size="10.00">getDimension()</text>
<text text-anchor="start" x="19" y="-66.5" font-family="Helvetica,sans-Serif" font-size="10.00">+</text>
<text text-anchor="start" x="47" y="-66.5" font-family="Helvetica,sans-Serif" font-size="10.00">getName()</text>
<text text-anchor="start" x="19" y="-51.5" font-family="Helvetica,sans-Serif" font-size="10.00">+</text>
<text text-anchor="start" x="47" y="-51.5" font-family="Helvetica,sans-Serif" font-size="10.00">getSettings()</text>
<text text-anchor="start" x="19" y="-36.5" font-family="Helvetica,sans-Serif" font-size="10.00">+</text>
<text text-anchor="start" x="47" y="-36.5" font-family="Helvetica,sans-Serif" font-size="10.00">getTypeId()</text>
<text text-anchor="start" x="19" y="-21.5" font-family="Helvetica,sans-Serif" font-size="10.00">+</text>
<text text-anchor="start" x="47" y="-21.5" font-family="Helvetica,sans-Serif" font-size="10.00">write()</text>
<text text-anchor="start" x="19" y="-6.5" font-family="Helvetica,sans-Serif" font-size="10.00">+</text>
<text text-anchor="start" x="47" y="-6.5" font-family="Helvetica,sans-Serif" font-size="10.00">read()</text>
<polygon fill="#666666" stroke="#666666" points="0,-121.5 0,-121.5 158,-121.5 158,-121.5 0,-121.5"/>
<polygon fill="#666666" stroke="#666666" points="0,-106.5 0,-106.5 45,-106.5 45,-106.5 0,-106.5"/>
<polygon fill="#666666" stroke="#666666" points="45,-106.5 45,-106.5 158,-106.5 158,-106.5 45,-106.5"/>
<polygon fill="none" stroke="#666666" points="0,0 0,-161 158,-161 158,0 0,0"/>
</a>
</g>
</g>
<!-- Node1&#45;&gt;Node2 -->
<g id="edge1_Node000001_Node000002" class="edge">
<title>Node1&#45;&gt;Node2</title>
<g id="a_edge1_Node000001_Node000002"><a xlink:title=" ">
<path fill="none" stroke="#63b8ff" d="M237.2,-201.94C213.8,-190.05 188.76,-176.03 167,-161 164.04,-158.95 161.06,-156.81 158.1,-154.6"/>
<polygon fill="none" stroke="#63b8ff" points="235.91,-205.21 246.42,-206.57 239.05,-198.96 235.91,-205.21"/>
</a>
</g>
</g>
<!-- Node3 -->
<g id="Node000003" class="node">
<title>Node3</title>
<g id="a_Node000003"><a xlink:href="../../d4/d4c/classpocketmine_1_1network_1_1mcpe_1_1protocol_1_1types_1_1_attribute_update_layers.html" target="_top" xlink:title=" ">
<polygon fill="white" stroke="transparent" points="300,-146 176,-146 176,-15 300,-15 300,-146"/>
<text text-anchor="start" x="181" y="-133.5" font-family="Helvetica,sans-Serif" font-size="10.00">pocketmine\network</text>
<text text-anchor="start" x="181" y="-122.5" font-family="Helvetica,sans-Serif" font-size="10.00">\mcpe\protocol\types</text>
<text text-anchor="start" x="181" y="-111.5" font-family="Helvetica,sans-Serif" font-size="10.00">\AttributeUpdateLayers</text>
<text text-anchor="start" x="189.5" y="-96.5" font-family="Helvetica,sans-Serif" font-size="10.00">+</text>
<text text-anchor="start" x="212" y="-96.5" font-family="Helvetica,sans-Serif" font-size="10.00">ID</text>
<text text-anchor="start" x="189.5" y="-81.5" font-family="Helvetica,sans-Serif" font-size="10.00">+</text>
<text text-anchor="start" x="212" y="-81.5" font-family="Helvetica,sans-Serif" font-size="10.00">__construct()</text>
<text text-anchor="start" x="189.5" y="-66.5" font-family="Helvetica,sans-Serif" font-size="10.00">+</text>
<text text-anchor="start" x="212" y="-66.5" font-family="Helvetica,sans-Serif" font-size="10.00">getLayers()</text>
<text text-anchor="start" x="189.5" y="-51.5" font-family="Helvetica,sans-Serif" font-size="10.00">+</text>
<text text-anchor="start" x="212" y="-51.5" font-family="Helvetica,sans-Serif" font-size="10.00">getTypeId()</text>
<text text-anchor="start" x="189.5" y="-36.5" font-family="Helvetica,sans-Serif" font-size="10.00">+</text>
<text text-anchor="start" x="212" y="-36.5" font-family="Helvetica,sans-Serif" font-size="10.00">write()</text>
<text text-anchor="start" x="189.5" y="-21.5" font-family="Helvetica,sans-Serif" font-size="10.00">+</text>
<text text-anchor="start" x="212" y="-21.5" font-family="Helvetica,sans-Serif" font-size="10.00">read()</text>
<polygon fill="#666666" stroke="#666666" points="176,-106.5 176,-106.5 300,-106.5 300,-106.5 176,-106.5"/>
<polygon fill="#666666" stroke="#666666" points="176,-91.5 176,-91.5 210,-91.5 210,-91.5 176,-91.5"/>
<polygon fill="#666666" stroke="#666666" points="210,-91.5 210,-91.5 300,-91.5 300,-91.5 210,-91.5"/>
<polygon fill="none" stroke="#666666" points="176,-15 176,-146 300,-146 300,-15 176,-15"/>
</a>
</g>
</g>
<!-- Node1&#45;&gt;Node3 -->
<g id="edge2_Node000001_Node000003" class="edge">
<title>Node1&#45;&gt;Node3</title>
<g id="a_edge2_Node000001_Node000003"><a xlink:title=" ">
<path fill="none" stroke="#63b8ff" d="M292.66,-187.79C285.82,-174.48 278.36,-159.97 271.21,-146.07"/>
<polygon fill="none" stroke="#63b8ff" points="289.61,-189.5 297.29,-196.79 295.83,-186.3 289.61,-189.5"/>
</a>
</g>
</g>
<!-- Node4 -->
<g id="Node000004" class="node">
<title>Node4</title>
<g id="a_Node000004"><a xlink:href="../../d7/d44/classpocketmine_1_1network_1_1mcpe_1_1protocol_1_1types_1_1_attributes_remove_environment.html" target="_top" xlink:title=" ">
<polygon fill="white" stroke="transparent" points="482,-161 318,-161 318,0 482,0 482,-161"/>
<text text-anchor="start" x="323" y="-148.5" font-family="Helvetica,sans-Serif" font-size="10.00">pocketmine\network</text>
<text text-anchor="start" x="323" y="-137.5" font-family="Helvetica,sans-Serif" font-size="10.00">\mcpe\protocol\types</text>
<text text-anchor="start" x="323" y="-126.5" font-family="Helvetica,sans-Serif" font-size="10.00">\AttributesRemoveEnvironment</text>
<text text-anchor="start" x="338.5" y="-111.5" font-family="Helvetica,sans-Serif" font-size="10.00">+</text>
<text text-anchor="start" x="368" y="-111.5" font-family="Helvetica,sans-Serif" font-size="10.00">ID</text>
<text text-anchor="start" x="338.5" y="-96.5" font-family="Helvetica,sans-Serif" font-size="10.00">+</text>
<text text-anchor="start" x="368" y="-96.5" font-family="Helvetica,sans-Serif" font-size="10.00">__construct()</text>
<text text-anchor="start" x="338.5" y="-81.5" font-family="Helvetica,sans-Serif" font-size="10.00">+</text>
<text text-anchor="start" x="368" y="-81.5" font-family="Helvetica,sans-Serif" font-size="10.00">getAttributes()</text>
<text text-anchor="start" x="338.5" y="-66.5" font-family="Helvetica,sans-Serif" font-size="10.00">+</text>
<text text-anchor="start" x="368" y="-66.5" font-family="Helvetica,sans-Serif" font-size="10.00">getDimension()</text>
<text text-anchor="start" x="338.5" y="-51.5" font-family="Helvetica,sans-Serif" font-size="10.00">+</text>
<text text-anchor="start" x="368" y="-51.5" font-family="Helvetica,sans-Serif" font-size="10.00">getName()</text>
<text text-anchor="start" x="338.5" y="-36.5" font-family="Helvetica,sans-Serif" font-size="10.00">+</text>
<text text-anchor="start" x="368" y="-36.5" font-family="Helvetica,sans-Serif" font-size="10.00">getTypeId()</text>
<text text-anchor="start" x="338.5" y="-21.5" font-family="Helvetica,sans-Serif" font-size="10.00">+</text>
<text text-anchor="start" x="368" y="-21.5" font-family="Helvetica,sans-Serif" font-size="10.00">write()</text>
<text text-anchor="start" x="338.5" y="-6.5" font-family="Helvetica,sans-Serif" font-size="10.00">+</text>
<text text-anchor="start" x="368" y="-6.5" font-family="Helvetica,sans-Serif" font-size="10.00">read()</text>
<polygon fill="#666666" stroke="#666666" points="318,-121.5 318,-121.5 482,-121.5 482,-121.5 318,-121.5"/>
<polygon fill="#666666" stroke="#666666" points="318,-106.5 318,-106.5 366,-106.5 366,-106.5 318,-106.5"/>
<polygon fill="#666666" stroke="#666666" points="366,-106.5 366,-106.5 482,-106.5 482,-106.5 366,-106.5"/>
<polygon fill="none" stroke="#666666" points="318,0 318,-161 482,-161 482,0 318,0"/>
</a>
</g>
</g>
<!-- Node1&#45;&gt;Node4 -->
<g id="edge3_Node000001_Node000004" class="edge">
<title>Node1&#45;&gt;Node4</title>
<g id="a_edge3_Node000001_Node000004"><a xlink:title=" ">
<path fill="none" stroke="#63b8ff" d="M345.35,-187.77C349.73,-179.26 354.36,-170.25 359,-161.23"/>
<polygon fill="none" stroke="#63b8ff" points="342.17,-186.3 340.71,-196.79 348.39,-189.5 342.17,-186.3"/>
</a>
</g>
</g>
<!-- Node5 -->
<g id="Node000005" class="node">
<title>Node5</title>
<g id="a_Node000005"><a xlink:href="../../d8/d4d/classpocketmine_1_1network_1_1mcpe_1_1protocol_1_1types_1_1_attributes_update_environment.html" target="_top" xlink:title=" ">
<polygon fill="white" stroke="transparent" points="659.5,-161 500.5,-161 500.5,0 659.5,0 659.5,-161"/>
<text text-anchor="start" x="506" y="-148.5" font-family="Helvetica,sans-Serif" font-size="10.00">pocketmine\network</text>
<text text-anchor="start" x="506" y="-137.5" font-family="Helvetica,sans-Serif" font-size="10.00">\mcpe\protocol\types</text>
<text text-anchor="start" x="506" y="-126.5" font-family="Helvetica,sans-Serif" font-size="10.00">\AttributesUpdateEnvironment</text>
<text text-anchor="start" x="520.5" y="-111.5" font-family="Helvetica,sans-Serif" font-size="10.00">+</text>
<text text-anchor="start" x="549" y="-111.5" font-family="Helvetica,sans-Serif" font-size="10.00">ID</text>
<text text-anchor="start" x="520.5" y="-96.5" font-family="Helvetica,sans-Serif" font-size="10.00">+</text>
<text text-anchor="start" x="549" y="-96.5" font-family="Helvetica,sans-Serif" font-size="10.00">__construct()</text>
<text text-anchor="start" x="520.5" y="-81.5" font-family="Helvetica,sans-Serif" font-size="10.00">+</text>
<text text-anchor="start" x="549" y="-81.5" font-family="Helvetica,sans-Serif" font-size="10.00">getAttributes()</text>
<text text-anchor="start" x="520.5" y="-66.5" font-family="Helvetica,sans-Serif" font-size="10.00">+</text>
<text text-anchor="start" x="549" y="-66.5" font-family="Helvetica,sans-Serif" font-size="10.00">getDimension()</text>
<text text-anchor="start" x="520.5" y="-51.5" font-family="Helvetica,sans-Serif" font-size="10.00">+</text>
<text text-anchor="start" x="549" y="-51.5" font-family="Helvetica,sans-Serif" font-size="10.00">getName()</text>
<text text-anchor="start" x="520.5" y="-36.5" font-family="Helvetica,sans-Serif" font-size="10.00">+</text>
<text text-anchor="start" x="549" y="-36.5" font-family="Helvetica,sans-Serif" font-size="10.00">getTypeId()</text>
<text text-anchor="start" x="520.5" y="-21.5" font-family="Helvetica,sans-Serif" font-size="10.00">+</text>
<text text-anchor="start" x="549" y="-21.5" font-family="Helvetica,sans-Serif" font-size="10.00">write()</text>
<text text-anchor="start" x="520.5" y="-6.5" font-family="Helvetica,sans-Serif" font-size="10.00">+</text>
<text text-anchor="start" x="549" y="-6.5" font-family="Helvetica,sans-Serif" font-size="10.00">read()</text>
<polygon fill="#666666" stroke="#666666" points="501,-121.5 501,-121.5 660,-121.5 660,-121.5 501,-121.5"/>
<polygon fill="#666666" stroke="#666666" points="501,-106.5 501,-106.5 547,-106.5 547,-106.5 501,-106.5"/>
<polygon fill="#666666" stroke="#666666" points="547,-106.5 547,-106.5 660,-106.5 660,-106.5 547,-106.5"/>
<polygon fill="none" stroke="#666666" points="500.5,0 500.5,-161 659.5,-161 659.5,0 500.5,0"/>
</a>
</g>
</g>
<!-- Node1&#45;&gt;Node5 -->
<g id="edge4_Node000001_Node000005" class="edge">
<title>Node1&#45;&gt;Node5</title>
<g id="a_edge4_Node000001_Node000005"><a xlink:title=" ">
<path fill="none" stroke="#63b8ff" d="M401.24,-207.75C430.59,-195.05 463.24,-179.09 491,-161 494.12,-158.96 497.25,-156.82 500.36,-154.6"/>
<polygon fill="none" stroke="#63b8ff" points="399.66,-204.61 391.83,-211.75 402.41,-211.05 399.66,-204.61"/>
</a>
</g>
</g>
</g>
</svg>

<g id="navigator" transform="translate(0 0)" fill="#404254">
  <rect fill="#f2f5e9" fill-opacity="0.5" stroke="#606060" stroke-width=".5" x="0" y="0" width="60" height="60"/>
  <use id="zoomplus" xlink:href="#zoomPlus" x="17" y="9" onmousedown="handleZoom(evt,'in')"/>
  <use id="zoomminus" xlink:href="#zoomMin" x="42" y="9" onmousedown="handleZoom(evt,'out')"/>
  <use id="reset" xlink:href="#resetDef" x="30" y="36" onmousedown="handleReset()"/>
   <use id="arrowup" xlink:href="#arrowUp" x="0" y="0" onmousedown="handlePan(0,-1)"/>
  <use id="arrowright" xlink:href="#arrowRight" x="0" y="0" onmousedown="handlePan(1,0)"/>
  <use id="arrowdown" xlink:href="#arrowDown" x="0" y="0" onmousedown="handlePan(0,1)"/>
  <use id="arrowleft" xlink:href="#arrowLeft" x="0" y="0" onmousedown="handlePan(-1,0)"/>
</g>
<svg viewBox="0 0 15 15" width="100%" height="30px" preserveAspectRatio="xMaxYMin meet">
 <g id="arrow_out" transform="scale(0.3 0.3)">
  <a xlink:href="classpocketmine_1_1network_1_1mcpe_1_1protocol_1_1types_1_1_attribute_layer_sync_payload__inherit__graph_org.svg" target="_base">
   <rect id="button" ry="5" rx="5" y="6" x="6" height="38" width="38"
        fill="#f2f5e9" fill-opacity="0.5" stroke="#606060" stroke-width="1.0"/>
   <path id="arrow"
     d="M 11.500037,31.436501 C 11.940474,20.09759 22.043105,11.32322 32.158766,21.979434 L 37.068811,17.246167 C 37.068811,17.246167 37.088388,32 37.088388,32 L 22.160133,31.978069 C 22.160133,31.978069 26.997745,27.140456 26.997745,27.140456 C 18.528582,18.264221 13.291696,25.230495 11.500037,31.436501 z"
     style="fill:#404040;"/>
  </a>
 </g>
</svg>

<style type='text/css'>
<![CDATA[
[data-mouse-over-selected='false'] { opacity: 0.7; }
[data-mouse-over-selected='true']  { opacity: 1.0; }
]]>
</style>
<script type="application/ecmascript"><![CDATA[
document.addEventListener('DOMContentLoaded', (event) => {
  highlightEdges();
  highlightAdjacentNodes();
});
]]></script>
</svg>
