<?xml version="1.0" encoding="UTF-8" standalone="no"?>
<!DOCTYPE svg PUBLIC "-//W3C//DTD SVG 1.1//EN"
 "http://www.w3.org/Graphics/SVG/1.1/DTD/svg11.dtd">
<!-- Generated by graphviz version 2.43.0 (0)
 -->
<!-- Title: pocketmine\block\tile\BrewingStand Pages: 1 -->
<svg width="952pt" height="1944pt"
 viewBox="0.00 0.00 952.00 1944.00" xmlns="http://www.w3.org/2000/svg" xmlns:xlink="http://www.w3.org/1999/xlink">
<g id="graph0" class="graph" transform="scale(1 1) rotate(0) translate(4 1940)">
<title>pocketmine\block\tile\BrewingStand</title>
<polygon fill="white" stroke="transparent" points="-4,4 -4,-1940 948,-1940 948,4 -4,4"/>
<!-- Node1 -->
<g id="node1" class="node">
<title>Node1</title>
<g id="a_node1"><a xlink:title=" ">
<polygon fill="#bfbfbf" stroke="black" points="547.5,-0.5 547.5,-156.5 705.5,-156.5 705.5,-0.5 547.5,-0.5"/>
<text text-anchor="start" x="555.5" y="-144.5" font-family="Helvetica,sans-Serif" font-size="10.00">pocketmine\block\tile</text>
<text text-anchor="middle" x="626.5" y="-133.5" font-family="Helvetica,sans-Serif" font-size="10.00">\BrewingStand</text>
<polyline fill="none" stroke="black" points="547.5,-126.5 705.5,-126.5 "/>
<text text-anchor="middle" x="626.5" y="-114.5" font-family="Helvetica,sans-Serif" font-size="10.00"> </text>
<polyline fill="none" stroke="black" points="547.5,-107.5 705.5,-107.5 "/>
<text text-anchor="start" x="555.5" y="-95.5" font-family="Helvetica,sans-Serif" font-size="10.00">+ __construct()</text>
<text text-anchor="start" x="555.5" y="-84.5" font-family="Helvetica,sans-Serif" font-size="10.00">+ close()</text>
<text text-anchor="start" x="555.5" y="-73.5" font-family="Helvetica,sans-Serif" font-size="10.00">+ getDefaultName()</text>
<text text-anchor="start" x="555.5" y="-62.5" font-family="Helvetica,sans-Serif" font-size="10.00">+ getInventory()</text>
<text text-anchor="start" x="555.5" y="-51.5" font-family="Helvetica,sans-Serif" font-size="10.00">+ getRealInventory()</text>
<text text-anchor="start" x="555.5" y="-40.5" font-family="Helvetica,sans-Serif" font-size="10.00">+ onUpdate()</text>
<text text-anchor="start" x="555.5" y="-29.5" font-family="Helvetica,sans-Serif" font-size="10.00">+ readSaveData()</text>
<text text-anchor="start" x="555.5" y="-18.5" font-family="Helvetica,sans-Serif" font-size="10.00"># addAdditionalSpawnData()</text>
<text text-anchor="start" x="555.5" y="-7.5" font-family="Helvetica,sans-Serif" font-size="10.00"># writeSaveData()</text>
</a>
</g>
</g>
<!-- Node2 -->
<g id="node2" class="node">
<title>Node2</title>
<g id="a_node2"><a xlink:href="../../dc/d0b/classpocketmine_1_1block_1_1tile_1_1_spawnable.html" target="_top" xlink:title=" ">
<polygon fill="white" stroke="#bfbfbf" points="346.5,-194.5 346.5,-339.5 536.5,-339.5 536.5,-194.5 346.5,-194.5"/>
<text text-anchor="start" x="354.5" y="-327.5" font-family="Helvetica,sans-Serif" font-size="10.00">pocketmine\block\tile</text>
<text text-anchor="middle" x="441.5" y="-316.5" font-family="Helvetica,sans-Serif" font-size="10.00">\Spawnable</text>
<polyline fill="none" stroke="#bfbfbf" points="346.5,-309.5 536.5,-309.5 "/>
<text text-anchor="middle" x="441.5" y="-297.5" font-family="Helvetica,sans-Serif" font-size="10.00"> </text>
<polyline fill="none" stroke="#bfbfbf" points="346.5,-290.5 536.5,-290.5 "/>
<text text-anchor="start" x="354.5" y="-278.5" font-family="Helvetica,sans-Serif" font-size="10.00">+ clearSpawnCompoundCache()</text>
<text text-anchor="start" x="354.5" y="-267.5" font-family="Helvetica,sans-Serif" font-size="10.00">+ getRenderUpdateBugWorkaround</text>
<text text-anchor="start" x="354.5" y="-256.5" font-family="Helvetica,sans-Serif" font-size="10.00">StateProperties()</text>
<text text-anchor="start" x="354.5" y="-245.5" font-family="Helvetica,sans-Serif" font-size="10.00">+ getSerializedSpawnCompound()</text>
<text text-anchor="start" x="354.5" y="-234.5" font-family="Helvetica,sans-Serif" font-size="10.00">+ getSpawnCompound()</text>
<text text-anchor="start" x="354.5" y="-223.5" font-family="Helvetica,sans-Serif" font-size="10.00">+ isDirty()</text>
<text text-anchor="start" x="354.5" y="-212.5" font-family="Helvetica,sans-Serif" font-size="10.00">+ setDirty()</text>
<text text-anchor="start" x="354.5" y="-201.5" font-family="Helvetica,sans-Serif" font-size="10.00"># addAdditionalSpawnData()</text>
</a>
</g>
</g>
<!-- Node2&#45;&gt;Node1 -->
<g id="edge1" class="edge">
<title>Node2&#45;&gt;Node1</title>
<path fill="none" stroke="midnightblue" d="M519.72,-187.15C529.69,-177.09 539.9,-166.8 549.85,-156.77"/>
<polygon fill="none" stroke="midnightblue" points="517.05,-184.86 512.5,-194.43 522.02,-189.79 517.05,-184.86"/>
</g>
<!-- Node3 -->
<g id="node3" class="node">
<title>Node3</title>
<g id="a_node3"><a xlink:href="../../d9/d74/classpocketmine_1_1block_1_1tile_1_1_tile.html" target="_top" xlink:title=" ">
<polygon fill="white" stroke="#bfbfbf" points="336.5,-377.5 336.5,-566.5 486.5,-566.5 486.5,-377.5 336.5,-377.5"/>
<text text-anchor="middle" x="411.5" y="-554.5" font-family="Helvetica,sans-Serif" font-size="10.00">pocketmine\block\tile\Tile</text>
<polyline fill="none" stroke="#bfbfbf" points="336.5,-547.5 486.5,-547.5 "/>
<text text-anchor="start" x="344.5" y="-535.5" font-family="Helvetica,sans-Serif" font-size="10.00">+ $closed</text>
<polyline fill="none" stroke="#bfbfbf" points="336.5,-528.5 486.5,-528.5 "/>
<text text-anchor="start" x="344.5" y="-516.5" font-family="Helvetica,sans-Serif" font-size="10.00">+ __construct()</text>
<text text-anchor="start" x="344.5" y="-505.5" font-family="Helvetica,sans-Serif" font-size="10.00">+ __destruct()</text>
<text text-anchor="start" x="344.5" y="-494.5" font-family="Helvetica,sans-Serif" font-size="10.00">+ close()</text>
<text text-anchor="start" x="344.5" y="-483.5" font-family="Helvetica,sans-Serif" font-size="10.00">+ copyDataFromItem()</text>
<text text-anchor="start" x="344.5" y="-472.5" font-family="Helvetica,sans-Serif" font-size="10.00">+ getBlock()</text>
<text text-anchor="start" x="344.5" y="-461.5" font-family="Helvetica,sans-Serif" font-size="10.00">+ getCleanedNBT()</text>
<text text-anchor="start" x="344.5" y="-450.5" font-family="Helvetica,sans-Serif" font-size="10.00">+ getPosition()</text>
<text text-anchor="start" x="344.5" y="-439.5" font-family="Helvetica,sans-Serif" font-size="10.00">+ isClosed()</text>
<text text-anchor="start" x="344.5" y="-428.5" font-family="Helvetica,sans-Serif" font-size="10.00">+ onBlockDestroyed()</text>
<text text-anchor="start" x="344.5" y="-417.5" font-family="Helvetica,sans-Serif" font-size="10.00">+ readSaveData()</text>
<text text-anchor="start" x="344.5" y="-406.5" font-family="Helvetica,sans-Serif" font-size="10.00">+ saveNBT()</text>
<text text-anchor="start" x="344.5" y="-395.5" font-family="Helvetica,sans-Serif" font-size="10.00"># onBlockDestroyedHook()</text>
<text text-anchor="start" x="344.5" y="-384.5" font-family="Helvetica,sans-Serif" font-size="10.00"># writeSaveData()</text>
</a>
</g>
</g>
<!-- Node3&#45;&gt;Node2 -->
<g id="edge2" class="edge">
<title>Node3&#45;&gt;Node2</title>
<path fill="none" stroke="midnightblue" d="M426.85,-367.11C428.23,-357.78 429.61,-348.47 430.93,-339.51"/>
<polygon fill="none" stroke="midnightblue" points="423.36,-366.82 425.36,-377.22 430.28,-367.84 423.36,-366.82"/>
</g>
<!-- Node4 -->
<g id="node4" class="node">
<title>Node4</title>
<g id="a_node4"><a xlink:title=" ">
<polygon fill="white" stroke="#bfbfbf" points="546,-1443.5 546,-1500.5 589,-1500.5 589,-1443.5 546,-1443.5"/>
<text text-anchor="middle" x="567.5" y="-1488.5" font-family="Helvetica,sans-Serif" font-size="10.00">const</text>
<polyline fill="none" stroke="#bfbfbf" points="546,-1481.5 589,-1481.5 "/>
<text text-anchor="middle" x="567.5" y="-1469.5" font-family="Helvetica,sans-Serif" font-size="10.00"> </text>
<polyline fill="none" stroke="#bfbfbf" points="546,-1462.5 589,-1462.5 "/>
<text text-anchor="middle" x="567.5" y="-1450.5" font-family="Helvetica,sans-Serif" font-size="10.00"> </text>
</a>
</g>
</g>
<!-- Node4&#45;&gt;Node1 -->
<g id="edge17" class="edge">
<title>Node4&#45;&gt;Node1</title>
<path fill="none" stroke="#404040" d="M567.5,-1443.49C567.5,-1375.59 567.5,-1194.54 567.5,-1043.5 567.5,-1043.5 567.5,-1043.5 567.5,-266 567.5,-233.18 575.91,-198.55 586.38,-168.17"/>
<polygon fill="none" stroke="#404040" points="586.43,-168.04 584.69,-161.04 590.48,-156.74 592.22,-163.74 586.43,-168.04"/>
<text text-anchor="middle" x="619.5" y="-588" font-family="Helvetica,sans-Serif" font-size="10.00"> +BREW_TIME_TICKS</text>
</g>
<!-- Node4&#45;&gt;Node3 -->
<g id="edge3" class="edge">
<title>Node4&#45;&gt;Node3</title>
<path fill="none" stroke="#404040" d="M564.21,-1443.17C561.29,-1418.25 556.97,-1380.7 553.5,-1348 530.96,-1135.28 525.31,-1082.08 506.5,-869 496.5,-755.76 518.31,-723.14 486.5,-614 482.97,-601.87 478.32,-589.6 473.06,-577.61"/>
<polygon fill="none" stroke="#404040" points="473.06,-577.61 466.93,-573.81 468.07,-566.7 474.2,-570.49 473.06,-577.61"/>
<text text-anchor="middle" x="530" y="-832" font-family="Helvetica,sans-Serif" font-size="10.00"> +TAG_ID</text>
<text text-anchor="middle" x="530" y="-821" font-family="Helvetica,sans-Serif" font-size="10.00">+TAG_X</text>
<text text-anchor="middle" x="530" y="-810" font-family="Helvetica,sans-Serif" font-size="10.00">+TAG_Y</text>
<text text-anchor="middle" x="530" y="-799" font-family="Helvetica,sans-Serif" font-size="10.00">+TAG_Z</text>
</g>
<!-- Node7 -->
<g id="node7" class="node">
<title>Node7</title>
<g id="a_node7"><a xlink:href="../../d4/d2b/classpocketmine_1_1world_1_1_world.html" target="_top" xlink:title=" ">
<polygon fill="white" stroke="black" points="145.5,-887.5 145.5,-1197.5 317.5,-1197.5 317.5,-887.5 145.5,-887.5"/>
<text text-anchor="middle" x="231.5" y="-1185.5" font-family="Helvetica,sans-Serif" font-size="10.00">pocketmine\world\World</text>
<polyline fill="none" stroke="black" points="145.5,-1178.5 317.5,-1178.5 "/>
<text text-anchor="start" x="153.5" y="-1166.5" font-family="Helvetica,sans-Serif" font-size="10.00">+ $stopTime</text>
<text text-anchor="start" x="153.5" y="-1155.5" font-family="Helvetica,sans-Serif" font-size="10.00">+ $tickRateTime</text>
<text text-anchor="start" x="153.5" y="-1144.5" font-family="Helvetica,sans-Serif" font-size="10.00">+ $updateEntities</text>
<text text-anchor="start" x="153.5" y="-1133.5" font-family="Helvetica,sans-Serif" font-size="10.00">+ TIME_SUNRISE</text>
<text text-anchor="start" x="153.5" y="-1122.5" font-family="Helvetica,sans-Serif" font-size="10.00">+ TIME_SUNSET</text>
<text text-anchor="start" x="153.5" y="-1111.5" font-family="Helvetica,sans-Serif" font-size="10.00">+ Y_MAX</text>
<text text-anchor="start" x="153.5" y="-1100.5" font-family="Helvetica,sans-Serif" font-size="10.00">+ Y_MIN</text>
<polyline fill="none" stroke="black" points="145.5,-1093.5 317.5,-1093.5 "/>
<text text-anchor="start" x="153.5" y="-1081.5" font-family="Helvetica,sans-Serif" font-size="10.00">+ __construct()</text>
<text text-anchor="start" x="153.5" y="-1070.5" font-family="Helvetica,sans-Serif" font-size="10.00">+ __debugInfo()</text>
<text text-anchor="start" x="153.5" y="-1059.5" font-family="Helvetica,sans-Serif" font-size="10.00">+ addEntity()</text>
<text text-anchor="start" x="153.5" y="-1048.5" font-family="Helvetica,sans-Serif" font-size="10.00">+ addOnUnloadCallback()</text>
<text text-anchor="start" x="153.5" y="-1037.5" font-family="Helvetica,sans-Serif" font-size="10.00">+ addParticle()</text>
<text text-anchor="start" x="153.5" y="-1026.5" font-family="Helvetica,sans-Serif" font-size="10.00">+ addRandomTickedBlock()</text>
<text text-anchor="start" x="153.5" y="-1015.5" font-family="Helvetica,sans-Serif" font-size="10.00">+ addSound()</text>
<text text-anchor="start" x="153.5" y="-1004.5" font-family="Helvetica,sans-Serif" font-size="10.00">+ addTile()</text>
<text text-anchor="start" x="153.5" y="-993.5" font-family="Helvetica,sans-Serif" font-size="10.00">+ broadcastPacketToViewers()</text>
<text text-anchor="start" x="153.5" y="-982.5" font-family="Helvetica,sans-Serif" font-size="10.00">+ cancelUnloadChunkRequest()</text>
<text text-anchor="start" x="153.5" y="-971.5" font-family="Helvetica,sans-Serif" font-size="10.00">and 121 more...</text>
<text text-anchor="start" x="153.5" y="-960.5" font-family="Helvetica,sans-Serif" font-size="10.00">+ blockHash()</text>
<text text-anchor="start" x="153.5" y="-949.5" font-family="Helvetica,sans-Serif" font-size="10.00">+ chunkBlockHash()</text>
<text text-anchor="start" x="153.5" y="-938.5" font-family="Helvetica,sans-Serif" font-size="10.00">+ chunkHash()</text>
<text text-anchor="start" x="153.5" y="-927.5" font-family="Helvetica,sans-Serif" font-size="10.00">+ getBlockXYZ()</text>
<text text-anchor="start" x="153.5" y="-916.5" font-family="Helvetica,sans-Serif" font-size="10.00">+ getDifficultyFromString()</text>
<text text-anchor="start" x="153.5" y="-905.5" font-family="Helvetica,sans-Serif" font-size="10.00">+ getXZ()</text>
<text text-anchor="start" x="153.5" y="-894.5" font-family="Helvetica,sans-Serif" font-size="10.00"># actuallyDoTick()</text>
</a>
</g>
</g>
<!-- Node4&#45;&gt;Node7 -->
<g id="edge8" class="edge">
<title>Node4&#45;&gt;Node7</title>
<path fill="none" stroke="#404040" d="M545.98,-1444.98C524.25,-1420.56 488.43,-1385.02 449.5,-1366 409.71,-1346.56 384.42,-1377.62 351.5,-1348 306.02,-1307.09 334.23,-1273.18 312.5,-1216 311.6,-1213.64 310.69,-1211.28 309.76,-1208.9"/>
<polygon fill="none" stroke="#404040" points="309.74,-1208.85 303.8,-1204.76 305.29,-1197.71 311.23,-1201.8 309.74,-1208.85"/>
<text text-anchor="start" x="351.5" y="-1340" font-family="Helvetica,sans-Serif" font-size="10.00"> +DEFAULT_TICKED_BLOCKS</text>
<text text-anchor="middle" x="421.5" y="-1329" font-family="Helvetica,sans-Serif" font-size="10.00">_PER_SUBCHUNK_PER_TICK</text>
<text text-anchor="middle" x="421.5" y="-1318" font-family="Helvetica,sans-Serif" font-size="10.00">+DIFFICULTY_EASY</text>
<text text-anchor="middle" x="421.5" y="-1307" font-family="Helvetica,sans-Serif" font-size="10.00">+DIFFICULTY_HARD</text>
<text text-anchor="middle" x="421.5" y="-1296" font-family="Helvetica,sans-Serif" font-size="10.00">+DIFFICULTY_NORMAL</text>
<text text-anchor="middle" x="421.5" y="-1285" font-family="Helvetica,sans-Serif" font-size="10.00">+DIFFICULTY_PEACEFUL</text>
<text text-anchor="middle" x="421.5" y="-1274" font-family="Helvetica,sans-Serif" font-size="10.00">+TIME_DAY</text>
<text text-anchor="middle" x="421.5" y="-1263" font-family="Helvetica,sans-Serif" font-size="10.00">+TIME_FULL</text>
<text text-anchor="middle" x="421.5" y="-1252" font-family="Helvetica,sans-Serif" font-size="10.00">+TIME_MIDNIGHT</text>
<text text-anchor="middle" x="421.5" y="-1241" font-family="Helvetica,sans-Serif" font-size="10.00">+TIME_NIGHT</text>
<text text-anchor="middle" x="421.5" y="-1230" font-family="Helvetica,sans-Serif" font-size="10.00">+TIME_NOON</text>
<text text-anchor="middle" x="421.5" y="-1219" font-family="Helvetica,sans-Serif" font-size="10.00">...</text>
</g>
<!-- Node11 -->
<g id="node11" class="node">
<title>Node11</title>
<g id="a_node11"><a xlink:href="../../d9/de1/interfacepocketmine_1_1block_1_1tile_1_1_container.html" target="_top" xlink:title=" ">
<polygon fill="white" stroke="#bfbfbf" points="603.5,-1003 603.5,-1082 725.5,-1082 725.5,-1003 603.5,-1003"/>
<text text-anchor="start" x="611.5" y="-1070" font-family="Helvetica,sans-Serif" font-size="10.00">pocketmine\block\tile</text>
<text text-anchor="middle" x="664.5" y="-1059" font-family="Helvetica,sans-Serif" font-size="10.00">\Container</text>
<polyline fill="none" stroke="#bfbfbf" points="603.5,-1052 725.5,-1052 "/>
<text text-anchor="middle" x="664.5" y="-1040" font-family="Helvetica,sans-Serif" font-size="10.00"> </text>
<polyline fill="none" stroke="#bfbfbf" points="603.5,-1033 725.5,-1033 "/>
<text text-anchor="start" x="611.5" y="-1021" font-family="Helvetica,sans-Serif" font-size="10.00">+ canOpenWith()</text>
<text text-anchor="start" x="611.5" y="-1010" font-family="Helvetica,sans-Serif" font-size="10.00">+ getRealInventory()</text>
</a>
</g>
</g>
<!-- Node4&#45;&gt;Node11 -->
<g id="edge14" class="edge">
<title>Node4&#45;&gt;Node11</title>
<path fill="none" stroke="#404040" d="M573.79,-1443.28C589.82,-1372.61 632.42,-1184.9 653.02,-1094.1"/>
<polygon fill="none" stroke="#404040" points="653.06,-1093.92 650.49,-1087.18 655.72,-1082.22 658.29,-1088.95 653.06,-1093.92"/>
<text text-anchor="middle" x="659" y="-1285" font-family="Helvetica,sans-Serif" font-size="10.00"> +TAG_ITEMS</text>
<text text-anchor="middle" x="659" y="-1274" font-family="Helvetica,sans-Serif" font-size="10.00">+TAG_LOCK</text>
</g>
<!-- Node13 -->
<g id="node13" class="node">
<title>Node13</title>
<g id="a_node13"><a xlink:href="../../d1/d55/interfacepocketmine_1_1block_1_1tile_1_1_nameable.html" target="_top" xlink:title=" ">
<polygon fill="white" stroke="#bfbfbf" points="701.5,-767.5 701.5,-868.5 823.5,-868.5 823.5,-767.5 701.5,-767.5"/>
<text text-anchor="start" x="709.5" y="-856.5" font-family="Helvetica,sans-Serif" font-size="10.00">pocketmine\block\tile</text>
<text text-anchor="middle" x="762.5" y="-845.5" font-family="Helvetica,sans-Serif" font-size="10.00">\Nameable</text>
<polyline fill="none" stroke="#bfbfbf" points="701.5,-838.5 823.5,-838.5 "/>
<text text-anchor="middle" x="762.5" y="-826.5" font-family="Helvetica,sans-Serif" font-size="10.00"> </text>
<polyline fill="none" stroke="#bfbfbf" points="701.5,-819.5 823.5,-819.5 "/>
<text text-anchor="start" x="709.5" y="-807.5" font-family="Helvetica,sans-Serif" font-size="10.00">+ getDefaultName()</text>
<text text-anchor="start" x="709.5" y="-796.5" font-family="Helvetica,sans-Serif" font-size="10.00">+ getName()</text>
<text text-anchor="start" x="709.5" y="-785.5" font-family="Helvetica,sans-Serif" font-size="10.00">+ hasName()</text>
<text text-anchor="start" x="709.5" y="-774.5" font-family="Helvetica,sans-Serif" font-size="10.00">+ setName()</text>
</a>
</g>
</g>
<!-- Node4&#45;&gt;Node13 -->
<g id="edge16" class="edge">
<title>Node4&#45;&gt;Node13</title>
<path fill="none" stroke="#404040" d="M589.37,-1456.25C618.36,-1435.53 669.03,-1395.03 696.5,-1348 783.86,-1198.44 778.77,-984.85 769.7,-880.77"/>
<polygon fill="none" stroke="#404040" points="769.69,-880.58 765.15,-874.97 768.59,-868.63 773.12,-874.24 769.69,-880.58"/>
<text text-anchor="middle" x="803.5" y="-1279.5" font-family="Helvetica,sans-Serif" font-size="10.00"> +TAG_CUSTOM_NAME</text>
</g>
<!-- Node5 -->
<g id="node5" class="node">
<title>Node5</title>
<g id="a_node5"><a xlink:href="../../d5/dd2/classpocketmine_1_1world_1_1_position.html" target="_top" xlink:title=" ">
<polygon fill="white" stroke="#bfbfbf" points="331.5,-614.5 331.5,-748.5 477.5,-748.5 477.5,-614.5 331.5,-614.5"/>
<text text-anchor="middle" x="404.5" y="-736.5" font-family="Helvetica,sans-Serif" font-size="10.00">pocketmine\world\Position</text>
<polyline fill="none" stroke="#bfbfbf" points="331.5,-729.5 477.5,-729.5 "/>
<text text-anchor="middle" x="404.5" y="-717.5" font-family="Helvetica,sans-Serif" font-size="10.00"> </text>
<polyline fill="none" stroke="#bfbfbf" points="331.5,-710.5 477.5,-710.5 "/>
<text text-anchor="start" x="339.5" y="-698.5" font-family="Helvetica,sans-Serif" font-size="10.00">+ __construct()</text>
<text text-anchor="start" x="339.5" y="-687.5" font-family="Helvetica,sans-Serif" font-size="10.00">+ __toString()</text>
<text text-anchor="start" x="339.5" y="-676.5" font-family="Helvetica,sans-Serif" font-size="10.00">+ asPosition()</text>
<text text-anchor="start" x="339.5" y="-665.5" font-family="Helvetica,sans-Serif" font-size="10.00">+ equals()</text>
<text text-anchor="start" x="339.5" y="-654.5" font-family="Helvetica,sans-Serif" font-size="10.00">+ getSide()</text>
<text text-anchor="start" x="339.5" y="-643.5" font-family="Helvetica,sans-Serif" font-size="10.00">+ getWorld()</text>
<text text-anchor="start" x="339.5" y="-632.5" font-family="Helvetica,sans-Serif" font-size="10.00">+ isValid()</text>
<text text-anchor="start" x="339.5" y="-621.5" font-family="Helvetica,sans-Serif" font-size="10.00">+ fromObject()</text>
</a>
</g>
</g>
<!-- Node5&#45;&gt;Node3 -->
<g id="edge4" class="edge">
<title>Node5&#45;&gt;Node3</title>
<path fill="none" stroke="#404040" d="M406.73,-614.28C407.12,-602.89 407.53,-590.81 407.93,-578.69"/>
<polygon fill="none" stroke="#404040" points="407.94,-578.58 404.14,-572.44 408.34,-566.58 412.14,-572.71 407.94,-578.58"/>
<text text-anchor="middle" x="437" y="-588" font-family="Helvetica,sans-Serif" font-size="10.00"> #$position</text>
</g>
<!-- Node6 -->
<g id="node6" class="node">
<title>Node6</title>
<g id="a_node6"><a xlink:href="../../d2/d90/classpocketmine_1_1math_1_1_vector3.html" target="_top" xlink:title=" ">
<polygon fill="white" stroke="#bfbfbf" points="335.5,-937 335.5,-1148 477.5,-1148 477.5,-937 335.5,-937"/>
<text text-anchor="middle" x="406.5" y="-1136" font-family="Helvetica,sans-Serif" font-size="10.00">pocketmine\math\Vector3</text>
<polyline fill="none" stroke="#bfbfbf" points="335.5,-1129 477.5,-1129 "/>
<text text-anchor="middle" x="406.5" y="-1117" font-family="Helvetica,sans-Serif" font-size="10.00"> </text>
<polyline fill="none" stroke="#bfbfbf" points="335.5,-1110 477.5,-1110 "/>
<text text-anchor="start" x="343.5" y="-1098" font-family="Helvetica,sans-Serif" font-size="10.00">+ __construct()</text>
<text text-anchor="start" x="343.5" y="-1087" font-family="Helvetica,sans-Serif" font-size="10.00">+ __toString()</text>
<text text-anchor="start" x="343.5" y="-1076" font-family="Helvetica,sans-Serif" font-size="10.00">+ abs()</text>
<text text-anchor="start" x="343.5" y="-1065" font-family="Helvetica,sans-Serif" font-size="10.00">+ add()</text>
<text text-anchor="start" x="343.5" y="-1054" font-family="Helvetica,sans-Serif" font-size="10.00">+ addVector()</text>
<text text-anchor="start" x="343.5" y="-1043" font-family="Helvetica,sans-Serif" font-size="10.00">+ asVector3()</text>
<text text-anchor="start" x="343.5" y="-1032" font-family="Helvetica,sans-Serif" font-size="10.00">+ ceil()</text>
<text text-anchor="start" x="343.5" y="-1021" font-family="Helvetica,sans-Serif" font-size="10.00">+ cross()</text>
<text text-anchor="start" x="343.5" y="-1010" font-family="Helvetica,sans-Serif" font-size="10.00">+ distance()</text>
<text text-anchor="start" x="343.5" y="-999" font-family="Helvetica,sans-Serif" font-size="10.00">+ distanceSquared()</text>
<text text-anchor="start" x="343.5" y="-988" font-family="Helvetica,sans-Serif" font-size="10.00">and 32 more...</text>
<text text-anchor="start" x="343.5" y="-977" font-family="Helvetica,sans-Serif" font-size="10.00">+ maxComponents()</text>
<text text-anchor="start" x="343.5" y="-966" font-family="Helvetica,sans-Serif" font-size="10.00">+ minComponents()</text>
<text text-anchor="start" x="343.5" y="-955" font-family="Helvetica,sans-Serif" font-size="10.00">+ sum()</text>
<text text-anchor="start" x="343.5" y="-944" font-family="Helvetica,sans-Serif" font-size="10.00">+ zero()</text>
</a>
</g>
</g>
<!-- Node6&#45;&gt;Node5 -->
<g id="edge5" class="edge">
<title>Node6&#45;&gt;Node5</title>
<path fill="none" stroke="midnightblue" d="M405.86,-926.61C405.53,-867.86 405.15,-798.44 404.87,-748.68"/>
<polygon fill="none" stroke="midnightblue" points="402.36,-926.72 405.92,-936.7 409.36,-926.68 402.36,-926.72"/>
</g>
<!-- Node7&#45;&gt;Node5 -->
<g id="edge6" class="edge">
<title>Node7&#45;&gt;Node5</title>
<path fill="none" stroke="#404040" d="M298.86,-887.17C316.9,-847.66 336.86,-805.48 356.5,-767 357.79,-764.46 359.13,-761.9 360.49,-759.31"/>
<polygon fill="none" stroke="#404040" points="360.54,-759.2 359.85,-752.02 366.2,-748.62 366.9,-755.8 360.54,-759.2"/>
<text text-anchor="middle" x="379" y="-815.5" font-family="Helvetica,sans-Serif" font-size="10.00"> +$world</text>
</g>
<!-- Node8 -->
<g id="node8" class="node">
<title>Node8</title>
<g id="a_node8"><a xlink:href="../../d0/d03/interfacepocketmine_1_1world_1_1_chunk_manager.html" target="_top" xlink:title=" ">
<polygon fill="white" stroke="#bfbfbf" points="260.5,-1410.5 260.5,-1533.5 440.5,-1533.5 440.5,-1410.5 260.5,-1410.5"/>
<text text-anchor="middle" x="350.5" y="-1521.5" font-family="Helvetica,sans-Serif" font-size="10.00">pocketmine\world\ChunkManager</text>
<polyline fill="none" stroke="#bfbfbf" points="260.5,-1514.5 440.5,-1514.5 "/>
<text text-anchor="middle" x="350.5" y="-1502.5" font-family="Helvetica,sans-Serif" font-size="10.00"> </text>
<polyline fill="none" stroke="#bfbfbf" points="260.5,-1495.5 440.5,-1495.5 "/>
<text text-anchor="start" x="268.5" y="-1483.5" font-family="Helvetica,sans-Serif" font-size="10.00">+ getBlockAt()</text>
<text text-anchor="start" x="268.5" y="-1472.5" font-family="Helvetica,sans-Serif" font-size="10.00">+ getChunk()</text>
<text text-anchor="start" x="268.5" y="-1461.5" font-family="Helvetica,sans-Serif" font-size="10.00">+ getMaxY()</text>
<text text-anchor="start" x="268.5" y="-1450.5" font-family="Helvetica,sans-Serif" font-size="10.00">+ getMinY()</text>
<text text-anchor="start" x="268.5" y="-1439.5" font-family="Helvetica,sans-Serif" font-size="10.00">+ isInWorld()</text>
<text text-anchor="start" x="268.5" y="-1428.5" font-family="Helvetica,sans-Serif" font-size="10.00">+ setBlockAt()</text>
<text text-anchor="start" x="268.5" y="-1417.5" font-family="Helvetica,sans-Serif" font-size="10.00">+ setChunk()</text>
</a>
</g>
</g>
<!-- Node8&#45;&gt;Node7 -->
<g id="edge7" class="edge">
<title>Node8&#45;&gt;Node7</title>
<path fill="none" stroke="midnightblue" d="M330.89,-1400.55C315.58,-1345.53 293.72,-1267.03 274.41,-1197.64"/>
<polygon fill="none" stroke="midnightblue" points="327.52,-1401.51 333.58,-1410.2 334.27,-1399.63 327.52,-1401.51"/>
</g>
<!-- Node9 -->
<g id="node9" class="node">
<title>Node9</title>
<g id="a_node9"><a xlink:href="../../d7/d08/classpocketmine_1_1world_1_1_world_timings.html" target="_top" xlink:title=" ">
<polygon fill="white" stroke="#bfbfbf" points="69,-1366.5 69,-1577.5 242,-1577.5 242,-1366.5 69,-1366.5"/>
<text text-anchor="middle" x="155.5" y="-1565.5" font-family="Helvetica,sans-Serif" font-size="10.00">pocketmine\world\WorldTimings</text>
<polyline fill="none" stroke="#bfbfbf" points="69,-1558.5 242,-1558.5 "/>
<text text-anchor="start" x="77" y="-1546.5" font-family="Helvetica,sans-Serif" font-size="10.00">+ $randomChunkUpdatesChunk</text>
<text text-anchor="start" x="77" y="-1535.5" font-family="Helvetica,sans-Serif" font-size="10.00">Selection</text>
<text text-anchor="start" x="77" y="-1524.5" font-family="Helvetica,sans-Serif" font-size="10.00">+ $scheduledBlockUpdates</text>
<text text-anchor="start" x="77" y="-1513.5" font-family="Helvetica,sans-Serif" font-size="10.00">+ $setBlock</text>
<text text-anchor="start" x="77" y="-1502.5" font-family="Helvetica,sans-Serif" font-size="10.00">+ $syncChunkLoad</text>
<text text-anchor="start" x="77" y="-1491.5" font-family="Helvetica,sans-Serif" font-size="10.00">+ $syncChunkLoadData</text>
<text text-anchor="start" x="77" y="-1480.5" font-family="Helvetica,sans-Serif" font-size="10.00">+ $syncChunkLoadEntities</text>
<text text-anchor="start" x="77" y="-1469.5" font-family="Helvetica,sans-Serif" font-size="10.00">+ $syncChunkLoadFixInvalid</text>
<text text-anchor="start" x="77" y="-1458.5" font-family="Helvetica,sans-Serif" font-size="10.00">Blocks</text>
<text text-anchor="start" x="77" y="-1447.5" font-family="Helvetica,sans-Serif" font-size="10.00">+ $syncChunkLoadTileEntities</text>
<text text-anchor="start" x="77" y="-1436.5" font-family="Helvetica,sans-Serif" font-size="10.00">+ $syncChunkSave</text>
<text text-anchor="start" x="77" y="-1425.5" font-family="Helvetica,sans-Serif" font-size="10.00">+ $syncChunkSend</text>
<text text-anchor="start" x="77" y="-1414.5" font-family="Helvetica,sans-Serif" font-size="10.00">+ $syncChunkSendPrepare</text>
<text text-anchor="start" x="77" y="-1403.5" font-family="Helvetica,sans-Serif" font-size="10.00">+ $syncDataSave</text>
<text text-anchor="start" x="77" y="-1392.5" font-family="Helvetica,sans-Serif" font-size="10.00">+ $tileTick</text>
<polyline fill="none" stroke="#bfbfbf" points="69,-1385.5 242,-1385.5 "/>
<text text-anchor="start" x="77" y="-1373.5" font-family="Helvetica,sans-Serif" font-size="10.00">+ __construct()</text>
</a>
</g>
</g>
<!-- Node9&#45;&gt;Node7 -->
<g id="edge9" class="edge">
<title>Node9&#45;&gt;Node7</title>
<path fill="none" stroke="#404040" d="M174.09,-1366.42C182.49,-1319.2 192.61,-1262.25 202,-1209.42"/>
<polygon fill="none" stroke="#404040" points="202.02,-1209.32 199.13,-1202.71 204.12,-1197.51 207.01,-1204.11 202.02,-1209.32"/>
<text text-anchor="middle" x="228" y="-1279.5" font-family="Helvetica,sans-Serif" font-size="10.00"> +$timings</text>
</g>
<!-- Node10 -->
<g id="node10" class="node">
<title>Node10</title>
<g id="a_node10"><a xlink:href="../../d7/d9b/classpocketmine_1_1timings_1_1_timings_handler.html" target="_top" xlink:title=" ">
<polygon fill="white" stroke="#bfbfbf" points="0,-1735.5 0,-1935.5 113,-1935.5 113,-1735.5 0,-1735.5"/>
<text text-anchor="start" x="8" y="-1923.5" font-family="Helvetica,sans-Serif" font-size="10.00">pocketmine\timings</text>
<text text-anchor="middle" x="56.5" y="-1912.5" font-family="Helvetica,sans-Serif" font-size="10.00">\TimingsHandler</text>
<polyline fill="none" stroke="#bfbfbf" points="0,-1905.5 113,-1905.5 "/>
<text text-anchor="middle" x="56.5" y="-1893.5" font-family="Helvetica,sans-Serif" font-size="10.00"> </text>
<polyline fill="none" stroke="#bfbfbf" points="0,-1886.5 113,-1886.5 "/>
<text text-anchor="start" x="8" y="-1874.5" font-family="Helvetica,sans-Serif" font-size="10.00">+ __construct()</text>
<text text-anchor="start" x="8" y="-1863.5" font-family="Helvetica,sans-Serif" font-size="10.00">+ getGroup()</text>
<text text-anchor="start" x="8" y="-1852.5" font-family="Helvetica,sans-Serif" font-size="10.00">+ getName()</text>
<text text-anchor="start" x="8" y="-1841.5" font-family="Helvetica,sans-Serif" font-size="10.00">+ reset()</text>
<text text-anchor="start" x="8" y="-1830.5" font-family="Helvetica,sans-Serif" font-size="10.00">+ startTiming()</text>
<text text-anchor="start" x="8" y="-1819.5" font-family="Helvetica,sans-Serif" font-size="10.00">+ stopTiming()</text>
<text text-anchor="start" x="8" y="-1808.5" font-family="Helvetica,sans-Serif" font-size="10.00">+ time()</text>
<text text-anchor="start" x="8" y="-1797.5" font-family="Helvetica,sans-Serif" font-size="10.00">+ getStartTime()</text>
<text text-anchor="start" x="8" y="-1786.5" font-family="Helvetica,sans-Serif" font-size="10.00">+ isEnabled()</text>
<text text-anchor="start" x="8" y="-1775.5" font-family="Helvetica,sans-Serif" font-size="10.00">+ printTimings()</text>
<text text-anchor="start" x="8" y="-1764.5" font-family="Helvetica,sans-Serif" font-size="10.00">+ reload()</text>
<text text-anchor="start" x="8" y="-1753.5" font-family="Helvetica,sans-Serif" font-size="10.00">+ setEnabled()</text>
<text text-anchor="start" x="8" y="-1742.5" font-family="Helvetica,sans-Serif" font-size="10.00">+ tick()</text>
</a>
</g>
</g>
<!-- Node10&#45;&gt;Node3 -->
<g id="edge11" class="edge">
<title>Node10&#45;&gt;Node3</title>
<path fill="none" stroke="#404040" d="M49.74,-1735.2C45.37,-1662.6 40.5,-1561.74 40.5,-1473 40.5,-1473 40.5,-1473 40.5,-680.5 40.5,-551.04 214.71,-501.57 324.37,-483.25"/>
<polygon fill="none" stroke="#404040" points="324.57,-483.22 329.87,-478.32 336.42,-481.32 331.13,-486.22 324.57,-483.22"/>
<text text-anchor="middle" x="68" y="-1040" font-family="Helvetica,sans-Serif" font-size="10.00"> #$timings</text>
</g>
<!-- Node10&#45;&gt;Node9 -->
<g id="edge10" class="edge">
<title>Node10&#45;&gt;Node9</title>
<path fill="none" stroke="#404040" d="M83.68,-1735.24C96.03,-1690.15 110.72,-1636.5 123.59,-1589.52"/>
<polygon fill="none" stroke="#404040" points="123.65,-1589.3 121.38,-1582.45 126.82,-1577.72 129.09,-1584.57 123.65,-1589.3"/>
<text text-anchor="middle" x="199" y="-1709" font-family="Helvetica,sans-Serif" font-size="10.00"> +$chunkPopulationCompletion</text>
<text text-anchor="middle" x="199" y="-1698" font-family="Helvetica,sans-Serif" font-size="10.00">+$chunkPopulationOrder</text>
<text text-anchor="middle" x="199" y="-1687" font-family="Helvetica,sans-Serif" font-size="10.00">+$doBlockLightUpdates</text>
<text text-anchor="middle" x="199" y="-1676" font-family="Helvetica,sans-Serif" font-size="10.00">+$doBlockSkyLightUpdates</text>
<text text-anchor="middle" x="199" y="-1665" font-family="Helvetica,sans-Serif" font-size="10.00">+$doChunkGC</text>
<text text-anchor="middle" x="199" y="-1654" font-family="Helvetica,sans-Serif" font-size="10.00">+$doChunkUnload</text>
<text text-anchor="middle" x="199" y="-1643" font-family="Helvetica,sans-Serif" font-size="10.00">+$doTick</text>
<text text-anchor="middle" x="199" y="-1632" font-family="Helvetica,sans-Serif" font-size="10.00">+$entityTick</text>
<text text-anchor="middle" x="199" y="-1621" font-family="Helvetica,sans-Serif" font-size="10.00">+$neighbourBlockUpdates</text>
<text text-anchor="middle" x="199" y="-1610" font-family="Helvetica,sans-Serif" font-size="10.00">+$randomChunkUpdates</text>
<text text-anchor="middle" x="199" y="-1599" font-family="Helvetica,sans-Serif" font-size="10.00">...</text>
</g>
<!-- Node11&#45;&gt;Node1 -->
<g id="edge12" class="edge">
<title>Node11&#45;&gt;Node1</title>
<path fill="none" stroke="midnightblue" d="M669.4,-992.63C675.88,-923.6 686.5,-793.57 686.5,-682.5 686.5,-682.5 686.5,-682.5 686.5,-266 686.5,-228.93 675.62,-189.61 663.13,-156.69"/>
<polygon fill="none" stroke="midnightblue" points="665.9,-992.48 668.43,-1002.77 672.86,-993.14 665.9,-992.48"/>
</g>
<!-- Node12 -->
<g id="node12" class="node">
<title>Node12</title>
<g id="a_node12"><a xlink:href="../../d2/d91/interfacepocketmine_1_1inventory_1_1_inventory_holder.html" target="_top" xlink:title=" ">
<polygon fill="white" stroke="#bfbfbf" points="821,-1438 821,-1506 944,-1506 944,-1438 821,-1438"/>
<text text-anchor="start" x="829" y="-1494" font-family="Helvetica,sans-Serif" font-size="10.00">pocketmine\inventory</text>
<text text-anchor="middle" x="882.5" y="-1483" font-family="Helvetica,sans-Serif" font-size="10.00">\InventoryHolder</text>
<polyline fill="none" stroke="#bfbfbf" points="821,-1476 944,-1476 "/>
<text text-anchor="middle" x="882.5" y="-1464" font-family="Helvetica,sans-Serif" font-size="10.00"> </text>
<polyline fill="none" stroke="#bfbfbf" points="821,-1457 944,-1457 "/>
<text text-anchor="start" x="829" y="-1445" font-family="Helvetica,sans-Serif" font-size="10.00">+ getInventory()</text>
</a>
</g>
</g>
<!-- Node12&#45;&gt;Node11 -->
<g id="edge13" class="edge">
<title>Node12&#45;&gt;Node11</title>
<path fill="none" stroke="midnightblue" d="M890.06,-1427.87C897.18,-1374.95 902.3,-1283.91 868.5,-1216 837.81,-1154.34 774.08,-1106.17 725.97,-1076.59"/>
<polygon fill="none" stroke="midnightblue" points="886.57,-1427.53 888.62,-1437.92 893.5,-1428.52 886.57,-1427.53"/>
</g>
<!-- Node13&#45;&gt;Node1 -->
<g id="edge15" class="edge">
<title>Node13&#45;&gt;Node1</title>
<path fill="none" stroke="midnightblue" d="M754.73,-757.42C749.48,-712.03 743.5,-647.93 743.5,-591.5 743.5,-591.5 743.5,-591.5 743.5,-266 743.5,-226.25 724.19,-188.02 701.26,-156.63"/>
<polygon fill="none" stroke="midnightblue" points="751.26,-757.87 755.91,-767.39 758.21,-757.05 751.26,-757.87"/>
</g>
</g>
</svg>
