<?xml version="1.0" encoding="UTF-8" standalone="no"?>
<!DOCTYPE svg PUBLIC "-//W3C//DTD SVG 1.1//EN"
 "http://www.w3.org/Graphics/SVG/1.1/DTD/svg11.dtd">
<!-- Generated by graphviz version 2.43.0 (0)
 -->
<!-- Title: pocketmine\block\tile\BrewingStand Pages: 1 -->
<svg width="507pt" height="825pt"
 viewBox="0.00 0.00 507.00 825.00" xmlns="http://www.w3.org/2000/svg" xmlns:xlink="http://www.w3.org/1999/xlink">
<g id="graph0" class="graph" transform="scale(1 1) rotate(0) translate(4 821)">
<title>pocketmine\block\tile\BrewingStand</title>
<polygon fill="white" stroke="transparent" points="-4,4 -4,-821 503,-821 503,4 -4,4"/>
<!-- Node1 -->
<g id="node1" class="node">
<title>Node1</title>
<g id="a_node1"><a xlink:title=" ">
<polygon fill="#bfbfbf" stroke="black" points="147,-0.5 147,-156.5 305,-156.5 305,-0.5 147,-0.5"/>
<text text-anchor="start" x="155" y="-144.5" font-family="Helvetica,sans-Serif" font-size="10.00">pocketmine\block\tile</text>
<text text-anchor="middle" x="226" y="-133.5" font-family="Helvetica,sans-Serif" font-size="10.00">\BrewingStand</text>
<polyline fill="none" stroke="black" points="147,-126.5 305,-126.5 "/>
<text text-anchor="middle" x="226" y="-114.5" font-family="Helvetica,sans-Serif" font-size="10.00"> </text>
<polyline fill="none" stroke="black" points="147,-107.5 305,-107.5 "/>
<text text-anchor="start" x="155" y="-95.5" font-family="Helvetica,sans-Serif" font-size="10.00">+ __construct()</text>
<text text-anchor="start" x="155" y="-84.5" font-family="Helvetica,sans-Serif" font-size="10.00">+ close()</text>
<text text-anchor="start" x="155" y="-73.5" font-family="Helvetica,sans-Serif" font-size="10.00">+ getDefaultName()</text>
<text text-anchor="start" x="155" y="-62.5" font-family="Helvetica,sans-Serif" font-size="10.00">+ getInventory()</text>
<text text-anchor="start" x="155" y="-51.5" font-family="Helvetica,sans-Serif" font-size="10.00">+ getRealInventory()</text>
<text text-anchor="start" x="155" y="-40.5" font-family="Helvetica,sans-Serif" font-size="10.00">+ onUpdate()</text>
<text text-anchor="start" x="155" y="-29.5" font-family="Helvetica,sans-Serif" font-size="10.00">+ readSaveData()</text>
<text text-anchor="start" x="155" y="-18.5" font-family="Helvetica,sans-Serif" font-size="10.00"># addAdditionalSpawnData()</text>
<text text-anchor="start" x="155" y="-7.5" font-family="Helvetica,sans-Serif" font-size="10.00"># writeSaveData()</text>
</a>
</g>
</g>
<!-- Node2 -->
<g id="node2" class="node">
<title>Node2</title>
<g id="a_node2"><a xlink:href="../../dc/d0b/classpocketmine_1_1block_1_1tile_1_1_spawnable.html" target="_top" xlink:title=" ">
<polygon fill="white" stroke="#bfbfbf" points="315,-194.5 315,-317.5 499,-317.5 499,-194.5 315,-194.5"/>
<text text-anchor="start" x="323" y="-305.5" font-family="Helvetica,sans-Serif" font-size="10.00">pocketmine\block\tile</text>
<text text-anchor="middle" x="407" y="-294.5" font-family="Helvetica,sans-Serif" font-size="10.00">\Spawnable</text>
<polyline fill="none" stroke="#bfbfbf" points="315,-287.5 499,-287.5 "/>
<text text-anchor="middle" x="407" y="-275.5" font-family="Helvetica,sans-Serif" font-size="10.00"> </text>
<polyline fill="none" stroke="#bfbfbf" points="315,-268.5 499,-268.5 "/>
<text text-anchor="start" x="323" y="-256.5" font-family="Helvetica,sans-Serif" font-size="10.00">+ clearSpawnCompoundCache()</text>
<text text-anchor="start" x="323" y="-245.5" font-family="Helvetica,sans-Serif" font-size="10.00">+ getSerializedSpawnCompound()</text>
<text text-anchor="start" x="323" y="-234.5" font-family="Helvetica,sans-Serif" font-size="10.00">+ getSpawnCompound()</text>
<text text-anchor="start" x="323" y="-223.5" font-family="Helvetica,sans-Serif" font-size="10.00">+ isDirty()</text>
<text text-anchor="start" x="323" y="-212.5" font-family="Helvetica,sans-Serif" font-size="10.00">+ setDirty()</text>
<text text-anchor="start" x="323" y="-201.5" font-family="Helvetica,sans-Serif" font-size="10.00"># addAdditionalSpawnData()</text>
</a>
</g>
</g>
<!-- Node2&#45;&gt;Node1 -->
<g id="edge1" class="edge">
<title>Node2&#45;&gt;Node1</title>
<path fill="none" stroke="midnightblue" d="M337.25,-187.37C326.74,-177.18 315.84,-166.61 305.15,-156.24"/>
<polygon fill="none" stroke="midnightblue" points="334.84,-189.91 344.46,-194.36 339.71,-184.88 334.84,-189.91"/>
</g>
<!-- Node3 -->
<g id="node3" class="node">
<title>Node3</title>
<g id="a_node3"><a xlink:href="../../d9/d74/classpocketmine_1_1block_1_1tile_1_1_tile.html" target="_top" xlink:title=" ">
<polygon fill="white" stroke="#bfbfbf" points="335,-456.5 335,-667.5 485,-667.5 485,-456.5 335,-456.5"/>
<text text-anchor="middle" x="410" y="-655.5" font-family="Helvetica,sans-Serif" font-size="10.00">pocketmine\block\tile\Tile</text>
<polyline fill="none" stroke="#bfbfbf" points="335,-648.5 485,-648.5 "/>
<text text-anchor="start" x="343" y="-636.5" font-family="Helvetica,sans-Serif" font-size="10.00">+ $closed</text>
<text text-anchor="start" x="343" y="-625.5" font-family="Helvetica,sans-Serif" font-size="10.00"># $position</text>
<text text-anchor="start" x="343" y="-614.5" font-family="Helvetica,sans-Serif" font-size="10.00"># $timings</text>
<polyline fill="none" stroke="#bfbfbf" points="335,-607.5 485,-607.5 "/>
<text text-anchor="start" x="343" y="-595.5" font-family="Helvetica,sans-Serif" font-size="10.00">+ __construct()</text>
<text text-anchor="start" x="343" y="-584.5" font-family="Helvetica,sans-Serif" font-size="10.00">+ __destruct()</text>
<text text-anchor="start" x="343" y="-573.5" font-family="Helvetica,sans-Serif" font-size="10.00">+ close()</text>
<text text-anchor="start" x="343" y="-562.5" font-family="Helvetica,sans-Serif" font-size="10.00">+ copyDataFromItem()</text>
<text text-anchor="start" x="343" y="-551.5" font-family="Helvetica,sans-Serif" font-size="10.00">+ getBlock()</text>
<text text-anchor="start" x="343" y="-540.5" font-family="Helvetica,sans-Serif" font-size="10.00">+ getCleanedNBT()</text>
<text text-anchor="start" x="343" y="-529.5" font-family="Helvetica,sans-Serif" font-size="10.00">+ getPosition()</text>
<text text-anchor="start" x="343" y="-518.5" font-family="Helvetica,sans-Serif" font-size="10.00">+ isClosed()</text>
<text text-anchor="start" x="343" y="-507.5" font-family="Helvetica,sans-Serif" font-size="10.00">+ onBlockDestroyed()</text>
<text text-anchor="start" x="343" y="-496.5" font-family="Helvetica,sans-Serif" font-size="10.00">+ readSaveData()</text>
<text text-anchor="start" x="343" y="-485.5" font-family="Helvetica,sans-Serif" font-size="10.00">+ saveNBT()</text>
<text text-anchor="start" x="343" y="-474.5" font-family="Helvetica,sans-Serif" font-size="10.00"># onBlockDestroyedHook()</text>
<text text-anchor="start" x="343" y="-463.5" font-family="Helvetica,sans-Serif" font-size="10.00"># writeSaveData()</text>
</a>
</g>
</g>
<!-- Node3&#45;&gt;Node2 -->
<g id="edge2" class="edge">
<title>Node3&#45;&gt;Node2</title>
<path fill="none" stroke="midnightblue" d="M408.87,-446.27C408.44,-402.63 407.96,-354.63 407.6,-317.88"/>
<polygon fill="none" stroke="midnightblue" points="405.37,-446.42 408.97,-456.38 412.37,-446.35 405.37,-446.42"/>
</g>
<!-- Node4 -->
<g id="node4" class="node">
<title>Node4</title>
<g id="a_node4"><a xlink:title=" ">
<polygon fill="white" stroke="#bfbfbf" points="162.5,-754 162.5,-811 205.5,-811 205.5,-754 162.5,-754"/>
<text text-anchor="middle" x="184" y="-799" font-family="Helvetica,sans-Serif" font-size="10.00">const</text>
<polyline fill="none" stroke="#bfbfbf" points="162.5,-792 205.5,-792 "/>
<text text-anchor="middle" x="184" y="-780" font-family="Helvetica,sans-Serif" font-size="10.00"> </text>
<polyline fill="none" stroke="#bfbfbf" points="162.5,-773 205.5,-773 "/>
<text text-anchor="middle" x="184" y="-761" font-family="Helvetica,sans-Serif" font-size="10.00"> </text>
</a>
</g>
</g>
<!-- Node4&#45;&gt;Node1 -->
<g id="edge9" class="edge">
<title>Node4&#45;&gt;Node1</title>
<path fill="none" stroke="#404040" d="M179.62,-753.75C169.23,-683.54 145.27,-493.22 164,-336 170.73,-279.47 185.54,-217.39 198.99,-168.47"/>
<polygon fill="none" stroke="#404040" points="199.06,-168.2 196.82,-161.35 202.29,-156.64 204.53,-163.5 199.06,-168.2"/>
<text text-anchor="middle" x="216" y="-384.5" font-family="Helvetica,sans-Serif" font-size="10.00"> +BREW_TIME_TICKS</text>
</g>
<!-- Node4&#45;&gt;Node3 -->
<g id="edge3" class="edge">
<title>Node4&#45;&gt;Node3</title>
<path fill="none" stroke="#404040" d="M205.76,-770.28C223.37,-760.72 248.38,-746 268,-730 288.68,-713.13 308.68,-692.97 326.83,-672.59"/>
<polygon fill="none" stroke="#404040" points="326.85,-672.57 327.8,-665.42 334.76,-663.54 333.82,-670.69 326.85,-672.57"/>
<text text-anchor="middle" x="334.5" y="-722" font-family="Helvetica,sans-Serif" font-size="10.00"> +TAG_ID</text>
<text text-anchor="middle" x="334.5" y="-711" font-family="Helvetica,sans-Serif" font-size="10.00">+TAG_X</text>
<text text-anchor="middle" x="334.5" y="-700" font-family="Helvetica,sans-Serif" font-size="10.00">+TAG_Y</text>
<text text-anchor="middle" x="334.5" y="-689" font-family="Helvetica,sans-Serif" font-size="10.00">+TAG_Z</text>
</g>
<!-- Node5 -->
<g id="node5" class="node">
<title>Node5</title>
<g id="a_node5"><a xlink:href="../../d9/de1/interfacepocketmine_1_1block_1_1tile_1_1_container.html" target="_top" xlink:title=" ">
<polygon fill="white" stroke="#bfbfbf" points="195,-522.5 195,-601.5 317,-601.5 317,-522.5 195,-522.5"/>
<text text-anchor="start" x="203" y="-589.5" font-family="Helvetica,sans-Serif" font-size="10.00">pocketmine\block\tile</text>
<text text-anchor="middle" x="256" y="-578.5" font-family="Helvetica,sans-Serif" font-size="10.00">\Container</text>
<polyline fill="none" stroke="#bfbfbf" points="195,-571.5 317,-571.5 "/>
<text text-anchor="middle" x="256" y="-559.5" font-family="Helvetica,sans-Serif" font-size="10.00"> </text>
<polyline fill="none" stroke="#bfbfbf" points="195,-552.5 317,-552.5 "/>
<text text-anchor="start" x="203" y="-540.5" font-family="Helvetica,sans-Serif" font-size="10.00">+ canOpenWith()</text>
<text text-anchor="start" x="203" y="-529.5" font-family="Helvetica,sans-Serif" font-size="10.00">+ getRealInventory()</text>
</a>
</g>
</g>
<!-- Node4&#45;&gt;Node5 -->
<g id="edge6" class="edge">
<title>Node4&#45;&gt;Node5</title>
<path fill="none" stroke="#404040" d="M187.1,-753.91C189.7,-734.61 194.12,-708.37 201,-686 208.64,-661.15 220.01,-634.7 230.43,-612.72"/>
<polygon fill="none" stroke="#404040" points="230.56,-612.47 229.56,-605.32 235.77,-601.66 236.77,-608.8 230.56,-612.47"/>
<text text-anchor="middle" x="234.5" y="-711" font-family="Helvetica,sans-Serif" font-size="10.00"> +TAG_ITEMS</text>
<text text-anchor="middle" x="234.5" y="-700" font-family="Helvetica,sans-Serif" font-size="10.00">+TAG_LOCK</text>
</g>
<!-- Node7 -->
<g id="node7" class="node">
<title>Node7</title>
<g id="a_node7"><a xlink:href="../../d1/d55/interfacepocketmine_1_1block_1_1tile_1_1_nameable.html" target="_top" xlink:title=" ">
<polygon fill="white" stroke="#bfbfbf" points="0,-336.5 0,-437.5 122,-437.5 122,-336.5 0,-336.5"/>
<text text-anchor="start" x="8" y="-425.5" font-family="Helvetica,sans-Serif" font-size="10.00">pocketmine\block\tile</text>
<text text-anchor="middle" x="61" y="-414.5" font-family="Helvetica,sans-Serif" font-size="10.00">\Nameable</text>
<polyline fill="none" stroke="#bfbfbf" points="0,-407.5 122,-407.5 "/>
<text text-anchor="middle" x="61" y="-395.5" font-family="Helvetica,sans-Serif" font-size="10.00"> </text>
<polyline fill="none" stroke="#bfbfbf" points="0,-388.5 122,-388.5 "/>
<text text-anchor="start" x="8" y="-376.5" font-family="Helvetica,sans-Serif" font-size="10.00">+ getDefaultName()</text>
<text text-anchor="start" x="8" y="-365.5" font-family="Helvetica,sans-Serif" font-size="10.00">+ getName()</text>
<text text-anchor="start" x="8" y="-354.5" font-family="Helvetica,sans-Serif" font-size="10.00">+ hasName()</text>
<text text-anchor="start" x="8" y="-343.5" font-family="Helvetica,sans-Serif" font-size="10.00">+ setName()</text>
</a>
</g>
</g>
<!-- Node4&#45;&gt;Node7 -->
<g id="edge8" class="edge">
<title>Node4&#45;&gt;Node7</title>
<path fill="none" stroke="#404040" d="M162.23,-781.07C129.18,-779.09 67.2,-769.94 39,-730 -19.55,-647.07 9.72,-522.76 35.75,-449.07"/>
<polygon fill="none" stroke="#404040" points="35.79,-448.97 34.08,-441.97 39.89,-437.7 41.6,-444.7 35.79,-448.97"/>
<text text-anchor="middle" x="96" y="-705.5" font-family="Helvetica,sans-Serif" font-size="10.00"> +TAG_CUSTOM_NAME</text>
</g>
<!-- Node5&#45;&gt;Node1 -->
<g id="edge4" class="edge">
<title>Node5&#45;&gt;Node1</title>
<path fill="none" stroke="midnightblue" d="M263.8,-512.34C267.04,-489.79 270.41,-462.6 272,-438 274.93,-392.76 276.02,-381.16 272,-336 266.6,-275.28 254.14,-207.41 243.55,-156.75"/>
<polygon fill="none" stroke="midnightblue" points="260.32,-511.94 262.33,-522.35 267.25,-512.96 260.32,-511.94"/>
</g>
<!-- Node6 -->
<g id="node6" class="node">
<title>Node6</title>
<g id="a_node6"><a xlink:href="../../d2/d91/interfacepocketmine_1_1inventory_1_1_inventory_holder.html" target="_top" xlink:title=" ">
<polygon fill="white" stroke="#bfbfbf" points="290.5,-748.5 290.5,-816.5 413.5,-816.5 413.5,-748.5 290.5,-748.5"/>
<text text-anchor="start" x="298.5" y="-804.5" font-family="Helvetica,sans-Serif" font-size="10.00">pocketmine\inventory</text>
<text text-anchor="middle" x="352" y="-793.5" font-family="Helvetica,sans-Serif" font-size="10.00">\InventoryHolder</text>
<polyline fill="none" stroke="#bfbfbf" points="290.5,-786.5 413.5,-786.5 "/>
<text text-anchor="middle" x="352" y="-774.5" font-family="Helvetica,sans-Serif" font-size="10.00"> </text>
<polyline fill="none" stroke="#bfbfbf" points="290.5,-767.5 413.5,-767.5 "/>
<text text-anchor="start" x="298.5" y="-755.5" font-family="Helvetica,sans-Serif" font-size="10.00">+ getInventory()</text>
</a>
</g>
</g>
<!-- Node6&#45;&gt;Node5 -->
<g id="edge5" class="edge">
<title>Node6&#45;&gt;Node5</title>
<path fill="none" stroke="midnightblue" d="M349.73,-738.24C347.81,-721.5 344.32,-702.45 338,-686 337.97,-685.92 305.75,-637.6 281.71,-601.55"/>
<polygon fill="none" stroke="midnightblue" points="346.26,-738.72 350.73,-748.32 353.22,-738.03 346.26,-738.72"/>
</g>
<!-- Node7&#45;&gt;Node1 -->
<g id="edge7" class="edge">
<title>Node7&#45;&gt;Node1</title>
<path fill="none" stroke="midnightblue" d="M82.44,-326.63C99.14,-283.29 124.26,-223.83 153,-175 156.6,-168.88 160.53,-162.71 164.64,-156.6"/>
<polygon fill="none" stroke="midnightblue" points="79.09,-325.59 78.8,-336.18 85.63,-328.08 79.09,-325.59"/>
</g>
</g>
</svg>
