<?xml version="1.0" encoding="UTF-8" standalone="no"?>
<!DOCTYPE svg PUBLIC "-//W3C//DTD SVG 1.1//EN"
 "http://www.w3.org/Graphics/SVG/1.1/DTD/svg11.dtd">
<!-- Generated by graphviz version 2.43.0 (0)
 -->
<!-- Title: pocketmine\block\BaseFire Pages: 1 -->
<svg width="318pt" height="794pt"
 viewBox="0.00 0.00 318.00 794.00" xmlns="http://www.w3.org/2000/svg" xmlns:xlink="http://www.w3.org/1999/xlink">
<g id="graph0" class="graph" transform="scale(1 1) rotate(0) translate(4 790)">
<title>pocketmine\block\BaseFire</title>
<polygon fill="white" stroke="transparent" points="-4,4 -4,-790 314,-790 314,4 -4,4"/>
<!-- Node1 -->
<g id="node1" class="node">
<title>Node1</title>
<g id="a_node1"><a xlink:title=" ">
<polygon fill="#bfbfbf" stroke="black" points="70,-138.5 70,-239.5 240,-239.5 240,-138.5 70,-138.5"/>
<text text-anchor="middle" x="155" y="-227.5" font-family="Helvetica,sans-Serif" font-size="10.00">pocketmine\block\BaseFire</text>
<polyline fill="none" stroke="black" points="70,-220.5 240,-220.5 "/>
<text text-anchor="middle" x="155" y="-208.5" font-family="Helvetica,sans-Serif" font-size="10.00"> </text>
<polyline fill="none" stroke="black" points="70,-201.5 240,-201.5 "/>
<text text-anchor="start" x="78" y="-189.5" font-family="Helvetica,sans-Serif" font-size="10.00">+ canBeReplaced()</text>
<text text-anchor="start" x="78" y="-178.5" font-family="Helvetica,sans-Serif" font-size="10.00">+ getDropsForCompatibleTool()</text>
<text text-anchor="start" x="78" y="-167.5" font-family="Helvetica,sans-Serif" font-size="10.00">+ hasEntityCollision()</text>
<text text-anchor="start" x="78" y="-156.5" font-family="Helvetica,sans-Serif" font-size="10.00">+ onEntityInside()</text>
<text text-anchor="start" x="78" y="-145.5" font-family="Helvetica,sans-Serif" font-size="10.00"># getFireDamage()</text>
</a>
</g>
</g>
<!-- Node5 -->
<g id="node5" class="node">
<title>Node5</title>
<g id="a_node5"><a xlink:href="../../da/d18/classpocketmine_1_1block_1_1_fire.html" target="_top" xlink:title=" ">
<polygon fill="white" stroke="#bfbfbf" points="0,-0.5 0,-101.5 146,-101.5 146,-0.5 0,-0.5"/>
<text text-anchor="middle" x="73" y="-89.5" font-family="Helvetica,sans-Serif" font-size="10.00">pocketmine\block\Fire</text>
<polyline fill="none" stroke="#bfbfbf" points="0,-82.5 146,-82.5 "/>
<text text-anchor="start" x="8" y="-70.5" font-family="Helvetica,sans-Serif" font-size="10.00">+ MAX_AGE</text>
<polyline fill="none" stroke="#bfbfbf" points="0,-63.5 146,-63.5 "/>
<text text-anchor="start" x="8" y="-51.5" font-family="Helvetica,sans-Serif" font-size="10.00">+ onNearbyBlockChange()</text>
<text text-anchor="start" x="8" y="-40.5" font-family="Helvetica,sans-Serif" font-size="10.00">+ onRandomTick()</text>
<text text-anchor="start" x="8" y="-29.5" font-family="Helvetica,sans-Serif" font-size="10.00">+ onScheduledUpdate()</text>
<text text-anchor="start" x="8" y="-18.5" font-family="Helvetica,sans-Serif" font-size="10.00">+ ticksRandomly()</text>
<text text-anchor="start" x="8" y="-7.5" font-family="Helvetica,sans-Serif" font-size="10.00"># getFireDamage()</text>
</a>
</g>
</g>
<!-- Node1&#45;&gt;Node5 -->
<g id="edge4" class="edge">
<title>Node1&#45;&gt;Node5</title>
<path fill="none" stroke="midnightblue" d="M119.68,-129.42C114.14,-120.24 108.47,-110.82 103.06,-101.86"/>
<polygon fill="none" stroke="midnightblue" points="116.77,-131.37 124.93,-138.13 122.77,-127.76 116.77,-131.37"/>
</g>
<!-- Node6 -->
<g id="node6" class="node">
<title>Node6</title>
<g id="a_node6"><a xlink:href="../../d9/d23/classpocketmine_1_1block_1_1_soul_fire.html" target="_top" xlink:title=" ">
<polygon fill="white" stroke="#bfbfbf" points="164,-6 164,-96 310,-96 310,-6 164,-6"/>
<text text-anchor="middle" x="237" y="-84" font-family="Helvetica,sans-Serif" font-size="10.00">pocketmine\block\SoulFire</text>
<polyline fill="none" stroke="#bfbfbf" points="164,-77 310,-77 "/>
<text text-anchor="middle" x="237" y="-65" font-family="Helvetica,sans-Serif" font-size="10.00"> </text>
<polyline fill="none" stroke="#bfbfbf" points="164,-58 310,-58 "/>
<text text-anchor="start" x="172" y="-46" font-family="Helvetica,sans-Serif" font-size="10.00">+ getLightLevel()</text>
<text text-anchor="start" x="172" y="-35" font-family="Helvetica,sans-Serif" font-size="10.00">+ onNearbyBlockChange()</text>
<text text-anchor="start" x="172" y="-24" font-family="Helvetica,sans-Serif" font-size="10.00">+ canBeSupportedBy()</text>
<text text-anchor="start" x="172" y="-13" font-family="Helvetica,sans-Serif" font-size="10.00"># getFireDamage()</text>
</a>
</g>
</g>
<!-- Node1&#45;&gt;Node6 -->
<g id="edge5" class="edge">
<title>Node1&#45;&gt;Node6</title>
<path fill="none" stroke="midnightblue" d="M190.4,-129.28C197.13,-118.12 204.06,-106.63 210.46,-96.02"/>
<polygon fill="none" stroke="midnightblue" points="187.23,-127.76 185.07,-138.13 193.23,-131.37 187.23,-127.76"/>
</g>
<!-- Node2 -->
<g id="node2" class="node">
<title>Node2</title>
<g id="a_node2"><a xlink:href="../../d3/d1e/classpocketmine_1_1block_1_1_flowable.html" target="_top" xlink:title=" ">
<polygon fill="white" stroke="black" points="74.5,-276.5 74.5,-366.5 235.5,-366.5 235.5,-276.5 74.5,-276.5"/>
<text text-anchor="middle" x="155" y="-354.5" font-family="Helvetica,sans-Serif" font-size="10.00">pocketmine\block\Flowable</text>
<polyline fill="none" stroke="black" points="74.5,-347.5 235.5,-347.5 "/>
<text text-anchor="middle" x="155" y="-335.5" font-family="Helvetica,sans-Serif" font-size="10.00"> </text>
<polyline fill="none" stroke="black" points="74.5,-328.5 235.5,-328.5 "/>
<text text-anchor="start" x="82.5" y="-316.5" font-family="Helvetica,sans-Serif" font-size="10.00">+ canBeFlowedInto()</text>
<text text-anchor="start" x="82.5" y="-305.5" font-family="Helvetica,sans-Serif" font-size="10.00">+ getSupportType()</text>
<text text-anchor="start" x="82.5" y="-294.5" font-family="Helvetica,sans-Serif" font-size="10.00">+ isSolid()</text>
<text text-anchor="start" x="82.5" y="-283.5" font-family="Helvetica,sans-Serif" font-size="10.00"># recalculateCollisionBoxes()</text>
</a>
</g>
</g>
<!-- Node2&#45;&gt;Node1 -->
<g id="edge1" class="edge">
<title>Node2&#45;&gt;Node1</title>
<path fill="none" stroke="midnightblue" d="M155,-266.13C155,-257.31 155,-248.22 155,-239.52"/>
<polygon fill="none" stroke="midnightblue" points="151.5,-266.32 155,-276.32 158.5,-266.32 151.5,-266.32"/>
</g>
<!-- Node3 -->
<g id="node3" class="node">
<title>Node3</title>
<g id="a_node3"><a xlink:href="../../d5/d1b/classpocketmine_1_1block_1_1_transparent.html" target="_top" xlink:title=" ">
<polygon fill="white" stroke="black" points="73.5,-403.5 73.5,-460.5 236.5,-460.5 236.5,-403.5 73.5,-403.5"/>
<text text-anchor="middle" x="155" y="-448.5" font-family="Helvetica,sans-Serif" font-size="10.00">pocketmine\block\Transparent</text>
<polyline fill="none" stroke="black" points="73.5,-441.5 236.5,-441.5 "/>
<text text-anchor="middle" x="155" y="-429.5" font-family="Helvetica,sans-Serif" font-size="10.00"> </text>
<polyline fill="none" stroke="black" points="73.5,-422.5 236.5,-422.5 "/>
<text text-anchor="start" x="81.5" y="-410.5" font-family="Helvetica,sans-Serif" font-size="10.00">+ isTransparent()</text>
</a>
</g>
</g>
<!-- Node3&#45;&gt;Node2 -->
<g id="edge2" class="edge">
<title>Node3&#45;&gt;Node2</title>
<path fill="none" stroke="midnightblue" d="M155,-393.21C155,-384.61 155,-375.39 155,-366.55"/>
<polygon fill="none" stroke="midnightblue" points="151.5,-393.34 155,-403.34 158.5,-393.34 151.5,-393.34"/>
</g>
<!-- Node4 -->
<g id="node4" class="node">
<title>Node4</title>
<g id="a_node4"><a xlink:href="../../d7/d27/classpocketmine_1_1block_1_1_block.html" target="_top" xlink:title=" ">
<polygon fill="white" stroke="#bfbfbf" points="67,-497.5 67,-785.5 243,-785.5 243,-497.5 67,-497.5"/>
<text text-anchor="middle" x="155" y="-773.5" font-family="Helvetica,sans-Serif" font-size="10.00">pocketmine\block\Block</text>
<polyline fill="none" stroke="#bfbfbf" points="67,-766.5 243,-766.5 "/>
<text text-anchor="start" x="75" y="-754.5" font-family="Helvetica,sans-Serif" font-size="10.00">+ EMPTY_STATE_ID</text>
<text text-anchor="start" x="75" y="-743.5" font-family="Helvetica,sans-Serif" font-size="10.00">+ INTERNAL_STATE_DATA_BITS</text>
<text text-anchor="start" x="75" y="-732.5" font-family="Helvetica,sans-Serif" font-size="10.00">+ INTERNAL_STATE_DATA_MASK</text>
<text text-anchor="start" x="75" y="-721.5" font-family="Helvetica,sans-Serif" font-size="10.00"># $collisionBoxes</text>
<text text-anchor="start" x="75" y="-710.5" font-family="Helvetica,sans-Serif" font-size="10.00"># $fallbackName</text>
<text text-anchor="start" x="75" y="-699.5" font-family="Helvetica,sans-Serif" font-size="10.00"># $idInfo</text>
<text text-anchor="start" x="75" y="-688.5" font-family="Helvetica,sans-Serif" font-size="10.00"># $position</text>
<text text-anchor="start" x="75" y="-677.5" font-family="Helvetica,sans-Serif" font-size="10.00"># $typeInfo</text>
<polyline fill="none" stroke="#bfbfbf" points="67,-670.5 243,-670.5 "/>
<text text-anchor="start" x="75" y="-658.5" font-family="Helvetica,sans-Serif" font-size="10.00">+ __construct()</text>
<text text-anchor="start" x="75" y="-647.5" font-family="Helvetica,sans-Serif" font-size="10.00">+ __clone()</text>
<text text-anchor="start" x="75" y="-636.5" font-family="Helvetica,sans-Serif" font-size="10.00">+ __toString()</text>
<text text-anchor="start" x="75" y="-625.5" font-family="Helvetica,sans-Serif" font-size="10.00">+ addVelocityToEntity()</text>
<text text-anchor="start" x="75" y="-614.5" font-family="Helvetica,sans-Serif" font-size="10.00">+ asItem()</text>
<text text-anchor="start" x="75" y="-603.5" font-family="Helvetica,sans-Serif" font-size="10.00">+ blocksDirectSkyLight()</text>
<text text-anchor="start" x="75" y="-592.5" font-family="Helvetica,sans-Serif" font-size="10.00">+ burnsForever()</text>
<text text-anchor="start" x="75" y="-581.5" font-family="Helvetica,sans-Serif" font-size="10.00">+ calculateIntercept()</text>
<text text-anchor="start" x="75" y="-570.5" font-family="Helvetica,sans-Serif" font-size="10.00">+ canBeFlowedInto()</text>
<text text-anchor="start" x="75" y="-559.5" font-family="Helvetica,sans-Serif" font-size="10.00">+ canBePlaced()</text>
<text text-anchor="start" x="75" y="-548.5" font-family="Helvetica,sans-Serif" font-size="10.00">and 60 more...</text>
<text text-anchor="start" x="75" y="-537.5" font-family="Helvetica,sans-Serif" font-size="10.00"># describeBlockOnlyState()</text>
<text text-anchor="start" x="75" y="-526.5" font-family="Helvetica,sans-Serif" font-size="10.00"># getAdjacentSupportType()</text>
<text text-anchor="start" x="75" y="-515.5" font-family="Helvetica,sans-Serif" font-size="10.00"># getXpDropAmount()</text>
<text text-anchor="start" x="75" y="-504.5" font-family="Helvetica,sans-Serif" font-size="10.00"># recalculateCollisionBoxes()</text>
</a>
</g>
</g>
<!-- Node4&#45;&gt;Node3 -->
<g id="edge3" class="edge">
<title>Node4&#45;&gt;Node3</title>
<path fill="none" stroke="midnightblue" d="M155,-487.17C155,-477.35 155,-468.31 155,-460.54"/>
<polygon fill="none" stroke="midnightblue" points="151.5,-487.23 155,-497.23 158.5,-487.23 151.5,-487.23"/>
</g>
</g>
</svg>
