<?xml version="1.0" encoding="UTF-8" standalone="no"?>
<!DOCTYPE svg PUBLIC "-//W3C//DTD SVG 1.1//EN"
 "http://www.w3.org/Graphics/SVG/1.1/DTD/svg11.dtd">
<!-- Generated by graphviz version 2.43.0 (0)
 -->
<!-- Title: pocketmine\network\mcpe\protocol\ClientboundMapItemDataPacket Pages: 1 -->
<!--zoomable 628 -->
<svg id="main" version="1.1" xmlns="http://www.w3.org/2000/svg" xmlns:xlink="http://www.w3.org/1999/xlink" xml:space="preserve" onload="init(evt)">
<style type="text/css"><![CDATA[
.edge:hover path { stroke: red; }
.edge:hover polygon { stroke: red; fill: red; }
]]></style>
<script type="text/javascript"><![CDATA[
var edges = document.getElementsByTagName('g');
if (edges && edges.length) {
  for (var i=0;i<edges.length;i++) {
    if (edges[i].id.substr(0,4)=='edge') {
      edges[i].setAttribute('class','edge');
    }
  }
}
]]></script>
        <defs>
                <circle id="rim" cx="0" cy="0" r="7"/>
                <circle id="rim2" cx="0" cy="0" r="3.5"/>
                <g id="zoomPlus">
                        <use xlink:href="#rim" fill="#404040">
                                <set attributeName="fill" to="#808080" begin="zoomplus.mouseover" end="zoomplus.mouseout"/>
                        </use>
                        <path d="M-4,0h8M0,-4v8" fill="none" stroke="white" stroke-width="1.5" pointer-events="none"/>
                </g>
                <g id="zoomMin">
                        <use xlink:href="#rim" fill="#404040">
                                <set attributeName="fill" to="#808080" begin="zoomminus.mouseover" end="zoomminus.mouseout"/>
                        </use>
                        <path d="M-4,0h8" fill="none" stroke="white" stroke-width="1.5" pointer-events="none"/>
                </g>
                <g id="dirArrow">
                        <path fill="none" stroke="white" stroke-width="1.5" d="M0,-3.0v7 M-2.5,-0.5L0,-3.0L2.5,-0.5"/>
                </g>
               <g id="resetDef">
                       <use xlink:href="#rim2" fill="#404040">
                               <set attributeName="fill" to="#808080" begin="reset.mouseover" end="reset.mouseout"/>
                       </use>
               </g>
        </defs>

<script type="text/javascript">
var viewWidth = 643;
var viewHeight = 628;
var sectionId = 'dynsection-1';
</script>
<script xlink:href="../../svgpan.js"/>
<svg id="graph" class="graph">
<g id="viewport">
<title>pocketmine\network\mcpe\protocol\ClientboundMapItemDataPacket</title>
<polygon fill="white" stroke="transparent" points="-4,4 -4,-624 639,-624 639,4 -4,4"/>
<!-- Node1 -->
<g id="node1" class="node">
<title>Node1</title>
<g id="a_node1"><a xlink:title=" ">
<polygon fill="#bfbfbf" stroke="black" points="249,-0.5 249,-200.5 400,-200.5 400,-0.5 249,-0.5"/>
<text text-anchor="start" x="257" y="-188.5" font-family="Helvetica,sans-Serif" font-size="10.00">pocketmine\network</text>
<text text-anchor="start" x="257" y="-177.5" font-family="Helvetica,sans-Serif" font-size="10.00">\mcpe\protocol\Clientbound</text>
<text text-anchor="middle" x="324.5" y="-166.5" font-family="Helvetica,sans-Serif" font-size="10.00">MapItemDataPacket</text>
<polyline fill="none" stroke="black" points="249,-159.5 400,-159.5 "/>
<text text-anchor="start" x="257" y="-147.5" font-family="Helvetica,sans-Serif" font-size="10.00">+ $decorations</text>
<text text-anchor="start" x="257" y="-136.5" font-family="Helvetica,sans-Serif" font-size="10.00">+ $dimensionId</text>
<text text-anchor="start" x="257" y="-125.5" font-family="Helvetica,sans-Serif" font-size="10.00">+ $isLocked</text>
<text text-anchor="start" x="257" y="-114.5" font-family="Helvetica,sans-Serif" font-size="10.00">+ $mapId</text>
<text text-anchor="start" x="257" y="-103.5" font-family="Helvetica,sans-Serif" font-size="10.00">+ $parentMapIds</text>
<text text-anchor="start" x="257" y="-92.5" font-family="Helvetica,sans-Serif" font-size="10.00">+ $scale</text>
<text text-anchor="start" x="257" y="-81.5" font-family="Helvetica,sans-Serif" font-size="10.00">+ $trackedEntities</text>
<text text-anchor="start" x="257" y="-70.5" font-family="Helvetica,sans-Serif" font-size="10.00">+ $type</text>
<text text-anchor="start" x="257" y="-59.5" font-family="Helvetica,sans-Serif" font-size="10.00">+ $xOffset</text>
<text text-anchor="start" x="257" y="-48.5" font-family="Helvetica,sans-Serif" font-size="10.00">+ $yOffset</text>
<polyline fill="none" stroke="black" points="249,-41.5 400,-41.5 "/>
<text text-anchor="start" x="257" y="-29.5" font-family="Helvetica,sans-Serif" font-size="10.00">+ handle()</text>
<text text-anchor="start" x="257" y="-18.5" font-family="Helvetica,sans-Serif" font-size="10.00"># decodePayload()</text>
<text text-anchor="start" x="257" y="-7.5" font-family="Helvetica,sans-Serif" font-size="10.00"># encodePayload()</text>
</a>
</g>
</g>
<!-- Node2 -->
<g id="node2" class="node">
<title>Node2</title>
<g id="a_node2"><a xlink:href="../../d1/ddb/classpocketmine_1_1network_1_1mcpe_1_1protocol_1_1_data_packet.html" target="_top" xlink:title=" ">
<polygon fill="white" stroke="#bfbfbf" points="169,-248.5 169,-437.5 316,-437.5 316,-248.5 169,-248.5"/>
<text text-anchor="start" x="177" y="-425.5" font-family="Helvetica,sans-Serif" font-size="10.00">pocketmine\network</text>
<text text-anchor="middle" x="242.5" y="-414.5" font-family="Helvetica,sans-Serif" font-size="10.00">\mcpe\protocol\DataPacket</text>
<polyline fill="none" stroke="#bfbfbf" points="169,-407.5 316,-407.5 "/>
<text text-anchor="start" x="177" y="-395.5" font-family="Helvetica,sans-Serif" font-size="10.00">+ $recipientSubId</text>
<text text-anchor="start" x="177" y="-384.5" font-family="Helvetica,sans-Serif" font-size="10.00">+ $senderSubId</text>
<polyline fill="none" stroke="#bfbfbf" points="169,-377.5 316,-377.5 "/>
<text text-anchor="start" x="177" y="-365.5" font-family="Helvetica,sans-Serif" font-size="10.00">+ __get()</text>
<text text-anchor="start" x="177" y="-354.5" font-family="Helvetica,sans-Serif" font-size="10.00">+ __set()</text>
<text text-anchor="start" x="177" y="-343.5" font-family="Helvetica,sans-Serif" font-size="10.00">+ canBeSentBeforeLogin()</text>
<text text-anchor="start" x="177" y="-332.5" font-family="Helvetica,sans-Serif" font-size="10.00">+ decode()</text>
<text text-anchor="start" x="177" y="-321.5" font-family="Helvetica,sans-Serif" font-size="10.00">+ encode()</text>
<text text-anchor="start" x="177" y="-310.5" font-family="Helvetica,sans-Serif" font-size="10.00">+ getName()</text>
<text text-anchor="start" x="177" y="-299.5" font-family="Helvetica,sans-Serif" font-size="10.00">+ pid()</text>
<text text-anchor="start" x="177" y="-288.5" font-family="Helvetica,sans-Serif" font-size="10.00"># decodeHeader()</text>
<text text-anchor="start" x="177" y="-277.5" font-family="Helvetica,sans-Serif" font-size="10.00"># decodePayload()</text>
<text text-anchor="start" x="177" y="-266.5" font-family="Helvetica,sans-Serif" font-size="10.00"># encodeHeader()</text>
<text text-anchor="start" x="177" y="-255.5" font-family="Helvetica,sans-Serif" font-size="10.00"># encodePayload()</text>
</a>
</g>
</g>
<!-- Node2&#45;&gt;Node1 -->
<g id="edge1" class="edge">
<title>Node2&#45;&gt;Node1</title>
<path fill="none" stroke="midnightblue" d="M277.69,-238.78C281.98,-226.21 286.35,-213.39 290.62,-200.88"/>
<polygon fill="none" stroke="midnightblue" points="274.35,-237.73 274.44,-248.33 280.98,-239.99 274.35,-237.73"/>
</g>
<!-- Node3 -->
<g id="node3" class="node">
<title>Node3</title>
<g id="a_node3"><a xlink:href="../../d4/d5d/interfacepocketmine_1_1network_1_1mcpe_1_1protocol_1_1_packet.html" target="_top" xlink:title=" ">
<polygon fill="white" stroke="#bfbfbf" points="65.5,-496.5 65.5,-619.5 211.5,-619.5 211.5,-496.5 65.5,-496.5"/>
<text text-anchor="start" x="73.5" y="-607.5" font-family="Helvetica,sans-Serif" font-size="10.00">pocketmine\network</text>
<text text-anchor="middle" x="138.5" y="-596.5" font-family="Helvetica,sans-Serif" font-size="10.00">\mcpe\protocol\Packet</text>
<polyline fill="none" stroke="#bfbfbf" points="65.5,-589.5 211.5,-589.5 "/>
<text text-anchor="middle" x="138.5" y="-577.5" font-family="Helvetica,sans-Serif" font-size="10.00"> </text>
<polyline fill="none" stroke="#bfbfbf" points="65.5,-570.5 211.5,-570.5 "/>
<text text-anchor="start" x="73.5" y="-558.5" font-family="Helvetica,sans-Serif" font-size="10.00">+ canBeSentBeforeLogin()</text>
<text text-anchor="start" x="73.5" y="-547.5" font-family="Helvetica,sans-Serif" font-size="10.00">+ decode()</text>
<text text-anchor="start" x="73.5" y="-536.5" font-family="Helvetica,sans-Serif" font-size="10.00">+ encode()</text>
<text text-anchor="start" x="73.5" y="-525.5" font-family="Helvetica,sans-Serif" font-size="10.00">+ getName()</text>
<text text-anchor="start" x="73.5" y="-514.5" font-family="Helvetica,sans-Serif" font-size="10.00">+ handle()</text>
<text text-anchor="start" x="73.5" y="-503.5" font-family="Helvetica,sans-Serif" font-size="10.00">+ pid()</text>
</a>
</g>
</g>
<!-- Node3&#45;&gt;Node2 -->
<g id="edge2" class="edge">
<title>Node3&#45;&gt;Node2</title>
<path fill="none" stroke="midnightblue" d="M172.62,-487.13C180.31,-471.37 188.6,-454.4 196.68,-437.84"/>
<polygon fill="none" stroke="midnightblue" points="169.41,-485.73 168.16,-496.25 175.7,-488.8 169.41,-485.73"/>
</g>
<!-- Node5 -->
<g id="node5" class="node">
<title>Node5</title>
<g id="a_node5"><a xlink:href="../../da/d77/interfacepocketmine_1_1network_1_1mcpe_1_1protocol_1_1_clientbound_packet.html" target="_top" xlink:title=" ">
<polygon fill="white" stroke="#bfbfbf" points="0,-303.5 0,-382.5 151,-382.5 151,-303.5 0,-303.5"/>
<text text-anchor="start" x="8" y="-370.5" font-family="Helvetica,sans-Serif" font-size="10.00">pocketmine\network</text>
<text text-anchor="start" x="8" y="-359.5" font-family="Helvetica,sans-Serif" font-size="10.00">\mcpe\protocol\Clientbound</text>
<text text-anchor="middle" x="75.5" y="-348.5" font-family="Helvetica,sans-Serif" font-size="10.00">Packet</text>
<polyline fill="none" stroke="#bfbfbf" points="0,-341.5 151,-341.5 "/>
<text text-anchor="middle" x="75.5" y="-329.5" font-family="Helvetica,sans-Serif" font-size="10.00"> </text>
<polyline fill="none" stroke="#bfbfbf" points="0,-322.5 151,-322.5 "/>
<text text-anchor="middle" x="75.5" y="-310.5" font-family="Helvetica,sans-Serif" font-size="10.00"> </text>
</a>
</g>
</g>
<!-- Node3&#45;&gt;Node5 -->
<g id="edge5" class="edge">
<title>Node3&#45;&gt;Node5</title>
<path fill="none" stroke="midnightblue" d="M117.69,-486.65C107.45,-452.03 95.5,-411.62 86.94,-382.67"/>
<polygon fill="none" stroke="midnightblue" points="114.34,-487.65 120.53,-496.25 121.05,-485.67 114.34,-487.65"/>
</g>
<!-- Node4 -->
<g id="node4" class="node">
<title>Node4</title>
<g id="a_node4"><a xlink:title=" ">
<polygon fill="white" stroke="#bfbfbf" points="251,-529.5 251,-586.5 294,-586.5 294,-529.5 251,-529.5"/>
<text text-anchor="middle" x="272.5" y="-574.5" font-family="Helvetica,sans-Serif" font-size="10.00">const</text>
<polyline fill="none" stroke="#bfbfbf" points="251,-567.5 294,-567.5 "/>
<text text-anchor="middle" x="272.5" y="-555.5" font-family="Helvetica,sans-Serif" font-size="10.00"> </text>
<polyline fill="none" stroke="#bfbfbf" points="251,-548.5 294,-548.5 "/>
<text text-anchor="middle" x="272.5" y="-536.5" font-family="Helvetica,sans-Serif" font-size="10.00"> </text>
</a>
</g>
</g>
<!-- Node4&#45;&gt;Node1 -->
<g id="edge6" class="edge">
<title>Node4&#45;&gt;Node1</title>
<path fill="none" stroke="#404040" d="M294.31,-538.76C309.94,-524.16 329.72,-502.19 338.5,-478 369.41,-392.78 362.75,-289.49 350.14,-212.67"/>
<polygon fill="none" stroke="#404040" points="350.1,-212.41 345.14,-207.17 348.07,-200.58 353.03,-205.82 350.1,-212.41"/>
<text text-anchor="start" x="361.5" y="-362.5" font-family="Helvetica,sans-Serif" font-size="10.00"> +BITFLAG_DECORATION</text>
<text text-anchor="middle" x="434" y="-351.5" font-family="Helvetica,sans-Serif" font-size="10.00">_UPDATE</text>
<text text-anchor="middle" x="434" y="-340.5" font-family="Helvetica,sans-Serif" font-size="10.00">+BITFLAG_MAP_CREATION</text>
<text text-anchor="middle" x="434" y="-329.5" font-family="Helvetica,sans-Serif" font-size="10.00">+BITFLAG_TEXTURE_UPDATE</text>
<text text-anchor="middle" x="434" y="-318.5" font-family="Helvetica,sans-Serif" font-size="10.00">+NETWORK_ID</text>
</g>
<!-- Node4&#45;&gt;Node2 -->
<g id="edge3" class="edge">
<title>Node4&#45;&gt;Node2</title>
<path fill="none" stroke="#404040" d="M268.16,-529.23C265.83,-514.1 262.94,-495.03 260.5,-478 259.19,-468.85 257.86,-459.35 256.54,-449.81"/>
<polygon fill="none" stroke="#404040" points="256.52,-449.63 251.74,-444.23 254.88,-437.74 259.66,-443.14 256.52,-449.63"/>
<text text-anchor="middle" x="299.5" y="-470" font-family="Helvetica,sans-Serif" font-size="10.00"> +NETWORK_ID</text>
<text text-anchor="middle" x="299.5" y="-459" font-family="Helvetica,sans-Serif" font-size="10.00">+PID_MASK</text>
</g>
<!-- Node5&#45;&gt;Node1 -->
<g id="edge4" class="edge">
<title>Node5&#45;&gt;Node1</title>
<path fill="none" stroke="midnightblue" d="M115.39,-295.23C129.01,-279.84 144.58,-262.87 159.5,-248 187.72,-219.87 220.24,-190.42 248.91,-165.36"/>
<polygon fill="none" stroke="midnightblue" points="112.43,-293.3 108.45,-303.12 117.68,-297.92 112.43,-293.3"/>
</g>
<!-- Node6 -->
<g id="node6" class="node">
<title>Node6</title>
<g id="a_node6"><a xlink:href="../../d4/da5/classpocketmine_1_1network_1_1mcpe_1_1protocol_1_1types_1_1_map_image.html" target="_top" xlink:title=" ">
<polygon fill="white" stroke="#bfbfbf" points="516,-276 516,-410 635,-410 635,-276 516,-276"/>
<text text-anchor="start" x="524" y="-398" font-family="Helvetica,sans-Serif" font-size="10.00">pocketmine\network</text>
<text text-anchor="start" x="524" y="-387" font-family="Helvetica,sans-Serif" font-size="10.00">\mcpe\protocol\types</text>
<text text-anchor="middle" x="575.5" y="-376" font-family="Helvetica,sans-Serif" font-size="10.00">\MapImage</text>
<polyline fill="none" stroke="#bfbfbf" points="516,-369 635,-369 "/>
<text text-anchor="middle" x="575.5" y="-357" font-family="Helvetica,sans-Serif" font-size="10.00"> </text>
<polyline fill="none" stroke="#bfbfbf" points="516,-350 635,-350 "/>
<text text-anchor="start" x="524" y="-338" font-family="Helvetica,sans-Serif" font-size="10.00">+ __construct()</text>
<text text-anchor="start" x="524" y="-327" font-family="Helvetica,sans-Serif" font-size="10.00">+ encode()</text>
<text text-anchor="start" x="524" y="-316" font-family="Helvetica,sans-Serif" font-size="10.00">+ getHeight()</text>
<text text-anchor="start" x="524" y="-305" font-family="Helvetica,sans-Serif" font-size="10.00">+ getPixels()</text>
<text text-anchor="start" x="524" y="-294" font-family="Helvetica,sans-Serif" font-size="10.00">+ getWidth()</text>
<text text-anchor="start" x="524" y="-283" font-family="Helvetica,sans-Serif" font-size="10.00">+ decode()</text>
</a>
</g>
</g>
<!-- Node6&#45;&gt;Node1 -->
<g id="edge7" class="edge">
<title>Node6&#45;&gt;Node1</title>
<path fill="none" stroke="#404040" d="M526.27,-275.76C518.31,-266.16 509.91,-256.62 501.5,-248 473.47,-219.28 440.13,-190.5 409.99,-166.15"/>
<polygon fill="none" stroke="#404040" points="409.69,-165.91 402.51,-165.28 400.33,-158.41 407.51,-159.04 409.69,-165.91"/>
<text text-anchor="middle" x="503" y="-222" font-family="Helvetica,sans-Serif" font-size="10.00"> +$colors</text>
</g>
</g>
</svg>
        <g id="navigator" transform="translate(0 0)" fill="#404254">
                <rect fill="#f2f5e9" fill-opacity="0.5" stroke="#606060" stroke-width=".5" x="0" y="0" width="60" height="60"/>
                <use id="zoomplus" xlink:href="#zoomPlus" x="17" y="9" onmousedown="handleZoom(evt,'in')"/>
                <use id="zoomminus" xlink:href="#zoomMin" x="42" y="9" onmousedown="handleZoom(evt,'out')"/>
                <use id="reset" xlink:href="#resetDef" x="30" y="36" onmousedown="handleReset()"/>
                <g id="arrowUp" xlink:href="#dirArrow" transform="translate(30 24)" onmousedown="handlePan(0,-1)">
                  <use xlink:href="#rim" fill="#404040">
                        <set attributeName="fill" to="#808080" begin="arrowUp.mouseover" end="arrowUp.mouseout"/>
                  </use>
                  <path fill="none" stroke="white" stroke-width="1.5" d="M0,-3.0v7 M-2.5,-0.5L0,-3.0L2.5,-0.5"/>
                </g>
                <g id="arrowRight" xlink:href="#dirArrow" transform="rotate(90) translate(36 -43)" onmousedown="handlePan(1,0)">
                  <use xlink:href="#rim" fill="#404040">
                        <set attributeName="fill" to="#808080" begin="arrowRight.mouseover" end="arrowRight.mouseout"/>
                  </use>
                  <path fill="none" stroke="white" stroke-width="1.5" d="M0,-3.0v7 M-2.5,-0.5L0,-3.0L2.5,-0.5"/>
                </g>
                <g id="arrowDown" xlink:href="#dirArrow" transform="rotate(180) translate(-30 -48)" onmousedown="handlePan(0,1)">
                  <use xlink:href="#rim" fill="#404040">
                        <set attributeName="fill" to="#808080" begin="arrowDown.mouseover" end="arrowDown.mouseout"/>
                  </use>
                  <path fill="none" stroke="white" stroke-width="1.5" d="M0,-3.0v7 M-2.5,-0.5L0,-3.0L2.5,-0.5"/>
                </g>
                <g id="arrowLeft" xlink:href="#dirArrow" transform="rotate(270) translate(-36 17)" onmousedown="handlePan(-1,0)">
                  <use xlink:href="#rim" fill="#404040">
                        <set attributeName="fill" to="#808080" begin="arrowLeft.mouseover" end="arrowLeft.mouseout"/>
                  </use>
                  <path fill="none" stroke="white" stroke-width="1.5" d="M0,-3.0v7 M-2.5,-0.5L0,-3.0L2.5,-0.5"/>
                </g>
        </g>
        <svg viewBox="0 0 15 15" width="100%" height="30px" preserveAspectRatio="xMaxYMin meet">
         <g id="arrow_out" transform="scale(0.3 0.3)">
          <a xlink:href="classpocketmine_1_1network_1_1mcpe_1_1protocol_1_1_clientbound_map_item_data_packet__coll__graph_org.svg" target="_base">
           <rect id="button" ry="5" rx="5" y="6" x="6" height="38" width="38"
                fill="#f2f5e9" fill-opacity="0.5" stroke="#606060" stroke-width="1.0"/>
           <path id="arrow"
             d="M 11.500037,31.436501 C 11.940474,20.09759 22.043105,11.32322 32.158766,21.979434 L 37.068811,17.246167 C 37.068811,17.246167 37.088388,32 37.088388,32 L 22.160133,31.978069 C 22.160133,31.978069 26.997745,27.140456 26.997745,27.140456 C 18.528582,18.264221 13.291696,25.230495 11.500037,31.436501 z"
             style="fill:#404040;"/>
          </a>
         </g>
        </svg>
</svg>
