<?xml version="1.0" encoding="UTF-8" standalone="no"?>
<!DOCTYPE svg PUBLIC "-//W3C//DTD SVG 1.1//EN"
 "http://www.w3.org/Graphics/SVG/1.1/DTD/svg11.dtd">
<!-- Generated by graphviz version 2.43.0 (0)
 -->
<!-- Title: pocketmine\network\mcpe\protocol\types\recipe\RecipeWithTypeId Pages: 1 -->
<!--zoomable 463 -->

<svg id="main" version="1.1" xmlns="http://www.w3.org/2000/svg" xmlns:xlink="http://www.w3.org/1999/xlink" xml:space="preserve" onload="init(evt)">

<style type="text/css"><![CDATA[
.node, .edge {opacity: 0.7;}
.node.selected, .edge.selected {opacity: 1;}
.edge:hover path { stroke: red; }
.edge:hover polygon { stroke: red; fill: red; }
]]></style>

<defs>
  <circle id="rim" cx="0" cy="0" r="7"/>
  <circle id="rim2" cx="0" cy="0" r="3.5"/>
  <g id="zoomPlus">
    <use xlink:href="#rim" fill="#404040"><set attributeName="fill" to="#808080" begin="zoomplus.mouseover" end="zoomplus.mouseout"/></use>
    <path d="M-4,0h8M0,-4v8" fill="none" stroke="white" stroke-width="1.5" pointer-events="none"/>
  </g>
  <g id="zoomMin">
    <use xlink:href="#rim" fill="#404040"><set attributeName="fill" to="#808080" begin="zoomminus.mouseover" end="zoomminus.mouseout"/></use>
    <path d="M-4,0h8" fill="none" stroke="white" stroke-width="1.5" pointer-events="none"/>
  </g>
  <g id="arrowUp" transform="translate(30 24)">
    <use xlink:href="#rim"/>
    <path pointer-events="none" fill="none" stroke="white" stroke-width="1.5" d="M0,-3.0v7 M-2.5,-0.5L0,-3.0L2.5,-0.5"/>
  </g>
  <g id="arrowRight" transform="rotate(90) translate(36 -43)">
    <use xlink:href="#rim"/>
    <path pointer-events="none" fill="none" stroke="white" stroke-width="1.5" d="M0,-3.0v7 M-2.5,-0.5L0,-3.0L2.5,-0.5"/>
  </g>
  <g id="arrowDown" transform="rotate(180) translate(-30 -48)">
    <use xlink:href="#rim"/>
    <path pointer-events="none" fill="none" stroke="white" stroke-width="1.5" d="M0,-3.0v7 M-2.5,-0.5L0,-3.0L2.5,-0.5"/>
  </g>
  <g id="arrowLeft" transform="rotate(270) translate(-36 17)">
    <use xlink:href="#rim"/>
    <path pointer-events="none" fill="none" stroke="white" stroke-width="1.5" d="M0,-3.0v7 M-2.5,-0.5L0,-3.0L2.5,-0.5"/>
  </g>
  <g id="resetDef">
    <use xlink:href="#rim2" fill="#404040"><set attributeName="fill" to="#808080" begin="reset.mouseover" end="reset.mouseout"/></use>
  </g>
</defs>
<script type="application/ecmascript">
var viewWidth = 913;
var viewHeight = 463;
var sectionId = 'dynsection-0';
</script>
<script type="application/ecmascript" xlink:href="../../svg.min.js"/>
<svg id="graph" class="graph">
<g id="viewport">
<title>pocketmine\network\mcpe\protocol\types\recipe\RecipeWithTypeId</title>
<!-- Node1 -->
<g id="Node000001" class="node">
<title>Node1</title>
<g id="a_Node000001"><a xlink:title=" ">
<polygon fill="#999999" stroke="transparent" points="541,-455 407,-455 407,-354 541,-354 541,-455"/>
<text text-anchor="start" x="412" y="-442.5" font-family="Helvetica,sans-Serif" font-size="10.00">pocketmine\network</text>
<text text-anchor="start" x="412" y="-431.5" font-family="Helvetica,sans-Serif" font-size="10.00">\mcpe\protocol\types</text>
<text text-anchor="start" x="412" y="-420.5" font-family="Helvetica,sans-Serif" font-size="10.00">\recipe\RecipeWithTypeId</text>
<text text-anchor="start" x="472" y="-405.5" font-family="Helvetica,sans-Serif" font-size="10.00"> </text>
<text text-anchor="start" x="423" y="-390.5" font-family="Helvetica,sans-Serif" font-size="10.00">+</text>
<text text-anchor="start" x="448" y="-390.5" font-family="Helvetica,sans-Serif" font-size="10.00">encode()</text>
<text text-anchor="start" x="423" y="-375.5" font-family="Helvetica,sans-Serif" font-size="10.00">+</text>
<text text-anchor="start" x="448" y="-375.5" font-family="Helvetica,sans-Serif" font-size="10.00">getTypeId()</text>
<text text-anchor="start" x="423" y="-360.5" font-family="Helvetica,sans-Serif" font-size="10.00">#</text>
<text text-anchor="start" x="448" y="-360.5" font-family="Helvetica,sans-Serif" font-size="10.00">__construct()</text>
<polygon fill="#666666" stroke="#666666" points="407,-415.5 407,-415.5 541,-415.5 541,-415.5 407,-415.5"/>
<polygon fill="#666666" stroke="#666666" points="407,-400.5 407,-400.5 541,-400.5 541,-400.5 407,-400.5"/>
<polygon fill="none" stroke="#666666" points="407,-354 407,-455 541,-455 541,-354 407,-354"/>
</a>
</g>
</g>
<!-- Node2 -->
<g id="Node000002" class="node">
<title>Node2</title>
<g id="a_Node000002"><a xlink:href="../../d1/da0/classpocketmine_1_1network_1_1mcpe_1_1protocol_1_1types_1_1recipe_1_1_multi_recipe.html" target="_top" xlink:title=" ">
<polygon fill="white" stroke="transparent" points="202,-318 0,-318 0,0 202,0 202,-318"/>
<text text-anchor="start" x="49.5" y="-306" font-family="Helvetica,sans-Serif" font-size="10.00">pocketmine\network</text>
<text text-anchor="start" x="49.5" y="-295" font-family="Helvetica,sans-Serif" font-size="10.00">\mcpe\protocol\types</text>
<text text-anchor="start" x="54" y="-284" font-family="Helvetica,sans-Serif" font-size="10.00">\recipe\MultiRecipe</text>
<text text-anchor="start" x="4" y="-269" font-family="Helvetica,sans-Serif" font-size="10.00">+</text>
<text text-anchor="start" x="17" y="-269" font-family="Helvetica,sans-Serif" font-size="10.00">TYPE_BANNER_ADD_PATTERN</text>
<text text-anchor="start" x="4" y="-254" font-family="Helvetica,sans-Serif" font-size="10.00">+</text>
<text text-anchor="start" x="17" y="-254" font-family="Helvetica,sans-Serif" font-size="10.00">TYPE_BANNER_DUPLICATE</text>
<text text-anchor="start" x="4" y="-239" font-family="Helvetica,sans-Serif" font-size="10.00">+</text>
<text text-anchor="start" x="17" y="-239" font-family="Helvetica,sans-Serif" font-size="10.00">TYPE_BOOK_CLONING</text>
<text text-anchor="start" x="4" y="-224" font-family="Helvetica,sans-Serif" font-size="10.00">+</text>
<text text-anchor="start" x="17" y="-224" font-family="Helvetica,sans-Serif" font-size="10.00">TYPE_FIREWORKS</text>
<text text-anchor="start" x="4" y="-209" font-family="Helvetica,sans-Serif" font-size="10.00">+</text>
<text text-anchor="start" x="17" y="-209" font-family="Helvetica,sans-Serif" font-size="10.00">TYPE_MAP_CLONING</text>
<text text-anchor="start" x="4" y="-194" font-family="Helvetica,sans-Serif" font-size="10.00">+</text>
<text text-anchor="start" x="17" y="-194" font-family="Helvetica,sans-Serif" font-size="10.00">TYPE_MAP_CLONING_CARTOGRAPHY</text>
<text text-anchor="start" x="4" y="-179" font-family="Helvetica,sans-Serif" font-size="10.00">+</text>
<text text-anchor="start" x="17" y="-179" font-family="Helvetica,sans-Serif" font-size="10.00">TYPE_MAP_EXTENDING</text>
<text text-anchor="start" x="4" y="-164" font-family="Helvetica,sans-Serif" font-size="10.00">+</text>
<text text-anchor="start" x="17" y="-164" font-family="Helvetica,sans-Serif" font-size="10.00">TYPE_MAP_EXTENDING</text>
<text text-anchor="start" x="17" y="-153" font-family="Helvetica,sans-Serif" font-size="10.00">_CARTOGRAPHY</text>
<text text-anchor="start" x="4" y="-138" font-family="Helvetica,sans-Serif" font-size="10.00">+</text>
<text text-anchor="start" x="17" y="-138" font-family="Helvetica,sans-Serif" font-size="10.00">TYPE_MAP_LOCKING_CARTOGRAPHY</text>
<text text-anchor="start" x="4" y="-123" font-family="Helvetica,sans-Serif" font-size="10.00">+</text>
<text text-anchor="start" x="17" y="-123" font-family="Helvetica,sans-Serif" font-size="10.00">TYPE_MAP_UPGRADING</text>
<text text-anchor="start" x="4" y="-108" font-family="Helvetica,sans-Serif" font-size="10.00">+</text>
<text text-anchor="start" x="17" y="-108" font-family="Helvetica,sans-Serif" font-size="10.00">TYPE_MAP_UPGRADING</text>
<text text-anchor="start" x="17" y="-97" font-family="Helvetica,sans-Serif" font-size="10.00">_CARTOGRAPHY</text>
<text text-anchor="start" x="4" y="-82" font-family="Helvetica,sans-Serif" font-size="10.00">+</text>
<text text-anchor="start" x="17" y="-82" font-family="Helvetica,sans-Serif" font-size="10.00">TYPE_REPAIR_ITEM</text>
<text text-anchor="start" x="4" y="-67" font-family="Helvetica,sans-Serif" font-size="10.00">+</text>
<text text-anchor="start" x="17" y="-67" font-family="Helvetica,sans-Serif" font-size="10.00">__construct()</text>
<text text-anchor="start" x="4" y="-52" font-family="Helvetica,sans-Serif" font-size="10.00">+</text>
<text text-anchor="start" x="17" y="-52" font-family="Helvetica,sans-Serif" font-size="10.00">encode()</text>
<text text-anchor="start" x="4" y="-37" font-family="Helvetica,sans-Serif" font-size="10.00">+</text>
<text text-anchor="start" x="17" y="-37" font-family="Helvetica,sans-Serif" font-size="10.00">getRecipeId()</text>
<text text-anchor="start" x="4" y="-22" font-family="Helvetica,sans-Serif" font-size="10.00">+</text>
<text text-anchor="start" x="17" y="-22" font-family="Helvetica,sans-Serif" font-size="10.00">getRecipeNetId()</text>
<text text-anchor="start" x="4" y="-7" font-family="Helvetica,sans-Serif" font-size="10.00">+</text>
<text text-anchor="start" x="17" y="-7" font-family="Helvetica,sans-Serif" font-size="10.00">decode()</text>
<polygon fill="#bfbfbf" stroke="#bfbfbf" points="0,-279 0,-279 202,-279 202,-279 0,-279"/>
<polygon fill="#bfbfbf" stroke="#bfbfbf" points="0,-77 0,-77 15,-77 15,-77 0,-77"/>
<polygon fill="#bfbfbf" stroke="#bfbfbf" points="15,-77 15,-77 202,-77 202,-77 15,-77"/>
<polygon fill="none" stroke="#bfbfbf" points="0,0 0,-318 202,-318 202,0 0,0"/>
</a>
</g>
</g>
<!-- Node1&#45;&gt;Node2 -->
<g id="edge1_Node000001_Node000002" class="edge">
<title>Node1&#45;&gt;Node2</title>
<g id="a_edge1_Node000001_Node000002"><a xlink:title=" ">
<path fill="none" stroke="#63b8ff" d="M397.08,-392.02C341.15,-380.63 265.92,-358.76 211,-318 208.05,-315.81 205.15,-313.51 202.3,-311.13"/>
<polygon fill="none" stroke="#63b8ff" points="396.46,-395.46 406.94,-393.95 397.81,-388.59 396.46,-395.46"/>
</a>
</g>
</g>
<!-- Node3 -->
<g id="Node000003" class="node">
<title>Node3</title>
<g id="a_Node000003"><a xlink:href="../../d3/d06/classpocketmine_1_1network_1_1mcpe_1_1protocol_1_1types_1_1recipe_1_1_shaped_recipe.html" target="_top" xlink:title=" ">
<polygon fill="white" stroke="transparent" points="377.5,-292 220.5,-292 220.5,-26 377.5,-26 377.5,-292"/>
<text text-anchor="start" x="246.5" y="-280" font-family="Helvetica,sans-Serif" font-size="10.00">pocketmine\network</text>
<text text-anchor="start" x="246.5" y="-269" font-family="Helvetica,sans-Serif" font-size="10.00">\mcpe\protocol\types</text>
<text text-anchor="start" x="246.5" y="-258" font-family="Helvetica,sans-Serif" font-size="10.00">\recipe\ShapedRecipe</text>
<text text-anchor="start" x="297.5" y="-243" font-family="Helvetica,sans-Serif" font-size="10.00"> </text>
<text text-anchor="start" x="225" y="-228" font-family="Helvetica,sans-Serif" font-size="10.00">+</text>
<text text-anchor="start" x="238" y="-228" font-family="Helvetica,sans-Serif" font-size="10.00">__construct()</text>
<text text-anchor="start" x="225" y="-213" font-family="Helvetica,sans-Serif" font-size="10.00">+</text>
<text text-anchor="start" x="238" y="-213" font-family="Helvetica,sans-Serif" font-size="10.00">encode()</text>
<text text-anchor="start" x="225" y="-198" font-family="Helvetica,sans-Serif" font-size="10.00">+</text>
<text text-anchor="start" x="238" y="-198" font-family="Helvetica,sans-Serif" font-size="10.00">getBlockName()</text>
<text text-anchor="start" x="225" y="-183" font-family="Helvetica,sans-Serif" font-size="10.00">+</text>
<text text-anchor="start" x="238" y="-183" font-family="Helvetica,sans-Serif" font-size="10.00">getHeight()</text>
<text text-anchor="start" x="225" y="-168" font-family="Helvetica,sans-Serif" font-size="10.00">+</text>
<text text-anchor="start" x="238" y="-168" font-family="Helvetica,sans-Serif" font-size="10.00">getInput()</text>
<text text-anchor="start" x="225" y="-153" font-family="Helvetica,sans-Serif" font-size="10.00">+</text>
<text text-anchor="start" x="238" y="-153" font-family="Helvetica,sans-Serif" font-size="10.00">getOutput()</text>
<text text-anchor="start" x="225" y="-138" font-family="Helvetica,sans-Serif" font-size="10.00">+</text>
<text text-anchor="start" x="238" y="-138" font-family="Helvetica,sans-Serif" font-size="10.00">getPriority()</text>
<text text-anchor="start" x="225" y="-123" font-family="Helvetica,sans-Serif" font-size="10.00">+</text>
<text text-anchor="start" x="238" y="-123" font-family="Helvetica,sans-Serif" font-size="10.00">getRecipeId()</text>
<text text-anchor="start" x="225" y="-108" font-family="Helvetica,sans-Serif" font-size="10.00">+</text>
<text text-anchor="start" x="238" y="-108" font-family="Helvetica,sans-Serif" font-size="10.00">getRecipeNetId()</text>
<text text-anchor="start" x="225" y="-93" font-family="Helvetica,sans-Serif" font-size="10.00">+</text>
<text text-anchor="start" x="238" y="-93" font-family="Helvetica,sans-Serif" font-size="10.00">getUnlockingRequirement()</text>
<text text-anchor="start" x="225" y="-78" font-family="Helvetica,sans-Serif" font-size="10.00">+</text>
<text text-anchor="start" x="238" y="-78" font-family="Helvetica,sans-Serif" font-size="10.00">getUuid()</text>
<text text-anchor="start" x="225" y="-63" font-family="Helvetica,sans-Serif" font-size="10.00">+</text>
<text text-anchor="start" x="238" y="-63" font-family="Helvetica,sans-Serif" font-size="10.00">getWidth()</text>
<text text-anchor="start" x="225" y="-48" font-family="Helvetica,sans-Serif" font-size="10.00">+</text>
<text text-anchor="start" x="238" y="-48" font-family="Helvetica,sans-Serif" font-size="10.00">isSymmetric()</text>
<text text-anchor="start" x="225" y="-33" font-family="Helvetica,sans-Serif" font-size="10.00">+</text>
<text text-anchor="start" x="238" y="-33" font-family="Helvetica,sans-Serif" font-size="10.00">decode()</text>
<polygon fill="#bfbfbf" stroke="#bfbfbf" points="221,-253 221,-253 378,-253 378,-253 221,-253"/>
<polygon fill="#bfbfbf" stroke="#bfbfbf" points="221,-238 221,-238 378,-238 378,-238 221,-238"/>
<polygon fill="none" stroke="#bfbfbf" points="220.5,-26 220.5,-292 377.5,-292 377.5,-26 220.5,-26"/>
</a>
</g>
</g>
<!-- Node1&#45;&gt;Node3 -->
<g id="edge2_Node000001_Node000003" class="edge">
<title>Node1&#45;&gt;Node3</title>
<g id="a_edge2_Node000001_Node000003"><a xlink:title=" ">
<path fill="none" stroke="#63b8ff" d="M410.77,-346.62C401.99,-337.45 393.44,-327.76 386,-318 379.73,-309.78 373.64,-301.06 367.77,-292.1"/>
<polygon fill="none" stroke="#63b8ff" points="408.35,-349.15 417.84,-353.85 413.35,-344.25 408.35,-349.15"/>
</a>
</g>
</g>
<!-- Node4 -->
<g id="Node000004" class="node">
<title>Node4</title>
<g id="a_Node000004"><a xlink:href="../../da/d6d/classpocketmine_1_1network_1_1mcpe_1_1protocol_1_1types_1_1recipe_1_1_shapeless_recipe.html" target="_top" xlink:title=" ">
<polygon fill="white" stroke="transparent" points="552.5,-269.5 395.5,-269.5 395.5,-48.5 552.5,-48.5 552.5,-269.5"/>
<text text-anchor="start" x="415" y="-257" font-family="Helvetica,sans-Serif" font-size="10.00">pocketmine\network</text>
<text text-anchor="start" x="415" y="-246" font-family="Helvetica,sans-Serif" font-size="10.00">\mcpe\protocol\types</text>
<text text-anchor="start" x="415" y="-235" font-family="Helvetica,sans-Serif" font-size="10.00">\recipe\ShapelessRecipe</text>
<text text-anchor="start" x="472.5" y="-220" font-family="Helvetica,sans-Serif" font-size="10.00"> </text>
<text text-anchor="start" x="400" y="-205" font-family="Helvetica,sans-Serif" font-size="10.00">+</text>
<text text-anchor="start" x="413" y="-205" font-family="Helvetica,sans-Serif" font-size="10.00">__construct()</text>
<text text-anchor="start" x="400" y="-190" font-family="Helvetica,sans-Serif" font-size="10.00">+</text>
<text text-anchor="start" x="413" y="-190" font-family="Helvetica,sans-Serif" font-size="10.00">encode()</text>
<text text-anchor="start" x="400" y="-175" font-family="Helvetica,sans-Serif" font-size="10.00">+</text>
<text text-anchor="start" x="413" y="-175" font-family="Helvetica,sans-Serif" font-size="10.00">getBlockName()</text>
<text text-anchor="start" x="400" y="-160" font-family="Helvetica,sans-Serif" font-size="10.00">+</text>
<text text-anchor="start" x="413" y="-160" font-family="Helvetica,sans-Serif" font-size="10.00">getInputs()</text>
<text text-anchor="start" x="400" y="-145" font-family="Helvetica,sans-Serif" font-size="10.00">+</text>
<text text-anchor="start" x="413" y="-145" font-family="Helvetica,sans-Serif" font-size="10.00">getOutputs()</text>
<text text-anchor="start" x="400" y="-130" font-family="Helvetica,sans-Serif" font-size="10.00">+</text>
<text text-anchor="start" x="413" y="-130" font-family="Helvetica,sans-Serif" font-size="10.00">getPriority()</text>
<text text-anchor="start" x="400" y="-115" font-family="Helvetica,sans-Serif" font-size="10.00">+</text>
<text text-anchor="start" x="413" y="-115" font-family="Helvetica,sans-Serif" font-size="10.00">getRecipeId()</text>
<text text-anchor="start" x="400" y="-100" font-family="Helvetica,sans-Serif" font-size="10.00">+</text>
<text text-anchor="start" x="413" y="-100" font-family="Helvetica,sans-Serif" font-size="10.00">getRecipeNetId()</text>
<text text-anchor="start" x="400" y="-85" font-family="Helvetica,sans-Serif" font-size="10.00">+</text>
<text text-anchor="start" x="413" y="-85" font-family="Helvetica,sans-Serif" font-size="10.00">getUnlockingRequirement()</text>
<text text-anchor="start" x="400" y="-70" font-family="Helvetica,sans-Serif" font-size="10.00">+</text>
<text text-anchor="start" x="413" y="-70" font-family="Helvetica,sans-Serif" font-size="10.00">getUuid()</text>
<text text-anchor="start" x="400" y="-55" font-family="Helvetica,sans-Serif" font-size="10.00">+</text>
<text text-anchor="start" x="413" y="-55" font-family="Helvetica,sans-Serif" font-size="10.00">decode()</text>
<polygon fill="#bfbfbf" stroke="#bfbfbf" points="396,-230 396,-230 553,-230 553,-230 396,-230"/>
<polygon fill="#bfbfbf" stroke="#bfbfbf" points="396,-215 396,-215 553,-215 553,-215 396,-215"/>
<polygon fill="none" stroke="#bfbfbf" points="395.5,-48.5 395.5,-269.5 552.5,-269.5 552.5,-48.5 395.5,-48.5"/>
</a>
</g>
</g>
<!-- Node1&#45;&gt;Node4 -->
<g id="edge3_Node000001_Node000004" class="edge">
<title>Node1&#45;&gt;Node4</title>
<g id="a_edge3_Node000001_Node000004"><a xlink:title=" ">
<path fill="none" stroke="#63b8ff" d="M474,-343.9C474,-321.45 474,-295.15 474,-269.57"/>
<polygon fill="none" stroke="#63b8ff" points="470.5,-343.93 474,-353.93 477.5,-343.93 470.5,-343.93"/>
</a>
</g>
</g>
<!-- Node5 -->
<g id="Node000005" class="node">
<title>Node5</title>
<g id="a_Node000005"><a xlink:href="../../de/dae/classpocketmine_1_1network_1_1mcpe_1_1protocol_1_1types_1_1recipe_1_1_smithing_transform_recipe.html" target="_top" xlink:title=" ">
<polygon fill="white" stroke="transparent" points="743,-262 571,-262 571,-56 743,-56 743,-262"/>
<text text-anchor="start" x="576" y="-250" font-family="Helvetica,sans-Serif" font-size="10.00">pocketmine\network</text>
<text text-anchor="start" x="576" y="-239" font-family="Helvetica,sans-Serif" font-size="10.00">\mcpe\protocol\types</text>
<text text-anchor="start" x="576" y="-228" font-family="Helvetica,sans-Serif" font-size="10.00">\recipe\SmithingTransformRecipe</text>
<text text-anchor="start" x="655" y="-213" font-family="Helvetica,sans-Serif" font-size="10.00"> </text>
<text text-anchor="start" x="592" y="-198" font-family="Helvetica,sans-Serif" font-size="10.00">+</text>
<text text-anchor="start" x="622" y="-198" font-family="Helvetica,sans-Serif" font-size="10.00">__construct()</text>
<text text-anchor="start" x="592" y="-183" font-family="Helvetica,sans-Serif" font-size="10.00">+</text>
<text text-anchor="start" x="622" y="-183" font-family="Helvetica,sans-Serif" font-size="10.00">encode()</text>
<text text-anchor="start" x="592" y="-168" font-family="Helvetica,sans-Serif" font-size="10.00">+</text>
<text text-anchor="start" x="622" y="-168" font-family="Helvetica,sans-Serif" font-size="10.00">getAddition()</text>
<text text-anchor="start" x="592" y="-153" font-family="Helvetica,sans-Serif" font-size="10.00">+</text>
<text text-anchor="start" x="622" y="-153" font-family="Helvetica,sans-Serif" font-size="10.00">getBlockName()</text>
<text text-anchor="start" x="592" y="-138" font-family="Helvetica,sans-Serif" font-size="10.00">+</text>
<text text-anchor="start" x="622" y="-138" font-family="Helvetica,sans-Serif" font-size="10.00">getInput()</text>
<text text-anchor="start" x="592" y="-123" font-family="Helvetica,sans-Serif" font-size="10.00">+</text>
<text text-anchor="start" x="622" y="-123" font-family="Helvetica,sans-Serif" font-size="10.00">getOutput()</text>
<text text-anchor="start" x="592" y="-108" font-family="Helvetica,sans-Serif" font-size="10.00">+</text>
<text text-anchor="start" x="622" y="-108" font-family="Helvetica,sans-Serif" font-size="10.00">getRecipeId()</text>
<text text-anchor="start" x="592" y="-93" font-family="Helvetica,sans-Serif" font-size="10.00">+</text>
<text text-anchor="start" x="622" y="-93" font-family="Helvetica,sans-Serif" font-size="10.00">getRecipeNetId()</text>
<text text-anchor="start" x="592" y="-78" font-family="Helvetica,sans-Serif" font-size="10.00">+</text>
<text text-anchor="start" x="622" y="-78" font-family="Helvetica,sans-Serif" font-size="10.00">getTemplate()</text>
<text text-anchor="start" x="592" y="-63" font-family="Helvetica,sans-Serif" font-size="10.00">+</text>
<text text-anchor="start" x="622" y="-63" font-family="Helvetica,sans-Serif" font-size="10.00">decode()</text>
<polygon fill="#bfbfbf" stroke="#bfbfbf" points="571,-223 571,-223 743,-223 743,-223 571,-223"/>
<polygon fill="#bfbfbf" stroke="#bfbfbf" points="571,-208 571,-208 743,-208 743,-208 571,-208"/>
<polygon fill="none" stroke="#bfbfbf" points="571,-56 571,-262 743,-262 743,-56 571,-56"/>
</a>
</g>
</g>
<!-- Node1&#45;&gt;Node5 -->
<g id="edge4_Node000001_Node000005" class="edge">
<title>Node1&#45;&gt;Node5</title>
<g id="a_edge4_Node000001_Node000005"><a xlink:title=" ">
<path fill="none" stroke="#63b8ff" d="M536.9,-346.36C545.73,-337.23 554.38,-327.61 562,-318 575.72,-300.7 588.95,-281.24 600.95,-262.06"/>
<polygon fill="none" stroke="#63b8ff" points="534.32,-343.99 529.8,-353.57 539.31,-348.9 534.32,-343.99"/>
</a>
</g>
</g>
<!-- Node6 -->
<g id="Node000006" class="node">
<title>Node6</title>
<g id="a_Node000006"><a xlink:href="../../d3/d1c/classpocketmine_1_1network_1_1mcpe_1_1protocol_1_1types_1_1recipe_1_1_smithing_trim_recipe.html" target="_top" xlink:title=" ">
<polygon fill="white" stroke="transparent" points="905,-254.5 761,-254.5 761,-63.5 905,-63.5 905,-254.5"/>
<text text-anchor="start" x="766" y="-242" font-family="Helvetica,sans-Serif" font-size="10.00">pocketmine\network</text>
<text text-anchor="start" x="766" y="-231" font-family="Helvetica,sans-Serif" font-size="10.00">\mcpe\protocol\types</text>
<text text-anchor="start" x="766" y="-220" font-family="Helvetica,sans-Serif" font-size="10.00">\recipe\SmithingTrimRecipe</text>
<text text-anchor="start" x="831" y="-205" font-family="Helvetica,sans-Serif" font-size="10.00"> </text>
<text text-anchor="start" x="775" y="-190" font-family="Helvetica,sans-Serif" font-size="10.00">+</text>
<text text-anchor="start" x="798" y="-190" font-family="Helvetica,sans-Serif" font-size="10.00">__construct()</text>
<text text-anchor="start" x="775" y="-175" font-family="Helvetica,sans-Serif" font-size="10.00">+</text>
<text text-anchor="start" x="798" y="-175" font-family="Helvetica,sans-Serif" font-size="10.00">encode()</text>
<text text-anchor="start" x="775" y="-160" font-family="Helvetica,sans-Serif" font-size="10.00">+</text>
<text text-anchor="start" x="798" y="-160" font-family="Helvetica,sans-Serif" font-size="10.00">getAddition()</text>
<text text-anchor="start" x="775" y="-145" font-family="Helvetica,sans-Serif" font-size="10.00">+</text>
<text text-anchor="start" x="798" y="-145" font-family="Helvetica,sans-Serif" font-size="10.00">getBlockName()</text>
<text text-anchor="start" x="775" y="-130" font-family="Helvetica,sans-Serif" font-size="10.00">+</text>
<text text-anchor="start" x="798" y="-130" font-family="Helvetica,sans-Serif" font-size="10.00">getInput()</text>
<text text-anchor="start" x="775" y="-115" font-family="Helvetica,sans-Serif" font-size="10.00">+</text>
<text text-anchor="start" x="798" y="-115" font-family="Helvetica,sans-Serif" font-size="10.00">getRecipeId()</text>
<text text-anchor="start" x="775" y="-100" font-family="Helvetica,sans-Serif" font-size="10.00">+</text>
<text text-anchor="start" x="798" y="-100" font-family="Helvetica,sans-Serif" font-size="10.00">getRecipeNetId()</text>
<text text-anchor="start" x="775" y="-85" font-family="Helvetica,sans-Serif" font-size="10.00">+</text>
<text text-anchor="start" x="798" y="-85" font-family="Helvetica,sans-Serif" font-size="10.00">getTemplate()</text>
<text text-anchor="start" x="775" y="-70" font-family="Helvetica,sans-Serif" font-size="10.00">+</text>
<text text-anchor="start" x="798" y="-70" font-family="Helvetica,sans-Serif" font-size="10.00">decode()</text>
<polygon fill="#bfbfbf" stroke="#bfbfbf" points="761,-215 761,-215 905,-215 905,-215 761,-215"/>
<polygon fill="#bfbfbf" stroke="#bfbfbf" points="761,-200 761,-200 905,-200 905,-200 761,-200"/>
<polygon fill="none" stroke="#bfbfbf" points="761,-63.5 761,-254.5 905,-254.5 905,-63.5 761,-63.5"/>
</a>
</g>
</g>
<!-- Node1&#45;&gt;Node6 -->
<g id="edge5_Node000001_Node000006" class="edge">
<title>Node1&#45;&gt;Node6</title>
<g id="a_edge5_Node000001_Node000006"><a xlink:title=" ">
<path fill="none" stroke="#63b8ff" d="M550.97,-396.19C611.56,-386.89 695,-365.79 752,-318 772.08,-301.17 787.75,-278.09 799.74,-254.78"/>
<polygon fill="none" stroke="#63b8ff" points="550.46,-392.73 541.07,-397.64 551.48,-399.66 550.46,-392.73"/>
</a>
</g>
</g>
</g>
</svg>

<g id="navigator" transform="translate(0 0)" fill="#404254">
  <rect fill="#f2f5e9" fill-opacity="0.5" stroke="#606060" stroke-width=".5" x="0" y="0" width="60" height="60"/>
  <use id="zoomplus" xlink:href="#zoomPlus" x="17" y="9" onmousedown="handleZoom(evt,'in')"/>
  <use id="zoomminus" xlink:href="#zoomMin" x="42" y="9" onmousedown="handleZoom(evt,'out')"/>
  <use id="reset" xlink:href="#resetDef" x="30" y="36" onmousedown="handleReset()"/>
   <use id="arrowup" xlink:href="#arrowUp" x="0" y="0" onmousedown="handlePan(0,-1)"/>
  <use id="arrowright" xlink:href="#arrowRight" x="0" y="0" onmousedown="handlePan(1,0)"/>
  <use id="arrowdown" xlink:href="#arrowDown" x="0" y="0" onmousedown="handlePan(0,1)"/>
  <use id="arrowleft" xlink:href="#arrowLeft" x="0" y="0" onmousedown="handlePan(-1,0)"/>
</g>
<svg viewBox="0 0 15 15" width="100%" height="30px" preserveAspectRatio="xMaxYMin meet">
 <g id="arrow_out" transform="scale(0.3 0.3)">
  <a xlink:href="classpocketmine_1_1network_1_1mcpe_1_1protocol_1_1types_1_1recipe_1_1_recipe_with_type_id__inherit__graph_org.svg" target="_base">
   <rect id="button" ry="5" rx="5" y="6" x="6" height="38" width="38"
        fill="#f2f5e9" fill-opacity="0.5" stroke="#606060" stroke-width="1.0"/>
   <path id="arrow"
     d="M 11.500037,31.436501 C 11.940474,20.09759 22.043105,11.32322 32.158766,21.979434 L 37.068811,17.246167 C 37.068811,17.246167 37.088388,32 37.088388,32 L 22.160133,31.978069 C 22.160133,31.978069 26.997745,27.140456 26.997745,27.140456 C 18.528582,18.264221 13.291696,25.230495 11.500037,31.436501 z"
     style="fill:#404040;"/>
  </a>
 </g>
</svg>

<style type='text/css'>
<![CDATA[
[data-mouse-over-selected='false'] { opacity: 0.7; }
[data-mouse-over-selected='true']  { opacity: 1.0; }
]]>
</style>
<script type="application/ecmascript"><![CDATA[
document.addEventListener('DOMContentLoaded', (event) => {
  highlightEdges();
  highlightAdjacentNodes();
});
]]></script>
</svg>
