<?xml version="1.0" encoding="UTF-8" standalone="no"?>
<!DOCTYPE svg PUBLIC "-//W3C//DTD SVG 1.1//EN"
 "http://www.w3.org/Graphics/SVG/1.1/DTD/svg11.dtd">
<!-- Generated by graphviz version 2.43.0 (0)
 -->
<!-- Title: pocketmine\command\defaults\SetWorldSpawnCommand Pages: 1 -->
<svg width="196pt" height="485pt"
 viewBox="0.00 0.00 196.00 485.00" xmlns="http://www.w3.org/2000/svg" xmlns:xlink="http://www.w3.org/1999/xlink">
<g id="graph0" class="graph" transform="scale(1 1) rotate(0) translate(4 481)">
<title>pocketmine\command\defaults\SetWorldSpawnCommand</title>
<polygon fill="white" stroke="transparent" points="-4,4 -4,-481 192,-481 192,4 -4,4"/>
<!-- Node1 -->
<g id="node1" class="node">
<title>Node1</title>
<g id="a_node1"><a xlink:title=" ">
<polygon fill="#bfbfbf" stroke="black" points="0,-0.5 0,-79.5 188,-79.5 188,-0.5 0,-0.5"/>
<text text-anchor="start" x="8" y="-67.5" font-family="Helvetica,sans-Serif" font-size="10.00">pocketmine\command</text>
<text text-anchor="middle" x="94" y="-56.5" font-family="Helvetica,sans-Serif" font-size="10.00">\defaults\SetWorldSpawnCommand</text>
<polyline fill="none" stroke="black" points="0,-49.5 188,-49.5 "/>
<text text-anchor="middle" x="94" y="-37.5" font-family="Helvetica,sans-Serif" font-size="10.00"> </text>
<polyline fill="none" stroke="black" points="0,-30.5 188,-30.5 "/>
<text text-anchor="start" x="8" y="-18.5" font-family="Helvetica,sans-Serif" font-size="10.00">+ __construct()</text>
<text text-anchor="start" x="8" y="-7.5" font-family="Helvetica,sans-Serif" font-size="10.00">+ execute()</text>
</a>
</g>
</g>
<!-- Node2 -->
<g id="node2" class="node">
<title>Node2</title>
<g id="a_node2"><a xlink:href="../../d5/dfa/classpocketmine_1_1command_1_1defaults_1_1_vanilla_command.html" target="_top" xlink:title=" ">
<polygon fill="white" stroke="#bfbfbf" points="9.5,-116.5 9.5,-239.5 178.5,-239.5 178.5,-116.5 9.5,-116.5"/>
<text text-anchor="start" x="17.5" y="-227.5" font-family="Helvetica,sans-Serif" font-size="10.00">pocketmine\command</text>
<text text-anchor="middle" x="94" y="-216.5" font-family="Helvetica,sans-Serif" font-size="10.00">\defaults\VanillaCommand</text>
<polyline fill="none" stroke="#bfbfbf" points="9.5,-209.5 178.5,-209.5 "/>
<text text-anchor="start" x="17.5" y="-197.5" font-family="Helvetica,sans-Serif" font-size="10.00">+ MAX_COORD</text>
<text text-anchor="start" x="17.5" y="-186.5" font-family="Helvetica,sans-Serif" font-size="10.00">+ MIN_COORD</text>
<polyline fill="none" stroke="#bfbfbf" points="9.5,-179.5 178.5,-179.5 "/>
<text text-anchor="start" x="17.5" y="-167.5" font-family="Helvetica,sans-Serif" font-size="10.00"># fetchPermittedPlayerTarget()</text>
<text text-anchor="start" x="17.5" y="-156.5" font-family="Helvetica,sans-Serif" font-size="10.00"># getBoundedInt()</text>
<text text-anchor="start" x="17.5" y="-145.5" font-family="Helvetica,sans-Serif" font-size="10.00"># getDouble()</text>
<text text-anchor="start" x="17.5" y="-134.5" font-family="Helvetica,sans-Serif" font-size="10.00"># getInteger()</text>
<text text-anchor="start" x="17.5" y="-123.5" font-family="Helvetica,sans-Serif" font-size="10.00"># getRelativeDouble()</text>
</a>
</g>
</g>
<!-- Node2&#45;&gt;Node1 -->
<g id="edge1" class="edge">
<title>Node2&#45;&gt;Node1</title>
<path fill="none" stroke="midnightblue" d="M94,-105.91C94,-96.83 94,-87.82 94,-79.54"/>
<polygon fill="none" stroke="midnightblue" points="90.5,-106.16 94,-116.16 97.5,-106.16 90.5,-106.16"/>
</g>
<!-- Node3 -->
<g id="node3" class="node">
<title>Node3</title>
<g id="a_node3"><a xlink:href="../../d6/df1/classpocketmine_1_1command_1_1_command.html" target="_top" xlink:title=" ">
<polygon fill="white" stroke="#bfbfbf" points="5.5,-276.5 5.5,-476.5 182.5,-476.5 182.5,-276.5 5.5,-276.5"/>
<text text-anchor="start" x="13.5" y="-464.5" font-family="Helvetica,sans-Serif" font-size="10.00">pocketmine\command</text>
<text text-anchor="middle" x="94" y="-453.5" font-family="Helvetica,sans-Serif" font-size="10.00">\Command</text>
<polyline fill="none" stroke="#bfbfbf" points="5.5,-446.5 182.5,-446.5 "/>
<text text-anchor="start" x="13.5" y="-434.5" font-family="Helvetica,sans-Serif" font-size="10.00"># $description</text>
<text text-anchor="start" x="13.5" y="-423.5" font-family="Helvetica,sans-Serif" font-size="10.00"># $usageMessage</text>
<polyline fill="none" stroke="#bfbfbf" points="5.5,-416.5 182.5,-416.5 "/>
<text text-anchor="start" x="13.5" y="-404.5" font-family="Helvetica,sans-Serif" font-size="10.00">+ __construct()</text>
<text text-anchor="start" x="13.5" y="-393.5" font-family="Helvetica,sans-Serif" font-size="10.00">+ __toString()</text>
<text text-anchor="start" x="13.5" y="-382.5" font-family="Helvetica,sans-Serif" font-size="10.00">+ execute()</text>
<text text-anchor="start" x="13.5" y="-371.5" font-family="Helvetica,sans-Serif" font-size="10.00">+ getAliases()</text>
<text text-anchor="start" x="13.5" y="-360.5" font-family="Helvetica,sans-Serif" font-size="10.00">+ getDescription()</text>
<text text-anchor="start" x="13.5" y="-349.5" font-family="Helvetica,sans-Serif" font-size="10.00">+ getLabel()</text>
<text text-anchor="start" x="13.5" y="-338.5" font-family="Helvetica,sans-Serif" font-size="10.00">+ getName()</text>
<text text-anchor="start" x="13.5" y="-327.5" font-family="Helvetica,sans-Serif" font-size="10.00">+ getPermissionMessage()</text>
<text text-anchor="start" x="13.5" y="-316.5" font-family="Helvetica,sans-Serif" font-size="10.00">+ getPermissions()</text>
<text text-anchor="start" x="13.5" y="-305.5" font-family="Helvetica,sans-Serif" font-size="10.00">+ getUsage()</text>
<text text-anchor="start" x="13.5" y="-294.5" font-family="Helvetica,sans-Serif" font-size="10.00">and 12 more...</text>
<text text-anchor="start" x="13.5" y="-283.5" font-family="Helvetica,sans-Serif" font-size="10.00">+ broadcastCommandMessage()</text>
</a>
</g>
</g>
<!-- Node3&#45;&gt;Node2 -->
<g id="edge2" class="edge">
<title>Node3&#45;&gt;Node2</title>
<path fill="none" stroke="midnightblue" d="M94,-266.16C94,-257.13 94,-248.23 94,-239.77"/>
<polygon fill="none" stroke="midnightblue" points="90.5,-266.39 94,-276.39 97.5,-266.39 90.5,-266.39"/>
</g>
</g>
</svg>
