<?xml version="1.0" encoding="UTF-8" standalone="no"?>
<!DOCTYPE svg PUBLIC "-//W3C//DTD SVG 1.1//EN"
 "http://www.w3.org/Graphics/SVG/1.1/DTD/svg11.dtd">
<!-- Generated by graphviz version 2.43.0 (0)
 -->
<!-- Title: pocketmine\network\mcpe\protocol\types\DataStore Pages: 1 -->
<svg width="401pt" height="336pt"
 viewBox="0.00 0.00 400.50 336.00" xmlns="http://www.w3.org/2000/svg" xmlns:xlink="http://www.w3.org/1999/xlink">

<svg id="main" version="1.1" xmlns="http://www.w3.org/2000/svg" xmlns:xlink="http://www.w3.org/1999/xlink" xml:space="preserve">

<style type="text/css"><![CDATA[
.node, .edge {opacity: 0.7;}
.node.selected, .edge.selected {opacity: 1;}
.edge:hover path { stroke: red; }
.edge:hover polygon { stroke: red; fill: red; }
]]></style>
<script type="application/ecmascript" xlink:href="../../svg.min.js"/>
<svg id="graph" class="graph">
<g id="graph0" class="graph" transform="scale(1 1) rotate(0) translate(4 332)">
<title>pocketmine\network\mcpe\protocol\types\DataStore</title>
<!-- Node1 -->
<g id="Node000001" class="node">
<title>Node1</title>
<g id="a_Node000001"><a xlink:title=" ">
<polygon fill="#999999" stroke="transparent" points="244,-328 131,-328 131,-242 244,-242 244,-328"/>
<text text-anchor="start" x="136.5" y="-316" font-family="Helvetica,sans-Serif" font-size="10.00">pocketmine\network</text>
<text text-anchor="start" x="136.5" y="-305" font-family="Helvetica,sans-Serif" font-size="10.00">\mcpe\protocol\types</text>
<text text-anchor="start" x="162" y="-294" font-family="Helvetica,sans-Serif" font-size="10.00">\DataStore</text>
<text text-anchor="start" x="186" y="-279" font-family="Helvetica,sans-Serif" font-size="10.00"> </text>
<text text-anchor="start" x="144.5" y="-264" font-family="Helvetica,sans-Serif" font-size="10.00">+</text>
<text text-anchor="start" x="166.5" y="-264" font-family="Helvetica,sans-Serif" font-size="10.00">getTypeId()</text>
<text text-anchor="start" x="144.5" y="-249" font-family="Helvetica,sans-Serif" font-size="10.00">+</text>
<text text-anchor="start" x="166.5" y="-249" font-family="Helvetica,sans-Serif" font-size="10.00">write()</text>
<polygon fill="#666666" stroke="#666666" points="131.5,-289 131.5,-289 244.5,-289 244.5,-289 131.5,-289"/>
<polygon fill="#666666" stroke="#666666" points="131.5,-274 131.5,-274 244.5,-274 244.5,-274 131.5,-274"/>
<polygon fill="none" stroke="#666666" points="131,-242 131,-328 244,-328 244,-242 131,-242"/>
</a>
</g>
</g>
<!-- Node2 -->
<g id="Node000002" class="node">
<title>Node2</title>
<g id="a_Node000002"><a xlink:href="../../d9/d8d/classpocketmine_1_1network_1_1mcpe_1_1protocol_1_1types_1_1_data_store_change.html" target="_top" xlink:title=" ">
<polygon fill="white" stroke="transparent" points="113,-191 0,-191 0,-15 113,-15 113,-191"/>
<text text-anchor="start" x="5.5" y="-179" font-family="Helvetica,sans-Serif" font-size="10.00">pocketmine\network</text>
<text text-anchor="start" x="5.5" y="-168" font-family="Helvetica,sans-Serif" font-size="10.00">\mcpe\protocol\types</text>
<text text-anchor="start" x="12.5" y="-157" font-family="Helvetica,sans-Serif" font-size="10.00">\DataStoreChange</text>
<text text-anchor="start" x="5.5" y="-142" font-family="Helvetica,sans-Serif" font-size="10.00">+</text>
<text text-anchor="start" x="19.5" y="-142" font-family="Helvetica,sans-Serif" font-size="10.00">ID</text>
<text text-anchor="start" x="5.5" y="-127" font-family="Helvetica,sans-Serif" font-size="10.00">+</text>
<text text-anchor="start" x="19.5" y="-127" font-family="Helvetica,sans-Serif" font-size="10.00">__construct()</text>
<text text-anchor="start" x="5.5" y="-112" font-family="Helvetica,sans-Serif" font-size="10.00">+</text>
<text text-anchor="start" x="19.5" y="-112" font-family="Helvetica,sans-Serif" font-size="10.00">getData()</text>
<text text-anchor="start" x="5.5" y="-97" font-family="Helvetica,sans-Serif" font-size="10.00">+</text>
<text text-anchor="start" x="19.5" y="-97" font-family="Helvetica,sans-Serif" font-size="10.00">getName()</text>
<text text-anchor="start" x="5.5" y="-82" font-family="Helvetica,sans-Serif" font-size="10.00">+</text>
<text text-anchor="start" x="19.5" y="-82" font-family="Helvetica,sans-Serif" font-size="10.00">getProperty()</text>
<text text-anchor="start" x="5.5" y="-67" font-family="Helvetica,sans-Serif" font-size="10.00">+</text>
<text text-anchor="start" x="19.5" y="-67" font-family="Helvetica,sans-Serif" font-size="10.00">getTypeId()</text>
<text text-anchor="start" x="5.5" y="-52" font-family="Helvetica,sans-Serif" font-size="10.00">+</text>
<text text-anchor="start" x="19.5" y="-52" font-family="Helvetica,sans-Serif" font-size="10.00">getUpdateCount()</text>
<text text-anchor="start" x="5.5" y="-37" font-family="Helvetica,sans-Serif" font-size="10.00">+</text>
<text text-anchor="start" x="19.5" y="-37" font-family="Helvetica,sans-Serif" font-size="10.00">write()</text>
<text text-anchor="start" x="5.5" y="-22" font-family="Helvetica,sans-Serif" font-size="10.00">+</text>
<text text-anchor="start" x="19.5" y="-22" font-family="Helvetica,sans-Serif" font-size="10.00">read()</text>
<polygon fill="#666666" stroke="#666666" points="0.5,-152 0.5,-152 113.5,-152 113.5,-152 0.5,-152"/>
<polygon fill="#666666" stroke="#666666" points="0.5,-137 0.5,-137 17.5,-137 17.5,-137 0.5,-137"/>
<polygon fill="#666666" stroke="#666666" points="17.5,-137 17.5,-137 113.5,-137 113.5,-137 17.5,-137"/>
<polygon fill="none" stroke="#666666" points="0,-15 0,-191 113,-191 113,-15 0,-15"/>
</a>
</g>
</g>
<!-- Node1&#45;&gt;Node2 -->
<g id="edge1_Node000001_Node000002" class="edge">
<title>Node1&#45;&gt;Node2</title>
<g id="a_edge1_Node000001_Node000002"><a xlink:title=" ">
<path fill="none" stroke="#63b8ff" d="M143.51,-234.02C135.95,-224.87 128.33,-215.28 121.5,-206 117.95,-201.18 114.39,-196.17 110.85,-191.07"/>
<polygon fill="none" stroke="#63b8ff" points="141.02,-236.5 150.12,-241.93 146.39,-232.01 141.02,-236.5"/>
</a>
</g>
</g>
<!-- Node3 -->
<g id="Node000003" class="node">
<title>Node3</title>
<g id="a_Node000003"><a xlink:href="../../de/d46/classpocketmine_1_1network_1_1mcpe_1_1protocol_1_1types_1_1_data_store_removal.html" target="_top" xlink:title=" ">
<polygon fill="white" stroke="transparent" points="244,-168.5 131,-168.5 131,-37.5 244,-37.5 244,-168.5"/>
<text text-anchor="start" x="136.5" y="-156" font-family="Helvetica,sans-Serif" font-size="10.00">pocketmine\network</text>
<text text-anchor="start" x="136.5" y="-145" font-family="Helvetica,sans-Serif" font-size="10.00">\mcpe\protocol\types</text>
<text text-anchor="start" x="140" y="-134" font-family="Helvetica,sans-Serif" font-size="10.00">\DataStoreRemoval</text>
<text text-anchor="start" x="142.5" y="-119" font-family="Helvetica,sans-Serif" font-size="10.00">+</text>
<text text-anchor="start" x="162.5" y="-119" font-family="Helvetica,sans-Serif" font-size="10.00">ID</text>
<text text-anchor="start" x="142.5" y="-104" font-family="Helvetica,sans-Serif" font-size="10.00">+</text>
<text text-anchor="start" x="162.5" y="-104" font-family="Helvetica,sans-Serif" font-size="10.00">__construct()</text>
<text text-anchor="start" x="142.5" y="-89" font-family="Helvetica,sans-Serif" font-size="10.00">+</text>
<text text-anchor="start" x="162.5" y="-89" font-family="Helvetica,sans-Serif" font-size="10.00">getName()</text>
<text text-anchor="start" x="142.5" y="-74" font-family="Helvetica,sans-Serif" font-size="10.00">+</text>
<text text-anchor="start" x="162.5" y="-74" font-family="Helvetica,sans-Serif" font-size="10.00">getTypeId()</text>
<text text-anchor="start" x="142.5" y="-59" font-family="Helvetica,sans-Serif" font-size="10.00">+</text>
<text text-anchor="start" x="162.5" y="-59" font-family="Helvetica,sans-Serif" font-size="10.00">write()</text>
<text text-anchor="start" x="142.5" y="-44" font-family="Helvetica,sans-Serif" font-size="10.00">+</text>
<text text-anchor="start" x="162.5" y="-44" font-family="Helvetica,sans-Serif" font-size="10.00">read()</text>
<polygon fill="#666666" stroke="#666666" points="131.5,-129 131.5,-129 244.5,-129 244.5,-129 131.5,-129"/>
<polygon fill="#666666" stroke="#666666" points="131.5,-114 131.5,-114 160.5,-114 160.5,-114 131.5,-114"/>
<polygon fill="#666666" stroke="#666666" points="160.5,-114 160.5,-114 244.5,-114 244.5,-114 160.5,-114"/>
<polygon fill="none" stroke="#666666" points="131,-37.5 131,-168.5 244,-168.5 244,-37.5 131,-37.5"/>
</a>
</g>
</g>
<!-- Node1&#45;&gt;Node3 -->
<g id="edge2_Node000001_Node000003" class="edge">
<title>Node1&#45;&gt;Node3</title>
<g id="a_edge2_Node000001_Node000003"><a xlink:title=" ">
<path fill="none" stroke="#63b8ff" d="M187.5,-231.54C187.5,-211.93 187.5,-189.43 187.5,-168.84"/>
<polygon fill="none" stroke="#63b8ff" points="184,-231.8 187.5,-241.8 191,-231.8 184,-231.8"/>
</a>
</g>
</g>
<!-- Node4 -->
<g id="Node000004" class="node">
<title>Node4</title>
<g id="a_Node000004"><a xlink:href="../../d3/d0a/classpocketmine_1_1network_1_1mcpe_1_1protocol_1_1types_1_1_data_store_update.html" target="_top" xlink:title=" ">
<polygon fill="white" stroke="transparent" points="392.5,-206 262.5,-206 262.5,0 392.5,0 392.5,-206"/>
<text text-anchor="start" x="276" y="-194" font-family="Helvetica,sans-Serif" font-size="10.00">pocketmine\network</text>
<text text-anchor="start" x="276" y="-183" font-family="Helvetica,sans-Serif" font-size="10.00">\mcpe\protocol\types</text>
<text text-anchor="start" x="283.5" y="-172" font-family="Helvetica,sans-Serif" font-size="10.00">\DataStoreUpdate</text>
<text text-anchor="start" x="266.5" y="-157" font-family="Helvetica,sans-Serif" font-size="10.00">+</text>
<text text-anchor="start" x="279.5" y="-157" font-family="Helvetica,sans-Serif" font-size="10.00">ID</text>
<text text-anchor="start" x="266.5" y="-142" font-family="Helvetica,sans-Serif" font-size="10.00">+</text>
<text text-anchor="start" x="279.5" y="-142" font-family="Helvetica,sans-Serif" font-size="10.00">__construct()</text>
<text text-anchor="start" x="266.5" y="-127" font-family="Helvetica,sans-Serif" font-size="10.00">+</text>
<text text-anchor="start" x="279.5" y="-127" font-family="Helvetica,sans-Serif" font-size="10.00">getData()</text>
<text text-anchor="start" x="266.5" y="-112" font-family="Helvetica,sans-Serif" font-size="10.00">+</text>
<text text-anchor="start" x="279.5" y="-112" font-family="Helvetica,sans-Serif" font-size="10.00">getName()</text>
<text text-anchor="start" x="266.5" y="-97" font-family="Helvetica,sans-Serif" font-size="10.00">+</text>
<text text-anchor="start" x="279.5" y="-97" font-family="Helvetica,sans-Serif" font-size="10.00">getPath()</text>
<text text-anchor="start" x="266.5" y="-82" font-family="Helvetica,sans-Serif" font-size="10.00">+</text>
<text text-anchor="start" x="279.5" y="-82" font-family="Helvetica,sans-Serif" font-size="10.00">getPathUpdateCount()</text>
<text text-anchor="start" x="266.5" y="-67" font-family="Helvetica,sans-Serif" font-size="10.00">+</text>
<text text-anchor="start" x="279.5" y="-67" font-family="Helvetica,sans-Serif" font-size="10.00">getProperty()</text>
<text text-anchor="start" x="266.5" y="-52" font-family="Helvetica,sans-Serif" font-size="10.00">+</text>
<text text-anchor="start" x="279.5" y="-52" font-family="Helvetica,sans-Serif" font-size="10.00">getTypeId()</text>
<text text-anchor="start" x="266.5" y="-37" font-family="Helvetica,sans-Serif" font-size="10.00">+</text>
<text text-anchor="start" x="279.5" y="-37" font-family="Helvetica,sans-Serif" font-size="10.00">getUpdateCount()</text>
<text text-anchor="start" x="266.5" y="-22" font-family="Helvetica,sans-Serif" font-size="10.00">+</text>
<text text-anchor="start" x="279.5" y="-22" font-family="Helvetica,sans-Serif" font-size="10.00">write()</text>
<text text-anchor="start" x="266.5" y="-7" font-family="Helvetica,sans-Serif" font-size="10.00">+</text>
<text text-anchor="start" x="279.5" y="-7" font-family="Helvetica,sans-Serif" font-size="10.00">read()</text>
<polygon fill="#666666" stroke="#666666" points="262.5,-167 262.5,-167 392.5,-167 392.5,-167 262.5,-167"/>
<polygon fill="#666666" stroke="#666666" points="262.5,-152 262.5,-152 277.5,-152 277.5,-152 262.5,-152"/>
<polygon fill="#666666" stroke="#666666" points="277.5,-152 277.5,-152 392.5,-152 392.5,-152 277.5,-152"/>
<polygon fill="none" stroke="#666666" points="262.5,0 262.5,-206 392.5,-206 392.5,0 262.5,0"/>
</a>
</g>
</g>
<!-- Node1&#45;&gt;Node4 -->
<g id="edge3_Node000001_Node000004" class="edge">
<title>Node1&#45;&gt;Node4</title>
<g id="a_edge3_Node000001_Node000004"><a xlink:title=" ">
<path fill="none" stroke="#63b8ff" d="M230.52,-234.28C238.29,-224.98 246.23,-215.27 253.5,-206 256.47,-202.21 259.48,-198.32 262.49,-194.38"/>
<polygon fill="none" stroke="#63b8ff" points="227.81,-232.06 224.05,-241.97 233.17,-236.57 227.81,-232.06"/>
</a>
</g>
</g>
</g>
</svg>
</svg>

<style type='text/css'>
<![CDATA[
[data-mouse-over-selected='false'] { opacity: 0.7; }
[data-mouse-over-selected='true']  { opacity: 1.0; }
]]>
</style>
<script type="application/ecmascript"><![CDATA[
document.addEventListener('DOMContentLoaded', (event) => {
  highlightEdges();
  highlightAdjacentNodes();
});
]]></script>
</svg>
