<?xml version="1.0" encoding="UTF-8" standalone="no"?>
<!DOCTYPE svg PUBLIC "-//W3C//DTD SVG 1.1//EN"
 "http://www.w3.org/Graphics/SVG/1.1/DTD/svg11.dtd">
<!-- Generated by graphviz version 2.43.0 (0)
 -->
<!-- Title: pocketmine\network\mcpe\protocol\CommandRequestPacket Pages: 1 -->
<!--zoomable 661 -->
<svg id="main" version="1.1" xmlns="http://www.w3.org/2000/svg" xmlns:xlink="http://www.w3.org/1999/xlink" xml:space="preserve" onload="init(evt)">
<style type="text/css"><![CDATA[
.edge:hover path { stroke: red; }
.edge:hover polygon { stroke: red; fill: red; }
]]></style>
<script type="text/javascript"><![CDATA[
var edges = document.getElementsByTagName('g');
if (edges && edges.length) {
  for (var i=0;i<edges.length;i++) {
    if (edges[i].id.substr(0,4)=='edge') {
      edges[i].setAttribute('class','edge');
    }
  }
}
]]></script>
        <defs>
                <circle id="rim" cx="0" cy="0" r="7"/>
                <circle id="rim2" cx="0" cy="0" r="3.5"/>
                <g id="zoomPlus">
                        <use xlink:href="#rim" fill="#404040">
                                <set attributeName="fill" to="#808080" begin="zoomplus.mouseover" end="zoomplus.mouseout"/>
                        </use>
                        <path d="M-4,0h8M0,-4v8" fill="none" stroke="white" stroke-width="1.5" pointer-events="none"/>
                </g>
                <g id="zoomMin">
                        <use xlink:href="#rim" fill="#404040">
                                <set attributeName="fill" to="#808080" begin="zoomminus.mouseover" end="zoomminus.mouseout"/>
                        </use>
                        <path d="M-4,0h8" fill="none" stroke="white" stroke-width="1.5" pointer-events="none"/>
                </g>
                <g id="dirArrow">
                        <path fill="none" stroke="white" stroke-width="1.5" d="M0,-3.0v7 M-2.5,-0.5L0,-3.0L2.5,-0.5"/>
                </g>
               <g id="resetDef">
                       <use xlink:href="#rim2" fill="#404040">
                               <set attributeName="fill" to="#808080" begin="reset.mouseover" end="reset.mouseout"/>
                       </use>
               </g>
        </defs>

<script type="text/javascript">
var viewWidth = 634;
var viewHeight = 661;
var sectionId = 'dynsection-1';
</script>
<script xlink:href="../../svgpan.js"/>
<svg id="graph" class="graph">
<g id="viewport">
<title>pocketmine\network\mcpe\protocol\CommandRequestPacket</title>
<polygon fill="white" stroke="transparent" points="-4,4 -4,-657 630,-657 630,4 -4,4"/>
<!-- Node1 -->
<g id="node1" class="node">
<title>Node1</title>
<g id="a_node1"><a xlink:title=" ">
<polygon fill="#bfbfbf" stroke="black" points="237,-0.5 237,-123.5 419,-123.5 419,-0.5 237,-0.5"/>
<text text-anchor="start" x="245" y="-111.5" font-family="Helvetica,sans-Serif" font-size="10.00">pocketmine\network</text>
<text text-anchor="start" x="245" y="-100.5" font-family="Helvetica,sans-Serif" font-size="10.00">\mcpe\protocol\CommandRequest</text>
<text text-anchor="middle" x="328" y="-89.5" font-family="Helvetica,sans-Serif" font-size="10.00">Packet</text>
<polyline fill="none" stroke="black" points="237,-82.5 419,-82.5 "/>
<text text-anchor="start" x="245" y="-70.5" font-family="Helvetica,sans-Serif" font-size="10.00">+ $command</text>
<text text-anchor="start" x="245" y="-59.5" font-family="Helvetica,sans-Serif" font-size="10.00">+ $isInternal</text>
<polyline fill="none" stroke="black" points="237,-52.5 419,-52.5 "/>
<text text-anchor="start" x="245" y="-40.5" font-family="Helvetica,sans-Serif" font-size="10.00">+ handle()</text>
<text text-anchor="start" x="245" y="-29.5" font-family="Helvetica,sans-Serif" font-size="10.00">+ create()</text>
<text text-anchor="start" x="245" y="-18.5" font-family="Helvetica,sans-Serif" font-size="10.00"># decodePayload()</text>
<text text-anchor="start" x="245" y="-7.5" font-family="Helvetica,sans-Serif" font-size="10.00"># encodePayload()</text>
</a>
</g>
</g>
<!-- Node2 -->
<g id="node2" class="node">
<title>Node2</title>
<g id="a_node2"><a xlink:href="../../d1/ddb/classpocketmine_1_1network_1_1mcpe_1_1protocol_1_1_data_packet.html" target="_top" xlink:title=" ">
<polygon fill="white" stroke="#bfbfbf" points="172.5,-171.5 172.5,-360.5 319.5,-360.5 319.5,-171.5 172.5,-171.5"/>
<text text-anchor="start" x="180.5" y="-348.5" font-family="Helvetica,sans-Serif" font-size="10.00">pocketmine\network</text>
<text text-anchor="middle" x="246" y="-337.5" font-family="Helvetica,sans-Serif" font-size="10.00">\mcpe\protocol\DataPacket</text>
<polyline fill="none" stroke="#bfbfbf" points="172.5,-330.5 319.5,-330.5 "/>
<text text-anchor="start" x="180.5" y="-318.5" font-family="Helvetica,sans-Serif" font-size="10.00">+ $recipientSubId</text>
<text text-anchor="start" x="180.5" y="-307.5" font-family="Helvetica,sans-Serif" font-size="10.00">+ $senderSubId</text>
<polyline fill="none" stroke="#bfbfbf" points="172.5,-300.5 319.5,-300.5 "/>
<text text-anchor="start" x="180.5" y="-288.5" font-family="Helvetica,sans-Serif" font-size="10.00">+ __get()</text>
<text text-anchor="start" x="180.5" y="-277.5" font-family="Helvetica,sans-Serif" font-size="10.00">+ __set()</text>
<text text-anchor="start" x="180.5" y="-266.5" font-family="Helvetica,sans-Serif" font-size="10.00">+ canBeSentBeforeLogin()</text>
<text text-anchor="start" x="180.5" y="-255.5" font-family="Helvetica,sans-Serif" font-size="10.00">+ decode()</text>
<text text-anchor="start" x="180.5" y="-244.5" font-family="Helvetica,sans-Serif" font-size="10.00">+ encode()</text>
<text text-anchor="start" x="180.5" y="-233.5" font-family="Helvetica,sans-Serif" font-size="10.00">+ getName()</text>
<text text-anchor="start" x="180.5" y="-222.5" font-family="Helvetica,sans-Serif" font-size="10.00">+ pid()</text>
<text text-anchor="start" x="180.5" y="-211.5" font-family="Helvetica,sans-Serif" font-size="10.00"># decodeHeader()</text>
<text text-anchor="start" x="180.5" y="-200.5" font-family="Helvetica,sans-Serif" font-size="10.00"># decodePayload()</text>
<text text-anchor="start" x="180.5" y="-189.5" font-family="Helvetica,sans-Serif" font-size="10.00"># encodeHeader()</text>
<text text-anchor="start" x="180.5" y="-178.5" font-family="Helvetica,sans-Serif" font-size="10.00"># encodePayload()</text>
</a>
</g>
</g>
<!-- Node2&#45;&gt;Node1 -->
<g id="edge1" class="edge">
<title>Node2&#45;&gt;Node1</title>
<path fill="none" stroke="midnightblue" d="M287.86,-161.88C293.16,-148.81 298.45,-135.79 303.36,-123.7"/>
<polygon fill="none" stroke="midnightblue" points="284.52,-160.81 284,-171.39 291,-163.44 284.52,-160.81"/>
</g>
<!-- Node3 -->
<g id="node3" class="node">
<title>Node3</title>
<g id="a_node3"><a xlink:href="../../d4/d5d/interfacepocketmine_1_1network_1_1mcpe_1_1protocol_1_1_packet.html" target="_top" xlink:title=" ">
<polygon fill="white" stroke="#bfbfbf" points="108,-529.5 108,-652.5 254,-652.5 254,-529.5 108,-529.5"/>
<text text-anchor="start" x="116" y="-640.5" font-family="Helvetica,sans-Serif" font-size="10.00">pocketmine\network</text>
<text text-anchor="middle" x="181" y="-629.5" font-family="Helvetica,sans-Serif" font-size="10.00">\mcpe\protocol\Packet</text>
<polyline fill="none" stroke="#bfbfbf" points="108,-622.5 254,-622.5 "/>
<text text-anchor="middle" x="181" y="-610.5" font-family="Helvetica,sans-Serif" font-size="10.00"> </text>
<polyline fill="none" stroke="#bfbfbf" points="108,-603.5 254,-603.5 "/>
<text text-anchor="start" x="116" y="-591.5" font-family="Helvetica,sans-Serif" font-size="10.00">+ canBeSentBeforeLogin()</text>
<text text-anchor="start" x="116" y="-580.5" font-family="Helvetica,sans-Serif" font-size="10.00">+ decode()</text>
<text text-anchor="start" x="116" y="-569.5" font-family="Helvetica,sans-Serif" font-size="10.00">+ encode()</text>
<text text-anchor="start" x="116" y="-558.5" font-family="Helvetica,sans-Serif" font-size="10.00">+ getName()</text>
<text text-anchor="start" x="116" y="-547.5" font-family="Helvetica,sans-Serif" font-size="10.00">+ handle()</text>
<text text-anchor="start" x="116" y="-536.5" font-family="Helvetica,sans-Serif" font-size="10.00">+ pid()</text>
</a>
</g>
</g>
<!-- Node3&#45;&gt;Node2 -->
<g id="edge2" class="edge">
<title>Node3&#45;&gt;Node2</title>
<path fill="none" stroke="midnightblue" d="M195.24,-519.24C204.62,-472.65 216.99,-411.13 227.18,-360.52"/>
<polygon fill="none" stroke="midnightblue" points="191.77,-518.75 193.23,-529.25 198.63,-520.13 191.77,-518.75"/>
</g>
<!-- Node5 -->
<g id="node5" class="node">
<title>Node5</title>
<g id="a_node5"><a xlink:href="../../dd/de6/interfacepocketmine_1_1network_1_1mcpe_1_1protocol_1_1_serverbound_packet.html" target="_top" xlink:title=" ">
<polygon fill="white" stroke="#bfbfbf" points="0,-226.5 0,-305.5 154,-305.5 154,-226.5 0,-226.5"/>
<text text-anchor="start" x="8" y="-293.5" font-family="Helvetica,sans-Serif" font-size="10.00">pocketmine\network</text>
<text text-anchor="start" x="8" y="-282.5" font-family="Helvetica,sans-Serif" font-size="10.00">\mcpe\protocol\Serverbound</text>
<text text-anchor="middle" x="77" y="-271.5" font-family="Helvetica,sans-Serif" font-size="10.00">Packet</text>
<polyline fill="none" stroke="#bfbfbf" points="0,-264.5 154,-264.5 "/>
<text text-anchor="middle" x="77" y="-252.5" font-family="Helvetica,sans-Serif" font-size="10.00"> </text>
<polyline fill="none" stroke="#bfbfbf" points="0,-245.5 154,-245.5 "/>
<text text-anchor="middle" x="77" y="-233.5" font-family="Helvetica,sans-Serif" font-size="10.00"> </text>
</a>
</g>
</g>
<!-- Node3&#45;&gt;Node5 -->
<g id="edge5" class="edge">
<title>Node3&#45;&gt;Node5</title>
<path fill="none" stroke="midnightblue" d="M158.26,-519.38C137.13,-453.74 106.43,-358.4 89.46,-305.68"/>
<polygon fill="none" stroke="midnightblue" points="155.04,-520.8 161.44,-529.25 161.71,-518.65 155.04,-520.8"/>
</g>
<!-- Node4 -->
<g id="node4" class="node">
<title>Node4</title>
<g id="a_node4"><a xlink:title=" ">
<polygon fill="white" stroke="#bfbfbf" points="334.5,-562.5 334.5,-619.5 377.5,-619.5 377.5,-562.5 334.5,-562.5"/>
<text text-anchor="middle" x="356" y="-607.5" font-family="Helvetica,sans-Serif" font-size="10.00">const</text>
<polyline fill="none" stroke="#bfbfbf" points="334.5,-600.5 377.5,-600.5 "/>
<text text-anchor="middle" x="356" y="-588.5" font-family="Helvetica,sans-Serif" font-size="10.00"> </text>
<polyline fill="none" stroke="#bfbfbf" points="334.5,-581.5 377.5,-581.5 "/>
<text text-anchor="middle" x="356" y="-569.5" font-family="Helvetica,sans-Serif" font-size="10.00"> </text>
</a>
</g>
</g>
<!-- Node4&#45;&gt;Node1 -->
<g id="edge6" class="edge">
<title>Node4&#45;&gt;Node1</title>
<path fill="none" stroke="#404040" d="M354.53,-562.41C350.33,-483.35 338.15,-254.11 331.86,-135.7"/>
<polygon fill="none" stroke="#404040" points="331.85,-135.54 327.54,-129.76 331.22,-123.55 335.53,-129.33 331.85,-135.54"/>
<text text-anchor="middle" x="383" y="-263.5" font-family="Helvetica,sans-Serif" font-size="10.00"> +NETWORK_ID</text>
</g>
<!-- Node4&#45;&gt;Node2 -->
<g id="edge3" class="edge">
<title>Node4&#45;&gt;Node2</title>
<path fill="none" stroke="#404040" d="M334.11,-578.18C312.13,-564.99 279.37,-541.45 264,-511 242.79,-468.97 236.57,-417.6 236.34,-372.85"/>
<polygon fill="none" stroke="#404040" points="236.34,-372.72 232.38,-366.69 236.42,-360.72 240.38,-366.75 236.34,-372.72"/>
<text text-anchor="middle" x="303" y="-448" font-family="Helvetica,sans-Serif" font-size="10.00"> +NETWORK_ID</text>
<text text-anchor="middle" x="303" y="-437" font-family="Helvetica,sans-Serif" font-size="10.00">+PID_MASK</text>
</g>
<!-- Node6 -->
<g id="node6" class="node">
<title>Node6</title>
<g id="a_node6"><a xlink:href="../../d9/dec/classpocketmine_1_1network_1_1mcpe_1_1protocol_1_1types_1_1command_1_1_command_origin_data.html" target="_top" xlink:title=" ">
<polygon fill="white" stroke="#bfbfbf" points="452,-204.5 452,-327.5 626,-327.5 626,-204.5 452,-204.5"/>
<text text-anchor="start" x="460" y="-315.5" font-family="Helvetica,sans-Serif" font-size="10.00">pocketmine\network</text>
<text text-anchor="start" x="460" y="-304.5" font-family="Helvetica,sans-Serif" font-size="10.00">\mcpe\protocol\types</text>
<text text-anchor="middle" x="539" y="-293.5" font-family="Helvetica,sans-Serif" font-size="10.00">\command\CommandOriginData</text>
<polyline fill="none" stroke="#bfbfbf" points="452,-286.5 626,-286.5 "/>
<text text-anchor="start" x="460" y="-274.5" font-family="Helvetica,sans-Serif" font-size="10.00">+ $playerActorUniqueId</text>
<text text-anchor="start" x="460" y="-263.5" font-family="Helvetica,sans-Serif" font-size="10.00">+ $requestId</text>
<text text-anchor="start" x="460" y="-252.5" font-family="Helvetica,sans-Serif" font-size="10.00">+ $type</text>
<text text-anchor="start" x="460" y="-241.5" font-family="Helvetica,sans-Serif" font-size="10.00">+ ORIGIN_TEST</text>
<text text-anchor="start" x="460" y="-230.5" font-family="Helvetica,sans-Serif" font-size="10.00">+ ORIGIN_VIRTUAL</text>
<polyline fill="none" stroke="#bfbfbf" points="452,-223.5 626,-223.5 "/>
<text text-anchor="middle" x="539" y="-211.5" font-family="Helvetica,sans-Serif" font-size="10.00"> </text>
</a>
</g>
</g>
<!-- Node4&#45;&gt;Node6 -->
<g id="edge8" class="edge">
<title>Node4&#45;&gt;Node6</title>
<path fill="none" stroke="#404040" d="M360.12,-562.11C368.53,-505.58 387.11,-382.54 390,-379 404.43,-361.37 418.63,-372.99 438,-361 449.86,-353.66 461.54,-344.8 472.52,-335.49"/>
<polygon fill="none" stroke="#404040" points="472.53,-335.49 474.42,-328.53 481.57,-327.59 479.68,-334.55 472.53,-335.49"/>
<text text-anchor="start" x="390" y="-503" font-family="Helvetica,sans-Serif" font-size="10.00"> +ORIGIN_AUTOMATION</text>
<text text-anchor="middle" x="468" y="-492" font-family="Helvetica,sans-Serif" font-size="10.00">_PLAYER</text>
<text text-anchor="middle" x="468" y="-481" font-family="Helvetica,sans-Serif" font-size="10.00">+ORIGIN_BLOCK</text>
<text text-anchor="middle" x="468" y="-470" font-family="Helvetica,sans-Serif" font-size="10.00">+ORIGIN_CLIENT_AUTOMATION</text>
<text text-anchor="middle" x="468" y="-459" font-family="Helvetica,sans-Serif" font-size="10.00">+ORIGIN_DEDICATED_SERVER</text>
<text text-anchor="middle" x="468" y="-448" font-family="Helvetica,sans-Serif" font-size="10.00">+ORIGIN_DEV_CONSOLE</text>
<text text-anchor="middle" x="468" y="-437" font-family="Helvetica,sans-Serif" font-size="10.00">+ORIGIN_ENTITY</text>
<text text-anchor="middle" x="468" y="-426" font-family="Helvetica,sans-Serif" font-size="10.00">+ORIGIN_ENTITY_SERVER</text>
<text text-anchor="middle" x="468" y="-415" font-family="Helvetica,sans-Serif" font-size="10.00">+ORIGIN_GAME_ARGUMENT</text>
<text text-anchor="middle" x="468" y="-404" font-family="Helvetica,sans-Serif" font-size="10.00">+ORIGIN_MINECART_BLOCK</text>
<text text-anchor="middle" x="468" y="-393" font-family="Helvetica,sans-Serif" font-size="10.00">+ORIGIN_PLAYER</text>
<text text-anchor="middle" x="468" y="-382" font-family="Helvetica,sans-Serif" font-size="10.00">...</text>
</g>
<!-- Node5&#45;&gt;Node1 -->
<g id="edge4" class="edge">
<title>Node5&#45;&gt;Node1</title>
<path fill="none" stroke="midnightblue" d="M115.25,-218.64C129.45,-202.7 146.2,-185.28 163,-171 185.69,-151.7 212.02,-133.05 236.88,-116.83"/>
<polygon fill="none" stroke="midnightblue" points="112.46,-216.5 108.49,-226.32 117.72,-221.12 112.46,-216.5"/>
</g>
<!-- Node6&#45;&gt;Node1 -->
<g id="edge7" class="edge">
<title>Node6&#45;&gt;Node1</title>
<path fill="none" stroke="#404040" d="M475.69,-204.39C451.91,-181.62 424.7,-155.57 400.17,-132.09"/>
<polygon fill="none" stroke="#404040" points="399.93,-131.86 392.83,-130.6 391.26,-123.56 398.36,-124.82 399.93,-131.86"/>
<text text-anchor="middle" x="455.5" y="-145" font-family="Helvetica,sans-Serif" font-size="10.00"> +$originData</text>
</g>
<!-- Node7 -->
<g id="node7" class="node">
<title>Node7</title>
<g id="a_node7"><a xlink:title=" ">
<polygon fill="white" stroke="#bfbfbf" points="526.5,-562.5 526.5,-619.5 609.5,-619.5 609.5,-562.5 526.5,-562.5"/>
<text text-anchor="middle" x="568" y="-607.5" font-family="Helvetica,sans-Serif" font-size="10.00">UuidInterface</text>
<polyline fill="none" stroke="#bfbfbf" points="526.5,-600.5 609.5,-600.5 "/>
<text text-anchor="middle" x="568" y="-588.5" font-family="Helvetica,sans-Serif" font-size="10.00"> </text>
<polyline fill="none" stroke="#bfbfbf" points="526.5,-581.5 609.5,-581.5 "/>
<text text-anchor="middle" x="568" y="-569.5" font-family="Helvetica,sans-Serif" font-size="10.00"> </text>
</a>
</g>
</g>
<!-- Node7&#45;&gt;Node6 -->
<g id="edge9" class="edge">
<title>Node7&#45;&gt;Node6</title>
<path fill="none" stroke="#404040" d="M565.53,-562.46C561.15,-513.67 551.89,-410.56 545.56,-340.02"/>
<polygon fill="none" stroke="#404040" points="545.52,-339.64 541,-334.02 544.45,-327.69 548.97,-333.31 545.52,-339.64"/>
<text text-anchor="middle" x="580.5" y="-442.5" font-family="Helvetica,sans-Serif" font-size="10.00"> +$uuid</text>
</g>
</g>
</svg>
        <g id="navigator" transform="translate(0 0)" fill="#404254">
                <rect fill="#f2f5e9" fill-opacity="0.5" stroke="#606060" stroke-width=".5" x="0" y="0" width="60" height="60"/>
                <use id="zoomplus" xlink:href="#zoomPlus" x="17" y="9" onmousedown="handleZoom(evt,'in')"/>
                <use id="zoomminus" xlink:href="#zoomMin" x="42" y="9" onmousedown="handleZoom(evt,'out')"/>
                <use id="reset" xlink:href="#resetDef" x="30" y="36" onmousedown="handleReset()"/>
                <g id="arrowUp" xlink:href="#dirArrow" transform="translate(30 24)" onmousedown="handlePan(0,-1)">
                  <use xlink:href="#rim" fill="#404040">
                        <set attributeName="fill" to="#808080" begin="arrowUp.mouseover" end="arrowUp.mouseout"/>
                  </use>
                  <path fill="none" stroke="white" stroke-width="1.5" d="M0,-3.0v7 M-2.5,-0.5L0,-3.0L2.5,-0.5"/>
                </g>
                <g id="arrowRight" xlink:href="#dirArrow" transform="rotate(90) translate(36 -43)" onmousedown="handlePan(1,0)">
                  <use xlink:href="#rim" fill="#404040">
                        <set attributeName="fill" to="#808080" begin="arrowRight.mouseover" end="arrowRight.mouseout"/>
                  </use>
                  <path fill="none" stroke="white" stroke-width="1.5" d="M0,-3.0v7 M-2.5,-0.5L0,-3.0L2.5,-0.5"/>
                </g>
                <g id="arrowDown" xlink:href="#dirArrow" transform="rotate(180) translate(-30 -48)" onmousedown="handlePan(0,1)">
                  <use xlink:href="#rim" fill="#404040">
                        <set attributeName="fill" to="#808080" begin="arrowDown.mouseover" end="arrowDown.mouseout"/>
                  </use>
                  <path fill="none" stroke="white" stroke-width="1.5" d="M0,-3.0v7 M-2.5,-0.5L0,-3.0L2.5,-0.5"/>
                </g>
                <g id="arrowLeft" xlink:href="#dirArrow" transform="rotate(270) translate(-36 17)" onmousedown="handlePan(-1,0)">
                  <use xlink:href="#rim" fill="#404040">
                        <set attributeName="fill" to="#808080" begin="arrowLeft.mouseover" end="arrowLeft.mouseout"/>
                  </use>
                  <path fill="none" stroke="white" stroke-width="1.5" d="M0,-3.0v7 M-2.5,-0.5L0,-3.0L2.5,-0.5"/>
                </g>
        </g>
        <svg viewBox="0 0 15 15" width="100%" height="30px" preserveAspectRatio="xMaxYMin meet">
         <g id="arrow_out" transform="scale(0.3 0.3)">
          <a xlink:href="classpocketmine_1_1network_1_1mcpe_1_1protocol_1_1_command_request_packet__coll__graph_org.svg" target="_base">
           <rect id="button" ry="5" rx="5" y="6" x="6" height="38" width="38"
                fill="#f2f5e9" fill-opacity="0.5" stroke="#606060" stroke-width="1.0"/>
           <path id="arrow"
             d="M 11.500037,31.436501 C 11.940474,20.09759 22.043105,11.32322 32.158766,21.979434 L 37.068811,17.246167 C 37.068811,17.246167 37.088388,32 37.088388,32 L 22.160133,31.978069 C 22.160133,31.978069 26.997745,27.140456 26.997745,27.140456 C 18.528582,18.264221 13.291696,25.230495 11.500037,31.436501 z"
             style="fill:#404040;"/>
          </a>
         </g>
        </svg>
</svg>
