<?xml version="1.0" encoding="UTF-8" standalone="no"?>
<!DOCTYPE svg PUBLIC "-//W3C//DTD SVG 1.1//EN"
 "http://www.w3.org/Graphics/SVG/1.1/DTD/svg11.dtd">
<!-- Generated by graphviz version 2.43.0 (0)
 -->
<!-- Title: pocketmine\network\mcpe\protocol\types\DeviceOS Pages: 1 -->
<svg width="121pt" height="229pt"
 viewBox="0.00 0.00 121.00 229.00" xmlns="http://www.w3.org/2000/svg" xmlns:xlink="http://www.w3.org/1999/xlink">
<g id="graph0" class="graph" transform="scale(1 1) rotate(0) translate(4 225)">
<title>pocketmine\network\mcpe\protocol\types\DeviceOS</title>
<!-- Node1 -->
<g id="Node000001" class="node">
<title>Node1</title>
<g id="a_Node000001"><a xlink:title=" ">
<polygon fill="#999999" stroke="transparent" points="113,-221 0,-221 0,0 113,0 113,-221"/>
<text text-anchor="start" x="5.5" y="-208.5" font-family="Helvetica,sans-Serif" font-size="10.00">pocketmine\network</text>
<text text-anchor="start" x="5.5" y="-197.5" font-family="Helvetica,sans-Serif" font-size="10.00">\mcpe\protocol\types</text>
<text text-anchor="start" x="31.5" y="-186.5" font-family="Helvetica,sans-Serif" font-size="10.00">\DeviceOS</text>
<text text-anchor="start" x="11" y="-171.5" font-family="Helvetica,sans-Serif" font-size="10.00">+</text>
<text text-anchor="start" x="30.5" y="-171.5" font-family="Helvetica,sans-Serif" font-size="10.00">AMAZON</text>
<text text-anchor="start" x="11" y="-156.5" font-family="Helvetica,sans-Serif" font-size="10.00">+</text>
<text text-anchor="start" x="30.5" y="-156.5" font-family="Helvetica,sans-Serif" font-size="10.00">ANDROID</text>
<text text-anchor="start" x="11" y="-141.5" font-family="Helvetica,sans-Serif" font-size="10.00">+</text>
<text text-anchor="start" x="30.5" y="-141.5" font-family="Helvetica,sans-Serif" font-size="10.00">DEDICATED</text>
<text text-anchor="start" x="11" y="-126.5" font-family="Helvetica,sans-Serif" font-size="10.00">+</text>
<text text-anchor="start" x="30.5" y="-126.5" font-family="Helvetica,sans-Serif" font-size="10.00">GEAR_VR</text>
<text text-anchor="start" x="11" y="-111.5" font-family="Helvetica,sans-Serif" font-size="10.00">+</text>
<text text-anchor="start" x="30.5" y="-111.5" font-family="Helvetica,sans-Serif" font-size="10.00">HOLOLENS</text>
<text text-anchor="start" x="11" y="-96.5" font-family="Helvetica,sans-Serif" font-size="10.00">+</text>
<text text-anchor="start" x="30.5" y="-96.5" font-family="Helvetica,sans-Serif" font-size="10.00">IOS</text>
<text text-anchor="start" x="11" y="-81.5" font-family="Helvetica,sans-Serif" font-size="10.00">+</text>
<text text-anchor="start" x="30.5" y="-81.5" font-family="Helvetica,sans-Serif" font-size="10.00">LINUX</text>
<text text-anchor="start" x="11" y="-66.5" font-family="Helvetica,sans-Serif" font-size="10.00">+</text>
<text text-anchor="start" x="30.5" y="-66.5" font-family="Helvetica,sans-Serif" font-size="10.00">NINTENDO</text>
<text text-anchor="start" x="11" y="-51.5" font-family="Helvetica,sans-Serif" font-size="10.00">+</text>
<text text-anchor="start" x="30.5" y="-51.5" font-family="Helvetica,sans-Serif" font-size="10.00">OSX</text>
<text text-anchor="start" x="11" y="-36.5" font-family="Helvetica,sans-Serif" font-size="10.00">+</text>
<text text-anchor="start" x="30.5" y="-36.5" font-family="Helvetica,sans-Serif" font-size="10.00">PLAYSTATION</text>
<text text-anchor="start" x="30.5" y="-21.5" font-family="Helvetica,sans-Serif" font-size="10.00">and 6 more...</text>
<text text-anchor="start" x="55" y="-6.5" font-family="Helvetica,sans-Serif" font-size="10.00"> </text>
<polygon fill="#666666" stroke="#666666" points="0.5,-181.5 0.5,-181.5 113.5,-181.5 113.5,-181.5 0.5,-181.5"/>
<polygon fill="#666666" stroke="#666666" points="0.5,-16.5 0.5,-16.5 28.5,-16.5 28.5,-16.5 0.5,-16.5"/>
<polygon fill="#666666" stroke="#666666" points="28.5,-16.5 28.5,-16.5 113.5,-16.5 113.5,-16.5 28.5,-16.5"/>
<polygon fill="none" stroke="#666666" points="0,0 0,-221 113,-221 113,0 0,0"/>
</a>
</g>
</g>
</g>
</svg>
