<?xml version="1.0" encoding="UTF-8" standalone="no"?>
<!DOCTYPE svg PUBLIC "-//W3C//DTD SVG 1.1//EN"
 "http://www.w3.org/Graphics/SVG/1.1/DTD/svg11.dtd">
<!-- Generated by graphviz version 2.43.0 (0)
 -->
<!-- Title: pocketmine\inventory\transaction\TransactionCancelledException Pages: 1 -->
<svg width="189pt" height="287pt"
 viewBox="0.00 0.00 189.00 287.00" xmlns="http://www.w3.org/2000/svg" xmlns:xlink="http://www.w3.org/1999/xlink">
<g id="graph0" class="graph" transform="scale(1 1) rotate(0) translate(4 283)">
<title>pocketmine\inventory\transaction\TransactionCancelledException</title>
<polygon fill="white" stroke="transparent" points="-4,4 -4,-283 185,-283 185,4 -4,4"/>
<!-- Node1 -->
<g id="node1" class="node">
<title>Node1</title>
<g id="a_node1"><a xlink:title=" ">
<polygon fill="#bfbfbf" stroke="black" points="0,-0.5 0,-79.5 181,-79.5 181,-0.5 0,-0.5"/>
<text text-anchor="start" x="8" y="-67.5" font-family="Helvetica,sans-Serif" font-size="10.00">pocketmine\inventory</text>
<text text-anchor="start" x="8" y="-56.5" font-family="Helvetica,sans-Serif" font-size="10.00">\transaction\TransactionCancelled</text>
<text text-anchor="middle" x="90.5" y="-45.5" font-family="Helvetica,sans-Serif" font-size="10.00">Exception</text>
<polyline fill="none" stroke="black" points="0,-38.5 181,-38.5 "/>
<text text-anchor="middle" x="90.5" y="-26.5" font-family="Helvetica,sans-Serif" font-size="10.00"> </text>
<polyline fill="none" stroke="black" points="0,-19.5 181,-19.5 "/>
<text text-anchor="middle" x="90.5" y="-7.5" font-family="Helvetica,sans-Serif" font-size="10.00"> </text>
</a>
</g>
</g>
<!-- Node2 -->
<g id="node2" class="node">
<title>Node2</title>
<g id="a_node2"><a xlink:href="../../dc/db9/classpocketmine_1_1inventory_1_1transaction_1_1_transaction_exception.html" target="_top" xlink:title=" ">
<polygon fill="white" stroke="black" points="0,-116.5 0,-184.5 181,-184.5 181,-116.5 0,-116.5"/>
<text text-anchor="start" x="8" y="-172.5" font-family="Helvetica,sans-Serif" font-size="10.00">pocketmine\inventory</text>
<text text-anchor="middle" x="90.5" y="-161.5" font-family="Helvetica,sans-Serif" font-size="10.00">\transaction\TransactionException</text>
<polyline fill="none" stroke="black" points="0,-154.5 181,-154.5 "/>
<text text-anchor="middle" x="90.5" y="-142.5" font-family="Helvetica,sans-Serif" font-size="10.00"> </text>
<polyline fill="none" stroke="black" points="0,-135.5 181,-135.5 "/>
<text text-anchor="middle" x="90.5" y="-123.5" font-family="Helvetica,sans-Serif" font-size="10.00"> </text>
</a>
</g>
</g>
<!-- Node2&#45;&gt;Node1 -->
<g id="edge1" class="edge">
<title>Node2&#45;&gt;Node1</title>
<path fill="none" stroke="midnightblue" d="M90.5,-106.27C90.5,-97.48 90.5,-88.28 90.5,-79.65"/>
<polygon fill="none" stroke="midnightblue" points="87,-106.36 90.5,-116.36 94,-106.36 87,-106.36"/>
</g>
<!-- Node3 -->
<g id="node3" class="node">
<title>Node3</title>
<g id="a_node3"><a xlink:title=" ">
<polygon fill="white" stroke="#bfbfbf" points="37.5,-221.5 37.5,-278.5 143.5,-278.5 143.5,-221.5 37.5,-221.5"/>
<text text-anchor="middle" x="90.5" y="-266.5" font-family="Helvetica,sans-Serif" font-size="10.00">RuntimeException</text>
<polyline fill="none" stroke="#bfbfbf" points="37.5,-259.5 143.5,-259.5 "/>
<text text-anchor="middle" x="90.5" y="-247.5" font-family="Helvetica,sans-Serif" font-size="10.00"> </text>
<polyline fill="none" stroke="#bfbfbf" points="37.5,-240.5 143.5,-240.5 "/>
<text text-anchor="middle" x="90.5" y="-228.5" font-family="Helvetica,sans-Serif" font-size="10.00"> </text>
</a>
</g>
</g>
<!-- Node3&#45;&gt;Node2 -->
<g id="edge2" class="edge">
<title>Node3&#45;&gt;Node2</title>
<path fill="none" stroke="midnightblue" d="M90.5,-211.06C90.5,-202.39 90.5,-193.24 90.5,-184.79"/>
<polygon fill="none" stroke="midnightblue" points="87,-211.32 90.5,-221.32 94,-211.32 87,-211.32"/>
</g>
</g>
</svg>
