<?xml version="1.0" encoding="UTF-8" standalone="no"?>
<!DOCTYPE svg PUBLIC "-//W3C//DTD SVG 1.1//EN"
 "http://www.w3.org/Graphics/SVG/1.1/DTD/svg11.dtd">
<!-- Generated by graphviz version 2.43.0 (0)
 -->
<!-- Title: pocketmine\network\mcpe\protocol\types\inventory\stackrequest\CreativeCreateStackRequestAction Pages: 1 -->
<svg width="193pt" height="283pt"
 viewBox="0.00 0.00 193.00 283.00" xmlns="http://www.w3.org/2000/svg" xmlns:xlink="http://www.w3.org/1999/xlink">
<g id="graph0" class="graph" transform="scale(1 1) rotate(0) translate(4 279)">
<title>pocketmine\network\mcpe\protocol\types\inventory\stackrequest\CreativeCreateStackRequestAction</title>
<!-- Node1 -->
<g id="Node000001" class="node">
<title>Node1</title>
<g id="a_Node000001"><a xlink:title=" ">
<polygon fill="#999999" stroke="transparent" points="185,-142 0,-142 0,0 185,0 185,-142"/>
<text text-anchor="start" x="5.5" y="-130" font-family="Helvetica,sans-Serif" font-size="10.00">pocketmine\network</text>
<text text-anchor="start" x="5.5" y="-119" font-family="Helvetica,sans-Serif" font-size="10.00">\mcpe\protocol\types</text>
<text text-anchor="start" x="5.5" y="-108" font-family="Helvetica,sans-Serif" font-size="10.00">\inventory\stackrequest</text>
<text text-anchor="start" x="5.5" y="-97" font-family="Helvetica,sans-Serif" font-size="10.00">\CreativeCreateStackRequestAction</text>
<text text-anchor="start" x="21" y="-82" font-family="Helvetica,sans-Serif" font-size="10.00">+</text>
<text text-anchor="start" x="50.5" y="-82" font-family="Helvetica,sans-Serif" font-size="10.00">ID</text>
<text text-anchor="start" x="21" y="-67" font-family="Helvetica,sans-Serif" font-size="10.00">+</text>
<text text-anchor="start" x="50.5" y="-67" font-family="Helvetica,sans-Serif" font-size="10.00">__construct()</text>
<text text-anchor="start" x="21" y="-52" font-family="Helvetica,sans-Serif" font-size="10.00">+</text>
<text text-anchor="start" x="50.5" y="-52" font-family="Helvetica,sans-Serif" font-size="10.00">getCreativeItemId()</text>
<text text-anchor="start" x="21" y="-37" font-family="Helvetica,sans-Serif" font-size="10.00">+</text>
<text text-anchor="start" x="50.5" y="-37" font-family="Helvetica,sans-Serif" font-size="10.00">getRepetitions()</text>
<text text-anchor="start" x="21" y="-22" font-family="Helvetica,sans-Serif" font-size="10.00">+</text>
<text text-anchor="start" x="50.5" y="-22" font-family="Helvetica,sans-Serif" font-size="10.00">write()</text>
<text text-anchor="start" x="21" y="-7" font-family="Helvetica,sans-Serif" font-size="10.00">+</text>
<text text-anchor="start" x="50.5" y="-7" font-family="Helvetica,sans-Serif" font-size="10.00">read()</text>
<polygon fill="#666666" stroke="#666666" points="0.5,-92 0.5,-92 185.5,-92 185.5,-92 0.5,-92"/>
<polygon fill="#666666" stroke="#666666" points="0.5,-77 0.5,-77 48.5,-77 48.5,-77 0.5,-77"/>
<polygon fill="#666666" stroke="#666666" points="48.5,-77 48.5,-77 185.5,-77 185.5,-77 48.5,-77"/>
<polygon fill="none" stroke="#666666" points="0,0 0,-142 185,-142 185,0 0,0"/>
</a>
</g>
</g>
<!-- Node2 -->
<g id="Node000002" class="node">
<title>Node2</title>
<g id="a_Node000002"><a xlink:href="../../d8/d3b/classpocketmine_1_1network_1_1mcpe_1_1protocol_1_1types_1_1inventory_1_1stackrequest_1_1_item_stack_request_action.html" target="_top" xlink:title=" ">
<polygon fill="white" stroke="transparent" points="159.5,-275 25.5,-275 25.5,-178 159.5,-178 159.5,-275"/>
<text text-anchor="start" x="30.5" y="-262.5" font-family="Helvetica,sans-Serif" font-size="10.00">pocketmine\network</text>
<text text-anchor="start" x="30.5" y="-251.5" font-family="Helvetica,sans-Serif" font-size="10.00">\mcpe\protocol\types</text>
<text text-anchor="start" x="30.5" y="-240.5" font-family="Helvetica,sans-Serif" font-size="10.00">\inventory\stackrequest</text>
<text text-anchor="start" x="30.5" y="-229.5" font-family="Helvetica,sans-Serif" font-size="10.00">\ItemStackRequestAction</text>
<text text-anchor="start" x="90.5" y="-214.5" font-family="Helvetica,sans-Serif" font-size="10.00"> </text>
<text text-anchor="start" x="44" y="-199.5" font-family="Helvetica,sans-Serif" font-size="10.00">+</text>
<text text-anchor="start" x="71.5" y="-199.5" font-family="Helvetica,sans-Serif" font-size="10.00">getTypeId()</text>
<text text-anchor="start" x="44" y="-184.5" font-family="Helvetica,sans-Serif" font-size="10.00">+</text>
<text text-anchor="start" x="71.5" y="-184.5" font-family="Helvetica,sans-Serif" font-size="10.00">write()</text>
<polygon fill="#bfbfbf" stroke="#bfbfbf" points="25.5,-224.5 25.5,-224.5 159.5,-224.5 159.5,-224.5 25.5,-224.5"/>
<polygon fill="#bfbfbf" stroke="#bfbfbf" points="25.5,-209.5 25.5,-209.5 159.5,-209.5 159.5,-209.5 25.5,-209.5"/>
<polygon fill="none" stroke="#bfbfbf" points="25.5,-178 25.5,-275 159.5,-275 159.5,-178 25.5,-178"/>
</a>
</g>
</g>
<!-- Node2&#45;&gt;Node1 -->
<g id="edge1_Node000001_Node000002" class="edge">
<title>Node2&#45;&gt;Node1</title>
<g id="a_edge1_Node000001_Node000002"><a xlink:title=" ">
<path fill="none" stroke="#63b8ff" d="M92.5,-167.51C92.5,-159.26 92.5,-150.69 92.5,-142.24"/>
<polygon fill="none" stroke="#63b8ff" points="89,-167.77 92.5,-177.77 96,-167.77 89,-167.77"/>
</a>
</g>
</g>
</g>
</svg>
