<?xml version="1.0" encoding="UTF-8" standalone="no"?>
<!DOCTYPE svg PUBLIC "-//W3C//DTD SVG 1.1//EN"
 "http://www.w3.org/Graphics/SVG/1.1/DTD/svg11.dtd">
<!-- Generated by graphviz version 2.43.0 (0)
 -->
<!-- Title: pocketmine\block\DoublePlant Pages: 1 -->
<svg width="390pt" height="997pt"
 viewBox="0.00 0.00 389.50 997.00" xmlns="http://www.w3.org/2000/svg" xmlns:xlink="http://www.w3.org/1999/xlink">
<g id="graph0" class="graph" transform="scale(1 1) rotate(0) translate(4 993)">
<title>pocketmine\block\DoublePlant</title>
<!-- Node1 -->
<g id="Node000001" class="node">
<title>Node1</title>
<g id="a_Node000001"><a xlink:title=" ">
<polygon fill="#999999" stroke="transparent" points="275,-359 116,-359 116,-175 275,-175 275,-359"/>
<text text-anchor="start" x="121.5" y="-347" font-family="Helvetica,sans-Serif" font-size="10.00">pocketmine\block\DoublePlant</text>
<text text-anchor="start" x="122" y="-332" font-family="Helvetica,sans-Serif" font-size="10.00">#</text>
<text text-anchor="start" x="136.5" y="-332" font-family="Helvetica,sans-Serif" font-size="10.00">$top</text>
<text text-anchor="start" x="122" y="-317" font-family="Helvetica,sans-Serif" font-size="10.00">+</text>
<text text-anchor="start" x="136.5" y="-317" font-family="Helvetica,sans-Serif" font-size="10.00">getAffectedBlocks()</text>
<text text-anchor="start" x="122" y="-302" font-family="Helvetica,sans-Serif" font-size="10.00">+</text>
<text text-anchor="start" x="136.5" y="-302" font-family="Helvetica,sans-Serif" font-size="10.00">getDrops()</text>
<text text-anchor="start" x="122" y="-287" font-family="Helvetica,sans-Serif" font-size="10.00">+</text>
<text text-anchor="start" x="136.5" y="-287" font-family="Helvetica,sans-Serif" font-size="10.00">getFlameEncouragement()</text>
<text text-anchor="start" x="122" y="-272" font-family="Helvetica,sans-Serif" font-size="10.00">+</text>
<text text-anchor="start" x="136.5" y="-272" font-family="Helvetica,sans-Serif" font-size="10.00">getFlammability()</text>
<text text-anchor="start" x="122" y="-257" font-family="Helvetica,sans-Serif" font-size="10.00">+</text>
<text text-anchor="start" x="136.5" y="-257" font-family="Helvetica,sans-Serif" font-size="10.00">isTop()</text>
<text text-anchor="start" x="122" y="-242" font-family="Helvetica,sans-Serif" font-size="10.00">+</text>
<text text-anchor="start" x="136.5" y="-242" font-family="Helvetica,sans-Serif" font-size="10.00">isValidHalfPlant()</text>
<text text-anchor="start" x="122" y="-227" font-family="Helvetica,sans-Serif" font-size="10.00">+</text>
<text text-anchor="start" x="136.5" y="-227" font-family="Helvetica,sans-Serif" font-size="10.00">onNearbyBlockChange()</text>
<text text-anchor="start" x="122" y="-212" font-family="Helvetica,sans-Serif" font-size="10.00">+</text>
<text text-anchor="start" x="136.5" y="-212" font-family="Helvetica,sans-Serif" font-size="10.00">place()</text>
<text text-anchor="start" x="122" y="-197" font-family="Helvetica,sans-Serif" font-size="10.00">+</text>
<text text-anchor="start" x="136.5" y="-197" font-family="Helvetica,sans-Serif" font-size="10.00">setTop()</text>
<text text-anchor="start" x="122" y="-182" font-family="Helvetica,sans-Serif" font-size="10.00">#</text>
<text text-anchor="start" x="136.5" y="-182" font-family="Helvetica,sans-Serif" font-size="10.00">describeBlockOnlyState()</text>
<polygon fill="#666666" stroke="#666666" points="116.5,-342 116.5,-342 275.5,-342 275.5,-342 116.5,-342"/>
<polygon fill="#666666" stroke="#666666" points="116.5,-327 116.5,-327 134.5,-327 134.5,-327 116.5,-327"/>
<polygon fill="#666666" stroke="#666666" points="134.5,-327 134.5,-327 275.5,-327 275.5,-327 134.5,-327"/>
<polygon fill="none" stroke="#666666" points="116,-175 116,-359 275,-359 275,-175 116,-175"/>
</a>
</g>
</g>
<!-- Node5 -->
<g id="Node000005" class="node">
<title>Node5</title>
<g id="a_Node000005"><a xlink:href="../../da/d01/classpocketmine_1_1block_1_1_double_pitcher_crop.html" target="_top" xlink:title=" ">
<polygon fill="white" stroke="transparent" points="191,-139 0,-139 0,0 191,0 191,-139"/>
<text text-anchor="start" x="5.5" y="-126.5" font-family="Helvetica,sans-Serif" font-size="10.00">pocketmine\block\DoublePitcherCrop</text>
<text text-anchor="start" x="11" y="-111.5" font-family="Helvetica,sans-Serif" font-size="10.00">+</text>
<text text-anchor="start" x="30.5" y="-111.5" font-family="Helvetica,sans-Serif" font-size="10.00">MAX_AGE</text>
<text text-anchor="start" x="11" y="-96.5" font-family="Helvetica,sans-Serif" font-size="10.00">+</text>
<text text-anchor="start" x="30.5" y="-96.5" font-family="Helvetica,sans-Serif" font-size="10.00">asItem()</text>
<text text-anchor="start" x="11" y="-81.5" font-family="Helvetica,sans-Serif" font-size="10.00">+</text>
<text text-anchor="start" x="30.5" y="-81.5" font-family="Helvetica,sans-Serif" font-size="10.00">describeBlockOnlyState()</text>
<text text-anchor="start" x="11" y="-66.5" font-family="Helvetica,sans-Serif" font-size="10.00">+</text>
<text text-anchor="start" x="30.5" y="-66.5" font-family="Helvetica,sans-Serif" font-size="10.00">getDropsForCompatibleTool()</text>
<text text-anchor="start" x="11" y="-51.5" font-family="Helvetica,sans-Serif" font-size="10.00">+</text>
<text text-anchor="start" x="30.5" y="-51.5" font-family="Helvetica,sans-Serif" font-size="10.00">onInteract()</text>
<text text-anchor="start" x="11" y="-36.5" font-family="Helvetica,sans-Serif" font-size="10.00">+</text>
<text text-anchor="start" x="30.5" y="-36.5" font-family="Helvetica,sans-Serif" font-size="10.00">onRandomTick()</text>
<text text-anchor="start" x="11" y="-21.5" font-family="Helvetica,sans-Serif" font-size="10.00">+</text>
<text text-anchor="start" x="30.5" y="-21.5" font-family="Helvetica,sans-Serif" font-size="10.00">ticksRandomly()</text>
<text text-anchor="start" x="11" y="-6.5" font-family="Helvetica,sans-Serif" font-size="10.00">#</text>
<text text-anchor="start" x="30.5" y="-6.5" font-family="Helvetica,sans-Serif" font-size="10.00">recalculateCollisionBoxes()</text>
<polygon fill="#bfbfbf" stroke="#bfbfbf" points="0.5,-121.5 0.5,-121.5 191.5,-121.5 191.5,-121.5 0.5,-121.5"/>
<polygon fill="#bfbfbf" stroke="#bfbfbf" points="0.5,-106.5 0.5,-106.5 28.5,-106.5 28.5,-106.5 0.5,-106.5"/>
<polygon fill="#bfbfbf" stroke="#bfbfbf" points="28.5,-106.5 28.5,-106.5 191.5,-106.5 191.5,-106.5 28.5,-106.5"/>
<polygon fill="none" stroke="#bfbfbf" points="0,0 0,-139 191,-139 191,0 0,0"/>
</a>
</g>
</g>
<!-- Node1&#45;&gt;Node5 -->
<g id="edge4_Node000001_Node000005" class="edge">
<title>Node1&#45;&gt;Node5</title>
<g id="a_edge4_Node000001_Node000005"><a xlink:title=" ">
<path fill="none" stroke="#63b8ff" d="M144.24,-165.78C139.61,-156.74 135,-147.71 130.55,-139.03"/>
<polygon fill="none" stroke="#63b8ff" points="141.2,-167.52 148.87,-174.83 147.43,-164.34 141.2,-167.52"/>
</a>
</g>
</g>
<!-- Node6 -->
<g id="Node000006" class="node">
<title>Node6</title>
<g id="a_Node000006"><a xlink:href="../../dc/d19/classpocketmine_1_1block_1_1_double_tall_grass.html" target="_top" xlink:title=" ">
<polygon fill="white" stroke="transparent" points="381.5,-107 209.5,-107 209.5,-32 381.5,-32 381.5,-107"/>
<text text-anchor="start" x="225" y="-94.5" font-family="Helvetica,sans-Serif" font-size="10.00">pocketmine\block\DoubleTall</text>
<text text-anchor="start" x="281.5" y="-83.5" font-family="Helvetica,sans-Serif" font-size="10.00">Grass</text>
<text text-anchor="start" x="293.5" y="-68.5" font-family="Helvetica,sans-Serif" font-size="10.00"> </text>
<text text-anchor="start" x="213.5" y="-53.5" font-family="Helvetica,sans-Serif" font-size="10.00">+</text>
<text text-anchor="start" x="226.5" y="-53.5" font-family="Helvetica,sans-Serif" font-size="10.00">canBeReplaced()</text>
<text text-anchor="start" x="213.5" y="-38.5" font-family="Helvetica,sans-Serif" font-size="10.00">+</text>
<text text-anchor="start" x="226.5" y="-38.5" font-family="Helvetica,sans-Serif" font-size="10.00">getDropsForIncompatibleTool()</text>
<polygon fill="#bfbfbf" stroke="#bfbfbf" points="209.5,-78.5 209.5,-78.5 381.5,-78.5 381.5,-78.5 209.5,-78.5"/>
<polygon fill="#bfbfbf" stroke="#bfbfbf" points="209.5,-63.5 209.5,-63.5 381.5,-63.5 381.5,-63.5 209.5,-63.5"/>
<polygon fill="none" stroke="#bfbfbf" points="209.5,-32 209.5,-107 381.5,-107 381.5,-32 209.5,-32"/>
</a>
</g>
</g>
<!-- Node1&#45;&gt;Node6 -->
<g id="edge5_Node000001_Node000006" class="edge">
<title>Node1&#45;&gt;Node6</title>
<g id="a_edge5_Node000001_Node000006"><a xlink:title=" ">
<path fill="none" stroke="#63b8ff" d="M246.72,-165.86C257.43,-144.92 268.07,-124.12 276.67,-107.32"/>
<polygon fill="none" stroke="#63b8ff" points="243.57,-164.34 242.13,-174.83 249.8,-167.52 243.57,-164.34"/>
</a>
</g>
</g>
<!-- Node2 -->
<g id="Node000002" class="node">
<title>Node2</title>
<g id="a_Node000002"><a xlink:href="../../d3/d1e/classpocketmine_1_1block_1_1_flowable.html" target="_top" xlink:title=" ">
<polygon fill="white" stroke="transparent" points="272.5,-504 118.5,-504 118.5,-395 272.5,-395 272.5,-504"/>
<text text-anchor="start" x="128.5" y="-491.5" font-family="Helvetica,sans-Serif" font-size="10.00">pocketmine\block\Flowable</text>
<text text-anchor="start" x="193.5" y="-476.5" font-family="Helvetica,sans-Serif" font-size="10.00"> </text>
<text text-anchor="start" x="122.5" y="-461.5" font-family="Helvetica,sans-Serif" font-size="10.00">+</text>
<text text-anchor="start" x="135.5" y="-461.5" font-family="Helvetica,sans-Serif" font-size="10.00">canBeFlowedInto()</text>
<text text-anchor="start" x="122.5" y="-446.5" font-family="Helvetica,sans-Serif" font-size="10.00">+</text>
<text text-anchor="start" x="135.5" y="-446.5" font-family="Helvetica,sans-Serif" font-size="10.00">canBePlacedAt()</text>
<text text-anchor="start" x="122.5" y="-431.5" font-family="Helvetica,sans-Serif" font-size="10.00">+</text>
<text text-anchor="start" x="135.5" y="-431.5" font-family="Helvetica,sans-Serif" font-size="10.00">getSupportType()</text>
<text text-anchor="start" x="122.5" y="-416.5" font-family="Helvetica,sans-Serif" font-size="10.00">+</text>
<text text-anchor="start" x="135.5" y="-416.5" font-family="Helvetica,sans-Serif" font-size="10.00">isSolid()</text>
<text text-anchor="start" x="122.5" y="-401.5" font-family="Helvetica,sans-Serif" font-size="10.00">#</text>
<text text-anchor="start" x="135.5" y="-401.5" font-family="Helvetica,sans-Serif" font-size="10.00">recalculateCollisionBoxes()</text>
<polygon fill="#666666" stroke="#666666" points="118.5,-486.5 118.5,-486.5 272.5,-486.5 272.5,-486.5 118.5,-486.5"/>
<polygon fill="#666666" stroke="#666666" points="118.5,-471.5 118.5,-471.5 272.5,-471.5 272.5,-471.5 118.5,-471.5"/>
<polygon fill="none" stroke="#666666" points="118.5,-395 118.5,-504 272.5,-504 272.5,-395 118.5,-395"/>
</a>
</g>
</g>
<!-- Node2&#45;&gt;Node1 -->
<g id="edge1_Node000001_Node000002" class="edge">
<title>Node2&#45;&gt;Node1</title>
<g id="a_edge1_Node000001_Node000002"><a xlink:title=" ">
<path fill="none" stroke="#63b8ff" d="M195.5,-384.62C195.5,-376.4 195.5,-367.87 195.5,-359.32"/>
<polygon fill="none" stroke="#63b8ff" points="192,-384.83 195.5,-394.83 199,-384.83 192,-384.83"/>
</a>
</g>
</g>
<!-- Node3 -->
<g id="Node000003" class="node">
<title>Node3</title>
<g id="a_Node000003"><a xlink:href="../../d5/d1b/classpocketmine_1_1block_1_1_transparent.html" target="_top" xlink:title=" ">
<polygon fill="white" stroke="transparent" points="274,-589 117,-589 117,-540 274,-540 274,-589"/>
<text text-anchor="start" x="122.5" y="-576.5" font-family="Helvetica,sans-Serif" font-size="10.00">pocketmine\block\Transparent</text>
<text text-anchor="start" x="194" y="-561.5" font-family="Helvetica,sans-Serif" font-size="10.00"> </text>
<text text-anchor="start" x="137" y="-546.5" font-family="Helvetica,sans-Serif" font-size="10.00">+</text>
<text text-anchor="start" x="165.5" y="-546.5" font-family="Helvetica,sans-Serif" font-size="10.00">isTransparent()</text>
<polygon fill="#666666" stroke="#666666" points="117.5,-571.5 117.5,-571.5 274.5,-571.5 274.5,-571.5 117.5,-571.5"/>
<polygon fill="#666666" stroke="#666666" points="117.5,-556.5 117.5,-556.5 274.5,-556.5 274.5,-556.5 117.5,-556.5"/>
<polygon fill="none" stroke="#666666" points="117,-540 117,-589 274,-589 274,-540 117,-540"/>
</a>
</g>
</g>
<!-- Node3&#45;&gt;Node2 -->
<g id="edge2_Node000002_Node000003" class="edge">
<title>Node3&#45;&gt;Node2</title>
<g id="a_edge2_Node000002_Node000003"><a xlink:title=" ">
<path fill="none" stroke="#63b8ff" d="M195.5,-529.79C195.5,-521.79 195.5,-513.06 195.5,-504.41"/>
<polygon fill="none" stroke="#63b8ff" points="192,-529.81 195.5,-539.81 199,-529.81 192,-529.81"/>
</a>
</g>
</g>
<!-- Node4 -->
<g id="Node000004" class="node">
<title>Node4</title>
<g id="a_Node000004"><a xlink:href="../../d7/d27/classpocketmine_1_1block_1_1_block.html" target="_top" xlink:title=" ">
<polygon fill="white" stroke="transparent" points="280,-989 111,-989 111,-625 280,-625 280,-989"/>
<text text-anchor="start" x="137.5" y="-977" font-family="Helvetica,sans-Serif" font-size="10.00">pocketmine\block\Block</text>
<text text-anchor="start" x="115.5" y="-962" font-family="Helvetica,sans-Serif" font-size="10.00">+</text>
<text text-anchor="start" x="128.5" y="-962" font-family="Helvetica,sans-Serif" font-size="10.00">EMPTY_STATE_ID</text>
<text text-anchor="start" x="115.5" y="-947" font-family="Helvetica,sans-Serif" font-size="10.00">+</text>
<text text-anchor="start" x="128.5" y="-947" font-family="Helvetica,sans-Serif" font-size="10.00">INTERNAL_STATE_DATA_BITS</text>
<text text-anchor="start" x="115.5" y="-932" font-family="Helvetica,sans-Serif" font-size="10.00">+</text>
<text text-anchor="start" x="128.5" y="-932" font-family="Helvetica,sans-Serif" font-size="10.00">INTERNAL_STATE_DATA_MASK</text>
<text text-anchor="start" x="115.5" y="-917" font-family="Helvetica,sans-Serif" font-size="10.00">#</text>
<text text-anchor="start" x="128.5" y="-917" font-family="Helvetica,sans-Serif" font-size="10.00">$collisionBoxes</text>
<text text-anchor="start" x="115.5" y="-902" font-family="Helvetica,sans-Serif" font-size="10.00">#</text>
<text text-anchor="start" x="128.5" y="-902" font-family="Helvetica,sans-Serif" font-size="10.00">$fallbackName</text>
<text text-anchor="start" x="115.5" y="-887" font-family="Helvetica,sans-Serif" font-size="10.00">#</text>
<text text-anchor="start" x="128.5" y="-887" font-family="Helvetica,sans-Serif" font-size="10.00">$idInfo</text>
<text text-anchor="start" x="115.5" y="-872" font-family="Helvetica,sans-Serif" font-size="10.00">#</text>
<text text-anchor="start" x="128.5" y="-872" font-family="Helvetica,sans-Serif" font-size="10.00">$position</text>
<text text-anchor="start" x="115.5" y="-857" font-family="Helvetica,sans-Serif" font-size="10.00">#</text>
<text text-anchor="start" x="128.5" y="-857" font-family="Helvetica,sans-Serif" font-size="10.00">$typeInfo</text>
<text text-anchor="start" x="115.5" y="-842" font-family="Helvetica,sans-Serif" font-size="10.00">+</text>
<text text-anchor="start" x="128.5" y="-842" font-family="Helvetica,sans-Serif" font-size="10.00">__construct()</text>
<text text-anchor="start" x="115.5" y="-827" font-family="Helvetica,sans-Serif" font-size="10.00">+</text>
<text text-anchor="start" x="128.5" y="-827" font-family="Helvetica,sans-Serif" font-size="10.00">__clone()</text>
<text text-anchor="start" x="115.5" y="-812" font-family="Helvetica,sans-Serif" font-size="10.00">+</text>
<text text-anchor="start" x="128.5" y="-812" font-family="Helvetica,sans-Serif" font-size="10.00">__toString()</text>
<text text-anchor="start" x="115.5" y="-797" font-family="Helvetica,sans-Serif" font-size="10.00">+</text>
<text text-anchor="start" x="128.5" y="-797" font-family="Helvetica,sans-Serif" font-size="10.00">addVelocityToEntity()</text>
<text text-anchor="start" x="115.5" y="-782" font-family="Helvetica,sans-Serif" font-size="10.00">+</text>
<text text-anchor="start" x="128.5" y="-782" font-family="Helvetica,sans-Serif" font-size="10.00">asItem()</text>
<text text-anchor="start" x="115.5" y="-767" font-family="Helvetica,sans-Serif" font-size="10.00">+</text>
<text text-anchor="start" x="128.5" y="-767" font-family="Helvetica,sans-Serif" font-size="10.00">blocksDirectSkyLight()</text>
<text text-anchor="start" x="115.5" y="-752" font-family="Helvetica,sans-Serif" font-size="10.00">+</text>
<text text-anchor="start" x="128.5" y="-752" font-family="Helvetica,sans-Serif" font-size="10.00">burnsForever()</text>
<text text-anchor="start" x="115.5" y="-737" font-family="Helvetica,sans-Serif" font-size="10.00">+</text>
<text text-anchor="start" x="128.5" y="-737" font-family="Helvetica,sans-Serif" font-size="10.00">calculateIntercept()</text>
<text text-anchor="start" x="115.5" y="-722" font-family="Helvetica,sans-Serif" font-size="10.00">+</text>
<text text-anchor="start" x="128.5" y="-722" font-family="Helvetica,sans-Serif" font-size="10.00">canBeFlowedInto()</text>
<text text-anchor="start" x="115.5" y="-707" font-family="Helvetica,sans-Serif" font-size="10.00">+</text>
<text text-anchor="start" x="128.5" y="-707" font-family="Helvetica,sans-Serif" font-size="10.00">canBePlaced()</text>
<text text-anchor="start" x="128.5" y="-692" font-family="Helvetica,sans-Serif" font-size="10.00">and 60 more...</text>
<text text-anchor="start" x="115.5" y="-677" font-family="Helvetica,sans-Serif" font-size="10.00">#</text>
<text text-anchor="start" x="128.5" y="-677" font-family="Helvetica,sans-Serif" font-size="10.00">describeBlockOnlyState()</text>
<text text-anchor="start" x="115.5" y="-662" font-family="Helvetica,sans-Serif" font-size="10.00">#</text>
<text text-anchor="start" x="128.5" y="-662" font-family="Helvetica,sans-Serif" font-size="10.00">getAdjacentSupportType()</text>
<text text-anchor="start" x="115.5" y="-647" font-family="Helvetica,sans-Serif" font-size="10.00">#</text>
<text text-anchor="start" x="128.5" y="-647" font-family="Helvetica,sans-Serif" font-size="10.00">getXpDropAmount()</text>
<text text-anchor="start" x="115.5" y="-632" font-family="Helvetica,sans-Serif" font-size="10.00">#</text>
<text text-anchor="start" x="128.5" y="-632" font-family="Helvetica,sans-Serif" font-size="10.00">recalculateCollisionBoxes()</text>
<polygon fill="#bfbfbf" stroke="#bfbfbf" points="111.5,-972 111.5,-972 280.5,-972 280.5,-972 111.5,-972"/>
<polygon fill="#bfbfbf" stroke="#bfbfbf" points="111.5,-852 111.5,-852 126.5,-852 126.5,-852 111.5,-852"/>
<polygon fill="#bfbfbf" stroke="#bfbfbf" points="126.5,-852 126.5,-852 280.5,-852 280.5,-852 126.5,-852"/>
<polygon fill="none" stroke="#bfbfbf" points="111,-625 111,-989 280,-989 280,-625 111,-625"/>
</a>
</g>
</g>
<!-- Node4&#45;&gt;Node3 -->
<g id="edge3_Node000003_Node000004" class="edge">
<title>Node4&#45;&gt;Node3</title>
<g id="a_edge3_Node000003_Node000004"><a xlink:title=" ">
<path fill="none" stroke="#63b8ff" d="M195.5,-614.93C195.5,-605.2 195.5,-596.44 195.5,-589.09"/>
<polygon fill="none" stroke="#63b8ff" points="192,-614.95 195.5,-624.95 199,-614.95 192,-614.95"/>
</a>
</g>
</g>
</g>
</svg>
