<?xml version="1.0" encoding="UTF-8" standalone="no"?>
<!DOCTYPE svg PUBLIC "-//W3C//DTD SVG 1.1//EN"
 "http://www.w3.org/Graphics/SVG/1.1/DTD/svg11.dtd">
<!-- Generated by graphviz version 2.43.0 (0)
 -->
<!-- Title: pocketmine\block\DoublePlant Pages: 1 -->
<!--zoomable 871 -->
<svg id="main" version="1.1" xmlns="http://www.w3.org/2000/svg" xmlns:xlink="http://www.w3.org/1999/xlink" xml:space="preserve" onload="init(evt)">
<style type="text/css"><![CDATA[
.edge:hover path { stroke: red; }
.edge:hover polygon { stroke: red; fill: red; }
]]></style>
<script type="text/javascript"><![CDATA[
var edges = document.getElementsByTagName('g');
if (edges && edges.length) {
  for (var i=0;i<edges.length;i++) {
    if (edges[i].id.substr(0,4)=='edge') {
      edges[i].setAttribute('class','edge');
    }
  }
}
]]></script>
        <defs>
                <circle id="rim" cx="0" cy="0" r="7"/>
                <circle id="rim2" cx="0" cy="0" r="3.5"/>
                <g id="zoomPlus">
                        <use xlink:href="#rim" fill="#404040">
                                <set attributeName="fill" to="#808080" begin="zoomplus.mouseover" end="zoomplus.mouseout"/>
                        </use>
                        <path d="M-4,0h8M0,-4v8" fill="none" stroke="white" stroke-width="1.5" pointer-events="none"/>
                </g>
                <g id="zoomMin">
                        <use xlink:href="#rim" fill="#404040">
                                <set attributeName="fill" to="#808080" begin="zoomminus.mouseover" end="zoomminus.mouseout"/>
                        </use>
                        <path d="M-4,0h8" fill="none" stroke="white" stroke-width="1.5" pointer-events="none"/>
                </g>
                <g id="dirArrow">
                        <path fill="none" stroke="white" stroke-width="1.5" d="M0,-3.0v7 M-2.5,-0.5L0,-3.0L2.5,-0.5"/>
                </g>
               <g id="resetDef">
                       <use xlink:href="#rim2" fill="#404040">
                               <set attributeName="fill" to="#808080" begin="reset.mouseover" end="reset.mouseout"/>
                       </use>
               </g>
        </defs>

<script type="text/javascript">
var viewWidth = 402;
var viewHeight = 871;
var sectionId = 'dynsection-0';
</script>
<script xlink:href="../../svgpan.js"/>
<svg id="graph" class="graph">
<g id="viewport">
<title>pocketmine\block\DoublePlant</title>
<polygon fill="white" stroke="transparent" points="-4,4 -4,-867 397.5,-867 397.5,4 -4,4"/>
<!-- Node1 -->
<g id="node1" class="node">
<title>Node1</title>
<g id="a_node1"><a xlink:title=" ">
<polygon fill="#bfbfbf" stroke="black" points="119,-160.5 119,-316.5 284,-316.5 284,-160.5 119,-160.5"/>
<text text-anchor="middle" x="201.5" y="-304.5" font-family="Helvetica,sans-Serif" font-size="10.00">pocketmine\block\DoublePlant</text>
<polyline fill="none" stroke="black" points="119,-297.5 284,-297.5 "/>
<text text-anchor="start" x="127" y="-285.5" font-family="Helvetica,sans-Serif" font-size="10.00"># $top</text>
<polyline fill="none" stroke="black" points="119,-278.5 284,-278.5 "/>
<text text-anchor="start" x="127" y="-266.5" font-family="Helvetica,sans-Serif" font-size="10.00">+ getAffectedBlocks()</text>
<text text-anchor="start" x="127" y="-255.5" font-family="Helvetica,sans-Serif" font-size="10.00">+ getDrops()</text>
<text text-anchor="start" x="127" y="-244.5" font-family="Helvetica,sans-Serif" font-size="10.00">+ getFlameEncouragement()</text>
<text text-anchor="start" x="127" y="-233.5" font-family="Helvetica,sans-Serif" font-size="10.00">+ getFlammability()</text>
<text text-anchor="start" x="127" y="-222.5" font-family="Helvetica,sans-Serif" font-size="10.00">+ isTop()</text>
<text text-anchor="start" x="127" y="-211.5" font-family="Helvetica,sans-Serif" font-size="10.00">+ isValidHalfPlant()</text>
<text text-anchor="start" x="127" y="-200.5" font-family="Helvetica,sans-Serif" font-size="10.00">+ onNearbyBlockChange()</text>
<text text-anchor="start" x="127" y="-189.5" font-family="Helvetica,sans-Serif" font-size="10.00">+ place()</text>
<text text-anchor="start" x="127" y="-178.5" font-family="Helvetica,sans-Serif" font-size="10.00">+ setTop()</text>
<text text-anchor="start" x="127" y="-167.5" font-family="Helvetica,sans-Serif" font-size="10.00"># describeBlockOnlyState()</text>
</a>
</g>
</g>
<!-- Node5 -->
<g id="node5" class="node">
<title>Node5</title>
<g id="a_node5"><a xlink:href="../../da/d01/classpocketmine_1_1block_1_1_double_pitcher_crop.html" target="_top" xlink:title=" ">
<polygon fill="white" stroke="#bfbfbf" points="0,-0.5 0,-123.5 197,-123.5 197,-0.5 0,-0.5"/>
<text text-anchor="middle" x="98.5" y="-111.5" font-family="Helvetica,sans-Serif" font-size="10.00">pocketmine\block\DoublePitcherCrop</text>
<polyline fill="none" stroke="#bfbfbf" points="0,-104.5 197,-104.5 "/>
<text text-anchor="start" x="8" y="-92.5" font-family="Helvetica,sans-Serif" font-size="10.00">+ MAX_AGE</text>
<polyline fill="none" stroke="#bfbfbf" points="0,-85.5 197,-85.5 "/>
<text text-anchor="start" x="8" y="-73.5" font-family="Helvetica,sans-Serif" font-size="10.00">+ asItem()</text>
<text text-anchor="start" x="8" y="-62.5" font-family="Helvetica,sans-Serif" font-size="10.00">+ describeBlockOnlyState()</text>
<text text-anchor="start" x="8" y="-51.5" font-family="Helvetica,sans-Serif" font-size="10.00">+ getDropsForCompatibleTool()</text>
<text text-anchor="start" x="8" y="-40.5" font-family="Helvetica,sans-Serif" font-size="10.00">+ onInteract()</text>
<text text-anchor="start" x="8" y="-29.5" font-family="Helvetica,sans-Serif" font-size="10.00">+ onRandomTick()</text>
<text text-anchor="start" x="8" y="-18.5" font-family="Helvetica,sans-Serif" font-size="10.00">+ ticksRandomly()</text>
<text text-anchor="start" x="8" y="-7.5" font-family="Helvetica,sans-Serif" font-size="10.00"># recalculateCollisionBoxes()</text>
</a>
</g>
</g>
<!-- Node1&#45;&gt;Node5 -->
<g id="edge4" class="edge">
<title>Node1&#45;&gt;Node5</title>
<path fill="none" stroke="midnightblue" d="M150.89,-151.75C145.28,-142.26 139.67,-132.74 134.3,-123.65"/>
<polygon fill="none" stroke="midnightblue" points="147.93,-153.62 156.02,-160.45 153.95,-150.06 147.93,-153.62"/>
</g>
<!-- Node6 -->
<g id="node6" class="node">
<title>Node6</title>
<g id="a_node6"><a xlink:href="../../dc/d19/classpocketmine_1_1block_1_1_double_tall_grass.html" target="_top" xlink:title=" ">
<polygon fill="white" stroke="#bfbfbf" points="215.5,-22.5 215.5,-101.5 393.5,-101.5 393.5,-22.5 215.5,-22.5"/>
<text text-anchor="start" x="223.5" y="-89.5" font-family="Helvetica,sans-Serif" font-size="10.00">pocketmine\block\DoubleTall</text>
<text text-anchor="middle" x="304.5" y="-78.5" font-family="Helvetica,sans-Serif" font-size="10.00">Grass</text>
<polyline fill="none" stroke="#bfbfbf" points="215.5,-71.5 393.5,-71.5 "/>
<text text-anchor="middle" x="304.5" y="-59.5" font-family="Helvetica,sans-Serif" font-size="10.00"> </text>
<polyline fill="none" stroke="#bfbfbf" points="215.5,-52.5 393.5,-52.5 "/>
<text text-anchor="start" x="223.5" y="-40.5" font-family="Helvetica,sans-Serif" font-size="10.00">+ canBeReplaced()</text>
<text text-anchor="start" x="223.5" y="-29.5" font-family="Helvetica,sans-Serif" font-size="10.00">+ getDropsForIncompatibleTool()</text>
</a>
</g>
</g>
<!-- Node1&#45;&gt;Node6 -->
<g id="edge5" class="edge">
<title>Node1&#45;&gt;Node6</title>
<path fill="none" stroke="midnightblue" d="M252.33,-151.39C262.57,-134.03 272.86,-116.6 281.56,-101.87"/>
<polygon fill="none" stroke="midnightblue" points="249.05,-150.06 246.98,-160.45 255.07,-153.62 249.05,-150.06"/>
</g>
<!-- Node2 -->
<g id="node2" class="node">
<title>Node2</title>
<g id="a_node2"><a xlink:href="../../d3/d1e/classpocketmine_1_1block_1_1_flowable.html" target="_top" xlink:title=" ">
<polygon fill="white" stroke="black" points="121,-353.5 121,-443.5 282,-443.5 282,-353.5 121,-353.5"/>
<text text-anchor="middle" x="201.5" y="-431.5" font-family="Helvetica,sans-Serif" font-size="10.00">pocketmine\block\Flowable</text>
<polyline fill="none" stroke="black" points="121,-424.5 282,-424.5 "/>
<text text-anchor="middle" x="201.5" y="-412.5" font-family="Helvetica,sans-Serif" font-size="10.00"> </text>
<polyline fill="none" stroke="black" points="121,-405.5 282,-405.5 "/>
<text text-anchor="start" x="129" y="-393.5" font-family="Helvetica,sans-Serif" font-size="10.00">+ canBeFlowedInto()</text>
<text text-anchor="start" x="129" y="-382.5" font-family="Helvetica,sans-Serif" font-size="10.00">+ getSupportType()</text>
<text text-anchor="start" x="129" y="-371.5" font-family="Helvetica,sans-Serif" font-size="10.00">+ isSolid()</text>
<text text-anchor="start" x="129" y="-360.5" font-family="Helvetica,sans-Serif" font-size="10.00"># recalculateCollisionBoxes()</text>
</a>
</g>
</g>
<!-- Node2&#45;&gt;Node1 -->
<g id="edge1" class="edge">
<title>Node2&#45;&gt;Node1</title>
<path fill="none" stroke="midnightblue" d="M201.5,-343.23C201.5,-334.62 201.5,-325.57 201.5,-316.56"/>
<polygon fill="none" stroke="midnightblue" points="198,-343.49 201.5,-353.49 205,-343.49 198,-343.49"/>
</g>
<!-- Node3 -->
<g id="node3" class="node">
<title>Node3</title>
<g id="a_node3"><a xlink:href="../../d5/d1b/classpocketmine_1_1block_1_1_transparent.html" target="_top" xlink:title=" ">
<polygon fill="white" stroke="black" points="120,-480.5 120,-537.5 283,-537.5 283,-480.5 120,-480.5"/>
<text text-anchor="middle" x="201.5" y="-525.5" font-family="Helvetica,sans-Serif" font-size="10.00">pocketmine\block\Transparent</text>
<polyline fill="none" stroke="black" points="120,-518.5 283,-518.5 "/>
<text text-anchor="middle" x="201.5" y="-506.5" font-family="Helvetica,sans-Serif" font-size="10.00"> </text>
<polyline fill="none" stroke="black" points="120,-499.5 283,-499.5 "/>
<text text-anchor="start" x="128" y="-487.5" font-family="Helvetica,sans-Serif" font-size="10.00">+ isTransparent()</text>
</a>
</g>
</g>
<!-- Node3&#45;&gt;Node2 -->
<g id="edge2" class="edge">
<title>Node3&#45;&gt;Node2</title>
<path fill="none" stroke="midnightblue" d="M201.5,-470.21C201.5,-461.61 201.5,-452.39 201.5,-443.55"/>
<polygon fill="none" stroke="midnightblue" points="198,-470.34 201.5,-480.34 205,-470.34 198,-470.34"/>
</g>
<!-- Node4 -->
<g id="node4" class="node">
<title>Node4</title>
<g id="a_node4"><a xlink:href="../../d7/d27/classpocketmine_1_1block_1_1_block.html" target="_top" xlink:title=" ">
<polygon fill="white" stroke="#bfbfbf" points="113.5,-574.5 113.5,-862.5 289.5,-862.5 289.5,-574.5 113.5,-574.5"/>
<text text-anchor="middle" x="201.5" y="-850.5" font-family="Helvetica,sans-Serif" font-size="10.00">pocketmine\block\Block</text>
<polyline fill="none" stroke="#bfbfbf" points="113.5,-843.5 289.5,-843.5 "/>
<text text-anchor="start" x="121.5" y="-831.5" font-family="Helvetica,sans-Serif" font-size="10.00">+ EMPTY_STATE_ID</text>
<text text-anchor="start" x="121.5" y="-820.5" font-family="Helvetica,sans-Serif" font-size="10.00">+ INTERNAL_STATE_DATA_BITS</text>
<text text-anchor="start" x="121.5" y="-809.5" font-family="Helvetica,sans-Serif" font-size="10.00">+ INTERNAL_STATE_DATA_MASK</text>
<text text-anchor="start" x="121.5" y="-798.5" font-family="Helvetica,sans-Serif" font-size="10.00"># $collisionBoxes</text>
<text text-anchor="start" x="121.5" y="-787.5" font-family="Helvetica,sans-Serif" font-size="10.00"># $fallbackName</text>
<text text-anchor="start" x="121.5" y="-776.5" font-family="Helvetica,sans-Serif" font-size="10.00"># $idInfo</text>
<text text-anchor="start" x="121.5" y="-765.5" font-family="Helvetica,sans-Serif" font-size="10.00"># $position</text>
<text text-anchor="start" x="121.5" y="-754.5" font-family="Helvetica,sans-Serif" font-size="10.00"># $typeInfo</text>
<polyline fill="none" stroke="#bfbfbf" points="113.5,-747.5 289.5,-747.5 "/>
<text text-anchor="start" x="121.5" y="-735.5" font-family="Helvetica,sans-Serif" font-size="10.00">+ __construct()</text>
<text text-anchor="start" x="121.5" y="-724.5" font-family="Helvetica,sans-Serif" font-size="10.00">+ __clone()</text>
<text text-anchor="start" x="121.5" y="-713.5" font-family="Helvetica,sans-Serif" font-size="10.00">+ __toString()</text>
<text text-anchor="start" x="121.5" y="-702.5" font-family="Helvetica,sans-Serif" font-size="10.00">+ addVelocityToEntity()</text>
<text text-anchor="start" x="121.5" y="-691.5" font-family="Helvetica,sans-Serif" font-size="10.00">+ asItem()</text>
<text text-anchor="start" x="121.5" y="-680.5" font-family="Helvetica,sans-Serif" font-size="10.00">+ blocksDirectSkyLight()</text>
<text text-anchor="start" x="121.5" y="-669.5" font-family="Helvetica,sans-Serif" font-size="10.00">+ burnsForever()</text>
<text text-anchor="start" x="121.5" y="-658.5" font-family="Helvetica,sans-Serif" font-size="10.00">+ calculateIntercept()</text>
<text text-anchor="start" x="121.5" y="-647.5" font-family="Helvetica,sans-Serif" font-size="10.00">+ canBeFlowedInto()</text>
<text text-anchor="start" x="121.5" y="-636.5" font-family="Helvetica,sans-Serif" font-size="10.00">+ canBePlaced()</text>
<text text-anchor="start" x="121.5" y="-625.5" font-family="Helvetica,sans-Serif" font-size="10.00">and 60 more...</text>
<text text-anchor="start" x="121.5" y="-614.5" font-family="Helvetica,sans-Serif" font-size="10.00"># describeBlockOnlyState()</text>
<text text-anchor="start" x="121.5" y="-603.5" font-family="Helvetica,sans-Serif" font-size="10.00"># getAdjacentSupportType()</text>
<text text-anchor="start" x="121.5" y="-592.5" font-family="Helvetica,sans-Serif" font-size="10.00"># getXpDropAmount()</text>
<text text-anchor="start" x="121.5" y="-581.5" font-family="Helvetica,sans-Serif" font-size="10.00"># recalculateCollisionBoxes()</text>
</a>
</g>
</g>
<!-- Node4&#45;&gt;Node3 -->
<g id="edge3" class="edge">
<title>Node4&#45;&gt;Node3</title>
<path fill="none" stroke="midnightblue" d="M201.5,-564.17C201.5,-554.35 201.5,-545.31 201.5,-537.54"/>
<polygon fill="none" stroke="midnightblue" points="198,-564.23 201.5,-574.23 205,-564.23 198,-564.23"/>
</g>
</g>
</svg>
        <g id="navigator" transform="translate(0 0)" fill="#404254">
                <rect fill="#f2f5e9" fill-opacity="0.5" stroke="#606060" stroke-width=".5" x="0" y="0" width="60" height="60"/>
                <use id="zoomplus" xlink:href="#zoomPlus" x="17" y="9" onmousedown="handleZoom(evt,'in')"/>
                <use id="zoomminus" xlink:href="#zoomMin" x="42" y="9" onmousedown="handleZoom(evt,'out')"/>
                <use id="reset" xlink:href="#resetDef" x="30" y="36" onmousedown="handleReset()"/>
                <g id="arrowUp" xlink:href="#dirArrow" transform="translate(30 24)" onmousedown="handlePan(0,-1)">
                  <use xlink:href="#rim" fill="#404040">
                        <set attributeName="fill" to="#808080" begin="arrowUp.mouseover" end="arrowUp.mouseout"/>
                  </use>
                  <path fill="none" stroke="white" stroke-width="1.5" d="M0,-3.0v7 M-2.5,-0.5L0,-3.0L2.5,-0.5"/>
                </g>
                <g id="arrowRight" xlink:href="#dirArrow" transform="rotate(90) translate(36 -43)" onmousedown="handlePan(1,0)">
                  <use xlink:href="#rim" fill="#404040">
                        <set attributeName="fill" to="#808080" begin="arrowRight.mouseover" end="arrowRight.mouseout"/>
                  </use>
                  <path fill="none" stroke="white" stroke-width="1.5" d="M0,-3.0v7 M-2.5,-0.5L0,-3.0L2.5,-0.5"/>
                </g>
                <g id="arrowDown" xlink:href="#dirArrow" transform="rotate(180) translate(-30 -48)" onmousedown="handlePan(0,1)">
                  <use xlink:href="#rim" fill="#404040">
                        <set attributeName="fill" to="#808080" begin="arrowDown.mouseover" end="arrowDown.mouseout"/>
                  </use>
                  <path fill="none" stroke="white" stroke-width="1.5" d="M0,-3.0v7 M-2.5,-0.5L0,-3.0L2.5,-0.5"/>
                </g>
                <g id="arrowLeft" xlink:href="#dirArrow" transform="rotate(270) translate(-36 17)" onmousedown="handlePan(-1,0)">
                  <use xlink:href="#rim" fill="#404040">
                        <set attributeName="fill" to="#808080" begin="arrowLeft.mouseover" end="arrowLeft.mouseout"/>
                  </use>
                  <path fill="none" stroke="white" stroke-width="1.5" d="M0,-3.0v7 M-2.5,-0.5L0,-3.0L2.5,-0.5"/>
                </g>
        </g>
        <svg viewBox="0 0 15 15" width="100%" height="30px" preserveAspectRatio="xMaxYMin meet">
         <g id="arrow_out" transform="scale(0.3 0.3)">
          <a xlink:href="classpocketmine_1_1block_1_1_double_plant__inherit__graph_org.svg" target="_base">
           <rect id="button" ry="5" rx="5" y="6" x="6" height="38" width="38"
                fill="#f2f5e9" fill-opacity="0.5" stroke="#606060" stroke-width="1.0"/>
           <path id="arrow"
             d="M 11.500037,31.436501 C 11.940474,20.09759 22.043105,11.32322 32.158766,21.979434 L 37.068811,17.246167 C 37.068811,17.246167 37.088388,32 37.088388,32 L 22.160133,31.978069 C 22.160133,31.978069 26.997745,27.140456 26.997745,27.140456 C 18.528582,18.264221 13.291696,25.230495 11.500037,31.436501 z"
             style="fill:#404040;"/>
          </a>
         </g>
        </svg>
</svg>
