<?xml version="1.0" encoding="UTF-8" standalone="no"?>
<!DOCTYPE svg PUBLIC "-//W3C//DTD SVG 1.1//EN"
 "http://www.w3.org/Graphics/SVG/1.1/DTD/svg11.dtd">
<!-- Generated by graphviz version 2.43.0 (0)
 -->
<!-- Title: pocketmine\network\mcpe\protocol\LecternUpdatePacket Pages: 1 -->
<!--zoomable 562 -->
<svg id="main" version="1.1" xmlns="http://www.w3.org/2000/svg" xmlns:xlink="http://www.w3.org/1999/xlink" xml:space="preserve" onload="init(evt)">
<style type="text/css"><![CDATA[
.edge:hover path { stroke: red; }
.edge:hover polygon { stroke: red; fill: red; }
]]></style>
<script type="text/javascript"><![CDATA[
var edges = document.getElementsByTagName('g');
if (edges && edges.length) {
  for (var i=0;i<edges.length;i++) {
    if (edges[i].id.substr(0,4)=='edge') {
      edges[i].setAttribute('class','edge');
    }
  }
}
]]></script>
        <defs>
                <circle id="rim" cx="0" cy="0" r="7"/>
                <circle id="rim2" cx="0" cy="0" r="3.5"/>
                <g id="zoomPlus">
                        <use xlink:href="#rim" fill="#404040">
                                <set attributeName="fill" to="#808080" begin="zoomplus.mouseover" end="zoomplus.mouseout"/>
                        </use>
                        <path d="M-4,0h8M0,-4v8" fill="none" stroke="white" stroke-width="1.5" pointer-events="none"/>
                </g>
                <g id="zoomMin">
                        <use xlink:href="#rim" fill="#404040">
                                <set attributeName="fill" to="#808080" begin="zoomminus.mouseover" end="zoomminus.mouseout"/>
                        </use>
                        <path d="M-4,0h8" fill="none" stroke="white" stroke-width="1.5" pointer-events="none"/>
                </g>
                <g id="dirArrow">
                        <path fill="none" stroke="white" stroke-width="1.5" d="M0,-3.0v7 M-2.5,-0.5L0,-3.0L2.5,-0.5"/>
                </g>
               <g id="resetDef">
                       <use xlink:href="#rim2" fill="#404040">
                               <set attributeName="fill" to="#808080" begin="reset.mouseover" end="reset.mouseout"/>
                       </use>
               </g>
        </defs>

<script type="text/javascript">
var viewWidth = 580;
var viewHeight = 562;
var sectionId = 'dynsection-1';
</script>
<script xlink:href="../../svgpan.js"/>
<svg id="graph" class="graph">
<g id="viewport">
<title>pocketmine\network\mcpe\protocol\LecternUpdatePacket</title>
<polygon fill="white" stroke="transparent" points="-4,4 -4,-558 575.5,-558 575.5,4 -4,4"/>
<!-- Node1 -->
<g id="node1" class="node">
<title>Node1</title>
<g id="a_node1"><a xlink:title=" ">
<polygon fill="#bfbfbf" stroke="black" points="246,-0.5 246,-134.5 410,-134.5 410,-0.5 246,-0.5"/>
<text text-anchor="start" x="254" y="-122.5" font-family="Helvetica,sans-Serif" font-size="10.00">pocketmine\network</text>
<text text-anchor="start" x="254" y="-111.5" font-family="Helvetica,sans-Serif" font-size="10.00">\mcpe\protocol\LecternUpdate</text>
<text text-anchor="middle" x="328" y="-100.5" font-family="Helvetica,sans-Serif" font-size="10.00">Packet</text>
<polyline fill="none" stroke="black" points="246,-93.5 410,-93.5 "/>
<text text-anchor="start" x="254" y="-81.5" font-family="Helvetica,sans-Serif" font-size="10.00">+ $dropBook</text>
<text text-anchor="start" x="254" y="-70.5" font-family="Helvetica,sans-Serif" font-size="10.00">+ $page</text>
<text text-anchor="start" x="254" y="-59.5" font-family="Helvetica,sans-Serif" font-size="10.00">+ $totalPages</text>
<polyline fill="none" stroke="black" points="246,-52.5 410,-52.5 "/>
<text text-anchor="start" x="254" y="-40.5" font-family="Helvetica,sans-Serif" font-size="10.00">+ handle()</text>
<text text-anchor="start" x="254" y="-29.5" font-family="Helvetica,sans-Serif" font-size="10.00">+ create()</text>
<text text-anchor="start" x="254" y="-18.5" font-family="Helvetica,sans-Serif" font-size="10.00"># decodePayload()</text>
<text text-anchor="start" x="254" y="-7.5" font-family="Helvetica,sans-Serif" font-size="10.00"># encodePayload()</text>
</a>
</g>
</g>
<!-- Node2 -->
<g id="node2" class="node">
<title>Node2</title>
<g id="a_node2"><a xlink:href="../../d1/ddb/classpocketmine_1_1network_1_1mcpe_1_1protocol_1_1_data_packet.html" target="_top" xlink:title=" ">
<polygon fill="white" stroke="#bfbfbf" points="172.5,-182.5 172.5,-371.5 319.5,-371.5 319.5,-182.5 172.5,-182.5"/>
<text text-anchor="start" x="180.5" y="-359.5" font-family="Helvetica,sans-Serif" font-size="10.00">pocketmine\network</text>
<text text-anchor="middle" x="246" y="-348.5" font-family="Helvetica,sans-Serif" font-size="10.00">\mcpe\protocol\DataPacket</text>
<polyline fill="none" stroke="#bfbfbf" points="172.5,-341.5 319.5,-341.5 "/>
<text text-anchor="start" x="180.5" y="-329.5" font-family="Helvetica,sans-Serif" font-size="10.00">+ $recipientSubId</text>
<text text-anchor="start" x="180.5" y="-318.5" font-family="Helvetica,sans-Serif" font-size="10.00">+ $senderSubId</text>
<polyline fill="none" stroke="#bfbfbf" points="172.5,-311.5 319.5,-311.5 "/>
<text text-anchor="start" x="180.5" y="-299.5" font-family="Helvetica,sans-Serif" font-size="10.00">+ __get()</text>
<text text-anchor="start" x="180.5" y="-288.5" font-family="Helvetica,sans-Serif" font-size="10.00">+ __set()</text>
<text text-anchor="start" x="180.5" y="-277.5" font-family="Helvetica,sans-Serif" font-size="10.00">+ canBeSentBeforeLogin()</text>
<text text-anchor="start" x="180.5" y="-266.5" font-family="Helvetica,sans-Serif" font-size="10.00">+ decode()</text>
<text text-anchor="start" x="180.5" y="-255.5" font-family="Helvetica,sans-Serif" font-size="10.00">+ encode()</text>
<text text-anchor="start" x="180.5" y="-244.5" font-family="Helvetica,sans-Serif" font-size="10.00">+ getName()</text>
<text text-anchor="start" x="180.5" y="-233.5" font-family="Helvetica,sans-Serif" font-size="10.00">+ pid()</text>
<text text-anchor="start" x="180.5" y="-222.5" font-family="Helvetica,sans-Serif" font-size="10.00"># decodeHeader()</text>
<text text-anchor="start" x="180.5" y="-211.5" font-family="Helvetica,sans-Serif" font-size="10.00"># decodePayload()</text>
<text text-anchor="start" x="180.5" y="-200.5" font-family="Helvetica,sans-Serif" font-size="10.00"># encodeHeader()</text>
<text text-anchor="start" x="180.5" y="-189.5" font-family="Helvetica,sans-Serif" font-size="10.00"># encodePayload()</text>
</a>
</g>
</g>
<!-- Node2&#45;&gt;Node1 -->
<g id="edge1" class="edge">
<title>Node2&#45;&gt;Node1</title>
<path fill="none" stroke="midnightblue" d="M286.78,-172.8C291.93,-159.78 297.08,-146.76 301.9,-134.53"/>
<polygon fill="none" stroke="midnightblue" points="283.46,-171.68 283.04,-182.27 289.97,-174.25 283.46,-171.68"/>
</g>
<!-- Node3 -->
<g id="node3" class="node">
<title>Node3</title>
<g id="a_node3"><a xlink:href="../../d4/d5d/interfacepocketmine_1_1network_1_1mcpe_1_1protocol_1_1_packet.html" target="_top" xlink:title=" ">
<polygon fill="white" stroke="#bfbfbf" points="69,-430.5 69,-553.5 215,-553.5 215,-430.5 69,-430.5"/>
<text text-anchor="start" x="77" y="-541.5" font-family="Helvetica,sans-Serif" font-size="10.00">pocketmine\network</text>
<text text-anchor="middle" x="142" y="-530.5" font-family="Helvetica,sans-Serif" font-size="10.00">\mcpe\protocol\Packet</text>
<polyline fill="none" stroke="#bfbfbf" points="69,-523.5 215,-523.5 "/>
<text text-anchor="middle" x="142" y="-511.5" font-family="Helvetica,sans-Serif" font-size="10.00"> </text>
<polyline fill="none" stroke="#bfbfbf" points="69,-504.5 215,-504.5 "/>
<text text-anchor="start" x="77" y="-492.5" font-family="Helvetica,sans-Serif" font-size="10.00">+ canBeSentBeforeLogin()</text>
<text text-anchor="start" x="77" y="-481.5" font-family="Helvetica,sans-Serif" font-size="10.00">+ decode()</text>
<text text-anchor="start" x="77" y="-470.5" font-family="Helvetica,sans-Serif" font-size="10.00">+ encode()</text>
<text text-anchor="start" x="77" y="-459.5" font-family="Helvetica,sans-Serif" font-size="10.00">+ getName()</text>
<text text-anchor="start" x="77" y="-448.5" font-family="Helvetica,sans-Serif" font-size="10.00">+ handle()</text>
<text text-anchor="start" x="77" y="-437.5" font-family="Helvetica,sans-Serif" font-size="10.00">+ pid()</text>
</a>
</g>
</g>
<!-- Node3&#45;&gt;Node2 -->
<g id="edge2" class="edge">
<title>Node3&#45;&gt;Node2</title>
<path fill="none" stroke="midnightblue" d="M176.12,-421.13C183.81,-405.37 192.1,-388.4 200.18,-371.84"/>
<polygon fill="none" stroke="midnightblue" points="172.91,-419.73 171.66,-430.25 179.2,-422.8 172.91,-419.73"/>
</g>
<!-- Node5 -->
<g id="node5" class="node">
<title>Node5</title>
<g id="a_node5"><a xlink:href="../../dd/de6/interfacepocketmine_1_1network_1_1mcpe_1_1protocol_1_1_serverbound_packet.html" target="_top" xlink:title=" ">
<polygon fill="white" stroke="#bfbfbf" points="0,-237.5 0,-316.5 154,-316.5 154,-237.5 0,-237.5"/>
<text text-anchor="start" x="8" y="-304.5" font-family="Helvetica,sans-Serif" font-size="10.00">pocketmine\network</text>
<text text-anchor="start" x="8" y="-293.5" font-family="Helvetica,sans-Serif" font-size="10.00">\mcpe\protocol\Serverbound</text>
<text text-anchor="middle" x="77" y="-282.5" font-family="Helvetica,sans-Serif" font-size="10.00">Packet</text>
<polyline fill="none" stroke="#bfbfbf" points="0,-275.5 154,-275.5 "/>
<text text-anchor="middle" x="77" y="-263.5" font-family="Helvetica,sans-Serif" font-size="10.00"> </text>
<polyline fill="none" stroke="#bfbfbf" points="0,-256.5 154,-256.5 "/>
<text text-anchor="middle" x="77" y="-244.5" font-family="Helvetica,sans-Serif" font-size="10.00"> </text>
</a>
</g>
</g>
<!-- Node3&#45;&gt;Node5 -->
<g id="edge5" class="edge">
<title>Node3&#45;&gt;Node5</title>
<path fill="none" stroke="midnightblue" d="M120.53,-420.65C109.97,-386.03 97.64,-345.62 88.8,-316.67"/>
<polygon fill="none" stroke="midnightblue" points="117.19,-421.7 123.46,-430.25 123.89,-419.66 117.19,-421.7"/>
</g>
<!-- Node4 -->
<g id="node4" class="node">
<title>Node4</title>
<g id="a_node4"><a xlink:title=" ">
<polygon fill="white" stroke="#bfbfbf" points="254.5,-463.5 254.5,-520.5 297.5,-520.5 297.5,-463.5 254.5,-463.5"/>
<text text-anchor="middle" x="276" y="-508.5" font-family="Helvetica,sans-Serif" font-size="10.00">const</text>
<polyline fill="none" stroke="#bfbfbf" points="254.5,-501.5 297.5,-501.5 "/>
<text text-anchor="middle" x="276" y="-489.5" font-family="Helvetica,sans-Serif" font-size="10.00"> </text>
<polyline fill="none" stroke="#bfbfbf" points="254.5,-482.5 297.5,-482.5 "/>
<text text-anchor="middle" x="276" y="-470.5" font-family="Helvetica,sans-Serif" font-size="10.00"> </text>
</a>
</g>
</g>
<!-- Node4&#45;&gt;Node1 -->
<g id="edge6" class="edge">
<title>Node4&#45;&gt;Node1</title>
<path fill="none" stroke="#404040" d="M297.81,-472.76C313.44,-458.16 333.22,-436.19 342,-412 373.46,-325.28 361.83,-218.07 347.67,-146.71"/>
<polygon fill="none" stroke="#404040" points="347.62,-146.45 342.49,-141.38 345.2,-134.7 350.32,-139.77 347.62,-146.45"/>
<text text-anchor="middle" x="402" y="-274.5" font-family="Helvetica,sans-Serif" font-size="10.00"> +NETWORK_ID</text>
</g>
<!-- Node4&#45;&gt;Node2 -->
<g id="edge3" class="edge">
<title>Node4&#45;&gt;Node2</title>
<path fill="none" stroke="#404040" d="M271.66,-463.23C269.33,-448.1 266.44,-429.03 264,-412 262.69,-402.85 261.36,-393.35 260.04,-383.81"/>
<polygon fill="none" stroke="#404040" points="260.02,-383.63 255.24,-378.23 258.38,-371.74 263.16,-377.14 260.02,-383.63"/>
<text text-anchor="middle" x="303" y="-404" font-family="Helvetica,sans-Serif" font-size="10.00"> +NETWORK_ID</text>
<text text-anchor="middle" x="303" y="-393" font-family="Helvetica,sans-Serif" font-size="10.00">+PID_MASK</text>
</g>
<!-- Node5&#45;&gt;Node1 -->
<g id="edge4" class="edge">
<title>Node5&#45;&gt;Node1</title>
<path fill="none" stroke="midnightblue" d="M115.8,-229.44C129.94,-213.63 146.51,-196.35 163,-182 188.57,-159.74 218.6,-137.98 245.98,-119.56"/>
<polygon fill="none" stroke="midnightblue" points="113.06,-227.25 109.07,-237.06 118.31,-231.88 113.06,-227.25"/>
</g>
<!-- Node6 -->
<g id="node6" class="node">
<title>Node6</title>
<g id="a_node6"><a xlink:href="../../d1/d5f/classpocketmine_1_1network_1_1mcpe_1_1protocol_1_1types_1_1_block_position.html" target="_top" xlink:title=" ">
<polygon fill="white" stroke="#bfbfbf" points="452.5,-210 452.5,-344 571.5,-344 571.5,-210 452.5,-210"/>
<text text-anchor="start" x="460.5" y="-332" font-family="Helvetica,sans-Serif" font-size="10.00">pocketmine\network</text>
<text text-anchor="start" x="460.5" y="-321" font-family="Helvetica,sans-Serif" font-size="10.00">\mcpe\protocol\types</text>
<text text-anchor="middle" x="512" y="-310" font-family="Helvetica,sans-Serif" font-size="10.00">\BlockPosition</text>
<polyline fill="none" stroke="#bfbfbf" points="452.5,-303 571.5,-303 "/>
<text text-anchor="middle" x="512" y="-291" font-family="Helvetica,sans-Serif" font-size="10.00"> </text>
<polyline fill="none" stroke="#bfbfbf" points="452.5,-284 571.5,-284 "/>
<text text-anchor="start" x="460.5" y="-272" font-family="Helvetica,sans-Serif" font-size="10.00">+ __construct()</text>
<text text-anchor="start" x="460.5" y="-261" font-family="Helvetica,sans-Serif" font-size="10.00">+ equals()</text>
<text text-anchor="start" x="460.5" y="-250" font-family="Helvetica,sans-Serif" font-size="10.00">+ getX()</text>
<text text-anchor="start" x="460.5" y="-239" font-family="Helvetica,sans-Serif" font-size="10.00">+ getY()</text>
<text text-anchor="start" x="460.5" y="-228" font-family="Helvetica,sans-Serif" font-size="10.00">+ getZ()</text>
<text text-anchor="start" x="460.5" y="-217" font-family="Helvetica,sans-Serif" font-size="10.00">+ fromVector3()</text>
</a>
</g>
</g>
<!-- Node6&#45;&gt;Node1 -->
<g id="edge7" class="edge">
<title>Node6&#45;&gt;Node1</title>
<path fill="none" stroke="#404040" d="M461.29,-209.81C453.64,-200.35 445.72,-190.84 438,-182 426.85,-169.24 414.68,-156.04 402.63,-143.34"/>
<polygon fill="none" stroke="#404040" points="402.61,-143.32 395.57,-141.74 394.32,-134.64 401.35,-136.22 402.61,-143.32"/>
<text text-anchor="middle" x="462.5" y="-156" font-family="Helvetica,sans-Serif" font-size="10.00"> +$blockPosition</text>
</g>
</g>
</svg>
        <g id="navigator" transform="translate(0 0)" fill="#404254">
                <rect fill="#f2f5e9" fill-opacity="0.5" stroke="#606060" stroke-width=".5" x="0" y="0" width="60" height="60"/>
                <use id="zoomplus" xlink:href="#zoomPlus" x="17" y="9" onmousedown="handleZoom(evt,'in')"/>
                <use id="zoomminus" xlink:href="#zoomMin" x="42" y="9" onmousedown="handleZoom(evt,'out')"/>
                <use id="reset" xlink:href="#resetDef" x="30" y="36" onmousedown="handleReset()"/>
                <g id="arrowUp" xlink:href="#dirArrow" transform="translate(30 24)" onmousedown="handlePan(0,-1)">
                  <use xlink:href="#rim" fill="#404040">
                        <set attributeName="fill" to="#808080" begin="arrowUp.mouseover" end="arrowUp.mouseout"/>
                  </use>
                  <path fill="none" stroke="white" stroke-width="1.5" d="M0,-3.0v7 M-2.5,-0.5L0,-3.0L2.5,-0.5"/>
                </g>
                <g id="arrowRight" xlink:href="#dirArrow" transform="rotate(90) translate(36 -43)" onmousedown="handlePan(1,0)">
                  <use xlink:href="#rim" fill="#404040">
                        <set attributeName="fill" to="#808080" begin="arrowRight.mouseover" end="arrowRight.mouseout"/>
                  </use>
                  <path fill="none" stroke="white" stroke-width="1.5" d="M0,-3.0v7 M-2.5,-0.5L0,-3.0L2.5,-0.5"/>
                </g>
                <g id="arrowDown" xlink:href="#dirArrow" transform="rotate(180) translate(-30 -48)" onmousedown="handlePan(0,1)">
                  <use xlink:href="#rim" fill="#404040">
                        <set attributeName="fill" to="#808080" begin="arrowDown.mouseover" end="arrowDown.mouseout"/>
                  </use>
                  <path fill="none" stroke="white" stroke-width="1.5" d="M0,-3.0v7 M-2.5,-0.5L0,-3.0L2.5,-0.5"/>
                </g>
                <g id="arrowLeft" xlink:href="#dirArrow" transform="rotate(270) translate(-36 17)" onmousedown="handlePan(-1,0)">
                  <use xlink:href="#rim" fill="#404040">
                        <set attributeName="fill" to="#808080" begin="arrowLeft.mouseover" end="arrowLeft.mouseout"/>
                  </use>
                  <path fill="none" stroke="white" stroke-width="1.5" d="M0,-3.0v7 M-2.5,-0.5L0,-3.0L2.5,-0.5"/>
                </g>
        </g>
        <svg viewBox="0 0 15 15" width="100%" height="30px" preserveAspectRatio="xMaxYMin meet">
         <g id="arrow_out" transform="scale(0.3 0.3)">
          <a xlink:href="classpocketmine_1_1network_1_1mcpe_1_1protocol_1_1_lectern_update_packet__coll__graph_org.svg" target="_base">
           <rect id="button" ry="5" rx="5" y="6" x="6" height="38" width="38"
                fill="#f2f5e9" fill-opacity="0.5" stroke="#606060" stroke-width="1.0"/>
           <path id="arrow"
             d="M 11.500037,31.436501 C 11.940474,20.09759 22.043105,11.32322 32.158766,21.979434 L 37.068811,17.246167 C 37.068811,17.246167 37.088388,32 37.088388,32 L 22.160133,31.978069 C 22.160133,31.978069 26.997745,27.140456 26.997745,27.140456 C 18.528582,18.264221 13.291696,25.230495 11.500037,31.436501 z"
             style="fill:#404040;"/>
          </a>
         </g>
        </svg>
</svg>
