<?xml version="1.0" encoding="UTF-8" standalone="no"?>
<!DOCTYPE svg PUBLIC "-//W3C//DTD SVG 1.1//EN"
 "http://www.w3.org/Graphics/SVG/1.1/DTD/svg11.dtd">
<!-- Generated by graphviz version 2.43.0 (0)
 -->
<!-- Title: pocketmine\network\mcpe\protocol\NetworkStackLatencyPacket Pages: 1 -->
<svg width="641pt" height="563pt"
 viewBox="0.00 0.00 641.00 563.00" xmlns="http://www.w3.org/2000/svg" xmlns:xlink="http://www.w3.org/1999/xlink">
<g id="graph0" class="graph" transform="scale(1 1) rotate(0) translate(4 559)">
<title>pocketmine\network\mcpe\protocol\NetworkStackLatencyPacket</title>
<polygon fill="white" stroke="transparent" points="-4,4 -4,-559 637,-559 637,4 -4,4"/>
<!-- Node1 -->
<g id="node1" class="node">
<title>Node1</title>
<g id="a_node1"><a xlink:title=" ">
<polygon fill="#bfbfbf" stroke="black" points="271.5,-0.5 271.5,-145.5 432.5,-145.5 432.5,-0.5 271.5,-0.5"/>
<text text-anchor="start" x="279.5" y="-133.5" font-family="Helvetica,sans-Serif" font-size="10.00">pocketmine\network</text>
<text text-anchor="start" x="279.5" y="-122.5" font-family="Helvetica,sans-Serif" font-size="10.00">\mcpe\protocol\NetworkStack</text>
<text text-anchor="middle" x="352" y="-111.5" font-family="Helvetica,sans-Serif" font-size="10.00">LatencyPacket</text>
<polyline fill="none" stroke="black" points="271.5,-104.5 432.5,-104.5 "/>
<text text-anchor="start" x="279.5" y="-92.5" font-family="Helvetica,sans-Serif" font-size="10.00">+ $needResponse</text>
<text text-anchor="start" x="279.5" y="-81.5" font-family="Helvetica,sans-Serif" font-size="10.00">+ $timestamp</text>
<polyline fill="none" stroke="black" points="271.5,-74.5 432.5,-74.5 "/>
<text text-anchor="start" x="279.5" y="-62.5" font-family="Helvetica,sans-Serif" font-size="10.00">+ handle()</text>
<text text-anchor="start" x="279.5" y="-51.5" font-family="Helvetica,sans-Serif" font-size="10.00">+ create()</text>
<text text-anchor="start" x="279.5" y="-40.5" font-family="Helvetica,sans-Serif" font-size="10.00">+ request()</text>
<text text-anchor="start" x="279.5" y="-29.5" font-family="Helvetica,sans-Serif" font-size="10.00">+ response()</text>
<text text-anchor="start" x="279.5" y="-18.5" font-family="Helvetica,sans-Serif" font-size="10.00"># decodePayload()</text>
<text text-anchor="start" x="279.5" y="-7.5" font-family="Helvetica,sans-Serif" font-size="10.00"># encodePayload()</text>
</a>
</g>
</g>
<!-- Node2 -->
<g id="node2" class="node">
<title>Node2</title>
<g id="a_node2"><a xlink:href="../../d1/ddb/classpocketmine_1_1network_1_1mcpe_1_1protocol_1_1_data_packet.html" target="_top" xlink:title=" ">
<polygon fill="white" stroke="#bfbfbf" points="341.5,-183.5 341.5,-372.5 488.5,-372.5 488.5,-183.5 341.5,-183.5"/>
<text text-anchor="start" x="349.5" y="-360.5" font-family="Helvetica,sans-Serif" font-size="10.00">pocketmine\network</text>
<text text-anchor="middle" x="415" y="-349.5" font-family="Helvetica,sans-Serif" font-size="10.00">\mcpe\protocol\DataPacket</text>
<polyline fill="none" stroke="#bfbfbf" points="341.5,-342.5 488.5,-342.5 "/>
<text text-anchor="start" x="349.5" y="-330.5" font-family="Helvetica,sans-Serif" font-size="10.00">+ $recipientSubId</text>
<text text-anchor="start" x="349.5" y="-319.5" font-family="Helvetica,sans-Serif" font-size="10.00">+ $senderSubId</text>
<polyline fill="none" stroke="#bfbfbf" points="341.5,-312.5 488.5,-312.5 "/>
<text text-anchor="start" x="349.5" y="-300.5" font-family="Helvetica,sans-Serif" font-size="10.00">+ __get()</text>
<text text-anchor="start" x="349.5" y="-289.5" font-family="Helvetica,sans-Serif" font-size="10.00">+ __set()</text>
<text text-anchor="start" x="349.5" y="-278.5" font-family="Helvetica,sans-Serif" font-size="10.00">+ canBeSentBeforeLogin()</text>
<text text-anchor="start" x="349.5" y="-267.5" font-family="Helvetica,sans-Serif" font-size="10.00">+ decode()</text>
<text text-anchor="start" x="349.5" y="-256.5" font-family="Helvetica,sans-Serif" font-size="10.00">+ encode()</text>
<text text-anchor="start" x="349.5" y="-245.5" font-family="Helvetica,sans-Serif" font-size="10.00">+ getName()</text>
<text text-anchor="start" x="349.5" y="-234.5" font-family="Helvetica,sans-Serif" font-size="10.00">+ pid()</text>
<text text-anchor="start" x="349.5" y="-223.5" font-family="Helvetica,sans-Serif" font-size="10.00"># decodeHeader()</text>
<text text-anchor="start" x="349.5" y="-212.5" font-family="Helvetica,sans-Serif" font-size="10.00"># decodePayload()</text>
<text text-anchor="start" x="349.5" y="-201.5" font-family="Helvetica,sans-Serif" font-size="10.00"># encodeHeader()</text>
<text text-anchor="start" x="349.5" y="-190.5" font-family="Helvetica,sans-Serif" font-size="10.00"># encodePayload()</text>
</a>
</g>
</g>
<!-- Node2&#45;&gt;Node1 -->
<g id="edge1" class="edge">
<title>Node2&#45;&gt;Node1</title>
<path fill="none" stroke="midnightblue" d="M382.85,-173.4C379.92,-163.97 377,-154.57 374.19,-145.51"/>
<polygon fill="none" stroke="midnightblue" points="379.59,-174.71 385.9,-183.22 386.28,-172.64 379.59,-174.71"/>
</g>
<!-- Node3 -->
<g id="node3" class="node">
<title>Node3</title>
<g id="a_node3"><a xlink:href="../../d4/d5d/interfacepocketmine_1_1network_1_1mcpe_1_1protocol_1_1_packet.html" target="_top" xlink:title=" ">
<polygon fill="white" stroke="#bfbfbf" points="175,-431.5 175,-554.5 321,-554.5 321,-431.5 175,-431.5"/>
<text text-anchor="start" x="183" y="-542.5" font-family="Helvetica,sans-Serif" font-size="10.00">pocketmine\network</text>
<text text-anchor="middle" x="248" y="-531.5" font-family="Helvetica,sans-Serif" font-size="10.00">\mcpe\protocol\Packet</text>
<polyline fill="none" stroke="#bfbfbf" points="175,-524.5 321,-524.5 "/>
<text text-anchor="middle" x="248" y="-512.5" font-family="Helvetica,sans-Serif" font-size="10.00"> </text>
<polyline fill="none" stroke="#bfbfbf" points="175,-505.5 321,-505.5 "/>
<text text-anchor="start" x="183" y="-493.5" font-family="Helvetica,sans-Serif" font-size="10.00">+ canBeSentBeforeLogin()</text>
<text text-anchor="start" x="183" y="-482.5" font-family="Helvetica,sans-Serif" font-size="10.00">+ decode()</text>
<text text-anchor="start" x="183" y="-471.5" font-family="Helvetica,sans-Serif" font-size="10.00">+ encode()</text>
<text text-anchor="start" x="183" y="-460.5" font-family="Helvetica,sans-Serif" font-size="10.00">+ getName()</text>
<text text-anchor="start" x="183" y="-449.5" font-family="Helvetica,sans-Serif" font-size="10.00">+ handle()</text>
<text text-anchor="start" x="183" y="-438.5" font-family="Helvetica,sans-Serif" font-size="10.00">+ pid()</text>
</a>
</g>
</g>
<!-- Node3&#45;&gt;Node2 -->
<g id="edge2" class="edge">
<title>Node3&#45;&gt;Node2</title>
<path fill="none" stroke="midnightblue" d="M302.09,-423.01C314.64,-407.01 328.2,-389.71 341.42,-372.84"/>
<polygon fill="none" stroke="midnightblue" points="299.05,-421.22 295.63,-431.25 304.56,-425.54 299.05,-421.22"/>
</g>
<!-- Node5 -->
<g id="node5" class="node">
<title>Node5</title>
<g id="a_node5"><a xlink:href="../../da/d77/interfacepocketmine_1_1network_1_1mcpe_1_1protocol_1_1_clientbound_packet.html" target="_top" xlink:title=" ">
<polygon fill="white" stroke="#bfbfbf" points="172.5,-238.5 172.5,-317.5 323.5,-317.5 323.5,-238.5 172.5,-238.5"/>
<text text-anchor="start" x="180.5" y="-305.5" font-family="Helvetica,sans-Serif" font-size="10.00">pocketmine\network</text>
<text text-anchor="start" x="180.5" y="-294.5" font-family="Helvetica,sans-Serif" font-size="10.00">\mcpe\protocol\Clientbound</text>
<text text-anchor="middle" x="248" y="-283.5" font-family="Helvetica,sans-Serif" font-size="10.00">Packet</text>
<polyline fill="none" stroke="#bfbfbf" points="172.5,-276.5 323.5,-276.5 "/>
<text text-anchor="middle" x="248" y="-264.5" font-family="Helvetica,sans-Serif" font-size="10.00"> </text>
<polyline fill="none" stroke="#bfbfbf" points="172.5,-257.5 323.5,-257.5 "/>
<text text-anchor="middle" x="248" y="-245.5" font-family="Helvetica,sans-Serif" font-size="10.00"> </text>
</a>
</g>
</g>
<!-- Node3&#45;&gt;Node5 -->
<g id="edge5" class="edge">
<title>Node3&#45;&gt;Node5</title>
<path fill="none" stroke="midnightblue" d="M248,-421.21C248,-386.68 248,-346.5 248,-317.67"/>
<polygon fill="none" stroke="midnightblue" points="244.5,-421.25 248,-431.25 251.5,-421.25 244.5,-421.25"/>
</g>
<!-- Node6 -->
<g id="node6" class="node">
<title>Node6</title>
<g id="a_node6"><a xlink:href="../../dd/de6/interfacepocketmine_1_1network_1_1mcpe_1_1protocol_1_1_serverbound_packet.html" target="_top" xlink:title=" ">
<polygon fill="white" stroke="#bfbfbf" points="0,-238.5 0,-317.5 154,-317.5 154,-238.5 0,-238.5"/>
<text text-anchor="start" x="8" y="-305.5" font-family="Helvetica,sans-Serif" font-size="10.00">pocketmine\network</text>
<text text-anchor="start" x="8" y="-294.5" font-family="Helvetica,sans-Serif" font-size="10.00">\mcpe\protocol\Serverbound</text>
<text text-anchor="middle" x="77" y="-283.5" font-family="Helvetica,sans-Serif" font-size="10.00">Packet</text>
<polyline fill="none" stroke="#bfbfbf" points="0,-276.5 154,-276.5 "/>
<text text-anchor="middle" x="77" y="-264.5" font-family="Helvetica,sans-Serif" font-size="10.00"> </text>
<polyline fill="none" stroke="#bfbfbf" points="0,-257.5 154,-257.5 "/>
<text text-anchor="middle" x="77" y="-245.5" font-family="Helvetica,sans-Serif" font-size="10.00"> </text>
</a>
</g>
</g>
<!-- Node3&#45;&gt;Node6 -->
<g id="edge7" class="edge">
<title>Node3&#45;&gt;Node6</title>
<path fill="none" stroke="midnightblue" d="M192.94,-423.42C164.84,-388.41 131.69,-347.12 108.05,-317.67"/>
<polygon fill="none" stroke="midnightblue" points="190.24,-425.64 199.23,-431.25 195.7,-421.26 190.24,-425.64"/>
</g>
<!-- Node4 -->
<g id="node4" class="node">
<title>Node4</title>
<g id="a_node4"><a xlink:title=" ">
<polygon fill="white" stroke="#bfbfbf" points="456.5,-464.5 456.5,-521.5 499.5,-521.5 499.5,-464.5 456.5,-464.5"/>
<text text-anchor="middle" x="478" y="-509.5" font-family="Helvetica,sans-Serif" font-size="10.00">const</text>
<polyline fill="none" stroke="#bfbfbf" points="456.5,-502.5 499.5,-502.5 "/>
<text text-anchor="middle" x="478" y="-490.5" font-family="Helvetica,sans-Serif" font-size="10.00"> </text>
<polyline fill="none" stroke="#bfbfbf" points="456.5,-483.5 499.5,-483.5 "/>
<text text-anchor="middle" x="478" y="-471.5" font-family="Helvetica,sans-Serif" font-size="10.00"> </text>
</a>
</g>
</g>
<!-- Node4&#45;&gt;Node1 -->
<g id="edge8" class="edge">
<title>Node4&#45;&gt;Node1</title>
<path fill="none" stroke="#404040" d="M492.73,-464.34C499.77,-449.56 507.44,-430.78 511,-413 524.92,-343.57 611.9,-393.52 498,-183 485.08,-159.12 464.4,-138.99 442.63,-122.79"/>
<polygon fill="none" stroke="#404040" points="442.34,-122.59 435.13,-122.37 432.57,-115.63 439.78,-115.85 442.34,-122.59"/>
<text text-anchor="middle" x="594" y="-275.5" font-family="Helvetica,sans-Serif" font-size="10.00"> +NETWORK_ID</text>
</g>
<!-- Node4&#45;&gt;Node2 -->
<g id="edge3" class="edge">
<title>Node4&#45;&gt;Node2</title>
<path fill="none" stroke="#404040" d="M458.75,-464.36C449.5,-449.73 439.11,-431.1 433,-413 429.93,-403.91 427.38,-394.3 425.27,-384.58"/>
<polygon fill="none" stroke="#404040" points="425.24,-384.46 420.15,-379.36 422.9,-372.69 427.99,-377.79 425.24,-384.46"/>
<text text-anchor="middle" x="472" y="-405" font-family="Helvetica,sans-Serif" font-size="10.00"> +NETWORK_ID</text>
<text text-anchor="middle" x="472" y="-394" font-family="Helvetica,sans-Serif" font-size="10.00">+PID_MASK</text>
</g>
<!-- Node5&#45;&gt;Node1 -->
<g id="edge4" class="edge">
<title>Node5&#45;&gt;Node1</title>
<path fill="none" stroke="midnightblue" d="M272.52,-229.13C285.25,-204.29 301.06,-173.43 315.22,-145.8"/>
<polygon fill="none" stroke="midnightblue" points="269.25,-227.84 267.81,-238.34 275.48,-231.04 269.25,-227.84"/>
</g>
<!-- Node6&#45;&gt;Node1 -->
<g id="edge6" class="edge">
<title>Node6&#45;&gt;Node1</title>
<path fill="none" stroke="midnightblue" d="M114.44,-230.51C128.67,-214.41 145.66,-196.92 163,-183 196.08,-156.44 236.39,-132.26 271.28,-113.46"/>
<polygon fill="none" stroke="midnightblue" points="111.6,-228.44 107.68,-238.29 116.88,-233.03 111.6,-228.44"/>
</g>
</g>
</svg>
