<?xml version="1.0" encoding="UTF-8" standalone="no"?>
<!DOCTYPE svg PUBLIC "-//W3C//DTD SVG 1.1//EN"
 "http://www.w3.org/Graphics/SVG/1.1/DTD/svg11.dtd">
<!-- Generated by graphviz version 2.43.0 (0)
 -->
<!-- Title: pocketmine\block\FloorSign Pages: 1 -->
<svg width="387pt" height="908pt"
 viewBox="0.00 0.00 387.00 908.00" xmlns="http://www.w3.org/2000/svg" xmlns:xlink="http://www.w3.org/1999/xlink">
<g id="graph0" class="graph" transform="scale(1 1) rotate(0) translate(4 904)">
<title>pocketmine\block\FloorSign</title>
<!-- Node1 -->
<g id="Node000001" class="node">
<title>Node1</title>
<g id="a_Node000001"><a xlink:title=" ">
<polygon fill="#999999" stroke="transparent" points="313.5,-79 167.5,-79 167.5,0 313.5,0 313.5,-79"/>
<text text-anchor="start" x="172.5" y="-66.5" font-family="Helvetica,sans-Serif" font-size="10.00">pocketmine\block\FloorSign</text>
<text text-anchor="start" x="238.5" y="-51.5" font-family="Helvetica,sans-Serif" font-size="10.00"> </text>
<text text-anchor="start" x="178" y="-36.5" font-family="Helvetica,sans-Serif" font-size="10.00">+</text>
<text text-anchor="start" x="197.5" y="-36.5" font-family="Helvetica,sans-Serif" font-size="10.00">place()</text>
<text text-anchor="start" x="178" y="-21.5" font-family="Helvetica,sans-Serif" font-size="10.00">#</text>
<text text-anchor="start" x="197.5" y="-21.5" font-family="Helvetica,sans-Serif" font-size="10.00">getFacingDegrees()</text>
<text text-anchor="start" x="178" y="-6.5" font-family="Helvetica,sans-Serif" font-size="10.00">#</text>
<text text-anchor="start" x="197.5" y="-6.5" font-family="Helvetica,sans-Serif" font-size="10.00">getSupportingFace()</text>
<polygon fill="#666666" stroke="#666666" points="167.5,-61.5 167.5,-61.5 313.5,-61.5 313.5,-61.5 167.5,-61.5"/>
<polygon fill="#666666" stroke="#666666" points="167.5,-46.5 167.5,-46.5 313.5,-46.5 313.5,-46.5 167.5,-46.5"/>
<polygon fill="none" stroke="#666666" points="167.5,0 167.5,-79 313.5,-79 313.5,0 167.5,0"/>
</a>
</g>
</g>
<!-- Node2 -->
<g id="Node000002" class="node">
<title>Node2</title>
<g id="a_Node000002"><a xlink:href="../../df/d0b/classpocketmine_1_1block_1_1_base_sign.html" target="_top" xlink:title=" ">
<polygon fill="white" stroke="transparent" points="239.5,-404 85.5,-404 85.5,-115 239.5,-115 239.5,-404"/>
<text text-anchor="start" x="95" y="-391.5" font-family="Helvetica,sans-Serif" font-size="10.00">pocketmine\block\BaseSign</text>
<text text-anchor="start" x="89.5" y="-376.5" font-family="Helvetica,sans-Serif" font-size="10.00">#</text>
<text text-anchor="start" x="102.5" y="-376.5" font-family="Helvetica,sans-Serif" font-size="10.00">$backText</text>
<text text-anchor="start" x="89.5" y="-361.5" font-family="Helvetica,sans-Serif" font-size="10.00">#</text>
<text text-anchor="start" x="102.5" y="-361.5" font-family="Helvetica,sans-Serif" font-size="10.00">$editorEntityRuntimeId</text>
<text text-anchor="start" x="89.5" y="-346.5" font-family="Helvetica,sans-Serif" font-size="10.00">#</text>
<text text-anchor="start" x="102.5" y="-346.5" font-family="Helvetica,sans-Serif" font-size="10.00">$text</text>
<text text-anchor="start" x="89.5" y="-331.5" font-family="Helvetica,sans-Serif" font-size="10.00">+</text>
<text text-anchor="start" x="102.5" y="-331.5" font-family="Helvetica,sans-Serif" font-size="10.00">__construct()</text>
<text text-anchor="start" x="89.5" y="-316.5" font-family="Helvetica,sans-Serif" font-size="10.00">+</text>
<text text-anchor="start" x="102.5" y="-316.5" font-family="Helvetica,sans-Serif" font-size="10.00">asItem()</text>
<text text-anchor="start" x="89.5" y="-301.5" font-family="Helvetica,sans-Serif" font-size="10.00">+</text>
<text text-anchor="start" x="102.5" y="-301.5" font-family="Helvetica,sans-Serif" font-size="10.00">getEditorEntityRuntimeId()</text>
<text text-anchor="start" x="89.5" y="-286.5" font-family="Helvetica,sans-Serif" font-size="10.00">+</text>
<text text-anchor="start" x="102.5" y="-286.5" font-family="Helvetica,sans-Serif" font-size="10.00">getFaceText()</text>
<text text-anchor="start" x="89.5" y="-271.5" font-family="Helvetica,sans-Serif" font-size="10.00">+</text>
<text text-anchor="start" x="102.5" y="-271.5" font-family="Helvetica,sans-Serif" font-size="10.00">getFuelTime()</text>
<text text-anchor="start" x="89.5" y="-256.5" font-family="Helvetica,sans-Serif" font-size="10.00">+</text>
<text text-anchor="start" x="102.5" y="-256.5" font-family="Helvetica,sans-Serif" font-size="10.00">getMaxStackSize()</text>
<text text-anchor="start" x="89.5" y="-241.5" font-family="Helvetica,sans-Serif" font-size="10.00">+</text>
<text text-anchor="start" x="102.5" y="-241.5" font-family="Helvetica,sans-Serif" font-size="10.00">getSupportType()</text>
<text text-anchor="start" x="89.5" y="-226.5" font-family="Helvetica,sans-Serif" font-size="10.00">+</text>
<text text-anchor="start" x="102.5" y="-226.5" font-family="Helvetica,sans-Serif" font-size="10.00">getText()</text>
<text text-anchor="start" x="89.5" y="-211.5" font-family="Helvetica,sans-Serif" font-size="10.00">+</text>
<text text-anchor="start" x="102.5" y="-211.5" font-family="Helvetica,sans-Serif" font-size="10.00">isSolid()</text>
<text text-anchor="start" x="89.5" y="-196.5" font-family="Helvetica,sans-Serif" font-size="10.00">+</text>
<text text-anchor="start" x="102.5" y="-196.5" font-family="Helvetica,sans-Serif" font-size="10.00">isWaxed()</text>
<text text-anchor="start" x="102.5" y="-181.5" font-family="Helvetica,sans-Serif" font-size="10.00">and 12 more...</text>
<text text-anchor="start" x="89.5" y="-166.5" font-family="Helvetica,sans-Serif" font-size="10.00">#</text>
<text text-anchor="start" x="102.5" y="-166.5" font-family="Helvetica,sans-Serif" font-size="10.00">getFacingDegrees()</text>
<text text-anchor="start" x="89.5" y="-151.5" font-family="Helvetica,sans-Serif" font-size="10.00">#</text>
<text text-anchor="start" x="102.5" y="-151.5" font-family="Helvetica,sans-Serif" font-size="10.00">getHitboxCenter()</text>
<text text-anchor="start" x="89.5" y="-136.5" font-family="Helvetica,sans-Serif" font-size="10.00">#</text>
<text text-anchor="start" x="102.5" y="-136.5" font-family="Helvetica,sans-Serif" font-size="10.00">getSupportingFace()</text>
<text text-anchor="start" x="89.5" y="-121.5" font-family="Helvetica,sans-Serif" font-size="10.00">#</text>
<text text-anchor="start" x="102.5" y="-121.5" font-family="Helvetica,sans-Serif" font-size="10.00">recalculateCollisionBoxes()</text>
<polygon fill="#bfbfbf" stroke="#bfbfbf" points="85.5,-386.5 85.5,-386.5 239.5,-386.5 239.5,-386.5 85.5,-386.5"/>
<polygon fill="#bfbfbf" stroke="#bfbfbf" points="85.5,-341.5 85.5,-341.5 100.5,-341.5 100.5,-341.5 85.5,-341.5"/>
<polygon fill="#bfbfbf" stroke="#bfbfbf" points="100.5,-341.5 100.5,-341.5 239.5,-341.5 239.5,-341.5 100.5,-341.5"/>
<polygon fill="none" stroke="#bfbfbf" points="85.5,-115 85.5,-404 239.5,-404 239.5,-115 85.5,-115"/>
</a>
</g>
</g>
<!-- Node2&#45;&gt;Node1 -->
<g id="edge1_Node000001_Node000002" class="edge">
<title>Node2&#45;&gt;Node1</title>
<g id="a_edge1_Node000001_Node000002"><a xlink:title=" ">
<path fill="none" stroke="#63b8ff" d="M217.29,-105.38C220.64,-96 223.81,-87.15 226.66,-79.17"/>
<polygon fill="none" stroke="#63b8ff" points="213.95,-104.32 213.87,-114.91 220.54,-106.68 213.95,-104.32"/>
</a>
</g>
</g>
<!-- Node3 -->
<g id="Node000003" class="node">
<title>Node3</title>
<g id="a_Node000003"><a xlink:href="../../d5/d1b/classpocketmine_1_1block_1_1_transparent.html" target="_top" xlink:title=" ">
<polygon fill="white" stroke="transparent" points="163,-494.5 6,-494.5 6,-445.5 163,-445.5 163,-494.5"/>
<text text-anchor="start" x="11.5" y="-482" font-family="Helvetica,sans-Serif" font-size="10.00">pocketmine\block\Transparent</text>
<text text-anchor="start" x="83" y="-467" font-family="Helvetica,sans-Serif" font-size="10.00"> </text>
<text text-anchor="start" x="26" y="-452" font-family="Helvetica,sans-Serif" font-size="10.00">+</text>
<text text-anchor="start" x="54.5" y="-452" font-family="Helvetica,sans-Serif" font-size="10.00">isTransparent()</text>
<polygon fill="#666666" stroke="#666666" points="6.5,-477 6.5,-477 163.5,-477 163.5,-477 6.5,-477"/>
<polygon fill="#666666" stroke="#666666" points="6.5,-462 6.5,-462 163.5,-462 163.5,-462 6.5,-462"/>
<polygon fill="none" stroke="#666666" points="6,-445.5 6,-494.5 163,-494.5 163,-445.5 6,-445.5"/>
</a>
</g>
</g>
<!-- Node3&#45;&gt;Node2 -->
<g id="edge2_Node000002_Node000003" class="edge">
<title>Node3&#45;&gt;Node2</title>
<g id="a_edge2_Node000002_Node000003"><a xlink:title=" ">
<path fill="none" stroke="#63b8ff" d="M96.87,-435.93C100.37,-426.57 104.43,-415.74 108.76,-404.14"/>
<polygon fill="none" stroke="#63b8ff" points="93.52,-434.9 93.3,-445.49 100.08,-437.35 93.52,-434.9"/>
</a>
</g>
</g>
<!-- Node4 -->
<g id="Node000004" class="node">
<title>Node4</title>
<g id="a_Node000004"><a xlink:href="../../d7/d27/classpocketmine_1_1block_1_1_block.html" target="_top" xlink:title=" ">
<polygon fill="white" stroke="transparent" points="169,-900 0,-900 0,-536 169,-536 169,-900"/>
<text text-anchor="start" x="26.5" y="-888" font-family="Helvetica,sans-Serif" font-size="10.00">pocketmine\block\Block</text>
<text text-anchor="start" x="4.5" y="-873" font-family="Helvetica,sans-Serif" font-size="10.00">+</text>
<text text-anchor="start" x="17.5" y="-873" font-family="Helvetica,sans-Serif" font-size="10.00">EMPTY_STATE_ID</text>
<text text-anchor="start" x="4.5" y="-858" font-family="Helvetica,sans-Serif" font-size="10.00">+</text>
<text text-anchor="start" x="17.5" y="-858" font-family="Helvetica,sans-Serif" font-size="10.00">INTERNAL_STATE_DATA_BITS</text>
<text text-anchor="start" x="4.5" y="-843" font-family="Helvetica,sans-Serif" font-size="10.00">+</text>
<text text-anchor="start" x="17.5" y="-843" font-family="Helvetica,sans-Serif" font-size="10.00">INTERNAL_STATE_DATA_MASK</text>
<text text-anchor="start" x="4.5" y="-828" font-family="Helvetica,sans-Serif" font-size="10.00">#</text>
<text text-anchor="start" x="17.5" y="-828" font-family="Helvetica,sans-Serif" font-size="10.00">$collisionBoxes</text>
<text text-anchor="start" x="4.5" y="-813" font-family="Helvetica,sans-Serif" font-size="10.00">#</text>
<text text-anchor="start" x="17.5" y="-813" font-family="Helvetica,sans-Serif" font-size="10.00">$fallbackName</text>
<text text-anchor="start" x="4.5" y="-798" font-family="Helvetica,sans-Serif" font-size="10.00">#</text>
<text text-anchor="start" x="17.5" y="-798" font-family="Helvetica,sans-Serif" font-size="10.00">$idInfo</text>
<text text-anchor="start" x="4.5" y="-783" font-family="Helvetica,sans-Serif" font-size="10.00">#</text>
<text text-anchor="start" x="17.5" y="-783" font-family="Helvetica,sans-Serif" font-size="10.00">$position</text>
<text text-anchor="start" x="4.5" y="-768" font-family="Helvetica,sans-Serif" font-size="10.00">#</text>
<text text-anchor="start" x="17.5" y="-768" font-family="Helvetica,sans-Serif" font-size="10.00">$typeInfo</text>
<text text-anchor="start" x="4.5" y="-753" font-family="Helvetica,sans-Serif" font-size="10.00">+</text>
<text text-anchor="start" x="17.5" y="-753" font-family="Helvetica,sans-Serif" font-size="10.00">__construct()</text>
<text text-anchor="start" x="4.5" y="-738" font-family="Helvetica,sans-Serif" font-size="10.00">+</text>
<text text-anchor="start" x="17.5" y="-738" font-family="Helvetica,sans-Serif" font-size="10.00">__clone()</text>
<text text-anchor="start" x="4.5" y="-723" font-family="Helvetica,sans-Serif" font-size="10.00">+</text>
<text text-anchor="start" x="17.5" y="-723" font-family="Helvetica,sans-Serif" font-size="10.00">__toString()</text>
<text text-anchor="start" x="4.5" y="-708" font-family="Helvetica,sans-Serif" font-size="10.00">+</text>
<text text-anchor="start" x="17.5" y="-708" font-family="Helvetica,sans-Serif" font-size="10.00">addVelocityToEntity()</text>
<text text-anchor="start" x="4.5" y="-693" font-family="Helvetica,sans-Serif" font-size="10.00">+</text>
<text text-anchor="start" x="17.5" y="-693" font-family="Helvetica,sans-Serif" font-size="10.00">asItem()</text>
<text text-anchor="start" x="4.5" y="-678" font-family="Helvetica,sans-Serif" font-size="10.00">+</text>
<text text-anchor="start" x="17.5" y="-678" font-family="Helvetica,sans-Serif" font-size="10.00">blocksDirectSkyLight()</text>
<text text-anchor="start" x="4.5" y="-663" font-family="Helvetica,sans-Serif" font-size="10.00">+</text>
<text text-anchor="start" x="17.5" y="-663" font-family="Helvetica,sans-Serif" font-size="10.00">burnsForever()</text>
<text text-anchor="start" x="4.5" y="-648" font-family="Helvetica,sans-Serif" font-size="10.00">+</text>
<text text-anchor="start" x="17.5" y="-648" font-family="Helvetica,sans-Serif" font-size="10.00">calculateIntercept()</text>
<text text-anchor="start" x="4.5" y="-633" font-family="Helvetica,sans-Serif" font-size="10.00">+</text>
<text text-anchor="start" x="17.5" y="-633" font-family="Helvetica,sans-Serif" font-size="10.00">canBeFlowedInto()</text>
<text text-anchor="start" x="4.5" y="-618" font-family="Helvetica,sans-Serif" font-size="10.00">+</text>
<text text-anchor="start" x="17.5" y="-618" font-family="Helvetica,sans-Serif" font-size="10.00">canBePlaced()</text>
<text text-anchor="start" x="17.5" y="-603" font-family="Helvetica,sans-Serif" font-size="10.00">and 60 more...</text>
<text text-anchor="start" x="4.5" y="-588" font-family="Helvetica,sans-Serif" font-size="10.00">#</text>
<text text-anchor="start" x="17.5" y="-588" font-family="Helvetica,sans-Serif" font-size="10.00">describeBlockOnlyState()</text>
<text text-anchor="start" x="4.5" y="-573" font-family="Helvetica,sans-Serif" font-size="10.00">#</text>
<text text-anchor="start" x="17.5" y="-573" font-family="Helvetica,sans-Serif" font-size="10.00">getAdjacentSupportType()</text>
<text text-anchor="start" x="4.5" y="-558" font-family="Helvetica,sans-Serif" font-size="10.00">#</text>
<text text-anchor="start" x="17.5" y="-558" font-family="Helvetica,sans-Serif" font-size="10.00">getXpDropAmount()</text>
<text text-anchor="start" x="4.5" y="-543" font-family="Helvetica,sans-Serif" font-size="10.00">#</text>
<text text-anchor="start" x="17.5" y="-543" font-family="Helvetica,sans-Serif" font-size="10.00">recalculateCollisionBoxes()</text>
<polygon fill="#bfbfbf" stroke="#bfbfbf" points="0.5,-883 0.5,-883 169.5,-883 169.5,-883 0.5,-883"/>
<polygon fill="#bfbfbf" stroke="#bfbfbf" points="0.5,-763 0.5,-763 15.5,-763 15.5,-763 0.5,-763"/>
<polygon fill="#bfbfbf" stroke="#bfbfbf" points="15.5,-763 15.5,-763 169.5,-763 169.5,-763 15.5,-763"/>
<polygon fill="none" stroke="#bfbfbf" points="0,-536 0,-900 169,-900 169,-536 0,-536"/>
</a>
</g>
</g>
<!-- Node4&#45;&gt;Node3 -->
<g id="edge3_Node000003_Node000004" class="edge">
<title>Node4&#45;&gt;Node3</title>
<g id="a_edge3_Node000003_Node000004"><a xlink:title=" ">
<path fill="none" stroke="#63b8ff" d="M84.5,-525.77C84.5,-513.97 84.5,-503.39 84.5,-494.76"/>
<polygon fill="none" stroke="#63b8ff" points="81,-525.96 84.5,-535.96 88,-525.96 81,-525.96"/>
</a>
</g>
</g>
<!-- Node5 -->
<g id="Node000005" class="node">
<title>Node5</title>
<g id="a_Node000005"><a xlink:href="../../d0/df3/interfacepocketmine_1_1block_1_1utils_1_1_wood_material.html" target="_top" xlink:title=" ">
<polygon fill="white" stroke="transparent" points="302,-500 181,-500 181,-440 302,-440 302,-500"/>
<text text-anchor="start" x="186.5" y="-488" font-family="Helvetica,sans-Serif" font-size="10.00">pocketmine\block\utils</text>
<text text-anchor="start" x="206.5" y="-477" font-family="Helvetica,sans-Serif" font-size="10.00">\WoodMaterial</text>
<text text-anchor="start" x="240" y="-462" font-family="Helvetica,sans-Serif" font-size="10.00"> </text>
<text text-anchor="start" x="192" y="-447" font-family="Helvetica,sans-Serif" font-size="10.00">+</text>
<text text-anchor="start" x="211.5" y="-447" font-family="Helvetica,sans-Serif" font-size="10.00">getWoodType()</text>
<polygon fill="#bfbfbf" stroke="#bfbfbf" points="181.5,-472 181.5,-472 302.5,-472 302.5,-472 181.5,-472"/>
<polygon fill="#bfbfbf" stroke="#bfbfbf" points="181.5,-457 181.5,-457 302.5,-457 302.5,-457 181.5,-457"/>
<polygon fill="none" stroke="#bfbfbf" points="181,-440 181,-500 302,-500 302,-440 181,-440"/>
</a>
</g>
</g>
<!-- Node5&#45;&gt;Node2 -->
<g id="edge4_Node000002_Node000005" class="edge">
<title>Node5&#45;&gt;Node2</title>
<g id="a_edge4_Node000002_Node000005"><a xlink:title=" ">
<path fill="none" stroke="#63b8ff" d="M226.75,-430.07C223.77,-422.21 220.47,-413.51 217,-404.33"/>
<polygon fill="none" stroke="#63b8ff" points="223.53,-431.46 230.35,-439.57 230.08,-428.98 223.53,-431.46"/>
</a>
</g>
</g>
<!-- Node6 -->
<g id="Node000006" class="node">
<title>Node6</title>
<g id="a_Node000006"><a xlink:href="../../d7/d9c/interfacepocketmine_1_1block_1_1utils_1_1_sign_like_rotation.html" target="_top" xlink:title=" ">
<polygon fill="white" stroke="transparent" points="379,-297 258,-297 258,-222 379,-222 379,-297"/>
<text text-anchor="start" x="263.5" y="-284.5" font-family="Helvetica,sans-Serif" font-size="10.00">pocketmine\block\utils</text>
<text text-anchor="start" x="276.5" y="-273.5" font-family="Helvetica,sans-Serif" font-size="10.00">\SignLikeRotation</text>
<text text-anchor="start" x="317" y="-258.5" font-family="Helvetica,sans-Serif" font-size="10.00"> </text>
<text text-anchor="start" x="271" y="-243.5" font-family="Helvetica,sans-Serif" font-size="10.00">+</text>
<text text-anchor="start" x="292.5" y="-243.5" font-family="Helvetica,sans-Serif" font-size="10.00">getRotation()</text>
<text text-anchor="start" x="271" y="-228.5" font-family="Helvetica,sans-Serif" font-size="10.00">+</text>
<text text-anchor="start" x="292.5" y="-228.5" font-family="Helvetica,sans-Serif" font-size="10.00">setRotation()</text>
<polygon fill="#bfbfbf" stroke="#bfbfbf" points="258.5,-268.5 258.5,-268.5 379.5,-268.5 379.5,-268.5 258.5,-268.5"/>
<polygon fill="#bfbfbf" stroke="#bfbfbf" points="258.5,-253.5 258.5,-253.5 379.5,-253.5 379.5,-253.5 258.5,-253.5"/>
<polygon fill="none" stroke="#bfbfbf" points="258,-222 258,-297 379,-297 379,-222 258,-222"/>
</a>
</g>
</g>
<!-- Node6&#45;&gt;Node1 -->
<g id="edge5_Node000001_Node000006" class="edge">
<title>Node6&#45;&gt;Node1</title>
<g id="a_edge5_Node000001_Node000006"><a xlink:title=" ">
<path fill="none" stroke="#63b8ff" d="M301.89,-212.09C287.74,-172.52 267.62,-116.29 254.32,-79.13"/>
<polygon fill="none" stroke="#63b8ff" points="298.6,-213.28 305.27,-221.52 305.19,-210.92 298.6,-213.28"/>
</a>
</g>
</g>
</g>
</svg>
