<?xml version="1.0" encoding="UTF-8" standalone="no"?>
<!DOCTYPE svg PUBLIC "-//W3C//DTD SVG 1.1//EN"
 "http://www.w3.org/Graphics/SVG/1.1/DTD/svg11.dtd">
<!-- Generated by graphviz version 2.43.0 (0)
 -->
<!-- Title: pocketmine\network\mcpe\protocol\StructureBlockUpdatePacket Pages: 1 -->
<svg width="805pt" height="931pt"
 viewBox="0.00 0.00 805.00 931.00" xmlns="http://www.w3.org/2000/svg" xmlns:xlink="http://www.w3.org/1999/xlink">
<g id="graph0" class="graph" transform="scale(1 1) rotate(0) translate(4 927)">
<title>pocketmine\network\mcpe\protocol\StructureBlockUpdatePacket</title>
<polygon fill="white" stroke="transparent" points="-4,4 -4,-927 801,-927 801,4 -4,4"/>
<!-- Node1 -->
<g id="node1" class="node">
<title>Node1</title>
<g id="a_node1"><a xlink:title=" ">
<polygon fill="#bfbfbf" stroke="black" points="274,-0.5 274,-112.5 438,-112.5 438,-0.5 274,-0.5"/>
<text text-anchor="start" x="282" y="-100.5" font-family="Helvetica,sans-Serif" font-size="10.00">pocketmine\network</text>
<text text-anchor="start" x="282" y="-89.5" font-family="Helvetica,sans-Serif" font-size="10.00">\mcpe\protocol\StructureBlock</text>
<text text-anchor="middle" x="356" y="-78.5" font-family="Helvetica,sans-Serif" font-size="10.00">UpdatePacket</text>
<polyline fill="none" stroke="black" points="274,-71.5 438,-71.5 "/>
<text text-anchor="start" x="282" y="-59.5" font-family="Helvetica,sans-Serif" font-size="10.00">+ $isPowered</text>
<polyline fill="none" stroke="black" points="274,-52.5 438,-52.5 "/>
<text text-anchor="start" x="282" y="-40.5" font-family="Helvetica,sans-Serif" font-size="10.00">+ handle()</text>
<text text-anchor="start" x="282" y="-29.5" font-family="Helvetica,sans-Serif" font-size="10.00">+ create()</text>
<text text-anchor="start" x="282" y="-18.5" font-family="Helvetica,sans-Serif" font-size="10.00"># decodePayload()</text>
<text text-anchor="start" x="282" y="-7.5" font-family="Helvetica,sans-Serif" font-size="10.00"># encodePayload()</text>
</a>
</g>
</g>
<!-- Node2 -->
<g id="node2" class="node">
<title>Node2</title>
<g id="a_node2"><a xlink:href="../../d1/ddb/classpocketmine_1_1network_1_1mcpe_1_1protocol_1_1_data_packet.html" target="_top" xlink:title=" ">
<polygon fill="white" stroke="#bfbfbf" points="172.5,-160.5 172.5,-349.5 319.5,-349.5 319.5,-160.5 172.5,-160.5"/>
<text text-anchor="start" x="180.5" y="-337.5" font-family="Helvetica,sans-Serif" font-size="10.00">pocketmine\network</text>
<text text-anchor="middle" x="246" y="-326.5" font-family="Helvetica,sans-Serif" font-size="10.00">\mcpe\protocol\DataPacket</text>
<polyline fill="none" stroke="#bfbfbf" points="172.5,-319.5 319.5,-319.5 "/>
<text text-anchor="start" x="180.5" y="-307.5" font-family="Helvetica,sans-Serif" font-size="10.00">+ $recipientSubId</text>
<text text-anchor="start" x="180.5" y="-296.5" font-family="Helvetica,sans-Serif" font-size="10.00">+ $senderSubId</text>
<polyline fill="none" stroke="#bfbfbf" points="172.5,-289.5 319.5,-289.5 "/>
<text text-anchor="start" x="180.5" y="-277.5" font-family="Helvetica,sans-Serif" font-size="10.00">+ __get()</text>
<text text-anchor="start" x="180.5" y="-266.5" font-family="Helvetica,sans-Serif" font-size="10.00">+ __set()</text>
<text text-anchor="start" x="180.5" y="-255.5" font-family="Helvetica,sans-Serif" font-size="10.00">+ canBeSentBeforeLogin()</text>
<text text-anchor="start" x="180.5" y="-244.5" font-family="Helvetica,sans-Serif" font-size="10.00">+ decode()</text>
<text text-anchor="start" x="180.5" y="-233.5" font-family="Helvetica,sans-Serif" font-size="10.00">+ encode()</text>
<text text-anchor="start" x="180.5" y="-222.5" font-family="Helvetica,sans-Serif" font-size="10.00">+ getName()</text>
<text text-anchor="start" x="180.5" y="-211.5" font-family="Helvetica,sans-Serif" font-size="10.00">+ pid()</text>
<text text-anchor="start" x="180.5" y="-200.5" font-family="Helvetica,sans-Serif" font-size="10.00"># decodeHeader()</text>
<text text-anchor="start" x="180.5" y="-189.5" font-family="Helvetica,sans-Serif" font-size="10.00"># decodePayload()</text>
<text text-anchor="start" x="180.5" y="-178.5" font-family="Helvetica,sans-Serif" font-size="10.00"># encodeHeader()</text>
<text text-anchor="start" x="180.5" y="-167.5" font-family="Helvetica,sans-Serif" font-size="10.00"># encodePayload()</text>
</a>
</g>
</g>
<!-- Node2&#45;&gt;Node1 -->
<g id="edge1" class="edge">
<title>Node2&#45;&gt;Node1</title>
<path fill="none" stroke="midnightblue" d="M303.35,-151.56C310.84,-138.17 318.27,-124.9 325.09,-112.72"/>
<polygon fill="none" stroke="midnightblue" points="300.25,-149.92 298.42,-160.35 306.36,-153.34 300.25,-149.92"/>
</g>
<!-- Node3 -->
<g id="node3" class="node">
<title>Node3</title>
<g id="a_node3"><a xlink:href="../../d4/d5d/interfacepocketmine_1_1network_1_1mcpe_1_1protocol_1_1_packet.html" target="_top" xlink:title=" ">
<polygon fill="white" stroke="#bfbfbf" points="105,-480 105,-603 251,-603 251,-480 105,-480"/>
<text text-anchor="start" x="113" y="-591" font-family="Helvetica,sans-Serif" font-size="10.00">pocketmine\network</text>
<text text-anchor="middle" x="178" y="-580" font-family="Helvetica,sans-Serif" font-size="10.00">\mcpe\protocol\Packet</text>
<polyline fill="none" stroke="#bfbfbf" points="105,-573 251,-573 "/>
<text text-anchor="middle" x="178" y="-561" font-family="Helvetica,sans-Serif" font-size="10.00"> </text>
<polyline fill="none" stroke="#bfbfbf" points="105,-554 251,-554 "/>
<text text-anchor="start" x="113" y="-542" font-family="Helvetica,sans-Serif" font-size="10.00">+ canBeSentBeforeLogin()</text>
<text text-anchor="start" x="113" y="-531" font-family="Helvetica,sans-Serif" font-size="10.00">+ decode()</text>
<text text-anchor="start" x="113" y="-520" font-family="Helvetica,sans-Serif" font-size="10.00">+ encode()</text>
<text text-anchor="start" x="113" y="-509" font-family="Helvetica,sans-Serif" font-size="10.00">+ getName()</text>
<text text-anchor="start" x="113" y="-498" font-family="Helvetica,sans-Serif" font-size="10.00">+ handle()</text>
<text text-anchor="start" x="113" y="-487" font-family="Helvetica,sans-Serif" font-size="10.00">+ pid()</text>
</a>
</g>
</g>
<!-- Node3&#45;&gt;Node2 -->
<g id="edge2" class="edge">
<title>Node3&#45;&gt;Node2</title>
<path fill="none" stroke="midnightblue" d="M194.9,-469.81C203.58,-433.5 214.27,-388.77 223.62,-349.63"/>
<polygon fill="none" stroke="midnightblue" points="191.42,-469.28 192.5,-479.82 198.23,-470.9 191.42,-469.28"/>
</g>
<!-- Node5 -->
<g id="node5" class="node">
<title>Node5</title>
<g id="a_node5"><a xlink:href="../../dd/de6/interfacepocketmine_1_1network_1_1mcpe_1_1protocol_1_1_serverbound_packet.html" target="_top" xlink:title=" ">
<polygon fill="white" stroke="#bfbfbf" points="0,-215.5 0,-294.5 154,-294.5 154,-215.5 0,-215.5"/>
<text text-anchor="start" x="8" y="-282.5" font-family="Helvetica,sans-Serif" font-size="10.00">pocketmine\network</text>
<text text-anchor="start" x="8" y="-271.5" font-family="Helvetica,sans-Serif" font-size="10.00">\mcpe\protocol\Serverbound</text>
<text text-anchor="middle" x="77" y="-260.5" font-family="Helvetica,sans-Serif" font-size="10.00">Packet</text>
<polyline fill="none" stroke="#bfbfbf" points="0,-253.5 154,-253.5 "/>
<text text-anchor="middle" x="77" y="-241.5" font-family="Helvetica,sans-Serif" font-size="10.00"> </text>
<polyline fill="none" stroke="#bfbfbf" points="0,-234.5 154,-234.5 "/>
<text text-anchor="middle" x="77" y="-222.5" font-family="Helvetica,sans-Serif" font-size="10.00"> </text>
</a>
</g>
</g>
<!-- Node3&#45;&gt;Node5 -->
<g id="edge5" class="edge">
<title>Node3&#45;&gt;Node5</title>
<path fill="none" stroke="midnightblue" d="M153,-470.07C133.35,-414.73 106.72,-339.72 90.76,-294.76"/>
<polygon fill="none" stroke="midnightblue" points="149.81,-471.56 156.46,-479.82 156.41,-469.22 149.81,-471.56"/>
</g>
<!-- Node4 -->
<g id="node4" class="node">
<title>Node4</title>
<g id="a_node4"><a xlink:title=" ">
<polygon fill="white" stroke="#bfbfbf" points="334.5,-513 334.5,-570 377.5,-570 377.5,-513 334.5,-513"/>
<text text-anchor="middle" x="356" y="-558" font-family="Helvetica,sans-Serif" font-size="10.00">const</text>
<polyline fill="none" stroke="#bfbfbf" points="334.5,-551 377.5,-551 "/>
<text text-anchor="middle" x="356" y="-539" font-family="Helvetica,sans-Serif" font-size="10.00"> </text>
<polyline fill="none" stroke="#bfbfbf" points="334.5,-532 377.5,-532 "/>
<text text-anchor="middle" x="356" y="-520" font-family="Helvetica,sans-Serif" font-size="10.00"> </text>
</a>
</g>
</g>
<!-- Node4&#45;&gt;Node1 -->
<g id="edge6" class="edge">
<title>Node4&#45;&gt;Node1</title>
<path fill="none" stroke="#404040" d="M356,-512.8C356,-438.37 356,-232.45 356,-124.89"/>
<polygon fill="none" stroke="#404040" points="356,-124.59 352,-118.59 356,-112.59 360,-118.59 356,-124.59"/>
<text text-anchor="middle" x="395" y="-252.5" font-family="Helvetica,sans-Serif" font-size="10.00"> +NETWORK_ID</text>
</g>
<!-- Node4&#45;&gt;Node2 -->
<g id="edge3" class="edge">
<title>Node4&#45;&gt;Node2</title>
<path fill="none" stroke="#404040" d="M334.23,-522.67C312.34,-503.35 279.66,-470.35 264,-434 254.38,-411.67 248.97,-386.35 246.08,-361.97"/>
<polygon fill="none" stroke="#404040" points="246.04,-361.64 241.45,-356.08 244.82,-349.7 249.41,-355.26 246.04,-361.64"/>
<text text-anchor="middle" x="303" y="-404" font-family="Helvetica,sans-Serif" font-size="10.00"> +NETWORK_ID</text>
<text text-anchor="middle" x="303" y="-393" font-family="Helvetica,sans-Serif" font-size="10.00">+PID_MASK</text>
</g>
<!-- Node7 -->
<g id="node7" class="node">
<title>Node7</title>
<g id="a_node7"><a xlink:href="../../dd/d9e/classpocketmine_1_1network_1_1mcpe_1_1protocol_1_1types_1_1_structure_editor_data.html" target="_top" xlink:title=" ">
<polygon fill="white" stroke="#bfbfbf" points="452,-188 452,-322 626,-322 626,-188 452,-188"/>
<text text-anchor="start" x="460" y="-310" font-family="Helvetica,sans-Serif" font-size="10.00">pocketmine\network</text>
<text text-anchor="start" x="460" y="-299" font-family="Helvetica,sans-Serif" font-size="10.00">\mcpe\protocol\types</text>
<text text-anchor="middle" x="539" y="-288" font-family="Helvetica,sans-Serif" font-size="10.00">\StructureEditorData</text>
<polyline fill="none" stroke="#bfbfbf" points="452,-281 626,-281 "/>
<text text-anchor="start" x="460" y="-269" font-family="Helvetica,sans-Serif" font-size="10.00">+ $includePlayers</text>
<text text-anchor="start" x="460" y="-258" font-family="Helvetica,sans-Serif" font-size="10.00">+ $showBoundingBox</text>
<text text-anchor="start" x="460" y="-247" font-family="Helvetica,sans-Serif" font-size="10.00">+ $structureBlockType</text>
<text text-anchor="start" x="460" y="-236" font-family="Helvetica,sans-Serif" font-size="10.00">+ $structureDataField</text>
<text text-anchor="start" x="460" y="-225" font-family="Helvetica,sans-Serif" font-size="10.00">+ $structureName</text>
<text text-anchor="start" x="460" y="-214" font-family="Helvetica,sans-Serif" font-size="10.00">+ $structureRedstoneSaveMove</text>
<polyline fill="none" stroke="#bfbfbf" points="452,-207 626,-207 "/>
<text text-anchor="middle" x="539" y="-195" font-family="Helvetica,sans-Serif" font-size="10.00"> </text>
</a>
</g>
</g>
<!-- Node4&#45;&gt;Node7 -->
<g id="edge9" class="edge">
<title>Node4&#45;&gt;Node7</title>
<path fill="none" stroke="#404040" d="M368.64,-512.98C385.1,-478.14 415.61,-416.78 448,-368 455.96,-356.02 464.92,-343.77 474.05,-331.99"/>
<polygon fill="none" stroke="#404040" points="474.31,-331.65 474.87,-324.46 481.73,-322.22 481.16,-329.4 474.31,-331.65"/>
<text text-anchor="middle" x="489" y="-426" font-family="Helvetica,sans-Serif" font-size="10.00"> +TYPE_CORNER</text>
<text text-anchor="middle" x="489" y="-415" font-family="Helvetica,sans-Serif" font-size="10.00">+TYPE_DATA</text>
<text text-anchor="middle" x="489" y="-404" font-family="Helvetica,sans-Serif" font-size="10.00">+TYPE_EXPORT</text>
<text text-anchor="middle" x="489" y="-393" font-family="Helvetica,sans-Serif" font-size="10.00">+TYPE_INVALID</text>
<text text-anchor="middle" x="489" y="-382" font-family="Helvetica,sans-Serif" font-size="10.00">+TYPE_LOAD</text>
<text text-anchor="middle" x="489" y="-371" font-family="Helvetica,sans-Serif" font-size="10.00">+TYPE_SAVE</text>
</g>
<!-- Node5&#45;&gt;Node1 -->
<g id="edge4" class="edge">
<title>Node5&#45;&gt;Node1</title>
<path fill="none" stroke="midnightblue" d="M113.81,-207.59C128.09,-191.34 145.27,-173.73 163,-160 196.74,-133.86 238.1,-110.91 273.87,-93.38"/>
<polygon fill="none" stroke="midnightblue" points="110.92,-205.58 107.04,-215.44 116.22,-210.15 110.92,-205.58"/>
</g>
<!-- Node6 -->
<g id="node6" class="node">
<title>Node6</title>
<g id="a_node6"><a xlink:href="../../d1/d5f/classpocketmine_1_1network_1_1mcpe_1_1protocol_1_1types_1_1_block_position.html" target="_top" xlink:title=" ">
<polygon fill="white" stroke="#bfbfbf" points="595.5,-739 595.5,-873 714.5,-873 714.5,-739 595.5,-739"/>
<text text-anchor="start" x="603.5" y="-861" font-family="Helvetica,sans-Serif" font-size="10.00">pocketmine\network</text>
<text text-anchor="start" x="603.5" y="-850" font-family="Helvetica,sans-Serif" font-size="10.00">\mcpe\protocol\types</text>
<text text-anchor="middle" x="655" y="-839" font-family="Helvetica,sans-Serif" font-size="10.00">\BlockPosition</text>
<polyline fill="none" stroke="#bfbfbf" points="595.5,-832 714.5,-832 "/>
<text text-anchor="middle" x="655" y="-820" font-family="Helvetica,sans-Serif" font-size="10.00"> </text>
<polyline fill="none" stroke="#bfbfbf" points="595.5,-813 714.5,-813 "/>
<text text-anchor="start" x="603.5" y="-801" font-family="Helvetica,sans-Serif" font-size="10.00">+ __construct()</text>
<text text-anchor="start" x="603.5" y="-790" font-family="Helvetica,sans-Serif" font-size="10.00">+ equals()</text>
<text text-anchor="start" x="603.5" y="-779" font-family="Helvetica,sans-Serif" font-size="10.00">+ getX()</text>
<text text-anchor="start" x="603.5" y="-768" font-family="Helvetica,sans-Serif" font-size="10.00">+ getY()</text>
<text text-anchor="start" x="603.5" y="-757" font-family="Helvetica,sans-Serif" font-size="10.00">+ getZ()</text>
<text text-anchor="start" x="603.5" y="-746" font-family="Helvetica,sans-Serif" font-size="10.00">+ fromVector3()</text>
</a>
</g>
</g>
<!-- Node6&#45;&gt;Node1 -->
<g id="edge7" class="edge">
<title>Node6&#45;&gt;Node1</title>
<path fill="none" stroke="#404040" d="M674.94,-738.9C708.62,-612.92 761.49,-335.37 635,-160 592.82,-101.51 513.55,-76.34 450.26,-65.53"/>
<polygon fill="none" stroke="#404040" points="450.08,-65.5 443.53,-68.51 438.23,-63.62 444.79,-60.61 450.08,-65.5"/>
<text text-anchor="middle" x="755.5" y="-398.5" font-family="Helvetica,sans-Serif" font-size="10.00"> +$blockPosition</text>
</g>
<!-- Node8 -->
<g id="node8" class="node">
<title>Node8</title>
<g id="a_node8"><a xlink:href="../../d0/d65/classpocketmine_1_1network_1_1mcpe_1_1protocol_1_1types_1_1_structure_settings.html" target="_top" xlink:title=" ">
<polygon fill="white" stroke="#bfbfbf" points="461,-452.5 461,-630.5 607,-630.5 607,-452.5 461,-452.5"/>
<text text-anchor="start" x="469" y="-618.5" font-family="Helvetica,sans-Serif" font-size="10.00">pocketmine\network</text>
<text text-anchor="start" x="469" y="-607.5" font-family="Helvetica,sans-Serif" font-size="10.00">\mcpe\protocol\types</text>
<text text-anchor="middle" x="534" y="-596.5" font-family="Helvetica,sans-Serif" font-size="10.00">\StructureSettings</text>
<polyline fill="none" stroke="#bfbfbf" points="461,-589.5 607,-589.5 "/>
<text text-anchor="start" x="469" y="-577.5" font-family="Helvetica,sans-Serif" font-size="10.00">+ $animationMode</text>
<text text-anchor="start" x="469" y="-566.5" font-family="Helvetica,sans-Serif" font-size="10.00">+ $animationSeconds</text>
<text text-anchor="start" x="469" y="-555.5" font-family="Helvetica,sans-Serif" font-size="10.00">+ $ignoreBlocks</text>
<text text-anchor="start" x="469" y="-544.5" font-family="Helvetica,sans-Serif" font-size="10.00">+ $ignoreEntities</text>
<text text-anchor="start" x="469" y="-533.5" font-family="Helvetica,sans-Serif" font-size="10.00">+ $integritySeed</text>
<text text-anchor="start" x="469" y="-522.5" font-family="Helvetica,sans-Serif" font-size="10.00">+ $integrityValue</text>
<text text-anchor="start" x="469" y="-511.5" font-family="Helvetica,sans-Serif" font-size="10.00">+ $lastTouchedByPlayerID</text>
<text text-anchor="start" x="469" y="-500.5" font-family="Helvetica,sans-Serif" font-size="10.00">+ $mirror</text>
<text text-anchor="start" x="469" y="-489.5" font-family="Helvetica,sans-Serif" font-size="10.00">+ $paletteName</text>
<text text-anchor="start" x="469" y="-478.5" font-family="Helvetica,sans-Serif" font-size="10.00">+ $rotation</text>
<polyline fill="none" stroke="#bfbfbf" points="461,-471.5 607,-471.5 "/>
<text text-anchor="middle" x="534" y="-459.5" font-family="Helvetica,sans-Serif" font-size="10.00"> </text>
</a>
</g>
</g>
<!-- Node6&#45;&gt;Node8 -->
<g id="edge11" class="edge">
<title>Node6&#45;&gt;Node8</title>
<path fill="none" stroke="#404040" d="M615.05,-738.85C604.82,-722.42 593.69,-704.95 583,-689 577.51,-680.8 574.29,-679.89 570,-671 565.62,-661.93 561.7,-652.23 558.19,-642.38"/>
<polygon fill="none" stroke="#404040" points="558.11,-642.14 552.4,-637.74 554.27,-630.77 559.98,-635.18 558.11,-642.14"/>
<text text-anchor="middle" x="607" y="-663" font-family="Helvetica,sans-Serif" font-size="10.00"> +$dimensions</text>
<text text-anchor="middle" x="607" y="-652" font-family="Helvetica,sans-Serif" font-size="10.00">+$offset</text>
</g>
<!-- Node7&#45;&gt;Node1 -->
<g id="edge8" class="edge">
<title>Node7&#45;&gt;Node1</title>
<path fill="none" stroke="#404040" d="M477.3,-187.75C457.42,-166.4 435.42,-142.78 415.69,-121.59"/>
<polygon fill="none" stroke="#404040" points="415.56,-121.45 408.54,-119.79 407.38,-112.67 414.4,-114.34 415.56,-121.45"/>
<text text-anchor="middle" x="487.5" y="-134" font-family="Helvetica,sans-Serif" font-size="10.00"> +$structureEditorData</text>
</g>
<!-- Node8&#45;&gt;Node7 -->
<g id="edge10" class="edge">
<title>Node8&#45;&gt;Node7</title>
<path fill="none" stroke="#404040" d="M534,-452.29C534.14,-425.25 534.43,-395.4 535,-368 535.23,-357.07 535.55,-345.55 535.91,-334.21"/>
<polygon fill="none" stroke="#404040" points="535.91,-334.02 532.12,-327.89 536.31,-322.02 540.11,-328.15 535.91,-334.02"/>
<text text-anchor="middle" x="585.5" y="-398.5" font-family="Helvetica,sans-Serif" font-size="10.00"> +$structureSettings</text>
</g>
<!-- Node9 -->
<g id="node9" class="node">
<title>Node9</title>
<g id="a_node9"><a xlink:href="../../d2/d90/classpocketmine_1_1math_1_1_vector3.html" target="_top" xlink:title=" ">
<polygon fill="white" stroke="#bfbfbf" points="432,-689.5 432,-922.5 574,-922.5 574,-689.5 432,-689.5"/>
<text text-anchor="middle" x="503" y="-910.5" font-family="Helvetica,sans-Serif" font-size="10.00">pocketmine\math\Vector3</text>
<polyline fill="none" stroke="#bfbfbf" points="432,-903.5 574,-903.5 "/>
<text text-anchor="start" x="440" y="-891.5" font-family="Helvetica,sans-Serif" font-size="10.00">+ $x</text>
<text text-anchor="start" x="440" y="-880.5" font-family="Helvetica,sans-Serif" font-size="10.00">+ $y</text>
<text text-anchor="start" x="440" y="-869.5" font-family="Helvetica,sans-Serif" font-size="10.00">+ $z</text>
<polyline fill="none" stroke="#bfbfbf" points="432,-862.5 574,-862.5 "/>
<text text-anchor="start" x="440" y="-850.5" font-family="Helvetica,sans-Serif" font-size="10.00">+ __construct()</text>
<text text-anchor="start" x="440" y="-839.5" font-family="Helvetica,sans-Serif" font-size="10.00">+ __toString()</text>
<text text-anchor="start" x="440" y="-828.5" font-family="Helvetica,sans-Serif" font-size="10.00">+ abs()</text>
<text text-anchor="start" x="440" y="-817.5" font-family="Helvetica,sans-Serif" font-size="10.00">+ add()</text>
<text text-anchor="start" x="440" y="-806.5" font-family="Helvetica,sans-Serif" font-size="10.00">+ addVector()</text>
<text text-anchor="start" x="440" y="-795.5" font-family="Helvetica,sans-Serif" font-size="10.00">+ asVector3()</text>
<text text-anchor="start" x="440" y="-784.5" font-family="Helvetica,sans-Serif" font-size="10.00">+ ceil()</text>
<text text-anchor="start" x="440" y="-773.5" font-family="Helvetica,sans-Serif" font-size="10.00">+ cross()</text>
<text text-anchor="start" x="440" y="-762.5" font-family="Helvetica,sans-Serif" font-size="10.00">+ distance()</text>
<text text-anchor="start" x="440" y="-751.5" font-family="Helvetica,sans-Serif" font-size="10.00">+ distanceSquared()</text>
<text text-anchor="start" x="440" y="-740.5" font-family="Helvetica,sans-Serif" font-size="10.00">and 32 more...</text>
<text text-anchor="start" x="440" y="-729.5" font-family="Helvetica,sans-Serif" font-size="10.00">+ maxComponents()</text>
<text text-anchor="start" x="440" y="-718.5" font-family="Helvetica,sans-Serif" font-size="10.00">+ minComponents()</text>
<text text-anchor="start" x="440" y="-707.5" font-family="Helvetica,sans-Serif" font-size="10.00">+ sum()</text>
<text text-anchor="start" x="440" y="-696.5" font-family="Helvetica,sans-Serif" font-size="10.00">+ zero()</text>
</a>
</g>
</g>
<!-- Node9&#45;&gt;Node8 -->
<g id="edge12" class="edge">
<title>Node9&#45;&gt;Node8</title>
<path fill="none" stroke="#404040" d="M500.28,-689.31C500.98,-675.68 502.16,-662.01 504,-649 504.29,-646.94 504.61,-644.86 504.96,-642.78"/>
<polygon fill="none" stroke="#404040" points="505,-642.53 502.17,-635.9 507.21,-630.74 510.04,-637.37 505,-642.53"/>
<text text-anchor="middle" x="525.5" y="-657.5" font-family="Helvetica,sans-Serif" font-size="10.00"> +$pivot</text>
</g>
</g>
</svg>
