<?xml version="1.0" encoding="UTF-8" standalone="no"?>
<!DOCTYPE svg PUBLIC "-//W3C//DTD SVG 1.1//EN"
 "http://www.w3.org/Graphics/SVG/1.1/DTD/svg11.dtd">
<!-- Generated by graphviz version 2.43.0 (0)
 -->
<!-- Title: pocketmine\network\mcpe\protocol\AddActorPacket Pages: 1 -->
<svg width="599pt" height="672pt"
 viewBox="0.00 0.00 598.50 672.00" xmlns="http://www.w3.org/2000/svg" xmlns:xlink="http://www.w3.org/1999/xlink">
<g id="graph0" class="graph" transform="scale(1 1) rotate(0) translate(4 668)">
<title>pocketmine\network\mcpe\protocol\AddActorPacket</title>
<polygon fill="white" stroke="transparent" points="-4,4 -4,-668 594.5,-668 594.5,4 -4,4"/>
<!-- Node1 -->
<g id="node1" class="node">
<title>Node1</title>
<g id="a_node1"><a xlink:title=" ">
<polygon fill="#bfbfbf" stroke="black" points="240.5,-0.5 240.5,-189.5 408.5,-189.5 408.5,-0.5 240.5,-0.5"/>
<text text-anchor="start" x="248.5" y="-177.5" font-family="Helvetica,sans-Serif" font-size="10.00">pocketmine\network</text>
<text text-anchor="middle" x="324.5" y="-166.5" font-family="Helvetica,sans-Serif" font-size="10.00">\mcpe\protocol\AddActorPacket</text>
<polyline fill="none" stroke="black" points="240.5,-159.5 408.5,-159.5 "/>
<text text-anchor="start" x="248.5" y="-147.5" font-family="Helvetica,sans-Serif" font-size="10.00">+ $actorRuntimeId</text>
<text text-anchor="start" x="248.5" y="-136.5" font-family="Helvetica,sans-Serif" font-size="10.00">+ $actorUniqueId</text>
<text text-anchor="start" x="248.5" y="-125.5" font-family="Helvetica,sans-Serif" font-size="10.00">+ $attributes</text>
<text text-anchor="start" x="248.5" y="-114.5" font-family="Helvetica,sans-Serif" font-size="10.00">+ $headYaw</text>
<text text-anchor="start" x="248.5" y="-103.5" font-family="Helvetica,sans-Serif" font-size="10.00">+ $links</text>
<text text-anchor="start" x="248.5" y="-92.5" font-family="Helvetica,sans-Serif" font-size="10.00">+ $metadata</text>
<text text-anchor="start" x="248.5" y="-81.5" font-family="Helvetica,sans-Serif" font-size="10.00">+ $pitch</text>
<text text-anchor="start" x="248.5" y="-70.5" font-family="Helvetica,sans-Serif" font-size="10.00">+ $type</text>
<text text-anchor="start" x="248.5" y="-59.5" font-family="Helvetica,sans-Serif" font-size="10.00">+ $yaw</text>
<polyline fill="none" stroke="black" points="240.5,-52.5 408.5,-52.5 "/>
<text text-anchor="start" x="248.5" y="-40.5" font-family="Helvetica,sans-Serif" font-size="10.00">+ handle()</text>
<text text-anchor="start" x="248.5" y="-29.5" font-family="Helvetica,sans-Serif" font-size="10.00">+ create()</text>
<text text-anchor="start" x="248.5" y="-18.5" font-family="Helvetica,sans-Serif" font-size="10.00"># decodePayload()</text>
<text text-anchor="start" x="248.5" y="-7.5" font-family="Helvetica,sans-Serif" font-size="10.00"># encodePayload()</text>
</a>
</g>
</g>
<!-- Node2 -->
<g id="node2" class="node">
<title>Node2</title>
<g id="a_node2"><a xlink:href="../../d1/ddb/classpocketmine_1_1network_1_1mcpe_1_1protocol_1_1_data_packet.html" target="_top" xlink:title=" ">
<polygon fill="white" stroke="#bfbfbf" points="169,-270.5 169,-459.5 316,-459.5 316,-270.5 169,-270.5"/>
<text text-anchor="start" x="177" y="-447.5" font-family="Helvetica,sans-Serif" font-size="10.00">pocketmine\network</text>
<text text-anchor="middle" x="242.5" y="-436.5" font-family="Helvetica,sans-Serif" font-size="10.00">\mcpe\protocol\DataPacket</text>
<polyline fill="none" stroke="#bfbfbf" points="169,-429.5 316,-429.5 "/>
<text text-anchor="start" x="177" y="-417.5" font-family="Helvetica,sans-Serif" font-size="10.00">+ $recipientSubId</text>
<text text-anchor="start" x="177" y="-406.5" font-family="Helvetica,sans-Serif" font-size="10.00">+ $senderSubId</text>
<polyline fill="none" stroke="#bfbfbf" points="169,-399.5 316,-399.5 "/>
<text text-anchor="start" x="177" y="-387.5" font-family="Helvetica,sans-Serif" font-size="10.00">+ __get()</text>
<text text-anchor="start" x="177" y="-376.5" font-family="Helvetica,sans-Serif" font-size="10.00">+ __set()</text>
<text text-anchor="start" x="177" y="-365.5" font-family="Helvetica,sans-Serif" font-size="10.00">+ canBeSentBeforeLogin()</text>
<text text-anchor="start" x="177" y="-354.5" font-family="Helvetica,sans-Serif" font-size="10.00">+ decode()</text>
<text text-anchor="start" x="177" y="-343.5" font-family="Helvetica,sans-Serif" font-size="10.00">+ encode()</text>
<text text-anchor="start" x="177" y="-332.5" font-family="Helvetica,sans-Serif" font-size="10.00">+ getName()</text>
<text text-anchor="start" x="177" y="-321.5" font-family="Helvetica,sans-Serif" font-size="10.00">+ pid()</text>
<text text-anchor="start" x="177" y="-310.5" font-family="Helvetica,sans-Serif" font-size="10.00"># decodeHeader()</text>
<text text-anchor="start" x="177" y="-299.5" font-family="Helvetica,sans-Serif" font-size="10.00"># decodePayload()</text>
<text text-anchor="start" x="177" y="-288.5" font-family="Helvetica,sans-Serif" font-size="10.00"># encodeHeader()</text>
<text text-anchor="start" x="177" y="-277.5" font-family="Helvetica,sans-Serif" font-size="10.00"># encodePayload()</text>
</a>
</g>
</g>
<!-- Node2&#45;&gt;Node1 -->
<g id="edge1" class="edge">
<title>Node2&#45;&gt;Node1</title>
<path fill="none" stroke="midnightblue" d="M274.11,-260.69C281.26,-237.32 288.82,-212.63 295.84,-189.68"/>
<polygon fill="none" stroke="midnightblue" points="270.76,-259.68 271.18,-270.27 277.45,-261.73 270.76,-259.68"/>
</g>
<!-- Node3 -->
<g id="node3" class="node">
<title>Node3</title>
<g id="a_node3"><a xlink:href="../../d4/d5d/interfacepocketmine_1_1network_1_1mcpe_1_1protocol_1_1_packet.html" target="_top" xlink:title=" ">
<polygon fill="white" stroke="#bfbfbf" points="65.5,-540.5 65.5,-663.5 211.5,-663.5 211.5,-540.5 65.5,-540.5"/>
<text text-anchor="start" x="73.5" y="-651.5" font-family="Helvetica,sans-Serif" font-size="10.00">pocketmine\network</text>
<text text-anchor="middle" x="138.5" y="-640.5" font-family="Helvetica,sans-Serif" font-size="10.00">\mcpe\protocol\Packet</text>
<polyline fill="none" stroke="#bfbfbf" points="65.5,-633.5 211.5,-633.5 "/>
<text text-anchor="middle" x="138.5" y="-621.5" font-family="Helvetica,sans-Serif" font-size="10.00"> </text>
<polyline fill="none" stroke="#bfbfbf" points="65.5,-614.5 211.5,-614.5 "/>
<text text-anchor="start" x="73.5" y="-602.5" font-family="Helvetica,sans-Serif" font-size="10.00">+ canBeSentBeforeLogin()</text>
<text text-anchor="start" x="73.5" y="-591.5" font-family="Helvetica,sans-Serif" font-size="10.00">+ decode()</text>
<text text-anchor="start" x="73.5" y="-580.5" font-family="Helvetica,sans-Serif" font-size="10.00">+ encode()</text>
<text text-anchor="start" x="73.5" y="-569.5" font-family="Helvetica,sans-Serif" font-size="10.00">+ getName()</text>
<text text-anchor="start" x="73.5" y="-558.5" font-family="Helvetica,sans-Serif" font-size="10.00">+ handle()</text>
<text text-anchor="start" x="73.5" y="-547.5" font-family="Helvetica,sans-Serif" font-size="10.00">+ pid()</text>
</a>
</g>
</g>
<!-- Node3&#45;&gt;Node2 -->
<g id="edge2" class="edge">
<title>Node3&#45;&gt;Node2</title>
<path fill="none" stroke="midnightblue" d="M169.45,-531.06C179.37,-508.64 190.52,-483.45 201.07,-459.62"/>
<polygon fill="none" stroke="midnightblue" points="166.13,-529.92 165.28,-540.48 172.53,-532.75 166.13,-529.92"/>
</g>
<!-- Node5 -->
<g id="node5" class="node">
<title>Node5</title>
<g id="a_node5"><a xlink:href="../../da/d77/interfacepocketmine_1_1network_1_1mcpe_1_1protocol_1_1_clientbound_packet.html" target="_top" xlink:title=" ">
<polygon fill="white" stroke="#bfbfbf" points="0,-325.5 0,-404.5 151,-404.5 151,-325.5 0,-325.5"/>
<text text-anchor="start" x="8" y="-392.5" font-family="Helvetica,sans-Serif" font-size="10.00">pocketmine\network</text>
<text text-anchor="start" x="8" y="-381.5" font-family="Helvetica,sans-Serif" font-size="10.00">\mcpe\protocol\Clientbound</text>
<text text-anchor="middle" x="75.5" y="-370.5" font-family="Helvetica,sans-Serif" font-size="10.00">Packet</text>
<polyline fill="none" stroke="#bfbfbf" points="0,-363.5 151,-363.5 "/>
<text text-anchor="middle" x="75.5" y="-351.5" font-family="Helvetica,sans-Serif" font-size="10.00"> </text>
<polyline fill="none" stroke="#bfbfbf" points="0,-344.5 151,-344.5 "/>
<text text-anchor="middle" x="75.5" y="-332.5" font-family="Helvetica,sans-Serif" font-size="10.00"> </text>
</a>
</g>
</g>
<!-- Node3&#45;&gt;Node5 -->
<g id="edge5" class="edge">
<title>Node3&#45;&gt;Node5</title>
<path fill="none" stroke="midnightblue" d="M119.66,-530.74C108.58,-489.41 95,-438.74 85.85,-404.59"/>
<polygon fill="none" stroke="midnightblue" points="116.31,-531.73 122.28,-540.48 123.07,-529.92 116.31,-531.73"/>
</g>
<!-- Node4 -->
<g id="node4" class="node">
<title>Node4</title>
<g id="a_node4"><a xlink:title=" ">
<polygon fill="white" stroke="#bfbfbf" points="251,-573.5 251,-630.5 294,-630.5 294,-573.5 251,-573.5"/>
<text text-anchor="middle" x="272.5" y="-618.5" font-family="Helvetica,sans-Serif" font-size="10.00">const</text>
<polyline fill="none" stroke="#bfbfbf" points="251,-611.5 294,-611.5 "/>
<text text-anchor="middle" x="272.5" y="-599.5" font-family="Helvetica,sans-Serif" font-size="10.00"> </text>
<polyline fill="none" stroke="#bfbfbf" points="251,-592.5 294,-592.5 "/>
<text text-anchor="middle" x="272.5" y="-580.5" font-family="Helvetica,sans-Serif" font-size="10.00"> </text>
</a>
</g>
</g>
<!-- Node4&#45;&gt;Node1 -->
<g id="edge6" class="edge">
<title>Node4&#45;&gt;Node1</title>
<path fill="none" stroke="#404040" d="M294.31,-582.76C309.94,-568.16 329.72,-546.19 338.5,-522 359.03,-465.4 347.8,-308.63 336.9,-201.9"/>
<polygon fill="none" stroke="#404040" points="336.88,-201.73 332.28,-196.18 335.64,-189.79 340.24,-195.35 336.88,-201.73"/>
<text text-anchor="middle" x="389.5" y="-362.5" font-family="Helvetica,sans-Serif" font-size="10.00"> +NETWORK_ID</text>
</g>
<!-- Node4&#45;&gt;Node2 -->
<g id="edge3" class="edge">
<title>Node4&#45;&gt;Node2</title>
<path fill="none" stroke="#404040" d="M268.04,-573.25C265.66,-558.12 262.78,-539.05 260.5,-522 258.34,-505.8 256.2,-488.63 254.19,-471.84"/>
<polygon fill="none" stroke="#404040" points="254.17,-471.61 249.49,-466.12 252.76,-459.7 257.43,-465.19 254.17,-471.61"/>
<text text-anchor="middle" x="299.5" y="-514" font-family="Helvetica,sans-Serif" font-size="10.00"> +NETWORK_ID</text>
<text text-anchor="middle" x="299.5" y="-503" font-family="Helvetica,sans-Serif" font-size="10.00">+PID_MASK</text>
</g>
<!-- Node5&#45;&gt;Node1 -->
<g id="edge4" class="edge">
<title>Node5&#45;&gt;Node1</title>
<path fill="none" stroke="midnightblue" d="M106.34,-317.01C121.41,-295.24 140.4,-269.49 159.5,-248 184.21,-220.2 213.45,-191.99 240.39,-167.54"/>
<polygon fill="none" stroke="midnightblue" points="103.32,-315.23 100.55,-325.45 109.09,-319.19 103.32,-315.23"/>
</g>
<!-- Node6 -->
<g id="node6" class="node">
<title>Node6</title>
<g id="a_node6"><a xlink:href="../../d2/d90/classpocketmine_1_1math_1_1_vector3.html" target="_top" xlink:title=" ">
<polygon fill="white" stroke="#bfbfbf" points="448.5,-248.5 448.5,-481.5 590.5,-481.5 590.5,-248.5 448.5,-248.5"/>
<text text-anchor="middle" x="519.5" y="-469.5" font-family="Helvetica,sans-Serif" font-size="10.00">pocketmine\math\Vector3</text>
<polyline fill="none" stroke="#bfbfbf" points="448.5,-462.5 590.5,-462.5 "/>
<text text-anchor="start" x="456.5" y="-450.5" font-family="Helvetica,sans-Serif" font-size="10.00">+ $x</text>
<text text-anchor="start" x="456.5" y="-439.5" font-family="Helvetica,sans-Serif" font-size="10.00">+ $y</text>
<text text-anchor="start" x="456.5" y="-428.5" font-family="Helvetica,sans-Serif" font-size="10.00">+ $z</text>
<polyline fill="none" stroke="#bfbfbf" points="448.5,-421.5 590.5,-421.5 "/>
<text text-anchor="start" x="456.5" y="-409.5" font-family="Helvetica,sans-Serif" font-size="10.00">+ __construct()</text>
<text text-anchor="start" x="456.5" y="-398.5" font-family="Helvetica,sans-Serif" font-size="10.00">+ __toString()</text>
<text text-anchor="start" x="456.5" y="-387.5" font-family="Helvetica,sans-Serif" font-size="10.00">+ abs()</text>
<text text-anchor="start" x="456.5" y="-376.5" font-family="Helvetica,sans-Serif" font-size="10.00">+ add()</text>
<text text-anchor="start" x="456.5" y="-365.5" font-family="Helvetica,sans-Serif" font-size="10.00">+ addVector()</text>
<text text-anchor="start" x="456.5" y="-354.5" font-family="Helvetica,sans-Serif" font-size="10.00">+ asVector3()</text>
<text text-anchor="start" x="456.5" y="-343.5" font-family="Helvetica,sans-Serif" font-size="10.00">+ ceil()</text>
<text text-anchor="start" x="456.5" y="-332.5" font-family="Helvetica,sans-Serif" font-size="10.00">+ cross()</text>
<text text-anchor="start" x="456.5" y="-321.5" font-family="Helvetica,sans-Serif" font-size="10.00">+ distance()</text>
<text text-anchor="start" x="456.5" y="-310.5" font-family="Helvetica,sans-Serif" font-size="10.00">+ distanceSquared()</text>
<text text-anchor="start" x="456.5" y="-299.5" font-family="Helvetica,sans-Serif" font-size="10.00">and 32 more...</text>
<text text-anchor="start" x="456.5" y="-288.5" font-family="Helvetica,sans-Serif" font-size="10.00">+ maxComponents()</text>
<text text-anchor="start" x="456.5" y="-277.5" font-family="Helvetica,sans-Serif" font-size="10.00">+ minComponents()</text>
<text text-anchor="start" x="456.5" y="-266.5" font-family="Helvetica,sans-Serif" font-size="10.00">+ sum()</text>
<text text-anchor="start" x="456.5" y="-255.5" font-family="Helvetica,sans-Serif" font-size="10.00">+ zero()</text>
</a>
</g>
</g>
<!-- Node6&#45;&gt;Node1 -->
<g id="edge7" class="edge">
<title>Node6&#45;&gt;Node1</title>
<path fill="none" stroke="#404040" d="M448.27,-266.11C432.52,-244.45 415.77,-221.44 399.86,-199.57"/>
<polygon fill="none" stroke="#404040" points="399.67,-199.31 392.91,-196.81 392.61,-189.61 399.37,-192.11 399.67,-199.31"/>
<text text-anchor="middle" x="449.5" y="-222" font-family="Helvetica,sans-Serif" font-size="10.00"> +$motion</text>
<text text-anchor="middle" x="449.5" y="-211" font-family="Helvetica,sans-Serif" font-size="10.00">+$position</text>
</g>
</g>
</svg>
