<?xml version="1.0" encoding="UTF-8" standalone="no"?>
<!DOCTYPE svg PUBLIC "-//W3C//DTD SVG 1.1//EN"
 "http://www.w3.org/Graphics/SVG/1.1/DTD/svg11.dtd">
<!-- Generated by graphviz version 2.43.0 (0)
 -->
<!-- Title: pocketmine\plugin\PluginDescriptionParseException Pages: 1 -->
<svg width="182pt" height="334pt"
 viewBox="0.00 0.00 182.00 334.00" xmlns="http://www.w3.org/2000/svg" xmlns:xlink="http://www.w3.org/1999/xlink">
<g id="graph0" class="graph" transform="scale(1 1) rotate(0) translate(4 330)">
<title>pocketmine\plugin\PluginDescriptionParseException</title>
<!-- Node1 -->
<g id="Node000001" class="node">
<title>Node1</title>
<g id="a_Node000001"><a xlink:title=" ">
<polygon fill="#999999" stroke="transparent" points="157,-60 17,-60 17,0 157,0 157,-60"/>
<text text-anchor="start" x="22" y="-48" font-family="Helvetica,sans-Serif" font-size="10.00">pocketmine\plugin\Plugin</text>
<text text-anchor="start" x="22" y="-37" font-family="Helvetica,sans-Serif" font-size="10.00">DescriptionParseException</text>
<text text-anchor="start" x="85" y="-22" font-family="Helvetica,sans-Serif" font-size="10.00"> </text>
<text text-anchor="start" x="85" y="-7" font-family="Helvetica,sans-Serif" font-size="10.00"> </text>
<polygon fill="#666666" stroke="#666666" points="17,-32 17,-32 157,-32 157,-32 17,-32"/>
<polygon fill="#666666" stroke="#666666" points="17,-17 17,-17 157,-17 157,-17 17,-17"/>
<polygon fill="none" stroke="#666666" points="17,0 17,-60 157,-60 157,0 17,0"/>
</a>
</g>
</g>
<!-- Node2 -->
<g id="Node000002" class="node">
<title>Node2</title>
<g id="a_Node000002"><a xlink:href="../../d0/d7b/classpocketmine_1_1plugin_1_1_plugin_exception.html" target="_top" xlink:title=" ">
<polygon fill="white" stroke="transparent" points="154,-156 20,-156 20,-96 154,-96 154,-156"/>
<text text-anchor="start" x="25" y="-144" font-family="Helvetica,sans-Serif" font-size="10.00">pocketmine\plugin\Plugin</text>
<text text-anchor="start" x="62.5" y="-133" font-family="Helvetica,sans-Serif" font-size="10.00">Exception</text>
<text text-anchor="start" x="85" y="-118" font-family="Helvetica,sans-Serif" font-size="10.00"> </text>
<text text-anchor="start" x="85" y="-103" font-family="Helvetica,sans-Serif" font-size="10.00"> </text>
<polygon fill="#bfbfbf" stroke="#bfbfbf" points="20,-128 20,-128 154,-128 154,-128 20,-128"/>
<polygon fill="#bfbfbf" stroke="#bfbfbf" points="20,-113 20,-113 154,-113 154,-113 20,-113"/>
<polygon fill="none" stroke="#bfbfbf" points="20,-96 20,-156 154,-156 154,-96 20,-96"/>
</a>
</g>
</g>
<!-- Node2&#45;&gt;Node1 -->
<g id="edge1_Node000001_Node000002" class="edge">
<title>Node2&#45;&gt;Node1</title>
<g id="a_edge1_Node000001_Node000002"><a xlink:title=" ">
<path fill="none" stroke="#63b8ff" d="M87,-85.63C87,-77.11 87,-68.25 87,-60.21"/>
<polygon fill="none" stroke="#63b8ff" points="83.5,-85.77 87,-95.77 90.5,-85.77 83.5,-85.77"/>
</a>
</g>
</g>
<!-- Node3 -->
<g id="Node000003" class="node">
<title>Node3</title>
<g id="a_Node000003"><a xlink:href="../../d8/d65/classpocketmine_1_1utils_1_1_server_exception.html" target="_top" xlink:title=" ">
<polygon fill="white" stroke="transparent" points="174,-241 0,-241 0,-192 174,-192 174,-241"/>
<text text-anchor="start" x="5" y="-228.5" font-family="Helvetica,sans-Serif" font-size="10.00">pocketmine\utils\ServerException</text>
<text text-anchor="start" x="85" y="-213.5" font-family="Helvetica,sans-Serif" font-size="10.00"> </text>
<text text-anchor="start" x="85" y="-198.5" font-family="Helvetica,sans-Serif" font-size="10.00"> </text>
<polygon fill="#bfbfbf" stroke="#bfbfbf" points="0,-223.5 0,-223.5 174,-223.5 174,-223.5 0,-223.5"/>
<polygon fill="#bfbfbf" stroke="#bfbfbf" points="0,-208.5 0,-208.5 174,-208.5 174,-208.5 0,-208.5"/>
<polygon fill="none" stroke="#bfbfbf" points="0,-192 0,-241 174,-241 174,-192 0,-192"/>
</a>
</g>
</g>
<!-- Node3&#45;&gt;Node2 -->
<g id="edge2_Node000002_Node000003" class="edge">
<title>Node3&#45;&gt;Node2</title>
<g id="a_edge2_Node000002_Node000003"><a xlink:title=" ">
<path fill="none" stroke="#63b8ff" d="M87,-181.55C87,-173.18 87,-164.28 87,-156.16"/>
<polygon fill="none" stroke="#63b8ff" points="83.5,-181.78 87,-191.78 90.5,-181.78 83.5,-181.78"/>
</a>
</g>
</g>
<!-- Node4 -->
<g id="Node000004" class="node">
<title>Node4</title>
<g id="a_Node000004"><a xlink:title=" ">
<polygon fill="white" stroke="transparent" points="137,-326 37,-326 37,-277 137,-277 137,-326"/>
<text text-anchor="start" x="42" y="-313.5" font-family="Helvetica,sans-Serif" font-size="10.00">RuntimeException</text>
<text text-anchor="start" x="85" y="-298.5" font-family="Helvetica,sans-Serif" font-size="10.00"> </text>
<text text-anchor="start" x="85" y="-283.5" font-family="Helvetica,sans-Serif" font-size="10.00"> </text>
<polygon fill="#bfbfbf" stroke="#bfbfbf" points="37,-308.5 37,-308.5 137,-308.5 137,-308.5 37,-308.5"/>
<polygon fill="#bfbfbf" stroke="#bfbfbf" points="37,-293.5 37,-293.5 137,-293.5 137,-293.5 37,-293.5"/>
<polygon fill="none" stroke="#bfbfbf" points="37,-277 37,-326 137,-326 137,-277 37,-277"/>
</a>
</g>
</g>
<!-- Node4&#45;&gt;Node3 -->
<g id="edge3_Node000003_Node000004" class="edge">
<title>Node4&#45;&gt;Node3</title>
<g id="a_edge3_Node000003_Node000004"><a xlink:title=" ">
<path fill="none" stroke="#63b8ff" d="M87,-266.77C87,-258.17 87,-249.1 87,-241.12"/>
<polygon fill="none" stroke="#63b8ff" points="83.5,-266.94 87,-276.94 90.5,-266.94 83.5,-266.94"/>
</a>
</g>
</g>
</g>
</svg>
