<?xml version="1.0" encoding="UTF-8" standalone="no"?>
<!DOCTYPE svg PUBLIC "-//W3C//DTD SVG 1.1//EN"
 "http://www.w3.org/Graphics/SVG/1.1/DTD/svg11.dtd">
<!-- Generated by graphviz version 2.43.0 (0)
 -->
<!-- Title: pocketmine\entity\effect\LevitationEffect Pages: 1 -->
<svg width="138pt" height="359pt"
 viewBox="0.00 0.00 138.00 359.00" xmlns="http://www.w3.org/2000/svg" xmlns:xlink="http://www.w3.org/1999/xlink">

<svg id="main" version="1.1" xmlns="http://www.w3.org/2000/svg" xmlns:xlink="http://www.w3.org/1999/xlink" xml:space="preserve">

<style type="text/css"><![CDATA[
.node, .edge {opacity: 0.7;}
.node.selected, .edge.selected {opacity: 1;}
.edge:hover path { stroke: red; }
.edge:hover polygon { stroke: red; fill: red; }
]]></style>
<script type="application/ecmascript" xlink:href="../../svg.min.js"/>
<svg id="graph" class="graph">
<g id="graph0" class="graph" transform="scale(1 1) rotate(0) translate(4 355)">
<title>pocketmine\entity\effect\LevitationEffect</title>
<!-- Node1 -->
<g id="Node000001" class="node">
<title>Node1</title>
<g id="a_Node000001"><a xlink:title=" ">
<polygon fill="#999999" stroke="transparent" points="130,-105 0,-105 0,0 130,0 130,-105"/>
<text text-anchor="start" x="5" y="-92.5" font-family="Helvetica,sans-Serif" font-size="10.00">pocketmine\entity\effect</text>
<text text-anchor="start" x="25" y="-81.5" font-family="Helvetica,sans-Serif" font-size="10.00">\LevitationEffect</text>
<text text-anchor="start" x="63" y="-66.5" font-family="Helvetica,sans-Serif" font-size="10.00"> </text>
<text text-anchor="start" x="9" y="-51.5" font-family="Helvetica,sans-Serif" font-size="10.00">+</text>
<text text-anchor="start" x="27" y="-51.5" font-family="Helvetica,sans-Serif" font-size="10.00">add()</text>
<text text-anchor="start" x="9" y="-36.5" font-family="Helvetica,sans-Serif" font-size="10.00">+</text>
<text text-anchor="start" x="27" y="-36.5" font-family="Helvetica,sans-Serif" font-size="10.00">applyEffect()</text>
<text text-anchor="start" x="9" y="-21.5" font-family="Helvetica,sans-Serif" font-size="10.00">+</text>
<text text-anchor="start" x="27" y="-21.5" font-family="Helvetica,sans-Serif" font-size="10.00">getApplyInterval()</text>
<text text-anchor="start" x="9" y="-6.5" font-family="Helvetica,sans-Serif" font-size="10.00">+</text>
<text text-anchor="start" x="27" y="-6.5" font-family="Helvetica,sans-Serif" font-size="10.00">remove()</text>
<polygon fill="#666666" stroke="#666666" points="0,-76.5 0,-76.5 130,-76.5 130,-76.5 0,-76.5"/>
<polygon fill="#666666" stroke="#666666" points="0,-61.5 0,-61.5 130,-61.5 130,-61.5 0,-61.5"/>
<polygon fill="none" stroke="#666666" points="0,0 0,-105 130,-105 130,0 0,0"/>
</a>
</g>
</g>
<!-- Node2 -->
<g id="Node000002" class="node">
<title>Node2</title>
<g id="a_Node000002"><a xlink:href="../../d0/d37/classpocketmine_1_1entity_1_1effect_1_1_effect.html" target="_top" xlink:title=" ">
<polygon fill="white" stroke="transparent" points="130,-351 0,-351 0,-141 130,-141 130,-351"/>
<text text-anchor="start" x="5" y="-339" font-family="Helvetica,sans-Serif" font-size="10.00">pocketmine\entity\effect</text>
<text text-anchor="start" x="49.5" y="-328" font-family="Helvetica,sans-Serif" font-size="10.00">\Effect</text>
<text text-anchor="start" x="63" y="-313" font-family="Helvetica,sans-Serif" font-size="10.00"> </text>
<text text-anchor="start" x="5.5" y="-298" font-family="Helvetica,sans-Serif" font-size="10.00">+</text>
<text text-anchor="start" x="20" y="-298" font-family="Helvetica,sans-Serif" font-size="10.00">__construct()</text>
<text text-anchor="start" x="5.5" y="-283" font-family="Helvetica,sans-Serif" font-size="10.00">+</text>
<text text-anchor="start" x="20" y="-283" font-family="Helvetica,sans-Serif" font-size="10.00">add()</text>
<text text-anchor="start" x="5.5" y="-268" font-family="Helvetica,sans-Serif" font-size="10.00">+</text>
<text text-anchor="start" x="20" y="-268" font-family="Helvetica,sans-Serif" font-size="10.00">applyEffect()</text>
<text text-anchor="start" x="5.5" y="-253" font-family="Helvetica,sans-Serif" font-size="10.00">+</text>
<text text-anchor="start" x="20" y="-253" font-family="Helvetica,sans-Serif" font-size="10.00">canTick()</text>
<text text-anchor="start" x="5.5" y="-238" font-family="Helvetica,sans-Serif" font-size="10.00">+</text>
<text text-anchor="start" x="20" y="-238" font-family="Helvetica,sans-Serif" font-size="10.00">getApplyInterval()</text>
<text text-anchor="start" x="5.5" y="-223" font-family="Helvetica,sans-Serif" font-size="10.00">+</text>
<text text-anchor="start" x="20" y="-223" font-family="Helvetica,sans-Serif" font-size="10.00">getColor()</text>
<text text-anchor="start" x="5.5" y="-208" font-family="Helvetica,sans-Serif" font-size="10.00">+</text>
<text text-anchor="start" x="20" y="-208" font-family="Helvetica,sans-Serif" font-size="10.00">getDefaultDuration()</text>
<text text-anchor="start" x="5.5" y="-193" font-family="Helvetica,sans-Serif" font-size="10.00">+</text>
<text text-anchor="start" x="20" y="-193" font-family="Helvetica,sans-Serif" font-size="10.00">getName()</text>
<text text-anchor="start" x="5.5" y="-178" font-family="Helvetica,sans-Serif" font-size="10.00">+</text>
<text text-anchor="start" x="20" y="-178" font-family="Helvetica,sans-Serif" font-size="10.00">hasBubbles()</text>
<text text-anchor="start" x="5.5" y="-163" font-family="Helvetica,sans-Serif" font-size="10.00">+</text>
<text text-anchor="start" x="20" y="-163" font-family="Helvetica,sans-Serif" font-size="10.00">isBad()</text>
<text text-anchor="start" x="5.5" y="-148" font-family="Helvetica,sans-Serif" font-size="10.00">+</text>
<text text-anchor="start" x="20" y="-148" font-family="Helvetica,sans-Serif" font-size="10.00">remove()</text>
<polygon fill="#bfbfbf" stroke="#bfbfbf" points="0,-323 0,-323 130,-323 130,-323 0,-323"/>
<polygon fill="#bfbfbf" stroke="#bfbfbf" points="0,-308 0,-308 130,-308 130,-308 0,-308"/>
<polygon fill="none" stroke="#bfbfbf" points="0,-141 0,-351 130,-351 130,-141 0,-141"/>
</a>
</g>
</g>
<!-- Node2&#45;&gt;Node1 -->
<g id="edge1_Node000001_Node000002" class="edge">
<title>Node2&#45;&gt;Node1</title>
<g id="a_edge1_Node000001_Node000002"><a xlink:title=" ">
<path fill="none" stroke="#63b8ff" d="M65,-130.83C65,-122.02 65,-113.43 65,-105.37"/>
<polygon fill="none" stroke="#63b8ff" points="61.5,-130.84 65,-140.84 68.5,-130.84 61.5,-130.84"/>
</a>
</g>
</g>
</g>
</svg>
</svg>

<style type='text/css'>
<![CDATA[
[data-mouse-over-selected='false'] { opacity: 0.7; }
[data-mouse-over-selected='true']  { opacity: 1.0; }
]]>
</style>
<script type="application/ecmascript"><![CDATA[
document.addEventListener('DOMContentLoaded', (event) => {
  highlightEdges();
  highlightAdjacentNodes();
});
]]></script>
</svg>
