<?xml version="1.0" encoding="UTF-8" standalone="no"?>
<!DOCTYPE svg PUBLIC "-//W3C//DTD SVG 1.1//EN"
 "http://www.w3.org/Graphics/SVG/1.1/DTD/svg11.dtd">
<!-- Generated by graphviz version 2.43.0 (0)
 -->
<!-- Title: pocketmine\block\inventory\SmithingTableInventory Pages: 1 -->
<!--zoomable 1020 -->

<svg id="main" version="1.1" xmlns="http://www.w3.org/2000/svg" xmlns:xlink="http://www.w3.org/1999/xlink" xml:space="preserve" onload="init(evt)">

<style type="text/css"><![CDATA[
.node, .edge {opacity: 0.7;}
.node.selected, .edge.selected {opacity: 1;}
.edge:hover path { stroke: red; }
.edge:hover polygon { stroke: red; fill: red; }
]]></style>

<defs>
  <circle id="rim" cx="0" cy="0" r="7"/>
  <circle id="rim2" cx="0" cy="0" r="3.5"/>
  <g id="zoomPlus">
    <use xlink:href="#rim" fill="#404040"><set attributeName="fill" to="#808080" begin="zoomplus.mouseover" end="zoomplus.mouseout"/></use>
    <path d="M-4,0h8M0,-4v8" fill="none" stroke="white" stroke-width="1.5" pointer-events="none"/>
  </g>
  <g id="zoomMin">
    <use xlink:href="#rim" fill="#404040"><set attributeName="fill" to="#808080" begin="zoomminus.mouseover" end="zoomminus.mouseout"/></use>
    <path d="M-4,0h8" fill="none" stroke="white" stroke-width="1.5" pointer-events="none"/>
  </g>
  <g id="arrowUp" transform="translate(30 24)">
    <use xlink:href="#rim"/>
    <path pointer-events="none" fill="none" stroke="white" stroke-width="1.5" d="M0,-3.0v7 M-2.5,-0.5L0,-3.0L2.5,-0.5"/>
  </g>
  <g id="arrowRight" transform="rotate(90) translate(36 -43)">
    <use xlink:href="#rim"/>
    <path pointer-events="none" fill="none" stroke="white" stroke-width="1.5" d="M0,-3.0v7 M-2.5,-0.5L0,-3.0L2.5,-0.5"/>
  </g>
  <g id="arrowDown" transform="rotate(180) translate(-30 -48)">
    <use xlink:href="#rim"/>
    <path pointer-events="none" fill="none" stroke="white" stroke-width="1.5" d="M0,-3.0v7 M-2.5,-0.5L0,-3.0L2.5,-0.5"/>
  </g>
  <g id="arrowLeft" transform="rotate(270) translate(-36 17)">
    <use xlink:href="#rim"/>
    <path pointer-events="none" fill="none" stroke="white" stroke-width="1.5" d="M0,-3.0v7 M-2.5,-0.5L0,-3.0L2.5,-0.5"/>
  </g>
  <g id="resetDef">
    <use xlink:href="#rim2" fill="#404040"><set attributeName="fill" to="#808080" begin="reset.mouseover" end="reset.mouseout"/></use>
  </g>
</defs>
<script type="application/ecmascript">
var viewWidth = 461;
var viewHeight = 1020;
var sectionId = 'dynsection-1';
</script>
<script type="application/ecmascript" xlink:href="../../svg.min.js"/>
<svg id="graph" class="graph">
<g id="viewport">
<title>pocketmine\block\inventory\SmithingTableInventory</title>
<!-- Node1 -->
<g id="Node000001" class="node">
<title>Node1</title>
<g id="a_Node000001"><a xlink:title=" ">
<polygon fill="#999999" stroke="transparent" points="275.5,-60 129.5,-60 129.5,0 275.5,0 275.5,-60"/>
<text text-anchor="start" x="134.5" y="-48" font-family="Helvetica,sans-Serif" font-size="10.00">pocketmine\block\inventory</text>
<text text-anchor="start" x="143" y="-37" font-family="Helvetica,sans-Serif" font-size="10.00">\SmithingTableInventory</text>
<text text-anchor="start" x="200.5" y="-22" font-family="Helvetica,sans-Serif" font-size="10.00"> </text>
<text text-anchor="start" x="148.5" y="-7" font-family="Helvetica,sans-Serif" font-size="10.00">+</text>
<text text-anchor="start" x="176.5" y="-7" font-family="Helvetica,sans-Serif" font-size="10.00">__construct()</text>
<polygon fill="#666666" stroke="#666666" points="129.5,-32 129.5,-32 275.5,-32 275.5,-32 129.5,-32"/>
<polygon fill="#666666" stroke="#666666" points="129.5,-17 129.5,-17 275.5,-17 275.5,-17 129.5,-17"/>
<polygon fill="none" stroke="#666666" points="129.5,0 129.5,-60 275.5,-60 275.5,0 129.5,0"/>
</a>
</g>
</g>
<!-- Node2 -->
<g id="Node000002" class="node">
<title>Node2</title>
<g id="a_Node000002"><a xlink:href="../../d6/dc1/classpocketmine_1_1inventory_1_1_simple_inventory.html" target="_top" xlink:title=" ">
<polygon fill="white" stroke="transparent" points="273,-262 132,-262 132,-97 273,-97 273,-262"/>
<text text-anchor="start" x="149.5" y="-249.5" font-family="Helvetica,sans-Serif" font-size="10.00">pocketmine\inventory</text>
<text text-anchor="start" x="161" y="-238.5" font-family="Helvetica,sans-Serif" font-size="10.00">\SimpleInventory</text>
<text text-anchor="start" x="136.5" y="-223.5" font-family="Helvetica,sans-Serif" font-size="10.00">#</text>
<text text-anchor="start" x="149.5" y="-223.5" font-family="Helvetica,sans-Serif" font-size="10.00">$slots</text>
<text text-anchor="start" x="136.5" y="-208.5" font-family="Helvetica,sans-Serif" font-size="10.00">+</text>
<text text-anchor="start" x="149.5" y="-208.5" font-family="Helvetica,sans-Serif" font-size="10.00">__construct()</text>
<text text-anchor="start" x="136.5" y="-193.5" font-family="Helvetica,sans-Serif" font-size="10.00">+</text>
<text text-anchor="start" x="149.5" y="-193.5" font-family="Helvetica,sans-Serif" font-size="10.00">getContents()</text>
<text text-anchor="start" x="136.5" y="-178.5" font-family="Helvetica,sans-Serif" font-size="10.00">+</text>
<text text-anchor="start" x="149.5" y="-178.5" font-family="Helvetica,sans-Serif" font-size="10.00">getItem()</text>
<text text-anchor="start" x="136.5" y="-163.5" font-family="Helvetica,sans-Serif" font-size="10.00">+</text>
<text text-anchor="start" x="149.5" y="-163.5" font-family="Helvetica,sans-Serif" font-size="10.00">getSize()</text>
<text text-anchor="start" x="136.5" y="-148.5" font-family="Helvetica,sans-Serif" font-size="10.00">+</text>
<text text-anchor="start" x="149.5" y="-148.5" font-family="Helvetica,sans-Serif" font-size="10.00">isSlotEmpty()</text>
<text text-anchor="start" x="136.5" y="-133.5" font-family="Helvetica,sans-Serif" font-size="10.00">#</text>
<text text-anchor="start" x="149.5" y="-133.5" font-family="Helvetica,sans-Serif" font-size="10.00">getMatchingItemCount()</text>
<text text-anchor="start" x="136.5" y="-118.5" font-family="Helvetica,sans-Serif" font-size="10.00">#</text>
<text text-anchor="start" x="149.5" y="-118.5" font-family="Helvetica,sans-Serif" font-size="10.00">internalSetContents()</text>
<text text-anchor="start" x="136.5" y="-103.5" font-family="Helvetica,sans-Serif" font-size="10.00">#</text>
<text text-anchor="start" x="149.5" y="-103.5" font-family="Helvetica,sans-Serif" font-size="10.00">internalSetItem()</text>
<polygon fill="#666666" stroke="#666666" points="132.5,-233.5 132.5,-233.5 273.5,-233.5 273.5,-233.5 132.5,-233.5"/>
<polygon fill="#666666" stroke="#666666" points="132.5,-218.5 132.5,-218.5 147.5,-218.5 147.5,-218.5 132.5,-218.5"/>
<polygon fill="#666666" stroke="#666666" points="147.5,-218.5 147.5,-218.5 273.5,-218.5 273.5,-218.5 147.5,-218.5"/>
<polygon fill="none" stroke="#666666" points="132,-97 132,-262 273,-262 273,-97 132,-97"/>
</a>
</g>
</g>
<!-- Node2&#45;&gt;Node1 -->
<g id="edge1_Node000001_Node000002" class="edge">
<title>Node2&#45;&gt;Node1</title>
<g id="a_edge1_Node000001_Node000002"><a xlink:title=" ">
<path fill="none" stroke="#63b8ff" d="M202.5,-86.88C202.5,-77.3 202.5,-68.15 202.5,-60.13"/>
<polygon fill="none" stroke="#63b8ff" points="199,-86.98 202.5,-96.98 206,-86.98 199,-86.98"/>
</a>
</g>
</g>
<!-- Node3 -->
<g id="Node000003" class="node">
<title>Node3</title>
<g id="a_Node000003"><a xlink:href="../../d5/dc4/classpocketmine_1_1inventory_1_1_base_inventory.html" target="_top" xlink:title=" ">
<polygon fill="white" stroke="transparent" points="291,-658 142,-658 142,-358 291,-358 291,-658"/>
<text text-anchor="start" x="163.5" y="-646" font-family="Helvetica,sans-Serif" font-size="10.00">pocketmine\inventory</text>
<text text-anchor="start" x="180" y="-635" font-family="Helvetica,sans-Serif" font-size="10.00">\BaseInventory</text>
<text text-anchor="start" x="146.5" y="-620" font-family="Helvetica,sans-Serif" font-size="10.00">#</text>
<text text-anchor="start" x="159.5" y="-620" font-family="Helvetica,sans-Serif" font-size="10.00">$maxStackSize</text>
<text text-anchor="start" x="146.5" y="-605" font-family="Helvetica,sans-Serif" font-size="10.00">#</text>
<text text-anchor="start" x="159.5" y="-605" font-family="Helvetica,sans-Serif" font-size="10.00">$viewers</text>
<text text-anchor="start" x="146.5" y="-590" font-family="Helvetica,sans-Serif" font-size="10.00">+</text>
<text text-anchor="start" x="159.5" y="-590" font-family="Helvetica,sans-Serif" font-size="10.00">__construct()</text>
<text text-anchor="start" x="146.5" y="-575" font-family="Helvetica,sans-Serif" font-size="10.00">+</text>
<text text-anchor="start" x="159.5" y="-575" font-family="Helvetica,sans-Serif" font-size="10.00">addItem()</text>
<text text-anchor="start" x="146.5" y="-560" font-family="Helvetica,sans-Serif" font-size="10.00">+</text>
<text text-anchor="start" x="159.5" y="-560" font-family="Helvetica,sans-Serif" font-size="10.00">all()</text>
<text text-anchor="start" x="146.5" y="-545" font-family="Helvetica,sans-Serif" font-size="10.00">+</text>
<text text-anchor="start" x="159.5" y="-545" font-family="Helvetica,sans-Serif" font-size="10.00">canAddItem()</text>
<text text-anchor="start" x="146.5" y="-530" font-family="Helvetica,sans-Serif" font-size="10.00">+</text>
<text text-anchor="start" x="159.5" y="-530" font-family="Helvetica,sans-Serif" font-size="10.00">clear()</text>
<text text-anchor="start" x="146.5" y="-515" font-family="Helvetica,sans-Serif" font-size="10.00">+</text>
<text text-anchor="start" x="159.5" y="-515" font-family="Helvetica,sans-Serif" font-size="10.00">clearAll()</text>
<text text-anchor="start" x="146.5" y="-500" font-family="Helvetica,sans-Serif" font-size="10.00">+</text>
<text text-anchor="start" x="159.5" y="-500" font-family="Helvetica,sans-Serif" font-size="10.00">contains()</text>
<text text-anchor="start" x="146.5" y="-485" font-family="Helvetica,sans-Serif" font-size="10.00">+</text>
<text text-anchor="start" x="159.5" y="-485" font-family="Helvetica,sans-Serif" font-size="10.00">first()</text>
<text text-anchor="start" x="146.5" y="-470" font-family="Helvetica,sans-Serif" font-size="10.00">+</text>
<text text-anchor="start" x="159.5" y="-470" font-family="Helvetica,sans-Serif" font-size="10.00">firstEmpty()</text>
<text text-anchor="start" x="146.5" y="-455" font-family="Helvetica,sans-Serif" font-size="10.00">+</text>
<text text-anchor="start" x="159.5" y="-455" font-family="Helvetica,sans-Serif" font-size="10.00">getAddableItemQuantity()</text>
<text text-anchor="start" x="159.5" y="-440" font-family="Helvetica,sans-Serif" font-size="10.00">and 15 more...</text>
<text text-anchor="start" x="146.5" y="-425" font-family="Helvetica,sans-Serif" font-size="10.00">#</text>
<text text-anchor="start" x="159.5" y="-425" font-family="Helvetica,sans-Serif" font-size="10.00">getMatchingItemCount()</text>
<text text-anchor="start" x="146.5" y="-410" font-family="Helvetica,sans-Serif" font-size="10.00">#</text>
<text text-anchor="start" x="159.5" y="-410" font-family="Helvetica,sans-Serif" font-size="10.00">internalSetContents()</text>
<text text-anchor="start" x="146.5" y="-395" font-family="Helvetica,sans-Serif" font-size="10.00">#</text>
<text text-anchor="start" x="159.5" y="-395" font-family="Helvetica,sans-Serif" font-size="10.00">internalSetItem()</text>
<text text-anchor="start" x="146.5" y="-380" font-family="Helvetica,sans-Serif" font-size="10.00">#</text>
<text text-anchor="start" x="159.5" y="-380" font-family="Helvetica,sans-Serif" font-size="10.00">onContentChange()</text>
<text text-anchor="start" x="146.5" y="-365" font-family="Helvetica,sans-Serif" font-size="10.00">#</text>
<text text-anchor="start" x="159.5" y="-365" font-family="Helvetica,sans-Serif" font-size="10.00">onSlotChange()</text>
<polygon fill="#666666" stroke="#666666" points="142.5,-630 142.5,-630 291.5,-630 291.5,-630 142.5,-630"/>
<polygon fill="#666666" stroke="#666666" points="142.5,-600 142.5,-600 157.5,-600 157.5,-600 142.5,-600"/>
<polygon fill="#666666" stroke="#666666" points="157.5,-600 157.5,-600 291.5,-600 291.5,-600 157.5,-600"/>
<polygon fill="none" stroke="#666666" points="142,-358 142,-658 291,-658 291,-358 142,-358"/>
</a>
</g>
</g>
<!-- Node3&#45;&gt;Node2 -->
<g id="edge2_Node000002_Node000003" class="edge">
<title>Node3&#45;&gt;Node2</title>
<g id="a_edge2_Node000002_Node000003"><a xlink:title=" ">
<path fill="none" stroke="#63b8ff" d="M209.66,-347.56C208.39,-317.9 207.11,-288.08 205.99,-262"/>
<polygon fill="none" stroke="#63b8ff" points="206.17,-347.76 210.09,-357.61 213.16,-347.46 206.17,-347.76"/>
</a>
</g>
</g>
<!-- Node4 -->
<g id="Node000004" class="node">
<title>Node4</title>
<g id="a_Node000004"><a xlink:href="../../db/d39/interfacepocketmine_1_1inventory_1_1_inventory.html" target="_top" xlink:title=" ">
<polygon fill="white" stroke="transparent" points="149,-926 0,-926 0,-716 149,-716 149,-926"/>
<text text-anchor="start" x="21.5" y="-914" font-family="Helvetica,sans-Serif" font-size="10.00">pocketmine\inventory</text>
<text text-anchor="start" x="50" y="-903" font-family="Helvetica,sans-Serif" font-size="10.00">\Inventory</text>
<text text-anchor="start" x="4.5" y="-888" font-family="Helvetica,sans-Serif" font-size="10.00">+</text>
<text text-anchor="start" x="17.5" y="-888" font-family="Helvetica,sans-Serif" font-size="10.00">MAX_STACK</text>
<text text-anchor="start" x="4.5" y="-873" font-family="Helvetica,sans-Serif" font-size="10.00">+</text>
<text text-anchor="start" x="17.5" y="-873" font-family="Helvetica,sans-Serif" font-size="10.00">addItem()</text>
<text text-anchor="start" x="4.5" y="-858" font-family="Helvetica,sans-Serif" font-size="10.00">+</text>
<text text-anchor="start" x="17.5" y="-858" font-family="Helvetica,sans-Serif" font-size="10.00">all()</text>
<text text-anchor="start" x="4.5" y="-843" font-family="Helvetica,sans-Serif" font-size="10.00">+</text>
<text text-anchor="start" x="17.5" y="-843" font-family="Helvetica,sans-Serif" font-size="10.00">canAddItem()</text>
<text text-anchor="start" x="4.5" y="-828" font-family="Helvetica,sans-Serif" font-size="10.00">+</text>
<text text-anchor="start" x="17.5" y="-828" font-family="Helvetica,sans-Serif" font-size="10.00">clear()</text>
<text text-anchor="start" x="4.5" y="-813" font-family="Helvetica,sans-Serif" font-size="10.00">+</text>
<text text-anchor="start" x="17.5" y="-813" font-family="Helvetica,sans-Serif" font-size="10.00">clearAll()</text>
<text text-anchor="start" x="4.5" y="-798" font-family="Helvetica,sans-Serif" font-size="10.00">+</text>
<text text-anchor="start" x="17.5" y="-798" font-family="Helvetica,sans-Serif" font-size="10.00">contains()</text>
<text text-anchor="start" x="4.5" y="-783" font-family="Helvetica,sans-Serif" font-size="10.00">+</text>
<text text-anchor="start" x="17.5" y="-783" font-family="Helvetica,sans-Serif" font-size="10.00">first()</text>
<text text-anchor="start" x="4.5" y="-768" font-family="Helvetica,sans-Serif" font-size="10.00">+</text>
<text text-anchor="start" x="17.5" y="-768" font-family="Helvetica,sans-Serif" font-size="10.00">firstEmpty()</text>
<text text-anchor="start" x="4.5" y="-753" font-family="Helvetica,sans-Serif" font-size="10.00">+</text>
<text text-anchor="start" x="17.5" y="-753" font-family="Helvetica,sans-Serif" font-size="10.00">getAddableItemQuantity()</text>
<text text-anchor="start" x="4.5" y="-738" font-family="Helvetica,sans-Serif" font-size="10.00">+</text>
<text text-anchor="start" x="17.5" y="-738" font-family="Helvetica,sans-Serif" font-size="10.00">getContents()</text>
<text text-anchor="start" x="17.5" y="-723" font-family="Helvetica,sans-Serif" font-size="10.00">and 15 more...</text>
<polygon fill="#bfbfbf" stroke="#bfbfbf" points="0.5,-898 0.5,-898 149.5,-898 149.5,-898 0.5,-898"/>
<polygon fill="#bfbfbf" stroke="#bfbfbf" points="0.5,-883 0.5,-883 15.5,-883 15.5,-883 0.5,-883"/>
<polygon fill="#bfbfbf" stroke="#bfbfbf" points="15.5,-883 15.5,-883 149.5,-883 149.5,-883 15.5,-883"/>
<polygon fill="none" stroke="#bfbfbf" points="0,-716 0,-926 149,-926 149,-716 0,-716"/>
</a>
</g>
</g>
<!-- Node4&#45;&gt;Node3 -->
<g id="edge3_Node000003_Node000004" class="edge">
<title>Node4&#45;&gt;Node3</title>
<g id="a_edge3_Node000003_Node000004"><a xlink:title=" ">
<path fill="none" stroke="#63b8ff" d="M126.36,-706.42C133.52,-690.74 140.96,-674.44 148.36,-658.23"/>
<polygon fill="none" stroke="#63b8ff" points="123.15,-705.03 122.18,-715.58 129.52,-707.93 123.15,-705.03"/>
</a>
</g>
</g>
<!-- Node9 -->
<g id="Node000009" class="node">
<title>Node9</title>
<g id="a_Node000009"><a xlink:href="../../d5/d7b/interfacepocketmine_1_1inventory_1_1_temporary_inventory.html" target="_top" xlink:title=" ">
<polygon fill="white" stroke="transparent" points="148,-340 31,-340 31,-280 148,-280 148,-340"/>
<text text-anchor="start" x="36.5" y="-328" font-family="Helvetica,sans-Serif" font-size="10.00">pocketmine\inventory</text>
<text text-anchor="start" x="39" y="-317" font-family="Helvetica,sans-Serif" font-size="10.00">\TemporaryInventory</text>
<text text-anchor="start" x="88" y="-302" font-family="Helvetica,sans-Serif" font-size="10.00"> </text>
<text text-anchor="start" x="88" y="-287" font-family="Helvetica,sans-Serif" font-size="10.00"> </text>
<polygon fill="#bfbfbf" stroke="#bfbfbf" points="31.5,-312 31.5,-312 148.5,-312 148.5,-312 31.5,-312"/>
<polygon fill="#bfbfbf" stroke="#bfbfbf" points="31.5,-297 31.5,-297 148.5,-297 148.5,-297 31.5,-297"/>
<polygon fill="none" stroke="#bfbfbf" points="31,-280 31,-340 148,-340 148,-280 31,-280"/>
</a>
</g>
</g>
<!-- Node4&#45;&gt;Node9 -->
<g id="edge9_Node000009_Node000004" class="edge">
<title>Node4&#45;&gt;Node9</title>
<g id="a_edge9_Node000009_Node000004"><a xlink:title=" ">
<path fill="none" stroke="#63b8ff" d="M77.87,-705.55C81.37,-586.95 86.6,-409.42 88.64,-340.15"/>
<polygon fill="none" stroke="#63b8ff" points="74.37,-705.67 77.57,-715.77 81.36,-705.88 74.37,-705.67"/>
</a>
</g>
</g>
<!-- Node5 -->
<g id="Node000005" class="node">
<title>Node5</title>
<g id="a_Node000005"><a xlink:href="../../dd/d33/interfacepocketmine_1_1inventory_1_1_slot_validated_inventory.html" target="_top" xlink:title=" ">
<polygon fill="white" stroke="transparent" points="292,-851 167,-851 167,-791 292,-791 292,-851"/>
<text text-anchor="start" x="172.5" y="-839" font-family="Helvetica,sans-Serif" font-size="10.00">pocketmine\inventory</text>
<text text-anchor="start" x="172.5" y="-828" font-family="Helvetica,sans-Serif" font-size="10.00">\SlotValidatedInventory</text>
<text text-anchor="start" x="228" y="-813" font-family="Helvetica,sans-Serif" font-size="10.00"> </text>
<text text-anchor="start" x="174.5" y="-798" font-family="Helvetica,sans-Serif" font-size="10.00">+</text>
<text text-anchor="start" x="190.5" y="-798" font-family="Helvetica,sans-Serif" font-size="10.00">getSlotValidators()</text>
<polygon fill="#666666" stroke="#666666" points="167.5,-823 167.5,-823 292.5,-823 292.5,-823 167.5,-823"/>
<polygon fill="#666666" stroke="#666666" points="167.5,-808 167.5,-808 292.5,-808 292.5,-808 167.5,-808"/>
<polygon fill="none" stroke="#666666" points="167,-791 167,-851 292,-851 292,-791 167,-791"/>
</a>
</g>
</g>
<!-- Node5&#45;&gt;Node3 -->
<g id="edge4_Node000003_Node000005" class="edge">
<title>Node5&#45;&gt;Node3</title>
<g id="a_edge4_Node000003_Node000005"><a xlink:title=" ">
<path fill="none" stroke="#63b8ff" d="M227.86,-780.72C226.55,-749.44 224.63,-703.54 222.74,-658.35"/>
<polygon fill="none" stroke="#63b8ff" points="224.36,-780.9 228.28,-790.74 231.36,-780.6 224.36,-780.9"/>
</a>
</g>
</g>
<!-- Node6 -->
<g id="Node000006" class="node">
<title>Node6</title>
<g id="a_Node000006"><a xlink:href="../../dd/de5/classpocketmine_1_1utils_1_1_object_set.html" target="_top" xlink:title=" ">
<polygon fill="white" stroke="transparent" points="452.5,-883 310.5,-883 310.5,-759 452.5,-759 452.5,-883"/>
<text text-anchor="start" x="315.5" y="-871" font-family="Helvetica,sans-Serif" font-size="10.00">pocketmine\utils\ObjectSet</text>
<text text-anchor="start" x="379.5" y="-856" font-family="Helvetica,sans-Serif" font-size="10.00"> </text>
<text text-anchor="start" x="329.5" y="-841" font-family="Helvetica,sans-Serif" font-size="10.00">+</text>
<text text-anchor="start" x="357.5" y="-841" font-family="Helvetica,sans-Serif" font-size="10.00">add()</text>
<text text-anchor="start" x="329.5" y="-826" font-family="Helvetica,sans-Serif" font-size="10.00">+</text>
<text text-anchor="start" x="357.5" y="-826" font-family="Helvetica,sans-Serif" font-size="10.00">clear()</text>
<text text-anchor="start" x="329.5" y="-811" font-family="Helvetica,sans-Serif" font-size="10.00">+</text>
<text text-anchor="start" x="357.5" y="-811" font-family="Helvetica,sans-Serif" font-size="10.00">contains()</text>
<text text-anchor="start" x="329.5" y="-796" font-family="Helvetica,sans-Serif" font-size="10.00">+</text>
<text text-anchor="start" x="357.5" y="-796" font-family="Helvetica,sans-Serif" font-size="10.00">getIterator()</text>
<text text-anchor="start" x="329.5" y="-781" font-family="Helvetica,sans-Serif" font-size="10.00">+</text>
<text text-anchor="start" x="357.5" y="-781" font-family="Helvetica,sans-Serif" font-size="10.00">remove()</text>
<text text-anchor="start" x="329.5" y="-766" font-family="Helvetica,sans-Serif" font-size="10.00">+</text>
<text text-anchor="start" x="357.5" y="-766" font-family="Helvetica,sans-Serif" font-size="10.00">toArray()</text>
<polygon fill="#666666" stroke="#666666" points="310.5,-866 310.5,-866 452.5,-866 452.5,-866 310.5,-866"/>
<polygon fill="#666666" stroke="#666666" points="310.5,-851 310.5,-851 452.5,-851 452.5,-851 310.5,-851"/>
<polygon fill="none" stroke="#666666" points="310.5,-759 310.5,-883 452.5,-883 452.5,-759 310.5,-759"/>
</a>
</g>
</g>
<!-- Node6&#45;&gt;Node3 -->
<g id="edge5_Node000003_Node000006" class="edge">
<title>Node6&#45;&gt;Node3</title>
<g id="a_edge5_Node000003_Node000006"><a xlink:title=" ">
<path fill="none" stroke="#63b8ff" d="M349.1,-758.93C334,-730.47 315.3,-695.23 296.75,-660.27"/>
<polygon fill="none" stroke="#63b8ff" points="296.63,-660.03 290.29,-656.61 291.01,-649.43 297.35,-652.86 296.63,-660.03"/>
</a>
</g>
<text text-anchor="middle" x="345.5" y="-690" font-family="Helvetica,sans-Serif" font-size="10.00" fill="grey"> #$listeners</text>
<text text-anchor="middle" x="345.5" y="-679" font-family="Helvetica,sans-Serif" font-size="10.00" fill="grey">#$validators</text>
</g>
<!-- Node7 -->
<g id="Node000007" class="node">
<title>Node7</title>
<g id="a_Node000007"><a xlink:title=" ">
<polygon fill="white" stroke="transparent" points="430,-1012 333,-1012 333,-963 430,-963 430,-1012"/>
<text text-anchor="start" x="338.5" y="-999.5" font-family="Helvetica,sans-Serif" font-size="10.00">IteratorAggregate</text>
<text text-anchor="start" x="380" y="-984.5" font-family="Helvetica,sans-Serif" font-size="10.00"> </text>
<text text-anchor="start" x="380" y="-969.5" font-family="Helvetica,sans-Serif" font-size="10.00"> </text>
<polygon fill="#bfbfbf" stroke="#bfbfbf" points="333.5,-994.5 333.5,-994.5 430.5,-994.5 430.5,-994.5 333.5,-994.5"/>
<polygon fill="#bfbfbf" stroke="#bfbfbf" points="333.5,-979.5 333.5,-979.5 430.5,-979.5 430.5,-979.5 333.5,-979.5"/>
<polygon fill="none" stroke="#bfbfbf" points="333,-963 333,-1012 430,-1012 430,-963 333,-963"/>
</a>
</g>
</g>
<!-- Node7&#45;&gt;Node6 -->
<g id="edge6_Node000006_Node000007" class="edge">
<title>Node7&#45;&gt;Node6</title>
<g id="a_edge6_Node000006_Node000007"><a xlink:title=" ">
<path fill="none" stroke="#63b8ff" d="M381.5,-952.75C381.5,-932.71 381.5,-906.69 381.5,-883.14"/>
<polygon fill="none" stroke="#63b8ff" points="378,-952.93 381.5,-962.93 385,-952.93 378,-952.93"/>
</a>
</g>
</g>
<!-- Node8 -->
<g id="Node000008" class="node">
<title>Node8</title>
<g id="a_Node000008"><a xlink:href="../../d4/d3a/interfacepocketmine_1_1block_1_1inventory_1_1_block_inventory.html" target="_top" xlink:title=" ">
<polygon fill="white" stroke="transparent" points="437.5,-209.5 291.5,-209.5 291.5,-149.5 437.5,-149.5 437.5,-209.5"/>
<text text-anchor="start" x="296.5" y="-197.5" font-family="Helvetica,sans-Serif" font-size="10.00">pocketmine\block\inventory</text>
<text text-anchor="start" x="326" y="-186.5" font-family="Helvetica,sans-Serif" font-size="10.00">\BlockInventory</text>
<text text-anchor="start" x="362.5" y="-171.5" font-family="Helvetica,sans-Serif" font-size="10.00"> </text>
<text text-anchor="start" x="312.5" y="-156.5" font-family="Helvetica,sans-Serif" font-size="10.00">+</text>
<text text-anchor="start" x="342.5" y="-156.5" font-family="Helvetica,sans-Serif" font-size="10.00">getHolder()</text>
<polygon fill="#bfbfbf" stroke="#bfbfbf" points="291.5,-181.5 291.5,-181.5 437.5,-181.5 437.5,-181.5 291.5,-181.5"/>
<polygon fill="#bfbfbf" stroke="#bfbfbf" points="291.5,-166.5 291.5,-166.5 437.5,-166.5 437.5,-166.5 291.5,-166.5"/>
<polygon fill="none" stroke="#bfbfbf" points="291.5,-149.5 291.5,-209.5 437.5,-209.5 437.5,-149.5 291.5,-149.5"/>
</a>
</g>
</g>
<!-- Node8&#45;&gt;Node1 -->
<g id="edge7_Node000001_Node000008" class="edge">
<title>Node8&#45;&gt;Node1</title>
<g id="a_edge7_Node000001_Node000008"><a xlink:title=" ">
<path fill="none" stroke="#63b8ff" d="M328.58,-141.99C314.19,-127.69 297.3,-111.32 281.5,-97 267.86,-84.64 252.41,-71.54 238.81,-60.3"/>
<polygon fill="none" stroke="#63b8ff" points="326.31,-144.66 335.86,-149.25 331.25,-139.71 326.31,-144.66"/>
</a>
</g>
</g>
<!-- Node9&#45;&gt;Node1 -->
<g id="edge8_Node000001_Node000009" class="edge">
<title>Node9&#45;&gt;Node1</title>
<g id="a_edge8_Node000001_Node000009"><a xlink:title=" ">
<path fill="none" stroke="#63b8ff" d="M87.53,-269.63C87.05,-224.89 91.7,-151.09 122.5,-97 130.61,-82.76 143.06,-70.31 155.74,-60.17"/>
<polygon fill="none" stroke="#63b8ff" points="84.03,-269.88 87.74,-279.8 91.03,-269.73 84.03,-269.88"/>
</a>
</g>
</g>
</g>
</svg>

<g id="navigator" transform="translate(0 0)" fill="#404254">
  <rect fill="#f2f5e9" fill-opacity="0.5" stroke="#606060" stroke-width=".5" x="0" y="0" width="60" height="60"/>
  <use id="zoomplus" xlink:href="#zoomPlus" x="17" y="9" onmousedown="handleZoom(evt,'in')"/>
  <use id="zoomminus" xlink:href="#zoomMin" x="42" y="9" onmousedown="handleZoom(evt,'out')"/>
  <use id="reset" xlink:href="#resetDef" x="30" y="36" onmousedown="handleReset()"/>
   <use id="arrowup" xlink:href="#arrowUp" x="0" y="0" onmousedown="handlePan(0,-1)"/>
  <use id="arrowright" xlink:href="#arrowRight" x="0" y="0" onmousedown="handlePan(1,0)"/>
  <use id="arrowdown" xlink:href="#arrowDown" x="0" y="0" onmousedown="handlePan(0,1)"/>
  <use id="arrowleft" xlink:href="#arrowLeft" x="0" y="0" onmousedown="handlePan(-1,0)"/>
</g>
<svg viewBox="0 0 15 15" width="100%" height="30px" preserveAspectRatio="xMaxYMin meet">
 <g id="arrow_out" transform="scale(0.3 0.3)">
  <a xlink:href="classpocketmine_1_1block_1_1inventory_1_1_smithing_table_inventory__coll__graph_org.svg" target="_base">
   <rect id="button" ry="5" rx="5" y="6" x="6" height="38" width="38"
        fill="#f2f5e9" fill-opacity="0.5" stroke="#606060" stroke-width="1.0"/>
   <path id="arrow"
     d="M 11.500037,31.436501 C 11.940474,20.09759 22.043105,11.32322 32.158766,21.979434 L 37.068811,17.246167 C 37.068811,17.246167 37.088388,32 37.088388,32 L 22.160133,31.978069 C 22.160133,31.978069 26.997745,27.140456 26.997745,27.140456 C 18.528582,18.264221 13.291696,25.230495 11.500037,31.436501 z"
     style="fill:#404040;"/>
  </a>
 </g>
</svg>

<style type='text/css'>
<![CDATA[
[data-mouse-over-selected='false'] { opacity: 0.7; }
[data-mouse-over-selected='true']  { opacity: 1.0; }
]]>
</style>
<script type="application/ecmascript"><![CDATA[
document.addEventListener('DOMContentLoaded', (event) => {
  highlightEdges();
  highlightAdjacentNodes();
});
]]></script>
</svg>
