<?xml version="1.0" encoding="UTF-8" standalone="no"?>
<!DOCTYPE svg PUBLIC "-//W3C//DTD SVG 1.1//EN"
 "http://www.w3.org/Graphics/SVG/1.1/DTD/svg11.dtd">
<!-- Generated by graphviz version 2.43.0 (0)
 -->
<!-- Title: pocketmine\network\mcpe\protocol\StartGamePacket Pages: 1 -->
<svg width="1274pt" height="799pt"
 viewBox="0.00 0.00 1273.50 799.00" xmlns="http://www.w3.org/2000/svg" xmlns:xlink="http://www.w3.org/1999/xlink">
<g id="graph0" class="graph" transform="scale(1 1) rotate(0) translate(4 795)">
<title>pocketmine\network\mcpe\protocol\StartGamePacket</title>
<polygon fill="white" stroke="transparent" points="-4,4 -4,-795 1269.5,-795 1269.5,4 -4,4"/>
<!-- Node1 -->
<g id="node1" class="node">
<title>Node1</title>
<g id="a_node1"><a xlink:title=" ">
<polygon fill="#bfbfbf" stroke="black" points="519,-0.5 519,-211.5 720,-211.5 720,-0.5 519,-0.5"/>
<text text-anchor="start" x="527" y="-199.5" font-family="Helvetica,sans-Serif" font-size="10.00">pocketmine\network</text>
<text text-anchor="middle" x="619.5" y="-188.5" font-family="Helvetica,sans-Serif" font-size="10.00">\mcpe\protocol\StartGamePacket</text>
<polyline fill="none" stroke="black" points="519,-181.5 720,-181.5 "/>
<text text-anchor="start" x="527" y="-169.5" font-family="Helvetica,sans-Serif" font-size="10.00">+ $actorRuntimeId</text>
<text text-anchor="start" x="527" y="-158.5" font-family="Helvetica,sans-Serif" font-size="10.00">+ $actorUniqueId</text>
<text text-anchor="start" x="527" y="-147.5" font-family="Helvetica,sans-Serif" font-size="10.00">+ $blockNetworkIdsAreHashes</text>
<text text-anchor="start" x="527" y="-136.5" font-family="Helvetica,sans-Serif" font-size="10.00">+ $blockPalette</text>
<text text-anchor="start" x="527" y="-125.5" font-family="Helvetica,sans-Serif" font-size="10.00">+ $blockPaletteChecksum</text>
<text text-anchor="start" x="527" y="-114.5" font-family="Helvetica,sans-Serif" font-size="10.00">+ $currentTick</text>
<text text-anchor="start" x="527" y="-103.5" font-family="Helvetica,sans-Serif" font-size="10.00">+ $enableClientSideChunkGeneration</text>
<text text-anchor="start" x="527" y="-92.5" font-family="Helvetica,sans-Serif" font-size="10.00">+ $enableNewInventorySystem</text>
<text text-anchor="start" x="527" y="-81.5" font-family="Helvetica,sans-Serif" font-size="10.00">+ $enchantmentSeed</text>
<text text-anchor="start" x="527" y="-70.5" font-family="Helvetica,sans-Serif" font-size="10.00">+ $isTrial</text>
<text text-anchor="start" x="527" y="-59.5" font-family="Helvetica,sans-Serif" font-size="10.00">and 9 more...</text>
<polyline fill="none" stroke="black" points="519,-52.5 720,-52.5 "/>
<text text-anchor="start" x="527" y="-40.5" font-family="Helvetica,sans-Serif" font-size="10.00">+ handle()</text>
<text text-anchor="start" x="527" y="-29.5" font-family="Helvetica,sans-Serif" font-size="10.00">+ create()</text>
<text text-anchor="start" x="527" y="-18.5" font-family="Helvetica,sans-Serif" font-size="10.00"># decodePayload()</text>
<text text-anchor="start" x="527" y="-7.5" font-family="Helvetica,sans-Serif" font-size="10.00"># encodePayload()</text>
</a>
</g>
</g>
<!-- Node2 -->
<g id="node2" class="node">
<title>Node2</title>
<g id="a_node2"><a xlink:href="../../d1/ddb/classpocketmine_1_1network_1_1mcpe_1_1protocol_1_1_data_packet.html" target="_top" xlink:title=" ">
<polygon fill="white" stroke="#bfbfbf" points="169,-281.5 169,-470.5 316,-470.5 316,-281.5 169,-281.5"/>
<text text-anchor="start" x="177" y="-458.5" font-family="Helvetica,sans-Serif" font-size="10.00">pocketmine\network</text>
<text text-anchor="middle" x="242.5" y="-447.5" font-family="Helvetica,sans-Serif" font-size="10.00">\mcpe\protocol\DataPacket</text>
<polyline fill="none" stroke="#bfbfbf" points="169,-440.5 316,-440.5 "/>
<text text-anchor="start" x="177" y="-428.5" font-family="Helvetica,sans-Serif" font-size="10.00">+ $recipientSubId</text>
<text text-anchor="start" x="177" y="-417.5" font-family="Helvetica,sans-Serif" font-size="10.00">+ $senderSubId</text>
<polyline fill="none" stroke="#bfbfbf" points="169,-410.5 316,-410.5 "/>
<text text-anchor="start" x="177" y="-398.5" font-family="Helvetica,sans-Serif" font-size="10.00">+ __get()</text>
<text text-anchor="start" x="177" y="-387.5" font-family="Helvetica,sans-Serif" font-size="10.00">+ __set()</text>
<text text-anchor="start" x="177" y="-376.5" font-family="Helvetica,sans-Serif" font-size="10.00">+ canBeSentBeforeLogin()</text>
<text text-anchor="start" x="177" y="-365.5" font-family="Helvetica,sans-Serif" font-size="10.00">+ decode()</text>
<text text-anchor="start" x="177" y="-354.5" font-family="Helvetica,sans-Serif" font-size="10.00">+ encode()</text>
<text text-anchor="start" x="177" y="-343.5" font-family="Helvetica,sans-Serif" font-size="10.00">+ getName()</text>
<text text-anchor="start" x="177" y="-332.5" font-family="Helvetica,sans-Serif" font-size="10.00">+ pid()</text>
<text text-anchor="start" x="177" y="-321.5" font-family="Helvetica,sans-Serif" font-size="10.00"># decodeHeader()</text>
<text text-anchor="start" x="177" y="-310.5" font-family="Helvetica,sans-Serif" font-size="10.00"># decodePayload()</text>
<text text-anchor="start" x="177" y="-299.5" font-family="Helvetica,sans-Serif" font-size="10.00"># encodeHeader()</text>
<text text-anchor="start" x="177" y="-288.5" font-family="Helvetica,sans-Serif" font-size="10.00"># encodePayload()</text>
</a>
</g>
</g>
<!-- Node2&#45;&gt;Node1 -->
<g id="edge1" class="edge">
<title>Node2&#45;&gt;Node1</title>
<path fill="none" stroke="midnightblue" d="M293.3,-272.63C304.08,-257.03 316.51,-242.12 330.5,-230 384.49,-183.23 458.9,-152.12 518.7,-132.89"/>
<polygon fill="none" stroke="midnightblue" points="290.12,-271.09 287.47,-281.35 295.94,-274.98 290.12,-271.09"/>
</g>
<!-- Node3 -->
<g id="node3" class="node">
<title>Node3</title>
<g id="a_node3"><a xlink:href="../../d4/d5d/interfacepocketmine_1_1network_1_1mcpe_1_1protocol_1_1_packet.html" target="_top" xlink:title=" ">
<polygon fill="white" stroke="#bfbfbf" points="43.5,-546 43.5,-669 189.5,-669 189.5,-546 43.5,-546"/>
<text text-anchor="start" x="51.5" y="-657" font-family="Helvetica,sans-Serif" font-size="10.00">pocketmine\network</text>
<text text-anchor="middle" x="116.5" y="-646" font-family="Helvetica,sans-Serif" font-size="10.00">\mcpe\protocol\Packet</text>
<polyline fill="none" stroke="#bfbfbf" points="43.5,-639 189.5,-639 "/>
<text text-anchor="middle" x="116.5" y="-627" font-family="Helvetica,sans-Serif" font-size="10.00"> </text>
<polyline fill="none" stroke="#bfbfbf" points="43.5,-620 189.5,-620 "/>
<text text-anchor="start" x="51.5" y="-608" font-family="Helvetica,sans-Serif" font-size="10.00">+ canBeSentBeforeLogin()</text>
<text text-anchor="start" x="51.5" y="-597" font-family="Helvetica,sans-Serif" font-size="10.00">+ decode()</text>
<text text-anchor="start" x="51.5" y="-586" font-family="Helvetica,sans-Serif" font-size="10.00">+ encode()</text>
<text text-anchor="start" x="51.5" y="-575" font-family="Helvetica,sans-Serif" font-size="10.00">+ getName()</text>
<text text-anchor="start" x="51.5" y="-564" font-family="Helvetica,sans-Serif" font-size="10.00">+ handle()</text>
<text text-anchor="start" x="51.5" y="-553" font-family="Helvetica,sans-Serif" font-size="10.00">+ pid()</text>
</a>
</g>
</g>
<!-- Node3&#45;&gt;Node2 -->
<g id="edge2" class="edge">
<title>Node3&#45;&gt;Node2</title>
<path fill="none" stroke="midnightblue" d="M154.59,-537.12C166.04,-516.27 178.8,-493.03 190.97,-470.87"/>
<polygon fill="none" stroke="midnightblue" points="151.51,-535.45 149.77,-545.9 157.65,-538.82 151.51,-535.45"/>
</g>
<!-- Node5 -->
<g id="node5" class="node">
<title>Node5</title>
<g id="a_node5"><a xlink:href="../../da/d77/interfacepocketmine_1_1network_1_1mcpe_1_1protocol_1_1_clientbound_packet.html" target="_top" xlink:title=" ">
<polygon fill="white" stroke="#bfbfbf" points="0,-336.5 0,-415.5 151,-415.5 151,-336.5 0,-336.5"/>
<text text-anchor="start" x="8" y="-403.5" font-family="Helvetica,sans-Serif" font-size="10.00">pocketmine\network</text>
<text text-anchor="start" x="8" y="-392.5" font-family="Helvetica,sans-Serif" font-size="10.00">\mcpe\protocol\Clientbound</text>
<text text-anchor="middle" x="75.5" y="-381.5" font-family="Helvetica,sans-Serif" font-size="10.00">Packet</text>
<polyline fill="none" stroke="#bfbfbf" points="0,-374.5 151,-374.5 "/>
<text text-anchor="middle" x="75.5" y="-362.5" font-family="Helvetica,sans-Serif" font-size="10.00"> </text>
<polyline fill="none" stroke="#bfbfbf" points="0,-355.5 151,-355.5 "/>
<text text-anchor="middle" x="75.5" y="-343.5" font-family="Helvetica,sans-Serif" font-size="10.00"> </text>
</a>
</g>
</g>
<!-- Node3&#45;&gt;Node5 -->
<g id="edge5" class="edge">
<title>Node3&#45;&gt;Node5</title>
<path fill="none" stroke="midnightblue" d="M103.91,-536.01C96.82,-496.36 88.25,-448.37 82.39,-415.56"/>
<polygon fill="none" stroke="midnightblue" points="100.47,-536.67 105.67,-545.9 107.36,-535.44 100.47,-536.67"/>
</g>
<!-- Node4 -->
<g id="node4" class="node">
<title>Node4</title>
<g id="a_node4"><a xlink:title=" ">
<polygon fill="white" stroke="#bfbfbf" points="323,-733.5 323,-790.5 366,-790.5 366,-733.5 323,-733.5"/>
<text text-anchor="middle" x="344.5" y="-778.5" font-family="Helvetica,sans-Serif" font-size="10.00">const</text>
<polyline fill="none" stroke="#bfbfbf" points="323,-771.5 366,-771.5 "/>
<text text-anchor="middle" x="344.5" y="-759.5" font-family="Helvetica,sans-Serif" font-size="10.00"> </text>
<polyline fill="none" stroke="#bfbfbf" points="323,-752.5 366,-752.5 "/>
<text text-anchor="middle" x="344.5" y="-740.5" font-family="Helvetica,sans-Serif" font-size="10.00"> </text>
</a>
</g>
</g>
<!-- Node4&#45;&gt;Node1 -->
<g id="edge6" class="edge">
<title>Node4&#45;&gt;Node1</title>
<path fill="none" stroke="#404040" d="M342.17,-733.35C334.84,-640.29 315.47,-339.78 363.5,-259 395.44,-205.29 454.3,-168.4 507.54,-144.44"/>
<polygon fill="none" stroke="#404040" points="507.81,-144.32 511.71,-138.25 518.81,-139.52 514.91,-145.59 507.81,-144.32"/>
<text text-anchor="middle" x="371.5" y="-514" font-family="Helvetica,sans-Serif" font-size="10.00"> +NETWORK_ID</text>
</g>
<!-- Node4&#45;&gt;Node2 -->
<g id="edge3" class="edge">
<title>Node4&#45;&gt;Node2</title>
<path fill="none" stroke="#404040" d="M322.73,-748.04C300.51,-733.44 267.24,-707.45 252.5,-675 225.41,-615.36 222.66,-541.88 226.8,-482.8"/>
<polygon fill="none" stroke="#404040" points="226.81,-482.77 223.29,-476.47 227.75,-470.81 231.27,-477.1 226.81,-482.77"/>
<text text-anchor="middle" x="291.5" y="-610.5" font-family="Helvetica,sans-Serif" font-size="10.00"> +NETWORK_ID</text>
<text text-anchor="middle" x="291.5" y="-599.5" font-family="Helvetica,sans-Serif" font-size="10.00">+PID_MASK</text>
</g>
<!-- Node9 -->
<g id="node9" class="node">
<title>Node9</title>
<g id="a_node9"><a xlink:href="../../d9/d71/classpocketmine_1_1network_1_1mcpe_1_1protocol_1_1types_1_1_spawn_settings.html" target="_top" xlink:title=" ">
<polygon fill="white" stroke="#bfbfbf" points="373,-540.5 373,-674.5 492,-674.5 492,-540.5 373,-540.5"/>
<text text-anchor="start" x="381" y="-662.5" font-family="Helvetica,sans-Serif" font-size="10.00">pocketmine\network</text>
<text text-anchor="start" x="381" y="-651.5" font-family="Helvetica,sans-Serif" font-size="10.00">\mcpe\protocol\types</text>
<text text-anchor="middle" x="432.5" y="-640.5" font-family="Helvetica,sans-Serif" font-size="10.00">\SpawnSettings</text>
<polyline fill="none" stroke="#bfbfbf" points="373,-633.5 492,-633.5 "/>
<text text-anchor="middle" x="432.5" y="-621.5" font-family="Helvetica,sans-Serif" font-size="10.00"> </text>
<polyline fill="none" stroke="#bfbfbf" points="373,-614.5 492,-614.5 "/>
<text text-anchor="start" x="381" y="-602.5" font-family="Helvetica,sans-Serif" font-size="10.00">+ __construct()</text>
<text text-anchor="start" x="381" y="-591.5" font-family="Helvetica,sans-Serif" font-size="10.00">+ getBiomeName()</text>
<text text-anchor="start" x="381" y="-580.5" font-family="Helvetica,sans-Serif" font-size="10.00">+ getBiomeType()</text>
<text text-anchor="start" x="381" y="-569.5" font-family="Helvetica,sans-Serif" font-size="10.00">+ getDimension()</text>
<text text-anchor="start" x="381" y="-558.5" font-family="Helvetica,sans-Serif" font-size="10.00">+ write()</text>
<text text-anchor="start" x="381" y="-547.5" font-family="Helvetica,sans-Serif" font-size="10.00">+ read()</text>
</a>
</g>
</g>
<!-- Node4&#45;&gt;Node9 -->
<g id="edge11" class="edge">
<title>Node4&#45;&gt;Node9</title>
<path fill="none" stroke="#404040" d="M360.44,-733.38C368.31,-719.74 378.25,-702.52 388.2,-685.27"/>
<polygon fill="none" stroke="#404040" points="388.38,-684.95 387.92,-677.75 394.38,-674.56 394.85,-681.75 388.38,-684.95"/>
<text text-anchor="middle" x="459" y="-707" font-family="Helvetica,sans-Serif" font-size="10.00"> +BIOME_TYPE_DEFAULT</text>
<text text-anchor="middle" x="459" y="-696" font-family="Helvetica,sans-Serif" font-size="10.00">+BIOME_TYPE_USER_DEFINED</text>
</g>
<!-- Node5&#45;&gt;Node1 -->
<g id="edge4" class="edge">
<title>Node5&#45;&gt;Node1</title>
<path fill="none" stroke="midnightblue" d="M100.35,-327.6C114.82,-304.06 135.03,-276.9 159.5,-259 267.77,-179.79 419.69,-140.28 518.84,-121.75"/>
<polygon fill="none" stroke="midnightblue" points="97.21,-326.04 95.1,-336.42 103.22,-329.62 97.21,-326.04"/>
</g>
<!-- Node6 -->
<g id="node6" class="node">
<title>Node6</title>
<g id="a_node6"><a xlink:href="../../d2/d90/classpocketmine_1_1math_1_1_vector3.html" target="_top" xlink:title=" ">
<polygon fill="white" stroke="#bfbfbf" points="548.5,-259.5 548.5,-492.5 690.5,-492.5 690.5,-259.5 548.5,-259.5"/>
<text text-anchor="middle" x="619.5" y="-480.5" font-family="Helvetica,sans-Serif" font-size="10.00">pocketmine\math\Vector3</text>
<polyline fill="none" stroke="#bfbfbf" points="548.5,-473.5 690.5,-473.5 "/>
<text text-anchor="start" x="556.5" y="-461.5" font-family="Helvetica,sans-Serif" font-size="10.00">+ $x</text>
<text text-anchor="start" x="556.5" y="-450.5" font-family="Helvetica,sans-Serif" font-size="10.00">+ $y</text>
<text text-anchor="start" x="556.5" y="-439.5" font-family="Helvetica,sans-Serif" font-size="10.00">+ $z</text>
<polyline fill="none" stroke="#bfbfbf" points="548.5,-432.5 690.5,-432.5 "/>
<text text-anchor="start" x="556.5" y="-420.5" font-family="Helvetica,sans-Serif" font-size="10.00">+ __construct()</text>
<text text-anchor="start" x="556.5" y="-409.5" font-family="Helvetica,sans-Serif" font-size="10.00">+ __toString()</text>
<text text-anchor="start" x="556.5" y="-398.5" font-family="Helvetica,sans-Serif" font-size="10.00">+ abs()</text>
<text text-anchor="start" x="556.5" y="-387.5" font-family="Helvetica,sans-Serif" font-size="10.00">+ add()</text>
<text text-anchor="start" x="556.5" y="-376.5" font-family="Helvetica,sans-Serif" font-size="10.00">+ addVector()</text>
<text text-anchor="start" x="556.5" y="-365.5" font-family="Helvetica,sans-Serif" font-size="10.00">+ asVector3()</text>
<text text-anchor="start" x="556.5" y="-354.5" font-family="Helvetica,sans-Serif" font-size="10.00">+ ceil()</text>
<text text-anchor="start" x="556.5" y="-343.5" font-family="Helvetica,sans-Serif" font-size="10.00">+ cross()</text>
<text text-anchor="start" x="556.5" y="-332.5" font-family="Helvetica,sans-Serif" font-size="10.00">+ distance()</text>
<text text-anchor="start" x="556.5" y="-321.5" font-family="Helvetica,sans-Serif" font-size="10.00">+ distanceSquared()</text>
<text text-anchor="start" x="556.5" y="-310.5" font-family="Helvetica,sans-Serif" font-size="10.00">and 32 more...</text>
<text text-anchor="start" x="556.5" y="-299.5" font-family="Helvetica,sans-Serif" font-size="10.00">+ maxComponents()</text>
<text text-anchor="start" x="556.5" y="-288.5" font-family="Helvetica,sans-Serif" font-size="10.00">+ minComponents()</text>
<text text-anchor="start" x="556.5" y="-277.5" font-family="Helvetica,sans-Serif" font-size="10.00">+ sum()</text>
<text text-anchor="start" x="556.5" y="-266.5" font-family="Helvetica,sans-Serif" font-size="10.00">+ zero()</text>
</a>
</g>
</g>
<!-- Node6&#45;&gt;Node1 -->
<g id="edge7" class="edge">
<title>Node6&#45;&gt;Node1</title>
<path fill="none" stroke="#404040" d="M619.5,-259.4C619.5,-247.62 619.5,-235.65 619.5,-223.86"/>
<polygon fill="none" stroke="#404040" points="619.5,-223.66 615.5,-217.66 619.5,-211.66 623.5,-217.66 619.5,-223.66"/>
<text text-anchor="middle" x="663.5" y="-233" font-family="Helvetica,sans-Serif" font-size="10.00"> +$playerPosition</text>
</g>
<!-- Node7 -->
<g id="node7" class="node">
<title>Node7</title>
<g id="a_node7"><a xlink:href="../../d1/d14/classpocketmine_1_1network_1_1mcpe_1_1protocol_1_1types_1_1_cacheable_nbt.html" target="_top" xlink:title=" ">
<polygon fill="white" stroke="black" points="709,-325.5 709,-426.5 828,-426.5 828,-325.5 709,-325.5"/>
<text text-anchor="start" x="717" y="-414.5" font-family="Helvetica,sans-Serif" font-size="10.00">pocketmine\network</text>
<text text-anchor="start" x="717" y="-403.5" font-family="Helvetica,sans-Serif" font-size="10.00">\mcpe\protocol\types</text>
<text text-anchor="middle" x="768.5" y="-392.5" font-family="Helvetica,sans-Serif" font-size="10.00">\CacheableNbt</text>
<polyline fill="none" stroke="black" points="709,-385.5 828,-385.5 "/>
<text text-anchor="middle" x="768.5" y="-373.5" font-family="Helvetica,sans-Serif" font-size="10.00"> </text>
<polyline fill="none" stroke="black" points="709,-366.5 828,-366.5 "/>
<text text-anchor="start" x="717" y="-354.5" font-family="Helvetica,sans-Serif" font-size="10.00">+ __construct()</text>
<text text-anchor="start" x="717" y="-343.5" font-family="Helvetica,sans-Serif" font-size="10.00">+ getEncodedNbt()</text>
<text text-anchor="start" x="717" y="-332.5" font-family="Helvetica,sans-Serif" font-size="10.00">+ getRoot()</text>
</a>
</g>
</g>
<!-- Node7&#45;&gt;Node1 -->
<g id="edge8" class="edge">
<title>Node7&#45;&gt;Node1</title>
<path fill="none" stroke="#404040" d="M752.64,-325.18C742.6,-296.49 728.35,-260.24 711.5,-230 710.02,-227.35 708.5,-224.69 706.93,-222.03"/>
<polygon fill="none" stroke="#404040" points="706.92,-222.03 700.38,-218.99 700.67,-211.79 707.21,-214.82 706.92,-222.03"/>
<text text-anchor="middle" x="776.5" y="-233" font-family="Helvetica,sans-Serif" font-size="10.00"> +$playerActorProperties</text>
</g>
<!-- Node8 -->
<g id="node8" class="node">
<title>Node8</title>
<g id="a_node8"><a xlink:href="../../de/dea/classpocketmine_1_1network_1_1mcpe_1_1protocol_1_1types_1_1_level_settings.html" target="_top" xlink:title=" ">
<polygon fill="white" stroke="#bfbfbf" points="372.5,-276 372.5,-476 530.5,-476 530.5,-276 372.5,-276"/>
<text text-anchor="start" x="380.5" y="-464" font-family="Helvetica,sans-Serif" font-size="10.00">pocketmine\network</text>
<text text-anchor="start" x="380.5" y="-453" font-family="Helvetica,sans-Serif" font-size="10.00">\mcpe\protocol\types</text>
<text text-anchor="middle" x="451.5" y="-442" font-family="Helvetica,sans-Serif" font-size="10.00">\LevelSettings</text>
<polyline fill="none" stroke="#bfbfbf" points="372.5,-435 530.5,-435 "/>
<text text-anchor="start" x="380.5" y="-423" font-family="Helvetica,sans-Serif" font-size="10.00">+ $chatRestrictionLevel</text>
<text text-anchor="start" x="380.5" y="-412" font-family="Helvetica,sans-Serif" font-size="10.00">+ $commandsEnabled</text>
<text text-anchor="start" x="380.5" y="-401" font-family="Helvetica,sans-Serif" font-size="10.00">+ $createdInEditorMode</text>
<text text-anchor="start" x="380.5" y="-390" font-family="Helvetica,sans-Serif" font-size="10.00">+ $defaultPlayerPermission</text>
<text text-anchor="start" x="380.5" y="-379" font-family="Helvetica,sans-Serif" font-size="10.00">+ $difficulty</text>
<text text-anchor="start" x="380.5" y="-368" font-family="Helvetica,sans-Serif" font-size="10.00">+ $disableCustomSkins</text>
<text text-anchor="start" x="380.5" y="-357" font-family="Helvetica,sans-Serif" font-size="10.00">+ $disablePersona</text>
<text text-anchor="start" x="380.5" y="-346" font-family="Helvetica,sans-Serif" font-size="10.00">+ $disablePlayerInteractions</text>
<text text-anchor="start" x="380.5" y="-335" font-family="Helvetica,sans-Serif" font-size="10.00">+ $eduEditionOffer</text>
<text text-anchor="start" x="380.5" y="-324" font-family="Helvetica,sans-Serif" font-size="10.00">+ $eduProductUUID</text>
<text text-anchor="start" x="380.5" y="-313" font-family="Helvetica,sans-Serif" font-size="10.00">and 33 more...</text>
<polyline fill="none" stroke="#bfbfbf" points="372.5,-306 530.5,-306 "/>
<text text-anchor="start" x="380.5" y="-294" font-family="Helvetica,sans-Serif" font-size="10.00">+ write()</text>
<text text-anchor="start" x="380.5" y="-283" font-family="Helvetica,sans-Serif" font-size="10.00">+ read()</text>
</a>
</g>
</g>
<!-- Node8&#45;&gt;Node1 -->
<g id="edge9" class="edge">
<title>Node8&#45;&gt;Node1</title>
<path fill="none" stroke="#404040" d="M505.83,-275.98C514.83,-260.44 524.25,-244.68 533.5,-230 535.23,-227.25 537,-224.48 538.79,-221.7"/>
<polygon fill="none" stroke="#404040" points="538.85,-221.61 538.77,-214.4 545.4,-211.56 545.47,-218.77 538.85,-221.61"/>
<text text-anchor="middle" x="574.5" y="-233" font-family="Helvetica,sans-Serif" font-size="10.00"> +$levelSettings</text>
</g>
<!-- Node9&#45;&gt;Node8 -->
<g id="edge10" class="edge">
<title>Node9&#45;&gt;Node8</title>
<path fill="none" stroke="#404040" d="M437.97,-540.43C439.32,-524.1 440.81,-506.16 442.28,-488.34"/>
<polygon fill="none" stroke="#404040" points="442.29,-488.31 438.79,-482 443.28,-476.35 446.77,-482.66 442.29,-488.31"/>
<text text-anchor="middle" x="485" y="-514" font-family="Helvetica,sans-Serif" font-size="10.00"> +$spawnSettings</text>
</g>
<!-- Node10 -->
<g id="node10" class="node">
<title>Node10</title>
<g id="a_node10"><a xlink:href="../../d1/d5f/classpocketmine_1_1network_1_1mcpe_1_1protocol_1_1types_1_1_block_position.html" target="_top" xlink:title=" ">
<polygon fill="white" stroke="#bfbfbf" points="510,-540.5 510,-674.5 629,-674.5 629,-540.5 510,-540.5"/>
<text text-anchor="start" x="518" y="-662.5" font-family="Helvetica,sans-Serif" font-size="10.00">pocketmine\network</text>
<text text-anchor="start" x="518" y="-651.5" font-family="Helvetica,sans-Serif" font-size="10.00">\mcpe\protocol\types</text>
<text text-anchor="middle" x="569.5" y="-640.5" font-family="Helvetica,sans-Serif" font-size="10.00">\BlockPosition</text>
<polyline fill="none" stroke="#bfbfbf" points="510,-633.5 629,-633.5 "/>
<text text-anchor="middle" x="569.5" y="-621.5" font-family="Helvetica,sans-Serif" font-size="10.00"> </text>
<polyline fill="none" stroke="#bfbfbf" points="510,-614.5 629,-614.5 "/>
<text text-anchor="start" x="518" y="-602.5" font-family="Helvetica,sans-Serif" font-size="10.00">+ __construct()</text>
<text text-anchor="start" x="518" y="-591.5" font-family="Helvetica,sans-Serif" font-size="10.00">+ equals()</text>
<text text-anchor="start" x="518" y="-580.5" font-family="Helvetica,sans-Serif" font-size="10.00">+ getX()</text>
<text text-anchor="start" x="518" y="-569.5" font-family="Helvetica,sans-Serif" font-size="10.00">+ getY()</text>
<text text-anchor="start" x="518" y="-558.5" font-family="Helvetica,sans-Serif" font-size="10.00">+ getZ()</text>
<text text-anchor="start" x="518" y="-547.5" font-family="Helvetica,sans-Serif" font-size="10.00">+ fromVector3()</text>
</a>
</g>
</g>
<!-- Node10&#45;&gt;Node8 -->
<g id="edge12" class="edge">
<title>Node10&#45;&gt;Node8</title>
<path fill="none" stroke="#404040" d="M546.41,-540.31C542.41,-530.35 538.05,-520.31 533.5,-511 529.58,-502.99 525.33,-494.85 520.89,-486.73"/>
<polygon fill="none" stroke="#404040" points="520.8,-486.57 514.39,-483.27 514.96,-476.08 521.38,-479.38 520.8,-486.57"/>
<text text-anchor="middle" x="581.5" y="-514" font-family="Helvetica,sans-Serif" font-size="10.00"> +$spawnPosition</text>
</g>
<!-- Node11 -->
<g id="node11" class="node">
<title>Node11</title>
<g id="a_node11"><a xlink:href="../../db/d33/classpocketmine_1_1network_1_1mcpe_1_1protocol_1_1types_1_1_experiments.html" target="_top" xlink:title=" ">
<polygon fill="white" stroke="#bfbfbf" points="647.5,-546 647.5,-669 837.5,-669 837.5,-546 647.5,-546"/>
<text text-anchor="start" x="655.5" y="-657" font-family="Helvetica,sans-Serif" font-size="10.00">pocketmine\network</text>
<text text-anchor="start" x="655.5" y="-646" font-family="Helvetica,sans-Serif" font-size="10.00">\mcpe\protocol\types</text>
<text text-anchor="middle" x="742.5" y="-635" font-family="Helvetica,sans-Serif" font-size="10.00">\Experiments</text>
<polyline fill="none" stroke="#bfbfbf" points="647.5,-628 837.5,-628 "/>
<text text-anchor="middle" x="742.5" y="-616" font-family="Helvetica,sans-Serif" font-size="10.00"> </text>
<polyline fill="none" stroke="#bfbfbf" points="647.5,-609 837.5,-609 "/>
<text text-anchor="start" x="655.5" y="-597" font-family="Helvetica,sans-Serif" font-size="10.00">+ __construct()</text>
<text text-anchor="start" x="655.5" y="-586" font-family="Helvetica,sans-Serif" font-size="10.00">+ getExperiments()</text>
<text text-anchor="start" x="655.5" y="-575" font-family="Helvetica,sans-Serif" font-size="10.00">+ hasPreviouslyUsedExperiments()</text>
<text text-anchor="start" x="655.5" y="-564" font-family="Helvetica,sans-Serif" font-size="10.00">+ write()</text>
<text text-anchor="start" x="655.5" y="-553" font-family="Helvetica,sans-Serif" font-size="10.00">+ read()</text>
</a>
</g>
</g>
<!-- Node11&#45;&gt;Node8 -->
<g id="edge13" class="edge">
<title>Node11&#45;&gt;Node8</title>
<path fill="none" stroke="#404040" d="M681.95,-545.81C665.98,-532.6 648.01,-519.93 629.5,-511 592.76,-493.27 574.07,-514.65 539.5,-493 535.16,-490.28 530.96,-487.27 526.9,-484.02"/>
<polygon fill="none" stroke="#404040" points="526.76,-483.91 519.61,-483.01 517.68,-476.06 524.84,-476.96 526.76,-483.91"/>
<text text-anchor="middle" x="686" y="-514" font-family="Helvetica,sans-Serif" font-size="10.00"> +$experiments</text>
</g>
<!-- Node12 -->
<g id="node12" class="node">
<title>Node12</title>
<g id="a_node12"><a xlink:href="../../d4/d9b/classpocketmine_1_1network_1_1mcpe_1_1protocol_1_1types_1_1_education_uri_resource.html" target="_top" xlink:title=" ">
<polygon fill="white" stroke="#bfbfbf" points="856,-546 856,-669 983,-669 983,-546 856,-546"/>
<text text-anchor="start" x="864" y="-657" font-family="Helvetica,sans-Serif" font-size="10.00">pocketmine\network</text>
<text text-anchor="start" x="864" y="-646" font-family="Helvetica,sans-Serif" font-size="10.00">\mcpe\protocol\types</text>
<text text-anchor="middle" x="919.5" y="-635" font-family="Helvetica,sans-Serif" font-size="10.00">\EducationUriResource</text>
<polyline fill="none" stroke="#bfbfbf" points="856,-628 983,-628 "/>
<text text-anchor="middle" x="919.5" y="-616" font-family="Helvetica,sans-Serif" font-size="10.00"> </text>
<polyline fill="none" stroke="#bfbfbf" points="856,-609 983,-609 "/>
<text text-anchor="start" x="864" y="-597" font-family="Helvetica,sans-Serif" font-size="10.00">+ __construct()</text>
<text text-anchor="start" x="864" y="-586" font-family="Helvetica,sans-Serif" font-size="10.00">+ getButtonName()</text>
<text text-anchor="start" x="864" y="-575" font-family="Helvetica,sans-Serif" font-size="10.00">+ getLinkUri()</text>
<text text-anchor="start" x="864" y="-564" font-family="Helvetica,sans-Serif" font-size="10.00">+ write()</text>
<text text-anchor="start" x="864" y="-553" font-family="Helvetica,sans-Serif" font-size="10.00">+ read()</text>
</a>
</g>
</g>
<!-- Node12&#45;&gt;Node8 -->
<g id="edge14" class="edge">
<title>Node12&#45;&gt;Node8</title>
<path fill="none" stroke="#404040" d="M856.36,-545.85C853.12,-543.74 849.83,-541.78 846.5,-540 799.25,-514.74 782.31,-520 729.5,-511 687.69,-503.88 576.55,-513.63 539.5,-493 534.71,-490.33 530.1,-487.29 525.68,-483.94"/>
<polygon fill="none" stroke="#404040" points="525.54,-483.83 518.37,-483.09 516.29,-476.18 523.46,-476.92 525.54,-483.83"/>
<text text-anchor="middle" x="866" y="-514" font-family="Helvetica,sans-Serif" font-size="10.00"> +$eduSharedUriResource</text>
</g>
<!-- Node13 -->
<g id="node13" class="node">
<title>Node13</title>
<g id="a_node13"><a xlink:href="../../d1/df0/classpocketmine_1_1network_1_1mcpe_1_1protocol_1_1types_1_1_player_movement_settings.html" target="_top" xlink:title=" ">
<polygon fill="white" stroke="#bfbfbf" points="846.5,-303.5 846.5,-448.5 1004.5,-448.5 1004.5,-303.5 846.5,-303.5"/>
<text text-anchor="start" x="854.5" y="-436.5" font-family="Helvetica,sans-Serif" font-size="10.00">pocketmine\network</text>
<text text-anchor="start" x="854.5" y="-425.5" font-family="Helvetica,sans-Serif" font-size="10.00">\mcpe\protocol\types</text>
<text text-anchor="middle" x="925.5" y="-414.5" font-family="Helvetica,sans-Serif" font-size="10.00">\PlayerMovementSettings</text>
<polyline fill="none" stroke="#bfbfbf" points="846.5,-407.5 1004.5,-407.5 "/>
<text text-anchor="middle" x="925.5" y="-395.5" font-family="Helvetica,sans-Serif" font-size="10.00"> </text>
<polyline fill="none" stroke="#bfbfbf" points="846.5,-388.5 1004.5,-388.5 "/>
<text text-anchor="start" x="854.5" y="-376.5" font-family="Helvetica,sans-Serif" font-size="10.00">+ __construct()</text>
<text text-anchor="start" x="854.5" y="-365.5" font-family="Helvetica,sans-Serif" font-size="10.00">+ getMovementType()</text>
<text text-anchor="start" x="854.5" y="-354.5" font-family="Helvetica,sans-Serif" font-size="10.00">+ getRewindHistorySize()</text>
<text text-anchor="start" x="854.5" y="-343.5" font-family="Helvetica,sans-Serif" font-size="10.00">+ isServerAuthoritativeBlock</text>
<text text-anchor="start" x="854.5" y="-332.5" font-family="Helvetica,sans-Serif" font-size="10.00">Breaking()</text>
<text text-anchor="start" x="854.5" y="-321.5" font-family="Helvetica,sans-Serif" font-size="10.00">+ write()</text>
<text text-anchor="start" x="854.5" y="-310.5" font-family="Helvetica,sans-Serif" font-size="10.00">+ read()</text>
</a>
</g>
</g>
<!-- Node13&#45;&gt;Node1 -->
<g id="edge15" class="edge">
<title>Node13&#45;&gt;Node1</title>
<path fill="none" stroke="#404040" d="M894.42,-303.25C881.05,-277.99 863.59,-250.75 842.5,-230 810.75,-198.74 769.43,-173.04 731.01,-153.35"/>
<polygon fill="none" stroke="#404040" points="730.99,-153.34 723.83,-154.22 720.26,-147.96 727.42,-147.07 730.99,-153.34"/>
<text text-anchor="middle" x="922" y="-233" font-family="Helvetica,sans-Serif" font-size="10.00"> +$playerMovementSettings</text>
</g>
<!-- Node14 -->
<g id="node14" class="node">
<title>Node14</title>
<g id="a_node14"><a xlink:title=" ">
<polygon fill="white" stroke="#bfbfbf" points="1030,-347.5 1030,-404.5 1113,-404.5 1113,-347.5 1030,-347.5"/>
<text text-anchor="middle" x="1071.5" y="-392.5" font-family="Helvetica,sans-Serif" font-size="10.00">UuidInterface</text>
<polyline fill="none" stroke="#bfbfbf" points="1030,-385.5 1113,-385.5 "/>
<text text-anchor="middle" x="1071.5" y="-373.5" font-family="Helvetica,sans-Serif" font-size="10.00"> </text>
<polyline fill="none" stroke="#bfbfbf" points="1030,-366.5 1113,-366.5 "/>
<text text-anchor="middle" x="1071.5" y="-354.5" font-family="Helvetica,sans-Serif" font-size="10.00"> </text>
</a>
</g>
</g>
<!-- Node14&#45;&gt;Node1 -->
<g id="edge16" class="edge">
<title>Node14&#45;&gt;Node1</title>
<path fill="none" stroke="#404040" d="M1064.58,-347.42C1054.91,-314.56 1034.14,-260.31 996.5,-230 920.51,-168.8 813.11,-137.66 732.37,-122.06"/>
<polygon fill="none" stroke="#404040" points="731.95,-121.98 725.32,-124.81 720.15,-119.78 726.79,-116.95 731.95,-121.98"/>
<text text-anchor="middle" x="1055" y="-233" font-family="Helvetica,sans-Serif" font-size="10.00"> +$worldTemplateId</text>
</g>
<!-- Node15 -->
<g id="node15" class="node">
<title>Node15</title>
<g id="a_node15"><a xlink:href="../../d9/dfb/classpocketmine_1_1network_1_1mcpe_1_1protocol_1_1types_1_1_network_permissions.html" target="_top" xlink:title=" ">
<polygon fill="white" stroke="#bfbfbf" points="1131.5,-320 1131.5,-432 1265.5,-432 1265.5,-320 1131.5,-320"/>
<text text-anchor="start" x="1139.5" y="-420" font-family="Helvetica,sans-Serif" font-size="10.00">pocketmine\network</text>
<text text-anchor="start" x="1139.5" y="-409" font-family="Helvetica,sans-Serif" font-size="10.00">\mcpe\protocol\types</text>
<text text-anchor="middle" x="1198.5" y="-398" font-family="Helvetica,sans-Serif" font-size="10.00">\NetworkPermissions</text>
<polyline fill="none" stroke="#bfbfbf" points="1131.5,-391 1265.5,-391 "/>
<text text-anchor="middle" x="1198.5" y="-379" font-family="Helvetica,sans-Serif" font-size="10.00"> </text>
<polyline fill="none" stroke="#bfbfbf" points="1131.5,-372 1265.5,-372 "/>
<text text-anchor="start" x="1139.5" y="-360" font-family="Helvetica,sans-Serif" font-size="10.00">+ __construct()</text>
<text text-anchor="start" x="1139.5" y="-349" font-family="Helvetica,sans-Serif" font-size="10.00">+ disableClientSounds()</text>
<text text-anchor="start" x="1139.5" y="-338" font-family="Helvetica,sans-Serif" font-size="10.00">+ encode()</text>
<text text-anchor="start" x="1139.5" y="-327" font-family="Helvetica,sans-Serif" font-size="10.00">+ decode()</text>
</a>
</g>
</g>
<!-- Node15&#45;&gt;Node1 -->
<g id="edge17" class="edge">
<title>Node15&#45;&gt;Node1</title>
<path fill="none" stroke="#404040" d="M1176.82,-319.99C1161.98,-289.19 1139.36,-252.54 1108.5,-230 997.38,-148.83 838.35,-120.97 732.15,-111.55"/>
<polygon fill="none" stroke="#404040" points="732.07,-111.55 725.75,-115.03 720.11,-110.54 726.42,-107.06 732.07,-111.55"/>
<text text-anchor="middle" x="1177" y="-233" font-family="Helvetica,sans-Serif" font-size="10.00"> +$networkPermissions</text>
</g>
</g>
</svg>
