<?xml version="1.0" encoding="UTF-8" standalone="no"?>
<!DOCTYPE svg PUBLIC "-//W3C//DTD SVG 1.1//EN"
 "http://www.w3.org/Graphics/SVG/1.1/DTD/svg11.dtd">
<!-- Generated by graphviz version 2.43.0 (0)
 -->
<!-- Title: pocketmine\block\utils\SignLikeRotation Pages: 1 -->
<svg width="646pt" height="209pt"
 viewBox="0.00 0.00 645.50 209.00" xmlns="http://www.w3.org/2000/svg" xmlns:xlink="http://www.w3.org/1999/xlink">
<g id="graph0" class="graph" transform="scale(1 1) rotate(0) translate(4 205)">
<title>pocketmine\block\utils\SignLikeRotation</title>
<!-- Node1 -->
<g id="Node000001" class="node">
<title>Node1</title>
<g id="a_Node000001"><a xlink:title=" ">
<polygon fill="#999999" stroke="transparent" points="377.5,-201 256.5,-201 256.5,-126 377.5,-126 377.5,-201"/>
<text text-anchor="start" x="262" y="-188.5" font-family="Helvetica,sans-Serif" font-size="10.00">pocketmine\block\utils</text>
<text text-anchor="start" x="275" y="-177.5" font-family="Helvetica,sans-Serif" font-size="10.00">\SignLikeRotation</text>
<text text-anchor="start" x="315.5" y="-162.5" font-family="Helvetica,sans-Serif" font-size="10.00"> </text>
<text text-anchor="start" x="269.5" y="-147.5" font-family="Helvetica,sans-Serif" font-size="10.00">+</text>
<text text-anchor="start" x="291" y="-147.5" font-family="Helvetica,sans-Serif" font-size="10.00">getRotation()</text>
<text text-anchor="start" x="269.5" y="-132.5" font-family="Helvetica,sans-Serif" font-size="10.00">+</text>
<text text-anchor="start" x="291" y="-132.5" font-family="Helvetica,sans-Serif" font-size="10.00">setRotation()</text>
<polygon fill="#666666" stroke="#666666" points="257,-172.5 257,-172.5 378,-172.5 378,-172.5 257,-172.5"/>
<polygon fill="#666666" stroke="#666666" points="257,-157.5 257,-157.5 378,-157.5 378,-157.5 257,-157.5"/>
<polygon fill="none" stroke="#666666" points="256.5,-126 256.5,-201 377.5,-201 377.5,-126 256.5,-126"/>
</a>
</g>
</g>
<!-- Node2 -->
<g id="Node000002" class="node">
<title>Node2</title>
<g id="a_Node000002"><a xlink:href="../../df/da1/classpocketmine_1_1block_1_1_ceiling_center_hanging_sign.html" target="_top" xlink:title=" ">
<polygon fill="white" stroke="transparent" points="134,-90 0,-90 0,0 134,0 134,-90"/>
<text text-anchor="start" x="5" y="-78" font-family="Helvetica,sans-Serif" font-size="10.00">pocketmine\block\Ceiling</text>
<text text-anchor="start" x="20" y="-67" font-family="Helvetica,sans-Serif" font-size="10.00">CenterHangingSign</text>
<text text-anchor="start" x="65" y="-52" font-family="Helvetica,sans-Serif" font-size="10.00"> </text>
<text text-anchor="start" x="7.5" y="-37" font-family="Helvetica,sans-Serif" font-size="10.00">+</text>
<text text-anchor="start" x="24" y="-37" font-family="Helvetica,sans-Serif" font-size="10.00">place()</text>
<text text-anchor="start" x="7.5" y="-22" font-family="Helvetica,sans-Serif" font-size="10.00">#</text>
<text text-anchor="start" x="24" y="-22" font-family="Helvetica,sans-Serif" font-size="10.00">getFacingDegrees()</text>
<text text-anchor="start" x="7.5" y="-7" font-family="Helvetica,sans-Serif" font-size="10.00">#</text>
<text text-anchor="start" x="24" y="-7" font-family="Helvetica,sans-Serif" font-size="10.00">getSupportingFace()</text>
<polygon fill="#bfbfbf" stroke="#bfbfbf" points="0,-62 0,-62 134,-62 134,-62 0,-62"/>
<polygon fill="#bfbfbf" stroke="#bfbfbf" points="0,-47 0,-47 134,-47 134,-47 0,-47"/>
<polygon fill="none" stroke="#bfbfbf" points="0,0 0,-90 134,-90 134,0 0,0"/>
</a>
</g>
</g>
<!-- Node1&#45;&gt;Node2 -->
<g id="edge1_Node000001_Node000002" class="edge">
<title>Node1&#45;&gt;Node2</title>
<g id="a_edge1_Node000001_Node000002"><a xlink:title=" ">
<path fill="none" stroke="#63b8ff" d="M246.83,-135.68C214.74,-122.81 176.5,-106.59 143,-90 140.13,-88.58 137.22,-87.1 134.3,-85.57"/>
<polygon fill="none" stroke="#63b8ff" points="245.56,-138.94 256.14,-139.4 248.15,-132.44 245.56,-138.94"/>
</a>
</g>
</g>
<!-- Node3 -->
<g id="Node000003" class="node">
<title>Node3</title>
<g id="a_Node000003"><a xlink:href="../../dc/d69/classpocketmine_1_1block_1_1_floor_banner.html" target="_top" xlink:title=" ">
<polygon fill="white" stroke="transparent" points="311.5,-84.5 152.5,-84.5 152.5,-5.5 311.5,-5.5 311.5,-84.5"/>
<text text-anchor="start" x="158" y="-72" font-family="Helvetica,sans-Serif" font-size="10.00">pocketmine\block\FloorBanner</text>
<text text-anchor="start" x="230.5" y="-57" font-family="Helvetica,sans-Serif" font-size="10.00"> </text>
<text text-anchor="start" x="165.5" y="-42" font-family="Helvetica,sans-Serif" font-size="10.00">+</text>
<text text-anchor="start" x="187" y="-42" font-family="Helvetica,sans-Serif" font-size="10.00">place()</text>
<text text-anchor="start" x="165.5" y="-27" font-family="Helvetica,sans-Serif" font-size="10.00">#</text>
<text text-anchor="start" x="187" y="-27" font-family="Helvetica,sans-Serif" font-size="10.00">getOminousVersion()</text>
<text text-anchor="start" x="165.5" y="-12" font-family="Helvetica,sans-Serif" font-size="10.00">#</text>
<text text-anchor="start" x="187" y="-12" font-family="Helvetica,sans-Serif" font-size="10.00">getSupportingFace()</text>
<polygon fill="#bfbfbf" stroke="#bfbfbf" points="153,-67 153,-67 312,-67 312,-67 153,-67"/>
<polygon fill="#bfbfbf" stroke="#bfbfbf" points="153,-52 153,-52 312,-52 312,-52 153,-52"/>
<polygon fill="none" stroke="#bfbfbf" points="152.5,-5.5 152.5,-84.5 311.5,-84.5 311.5,-5.5 152.5,-5.5"/>
</a>
</g>
</g>
<!-- Node1&#45;&gt;Node3 -->
<g id="edge2_Node000001_Node000003" class="edge">
<title>Node1&#45;&gt;Node3</title>
<g id="a_edge2_Node000001_Node000003"><a xlink:title=" ">
<path fill="none" stroke="#63b8ff" d="M284.39,-117.8C276.46,-106.94 268.04,-95.4 260.33,-84.83"/>
<polygon fill="none" stroke="#63b8ff" points="281.62,-119.94 290.34,-125.96 287.27,-115.82 281.62,-119.94"/>
</a>
</g>
</g>
<!-- Node4 -->
<g id="Node000004" class="node">
<title>Node4</title>
<g id="a_Node000004"><a xlink:href="../../dd/de8/classpocketmine_1_1block_1_1_floor_sign.html" target="_top" xlink:title=" ">
<polygon fill="white" stroke="transparent" points="476,-84.5 330,-84.5 330,-5.5 476,-5.5 476,-84.5"/>
<text text-anchor="start" x="335" y="-72" font-family="Helvetica,sans-Serif" font-size="10.00">pocketmine\block\FloorSign</text>
<text text-anchor="start" x="401" y="-57" font-family="Helvetica,sans-Serif" font-size="10.00"> </text>
<text text-anchor="start" x="340.5" y="-42" font-family="Helvetica,sans-Serif" font-size="10.00">+</text>
<text text-anchor="start" x="360" y="-42" font-family="Helvetica,sans-Serif" font-size="10.00">place()</text>
<text text-anchor="start" x="340.5" y="-27" font-family="Helvetica,sans-Serif" font-size="10.00">#</text>
<text text-anchor="start" x="360" y="-27" font-family="Helvetica,sans-Serif" font-size="10.00">getFacingDegrees()</text>
<text text-anchor="start" x="340.5" y="-12" font-family="Helvetica,sans-Serif" font-size="10.00">#</text>
<text text-anchor="start" x="360" y="-12" font-family="Helvetica,sans-Serif" font-size="10.00">getSupportingFace()</text>
<polygon fill="#bfbfbf" stroke="#bfbfbf" points="330,-67 330,-67 476,-67 476,-67 330,-67"/>
<polygon fill="#bfbfbf" stroke="#bfbfbf" points="330,-52 330,-52 476,-52 476,-52 330,-52"/>
<polygon fill="none" stroke="#bfbfbf" points="330,-5.5 330,-84.5 476,-84.5 476,-5.5 330,-5.5"/>
</a>
</g>
</g>
<!-- Node1&#45;&gt;Node4 -->
<g id="edge3_Node000001_Node000004" class="edge">
<title>Node1&#45;&gt;Node4</title>
<g id="a_edge3_Node000001_Node000004"><a xlink:title=" ">
<path fill="none" stroke="#63b8ff" d="M349.99,-117.8C358.02,-106.94 366.53,-95.4 374.34,-84.83"/>
<polygon fill="none" stroke="#63b8ff" points="347.1,-115.83 343.97,-125.96 352.73,-119.99 347.1,-115.83"/>
</a>
</g>
</g>
<!-- Node5 -->
<g id="Node000005" class="node">
<title>Node5</title>
<g id="a_Node000005"><a xlink:href="../../d9/dc2/classpocketmine_1_1block_1_1_ominous_floor_banner.html" target="_top" xlink:title=" ">
<polygon fill="white" stroke="transparent" points="637.5,-82.5 494.5,-82.5 494.5,-7.5 637.5,-7.5 637.5,-82.5"/>
<text text-anchor="start" x="500" y="-70" font-family="Helvetica,sans-Serif" font-size="10.00">pocketmine\block\Ominous</text>
<text text-anchor="start" x="536.5" y="-59" font-family="Helvetica,sans-Serif" font-size="10.00">FloorBanner</text>
<text text-anchor="start" x="564.5" y="-44" font-family="Helvetica,sans-Serif" font-size="10.00"> </text>
<text text-anchor="start" x="505" y="-29" font-family="Helvetica,sans-Serif" font-size="10.00">+</text>
<text text-anchor="start" x="524" y="-29" font-family="Helvetica,sans-Serif" font-size="10.00">place()</text>
<text text-anchor="start" x="505" y="-14" font-family="Helvetica,sans-Serif" font-size="10.00">#</text>
<text text-anchor="start" x="524" y="-14" font-family="Helvetica,sans-Serif" font-size="10.00">getSupportingFace()</text>
<polygon fill="#bfbfbf" stroke="#bfbfbf" points="495,-54 495,-54 638,-54 638,-54 495,-54"/>
<polygon fill="#bfbfbf" stroke="#bfbfbf" points="495,-39 495,-39 638,-39 638,-39 495,-39"/>
<polygon fill="none" stroke="#bfbfbf" points="494.5,-7.5 494.5,-82.5 637.5,-82.5 637.5,-7.5 494.5,-7.5"/>
</a>
</g>
</g>
<!-- Node1&#45;&gt;Node5 -->
<g id="edge4_Node000001_Node000005" class="edge">
<title>Node1&#45;&gt;Node5</title>
<g id="a_edge4_Node000001_Node000005"><a xlink:title=" ">
<path fill="none" stroke="#63b8ff" d="M387.1,-133.91C417.48,-121.1 453.28,-105.42 485,-90 489.89,-87.62 494.92,-85.1 499.95,-82.51"/>
<polygon fill="none" stroke="#63b8ff" points="385.72,-130.7 377.86,-137.8 388.43,-137.15 385.72,-130.7"/>
</a>
</g>
</g>
</g>
</svg>
