<?xml version="1.0" encoding="UTF-8" standalone="no"?>
<!DOCTYPE svg PUBLIC "-//W3C//DTD SVG 1.1//EN"
 "http://www.w3.org/Graphics/SVG/1.1/DTD/svg11.dtd">
<!-- Generated by graphviz version 2.43.0 (0)
 -->
<!-- Title: pocketmine\network\mcpe\protocol\ActorEventPacket Pages: 1 -->
<svg width="633pt" height="636pt"
 viewBox="0.00 0.00 632.50 636.00" xmlns="http://www.w3.org/2000/svg" xmlns:xlink="http://www.w3.org/1999/xlink">
<g id="graph0" class="graph" transform="scale(1 1) rotate(0) translate(4 632)">
<title>pocketmine\network\mcpe\protocol\ActorEventPacket</title>
<!-- Node1 -->
<g id="Node000001" class="node">
<title>Node1</title>
<g id="a_Node000001"><a xlink:title=" ">
<polygon fill="#999999" stroke="transparent" points="388,-150 217,-150 217,0 388,0 388,-150"/>
<text text-anchor="start" x="222.5" y="-138" font-family="Helvetica,sans-Serif" font-size="10.00">pocketmine\network</text>
<text text-anchor="start" x="222.5" y="-127" font-family="Helvetica,sans-Serif" font-size="10.00">\mcpe\protocol\ActorEventPacket</text>
<text text-anchor="start" x="238.5" y="-112" font-family="Helvetica,sans-Serif" font-size="10.00">+</text>
<text text-anchor="start" x="268.5" y="-112" font-family="Helvetica,sans-Serif" font-size="10.00">$actorRuntimeId</text>
<text text-anchor="start" x="238.5" y="-97" font-family="Helvetica,sans-Serif" font-size="10.00">+</text>
<text text-anchor="start" x="268.5" y="-97" font-family="Helvetica,sans-Serif" font-size="10.00">$eventData</text>
<text text-anchor="start" x="238.5" y="-82" font-family="Helvetica,sans-Serif" font-size="10.00">+</text>
<text text-anchor="start" x="268.5" y="-82" font-family="Helvetica,sans-Serif" font-size="10.00">$eventId</text>
<text text-anchor="start" x="238.5" y="-67" font-family="Helvetica,sans-Serif" font-size="10.00">+</text>
<text text-anchor="start" x="268.5" y="-67" font-family="Helvetica,sans-Serif" font-size="10.00">NETWORK_ID</text>
<text text-anchor="start" x="238.5" y="-52" font-family="Helvetica,sans-Serif" font-size="10.00">+</text>
<text text-anchor="start" x="268.5" y="-52" font-family="Helvetica,sans-Serif" font-size="10.00">handle()</text>
<text text-anchor="start" x="238.5" y="-37" font-family="Helvetica,sans-Serif" font-size="10.00">+</text>
<text text-anchor="start" x="268.5" y="-37" font-family="Helvetica,sans-Serif" font-size="10.00">create()</text>
<text text-anchor="start" x="238.5" y="-22" font-family="Helvetica,sans-Serif" font-size="10.00">#</text>
<text text-anchor="start" x="268.5" y="-22" font-family="Helvetica,sans-Serif" font-size="10.00">decodePayload()</text>
<text text-anchor="start" x="238.5" y="-7" font-family="Helvetica,sans-Serif" font-size="10.00">#</text>
<text text-anchor="start" x="268.5" y="-7" font-family="Helvetica,sans-Serif" font-size="10.00">encodePayload()</text>
<polygon fill="#666666" stroke="#666666" points="217.5,-122 217.5,-122 388.5,-122 388.5,-122 217.5,-122"/>
<polygon fill="#666666" stroke="#666666" points="217.5,-62 217.5,-62 266.5,-62 266.5,-62 217.5,-62"/>
<polygon fill="#666666" stroke="#666666" points="266.5,-62 266.5,-62 388.5,-62 388.5,-62 266.5,-62"/>
<polygon fill="none" stroke="#666666" points="217,0 217,-150 388,-150 388,0 217,0"/>
</a>
</g>
</g>
<!-- Node2 -->
<g id="Node000002" class="node">
<title>Node2</title>
<g id="a_Node000002"><a xlink:href="../../d1/ddb/classpocketmine_1_1network_1_1mcpe_1_1protocol_1_1_data_packet.html" target="_top" xlink:title=" ">
<polygon fill="white" stroke="transparent" points="141,-454 0,-454 0,-199 141,-199 141,-454"/>
<text text-anchor="start" x="5.5" y="-441.5" font-family="Helvetica,sans-Serif" font-size="10.00">pocketmine\network</text>
<text text-anchor="start" x="5.5" y="-430.5" font-family="Helvetica,sans-Serif" font-size="10.00">\mcpe\protocol\DataPacket</text>
<text text-anchor="start" x="5" y="-415.5" font-family="Helvetica,sans-Serif" font-size="10.00">+</text>
<text text-anchor="start" x="18.5" y="-415.5" font-family="Helvetica,sans-Serif" font-size="10.00">$recipientSubId</text>
<text text-anchor="start" x="5" y="-400.5" font-family="Helvetica,sans-Serif" font-size="10.00">+</text>
<text text-anchor="start" x="18.5" y="-400.5" font-family="Helvetica,sans-Serif" font-size="10.00">$senderSubId</text>
<text text-anchor="start" x="5" y="-385.5" font-family="Helvetica,sans-Serif" font-size="10.00">+</text>
<text text-anchor="start" x="18.5" y="-385.5" font-family="Helvetica,sans-Serif" font-size="10.00">NETWORK_ID</text>
<text text-anchor="start" x="5" y="-370.5" font-family="Helvetica,sans-Serif" font-size="10.00">+</text>
<text text-anchor="start" x="18.5" y="-370.5" font-family="Helvetica,sans-Serif" font-size="10.00">PID_MASK</text>
<text text-anchor="start" x="5" y="-355.5" font-family="Helvetica,sans-Serif" font-size="10.00">+</text>
<text text-anchor="start" x="18.5" y="-355.5" font-family="Helvetica,sans-Serif" font-size="10.00">__get()</text>
<text text-anchor="start" x="5" y="-340.5" font-family="Helvetica,sans-Serif" font-size="10.00">+</text>
<text text-anchor="start" x="18.5" y="-340.5" font-family="Helvetica,sans-Serif" font-size="10.00">__set()</text>
<text text-anchor="start" x="5" y="-325.5" font-family="Helvetica,sans-Serif" font-size="10.00">+</text>
<text text-anchor="start" x="18.5" y="-325.5" font-family="Helvetica,sans-Serif" font-size="10.00">canBeSentBeforeLogin()</text>
<text text-anchor="start" x="5" y="-310.5" font-family="Helvetica,sans-Serif" font-size="10.00">+</text>
<text text-anchor="start" x="18.5" y="-310.5" font-family="Helvetica,sans-Serif" font-size="10.00">decode()</text>
<text text-anchor="start" x="5" y="-295.5" font-family="Helvetica,sans-Serif" font-size="10.00">+</text>
<text text-anchor="start" x="18.5" y="-295.5" font-family="Helvetica,sans-Serif" font-size="10.00">encode()</text>
<text text-anchor="start" x="5" y="-280.5" font-family="Helvetica,sans-Serif" font-size="10.00">+</text>
<text text-anchor="start" x="18.5" y="-280.5" font-family="Helvetica,sans-Serif" font-size="10.00">getName()</text>
<text text-anchor="start" x="5" y="-265.5" font-family="Helvetica,sans-Serif" font-size="10.00">+</text>
<text text-anchor="start" x="18.5" y="-265.5" font-family="Helvetica,sans-Serif" font-size="10.00">pid()</text>
<text text-anchor="start" x="5" y="-250.5" font-family="Helvetica,sans-Serif" font-size="10.00">#</text>
<text text-anchor="start" x="18.5" y="-250.5" font-family="Helvetica,sans-Serif" font-size="10.00">decodeHeader()</text>
<text text-anchor="start" x="5" y="-235.5" font-family="Helvetica,sans-Serif" font-size="10.00">#</text>
<text text-anchor="start" x="18.5" y="-235.5" font-family="Helvetica,sans-Serif" font-size="10.00">decodePayload()</text>
<text text-anchor="start" x="5" y="-220.5" font-family="Helvetica,sans-Serif" font-size="10.00">#</text>
<text text-anchor="start" x="18.5" y="-220.5" font-family="Helvetica,sans-Serif" font-size="10.00">encodeHeader()</text>
<text text-anchor="start" x="5" y="-205.5" font-family="Helvetica,sans-Serif" font-size="10.00">#</text>
<text text-anchor="start" x="18.5" y="-205.5" font-family="Helvetica,sans-Serif" font-size="10.00">encodePayload()</text>
<polygon fill="#bfbfbf" stroke="#bfbfbf" points="0.5,-425.5 0.5,-425.5 141.5,-425.5 141.5,-425.5 0.5,-425.5"/>
<polygon fill="#bfbfbf" stroke="#bfbfbf" points="0.5,-365.5 0.5,-365.5 16.5,-365.5 16.5,-365.5 0.5,-365.5"/>
<polygon fill="#bfbfbf" stroke="#bfbfbf" points="16.5,-365.5 16.5,-365.5 141.5,-365.5 141.5,-365.5 16.5,-365.5"/>
<polygon fill="none" stroke="#bfbfbf" points="0,-199 0,-454 141,-454 141,-199 0,-199"/>
</a>
</g>
</g>
<!-- Node2&#45;&gt;Node1 -->
<g id="edge1_Node000001_Node000002" class="edge">
<title>Node2&#45;&gt;Node1</title>
<g id="a_edge1_Node000001_Node000002"><a xlink:title=" ">
<path fill="none" stroke="#63b8ff" d="M147.62,-199.14C148.25,-198.42 148.87,-197.71 149.5,-197 169.29,-174.72 193.56,-153.46 216.88,-135.15"/>
<polygon fill="none" stroke="#63b8ff" points="144.76,-197.1 141.02,-207.01 150.13,-201.6 144.76,-197.1"/>
</a>
</g>
</g>
<!-- Node3 -->
<g id="Node000003" class="node">
<title>Node3</title>
<g id="a_Node000003"><a xlink:href="../../d4/d5d/interfacepocketmine_1_1network_1_1mcpe_1_1protocol_1_1_packet.html" target="_top" xlink:title=" ">
<polygon fill="white" stroke="transparent" points="301,-628 162,-628 162,-493 301,-493 301,-628"/>
<text text-anchor="start" x="178" y="-615.5" font-family="Helvetica,sans-Serif" font-size="10.00">pocketmine\network</text>
<text text-anchor="start" x="178" y="-604.5" font-family="Helvetica,sans-Serif" font-size="10.00">\mcpe\protocol\Packet</text>
<text text-anchor="start" x="230" y="-589.5" font-family="Helvetica,sans-Serif" font-size="10.00"> </text>
<text text-anchor="start" x="166.5" y="-574.5" font-family="Helvetica,sans-Serif" font-size="10.00">+</text>
<text text-anchor="start" x="179.5" y="-574.5" font-family="Helvetica,sans-Serif" font-size="10.00">canBeSentBeforeLogin()</text>
<text text-anchor="start" x="166.5" y="-559.5" font-family="Helvetica,sans-Serif" font-size="10.00">+</text>
<text text-anchor="start" x="179.5" y="-559.5" font-family="Helvetica,sans-Serif" font-size="10.00">decode()</text>
<text text-anchor="start" x="166.5" y="-544.5" font-family="Helvetica,sans-Serif" font-size="10.00">+</text>
<text text-anchor="start" x="179.5" y="-544.5" font-family="Helvetica,sans-Serif" font-size="10.00">encode()</text>
<text text-anchor="start" x="166.5" y="-529.5" font-family="Helvetica,sans-Serif" font-size="10.00">+</text>
<text text-anchor="start" x="179.5" y="-529.5" font-family="Helvetica,sans-Serif" font-size="10.00">getName()</text>
<text text-anchor="start" x="166.5" y="-514.5" font-family="Helvetica,sans-Serif" font-size="10.00">+</text>
<text text-anchor="start" x="179.5" y="-514.5" font-family="Helvetica,sans-Serif" font-size="10.00">handle()</text>
<text text-anchor="start" x="166.5" y="-499.5" font-family="Helvetica,sans-Serif" font-size="10.00">+</text>
<text text-anchor="start" x="179.5" y="-499.5" font-family="Helvetica,sans-Serif" font-size="10.00">pid()</text>
<polygon fill="#bfbfbf" stroke="#bfbfbf" points="162.5,-599.5 162.5,-599.5 301.5,-599.5 301.5,-599.5 162.5,-599.5"/>
<polygon fill="#bfbfbf" stroke="#bfbfbf" points="162.5,-584.5 162.5,-584.5 301.5,-584.5 301.5,-584.5 162.5,-584.5"/>
<polygon fill="none" stroke="#bfbfbf" points="162,-493 162,-628 301,-628 301,-493 162,-493"/>
</a>
</g>
</g>
<!-- Node3&#45;&gt;Node2 -->
<g id="edge2_Node000002_Node000003" class="edge">
<title>Node3&#45;&gt;Node2</title>
<g id="a_edge2_Node000002_Node000003"><a xlink:title=" ">
<path fill="none" stroke="#63b8ff" d="M170.6,-484.77C163.32,-475.21 156.12,-465.46 149.5,-456 146.72,-452.03 143.93,-447.96 141.15,-443.83"/>
<polygon fill="none" stroke="#63b8ff" points="167.86,-486.94 176.73,-492.74 173.41,-482.68 167.86,-486.94"/>
</a>
</g>
</g>
<!-- Node4 -->
<g id="Node000004" class="node">
<title>Node4</title>
<g id="a_Node000004"><a xlink:href="../../da/d77/interfacepocketmine_1_1network_1_1mcpe_1_1protocol_1_1_clientbound_packet.html" target="_top" xlink:title=" ">
<polygon fill="white" stroke="transparent" points="304,-362 159,-362 159,-291 304,-291 304,-362"/>
<text text-anchor="start" x="164.5" y="-349.5" font-family="Helvetica,sans-Serif" font-size="10.00">pocketmine\network</text>
<text text-anchor="start" x="164.5" y="-338.5" font-family="Helvetica,sans-Serif" font-size="10.00">\mcpe\protocol\Clientbound</text>
<text text-anchor="start" x="216" y="-327.5" font-family="Helvetica,sans-Serif" font-size="10.00">Packet</text>
<text text-anchor="start" x="230" y="-312.5" font-family="Helvetica,sans-Serif" font-size="10.00"> </text>
<text text-anchor="start" x="230" y="-297.5" font-family="Helvetica,sans-Serif" font-size="10.00"> </text>
<polygon fill="#bfbfbf" stroke="#bfbfbf" points="159.5,-322.5 159.5,-322.5 304.5,-322.5 304.5,-322.5 159.5,-322.5"/>
<polygon fill="#bfbfbf" stroke="#bfbfbf" points="159.5,-307.5 159.5,-307.5 304.5,-307.5 304.5,-307.5 159.5,-307.5"/>
<polygon fill="none" stroke="#bfbfbf" points="159,-291 159,-362 304,-362 304,-291 159,-291"/>
</a>
</g>
</g>
<!-- Node3&#45;&gt;Node4 -->
<g id="edge4_Node000004_Node000003" class="edge">
<title>Node3&#45;&gt;Node4</title>
<g id="a_edge4_Node000004_Node000003"><a xlink:title=" ">
<path fill="none" stroke="#63b8ff" d="M231.5,-482.51C231.5,-441.74 231.5,-393.7 231.5,-362.02"/>
<polygon fill="none" stroke="#63b8ff" points="228,-482.71 231.5,-492.71 235,-482.71 228,-482.71"/>
</a>
</g>
</g>
<!-- Node5 -->
<g id="Node000005" class="node">
<title>Node5</title>
<g id="a_Node000005"><a xlink:href="../../dd/de6/interfacepocketmine_1_1network_1_1mcpe_1_1protocol_1_1_serverbound_packet.html" target="_top" xlink:title=" ">
<polygon fill="white" stroke="transparent" points="470.5,-362 322.5,-362 322.5,-291 470.5,-291 470.5,-362"/>
<text text-anchor="start" x="327.5" y="-349.5" font-family="Helvetica,sans-Serif" font-size="10.00">pocketmine\network</text>
<text text-anchor="start" x="327.5" y="-338.5" font-family="Helvetica,sans-Serif" font-size="10.00">\mcpe\protocol\Serverbound</text>
<text text-anchor="start" x="380.5" y="-327.5" font-family="Helvetica,sans-Serif" font-size="10.00">Packet</text>
<text text-anchor="start" x="394.5" y="-312.5" font-family="Helvetica,sans-Serif" font-size="10.00"> </text>
<text text-anchor="start" x="394.5" y="-297.5" font-family="Helvetica,sans-Serif" font-size="10.00"> </text>
<polygon fill="#bfbfbf" stroke="#bfbfbf" points="322.5,-322.5 322.5,-322.5 470.5,-322.5 470.5,-322.5 322.5,-322.5"/>
<polygon fill="#bfbfbf" stroke="#bfbfbf" points="322.5,-307.5 322.5,-307.5 470.5,-307.5 470.5,-307.5 322.5,-307.5"/>
<polygon fill="none" stroke="#bfbfbf" points="322.5,-291 322.5,-362 470.5,-362 470.5,-291 322.5,-291"/>
</a>
</g>
</g>
<!-- Node3&#45;&gt;Node5 -->
<g id="edge6_Node000005_Node000003" class="edge">
<title>Node3&#45;&gt;Node5</title>
<g id="a_edge6_Node000005_Node000003"><a xlink:title=" ">
<path fill="none" stroke="#63b8ff" d="M291.2,-484.76C298.5,-475.18 305.75,-465.42 312.5,-456 334.77,-424.91 358.47,-388.29 374.99,-362.12"/>
<polygon fill="none" stroke="#63b8ff" points="288.37,-482.7 285.06,-492.77 293.92,-486.96 288.37,-482.7"/>
</a>
</g>
</g>
<!-- Node4&#45;&gt;Node1 -->
<g id="edge3_Node000001_Node000004" class="edge">
<title>Node4&#45;&gt;Node1</title>
<g id="a_edge3_Node000001_Node000004"><a xlink:title=" ">
<path fill="none" stroke="#63b8ff" d="M244.16,-281.01C254.49,-244.72 269.3,-192.68 281.41,-150.11"/>
<polygon fill="none" stroke="#63b8ff" points="240.74,-280.23 241.37,-290.81 247.48,-282.15 240.74,-280.23"/>
</a>
</g>
</g>
<!-- Node5&#45;&gt;Node1 -->
<g id="edge5_Node000001_Node000005" class="edge">
<title>Node5&#45;&gt;Node1</title>
<g id="a_edge5_Node000001_Node000005"><a xlink:title=" ">
<path fill="none" stroke="#63b8ff" d="M379.74,-281.01C366.07,-244.72 346.46,-192.68 330.42,-150.11"/>
<polygon fill="none" stroke="#63b8ff" points="376.63,-282.68 383.43,-290.81 383.18,-280.22 376.63,-282.68"/>
</a>
</g>
</g>
<!-- Node6 -->
<g id="Node000006" class="node">
<title>Node6</title>
<g id="a_Node000006"><a xlink:href="../../d2/d90/classpocketmine_1_1math_1_1_vector3.html" target="_top" xlink:title=" ">
<polygon fill="white" stroke="transparent" points="624.5,-456 488.5,-456 488.5,-197 624.5,-197 624.5,-456"/>
<text text-anchor="start" x="493.5" y="-443.5" font-family="Helvetica,sans-Serif" font-size="10.00">pocketmine\math\Vector3</text>
<text text-anchor="start" x="554.5" y="-428.5" font-family="Helvetica,sans-Serif" font-size="10.00"> </text>
<text text-anchor="start" x="498.5" y="-413.5" font-family="Helvetica,sans-Serif" font-size="10.00">+</text>
<text text-anchor="start" x="517.5" y="-413.5" font-family="Helvetica,sans-Serif" font-size="10.00">__construct()</text>
<text text-anchor="start" x="498.5" y="-398.5" font-family="Helvetica,sans-Serif" font-size="10.00">+</text>
<text text-anchor="start" x="517.5" y="-398.5" font-family="Helvetica,sans-Serif" font-size="10.00">__toString()</text>
<text text-anchor="start" x="498.5" y="-383.5" font-family="Helvetica,sans-Serif" font-size="10.00">+</text>
<text text-anchor="start" x="517.5" y="-383.5" font-family="Helvetica,sans-Serif" font-size="10.00">abs()</text>
<text text-anchor="start" x="498.5" y="-368.5" font-family="Helvetica,sans-Serif" font-size="10.00">+</text>
<text text-anchor="start" x="517.5" y="-368.5" font-family="Helvetica,sans-Serif" font-size="10.00">add()</text>
<text text-anchor="start" x="498.5" y="-353.5" font-family="Helvetica,sans-Serif" font-size="10.00">+</text>
<text text-anchor="start" x="517.5" y="-353.5" font-family="Helvetica,sans-Serif" font-size="10.00">addVector()</text>
<text text-anchor="start" x="498.5" y="-338.5" font-family="Helvetica,sans-Serif" font-size="10.00">+</text>
<text text-anchor="start" x="517.5" y="-338.5" font-family="Helvetica,sans-Serif" font-size="10.00">asVector3()</text>
<text text-anchor="start" x="498.5" y="-323.5" font-family="Helvetica,sans-Serif" font-size="10.00">+</text>
<text text-anchor="start" x="517.5" y="-323.5" font-family="Helvetica,sans-Serif" font-size="10.00">ceil()</text>
<text text-anchor="start" x="498.5" y="-308.5" font-family="Helvetica,sans-Serif" font-size="10.00">+</text>
<text text-anchor="start" x="517.5" y="-308.5" font-family="Helvetica,sans-Serif" font-size="10.00">cross()</text>
<text text-anchor="start" x="498.5" y="-293.5" font-family="Helvetica,sans-Serif" font-size="10.00">+</text>
<text text-anchor="start" x="517.5" y="-293.5" font-family="Helvetica,sans-Serif" font-size="10.00">distance()</text>
<text text-anchor="start" x="498.5" y="-278.5" font-family="Helvetica,sans-Serif" font-size="10.00">+</text>
<text text-anchor="start" x="517.5" y="-278.5" font-family="Helvetica,sans-Serif" font-size="10.00">distanceSquared()</text>
<text text-anchor="start" x="517.5" y="-263.5" font-family="Helvetica,sans-Serif" font-size="10.00">and 32 more...</text>
<text text-anchor="start" x="498.5" y="-248.5" font-family="Helvetica,sans-Serif" font-size="10.00">+</text>
<text text-anchor="start" x="517.5" y="-248.5" font-family="Helvetica,sans-Serif" font-size="10.00">maxComponents()</text>
<text text-anchor="start" x="498.5" y="-233.5" font-family="Helvetica,sans-Serif" font-size="10.00">+</text>
<text text-anchor="start" x="517.5" y="-233.5" font-family="Helvetica,sans-Serif" font-size="10.00">minComponents()</text>
<text text-anchor="start" x="498.5" y="-218.5" font-family="Helvetica,sans-Serif" font-size="10.00">+</text>
<text text-anchor="start" x="517.5" y="-218.5" font-family="Helvetica,sans-Serif" font-size="10.00">sum()</text>
<text text-anchor="start" x="498.5" y="-203.5" font-family="Helvetica,sans-Serif" font-size="10.00">+</text>
<text text-anchor="start" x="517.5" y="-203.5" font-family="Helvetica,sans-Serif" font-size="10.00">zero()</text>
<polygon fill="#bfbfbf" stroke="#bfbfbf" points="488.5,-438.5 488.5,-438.5 624.5,-438.5 624.5,-438.5 488.5,-438.5"/>
<polygon fill="#bfbfbf" stroke="#bfbfbf" points="488.5,-423.5 488.5,-423.5 624.5,-423.5 624.5,-423.5 488.5,-423.5"/>
<polygon fill="none" stroke="#bfbfbf" points="488.5,-197 488.5,-456 624.5,-456 624.5,-197 488.5,-197"/>
</a>
</g>
</g>
<!-- Node6&#45;&gt;Node1 -->
<g id="edge7_Node000001_Node000006" class="edge">
<title>Node6&#45;&gt;Node1</title>
<g id="a_edge7_Node000001_Node000006"><a xlink:title=" ">
<path fill="none" stroke="#63b8ff" d="M488.4,-207.04C485.5,-203.58 482.53,-200.22 479.5,-197 456.09,-172.14 426.73,-149.56 398.69,-130.82"/>
<polygon fill="none" stroke="#63b8ff" points="398.46,-130.67 391.25,-130.73 388.43,-124.09 395.64,-124.04 398.46,-130.67"/>
</a>
</g>
<text text-anchor="middle" x="496" y="-171" font-family="Helvetica,sans-Serif" font-size="10.00" fill="grey"> +$firePosition</text>
</g>
</g>
</svg>
