<?xml version="1.0" encoding="UTF-8" standalone="no"?>
<!DOCTYPE svg PUBLIC "-//W3C//DTD SVG 1.1//EN"
 "http://www.w3.org/Graphics/SVG/1.1/DTD/svg11.dtd">
<!-- Generated by graphviz version 2.43.0 (0)
 -->
<!-- Title: pocketmine\network\mcpe\protocol\AnimatePacket Pages: 1 -->
<!--zoomable 628 -->
<svg id="main" version="1.1" xmlns="http://www.w3.org/2000/svg" xmlns:xlink="http://www.w3.org/1999/xlink" xml:space="preserve" onload="init(evt)">
<style type="text/css"><![CDATA[
.edge:hover path { stroke: red; }
.edge:hover polygon { stroke: red; fill: red; }
]]></style>
<script type="text/javascript"><![CDATA[
var edges = document.getElementsByTagName('g');
if (edges && edges.length) {
  for (var i=0;i<edges.length;i++) {
    if (edges[i].id.substr(0,4)=='edge') {
      edges[i].setAttribute('class','edge');
    }
  }
}
]]></script>
        <defs>
                <circle id="rim" cx="0" cy="0" r="7"/>
                <circle id="rim2" cx="0" cy="0" r="3.5"/>
                <g id="zoomPlus">
                        <use xlink:href="#rim" fill="#404040">
                                <set attributeName="fill" to="#808080" begin="zoomplus.mouseover" end="zoomplus.mouseout"/>
                        </use>
                        <path d="M-4,0h8M0,-4v8" fill="none" stroke="white" stroke-width="1.5" pointer-events="none"/>
                </g>
                <g id="zoomMin">
                        <use xlink:href="#rim" fill="#404040">
                                <set attributeName="fill" to="#808080" begin="zoomminus.mouseover" end="zoomminus.mouseout"/>
                        </use>
                        <path d="M-4,0h8" fill="none" stroke="white" stroke-width="1.5" pointer-events="none"/>
                </g>
                <g id="dirArrow">
                        <path fill="none" stroke="white" stroke-width="1.5" d="M0,-3.0v7 M-2.5,-0.5L0,-3.0L2.5,-0.5"/>
                </g>
               <g id="resetDef">
                       <use xlink:href="#rim2" fill="#404040">
                               <set attributeName="fill" to="#808080" begin="reset.mouseover" end="reset.mouseout"/>
                       </use>
               </g>
        </defs>

<script type="text/javascript">
var viewWidth = 497;
var viewHeight = 628;
var sectionId = 'dynsection-0';
</script>
<script xlink:href="../../svgpan.js"/>
<svg id="graph" class="graph">
<g id="viewport">
<title>pocketmine\network\mcpe\protocol\AnimatePacket</title>
<polygon fill="white" stroke="transparent" points="-4,4 -4,-624 492.5,-624 492.5,4 -4,4"/>
<!-- Node1 -->
<g id="node1" class="node">
<title>Node1</title>
<g id="a_node1"><a xlink:title=" ">
<polygon fill="#bfbfbf" stroke="black" points="147,-0.5 147,-211.5 334,-211.5 334,-0.5 147,-0.5"/>
<text text-anchor="start" x="155" y="-199.5" font-family="Helvetica,sans-Serif" font-size="10.00">pocketmine\network</text>
<text text-anchor="middle" x="240.5" y="-188.5" font-family="Helvetica,sans-Serif" font-size="10.00">\mcpe\protocol\AnimatePacket</text>
<polyline fill="none" stroke="black" points="147,-181.5 334,-181.5 "/>
<text text-anchor="start" x="155" y="-169.5" font-family="Helvetica,sans-Serif" font-size="10.00">+ $action</text>
<text text-anchor="start" x="155" y="-158.5" font-family="Helvetica,sans-Serif" font-size="10.00">+ $actorRuntimeId</text>
<text text-anchor="start" x="155" y="-147.5" font-family="Helvetica,sans-Serif" font-size="10.00">+ $float</text>
<text text-anchor="start" x="155" y="-136.5" font-family="Helvetica,sans-Serif" font-size="10.00">+ ACTION_CRITICAL_HIT</text>
<text text-anchor="start" x="155" y="-125.5" font-family="Helvetica,sans-Serif" font-size="10.00">+ ACTION_MAGICAL_CRITICAL_HIT</text>
<text text-anchor="start" x="155" y="-114.5" font-family="Helvetica,sans-Serif" font-size="10.00">+ ACTION_ROW_LEFT</text>
<text text-anchor="start" x="155" y="-103.5" font-family="Helvetica,sans-Serif" font-size="10.00">+ ACTION_ROW_RIGHT</text>
<text text-anchor="start" x="155" y="-92.5" font-family="Helvetica,sans-Serif" font-size="10.00">+ ACTION_STOP_SLEEP</text>
<text text-anchor="start" x="155" y="-81.5" font-family="Helvetica,sans-Serif" font-size="10.00">+ ACTION_SWING_ARM</text>
<text text-anchor="start" x="155" y="-70.5" font-family="Helvetica,sans-Serif" font-size="10.00">+ NETWORK_ID</text>
<polyline fill="none" stroke="black" points="147,-63.5 334,-63.5 "/>
<text text-anchor="start" x="155" y="-51.5" font-family="Helvetica,sans-Serif" font-size="10.00">+ handle()</text>
<text text-anchor="start" x="155" y="-40.5" font-family="Helvetica,sans-Serif" font-size="10.00">+ boatHack()</text>
<text text-anchor="start" x="155" y="-29.5" font-family="Helvetica,sans-Serif" font-size="10.00">+ create()</text>
<text text-anchor="start" x="155" y="-18.5" font-family="Helvetica,sans-Serif" font-size="10.00"># decodePayload()</text>
<text text-anchor="start" x="155" y="-7.5" font-family="Helvetica,sans-Serif" font-size="10.00"># encodePayload()</text>
</a>
</g>
</g>
<!-- Node2 -->
<g id="node2" class="node">
<title>Node2</title>
<g id="a_node2"><a xlink:href="../../d1/ddb/classpocketmine_1_1network_1_1mcpe_1_1protocol_1_1_data_packet.html" target="_top" xlink:title=" ">
<polygon fill="white" stroke="#bfbfbf" points="0,-248.5 0,-459.5 147,-459.5 147,-248.5 0,-248.5"/>
<text text-anchor="start" x="8" y="-447.5" font-family="Helvetica,sans-Serif" font-size="10.00">pocketmine\network</text>
<text text-anchor="middle" x="73.5" y="-436.5" font-family="Helvetica,sans-Serif" font-size="10.00">\mcpe\protocol\DataPacket</text>
<polyline fill="none" stroke="#bfbfbf" points="0,-429.5 147,-429.5 "/>
<text text-anchor="start" x="8" y="-417.5" font-family="Helvetica,sans-Serif" font-size="10.00">+ $recipientSubId</text>
<text text-anchor="start" x="8" y="-406.5" font-family="Helvetica,sans-Serif" font-size="10.00">+ $senderSubId</text>
<text text-anchor="start" x="8" y="-395.5" font-family="Helvetica,sans-Serif" font-size="10.00">+ NETWORK_ID</text>
<text text-anchor="start" x="8" y="-384.5" font-family="Helvetica,sans-Serif" font-size="10.00">+ PID_MASK</text>
<polyline fill="none" stroke="#bfbfbf" points="0,-377.5 147,-377.5 "/>
<text text-anchor="start" x="8" y="-365.5" font-family="Helvetica,sans-Serif" font-size="10.00">+ __get()</text>
<text text-anchor="start" x="8" y="-354.5" font-family="Helvetica,sans-Serif" font-size="10.00">+ __set()</text>
<text text-anchor="start" x="8" y="-343.5" font-family="Helvetica,sans-Serif" font-size="10.00">+ canBeSentBeforeLogin()</text>
<text text-anchor="start" x="8" y="-332.5" font-family="Helvetica,sans-Serif" font-size="10.00">+ decode()</text>
<text text-anchor="start" x="8" y="-321.5" font-family="Helvetica,sans-Serif" font-size="10.00">+ encode()</text>
<text text-anchor="start" x="8" y="-310.5" font-family="Helvetica,sans-Serif" font-size="10.00">+ getName()</text>
<text text-anchor="start" x="8" y="-299.5" font-family="Helvetica,sans-Serif" font-size="10.00">+ pid()</text>
<text text-anchor="start" x="8" y="-288.5" font-family="Helvetica,sans-Serif" font-size="10.00"># decodeHeader()</text>
<text text-anchor="start" x="8" y="-277.5" font-family="Helvetica,sans-Serif" font-size="10.00"># decodePayload()</text>
<text text-anchor="start" x="8" y="-266.5" font-family="Helvetica,sans-Serif" font-size="10.00"># encodeHeader()</text>
<text text-anchor="start" x="8" y="-255.5" font-family="Helvetica,sans-Serif" font-size="10.00"># encodePayload()</text>
</a>
</g>
</g>
<!-- Node2&#45;&gt;Node1 -->
<g id="edge1" class="edge">
<title>Node2&#45;&gt;Node1</title>
<path fill="none" stroke="midnightblue" d="M150.2,-240.02C156.63,-230.55 163.11,-220.99 169.5,-211.59"/>
<polygon fill="none" stroke="midnightblue" points="147.29,-238.08 144.57,-248.32 153.08,-242.01 147.29,-238.08"/>
</g>
<!-- Node3 -->
<g id="node3" class="node">
<title>Node3</title>
<g id="a_node3"><a xlink:href="../../d4/d5d/interfacepocketmine_1_1network_1_1mcpe_1_1protocol_1_1_packet.html" target="_top" xlink:title=" ">
<polygon fill="white" stroke="#bfbfbf" points="167.5,-496.5 167.5,-619.5 313.5,-619.5 313.5,-496.5 167.5,-496.5"/>
<text text-anchor="start" x="175.5" y="-607.5" font-family="Helvetica,sans-Serif" font-size="10.00">pocketmine\network</text>
<text text-anchor="middle" x="240.5" y="-596.5" font-family="Helvetica,sans-Serif" font-size="10.00">\mcpe\protocol\Packet</text>
<polyline fill="none" stroke="#bfbfbf" points="167.5,-589.5 313.5,-589.5 "/>
<text text-anchor="middle" x="240.5" y="-577.5" font-family="Helvetica,sans-Serif" font-size="10.00"> </text>
<polyline fill="none" stroke="#bfbfbf" points="167.5,-570.5 313.5,-570.5 "/>
<text text-anchor="start" x="175.5" y="-558.5" font-family="Helvetica,sans-Serif" font-size="10.00">+ canBeSentBeforeLogin()</text>
<text text-anchor="start" x="175.5" y="-547.5" font-family="Helvetica,sans-Serif" font-size="10.00">+ decode()</text>
<text text-anchor="start" x="175.5" y="-536.5" font-family="Helvetica,sans-Serif" font-size="10.00">+ encode()</text>
<text text-anchor="start" x="175.5" y="-525.5" font-family="Helvetica,sans-Serif" font-size="10.00">+ getName()</text>
<text text-anchor="start" x="175.5" y="-514.5" font-family="Helvetica,sans-Serif" font-size="10.00">+ handle()</text>
<text text-anchor="start" x="175.5" y="-503.5" font-family="Helvetica,sans-Serif" font-size="10.00">+ pid()</text>
</a>
</g>
</g>
<!-- Node3&#45;&gt;Node2 -->
<g id="edge2" class="edge">
<title>Node3&#45;&gt;Node2</title>
<path fill="none" stroke="midnightblue" d="M179.85,-488.76C171.58,-479.18 163.27,-469.39 155.5,-460 152.7,-456.61 149.86,-453.15 147.01,-449.65"/>
<polygon fill="none" stroke="midnightblue" points="177.27,-491.13 186.46,-496.4 182.56,-486.55 177.27,-491.13"/>
</g>
<!-- Node4 -->
<g id="node4" class="node">
<title>Node4</title>
<g id="a_node4"><a xlink:href="../../da/d77/interfacepocketmine_1_1network_1_1mcpe_1_1protocol_1_1_clientbound_packet.html" target="_top" xlink:title=" ">
<polygon fill="white" stroke="#bfbfbf" points="165,-314.5 165,-393.5 316,-393.5 316,-314.5 165,-314.5"/>
<text text-anchor="start" x="173" y="-381.5" font-family="Helvetica,sans-Serif" font-size="10.00">pocketmine\network</text>
<text text-anchor="start" x="173" y="-370.5" font-family="Helvetica,sans-Serif" font-size="10.00">\mcpe\protocol\Clientbound</text>
<text text-anchor="middle" x="240.5" y="-359.5" font-family="Helvetica,sans-Serif" font-size="10.00">Packet</text>
<polyline fill="none" stroke="#bfbfbf" points="165,-352.5 316,-352.5 "/>
<text text-anchor="middle" x="240.5" y="-340.5" font-family="Helvetica,sans-Serif" font-size="10.00"> </text>
<polyline fill="none" stroke="#bfbfbf" points="165,-333.5 316,-333.5 "/>
<text text-anchor="middle" x="240.5" y="-321.5" font-family="Helvetica,sans-Serif" font-size="10.00"> </text>
</a>
</g>
</g>
<!-- Node3&#45;&gt;Node4 -->
<g id="edge4" class="edge">
<title>Node3&#45;&gt;Node4</title>
<path fill="none" stroke="midnightblue" d="M240.5,-486.03C240.5,-454.95 240.5,-419.7 240.5,-393.59"/>
<polygon fill="none" stroke="midnightblue" points="237,-486.39 240.5,-496.39 244,-486.39 237,-486.39"/>
</g>
<!-- Node5 -->
<g id="node5" class="node">
<title>Node5</title>
<g id="a_node5"><a xlink:href="../../dd/de6/interfacepocketmine_1_1network_1_1mcpe_1_1protocol_1_1_serverbound_packet.html" target="_top" xlink:title=" ">
<polygon fill="white" stroke="#bfbfbf" points="334.5,-314.5 334.5,-393.5 488.5,-393.5 488.5,-314.5 334.5,-314.5"/>
<text text-anchor="start" x="342.5" y="-381.5" font-family="Helvetica,sans-Serif" font-size="10.00">pocketmine\network</text>
<text text-anchor="start" x="342.5" y="-370.5" font-family="Helvetica,sans-Serif" font-size="10.00">\mcpe\protocol\Serverbound</text>
<text text-anchor="middle" x="411.5" y="-359.5" font-family="Helvetica,sans-Serif" font-size="10.00">Packet</text>
<polyline fill="none" stroke="#bfbfbf" points="334.5,-352.5 488.5,-352.5 "/>
<text text-anchor="middle" x="411.5" y="-340.5" font-family="Helvetica,sans-Serif" font-size="10.00"> </text>
<polyline fill="none" stroke="#bfbfbf" points="334.5,-333.5 488.5,-333.5 "/>
<text text-anchor="middle" x="411.5" y="-321.5" font-family="Helvetica,sans-Serif" font-size="10.00"> </text>
</a>
</g>
</g>
<!-- Node3&#45;&gt;Node5 -->
<g id="edge6" class="edge">
<title>Node3&#45;&gt;Node5</title>
<path fill="none" stroke="midnightblue" d="M300.77,-488.8C309.12,-479.17 317.56,-469.37 325.5,-460 343.93,-438.25 364.15,-413.6 380.35,-393.65"/>
<polygon fill="none" stroke="midnightblue" points="298.02,-486.63 294.09,-496.47 303.3,-491.23 298.02,-486.63"/>
</g>
<!-- Node4&#45;&gt;Node1 -->
<g id="edge3" class="edge">
<title>Node4&#45;&gt;Node1</title>
<path fill="none" stroke="midnightblue" d="M240.5,-304.13C240.5,-277.6 240.5,-243.72 240.5,-211.56"/>
<polygon fill="none" stroke="midnightblue" points="237,-304.29 240.5,-314.29 244,-304.29 237,-304.29"/>
</g>
<!-- Node5&#45;&gt;Node1 -->
<g id="edge5" class="edge">
<title>Node5&#45;&gt;Node1</title>
<path fill="none" stroke="midnightblue" d="M378.75,-305.88C360.13,-279.1 336.03,-244.43 313.18,-211.56"/>
<polygon fill="none" stroke="midnightblue" points="376.01,-308.08 384.59,-314.29 381.76,-304.08 376.01,-308.08"/>
</g>
</g>
</svg>
        <g id="navigator" transform="translate(0 0)" fill="#404254">
                <rect fill="#f2f5e9" fill-opacity="0.5" stroke="#606060" stroke-width=".5" x="0" y="0" width="60" height="60"/>
                <use id="zoomplus" xlink:href="#zoomPlus" x="17" y="9" onmousedown="handleZoom(evt,'in')"/>
                <use id="zoomminus" xlink:href="#zoomMin" x="42" y="9" onmousedown="handleZoom(evt,'out')"/>
                <use id="reset" xlink:href="#resetDef" x="30" y="36" onmousedown="handleReset()"/>
                <g id="arrowUp" xlink:href="#dirArrow" transform="translate(30 24)" onmousedown="handlePan(0,-1)">
                  <use xlink:href="#rim" fill="#404040">
                        <set attributeName="fill" to="#808080" begin="arrowUp.mouseover" end="arrowUp.mouseout"/>
                  </use>
                  <path fill="none" stroke="white" stroke-width="1.5" d="M0,-3.0v7 M-2.5,-0.5L0,-3.0L2.5,-0.5"/>
                </g>
                <g id="arrowRight" xlink:href="#dirArrow" transform="rotate(90) translate(36 -43)" onmousedown="handlePan(1,0)">
                  <use xlink:href="#rim" fill="#404040">
                        <set attributeName="fill" to="#808080" begin="arrowRight.mouseover" end="arrowRight.mouseout"/>
                  </use>
                  <path fill="none" stroke="white" stroke-width="1.5" d="M0,-3.0v7 M-2.5,-0.5L0,-3.0L2.5,-0.5"/>
                </g>
                <g id="arrowDown" xlink:href="#dirArrow" transform="rotate(180) translate(-30 -48)" onmousedown="handlePan(0,1)">
                  <use xlink:href="#rim" fill="#404040">
                        <set attributeName="fill" to="#808080" begin="arrowDown.mouseover" end="arrowDown.mouseout"/>
                  </use>
                  <path fill="none" stroke="white" stroke-width="1.5" d="M0,-3.0v7 M-2.5,-0.5L0,-3.0L2.5,-0.5"/>
                </g>
                <g id="arrowLeft" xlink:href="#dirArrow" transform="rotate(270) translate(-36 17)" onmousedown="handlePan(-1,0)">
                  <use xlink:href="#rim" fill="#404040">
                        <set attributeName="fill" to="#808080" begin="arrowLeft.mouseover" end="arrowLeft.mouseout"/>
                  </use>
                  <path fill="none" stroke="white" stroke-width="1.5" d="M0,-3.0v7 M-2.5,-0.5L0,-3.0L2.5,-0.5"/>
                </g>
        </g>
        <svg viewBox="0 0 15 15" width="100%" height="30px" preserveAspectRatio="xMaxYMin meet">
         <g id="arrow_out" transform="scale(0.3 0.3)">
          <a xlink:href="classpocketmine_1_1network_1_1mcpe_1_1protocol_1_1_animate_packet__inherit__graph_org.svg" target="_base">
           <rect id="button" ry="5" rx="5" y="6" x="6" height="38" width="38"
                fill="#f2f5e9" fill-opacity="0.5" stroke="#606060" stroke-width="1.0"/>
           <path id="arrow"
             d="M 11.500037,31.436501 C 11.940474,20.09759 22.043105,11.32322 32.158766,21.979434 L 37.068811,17.246167 C 37.068811,17.246167 37.088388,32 37.088388,32 L 22.160133,31.978069 C 22.160133,31.978069 26.997745,27.140456 26.997745,27.140456 C 18.528582,18.264221 13.291696,25.230495 11.500037,31.436501 z"
             style="fill:#404040;"/>
          </a>
         </g>
        </svg>
</svg>
