<?xml version="1.0" encoding="UTF-8" standalone="no"?>
<!DOCTYPE svg PUBLIC "-//W3C//DTD SVG 1.1//EN"
 "http://www.w3.org/Graphics/SVG/1.1/DTD/svg11.dtd">
<!-- Generated by graphviz version 2.43.0 (0)
 -->
<!-- Title: pocketmine\block\inventory\EnderChestInventory Pages: 1 -->
<!--zoomable 1081 -->

<svg id="main" version="1.1" xmlns="http://www.w3.org/2000/svg" xmlns:xlink="http://www.w3.org/1999/xlink" xml:space="preserve" onload="init(evt)">

<style type="text/css"><![CDATA[
.node, .edge {opacity: 0.7;}
.node.selected, .edge.selected {opacity: 1;}
.edge:hover path { stroke: red; }
.edge:hover polygon { stroke: red; fill: red; }
]]></style>

<defs>
  <circle id="rim" cx="0" cy="0" r="7"/>
  <circle id="rim2" cx="0" cy="0" r="3.5"/>
  <g id="zoomPlus">
    <use xlink:href="#rim" fill="#404040"><set attributeName="fill" to="#808080" begin="zoomplus.mouseover" end="zoomplus.mouseout"/></use>
    <path d="M-4,0h8M0,-4v8" fill="none" stroke="white" stroke-width="1.5" pointer-events="none"/>
  </g>
  <g id="zoomMin">
    <use xlink:href="#rim" fill="#404040"><set attributeName="fill" to="#808080" begin="zoomminus.mouseover" end="zoomminus.mouseout"/></use>
    <path d="M-4,0h8" fill="none" stroke="white" stroke-width="1.5" pointer-events="none"/>
  </g>
  <g id="arrowUp" transform="translate(30 24)">
    <use xlink:href="#rim"/>
    <path pointer-events="none" fill="none" stroke="white" stroke-width="1.5" d="M0,-3.0v7 M-2.5,-0.5L0,-3.0L2.5,-0.5"/>
  </g>
  <g id="arrowRight" transform="rotate(90) translate(36 -43)">
    <use xlink:href="#rim"/>
    <path pointer-events="none" fill="none" stroke="white" stroke-width="1.5" d="M0,-3.0v7 M-2.5,-0.5L0,-3.0L2.5,-0.5"/>
  </g>
  <g id="arrowDown" transform="rotate(180) translate(-30 -48)">
    <use xlink:href="#rim"/>
    <path pointer-events="none" fill="none" stroke="white" stroke-width="1.5" d="M0,-3.0v7 M-2.5,-0.5L0,-3.0L2.5,-0.5"/>
  </g>
  <g id="arrowLeft" transform="rotate(270) translate(-36 17)">
    <use xlink:href="#rim"/>
    <path pointer-events="none" fill="none" stroke="white" stroke-width="1.5" d="M0,-3.0v7 M-2.5,-0.5L0,-3.0L2.5,-0.5"/>
  </g>
  <g id="resetDef">
    <use xlink:href="#rim2" fill="#404040"><set attributeName="fill" to="#808080" begin="reset.mouseover" end="reset.mouseout"/></use>
  </g>
</defs>
<script type="application/ecmascript">
var viewWidth = 465;
var viewHeight = 1081;
var sectionId = 'dynsection-1';
</script>
<script type="application/ecmascript" xlink:href="../../svg.min.js"/>
<svg id="graph" class="graph">
<g id="viewport">
<title>pocketmine\block\inventory\EnderChestInventory</title>
<!-- Node1 -->
<g id="Node000001" class="node">
<title>Node1</title>
<g id="a_Node000001"><a xlink:title=" ">
<polygon fill="#999999" stroke="transparent" points="379.5,-150 233.5,-150 233.5,0 379.5,0 379.5,-150"/>
<text text-anchor="start" x="238.5" y="-138" font-family="Helvetica,sans-Serif" font-size="10.00">pocketmine\block\inventory</text>
<text text-anchor="start" x="253.5" y="-127" font-family="Helvetica,sans-Serif" font-size="10.00">\EnderChestInventory</text>
<text text-anchor="start" x="304.5" y="-112" font-family="Helvetica,sans-Serif" font-size="10.00"> </text>
<text text-anchor="start" x="244" y="-97" font-family="Helvetica,sans-Serif" font-size="10.00">+</text>
<text text-anchor="start" x="263.5" y="-97" font-family="Helvetica,sans-Serif" font-size="10.00">__construct()</text>
<text text-anchor="start" x="244" y="-82" font-family="Helvetica,sans-Serif" font-size="10.00">+</text>
<text text-anchor="start" x="263.5" y="-82" font-family="Helvetica,sans-Serif" font-size="10.00">getEnderInventory()</text>
<text text-anchor="start" x="244" y="-67" font-family="Helvetica,sans-Serif" font-size="10.00">+</text>
<text text-anchor="start" x="263.5" y="-67" font-family="Helvetica,sans-Serif" font-size="10.00">getViewerCount()</text>
<text text-anchor="start" x="244" y="-52" font-family="Helvetica,sans-Serif" font-size="10.00">+</text>
<text text-anchor="start" x="263.5" y="-52" font-family="Helvetica,sans-Serif" font-size="10.00">onClose()</text>
<text text-anchor="start" x="244" y="-37" font-family="Helvetica,sans-Serif" font-size="10.00">#</text>
<text text-anchor="start" x="263.5" y="-37" font-family="Helvetica,sans-Serif" font-size="10.00">animateBlock()</text>
<text text-anchor="start" x="244" y="-22" font-family="Helvetica,sans-Serif" font-size="10.00">#</text>
<text text-anchor="start" x="263.5" y="-22" font-family="Helvetica,sans-Serif" font-size="10.00">getCloseSound()</text>
<text text-anchor="start" x="244" y="-7" font-family="Helvetica,sans-Serif" font-size="10.00">#</text>
<text text-anchor="start" x="263.5" y="-7" font-family="Helvetica,sans-Serif" font-size="10.00">getOpenSound()</text>
<polygon fill="#666666" stroke="#666666" points="233.5,-122 233.5,-122 379.5,-122 379.5,-122 233.5,-122"/>
<polygon fill="#666666" stroke="#666666" points="233.5,-107 233.5,-107 379.5,-107 379.5,-107 233.5,-107"/>
<polygon fill="none" stroke="#666666" points="233.5,0 233.5,-150 379.5,-150 379.5,0 233.5,0"/>
</a>
</g>
</g>
<!-- Node2 -->
<g id="Node000002" class="node">
<title>Node2</title>
<g id="a_Node000002"><a xlink:href="../../d2/d0e/classpocketmine_1_1inventory_1_1_delegate_inventory.html" target="_top" xlink:title=" ">
<polygon fill="white" stroke="transparent" points="292.5,-382 166.5,-382 166.5,-187 292.5,-187 292.5,-382"/>
<text text-anchor="start" x="176" y="-369.5" font-family="Helvetica,sans-Serif" font-size="10.00">pocketmine\inventory</text>
<text text-anchor="start" x="182.5" y="-358.5" font-family="Helvetica,sans-Serif" font-size="10.00">\DelegateInventory</text>
<text text-anchor="start" x="227.5" y="-343.5" font-family="Helvetica,sans-Serif" font-size="10.00"> </text>
<text text-anchor="start" x="170.5" y="-328.5" font-family="Helvetica,sans-Serif" font-size="10.00">+</text>
<text text-anchor="start" x="183.5" y="-328.5" font-family="Helvetica,sans-Serif" font-size="10.00">__construct()</text>
<text text-anchor="start" x="170.5" y="-313.5" font-family="Helvetica,sans-Serif" font-size="10.00">+</text>
<text text-anchor="start" x="183.5" y="-313.5" font-family="Helvetica,sans-Serif" font-size="10.00">__destruct()</text>
<text text-anchor="start" x="170.5" y="-298.5" font-family="Helvetica,sans-Serif" font-size="10.00">+</text>
<text text-anchor="start" x="183.5" y="-298.5" font-family="Helvetica,sans-Serif" font-size="10.00">getContents()</text>
<text text-anchor="start" x="170.5" y="-283.5" font-family="Helvetica,sans-Serif" font-size="10.00">+</text>
<text text-anchor="start" x="183.5" y="-283.5" font-family="Helvetica,sans-Serif" font-size="10.00">getItem()</text>
<text text-anchor="start" x="170.5" y="-268.5" font-family="Helvetica,sans-Serif" font-size="10.00">+</text>
<text text-anchor="start" x="183.5" y="-268.5" font-family="Helvetica,sans-Serif" font-size="10.00">getSize()</text>
<text text-anchor="start" x="170.5" y="-253.5" font-family="Helvetica,sans-Serif" font-size="10.00">+</text>
<text text-anchor="start" x="183.5" y="-253.5" font-family="Helvetica,sans-Serif" font-size="10.00">isSlotEmpty()</text>
<text text-anchor="start" x="170.5" y="-238.5" font-family="Helvetica,sans-Serif" font-size="10.00">#</text>
<text text-anchor="start" x="183.5" y="-238.5" font-family="Helvetica,sans-Serif" font-size="10.00">internalSetContents()</text>
<text text-anchor="start" x="170.5" y="-223.5" font-family="Helvetica,sans-Serif" font-size="10.00">#</text>
<text text-anchor="start" x="183.5" y="-223.5" font-family="Helvetica,sans-Serif" font-size="10.00">internalSetItem()</text>
<text text-anchor="start" x="170.5" y="-208.5" font-family="Helvetica,sans-Serif" font-size="10.00">#</text>
<text text-anchor="start" x="183.5" y="-208.5" font-family="Helvetica,sans-Serif" font-size="10.00">onContentChange()</text>
<text text-anchor="start" x="170.5" y="-193.5" font-family="Helvetica,sans-Serif" font-size="10.00">#</text>
<text text-anchor="start" x="183.5" y="-193.5" font-family="Helvetica,sans-Serif" font-size="10.00">onSlotChange()</text>
<polygon fill="#666666" stroke="#666666" points="166.5,-353.5 166.5,-353.5 292.5,-353.5 292.5,-353.5 166.5,-353.5"/>
<polygon fill="#666666" stroke="#666666" points="166.5,-338.5 166.5,-338.5 292.5,-338.5 292.5,-338.5 166.5,-338.5"/>
<polygon fill="none" stroke="#666666" points="166.5,-187 166.5,-382 292.5,-382 292.5,-187 166.5,-187"/>
</a>
</g>
</g>
<!-- Node2&#45;&gt;Node1 -->
<g id="edge1_Node000001_Node000002" class="edge">
<title>Node2&#45;&gt;Node1</title>
<g id="a_edge1_Node000001_Node000002"><a xlink:title=" ">
<path fill="none" stroke="#63b8ff" d="M268.93,-177.24C272.31,-168.13 275.68,-159.04 278.94,-150.26"/>
<polygon fill="none" stroke="#63b8ff" points="265.61,-176.14 265.41,-186.74 272.17,-178.58 265.61,-176.14"/>
</a>
</g>
</g>
<!-- Node3 -->
<g id="Node000003" class="node">
<title>Node3</title>
<g id="a_Node000003"><a xlink:href="../../d5/dc4/classpocketmine_1_1inventory_1_1_base_inventory.html" target="_top" xlink:title=" ">
<polygon fill="white" stroke="transparent" points="304,-719 155,-719 155,-419 304,-419 304,-719"/>
<text text-anchor="start" x="176.5" y="-707" font-family="Helvetica,sans-Serif" font-size="10.00">pocketmine\inventory</text>
<text text-anchor="start" x="193" y="-696" font-family="Helvetica,sans-Serif" font-size="10.00">\BaseInventory</text>
<text text-anchor="start" x="159.5" y="-681" font-family="Helvetica,sans-Serif" font-size="10.00">#</text>
<text text-anchor="start" x="172.5" y="-681" font-family="Helvetica,sans-Serif" font-size="10.00">$maxStackSize</text>
<text text-anchor="start" x="159.5" y="-666" font-family="Helvetica,sans-Serif" font-size="10.00">#</text>
<text text-anchor="start" x="172.5" y="-666" font-family="Helvetica,sans-Serif" font-size="10.00">$viewers</text>
<text text-anchor="start" x="159.5" y="-651" font-family="Helvetica,sans-Serif" font-size="10.00">+</text>
<text text-anchor="start" x="172.5" y="-651" font-family="Helvetica,sans-Serif" font-size="10.00">__construct()</text>
<text text-anchor="start" x="159.5" y="-636" font-family="Helvetica,sans-Serif" font-size="10.00">+</text>
<text text-anchor="start" x="172.5" y="-636" font-family="Helvetica,sans-Serif" font-size="10.00">addItem()</text>
<text text-anchor="start" x="159.5" y="-621" font-family="Helvetica,sans-Serif" font-size="10.00">+</text>
<text text-anchor="start" x="172.5" y="-621" font-family="Helvetica,sans-Serif" font-size="10.00">all()</text>
<text text-anchor="start" x="159.5" y="-606" font-family="Helvetica,sans-Serif" font-size="10.00">+</text>
<text text-anchor="start" x="172.5" y="-606" font-family="Helvetica,sans-Serif" font-size="10.00">canAddItem()</text>
<text text-anchor="start" x="159.5" y="-591" font-family="Helvetica,sans-Serif" font-size="10.00">+</text>
<text text-anchor="start" x="172.5" y="-591" font-family="Helvetica,sans-Serif" font-size="10.00">clear()</text>
<text text-anchor="start" x="159.5" y="-576" font-family="Helvetica,sans-Serif" font-size="10.00">+</text>
<text text-anchor="start" x="172.5" y="-576" font-family="Helvetica,sans-Serif" font-size="10.00">clearAll()</text>
<text text-anchor="start" x="159.5" y="-561" font-family="Helvetica,sans-Serif" font-size="10.00">+</text>
<text text-anchor="start" x="172.5" y="-561" font-family="Helvetica,sans-Serif" font-size="10.00">contains()</text>
<text text-anchor="start" x="159.5" y="-546" font-family="Helvetica,sans-Serif" font-size="10.00">+</text>
<text text-anchor="start" x="172.5" y="-546" font-family="Helvetica,sans-Serif" font-size="10.00">first()</text>
<text text-anchor="start" x="159.5" y="-531" font-family="Helvetica,sans-Serif" font-size="10.00">+</text>
<text text-anchor="start" x="172.5" y="-531" font-family="Helvetica,sans-Serif" font-size="10.00">firstEmpty()</text>
<text text-anchor="start" x="159.5" y="-516" font-family="Helvetica,sans-Serif" font-size="10.00">+</text>
<text text-anchor="start" x="172.5" y="-516" font-family="Helvetica,sans-Serif" font-size="10.00">getAddableItemQuantity()</text>
<text text-anchor="start" x="172.5" y="-501" font-family="Helvetica,sans-Serif" font-size="10.00">and 15 more...</text>
<text text-anchor="start" x="159.5" y="-486" font-family="Helvetica,sans-Serif" font-size="10.00">#</text>
<text text-anchor="start" x="172.5" y="-486" font-family="Helvetica,sans-Serif" font-size="10.00">getMatchingItemCount()</text>
<text text-anchor="start" x="159.5" y="-471" font-family="Helvetica,sans-Serif" font-size="10.00">#</text>
<text text-anchor="start" x="172.5" y="-471" font-family="Helvetica,sans-Serif" font-size="10.00">internalSetContents()</text>
<text text-anchor="start" x="159.5" y="-456" font-family="Helvetica,sans-Serif" font-size="10.00">#</text>
<text text-anchor="start" x="172.5" y="-456" font-family="Helvetica,sans-Serif" font-size="10.00">internalSetItem()</text>
<text text-anchor="start" x="159.5" y="-441" font-family="Helvetica,sans-Serif" font-size="10.00">#</text>
<text text-anchor="start" x="172.5" y="-441" font-family="Helvetica,sans-Serif" font-size="10.00">onContentChange()</text>
<text text-anchor="start" x="159.5" y="-426" font-family="Helvetica,sans-Serif" font-size="10.00">#</text>
<text text-anchor="start" x="172.5" y="-426" font-family="Helvetica,sans-Serif" font-size="10.00">onSlotChange()</text>
<polygon fill="#666666" stroke="#666666" points="155.5,-691 155.5,-691 304.5,-691 304.5,-691 155.5,-691"/>
<polygon fill="#666666" stroke="#666666" points="155.5,-661 155.5,-661 170.5,-661 170.5,-661 155.5,-661"/>
<polygon fill="#666666" stroke="#666666" points="170.5,-661 170.5,-661 304.5,-661 304.5,-661 170.5,-661"/>
<polygon fill="none" stroke="#666666" points="155,-419 155,-719 304,-719 304,-419 155,-419"/>
</a>
</g>
</g>
<!-- Node3&#45;&gt;Node2 -->
<g id="edge2_Node000002_Node000003" class="edge">
<title>Node3&#45;&gt;Node2</title>
<g id="a_edge2_Node000002_Node000003"><a xlink:title=" ">
<path fill="none" stroke="#63b8ff" d="M229.5,-408.69C229.5,-399.68 229.5,-390.78 229.5,-382.12"/>
<polygon fill="none" stroke="#63b8ff" points="226,-408.89 229.5,-418.89 233,-408.89 226,-408.89"/>
</a>
</g>
</g>
<!-- Node4 -->
<g id="Node000004" class="node">
<title>Node4</title>
<g id="a_Node000004"><a xlink:href="../../db/d39/interfacepocketmine_1_1inventory_1_1_inventory.html" target="_top" xlink:title=" ">
<polygon fill="white" stroke="transparent" points="149,-987 0,-987 0,-777 149,-777 149,-987"/>
<text text-anchor="start" x="21.5" y="-975" font-family="Helvetica,sans-Serif" font-size="10.00">pocketmine\inventory</text>
<text text-anchor="start" x="50" y="-964" font-family="Helvetica,sans-Serif" font-size="10.00">\Inventory</text>
<text text-anchor="start" x="4.5" y="-949" font-family="Helvetica,sans-Serif" font-size="10.00">+</text>
<text text-anchor="start" x="17.5" y="-949" font-family="Helvetica,sans-Serif" font-size="10.00">MAX_STACK</text>
<text text-anchor="start" x="4.5" y="-934" font-family="Helvetica,sans-Serif" font-size="10.00">+</text>
<text text-anchor="start" x="17.5" y="-934" font-family="Helvetica,sans-Serif" font-size="10.00">addItem()</text>
<text text-anchor="start" x="4.5" y="-919" font-family="Helvetica,sans-Serif" font-size="10.00">+</text>
<text text-anchor="start" x="17.5" y="-919" font-family="Helvetica,sans-Serif" font-size="10.00">all()</text>
<text text-anchor="start" x="4.5" y="-904" font-family="Helvetica,sans-Serif" font-size="10.00">+</text>
<text text-anchor="start" x="17.5" y="-904" font-family="Helvetica,sans-Serif" font-size="10.00">canAddItem()</text>
<text text-anchor="start" x="4.5" y="-889" font-family="Helvetica,sans-Serif" font-size="10.00">+</text>
<text text-anchor="start" x="17.5" y="-889" font-family="Helvetica,sans-Serif" font-size="10.00">clear()</text>
<text text-anchor="start" x="4.5" y="-874" font-family="Helvetica,sans-Serif" font-size="10.00">+</text>
<text text-anchor="start" x="17.5" y="-874" font-family="Helvetica,sans-Serif" font-size="10.00">clearAll()</text>
<text text-anchor="start" x="4.5" y="-859" font-family="Helvetica,sans-Serif" font-size="10.00">+</text>
<text text-anchor="start" x="17.5" y="-859" font-family="Helvetica,sans-Serif" font-size="10.00">contains()</text>
<text text-anchor="start" x="4.5" y="-844" font-family="Helvetica,sans-Serif" font-size="10.00">+</text>
<text text-anchor="start" x="17.5" y="-844" font-family="Helvetica,sans-Serif" font-size="10.00">first()</text>
<text text-anchor="start" x="4.5" y="-829" font-family="Helvetica,sans-Serif" font-size="10.00">+</text>
<text text-anchor="start" x="17.5" y="-829" font-family="Helvetica,sans-Serif" font-size="10.00">firstEmpty()</text>
<text text-anchor="start" x="4.5" y="-814" font-family="Helvetica,sans-Serif" font-size="10.00">+</text>
<text text-anchor="start" x="17.5" y="-814" font-family="Helvetica,sans-Serif" font-size="10.00">getAddableItemQuantity()</text>
<text text-anchor="start" x="4.5" y="-799" font-family="Helvetica,sans-Serif" font-size="10.00">+</text>
<text text-anchor="start" x="17.5" y="-799" font-family="Helvetica,sans-Serif" font-size="10.00">getContents()</text>
<text text-anchor="start" x="17.5" y="-784" font-family="Helvetica,sans-Serif" font-size="10.00">and 15 more...</text>
<polygon fill="#bfbfbf" stroke="#bfbfbf" points="0.5,-959 0.5,-959 149.5,-959 149.5,-959 0.5,-959"/>
<polygon fill="#bfbfbf" stroke="#bfbfbf" points="0.5,-944 0.5,-944 15.5,-944 15.5,-944 0.5,-944"/>
<polygon fill="#bfbfbf" stroke="#bfbfbf" points="15.5,-944 15.5,-944 149.5,-944 149.5,-944 15.5,-944"/>
<polygon fill="none" stroke="#bfbfbf" points="0,-777 0,-987 149,-987 149,-777 0,-777"/>
</a>
</g>
</g>
<!-- Node4&#45;&gt;Node3 -->
<g id="edge3_Node000003_Node000004" class="edge">
<title>Node4&#45;&gt;Node3</title>
<g id="a_edge3_Node000003_Node000004"><a xlink:title=" ">
<path fill="none" stroke="#63b8ff" d="M131.11,-767.42C138.92,-751.74 147.05,-735.44 155.13,-719.23"/>
<polygon fill="none" stroke="#63b8ff" points="127.87,-766.07 126.54,-776.58 134.14,-769.19 127.87,-766.07"/>
</a>
</g>
</g>
<!-- Node5 -->
<g id="Node000005" class="node">
<title>Node5</title>
<g id="a_Node000005"><a xlink:href="../../dd/d33/interfacepocketmine_1_1inventory_1_1_slot_validated_inventory.html" target="_top" xlink:title=" ">
<polygon fill="white" stroke="transparent" points="292,-912 167,-912 167,-852 292,-852 292,-912"/>
<text text-anchor="start" x="172.5" y="-900" font-family="Helvetica,sans-Serif" font-size="10.00">pocketmine\inventory</text>
<text text-anchor="start" x="172.5" y="-889" font-family="Helvetica,sans-Serif" font-size="10.00">\SlotValidatedInventory</text>
<text text-anchor="start" x="228" y="-874" font-family="Helvetica,sans-Serif" font-size="10.00"> </text>
<text text-anchor="start" x="174.5" y="-859" font-family="Helvetica,sans-Serif" font-size="10.00">+</text>
<text text-anchor="start" x="190.5" y="-859" font-family="Helvetica,sans-Serif" font-size="10.00">getSlotValidators()</text>
<polygon fill="#666666" stroke="#666666" points="167.5,-884 167.5,-884 292.5,-884 292.5,-884 167.5,-884"/>
<polygon fill="#666666" stroke="#666666" points="167.5,-869 167.5,-869 292.5,-869 292.5,-869 167.5,-869"/>
<polygon fill="none" stroke="#666666" points="167,-852 167,-912 292,-912 292,-852 167,-852"/>
</a>
</g>
</g>
<!-- Node5&#45;&gt;Node3 -->
<g id="edge4_Node000003_Node000005" class="edge">
<title>Node5&#45;&gt;Node3</title>
<g id="a_edge4_Node000003_Node000005"><a xlink:title=" ">
<path fill="none" stroke="#63b8ff" d="M229.5,-841.72C229.5,-810.44 229.5,-764.54 229.5,-719.35"/>
<polygon fill="none" stroke="#63b8ff" points="226,-841.74 229.5,-851.74 233,-841.74 226,-841.74"/>
</a>
</g>
</g>
<!-- Node6 -->
<g id="Node000006" class="node">
<title>Node6</title>
<g id="a_Node000006"><a xlink:href="../../dd/de5/classpocketmine_1_1utils_1_1_object_set.html" target="_top" xlink:title=" ">
<polygon fill="white" stroke="transparent" points="452.5,-944 310.5,-944 310.5,-820 452.5,-820 452.5,-944"/>
<text text-anchor="start" x="315.5" y="-932" font-family="Helvetica,sans-Serif" font-size="10.00">pocketmine\utils\ObjectSet</text>
<text text-anchor="start" x="379.5" y="-917" font-family="Helvetica,sans-Serif" font-size="10.00"> </text>
<text text-anchor="start" x="329.5" y="-902" font-family="Helvetica,sans-Serif" font-size="10.00">+</text>
<text text-anchor="start" x="357.5" y="-902" font-family="Helvetica,sans-Serif" font-size="10.00">add()</text>
<text text-anchor="start" x="329.5" y="-887" font-family="Helvetica,sans-Serif" font-size="10.00">+</text>
<text text-anchor="start" x="357.5" y="-887" font-family="Helvetica,sans-Serif" font-size="10.00">clear()</text>
<text text-anchor="start" x="329.5" y="-872" font-family="Helvetica,sans-Serif" font-size="10.00">+</text>
<text text-anchor="start" x="357.5" y="-872" font-family="Helvetica,sans-Serif" font-size="10.00">contains()</text>
<text text-anchor="start" x="329.5" y="-857" font-family="Helvetica,sans-Serif" font-size="10.00">+</text>
<text text-anchor="start" x="357.5" y="-857" font-family="Helvetica,sans-Serif" font-size="10.00">getIterator()</text>
<text text-anchor="start" x="329.5" y="-842" font-family="Helvetica,sans-Serif" font-size="10.00">+</text>
<text text-anchor="start" x="357.5" y="-842" font-family="Helvetica,sans-Serif" font-size="10.00">remove()</text>
<text text-anchor="start" x="329.5" y="-827" font-family="Helvetica,sans-Serif" font-size="10.00">+</text>
<text text-anchor="start" x="357.5" y="-827" font-family="Helvetica,sans-Serif" font-size="10.00">toArray()</text>
<polygon fill="#666666" stroke="#666666" points="310.5,-927 310.5,-927 452.5,-927 452.5,-927 310.5,-927"/>
<polygon fill="#666666" stroke="#666666" points="310.5,-912 310.5,-912 452.5,-912 452.5,-912 310.5,-912"/>
<polygon fill="none" stroke="#666666" points="310.5,-820 310.5,-944 452.5,-944 452.5,-820 310.5,-820"/>
</a>
</g>
</g>
<!-- Node6&#45;&gt;Node3 -->
<g id="edge5_Node000003_Node000006" class="edge">
<title>Node6&#45;&gt;Node3</title>
<g id="a_edge5_Node000003_Node000006"><a xlink:title=" ">
<path fill="none" stroke="#63b8ff" d="M351.65,-819.93C338.91,-793.86 323.39,-762.1 307.74,-730.08"/>
<polygon fill="none" stroke="#63b8ff" points="307.7,-730 301.47,-726.37 302.43,-719.22 308.66,-722.85 307.7,-730"/>
</a>
</g>
<text text-anchor="middle" x="351.5" y="-751" font-family="Helvetica,sans-Serif" font-size="10.00" fill="grey"> #$listeners</text>
<text text-anchor="middle" x="351.5" y="-740" font-family="Helvetica,sans-Serif" font-size="10.00" fill="grey">#$validators</text>
</g>
<!-- Node7 -->
<g id="Node000007" class="node">
<title>Node7</title>
<g id="a_Node000007"><a xlink:title=" ">
<polygon fill="white" stroke="transparent" points="430,-1073 333,-1073 333,-1024 430,-1024 430,-1073"/>
<text text-anchor="start" x="338.5" y="-1060.5" font-family="Helvetica,sans-Serif" font-size="10.00">IteratorAggregate</text>
<text text-anchor="start" x="380" y="-1045.5" font-family="Helvetica,sans-Serif" font-size="10.00"> </text>
<text text-anchor="start" x="380" y="-1030.5" font-family="Helvetica,sans-Serif" font-size="10.00"> </text>
<polygon fill="#bfbfbf" stroke="#bfbfbf" points="333.5,-1055.5 333.5,-1055.5 430.5,-1055.5 430.5,-1055.5 333.5,-1055.5"/>
<polygon fill="#bfbfbf" stroke="#bfbfbf" points="333.5,-1040.5 333.5,-1040.5 430.5,-1040.5 430.5,-1040.5 333.5,-1040.5"/>
<polygon fill="none" stroke="#bfbfbf" points="333,-1024 333,-1073 430,-1073 430,-1024 333,-1024"/>
</a>
</g>
</g>
<!-- Node7&#45;&gt;Node6 -->
<g id="edge6_Node000006_Node000007" class="edge">
<title>Node7&#45;&gt;Node6</title>
<g id="a_edge6_Node000006_Node000007"><a xlink:title=" ">
<path fill="none" stroke="#63b8ff" d="M381.5,-1013.75C381.5,-993.71 381.5,-967.69 381.5,-944.14"/>
<polygon fill="none" stroke="#63b8ff" points="378,-1013.93 381.5,-1023.93 385,-1013.93 378,-1013.93"/>
</a>
</g>
</g>
<!-- Node8 -->
<g id="Node000008" class="node">
<title>Node8</title>
<g id="a_Node000008"><a xlink:href="../../d4/d3a/interfacepocketmine_1_1block_1_1inventory_1_1_block_inventory.html" target="_top" xlink:title=" ">
<polygon fill="white" stroke="transparent" points="456.5,-314.5 310.5,-314.5 310.5,-254.5 456.5,-254.5 456.5,-314.5"/>
<text text-anchor="start" x="315.5" y="-302.5" font-family="Helvetica,sans-Serif" font-size="10.00">pocketmine\block\inventory</text>
<text text-anchor="start" x="345" y="-291.5" font-family="Helvetica,sans-Serif" font-size="10.00">\BlockInventory</text>
<text text-anchor="start" x="381.5" y="-276.5" font-family="Helvetica,sans-Serif" font-size="10.00"> </text>
<text text-anchor="start" x="331.5" y="-261.5" font-family="Helvetica,sans-Serif" font-size="10.00">+</text>
<text text-anchor="start" x="361.5" y="-261.5" font-family="Helvetica,sans-Serif" font-size="10.00">getHolder()</text>
<polygon fill="#bfbfbf" stroke="#bfbfbf" points="310.5,-286.5 310.5,-286.5 456.5,-286.5 456.5,-286.5 310.5,-286.5"/>
<polygon fill="#bfbfbf" stroke="#bfbfbf" points="310.5,-271.5 310.5,-271.5 456.5,-271.5 456.5,-271.5 310.5,-271.5"/>
<polygon fill="none" stroke="#bfbfbf" points="310.5,-254.5 310.5,-314.5 456.5,-314.5 456.5,-254.5 310.5,-254.5"/>
</a>
</g>
</g>
<!-- Node8&#45;&gt;Node1 -->
<g id="edge7_Node000001_Node000008" class="edge">
<title>Node8&#45;&gt;Node1</title>
<g id="a_edge7_Node000001_Node000008"><a xlink:title=" ">
<path fill="none" stroke="#63b8ff" d="M369.04,-244.54C359.21,-218.05 345.89,-182.16 334.07,-150.3"/>
<polygon fill="none" stroke="#63b8ff" points="365.87,-246.05 372.63,-254.21 372.43,-243.62 365.87,-246.05"/>
</a>
</g>
</g>
</g>
</svg>

<g id="navigator" transform="translate(0 0)" fill="#404254">
  <rect fill="#f2f5e9" fill-opacity="0.5" stroke="#606060" stroke-width=".5" x="0" y="0" width="60" height="60"/>
  <use id="zoomplus" xlink:href="#zoomPlus" x="17" y="9" onmousedown="handleZoom(evt,'in')"/>
  <use id="zoomminus" xlink:href="#zoomMin" x="42" y="9" onmousedown="handleZoom(evt,'out')"/>
  <use id="reset" xlink:href="#resetDef" x="30" y="36" onmousedown="handleReset()"/>
   <use id="arrowup" xlink:href="#arrowUp" x="0" y="0" onmousedown="handlePan(0,-1)"/>
  <use id="arrowright" xlink:href="#arrowRight" x="0" y="0" onmousedown="handlePan(1,0)"/>
  <use id="arrowdown" xlink:href="#arrowDown" x="0" y="0" onmousedown="handlePan(0,1)"/>
  <use id="arrowleft" xlink:href="#arrowLeft" x="0" y="0" onmousedown="handlePan(-1,0)"/>
</g>
<svg viewBox="0 0 15 15" width="100%" height="30px" preserveAspectRatio="xMaxYMin meet">
 <g id="arrow_out" transform="scale(0.3 0.3)">
  <a xlink:href="classpocketmine_1_1block_1_1inventory_1_1_ender_chest_inventory__coll__graph_org.svg" target="_base">
   <rect id="button" ry="5" rx="5" y="6" x="6" height="38" width="38"
        fill="#f2f5e9" fill-opacity="0.5" stroke="#606060" stroke-width="1.0"/>
   <path id="arrow"
     d="M 11.500037,31.436501 C 11.940474,20.09759 22.043105,11.32322 32.158766,21.979434 L 37.068811,17.246167 C 37.068811,17.246167 37.088388,32 37.088388,32 L 22.160133,31.978069 C 22.160133,31.978069 26.997745,27.140456 26.997745,27.140456 C 18.528582,18.264221 13.291696,25.230495 11.500037,31.436501 z"
     style="fill:#404040;"/>
  </a>
 </g>
</svg>

<style type='text/css'>
<![CDATA[
[data-mouse-over-selected='false'] { opacity: 0.7; }
[data-mouse-over-selected='true']  { opacity: 1.0; }
]]>
</style>
<script type="application/ecmascript"><![CDATA[
document.addEventListener('DOMContentLoaded', (event) => {
  highlightEdges();
  highlightAdjacentNodes();
});
]]></script>
</svg>
