<?xml version="1.0" encoding="UTF-8" standalone="no"?>
<!DOCTYPE svg PUBLIC "-//W3C//DTD SVG 1.1//EN"
 "http://www.w3.org/Graphics/SVG/1.1/DTD/svg11.dtd">
<!-- Generated by graphviz version 2.43.0 (0)
 -->
<!-- Title: pocketmine\item\Sword Pages: 1 -->
<svg width="352pt" height="1734pt"
 viewBox="0.00 0.00 352.00 1734.00" xmlns="http://www.w3.org/2000/svg" xmlns:xlink="http://www.w3.org/1999/xlink">
<g id="graph0" class="graph" transform="scale(1 1) rotate(0) translate(4 1730)">
<title>pocketmine\item\Sword</title>
<!-- Node1 -->
<g id="Node000001" class="node">
<title>Node1</title>
<g id="a_Node000001"><a xlink:title=" ">
<polygon fill="#999999" stroke="transparent" points="173.5,-139 17.5,-139 17.5,0 173.5,0 173.5,-139"/>
<text text-anchor="start" x="37.5" y="-126.5" font-family="Helvetica,sans-Serif" font-size="10.00">pocketmine\item\Sword</text>
<text text-anchor="start" x="93.5" y="-111.5" font-family="Helvetica,sans-Serif" font-size="10.00"> </text>
<text text-anchor="start" x="21.5" y="-96.5" font-family="Helvetica,sans-Serif" font-size="10.00">+</text>
<text text-anchor="start" x="34.5" y="-96.5" font-family="Helvetica,sans-Serif" font-size="10.00">getAttackPoints()</text>
<text text-anchor="start" x="21.5" y="-81.5" font-family="Helvetica,sans-Serif" font-size="10.00">+</text>
<text text-anchor="start" x="34.5" y="-81.5" font-family="Helvetica,sans-Serif" font-size="10.00">getBlockToolHarvestLevel()</text>
<text text-anchor="start" x="21.5" y="-66.5" font-family="Helvetica,sans-Serif" font-size="10.00">+</text>
<text text-anchor="start" x="34.5" y="-66.5" font-family="Helvetica,sans-Serif" font-size="10.00">getBlockToolType()</text>
<text text-anchor="start" x="21.5" y="-51.5" font-family="Helvetica,sans-Serif" font-size="10.00">+</text>
<text text-anchor="start" x="34.5" y="-51.5" font-family="Helvetica,sans-Serif" font-size="10.00">getMiningEfficiency()</text>
<text text-anchor="start" x="21.5" y="-36.5" font-family="Helvetica,sans-Serif" font-size="10.00">+</text>
<text text-anchor="start" x="34.5" y="-36.5" font-family="Helvetica,sans-Serif" font-size="10.00">onAttackEntity()</text>
<text text-anchor="start" x="21.5" y="-21.5" font-family="Helvetica,sans-Serif" font-size="10.00">+</text>
<text text-anchor="start" x="34.5" y="-21.5" font-family="Helvetica,sans-Serif" font-size="10.00">onDestroyBlock()</text>
<text text-anchor="start" x="21.5" y="-6.5" font-family="Helvetica,sans-Serif" font-size="10.00">#</text>
<text text-anchor="start" x="34.5" y="-6.5" font-family="Helvetica,sans-Serif" font-size="10.00">getBaseMiningEfficiency()</text>
<polygon fill="#666666" stroke="#666666" points="17.5,-121.5 17.5,-121.5 173.5,-121.5 173.5,-121.5 17.5,-121.5"/>
<polygon fill="#666666" stroke="#666666" points="17.5,-106.5 17.5,-106.5 173.5,-106.5 173.5,-106.5 17.5,-106.5"/>
<polygon fill="none" stroke="#666666" points="17.5,0 17.5,-139 173.5,-139 173.5,0 17.5,0"/>
</a>
</g>
</g>
<!-- Node2 -->
<g id="Node000002" class="node">
<title>Node2</title>
<g id="a_Node000002"><a xlink:href="../../de/dee/classpocketmine_1_1item_1_1_tiered_tool.html" target="_top" xlink:title=" ">
<polygon fill="white" stroke="transparent" points="170,-315 21,-315 21,-176 170,-176 170,-315"/>
<text text-anchor="start" x="28" y="-302.5" font-family="Helvetica,sans-Serif" font-size="10.00">pocketmine\item\TieredTool</text>
<text text-anchor="start" x="25.5" y="-287.5" font-family="Helvetica,sans-Serif" font-size="10.00">#</text>
<text text-anchor="start" x="38.5" y="-287.5" font-family="Helvetica,sans-Serif" font-size="10.00">$tier</text>
<text text-anchor="start" x="25.5" y="-272.5" font-family="Helvetica,sans-Serif" font-size="10.00">+</text>
<text text-anchor="start" x="38.5" y="-272.5" font-family="Helvetica,sans-Serif" font-size="10.00">__construct()</text>
<text text-anchor="start" x="25.5" y="-257.5" font-family="Helvetica,sans-Serif" font-size="10.00">+</text>
<text text-anchor="start" x="38.5" y="-257.5" font-family="Helvetica,sans-Serif" font-size="10.00">getEnchantability()</text>
<text text-anchor="start" x="25.5" y="-242.5" font-family="Helvetica,sans-Serif" font-size="10.00">+</text>
<text text-anchor="start" x="38.5" y="-242.5" font-family="Helvetica,sans-Serif" font-size="10.00">getFuelTime()</text>
<text text-anchor="start" x="25.5" y="-227.5" font-family="Helvetica,sans-Serif" font-size="10.00">+</text>
<text text-anchor="start" x="38.5" y="-227.5" font-family="Helvetica,sans-Serif" font-size="10.00">getMaxDurability()</text>
<text text-anchor="start" x="25.5" y="-212.5" font-family="Helvetica,sans-Serif" font-size="10.00">+</text>
<text text-anchor="start" x="38.5" y="-212.5" font-family="Helvetica,sans-Serif" font-size="10.00">getTier()</text>
<text text-anchor="start" x="25.5" y="-197.5" font-family="Helvetica,sans-Serif" font-size="10.00">+</text>
<text text-anchor="start" x="38.5" y="-197.5" font-family="Helvetica,sans-Serif" font-size="10.00">isFireProof()</text>
<text text-anchor="start" x="25.5" y="-182.5" font-family="Helvetica,sans-Serif" font-size="10.00">#</text>
<text text-anchor="start" x="38.5" y="-182.5" font-family="Helvetica,sans-Serif" font-size="10.00">getBaseMiningEfficiency()</text>
<polygon fill="#bfbfbf" stroke="#bfbfbf" points="21.5,-297.5 21.5,-297.5 170.5,-297.5 170.5,-297.5 21.5,-297.5"/>
<polygon fill="#bfbfbf" stroke="#bfbfbf" points="21.5,-282.5 21.5,-282.5 36.5,-282.5 36.5,-282.5 21.5,-282.5"/>
<polygon fill="#bfbfbf" stroke="#bfbfbf" points="36.5,-282.5 36.5,-282.5 170.5,-282.5 170.5,-282.5 36.5,-282.5"/>
<polygon fill="none" stroke="#bfbfbf" points="21,-176 21,-315 170,-315 170,-176 21,-176"/>
</a>
</g>
</g>
<!-- Node2&#45;&gt;Node1 -->
<g id="edge1_Node000001_Node000002" class="edge">
<title>Node2&#45;&gt;Node1</title>
<g id="a_edge1_Node000001_Node000002"><a xlink:title=" ">
<path fill="none" stroke="#63b8ff" d="M95.5,-165.46C95.5,-156.64 95.5,-147.72 95.5,-139.05"/>
<polygon fill="none" stroke="#63b8ff" points="92,-165.73 95.5,-175.73 99,-165.73 92,-165.73"/>
</a>
</g>
</g>
<!-- Node3 -->
<g id="Node000003" class="node">
<title>Node3</title>
<g id="a_Node000003"><a xlink:href="../../da/de7/classpocketmine_1_1item_1_1_tool.html" target="_top" xlink:title=" ">
<polygon fill="white" stroke="transparent" points="170,-431 21,-431 21,-352 170,-352 170,-431"/>
<text text-anchor="start" x="43" y="-418.5" font-family="Helvetica,sans-Serif" font-size="10.00">pocketmine\item\Tool</text>
<text text-anchor="start" x="94" y="-403.5" font-family="Helvetica,sans-Serif" font-size="10.00"> </text>
<text text-anchor="start" x="25.5" y="-388.5" font-family="Helvetica,sans-Serif" font-size="10.00">+</text>
<text text-anchor="start" x="38.5" y="-388.5" font-family="Helvetica,sans-Serif" font-size="10.00">getMaxStackSize()</text>
<text text-anchor="start" x="25.5" y="-373.5" font-family="Helvetica,sans-Serif" font-size="10.00">+</text>
<text text-anchor="start" x="38.5" y="-373.5" font-family="Helvetica,sans-Serif" font-size="10.00">getMiningEfficiency()</text>
<text text-anchor="start" x="25.5" y="-358.5" font-family="Helvetica,sans-Serif" font-size="10.00">#</text>
<text text-anchor="start" x="38.5" y="-358.5" font-family="Helvetica,sans-Serif" font-size="10.00">getBaseMiningEfficiency()</text>
<polygon fill="#bfbfbf" stroke="#bfbfbf" points="21.5,-413.5 21.5,-413.5 170.5,-413.5 170.5,-413.5 21.5,-413.5"/>
<polygon fill="#bfbfbf" stroke="#bfbfbf" points="21.5,-398.5 21.5,-398.5 170.5,-398.5 170.5,-398.5 21.5,-398.5"/>
<polygon fill="none" stroke="#bfbfbf" points="21,-352 21,-431 170,-431 170,-352 21,-352"/>
</a>
</g>
</g>
<!-- Node3&#45;&gt;Node2 -->
<g id="edge2_Node000002_Node000003" class="edge">
<title>Node3&#45;&gt;Node2</title>
<g id="a_edge2_Node000002_Node000003"><a xlink:title=" ">
<path fill="none" stroke="#63b8ff" d="M95.5,-341.77C95.5,-333.22 95.5,-324.19 95.5,-315.22"/>
<polygon fill="none" stroke="#63b8ff" points="92,-341.91 95.5,-351.91 99,-341.91 92,-341.91"/>
</a>
</g>
</g>
<!-- Node4 -->
<g id="Node000004" class="node">
<title>Node4</title>
<g id="a_Node000004"><a xlink:href="../../dc/d20/classpocketmine_1_1item_1_1_durable.html" target="_top" xlink:title=" ">
<polygon fill="white" stroke="transparent" points="191,-667 0,-667 0,-468 191,-468 191,-667"/>
<text text-anchor="start" x="34" y="-654.5" font-family="Helvetica,sans-Serif" font-size="10.00">pocketmine\item\Durable</text>
<text text-anchor="start" x="4.5" y="-639.5" font-family="Helvetica,sans-Serif" font-size="10.00">#</text>
<text text-anchor="start" x="17.5" y="-639.5" font-family="Helvetica,sans-Serif" font-size="10.00">$damage</text>
<text text-anchor="start" x="4.5" y="-624.5" font-family="Helvetica,sans-Serif" font-size="10.00">+</text>
<text text-anchor="start" x="17.5" y="-624.5" font-family="Helvetica,sans-Serif" font-size="10.00">applyDamage()</text>
<text text-anchor="start" x="4.5" y="-609.5" font-family="Helvetica,sans-Serif" font-size="10.00">+</text>
<text text-anchor="start" x="17.5" y="-609.5" font-family="Helvetica,sans-Serif" font-size="10.00">getDamage()</text>
<text text-anchor="start" x="4.5" y="-594.5" font-family="Helvetica,sans-Serif" font-size="10.00">+</text>
<text text-anchor="start" x="17.5" y="-594.5" font-family="Helvetica,sans-Serif" font-size="10.00">getMaxDurability()</text>
<text text-anchor="start" x="4.5" y="-579.5" font-family="Helvetica,sans-Serif" font-size="10.00">+</text>
<text text-anchor="start" x="17.5" y="-579.5" font-family="Helvetica,sans-Serif" font-size="10.00">isBroken()</text>
<text text-anchor="start" x="4.5" y="-564.5" font-family="Helvetica,sans-Serif" font-size="10.00">+</text>
<text text-anchor="start" x="17.5" y="-564.5" font-family="Helvetica,sans-Serif" font-size="10.00">isUnbreakable()</text>
<text text-anchor="start" x="4.5" y="-549.5" font-family="Helvetica,sans-Serif" font-size="10.00">+</text>
<text text-anchor="start" x="17.5" y="-549.5" font-family="Helvetica,sans-Serif" font-size="10.00">setDamage()</text>
<text text-anchor="start" x="4.5" y="-534.5" font-family="Helvetica,sans-Serif" font-size="10.00">+</text>
<text text-anchor="start" x="17.5" y="-534.5" font-family="Helvetica,sans-Serif" font-size="10.00">setUnbreakable()</text>
<text text-anchor="start" x="4.5" y="-519.5" font-family="Helvetica,sans-Serif" font-size="10.00">#</text>
<text text-anchor="start" x="17.5" y="-519.5" font-family="Helvetica,sans-Serif" font-size="10.00">deserializeCompoundTag()</text>
<text text-anchor="start" x="4.5" y="-504.5" font-family="Helvetica,sans-Serif" font-size="10.00">#</text>
<text text-anchor="start" x="17.5" y="-504.5" font-family="Helvetica,sans-Serif" font-size="10.00">getUnbreakingDamageReduction()</text>
<text text-anchor="start" x="4.5" y="-489.5" font-family="Helvetica,sans-Serif" font-size="10.00">#</text>
<text text-anchor="start" x="17.5" y="-489.5" font-family="Helvetica,sans-Serif" font-size="10.00">onBroken()</text>
<text text-anchor="start" x="4.5" y="-474.5" font-family="Helvetica,sans-Serif" font-size="10.00">#</text>
<text text-anchor="start" x="17.5" y="-474.5" font-family="Helvetica,sans-Serif" font-size="10.00">serializeCompoundTag()</text>
<polygon fill="#bfbfbf" stroke="#bfbfbf" points="0.5,-649.5 0.5,-649.5 191.5,-649.5 191.5,-649.5 0.5,-649.5"/>
<polygon fill="#bfbfbf" stroke="#bfbfbf" points="0.5,-634.5 0.5,-634.5 15.5,-634.5 15.5,-634.5 0.5,-634.5"/>
<polygon fill="#bfbfbf" stroke="#bfbfbf" points="15.5,-634.5 15.5,-634.5 191.5,-634.5 191.5,-634.5 15.5,-634.5"/>
<polygon fill="none" stroke="#bfbfbf" points="0,-468 0,-667 191,-667 191,-468 0,-468"/>
</a>
</g>
</g>
<!-- Node4&#45;&gt;Node3 -->
<g id="edge3_Node000003_Node000004" class="edge">
<title>Node4&#45;&gt;Node3</title>
<g id="a_edge3_Node000003_Node000004"><a xlink:title=" ">
<path fill="none" stroke="#63b8ff" d="M95.5,-457.63C95.5,-448.37 95.5,-439.45 95.5,-431.35"/>
<polygon fill="none" stroke="#63b8ff" points="92,-457.81 95.5,-467.81 99,-457.81 92,-457.81"/>
</a>
</g>
</g>
<!-- Node5 -->
<g id="Node000005" class="node">
<title>Node5</title>
<g id="a_Node000005"><a xlink:href="../../d5/d8a/classpocketmine_1_1item_1_1_item.html" target="_top" xlink:title=" ">
<polygon fill="white" stroke="transparent" points="171,-1158 20,-1158 20,-704 171,-704 171,-1158"/>
<text text-anchor="start" x="41.5" y="-1146" font-family="Helvetica,sans-Serif" font-size="10.00">pocketmine\item\Item</text>
<text text-anchor="start" x="24.5" y="-1131" font-family="Helvetica,sans-Serif" font-size="10.00">+</text>
<text text-anchor="start" x="37.5" y="-1131" font-family="Helvetica,sans-Serif" font-size="10.00">TAG_BLOCK_ENTITY_TAG</text>
<text text-anchor="start" x="24.5" y="-1116" font-family="Helvetica,sans-Serif" font-size="10.00">+</text>
<text text-anchor="start" x="37.5" y="-1116" font-family="Helvetica,sans-Serif" font-size="10.00">TAG_DISPLAY</text>
<text text-anchor="start" x="24.5" y="-1101" font-family="Helvetica,sans-Serif" font-size="10.00">+</text>
<text text-anchor="start" x="37.5" y="-1101" font-family="Helvetica,sans-Serif" font-size="10.00">TAG_DISPLAY_LORE</text>
<text text-anchor="start" x="24.5" y="-1086" font-family="Helvetica,sans-Serif" font-size="10.00">+</text>
<text text-anchor="start" x="37.5" y="-1086" font-family="Helvetica,sans-Serif" font-size="10.00">TAG_DISPLAY_NAME</text>
<text text-anchor="start" x="24.5" y="-1071" font-family="Helvetica,sans-Serif" font-size="10.00">+</text>
<text text-anchor="start" x="37.5" y="-1071" font-family="Helvetica,sans-Serif" font-size="10.00">TAG_ENCH</text>
<text text-anchor="start" x="24.5" y="-1056" font-family="Helvetica,sans-Serif" font-size="10.00">+</text>
<text text-anchor="start" x="37.5" y="-1056" font-family="Helvetica,sans-Serif" font-size="10.00">TAG_KEEP_ON_DEATH</text>
<text text-anchor="start" x="24.5" y="-1041" font-family="Helvetica,sans-Serif" font-size="10.00">#</text>
<text text-anchor="start" x="37.5" y="-1041" font-family="Helvetica,sans-Serif" font-size="10.00">$canDestroy</text>
<text text-anchor="start" x="24.5" y="-1026" font-family="Helvetica,sans-Serif" font-size="10.00">#</text>
<text text-anchor="start" x="37.5" y="-1026" font-family="Helvetica,sans-Serif" font-size="10.00">$canPlaceOn</text>
<text text-anchor="start" x="24.5" y="-1011" font-family="Helvetica,sans-Serif" font-size="10.00">#</text>
<text text-anchor="start" x="37.5" y="-1011" font-family="Helvetica,sans-Serif" font-size="10.00">$count</text>
<text text-anchor="start" x="24.5" y="-996" font-family="Helvetica,sans-Serif" font-size="10.00">#</text>
<text text-anchor="start" x="37.5" y="-996" font-family="Helvetica,sans-Serif" font-size="10.00">$customName</text>
<text text-anchor="start" x="24.5" y="-981" font-family="Helvetica,sans-Serif" font-size="10.00">#</text>
<text text-anchor="start" x="37.5" y="-981" font-family="Helvetica,sans-Serif" font-size="10.00">$keepOnDeath</text>
<text text-anchor="start" x="24.5" y="-966" font-family="Helvetica,sans-Serif" font-size="10.00">#</text>
<text text-anchor="start" x="37.5" y="-966" font-family="Helvetica,sans-Serif" font-size="10.00">$lore</text>
<text text-anchor="start" x="24.5" y="-951" font-family="Helvetica,sans-Serif" font-size="10.00">+</text>
<text text-anchor="start" x="37.5" y="-951" font-family="Helvetica,sans-Serif" font-size="10.00">__construct()</text>
<text text-anchor="start" x="24.5" y="-936" font-family="Helvetica,sans-Serif" font-size="10.00">+</text>
<text text-anchor="start" x="37.5" y="-936" font-family="Helvetica,sans-Serif" font-size="10.00">__clone()</text>
<text text-anchor="start" x="24.5" y="-921" font-family="Helvetica,sans-Serif" font-size="10.00">+</text>
<text text-anchor="start" x="37.5" y="-921" font-family="Helvetica,sans-Serif" font-size="10.00">__toString()</text>
<text text-anchor="start" x="24.5" y="-906" font-family="Helvetica,sans-Serif" font-size="10.00">+</text>
<text text-anchor="start" x="37.5" y="-906" font-family="Helvetica,sans-Serif" font-size="10.00">canBePlaced()</text>
<text text-anchor="start" x="24.5" y="-891" font-family="Helvetica,sans-Serif" font-size="10.00">+</text>
<text text-anchor="start" x="37.5" y="-891" font-family="Helvetica,sans-Serif" font-size="10.00">canStackWith()</text>
<text text-anchor="start" x="24.5" y="-876" font-family="Helvetica,sans-Serif" font-size="10.00">+</text>
<text text-anchor="start" x="37.5" y="-876" font-family="Helvetica,sans-Serif" font-size="10.00">clearCustomBlockData()</text>
<text text-anchor="start" x="24.5" y="-861" font-family="Helvetica,sans-Serif" font-size="10.00">+</text>
<text text-anchor="start" x="37.5" y="-861" font-family="Helvetica,sans-Serif" font-size="10.00">clearCustomName()</text>
<text text-anchor="start" x="24.5" y="-846" font-family="Helvetica,sans-Serif" font-size="10.00">+</text>
<text text-anchor="start" x="37.5" y="-846" font-family="Helvetica,sans-Serif" font-size="10.00">clearNamedTag()</text>
<text text-anchor="start" x="24.5" y="-831" font-family="Helvetica,sans-Serif" font-size="10.00">+</text>
<text text-anchor="start" x="37.5" y="-831" font-family="Helvetica,sans-Serif" font-size="10.00">equals()</text>
<text text-anchor="start" x="24.5" y="-816" font-family="Helvetica,sans-Serif" font-size="10.00">+</text>
<text text-anchor="start" x="37.5" y="-816" font-family="Helvetica,sans-Serif" font-size="10.00">equalsExact()</text>
<text text-anchor="start" x="37.5" y="-801" font-family="Helvetica,sans-Serif" font-size="10.00">and 49 more...</text>
<text text-anchor="start" x="24.5" y="-786" font-family="Helvetica,sans-Serif" font-size="10.00">+</text>
<text text-anchor="start" x="37.5" y="-786" font-family="Helvetica,sans-Serif" font-size="10.00">legacyJsonDeserialize()</text>
<text text-anchor="start" x="24.5" y="-771" font-family="Helvetica,sans-Serif" font-size="10.00">+</text>
<text text-anchor="start" x="37.5" y="-771" font-family="Helvetica,sans-Serif" font-size="10.00">nbtDeserialize()</text>
<text text-anchor="start" x="24.5" y="-756" font-family="Helvetica,sans-Serif" font-size="10.00">#</text>
<text text-anchor="start" x="37.5" y="-756" font-family="Helvetica,sans-Serif" font-size="10.00">describeState()</text>
<text text-anchor="start" x="24.5" y="-741" font-family="Helvetica,sans-Serif" font-size="10.00">#</text>
<text text-anchor="start" x="37.5" y="-741" font-family="Helvetica,sans-Serif" font-size="10.00">deserializeCompoundTag()</text>
<text text-anchor="start" x="24.5" y="-726" font-family="Helvetica,sans-Serif" font-size="10.00">#</text>
<text text-anchor="start" x="37.5" y="-726" font-family="Helvetica,sans-Serif" font-size="10.00">serializeCompoundTag()</text>
<text text-anchor="start" x="24.5" y="-711" font-family="Helvetica,sans-Serif" font-size="10.00">#</text>
<text text-anchor="start" x="37.5" y="-711" font-family="Helvetica,sans-Serif" font-size="10.00">tryPlacementTransaction()</text>
<polygon fill="#bfbfbf" stroke="#bfbfbf" points="20.5,-1141 20.5,-1141 171.5,-1141 171.5,-1141 20.5,-1141"/>
<polygon fill="#bfbfbf" stroke="#bfbfbf" points="20.5,-961 20.5,-961 35.5,-961 35.5,-961 20.5,-961"/>
<polygon fill="#bfbfbf" stroke="#bfbfbf" points="35.5,-961 35.5,-961 171.5,-961 171.5,-961 35.5,-961"/>
<polygon fill="none" stroke="#bfbfbf" points="20,-704 20,-1158 171,-1158 171,-704 20,-704"/>
</a>
</g>
</g>
<!-- Node5&#45;&gt;Node4 -->
<g id="edge4_Node000004_Node000005" class="edge">
<title>Node5&#45;&gt;Node4</title>
<g id="a_edge4_Node000004_Node000005"><a xlink:title=" ">
<path fill="none" stroke="#63b8ff" d="M95.5,-693.85C95.5,-684.67 95.5,-675.71 95.5,-667.06"/>
<polygon fill="none" stroke="#63b8ff" points="92,-693.88 95.5,-703.88 99,-693.88 92,-693.88"/>
</a>
</g>
</g>
<!-- Node6 -->
<g id="Node000006" class="node">
<title>Node6</title>
<g id="a_Node000006"><a xlink:title=" ">
<polygon fill="white" stroke="transparent" points="123.5,-1372 35.5,-1372 35.5,-1323 123.5,-1323 123.5,-1372"/>
<text text-anchor="start" x="40.5" y="-1359.5" font-family="Helvetica,sans-Serif" font-size="10.00">JsonSerializable</text>
<text text-anchor="start" x="77.5" y="-1344.5" font-family="Helvetica,sans-Serif" font-size="10.00"> </text>
<text text-anchor="start" x="77.5" y="-1329.5" font-family="Helvetica,sans-Serif" font-size="10.00"> </text>
<polygon fill="#bfbfbf" stroke="#bfbfbf" points="35.5,-1354.5 35.5,-1354.5 123.5,-1354.5 123.5,-1354.5 35.5,-1354.5"/>
<polygon fill="#bfbfbf" stroke="#bfbfbf" points="35.5,-1339.5 35.5,-1339.5 123.5,-1339.5 123.5,-1339.5 35.5,-1339.5"/>
<polygon fill="none" stroke="#bfbfbf" points="35.5,-1323 35.5,-1372 123.5,-1372 123.5,-1323 35.5,-1323"/>
</a>
</g>
</g>
<!-- Node6&#45;&gt;Node5 -->
<g id="edge5_Node000005_Node000006" class="edge">
<title>Node6&#45;&gt;Node5</title>
<g id="a_edge5_Node000005_Node000006"><a xlink:title=" ">
<path fill="none" stroke="#63b8ff" d="M80.81,-1312.54C82.17,-1277.23 84.43,-1218.73 86.77,-1158.07"/>
<polygon fill="none" stroke="#63b8ff" points="77.31,-1312.6 80.42,-1322.73 84.3,-1312.87 77.31,-1312.6"/>
</a>
</g>
</g>
<!-- Node7 -->
<g id="Node000007" class="node">
<title>Node7</title>
<g id="a_Node000007"><a xlink:href="../../de/d67/classpocketmine_1_1nbt_1_1tag_1_1_compound_tag.html" target="_top" xlink:title=" ">
<polygon fill="white" stroke="transparent" points="255.5,-1490 141.5,-1490 141.5,-1205 255.5,-1205 255.5,-1490"/>
<text text-anchor="start" x="151" y="-1477.5" font-family="Helvetica,sans-Serif" font-size="10.00">pocketmine\nbt\tag</text>
<text text-anchor="start" x="162" y="-1466.5" font-family="Helvetica,sans-Serif" font-size="10.00">\CompoundTag</text>
<text text-anchor="start" x="196.5" y="-1451.5" font-family="Helvetica,sans-Serif" font-size="10.00"> </text>
<text text-anchor="start" x="145.5" y="-1436.5" font-family="Helvetica,sans-Serif" font-size="10.00">+</text>
<text text-anchor="start" x="158.5" y="-1436.5" font-family="Helvetica,sans-Serif" font-size="10.00">__construct()</text>
<text text-anchor="start" x="145.5" y="-1421.5" font-family="Helvetica,sans-Serif" font-size="10.00">+</text>
<text text-anchor="start" x="158.5" y="-1421.5" font-family="Helvetica,sans-Serif" font-size="10.00">__clone()</text>
<text text-anchor="start" x="145.5" y="-1406.5" font-family="Helvetica,sans-Serif" font-size="10.00">+</text>
<text text-anchor="start" x="158.5" y="-1406.5" font-family="Helvetica,sans-Serif" font-size="10.00">count()</text>
<text text-anchor="start" x="145.5" y="-1391.5" font-family="Helvetica,sans-Serif" font-size="10.00">+</text>
<text text-anchor="start" x="158.5" y="-1391.5" font-family="Helvetica,sans-Serif" font-size="10.00">equals()</text>
<text text-anchor="start" x="145.5" y="-1376.5" font-family="Helvetica,sans-Serif" font-size="10.00">+</text>
<text text-anchor="start" x="158.5" y="-1376.5" font-family="Helvetica,sans-Serif" font-size="10.00">getByte()</text>
<text text-anchor="start" x="145.5" y="-1361.5" font-family="Helvetica,sans-Serif" font-size="10.00">+</text>
<text text-anchor="start" x="158.5" y="-1361.5" font-family="Helvetica,sans-Serif" font-size="10.00">getByteArray()</text>
<text text-anchor="start" x="145.5" y="-1346.5" font-family="Helvetica,sans-Serif" font-size="10.00">+</text>
<text text-anchor="start" x="158.5" y="-1346.5" font-family="Helvetica,sans-Serif" font-size="10.00">getCompoundTag()</text>
<text text-anchor="start" x="145.5" y="-1331.5" font-family="Helvetica,sans-Serif" font-size="10.00">+</text>
<text text-anchor="start" x="158.5" y="-1331.5" font-family="Helvetica,sans-Serif" font-size="10.00">getCount()</text>
<text text-anchor="start" x="145.5" y="-1316.5" font-family="Helvetica,sans-Serif" font-size="10.00">+</text>
<text text-anchor="start" x="158.5" y="-1316.5" font-family="Helvetica,sans-Serif" font-size="10.00">getDouble()</text>
<text text-anchor="start" x="145.5" y="-1301.5" font-family="Helvetica,sans-Serif" font-size="10.00">+</text>
<text text-anchor="start" x="158.5" y="-1301.5" font-family="Helvetica,sans-Serif" font-size="10.00">getFloat()</text>
<text text-anchor="start" x="158.5" y="-1286.5" font-family="Helvetica,sans-Serif" font-size="10.00">and 23 more...</text>
<text text-anchor="start" x="145.5" y="-1271.5" font-family="Helvetica,sans-Serif" font-size="10.00">+</text>
<text text-anchor="start" x="158.5" y="-1271.5" font-family="Helvetica,sans-Serif" font-size="10.00">create()</text>
<text text-anchor="start" x="145.5" y="-1256.5" font-family="Helvetica,sans-Serif" font-size="10.00">+</text>
<text text-anchor="start" x="158.5" y="-1256.5" font-family="Helvetica,sans-Serif" font-size="10.00">read()</text>
<text text-anchor="start" x="145.5" y="-1241.5" font-family="Helvetica,sans-Serif" font-size="10.00">#</text>
<text text-anchor="start" x="158.5" y="-1241.5" font-family="Helvetica,sans-Serif" font-size="10.00">getTypeName()</text>
<text text-anchor="start" x="145.5" y="-1226.5" font-family="Helvetica,sans-Serif" font-size="10.00">#</text>
<text text-anchor="start" x="158.5" y="-1226.5" font-family="Helvetica,sans-Serif" font-size="10.00">makeCopy()</text>
<text text-anchor="start" x="145.5" y="-1211.5" font-family="Helvetica,sans-Serif" font-size="10.00">#</text>
<text text-anchor="start" x="158.5" y="-1211.5" font-family="Helvetica,sans-Serif" font-size="10.00">stringifyValue()</text>
<polygon fill="#666666" stroke="#666666" points="141.5,-1461.5 141.5,-1461.5 255.5,-1461.5 255.5,-1461.5 141.5,-1461.5"/>
<polygon fill="#666666" stroke="#666666" points="141.5,-1446.5 141.5,-1446.5 255.5,-1446.5 255.5,-1446.5 141.5,-1446.5"/>
<polygon fill="none" stroke="#666666" points="141.5,-1205 141.5,-1490 255.5,-1490 255.5,-1205 141.5,-1205"/>
</a>
</g>
</g>
<!-- Node7&#45;&gt;Node5 -->
<g id="edge6_Node000005_Node000007" class="edge">
<title>Node7&#45;&gt;Node5</title>
<g id="a_edge6_Node000005_Node000007"><a xlink:title=" ">
<path fill="none" stroke="#63b8ff" d="M163.27,-1204.72C160.45,-1193.38 157.56,-1181.75 154.64,-1169.98"/>
<polygon fill="none" stroke="#63b8ff" points="154.6,-1169.82 149.27,-1164.96 151.7,-1158.17 157.03,-1163.03 154.6,-1169.82"/>
</a>
</g>
<text text-anchor="middle" x="201" y="-1179" font-family="Helvetica,sans-Serif" font-size="10.00" fill="grey"> #$blockEntityTag</text>
</g>
<!-- Node8 -->
<g id="Node000008" class="node">
<title>Node8</title>
<g id="a_Node000008"><a xlink:href="../../dc/d26/classpocketmine_1_1nbt_1_1tag_1_1_tag.html" target="_top" xlink:title=" ">
<polygon fill="white" stroke="transparent" points="150,-1726 25,-1726 25,-1527 150,-1527 150,-1726"/>
<text text-anchor="start" x="30.5" y="-1713.5" font-family="Helvetica,sans-Serif" font-size="10.00">pocketmine\nbt\tag\Tag</text>
<text text-anchor="start" x="33.5" y="-1698.5" font-family="Helvetica,sans-Serif" font-size="10.00">#</text>
<text text-anchor="start" x="50.5" y="-1698.5" font-family="Helvetica,sans-Serif" font-size="10.00">$cloning</text>
<text text-anchor="start" x="33.5" y="-1683.5" font-family="Helvetica,sans-Serif" font-size="10.00">+</text>
<text text-anchor="start" x="50.5" y="-1683.5" font-family="Helvetica,sans-Serif" font-size="10.00">__toString()</text>
<text text-anchor="start" x="33.5" y="-1668.5" font-family="Helvetica,sans-Serif" font-size="10.00">+</text>
<text text-anchor="start" x="50.5" y="-1668.5" font-family="Helvetica,sans-Serif" font-size="10.00">equals()</text>
<text text-anchor="start" x="33.5" y="-1653.5" font-family="Helvetica,sans-Serif" font-size="10.00">+</text>
<text text-anchor="start" x="50.5" y="-1653.5" font-family="Helvetica,sans-Serif" font-size="10.00">getType()</text>
<text text-anchor="start" x="33.5" y="-1638.5" font-family="Helvetica,sans-Serif" font-size="10.00">+</text>
<text text-anchor="start" x="50.5" y="-1638.5" font-family="Helvetica,sans-Serif" font-size="10.00">getValue()</text>
<text text-anchor="start" x="33.5" y="-1623.5" font-family="Helvetica,sans-Serif" font-size="10.00">+</text>
<text text-anchor="start" x="50.5" y="-1623.5" font-family="Helvetica,sans-Serif" font-size="10.00">safeClone()</text>
<text text-anchor="start" x="33.5" y="-1608.5" font-family="Helvetica,sans-Serif" font-size="10.00">+</text>
<text text-anchor="start" x="50.5" y="-1608.5" font-family="Helvetica,sans-Serif" font-size="10.00">toString()</text>
<text text-anchor="start" x="33.5" y="-1593.5" font-family="Helvetica,sans-Serif" font-size="10.00">+</text>
<text text-anchor="start" x="50.5" y="-1593.5" font-family="Helvetica,sans-Serif" font-size="10.00">write()</text>
<text text-anchor="start" x="33.5" y="-1578.5" font-family="Helvetica,sans-Serif" font-size="10.00">#</text>
<text text-anchor="start" x="50.5" y="-1578.5" font-family="Helvetica,sans-Serif" font-size="10.00">getTypeName()</text>
<text text-anchor="start" x="33.5" y="-1563.5" font-family="Helvetica,sans-Serif" font-size="10.00">#</text>
<text text-anchor="start" x="50.5" y="-1563.5" font-family="Helvetica,sans-Serif" font-size="10.00">makeCopy()</text>
<text text-anchor="start" x="33.5" y="-1548.5" font-family="Helvetica,sans-Serif" font-size="10.00">#</text>
<text text-anchor="start" x="50.5" y="-1548.5" font-family="Helvetica,sans-Serif" font-size="10.00">stringifyValue()</text>
<text text-anchor="start" x="33.5" y="-1533.5" font-family="Helvetica,sans-Serif" font-size="10.00">#</text>
<text text-anchor="start" x="50.5" y="-1533.5" font-family="Helvetica,sans-Serif" font-size="10.00">restrictArgCount()</text>
<polygon fill="#bfbfbf" stroke="#bfbfbf" points="25.5,-1708.5 25.5,-1708.5 150.5,-1708.5 150.5,-1708.5 25.5,-1708.5"/>
<polygon fill="#bfbfbf" stroke="#bfbfbf" points="25.5,-1693.5 25.5,-1693.5 48.5,-1693.5 48.5,-1693.5 25.5,-1693.5"/>
<polygon fill="#bfbfbf" stroke="#bfbfbf" points="48.5,-1693.5 48.5,-1693.5 150.5,-1693.5 150.5,-1693.5 48.5,-1693.5"/>
<polygon fill="none" stroke="#bfbfbf" points="25,-1527 25,-1726 150,-1726 150,-1527 25,-1527"/>
</a>
</g>
</g>
<!-- Node8&#45;&gt;Node7 -->
<g id="edge7_Node000007_Node000008" class="edge">
<title>Node8&#45;&gt;Node7</title>
<g id="a_edge7_Node000007_Node000008"><a xlink:title=" ">
<path fill="none" stroke="#63b8ff" d="M130.91,-1517.18C134.44,-1508.36 138.04,-1499.38 141.65,-1490.37"/>
<polygon fill="none" stroke="#63b8ff" points="127.57,-1516.09 127.1,-1526.67 134.07,-1518.69 127.57,-1516.09"/>
</a>
</g>
</g>
<!-- Node9 -->
<g id="Node000009" class="node">
<title>Node9</title>
<g id="a_Node000009"><a xlink:title=" ">
<polygon fill="white" stroke="transparent" points="228.5,-1651 168.5,-1651 168.5,-1602 228.5,-1602 228.5,-1651"/>
<text text-anchor="start" x="173.5" y="-1638.5" font-family="Helvetica,sans-Serif" font-size="10.00">Countable</text>
<text text-anchor="start" x="196.5" y="-1623.5" font-family="Helvetica,sans-Serif" font-size="10.00"> </text>
<text text-anchor="start" x="196.5" y="-1608.5" font-family="Helvetica,sans-Serif" font-size="10.00"> </text>
<polygon fill="#bfbfbf" stroke="#bfbfbf" points="168.5,-1633.5 168.5,-1633.5 228.5,-1633.5 228.5,-1633.5 168.5,-1633.5"/>
<polygon fill="#bfbfbf" stroke="#bfbfbf" points="168.5,-1618.5 168.5,-1618.5 228.5,-1618.5 228.5,-1618.5 168.5,-1618.5"/>
<polygon fill="none" stroke="#bfbfbf" points="168.5,-1602 168.5,-1651 228.5,-1651 228.5,-1602 168.5,-1602"/>
</a>
</g>
</g>
<!-- Node9&#45;&gt;Node7 -->
<g id="edge8_Node000007_Node000009" class="edge">
<title>Node9&#45;&gt;Node7</title>
<g id="a_edge8_Node000007_Node000009"><a xlink:title=" ">
<path fill="none" stroke="#63b8ff" d="M198.5,-1591.88C198.5,-1565.99 198.5,-1528.3 198.5,-1490.28"/>
<polygon fill="none" stroke="#63b8ff" points="195,-1591.88 198.5,-1601.88 202,-1591.88 195,-1591.88"/>
</a>
</g>
</g>
<!-- Node10 -->
<g id="Node000010" class="node">
<title>Node10</title>
<g id="a_Node000010"><a xlink:title=" ">
<polygon fill="white" stroke="transparent" points="344,-1651 247,-1651 247,-1602 344,-1602 344,-1651"/>
<text text-anchor="start" x="252.5" y="-1638.5" font-family="Helvetica,sans-Serif" font-size="10.00">IteratorAggregate</text>
<text text-anchor="start" x="294" y="-1623.5" font-family="Helvetica,sans-Serif" font-size="10.00"> </text>
<text text-anchor="start" x="294" y="-1608.5" font-family="Helvetica,sans-Serif" font-size="10.00"> </text>
<polygon fill="#bfbfbf" stroke="#bfbfbf" points="247.5,-1633.5 247.5,-1633.5 344.5,-1633.5 344.5,-1633.5 247.5,-1633.5"/>
<polygon fill="#bfbfbf" stroke="#bfbfbf" points="247.5,-1618.5 247.5,-1618.5 344.5,-1618.5 344.5,-1618.5 247.5,-1618.5"/>
<polygon fill="none" stroke="#bfbfbf" points="247,-1602 247,-1651 344,-1651 344,-1602 247,-1602"/>
</a>
</g>
</g>
<!-- Node10&#45;&gt;Node7 -->
<g id="edge9_Node000007_Node000010" class="edge">
<title>Node10&#45;&gt;Node7</title>
<g id="a_edge9_Node000007_Node000010"><a xlink:title=" ">
<path fill="none" stroke="#63b8ff" d="M283.85,-1592.23C274.78,-1566.33 261.52,-1528.47 248.15,-1490.28"/>
<polygon fill="none" stroke="#63b8ff" points="280.62,-1593.6 287.23,-1601.88 287.23,-1591.29 280.62,-1593.6"/>
</a>
</g>
</g>
</g>
</svg>
