<?xml version="1.0" encoding="UTF-8" standalone="no"?>
<!DOCTYPE svg PUBLIC "-//W3C//DTD SVG 1.1//EN"
 "http://www.w3.org/Graphics/SVG/1.1/DTD/svg11.dtd">
<!-- Generated by graphviz version 2.43.0 (0)
 -->
<!-- Title: pocketmine\event\ListenerMethodTags Pages: 1 -->
<svg width="196pt" height="204pt"
 viewBox="0.00 0.00 196.00 204.00" xmlns="http://www.w3.org/2000/svg" xmlns:xlink="http://www.w3.org/1999/xlink">
<g id="graph0" class="graph" transform="scale(1 1) rotate(0) translate(4 200)">
<title>pocketmine\event\ListenerMethodTags</title>
<polygon fill="white" stroke="transparent" points="-4,4 -4,-200 192,-200 192,4 -4,4"/>
<!-- Node1 -->
<g id="node1" class="node">
<title>Node1</title>
<g id="a_node1"><a xlink:title=" ">
<polygon fill="#bfbfbf" stroke="black" points="0,-0.5 0,-68.5 146,-68.5 146,-0.5 0,-0.5"/>
<text text-anchor="start" x="8" y="-56.5" font-family="Helvetica,sans-Serif" font-size="10.00">pocketmine\event\Listener</text>
<text text-anchor="middle" x="73" y="-45.5" font-family="Helvetica,sans-Serif" font-size="10.00">MethodTags</text>
<polyline fill="none" stroke="black" points="0,-38.5 146,-38.5 "/>
<text text-anchor="middle" x="73" y="-26.5" font-family="Helvetica,sans-Serif" font-size="10.00"> </text>
<polyline fill="none" stroke="black" points="0,-19.5 146,-19.5 "/>
<text text-anchor="middle" x="73" y="-7.5" font-family="Helvetica,sans-Serif" font-size="10.00"> </text>
</a>
</g>
</g>
<!-- Node2 -->
<g id="node2" class="node">
<title>Node2</title>
<g id="a_node2"><a xlink:title=" ">
<polygon fill="white" stroke="#bfbfbf" points="51.5,-138.5 51.5,-195.5 94.5,-195.5 94.5,-138.5 51.5,-138.5"/>
<text text-anchor="middle" x="73" y="-183.5" font-family="Helvetica,sans-Serif" font-size="10.00">const</text>
<polyline fill="none" stroke="#bfbfbf" points="51.5,-176.5 94.5,-176.5 "/>
<text text-anchor="middle" x="73" y="-164.5" font-family="Helvetica,sans-Serif" font-size="10.00"> </text>
<polyline fill="none" stroke="#bfbfbf" points="51.5,-157.5 94.5,-157.5 "/>
<text text-anchor="middle" x="73" y="-145.5" font-family="Helvetica,sans-Serif" font-size="10.00"> </text>
</a>
</g>
</g>
<!-- Node2&#45;&gt;Node1 -->
<g id="edge1" class="edge">
<title>Node2&#45;&gt;Node1</title>
<path fill="none" stroke="#404040" d="M73,-138.32C73,-121.63 73,-99.96 73,-80.82"/>
<polygon fill="none" stroke="#404040" points="73,-80.68 69,-74.68 73,-68.68 77,-74.68 73,-80.68"/>
<text text-anchor="middle" x="130.5" y="-112" font-family="Helvetica,sans-Serif" font-size="10.00"> +HANDLE_CANCELLED</text>
<text text-anchor="middle" x="130.5" y="-101" font-family="Helvetica,sans-Serif" font-size="10.00">+NOT_HANDLER</text>
<text text-anchor="middle" x="130.5" y="-90" font-family="Helvetica,sans-Serif" font-size="10.00">+PRIORITY</text>
</g>
</g>
</svg>
