<?xml version="1.0" encoding="UTF-8" standalone="no"?>
<!DOCTYPE svg PUBLIC "-//W3C//DTD SVG 1.1//EN"
 "http://www.w3.org/Graphics/SVG/1.1/DTD/svg11.dtd">
<!-- Generated by graphviz version 2.43.0 (0)
 -->
<!-- Title: pocketmine\network\mcpe\protocol\LevelSoundEventPacket Pages: 1 -->
<svg width="771pt" height="639pt"
 viewBox="0.00 0.00 771.00 639.00" xmlns="http://www.w3.org/2000/svg" xmlns:xlink="http://www.w3.org/1999/xlink">
<g id="graph0" class="graph" transform="scale(1 1) rotate(0) translate(4 635)">
<title>pocketmine\network\mcpe\protocol\LevelSoundEventPacket</title>
<polygon fill="white" stroke="transparent" points="-4,4 -4,-635 767,-635 767,4 -4,4"/>
<!-- Node1 -->
<g id="node1" class="node">
<title>Node1</title>
<g id="a_node1"><a xlink:title=" ">
<polygon fill="#bfbfbf" stroke="black" points="327,-0.5 327,-167.5 503,-167.5 503,-0.5 327,-0.5"/>
<text text-anchor="start" x="335" y="-155.5" font-family="Helvetica,sans-Serif" font-size="10.00">pocketmine\network</text>
<text text-anchor="start" x="335" y="-144.5" font-family="Helvetica,sans-Serif" font-size="10.00">\mcpe\protocol\LevelSoundEvent</text>
<text text-anchor="middle" x="415" y="-133.5" font-family="Helvetica,sans-Serif" font-size="10.00">Packet</text>
<polyline fill="none" stroke="black" points="327,-126.5 503,-126.5 "/>
<text text-anchor="start" x="335" y="-114.5" font-family="Helvetica,sans-Serif" font-size="10.00">+ $disableRelativeVolume</text>
<text text-anchor="start" x="335" y="-103.5" font-family="Helvetica,sans-Serif" font-size="10.00">+ $entityType</text>
<text text-anchor="start" x="335" y="-92.5" font-family="Helvetica,sans-Serif" font-size="10.00">+ $extraData</text>
<text text-anchor="start" x="335" y="-81.5" font-family="Helvetica,sans-Serif" font-size="10.00">+ $isBabyMob</text>
<text text-anchor="start" x="335" y="-70.5" font-family="Helvetica,sans-Serif" font-size="10.00">+ $sound</text>
<polyline fill="none" stroke="black" points="327,-63.5 503,-63.5 "/>
<text text-anchor="start" x="335" y="-51.5" font-family="Helvetica,sans-Serif" font-size="10.00">+ handle()</text>
<text text-anchor="start" x="335" y="-40.5" font-family="Helvetica,sans-Serif" font-size="10.00">+ create()</text>
<text text-anchor="start" x="335" y="-29.5" font-family="Helvetica,sans-Serif" font-size="10.00">+ nonActorSound()</text>
<text text-anchor="start" x="335" y="-18.5" font-family="Helvetica,sans-Serif" font-size="10.00"># decodePayload()</text>
<text text-anchor="start" x="335" y="-7.5" font-family="Helvetica,sans-Serif" font-size="10.00"># encodePayload()</text>
</a>
</g>
</g>
<!-- Node2 -->
<g id="node2" class="node">
<title>Node2</title>
<g id="a_node2"><a xlink:href="../../d1/ddb/classpocketmine_1_1network_1_1mcpe_1_1protocol_1_1_data_packet.html" target="_top" xlink:title=" ">
<polygon fill="white" stroke="#bfbfbf" points="341.5,-237.5 341.5,-426.5 488.5,-426.5 488.5,-237.5 341.5,-237.5"/>
<text text-anchor="start" x="349.5" y="-414.5" font-family="Helvetica,sans-Serif" font-size="10.00">pocketmine\network</text>
<text text-anchor="middle" x="415" y="-403.5" font-family="Helvetica,sans-Serif" font-size="10.00">\mcpe\protocol\DataPacket</text>
<polyline fill="none" stroke="#bfbfbf" points="341.5,-396.5 488.5,-396.5 "/>
<text text-anchor="start" x="349.5" y="-384.5" font-family="Helvetica,sans-Serif" font-size="10.00">+ $recipientSubId</text>
<text text-anchor="start" x="349.5" y="-373.5" font-family="Helvetica,sans-Serif" font-size="10.00">+ $senderSubId</text>
<polyline fill="none" stroke="#bfbfbf" points="341.5,-366.5 488.5,-366.5 "/>
<text text-anchor="start" x="349.5" y="-354.5" font-family="Helvetica,sans-Serif" font-size="10.00">+ __get()</text>
<text text-anchor="start" x="349.5" y="-343.5" font-family="Helvetica,sans-Serif" font-size="10.00">+ __set()</text>
<text text-anchor="start" x="349.5" y="-332.5" font-family="Helvetica,sans-Serif" font-size="10.00">+ canBeSentBeforeLogin()</text>
<text text-anchor="start" x="349.5" y="-321.5" font-family="Helvetica,sans-Serif" font-size="10.00">+ decode()</text>
<text text-anchor="start" x="349.5" y="-310.5" font-family="Helvetica,sans-Serif" font-size="10.00">+ encode()</text>
<text text-anchor="start" x="349.5" y="-299.5" font-family="Helvetica,sans-Serif" font-size="10.00">+ getName()</text>
<text text-anchor="start" x="349.5" y="-288.5" font-family="Helvetica,sans-Serif" font-size="10.00">+ pid()</text>
<text text-anchor="start" x="349.5" y="-277.5" font-family="Helvetica,sans-Serif" font-size="10.00"># decodeHeader()</text>
<text text-anchor="start" x="349.5" y="-266.5" font-family="Helvetica,sans-Serif" font-size="10.00"># decodePayload()</text>
<text text-anchor="start" x="349.5" y="-255.5" font-family="Helvetica,sans-Serif" font-size="10.00"># encodeHeader()</text>
<text text-anchor="start" x="349.5" y="-244.5" font-family="Helvetica,sans-Serif" font-size="10.00"># encodePayload()</text>
</a>
</g>
</g>
<!-- Node2&#45;&gt;Node1 -->
<g id="edge1" class="edge">
<title>Node2&#45;&gt;Node1</title>
<path fill="none" stroke="midnightblue" d="M415,-227.27C415,-207.34 415,-186.72 415,-167.58"/>
<polygon fill="none" stroke="midnightblue" points="411.5,-227.3 415,-237.3 418.5,-227.3 411.5,-227.3"/>
</g>
<!-- Node3 -->
<g id="node3" class="node">
<title>Node3</title>
<g id="a_node3"><a xlink:href="../../d4/d5d/interfacepocketmine_1_1network_1_1mcpe_1_1protocol_1_1_packet.html" target="_top" xlink:title=" ">
<polygon fill="white" stroke="#bfbfbf" points="175,-507.5 175,-630.5 321,-630.5 321,-507.5 175,-507.5"/>
<text text-anchor="start" x="183" y="-618.5" font-family="Helvetica,sans-Serif" font-size="10.00">pocketmine\network</text>
<text text-anchor="middle" x="248" y="-607.5" font-family="Helvetica,sans-Serif" font-size="10.00">\mcpe\protocol\Packet</text>
<polyline fill="none" stroke="#bfbfbf" points="175,-600.5 321,-600.5 "/>
<text text-anchor="middle" x="248" y="-588.5" font-family="Helvetica,sans-Serif" font-size="10.00"> </text>
<polyline fill="none" stroke="#bfbfbf" points="175,-581.5 321,-581.5 "/>
<text text-anchor="start" x="183" y="-569.5" font-family="Helvetica,sans-Serif" font-size="10.00">+ canBeSentBeforeLogin()</text>
<text text-anchor="start" x="183" y="-558.5" font-family="Helvetica,sans-Serif" font-size="10.00">+ decode()</text>
<text text-anchor="start" x="183" y="-547.5" font-family="Helvetica,sans-Serif" font-size="10.00">+ encode()</text>
<text text-anchor="start" x="183" y="-536.5" font-family="Helvetica,sans-Serif" font-size="10.00">+ getName()</text>
<text text-anchor="start" x="183" y="-525.5" font-family="Helvetica,sans-Serif" font-size="10.00">+ handle()</text>
<text text-anchor="start" x="183" y="-514.5" font-family="Helvetica,sans-Serif" font-size="10.00">+ pid()</text>
</a>
</g>
</g>
<!-- Node3&#45;&gt;Node2 -->
<g id="edge2" class="edge">
<title>Node3&#45;&gt;Node2</title>
<path fill="none" stroke="midnightblue" d="M296.85,-499.26C312.99,-476.54 331.24,-450.87 348.47,-426.62"/>
<polygon fill="none" stroke="midnightblue" points="293.95,-497.3 291.01,-507.48 299.65,-501.36 293.95,-497.3"/>
</g>
<!-- Node5 -->
<g id="node5" class="node">
<title>Node5</title>
<g id="a_node5"><a xlink:href="../../da/d77/interfacepocketmine_1_1network_1_1mcpe_1_1protocol_1_1_clientbound_packet.html" target="_top" xlink:title=" ">
<polygon fill="white" stroke="#bfbfbf" points="172.5,-292.5 172.5,-371.5 323.5,-371.5 323.5,-292.5 172.5,-292.5"/>
<text text-anchor="start" x="180.5" y="-359.5" font-family="Helvetica,sans-Serif" font-size="10.00">pocketmine\network</text>
<text text-anchor="start" x="180.5" y="-348.5" font-family="Helvetica,sans-Serif" font-size="10.00">\mcpe\protocol\Clientbound</text>
<text text-anchor="middle" x="248" y="-337.5" font-family="Helvetica,sans-Serif" font-size="10.00">Packet</text>
<polyline fill="none" stroke="#bfbfbf" points="172.5,-330.5 323.5,-330.5 "/>
<text text-anchor="middle" x="248" y="-318.5" font-family="Helvetica,sans-Serif" font-size="10.00"> </text>
<polyline fill="none" stroke="#bfbfbf" points="172.5,-311.5 323.5,-311.5 "/>
<text text-anchor="middle" x="248" y="-299.5" font-family="Helvetica,sans-Serif" font-size="10.00"> </text>
</a>
</g>
</g>
<!-- Node3&#45;&gt;Node5 -->
<g id="edge5" class="edge">
<title>Node3&#45;&gt;Node5</title>
<path fill="none" stroke="midnightblue" d="M248,-497.47C248,-456.2 248,-405.66 248,-371.59"/>
<polygon fill="none" stroke="midnightblue" points="244.5,-497.48 248,-507.48 251.5,-497.48 244.5,-497.48"/>
</g>
<!-- Node6 -->
<g id="node6" class="node">
<title>Node6</title>
<g id="a_node6"><a xlink:href="../../dd/de6/interfacepocketmine_1_1network_1_1mcpe_1_1protocol_1_1_serverbound_packet.html" target="_top" xlink:title=" ">
<polygon fill="white" stroke="#bfbfbf" points="0,-292.5 0,-371.5 154,-371.5 154,-292.5 0,-292.5"/>
<text text-anchor="start" x="8" y="-359.5" font-family="Helvetica,sans-Serif" font-size="10.00">pocketmine\network</text>
<text text-anchor="start" x="8" y="-348.5" font-family="Helvetica,sans-Serif" font-size="10.00">\mcpe\protocol\Serverbound</text>
<text text-anchor="middle" x="77" y="-337.5" font-family="Helvetica,sans-Serif" font-size="10.00">Packet</text>
<polyline fill="none" stroke="#bfbfbf" points="0,-330.5 154,-330.5 "/>
<text text-anchor="middle" x="77" y="-318.5" font-family="Helvetica,sans-Serif" font-size="10.00"> </text>
<polyline fill="none" stroke="#bfbfbf" points="0,-311.5 154,-311.5 "/>
<text text-anchor="middle" x="77" y="-299.5" font-family="Helvetica,sans-Serif" font-size="10.00"> </text>
</a>
</g>
</g>
<!-- Node3&#45;&gt;Node6 -->
<g id="edge7" class="edge">
<title>Node3&#45;&gt;Node6</title>
<path fill="none" stroke="midnightblue" d="M198.01,-499.3C167.74,-457.7 130.24,-406.17 105.08,-371.59"/>
<polygon fill="none" stroke="midnightblue" points="195.25,-501.46 203.96,-507.48 200.91,-497.34 195.25,-501.46"/>
</g>
<!-- Node4 -->
<g id="node4" class="node">
<title>Node4</title>
<g id="a_node4"><a xlink:title=" ">
<polygon fill="white" stroke="#bfbfbf" points="456.5,-540.5 456.5,-597.5 499.5,-597.5 499.5,-540.5 456.5,-540.5"/>
<text text-anchor="middle" x="478" y="-585.5" font-family="Helvetica,sans-Serif" font-size="10.00">const</text>
<polyline fill="none" stroke="#bfbfbf" points="456.5,-578.5 499.5,-578.5 "/>
<text text-anchor="middle" x="478" y="-566.5" font-family="Helvetica,sans-Serif" font-size="10.00"> </text>
<polyline fill="none" stroke="#bfbfbf" points="456.5,-559.5 499.5,-559.5 "/>
<text text-anchor="middle" x="478" y="-547.5" font-family="Helvetica,sans-Serif" font-size="10.00"> </text>
</a>
</g>
</g>
<!-- Node4&#45;&gt;Node1 -->
<g id="edge8" class="edge">
<title>Node4&#45;&gt;Node1</title>
<path fill="none" stroke="#404040" d="M492.73,-540.34C499.77,-525.56 507.44,-506.78 511,-489 514.59,-471.09 533.39,-328.94 497,-215 493.05,-202.64 487.65,-190.29 481.48,-178.39"/>
<polygon fill="none" stroke="#404040" points="481.35,-178.14 474.97,-174.77 475.62,-167.59 482,-170.96 481.35,-178.14"/>
<text text-anchor="middle" x="559" y="-329.5" font-family="Helvetica,sans-Serif" font-size="10.00"> +NETWORK_ID</text>
</g>
<!-- Node4&#45;&gt;Node2 -->
<g id="edge3" class="edge">
<title>Node4&#45;&gt;Node2</title>
<path fill="none" stroke="#404040" d="M458.61,-540.41C449.32,-525.79 438.94,-507.15 433,-489 427.81,-473.15 424.08,-455.98 421.4,-439.01"/>
<polygon fill="none" stroke="#404040" points="421.33,-438.59 416.52,-433.22 419.62,-426.71 424.44,-432.08 421.33,-438.59"/>
<text text-anchor="middle" x="472" y="-481" font-family="Helvetica,sans-Serif" font-size="10.00"> +NETWORK_ID</text>
<text text-anchor="middle" x="472" y="-470" font-family="Helvetica,sans-Serif" font-size="10.00">+PID_MASK</text>
</g>
<!-- Node5&#45;&gt;Node1 -->
<g id="edge4" class="edge">
<title>Node5&#45;&gt;Node1</title>
<path fill="none" stroke="midnightblue" d="M280.06,-283.77C302.38,-250.9 332.72,-206.2 358.99,-167.51"/>
<polygon fill="none" stroke="midnightblue" points="277,-282.05 274.28,-292.29 282.79,-285.98 277,-282.05"/>
</g>
<!-- Node6&#45;&gt;Node1 -->
<g id="edge6" class="edge">
<title>Node6&#45;&gt;Node1</title>
<path fill="none" stroke="midnightblue" d="M104.73,-283.9C119.85,-261.06 140.14,-234.44 163,-215 211.57,-173.71 275.49,-140.93 326.79,-118.61"/>
<polygon fill="none" stroke="midnightblue" points="101.69,-282.15 99.19,-292.44 107.57,-285.96 101.69,-282.15"/>
</g>
<!-- Node7 -->
<g id="node7" class="node">
<title>Node7</title>
<g id="a_node7"><a xlink:href="../../d2/d90/classpocketmine_1_1math_1_1_vector3.html" target="_top" xlink:title=" ">
<polygon fill="white" stroke="#bfbfbf" points="621,-215.5 621,-448.5 763,-448.5 763,-215.5 621,-215.5"/>
<text text-anchor="middle" x="692" y="-436.5" font-family="Helvetica,sans-Serif" font-size="10.00">pocketmine\math\Vector3</text>
<polyline fill="none" stroke="#bfbfbf" points="621,-429.5 763,-429.5 "/>
<text text-anchor="start" x="629" y="-417.5" font-family="Helvetica,sans-Serif" font-size="10.00">+ $x</text>
<text text-anchor="start" x="629" y="-406.5" font-family="Helvetica,sans-Serif" font-size="10.00">+ $y</text>
<text text-anchor="start" x="629" y="-395.5" font-family="Helvetica,sans-Serif" font-size="10.00">+ $z</text>
<polyline fill="none" stroke="#bfbfbf" points="621,-388.5 763,-388.5 "/>
<text text-anchor="start" x="629" y="-376.5" font-family="Helvetica,sans-Serif" font-size="10.00">+ __construct()</text>
<text text-anchor="start" x="629" y="-365.5" font-family="Helvetica,sans-Serif" font-size="10.00">+ __toString()</text>
<text text-anchor="start" x="629" y="-354.5" font-family="Helvetica,sans-Serif" font-size="10.00">+ abs()</text>
<text text-anchor="start" x="629" y="-343.5" font-family="Helvetica,sans-Serif" font-size="10.00">+ add()</text>
<text text-anchor="start" x="629" y="-332.5" font-family="Helvetica,sans-Serif" font-size="10.00">+ addVector()</text>
<text text-anchor="start" x="629" y="-321.5" font-family="Helvetica,sans-Serif" font-size="10.00">+ asVector3()</text>
<text text-anchor="start" x="629" y="-310.5" font-family="Helvetica,sans-Serif" font-size="10.00">+ ceil()</text>
<text text-anchor="start" x="629" y="-299.5" font-family="Helvetica,sans-Serif" font-size="10.00">+ cross()</text>
<text text-anchor="start" x="629" y="-288.5" font-family="Helvetica,sans-Serif" font-size="10.00">+ distance()</text>
<text text-anchor="start" x="629" y="-277.5" font-family="Helvetica,sans-Serif" font-size="10.00">+ distanceSquared()</text>
<text text-anchor="start" x="629" y="-266.5" font-family="Helvetica,sans-Serif" font-size="10.00">and 32 more...</text>
<text text-anchor="start" x="629" y="-255.5" font-family="Helvetica,sans-Serif" font-size="10.00">+ maxComponents()</text>
<text text-anchor="start" x="629" y="-244.5" font-family="Helvetica,sans-Serif" font-size="10.00">+ minComponents()</text>
<text text-anchor="start" x="629" y="-233.5" font-family="Helvetica,sans-Serif" font-size="10.00">+ sum()</text>
<text text-anchor="start" x="629" y="-222.5" font-family="Helvetica,sans-Serif" font-size="10.00">+ zero()</text>
</a>
</g>
</g>
<!-- Node7&#45;&gt;Node1 -->
<g id="edge9" class="edge">
<title>Node7&#45;&gt;Node1</title>
<path fill="none" stroke="#404040" d="M620.77,-229.25C616.28,-224.29 611.67,-219.5 607,-215 579.14,-188.16 545.14,-163.15 513.54,-142.38"/>
<polygon fill="none" stroke="#404040" points="513.44,-142.32 506.23,-142.41 503.37,-135.79 510.58,-135.7 513.44,-142.32"/>
<text text-anchor="middle" x="611.5" y="-189" font-family="Helvetica,sans-Serif" font-size="10.00"> +$position</text>
</g>
</g>
</svg>
