<?xml version="1.0" encoding="UTF-8" standalone="no"?>
<!DOCTYPE svg PUBLIC "-//W3C//DTD SVG 1.1//EN"
 "http://www.w3.org/Graphics/SVG/1.1/DTD/svg11.dtd">
<!-- Generated by graphviz version 2.43.0 (0)
 -->
<!-- Title: pocketmine\block\utils\Lightable Pages: 1 -->
<svg width="1411pt" height="523pt"
 viewBox="0.00 0.00 1411.00 523.00" xmlns="http://www.w3.org/2000/svg" xmlns:xlink="http://www.w3.org/1999/xlink">
<g id="graph0" class="graph" transform="scale(1 1) rotate(0) translate(4 519)">
<title>pocketmine\block\utils\Lightable</title>
<!-- Node1 -->
<g id="Node000001" class="node">
<title>Node1</title>
<g id="a_Node000001"><a xlink:title=" ">
<polygon fill="#999999" stroke="transparent" points="768.5,-515 647.5,-515 647.5,-440 768.5,-440 768.5,-515"/>
<text text-anchor="start" x="653" y="-502.5" font-family="Helvetica,sans-Serif" font-size="10.00">pocketmine\block\utils</text>
<text text-anchor="start" x="684" y="-491.5" font-family="Helvetica,sans-Serif" font-size="10.00">\Lightable</text>
<text text-anchor="start" x="706.5" y="-476.5" font-family="Helvetica,sans-Serif" font-size="10.00"> </text>
<text text-anchor="start" x="668" y="-461.5" font-family="Helvetica,sans-Serif" font-size="10.00">+</text>
<text text-anchor="start" x="697" y="-461.5" font-family="Helvetica,sans-Serif" font-size="10.00">isLit()</text>
<text text-anchor="start" x="668" y="-446.5" font-family="Helvetica,sans-Serif" font-size="10.00">+</text>
<text text-anchor="start" x="697" y="-446.5" font-family="Helvetica,sans-Serif" font-size="10.00">setLit()</text>
<polygon fill="#666666" stroke="#666666" points="648,-486.5 648,-486.5 769,-486.5 769,-486.5 648,-486.5"/>
<polygon fill="#666666" stroke="#666666" points="648,-471.5 648,-471.5 769,-471.5 769,-471.5 648,-471.5"/>
<polygon fill="none" stroke="#666666" points="647.5,-440 647.5,-515 768.5,-515 768.5,-440 647.5,-440"/>
</a>
</g>
</g>
<!-- Node2 -->
<g id="Node000002" class="node">
<title>Node2</title>
<g id="a_Node000002"><a xlink:href="../../da/d60/classpocketmine_1_1block_1_1_cake_with_candle.html" target="_top" xlink:title=" ">
<polygon fill="white" stroke="transparent" points="164,-342 0,-342 0,-192 164,-192 164,-342"/>
<text text-anchor="start" x="14" y="-330" font-family="Helvetica,sans-Serif" font-size="10.00">pocketmine\block\CakeWith</text>
<text text-anchor="start" x="65" y="-319" font-family="Helvetica,sans-Serif" font-size="10.00">Candle</text>
<text text-anchor="start" x="80" y="-304" font-family="Helvetica,sans-Serif" font-size="10.00"> </text>
<text text-anchor="start" x="4" y="-289" font-family="Helvetica,sans-Serif" font-size="10.00">+</text>
<text text-anchor="start" x="17" y="-289" font-family="Helvetica,sans-Serif" font-size="10.00">getCandle()</text>
<text text-anchor="start" x="4" y="-274" font-family="Helvetica,sans-Serif" font-size="10.00">+</text>
<text text-anchor="start" x="17" y="-274" font-family="Helvetica,sans-Serif" font-size="10.00">getDropsForCompatibleTool()</text>
<text text-anchor="start" x="4" y="-259" font-family="Helvetica,sans-Serif" font-size="10.00">+</text>
<text text-anchor="start" x="17" y="-259" font-family="Helvetica,sans-Serif" font-size="10.00">getPickedItem()</text>
<text text-anchor="start" x="4" y="-244" font-family="Helvetica,sans-Serif" font-size="10.00">+</text>
<text text-anchor="start" x="17" y="-244" font-family="Helvetica,sans-Serif" font-size="10.00">getResidue()</text>
<text text-anchor="start" x="4" y="-229" font-family="Helvetica,sans-Serif" font-size="10.00">+</text>
<text text-anchor="start" x="17" y="-229" font-family="Helvetica,sans-Serif" font-size="10.00">onConsume()</text>
<text text-anchor="start" x="4" y="-214" font-family="Helvetica,sans-Serif" font-size="10.00">+</text>
<text text-anchor="start" x="17" y="-214" font-family="Helvetica,sans-Serif" font-size="10.00">onInteract()</text>
<text text-anchor="start" x="4" y="-199" font-family="Helvetica,sans-Serif" font-size="10.00">#</text>
<text text-anchor="start" x="17" y="-199" font-family="Helvetica,sans-Serif" font-size="10.00">recalculateCollisionBoxes()</text>
<polygon fill="#bfbfbf" stroke="#bfbfbf" points="0,-314 0,-314 164,-314 164,-314 0,-314"/>
<polygon fill="#bfbfbf" stroke="#bfbfbf" points="0,-299 0,-299 164,-299 164,-299 0,-299"/>
<polygon fill="none" stroke="#bfbfbf" points="0,-192 0,-342 164,-342 164,-192 0,-192"/>
</a>
</g>
</g>
<!-- Node1&#45;&gt;Node2 -->
<g id="edge1_Node000001_Node000002" class="edge">
<title>Node1&#45;&gt;Node2</title>
<g id="a_edge1_Node000001_Node000002"><a xlink:title=" ">
<path fill="none" stroke="#63b8ff" d="M637.37,-474.04C510.24,-468.48 249.07,-451.47 173,-404 149.26,-389.19 130.32,-365.64 115.99,-342.27"/>
<polygon fill="none" stroke="#63b8ff" points="637.25,-477.54 647.39,-474.47 637.55,-470.55 637.25,-477.54"/>
</a>
</g>
</g>
<!-- Node4 -->
<g id="Node000004" class="node">
<title>Node4</title>
<g id="a_Node000004"><a xlink:href="../../d7/d9a/classpocketmine_1_1block_1_1_campfire.html" target="_top" xlink:title=" ">
<polygon fill="white" stroke="transparent" points="346,-404 182,-404 182,-130 346,-130 346,-404"/>
<text text-anchor="start" x="197" y="-392" font-family="Helvetica,sans-Serif" font-size="10.00">pocketmine\block\Campfire</text>
<text text-anchor="start" x="186" y="-377" font-family="Helvetica,sans-Serif" font-size="10.00">#</text>
<text text-anchor="start" x="199" y="-377" font-family="Helvetica,sans-Serif" font-size="10.00">$cookingTimes</text>
<text text-anchor="start" x="186" y="-362" font-family="Helvetica,sans-Serif" font-size="10.00">#</text>
<text text-anchor="start" x="199" y="-362" font-family="Helvetica,sans-Serif" font-size="10.00">$inventory</text>
<text text-anchor="start" x="186" y="-347" font-family="Helvetica,sans-Serif" font-size="10.00">+</text>
<text text-anchor="start" x="199" y="-347" font-family="Helvetica,sans-Serif" font-size="10.00">getCookingTime()</text>
<text text-anchor="start" x="186" y="-332" font-family="Helvetica,sans-Serif" font-size="10.00">+</text>
<text text-anchor="start" x="199" y="-332" font-family="Helvetica,sans-Serif" font-size="10.00">getDropsForCompatibleTool()</text>
<text text-anchor="start" x="186" y="-317" font-family="Helvetica,sans-Serif" font-size="10.00">+</text>
<text text-anchor="start" x="199" y="-317" font-family="Helvetica,sans-Serif" font-size="10.00">getInventory()</text>
<text text-anchor="start" x="186" y="-302" font-family="Helvetica,sans-Serif" font-size="10.00">+</text>
<text text-anchor="start" x="199" y="-302" font-family="Helvetica,sans-Serif" font-size="10.00">getLightLevel()</text>
<text text-anchor="start" x="186" y="-287" font-family="Helvetica,sans-Serif" font-size="10.00">+</text>
<text text-anchor="start" x="199" y="-287" font-family="Helvetica,sans-Serif" font-size="10.00">getSupportType()</text>
<text text-anchor="start" x="186" y="-272" font-family="Helvetica,sans-Serif" font-size="10.00">+</text>
<text text-anchor="start" x="199" y="-272" font-family="Helvetica,sans-Serif" font-size="10.00">hasEntityCollision()</text>
<text text-anchor="start" x="186" y="-257" font-family="Helvetica,sans-Serif" font-size="10.00">+</text>
<text text-anchor="start" x="199" y="-257" font-family="Helvetica,sans-Serif" font-size="10.00">isAffectedBySilkTouch()</text>
<text text-anchor="start" x="186" y="-242" font-family="Helvetica,sans-Serif" font-size="10.00">+</text>
<text text-anchor="start" x="199" y="-242" font-family="Helvetica,sans-Serif" font-size="10.00">onEntityInside()</text>
<text text-anchor="start" x="186" y="-227" font-family="Helvetica,sans-Serif" font-size="10.00">+</text>
<text text-anchor="start" x="199" y="-227" font-family="Helvetica,sans-Serif" font-size="10.00">onInteract()</text>
<text text-anchor="start" x="186" y="-212" font-family="Helvetica,sans-Serif" font-size="10.00">+</text>
<text text-anchor="start" x="199" y="-212" font-family="Helvetica,sans-Serif" font-size="10.00">onNearbyBlockChange()</text>
<text text-anchor="start" x="199" y="-197" font-family="Helvetica,sans-Serif" font-size="10.00">and 6 more...</text>
<text text-anchor="start" x="186" y="-182" font-family="Helvetica,sans-Serif" font-size="10.00">#</text>
<text text-anchor="start" x="199" y="-182" font-family="Helvetica,sans-Serif" font-size="10.00">describeBlockOnlyState()</text>
<text text-anchor="start" x="186" y="-167" font-family="Helvetica,sans-Serif" font-size="10.00">#</text>
<text text-anchor="start" x="199" y="-167" font-family="Helvetica,sans-Serif" font-size="10.00">getEntityCollisionDamage()</text>
<text text-anchor="start" x="186" y="-152" font-family="Helvetica,sans-Serif" font-size="10.00">#</text>
<text text-anchor="start" x="199" y="-152" font-family="Helvetica,sans-Serif" font-size="10.00">getFurnaceType()</text>
<text text-anchor="start" x="186" y="-137" font-family="Helvetica,sans-Serif" font-size="10.00">#</text>
<text text-anchor="start" x="199" y="-137" font-family="Helvetica,sans-Serif" font-size="10.00">recalculateCollisionBoxes()</text>
<polygon fill="#bfbfbf" stroke="#bfbfbf" points="182,-387 182,-387 346,-387 346,-387 182,-387"/>
<polygon fill="#bfbfbf" stroke="#bfbfbf" points="182,-357 182,-357 197,-357 197,-357 182,-357"/>
<polygon fill="#bfbfbf" stroke="#bfbfbf" points="197,-357 197,-357 346,-357 346,-357 197,-357"/>
<polygon fill="none" stroke="#bfbfbf" points="182,-130 182,-404 346,-404 346,-130 182,-130"/>
</a>
</g>
</g>
<!-- Node1&#45;&gt;Node4 -->
<g id="edge3_Node000001_Node000004" class="edge">
<title>Node1&#45;&gt;Node4</title>
<g id="a_edge3_Node000001_Node000004"><a xlink:title=" ">
<path fill="none" stroke="#63b8ff" d="M637.26,-468.4C547.9,-457.08 400.31,-434.46 355,-404 351.93,-401.94 348.95,-399.74 346.03,-397.41"/>
<polygon fill="none" stroke="#63b8ff" points="636.96,-471.89 647.32,-469.66 637.83,-464.94 636.96,-471.89"/>
</a>
</g>
</g>
<!-- Node6 -->
<g id="Node000006" class="node">
<title>Node6</title>
<g id="a_Node000006"><a xlink:href="../../d6/dd1/classpocketmine_1_1block_1_1_candle.html" target="_top" xlink:title=" ">
<polygon fill="white" stroke="transparent" points="528,-374 364,-374 364,-160 528,-160 528,-374"/>
<text text-anchor="start" x="384" y="-362" font-family="Helvetica,sans-Serif" font-size="10.00">pocketmine\block\Candle</text>
<text text-anchor="start" x="368" y="-347" font-family="Helvetica,sans-Serif" font-size="10.00">+</text>
<text text-anchor="start" x="381" y="-347" font-family="Helvetica,sans-Serif" font-size="10.00">getBaseLightLevel</text>
<text text-anchor="start" x="368" y="-332" font-family="Helvetica,sans-Serif" font-size="10.00">+</text>
<text text-anchor="start" x="381" y="-332" font-family="Helvetica,sans-Serif" font-size="10.00">MAX_COUNT</text>
<text text-anchor="start" x="368" y="-317" font-family="Helvetica,sans-Serif" font-size="10.00">+</text>
<text text-anchor="start" x="381" y="-317" font-family="Helvetica,sans-Serif" font-size="10.00">MIN_COUNT</text>
<text text-anchor="start" x="368" y="-302" font-family="Helvetica,sans-Serif" font-size="10.00">+</text>
<text text-anchor="start" x="381" y="-302" font-family="Helvetica,sans-Serif" font-size="10.00">canBePlacedAt()</text>
<text text-anchor="start" x="368" y="-287" font-family="Helvetica,sans-Serif" font-size="10.00">+</text>
<text text-anchor="start" x="381" y="-287" font-family="Helvetica,sans-Serif" font-size="10.00">getCount()</text>
<text text-anchor="start" x="368" y="-272" font-family="Helvetica,sans-Serif" font-size="10.00">+</text>
<text text-anchor="start" x="381" y="-272" font-family="Helvetica,sans-Serif" font-size="10.00">getDropsForCompatibleTool()</text>
<text text-anchor="start" x="368" y="-257" font-family="Helvetica,sans-Serif" font-size="10.00">+</text>
<text text-anchor="start" x="381" y="-257" font-family="Helvetica,sans-Serif" font-size="10.00">getLightLevel()</text>
<text text-anchor="start" x="368" y="-242" font-family="Helvetica,sans-Serif" font-size="10.00">+</text>
<text text-anchor="start" x="381" y="-242" font-family="Helvetica,sans-Serif" font-size="10.00">getSupportType()</text>
<text text-anchor="start" x="368" y="-227" font-family="Helvetica,sans-Serif" font-size="10.00">+</text>
<text text-anchor="start" x="381" y="-227" font-family="Helvetica,sans-Serif" font-size="10.00">place()</text>
<text text-anchor="start" x="368" y="-212" font-family="Helvetica,sans-Serif" font-size="10.00">+</text>
<text text-anchor="start" x="381" y="-212" font-family="Helvetica,sans-Serif" font-size="10.00">setCount()</text>
<text text-anchor="start" x="368" y="-197" font-family="Helvetica,sans-Serif" font-size="10.00">#</text>
<text text-anchor="start" x="381" y="-197" font-family="Helvetica,sans-Serif" font-size="10.00">describeBlockOnlyState()</text>
<text text-anchor="start" x="368" y="-182" font-family="Helvetica,sans-Serif" font-size="10.00">#</text>
<text text-anchor="start" x="381" y="-182" font-family="Helvetica,sans-Serif" font-size="10.00">getCandleIfCompatibleType()</text>
<text text-anchor="start" x="368" y="-167" font-family="Helvetica,sans-Serif" font-size="10.00">#</text>
<text text-anchor="start" x="381" y="-167" font-family="Helvetica,sans-Serif" font-size="10.00">recalculateCollisionBoxes()</text>
<polygon fill="#bfbfbf" stroke="#bfbfbf" points="364,-357 364,-357 528,-357 528,-357 364,-357"/>
<polygon fill="#bfbfbf" stroke="#bfbfbf" points="364,-312 364,-312 379,-312 379,-312 364,-312"/>
<polygon fill="#bfbfbf" stroke="#bfbfbf" points="379,-312 379,-312 528,-312 528,-312 379,-312"/>
<polygon fill="none" stroke="#bfbfbf" points="364,-160 364,-374 528,-374 528,-160 364,-160"/>
</a>
</g>
</g>
<!-- Node1&#45;&gt;Node6 -->
<g id="edge5_Node000001_Node000006" class="edge">
<title>Node1&#45;&gt;Node6</title>
<g id="a_edge5_Node000001_Node000006"><a xlink:title=" ">
<path fill="none" stroke="#63b8ff" d="M637.56,-456.98C604.56,-445.38 566.17,-428.13 537,-404 526.49,-395.31 516.73,-385.1 507.79,-374.24"/>
<polygon fill="none" stroke="#63b8ff" points="636.57,-460.34 647.17,-460.25 638.83,-453.71 636.57,-460.34"/>
</a>
</g>
</g>
<!-- Node8 -->
<g id="Node000008" class="node">
<title>Node8</title>
<g id="a_Node000008"><a xlink:href="../../d2/de7/classpocketmine_1_1block_1_1_copper_bulb.html" target="_top" xlink:title=" ">
<polygon fill="white" stroke="transparent" points="702,-306.5 546,-306.5 546,-227.5 702,-227.5 702,-306.5"/>
<text text-anchor="start" x="551" y="-294" font-family="Helvetica,sans-Serif" font-size="10.00">pocketmine\block\CopperBulb</text>
<text text-anchor="start" x="622" y="-279" font-family="Helvetica,sans-Serif" font-size="10.00"> </text>
<text text-anchor="start" x="552.5" y="-264" font-family="Helvetica,sans-Serif" font-size="10.00">+</text>
<text text-anchor="start" x="568" y="-264" font-family="Helvetica,sans-Serif" font-size="10.00">getLightLevel()</text>
<text text-anchor="start" x="552.5" y="-249" font-family="Helvetica,sans-Serif" font-size="10.00">+</text>
<text text-anchor="start" x="568" y="-249" font-family="Helvetica,sans-Serif" font-size="10.00">togglePowered()</text>
<text text-anchor="start" x="552.5" y="-234" font-family="Helvetica,sans-Serif" font-size="10.00">#</text>
<text text-anchor="start" x="568" y="-234" font-family="Helvetica,sans-Serif" font-size="10.00">describeBlockOnlyState()</text>
<polygon fill="#bfbfbf" stroke="#bfbfbf" points="546,-289 546,-289 702,-289 702,-289 546,-289"/>
<polygon fill="#bfbfbf" stroke="#bfbfbf" points="546,-274 546,-274 702,-274 702,-274 546,-274"/>
<polygon fill="none" stroke="#bfbfbf" points="546,-227.5 546,-306.5 702,-306.5 702,-227.5 546,-227.5"/>
</a>
</g>
</g>
<!-- Node1&#45;&gt;Node8 -->
<g id="edge7_Node000001_Node000008" class="edge">
<title>Node1&#45;&gt;Node8</title>
<g id="a_edge7_Node000001_Node000008"><a xlink:title=" ">
<path fill="none" stroke="#63b8ff" d="M689.31,-430.11C674.34,-392.96 653.59,-341.46 639.53,-306.55"/>
<polygon fill="none" stroke="#63b8ff" points="686.19,-431.74 693.18,-439.7 692.69,-429.12 686.19,-431.74"/>
</a>
</g>
</g>
<!-- Node9 -->
<g id="Node000009" class="node">
<title>Node9</title>
<g id="a_Node000009"><a xlink:href="../../d4/d66/classpocketmine_1_1block_1_1_furnace.html" target="_top" xlink:title=" ">
<polygon fill="white" stroke="transparent" points="865.5,-329 720.5,-329 720.5,-205 865.5,-205 865.5,-329"/>
<text text-anchor="start" x="729.5" y="-317" font-family="Helvetica,sans-Serif" font-size="10.00">pocketmine\block\Furnace</text>
<text text-anchor="start" x="725" y="-302" font-family="Helvetica,sans-Serif" font-size="10.00">#</text>
<text text-anchor="start" x="738" y="-302" font-family="Helvetica,sans-Serif" font-size="10.00">$furnaceType</text>
<text text-anchor="start" x="725" y="-287" font-family="Helvetica,sans-Serif" font-size="10.00">+</text>
<text text-anchor="start" x="738" y="-287" font-family="Helvetica,sans-Serif" font-size="10.00">__construct()</text>
<text text-anchor="start" x="725" y="-272" font-family="Helvetica,sans-Serif" font-size="10.00">+</text>
<text text-anchor="start" x="738" y="-272" font-family="Helvetica,sans-Serif" font-size="10.00">getFurnaceType()</text>
<text text-anchor="start" x="725" y="-257" font-family="Helvetica,sans-Serif" font-size="10.00">+</text>
<text text-anchor="start" x="738" y="-257" font-family="Helvetica,sans-Serif" font-size="10.00">getLightLevel()</text>
<text text-anchor="start" x="725" y="-242" font-family="Helvetica,sans-Serif" font-size="10.00">+</text>
<text text-anchor="start" x="738" y="-242" font-family="Helvetica,sans-Serif" font-size="10.00">onInteract()</text>
<text text-anchor="start" x="725" y="-227" font-family="Helvetica,sans-Serif" font-size="10.00">+</text>
<text text-anchor="start" x="738" y="-227" font-family="Helvetica,sans-Serif" font-size="10.00">onScheduledUpdate()</text>
<text text-anchor="start" x="725" y="-212" font-family="Helvetica,sans-Serif" font-size="10.00">#</text>
<text text-anchor="start" x="738" y="-212" font-family="Helvetica,sans-Serif" font-size="10.00">describeBlockOnlyState()</text>
<polygon fill="#bfbfbf" stroke="#bfbfbf" points="721,-312 721,-312 866,-312 866,-312 721,-312"/>
<polygon fill="#bfbfbf" stroke="#bfbfbf" points="721,-297 721,-297 736,-297 736,-297 721,-297"/>
<polygon fill="#bfbfbf" stroke="#bfbfbf" points="736,-297 736,-297 866,-297 866,-297 736,-297"/>
<polygon fill="none" stroke="#bfbfbf" points="720.5,-205 720.5,-329 865.5,-329 865.5,-205 720.5,-205"/>
</a>
</g>
</g>
<!-- Node1&#45;&gt;Node9 -->
<g id="edge8_Node000001_Node000009" class="edge">
<title>Node1&#45;&gt;Node9</title>
<g id="a_edge8_Node000001_Node000009"><a xlink:title=" ">
<path fill="none" stroke="#63b8ff" d="M726.79,-430.4C738.91,-400.67 754.81,-361.67 767.99,-329.34"/>
<polygon fill="none" stroke="#63b8ff" points="723.53,-429.12 723,-439.7 730.02,-431.77 723.53,-429.12"/>
</a>
</g>
</g>
<!-- Node10 -->
<g id="Node000010" class="node">
<title>Node10</title>
<g id="a_Node000010"><a xlink:href="../../da/db8/classpocketmine_1_1block_1_1_redstone_lamp.html" target="_top" xlink:title=" ">
<polygon fill="white" stroke="transparent" points="1056.5,-314 883.5,-314 883.5,-220 1056.5,-220 1056.5,-314"/>
<text text-anchor="start" x="889" y="-302" font-family="Helvetica,sans-Serif" font-size="10.00">pocketmine\block\RedstoneLamp</text>
<text text-anchor="start" x="968.5" y="-287" font-family="Helvetica,sans-Serif" font-size="10.00"> </text>
<text text-anchor="start" x="895" y="-272" font-family="Helvetica,sans-Serif" font-size="10.00">+</text>
<text text-anchor="start" x="915" y="-272" font-family="Helvetica,sans-Serif" font-size="10.00">getLightLevel()</text>
<text text-anchor="start" x="895" y="-257" font-family="Helvetica,sans-Serif" font-size="10.00">+</text>
<text text-anchor="start" x="915" y="-257" font-family="Helvetica,sans-Serif" font-size="10.00">isLit()</text>
<text text-anchor="start" x="895" y="-242" font-family="Helvetica,sans-Serif" font-size="10.00">+</text>
<text text-anchor="start" x="915" y="-242" font-family="Helvetica,sans-Serif" font-size="10.00">setLit()</text>
<text text-anchor="start" x="895" y="-227" font-family="Helvetica,sans-Serif" font-size="10.00">#</text>
<text text-anchor="start" x="915" y="-227" font-family="Helvetica,sans-Serif" font-size="10.00">describeBlockOnlyState()</text>
<polygon fill="#bfbfbf" stroke="#bfbfbf" points="884,-297 884,-297 1057,-297 1057,-297 884,-297"/>
<polygon fill="#bfbfbf" stroke="#bfbfbf" points="884,-282 884,-282 1057,-282 1057,-282 884,-282"/>
<polygon fill="none" stroke="#bfbfbf" points="883.5,-220 883.5,-314 1056.5,-314 1056.5,-220 883.5,-220"/>
</a>
</g>
</g>
<!-- Node1&#45;&gt;Node10 -->
<g id="edge9_Node000001_Node000010" class="edge">
<title>Node1&#45;&gt;Node10</title>
<g id="a_edge9_Node000001_Node000010"><a xlink:title=" ">
<path fill="none" stroke="#63b8ff" d="M778.49,-455.71C810.24,-444 846.84,-427.02 875,-404 904.99,-379.48 929.69,-343.19 946.38,-314.26"/>
<polygon fill="none" stroke="#63b8ff" points="777.04,-452.51 768.8,-459.18 779.4,-459.1 777.04,-452.51"/>
</a>
</g>
</g>
<!-- Node11 -->
<g id="Node000011" class="node">
<title>Node11</title>
<g id="a_Node000011"><a xlink:href="../../d6/d6a/classpocketmine_1_1block_1_1_redstone_ore.html" target="_top" xlink:title=" ">
<polygon fill="white" stroke="transparent" points="1239,-344 1075,-344 1075,-190 1239,-190 1239,-344"/>
<text text-anchor="start" x="1080.5" y="-332" font-family="Helvetica,sans-Serif" font-size="10.00">pocketmine\block\RedstoneOre</text>
<text text-anchor="start" x="1155" y="-317" font-family="Helvetica,sans-Serif" font-size="10.00"> </text>
<text text-anchor="start" x="1079" y="-302" font-family="Helvetica,sans-Serif" font-size="10.00">+</text>
<text text-anchor="start" x="1092" y="-302" font-family="Helvetica,sans-Serif" font-size="10.00">getDropsForCompatibleTool()</text>
<text text-anchor="start" x="1079" y="-287" font-family="Helvetica,sans-Serif" font-size="10.00">+</text>
<text text-anchor="start" x="1092" y="-287" font-family="Helvetica,sans-Serif" font-size="10.00">getLightLevel()</text>
<text text-anchor="start" x="1079" y="-272" font-family="Helvetica,sans-Serif" font-size="10.00">+</text>
<text text-anchor="start" x="1092" y="-272" font-family="Helvetica,sans-Serif" font-size="10.00">isAffectedBySilkTouch()</text>
<text text-anchor="start" x="1079" y="-257" font-family="Helvetica,sans-Serif" font-size="10.00">+</text>
<text text-anchor="start" x="1092" y="-257" font-family="Helvetica,sans-Serif" font-size="10.00">onInteract()</text>
<text text-anchor="start" x="1079" y="-242" font-family="Helvetica,sans-Serif" font-size="10.00">+</text>
<text text-anchor="start" x="1092" y="-242" font-family="Helvetica,sans-Serif" font-size="10.00">onNearbyBlockChange()</text>
<text text-anchor="start" x="1079" y="-227" font-family="Helvetica,sans-Serif" font-size="10.00">+</text>
<text text-anchor="start" x="1092" y="-227" font-family="Helvetica,sans-Serif" font-size="10.00">onRandomTick()</text>
<text text-anchor="start" x="1079" y="-212" font-family="Helvetica,sans-Serif" font-size="10.00">+</text>
<text text-anchor="start" x="1092" y="-212" font-family="Helvetica,sans-Serif" font-size="10.00">ticksRandomly()</text>
<text text-anchor="start" x="1079" y="-197" font-family="Helvetica,sans-Serif" font-size="10.00">#</text>
<text text-anchor="start" x="1092" y="-197" font-family="Helvetica,sans-Serif" font-size="10.00">getXpDropAmount()</text>
<polygon fill="#bfbfbf" stroke="#bfbfbf" points="1075,-327 1075,-327 1239,-327 1239,-327 1075,-327"/>
<polygon fill="#bfbfbf" stroke="#bfbfbf" points="1075,-312 1075,-312 1239,-312 1239,-312 1075,-312"/>
<polygon fill="none" stroke="#bfbfbf" points="1075,-190 1075,-344 1239,-344 1239,-190 1075,-190"/>
</a>
</g>
</g>
<!-- Node1&#45;&gt;Node11 -->
<g id="edge10_Node000001_Node000011" class="edge">
<title>Node1&#45;&gt;Node11</title>
<g id="a_edge10_Node000001_Node000011"><a xlink:title=" ">
<path fill="none" stroke="#63b8ff" d="M778.99,-468.6C869.53,-457.43 1019.91,-434.89 1066,-404 1088.3,-389.05 1106.54,-366.61 1120.67,-344.24"/>
<polygon fill="none" stroke="#63b8ff" points="778.3,-465.16 768.8,-469.84 779.15,-472.1 778.3,-465.16"/>
</a>
</g>
</g>
<!-- Node12 -->
<g id="Node000012" class="node">
<title>Node12</title>
<g id="a_Node000012"><a xlink:href="../../d6/d4f/classpocketmine_1_1block_1_1_redstone_torch.html" target="_top" xlink:title=" ">
<polygon fill="white" stroke="transparent" points="1403,-312 1257,-312 1257,-222 1403,-222 1403,-312"/>
<text text-anchor="start" x="1262" y="-300" font-family="Helvetica,sans-Serif" font-size="10.00">pocketmine\block\Redstone</text>
<text text-anchor="start" x="1317" y="-289" font-family="Helvetica,sans-Serif" font-size="10.00">Torch</text>
<text text-anchor="start" x="1328" y="-274" font-family="Helvetica,sans-Serif" font-size="10.00"> </text>
<text text-anchor="start" x="1261" y="-259" font-family="Helvetica,sans-Serif" font-size="10.00">+</text>
<text text-anchor="start" x="1274" y="-259" font-family="Helvetica,sans-Serif" font-size="10.00">__construct()</text>
<text text-anchor="start" x="1261" y="-244" font-family="Helvetica,sans-Serif" font-size="10.00">+</text>
<text text-anchor="start" x="1274" y="-244" font-family="Helvetica,sans-Serif" font-size="10.00">getLightLevel()</text>
<text text-anchor="start" x="1261" y="-229" font-family="Helvetica,sans-Serif" font-size="10.00">#</text>
<text text-anchor="start" x="1274" y="-229" font-family="Helvetica,sans-Serif" font-size="10.00">describeBlockOnlyState()</text>
<polygon fill="#bfbfbf" stroke="#bfbfbf" points="1257,-284 1257,-284 1403,-284 1403,-284 1257,-284"/>
<polygon fill="#bfbfbf" stroke="#bfbfbf" points="1257,-269 1257,-269 1403,-269 1403,-269 1257,-269"/>
<polygon fill="none" stroke="#bfbfbf" points="1257,-222 1257,-312 1403,-312 1403,-222 1257,-222"/>
</a>
</g>
</g>
<!-- Node1&#45;&gt;Node12 -->
<g id="edge11_Node000001_Node000012" class="edge">
<title>Node1&#45;&gt;Node12</title>
<g id="a_edge11_Node000001_Node000012"><a xlink:title=" ">
<path fill="none" stroke="#63b8ff" d="M779.02,-474.48C907.5,-469.62 1172.26,-453.71 1248,-404 1280.73,-382.52 1302.38,-343.02 1315.17,-312.11"/>
<polygon fill="none" stroke="#63b8ff" points="778.75,-470.99 768.89,-474.85 779.01,-477.98 778.75,-470.99"/>
</a>
</g>
</g>
<!-- Node3 -->
<g id="Node000003" class="node">
<title>Node3</title>
<g id="a_Node000003"><a xlink:href="../../d1/d2e/classpocketmine_1_1block_1_1_cake_with_dyed_candle.html" target="_top" xlink:title=" ">
<polygon fill="white" stroke="transparent" points="155,-84.5 9,-84.5 9,-9.5 155,-9.5 155,-84.5"/>
<text text-anchor="start" x="14" y="-72" font-family="Helvetica,sans-Serif" font-size="10.00">pocketmine\block\CakeWith</text>
<text text-anchor="start" x="52" y="-61" font-family="Helvetica,sans-Serif" font-size="10.00">DyedCandle</text>
<text text-anchor="start" x="80" y="-46" font-family="Helvetica,sans-Serif" font-size="10.00"> </text>
<text text-anchor="start" x="28" y="-31" font-family="Helvetica,sans-Serif" font-size="10.00">+</text>
<text text-anchor="start" x="56" y="-31" font-family="Helvetica,sans-Serif" font-size="10.00">__construct()</text>
<text text-anchor="start" x="28" y="-16" font-family="Helvetica,sans-Serif" font-size="10.00">+</text>
<text text-anchor="start" x="56" y="-16" font-family="Helvetica,sans-Serif" font-size="10.00">getCandle()</text>
<polygon fill="#bfbfbf" stroke="#bfbfbf" points="9,-56 9,-56 155,-56 155,-56 9,-56"/>
<polygon fill="#bfbfbf" stroke="#bfbfbf" points="9,-41 9,-41 155,-41 155,-41 9,-41"/>
<polygon fill="none" stroke="#bfbfbf" points="9,-9.5 9,-84.5 155,-84.5 155,-9.5 9,-9.5"/>
</a>
</g>
</g>
<!-- Node2&#45;&gt;Node3 -->
<g id="edge2_Node000002_Node000003" class="edge">
<title>Node2&#45;&gt;Node3</title>
<g id="a_edge2_Node000002_Node000003"><a xlink:title=" ">
<path fill="none" stroke="#63b8ff" d="M82,-181.58C82,-147.98 82,-111.09 82,-84.61"/>
<polygon fill="none" stroke="#63b8ff" points="78.5,-181.89 82,-191.89 85.5,-181.89 78.5,-181.89"/>
</a>
</g>
</g>
<!-- Node5 -->
<g id="Node000005" class="node">
<title>Node5</title>
<g id="a_Node000005"><a xlink:href="../../dc/d3e/classpocketmine_1_1block_1_1_soul_campfire.html" target="_top" xlink:title=" ">
<polygon fill="white" stroke="transparent" points="345.5,-94 180.5,-94 180.5,0 345.5,0 345.5,-94"/>
<text text-anchor="start" x="186" y="-82" font-family="Helvetica,sans-Serif" font-size="10.00">pocketmine\block\SoulCampfire</text>
<text text-anchor="start" x="261.5" y="-67" font-family="Helvetica,sans-Serif" font-size="10.00"> </text>
<text text-anchor="start" x="185" y="-52" font-family="Helvetica,sans-Serif" font-size="10.00">+</text>
<text text-anchor="start" x="198" y="-52" font-family="Helvetica,sans-Serif" font-size="10.00">getDropsForCompatibleTool()</text>
<text text-anchor="start" x="185" y="-37" font-family="Helvetica,sans-Serif" font-size="10.00">+</text>
<text text-anchor="start" x="198" y="-37" font-family="Helvetica,sans-Serif" font-size="10.00">getLightLevel()</text>
<text text-anchor="start" x="185" y="-22" font-family="Helvetica,sans-Serif" font-size="10.00">#</text>
<text text-anchor="start" x="198" y="-22" font-family="Helvetica,sans-Serif" font-size="10.00">getEntityCollisionDamage()</text>
<text text-anchor="start" x="185" y="-7" font-family="Helvetica,sans-Serif" font-size="10.00">#</text>
<text text-anchor="start" x="198" y="-7" font-family="Helvetica,sans-Serif" font-size="10.00">getFurnaceType()</text>
<polygon fill="#bfbfbf" stroke="#bfbfbf" points="181,-77 181,-77 346,-77 346,-77 181,-77"/>
<polygon fill="#bfbfbf" stroke="#bfbfbf" points="181,-62 181,-62 346,-62 346,-62 181,-62"/>
<polygon fill="none" stroke="#bfbfbf" points="180.5,0 180.5,-94 345.5,-94 345.5,0 180.5,0"/>
</a>
</g>
</g>
<!-- Node4&#45;&gt;Node5 -->
<g id="edge4_Node000004_Node000005" class="edge">
<title>Node4&#45;&gt;Node5</title>
<g id="a_edge4_Node000004_Node000005"><a xlink:title=" ">
<path fill="none" stroke="#63b8ff" d="M263.33,-119.62C263.29,-110.73 263.25,-102.22 263.21,-94.37"/>
<polygon fill="none" stroke="#63b8ff" points="259.83,-119.81 263.38,-129.8 266.83,-119.78 259.83,-119.81"/>
</a>
</g>
</g>
<!-- Node7 -->
<g id="Node000007" class="node">
<title>Node7</title>
<g id="a_Node000007"><a xlink:href="../../dc/d10/classpocketmine_1_1block_1_1_dyed_candle.html" target="_top" xlink:title=" ">
<polygon fill="white" stroke="transparent" points="528,-71.5 364,-71.5 364,-22.5 528,-22.5 528,-71.5"/>
<text text-anchor="start" x="371.5" y="-59" font-family="Helvetica,sans-Serif" font-size="10.00">pocketmine\block\DyedCandle</text>
<text text-anchor="start" x="444" y="-44" font-family="Helvetica,sans-Serif" font-size="10.00"> </text>
<text text-anchor="start" x="368" y="-29" font-family="Helvetica,sans-Serif" font-size="10.00">#</text>
<text text-anchor="start" x="381" y="-29" font-family="Helvetica,sans-Serif" font-size="10.00">getCandleIfCompatibleType()</text>
<polygon fill="#bfbfbf" stroke="#bfbfbf" points="364,-54 364,-54 528,-54 528,-54 364,-54"/>
<polygon fill="#bfbfbf" stroke="#bfbfbf" points="364,-39 364,-39 528,-39 528,-39 364,-39"/>
<polygon fill="none" stroke="#bfbfbf" points="364,-22.5 364,-71.5 528,-71.5 528,-22.5 364,-22.5"/>
</a>
</g>
</g>
<!-- Node6&#45;&gt;Node7 -->
<g id="edge6_Node000006_Node000007" class="edge">
<title>Node6&#45;&gt;Node7</title>
<g id="a_edge6_Node000006_Node000007"><a xlink:title=" ">
<path fill="none" stroke="#63b8ff" d="M446,-149.78C446,-120.06 446,-91.06 446,-71.67"/>
<polygon fill="none" stroke="#63b8ff" points="442.5,-149.87 446,-159.87 449.5,-149.87 442.5,-149.87"/>
</a>
</g>
</g>
</g>
</svg>
