<?xml version="1.0" encoding="UTF-8" standalone="no"?>
<!DOCTYPE svg PUBLIC "-//W3C//DTD SVG 1.1//EN"
 "http://www.w3.org/Graphics/SVG/1.1/DTD/svg11.dtd">
<!-- Generated by graphviz version 2.43.0 (0)
 -->
<!-- Title: pocketmine\network\mcpe\handler\PreSpawnPacketHandler Pages: 1 -->
<svg width="174pt" height="462pt"
 viewBox="0.00 0.00 174.00 462.00" xmlns="http://www.w3.org/2000/svg" xmlns:xlink="http://www.w3.org/1999/xlink">
<g id="graph0" class="graph" transform="scale(1 1) rotate(0) translate(4 458)">
<title>pocketmine\network\mcpe\handler\PreSpawnPacketHandler</title>
<!-- Node1 -->
<g id="Node000001" class="node">
<title>Node1</title>
<g id="a_Node000001"><a xlink:title=" ">
<polygon fill="#999999" stroke="transparent" points="166,-101 0,-101 0,0 166,0 166,-101"/>
<text text-anchor="start" x="6.5" y="-88.5" font-family="Helvetica,sans-Serif" font-size="10.00">pocketmine\network</text>
<text text-anchor="start" x="6.5" y="-77.5" font-family="Helvetica,sans-Serif" font-size="10.00">\mcpe\handler\PreSpawnPacket</text>
<text text-anchor="start" x="63.5" y="-66.5" font-family="Helvetica,sans-Serif" font-size="10.00">Handler</text>
<text text-anchor="start" x="81" y="-51.5" font-family="Helvetica,sans-Serif" font-size="10.00"> </text>
<text text-anchor="start" x="4" y="-36.5" font-family="Helvetica,sans-Serif" font-size="10.00">+</text>
<text text-anchor="start" x="17" y="-36.5" font-family="Helvetica,sans-Serif" font-size="10.00">__construct()</text>
<text text-anchor="start" x="4" y="-21.5" font-family="Helvetica,sans-Serif" font-size="10.00">+</text>
<text text-anchor="start" x="17" y="-21.5" font-family="Helvetica,sans-Serif" font-size="10.00">handleRequestChunkRadius()</text>
<text text-anchor="start" x="4" y="-6.5" font-family="Helvetica,sans-Serif" font-size="10.00">+</text>
<text text-anchor="start" x="17" y="-6.5" font-family="Helvetica,sans-Serif" font-size="10.00">setUp()</text>
<polygon fill="#666666" stroke="#666666" points="0,-61.5 0,-61.5 166,-61.5 166,-61.5 0,-61.5"/>
<polygon fill="#666666" stroke="#666666" points="0,-46.5 0,-46.5 166,-46.5 166,-46.5 0,-46.5"/>
<polygon fill="none" stroke="#666666" points="0,0 0,-101 166,-101 166,0 0,0"/>
</a>
</g>
</g>
<!-- Node2 -->
<g id="Node000002" class="node">
<title>Node2</title>
<g id="a_Node000002"><a xlink:href="../../d5/d23/classpocketmine_1_1network_1_1mcpe_1_1handler_1_1_packet_handler.html" target="_top" xlink:title=" ">
<polygon fill="white" stroke="transparent" points="159.5,-197 6.5,-197 6.5,-137 159.5,-137 159.5,-197"/>
<text text-anchor="start" x="12" y="-185" font-family="Helvetica,sans-Serif" font-size="10.00">pocketmine\network</text>
<text text-anchor="start" x="12" y="-174" font-family="Helvetica,sans-Serif" font-size="10.00">\mcpe\handler\PacketHandler</text>
<text text-anchor="start" x="81.5" y="-159" font-family="Helvetica,sans-Serif" font-size="10.00"> </text>
<text text-anchor="start" x="34.5" y="-144" font-family="Helvetica,sans-Serif" font-size="10.00">+</text>
<text text-anchor="start" x="71" y="-144" font-family="Helvetica,sans-Serif" font-size="10.00">setUp()</text>
<polygon fill="#666666" stroke="#666666" points="7,-169 7,-169 160,-169 160,-169 7,-169"/>
<polygon fill="#666666" stroke="#666666" points="7,-154 7,-154 160,-154 160,-154 7,-154"/>
<polygon fill="none" stroke="#666666" points="6.5,-137 6.5,-197 159.5,-197 159.5,-137 6.5,-137"/>
</a>
</g>
</g>
<!-- Node2&#45;&gt;Node1 -->
<g id="edge1_Node000001_Node000002" class="edge">
<title>Node2&#45;&gt;Node1</title>
<g id="a_edge1_Node000001_Node000002"><a xlink:title=" ">
<path fill="none" stroke="#63b8ff" d="M83,-126.72C83,-118.47 83,-109.67 83,-101.1"/>
<polygon fill="none" stroke="#63b8ff" points="79.5,-126.81 83,-136.81 86.5,-126.81 79.5,-126.81"/>
</a>
</g>
</g>
<!-- Node3 -->
<g id="Node000003" class="node">
<title>Node3</title>
<g id="a_Node000003"><a xlink:href="../../d1/d7c/interfacepocketmine_1_1network_1_1mcpe_1_1protocol_1_1_packet_handler_interface.html" target="_top" xlink:title=" ">
<polygon fill="white" stroke="transparent" points="161,-454 5,-454 5,-233 161,-233 161,-454"/>
<text text-anchor="start" x="10" y="-441.5" font-family="Helvetica,sans-Serif" font-size="10.00">pocketmine\network</text>
<text text-anchor="start" x="10" y="-430.5" font-family="Helvetica,sans-Serif" font-size="10.00">\mcpe\protocol\PacketHandler</text>
<text text-anchor="start" x="61" y="-419.5" font-family="Helvetica,sans-Serif" font-size="10.00">Interface</text>
<text text-anchor="start" x="81" y="-404.5" font-family="Helvetica,sans-Serif" font-size="10.00"> </text>
<text text-anchor="start" x="10.5" y="-389.5" font-family="Helvetica,sans-Serif" font-size="10.00">+</text>
<text text-anchor="start" x="25" y="-389.5" font-family="Helvetica,sans-Serif" font-size="10.00">handleActorEvent()</text>
<text text-anchor="start" x="10.5" y="-374.5" font-family="Helvetica,sans-Serif" font-size="10.00">+</text>
<text text-anchor="start" x="25" y="-374.5" font-family="Helvetica,sans-Serif" font-size="10.00">handleActorPickRequest()</text>
<text text-anchor="start" x="10.5" y="-359.5" font-family="Helvetica,sans-Serif" font-size="10.00">+</text>
<text text-anchor="start" x="25" y="-359.5" font-family="Helvetica,sans-Serif" font-size="10.00">handleAddActor()</text>
<text text-anchor="start" x="10.5" y="-344.5" font-family="Helvetica,sans-Serif" font-size="10.00">+</text>
<text text-anchor="start" x="25" y="-344.5" font-family="Helvetica,sans-Serif" font-size="10.00">handleAddBehaviorTree()</text>
<text text-anchor="start" x="10.5" y="-329.5" font-family="Helvetica,sans-Serif" font-size="10.00">+</text>
<text text-anchor="start" x="25" y="-329.5" font-family="Helvetica,sans-Serif" font-size="10.00">handleAddItemActor()</text>
<text text-anchor="start" x="10.5" y="-314.5" font-family="Helvetica,sans-Serif" font-size="10.00">+</text>
<text text-anchor="start" x="25" y="-314.5" font-family="Helvetica,sans-Serif" font-size="10.00">handleAddPainting()</text>
<text text-anchor="start" x="10.5" y="-299.5" font-family="Helvetica,sans-Serif" font-size="10.00">+</text>
<text text-anchor="start" x="25" y="-299.5" font-family="Helvetica,sans-Serif" font-size="10.00">handleAddPlayer()</text>
<text text-anchor="start" x="10.5" y="-284.5" font-family="Helvetica,sans-Serif" font-size="10.00">+</text>
<text text-anchor="start" x="25" y="-284.5" font-family="Helvetica,sans-Serif" font-size="10.00">handleAddVolumeEntity()</text>
<text text-anchor="start" x="10.5" y="-269.5" font-family="Helvetica,sans-Serif" font-size="10.00">+</text>
<text text-anchor="start" x="25" y="-269.5" font-family="Helvetica,sans-Serif" font-size="10.00">handleAgentActionEvent()</text>
<text text-anchor="start" x="10.5" y="-254.5" font-family="Helvetica,sans-Serif" font-size="10.00">+</text>
<text text-anchor="start" x="25" y="-254.5" font-family="Helvetica,sans-Serif" font-size="10.00">handleAgentAnimation()</text>
<text text-anchor="start" x="25" y="-239.5" font-family="Helvetica,sans-Serif" font-size="10.00">and 208 more...</text>
<polygon fill="#666666" stroke="#666666" points="5,-414.5 5,-414.5 161,-414.5 161,-414.5 5,-414.5"/>
<polygon fill="#666666" stroke="#666666" points="5,-399.5 5,-399.5 161,-399.5 161,-399.5 5,-399.5"/>
<polygon fill="none" stroke="#666666" points="5,-233 5,-454 161,-454 161,-233 5,-233"/>
</a>
</g>
</g>
<!-- Node3&#45;&gt;Node2 -->
<g id="edge2_Node000002_Node000003" class="edge">
<title>Node3&#45;&gt;Node2</title>
<g id="a_edge2_Node000002_Node000003"><a xlink:title=" ">
<path fill="none" stroke="#63b8ff" d="M83,-222.98C83,-213.56 83,-204.73 83,-197.01"/>
<polygon fill="none" stroke="#63b8ff" points="79.5,-222.98 83,-232.98 86.5,-222.98 79.5,-222.98"/>
</a>
</g>
</g>
</g>
</svg>
