<?xml version="1.0" encoding="UTF-8" standalone="no"?>
<!DOCTYPE svg PUBLIC "-//W3C//DTD SVG 1.1//EN"
 "http://www.w3.org/Graphics/SVG/1.1/DTD/svg11.dtd">
<!-- Generated by graphviz version 2.43.0 (0)
 -->
<!-- Title: pocketmine\item\RawRabbit Pages: 1 -->
<svg width="570pt" height="841pt"
 viewBox="0.00 0.00 569.50 841.00" xmlns="http://www.w3.org/2000/svg" xmlns:xlink="http://www.w3.org/1999/xlink">
<g id="graph0" class="graph" transform="scale(1 1) rotate(0) translate(4 837)">
<title>pocketmine\item\RawRabbit</title>
<polygon fill="white" stroke="transparent" points="-4,4 -4,-837 565.5,-837 565.5,4 -4,4"/>
<!-- Node1 -->
<g id="node1" class="node">
<title>Node1</title>
<g id="a_node1"><a xlink:title=" ">
<polygon fill="#bfbfbf" stroke="black" points="135.5,-0.5 135.5,-68.5 290.5,-68.5 290.5,-0.5 135.5,-0.5"/>
<text text-anchor="middle" x="213" y="-56.5" font-family="Helvetica,sans-Serif" font-size="10.00">pocketmine\item\RawRabbit</text>
<polyline fill="none" stroke="black" points="135.5,-49.5 290.5,-49.5 "/>
<text text-anchor="middle" x="213" y="-37.5" font-family="Helvetica,sans-Serif" font-size="10.00"> </text>
<polyline fill="none" stroke="black" points="135.5,-30.5 290.5,-30.5 "/>
<text text-anchor="start" x="143.5" y="-18.5" font-family="Helvetica,sans-Serif" font-size="10.00">+ getFoodRestore()</text>
<text text-anchor="start" x="143.5" y="-7.5" font-family="Helvetica,sans-Serif" font-size="10.00">+ getSaturationRestore()</text>
</a>
</g>
</g>
<!-- Node2 -->
<g id="node2" class="node">
<title>Node2</title>
<g id="a_node2"><a xlink:href="../../dc/de1/classpocketmine_1_1item_1_1_food.html" target="_top" xlink:title=" ">
<polygon fill="white" stroke="#bfbfbf" points="146,-106.5 146,-207.5 280,-207.5 280,-106.5 146,-106.5"/>
<text text-anchor="middle" x="213" y="-195.5" font-family="Helvetica,sans-Serif" font-size="10.00">pocketmine\item\Food</text>
<polyline fill="none" stroke="#bfbfbf" points="146,-188.5 280,-188.5 "/>
<text text-anchor="middle" x="213" y="-176.5" font-family="Helvetica,sans-Serif" font-size="10.00"> </text>
<polyline fill="none" stroke="#bfbfbf" points="146,-169.5 280,-169.5 "/>
<text text-anchor="start" x="154" y="-157.5" font-family="Helvetica,sans-Serif" font-size="10.00">+ canStartUsingItem()</text>
<text text-anchor="start" x="154" y="-146.5" font-family="Helvetica,sans-Serif" font-size="10.00">+ getAdditionalEffects()</text>
<text text-anchor="start" x="154" y="-135.5" font-family="Helvetica,sans-Serif" font-size="10.00">+ getResidue()</text>
<text text-anchor="start" x="154" y="-124.5" font-family="Helvetica,sans-Serif" font-size="10.00">+ onConsume()</text>
<text text-anchor="start" x="154" y="-113.5" font-family="Helvetica,sans-Serif" font-size="10.00">+ requiresHunger()</text>
</a>
</g>
</g>
<!-- Node2&#45;&gt;Node1 -->
<g id="edge1" class="edge">
<title>Node2&#45;&gt;Node1</title>
<path fill="none" stroke="midnightblue" d="M213,-96.07C213,-86.61 213,-77.14 213,-68.59"/>
<polygon fill="none" stroke="midnightblue" points="209.5,-96.29 213,-106.29 216.5,-96.29 209.5,-96.29"/>
</g>
<!-- Node3 -->
<g id="node3" class="node">
<title>Node3</title>
<g id="a_node3"><a xlink:href="../../d5/d8a/classpocketmine_1_1item_1_1_item.html" target="_top" xlink:title=" ">
<polygon fill="white" stroke="#bfbfbf" points="41,-245.5 41,-533.5 199,-533.5 199,-245.5 41,-245.5"/>
<text text-anchor="middle" x="120" y="-521.5" font-family="Helvetica,sans-Serif" font-size="10.00">pocketmine\item\Item</text>
<polyline fill="none" stroke="#bfbfbf" points="41,-514.5 199,-514.5 "/>
<text text-anchor="start" x="49" y="-502.5" font-family="Helvetica,sans-Serif" font-size="10.00"># $blockEntityTag</text>
<text text-anchor="start" x="49" y="-491.5" font-family="Helvetica,sans-Serif" font-size="10.00"># $canDestroy</text>
<text text-anchor="start" x="49" y="-480.5" font-family="Helvetica,sans-Serif" font-size="10.00"># $canPlaceOn</text>
<text text-anchor="start" x="49" y="-469.5" font-family="Helvetica,sans-Serif" font-size="10.00"># $count</text>
<text text-anchor="start" x="49" y="-458.5" font-family="Helvetica,sans-Serif" font-size="10.00"># $customName</text>
<text text-anchor="start" x="49" y="-447.5" font-family="Helvetica,sans-Serif" font-size="10.00"># $keepOnDeath</text>
<text text-anchor="start" x="49" y="-436.5" font-family="Helvetica,sans-Serif" font-size="10.00"># $lore</text>
<text text-anchor="start" x="49" y="-425.5" font-family="Helvetica,sans-Serif" font-size="10.00"># $name</text>
<polyline fill="none" stroke="#bfbfbf" points="41,-418.5 199,-418.5 "/>
<text text-anchor="start" x="49" y="-406.5" font-family="Helvetica,sans-Serif" font-size="10.00">+ __construct()</text>
<text text-anchor="start" x="49" y="-395.5" font-family="Helvetica,sans-Serif" font-size="10.00">+ __clone()</text>
<text text-anchor="start" x="49" y="-384.5" font-family="Helvetica,sans-Serif" font-size="10.00">+ __toString()</text>
<text text-anchor="start" x="49" y="-373.5" font-family="Helvetica,sans-Serif" font-size="10.00">+ canBePlaced()</text>
<text text-anchor="start" x="49" y="-362.5" font-family="Helvetica,sans-Serif" font-size="10.00">+ canStackWith()</text>
<text text-anchor="start" x="49" y="-351.5" font-family="Helvetica,sans-Serif" font-size="10.00">+ clearCustomBlockData()</text>
<text text-anchor="start" x="49" y="-340.5" font-family="Helvetica,sans-Serif" font-size="10.00">+ clearCustomName()</text>
<text text-anchor="start" x="49" y="-329.5" font-family="Helvetica,sans-Serif" font-size="10.00">+ clearNamedTag()</text>
<text text-anchor="start" x="49" y="-318.5" font-family="Helvetica,sans-Serif" font-size="10.00">+ equals()</text>
<text text-anchor="start" x="49" y="-307.5" font-family="Helvetica,sans-Serif" font-size="10.00">+ equalsExact()</text>
<text text-anchor="start" x="49" y="-296.5" font-family="Helvetica,sans-Serif" font-size="10.00">and 44 more...</text>
<text text-anchor="start" x="49" y="-285.5" font-family="Helvetica,sans-Serif" font-size="10.00">+ jsonDeserialize()</text>
<text text-anchor="start" x="49" y="-274.5" font-family="Helvetica,sans-Serif" font-size="10.00">+ nbtDeserialize()</text>
<text text-anchor="start" x="49" y="-263.5" font-family="Helvetica,sans-Serif" font-size="10.00"># deserializeCompoundTag()</text>
<text text-anchor="start" x="49" y="-252.5" font-family="Helvetica,sans-Serif" font-size="10.00"># serializeCompoundTag()</text>
</a>
</g>
</g>
<!-- Node3&#45;&gt;Node2 -->
<g id="edge2" class="edge">
<title>Node3&#45;&gt;Node2</title>
<path fill="none" stroke="midnightblue" d="M181.47,-236.14C185.52,-226.1 189.4,-216.48 192.97,-207.64"/>
<polygon fill="none" stroke="midnightblue" points="178.2,-234.89 177.71,-245.47 184.7,-237.51 178.2,-234.89"/>
</g>
<!-- Node4 -->
<g id="node4" class="node">
<title>Node4</title>
<g id="a_node4"><a xlink:title=" ">
<polygon fill="white" stroke="#bfbfbf" points="0,-658.5 0,-715.5 94,-715.5 94,-658.5 0,-658.5"/>
<text text-anchor="middle" x="47" y="-703.5" font-family="Helvetica,sans-Serif" font-size="10.00">JsonSerializable</text>
<polyline fill="none" stroke="#bfbfbf" points="0,-696.5 94,-696.5 "/>
<text text-anchor="middle" x="47" y="-684.5" font-family="Helvetica,sans-Serif" font-size="10.00"> </text>
<polyline fill="none" stroke="#bfbfbf" points="0,-677.5 94,-677.5 "/>
<text text-anchor="middle" x="47" y="-665.5" font-family="Helvetica,sans-Serif" font-size="10.00"> </text>
</a>
</g>
</g>
<!-- Node4&#45;&gt;Node3 -->
<g id="edge3" class="edge">
<title>Node4&#45;&gt;Node3</title>
<path fill="none" stroke="midnightblue" d="M56.23,-648.65C63.49,-619.23 74.12,-576.22 84.62,-533.71"/>
<polygon fill="none" stroke="midnightblue" points="52.8,-647.92 53.8,-658.47 59.6,-649.6 52.8,-647.92"/>
</g>
<!-- Node5 -->
<g id="node5" class="node">
<title>Node5</title>
<g id="a_node5"><a xlink:title=" ">
<polygon fill="white" stroke="#bfbfbf" points="112.5,-658.5 112.5,-715.5 155.5,-715.5 155.5,-658.5 112.5,-658.5"/>
<text text-anchor="middle" x="134" y="-703.5" font-family="Helvetica,sans-Serif" font-size="10.00">const</text>
<polyline fill="none" stroke="#bfbfbf" points="112.5,-696.5 155.5,-696.5 "/>
<text text-anchor="middle" x="134" y="-684.5" font-family="Helvetica,sans-Serif" font-size="10.00"> </text>
<polyline fill="none" stroke="#bfbfbf" points="112.5,-677.5 155.5,-677.5 "/>
<text text-anchor="middle" x="134" y="-665.5" font-family="Helvetica,sans-Serif" font-size="10.00"> </text>
</a>
</g>
</g>
<!-- Node5&#45;&gt;Node3 -->
<g id="edge4" class="edge">
<title>Node5&#45;&gt;Node3</title>
<path fill="none" stroke="#404040" d="M132.7,-658.47C131.44,-631.88 129.42,-589.37 127.37,-545.97"/>
<polygon fill="none" stroke="#404040" points="127.35,-545.7 123.07,-539.9 126.79,-533.71 131.06,-539.52 127.35,-545.7"/>
<text text-anchor="middle" x="198" y="-621" font-family="Helvetica,sans-Serif" font-size="10.00"> +TAG_BLOCK_ENTITY_TAG</text>
<text text-anchor="middle" x="198" y="-610" font-family="Helvetica,sans-Serif" font-size="10.00">+TAG_DISPLAY</text>
<text text-anchor="middle" x="198" y="-599" font-family="Helvetica,sans-Serif" font-size="10.00">+TAG_DISPLAY_LORE</text>
<text text-anchor="middle" x="198" y="-588" font-family="Helvetica,sans-Serif" font-size="10.00">+TAG_DISPLAY_NAME</text>
<text text-anchor="middle" x="198" y="-577" font-family="Helvetica,sans-Serif" font-size="10.00">+TAG_ENCH</text>
<text text-anchor="middle" x="198" y="-566" font-family="Helvetica,sans-Serif" font-size="10.00">+TAG_KEEP_ON_DEATH</text>
<text text-anchor="middle" x="198" y="-555" font-family="Helvetica,sans-Serif" font-size="10.00">+TAG_SLOT</text>
</g>
<!-- Node6 -->
<g id="node6" class="node">
<title>Node6</title>
<g id="a_node6"><a xlink:href="../../de/d44/interfacepocketmine_1_1item_1_1_food_source_item.html" target="_top" xlink:title=" ">
<polygon fill="white" stroke="#bfbfbf" points="217.5,-361 217.5,-418 398.5,-418 398.5,-361 217.5,-361"/>
<text text-anchor="middle" x="308" y="-406" font-family="Helvetica,sans-Serif" font-size="10.00">pocketmine\item\FoodSourceItem</text>
<polyline fill="none" stroke="#bfbfbf" points="217.5,-399 398.5,-399 "/>
<text text-anchor="middle" x="308" y="-387" font-family="Helvetica,sans-Serif" font-size="10.00"> </text>
<polyline fill="none" stroke="#bfbfbf" points="217.5,-380 398.5,-380 "/>
<text text-anchor="middle" x="308" y="-368" font-family="Helvetica,sans-Serif" font-size="10.00"> </text>
</a>
</g>
</g>
<!-- Node6&#45;&gt;Node2 -->
<g id="edge5" class="edge">
<title>Node6&#45;&gt;Node2</title>
<path fill="none" stroke="midnightblue" d="M292.67,-351.29C276.6,-312.31 251.27,-250.86 233.5,-207.74"/>
<polygon fill="none" stroke="midnightblue" points="289.49,-352.78 296.54,-360.7 295.97,-350.12 289.49,-352.78"/>
</g>
<!-- Node7 -->
<g id="node7" class="node">
<title>Node7</title>
<g id="a_node7"><a xlink:href="../../d2/de2/interfacepocketmine_1_1item_1_1_consumable_item.html" target="_top" xlink:title=" ">
<polygon fill="white" stroke="black" points="376.5,-658.5 376.5,-715.5 561.5,-715.5 561.5,-658.5 376.5,-658.5"/>
<text text-anchor="middle" x="469" y="-703.5" font-family="Helvetica,sans-Serif" font-size="10.00">pocketmine\item\ConsumableItem</text>
<polyline fill="none" stroke="black" points="376.5,-696.5 561.5,-696.5 "/>
<text text-anchor="middle" x="469" y="-684.5" font-family="Helvetica,sans-Serif" font-size="10.00"> </text>
<polyline fill="none" stroke="black" points="376.5,-677.5 561.5,-677.5 "/>
<text text-anchor="start" x="384.5" y="-665.5" font-family="Helvetica,sans-Serif" font-size="10.00">+ getResidue()</text>
</a>
</g>
</g>
<!-- Node7&#45;&gt;Node6 -->
<g id="edge6" class="edge">
<title>Node7&#45;&gt;Node6</title>
<path fill="none" stroke="midnightblue" d="M449.03,-649.35C416.35,-589.37 352.16,-471.55 323.02,-418.07"/>
<polygon fill="none" stroke="midnightblue" points="446.14,-651.36 454,-658.47 452.29,-648.01 446.14,-651.36"/>
</g>
<!-- Node8 -->
<g id="node8" class="node">
<title>Node8</title>
<g id="a_node8"><a xlink:href="../../db/d3f/interfacepocketmine_1_1entity_1_1_consumable.html" target="_top" xlink:title=" ">
<polygon fill="white" stroke="black" points="200.5,-764.5 200.5,-832.5 369.5,-832.5 369.5,-764.5 200.5,-764.5"/>
<text text-anchor="middle" x="285" y="-820.5" font-family="Helvetica,sans-Serif" font-size="10.00">pocketmine\entity\Consumable</text>
<polyline fill="none" stroke="black" points="200.5,-813.5 369.5,-813.5 "/>
<text text-anchor="middle" x="285" y="-801.5" font-family="Helvetica,sans-Serif" font-size="10.00"> </text>
<polyline fill="none" stroke="black" points="200.5,-794.5 369.5,-794.5 "/>
<text text-anchor="start" x="208.5" y="-782.5" font-family="Helvetica,sans-Serif" font-size="10.00">+ getAdditionalEffects()</text>
<text text-anchor="start" x="208.5" y="-771.5" font-family="Helvetica,sans-Serif" font-size="10.00">+ onConsume()</text>
</a>
</g>
</g>
<!-- Node8&#45;&gt;Node7 -->
<g id="edge7" class="edge">
<title>Node8&#45;&gt;Node7</title>
<path fill="none" stroke="midnightblue" d="M349.47,-759.14C373.63,-744.76 400.58,-728.72 422.77,-715.51"/>
<polygon fill="none" stroke="midnightblue" points="347.51,-756.23 340.71,-764.35 351.09,-762.24 347.51,-756.23"/>
</g>
<!-- Node10 -->
<g id="node10" class="node">
<title>Node10</title>
<g id="a_node10"><a xlink:href="../../df/dfd/interfacepocketmine_1_1entity_1_1_food_source.html" target="_top" xlink:title=" ">
<polygon fill="white" stroke="black" points="194,-647.5 194,-726.5 358,-726.5 358,-647.5 194,-647.5"/>
<text text-anchor="middle" x="276" y="-714.5" font-family="Helvetica,sans-Serif" font-size="10.00">pocketmine\entity\FoodSource</text>
<polyline fill="none" stroke="black" points="194,-707.5 358,-707.5 "/>
<text text-anchor="middle" x="276" y="-695.5" font-family="Helvetica,sans-Serif" font-size="10.00"> </text>
<polyline fill="none" stroke="black" points="194,-688.5 358,-688.5 "/>
<text text-anchor="start" x="202" y="-676.5" font-family="Helvetica,sans-Serif" font-size="10.00">+ getFoodRestore()</text>
<text text-anchor="start" x="202" y="-665.5" font-family="Helvetica,sans-Serif" font-size="10.00">+ getSaturationRestore()</text>
<text text-anchor="start" x="202" y="-654.5" font-family="Helvetica,sans-Serif" font-size="10.00">+ requiresHunger()</text>
</a>
</g>
</g>
<!-- Node8&#45;&gt;Node10 -->
<g id="edge10" class="edge">
<title>Node8&#45;&gt;Node10</title>
<path fill="none" stroke="midnightblue" d="M281.45,-754.34C280.71,-745.25 279.92,-735.72 279.19,-726.81"/>
<polygon fill="none" stroke="midnightblue" points="277.97,-754.67 282.28,-764.35 284.94,-754.1 277.97,-754.67"/>
</g>
<!-- Node9 -->
<g id="node9" class="node">
<title>Node9</title>
<g id="a_node9"><a xlink:href="../../d4/d35/interfacepocketmine_1_1item_1_1_releasable.html" target="_top" xlink:title=" ">
<polygon fill="white" stroke="black" points="391,-770 391,-827 547,-827 547,-770 391,-770"/>
<text text-anchor="middle" x="469" y="-815" font-family="Helvetica,sans-Serif" font-size="10.00">pocketmine\item\Releasable</text>
<polyline fill="none" stroke="black" points="391,-808 547,-808 "/>
<text text-anchor="middle" x="469" y="-796" font-family="Helvetica,sans-Serif" font-size="10.00"> </text>
<polyline fill="none" stroke="black" points="391,-789 547,-789 "/>
<text text-anchor="start" x="399" y="-777" font-family="Helvetica,sans-Serif" font-size="10.00">+ canStartUsingItem()</text>
</a>
</g>
</g>
<!-- Node9&#45;&gt;Node7 -->
<g id="edge8" class="edge">
<title>Node9&#45;&gt;Node7</title>
<path fill="none" stroke="midnightblue" d="M469,-759.7C469,-745.22 469,-728.98 469,-715.62"/>
<polygon fill="none" stroke="midnightblue" points="465.5,-759.87 469,-769.87 472.5,-759.87 465.5,-759.87"/>
</g>
<!-- Node10&#45;&gt;Node6 -->
<g id="edge9" class="edge">
<title>Node10&#45;&gt;Node6</title>
<path fill="none" stroke="midnightblue" d="M281.27,-637.35C288.04,-574.79 299.58,-468.26 305.01,-418.13"/>
<polygon fill="none" stroke="midnightblue" points="277.78,-637.05 280.18,-647.37 284.74,-637.8 277.78,-637.05"/>
</g>
</g>
</svg>
