<?xml version="1.0" encoding="UTF-8" standalone="no"?>
<!DOCTYPE svg PUBLIC "-//W3C//DTD SVG 1.1//EN"
 "http://www.w3.org/Graphics/SVG/1.1/DTD/svg11.dtd">
<!-- Generated by graphviz version 2.43.0 (0)
 -->
<!-- Title: pocketmine\network\mcpe\protocol\MoveActorAbsolutePacket Pages: 1 -->
<svg width="479pt" height="747pt"
 viewBox="0.00 0.00 478.50 747.00" xmlns="http://www.w3.org/2000/svg" xmlns:xlink="http://www.w3.org/1999/xlink">
<g id="graph0" class="graph" transform="scale(1 1) rotate(0) translate(4 743)">
<title>pocketmine\network\mcpe\protocol\MoveActorAbsolutePacket</title>
<!-- Node1 -->
<g id="Node000001" class="node">
<title>Node1</title>
<g id="a_Node000001"><a xlink:title=" ">
<polygon fill="#999999" stroke="transparent" points="322.5,-277 140.5,-277 140.5,0 322.5,0 322.5,-277"/>
<text text-anchor="start" x="145.5" y="-264.5" font-family="Helvetica,sans-Serif" font-size="10.00">pocketmine\network</text>
<text text-anchor="start" x="145.5" y="-253.5" font-family="Helvetica,sans-Serif" font-size="10.00">\mcpe\protocol\MoveActorAbsolute</text>
<text text-anchor="start" x="215.5" y="-242.5" font-family="Helvetica,sans-Serif" font-size="10.00">Packet</text>
<text text-anchor="start" x="150.5" y="-227.5" font-family="Helvetica,sans-Serif" font-size="10.00">+</text>
<text text-anchor="start" x="169.5" y="-227.5" font-family="Helvetica,sans-Serif" font-size="10.00">$actorRuntimeId</text>
<text text-anchor="start" x="150.5" y="-212.5" font-family="Helvetica,sans-Serif" font-size="10.00">+</text>
<text text-anchor="start" x="169.5" y="-212.5" font-family="Helvetica,sans-Serif" font-size="10.00">$flags</text>
<text text-anchor="start" x="150.5" y="-197.5" font-family="Helvetica,sans-Serif" font-size="10.00">+</text>
<text text-anchor="start" x="169.5" y="-197.5" font-family="Helvetica,sans-Serif" font-size="10.00">$headYaw</text>
<text text-anchor="start" x="150.5" y="-182.5" font-family="Helvetica,sans-Serif" font-size="10.00">+</text>
<text text-anchor="start" x="169.5" y="-182.5" font-family="Helvetica,sans-Serif" font-size="10.00">$pitch</text>
<text text-anchor="start" x="150.5" y="-167.5" font-family="Helvetica,sans-Serif" font-size="10.00">+</text>
<text text-anchor="start" x="169.5" y="-167.5" font-family="Helvetica,sans-Serif" font-size="10.00">$position</text>
<text text-anchor="start" x="150.5" y="-152.5" font-family="Helvetica,sans-Serif" font-size="10.00">+</text>
<text text-anchor="start" x="169.5" y="-152.5" font-family="Helvetica,sans-Serif" font-size="10.00">$yaw</text>
<text text-anchor="start" x="150.5" y="-137.5" font-family="Helvetica,sans-Serif" font-size="10.00">+</text>
<text text-anchor="start" x="169.5" y="-137.5" font-family="Helvetica,sans-Serif" font-size="10.00">FLAG_FORCE_COMPLETION</text>
<text text-anchor="start" x="150.5" y="-122.5" font-family="Helvetica,sans-Serif" font-size="10.00">+</text>
<text text-anchor="start" x="169.5" y="-122.5" font-family="Helvetica,sans-Serif" font-size="10.00">FLAG_FORCE_MOVE_LOCAL</text>
<text text-anchor="start" x="169.5" y="-111.5" font-family="Helvetica,sans-Serif" font-size="10.00">_ENTITY</text>
<text text-anchor="start" x="150.5" y="-96.5" font-family="Helvetica,sans-Serif" font-size="10.00">+</text>
<text text-anchor="start" x="169.5" y="-96.5" font-family="Helvetica,sans-Serif" font-size="10.00">FLAG_GROUND</text>
<text text-anchor="start" x="150.5" y="-81.5" font-family="Helvetica,sans-Serif" font-size="10.00">+</text>
<text text-anchor="start" x="169.5" y="-81.5" font-family="Helvetica,sans-Serif" font-size="10.00">FLAG_TELEPORT</text>
<text text-anchor="start" x="150.5" y="-66.5" font-family="Helvetica,sans-Serif" font-size="10.00">+</text>
<text text-anchor="start" x="169.5" y="-66.5" font-family="Helvetica,sans-Serif" font-size="10.00">NETWORK_ID</text>
<text text-anchor="start" x="150.5" y="-51.5" font-family="Helvetica,sans-Serif" font-size="10.00">+</text>
<text text-anchor="start" x="169.5" y="-51.5" font-family="Helvetica,sans-Serif" font-size="10.00">handle()</text>
<text text-anchor="start" x="150.5" y="-36.5" font-family="Helvetica,sans-Serif" font-size="10.00">+</text>
<text text-anchor="start" x="169.5" y="-36.5" font-family="Helvetica,sans-Serif" font-size="10.00">create()</text>
<text text-anchor="start" x="150.5" y="-21.5" font-family="Helvetica,sans-Serif" font-size="10.00">#</text>
<text text-anchor="start" x="169.5" y="-21.5" font-family="Helvetica,sans-Serif" font-size="10.00">decodePayload()</text>
<text text-anchor="start" x="150.5" y="-6.5" font-family="Helvetica,sans-Serif" font-size="10.00">#</text>
<text text-anchor="start" x="169.5" y="-6.5" font-family="Helvetica,sans-Serif" font-size="10.00">encodePayload()</text>
<polygon fill="#666666" stroke="#666666" points="140.5,-237.5 140.5,-237.5 322.5,-237.5 322.5,-237.5 140.5,-237.5"/>
<polygon fill="#666666" stroke="#666666" points="140.5,-61.5 140.5,-61.5 167.5,-61.5 167.5,-61.5 140.5,-61.5"/>
<polygon fill="#666666" stroke="#666666" points="167.5,-61.5 167.5,-61.5 322.5,-61.5 322.5,-61.5 167.5,-61.5"/>
<polygon fill="none" stroke="#666666" points="140.5,0 140.5,-277 322.5,-277 322.5,0 140.5,0"/>
</a>
</g>
</g>
<!-- Node2 -->
<g id="Node000002" class="node">
<title>Node2</title>
<g id="a_Node000002"><a xlink:href="../../d1/ddb/classpocketmine_1_1network_1_1mcpe_1_1protocol_1_1_data_packet.html" target="_top" xlink:title=" ">
<polygon fill="white" stroke="transparent" points="141,-568 0,-568 0,-313 141,-313 141,-568"/>
<text text-anchor="start" x="5.5" y="-555.5" font-family="Helvetica,sans-Serif" font-size="10.00">pocketmine\network</text>
<text text-anchor="start" x="5.5" y="-544.5" font-family="Helvetica,sans-Serif" font-size="10.00">\mcpe\protocol\DataPacket</text>
<text text-anchor="start" x="5" y="-529.5" font-family="Helvetica,sans-Serif" font-size="10.00">+</text>
<text text-anchor="start" x="18.5" y="-529.5" font-family="Helvetica,sans-Serif" font-size="10.00">$recipientSubId</text>
<text text-anchor="start" x="5" y="-514.5" font-family="Helvetica,sans-Serif" font-size="10.00">+</text>
<text text-anchor="start" x="18.5" y="-514.5" font-family="Helvetica,sans-Serif" font-size="10.00">$senderSubId</text>
<text text-anchor="start" x="5" y="-499.5" font-family="Helvetica,sans-Serif" font-size="10.00">+</text>
<text text-anchor="start" x="18.5" y="-499.5" font-family="Helvetica,sans-Serif" font-size="10.00">NETWORK_ID</text>
<text text-anchor="start" x="5" y="-484.5" font-family="Helvetica,sans-Serif" font-size="10.00">+</text>
<text text-anchor="start" x="18.5" y="-484.5" font-family="Helvetica,sans-Serif" font-size="10.00">PID_MASK</text>
<text text-anchor="start" x="5" y="-469.5" font-family="Helvetica,sans-Serif" font-size="10.00">+</text>
<text text-anchor="start" x="18.5" y="-469.5" font-family="Helvetica,sans-Serif" font-size="10.00">__get()</text>
<text text-anchor="start" x="5" y="-454.5" font-family="Helvetica,sans-Serif" font-size="10.00">+</text>
<text text-anchor="start" x="18.5" y="-454.5" font-family="Helvetica,sans-Serif" font-size="10.00">__set()</text>
<text text-anchor="start" x="5" y="-439.5" font-family="Helvetica,sans-Serif" font-size="10.00">+</text>
<text text-anchor="start" x="18.5" y="-439.5" font-family="Helvetica,sans-Serif" font-size="10.00">canBeSentBeforeLogin()</text>
<text text-anchor="start" x="5" y="-424.5" font-family="Helvetica,sans-Serif" font-size="10.00">+</text>
<text text-anchor="start" x="18.5" y="-424.5" font-family="Helvetica,sans-Serif" font-size="10.00">decode()</text>
<text text-anchor="start" x="5" y="-409.5" font-family="Helvetica,sans-Serif" font-size="10.00">+</text>
<text text-anchor="start" x="18.5" y="-409.5" font-family="Helvetica,sans-Serif" font-size="10.00">encode()</text>
<text text-anchor="start" x="5" y="-394.5" font-family="Helvetica,sans-Serif" font-size="10.00">+</text>
<text text-anchor="start" x="18.5" y="-394.5" font-family="Helvetica,sans-Serif" font-size="10.00">getName()</text>
<text text-anchor="start" x="5" y="-379.5" font-family="Helvetica,sans-Serif" font-size="10.00">+</text>
<text text-anchor="start" x="18.5" y="-379.5" font-family="Helvetica,sans-Serif" font-size="10.00">pid()</text>
<text text-anchor="start" x="5" y="-364.5" font-family="Helvetica,sans-Serif" font-size="10.00">#</text>
<text text-anchor="start" x="18.5" y="-364.5" font-family="Helvetica,sans-Serif" font-size="10.00">decodeHeader()</text>
<text text-anchor="start" x="5" y="-349.5" font-family="Helvetica,sans-Serif" font-size="10.00">#</text>
<text text-anchor="start" x="18.5" y="-349.5" font-family="Helvetica,sans-Serif" font-size="10.00">decodePayload()</text>
<text text-anchor="start" x="5" y="-334.5" font-family="Helvetica,sans-Serif" font-size="10.00">#</text>
<text text-anchor="start" x="18.5" y="-334.5" font-family="Helvetica,sans-Serif" font-size="10.00">encodeHeader()</text>
<text text-anchor="start" x="5" y="-319.5" font-family="Helvetica,sans-Serif" font-size="10.00">#</text>
<text text-anchor="start" x="18.5" y="-319.5" font-family="Helvetica,sans-Serif" font-size="10.00">encodePayload()</text>
<polygon fill="#bfbfbf" stroke="#bfbfbf" points="0.5,-539.5 0.5,-539.5 141.5,-539.5 141.5,-539.5 0.5,-539.5"/>
<polygon fill="#bfbfbf" stroke="#bfbfbf" points="0.5,-479.5 0.5,-479.5 16.5,-479.5 16.5,-479.5 0.5,-479.5"/>
<polygon fill="#bfbfbf" stroke="#bfbfbf" points="16.5,-479.5 16.5,-479.5 141.5,-479.5 141.5,-479.5 16.5,-479.5"/>
<polygon fill="none" stroke="#bfbfbf" points="0,-313 0,-568 141,-568 141,-313 0,-313"/>
</a>
</g>
</g>
<!-- Node2&#45;&gt;Node1 -->
<g id="edge1_Node000001_Node000002" class="edge">
<title>Node2&#45;&gt;Node1</title>
<g id="a_edge1_Node000001_Node000002"><a xlink:title=" ">
<path fill="none" stroke="#63b8ff" d="M143.41,-303.65C148.09,-294.92 152.81,-286.13 157.49,-277.4"/>
<polygon fill="none" stroke="#63b8ff" points="140.19,-302.24 138.55,-312.71 146.36,-305.55 140.19,-302.24"/>
</a>
</g>
</g>
<!-- Node3 -->
<g id="Node000003" class="node">
<title>Node3</title>
<g id="a_Node000003"><a xlink:href="../../d4/d5d/interfacepocketmine_1_1network_1_1mcpe_1_1protocol_1_1_packet.html" target="_top" xlink:title=" ">
<polygon fill="white" stroke="transparent" points="301,-739 162,-739 162,-604 301,-604 301,-739"/>
<text text-anchor="start" x="178" y="-726.5" font-family="Helvetica,sans-Serif" font-size="10.00">pocketmine\network</text>
<text text-anchor="start" x="178" y="-715.5" font-family="Helvetica,sans-Serif" font-size="10.00">\mcpe\protocol\Packet</text>
<text text-anchor="start" x="230" y="-700.5" font-family="Helvetica,sans-Serif" font-size="10.00"> </text>
<text text-anchor="start" x="166.5" y="-685.5" font-family="Helvetica,sans-Serif" font-size="10.00">+</text>
<text text-anchor="start" x="179.5" y="-685.5" font-family="Helvetica,sans-Serif" font-size="10.00">canBeSentBeforeLogin()</text>
<text text-anchor="start" x="166.5" y="-670.5" font-family="Helvetica,sans-Serif" font-size="10.00">+</text>
<text text-anchor="start" x="179.5" y="-670.5" font-family="Helvetica,sans-Serif" font-size="10.00">decode()</text>
<text text-anchor="start" x="166.5" y="-655.5" font-family="Helvetica,sans-Serif" font-size="10.00">+</text>
<text text-anchor="start" x="179.5" y="-655.5" font-family="Helvetica,sans-Serif" font-size="10.00">encode()</text>
<text text-anchor="start" x="166.5" y="-640.5" font-family="Helvetica,sans-Serif" font-size="10.00">+</text>
<text text-anchor="start" x="179.5" y="-640.5" font-family="Helvetica,sans-Serif" font-size="10.00">getName()</text>
<text text-anchor="start" x="166.5" y="-625.5" font-family="Helvetica,sans-Serif" font-size="10.00">+</text>
<text text-anchor="start" x="179.5" y="-625.5" font-family="Helvetica,sans-Serif" font-size="10.00">handle()</text>
<text text-anchor="start" x="166.5" y="-610.5" font-family="Helvetica,sans-Serif" font-size="10.00">+</text>
<text text-anchor="start" x="179.5" y="-610.5" font-family="Helvetica,sans-Serif" font-size="10.00">pid()</text>
<polygon fill="#bfbfbf" stroke="#bfbfbf" points="162.5,-710.5 162.5,-710.5 301.5,-710.5 301.5,-710.5 162.5,-710.5"/>
<polygon fill="#bfbfbf" stroke="#bfbfbf" points="162.5,-695.5 162.5,-695.5 301.5,-695.5 301.5,-695.5 162.5,-695.5"/>
<polygon fill="none" stroke="#bfbfbf" points="162,-604 162,-739 301,-739 301,-604 162,-604"/>
</a>
</g>
</g>
<!-- Node3&#45;&gt;Node2 -->
<g id="edge2_Node000002_Node000003" class="edge">
<title>Node3&#45;&gt;Node2</title>
<g id="a_edge2_Node000002_Node000003"><a xlink:title=" ">
<path fill="none" stroke="#63b8ff" d="M170.08,-595.76C162.98,-586.53 155.97,-577.13 149.5,-568 146.73,-564.09 143.95,-560.09 141.17,-556.02"/>
<polygon fill="none" stroke="#63b8ff" points="167.43,-598.06 176.33,-603.82 172.96,-593.77 167.43,-598.06"/>
</a>
</g>
</g>
<!-- Node4 -->
<g id="Node000004" class="node">
<title>Node4</title>
<g id="a_Node000004"><a xlink:href="../../da/d77/interfacepocketmine_1_1network_1_1mcpe_1_1protocol_1_1_clientbound_packet.html" target="_top" xlink:title=" ">
<polygon fill="white" stroke="transparent" points="304,-476 159,-476 159,-405 304,-405 304,-476"/>
<text text-anchor="start" x="164.5" y="-463.5" font-family="Helvetica,sans-Serif" font-size="10.00">pocketmine\network</text>
<text text-anchor="start" x="164.5" y="-452.5" font-family="Helvetica,sans-Serif" font-size="10.00">\mcpe\protocol\Clientbound</text>
<text text-anchor="start" x="216" y="-441.5" font-family="Helvetica,sans-Serif" font-size="10.00">Packet</text>
<text text-anchor="start" x="230" y="-426.5" font-family="Helvetica,sans-Serif" font-size="10.00"> </text>
<text text-anchor="start" x="230" y="-411.5" font-family="Helvetica,sans-Serif" font-size="10.00"> </text>
<polygon fill="#bfbfbf" stroke="#bfbfbf" points="159.5,-436.5 159.5,-436.5 304.5,-436.5 304.5,-436.5 159.5,-436.5"/>
<polygon fill="#bfbfbf" stroke="#bfbfbf" points="159.5,-421.5 159.5,-421.5 304.5,-421.5 304.5,-421.5 159.5,-421.5"/>
<polygon fill="none" stroke="#bfbfbf" points="159,-405 159,-476 304,-476 304,-405 159,-405"/>
</a>
</g>
</g>
<!-- Node3&#45;&gt;Node4 -->
<g id="edge4_Node000004_Node000003" class="edge">
<title>Node3&#45;&gt;Node4</title>
<g id="a_edge4_Node000004_Node000003"><a xlink:title=" ">
<path fill="none" stroke="#63b8ff" d="M231.5,-593.71C231.5,-553.84 231.5,-507.09 231.5,-476.03"/>
<polygon fill="none" stroke="#63b8ff" points="228,-593.96 231.5,-603.96 235,-593.96 228,-593.96"/>
</a>
</g>
</g>
<!-- Node5 -->
<g id="Node000005" class="node">
<title>Node5</title>
<g id="a_Node000005"><a xlink:href="../../dd/de6/interfacepocketmine_1_1network_1_1mcpe_1_1protocol_1_1_serverbound_packet.html" target="_top" xlink:title=" ">
<polygon fill="white" stroke="transparent" points="470.5,-476 322.5,-476 322.5,-405 470.5,-405 470.5,-476"/>
<text text-anchor="start" x="327.5" y="-463.5" font-family="Helvetica,sans-Serif" font-size="10.00">pocketmine\network</text>
<text text-anchor="start" x="327.5" y="-452.5" font-family="Helvetica,sans-Serif" font-size="10.00">\mcpe\protocol\Serverbound</text>
<text text-anchor="start" x="380.5" y="-441.5" font-family="Helvetica,sans-Serif" font-size="10.00">Packet</text>
<text text-anchor="start" x="394.5" y="-426.5" font-family="Helvetica,sans-Serif" font-size="10.00"> </text>
<text text-anchor="start" x="394.5" y="-411.5" font-family="Helvetica,sans-Serif" font-size="10.00"> </text>
<polygon fill="#bfbfbf" stroke="#bfbfbf" points="322.5,-436.5 322.5,-436.5 470.5,-436.5 470.5,-436.5 322.5,-436.5"/>
<polygon fill="#bfbfbf" stroke="#bfbfbf" points="322.5,-421.5 322.5,-421.5 470.5,-421.5 470.5,-421.5 322.5,-421.5"/>
<polygon fill="none" stroke="#bfbfbf" points="322.5,-405 322.5,-476 470.5,-476 470.5,-405 322.5,-405"/>
</a>
</g>
</g>
<!-- Node3&#45;&gt;Node5 -->
<g id="edge6_Node000005_Node000003" class="edge">
<title>Node3&#45;&gt;Node5</title>
<g id="a_edge6_Node000005_Node000003"><a xlink:title=" ">
<path fill="none" stroke="#63b8ff" d="M292.56,-595.84C299.75,-586.56 306.88,-577.13 313.5,-568 335.48,-537.7 358.71,-501.94 374.98,-476.18"/>
<polygon fill="none" stroke="#63b8ff" points="289.63,-593.9 286.23,-603.94 295.15,-598.21 289.63,-593.9"/>
</a>
</g>
</g>
<!-- Node4&#45;&gt;Node1 -->
<g id="edge3_Node000001_Node000004" class="edge">
<title>Node4&#45;&gt;Node1</title>
<g id="a_edge3_Node000001_Node000004"><a xlink:title=" ">
<path fill="none" stroke="#63b8ff" d="M231.5,-394.65C231.5,-363.27 231.5,-319.55 231.5,-277.16"/>
<polygon fill="none" stroke="#63b8ff" points="228,-394.79 231.5,-404.79 235,-394.79 228,-394.79"/>
</a>
</g>
</g>
<!-- Node5&#45;&gt;Node1 -->
<g id="edge5_Node000001_Node000005" class="edge">
<title>Node5&#45;&gt;Node1</title>
<g id="a_edge5_Node000001_Node000005"><a xlink:title=" ">
<path fill="none" stroke="#63b8ff" d="M372.5,-395.87C355.2,-364.41 330.83,-320.11 307.21,-277.16"/>
<polygon fill="none" stroke="#63b8ff" points="369.53,-397.72 377.41,-404.79 375.66,-394.34 369.53,-397.72"/>
</a>
</g>
</g>
</g>
</svg>
