<?xml version="1.0" encoding="UTF-8" standalone="no"?>
<!DOCTYPE svg PUBLIC "-//W3C//DTD SVG 1.1//EN"
 "http://www.w3.org/Graphics/SVG/1.1/DTD/svg11.dtd">
<!-- Generated by graphviz version 2.43.0 (0)
 -->
<!-- Title: pocketmine\utils\Utils\validateCallableSignature Pages: 1 -->
<svg width="354pt" height="210pt"
 viewBox="0.00 0.00 354.00 209.50" xmlns="http://www.w3.org/2000/svg" xmlns:xlink="http://www.w3.org/1999/xlink">
<g id="graph0" class="graph" transform="scale(1 1) rotate(0) translate(4 205.5)">
<title>pocketmine\utils\Utils\validateCallableSignature</title>
<polygon fill="white" stroke="transparent" points="-4,4 -4,-205.5 350,-205.5 350,4 -4,4"/>
<!-- Node1 -->
<g id="node1" class="node">
<title>Node1</title>
<g id="a_node1"><a xlink:title=" ">
<polygon fill="#bfbfbf" stroke="black" points="200,-82.5 200,-112.5 346,-112.5 346,-82.5 200,-82.5"/>
<text text-anchor="start" x="208" y="-100.5" font-family="Helvetica,sans-Serif" font-size="10.00">pocketmine\utils\Utils</text>
<text text-anchor="middle" x="273" y="-89.5" font-family="Helvetica,sans-Serif" font-size="10.00">\validateCallableSignature</text>
</a>
</g>
</g>
<!-- Node2 -->
<g id="node2" class="node">
<title>Node2</title>
<g id="a_node2"><a xlink:href="../../da/d3b/classpocketmine_1_1inventory_1_1_callback_inventory_listener.html#aaf25dc815b73b8a72b024084f66682ed" target="_top" xlink:title=" ">
<polygon fill="white" stroke="black" points="8.5,-160 8.5,-201 155.5,-201 155.5,-160 8.5,-160"/>
<text text-anchor="start" x="16.5" y="-189" font-family="Helvetica,sans-Serif" font-size="10.00">pocketmine\inventory</text>
<text text-anchor="start" x="16.5" y="-178" font-family="Helvetica,sans-Serif" font-size="10.00">\CallbackInventoryListener</text>
<text text-anchor="middle" x="82" y="-167" font-family="Helvetica,sans-Serif" font-size="10.00">\__construct</text>
</a>
</g>
</g>
<!-- Node1&#45;&gt;Node2 -->
<g id="edge1" class="edge">
<title>Node1&#45;&gt;Node2</title>
<path fill="none" stroke="midnightblue" d="M234.02,-117.31C213.52,-127.71 187.63,-140.36 164,-150.5 156.56,-153.69 148.65,-156.88 140.81,-159.91"/>
<polygon fill="midnightblue" stroke="midnightblue" points="235.72,-120.37 243.04,-112.71 232.54,-114.14 235.72,-120.37"/>
</g>
<!-- Node3 -->
<g id="node3" class="node">
<title>Node3</title>
<g id="a_node3"><a xlink:href="../../d3/df3/classpocketmine_1_1scheduler_1_1_closure_task.html#a48a27d1813e7cfb1ed1dbef63cd382af" target="_top" xlink:title=" ">
<polygon fill="white" stroke="black" points="13.5,-110.5 13.5,-140.5 150.5,-140.5 150.5,-110.5 13.5,-110.5"/>
<text text-anchor="start" x="21.5" y="-128.5" font-family="Helvetica,sans-Serif" font-size="10.00">pocketmine\scheduler</text>
<text text-anchor="middle" x="82" y="-117.5" font-family="Helvetica,sans-Serif" font-size="10.00">\ClosureTask\__construct</text>
</a>
</g>
</g>
<!-- Node1&#45;&gt;Node3 -->
<g id="edge2" class="edge">
<title>Node1&#45;&gt;Node3</title>
<path fill="none" stroke="midnightblue" d="M189.8,-109.68C176.7,-111.62 163.27,-113.61 150.56,-115.49"/>
<polygon fill="midnightblue" stroke="midnightblue" points="190.36,-113.13 199.74,-108.21 189.33,-106.21 190.36,-113.13"/>
</g>
<!-- Node4 -->
<g id="node4" class="node">
<title>Node4</title>
<g id="a_node4"><a xlink:href="../../d4/d17/classpocketmine_1_1network_1_1mcpe_1_1compression_1_1_compress_batch_promise.html#a446ee9d5b4c8a4ae9359e73c0464f51a" target="_top" xlink:title=" ">
<polygon fill="white" stroke="black" points="0,-50 0,-91 164,-91 164,-50 0,-50"/>
<text text-anchor="start" x="8" y="-79" font-family="Helvetica,sans-Serif" font-size="10.00">pocketmine\network</text>
<text text-anchor="start" x="8" y="-68" font-family="Helvetica,sans-Serif" font-size="10.00">\mcpe\compression\Compress</text>
<text text-anchor="middle" x="82" y="-57" font-family="Helvetica,sans-Serif" font-size="10.00">BatchPromise\onResolve</text>
</a>
</g>
</g>
<!-- Node1&#45;&gt;Node4 -->
<g id="edge3" class="edge">
<title>Node1&#45;&gt;Node4</title>
<path fill="none" stroke="midnightblue" d="M189.79,-85.76C181.25,-84.54 172.58,-83.3 164.05,-82.08"/>
<polygon fill="midnightblue" stroke="midnightblue" points="189.34,-89.23 199.74,-87.18 190.33,-82.3 189.34,-89.23"/>
</g>
<!-- Node5 -->
<g id="node5" class="node">
<title>Node5</title>
<g id="a_node5"><a xlink:href="../../de/d36/classpocketmine_1_1entity_1_1_entity_factory.html#a32e3662dd391d53194a74c71e1dc52c7" target="_top" xlink:title=" ">
<polygon fill="white" stroke="black" points="13.5,-0.5 13.5,-30.5 150.5,-30.5 150.5,-0.5 13.5,-0.5"/>
<text text-anchor="start" x="21.5" y="-18.5" font-family="Helvetica,sans-Serif" font-size="10.00">pocketmine\entity\Entity</text>
<text text-anchor="middle" x="82" y="-7.5" font-family="Helvetica,sans-Serif" font-size="10.00">Factory\register</text>
</a>
</g>
</g>
<!-- Node1&#45;&gt;Node5 -->
<g id="edge4" class="edge">
<title>Node1&#45;&gt;Node5</title>
<path fill="none" stroke="midnightblue" d="M237.67,-77.27C216.83,-65.53 189.43,-51.03 164,-40.5 155.3,-36.9 145.88,-33.53 136.66,-30.51"/>
<polygon fill="midnightblue" stroke="midnightblue" points="236.05,-80.37 246.47,-82.28 239.51,-74.29 236.05,-80.37"/>
</g>
</g>
</svg>
