<?xml version="1.0" encoding="UTF-8" standalone="no"?>
<!DOCTYPE svg PUBLIC "-//W3C//DTD SVG 1.1//EN"
 "http://www.w3.org/Graphics/SVG/1.1/DTD/svg11.dtd">
<!-- Generated by graphviz version 2.43.0 (0)
 -->
<!-- Title: pocketmine\utils\Utils\validateCallableSignature Pages: 1 -->
<svg width="357pt" height="198pt"
 viewBox="0.00 0.00 357.00 197.50" xmlns="http://www.w3.org/2000/svg" xmlns:xlink="http://www.w3.org/1999/xlink">
<g id="graph0" class="graph" transform="scale(1 1) rotate(0) translate(4 193.5)">
<title>pocketmine\utils\Utils\validateCallableSignature</title>
<polygon fill="white" stroke="transparent" points="-4,4 -4,-193.5 353,-193.5 353,4 -4,4"/>
<!-- Node1 -->
<g id="node1" class="node">
<title>Node1</title>
<g id="a_node1"><a xlink:title=" ">
<polygon fill="#bfbfbf" stroke="black" points="203,-73.5 203,-103.5 349,-103.5 349,-73.5 203,-73.5"/>
<text text-anchor="start" x="211" y="-91.5" font-family="Helvetica,sans-Serif" font-size="10.00">pocketmine\utils\Utils</text>
<text text-anchor="middle" x="276" y="-80.5" font-family="Helvetica,sans-Serif" font-size="10.00">\validateCallableSignature</text>
</a>
</g>
</g>
<!-- Node2 -->
<g id="node2" class="node">
<title>Node2</title>
<g id="a_node2"><a xlink:href="../../da/d3b/classpocketmine_1_1inventory_1_1_callback_inventory_listener.html#aaf25dc815b73b8a72b024084f66682ed" target="_top" xlink:title=" ">
<polygon fill="white" stroke="black" points="10,-148 10,-189 157,-189 157,-148 10,-148"/>
<text text-anchor="start" x="18" y="-177" font-family="Helvetica,sans-Serif" font-size="10.00">pocketmine\inventory</text>
<text text-anchor="start" x="18" y="-166" font-family="Helvetica,sans-Serif" font-size="10.00">\CallbackInventoryListener</text>
<text text-anchor="middle" x="83.5" y="-155" font-family="Helvetica,sans-Serif" font-size="10.00">\__construct</text>
</a>
</g>
</g>
<!-- Node1&#45;&gt;Node2 -->
<g id="edge1" class="edge">
<title>Node1&#45;&gt;Node2</title>
<path fill="none" stroke="midnightblue" d="M234.91,-108.05C214.72,-117.64 189.76,-129.11 167,-138.5 159.25,-141.7 151.02,-144.9 142.88,-147.97"/>
<polygon fill="midnightblue" stroke="midnightblue" points="236.6,-111.12 244.12,-103.65 233.58,-104.8 236.6,-111.12"/>
</g>
<!-- Node3 -->
<g id="node3" class="node">
<title>Node3</title>
<g id="a_node3"><a xlink:href="../../d3/df3/classpocketmine_1_1scheduler_1_1_closure_task.html#a48a27d1813e7cfb1ed1dbef63cd382af" target="_top" xlink:title=" ">
<polygon fill="white" stroke="black" points="15,-98.5 15,-128.5 152,-128.5 152,-98.5 15,-98.5"/>
<text text-anchor="start" x="23" y="-116.5" font-family="Helvetica,sans-Serif" font-size="10.00">pocketmine\scheduler</text>
<text text-anchor="middle" x="83.5" y="-105.5" font-family="Helvetica,sans-Serif" font-size="10.00">\ClosureTask\__construct</text>
</a>
</g>
</g>
<!-- Node1&#45;&gt;Node3 -->
<g id="edge2" class="edge">
<title>Node1&#45;&gt;Node3</title>
<path fill="none" stroke="midnightblue" d="M192.73,-99.3C179.21,-101.07 165.33,-102.89 152.22,-104.61"/>
<polygon fill="midnightblue" stroke="midnightblue" points="193.52,-102.72 202.98,-97.95 192.61,-95.78 193.52,-102.72"/>
</g>
<!-- Node4 -->
<g id="node4" class="node">
<title>Node4</title>
<g id="a_node4"><a xlink:href="../../dd/d6c/classpocketmine_1_1item_1_1enchantment_1_1_enchantment.html#aaa47f90644d49c3d2273a878974acf72" target="_top" xlink:title=" ">
<polygon fill="white" stroke="black" points="0,-49.5 0,-79.5 167,-79.5 167,-49.5 0,-49.5"/>
<text text-anchor="start" x="8" y="-67.5" font-family="Helvetica,sans-Serif" font-size="10.00">pocketmine\item\enchantment</text>
<text text-anchor="middle" x="83.5" y="-56.5" font-family="Helvetica,sans-Serif" font-size="10.00">\Enchantment\__construct</text>
</a>
</g>
</g>
<!-- Node1&#45;&gt;Node4 -->
<g id="edge3" class="edge">
<title>Node1&#45;&gt;Node4</title>
<path fill="none" stroke="midnightblue" d="M193.01,-78.17C184.45,-77.09 175.74,-75.99 167.17,-74.91"/>
<polygon fill="midnightblue" stroke="midnightblue" points="192.62,-81.65 202.98,-79.43 193.5,-74.7 192.62,-81.65"/>
</g>
<!-- Node5 -->
<g id="node5" class="node">
<title>Node5</title>
<g id="a_node5"><a xlink:href="../../de/d36/classpocketmine_1_1entity_1_1_entity_factory.html#ae448ccecfa0baa549482369552b58ef4" target="_top" xlink:title=" ">
<polygon fill="white" stroke="black" points="15,-0.5 15,-30.5 152,-30.5 152,-0.5 15,-0.5"/>
<text text-anchor="start" x="23" y="-18.5" font-family="Helvetica,sans-Serif" font-size="10.00">pocketmine\entity\Entity</text>
<text text-anchor="middle" x="83.5" y="-7.5" font-family="Helvetica,sans-Serif" font-size="10.00">Factory\register</text>
</a>
</g>
</g>
<!-- Node1&#45;&gt;Node5 -->
<g id="edge4" class="edge">
<title>Node1&#45;&gt;Node5</title>
<path fill="none" stroke="midnightblue" d="M234.6,-69.12C214.52,-59.85 189.74,-48.96 167,-40.5 157.6,-37 147.47,-33.62 137.64,-30.54"/>
<polygon fill="midnightblue" stroke="midnightblue" points="233.22,-72.33 243.76,-73.38 236.18,-65.99 233.22,-72.33"/>
</g>
</g>
</svg>
