<?xml version="1.0" encoding="UTF-8" standalone="no"?>
<!DOCTYPE svg PUBLIC "-//W3C//DTD SVG 1.1//EN"
 "http://www.w3.org/Graphics/SVG/1.1/DTD/svg11.dtd">
<!-- Generated by graphviz version 2.43.0 (0)
 -->
<!-- Title: pocketmine\utils\Utils\getOS Pages: 1 -->
<svg width="501pt" height="49pt"
 viewBox="0.00 0.00 501.00 49.00" xmlns="http://www.w3.org/2000/svg" xmlns:xlink="http://www.w3.org/1999/xlink">
<g id="graph0" class="graph" transform="scale(1 1) rotate(0) translate(4 45)">
<title>pocketmine\utils\Utils\getOS</title>
<!-- Node1 -->
<g id="Node000001" class="node">
<title>Node1</title>
<g id="a_Node000001"><a xlink:title=" ">
<polygon fill="#999999" stroke="#666666" points="493,-35.5 370,-35.5 370,-5.5 493,-5.5 493,-35.5"/>
<text text-anchor="start" x="378" y="-23.5" font-family="Helvetica,sans-Serif" font-size="10.00">pocketmine\utils\Utils</text>
<text text-anchor="middle" x="431.5" y="-12.5" font-family="Helvetica,sans-Serif" font-size="10.00">\getOS</text>
</a>
</g>
</g>
<!-- Node2 -->
<g id="Node000002" class="node">
<title>Node2</title>
<g id="a_Node000002"><a xlink:href="../../d8/d9e/classpocketmine_1_1utils_1_1_process.html#abffaf0756ea0f94b647cc657d4a65d0f" target="_top" xlink:title=" ">
<polygon fill="white" stroke="#666666" points="334,-35.5 179,-35.5 179,-5.5 334,-5.5 334,-35.5"/>
<text text-anchor="start" x="187" y="-23.5" font-family="Helvetica,sans-Serif" font-size="10.00">pocketmine\utils\Process</text>
<text text-anchor="middle" x="256.5" y="-12.5" font-family="Helvetica,sans-Serif" font-size="10.00">\getAdvancedMemoryUsage</text>
</a>
</g>
</g>
<!-- Node1&#45;&gt;Node2 -->
<g id="edge1_Node000001_Node000002" class="edge">
<title>Node1&#45;&gt;Node2</title>
<g id="a_edge1_Node000001_Node000002"><a xlink:title=" ">
<path fill="none" stroke="#63b8ff" d="M359.79,-20.5C351.32,-20.5 342.64,-20.5 334.09,-20.5"/>
<polygon fill="#63b8ff" stroke="#63b8ff" points="359.99,-24 369.99,-20.5 359.99,-17 359.99,-24"/>
</a>
</g>
</g>
<!-- Node3 -->
<g id="Node000003" class="node">
<title>Node3</title>
<g id="a_Node000003"><a xlink:href="../../db/dce/classpocketmine_1_1command_1_1defaults_1_1_status_command.html#a6035ef8e759111b4574c4b0d2e1f8df0" target="_top" xlink:title=" ">
<polygon fill="white" stroke="#666666" points="143,-41 0,-41 0,0 143,0 143,-41"/>
<text text-anchor="start" x="8" y="-29" font-family="Helvetica,sans-Serif" font-size="10.00">pocketmine\command</text>
<text text-anchor="start" x="8" y="-18" font-family="Helvetica,sans-Serif" font-size="10.00">\defaults\StatusCommand</text>
<text text-anchor="middle" x="71.5" y="-7" font-family="Helvetica,sans-Serif" font-size="10.00">\execute</text>
</a>
</g>
</g>
<!-- Node2&#45;&gt;Node3 -->
<g id="edge2_Node000002_Node000003" class="edge">
<title>Node2&#45;&gt;Node3</title>
<g id="a_edge2_Node000002_Node000003"><a xlink:title=" ">
<path fill="none" stroke="#63b8ff" d="M168.89,-20.5C160.28,-20.5 151.61,-20.5 143.19,-20.5"/>
<polygon fill="#63b8ff" stroke="#63b8ff" points="168.95,-24 178.95,-20.5 168.95,-17 168.95,-24"/>
</a>
</g>
</g>
</g>
</svg>
