<?xml version="1.0" encoding="UTF-8" standalone="no"?>
<!DOCTYPE svg PUBLIC "-//W3C//DTD SVG 1.1//EN"
 "http://www.w3.org/Graphics/SVG/1.1/DTD/svg11.dtd">
<!-- Generated by graphviz version 2.43.0 (0)
 -->
<!-- Title: pocketmine\utils\Utils\validateCallableSignature Pages: 1 -->
<svg width="372pt" height="259pt"
 viewBox="0.00 0.00 372.00 258.50" xmlns="http://www.w3.org/2000/svg" xmlns:xlink="http://www.w3.org/1999/xlink">
<g id="graph0" class="graph" transform="scale(1 1) rotate(0) translate(4 254.5)">
<title>pocketmine\utils\Utils\validateCallableSignature</title>
<polygon fill="white" stroke="transparent" points="-4,4 -4,-254.5 368,-254.5 368,4 -4,4"/>
<!-- Node1 -->
<g id="node1" class="node">
<title>Node1</title>
<g id="a_node1"><a xlink:title=" ">
<polygon fill="#bfbfbf" stroke="black" points="218,-104.5 218,-134.5 364,-134.5 364,-104.5 218,-104.5"/>
<text text-anchor="start" x="226" y="-122.5" font-family="Helvetica,sans-Serif" font-size="10.00">pocketmine\utils\Utils</text>
<text text-anchor="middle" x="291" y="-111.5" font-family="Helvetica,sans-Serif" font-size="10.00">\validateCallableSignature</text>
</a>
</g>
</g>
<!-- Node2 -->
<g id="node2" class="node">
<title>Node2</title>
<g id="a_node2"><a xlink:href="../../da/d3b/classpocketmine_1_1inventory_1_1_callback_inventory_listener.html#aaf25dc815b73b8a72b024084f66682ed" target="_top" xlink:title=" ">
<polygon fill="white" stroke="black" points="17.5,-209 17.5,-250 164.5,-250 164.5,-209 17.5,-209"/>
<text text-anchor="start" x="25.5" y="-238" font-family="Helvetica,sans-Serif" font-size="10.00">pocketmine\inventory</text>
<text text-anchor="start" x="25.5" y="-227" font-family="Helvetica,sans-Serif" font-size="10.00">\CallbackInventoryListener</text>
<text text-anchor="middle" x="91" y="-216" font-family="Helvetica,sans-Serif" font-size="10.00">\__construct</text>
</a>
</g>
</g>
<!-- Node1&#45;&gt;Node2 -->
<g id="edge1" class="edge">
<title>Node1&#45;&gt;Node2</title>
<path fill="none" stroke="midnightblue" d="M265.42,-141.27C244.45,-158.92 212.88,-183.43 182,-199.5 175.42,-202.92 168.38,-206.06 161.23,-208.93"/>
<polygon fill="midnightblue" stroke="midnightblue" points="267.85,-143.79 273.18,-134.63 263.3,-138.47 267.85,-143.79"/>
</g>
<!-- Node3 -->
<g id="node3" class="node">
<title>Node3</title>
<g id="a_node3"><a xlink:href="../../d3/df3/classpocketmine_1_1scheduler_1_1_closure_task.html#a48a27d1813e7cfb1ed1dbef63cd382af" target="_top" xlink:title=" ">
<polygon fill="white" stroke="black" points="22.5,-159.5 22.5,-189.5 159.5,-189.5 159.5,-159.5 22.5,-159.5"/>
<text text-anchor="start" x="30.5" y="-177.5" font-family="Helvetica,sans-Serif" font-size="10.00">pocketmine\scheduler</text>
<text text-anchor="middle" x="91" y="-166.5" font-family="Helvetica,sans-Serif" font-size="10.00">\ClosureTask\__construct</text>
</a>
</g>
</g>
<!-- Node1&#45;&gt;Node3 -->
<g id="edge2" class="edge">
<title>Node1&#45;&gt;Node3</title>
<path fill="none" stroke="midnightblue" d="M226.19,-137.23C200.33,-144.41 170.8,-152.61 146.04,-159.49"/>
<polygon fill="midnightblue" stroke="midnightblue" points="227.2,-140.58 235.9,-134.53 225.32,-133.83 227.2,-140.58"/>
</g>
<!-- Node4 -->
<g id="node4" class="node">
<title>Node4</title>
<g id="a_node4"><a xlink:href="../../d3/d6d/classpocketmine_1_1inventory_1_1transaction_1_1action_1_1validator_1_1_callback_slot_validator.html#a96385e967c0eaeafa4efbf800450b075" target="_top" xlink:title=" ">
<polygon fill="white" stroke="black" points="0,-99 0,-140 182,-140 182,-99 0,-99"/>
<text text-anchor="start" x="8" y="-128" font-family="Helvetica,sans-Serif" font-size="10.00">pocketmine\inventory</text>
<text text-anchor="start" x="8" y="-117" font-family="Helvetica,sans-Serif" font-size="10.00">\transaction\action\validator</text>
<text text-anchor="middle" x="91" y="-106" font-family="Helvetica,sans-Serif" font-size="10.00">\CallbackSlotValidator\__construct</text>
</a>
</g>
</g>
<!-- Node1&#45;&gt;Node4 -->
<g id="edge3" class="edge">
<title>Node1&#45;&gt;Node4</title>
<path fill="none" stroke="midnightblue" d="M207.77,-119.5C199.34,-119.5 190.74,-119.5 182.23,-119.5"/>
<polygon fill="midnightblue" stroke="midnightblue" points="207.96,-123 217.96,-119.5 207.96,-116 207.96,-123"/>
</g>
<!-- Node5 -->
<g id="node5" class="node">
<title>Node5</title>
<g id="a_node5"><a xlink:href="../../dd/d6c/classpocketmine_1_1item_1_1enchantment_1_1_enchantment.html#aaa47f90644d49c3d2273a878974acf72" target="_top" xlink:title=" ">
<polygon fill="white" stroke="black" points="7.5,-49.5 7.5,-79.5 174.5,-79.5 174.5,-49.5 7.5,-49.5"/>
<text text-anchor="start" x="15.5" y="-67.5" font-family="Helvetica,sans-Serif" font-size="10.00">pocketmine\item\enchantment</text>
<text text-anchor="middle" x="91" y="-56.5" font-family="Helvetica,sans-Serif" font-size="10.00">\Enchantment\__construct</text>
</a>
</g>
</g>
<!-- Node1&#45;&gt;Node5 -->
<g id="edge4" class="edge">
<title>Node1&#45;&gt;Node5</title>
<path fill="none" stroke="midnightblue" d="M226.19,-101.77C200.33,-94.59 170.8,-86.39 146.04,-79.51"/>
<polygon fill="midnightblue" stroke="midnightblue" points="225.32,-105.17 235.9,-104.47 227.2,-98.42 225.32,-105.17"/>
</g>
<!-- Node6 -->
<g id="node6" class="node">
<title>Node6</title>
<g id="a_node6"><a xlink:href="../../de/d36/classpocketmine_1_1entity_1_1_entity_factory.html#ae448ccecfa0baa549482369552b58ef4" target="_top" xlink:title=" ">
<polygon fill="white" stroke="black" points="22.5,-0.5 22.5,-30.5 159.5,-30.5 159.5,-0.5 22.5,-0.5"/>
<text text-anchor="start" x="30.5" y="-18.5" font-family="Helvetica,sans-Serif" font-size="10.00">pocketmine\entity\Entity</text>
<text text-anchor="middle" x="91" y="-7.5" font-family="Helvetica,sans-Serif" font-size="10.00">Factory\register</text>
</a>
</g>
</g>
<!-- Node1&#45;&gt;Node6 -->
<g id="edge5" class="edge">
<title>Node1&#45;&gt;Node6</title>
<path fill="none" stroke="midnightblue" d="M265.58,-97.61C244.71,-79.94 213.19,-55.61 182,-40.5 174.27,-36.75 165.88,-33.48 157.43,-30.66"/>
<polygon fill="midnightblue" stroke="midnightblue" points="263.44,-100.39 273.3,-104.26 268,-95.08 263.44,-100.39"/>
</g>
</g>
</svg>
