<?xml version="1.0" encoding="UTF-8" standalone="no"?>
<!DOCTYPE svg PUBLIC "-//W3C//DTD SVG 1.1//EN"
 "http://www.w3.org/Graphics/SVG/1.1/DTD/svg11.dtd">
<!-- Generated by graphviz version 2.43.0 (0)
 -->
<!-- Title: pocketmine\stats\SendUsageTask\__construct Pages: 1 -->
<svg width="360pt" height="134pt"
 viewBox="0.00 0.00 360.00 134.00" xmlns="http://www.w3.org/2000/svg" xmlns:xlink="http://www.w3.org/1999/xlink">
<g id="graph0" class="graph" transform="scale(1 1) rotate(0) translate(4 130)">
<title>pocketmine\stats\SendUsageTask\__construct</title>
<!-- Node1 -->
<g id="Node000001" class="node">
<title>Node1</title>
<g id="a_Node000001"><a xlink:title=" ">
<polygon fill="#999999" stroke="#666666" points="158,-78 0,-78 0,-48 158,-48 158,-78"/>
<text text-anchor="start" x="8" y="-66" font-family="Helvetica,sans-Serif" font-size="10.00">pocketmine\stats\SendUsage</text>
<text text-anchor="middle" x="79" y="-55" font-family="Helvetica,sans-Serif" font-size="10.00">Task\__construct</text>
</a>
</g>
</g>
<!-- Node2 -->
<g id="Node000002" class="node">
<title>Node2</title>
<g id="a_Node000002"><a xlink:href="../../d5/df7/classpocketmine_1_1_server.html#ab173ee59d49782e9a9fd13a1cdc39cbf" target="_top" xlink:title=" ">
<polygon fill="white" stroke="#666666" points="352,-126 194,-126 194,-96 352,-96 352,-126"/>
<text text-anchor="start" x="202" y="-114" font-family="Helvetica,sans-Serif" font-size="10.00">pocketmine\Server\getOnline</text>
<text text-anchor="middle" x="273" y="-103" font-family="Helvetica,sans-Serif" font-size="10.00">Players</text>
</a>
</g>
</g>
<!-- Node1&#45;&gt;Node2 -->
<g id="edge1_Node000001_Node000002" class="edge">
<title>Node1&#45;&gt;Node2</title>
<g id="a_edge1_Node000001_Node000002"><a xlink:title=" ">
<path fill="none" stroke="#63b8ff" d="M140.22,-78.06C159.88,-82.97 181.87,-88.47 202.18,-93.54"/>
<polygon fill="#63b8ff" stroke="#63b8ff" points="201.44,-96.97 211.99,-96 203.14,-90.18 201.44,-96.97"/>
</a>
</g>
</g>
<!-- Node3 -->
<g id="Node000003" class="node">
<title>Node3</title>
<g id="a_Node000003"><a xlink:href="../../d5/df7/classpocketmine_1_1_server.html#a7ceebd18b308f3c1b9bf561b6b70da82" target="_top" xlink:title=" ">
<polygon fill="white" stroke="#666666" points="349,-78 197,-78 197,-48 349,-48 349,-78"/>
<text text-anchor="start" x="205" y="-66" font-family="Helvetica,sans-Serif" font-size="10.00">pocketmine\Server\getTicks</text>
<text text-anchor="middle" x="273" y="-55" font-family="Helvetica,sans-Serif" font-size="10.00">PerSecondAverage</text>
</a>
</g>
</g>
<!-- Node1&#45;&gt;Node3 -->
<g id="edge2_Node000001_Node000003" class="edge">
<title>Node1&#45;&gt;Node3</title>
<g id="a_edge2_Node000001_Node000003"><a xlink:title=" ">
<path fill="none" stroke="#63b8ff" d="M158.09,-63C167.47,-63 177.09,-63 186.56,-63"/>
<polygon fill="#63b8ff" stroke="#63b8ff" points="186.77,-66.5 196.77,-63 186.77,-59.5 186.77,-66.5"/>
</a>
</g>
</g>
<!-- Node4 -->
<g id="Node000004" class="node">
<title>Node4</title>
<g id="a_Node000004"><a xlink:href="../../d5/df7/classpocketmine_1_1_server.html#a74b92b75e35d3baee836fb9fd47d2e04" target="_top" xlink:title=" ">
<polygon fill="white" stroke="#666666" points="346.5,-30 199.5,-30 199.5,0 346.5,0 346.5,-30"/>
<text text-anchor="start" x="207.5" y="-18" font-family="Helvetica,sans-Serif" font-size="10.00">pocketmine\Server\getTick</text>
<text text-anchor="middle" x="273" y="-7" font-family="Helvetica,sans-Serif" font-size="10.00">UsageAverage</text>
</a>
</g>
</g>
<!-- Node1&#45;&gt;Node4 -->
<g id="edge3_Node000001_Node000004" class="edge">
<title>Node1&#45;&gt;Node4</title>
<g id="a_edge3_Node000001_Node000004"><a xlink:title=" ">
<path fill="none" stroke="#63b8ff" d="M140.22,-47.94C159.88,-43.03 181.87,-37.53 202.18,-32.46"/>
<polygon fill="#63b8ff" stroke="#63b8ff" points="203.14,-35.82 211.99,-30 201.44,-29.03 203.14,-35.82"/>
</a>
</g>
</g>
</g>
</svg>
