<?xml version="1.0" encoding="UTF-8" standalone="no"?>
<!DOCTYPE svg PUBLIC "-//W3C//DTD SVG 1.1//EN"
 "http://www.w3.org/Graphics/SVG/1.1/DTD/svg11.dtd">
<!-- Generated by graphviz version 2.43.0 (0)
 -->
<!-- Title: pocketmine\network\mcpe\protocol\types\recipe\MolangItemDescriptor Pages: 1 -->
<svg width="169pt" height="259pt"
 viewBox="0.00 0.00 169.00 259.00" xmlns="http://www.w3.org/2000/svg" xmlns:xlink="http://www.w3.org/1999/xlink">
<g id="graph0" class="graph" transform="scale(1 1) rotate(0) translate(4 255)">
<title>pocketmine\network\mcpe\protocol\types\recipe\MolangItemDescriptor</title>
<polygon fill="white" stroke="transparent" points="-4,4 -4,-255 165,-255 165,4 -4,4"/>
<!-- Node1 -->
<g id="node1" class="node">
<title>Node1</title>
<g id="a_node1"><a xlink:title=" ">
<polygon fill="#bfbfbf" stroke="black" points="0,-0.5 0,-123.5 161,-123.5 161,-0.5 0,-0.5"/>
<text text-anchor="start" x="8" y="-111.5" font-family="Helvetica,sans-Serif" font-size="10.00">pocketmine\network</text>
<text text-anchor="start" x="8" y="-100.5" font-family="Helvetica,sans-Serif" font-size="10.00">\mcpe\protocol\types</text>
<text text-anchor="middle" x="80.5" y="-89.5" font-family="Helvetica,sans-Serif" font-size="10.00">\recipe\MolangItemDescriptor</text>
<polyline fill="none" stroke="black" points="0,-82.5 161,-82.5 "/>
<text text-anchor="start" x="8" y="-70.5" font-family="Helvetica,sans-Serif" font-size="10.00">+ ID</text>
<polyline fill="none" stroke="black" points="0,-63.5 161,-63.5 "/>
<text text-anchor="start" x="8" y="-51.5" font-family="Helvetica,sans-Serif" font-size="10.00">+ __construct()</text>
<text text-anchor="start" x="8" y="-40.5" font-family="Helvetica,sans-Serif" font-size="10.00">+ getMolangExpression()</text>
<text text-anchor="start" x="8" y="-29.5" font-family="Helvetica,sans-Serif" font-size="10.00">+ getMolangVersion()</text>
<text text-anchor="start" x="8" y="-18.5" font-family="Helvetica,sans-Serif" font-size="10.00">+ write()</text>
<text text-anchor="start" x="8" y="-7.5" font-family="Helvetica,sans-Serif" font-size="10.00">+ read()</text>
</a>
</g>
</g>
<!-- Node2 -->
<g id="node2" class="node">
<title>Node2</title>
<g id="a_node2"><a xlink:href="../../dc/d64/interfacepocketmine_1_1network_1_1mcpe_1_1protocol_1_1types_1_1recipe_1_1_item_descriptor.html" target="_top" xlink:title=" ">
<polygon fill="white" stroke="black" points="18,-160.5 18,-250.5 143,-250.5 143,-160.5 18,-160.5"/>
<text text-anchor="start" x="26" y="-238.5" font-family="Helvetica,sans-Serif" font-size="10.00">pocketmine\network</text>
<text text-anchor="start" x="26" y="-227.5" font-family="Helvetica,sans-Serif" font-size="10.00">\mcpe\protocol\types</text>
<text text-anchor="middle" x="80.5" y="-216.5" font-family="Helvetica,sans-Serif" font-size="10.00">\recipe\ItemDescriptor</text>
<polyline fill="none" stroke="black" points="18,-209.5 143,-209.5 "/>
<text text-anchor="middle" x="80.5" y="-197.5" font-family="Helvetica,sans-Serif" font-size="10.00"> </text>
<polyline fill="none" stroke="black" points="18,-190.5 143,-190.5 "/>
<text text-anchor="start" x="26" y="-178.5" font-family="Helvetica,sans-Serif" font-size="10.00">+ getTypeId()</text>
<text text-anchor="start" x="26" y="-167.5" font-family="Helvetica,sans-Serif" font-size="10.00">+ write()</text>
</a>
</g>
</g>
<!-- Node2&#45;&gt;Node1 -->
<g id="edge1" class="edge">
<title>Node2&#45;&gt;Node1</title>
<path fill="none" stroke="midnightblue" d="M80.5,-150.11C80.5,-141.42 80.5,-132.38 80.5,-123.56"/>
<polygon fill="none" stroke="midnightblue" points="77,-150.12 80.5,-160.12 84,-150.12 77,-150.12"/>
</g>
</g>
</svg>
