<?xml version="1.0" encoding="UTF-8" standalone="no"?>
<!DOCTYPE svg PUBLIC "-//W3C//DTD SVG 1.1//EN"
 "http://www.w3.org/Graphics/SVG/1.1/DTD/svg11.dtd">
<!-- Generated by graphviz version 2.43.0 (0)
 -->
<!-- Title: pocketmine\nbt\tag\ImmutableTag Pages: 1 -->
<!--zoomable 504 -->

<svg id="main" version="1.1" xmlns="http://www.w3.org/2000/svg" xmlns:xlink="http://www.w3.org/1999/xlink" xml:space="preserve" onload="init(evt)">

<style type="text/css"><![CDATA[
.node, .edge {opacity: 0.7;}
.node.selected, .edge.selected {opacity: 1;}
.edge:hover path { stroke: red; }
.edge:hover polygon { stroke: red; fill: red; }
]]></style>

<defs>
  <circle id="rim" cx="0" cy="0" r="7"/>
  <circle id="rim2" cx="0" cy="0" r="3.5"/>
  <g id="zoomPlus">
    <use xlink:href="#rim" fill="#404040"><set attributeName="fill" to="#808080" begin="zoomplus.mouseover" end="zoomplus.mouseout"/></use>
    <path d="M-4,0h8M0,-4v8" fill="none" stroke="white" stroke-width="1.5" pointer-events="none"/>
  </g>
  <g id="zoomMin">
    <use xlink:href="#rim" fill="#404040"><set attributeName="fill" to="#808080" begin="zoomminus.mouseover" end="zoomminus.mouseout"/></use>
    <path d="M-4,0h8" fill="none" stroke="white" stroke-width="1.5" pointer-events="none"/>
  </g>
  <g id="arrowUp" transform="translate(30 24)">
    <use xlink:href="#rim"/>
    <path pointer-events="none" fill="none" stroke="white" stroke-width="1.5" d="M0,-3.0v7 M-2.5,-0.5L0,-3.0L2.5,-0.5"/>
  </g>
  <g id="arrowRight" transform="rotate(90) translate(36 -43)">
    <use xlink:href="#rim"/>
    <path pointer-events="none" fill="none" stroke="white" stroke-width="1.5" d="M0,-3.0v7 M-2.5,-0.5L0,-3.0L2.5,-0.5"/>
  </g>
  <g id="arrowDown" transform="rotate(180) translate(-30 -48)">
    <use xlink:href="#rim"/>
    <path pointer-events="none" fill="none" stroke="white" stroke-width="1.5" d="M0,-3.0v7 M-2.5,-0.5L0,-3.0L2.5,-0.5"/>
  </g>
  <g id="arrowLeft" transform="rotate(270) translate(-36 17)">
    <use xlink:href="#rim"/>
    <path pointer-events="none" fill="none" stroke="white" stroke-width="1.5" d="M0,-3.0v7 M-2.5,-0.5L0,-3.0L2.5,-0.5"/>
  </g>
  <g id="resetDef">
    <use xlink:href="#rim2" fill="#404040"><set attributeName="fill" to="#808080" begin="reset.mouseover" end="reset.mouseout"/></use>
  </g>
</defs>
<script type="application/ecmascript">
var viewWidth = 1097;
var viewHeight = 504;
var sectionId = 'dynsection-0';
</script>
<script type="application/ecmascript" xlink:href="../../svg.min.js"/>
<svg id="graph" class="graph">
<g id="viewport">
<title>pocketmine\nbt\tag\ImmutableTag</title>
<!-- Node1 -->
<g id="Node000001" class="node">
<title>Node1</title>
<g id="a_Node000001"><a xlink:title=" ">
<polygon fill="#999999" stroke="transparent" points="597,-261 492,-261 492,-201 597,-201 597,-261"/>
<text text-anchor="start" x="497.5" y="-249" font-family="Helvetica,sans-Serif" font-size="10.00">pocketmine\nbt\tag</text>
<text text-anchor="start" x="508.5" y="-238" font-family="Helvetica,sans-Serif" font-size="10.00">\ImmutableTag</text>
<text text-anchor="start" x="543" y="-223" font-family="Helvetica,sans-Serif" font-size="10.00"> </text>
<text text-anchor="start" x="502.5" y="-208" font-family="Helvetica,sans-Serif" font-size="10.00">#</text>
<text text-anchor="start" x="521.5" y="-208" font-family="Helvetica,sans-Serif" font-size="10.00">makeCopy()</text>
<polygon fill="#666666" stroke="#666666" points="492.5,-233 492.5,-233 597.5,-233 597.5,-233 492.5,-233"/>
<polygon fill="#666666" stroke="#666666" points="492.5,-218 492.5,-218 597.5,-218 597.5,-218 492.5,-218"/>
<polygon fill="none" stroke="#666666" points="492,-201 492,-261 597,-261 597,-201 492,-201"/>
</a>
</g>
</g>
<!-- Node3 -->
<g id="Node000003" class="node">
<title>Node3</title>
<g id="a_Node000003"><a xlink:href="../../dd/dec/classpocketmine_1_1nbt_1_1tag_1_1_byte_array_tag.html" target="_top" xlink:title=" ">
<polygon fill="white" stroke="transparent" points="105,-157.5 0,-157.5 0,-7.5 105,-7.5 105,-157.5"/>
<text text-anchor="start" x="5.5" y="-145.5" font-family="Helvetica,sans-Serif" font-size="10.00">pocketmine\nbt\tag</text>
<text text-anchor="start" x="18.5" y="-134.5" font-family="Helvetica,sans-Serif" font-size="10.00">\ByteArrayTag</text>
<text text-anchor="start" x="51" y="-119.5" font-family="Helvetica,sans-Serif" font-size="10.00"> </text>
<text text-anchor="start" x="6.5" y="-104.5" font-family="Helvetica,sans-Serif" font-size="10.00">+</text>
<text text-anchor="start" x="21.5" y="-104.5" font-family="Helvetica,sans-Serif" font-size="10.00">__construct()</text>
<text text-anchor="start" x="6.5" y="-89.5" font-family="Helvetica,sans-Serif" font-size="10.00">+</text>
<text text-anchor="start" x="21.5" y="-89.5" font-family="Helvetica,sans-Serif" font-size="10.00">getType()</text>
<text text-anchor="start" x="6.5" y="-74.5" font-family="Helvetica,sans-Serif" font-size="10.00">+</text>
<text text-anchor="start" x="21.5" y="-74.5" font-family="Helvetica,sans-Serif" font-size="10.00">getValue()</text>
<text text-anchor="start" x="6.5" y="-59.5" font-family="Helvetica,sans-Serif" font-size="10.00">+</text>
<text text-anchor="start" x="21.5" y="-59.5" font-family="Helvetica,sans-Serif" font-size="10.00">write()</text>
<text text-anchor="start" x="6.5" y="-44.5" font-family="Helvetica,sans-Serif" font-size="10.00">+</text>
<text text-anchor="start" x="21.5" y="-44.5" font-family="Helvetica,sans-Serif" font-size="10.00">read()</text>
<text text-anchor="start" x="6.5" y="-29.5" font-family="Helvetica,sans-Serif" font-size="10.00">#</text>
<text text-anchor="start" x="21.5" y="-29.5" font-family="Helvetica,sans-Serif" font-size="10.00">getTypeName()</text>
<text text-anchor="start" x="6.5" y="-14.5" font-family="Helvetica,sans-Serif" font-size="10.00">#</text>
<text text-anchor="start" x="21.5" y="-14.5" font-family="Helvetica,sans-Serif" font-size="10.00">stringifyValue()</text>
<polygon fill="#bfbfbf" stroke="#bfbfbf" points="0.5,-129.5 0.5,-129.5 105.5,-129.5 105.5,-129.5 0.5,-129.5"/>
<polygon fill="#bfbfbf" stroke="#bfbfbf" points="0.5,-114.5 0.5,-114.5 105.5,-114.5 105.5,-114.5 0.5,-114.5"/>
<polygon fill="none" stroke="#bfbfbf" points="0,-7.5 0,-157.5 105,-157.5 105,-7.5 0,-7.5"/>
</a>
</g>
</g>
<!-- Node1&#45;&gt;Node3 -->
<g id="edge2_Node000001_Node000003" class="edge">
<title>Node1&#45;&gt;Node3</title>
<g id="a_edge2_Node000001_Node000003"><a xlink:title=" ">
<path fill="none" stroke="#63b8ff" d="M481.93,-226.38C377.83,-219.4 174.47,-201.46 113.5,-165 109.86,-162.82 106.37,-160.34 103.02,-157.62"/>
<polygon fill="none" stroke="#63b8ff" points="481.78,-229.88 491.99,-227.04 482.24,-222.89 481.78,-229.88"/>
</a>
</g>
</g>
<!-- Node4 -->
<g id="Node000004" class="node">
<title>Node4</title>
<g id="a_Node000004"><a xlink:href="../../d1/d0a/classpocketmine_1_1nbt_1_1tag_1_1_byte_tag.html" target="_top" xlink:title=" ">
<polygon fill="white" stroke="transparent" points="228,-150 123,-150 123,-15 228,-15 228,-150"/>
<text text-anchor="start" x="128.5" y="-137.5" font-family="Helvetica,sans-Serif" font-size="10.00">pocketmine\nbt\tag</text>
<text text-anchor="start" x="154.5" y="-126.5" font-family="Helvetica,sans-Serif" font-size="10.00">\ByteTag</text>
<text text-anchor="start" x="174" y="-111.5" font-family="Helvetica,sans-Serif" font-size="10.00"> </text>
<text text-anchor="start" x="129.5" y="-96.5" font-family="Helvetica,sans-Serif" font-size="10.00">+</text>
<text text-anchor="start" x="144.5" y="-96.5" font-family="Helvetica,sans-Serif" font-size="10.00">getType()</text>
<text text-anchor="start" x="129.5" y="-81.5" font-family="Helvetica,sans-Serif" font-size="10.00">+</text>
<text text-anchor="start" x="144.5" y="-81.5" font-family="Helvetica,sans-Serif" font-size="10.00">write()</text>
<text text-anchor="start" x="129.5" y="-66.5" font-family="Helvetica,sans-Serif" font-size="10.00">+</text>
<text text-anchor="start" x="144.5" y="-66.5" font-family="Helvetica,sans-Serif" font-size="10.00">read()</text>
<text text-anchor="start" x="129.5" y="-51.5" font-family="Helvetica,sans-Serif" font-size="10.00">#</text>
<text text-anchor="start" x="144.5" y="-51.5" font-family="Helvetica,sans-Serif" font-size="10.00">getTypeName()</text>
<text text-anchor="start" x="129.5" y="-36.5" font-family="Helvetica,sans-Serif" font-size="10.00">#</text>
<text text-anchor="start" x="144.5" y="-36.5" font-family="Helvetica,sans-Serif" font-size="10.00">max()</text>
<text text-anchor="start" x="129.5" y="-21.5" font-family="Helvetica,sans-Serif" font-size="10.00">#</text>
<text text-anchor="start" x="144.5" y="-21.5" font-family="Helvetica,sans-Serif" font-size="10.00">min()</text>
<polygon fill="#bfbfbf" stroke="#bfbfbf" points="123.5,-121.5 123.5,-121.5 228.5,-121.5 228.5,-121.5 123.5,-121.5"/>
<polygon fill="#bfbfbf" stroke="#bfbfbf" points="123.5,-106.5 123.5,-106.5 228.5,-106.5 228.5,-106.5 123.5,-106.5"/>
<polygon fill="none" stroke="#bfbfbf" points="123,-15 123,-150 228,-150 228,-15 123,-15"/>
</a>
</g>
</g>
<!-- Node1&#45;&gt;Node4 -->
<g id="edge3_Node000001_Node000004" class="edge">
<title>Node1&#45;&gt;Node4</title>
<g id="a_edge3_Node000001_Node000004"><a xlink:title=" ">
<path fill="none" stroke="#63b8ff" d="M481.56,-229.46C415.65,-226.14 311.49,-212.87 236.5,-165 230.09,-160.91 224.12,-155.9 218.61,-150.38"/>
<polygon fill="none" stroke="#63b8ff" points="481.66,-232.97 491.8,-229.91 481.97,-225.98 481.66,-232.97"/>
</a>
</g>
</g>
<!-- Node5 -->
<g id="Node000005" class="node">
<title>Node5</title>
<g id="a_Node000005"><a xlink:href="../../de/d4a/classpocketmine_1_1nbt_1_1tag_1_1_double_tag.html" target="_top" xlink:title=" ">
<polygon fill="white" stroke="transparent" points="351,-157.5 246,-157.5 246,-7.5 351,-7.5 351,-157.5"/>
<text text-anchor="start" x="251.5" y="-145.5" font-family="Helvetica,sans-Serif" font-size="10.00">pocketmine\nbt\tag</text>
<text text-anchor="start" x="271.5" y="-134.5" font-family="Helvetica,sans-Serif" font-size="10.00">\DoubleTag</text>
<text text-anchor="start" x="297" y="-119.5" font-family="Helvetica,sans-Serif" font-size="10.00"> </text>
<text text-anchor="start" x="252.5" y="-104.5" font-family="Helvetica,sans-Serif" font-size="10.00">+</text>
<text text-anchor="start" x="267.5" y="-104.5" font-family="Helvetica,sans-Serif" font-size="10.00">__construct()</text>
<text text-anchor="start" x="252.5" y="-89.5" font-family="Helvetica,sans-Serif" font-size="10.00">+</text>
<text text-anchor="start" x="267.5" y="-89.5" font-family="Helvetica,sans-Serif" font-size="10.00">getType()</text>
<text text-anchor="start" x="252.5" y="-74.5" font-family="Helvetica,sans-Serif" font-size="10.00">+</text>
<text text-anchor="start" x="267.5" y="-74.5" font-family="Helvetica,sans-Serif" font-size="10.00">getValue()</text>
<text text-anchor="start" x="252.5" y="-59.5" font-family="Helvetica,sans-Serif" font-size="10.00">+</text>
<text text-anchor="start" x="267.5" y="-59.5" font-family="Helvetica,sans-Serif" font-size="10.00">write()</text>
<text text-anchor="start" x="252.5" y="-44.5" font-family="Helvetica,sans-Serif" font-size="10.00">+</text>
<text text-anchor="start" x="267.5" y="-44.5" font-family="Helvetica,sans-Serif" font-size="10.00">read()</text>
<text text-anchor="start" x="252.5" y="-29.5" font-family="Helvetica,sans-Serif" font-size="10.00">#</text>
<text text-anchor="start" x="267.5" y="-29.5" font-family="Helvetica,sans-Serif" font-size="10.00">getTypeName()</text>
<text text-anchor="start" x="252.5" y="-14.5" font-family="Helvetica,sans-Serif" font-size="10.00">#</text>
<text text-anchor="start" x="267.5" y="-14.5" font-family="Helvetica,sans-Serif" font-size="10.00">stringifyValue()</text>
<polygon fill="#bfbfbf" stroke="#bfbfbf" points="246.5,-129.5 246.5,-129.5 351.5,-129.5 351.5,-129.5 246.5,-129.5"/>
<polygon fill="#bfbfbf" stroke="#bfbfbf" points="246.5,-114.5 246.5,-114.5 351.5,-114.5 351.5,-114.5 246.5,-114.5"/>
<polygon fill="none" stroke="#bfbfbf" points="246,-7.5 246,-157.5 351,-157.5 351,-7.5 246,-7.5"/>
</a>
</g>
</g>
<!-- Node1&#45;&gt;Node5 -->
<g id="edge4_Node000001_Node000005" class="edge">
<title>Node1&#45;&gt;Node5</title>
<g id="a_edge4_Node000001_Node000005"><a xlink:title=" ">
<path fill="none" stroke="#63b8ff" d="M482,-217.78C443.92,-208.08 395.78,-191.62 359.5,-165 356.37,-162.7 353.32,-160.19 350.37,-157.53"/>
<polygon fill="none" stroke="#63b8ff" points="481.4,-221.23 491.95,-220.22 483.07,-214.44 481.4,-221.23"/>
</a>
</g>
</g>
<!-- Node6 -->
<g id="Node000006" class="node">
<title>Node6</title>
<g id="a_Node000006"><a xlink:href="../../d7/d9e/classpocketmine_1_1nbt_1_1tag_1_1_float_tag.html" target="_top" xlink:title=" ">
<polygon fill="white" stroke="transparent" points="474,-165 369,-165 369,0 474,0 474,-165"/>
<text text-anchor="start" x="374.5" y="-152.5" font-family="Helvetica,sans-Serif" font-size="10.00">pocketmine\nbt\tag</text>
<text text-anchor="start" x="399.5" y="-141.5" font-family="Helvetica,sans-Serif" font-size="10.00">\FloatTag</text>
<text text-anchor="start" x="420" y="-126.5" font-family="Helvetica,sans-Serif" font-size="10.00"> </text>
<text text-anchor="start" x="375.5" y="-111.5" font-family="Helvetica,sans-Serif" font-size="10.00">+</text>
<text text-anchor="start" x="390.5" y="-111.5" font-family="Helvetica,sans-Serif" font-size="10.00">__construct()</text>
<text text-anchor="start" x="375.5" y="-96.5" font-family="Helvetica,sans-Serif" font-size="10.00">+</text>
<text text-anchor="start" x="390.5" y="-96.5" font-family="Helvetica,sans-Serif" font-size="10.00">equals()</text>
<text text-anchor="start" x="375.5" y="-81.5" font-family="Helvetica,sans-Serif" font-size="10.00">+</text>
<text text-anchor="start" x="390.5" y="-81.5" font-family="Helvetica,sans-Serif" font-size="10.00">getType()</text>
<text text-anchor="start" x="375.5" y="-66.5" font-family="Helvetica,sans-Serif" font-size="10.00">+</text>
<text text-anchor="start" x="390.5" y="-66.5" font-family="Helvetica,sans-Serif" font-size="10.00">getValue()</text>
<text text-anchor="start" x="375.5" y="-51.5" font-family="Helvetica,sans-Serif" font-size="10.00">+</text>
<text text-anchor="start" x="390.5" y="-51.5" font-family="Helvetica,sans-Serif" font-size="10.00">write()</text>
<text text-anchor="start" x="375.5" y="-36.5" font-family="Helvetica,sans-Serif" font-size="10.00">+</text>
<text text-anchor="start" x="390.5" y="-36.5" font-family="Helvetica,sans-Serif" font-size="10.00">read()</text>
<text text-anchor="start" x="375.5" y="-21.5" font-family="Helvetica,sans-Serif" font-size="10.00">#</text>
<text text-anchor="start" x="390.5" y="-21.5" font-family="Helvetica,sans-Serif" font-size="10.00">getTypeName()</text>
<text text-anchor="start" x="375.5" y="-6.5" font-family="Helvetica,sans-Serif" font-size="10.00">#</text>
<text text-anchor="start" x="390.5" y="-6.5" font-family="Helvetica,sans-Serif" font-size="10.00">stringifyValue()</text>
<polygon fill="#bfbfbf" stroke="#bfbfbf" points="369.5,-136.5 369.5,-136.5 474.5,-136.5 474.5,-136.5 369.5,-136.5"/>
<polygon fill="#bfbfbf" stroke="#bfbfbf" points="369.5,-121.5 369.5,-121.5 474.5,-121.5 474.5,-121.5 369.5,-121.5"/>
<polygon fill="none" stroke="#bfbfbf" points="369,0 369,-165 474,-165 474,0 369,0"/>
</a>
</g>
</g>
<!-- Node1&#45;&gt;Node6 -->
<g id="edge5_Node000001_Node000006" class="edge">
<title>Node1&#45;&gt;Node6</title>
<g id="a_edge5_Node000001_Node000006"><a xlink:title=" ">
<path fill="none" stroke="#63b8ff" d="M508.2,-193.47C499.56,-184.37 490.53,-174.49 482.5,-165 479.76,-161.76 477,-158.41 474.24,-155.01"/>
<polygon fill="none" stroke="#63b8ff" points="505.89,-196.12 515.34,-200.92 510.95,-191.28 505.89,-196.12"/>
</a>
</g>
</g>
<!-- Node7 -->
<g id="Node000007" class="node">
<title>Node7</title>
<g id="a_Node000007"><a xlink:href="../../da/dc3/classpocketmine_1_1nbt_1_1tag_1_1_int_array_tag.html" target="_top" xlink:title=" ">
<polygon fill="white" stroke="transparent" points="597,-157.5 492,-157.5 492,-7.5 597,-7.5 597,-157.5"/>
<text text-anchor="start" x="497.5" y="-145.5" font-family="Helvetica,sans-Serif" font-size="10.00">pocketmine\nbt\tag</text>
<text text-anchor="start" x="515.5" y="-134.5" font-family="Helvetica,sans-Serif" font-size="10.00">\IntArrayTag</text>
<text text-anchor="start" x="543" y="-119.5" font-family="Helvetica,sans-Serif" font-size="10.00"> </text>
<text text-anchor="start" x="498.5" y="-104.5" font-family="Helvetica,sans-Serif" font-size="10.00">+</text>
<text text-anchor="start" x="513.5" y="-104.5" font-family="Helvetica,sans-Serif" font-size="10.00">__construct()</text>
<text text-anchor="start" x="498.5" y="-89.5" font-family="Helvetica,sans-Serif" font-size="10.00">+</text>
<text text-anchor="start" x="513.5" y="-89.5" font-family="Helvetica,sans-Serif" font-size="10.00">getType()</text>
<text text-anchor="start" x="498.5" y="-74.5" font-family="Helvetica,sans-Serif" font-size="10.00">+</text>
<text text-anchor="start" x="513.5" y="-74.5" font-family="Helvetica,sans-Serif" font-size="10.00">getValue()</text>
<text text-anchor="start" x="498.5" y="-59.5" font-family="Helvetica,sans-Serif" font-size="10.00">+</text>
<text text-anchor="start" x="513.5" y="-59.5" font-family="Helvetica,sans-Serif" font-size="10.00">write()</text>
<text text-anchor="start" x="498.5" y="-44.5" font-family="Helvetica,sans-Serif" font-size="10.00">+</text>
<text text-anchor="start" x="513.5" y="-44.5" font-family="Helvetica,sans-Serif" font-size="10.00">read()</text>
<text text-anchor="start" x="498.5" y="-29.5" font-family="Helvetica,sans-Serif" font-size="10.00">#</text>
<text text-anchor="start" x="513.5" y="-29.5" font-family="Helvetica,sans-Serif" font-size="10.00">getTypeName()</text>
<text text-anchor="start" x="498.5" y="-14.5" font-family="Helvetica,sans-Serif" font-size="10.00">#</text>
<text text-anchor="start" x="513.5" y="-14.5" font-family="Helvetica,sans-Serif" font-size="10.00">stringifyValue()</text>
<polygon fill="#bfbfbf" stroke="#bfbfbf" points="492.5,-129.5 492.5,-129.5 597.5,-129.5 597.5,-129.5 492.5,-129.5"/>
<polygon fill="#bfbfbf" stroke="#bfbfbf" points="492.5,-114.5 492.5,-114.5 597.5,-114.5 597.5,-114.5 492.5,-114.5"/>
<polygon fill="none" stroke="#bfbfbf" points="492,-7.5 492,-157.5 597,-157.5 597,-7.5 492,-7.5"/>
</a>
</g>
</g>
<!-- Node1&#45;&gt;Node7 -->
<g id="edge6_Node000001_Node000007" class="edge">
<title>Node1&#45;&gt;Node7</title>
<g id="a_edge6_Node000001_Node000007"><a xlink:title=" ">
<path fill="none" stroke="#63b8ff" d="M544.5,-190.52C544.5,-180.32 544.5,-168.99 544.5,-157.64"/>
<polygon fill="none" stroke="#63b8ff" points="541,-190.71 544.5,-200.71 548,-190.71 541,-190.71"/>
</a>
</g>
</g>
<!-- Node8 -->
<g id="Node000008" class="node">
<title>Node8</title>
<g id="a_Node000008"><a xlink:href="../../d1/dca/classpocketmine_1_1nbt_1_1tag_1_1_int_tag.html" target="_top" xlink:title=" ">
<polygon fill="white" stroke="transparent" points="720,-150 615,-150 615,-15 720,-15 720,-150"/>
<text text-anchor="start" x="620.5" y="-137.5" font-family="Helvetica,sans-Serif" font-size="10.00">pocketmine\nbt\tag</text>
<text text-anchor="start" x="651.5" y="-126.5" font-family="Helvetica,sans-Serif" font-size="10.00">\IntTag</text>
<text text-anchor="start" x="666" y="-111.5" font-family="Helvetica,sans-Serif" font-size="10.00"> </text>
<text text-anchor="start" x="621.5" y="-96.5" font-family="Helvetica,sans-Serif" font-size="10.00">+</text>
<text text-anchor="start" x="636.5" y="-96.5" font-family="Helvetica,sans-Serif" font-size="10.00">getType()</text>
<text text-anchor="start" x="621.5" y="-81.5" font-family="Helvetica,sans-Serif" font-size="10.00">+</text>
<text text-anchor="start" x="636.5" y="-81.5" font-family="Helvetica,sans-Serif" font-size="10.00">write()</text>
<text text-anchor="start" x="621.5" y="-66.5" font-family="Helvetica,sans-Serif" font-size="10.00">+</text>
<text text-anchor="start" x="636.5" y="-66.5" font-family="Helvetica,sans-Serif" font-size="10.00">read()</text>
<text text-anchor="start" x="621.5" y="-51.5" font-family="Helvetica,sans-Serif" font-size="10.00">#</text>
<text text-anchor="start" x="636.5" y="-51.5" font-family="Helvetica,sans-Serif" font-size="10.00">getTypeName()</text>
<text text-anchor="start" x="621.5" y="-36.5" font-family="Helvetica,sans-Serif" font-size="10.00">#</text>
<text text-anchor="start" x="636.5" y="-36.5" font-family="Helvetica,sans-Serif" font-size="10.00">max()</text>
<text text-anchor="start" x="621.5" y="-21.5" font-family="Helvetica,sans-Serif" font-size="10.00">#</text>
<text text-anchor="start" x="636.5" y="-21.5" font-family="Helvetica,sans-Serif" font-size="10.00">min()</text>
<polygon fill="#bfbfbf" stroke="#bfbfbf" points="615.5,-121.5 615.5,-121.5 720.5,-121.5 720.5,-121.5 615.5,-121.5"/>
<polygon fill="#bfbfbf" stroke="#bfbfbf" points="615.5,-106.5 615.5,-106.5 720.5,-106.5 720.5,-106.5 615.5,-106.5"/>
<polygon fill="none" stroke="#bfbfbf" points="615,-15 615,-150 720,-150 720,-15 615,-15"/>
</a>
</g>
</g>
<!-- Node1&#45;&gt;Node8 -->
<g id="edge7_Node000001_Node000008" class="edge">
<title>Node1&#45;&gt;Node8</title>
<g id="a_edge7_Node000001_Node000008"><a xlink:title=" ">
<path fill="none" stroke="#63b8ff" d="M580.8,-193.47C589.44,-184.37 598.47,-174.49 606.5,-165 610.5,-160.28 614.54,-155.32 618.54,-150.29"/>
<polygon fill="none" stroke="#63b8ff" points="578.05,-191.28 573.66,-200.92 583.11,-196.12 578.05,-191.28"/>
</a>
</g>
</g>
<!-- Node9 -->
<g id="Node000009" class="node">
<title>Node9</title>
<g id="a_Node000009"><a xlink:href="../../d1/d29/classpocketmine_1_1nbt_1_1tag_1_1_long_tag.html" target="_top" xlink:title=" ">
<polygon fill="white" stroke="transparent" points="843,-150 738,-150 738,-15 843,-15 843,-150"/>
<text text-anchor="start" x="743.5" y="-137.5" font-family="Helvetica,sans-Serif" font-size="10.00">pocketmine\nbt\tag</text>
<text text-anchor="start" x="769.5" y="-126.5" font-family="Helvetica,sans-Serif" font-size="10.00">\LongTag</text>
<text text-anchor="start" x="789" y="-111.5" font-family="Helvetica,sans-Serif" font-size="10.00"> </text>
<text text-anchor="start" x="744.5" y="-96.5" font-family="Helvetica,sans-Serif" font-size="10.00">+</text>
<text text-anchor="start" x="759.5" y="-96.5" font-family="Helvetica,sans-Serif" font-size="10.00">getType()</text>
<text text-anchor="start" x="744.5" y="-81.5" font-family="Helvetica,sans-Serif" font-size="10.00">+</text>
<text text-anchor="start" x="759.5" y="-81.5" font-family="Helvetica,sans-Serif" font-size="10.00">write()</text>
<text text-anchor="start" x="744.5" y="-66.5" font-family="Helvetica,sans-Serif" font-size="10.00">+</text>
<text text-anchor="start" x="759.5" y="-66.5" font-family="Helvetica,sans-Serif" font-size="10.00">read()</text>
<text text-anchor="start" x="744.5" y="-51.5" font-family="Helvetica,sans-Serif" font-size="10.00">#</text>
<text text-anchor="start" x="759.5" y="-51.5" font-family="Helvetica,sans-Serif" font-size="10.00">getTypeName()</text>
<text text-anchor="start" x="744.5" y="-36.5" font-family="Helvetica,sans-Serif" font-size="10.00">#</text>
<text text-anchor="start" x="759.5" y="-36.5" font-family="Helvetica,sans-Serif" font-size="10.00">max()</text>
<text text-anchor="start" x="744.5" y="-21.5" font-family="Helvetica,sans-Serif" font-size="10.00">#</text>
<text text-anchor="start" x="759.5" y="-21.5" font-family="Helvetica,sans-Serif" font-size="10.00">min()</text>
<polygon fill="#bfbfbf" stroke="#bfbfbf" points="738.5,-121.5 738.5,-121.5 843.5,-121.5 843.5,-121.5 738.5,-121.5"/>
<polygon fill="#bfbfbf" stroke="#bfbfbf" points="738.5,-106.5 738.5,-106.5 843.5,-106.5 843.5,-106.5 738.5,-106.5"/>
<polygon fill="none" stroke="#bfbfbf" points="738,-15 738,-150 843,-150 843,-15 738,-15"/>
</a>
</g>
</g>
<!-- Node1&#45;&gt;Node9 -->
<g id="edge8_Node000001_Node000009" class="edge">
<title>Node1&#45;&gt;Node9</title>
<g id="a_edge8_Node000001_Node000009"><a xlink:title=" ">
<path fill="none" stroke="#63b8ff" d="M607,-217.78C645.08,-208.08 693.22,-191.62 729.5,-165 735.34,-160.71 740.88,-155.71 746.05,-150.33"/>
<polygon fill="none" stroke="#63b8ff" points="605.93,-214.44 597.05,-220.22 607.6,-221.23 605.93,-214.44"/>
</a>
</g>
</g>
<!-- Node10 -->
<g id="Node000010" class="node">
<title>Node10</title>
<g id="a_Node000010"><a xlink:href="../../db/d53/classpocketmine_1_1nbt_1_1tag_1_1_short_tag.html" target="_top" xlink:title=" ">
<polygon fill="white" stroke="transparent" points="966,-150 861,-150 861,-15 966,-15 966,-150"/>
<text text-anchor="start" x="866.5" y="-137.5" font-family="Helvetica,sans-Serif" font-size="10.00">pocketmine\nbt\tag</text>
<text text-anchor="start" x="891" y="-126.5" font-family="Helvetica,sans-Serif" font-size="10.00">\ShortTag</text>
<text text-anchor="start" x="912" y="-111.5" font-family="Helvetica,sans-Serif" font-size="10.00"> </text>
<text text-anchor="start" x="867.5" y="-96.5" font-family="Helvetica,sans-Serif" font-size="10.00">+</text>
<text text-anchor="start" x="882.5" y="-96.5" font-family="Helvetica,sans-Serif" font-size="10.00">getType()</text>
<text text-anchor="start" x="867.5" y="-81.5" font-family="Helvetica,sans-Serif" font-size="10.00">+</text>
<text text-anchor="start" x="882.5" y="-81.5" font-family="Helvetica,sans-Serif" font-size="10.00">write()</text>
<text text-anchor="start" x="867.5" y="-66.5" font-family="Helvetica,sans-Serif" font-size="10.00">+</text>
<text text-anchor="start" x="882.5" y="-66.5" font-family="Helvetica,sans-Serif" font-size="10.00">read()</text>
<text text-anchor="start" x="867.5" y="-51.5" font-family="Helvetica,sans-Serif" font-size="10.00">#</text>
<text text-anchor="start" x="882.5" y="-51.5" font-family="Helvetica,sans-Serif" font-size="10.00">getTypeName()</text>
<text text-anchor="start" x="867.5" y="-36.5" font-family="Helvetica,sans-Serif" font-size="10.00">#</text>
<text text-anchor="start" x="882.5" y="-36.5" font-family="Helvetica,sans-Serif" font-size="10.00">max()</text>
<text text-anchor="start" x="867.5" y="-21.5" font-family="Helvetica,sans-Serif" font-size="10.00">#</text>
<text text-anchor="start" x="882.5" y="-21.5" font-family="Helvetica,sans-Serif" font-size="10.00">min()</text>
<polygon fill="#bfbfbf" stroke="#bfbfbf" points="861.5,-121.5 861.5,-121.5 966.5,-121.5 966.5,-121.5 861.5,-121.5"/>
<polygon fill="#bfbfbf" stroke="#bfbfbf" points="861.5,-106.5 861.5,-106.5 966.5,-106.5 966.5,-106.5 861.5,-106.5"/>
<polygon fill="none" stroke="#bfbfbf" points="861,-15 861,-150 966,-150 966,-15 861,-15"/>
</a>
</g>
</g>
<!-- Node1&#45;&gt;Node10 -->
<g id="edge9_Node000001_Node000010" class="edge">
<title>Node1&#45;&gt;Node10</title>
<g id="a_edge9_Node000001_Node000010"><a xlink:title=" ">
<path fill="none" stroke="#63b8ff" d="M607.44,-229.46C673.35,-226.14 777.51,-212.87 852.5,-165 858.91,-160.91 864.88,-155.9 870.39,-150.38"/>
<polygon fill="none" stroke="#63b8ff" points="607.03,-225.98 597.2,-229.91 607.34,-232.97 607.03,-225.98"/>
</a>
</g>
</g>
<!-- Node11 -->
<g id="Node000011" class="node">
<title>Node11</title>
<g id="a_Node000011"><a xlink:href="../../d6/d25/classpocketmine_1_1nbt_1_1tag_1_1_string_tag.html" target="_top" xlink:title=" ">
<polygon fill="white" stroke="transparent" points="1089,-157.5 984,-157.5 984,-7.5 1089,-7.5 1089,-157.5"/>
<text text-anchor="start" x="989.5" y="-145.5" font-family="Helvetica,sans-Serif" font-size="10.00">pocketmine\nbt\tag</text>
<text text-anchor="start" x="1012.5" y="-134.5" font-family="Helvetica,sans-Serif" font-size="10.00">\StringTag</text>
<text text-anchor="start" x="1035" y="-119.5" font-family="Helvetica,sans-Serif" font-size="10.00"> </text>
<text text-anchor="start" x="990.5" y="-104.5" font-family="Helvetica,sans-Serif" font-size="10.00">+</text>
<text text-anchor="start" x="1005.5" y="-104.5" font-family="Helvetica,sans-Serif" font-size="10.00">__construct()</text>
<text text-anchor="start" x="990.5" y="-89.5" font-family="Helvetica,sans-Serif" font-size="10.00">+</text>
<text text-anchor="start" x="1005.5" y="-89.5" font-family="Helvetica,sans-Serif" font-size="10.00">getType()</text>
<text text-anchor="start" x="990.5" y="-74.5" font-family="Helvetica,sans-Serif" font-size="10.00">+</text>
<text text-anchor="start" x="1005.5" y="-74.5" font-family="Helvetica,sans-Serif" font-size="10.00">getValue()</text>
<text text-anchor="start" x="990.5" y="-59.5" font-family="Helvetica,sans-Serif" font-size="10.00">+</text>
<text text-anchor="start" x="1005.5" y="-59.5" font-family="Helvetica,sans-Serif" font-size="10.00">write()</text>
<text text-anchor="start" x="990.5" y="-44.5" font-family="Helvetica,sans-Serif" font-size="10.00">+</text>
<text text-anchor="start" x="1005.5" y="-44.5" font-family="Helvetica,sans-Serif" font-size="10.00">read()</text>
<text text-anchor="start" x="990.5" y="-29.5" font-family="Helvetica,sans-Serif" font-size="10.00">#</text>
<text text-anchor="start" x="1005.5" y="-29.5" font-family="Helvetica,sans-Serif" font-size="10.00">getTypeName()</text>
<text text-anchor="start" x="990.5" y="-14.5" font-family="Helvetica,sans-Serif" font-size="10.00">#</text>
<text text-anchor="start" x="1005.5" y="-14.5" font-family="Helvetica,sans-Serif" font-size="10.00">stringifyValue()</text>
<polygon fill="#bfbfbf" stroke="#bfbfbf" points="984.5,-129.5 984.5,-129.5 1089.5,-129.5 1089.5,-129.5 984.5,-129.5"/>
<polygon fill="#bfbfbf" stroke="#bfbfbf" points="984.5,-114.5 984.5,-114.5 1089.5,-114.5 1089.5,-114.5 984.5,-114.5"/>
<polygon fill="none" stroke="#bfbfbf" points="984,-7.5 984,-157.5 1089,-157.5 1089,-7.5 984,-7.5"/>
</a>
</g>
</g>
<!-- Node1&#45;&gt;Node11 -->
<g id="edge10_Node000001_Node000011" class="edge">
<title>Node1&#45;&gt;Node11</title>
<g id="a_edge10_Node000001_Node000011"><a xlink:title=" ">
<path fill="none" stroke="#63b8ff" d="M607.07,-226.38C711.17,-219.4 914.53,-201.46 975.5,-165 979.14,-162.82 982.63,-160.34 985.98,-157.62"/>
<polygon fill="none" stroke="#63b8ff" points="606.76,-222.89 597.01,-227.04 607.22,-229.88 606.76,-222.89"/>
</a>
</g>
</g>
<!-- Node2 -->
<g id="Node000002" class="node">
<title>Node2</title>
<g id="a_Node000002"><a xlink:href="../../dc/d26/classpocketmine_1_1nbt_1_1tag_1_1_tag.html" target="_top" xlink:title=" ">
<polygon fill="white" stroke="transparent" points="607,-496 482,-496 482,-297 607,-297 607,-496"/>
<text text-anchor="start" x="487.5" y="-483.5" font-family="Helvetica,sans-Serif" font-size="10.00">pocketmine\nbt\tag\Tag</text>
<text text-anchor="start" x="490.5" y="-468.5" font-family="Helvetica,sans-Serif" font-size="10.00">#</text>
<text text-anchor="start" x="507.5" y="-468.5" font-family="Helvetica,sans-Serif" font-size="10.00">$cloning</text>
<text text-anchor="start" x="490.5" y="-453.5" font-family="Helvetica,sans-Serif" font-size="10.00">+</text>
<text text-anchor="start" x="507.5" y="-453.5" font-family="Helvetica,sans-Serif" font-size="10.00">__toString()</text>
<text text-anchor="start" x="490.5" y="-438.5" font-family="Helvetica,sans-Serif" font-size="10.00">+</text>
<text text-anchor="start" x="507.5" y="-438.5" font-family="Helvetica,sans-Serif" font-size="10.00">equals()</text>
<text text-anchor="start" x="490.5" y="-423.5" font-family="Helvetica,sans-Serif" font-size="10.00">+</text>
<text text-anchor="start" x="507.5" y="-423.5" font-family="Helvetica,sans-Serif" font-size="10.00">getType()</text>
<text text-anchor="start" x="490.5" y="-408.5" font-family="Helvetica,sans-Serif" font-size="10.00">+</text>
<text text-anchor="start" x="507.5" y="-408.5" font-family="Helvetica,sans-Serif" font-size="10.00">getValue()</text>
<text text-anchor="start" x="490.5" y="-393.5" font-family="Helvetica,sans-Serif" font-size="10.00">+</text>
<text text-anchor="start" x="507.5" y="-393.5" font-family="Helvetica,sans-Serif" font-size="10.00">safeClone()</text>
<text text-anchor="start" x="490.5" y="-378.5" font-family="Helvetica,sans-Serif" font-size="10.00">+</text>
<text text-anchor="start" x="507.5" y="-378.5" font-family="Helvetica,sans-Serif" font-size="10.00">toString()</text>
<text text-anchor="start" x="490.5" y="-363.5" font-family="Helvetica,sans-Serif" font-size="10.00">+</text>
<text text-anchor="start" x="507.5" y="-363.5" font-family="Helvetica,sans-Serif" font-size="10.00">write()</text>
<text text-anchor="start" x="490.5" y="-348.5" font-family="Helvetica,sans-Serif" font-size="10.00">#</text>
<text text-anchor="start" x="507.5" y="-348.5" font-family="Helvetica,sans-Serif" font-size="10.00">getTypeName()</text>
<text text-anchor="start" x="490.5" y="-333.5" font-family="Helvetica,sans-Serif" font-size="10.00">#</text>
<text text-anchor="start" x="507.5" y="-333.5" font-family="Helvetica,sans-Serif" font-size="10.00">makeCopy()</text>
<text text-anchor="start" x="490.5" y="-318.5" font-family="Helvetica,sans-Serif" font-size="10.00">#</text>
<text text-anchor="start" x="507.5" y="-318.5" font-family="Helvetica,sans-Serif" font-size="10.00">stringifyValue()</text>
<text text-anchor="start" x="490.5" y="-303.5" font-family="Helvetica,sans-Serif" font-size="10.00">#</text>
<text text-anchor="start" x="507.5" y="-303.5" font-family="Helvetica,sans-Serif" font-size="10.00">restrictArgCount()</text>
<polygon fill="#bfbfbf" stroke="#bfbfbf" points="482.5,-478.5 482.5,-478.5 607.5,-478.5 607.5,-478.5 482.5,-478.5"/>
<polygon fill="#bfbfbf" stroke="#bfbfbf" points="482.5,-463.5 482.5,-463.5 505.5,-463.5 505.5,-463.5 482.5,-463.5"/>
<polygon fill="#bfbfbf" stroke="#bfbfbf" points="505.5,-463.5 505.5,-463.5 607.5,-463.5 607.5,-463.5 505.5,-463.5"/>
<polygon fill="none" stroke="#bfbfbf" points="482,-297 482,-496 607,-496 607,-297 482,-297"/>
</a>
</g>
</g>
<!-- Node2&#45;&gt;Node1 -->
<g id="edge1_Node000001_Node000002" class="edge">
<title>Node2&#45;&gt;Node1</title>
<g id="a_edge1_Node000001_Node000002"><a xlink:title=" ">
<path fill="none" stroke="#63b8ff" d="M544.5,-286.48C544.5,-277.3 544.5,-268.64 544.5,-261.04"/>
<polygon fill="none" stroke="#63b8ff" points="541,-286.62 544.5,-296.62 548,-286.62 541,-286.62"/>
</a>
</g>
</g>
</g>
</svg>

<g id="navigator" transform="translate(0 0)" fill="#404254">
  <rect fill="#f2f5e9" fill-opacity="0.5" stroke="#606060" stroke-width=".5" x="0" y="0" width="60" height="60"/>
  <use id="zoomplus" xlink:href="#zoomPlus" x="17" y="9" onmousedown="handleZoom(evt,'in')"/>
  <use id="zoomminus" xlink:href="#zoomMin" x="42" y="9" onmousedown="handleZoom(evt,'out')"/>
  <use id="reset" xlink:href="#resetDef" x="30" y="36" onmousedown="handleReset()"/>
   <use id="arrowup" xlink:href="#arrowUp" x="0" y="0" onmousedown="handlePan(0,-1)"/>
  <use id="arrowright" xlink:href="#arrowRight" x="0" y="0" onmousedown="handlePan(1,0)"/>
  <use id="arrowdown" xlink:href="#arrowDown" x="0" y="0" onmousedown="handlePan(0,1)"/>
  <use id="arrowleft" xlink:href="#arrowLeft" x="0" y="0" onmousedown="handlePan(-1,0)"/>
</g>
<svg viewBox="0 0 15 15" width="100%" height="30px" preserveAspectRatio="xMaxYMin meet">
 <g id="arrow_out" transform="scale(0.3 0.3)">
  <a xlink:href="classpocketmine_1_1nbt_1_1tag_1_1_immutable_tag__inherit__graph_org.svg" target="_base">
   <rect id="button" ry="5" rx="5" y="6" x="6" height="38" width="38"
        fill="#f2f5e9" fill-opacity="0.5" stroke="#606060" stroke-width="1.0"/>
   <path id="arrow"
     d="M 11.500037,31.436501 C 11.940474,20.09759 22.043105,11.32322 32.158766,21.979434 L 37.068811,17.246167 C 37.068811,17.246167 37.088388,32 37.088388,32 L 22.160133,31.978069 C 22.160133,31.978069 26.997745,27.140456 26.997745,27.140456 C 18.528582,18.264221 13.291696,25.230495 11.500037,31.436501 z"
     style="fill:#404040;"/>
  </a>
 </g>
</svg>

<style type='text/css'>
<![CDATA[
[data-mouse-over-selected='false'] { opacity: 0.7; }
[data-mouse-over-selected='true']  { opacity: 1.0; }
]]>
</style>
<script type="application/ecmascript"><![CDATA[
document.addEventListener('DOMContentLoaded', (event) => {
  highlightEdges();
  highlightAdjacentNodes();
});
]]></script>
</svg>
