<?xml version="1.0" encoding="UTF-8" standalone="no"?>
<!DOCTYPE svg PUBLIC "-//W3C//DTD SVG 1.1//EN"
 "http://www.w3.org/Graphics/SVG/1.1/DTD/svg11.dtd">
<!-- Generated by graphviz version 2.43.0 (0)
 -->
<!-- Title: pocketmine\crafting\CraftingGrid Pages: 1 -->
<svg width="270pt" height="896pt"
 viewBox="0.00 0.00 269.50 896.00" xmlns="http://www.w3.org/2000/svg" xmlns:xlink="http://www.w3.org/1999/xlink">
<g id="graph0" class="graph" transform="scale(1 1) rotate(0) translate(4 892)">
<title>pocketmine\crafting\CraftingGrid</title>
<polygon fill="white" stroke="transparent" points="-4,4 -4,-892 265.5,-892 265.5,4 -4,4"/>
<!-- Node1 -->
<g id="node1" class="node">
<title>Node1</title>
<g id="a_node1"><a xlink:title=" ">
<polygon fill="#bfbfbf" stroke="black" points="0,-0.5 0,-123.5 116,-123.5 116,-0.5 0,-0.5"/>
<text text-anchor="start" x="8" y="-111.5" font-family="Helvetica,sans-Serif" font-size="10.00">pocketmine\crafting</text>
<text text-anchor="middle" x="58" y="-100.5" font-family="Helvetica,sans-Serif" font-size="10.00">\CraftingGrid</text>
<polyline fill="none" stroke="black" points="0,-93.5 116,-93.5 "/>
<text text-anchor="middle" x="58" y="-81.5" font-family="Helvetica,sans-Serif" font-size="10.00"> </text>
<polyline fill="none" stroke="black" points="0,-74.5 116,-74.5 "/>
<text text-anchor="start" x="8" y="-62.5" font-family="Helvetica,sans-Serif" font-size="10.00">+ __construct()</text>
<text text-anchor="start" x="8" y="-51.5" font-family="Helvetica,sans-Serif" font-size="10.00">+ getGridWidth()</text>
<text text-anchor="start" x="8" y="-40.5" font-family="Helvetica,sans-Serif" font-size="10.00">+ getIngredient()</text>
<text text-anchor="start" x="8" y="-29.5" font-family="Helvetica,sans-Serif" font-size="10.00">+ getRecipeHeight()</text>
<text text-anchor="start" x="8" y="-18.5" font-family="Helvetica,sans-Serif" font-size="10.00">+ getRecipeWidth()</text>
<text text-anchor="start" x="8" y="-7.5" font-family="Helvetica,sans-Serif" font-size="10.00">+ setItem()</text>
</a>
</g>
</g>
<!-- Node2 -->
<g id="node2" class="node">
<title>Node2</title>
<g id="a_node2"><a xlink:href="../../d6/dc1/classpocketmine_1_1inventory_1_1_simple_inventory.html" target="_top" xlink:title=" ">
<polygon fill="white" stroke="black" points="83,-161.5 83,-284.5 215,-284.5 215,-161.5 83,-161.5"/>
<text text-anchor="start" x="91" y="-272.5" font-family="Helvetica,sans-Serif" font-size="10.00">pocketmine\inventory</text>
<text text-anchor="middle" x="149" y="-261.5" font-family="Helvetica,sans-Serif" font-size="10.00">\SimpleInventory</text>
<polyline fill="none" stroke="black" points="83,-254.5 215,-254.5 "/>
<text text-anchor="start" x="91" y="-242.5" font-family="Helvetica,sans-Serif" font-size="10.00"># $slots</text>
<polyline fill="none" stroke="black" points="83,-235.5 215,-235.5 "/>
<text text-anchor="start" x="91" y="-223.5" font-family="Helvetica,sans-Serif" font-size="10.00">+ __construct()</text>
<text text-anchor="start" x="91" y="-212.5" font-family="Helvetica,sans-Serif" font-size="10.00">+ getContents()</text>
<text text-anchor="start" x="91" y="-201.5" font-family="Helvetica,sans-Serif" font-size="10.00">+ getItem()</text>
<text text-anchor="start" x="91" y="-190.5" font-family="Helvetica,sans-Serif" font-size="10.00">+ getSize()</text>
<text text-anchor="start" x="91" y="-179.5" font-family="Helvetica,sans-Serif" font-size="10.00"># internalSetContents()</text>
<text text-anchor="start" x="91" y="-168.5" font-family="Helvetica,sans-Serif" font-size="10.00"># internalSetItem()</text>
</a>
</g>
</g>
<!-- Node2&#45;&gt;Node1 -->
<g id="edge1" class="edge">
<title>Node2&#45;&gt;Node1</title>
<path fill="none" stroke="midnightblue" d="M109.31,-152.64C103.78,-142.99 98.14,-133.14 92.72,-123.66"/>
<polygon fill="none" stroke="midnightblue" points="106.33,-154.49 114.34,-161.44 112.41,-151.02 106.33,-154.49"/>
</g>
<!-- Node3 -->
<g id="node3" class="node">
<title>Node3</title>
<g id="a_node3"><a xlink:href="../../d5/dc4/classpocketmine_1_1inventory_1_1_base_inventory.html" target="_top" xlink:title=" ">
<polygon fill="white" stroke="black" points="106.5,-322.5 106.5,-566.5 261.5,-566.5 261.5,-322.5 106.5,-322.5"/>
<text text-anchor="start" x="114.5" y="-554.5" font-family="Helvetica,sans-Serif" font-size="10.00">pocketmine\inventory</text>
<text text-anchor="middle" x="184" y="-543.5" font-family="Helvetica,sans-Serif" font-size="10.00">\BaseInventory</text>
<polyline fill="none" stroke="black" points="106.5,-536.5 261.5,-536.5 "/>
<text text-anchor="start" x="114.5" y="-524.5" font-family="Helvetica,sans-Serif" font-size="10.00"># $listeners</text>
<text text-anchor="start" x="114.5" y="-513.5" font-family="Helvetica,sans-Serif" font-size="10.00"># $maxStackSize</text>
<text text-anchor="start" x="114.5" y="-502.5" font-family="Helvetica,sans-Serif" font-size="10.00"># $viewers</text>
<polyline fill="none" stroke="black" points="106.5,-495.5 261.5,-495.5 "/>
<text text-anchor="start" x="114.5" y="-483.5" font-family="Helvetica,sans-Serif" font-size="10.00">+ __construct()</text>
<text text-anchor="start" x="114.5" y="-472.5" font-family="Helvetica,sans-Serif" font-size="10.00">+ addItem()</text>
<text text-anchor="start" x="114.5" y="-461.5" font-family="Helvetica,sans-Serif" font-size="10.00">+ all()</text>
<text text-anchor="start" x="114.5" y="-450.5" font-family="Helvetica,sans-Serif" font-size="10.00">+ canAddItem()</text>
<text text-anchor="start" x="114.5" y="-439.5" font-family="Helvetica,sans-Serif" font-size="10.00">+ clear()</text>
<text text-anchor="start" x="114.5" y="-428.5" font-family="Helvetica,sans-Serif" font-size="10.00">+ clearAll()</text>
<text text-anchor="start" x="114.5" y="-417.5" font-family="Helvetica,sans-Serif" font-size="10.00">+ contains()</text>
<text text-anchor="start" x="114.5" y="-406.5" font-family="Helvetica,sans-Serif" font-size="10.00">+ first()</text>
<text text-anchor="start" x="114.5" y="-395.5" font-family="Helvetica,sans-Serif" font-size="10.00">+ firstEmpty()</text>
<text text-anchor="start" x="114.5" y="-384.5" font-family="Helvetica,sans-Serif" font-size="10.00">+ getAddableItemQuantity()</text>
<text text-anchor="start" x="114.5" y="-373.5" font-family="Helvetica,sans-Serif" font-size="10.00">and 14 more...</text>
<text text-anchor="start" x="114.5" y="-362.5" font-family="Helvetica,sans-Serif" font-size="10.00"># internalSetContents()</text>
<text text-anchor="start" x="114.5" y="-351.5" font-family="Helvetica,sans-Serif" font-size="10.00"># internalSetItem()</text>
<text text-anchor="start" x="114.5" y="-340.5" font-family="Helvetica,sans-Serif" font-size="10.00"># onContentChange()</text>
<text text-anchor="start" x="114.5" y="-329.5" font-family="Helvetica,sans-Serif" font-size="10.00"># onSlotChange()</text>
</a>
</g>
</g>
<!-- Node3&#45;&gt;Node2 -->
<g id="edge2" class="edge">
<title>Node3&#45;&gt;Node2</title>
<path fill="none" stroke="midnightblue" d="M163.06,-312.2C161.55,-302.68 160.06,-293.39 158.67,-284.62"/>
<polygon fill="none" stroke="midnightblue" points="159.63,-312.87 164.66,-322.19 166.54,-311.77 159.63,-312.87"/>
</g>
<!-- Node4 -->
<g id="node4" class="node">
<title>Node4</title>
<g id="a_node4"><a xlink:href="../../db/d39/interfacepocketmine_1_1inventory_1_1_inventory.html" target="_top" xlink:title=" ">
<polygon fill="white" stroke="#bfbfbf" points="77.5,-604.5 77.5,-782.5 232.5,-782.5 232.5,-604.5 77.5,-604.5"/>
<text text-anchor="start" x="85.5" y="-770.5" font-family="Helvetica,sans-Serif" font-size="10.00">pocketmine\inventory</text>
<text text-anchor="middle" x="155" y="-759.5" font-family="Helvetica,sans-Serif" font-size="10.00">\Inventory</text>
<polyline fill="none" stroke="#bfbfbf" points="77.5,-752.5 232.5,-752.5 "/>
<text text-anchor="middle" x="155" y="-740.5" font-family="Helvetica,sans-Serif" font-size="10.00"> </text>
<polyline fill="none" stroke="#bfbfbf" points="77.5,-733.5 232.5,-733.5 "/>
<text text-anchor="start" x="85.5" y="-721.5" font-family="Helvetica,sans-Serif" font-size="10.00">+ addItem()</text>
<text text-anchor="start" x="85.5" y="-710.5" font-family="Helvetica,sans-Serif" font-size="10.00">+ all()</text>
<text text-anchor="start" x="85.5" y="-699.5" font-family="Helvetica,sans-Serif" font-size="10.00">+ canAddItem()</text>
<text text-anchor="start" x="85.5" y="-688.5" font-family="Helvetica,sans-Serif" font-size="10.00">+ clear()</text>
<text text-anchor="start" x="85.5" y="-677.5" font-family="Helvetica,sans-Serif" font-size="10.00">+ clearAll()</text>
<text text-anchor="start" x="85.5" y="-666.5" font-family="Helvetica,sans-Serif" font-size="10.00">+ contains()</text>
<text text-anchor="start" x="85.5" y="-655.5" font-family="Helvetica,sans-Serif" font-size="10.00">+ first()</text>
<text text-anchor="start" x="85.5" y="-644.5" font-family="Helvetica,sans-Serif" font-size="10.00">+ firstEmpty()</text>
<text text-anchor="start" x="85.5" y="-633.5" font-family="Helvetica,sans-Serif" font-size="10.00">+ getAddableItemQuantity()</text>
<text text-anchor="start" x="85.5" y="-622.5" font-family="Helvetica,sans-Serif" font-size="10.00">+ getContents()</text>
<text text-anchor="start" x="85.5" y="-611.5" font-family="Helvetica,sans-Serif" font-size="10.00">and 15 more...</text>
</a>
</g>
</g>
<!-- Node4&#45;&gt;Node3 -->
<g id="edge3" class="edge">
<title>Node4&#45;&gt;Node3</title>
<path fill="none" stroke="midnightblue" d="M166.53,-594.27C167.59,-585.24 168.68,-576.02 169.76,-566.82"/>
<polygon fill="none" stroke="midnightblue" points="163.04,-594.03 165.35,-604.37 169.99,-594.85 163.04,-594.03"/>
</g>
<!-- Node5 -->
<g id="node5" class="node">
<title>Node5</title>
<g id="a_node5"><a xlink:title=" ">
<polygon fill="white" stroke="#bfbfbf" points="14.5,-830.5 14.5,-887.5 57.5,-887.5 57.5,-830.5 14.5,-830.5"/>
<text text-anchor="middle" x="36" y="-875.5" font-family="Helvetica,sans-Serif" font-size="10.00">const</text>
<polyline fill="none" stroke="#bfbfbf" points="14.5,-868.5 57.5,-868.5 "/>
<text text-anchor="middle" x="36" y="-856.5" font-family="Helvetica,sans-Serif" font-size="10.00"> </text>
<polyline fill="none" stroke="#bfbfbf" points="14.5,-849.5 57.5,-849.5 "/>
<text text-anchor="middle" x="36" y="-837.5" font-family="Helvetica,sans-Serif" font-size="10.00"> </text>
</a>
</g>
</g>
<!-- Node5&#45;&gt;Node1 -->
<g id="edge5" class="edge">
<title>Node5&#45;&gt;Node1</title>
<path fill="none" stroke="#404040" d="M31.63,-830.31C26.89,-797.86 20,-742.42 20,-694.5 20,-694.5 20,-694.5 20,-222 20,-193.2 25.97,-162.24 33.18,-135.37"/>
<polygon fill="none" stroke="#404040" points="33.2,-135.28 30.97,-128.43 36.45,-123.73 38.68,-130.59 33.2,-135.28"/>
<text text-anchor="middle" x="54" y="-447.5" font-family="Helvetica,sans-Serif" font-size="10.00"> +SIZE_BIG</text>
<text text-anchor="middle" x="54" y="-436.5" font-family="Helvetica,sans-Serif" font-size="10.00">+SIZE_SMALL</text>
</g>
<!-- Node5&#45;&gt;Node4 -->
<g id="edge4" class="edge">
<title>Node5&#45;&gt;Node4</title>
<path fill="none" stroke="#404040" d="M56.19,-830.26C64.03,-819.49 73.52,-806.44 83.49,-792.76"/>
<polygon fill="none" stroke="#404040" points="83.75,-792.4 84.04,-785.19 90.81,-782.7 90.51,-789.9 83.75,-792.4"/>
<text text-anchor="middle" x="109.5" y="-804" font-family="Helvetica,sans-Serif" font-size="10.00"> +MAX_STACK</text>
</g>
</g>
</svg>
