<?xml version="1.0" encoding="UTF-8" standalone="no"?>
<!DOCTYPE svg PUBLIC "-//W3C//DTD SVG 1.1//EN"
 "http://www.w3.org/Graphics/SVG/1.1/DTD/svg11.dtd">
<!-- Generated by graphviz version 2.43.0 (0)
 -->
<!-- Title: pocketmine\block\tile\FlowerPot\addAdditionalSpawnData Pages: 1 -->
<svg width="370pt" height="88pt"
 viewBox="0.00 0.00 370.00 88.00" xmlns="http://www.w3.org/2000/svg" xmlns:xlink="http://www.w3.org/1999/xlink">
<g id="graph0" class="graph" transform="scale(1 1) rotate(0) translate(4 84)">
<title>pocketmine\block\tile\FlowerPot\addAdditionalSpawnData</title>
<polygon fill="white" stroke="transparent" points="-4,4 -4,-84 366,-84 366,4 -4,4"/>
<!-- Node1 -->
<g id="node1" class="node">
<title>Node1</title>
<g id="a_node1"><a xlink:title=" ">
<polygon fill="#bfbfbf" stroke="black" points="0,-24.5 0,-54.5 194,-54.5 194,-24.5 0,-24.5"/>
<text text-anchor="start" x="8" y="-42.5" font-family="Helvetica,sans-Serif" font-size="10.00">pocketmine\block\tile</text>
<text text-anchor="middle" x="97" y="-31.5" font-family="Helvetica,sans-Serif" font-size="10.00">\FlowerPot\addAdditionalSpawnData</text>
</a>
</g>
</g>
<!-- Node2 -->
<g id="node2" class="node">
<title>Node2</title>
<g id="a_node2"><a xlink:href="../../de/d67/classpocketmine_1_1nbt_1_1tag_1_1_compound_tag.html#a37a17d15453a0dcd702cce422a977158" target="_top" xlink:title=" ">
<polygon fill="white" stroke="black" points="236.5,-49.5 236.5,-79.5 355.5,-79.5 355.5,-49.5 236.5,-49.5"/>
<text text-anchor="start" x="244.5" y="-67.5" font-family="Helvetica,sans-Serif" font-size="10.00">pocketmine\nbt\tag</text>
<text text-anchor="middle" x="296" y="-56.5" font-family="Helvetica,sans-Serif" font-size="10.00">\CompoundTag\setInt</text>
</a>
</g>
</g>
<!-- Node1&#45;&gt;Node2 -->
<g id="edge1" class="edge">
<title>Node1&#45;&gt;Node2</title>
<path fill="none" stroke="midnightblue" d="M194.19,-51.71C204.96,-53.07 215.76,-54.44 226.09,-55.76"/>
<polygon fill="midnightblue" stroke="midnightblue" points="225.88,-59.26 236.24,-57.04 226.76,-52.31 225.88,-59.26"/>
</g>
<!-- Node3 -->
<g id="node3" class="node">
<title>Node3</title>
<g id="a_node3"><a xlink:href="../../de/d67/classpocketmine_1_1nbt_1_1tag_1_1_compound_tag.html#a9d00667afd24ca6840a8d2a58f994087" target="_top" xlink:title=" ">
<polygon fill="white" stroke="black" points="230,-0.5 230,-30.5 362,-30.5 362,-0.5 230,-0.5"/>
<text text-anchor="start" x="238" y="-18.5" font-family="Helvetica,sans-Serif" font-size="10.00">pocketmine\nbt\tag</text>
<text text-anchor="middle" x="296" y="-7.5" font-family="Helvetica,sans-Serif" font-size="10.00">\CompoundTag\setShort</text>
</a>
</g>
</g>
<!-- Node1&#45;&gt;Node3 -->
<g id="edge2" class="edge">
<title>Node1&#45;&gt;Node3</title>
<path fill="none" stroke="midnightblue" d="M194.19,-27.78C202.8,-26.73 211.44,-25.68 219.83,-24.66"/>
<polygon fill="midnightblue" stroke="midnightblue" points="220.43,-28.11 229.93,-23.43 219.58,-21.16 220.43,-28.11"/>
</g>
</g>
</svg>
