<?xml version="1.0" encoding="UTF-8" standalone="no"?>
<!DOCTYPE svg PUBLIC "-//W3C//DTD SVG 1.1//EN"
 "http://www.w3.org/Graphics/SVG/1.1/DTD/svg11.dtd">
<!-- Generated by graphviz version 2.43.0 (0)
 -->
<!-- Title: pocketmine\crafting\TagWildcardRecipeIngredient Pages: 1 -->
<svg width="163pt" height="294pt"
 viewBox="0.00 0.00 163.00 294.00" xmlns="http://www.w3.org/2000/svg" xmlns:xlink="http://www.w3.org/1999/xlink">

<svg id="main" version="1.1" xmlns="http://www.w3.org/2000/svg" xmlns:xlink="http://www.w3.org/1999/xlink" xml:space="preserve">

<style type="text/css"><![CDATA[
.node, .edge {opacity: 0.7;}
.node.selected, .edge.selected {opacity: 1;}
.edge:hover path { stroke: red; }
.edge:hover polygon { stroke: red; fill: red; }
]]></style>
<script type="application/ecmascript" xlink:href="../../svg.min.js"/>
<svg id="graph" class="graph">
<g id="graph0" class="graph" transform="scale(1 1) rotate(0) translate(4 290)">
<title>pocketmine\crafting\TagWildcardRecipeIngredient</title>
<!-- Node1 -->
<g id="Node000001" class="node">
<title>Node1</title>
<g id="a_Node000001"><a xlink:title=" ">
<polygon fill="#999999" stroke="transparent" points="155,-105 0,-105 0,0 155,0 155,-105"/>
<text text-anchor="start" x="5.5" y="-92.5" font-family="Helvetica,sans-Serif" font-size="10.00">pocketmine\crafting</text>
<text text-anchor="start" x="5.5" y="-81.5" font-family="Helvetica,sans-Serif" font-size="10.00">\TagWildcardRecipeIngredient</text>
<text text-anchor="start" x="76" y="-66.5" font-family="Helvetica,sans-Serif" font-size="10.00"> </text>
<text text-anchor="start" x="20.5" y="-51.5" font-family="Helvetica,sans-Serif" font-size="10.00">+</text>
<text text-anchor="start" x="49.5" y="-51.5" font-family="Helvetica,sans-Serif" font-size="10.00">__construct()</text>
<text text-anchor="start" x="20.5" y="-36.5" font-family="Helvetica,sans-Serif" font-size="10.00">+</text>
<text text-anchor="start" x="49.5" y="-36.5" font-family="Helvetica,sans-Serif" font-size="10.00">__toString()</text>
<text text-anchor="start" x="20.5" y="-21.5" font-family="Helvetica,sans-Serif" font-size="10.00">+</text>
<text text-anchor="start" x="49.5" y="-21.5" font-family="Helvetica,sans-Serif" font-size="10.00">accepts()</text>
<text text-anchor="start" x="20.5" y="-6.5" font-family="Helvetica,sans-Serif" font-size="10.00">+</text>
<text text-anchor="start" x="49.5" y="-6.5" font-family="Helvetica,sans-Serif" font-size="10.00">getTagName()</text>
<polygon fill="#666666" stroke="#666666" points="0.5,-76.5 0.5,-76.5 155.5,-76.5 155.5,-76.5 0.5,-76.5"/>
<polygon fill="#666666" stroke="#666666" points="0.5,-61.5 0.5,-61.5 155.5,-61.5 155.5,-61.5 0.5,-61.5"/>
<polygon fill="none" stroke="#666666" points="0,0 0,-105 155,-105 155,0 0,0"/>
</a>
</g>
</g>
<!-- Node2 -->
<g id="Node000002" class="node">
<title>Node2</title>
<g id="a_Node000002"><a xlink:href="../../dd/d65/interfacepocketmine_1_1crafting_1_1_recipe_ingredient.html" target="_top" xlink:title=" ">
<polygon fill="white" stroke="transparent" points="131,-201 24,-201 24,-141 131,-141 131,-201"/>
<text text-anchor="start" x="29.5" y="-189" font-family="Helvetica,sans-Serif" font-size="10.00">pocketmine\crafting</text>
<text text-anchor="start" x="35" y="-178" font-family="Helvetica,sans-Serif" font-size="10.00">\RecipeIngredient</text>
<text text-anchor="start" x="76" y="-163" font-family="Helvetica,sans-Serif" font-size="10.00"> </text>
<text text-anchor="start" x="38.5" y="-148" font-family="Helvetica,sans-Serif" font-size="10.00">+</text>
<text text-anchor="start" x="61.5" y="-148" font-family="Helvetica,sans-Serif" font-size="10.00">accepts()</text>
<polygon fill="#bfbfbf" stroke="#bfbfbf" points="24.5,-173 24.5,-173 131.5,-173 131.5,-173 24.5,-173"/>
<polygon fill="#bfbfbf" stroke="#bfbfbf" points="24.5,-158 24.5,-158 131.5,-158 131.5,-158 24.5,-158"/>
<polygon fill="none" stroke="#bfbfbf" points="24,-141 24,-201 131,-201 131,-141 24,-141"/>
</a>
</g>
</g>
<!-- Node2&#45;&gt;Node1 -->
<g id="edge1_Node000001_Node000002" class="edge">
<title>Node2&#45;&gt;Node1</title>
<g id="a_edge1_Node000001_Node000002"><a xlink:title=" ">
<path fill="none" stroke="#63b8ff" d="M77.5,-130.88C77.5,-122.68 77.5,-113.92 77.5,-105.34"/>
<polygon fill="none" stroke="#63b8ff" points="74,-130.9 77.5,-140.9 81,-130.9 74,-130.9"/>
</a>
</g>
</g>
<!-- Node3 -->
<g id="Node000003" class="node">
<title>Node3</title>
<g id="a_Node000003"><a xlink:title=" ">
<polygon fill="white" stroke="transparent" points="107.5,-286 47.5,-286 47.5,-237 107.5,-237 107.5,-286"/>
<text text-anchor="start" x="52.5" y="-273.5" font-family="Helvetica,sans-Serif" font-size="10.00">Stringable</text>
<text text-anchor="start" x="75.5" y="-258.5" font-family="Helvetica,sans-Serif" font-size="10.00"> </text>
<text text-anchor="start" x="75.5" y="-243.5" font-family="Helvetica,sans-Serif" font-size="10.00"> </text>
<polygon fill="#bfbfbf" stroke="#bfbfbf" points="47.5,-268.5 47.5,-268.5 107.5,-268.5 107.5,-268.5 47.5,-268.5"/>
<polygon fill="#bfbfbf" stroke="#bfbfbf" points="47.5,-253.5 47.5,-253.5 107.5,-253.5 107.5,-253.5 47.5,-253.5"/>
<polygon fill="none" stroke="#bfbfbf" points="47.5,-237 47.5,-286 107.5,-286 107.5,-237 47.5,-237"/>
</a>
</g>
</g>
<!-- Node3&#45;&gt;Node2 -->
<g id="edge2_Node000002_Node000003" class="edge">
<title>Node3&#45;&gt;Node2</title>
<g id="a_edge2_Node000002_Node000003"><a xlink:title=" ">
<path fill="none" stroke="#63b8ff" d="M77.5,-226.55C77.5,-218.18 77.5,-209.28 77.5,-201.16"/>
<polygon fill="none" stroke="#63b8ff" points="74,-226.78 77.5,-236.78 81,-226.78 74,-226.78"/>
</a>
</g>
</g>
</g>
</svg>
</svg>

<style type='text/css'>
<![CDATA[
[data-mouse-over-selected='false'] { opacity: 0.7; }
[data-mouse-over-selected='true']  { opacity: 1.0; }
]]>
</style>
<script type="application/ecmascript"><![CDATA[
document.addEventListener('DOMContentLoaded', (event) => {
  highlightEdges();
  highlightAdjacentNodes();
});
]]></script>
</svg>
