<?xml version="1.0" encoding="UTF-8" standalone="no"?>
<!DOCTYPE svg PUBLIC "-//W3C//DTD SVG 1.1//EN"
 "http://www.w3.org/Graphics/SVG/1.1/DTD/svg11.dtd">
<!-- Generated by graphviz version 2.43.0 (0)
 -->
<!-- Title: pocketmine\resourcepacks\json\Manifest Pages: 1 -->
<svg width="320pt" height="270pt"
 viewBox="0.00 0.00 320.00 270.00" xmlns="http://www.w3.org/2000/svg" xmlns:xlink="http://www.w3.org/1999/xlink">
<g id="graph0" class="graph" transform="scale(1 1) rotate(0) translate(4 266)">
<title>pocketmine\resourcepacks\json\Manifest</title>
<polygon fill="white" stroke="transparent" points="-4,4 -4,-266 316,-266 316,4 -4,4"/>
<!-- Node1 -->
<g id="node1" class="node">
<title>Node1</title>
<g id="a_node1"><a xlink:title=" ">
<polygon fill="#bfbfbf" stroke="black" points="82,-0.5 82,-101.5 229,-101.5 229,-0.5 82,-0.5"/>
<text text-anchor="start" x="90" y="-89.5" font-family="Helvetica,sans-Serif" font-size="10.00">pocketmine\resourcepacks</text>
<text text-anchor="middle" x="155.5" y="-78.5" font-family="Helvetica,sans-Serif" font-size="10.00">\json\Manifest</text>
<polyline fill="none" stroke="black" points="82,-71.5 229,-71.5 "/>
<text text-anchor="start" x="90" y="-59.5" font-family="Helvetica,sans-Serif" font-size="10.00">+ $capabilities</text>
<text text-anchor="start" x="90" y="-48.5" font-family="Helvetica,sans-Serif" font-size="10.00">+ $dependencies</text>
<text text-anchor="start" x="90" y="-37.5" font-family="Helvetica,sans-Serif" font-size="10.00">+ $format_version</text>
<text text-anchor="start" x="90" y="-26.5" font-family="Helvetica,sans-Serif" font-size="10.00">+ $modules</text>
<polyline fill="none" stroke="black" points="82,-19.5 229,-19.5 "/>
<text text-anchor="middle" x="155.5" y="-7.5" font-family="Helvetica,sans-Serif" font-size="10.00"> </text>
</a>
</g>
</g>
<!-- Node2 -->
<g id="node2" class="node">
<title>Node2</title>
<g id="a_node2"><a xlink:href="../../d1/de8/classpocketmine_1_1resourcepacks_1_1json_1_1_manifest_header.html" target="_top" xlink:title=" ">
<polygon fill="white" stroke="#bfbfbf" points="0,-149.5 0,-261.5 147,-261.5 147,-149.5 0,-149.5"/>
<text text-anchor="start" x="8" y="-249.5" font-family="Helvetica,sans-Serif" font-size="10.00">pocketmine\resourcepacks</text>
<text text-anchor="middle" x="73.5" y="-238.5" font-family="Helvetica,sans-Serif" font-size="10.00">\json\ManifestHeader</text>
<polyline fill="none" stroke="#bfbfbf" points="0,-231.5 147,-231.5 "/>
<text text-anchor="start" x="8" y="-219.5" font-family="Helvetica,sans-Serif" font-size="10.00">+ $description</text>
<text text-anchor="start" x="8" y="-208.5" font-family="Helvetica,sans-Serif" font-size="10.00">+ $min_engine_version</text>
<text text-anchor="start" x="8" y="-197.5" font-family="Helvetica,sans-Serif" font-size="10.00">+ $name</text>
<text text-anchor="start" x="8" y="-186.5" font-family="Helvetica,sans-Serif" font-size="10.00">+ $uuid</text>
<text text-anchor="start" x="8" y="-175.5" font-family="Helvetica,sans-Serif" font-size="10.00">+ $version</text>
<polyline fill="none" stroke="#bfbfbf" points="0,-168.5 147,-168.5 "/>
<text text-anchor="middle" x="73.5" y="-156.5" font-family="Helvetica,sans-Serif" font-size="10.00"> </text>
</a>
</g>
</g>
<!-- Node2&#45;&gt;Node1 -->
<g id="edge1" class="edge">
<title>Node2&#45;&gt;Node1</title>
<path fill="none" stroke="#404040" d="M103.1,-149.44C109.6,-137.37 116.5,-124.52 123.1,-112.26"/>
<polygon fill="none" stroke="#404040" points="123.12,-112.23 122.43,-105.05 128.8,-101.66 129.48,-108.84 123.12,-112.23"/>
<text text-anchor="middle" x="143.5" y="-123" font-family="Helvetica,sans-Serif" font-size="10.00"> +$header</text>
</g>
<!-- Node3 -->
<g id="node3" class="node">
<title>Node3</title>
<g id="a_node3"><a xlink:href="../../d3/db1/classpocketmine_1_1resourcepacks_1_1json_1_1_manifest_metadata.html" target="_top" xlink:title=" ">
<polygon fill="white" stroke="#bfbfbf" points="165,-160.5 165,-250.5 312,-250.5 312,-160.5 165,-160.5"/>
<text text-anchor="start" x="173" y="-238.5" font-family="Helvetica,sans-Serif" font-size="10.00">pocketmine\resourcepacks</text>
<text text-anchor="middle" x="238.5" y="-227.5" font-family="Helvetica,sans-Serif" font-size="10.00">\json\ManifestMetadata</text>
<polyline fill="none" stroke="#bfbfbf" points="165,-220.5 312,-220.5 "/>
<text text-anchor="start" x="173" y="-208.5" font-family="Helvetica,sans-Serif" font-size="10.00">+ $authors</text>
<text text-anchor="start" x="173" y="-197.5" font-family="Helvetica,sans-Serif" font-size="10.00">+ $license</text>
<text text-anchor="start" x="173" y="-186.5" font-family="Helvetica,sans-Serif" font-size="10.00">+ $url</text>
<polyline fill="none" stroke="#bfbfbf" points="165,-179.5 312,-179.5 "/>
<text text-anchor="middle" x="238.5" y="-167.5" font-family="Helvetica,sans-Serif" font-size="10.00"> </text>
</a>
</g>
</g>
<!-- Node3&#45;&gt;Node1 -->
<g id="edge2" class="edge">
<title>Node3&#45;&gt;Node1</title>
<path fill="none" stroke="#404040" d="M214.49,-160.39C206.36,-145.45 197.14,-128.5 188.44,-112.51"/>
<polygon fill="none" stroke="#404040" points="188.25,-112.18 181.87,-108.82 182.51,-101.64 188.9,-104.99 188.25,-112.18"/>
<text text-anchor="middle" x="229" y="-123" font-family="Helvetica,sans-Serif" font-size="10.00"> +$metadata</text>
</g>
</g>
</svg>
