<?xml version="1.0" encoding="UTF-8" standalone="no"?>
<!DOCTYPE svg PUBLIC "-//W3C//DTD SVG 1.1//EN"
 "http://www.w3.org/Graphics/SVG/1.1/DTD/svg11.dtd">
<!-- Generated by graphviz version 2.43.0 (0)
 -->
<!-- Title: pocketmine\block\PotionCauldron Pages: 1 -->
<svg width="860pt" height="2319pt"
 viewBox="0.00 0.00 860.00 2319.00" xmlns="http://www.w3.org/2000/svg" xmlns:xlink="http://www.w3.org/1999/xlink">
<g id="graph0" class="graph" transform="scale(1 1) rotate(0) translate(4 2315)">
<title>pocketmine\block\PotionCauldron</title>
<!-- Node1 -->
<g id="Node000001" class="node">
<title>Node1</title>
<g id="a_Node000001"><a xlink:title=" ">
<polygon fill="#999999" stroke="transparent" points="359,-184 185,-184 185,0 359,0 359,-184"/>
<text text-anchor="start" x="190" y="-172" font-family="Helvetica,sans-Serif" font-size="10.00">pocketmine\block\PotionCauldron</text>
<text text-anchor="start" x="197.5" y="-157" font-family="Helvetica,sans-Serif" font-size="10.00">+</text>
<text text-anchor="start" x="219" y="-157" font-family="Helvetica,sans-Serif" font-size="10.00">POTION_FILL_AMOUNT</text>
<text text-anchor="start" x="197.5" y="-142" font-family="Helvetica,sans-Serif" font-size="10.00">+</text>
<text text-anchor="start" x="219" y="-142" font-family="Helvetica,sans-Serif" font-size="10.00">__construct()</text>
<text text-anchor="start" x="197.5" y="-127" font-family="Helvetica,sans-Serif" font-size="10.00">+</text>
<text text-anchor="start" x="219" y="-127" font-family="Helvetica,sans-Serif" font-size="10.00">getEmptySound()</text>
<text text-anchor="start" x="197.5" y="-112" font-family="Helvetica,sans-Serif" font-size="10.00">+</text>
<text text-anchor="start" x="219" y="-112" font-family="Helvetica,sans-Serif" font-size="10.00">getFillSound()</text>
<text text-anchor="start" x="197.5" y="-97" font-family="Helvetica,sans-Serif" font-size="10.00">+</text>
<text text-anchor="start" x="219" y="-97" font-family="Helvetica,sans-Serif" font-size="10.00">getPotionItem()</text>
<text text-anchor="start" x="197.5" y="-82" font-family="Helvetica,sans-Serif" font-size="10.00">+</text>
<text text-anchor="start" x="219" y="-82" font-family="Helvetica,sans-Serif" font-size="10.00">onInteract()</text>
<text text-anchor="start" x="197.5" y="-67" font-family="Helvetica,sans-Serif" font-size="10.00">+</text>
<text text-anchor="start" x="219" y="-67" font-family="Helvetica,sans-Serif" font-size="10.00">onNearbyBlockChange()</text>
<text text-anchor="start" x="197.5" y="-52" font-family="Helvetica,sans-Serif" font-size="10.00">+</text>
<text text-anchor="start" x="219" y="-52" font-family="Helvetica,sans-Serif" font-size="10.00">readStateFromWorld()</text>
<text text-anchor="start" x="197.5" y="-37" font-family="Helvetica,sans-Serif" font-size="10.00">+</text>
<text text-anchor="start" x="219" y="-37" font-family="Helvetica,sans-Serif" font-size="10.00">setPotionItem()</text>
<text text-anchor="start" x="197.5" y="-22" font-family="Helvetica,sans-Serif" font-size="10.00">+</text>
<text text-anchor="start" x="219" y="-22" font-family="Helvetica,sans-Serif" font-size="10.00">writeStateToWorld()</text>
<text text-anchor="start" x="197.5" y="-7" font-family="Helvetica,sans-Serif" font-size="10.00">#</text>
<text text-anchor="start" x="219" y="-7" font-family="Helvetica,sans-Serif" font-size="10.00">addFillLevelsOrMix()</text>
<polygon fill="#666666" stroke="#666666" points="185,-167 185,-167 359,-167 359,-167 185,-167"/>
<polygon fill="#666666" stroke="#666666" points="185,-152 185,-152 217,-152 217,-152 185,-152"/>
<polygon fill="#666666" stroke="#666666" points="217,-152 217,-152 359,-152 359,-152 217,-152"/>
<polygon fill="none" stroke="#666666" points="185,0 185,-184 359,-184 359,0 185,0"/>
</a>
</g>
</g>
<!-- Node2 -->
<g id="Node000002" class="node">
<title>Node2</title>
<g id="a_Node000002"><a xlink:href="../../d8/dce/classpocketmine_1_1block_1_1_fillable_cauldron.html" target="_top" xlink:title=" ">
<polygon fill="white" stroke="transparent" points="349,-461 195,-461 195,-221 349,-221 349,-461"/>
<text text-anchor="start" x="209.5" y="-449" font-family="Helvetica,sans-Serif" font-size="10.00">pocketmine\block\Fillable</text>
<text text-anchor="start" x="250" y="-438" font-family="Helvetica,sans-Serif" font-size="10.00">Cauldron</text>
<text text-anchor="start" x="199" y="-423" font-family="Helvetica,sans-Serif" font-size="10.00">+</text>
<text text-anchor="start" x="212" y="-423" font-family="Helvetica,sans-Serif" font-size="10.00">MAX_FILL_LEVEL</text>
<text text-anchor="start" x="199" y="-408" font-family="Helvetica,sans-Serif" font-size="10.00">+</text>
<text text-anchor="start" x="212" y="-408" font-family="Helvetica,sans-Serif" font-size="10.00">MIN_FILL_LEVEL</text>
<text text-anchor="start" x="199" y="-393" font-family="Helvetica,sans-Serif" font-size="10.00">+</text>
<text text-anchor="start" x="212" y="-393" font-family="Helvetica,sans-Serif" font-size="10.00">asItem()</text>
<text text-anchor="start" x="199" y="-378" font-family="Helvetica,sans-Serif" font-size="10.00">+</text>
<text text-anchor="start" x="212" y="-378" font-family="Helvetica,sans-Serif" font-size="10.00">getEmptySound()</text>
<text text-anchor="start" x="199" y="-363" font-family="Helvetica,sans-Serif" font-size="10.00">+</text>
<text text-anchor="start" x="212" y="-363" font-family="Helvetica,sans-Serif" font-size="10.00">getFillLevel()</text>
<text text-anchor="start" x="199" y="-348" font-family="Helvetica,sans-Serif" font-size="10.00">+</text>
<text text-anchor="start" x="212" y="-348" font-family="Helvetica,sans-Serif" font-size="10.00">getFillSound()</text>
<text text-anchor="start" x="199" y="-333" font-family="Helvetica,sans-Serif" font-size="10.00">+</text>
<text text-anchor="start" x="212" y="-333" font-family="Helvetica,sans-Serif" font-size="10.00">getSupportType()</text>
<text text-anchor="start" x="199" y="-318" font-family="Helvetica,sans-Serif" font-size="10.00">+</text>
<text text-anchor="start" x="212" y="-318" font-family="Helvetica,sans-Serif" font-size="10.00">setFillLevel()</text>
<text text-anchor="start" x="199" y="-303" font-family="Helvetica,sans-Serif" font-size="10.00">#</text>
<text text-anchor="start" x="212" y="-303" font-family="Helvetica,sans-Serif" font-size="10.00">addFillLevels()</text>
<text text-anchor="start" x="199" y="-288" font-family="Helvetica,sans-Serif" font-size="10.00">#</text>
<text text-anchor="start" x="212" y="-288" font-family="Helvetica,sans-Serif" font-size="10.00">describeBlockOnlyState()</text>
<text text-anchor="start" x="199" y="-273" font-family="Helvetica,sans-Serif" font-size="10.00">#</text>
<text text-anchor="start" x="212" y="-273" font-family="Helvetica,sans-Serif" font-size="10.00">mix()</text>
<text text-anchor="start" x="199" y="-258" font-family="Helvetica,sans-Serif" font-size="10.00">#</text>
<text text-anchor="start" x="212" y="-258" font-family="Helvetica,sans-Serif" font-size="10.00">recalculateCollisionBoxes()</text>
<text text-anchor="start" x="199" y="-243" font-family="Helvetica,sans-Serif" font-size="10.00">#</text>
<text text-anchor="start" x="212" y="-243" font-family="Helvetica,sans-Serif" font-size="10.00">removeFillLevels()</text>
<text text-anchor="start" x="199" y="-228" font-family="Helvetica,sans-Serif" font-size="10.00">#</text>
<text text-anchor="start" x="212" y="-228" font-family="Helvetica,sans-Serif" font-size="10.00">withFillLevel()</text>
<polygon fill="#bfbfbf" stroke="#bfbfbf" points="195,-433 195,-433 349,-433 349,-433 195,-433"/>
<polygon fill="#bfbfbf" stroke="#bfbfbf" points="195,-403 195,-403 210,-403 210,-403 195,-403"/>
<polygon fill="#bfbfbf" stroke="#bfbfbf" points="210,-403 210,-403 349,-403 349,-403 210,-403"/>
<polygon fill="none" stroke="#bfbfbf" points="195,-221 195,-461 349,-461 349,-221 195,-221"/>
</a>
</g>
</g>
<!-- Node2&#45;&gt;Node1 -->
<g id="edge1_Node000001_Node000002" class="edge">
<title>Node2&#45;&gt;Node1</title>
<g id="a_edge1_Node000001_Node000002"><a xlink:title=" ">
<path fill="none" stroke="#63b8ff" d="M272,-210.72C272,-201.76 272,-192.84 272,-184.15"/>
<polygon fill="none" stroke="#63b8ff" points="268.5,-210.84 272,-220.84 275.5,-210.84 268.5,-210.84"/>
</a>
</g>
</g>
<!-- Node3 -->
<g id="Node000003" class="node">
<title>Node3</title>
<g id="a_Node000003"><a xlink:href="../../d5/d1b/classpocketmine_1_1block_1_1_transparent.html" target="_top" xlink:title=" ">
<polygon fill="white" stroke="transparent" points="350.5,-547 193.5,-547 193.5,-498 350.5,-498 350.5,-547"/>
<text text-anchor="start" x="199" y="-534.5" font-family="Helvetica,sans-Serif" font-size="10.00">pocketmine\block\Transparent</text>
<text text-anchor="start" x="270.5" y="-519.5" font-family="Helvetica,sans-Serif" font-size="10.00"> </text>
<text text-anchor="start" x="213.5" y="-504.5" font-family="Helvetica,sans-Serif" font-size="10.00">+</text>
<text text-anchor="start" x="242" y="-504.5" font-family="Helvetica,sans-Serif" font-size="10.00">isTransparent()</text>
<polygon fill="#666666" stroke="#666666" points="194,-529.5 194,-529.5 351,-529.5 351,-529.5 194,-529.5"/>
<polygon fill="#666666" stroke="#666666" points="194,-514.5 194,-514.5 351,-514.5 351,-514.5 194,-514.5"/>
<polygon fill="none" stroke="#666666" points="193.5,-498 193.5,-547 350.5,-547 350.5,-498 193.5,-498"/>
</a>
</g>
</g>
<!-- Node3&#45;&gt;Node2 -->
<g id="edge2_Node000002_Node000003" class="edge">
<title>Node3&#45;&gt;Node2</title>
<g id="a_edge2_Node000002_Node000003"><a xlink:title=" ">
<path fill="none" stroke="#63b8ff" d="M272,-487.5C272,-479.58 272,-470.7 272,-461.34"/>
<polygon fill="none" stroke="#63b8ff" points="268.5,-487.66 272,-497.66 275.5,-487.66 268.5,-487.66"/>
</a>
</g>
</g>
<!-- Node4 -->
<g id="Node000004" class="node">
<title>Node4</title>
<g id="a_Node000004"><a xlink:href="../../d7/d27/classpocketmine_1_1block_1_1_block.html" target="_top" xlink:title=" ">
<polygon fill="white" stroke="transparent" points="356.5,-903 187.5,-903 187.5,-584 356.5,-584 356.5,-903"/>
<text text-anchor="start" x="214" y="-890.5" font-family="Helvetica,sans-Serif" font-size="10.00">pocketmine\block\Block</text>
<text text-anchor="start" x="192" y="-875.5" font-family="Helvetica,sans-Serif" font-size="10.00">+</text>
<text text-anchor="start" x="205" y="-875.5" font-family="Helvetica,sans-Serif" font-size="10.00">EMPTY_STATE_ID</text>
<text text-anchor="start" x="192" y="-860.5" font-family="Helvetica,sans-Serif" font-size="10.00">+</text>
<text text-anchor="start" x="205" y="-860.5" font-family="Helvetica,sans-Serif" font-size="10.00">INTERNAL_STATE_DATA_BITS</text>
<text text-anchor="start" x="192" y="-845.5" font-family="Helvetica,sans-Serif" font-size="10.00">+</text>
<text text-anchor="start" x="205" y="-845.5" font-family="Helvetica,sans-Serif" font-size="10.00">INTERNAL_STATE_DATA_MASK</text>
<text text-anchor="start" x="192" y="-830.5" font-family="Helvetica,sans-Serif" font-size="10.00">#</text>
<text text-anchor="start" x="205" y="-830.5" font-family="Helvetica,sans-Serif" font-size="10.00">$collisionBoxes</text>
<text text-anchor="start" x="192" y="-815.5" font-family="Helvetica,sans-Serif" font-size="10.00">#</text>
<text text-anchor="start" x="205" y="-815.5" font-family="Helvetica,sans-Serif" font-size="10.00">$fallbackName</text>
<text text-anchor="start" x="192" y="-800.5" font-family="Helvetica,sans-Serif" font-size="10.00">+</text>
<text text-anchor="start" x="205" y="-800.5" font-family="Helvetica,sans-Serif" font-size="10.00">__construct()</text>
<text text-anchor="start" x="192" y="-785.5" font-family="Helvetica,sans-Serif" font-size="10.00">+</text>
<text text-anchor="start" x="205" y="-785.5" font-family="Helvetica,sans-Serif" font-size="10.00">__clone()</text>
<text text-anchor="start" x="192" y="-770.5" font-family="Helvetica,sans-Serif" font-size="10.00">+</text>
<text text-anchor="start" x="205" y="-770.5" font-family="Helvetica,sans-Serif" font-size="10.00">__toString()</text>
<text text-anchor="start" x="192" y="-755.5" font-family="Helvetica,sans-Serif" font-size="10.00">+</text>
<text text-anchor="start" x="205" y="-755.5" font-family="Helvetica,sans-Serif" font-size="10.00">addVelocityToEntity()</text>
<text text-anchor="start" x="192" y="-740.5" font-family="Helvetica,sans-Serif" font-size="10.00">+</text>
<text text-anchor="start" x="205" y="-740.5" font-family="Helvetica,sans-Serif" font-size="10.00">asItem()</text>
<text text-anchor="start" x="192" y="-725.5" font-family="Helvetica,sans-Serif" font-size="10.00">+</text>
<text text-anchor="start" x="205" y="-725.5" font-family="Helvetica,sans-Serif" font-size="10.00">blocksDirectSkyLight()</text>
<text text-anchor="start" x="192" y="-710.5" font-family="Helvetica,sans-Serif" font-size="10.00">+</text>
<text text-anchor="start" x="205" y="-710.5" font-family="Helvetica,sans-Serif" font-size="10.00">burnsForever()</text>
<text text-anchor="start" x="192" y="-695.5" font-family="Helvetica,sans-Serif" font-size="10.00">+</text>
<text text-anchor="start" x="205" y="-695.5" font-family="Helvetica,sans-Serif" font-size="10.00">calculateIntercept()</text>
<text text-anchor="start" x="192" y="-680.5" font-family="Helvetica,sans-Serif" font-size="10.00">+</text>
<text text-anchor="start" x="205" y="-680.5" font-family="Helvetica,sans-Serif" font-size="10.00">canBeFlowedInto()</text>
<text text-anchor="start" x="192" y="-665.5" font-family="Helvetica,sans-Serif" font-size="10.00">+</text>
<text text-anchor="start" x="205" y="-665.5" font-family="Helvetica,sans-Serif" font-size="10.00">canBePlaced()</text>
<text text-anchor="start" x="205" y="-650.5" font-family="Helvetica,sans-Serif" font-size="10.00">and 60 more...</text>
<text text-anchor="start" x="192" y="-635.5" font-family="Helvetica,sans-Serif" font-size="10.00">#</text>
<text text-anchor="start" x="205" y="-635.5" font-family="Helvetica,sans-Serif" font-size="10.00">describeBlockOnlyState()</text>
<text text-anchor="start" x="192" y="-620.5" font-family="Helvetica,sans-Serif" font-size="10.00">#</text>
<text text-anchor="start" x="205" y="-620.5" font-family="Helvetica,sans-Serif" font-size="10.00">getAdjacentSupportType()</text>
<text text-anchor="start" x="192" y="-605.5" font-family="Helvetica,sans-Serif" font-size="10.00">#</text>
<text text-anchor="start" x="205" y="-605.5" font-family="Helvetica,sans-Serif" font-size="10.00">getXpDropAmount()</text>
<text text-anchor="start" x="192" y="-590.5" font-family="Helvetica,sans-Serif" font-size="10.00">#</text>
<text text-anchor="start" x="205" y="-590.5" font-family="Helvetica,sans-Serif" font-size="10.00">recalculateCollisionBoxes()</text>
<polygon fill="#bfbfbf" stroke="#bfbfbf" points="188,-885.5 188,-885.5 357,-885.5 357,-885.5 188,-885.5"/>
<polygon fill="#bfbfbf" stroke="#bfbfbf" points="188,-810.5 188,-810.5 203,-810.5 203,-810.5 188,-810.5"/>
<polygon fill="#bfbfbf" stroke="#bfbfbf" points="203,-810.5 203,-810.5 357,-810.5 357,-810.5 203,-810.5"/>
<polygon fill="none" stroke="#bfbfbf" points="187.5,-584 187.5,-903 356.5,-903 356.5,-584 187.5,-584"/>
</a>
</g>
</g>
<!-- Node4&#45;&gt;Node3 -->
<g id="edge3_Node000003_Node000004" class="edge">
<title>Node4&#45;&gt;Node3</title>
<g id="a_edge3_Node000003_Node000004"><a xlink:title=" ">
<path fill="none" stroke="#63b8ff" d="M272,-573.66C272,-563.69 272,-554.67 272,-547.1"/>
<polygon fill="none" stroke="#63b8ff" points="268.5,-573.92 272,-583.92 275.5,-573.92 268.5,-573.92"/>
</a>
</g>
</g>
<!-- Node5 -->
<g id="Node000005" class="node">
<title>Node5</title>
<g id="a_Node000005"><a xlink:href="../../dd/d18/classpocketmine_1_1block_1_1_block_identifier.html" target="_top" xlink:title=" ">
<polygon fill="white" stroke="transparent" points="170,-1066.5 0,-1066.5 0,-987.5 170,-987.5 170,-1066.5"/>
<text text-anchor="start" x="5" y="-1054" font-family="Helvetica,sans-Serif" font-size="10.00">pocketmine\block\BlockIdentifier</text>
<text text-anchor="start" x="83" y="-1039" font-family="Helvetica,sans-Serif" font-size="10.00"> </text>
<text text-anchor="start" x="20.5" y="-1024" font-family="Helvetica,sans-Serif" font-size="10.00">+</text>
<text text-anchor="start" x="50" y="-1024" font-family="Helvetica,sans-Serif" font-size="10.00">__construct()</text>
<text text-anchor="start" x="20.5" y="-1009" font-family="Helvetica,sans-Serif" font-size="10.00">+</text>
<text text-anchor="start" x="50" y="-1009" font-family="Helvetica,sans-Serif" font-size="10.00">getBlockTypeId()</text>
<text text-anchor="start" x="20.5" y="-994" font-family="Helvetica,sans-Serif" font-size="10.00">+</text>
<text text-anchor="start" x="50" y="-994" font-family="Helvetica,sans-Serif" font-size="10.00">getTileClass()</text>
<polygon fill="#bfbfbf" stroke="#bfbfbf" points="0,-1049 0,-1049 170,-1049 170,-1049 0,-1049"/>
<polygon fill="#bfbfbf" stroke="#bfbfbf" points="0,-1034 0,-1034 170,-1034 170,-1034 0,-1034"/>
<polygon fill="none" stroke="#bfbfbf" points="0,-987.5 0,-1066.5 170,-1066.5 170,-987.5 0,-987.5"/>
</a>
</g>
</g>
<!-- Node5&#45;&gt;Node4 -->
<g id="edge4_Node000004_Node000005" class="edge">
<title>Node5&#45;&gt;Node4</title>
<g id="a_edge4_Node000004_Node000005"><a xlink:title=" ">
<path fill="none" stroke="#63b8ff" d="M110.61,-987.45C128.93,-959.87 154.79,-920.94 180.46,-882.31"/>
<polygon fill="none" stroke="#63b8ff" points="180.69,-881.96 180.67,-874.75 187.33,-871.96 187.34,-879.17 180.69,-881.96"/>
</a>
</g>
<text text-anchor="middle" x="174" y="-924" font-family="Helvetica,sans-Serif" font-size="10.00" fill="grey"> #$idInfo</text>
</g>
<!-- Node6 -->
<g id="Node000006" class="node">
<title>Node6</title>
<g id="a_Node000006"><a xlink:href="../../de/d9a/classpocketmine_1_1block_1_1_block_type_info.html" target="_top" xlink:title=" ">
<polygon fill="white" stroke="transparent" points="356,-1081.5 188,-1081.5 188,-972.5 356,-972.5 356,-1081.5"/>
<text text-anchor="start" x="193" y="-1069" font-family="Helvetica,sans-Serif" font-size="10.00">pocketmine\block\BlockTypeInfo</text>
<text text-anchor="start" x="270" y="-1054" font-family="Helvetica,sans-Serif" font-size="10.00"> </text>
<text text-anchor="start" x="201" y="-1039" font-family="Helvetica,sans-Serif" font-size="10.00">+</text>
<text text-anchor="start" x="223" y="-1039" font-family="Helvetica,sans-Serif" font-size="10.00">__construct()</text>
<text text-anchor="start" x="201" y="-1024" font-family="Helvetica,sans-Serif" font-size="10.00">+</text>
<text text-anchor="start" x="223" y="-1024" font-family="Helvetica,sans-Serif" font-size="10.00">getBreakInfo()</text>
<text text-anchor="start" x="201" y="-1009" font-family="Helvetica,sans-Serif" font-size="10.00">+</text>
<text text-anchor="start" x="223" y="-1009" font-family="Helvetica,sans-Serif" font-size="10.00">getEnchantmentTags()</text>
<text text-anchor="start" x="201" y="-994" font-family="Helvetica,sans-Serif" font-size="10.00">+</text>
<text text-anchor="start" x="223" y="-994" font-family="Helvetica,sans-Serif" font-size="10.00">getTypeTags()</text>
<text text-anchor="start" x="201" y="-979" font-family="Helvetica,sans-Serif" font-size="10.00">+</text>
<text text-anchor="start" x="223" y="-979" font-family="Helvetica,sans-Serif" font-size="10.00">hasTypeTag()</text>
<polygon fill="#bfbfbf" stroke="#bfbfbf" points="188,-1064 188,-1064 356,-1064 356,-1064 188,-1064"/>
<polygon fill="#bfbfbf" stroke="#bfbfbf" points="188,-1049 188,-1049 356,-1049 356,-1049 188,-1049"/>
<polygon fill="none" stroke="#bfbfbf" points="188,-972.5 188,-1081.5 356,-1081.5 356,-972.5 188,-972.5"/>
</a>
</g>
</g>
<!-- Node6&#45;&gt;Node4 -->
<g id="edge5_Node000004_Node000006" class="edge">
<title>Node6&#45;&gt;Node4</title>
<g id="a_edge5_Node000004_Node000006"><a xlink:title=" ">
<path fill="none" stroke="#63b8ff" d="M272,-972.39C272,-955.52 272,-935.9 272,-915.38"/>
<polygon fill="none" stroke="#63b8ff" points="272,-915.21 268,-909.21 272,-903.21 276,-909.21 272,-915.21"/>
</a>
</g>
<text text-anchor="middle" x="301" y="-924" font-family="Helvetica,sans-Serif" font-size="10.00" fill="grey"> #$typeInfo</text>
</g>
<!-- Node7 -->
<g id="Node000007" class="node">
<title>Node7</title>
<g id="a_Node000007"><a xlink:href="../../d5/dd2/classpocketmine_1_1world_1_1_position.html" target="_top" xlink:title=" ">
<polygon fill="white" stroke="transparent" points="514,-1104 374,-1104 374,-950 514,-950 514,-1104"/>
<text text-anchor="start" x="379" y="-1092" font-family="Helvetica,sans-Serif" font-size="10.00">pocketmine\world\Position</text>
<text text-anchor="start" x="442" y="-1077" font-family="Helvetica,sans-Serif" font-size="10.00"> </text>
<text text-anchor="start" x="391.5" y="-1062" font-family="Helvetica,sans-Serif" font-size="10.00">+</text>
<text text-anchor="start" x="418" y="-1062" font-family="Helvetica,sans-Serif" font-size="10.00">__construct()</text>
<text text-anchor="start" x="391.5" y="-1047" font-family="Helvetica,sans-Serif" font-size="10.00">+</text>
<text text-anchor="start" x="418" y="-1047" font-family="Helvetica,sans-Serif" font-size="10.00">__toString()</text>
<text text-anchor="start" x="391.5" y="-1032" font-family="Helvetica,sans-Serif" font-size="10.00">+</text>
<text text-anchor="start" x="418" y="-1032" font-family="Helvetica,sans-Serif" font-size="10.00">asPosition()</text>
<text text-anchor="start" x="391.5" y="-1017" font-family="Helvetica,sans-Serif" font-size="10.00">+</text>
<text text-anchor="start" x="418" y="-1017" font-family="Helvetica,sans-Serif" font-size="10.00">equals()</text>
<text text-anchor="start" x="391.5" y="-1002" font-family="Helvetica,sans-Serif" font-size="10.00">+</text>
<text text-anchor="start" x="418" y="-1002" font-family="Helvetica,sans-Serif" font-size="10.00">getSide()</text>
<text text-anchor="start" x="391.5" y="-987" font-family="Helvetica,sans-Serif" font-size="10.00">+</text>
<text text-anchor="start" x="418" y="-987" font-family="Helvetica,sans-Serif" font-size="10.00">getWorld()</text>
<text text-anchor="start" x="391.5" y="-972" font-family="Helvetica,sans-Serif" font-size="10.00">+</text>
<text text-anchor="start" x="418" y="-972" font-family="Helvetica,sans-Serif" font-size="10.00">isValid()</text>
<text text-anchor="start" x="391.5" y="-957" font-family="Helvetica,sans-Serif" font-size="10.00">+</text>
<text text-anchor="start" x="418" y="-957" font-family="Helvetica,sans-Serif" font-size="10.00">fromObject()</text>
<polygon fill="#bfbfbf" stroke="#bfbfbf" points="374,-1087 374,-1087 514,-1087 514,-1087 374,-1087"/>
<polygon fill="#bfbfbf" stroke="#bfbfbf" points="374,-1072 374,-1072 514,-1072 514,-1072 374,-1072"/>
<polygon fill="none" stroke="#bfbfbf" points="374,-950 374,-1104 514,-1104 514,-950 374,-950"/>
</a>
</g>
</g>
<!-- Node7&#45;&gt;Node4 -->
<g id="edge6_Node000004_Node000007" class="edge">
<title>Node7&#45;&gt;Node4</title>
<g id="a_edge6_Node000004_Node000007"><a xlink:title=" ">
<path fill="none" stroke="#63b8ff" d="M397.45,-949.82C386.65,-932.14 374.79,-912.73 362.8,-893.11"/>
<polygon fill="none" stroke="#63b8ff" points="362.78,-893.08 356.24,-890.05 356.53,-882.84 363.07,-885.88 362.78,-893.08"/>
</a>
</g>
<text text-anchor="middle" x="412.5" y="-924" font-family="Helvetica,sans-Serif" font-size="10.00" fill="grey"> #$position</text>
</g>
<!-- Node8 -->
<g id="Node000008" class="node">
<title>Node8</title>
<g id="a_Node000008"><a xlink:href="../../d2/d90/classpocketmine_1_1math_1_1_vector3.html" target="_top" xlink:title=" ">
<polygon fill="white" stroke="transparent" points="462,-1513 326,-1513 326,-1254 462,-1254 462,-1513"/>
<text text-anchor="start" x="331" y="-1500.5" font-family="Helvetica,sans-Serif" font-size="10.00">pocketmine\math\Vector3</text>
<text text-anchor="start" x="392" y="-1485.5" font-family="Helvetica,sans-Serif" font-size="10.00"> </text>
<text text-anchor="start" x="336" y="-1470.5" font-family="Helvetica,sans-Serif" font-size="10.00">+</text>
<text text-anchor="start" x="355" y="-1470.5" font-family="Helvetica,sans-Serif" font-size="10.00">__construct()</text>
<text text-anchor="start" x="336" y="-1455.5" font-family="Helvetica,sans-Serif" font-size="10.00">+</text>
<text text-anchor="start" x="355" y="-1455.5" font-family="Helvetica,sans-Serif" font-size="10.00">__toString()</text>
<text text-anchor="start" x="336" y="-1440.5" font-family="Helvetica,sans-Serif" font-size="10.00">+</text>
<text text-anchor="start" x="355" y="-1440.5" font-family="Helvetica,sans-Serif" font-size="10.00">abs()</text>
<text text-anchor="start" x="336" y="-1425.5" font-family="Helvetica,sans-Serif" font-size="10.00">+</text>
<text text-anchor="start" x="355" y="-1425.5" font-family="Helvetica,sans-Serif" font-size="10.00">add()</text>
<text text-anchor="start" x="336" y="-1410.5" font-family="Helvetica,sans-Serif" font-size="10.00">+</text>
<text text-anchor="start" x="355" y="-1410.5" font-family="Helvetica,sans-Serif" font-size="10.00">addVector()</text>
<text text-anchor="start" x="336" y="-1395.5" font-family="Helvetica,sans-Serif" font-size="10.00">+</text>
<text text-anchor="start" x="355" y="-1395.5" font-family="Helvetica,sans-Serif" font-size="10.00">asVector3()</text>
<text text-anchor="start" x="336" y="-1380.5" font-family="Helvetica,sans-Serif" font-size="10.00">+</text>
<text text-anchor="start" x="355" y="-1380.5" font-family="Helvetica,sans-Serif" font-size="10.00">ceil()</text>
<text text-anchor="start" x="336" y="-1365.5" font-family="Helvetica,sans-Serif" font-size="10.00">+</text>
<text text-anchor="start" x="355" y="-1365.5" font-family="Helvetica,sans-Serif" font-size="10.00">cross()</text>
<text text-anchor="start" x="336" y="-1350.5" font-family="Helvetica,sans-Serif" font-size="10.00">+</text>
<text text-anchor="start" x="355" y="-1350.5" font-family="Helvetica,sans-Serif" font-size="10.00">distance()</text>
<text text-anchor="start" x="336" y="-1335.5" font-family="Helvetica,sans-Serif" font-size="10.00">+</text>
<text text-anchor="start" x="355" y="-1335.5" font-family="Helvetica,sans-Serif" font-size="10.00">distanceSquared()</text>
<text text-anchor="start" x="355" y="-1320.5" font-family="Helvetica,sans-Serif" font-size="10.00">and 32 more...</text>
<text text-anchor="start" x="336" y="-1305.5" font-family="Helvetica,sans-Serif" font-size="10.00">+</text>
<text text-anchor="start" x="355" y="-1305.5" font-family="Helvetica,sans-Serif" font-size="10.00">maxComponents()</text>
<text text-anchor="start" x="336" y="-1290.5" font-family="Helvetica,sans-Serif" font-size="10.00">+</text>
<text text-anchor="start" x="355" y="-1290.5" font-family="Helvetica,sans-Serif" font-size="10.00">minComponents()</text>
<text text-anchor="start" x="336" y="-1275.5" font-family="Helvetica,sans-Serif" font-size="10.00">+</text>
<text text-anchor="start" x="355" y="-1275.5" font-family="Helvetica,sans-Serif" font-size="10.00">sum()</text>
<text text-anchor="start" x="336" y="-1260.5" font-family="Helvetica,sans-Serif" font-size="10.00">+</text>
<text text-anchor="start" x="355" y="-1260.5" font-family="Helvetica,sans-Serif" font-size="10.00">zero()</text>
<polygon fill="#bfbfbf" stroke="#bfbfbf" points="326,-1495.5 326,-1495.5 462,-1495.5 462,-1495.5 326,-1495.5"/>
<polygon fill="#bfbfbf" stroke="#bfbfbf" points="326,-1480.5 326,-1480.5 462,-1480.5 462,-1480.5 326,-1480.5"/>
<polygon fill="none" stroke="#bfbfbf" points="326,-1254 326,-1513 462,-1513 462,-1254 326,-1254"/>
</a>
</g>
</g>
<!-- Node8&#45;&gt;Node7 -->
<g id="edge7_Node000007_Node000008" class="edge">
<title>Node8&#45;&gt;Node7</title>
<g id="a_edge7_Node000007_Node000008"><a xlink:title=" ">
<path fill="none" stroke="#63b8ff" d="M413.58,-1243.69C420.28,-1196.2 427.52,-1144.83 433.26,-1104.14"/>
<polygon fill="none" stroke="#63b8ff" points="410.09,-1243.37 412.16,-1253.77 417.02,-1244.35 410.09,-1243.37"/>
</a>
</g>
</g>
<!-- Node9 -->
<g id="Node000009" class="node">
<title>Node9</title>
<g id="a_Node000009"><a xlink:href="../../d4/d2b/classpocketmine_1_1world_1_1_world.html" target="_top" xlink:title=" ">
<polygon fill="white" stroke="transparent" points="646,-1616 480,-1616 480,-1151 646,-1151 646,-1616"/>
<text text-anchor="start" x="504" y="-1603.5" font-family="Helvetica,sans-Serif" font-size="10.00">pocketmine\world\World</text>
<text text-anchor="start" x="484" y="-1588.5" font-family="Helvetica,sans-Serif" font-size="10.00">+</text>
<text text-anchor="start" x="497" y="-1588.5" font-family="Helvetica,sans-Serif" font-size="10.00">$stopTime</text>
<text text-anchor="start" x="484" y="-1573.5" font-family="Helvetica,sans-Serif" font-size="10.00">+</text>
<text text-anchor="start" x="497" y="-1573.5" font-family="Helvetica,sans-Serif" font-size="10.00">$tickRateTime</text>
<text text-anchor="start" x="484" y="-1558.5" font-family="Helvetica,sans-Serif" font-size="10.00">+</text>
<text text-anchor="start" x="497" y="-1558.5" font-family="Helvetica,sans-Serif" font-size="10.00">$updateEntities</text>
<text text-anchor="start" x="484" y="-1543.5" font-family="Helvetica,sans-Serif" font-size="10.00">+</text>
<text text-anchor="start" x="497" y="-1543.5" font-family="Helvetica,sans-Serif" font-size="10.00">DEFAULT_TICKED_BLOCKS</text>
<text text-anchor="start" x="497" y="-1532.5" font-family="Helvetica,sans-Serif" font-size="10.00">_PER_SUBCHUNK_PER_TICK</text>
<text text-anchor="start" x="484" y="-1517.5" font-family="Helvetica,sans-Serif" font-size="10.00">+</text>
<text text-anchor="start" x="497" y="-1517.5" font-family="Helvetica,sans-Serif" font-size="10.00">DIFFICULTY_EASY</text>
<text text-anchor="start" x="484" y="-1502.5" font-family="Helvetica,sans-Serif" font-size="10.00">+</text>
<text text-anchor="start" x="497" y="-1502.5" font-family="Helvetica,sans-Serif" font-size="10.00">DIFFICULTY_HARD</text>
<text text-anchor="start" x="484" y="-1487.5" font-family="Helvetica,sans-Serif" font-size="10.00">+</text>
<text text-anchor="start" x="497" y="-1487.5" font-family="Helvetica,sans-Serif" font-size="10.00">DIFFICULTY_NORMAL</text>
<text text-anchor="start" x="484" y="-1472.5" font-family="Helvetica,sans-Serif" font-size="10.00">+</text>
<text text-anchor="start" x="497" y="-1472.5" font-family="Helvetica,sans-Serif" font-size="10.00">DIFFICULTY_PEACEFUL</text>
<text text-anchor="start" x="484" y="-1457.5" font-family="Helvetica,sans-Serif" font-size="10.00">+</text>
<text text-anchor="start" x="497" y="-1457.5" font-family="Helvetica,sans-Serif" font-size="10.00">TIME_DAY</text>
<text text-anchor="start" x="484" y="-1442.5" font-family="Helvetica,sans-Serif" font-size="10.00">+</text>
<text text-anchor="start" x="497" y="-1442.5" font-family="Helvetica,sans-Serif" font-size="10.00">TIME_FULL</text>
<text text-anchor="start" x="497" y="-1427.5" font-family="Helvetica,sans-Serif" font-size="10.00">and 7 more...</text>
<text text-anchor="start" x="484" y="-1412.5" font-family="Helvetica,sans-Serif" font-size="10.00">+</text>
<text text-anchor="start" x="497" y="-1412.5" font-family="Helvetica,sans-Serif" font-size="10.00">__construct()</text>
<text text-anchor="start" x="484" y="-1397.5" font-family="Helvetica,sans-Serif" font-size="10.00">+</text>
<text text-anchor="start" x="497" y="-1397.5" font-family="Helvetica,sans-Serif" font-size="10.00">__debugInfo()</text>
<text text-anchor="start" x="484" y="-1382.5" font-family="Helvetica,sans-Serif" font-size="10.00">+</text>
<text text-anchor="start" x="497" y="-1382.5" font-family="Helvetica,sans-Serif" font-size="10.00">addEntity()</text>
<text text-anchor="start" x="484" y="-1367.5" font-family="Helvetica,sans-Serif" font-size="10.00">+</text>
<text text-anchor="start" x="497" y="-1367.5" font-family="Helvetica,sans-Serif" font-size="10.00">addOnUnloadCallback()</text>
<text text-anchor="start" x="484" y="-1352.5" font-family="Helvetica,sans-Serif" font-size="10.00">+</text>
<text text-anchor="start" x="497" y="-1352.5" font-family="Helvetica,sans-Serif" font-size="10.00">addParticle()</text>
<text text-anchor="start" x="484" y="-1337.5" font-family="Helvetica,sans-Serif" font-size="10.00">+</text>
<text text-anchor="start" x="497" y="-1337.5" font-family="Helvetica,sans-Serif" font-size="10.00">addRandomTickedBlock()</text>
<text text-anchor="start" x="484" y="-1322.5" font-family="Helvetica,sans-Serif" font-size="10.00">+</text>
<text text-anchor="start" x="497" y="-1322.5" font-family="Helvetica,sans-Serif" font-size="10.00">addSound()</text>
<text text-anchor="start" x="484" y="-1307.5" font-family="Helvetica,sans-Serif" font-size="10.00">+</text>
<text text-anchor="start" x="497" y="-1307.5" font-family="Helvetica,sans-Serif" font-size="10.00">addTile()</text>
<text text-anchor="start" x="484" y="-1292.5" font-family="Helvetica,sans-Serif" font-size="10.00">+</text>
<text text-anchor="start" x="497" y="-1292.5" font-family="Helvetica,sans-Serif" font-size="10.00">broadcastPacketToViewers()</text>
<text text-anchor="start" x="484" y="-1277.5" font-family="Helvetica,sans-Serif" font-size="10.00">+</text>
<text text-anchor="start" x="497" y="-1277.5" font-family="Helvetica,sans-Serif" font-size="10.00">cancelUnloadChunkRequest()</text>
<text text-anchor="start" x="497" y="-1262.5" font-family="Helvetica,sans-Serif" font-size="10.00">and 124 more...</text>
<text text-anchor="start" x="484" y="-1247.5" font-family="Helvetica,sans-Serif" font-size="10.00">+</text>
<text text-anchor="start" x="497" y="-1247.5" font-family="Helvetica,sans-Serif" font-size="10.00">blockHash()</text>
<text text-anchor="start" x="484" y="-1232.5" font-family="Helvetica,sans-Serif" font-size="10.00">+</text>
<text text-anchor="start" x="497" y="-1232.5" font-family="Helvetica,sans-Serif" font-size="10.00">chunkBlockHash()</text>
<text text-anchor="start" x="484" y="-1217.5" font-family="Helvetica,sans-Serif" font-size="10.00">+</text>
<text text-anchor="start" x="497" y="-1217.5" font-family="Helvetica,sans-Serif" font-size="10.00">chunkHash()</text>
<text text-anchor="start" x="484" y="-1202.5" font-family="Helvetica,sans-Serif" font-size="10.00">+</text>
<text text-anchor="start" x="497" y="-1202.5" font-family="Helvetica,sans-Serif" font-size="10.00">getBlockXYZ()</text>
<text text-anchor="start" x="484" y="-1187.5" font-family="Helvetica,sans-Serif" font-size="10.00">+</text>
<text text-anchor="start" x="497" y="-1187.5" font-family="Helvetica,sans-Serif" font-size="10.00">getDifficultyFromString()</text>
<text text-anchor="start" x="484" y="-1172.5" font-family="Helvetica,sans-Serif" font-size="10.00">+</text>
<text text-anchor="start" x="497" y="-1172.5" font-family="Helvetica,sans-Serif" font-size="10.00">getXZ()</text>
<text text-anchor="start" x="484" y="-1157.5" font-family="Helvetica,sans-Serif" font-size="10.00">#</text>
<text text-anchor="start" x="497" y="-1157.5" font-family="Helvetica,sans-Serif" font-size="10.00">actuallyDoTick()</text>
<polygon fill="#666666" stroke="#666666" points="480,-1598.5 480,-1598.5 646,-1598.5 646,-1598.5 480,-1598.5"/>
<polygon fill="#666666" stroke="#666666" points="480,-1422.5 480,-1422.5 495,-1422.5 495,-1422.5 480,-1422.5"/>
<polygon fill="#666666" stroke="#666666" points="495,-1422.5 495,-1422.5 646,-1422.5 646,-1422.5 495,-1422.5"/>
<polygon fill="none" stroke="#666666" points="480,-1151 480,-1616 646,-1616 646,-1151 480,-1151"/>
</a>
</g>
</g>
<!-- Node9&#45;&gt;Node7 -->
<g id="edge8_Node000007_Node000009" class="edge">
<title>Node9&#45;&gt;Node7</title>
<g id="a_edge8_Node000007_Node000009"><a xlink:title=" ">
<path fill="none" stroke="#63b8ff" d="M485.29,-1150.99C481.16,-1138.71 477.17,-1126.81 473.39,-1115.56"/>
<polygon fill="none" stroke="#63b8ff" points="473.36,-1115.46 467.66,-1111.05 469.54,-1104.09 475.24,-1108.5 473.36,-1115.46"/>
</a>
</g>
<text text-anchor="middle" x="502.5" y="-1125" font-family="Helvetica,sans-Serif" font-size="10.00" fill="grey"> +$world</text>
</g>
<!-- Node10 -->
<g id="Node000010" class="node">
<title>Node10</title>
<g id="a_Node000010"><a xlink:href="../../d0/d03/interfacepocketmine_1_1world_1_1_chunk_manager.html" target="_top" xlink:title=" ">
<polygon fill="white" stroke="transparent" points="595,-1858 421,-1858 421,-1719 595,-1719 595,-1858"/>
<text text-anchor="start" x="426" y="-1845.5" font-family="Helvetica,sans-Serif" font-size="10.00">pocketmine\world\ChunkManager</text>
<text text-anchor="start" x="506" y="-1830.5" font-family="Helvetica,sans-Serif" font-size="10.00"> </text>
<text text-anchor="start" x="448" y="-1815.5" font-family="Helvetica,sans-Serif" font-size="10.00">+</text>
<text text-anchor="start" x="484" y="-1815.5" font-family="Helvetica,sans-Serif" font-size="10.00">getBlockAt()</text>
<text text-anchor="start" x="448" y="-1800.5" font-family="Helvetica,sans-Serif" font-size="10.00">+</text>
<text text-anchor="start" x="484" y="-1800.5" font-family="Helvetica,sans-Serif" font-size="10.00">getChunk()</text>
<text text-anchor="start" x="448" y="-1785.5" font-family="Helvetica,sans-Serif" font-size="10.00">+</text>
<text text-anchor="start" x="484" y="-1785.5" font-family="Helvetica,sans-Serif" font-size="10.00">getMaxY()</text>
<text text-anchor="start" x="448" y="-1770.5" font-family="Helvetica,sans-Serif" font-size="10.00">+</text>
<text text-anchor="start" x="484" y="-1770.5" font-family="Helvetica,sans-Serif" font-size="10.00">getMinY()</text>
<text text-anchor="start" x="448" y="-1755.5" font-family="Helvetica,sans-Serif" font-size="10.00">+</text>
<text text-anchor="start" x="484" y="-1755.5" font-family="Helvetica,sans-Serif" font-size="10.00">isInWorld()</text>
<text text-anchor="start" x="448" y="-1740.5" font-family="Helvetica,sans-Serif" font-size="10.00">+</text>
<text text-anchor="start" x="484" y="-1740.5" font-family="Helvetica,sans-Serif" font-size="10.00">setBlockAt()</text>
<text text-anchor="start" x="448" y="-1725.5" font-family="Helvetica,sans-Serif" font-size="10.00">+</text>
<text text-anchor="start" x="484" y="-1725.5" font-family="Helvetica,sans-Serif" font-size="10.00">setChunk()</text>
<polygon fill="#bfbfbf" stroke="#bfbfbf" points="421,-1840.5 421,-1840.5 595,-1840.5 595,-1840.5 421,-1840.5"/>
<polygon fill="#bfbfbf" stroke="#bfbfbf" points="421,-1825.5 421,-1825.5 595,-1825.5 595,-1825.5 421,-1825.5"/>
<polygon fill="none" stroke="#bfbfbf" points="421,-1719 421,-1858 595,-1858 595,-1719 421,-1719"/>
</a>
</g>
</g>
<!-- Node10&#45;&gt;Node9 -->
<g id="edge9_Node000009_Node000010" class="edge">
<title>Node10&#45;&gt;Node9</title>
<g id="a_edge9_Node000009_Node000010"><a xlink:title=" ">
<path fill="none" stroke="#63b8ff" d="M518.78,-1708.5C522.49,-1681.3 526.86,-1649.3 531.38,-1616.18"/>
<polygon fill="none" stroke="#63b8ff" points="515.28,-1708.3 517.39,-1718.68 522.21,-1709.24 515.28,-1708.3"/>
</a>
</g>
</g>
<!-- Node11 -->
<g id="Node000011" class="node">
<title>Node11</title>
<g id="a_Node000011"><a xlink:href="../../d7/d08/classpocketmine_1_1world_1_1_world_timings.html" target="_top" xlink:title=" ">
<polygon fill="white" stroke="transparent" points="780.5,-1914 613.5,-1914 613.5,-1663 780.5,-1663 780.5,-1914"/>
<text text-anchor="start" x="619" y="-1901.5" font-family="Helvetica,sans-Serif" font-size="10.00">pocketmine\world\WorldTimings</text>
<text text-anchor="start" x="618" y="-1886.5" font-family="Helvetica,sans-Serif" font-size="10.00">+</text>
<text text-anchor="start" x="631" y="-1886.5" font-family="Helvetica,sans-Serif" font-size="10.00">$randomChunkUpdatesChunk</text>
<text text-anchor="start" x="631" y="-1875.5" font-family="Helvetica,sans-Serif" font-size="10.00">Selection</text>
<text text-anchor="start" x="618" y="-1860.5" font-family="Helvetica,sans-Serif" font-size="10.00">+</text>
<text text-anchor="start" x="631" y="-1860.5" font-family="Helvetica,sans-Serif" font-size="10.00">$scheduledBlockUpdates</text>
<text text-anchor="start" x="618" y="-1845.5" font-family="Helvetica,sans-Serif" font-size="10.00">+</text>
<text text-anchor="start" x="631" y="-1845.5" font-family="Helvetica,sans-Serif" font-size="10.00">$setBlock</text>
<text text-anchor="start" x="618" y="-1830.5" font-family="Helvetica,sans-Serif" font-size="10.00">+</text>
<text text-anchor="start" x="631" y="-1830.5" font-family="Helvetica,sans-Serif" font-size="10.00">$syncChunkLoad</text>
<text text-anchor="start" x="618" y="-1815.5" font-family="Helvetica,sans-Serif" font-size="10.00">+</text>
<text text-anchor="start" x="631" y="-1815.5" font-family="Helvetica,sans-Serif" font-size="10.00">$syncChunkLoadData</text>
<text text-anchor="start" x="618" y="-1800.5" font-family="Helvetica,sans-Serif" font-size="10.00">+</text>
<text text-anchor="start" x="631" y="-1800.5" font-family="Helvetica,sans-Serif" font-size="10.00">$syncChunkLoadEntities</text>
<text text-anchor="start" x="618" y="-1785.5" font-family="Helvetica,sans-Serif" font-size="10.00">+</text>
<text text-anchor="start" x="631" y="-1785.5" font-family="Helvetica,sans-Serif" font-size="10.00">$syncChunkLoadFixInvalid</text>
<text text-anchor="start" x="631" y="-1774.5" font-family="Helvetica,sans-Serif" font-size="10.00">Blocks</text>
<text text-anchor="start" x="618" y="-1759.5" font-family="Helvetica,sans-Serif" font-size="10.00">+</text>
<text text-anchor="start" x="631" y="-1759.5" font-family="Helvetica,sans-Serif" font-size="10.00">$syncChunkLoadTileEntities</text>
<text text-anchor="start" x="618" y="-1744.5" font-family="Helvetica,sans-Serif" font-size="10.00">+</text>
<text text-anchor="start" x="631" y="-1744.5" font-family="Helvetica,sans-Serif" font-size="10.00">$syncChunkSave</text>
<text text-anchor="start" x="618" y="-1729.5" font-family="Helvetica,sans-Serif" font-size="10.00">+</text>
<text text-anchor="start" x="631" y="-1729.5" font-family="Helvetica,sans-Serif" font-size="10.00">$syncChunkSend</text>
<text text-anchor="start" x="618" y="-1714.5" font-family="Helvetica,sans-Serif" font-size="10.00">+</text>
<text text-anchor="start" x="631" y="-1714.5" font-family="Helvetica,sans-Serif" font-size="10.00">$syncChunkSendPrepare</text>
<text text-anchor="start" x="618" y="-1699.5" font-family="Helvetica,sans-Serif" font-size="10.00">+</text>
<text text-anchor="start" x="631" y="-1699.5" font-family="Helvetica,sans-Serif" font-size="10.00">$syncDataSave</text>
<text text-anchor="start" x="618" y="-1684.5" font-family="Helvetica,sans-Serif" font-size="10.00">+</text>
<text text-anchor="start" x="631" y="-1684.5" font-family="Helvetica,sans-Serif" font-size="10.00">$tileTick</text>
<text text-anchor="start" x="618" y="-1669.5" font-family="Helvetica,sans-Serif" font-size="10.00">+</text>
<text text-anchor="start" x="631" y="-1669.5" font-family="Helvetica,sans-Serif" font-size="10.00">__construct()</text>
<polygon fill="#bfbfbf" stroke="#bfbfbf" points="614,-1896.5 614,-1896.5 781,-1896.5 781,-1896.5 614,-1896.5"/>
<polygon fill="#bfbfbf" stroke="#bfbfbf" points="614,-1679.5 614,-1679.5 629,-1679.5 629,-1679.5 614,-1679.5"/>
<polygon fill="#bfbfbf" stroke="#bfbfbf" points="629,-1679.5 629,-1679.5 781,-1679.5 781,-1679.5 629,-1679.5"/>
<polygon fill="none" stroke="#bfbfbf" points="613.5,-1663 613.5,-1914 780.5,-1914 780.5,-1663 613.5,-1663"/>
</a>
</g>
</g>
<!-- Node11&#45;&gt;Node9 -->
<g id="edge10_Node000009_Node000011" class="edge">
<title>Node11&#45;&gt;Node9</title>
<g id="a_edge10_Node000009_Node000011"><a xlink:title=" ">
<path fill="none" stroke="#63b8ff" d="M655.52,-1662.75C651.73,-1651.36 647.82,-1639.59 643.84,-1627.61"/>
<polygon fill="none" stroke="#63b8ff" points="643.79,-1627.46 638.1,-1623.03 640,-1616.07 645.69,-1620.51 643.79,-1627.46"/>
</a>
</g>
<text text-anchor="middle" x="674.5" y="-1637" font-family="Helvetica,sans-Serif" font-size="10.00" fill="grey"> +$timings</text>
</g>
<!-- Node12 -->
<g id="Node000012" class="node">
<title>Node12</title>
<g id="a_Node000012"><a xlink:href="../../d7/d9b/classpocketmine_1_1timings_1_1_timings_handler.html" target="_top" xlink:title=" ">
<polygon fill="white" stroke="transparent" points="750.5,-2311 643.5,-2311 643.5,-2071 750.5,-2071 750.5,-2311"/>
<text text-anchor="start" x="649" y="-2299" font-family="Helvetica,sans-Serif" font-size="10.00">pocketmine\timings</text>
<text text-anchor="start" x="657" y="-2288" font-family="Helvetica,sans-Serif" font-size="10.00">\TimingsHandler</text>
<text text-anchor="start" x="695.5" y="-2273" font-family="Helvetica,sans-Serif" font-size="10.00"> </text>
<text text-anchor="start" x="651.5" y="-2258" font-family="Helvetica,sans-Serif" font-size="10.00">+</text>
<text text-anchor="start" x="668" y="-2258" font-family="Helvetica,sans-Serif" font-size="10.00">__construct()</text>
<text text-anchor="start" x="651.5" y="-2243" font-family="Helvetica,sans-Serif" font-size="10.00">+</text>
<text text-anchor="start" x="668" y="-2243" font-family="Helvetica,sans-Serif" font-size="10.00">getGroup()</text>
<text text-anchor="start" x="651.5" y="-2228" font-family="Helvetica,sans-Serif" font-size="10.00">+</text>
<text text-anchor="start" x="668" y="-2228" font-family="Helvetica,sans-Serif" font-size="10.00">getName()</text>
<text text-anchor="start" x="651.5" y="-2213" font-family="Helvetica,sans-Serif" font-size="10.00">+</text>
<text text-anchor="start" x="668" y="-2213" font-family="Helvetica,sans-Serif" font-size="10.00">reset()</text>
<text text-anchor="start" x="651.5" y="-2198" font-family="Helvetica,sans-Serif" font-size="10.00">+</text>
<text text-anchor="start" x="668" y="-2198" font-family="Helvetica,sans-Serif" font-size="10.00">startTiming()</text>
<text text-anchor="start" x="651.5" y="-2183" font-family="Helvetica,sans-Serif" font-size="10.00">+</text>
<text text-anchor="start" x="668" y="-2183" font-family="Helvetica,sans-Serif" font-size="10.00">stopTiming()</text>
<text text-anchor="start" x="651.5" y="-2168" font-family="Helvetica,sans-Serif" font-size="10.00">+</text>
<text text-anchor="start" x="668" y="-2168" font-family="Helvetica,sans-Serif" font-size="10.00">time()</text>
<text text-anchor="start" x="651.5" y="-2153" font-family="Helvetica,sans-Serif" font-size="10.00">+</text>
<text text-anchor="start" x="668" y="-2153" font-family="Helvetica,sans-Serif" font-size="10.00">getStartTime()</text>
<text text-anchor="start" x="651.5" y="-2138" font-family="Helvetica,sans-Serif" font-size="10.00">+</text>
<text text-anchor="start" x="668" y="-2138" font-family="Helvetica,sans-Serif" font-size="10.00">isEnabled()</text>
<text text-anchor="start" x="651.5" y="-2123" font-family="Helvetica,sans-Serif" font-size="10.00">+</text>
<text text-anchor="start" x="668" y="-2123" font-family="Helvetica,sans-Serif" font-size="10.00">printTimings()</text>
<text text-anchor="start" x="651.5" y="-2108" font-family="Helvetica,sans-Serif" font-size="10.00">+</text>
<text text-anchor="start" x="668" y="-2108" font-family="Helvetica,sans-Serif" font-size="10.00">reload()</text>
<text text-anchor="start" x="651.5" y="-2093" font-family="Helvetica,sans-Serif" font-size="10.00">+</text>
<text text-anchor="start" x="668" y="-2093" font-family="Helvetica,sans-Serif" font-size="10.00">setEnabled()</text>
<text text-anchor="start" x="651.5" y="-2078" font-family="Helvetica,sans-Serif" font-size="10.00">+</text>
<text text-anchor="start" x="668" y="-2078" font-family="Helvetica,sans-Serif" font-size="10.00">tick()</text>
<polygon fill="#bfbfbf" stroke="#bfbfbf" points="644,-2283 644,-2283 751,-2283 751,-2283 644,-2283"/>
<polygon fill="#bfbfbf" stroke="#bfbfbf" points="644,-2268 644,-2268 751,-2268 751,-2268 644,-2268"/>
<polygon fill="none" stroke="#bfbfbf" points="643.5,-2071 643.5,-2311 750.5,-2311 750.5,-2071 643.5,-2071"/>
</a>
</g>
</g>
<!-- Node12&#45;&gt;Node11 -->
<g id="edge11_Node000011_Node000012" class="edge">
<title>Node12&#45;&gt;Node11</title>
<g id="a_edge11_Node000011_Node000012"><a xlink:title=" ">
<path fill="none" stroke="#63b8ff" d="M697,-2070.92C697,-2025.42 697,-1973.19 697,-1926.18"/>
<polygon fill="none" stroke="#63b8ff" points="697,-1926.03 693,-1920.03 697,-1914.03 701,-1920.03 697,-1926.03"/>
</a>
</g>
<text text-anchor="middle" x="774.5" y="-2045" font-family="Helvetica,sans-Serif" font-size="10.00" fill="grey"> +$chunkPopulationCompletion</text>
<text text-anchor="middle" x="774.5" y="-2034" font-family="Helvetica,sans-Serif" font-size="10.00" fill="grey">+$chunkPopulationOrder</text>
<text text-anchor="middle" x="774.5" y="-2023" font-family="Helvetica,sans-Serif" font-size="10.00" fill="grey">+$doBlockLightUpdates</text>
<text text-anchor="middle" x="774.5" y="-2012" font-family="Helvetica,sans-Serif" font-size="10.00" fill="grey">+$doBlockSkyLightUpdates</text>
<text text-anchor="middle" x="774.5" y="-2001" font-family="Helvetica,sans-Serif" font-size="10.00" fill="grey">+$doChunkGC</text>
<text text-anchor="middle" x="774.5" y="-1990" font-family="Helvetica,sans-Serif" font-size="10.00" fill="grey">+$doChunkUnload</text>
<text text-anchor="middle" x="774.5" y="-1979" font-family="Helvetica,sans-Serif" font-size="10.00" fill="grey">+$doTick</text>
<text text-anchor="middle" x="774.5" y="-1968" font-family="Helvetica,sans-Serif" font-size="10.00" fill="grey">+$entityTick</text>
<text text-anchor="middle" x="774.5" y="-1957" font-family="Helvetica,sans-Serif" font-size="10.00" fill="grey">+$neighbourBlockUpdates</text>
<text text-anchor="middle" x="774.5" y="-1946" font-family="Helvetica,sans-Serif" font-size="10.00" fill="grey">+$randomChunkUpdates</text>
<text text-anchor="middle" x="774.5" y="-1935" font-family="Helvetica,sans-Serif" font-size="10.00" fill="grey">...</text>
</g>
</g>
</svg>
