<?xml version="1.0" encoding="UTF-8" standalone="no"?>
<!DOCTYPE svg PUBLIC "-//W3C//DTD SVG 1.1//EN"
 "http://www.w3.org/Graphics/SVG/1.1/DTD/svg11.dtd">
<!-- Generated by graphviz version 2.43.0 (0)
 -->
<!-- Title: pocketmine\network\mcpe\protocol\types\entity\CompoundTagMetadataProperty Pages: 1 -->
<svg width="175pt" height="281pt"
 viewBox="0.00 0.00 175.00 281.00" xmlns="http://www.w3.org/2000/svg" xmlns:xlink="http://www.w3.org/1999/xlink">
<g id="graph0" class="graph" transform="scale(1 1) rotate(0) translate(4 277)">
<title>pocketmine\network\mcpe\protocol\types\entity\CompoundTagMetadataProperty</title>
<polygon fill="white" stroke="transparent" points="-4,4 -4,-277 171,-277 171,4 -4,4"/>
<!-- Node1 -->
<g id="node1" class="node">
<title>Node1</title>
<g id="a_node1"><a xlink:title=" ">
<polygon fill="#bfbfbf" stroke="black" points="0,-0.5 0,-134.5 167,-134.5 167,-0.5 0,-0.5"/>
<text text-anchor="start" x="8" y="-122.5" font-family="Helvetica,sans-Serif" font-size="10.00">pocketmine\network</text>
<text text-anchor="start" x="8" y="-111.5" font-family="Helvetica,sans-Serif" font-size="10.00">\mcpe\protocol\types</text>
<text text-anchor="start" x="8" y="-100.5" font-family="Helvetica,sans-Serif" font-size="10.00">\entity\CompoundTagMetadata</text>
<text text-anchor="middle" x="83.5" y="-89.5" font-family="Helvetica,sans-Serif" font-size="10.00">Property</text>
<polyline fill="none" stroke="black" points="0,-82.5 167,-82.5 "/>
<text text-anchor="start" x="8" y="-70.5" font-family="Helvetica,sans-Serif" font-size="10.00">+ ID</text>
<polyline fill="none" stroke="black" points="0,-63.5 167,-63.5 "/>
<text text-anchor="start" x="8" y="-51.5" font-family="Helvetica,sans-Serif" font-size="10.00">+ __construct()</text>
<text text-anchor="start" x="8" y="-40.5" font-family="Helvetica,sans-Serif" font-size="10.00">+ equals()</text>
<text text-anchor="start" x="8" y="-29.5" font-family="Helvetica,sans-Serif" font-size="10.00">+ getValue()</text>
<text text-anchor="start" x="8" y="-18.5" font-family="Helvetica,sans-Serif" font-size="10.00">+ write()</text>
<text text-anchor="start" x="8" y="-7.5" font-family="Helvetica,sans-Serif" font-size="10.00">+ read()</text>
</a>
</g>
</g>
<!-- Node2 -->
<g id="node2" class="node">
<title>Node2</title>
<g id="a_node2"><a xlink:href="../../d0/d15/interfacepocketmine_1_1network_1_1mcpe_1_1protocol_1_1types_1_1entity_1_1_metadata_property.html" target="_top" xlink:title=" ">
<polygon fill="white" stroke="#bfbfbf" points="14,-171.5 14,-272.5 153,-272.5 153,-171.5 14,-171.5"/>
<text text-anchor="start" x="22" y="-260.5" font-family="Helvetica,sans-Serif" font-size="10.00">pocketmine\network</text>
<text text-anchor="start" x="22" y="-249.5" font-family="Helvetica,sans-Serif" font-size="10.00">\mcpe\protocol\types</text>
<text text-anchor="middle" x="83.5" y="-238.5" font-family="Helvetica,sans-Serif" font-size="10.00">\entity\MetadataProperty</text>
<polyline fill="none" stroke="#bfbfbf" points="14,-231.5 153,-231.5 "/>
<text text-anchor="middle" x="83.5" y="-219.5" font-family="Helvetica,sans-Serif" font-size="10.00"> </text>
<polyline fill="none" stroke="#bfbfbf" points="14,-212.5 153,-212.5 "/>
<text text-anchor="start" x="22" y="-200.5" font-family="Helvetica,sans-Serif" font-size="10.00">+ equals()</text>
<text text-anchor="start" x="22" y="-189.5" font-family="Helvetica,sans-Serif" font-size="10.00">+ getTypeId()</text>
<text text-anchor="start" x="22" y="-178.5" font-family="Helvetica,sans-Serif" font-size="10.00">+ write()</text>
</a>
</g>
</g>
<!-- Node2&#45;&gt;Node1 -->
<g id="edge1" class="edge">
<title>Node2&#45;&gt;Node1</title>
<path fill="none" stroke="midnightblue" d="M83.5,-161.38C83.5,-152.63 83.5,-143.56 83.5,-134.69"/>
<polygon fill="none" stroke="midnightblue" points="80,-161.49 83.5,-171.49 87,-161.49 80,-161.49"/>
</g>
</g>
</svg>
