<?xml version="1.0" encoding="UTF-8" standalone="no"?>
<!DOCTYPE svg PUBLIC "-//W3C//DTD SVG 1.1//EN"
 "http://www.w3.org/Graphics/SVG/1.1/DTD/svg11.dtd">
<!-- Generated by graphviz version 2.43.0 (0)
 -->
<!-- Title: pocketmine\block\tile\Chest Pages: 1 -->
<!--zoomable 749 -->
<svg id="main" version="1.1" xmlns="http://www.w3.org/2000/svg" xmlns:xlink="http://www.w3.org/1999/xlink" xml:space="preserve" onload="init(evt)">
<style type="text/css"><![CDATA[
.edge:hover path { stroke: red; }
.edge:hover polygon { stroke: red; fill: red; }
]]></style>
<script type="text/javascript"><![CDATA[
var edges = document.getElementsByTagName('g');
if (edges && edges.length) {
  for (var i=0;i<edges.length;i++) {
    if (edges[i].id.substr(0,4)=='edge') {
      edges[i].setAttribute('class','edge');
    }
  }
}
]]></script>
        <defs>
                <circle id="rim" cx="0" cy="0" r="7"/>
                <circle id="rim2" cx="0" cy="0" r="3.5"/>
                <g id="zoomPlus">
                        <use xlink:href="#rim" fill="#404040">
                                <set attributeName="fill" to="#808080" begin="zoomplus.mouseover" end="zoomplus.mouseout"/>
                        </use>
                        <path d="M-4,0h8M0,-4v8" fill="none" stroke="white" stroke-width="1.5" pointer-events="none"/>
                </g>
                <g id="zoomMin">
                        <use xlink:href="#rim" fill="#404040">
                                <set attributeName="fill" to="#808080" begin="zoomminus.mouseover" end="zoomminus.mouseout"/>
                        </use>
                        <path d="M-4,0h8" fill="none" stroke="white" stroke-width="1.5" pointer-events="none"/>
                </g>
                <g id="dirArrow">
                        <path fill="none" stroke="white" stroke-width="1.5" d="M0,-3.0v7 M-2.5,-0.5L0,-3.0L2.5,-0.5"/>
                </g>
               <g id="resetDef">
                       <use xlink:href="#rim2" fill="#404040">
                               <set attributeName="fill" to="#808080" begin="reset.mouseover" end="reset.mouseout"/>
                       </use>
               </g>
        </defs>

<script type="text/javascript">
var viewWidth = 486;
var viewHeight = 749;
var sectionId = 'dynsection-0';
</script>
<script xlink:href="../../svgpan.js"/>
<svg id="graph" class="graph">
<g id="viewport">
<title>pocketmine\block\tile\Chest</title>
<polygon fill="white" stroke="transparent" points="-4,4 -4,-745 482,-745 482,4 -4,4"/>
<!-- Node1 -->
<g id="node1" class="node">
<title>Node1</title>
<g id="a_node1"><a xlink:title=" ">
<polygon fill="#bfbfbf" stroke="black" points="190,-0.5 190,-266.5 348,-266.5 348,-0.5 190,-0.5"/>
<text text-anchor="start" x="198" y="-254.5" font-family="Helvetica,sans-Serif" font-size="10.00">pocketmine\block\tile</text>
<text text-anchor="middle" x="269" y="-243.5" font-family="Helvetica,sans-Serif" font-size="10.00">\Chest</text>
<polyline fill="none" stroke="black" points="190,-236.5 348,-236.5 "/>
<text text-anchor="start" x="198" y="-224.5" font-family="Helvetica,sans-Serif" font-size="10.00">+ TAG_PAIR_LEAD</text>
<text text-anchor="start" x="198" y="-213.5" font-family="Helvetica,sans-Serif" font-size="10.00">+ TAG_PAIRX</text>
<text text-anchor="start" x="198" y="-202.5" font-family="Helvetica,sans-Serif" font-size="10.00">+ TAG_PAIRZ</text>
<text text-anchor="start" x="198" y="-191.5" font-family="Helvetica,sans-Serif" font-size="10.00"># $doubleInventory</text>
<text text-anchor="start" x="198" y="-180.5" font-family="Helvetica,sans-Serif" font-size="10.00"># $inventory</text>
<polyline fill="none" stroke="black" points="190,-173.5 348,-173.5 "/>
<text text-anchor="start" x="198" y="-161.5" font-family="Helvetica,sans-Serif" font-size="10.00">+ __construct()</text>
<text text-anchor="start" x="198" y="-150.5" font-family="Helvetica,sans-Serif" font-size="10.00">+ close()</text>
<text text-anchor="start" x="198" y="-139.5" font-family="Helvetica,sans-Serif" font-size="10.00">+ getCleanedNBT()</text>
<text text-anchor="start" x="198" y="-128.5" font-family="Helvetica,sans-Serif" font-size="10.00">+ getDefaultName()</text>
<text text-anchor="start" x="198" y="-117.5" font-family="Helvetica,sans-Serif" font-size="10.00">+ getInventory()</text>
<text text-anchor="start" x="198" y="-106.5" font-family="Helvetica,sans-Serif" font-size="10.00">+ getPair()</text>
<text text-anchor="start" x="198" y="-95.5" font-family="Helvetica,sans-Serif" font-size="10.00">+ getRealInventory()</text>
<text text-anchor="start" x="198" y="-84.5" font-family="Helvetica,sans-Serif" font-size="10.00">+ isPaired()</text>
<text text-anchor="start" x="198" y="-73.5" font-family="Helvetica,sans-Serif" font-size="10.00">+ pairWith()</text>
<text text-anchor="start" x="198" y="-62.5" font-family="Helvetica,sans-Serif" font-size="10.00">+ readSaveData()</text>
<text text-anchor="start" x="198" y="-51.5" font-family="Helvetica,sans-Serif" font-size="10.00">+ unpair()</text>
<text text-anchor="start" x="198" y="-40.5" font-family="Helvetica,sans-Serif" font-size="10.00"># addAdditionalSpawnData()</text>
<text text-anchor="start" x="198" y="-29.5" font-family="Helvetica,sans-Serif" font-size="10.00"># checkPairing()</text>
<text text-anchor="start" x="198" y="-18.5" font-family="Helvetica,sans-Serif" font-size="10.00"># onBlockDestroyedHook()</text>
<text text-anchor="start" x="198" y="-7.5" font-family="Helvetica,sans-Serif" font-size="10.00"># writeSaveData()</text>
</a>
</g>
</g>
<!-- Node2 -->
<g id="node2" class="node">
<title>Node2</title>
<g id="a_node2"><a xlink:href="../../dc/d0b/classpocketmine_1_1block_1_1tile_1_1_spawnable.html" target="_top" xlink:title=" ">
<polygon fill="white" stroke="#bfbfbf" points="0,-303.5 0,-448.5 190,-448.5 190,-303.5 0,-303.5"/>
<text text-anchor="start" x="8" y="-436.5" font-family="Helvetica,sans-Serif" font-size="10.00">pocketmine\block\tile</text>
<text text-anchor="middle" x="95" y="-425.5" font-family="Helvetica,sans-Serif" font-size="10.00">\Spawnable</text>
<polyline fill="none" stroke="#bfbfbf" points="0,-418.5 190,-418.5 "/>
<text text-anchor="middle" x="95" y="-406.5" font-family="Helvetica,sans-Serif" font-size="10.00"> </text>
<polyline fill="none" stroke="#bfbfbf" points="0,-399.5 190,-399.5 "/>
<text text-anchor="start" x="8" y="-387.5" font-family="Helvetica,sans-Serif" font-size="10.00">+ clearSpawnCompoundCache()</text>
<text text-anchor="start" x="8" y="-376.5" font-family="Helvetica,sans-Serif" font-size="10.00">+ getRenderUpdateBugWorkaround</text>
<text text-anchor="start" x="8" y="-365.5" font-family="Helvetica,sans-Serif" font-size="10.00">StateProperties()</text>
<text text-anchor="start" x="8" y="-354.5" font-family="Helvetica,sans-Serif" font-size="10.00">+ getSerializedSpawnCompound()</text>
<text text-anchor="start" x="8" y="-343.5" font-family="Helvetica,sans-Serif" font-size="10.00">+ getSpawnCompound()</text>
<text text-anchor="start" x="8" y="-332.5" font-family="Helvetica,sans-Serif" font-size="10.00">+ isDirty()</text>
<text text-anchor="start" x="8" y="-321.5" font-family="Helvetica,sans-Serif" font-size="10.00">+ setDirty()</text>
<text text-anchor="start" x="8" y="-310.5" font-family="Helvetica,sans-Serif" font-size="10.00"># addAdditionalSpawnData()</text>
</a>
</g>
</g>
<!-- Node2&#45;&gt;Node1 -->
<g id="edge1" class="edge">
<title>Node2&#45;&gt;Node1</title>
<path fill="none" stroke="midnightblue" d="M152.84,-295.05C164.67,-278.7 177.32,-261.22 189.75,-244.04"/>
<polygon fill="none" stroke="midnightblue" points="149.76,-293.34 146.73,-303.49 155.43,-297.44 149.76,-293.34"/>
</g>
<!-- Node3 -->
<g id="node3" class="node">
<title>Node3</title>
<g id="a_node3"><a xlink:href="../../d9/d74/classpocketmine_1_1block_1_1tile_1_1_tile.html" target="_top" xlink:title=" ">
<polygon fill="white" stroke="#bfbfbf" points="20,-485.5 20,-740.5 170,-740.5 170,-485.5 20,-485.5"/>
<text text-anchor="middle" x="95" y="-728.5" font-family="Helvetica,sans-Serif" font-size="10.00">pocketmine\block\tile\Tile</text>
<polyline fill="none" stroke="#bfbfbf" points="20,-721.5 170,-721.5 "/>
<text text-anchor="start" x="28" y="-709.5" font-family="Helvetica,sans-Serif" font-size="10.00">+ $closed</text>
<text text-anchor="start" x="28" y="-698.5" font-family="Helvetica,sans-Serif" font-size="10.00">+ TAG_ID</text>
<text text-anchor="start" x="28" y="-687.5" font-family="Helvetica,sans-Serif" font-size="10.00">+ TAG_X</text>
<text text-anchor="start" x="28" y="-676.5" font-family="Helvetica,sans-Serif" font-size="10.00">+ TAG_Y</text>
<text text-anchor="start" x="28" y="-665.5" font-family="Helvetica,sans-Serif" font-size="10.00">+ TAG_Z</text>
<text text-anchor="start" x="28" y="-654.5" font-family="Helvetica,sans-Serif" font-size="10.00"># $position</text>
<text text-anchor="start" x="28" y="-643.5" font-family="Helvetica,sans-Serif" font-size="10.00"># $timings</text>
<polyline fill="none" stroke="#bfbfbf" points="20,-636.5 170,-636.5 "/>
<text text-anchor="start" x="28" y="-624.5" font-family="Helvetica,sans-Serif" font-size="10.00">+ __construct()</text>
<text text-anchor="start" x="28" y="-613.5" font-family="Helvetica,sans-Serif" font-size="10.00">+ __destruct()</text>
<text text-anchor="start" x="28" y="-602.5" font-family="Helvetica,sans-Serif" font-size="10.00">+ close()</text>
<text text-anchor="start" x="28" y="-591.5" font-family="Helvetica,sans-Serif" font-size="10.00">+ copyDataFromItem()</text>
<text text-anchor="start" x="28" y="-580.5" font-family="Helvetica,sans-Serif" font-size="10.00">+ getBlock()</text>
<text text-anchor="start" x="28" y="-569.5" font-family="Helvetica,sans-Serif" font-size="10.00">+ getCleanedNBT()</text>
<text text-anchor="start" x="28" y="-558.5" font-family="Helvetica,sans-Serif" font-size="10.00">+ getPosition()</text>
<text text-anchor="start" x="28" y="-547.5" font-family="Helvetica,sans-Serif" font-size="10.00">+ isClosed()</text>
<text text-anchor="start" x="28" y="-536.5" font-family="Helvetica,sans-Serif" font-size="10.00">+ onBlockDestroyed()</text>
<text text-anchor="start" x="28" y="-525.5" font-family="Helvetica,sans-Serif" font-size="10.00">+ readSaveData()</text>
<text text-anchor="start" x="28" y="-514.5" font-family="Helvetica,sans-Serif" font-size="10.00">+ saveNBT()</text>
<text text-anchor="start" x="28" y="-503.5" font-family="Helvetica,sans-Serif" font-size="10.00"># onBlockDestroyedHook()</text>
<text text-anchor="start" x="28" y="-492.5" font-family="Helvetica,sans-Serif" font-size="10.00"># writeSaveData()</text>
</a>
</g>
</g>
<!-- Node3&#45;&gt;Node2 -->
<g id="edge2" class="edge">
<title>Node3&#45;&gt;Node2</title>
<path fill="none" stroke="midnightblue" d="M95,-474.94C95,-465.9 95,-457.01 95,-448.5"/>
<polygon fill="none" stroke="midnightblue" points="91.5,-475.21 95,-485.21 98.5,-475.21 91.5,-475.21"/>
</g>
<!-- Node4 -->
<g id="node4" class="node">
<title>Node4</title>
<g id="a_node4"><a xlink:href="../../d9/de1/interfacepocketmine_1_1block_1_1tile_1_1_container.html" target="_top" xlink:title=" ">
<polygon fill="white" stroke="#bfbfbf" points="208,-331 208,-421 330,-421 330,-331 208,-331"/>
<text text-anchor="start" x="216" y="-409" font-family="Helvetica,sans-Serif" font-size="10.00">pocketmine\block\tile</text>
<text text-anchor="middle" x="269" y="-398" font-family="Helvetica,sans-Serif" font-size="10.00">\Container</text>
<polyline fill="none" stroke="#bfbfbf" points="208,-391 330,-391 "/>
<text text-anchor="start" x="216" y="-379" font-family="Helvetica,sans-Serif" font-size="10.00">+ TAG_ITEMS</text>
<text text-anchor="start" x="216" y="-368" font-family="Helvetica,sans-Serif" font-size="10.00">+ TAG_LOCK</text>
<polyline fill="none" stroke="#bfbfbf" points="208,-361 330,-361 "/>
<text text-anchor="start" x="216" y="-349" font-family="Helvetica,sans-Serif" font-size="10.00">+ canOpenWith()</text>
<text text-anchor="start" x="216" y="-338" font-family="Helvetica,sans-Serif" font-size="10.00">+ getRealInventory()</text>
</a>
</g>
</g>
<!-- Node4&#45;&gt;Node1 -->
<g id="edge3" class="edge">
<title>Node4&#45;&gt;Node1</title>
<path fill="none" stroke="midnightblue" d="M269,-320.53C269,-304.24 269,-285.61 269,-266.59"/>
<polygon fill="none" stroke="midnightblue" points="265.5,-320.89 269,-330.89 272.5,-320.89 265.5,-320.89"/>
</g>
<!-- Node5 -->
<g id="node5" class="node">
<title>Node5</title>
<g id="a_node5"><a xlink:href="../../d2/d91/interfacepocketmine_1_1inventory_1_1_inventory_holder.html" target="_top" xlink:title=" ">
<polygon fill="white" stroke="#bfbfbf" points="207.5,-579 207.5,-647 330.5,-647 330.5,-579 207.5,-579"/>
<text text-anchor="start" x="215.5" y="-635" font-family="Helvetica,sans-Serif" font-size="10.00">pocketmine\inventory</text>
<text text-anchor="middle" x="269" y="-624" font-family="Helvetica,sans-Serif" font-size="10.00">\InventoryHolder</text>
<polyline fill="none" stroke="#bfbfbf" points="207.5,-617 330.5,-617 "/>
<text text-anchor="middle" x="269" y="-605" font-family="Helvetica,sans-Serif" font-size="10.00"> </text>
<polyline fill="none" stroke="#bfbfbf" points="207.5,-598 330.5,-598 "/>
<text text-anchor="start" x="215.5" y="-586" font-family="Helvetica,sans-Serif" font-size="10.00">+ getInventory()</text>
</a>
</g>
</g>
<!-- Node5&#45;&gt;Node4 -->
<g id="edge4" class="edge">
<title>Node5&#45;&gt;Node4</title>
<path fill="none" stroke="midnightblue" d="M269,-568.65C269,-526.71 269,-463.46 269,-421.23"/>
<polygon fill="none" stroke="midnightblue" points="265.5,-568.83 269,-578.83 272.5,-568.83 265.5,-568.83"/>
</g>
<!-- Node6 -->
<g id="node6" class="node">
<title>Node6</title>
<g id="a_node6"><a xlink:href="../../d1/d55/interfacepocketmine_1_1block_1_1tile_1_1_nameable.html" target="_top" xlink:title=" ">
<polygon fill="white" stroke="#bfbfbf" points="348,-325.5 348,-426.5 478,-426.5 478,-325.5 348,-325.5"/>
<text text-anchor="start" x="356" y="-414.5" font-family="Helvetica,sans-Serif" font-size="10.00">pocketmine\block\tile</text>
<text text-anchor="middle" x="413" y="-403.5" font-family="Helvetica,sans-Serif" font-size="10.00">\Nameable</text>
<polyline fill="none" stroke="#bfbfbf" points="348,-396.5 478,-396.5 "/>
<text text-anchor="start" x="356" y="-384.5" font-family="Helvetica,sans-Serif" font-size="10.00">+ TAG_CUSTOM_NAME</text>
<polyline fill="none" stroke="#bfbfbf" points="348,-377.5 478,-377.5 "/>
<text text-anchor="start" x="356" y="-365.5" font-family="Helvetica,sans-Serif" font-size="10.00">+ getDefaultName()</text>
<text text-anchor="start" x="356" y="-354.5" font-family="Helvetica,sans-Serif" font-size="10.00">+ getName()</text>
<text text-anchor="start" x="356" y="-343.5" font-family="Helvetica,sans-Serif" font-size="10.00">+ hasName()</text>
<text text-anchor="start" x="356" y="-332.5" font-family="Helvetica,sans-Serif" font-size="10.00">+ setName()</text>
</a>
</g>
</g>
<!-- Node6&#45;&gt;Node1 -->
<g id="edge5" class="edge">
<title>Node6&#45;&gt;Node1</title>
<path fill="none" stroke="midnightblue" d="M378.09,-316.7C368.96,-301.44 358.72,-284.35 348.28,-266.91"/>
<polygon fill="none" stroke="midnightblue" points="375.2,-318.68 383.34,-325.46 381.2,-315.08 375.2,-318.68"/>
</g>
</g>
</svg>
        <g id="navigator" transform="translate(0 0)" fill="#404254">
                <rect fill="#f2f5e9" fill-opacity="0.5" stroke="#606060" stroke-width=".5" x="0" y="0" width="60" height="60"/>
                <use id="zoomplus" xlink:href="#zoomPlus" x="17" y="9" onmousedown="handleZoom(evt,'in')"/>
                <use id="zoomminus" xlink:href="#zoomMin" x="42" y="9" onmousedown="handleZoom(evt,'out')"/>
                <use id="reset" xlink:href="#resetDef" x="30" y="36" onmousedown="handleReset()"/>
                <g id="arrowUp" xlink:href="#dirArrow" transform="translate(30 24)" onmousedown="handlePan(0,-1)">
                  <use xlink:href="#rim" fill="#404040">
                        <set attributeName="fill" to="#808080" begin="arrowUp.mouseover" end="arrowUp.mouseout"/>
                  </use>
                  <path fill="none" stroke="white" stroke-width="1.5" d="M0,-3.0v7 M-2.5,-0.5L0,-3.0L2.5,-0.5"/>
                </g>
                <g id="arrowRight" xlink:href="#dirArrow" transform="rotate(90) translate(36 -43)" onmousedown="handlePan(1,0)">
                  <use xlink:href="#rim" fill="#404040">
                        <set attributeName="fill" to="#808080" begin="arrowRight.mouseover" end="arrowRight.mouseout"/>
                  </use>
                  <path fill="none" stroke="white" stroke-width="1.5" d="M0,-3.0v7 M-2.5,-0.5L0,-3.0L2.5,-0.5"/>
                </g>
                <g id="arrowDown" xlink:href="#dirArrow" transform="rotate(180) translate(-30 -48)" onmousedown="handlePan(0,1)">
                  <use xlink:href="#rim" fill="#404040">
                        <set attributeName="fill" to="#808080" begin="arrowDown.mouseover" end="arrowDown.mouseout"/>
                  </use>
                  <path fill="none" stroke="white" stroke-width="1.5" d="M0,-3.0v7 M-2.5,-0.5L0,-3.0L2.5,-0.5"/>
                </g>
                <g id="arrowLeft" xlink:href="#dirArrow" transform="rotate(270) translate(-36 17)" onmousedown="handlePan(-1,0)">
                  <use xlink:href="#rim" fill="#404040">
                        <set attributeName="fill" to="#808080" begin="arrowLeft.mouseover" end="arrowLeft.mouseout"/>
                  </use>
                  <path fill="none" stroke="white" stroke-width="1.5" d="M0,-3.0v7 M-2.5,-0.5L0,-3.0L2.5,-0.5"/>
                </g>
        </g>
        <svg viewBox="0 0 15 15" width="100%" height="30px" preserveAspectRatio="xMaxYMin meet">
         <g id="arrow_out" transform="scale(0.3 0.3)">
          <a xlink:href="classpocketmine_1_1block_1_1tile_1_1_chest__inherit__graph_org.svg" target="_base">
           <rect id="button" ry="5" rx="5" y="6" x="6" height="38" width="38"
                fill="#f2f5e9" fill-opacity="0.5" stroke="#606060" stroke-width="1.0"/>
           <path id="arrow"
             d="M 11.500037,31.436501 C 11.940474,20.09759 22.043105,11.32322 32.158766,21.979434 L 37.068811,17.246167 C 37.068811,17.246167 37.088388,32 37.088388,32 L 22.160133,31.978069 C 22.160133,31.978069 26.997745,27.140456 26.997745,27.140456 C 18.528582,18.264221 13.291696,25.230495 11.500037,31.436501 z"
             style="fill:#404040;"/>
          </a>
         </g>
        </svg>
</svg>
