<?xml version="1.0" encoding="UTF-8" standalone="no"?>
<!DOCTYPE svg PUBLIC "-//W3C//DTD SVG 1.1//EN"
 "http://www.w3.org/Graphics/SVG/1.1/DTD/svg11.dtd">
<!-- Generated by graphviz version 2.43.0 (0)
 -->
<!-- Title: DaveRandom\CallbackValidator\MatchTester\isWeakScalarMatch Pages: 1 -->
<svg width="599pt" height="60pt"
 viewBox="0.00 0.00 599.00 60.00" xmlns="http://www.w3.org/2000/svg" xmlns:xlink="http://www.w3.org/1999/xlink">
<g id="graph0" class="graph" transform="scale(1 1) rotate(0) translate(4 56)">
<title>DaveRandom\CallbackValidator\MatchTester\isWeakScalarMatch</title>
<!-- Node1 -->
<g id="Node000001" class="node">
<title>Node1</title>
<g id="a_Node000001"><a xlink:title=" ">
<polygon fill="#999999" stroke="#666666" points="591,-30 414,-30 414,0 591,0 591,-30"/>
<text text-anchor="start" x="422" y="-18" font-family="Helvetica,sans-Serif" font-size="10.00">DaveRandom\CallbackValidator</text>
<text text-anchor="middle" x="502.5" y="-7" font-family="Helvetica,sans-Serif" font-size="10.00">\MatchTester\isWeakScalarMatch</text>
</a>
</g>
</g>
<!-- Node2 -->
<g id="Node000002" class="node">
<title>Node2</title>
<g id="a_Node000002"><a xlink:href="../../d3/d4a/class_dave_random_1_1_callback_validator_1_1_match_tester.html#a9bd03b57450b372403f9cda42d82c5ff" target="_top" xlink:title=" ">
<polygon fill="white" stroke="#666666" points="378,-52 207,-52 207,-22 378,-22 378,-52"/>
<text text-anchor="start" x="215" y="-40" font-family="Helvetica,sans-Serif" font-size="10.00">DaveRandom\CallbackValidator</text>
<text text-anchor="middle" x="292.5" y="-29" font-family="Helvetica,sans-Serif" font-size="10.00">\MatchTester\isMatch</text>
</a>
</g>
</g>
<!-- Node1&#45;&gt;Node2 -->
<g id="edge1_Node000001_Node000002" class="edge">
<title>Node1&#45;&gt;Node2</title>
<g id="a_edge1_Node000001_Node000002"><a xlink:title=" ">
<path fill="none" stroke="#63b8ff" d="M403.81,-25.33C395.19,-26.24 386.51,-27.16 378.02,-28.06"/>
<polygon fill="#63b8ff" stroke="#63b8ff" points="404.32,-28.8 413.89,-24.27 403.58,-21.84 404.32,-28.8"/>
</a>
</g>
</g>
<!-- Node3 -->
<g id="Node000003" class="node">
<title>Node3</title>
<g id="a_Node000003"><a xlink:href="../../d6/d33/class_dave_random_1_1_callback_validator_1_1_type.html#ae938ae8443895e806b30b286bae762c3" target="_top" xlink:title=" ">
<polygon fill="white" stroke="#666666" points="171,-30 0,-30 0,0 171,0 171,-30"/>
<text text-anchor="start" x="8" y="-18" font-family="Helvetica,sans-Serif" font-size="10.00">DaveRandom\CallbackValidator</text>
<text text-anchor="middle" x="85.5" y="-7" font-family="Helvetica,sans-Serif" font-size="10.00">\Type\isSatisfiedBy</text>
</a>
</g>
</g>
<!-- Node1&#45;&gt;Node3 -->
<g id="edge3_Node000001_Node000003" class="edge">
<title>Node1&#45;&gt;Node3</title>
<g id="a_edge3_Node000001_Node000003"><a xlink:title=" ">
<path fill="none" stroke="#63b8ff" d="M403.63,-13.27C394.96,-13.16 386.32,-13.07 378,-13 302,-12.38 283,-12.37 207,-13 195.39,-13.1 183.15,-13.24 171.1,-13.42"/>
<polygon fill="#63b8ff" stroke="#63b8ff" points="403.75,-16.77 413.8,-13.4 403.84,-9.77 403.75,-16.77"/>
</a>
</g>
</g>
<!-- Node2&#45;&gt;Node3 -->
<g id="edge2_Node000002_Node000003" class="edge">
<title>Node2&#45;&gt;Node3</title>
<g id="a_edge2_Node000002_Node000003"><a xlink:title=" ">
<path fill="none" stroke="#63b8ff" d="M196.91,-26.85C188.34,-25.93 179.69,-25 171.2,-24.09"/>
<polygon fill="#63b8ff" stroke="#63b8ff" points="196.62,-30.34 206.94,-27.92 197.37,-23.38 196.62,-30.34"/>
</a>
</g>
</g>
</g>
</svg>
