<?xml version="1.0" encoding="UTF-8" standalone="no"?>
<!DOCTYPE svg PUBLIC "-//W3C//DTD SVG 1.1//EN"
 "http://www.w3.org/Graphics/SVG/1.1/DTD/svg11.dtd">
<!-- Generated by graphviz version 2.43.0 (0)
 -->
<!-- Title: pocketmine\network\mcpe\protocol\types\login\clientdata\ClientDataToSkinDataHelper Pages: 1 -->
<svg width="152pt" height="90pt"
 viewBox="0.00 0.00 152.00 90.00" xmlns="http://www.w3.org/2000/svg" xmlns:xlink="http://www.w3.org/1999/xlink">
<g id="graph0" class="graph" transform="scale(1 1) rotate(0) translate(4 86)">
<title>pocketmine\network\mcpe\protocol\types\login\clientdata\ClientDataToSkinDataHelper</title>
<!-- Node1 -->
<g id="Node000001" class="node">
<title>Node1</title>
<g id="a_Node000001"><a xlink:title=" ">
<polygon fill="#999999" stroke="transparent" points="144,-82 0,-82 0,0 144,0 144,-82"/>
<text text-anchor="start" x="5" y="-70" font-family="Helvetica,sans-Serif" font-size="10.00">pocketmine\network</text>
<text text-anchor="start" x="5" y="-59" font-family="Helvetica,sans-Serif" font-size="10.00">\mcpe\protocol\types</text>
<text text-anchor="start" x="5" y="-48" font-family="Helvetica,sans-Serif" font-size="10.00">\login\clientdata\ClientData</text>
<text text-anchor="start" x="28" y="-37" font-family="Helvetica,sans-Serif" font-size="10.00">ToSkinDataHelper</text>
<text text-anchor="start" x="70" y="-22" font-family="Helvetica,sans-Serif" font-size="10.00"> </text>
<text text-anchor="start" x="14" y="-7" font-family="Helvetica,sans-Serif" font-size="10.00">+</text>
<text text-anchor="start" x="37" y="-7" font-family="Helvetica,sans-Serif" font-size="10.00">fromClientData()</text>
<polygon fill="#666666" stroke="#666666" points="0,-32 0,-32 144,-32 144,-32 0,-32"/>
<polygon fill="#666666" stroke="#666666" points="0,-17 0,-17 144,-17 144,-17 0,-17"/>
<polygon fill="none" stroke="#666666" points="0,0 0,-82 144,-82 144,0 0,0"/>
</a>
</g>
</g>
</g>
</svg>
