<?xml version="1.0" encoding="UTF-8" standalone="no"?>
<!DOCTYPE svg PUBLIC "-//W3C//DTD SVG 1.1//EN"
 "http://www.w3.org/Graphics/SVG/1.1/DTD/svg11.dtd">
<!-- Generated by graphviz version 2.43.0 (0)
 -->
<!-- Title: pocketmine\scheduler\AsyncTask Pages: 1 -->
<svg width="3099pt" height="519pt"
 viewBox="0.00 0.00 3099.00 519.00" xmlns="http://www.w3.org/2000/svg" xmlns:xlink="http://www.w3.org/1999/xlink">
<g id="graph0" class="graph" transform="scale(1 1) rotate(0) translate(4 515)">
<title>pocketmine\scheduler\AsyncTask</title>
<!-- Node1 -->
<g id="Node000001" class="node">
<title>Node1</title>
<g id="a_Node000001"><a xlink:title=" ">
<polygon fill="#999999" stroke="transparent" points="1677,-426 1537,-426 1537,-171 1677,-171 1677,-426"/>
<text text-anchor="start" x="1553" y="-413.5" font-family="Helvetica,sans-Serif" font-size="10.00">pocketmine\scheduler</text>
<text text-anchor="start" x="1579.5" y="-402.5" font-family="Helvetica,sans-Serif" font-size="10.00">\AsyncTask</text>
<text text-anchor="start" x="1605" y="-387.5" font-family="Helvetica,sans-Serif" font-size="10.00"> </text>
<text text-anchor="start" x="1541" y="-372.5" font-family="Helvetica,sans-Serif" font-size="10.00">+</text>
<text text-anchor="start" x="1554" y="-372.5" font-family="Helvetica,sans-Serif" font-size="10.00">__destruct()</text>
<text text-anchor="start" x="1541" y="-357.5" font-family="Helvetica,sans-Serif" font-size="10.00">+</text>
<text text-anchor="start" x="1554" y="-357.5" font-family="Helvetica,sans-Serif" font-size="10.00">cancelRun()</text>
<text text-anchor="start" x="1541" y="-342.5" font-family="Helvetica,sans-Serif" font-size="10.00">+</text>
<text text-anchor="start" x="1554" y="-342.5" font-family="Helvetica,sans-Serif" font-size="10.00">checkProgressUpdates()</text>
<text text-anchor="start" x="1541" y="-327.5" font-family="Helvetica,sans-Serif" font-size="10.00">+</text>
<text text-anchor="start" x="1554" y="-327.5" font-family="Helvetica,sans-Serif" font-size="10.00">getResult()</text>
<text text-anchor="start" x="1541" y="-312.5" font-family="Helvetica,sans-Serif" font-size="10.00">+</text>
<text text-anchor="start" x="1554" y="-312.5" font-family="Helvetica,sans-Serif" font-size="10.00">hasCancelledRun()</text>
<text text-anchor="start" x="1541" y="-297.5" font-family="Helvetica,sans-Serif" font-size="10.00">+</text>
<text text-anchor="start" x="1554" y="-297.5" font-family="Helvetica,sans-Serif" font-size="10.00">hasResult()</text>
<text text-anchor="start" x="1541" y="-282.5" font-family="Helvetica,sans-Serif" font-size="10.00">+</text>
<text text-anchor="start" x="1554" y="-282.5" font-family="Helvetica,sans-Serif" font-size="10.00">isCrashed()</text>
<text text-anchor="start" x="1541" y="-267.5" font-family="Helvetica,sans-Serif" font-size="10.00">+</text>
<text text-anchor="start" x="1554" y="-267.5" font-family="Helvetica,sans-Serif" font-size="10.00">isFinished()</text>
<text text-anchor="start" x="1541" y="-252.5" font-family="Helvetica,sans-Serif" font-size="10.00">+</text>
<text text-anchor="start" x="1554" y="-252.5" font-family="Helvetica,sans-Serif" font-size="10.00">isSubmitted()</text>
<text text-anchor="start" x="1541" y="-237.5" font-family="Helvetica,sans-Serif" font-size="10.00">+</text>
<text text-anchor="start" x="1554" y="-237.5" font-family="Helvetica,sans-Serif" font-size="10.00">onCompletion()</text>
<text text-anchor="start" x="1554" y="-222.5" font-family="Helvetica,sans-Serif" font-size="10.00">and 7 more...</text>
<text text-anchor="start" x="1541" y="-207.5" font-family="Helvetica,sans-Serif" font-size="10.00">#</text>
<text text-anchor="start" x="1554" y="-207.5" font-family="Helvetica,sans-Serif" font-size="10.00">fetchLocal()</text>
<text text-anchor="start" x="1541" y="-192.5" font-family="Helvetica,sans-Serif" font-size="10.00">#</text>
<text text-anchor="start" x="1554" y="-192.5" font-family="Helvetica,sans-Serif" font-size="10.00">reallyDestruct()</text>
<text text-anchor="start" x="1541" y="-177.5" font-family="Helvetica,sans-Serif" font-size="10.00">#</text>
<text text-anchor="start" x="1554" y="-177.5" font-family="Helvetica,sans-Serif" font-size="10.00">storeLocal()</text>
<polygon fill="#666666" stroke="#666666" points="1537,-397.5 1537,-397.5 1677,-397.5 1677,-397.5 1537,-397.5"/>
<polygon fill="#666666" stroke="#666666" points="1537,-382.5 1537,-382.5 1677,-382.5 1677,-382.5 1537,-382.5"/>
<polygon fill="none" stroke="#666666" points="1537,-171 1537,-426 1677,-426 1677,-171 1537,-171"/>
</a>
</g>
</g>
<!-- Node3 -->
<g id="Node000003" class="node">
<title>Node3</title>
<g id="a_Node000003"><a xlink:href="../../d2/d46/classpocketmine_1_1network_1_1mcpe_1_1_chunk_request_task.html" target="_top" xlink:title=" ">
<polygon fill="white" stroke="transparent" points="136,-135 0,-135 0,0 136,0 136,-135"/>
<text text-anchor="start" x="5" y="-122.5" font-family="Helvetica,sans-Serif" font-size="10.00">pocketmine\network</text>
<text text-anchor="start" x="5" y="-111.5" font-family="Helvetica,sans-Serif" font-size="10.00">\mcpe\ChunkRequestTask</text>
<text text-anchor="start" x="13.5" y="-96.5" font-family="Helvetica,sans-Serif" font-size="10.00">#</text>
<text text-anchor="start" x="36" y="-96.5" font-family="Helvetica,sans-Serif" font-size="10.00">$chunk</text>
<text text-anchor="start" x="13.5" y="-81.5" font-family="Helvetica,sans-Serif" font-size="10.00">#</text>
<text text-anchor="start" x="36" y="-81.5" font-family="Helvetica,sans-Serif" font-size="10.00">$chunkX</text>
<text text-anchor="start" x="13.5" y="-66.5" font-family="Helvetica,sans-Serif" font-size="10.00">#</text>
<text text-anchor="start" x="36" y="-66.5" font-family="Helvetica,sans-Serif" font-size="10.00">$chunkZ</text>
<text text-anchor="start" x="13.5" y="-51.5" font-family="Helvetica,sans-Serif" font-size="10.00">#</text>
<text text-anchor="start" x="36" y="-51.5" font-family="Helvetica,sans-Serif" font-size="10.00">$compressor</text>
<text text-anchor="start" x="13.5" y="-36.5" font-family="Helvetica,sans-Serif" font-size="10.00">+</text>
<text text-anchor="start" x="36" y="-36.5" font-family="Helvetica,sans-Serif" font-size="10.00">__construct()</text>
<text text-anchor="start" x="13.5" y="-21.5" font-family="Helvetica,sans-Serif" font-size="10.00">+</text>
<text text-anchor="start" x="36" y="-21.5" font-family="Helvetica,sans-Serif" font-size="10.00">onCompletion()</text>
<text text-anchor="start" x="13.5" y="-6.5" font-family="Helvetica,sans-Serif" font-size="10.00">+</text>
<text text-anchor="start" x="36" y="-6.5" font-family="Helvetica,sans-Serif" font-size="10.00">onRun()</text>
<polygon fill="#bfbfbf" stroke="#bfbfbf" points="0,-106.5 0,-106.5 136,-106.5 136,-106.5 0,-106.5"/>
<polygon fill="#bfbfbf" stroke="#bfbfbf" points="0,-46.5 0,-46.5 34,-46.5 34,-46.5 0,-46.5"/>
<polygon fill="#bfbfbf" stroke="#bfbfbf" points="34,-46.5 34,-46.5 136,-46.5 136,-46.5 34,-46.5"/>
<polygon fill="none" stroke="#bfbfbf" points="0,0 0,-135 136,-135 136,0 0,0"/>
</a>
</g>
</g>
<!-- Node1&#45;&gt;Node3 -->
<g id="edge2_Node000001_Node000003" class="edge">
<title>Node1&#45;&gt;Node3</title>
<g id="a_edge2_Node000001_Node000003"><a xlink:title=" ">
<path fill="none" stroke="#63b8ff" d="M1526.74,-294.81C1258.66,-284.88 396.89,-244.94 145,-135 142.09,-133.73 139.2,-132.31 136.36,-130.76"/>
<polygon fill="none" stroke="#63b8ff" points="1526.67,-298.31 1536.79,-295.18 1526.92,-291.32 1526.67,-298.31"/>
</a>
</g>
</g>
<!-- Node4 -->
<g id="Node000004" class="node">
<title>Node4</title>
<g id="a_Node000004"><a xlink:href="../../d8/d82/classpocketmine_1_1network_1_1mcpe_1_1auth_1_1_fetch_auth_keys_task.html" target="_top" xlink:title=" ">
<polygon fill="white" stroke="transparent" points="316,-112.5 154,-112.5 154,-22.5 316,-22.5 316,-112.5"/>
<text text-anchor="start" x="159" y="-100.5" font-family="Helvetica,sans-Serif" font-size="10.00">pocketmine\network</text>
<text text-anchor="start" x="159" y="-89.5" font-family="Helvetica,sans-Serif" font-size="10.00">\mcpe\auth\FetchAuthKeysTask</text>
<text text-anchor="start" x="233" y="-74.5" font-family="Helvetica,sans-Serif" font-size="10.00"> </text>
<text text-anchor="start" x="174" y="-59.5" font-family="Helvetica,sans-Serif" font-size="10.00">+</text>
<text text-anchor="start" x="203" y="-59.5" font-family="Helvetica,sans-Serif" font-size="10.00">__construct()</text>
<text text-anchor="start" x="174" y="-44.5" font-family="Helvetica,sans-Serif" font-size="10.00">+</text>
<text text-anchor="start" x="203" y="-44.5" font-family="Helvetica,sans-Serif" font-size="10.00">onCompletion()</text>
<text text-anchor="start" x="174" y="-29.5" font-family="Helvetica,sans-Serif" font-size="10.00">+</text>
<text text-anchor="start" x="203" y="-29.5" font-family="Helvetica,sans-Serif" font-size="10.00">onRun()</text>
<polygon fill="#bfbfbf" stroke="#bfbfbf" points="154,-84.5 154,-84.5 316,-84.5 316,-84.5 154,-84.5"/>
<polygon fill="#bfbfbf" stroke="#bfbfbf" points="154,-69.5 154,-69.5 316,-69.5 316,-69.5 154,-69.5"/>
<polygon fill="none" stroke="#bfbfbf" points="154,-22.5 154,-112.5 316,-112.5 316,-22.5 154,-22.5"/>
</a>
</g>
</g>
<!-- Node1&#45;&gt;Node4 -->
<g id="edge3_Node000001_Node000004" class="edge">
<title>Node1&#45;&gt;Node4</title>
<g id="a_edge3_Node000001_Node000004"><a xlink:title=" ">
<path fill="none" stroke="#63b8ff" d="M1526.67,-292.63C1281.46,-276.96 545.95,-223.56 325,-135 311.29,-129.51 297.8,-121.41 285.59,-112.75"/>
<polygon fill="none" stroke="#63b8ff" points="1526.73,-296.15 1536.93,-293.29 1527.17,-289.16 1526.73,-296.15"/>
</a>
</g>
</g>
<!-- Node5 -->
<g id="Node000005" class="node">
<title>Node5</title>
<g id="a_Node000005"><a xlink:href="../../dc/df4/classpocketmine_1_1network_1_1mcpe_1_1auth_1_1_process_legacy_login_task.html" target="_top" xlink:title=" ">
<polygon fill="white" stroke="transparent" points="522,-118 334,-118 334,-17 522,-17 522,-118"/>
<text text-anchor="start" x="339" y="-105.5" font-family="Helvetica,sans-Serif" font-size="10.00">pocketmine\network</text>
<text text-anchor="start" x="339" y="-94.5" font-family="Helvetica,sans-Serif" font-size="10.00">\mcpe\auth\ProcessLegacyLoginTask</text>
<text text-anchor="start" x="350" y="-79.5" font-family="Helvetica,sans-Serif" font-size="10.00">+</text>
<text text-anchor="start" x="375" y="-79.5" font-family="Helvetica,sans-Serif" font-size="10.00">LEGACY_MOJANG_ROOT</text>
<text text-anchor="start" x="375" y="-68.5" font-family="Helvetica,sans-Serif" font-size="10.00">_PUBLIC_KEY</text>
<text text-anchor="start" x="350" y="-53.5" font-family="Helvetica,sans-Serif" font-size="10.00">+</text>
<text text-anchor="start" x="375" y="-53.5" font-family="Helvetica,sans-Serif" font-size="10.00">__construct()</text>
<text text-anchor="start" x="350" y="-38.5" font-family="Helvetica,sans-Serif" font-size="10.00">+</text>
<text text-anchor="start" x="375" y="-38.5" font-family="Helvetica,sans-Serif" font-size="10.00">onCompletion()</text>
<text text-anchor="start" x="350" y="-23.5" font-family="Helvetica,sans-Serif" font-size="10.00">+</text>
<text text-anchor="start" x="375" y="-23.5" font-family="Helvetica,sans-Serif" font-size="10.00">onRun()</text>
<polygon fill="#bfbfbf" stroke="#bfbfbf" points="334,-89.5 334,-89.5 522,-89.5 522,-89.5 334,-89.5"/>
<polygon fill="#bfbfbf" stroke="#bfbfbf" points="334,-63.5 334,-63.5 373,-63.5 373,-63.5 334,-63.5"/>
<polygon fill="#bfbfbf" stroke="#bfbfbf" points="373,-63.5 373,-63.5 522,-63.5 522,-63.5 373,-63.5"/>
<polygon fill="none" stroke="#bfbfbf" points="334,-17 334,-118 522,-118 522,-17 334,-17"/>
</a>
</g>
</g>
<!-- Node1&#45;&gt;Node5 -->
<g id="edge4_Node000001_Node000005" class="edge">
<title>Node1&#45;&gt;Node5</title>
<g id="a_edge4_Node000001_Node000005"><a xlink:title=" ">
<path fill="none" stroke="#63b8ff" d="M1526.72,-296.78C1343.9,-292.74 885.01,-268.89 531,-135 519.25,-130.56 507.45,-124.63 496.24,-118.14"/>
<polygon fill="none" stroke="#63b8ff" points="1526.72,-300.28 1536.79,-296.99 1526.87,-293.29 1526.72,-300.28"/>
</a>
</g>
</g>
<!-- Node6 -->
<g id="Node000006" class="node">
<title>Node6</title>
<g id="a_Node000006"><a xlink:href="../../d1/d20/classpocketmine_1_1network_1_1mcpe_1_1auth_1_1_process_open_id_login_task.html" target="_top" xlink:title=" ">
<polygon fill="white" stroke="transparent" points="728,-112.5 540,-112.5 540,-22.5 728,-22.5 728,-112.5"/>
<text text-anchor="start" x="545" y="-100.5" font-family="Helvetica,sans-Serif" font-size="10.00">pocketmine\network</text>
<text text-anchor="start" x="545" y="-89.5" font-family="Helvetica,sans-Serif" font-size="10.00">\mcpe\auth\ProcessOpenIdLoginTask</text>
<text text-anchor="start" x="561" y="-74.5" font-family="Helvetica,sans-Serif" font-size="10.00">+</text>
<text text-anchor="start" x="591" y="-74.5" font-family="Helvetica,sans-Serif" font-size="10.00">MOJANG_AUDIENCE</text>
<text text-anchor="start" x="561" y="-59.5" font-family="Helvetica,sans-Serif" font-size="10.00">+</text>
<text text-anchor="start" x="591" y="-59.5" font-family="Helvetica,sans-Serif" font-size="10.00">__construct()</text>
<text text-anchor="start" x="561" y="-44.5" font-family="Helvetica,sans-Serif" font-size="10.00">+</text>
<text text-anchor="start" x="591" y="-44.5" font-family="Helvetica,sans-Serif" font-size="10.00">onCompletion()</text>
<text text-anchor="start" x="561" y="-29.5" font-family="Helvetica,sans-Serif" font-size="10.00">+</text>
<text text-anchor="start" x="591" y="-29.5" font-family="Helvetica,sans-Serif" font-size="10.00">onRun()</text>
<polygon fill="#bfbfbf" stroke="#bfbfbf" points="540,-84.5 540,-84.5 728,-84.5 728,-84.5 540,-84.5"/>
<polygon fill="#bfbfbf" stroke="#bfbfbf" points="540,-69.5 540,-69.5 589,-69.5 589,-69.5 540,-69.5"/>
<polygon fill="#bfbfbf" stroke="#bfbfbf" points="589,-69.5 589,-69.5 728,-69.5 728,-69.5 589,-69.5"/>
<polygon fill="none" stroke="#bfbfbf" points="540,-22.5 540,-112.5 728,-112.5 728,-22.5 540,-22.5"/>
</a>
</g>
</g>
<!-- Node1&#45;&gt;Node6 -->
<g id="edge5_Node000001_Node000006" class="edge">
<title>Node1&#45;&gt;Node6</title>
<g id="a_edge5_Node000001_Node000006"><a xlink:title=" ">
<path fill="none" stroke="#63b8ff" d="M1526.74,-292.88C1369.83,-281.64 1013.57,-245.14 737,-135 722.27,-129.13 707.39,-121.05 693.69,-112.54"/>
<polygon fill="none" stroke="#63b8ff" points="1526.57,-296.38 1536.79,-293.59 1527.06,-289.4 1526.57,-296.38"/>
</a>
</g>
</g>
<!-- Node7 -->
<g id="Node000007" class="node">
<title>Node7</title>
<g id="a_Node000007"><a xlink:href="../../dc/d7c/classpocketmine_1_1network_1_1mcpe_1_1auth_1_1_process_self_signed_login_task.html" target="_top" xlink:title=" ">
<polygon fill="white" stroke="transparent" points="904,-118 746,-118 746,-17 904,-17 904,-118"/>
<text text-anchor="start" x="751" y="-105.5" font-family="Helvetica,sans-Serif" font-size="10.00">pocketmine\network</text>
<text text-anchor="start" x="751" y="-94.5" font-family="Helvetica,sans-Serif" font-size="10.00">\mcpe\auth\ProcessSelfSigned</text>
<text text-anchor="start" x="800.5" y="-83.5" font-family="Helvetica,sans-Serif" font-size="10.00">LoginTask</text>
<text text-anchor="start" x="759.5" y="-68.5" font-family="Helvetica,sans-Serif" font-size="10.00">+</text>
<text text-anchor="start" x="782" y="-68.5" font-family="Helvetica,sans-Serif" font-size="10.00">MOJANG_AUDIENCE</text>
<text text-anchor="start" x="759.5" y="-53.5" font-family="Helvetica,sans-Serif" font-size="10.00">+</text>
<text text-anchor="start" x="782" y="-53.5" font-family="Helvetica,sans-Serif" font-size="10.00">__construct()</text>
<text text-anchor="start" x="759.5" y="-38.5" font-family="Helvetica,sans-Serif" font-size="10.00">+</text>
<text text-anchor="start" x="782" y="-38.5" font-family="Helvetica,sans-Serif" font-size="10.00">onCompletion()</text>
<text text-anchor="start" x="759.5" y="-23.5" font-family="Helvetica,sans-Serif" font-size="10.00">+</text>
<text text-anchor="start" x="782" y="-23.5" font-family="Helvetica,sans-Serif" font-size="10.00">onRun()</text>
<polygon fill="#666666" stroke="#666666" points="746,-78.5 746,-78.5 904,-78.5 904,-78.5 746,-78.5"/>
<polygon fill="#666666" stroke="#666666" points="746,-63.5 746,-63.5 780,-63.5 780,-63.5 746,-63.5"/>
<polygon fill="#666666" stroke="#666666" points="780,-63.5 780,-63.5 904,-63.5 904,-63.5 780,-63.5"/>
<polygon fill="none" stroke="#666666" points="746,-17 746,-118 904,-118 904,-17 746,-17"/>
</a>
</g>
</g>
<!-- Node1&#45;&gt;Node7 -->
<g id="edge6_Node000001_Node000007" class="edge">
<title>Node1&#45;&gt;Node7</title>
<g id="a_edge6_Node000001_Node000007"><a xlink:title=" ">
<path fill="none" stroke="#63b8ff" d="M1526.77,-289.66C1393.76,-274.3 1121.55,-232.82 913,-135 903.12,-130.36 893.27,-124.5 883.94,-118.18"/>
<polygon fill="none" stroke="#63b8ff" points="1526.55,-293.15 1536.88,-290.8 1527.34,-286.2 1526.55,-293.15"/>
</a>
</g>
</g>
<!-- Node8 -->
<g id="Node000008" class="node">
<title>Node8</title>
<g id="a_Node000008"><a xlink:href="../../d6/dda/classpocketmine_1_1network_1_1mcpe_1_1compression_1_1_compress_batch_task.html" target="_top" xlink:title=" ">
<polygon fill="white" stroke="transparent" points="1080,-118 922,-118 922,-17 1080,-17 1080,-118"/>
<text text-anchor="start" x="927" y="-105.5" font-family="Helvetica,sans-Serif" font-size="10.00">pocketmine\network</text>
<text text-anchor="start" x="927" y="-94.5" font-family="Helvetica,sans-Serif" font-size="10.00">\mcpe\compression\Compress</text>
<text text-anchor="start" x="976" y="-83.5" font-family="Helvetica,sans-Serif" font-size="10.00">BatchTask</text>
<text text-anchor="start" x="999" y="-68.5" font-family="Helvetica,sans-Serif" font-size="10.00"> </text>
<text text-anchor="start" x="941" y="-53.5" font-family="Helvetica,sans-Serif" font-size="10.00">+</text>
<text text-anchor="start" x="969" y="-53.5" font-family="Helvetica,sans-Serif" font-size="10.00">__construct()</text>
<text text-anchor="start" x="941" y="-38.5" font-family="Helvetica,sans-Serif" font-size="10.00">+</text>
<text text-anchor="start" x="969" y="-38.5" font-family="Helvetica,sans-Serif" font-size="10.00">onCompletion()</text>
<text text-anchor="start" x="941" y="-23.5" font-family="Helvetica,sans-Serif" font-size="10.00">+</text>
<text text-anchor="start" x="969" y="-23.5" font-family="Helvetica,sans-Serif" font-size="10.00">onRun()</text>
<polygon fill="#bfbfbf" stroke="#bfbfbf" points="922,-78.5 922,-78.5 1080,-78.5 1080,-78.5 922,-78.5"/>
<polygon fill="#bfbfbf" stroke="#bfbfbf" points="922,-63.5 922,-63.5 1080,-63.5 1080,-63.5 922,-63.5"/>
<polygon fill="none" stroke="#bfbfbf" points="922,-17 922,-118 1080,-118 1080,-17 922,-17"/>
</a>
</g>
</g>
<!-- Node1&#45;&gt;Node8 -->
<g id="edge7_Node000001_Node000008" class="edge">
<title>Node1&#45;&gt;Node8</title>
<g id="a_edge7_Node000001_Node000008"><a xlink:title=" ">
<path fill="none" stroke="#63b8ff" d="M1526.72,-281.33C1421.99,-258.24 1234.91,-210.14 1089,-135 1079.64,-130.18 1070.23,-124.36 1061.24,-118.19"/>
<polygon fill="none" stroke="#63b8ff" points="1526.08,-284.77 1536.6,-283.48 1527.57,-277.93 1526.08,-284.77"/>
</a>
</g>
</g>
<!-- Node9 -->
<g id="Node000009" class="node">
<title>Node9</title>
<g id="a_Node000009"><a xlink:href="../../d7/d18/classpocketmine_1_1network_1_1mcpe_1_1encryption_1_1_prepare_encryption_task.html" target="_top" xlink:title=" ">
<polygon fill="white" stroke="transparent" points="1307.5,-112.5 1098.5,-112.5 1098.5,-22.5 1307.5,-22.5 1307.5,-112.5"/>
<text text-anchor="start" x="1104" y="-100.5" font-family="Helvetica,sans-Serif" font-size="10.00">pocketmine\network</text>
<text text-anchor="start" x="1104" y="-89.5" font-family="Helvetica,sans-Serif" font-size="10.00">\mcpe\encryption\PrepareEncryptionTask</text>
<text text-anchor="start" x="1201.5" y="-74.5" font-family="Helvetica,sans-Serif" font-size="10.00"> </text>
<text text-anchor="start" x="1131" y="-59.5" font-family="Helvetica,sans-Serif" font-size="10.00">+</text>
<text text-anchor="start" x="1172" y="-59.5" font-family="Helvetica,sans-Serif" font-size="10.00">__construct()</text>
<text text-anchor="start" x="1131" y="-44.5" font-family="Helvetica,sans-Serif" font-size="10.00">+</text>
<text text-anchor="start" x="1172" y="-44.5" font-family="Helvetica,sans-Serif" font-size="10.00">onCompletion()</text>
<text text-anchor="start" x="1131" y="-29.5" font-family="Helvetica,sans-Serif" font-size="10.00">+</text>
<text text-anchor="start" x="1172" y="-29.5" font-family="Helvetica,sans-Serif" font-size="10.00">onRun()</text>
<polygon fill="#bfbfbf" stroke="#bfbfbf" points="1099,-84.5 1099,-84.5 1308,-84.5 1308,-84.5 1099,-84.5"/>
<polygon fill="#bfbfbf" stroke="#bfbfbf" points="1099,-69.5 1099,-69.5 1308,-69.5 1308,-69.5 1099,-69.5"/>
<polygon fill="none" stroke="#bfbfbf" points="1098.5,-22.5 1098.5,-112.5 1307.5,-112.5 1307.5,-22.5 1098.5,-22.5"/>
</a>
</g>
</g>
<!-- Node1&#45;&gt;Node9 -->
<g id="edge8_Node000001_Node000009" class="edge">
<title>Node1&#45;&gt;Node9</title>
<g id="a_edge8_Node000001_Node000009"><a xlink:title=" ">
<path fill="none" stroke="#63b8ff" d="M1527.97,-253.7C1469.55,-221.2 1388.12,-175.67 1317,-135 1304.37,-127.78 1290.99,-120.05 1278.01,-112.5"/>
<polygon fill="none" stroke="#63b8ff" points="1526.34,-256.8 1536.78,-258.6 1529.74,-250.68 1526.34,-256.8"/>
</a>
</g>
</g>
<!-- Node10 -->
<g id="Node000010" class="node">
<title>Node10</title>
<g id="a_Node000010"><a xlink:href="../../df/d18/classpocketmine_1_1scheduler_1_1_bulk_curl_task.html" target="_top" xlink:title=" ">
<polygon fill="white" stroke="transparent" points="1444,-112.5 1326,-112.5 1326,-22.5 1444,-22.5 1444,-112.5"/>
<text text-anchor="start" x="1331" y="-100.5" font-family="Helvetica,sans-Serif" font-size="10.00">pocketmine\scheduler</text>
<text text-anchor="start" x="1351.5" y="-89.5" font-family="Helvetica,sans-Serif" font-size="10.00">\BulkCurlTask</text>
<text text-anchor="start" x="1383" y="-74.5" font-family="Helvetica,sans-Serif" font-size="10.00"> </text>
<text text-anchor="start" x="1335" y="-59.5" font-family="Helvetica,sans-Serif" font-size="10.00">+</text>
<text text-anchor="start" x="1353" y="-59.5" font-family="Helvetica,sans-Serif" font-size="10.00">__construct()</text>
<text text-anchor="start" x="1335" y="-44.5" font-family="Helvetica,sans-Serif" font-size="10.00">+</text>
<text text-anchor="start" x="1353" y="-44.5" font-family="Helvetica,sans-Serif" font-size="10.00">onCompletion()</text>
<text text-anchor="start" x="1335" y="-29.5" font-family="Helvetica,sans-Serif" font-size="10.00">+</text>
<text text-anchor="start" x="1353" y="-29.5" font-family="Helvetica,sans-Serif" font-size="10.00">onRun()</text>
<polygon fill="#666666" stroke="#666666" points="1326,-84.5 1326,-84.5 1444,-84.5 1444,-84.5 1326,-84.5"/>
<polygon fill="#666666" stroke="#666666" points="1326,-69.5 1326,-69.5 1444,-69.5 1444,-69.5 1326,-69.5"/>
<polygon fill="none" stroke="#666666" points="1326,-22.5 1326,-112.5 1444,-112.5 1444,-22.5 1326,-22.5"/>
</a>
</g>
</g>
<!-- Node1&#45;&gt;Node10 -->
<g id="edge9_Node000001_Node000010" class="edge">
<title>Node1&#45;&gt;Node10</title>
<g id="a_edge9_Node000001_Node000010"><a xlink:title=" ">
<path fill="none" stroke="#63b8ff" d="M1529.54,-217.6C1495.36,-182.33 1456.49,-142.24 1427.67,-112.52"/>
<polygon fill="none" stroke="#63b8ff" points="1527.28,-220.3 1536.76,-225.04 1532.31,-215.43 1527.28,-220.3"/>
</a>
</g>
</g>
<!-- Node11 -->
<g id="Node000011" class="node">
<title>Node11</title>
<g id="a_Node000011"><a xlink:href="../../d7/d53/classpocketmine_1_1scheduler_1_1_dump_worker_memory_task.html" target="_top" xlink:title=" ">
<polygon fill="white" stroke="transparent" points="1601.5,-105 1462.5,-105 1462.5,-30 1601.5,-30 1601.5,-105"/>
<text text-anchor="start" x="1468" y="-92.5" font-family="Helvetica,sans-Serif" font-size="10.00">pocketmine\scheduler</text>
<text text-anchor="start" x="1468" y="-81.5" font-family="Helvetica,sans-Serif" font-size="10.00">\DumpWorkerMemoryTask</text>
<text text-anchor="start" x="1530.5" y="-66.5" font-family="Helvetica,sans-Serif" font-size="10.00"> </text>
<text text-anchor="start" x="1480.5" y="-51.5" font-family="Helvetica,sans-Serif" font-size="10.00">+</text>
<text text-anchor="start" x="1507" y="-51.5" font-family="Helvetica,sans-Serif" font-size="10.00">__construct()</text>
<text text-anchor="start" x="1480.5" y="-36.5" font-family="Helvetica,sans-Serif" font-size="10.00">+</text>
<text text-anchor="start" x="1507" y="-36.5" font-family="Helvetica,sans-Serif" font-size="10.00">onRun()</text>
<polygon fill="#666666" stroke="#666666" points="1463,-76.5 1463,-76.5 1602,-76.5 1602,-76.5 1463,-76.5"/>
<polygon fill="#666666" stroke="#666666" points="1463,-61.5 1463,-61.5 1602,-61.5 1602,-61.5 1463,-61.5"/>
<polygon fill="none" stroke="#666666" points="1462.5,-30 1462.5,-105 1601.5,-105 1601.5,-30 1462.5,-30"/>
</a>
</g>
</g>
<!-- Node1&#45;&gt;Node11 -->
<g id="edge10_Node000001_Node000011" class="edge">
<title>Node1&#45;&gt;Node11</title>
<g id="a_edge10_Node000001_Node000011"><a xlink:title=" ">
<path fill="none" stroke="#63b8ff" d="M1562.44,-161.43C1555.7,-140.85 1549.27,-121.23 1544.08,-105.37"/>
<polygon fill="none" stroke="#63b8ff" points="1559.11,-162.53 1565.55,-170.94 1565.77,-160.35 1559.11,-162.53"/>
</a>
</g>
</g>
<!-- Node12 -->
<g id="Node000012" class="node">
<title>Node12</title>
<g id="a_Node000012"><a xlink:href="../../d9/dae/classpocketmine_1_1scheduler_1_1_garbage_collection_task.html" target="_top" xlink:title=" ">
<polygon fill="white" stroke="transparent" points="1744.5,-97.5 1619.5,-97.5 1619.5,-37.5 1744.5,-37.5 1744.5,-97.5"/>
<text text-anchor="start" x="1625" y="-85.5" font-family="Helvetica,sans-Serif" font-size="10.00">pocketmine\scheduler</text>
<text text-anchor="start" x="1625" y="-74.5" font-family="Helvetica,sans-Serif" font-size="10.00">\GarbageCollectionTask</text>
<text text-anchor="start" x="1680.5" y="-59.5" font-family="Helvetica,sans-Serif" font-size="10.00"> </text>
<text text-anchor="start" x="1640" y="-44.5" font-family="Helvetica,sans-Serif" font-size="10.00">+</text>
<text text-anchor="start" x="1669" y="-44.5" font-family="Helvetica,sans-Serif" font-size="10.00">onRun()</text>
<polygon fill="#bfbfbf" stroke="#bfbfbf" points="1620,-69.5 1620,-69.5 1745,-69.5 1745,-69.5 1620,-69.5"/>
<polygon fill="#bfbfbf" stroke="#bfbfbf" points="1620,-54.5 1620,-54.5 1745,-54.5 1745,-54.5 1620,-54.5"/>
<polygon fill="none" stroke="#bfbfbf" points="1619.5,-37.5 1619.5,-97.5 1744.5,-97.5 1744.5,-37.5 1619.5,-37.5"/>
</a>
</g>
</g>
<!-- Node1&#45;&gt;Node12 -->
<g id="edge11_Node000001_Node000012" class="edge">
<title>Node1&#45;&gt;Node12</title>
<g id="a_edge11_Node000001_Node000012"><a xlink:title=" ">
<path fill="none" stroke="#63b8ff" d="M1651.6,-161.32C1659.47,-137.3 1666.9,-114.6 1672.45,-97.67"/>
<polygon fill="none" stroke="#63b8ff" points="1648.23,-160.35 1648.45,-170.94 1654.89,-162.53 1648.23,-160.35"/>
</a>
</g>
</g>
<!-- Node13 -->
<g id="Node000013" class="node">
<title>Node13</title>
<g id="a_Node000013"><a xlink:href="../../df/ddd/classpocketmine_1_1scheduler_1_1_timings_collection_task.html" target="_top" xlink:title=" ">
<polygon fill="white" stroke="transparent" points="1885.5,-112.5 1762.5,-112.5 1762.5,-22.5 1885.5,-22.5 1885.5,-112.5"/>
<text text-anchor="start" x="1768" y="-100.5" font-family="Helvetica,sans-Serif" font-size="10.00">pocketmine\scheduler</text>
<text text-anchor="start" x="1768" y="-89.5" font-family="Helvetica,sans-Serif" font-size="10.00">\TimingsCollectionTask</text>
<text text-anchor="start" x="1822.5" y="-74.5" font-family="Helvetica,sans-Serif" font-size="10.00"> </text>
<text text-anchor="start" x="1773.5" y="-59.5" font-family="Helvetica,sans-Serif" font-size="10.00">+</text>
<text text-anchor="start" x="1793" y="-59.5" font-family="Helvetica,sans-Serif" font-size="10.00">__construct()</text>
<text text-anchor="start" x="1773.5" y="-44.5" font-family="Helvetica,sans-Serif" font-size="10.00">+</text>
<text text-anchor="start" x="1793" y="-44.5" font-family="Helvetica,sans-Serif" font-size="10.00">onCompletion()</text>
<text text-anchor="start" x="1773.5" y="-29.5" font-family="Helvetica,sans-Serif" font-size="10.00">+</text>
<text text-anchor="start" x="1793" y="-29.5" font-family="Helvetica,sans-Serif" font-size="10.00">onRun()</text>
<polygon fill="#666666" stroke="#666666" points="1763,-84.5 1763,-84.5 1886,-84.5 1886,-84.5 1763,-84.5"/>
<polygon fill="#666666" stroke="#666666" points="1763,-69.5 1763,-69.5 1886,-69.5 1886,-69.5 1763,-69.5"/>
<polygon fill="none" stroke="#666666" points="1762.5,-22.5 1762.5,-112.5 1885.5,-112.5 1885.5,-22.5 1762.5,-22.5"/>
</a>
</g>
</g>
<!-- Node1&#45;&gt;Node13 -->
<g id="edge12_Node000001_Node000013" class="edge">
<title>Node1&#45;&gt;Node13</title>
<g id="a_edge12_Node000001_Node000013"><a xlink:title=" ">
<path fill="none" stroke="#63b8ff" d="M1684.14,-216.1C1717.18,-181.23 1754.47,-141.88 1782.23,-112.58"/>
<polygon fill="none" stroke="#63b8ff" points="1681.49,-213.8 1677.15,-223.47 1686.57,-218.62 1681.49,-213.8"/>
</a>
</g>
</g>
<!-- Node14 -->
<g id="Node000014" class="node">
<title>Node14</title>
<g id="a_Node000014"><a xlink:href="../../de/d2e/classpocketmine_1_1scheduler_1_1_timings_control_task.html" target="_top" xlink:title=" ">
<polygon fill="white" stroke="transparent" points="2022,-112.5 1904,-112.5 1904,-22.5 2022,-22.5 2022,-112.5"/>
<text text-anchor="start" x="1909" y="-100.5" font-family="Helvetica,sans-Serif" font-size="10.00">pocketmine\scheduler</text>
<text text-anchor="start" x="1913" y="-89.5" font-family="Helvetica,sans-Serif" font-size="10.00">\TimingsControlTask</text>
<text text-anchor="start" x="1961" y="-74.5" font-family="Helvetica,sans-Serif" font-size="10.00"> </text>
<text text-anchor="start" x="1916.5" y="-59.5" font-family="Helvetica,sans-Serif" font-size="10.00">+</text>
<text text-anchor="start" x="1938" y="-59.5" font-family="Helvetica,sans-Serif" font-size="10.00">onRun()</text>
<text text-anchor="start" x="1916.5" y="-44.5" font-family="Helvetica,sans-Serif" font-size="10.00">+</text>
<text text-anchor="start" x="1938" y="-44.5" font-family="Helvetica,sans-Serif" font-size="10.00">reload()</text>
<text text-anchor="start" x="1916.5" y="-29.5" font-family="Helvetica,sans-Serif" font-size="10.00">+</text>
<text text-anchor="start" x="1938" y="-29.5" font-family="Helvetica,sans-Serif" font-size="10.00">setEnabled()</text>
<polygon fill="#bfbfbf" stroke="#bfbfbf" points="1904,-84.5 1904,-84.5 2022,-84.5 2022,-84.5 1904,-84.5"/>
<polygon fill="#bfbfbf" stroke="#bfbfbf" points="1904,-69.5 1904,-69.5 2022,-69.5 2022,-69.5 1904,-69.5"/>
<polygon fill="none" stroke="#bfbfbf" points="1904,-22.5 1904,-112.5 2022,-112.5 2022,-22.5 1904,-22.5"/>
</a>
</g>
</g>
<!-- Node1&#45;&gt;Node14 -->
<g id="edge13_Node000001_Node000014" class="edge">
<title>Node1&#45;&gt;Node14</title>
<g id="a_edge13_Node000001_Node000014"><a xlink:title=" ">
<path fill="none" stroke="#63b8ff" d="M1686.05,-259.97C1745.91,-229.91 1828.84,-184.67 1895,-135 1903.98,-128.26 1912.99,-120.41 1921.37,-112.51"/>
<polygon fill="none" stroke="#63b8ff" points="1684.4,-256.88 1677.02,-264.48 1687.53,-263.14 1684.4,-256.88"/>
</a>
</g>
</g>
<!-- Node15 -->
<g id="Node000015" class="node">
<title>Node15</title>
<g id="a_Node000015"><a xlink:href="../../df/d2c/classpocketmine_1_1stats_1_1_send_usage_task.html" target="_top" xlink:title=" ">
<polygon fill="white" stroke="transparent" points="2214,-129.5 2040,-129.5 2040,-5.5 2214,-5.5 2214,-129.5"/>
<text text-anchor="start" x="2045" y="-117.5" font-family="Helvetica,sans-Serif" font-size="10.00">pocketmine\stats\SendUsageTask</text>
<text text-anchor="start" x="2065.5" y="-102.5" font-family="Helvetica,sans-Serif" font-size="10.00">+</text>
<text text-anchor="start" x="2100" y="-102.5" font-family="Helvetica,sans-Serif" font-size="10.00">$data</text>
<text text-anchor="start" x="2065.5" y="-87.5" font-family="Helvetica,sans-Serif" font-size="10.00">+</text>
<text text-anchor="start" x="2100" y="-87.5" font-family="Helvetica,sans-Serif" font-size="10.00">$endpoint</text>
<text text-anchor="start" x="2065.5" y="-72.5" font-family="Helvetica,sans-Serif" font-size="10.00">+</text>
<text text-anchor="start" x="2100" y="-72.5" font-family="Helvetica,sans-Serif" font-size="10.00">TYPE_CLOSE</text>
<text text-anchor="start" x="2065.5" y="-57.5" font-family="Helvetica,sans-Serif" font-size="10.00">+</text>
<text text-anchor="start" x="2100" y="-57.5" font-family="Helvetica,sans-Serif" font-size="10.00">TYPE_OPEN</text>
<text text-anchor="start" x="2065.5" y="-42.5" font-family="Helvetica,sans-Serif" font-size="10.00">+</text>
<text text-anchor="start" x="2100" y="-42.5" font-family="Helvetica,sans-Serif" font-size="10.00">TYPE_STATUS</text>
<text text-anchor="start" x="2065.5" y="-27.5" font-family="Helvetica,sans-Serif" font-size="10.00">+</text>
<text text-anchor="start" x="2100" y="-27.5" font-family="Helvetica,sans-Serif" font-size="10.00">__construct()</text>
<text text-anchor="start" x="2065.5" y="-12.5" font-family="Helvetica,sans-Serif" font-size="10.00">+</text>
<text text-anchor="start" x="2100" y="-12.5" font-family="Helvetica,sans-Serif" font-size="10.00">onRun()</text>
<polygon fill="#bfbfbf" stroke="#bfbfbf" points="2040,-112.5 2040,-112.5 2214,-112.5 2214,-112.5 2040,-112.5"/>
<polygon fill="#bfbfbf" stroke="#bfbfbf" points="2040,-37.5 2040,-37.5 2098,-37.5 2098,-37.5 2040,-37.5"/>
<polygon fill="#bfbfbf" stroke="#bfbfbf" points="2098,-37.5 2098,-37.5 2214,-37.5 2214,-37.5 2098,-37.5"/>
<polygon fill="none" stroke="#bfbfbf" points="2040,-5.5 2040,-129.5 2214,-129.5 2214,-5.5 2040,-5.5"/>
</a>
</g>
</g>
<!-- Node1&#45;&gt;Node15 -->
<g id="edge14_Node000001_Node000015" class="edge">
<title>Node1&#45;&gt;Node15</title>
<g id="a_edge14_Node000001_Node000015"><a xlink:title=" ">
<path fill="none" stroke="#63b8ff" d="M1686.7,-273.31C1773.82,-245.44 1916.27,-195.59 2031,-135 2034.23,-133.3 2037.47,-131.5 2040.72,-129.64"/>
<polygon fill="none" stroke="#63b8ff" points="1685.61,-269.99 1677.14,-276.35 1687.73,-276.66 1685.61,-269.99"/>
</a>
</g>
</g>
<!-- Node16 -->
<g id="Node000016" class="node">
<title>Node16</title>
<g id="a_Node000016"><a xlink:href="../../d7/d6f/classpocketmine_1_1updater_1_1_update_check_task.html" target="_top" xlink:title=" ">
<polygon fill="white" stroke="transparent" points="2340,-112.5 2232,-112.5 2232,-22.5 2340,-22.5 2340,-112.5"/>
<text text-anchor="start" x="2237" y="-100.5" font-family="Helvetica,sans-Serif" font-size="10.00">pocketmine\updater</text>
<text text-anchor="start" x="2240.5" y="-89.5" font-family="Helvetica,sans-Serif" font-size="10.00">\UpdateCheckTask</text>
<text text-anchor="start" x="2284" y="-74.5" font-family="Helvetica,sans-Serif" font-size="10.00"> </text>
<text text-anchor="start" x="2238.5" y="-59.5" font-family="Helvetica,sans-Serif" font-size="10.00">+</text>
<text text-anchor="start" x="2254" y="-59.5" font-family="Helvetica,sans-Serif" font-size="10.00">__construct()</text>
<text text-anchor="start" x="2238.5" y="-44.5" font-family="Helvetica,sans-Serif" font-size="10.00">+</text>
<text text-anchor="start" x="2254" y="-44.5" font-family="Helvetica,sans-Serif" font-size="10.00">onCompletion()</text>
<text text-anchor="start" x="2238.5" y="-29.5" font-family="Helvetica,sans-Serif" font-size="10.00">+</text>
<text text-anchor="start" x="2254" y="-29.5" font-family="Helvetica,sans-Serif" font-size="10.00">onRun()</text>
<polygon fill="#bfbfbf" stroke="#bfbfbf" points="2232,-84.5 2232,-84.5 2340,-84.5 2340,-84.5 2232,-84.5"/>
<polygon fill="#bfbfbf" stroke="#bfbfbf" points="2232,-69.5 2232,-69.5 2340,-69.5 2340,-69.5 2232,-69.5"/>
<polygon fill="none" stroke="#bfbfbf" points="2232,-22.5 2232,-112.5 2340,-112.5 2340,-22.5 2232,-22.5"/>
</a>
</g>
</g>
<!-- Node1&#45;&gt;Node16 -->
<g id="edge15_Node000001_Node000016" class="edge">
<title>Node1&#45;&gt;Node16</title>
<g id="a_edge15_Node000001_Node000016"><a xlink:title=" ">
<path fill="none" stroke="#63b8ff" d="M1687.5,-290.43C1810.57,-276.64 2049.49,-237.87 2223,-135 2232.99,-129.08 2242.4,-121.13 2250.76,-112.79"/>
<polygon fill="none" stroke="#63b8ff" points="1686.95,-286.97 1677.39,-291.54 1687.72,-293.93 1686.95,-286.97"/>
</a>
</g>
</g>
<!-- Node17 -->
<g id="Node000017" class="node">
<title>Node17</title>
<g id="a_Node000017"><a xlink:href="../../d9/d4a/classpocketmine_1_1world_1_1generator_1_1_population_task.html" target="_top" xlink:title=" ">
<polygon fill="white" stroke="transparent" points="2506,-112.5 2358,-112.5 2358,-22.5 2506,-22.5 2506,-112.5"/>
<text text-anchor="start" x="2363" y="-100.5" font-family="Helvetica,sans-Serif" font-size="10.00">pocketmine\world\generator</text>
<text text-anchor="start" x="2393.5" y="-89.5" font-family="Helvetica,sans-Serif" font-size="10.00">\PopulationTask</text>
<text text-anchor="start" x="2430" y="-74.5" font-family="Helvetica,sans-Serif" font-size="10.00"> </text>
<text text-anchor="start" x="2374.5" y="-59.5" font-family="Helvetica,sans-Serif" font-size="10.00">+</text>
<text text-anchor="start" x="2400" y="-59.5" font-family="Helvetica,sans-Serif" font-size="10.00">__construct()</text>
<text text-anchor="start" x="2374.5" y="-44.5" font-family="Helvetica,sans-Serif" font-size="10.00">+</text>
<text text-anchor="start" x="2400" y="-44.5" font-family="Helvetica,sans-Serif" font-size="10.00">onCompletion()</text>
<text text-anchor="start" x="2374.5" y="-29.5" font-family="Helvetica,sans-Serif" font-size="10.00">+</text>
<text text-anchor="start" x="2400" y="-29.5" font-family="Helvetica,sans-Serif" font-size="10.00">onRun()</text>
<polygon fill="#bfbfbf" stroke="#bfbfbf" points="2358,-84.5 2358,-84.5 2506,-84.5 2506,-84.5 2358,-84.5"/>
<polygon fill="#bfbfbf" stroke="#bfbfbf" points="2358,-69.5 2358,-69.5 2506,-69.5 2506,-69.5 2358,-69.5"/>
<polygon fill="none" stroke="#bfbfbf" points="2358,-22.5 2358,-112.5 2506,-112.5 2506,-22.5 2358,-22.5"/>
</a>
</g>
</g>
<!-- Node1&#45;&gt;Node17 -->
<g id="edge16_Node000001_Node000017" class="edge">
<title>Node1&#45;&gt;Node17</title>
<g id="a_edge16_Node000001_Node000017"><a xlink:title=" ">
<path fill="none" stroke="#63b8ff" d="M1687.43,-291.94C1827.93,-279.66 2124.5,-242.21 2349,-135 2361.33,-129.11 2373.47,-121.07 2384.49,-112.61"/>
<polygon fill="none" stroke="#63b8ff" points="1686.84,-288.48 1677.17,-292.81 1687.44,-295.45 1686.84,-288.48"/>
</a>
</g>
</g>
<!-- Node18 -->
<g id="Node000018" class="node">
<title>Node18</title>
<g id="a_Node000018"><a xlink:href="../../d5/d0f/classpocketmine_1_1world_1_1generator_1_1executor_1_1_async_generator_register_task.html" target="_top" xlink:title=" ">
<polygon fill="white" stroke="transparent" points="2723.5,-105 2524.5,-105 2524.5,-30 2723.5,-30 2723.5,-105"/>
<text text-anchor="start" x="2530" y="-92.5" font-family="Helvetica,sans-Serif" font-size="10.00">pocketmine\world\generator</text>
<text text-anchor="start" x="2530" y="-81.5" font-family="Helvetica,sans-Serif" font-size="10.00">\executor\AsyncGeneratorRegisterTask</text>
<text text-anchor="start" x="2622.5" y="-66.5" font-family="Helvetica,sans-Serif" font-size="10.00"> </text>
<text text-anchor="start" x="2557.5" y="-51.5" font-family="Helvetica,sans-Serif" font-size="10.00">+</text>
<text text-anchor="start" x="2599" y="-51.5" font-family="Helvetica,sans-Serif" font-size="10.00">__construct()</text>
<text text-anchor="start" x="2557.5" y="-36.5" font-family="Helvetica,sans-Serif" font-size="10.00">+</text>
<text text-anchor="start" x="2599" y="-36.5" font-family="Helvetica,sans-Serif" font-size="10.00">onRun()</text>
<polygon fill="#bfbfbf" stroke="#bfbfbf" points="2525,-76.5 2525,-76.5 2724,-76.5 2724,-76.5 2525,-76.5"/>
<polygon fill="#bfbfbf" stroke="#bfbfbf" points="2525,-61.5 2525,-61.5 2724,-61.5 2724,-61.5 2525,-61.5"/>
<polygon fill="none" stroke="#bfbfbf" points="2524.5,-30 2524.5,-105 2723.5,-105 2723.5,-30 2524.5,-30"/>
</a>
</g>
</g>
<!-- Node1&#45;&gt;Node18 -->
<g id="edge17_Node000001_Node000018" class="edge">
<title>Node1&#45;&gt;Node18</title>
<g id="a_edge17_Node000001_Node000018"><a xlink:title=" ">
<path fill="none" stroke="#63b8ff" d="M1687.43,-293.07C1849.13,-282.04 2223.05,-245.71 2515,-135 2534.9,-127.45 2555.2,-116.22 2572.81,-105.12"/>
<polygon fill="none" stroke="#63b8ff" points="1686.84,-289.6 1677.09,-293.76 1687.31,-296.59 1686.84,-289.6"/>
</a>
</g>
</g>
<!-- Node19 -->
<g id="Node000019" class="node">
<title>Node19</title>
<g id="a_Node000019"><a xlink:href="../../de/da7/classpocketmine_1_1world_1_1generator_1_1executor_1_1_async_generator_unregister_task.html" target="_top" xlink:title=" ">
<polygon fill="white" stroke="transparent" points="2950.5,-105 2741.5,-105 2741.5,-30 2950.5,-30 2950.5,-105"/>
<text text-anchor="start" x="2747" y="-92.5" font-family="Helvetica,sans-Serif" font-size="10.00">pocketmine\world\generator</text>
<text text-anchor="start" x="2747" y="-81.5" font-family="Helvetica,sans-Serif" font-size="10.00">\executor\AsyncGeneratorUnregisterTask</text>
<text text-anchor="start" x="2844.5" y="-66.5" font-family="Helvetica,sans-Serif" font-size="10.00"> </text>
<text text-anchor="start" x="2777" y="-51.5" font-family="Helvetica,sans-Serif" font-size="10.00">+</text>
<text text-anchor="start" x="2821" y="-51.5" font-family="Helvetica,sans-Serif" font-size="10.00">__construct()</text>
<text text-anchor="start" x="2777" y="-36.5" font-family="Helvetica,sans-Serif" font-size="10.00">+</text>
<text text-anchor="start" x="2821" y="-36.5" font-family="Helvetica,sans-Serif" font-size="10.00">onRun()</text>
<polygon fill="#bfbfbf" stroke="#bfbfbf" points="2742,-76.5 2742,-76.5 2951,-76.5 2951,-76.5 2742,-76.5"/>
<polygon fill="#bfbfbf" stroke="#bfbfbf" points="2742,-61.5 2742,-61.5 2951,-61.5 2951,-61.5 2742,-61.5"/>
<polygon fill="none" stroke="#bfbfbf" points="2741.5,-30 2741.5,-105 2950.5,-105 2950.5,-30 2741.5,-30"/>
</a>
</g>
</g>
<!-- Node1&#45;&gt;Node19 -->
<g id="edge18_Node000001_Node000019" class="edge">
<title>Node1&#45;&gt;Node19</title>
<g id="a_edge18_Node000001_Node000019"><a xlink:title=" ">
<path fill="none" stroke="#63b8ff" d="M1687.19,-296.47C1875.31,-291.82 2357.4,-266.86 2733,-135 2753.83,-127.69 2775.1,-116.37 2793.49,-105.13"/>
<polygon fill="none" stroke="#63b8ff" points="1687.03,-292.97 1677.11,-296.71 1687.19,-299.97 1687.03,-292.97"/>
</a>
</g>
</g>
<!-- Node20 -->
<g id="Node000020" class="node">
<title>Node20</title>
<g id="a_Node000020"><a xlink:href="../../d9/d7c/classpocketmine_1_1world_1_1light_1_1_light_population_task.html" target="_top" xlink:title=" ">
<polygon fill="white" stroke="transparent" points="3091,-112.5 2969,-112.5 2969,-22.5 3091,-22.5 3091,-112.5"/>
<text text-anchor="start" x="2974" y="-100.5" font-family="Helvetica,sans-Serif" font-size="10.00">pocketmine\world\light</text>
<text text-anchor="start" x="2979.5" y="-89.5" font-family="Helvetica,sans-Serif" font-size="10.00">\LightPopulationTask</text>
<text text-anchor="start" x="2979" y="-74.5" font-family="Helvetica,sans-Serif" font-size="10.00">+</text>
<text text-anchor="start" x="2998" y="-74.5" font-family="Helvetica,sans-Serif" font-size="10.00">$chunk</text>
<text text-anchor="start" x="2979" y="-59.5" font-family="Helvetica,sans-Serif" font-size="10.00">+</text>
<text text-anchor="start" x="2998" y="-59.5" font-family="Helvetica,sans-Serif" font-size="10.00">__construct()</text>
<text text-anchor="start" x="2979" y="-44.5" font-family="Helvetica,sans-Serif" font-size="10.00">+</text>
<text text-anchor="start" x="2998" y="-44.5" font-family="Helvetica,sans-Serif" font-size="10.00">onCompletion()</text>
<text text-anchor="start" x="2979" y="-29.5" font-family="Helvetica,sans-Serif" font-size="10.00">+</text>
<text text-anchor="start" x="2998" y="-29.5" font-family="Helvetica,sans-Serif" font-size="10.00">onRun()</text>
<polygon fill="#bfbfbf" stroke="#bfbfbf" points="2969,-84.5 2969,-84.5 3091,-84.5 3091,-84.5 2969,-84.5"/>
<polygon fill="#bfbfbf" stroke="#bfbfbf" points="2969,-69.5 2969,-69.5 2996,-69.5 2996,-69.5 2969,-69.5"/>
<polygon fill="#bfbfbf" stroke="#bfbfbf" points="2996,-69.5 2996,-69.5 3091,-69.5 3091,-69.5 2996,-69.5"/>
<polygon fill="none" stroke="#bfbfbf" points="2969,-22.5 2969,-112.5 3091,-112.5 3091,-22.5 2969,-22.5"/>
</a>
</g>
</g>
<!-- Node1&#45;&gt;Node20 -->
<g id="edge19_Node000001_Node000020" class="edge">
<title>Node1&#45;&gt;Node20</title>
<g id="a_edge19_Node000001_Node000020"><a xlink:title=" ">
<path fill="none" stroke="#63b8ff" d="M1687.45,-294.44C1942.77,-283.73 2731.42,-242.51 2960,-135 2971.68,-129.51 2982.67,-121.3 2992.32,-112.51"/>
<polygon fill="none" stroke="#63b8ff" points="1686.99,-290.96 1677.14,-294.87 1687.28,-297.95 1686.99,-290.96"/>
</a>
</g>
</g>
<!-- Node2 -->
<g id="Node000002" class="node">
<title>Node2</title>
<g id="a_Node000002"><a xlink:title=" ">
<polygon fill="white" stroke="transparent" points="1635,-511 1579,-511 1579,-462 1635,-462 1635,-511"/>
<text text-anchor="start" x="1584" y="-498.5" font-family="Helvetica,sans-Serif" font-size="10.00">Runnable</text>
<text text-anchor="start" x="1605" y="-483.5" font-family="Helvetica,sans-Serif" font-size="10.00"> </text>
<text text-anchor="start" x="1605" y="-468.5" font-family="Helvetica,sans-Serif" font-size="10.00"> </text>
<polygon fill="#bfbfbf" stroke="#bfbfbf" points="1579,-493.5 1579,-493.5 1635,-493.5 1635,-493.5 1579,-493.5"/>
<polygon fill="#bfbfbf" stroke="#bfbfbf" points="1579,-478.5 1579,-478.5 1635,-478.5 1635,-478.5 1579,-478.5"/>
<polygon fill="none" stroke="#bfbfbf" points="1579,-462 1579,-511 1635,-511 1635,-462 1579,-462"/>
</a>
</g>
</g>
<!-- Node2&#45;&gt;Node1 -->
<g id="edge1_Node000001_Node000002" class="edge">
<title>Node2&#45;&gt;Node1</title>
<g id="a_edge1_Node000001_Node000002"><a xlink:title=" ">
<path fill="none" stroke="#63b8ff" d="M1607,-451.75C1607,-444.08 1607,-435.48 1607,-426.39"/>
<polygon fill="none" stroke="#63b8ff" points="1603.5,-451.94 1607,-461.94 1610.5,-451.94 1603.5,-451.94"/>
</a>
</g>
</g>
</g>
</svg>
