<?xml version="1.0" encoding="UTF-8" standalone="no"?>
<!DOCTYPE svg PUBLIC "-//W3C//DTD SVG 1.1//EN"
 "http://www.w3.org/Graphics/SVG/1.1/DTD/svg11.dtd">
<!-- Generated by graphviz version 2.43.0 (0)
 -->
<!-- Title: pocketmine\block\inventory\DoubleChestInventory Pages: 1 -->
<!--zoomable 875 -->

<svg id="main" version="1.1" xmlns="http://www.w3.org/2000/svg" xmlns:xlink="http://www.w3.org/1999/xlink" xml:space="preserve" onload="init(evt)">

<style type="text/css"><![CDATA[
.node, .edge {opacity: 0.7;}
.node.selected, .edge.selected {opacity: 1;}
.edge:hover path { stroke: red; }
.edge:hover polygon { stroke: red; fill: red; }
]]></style>

<defs>
  <circle id="rim" cx="0" cy="0" r="7"/>
  <circle id="rim2" cx="0" cy="0" r="3.5"/>
  <g id="zoomPlus">
    <use xlink:href="#rim" fill="#404040"><set attributeName="fill" to="#808080" begin="zoomplus.mouseover" end="zoomplus.mouseout"/></use>
    <path d="M-4,0h8M0,-4v8" fill="none" stroke="white" stroke-width="1.5" pointer-events="none"/>
  </g>
  <g id="zoomMin">
    <use xlink:href="#rim" fill="#404040"><set attributeName="fill" to="#808080" begin="zoomminus.mouseover" end="zoomminus.mouseout"/></use>
    <path d="M-4,0h8" fill="none" stroke="white" stroke-width="1.5" pointer-events="none"/>
  </g>
  <g id="arrowUp" transform="translate(30 24)">
    <use xlink:href="#rim"/>
    <path pointer-events="none" fill="none" stroke="white" stroke-width="1.5" d="M0,-3.0v7 M-2.5,-0.5L0,-3.0L2.5,-0.5"/>
  </g>
  <g id="arrowRight" transform="rotate(90) translate(36 -43)">
    <use xlink:href="#rim"/>
    <path pointer-events="none" fill="none" stroke="white" stroke-width="1.5" d="M0,-3.0v7 M-2.5,-0.5L0,-3.0L2.5,-0.5"/>
  </g>
  <g id="arrowDown" transform="rotate(180) translate(-30 -48)">
    <use xlink:href="#rim"/>
    <path pointer-events="none" fill="none" stroke="white" stroke-width="1.5" d="M0,-3.0v7 M-2.5,-0.5L0,-3.0L2.5,-0.5"/>
  </g>
  <g id="arrowLeft" transform="rotate(270) translate(-36 17)">
    <use xlink:href="#rim"/>
    <path pointer-events="none" fill="none" stroke="white" stroke-width="1.5" d="M0,-3.0v7 M-2.5,-0.5L0,-3.0L2.5,-0.5"/>
  </g>
  <g id="resetDef">
    <use xlink:href="#rim2" fill="#404040"><set attributeName="fill" to="#808080" begin="reset.mouseover" end="reset.mouseout"/></use>
  </g>
</defs>
<script type="application/ecmascript">
var viewWidth = 534;
var viewHeight = 875;
var sectionId = 'dynsection-0';
</script>
<script type="application/ecmascript" xlink:href="../../svg.min.js"/>
<svg id="graph" class="graph">
<g id="viewport">
<title>pocketmine\block\inventory\DoubleChestInventory</title>
<!-- Node1 -->
<g id="Node000001" class="node">
<title>Node1</title>
<g id="a_Node000001"><a xlink:title=" ">
<polygon fill="#999999" stroke="transparent" points="390.5,-255 244.5,-255 244.5,0 390.5,0 390.5,-255"/>
<text text-anchor="start" x="249.5" y="-242.5" font-family="Helvetica,sans-Serif" font-size="10.00">pocketmine\block\inventory</text>
<text text-anchor="start" x="261.5" y="-231.5" font-family="Helvetica,sans-Serif" font-size="10.00">\DoubleChestInventory</text>
<text text-anchor="start" x="315.5" y="-216.5" font-family="Helvetica,sans-Serif" font-size="10.00"> </text>
<text text-anchor="start" x="249.5" y="-201.5" font-family="Helvetica,sans-Serif" font-size="10.00">+</text>
<text text-anchor="start" x="263.5" y="-201.5" font-family="Helvetica,sans-Serif" font-size="10.00">__construct()</text>
<text text-anchor="start" x="249.5" y="-186.5" font-family="Helvetica,sans-Serif" font-size="10.00">+</text>
<text text-anchor="start" x="263.5" y="-186.5" font-family="Helvetica,sans-Serif" font-size="10.00">getContents()</text>
<text text-anchor="start" x="249.5" y="-171.5" font-family="Helvetica,sans-Serif" font-size="10.00">+</text>
<text text-anchor="start" x="263.5" y="-171.5" font-family="Helvetica,sans-Serif" font-size="10.00">getInventory()</text>
<text text-anchor="start" x="249.5" y="-156.5" font-family="Helvetica,sans-Serif" font-size="10.00">+</text>
<text text-anchor="start" x="263.5" y="-156.5" font-family="Helvetica,sans-Serif" font-size="10.00">getItem()</text>
<text text-anchor="start" x="249.5" y="-141.5" font-family="Helvetica,sans-Serif" font-size="10.00">+</text>
<text text-anchor="start" x="263.5" y="-141.5" font-family="Helvetica,sans-Serif" font-size="10.00">getLeftSide()</text>
<text text-anchor="start" x="249.5" y="-126.5" font-family="Helvetica,sans-Serif" font-size="10.00">+</text>
<text text-anchor="start" x="263.5" y="-126.5" font-family="Helvetica,sans-Serif" font-size="10.00">getRightSide()</text>
<text text-anchor="start" x="249.5" y="-111.5" font-family="Helvetica,sans-Serif" font-size="10.00">+</text>
<text text-anchor="start" x="263.5" y="-111.5" font-family="Helvetica,sans-Serif" font-size="10.00">getSize()</text>
<text text-anchor="start" x="249.5" y="-96.5" font-family="Helvetica,sans-Serif" font-size="10.00">+</text>
<text text-anchor="start" x="263.5" y="-96.5" font-family="Helvetica,sans-Serif" font-size="10.00">isSlotEmpty()</text>
<text text-anchor="start" x="249.5" y="-81.5" font-family="Helvetica,sans-Serif" font-size="10.00">#</text>
<text text-anchor="start" x="263.5" y="-81.5" font-family="Helvetica,sans-Serif" font-size="10.00">animateBlock()</text>
<text text-anchor="start" x="249.5" y="-66.5" font-family="Helvetica,sans-Serif" font-size="10.00">#</text>
<text text-anchor="start" x="263.5" y="-66.5" font-family="Helvetica,sans-Serif" font-size="10.00">getCloseSound()</text>
<text text-anchor="start" x="249.5" y="-51.5" font-family="Helvetica,sans-Serif" font-size="10.00">#</text>
<text text-anchor="start" x="263.5" y="-51.5" font-family="Helvetica,sans-Serif" font-size="10.00">getMatchingItemCount()</text>
<text text-anchor="start" x="249.5" y="-36.5" font-family="Helvetica,sans-Serif" font-size="10.00">#</text>
<text text-anchor="start" x="263.5" y="-36.5" font-family="Helvetica,sans-Serif" font-size="10.00">getOpenSound()</text>
<text text-anchor="start" x="249.5" y="-21.5" font-family="Helvetica,sans-Serif" font-size="10.00">#</text>
<text text-anchor="start" x="263.5" y="-21.5" font-family="Helvetica,sans-Serif" font-size="10.00">internalSetContents()</text>
<text text-anchor="start" x="249.5" y="-6.5" font-family="Helvetica,sans-Serif" font-size="10.00">#</text>
<text text-anchor="start" x="263.5" y="-6.5" font-family="Helvetica,sans-Serif" font-size="10.00">internalSetItem()</text>
<polygon fill="#666666" stroke="#666666" points="244.5,-226.5 244.5,-226.5 390.5,-226.5 390.5,-226.5 244.5,-226.5"/>
<polygon fill="#666666" stroke="#666666" points="244.5,-211.5 244.5,-211.5 390.5,-211.5 390.5,-211.5 244.5,-211.5"/>
<polygon fill="none" stroke="#666666" points="244.5,0 244.5,-255 390.5,-255 390.5,0 244.5,0"/>
</a>
</g>
</g>
<!-- Node2 -->
<g id="Node000002" class="node">
<title>Node2</title>
<g id="a_Node000002"><a xlink:href="../../d5/dc4/classpocketmine_1_1inventory_1_1_base_inventory.html" target="_top" xlink:title=" ">
<polygon fill="white" stroke="transparent" points="226,-621 77,-621 77,-291 226,-291 226,-621"/>
<text text-anchor="start" x="98.5" y="-609" font-family="Helvetica,sans-Serif" font-size="10.00">pocketmine\inventory</text>
<text text-anchor="start" x="115" y="-598" font-family="Helvetica,sans-Serif" font-size="10.00">\BaseInventory</text>
<text text-anchor="start" x="81.5" y="-583" font-family="Helvetica,sans-Serif" font-size="10.00">#</text>
<text text-anchor="start" x="94.5" y="-583" font-family="Helvetica,sans-Serif" font-size="10.00">$listeners</text>
<text text-anchor="start" x="81.5" y="-568" font-family="Helvetica,sans-Serif" font-size="10.00">#</text>
<text text-anchor="start" x="94.5" y="-568" font-family="Helvetica,sans-Serif" font-size="10.00">$maxStackSize</text>
<text text-anchor="start" x="81.5" y="-553" font-family="Helvetica,sans-Serif" font-size="10.00">#</text>
<text text-anchor="start" x="94.5" y="-553" font-family="Helvetica,sans-Serif" font-size="10.00">$validators</text>
<text text-anchor="start" x="81.5" y="-538" font-family="Helvetica,sans-Serif" font-size="10.00">#</text>
<text text-anchor="start" x="94.5" y="-538" font-family="Helvetica,sans-Serif" font-size="10.00">$viewers</text>
<text text-anchor="start" x="81.5" y="-523" font-family="Helvetica,sans-Serif" font-size="10.00">+</text>
<text text-anchor="start" x="94.5" y="-523" font-family="Helvetica,sans-Serif" font-size="10.00">__construct()</text>
<text text-anchor="start" x="81.5" y="-508" font-family="Helvetica,sans-Serif" font-size="10.00">+</text>
<text text-anchor="start" x="94.5" y="-508" font-family="Helvetica,sans-Serif" font-size="10.00">addItem()</text>
<text text-anchor="start" x="81.5" y="-493" font-family="Helvetica,sans-Serif" font-size="10.00">+</text>
<text text-anchor="start" x="94.5" y="-493" font-family="Helvetica,sans-Serif" font-size="10.00">all()</text>
<text text-anchor="start" x="81.5" y="-478" font-family="Helvetica,sans-Serif" font-size="10.00">+</text>
<text text-anchor="start" x="94.5" y="-478" font-family="Helvetica,sans-Serif" font-size="10.00">canAddItem()</text>
<text text-anchor="start" x="81.5" y="-463" font-family="Helvetica,sans-Serif" font-size="10.00">+</text>
<text text-anchor="start" x="94.5" y="-463" font-family="Helvetica,sans-Serif" font-size="10.00">clear()</text>
<text text-anchor="start" x="81.5" y="-448" font-family="Helvetica,sans-Serif" font-size="10.00">+</text>
<text text-anchor="start" x="94.5" y="-448" font-family="Helvetica,sans-Serif" font-size="10.00">clearAll()</text>
<text text-anchor="start" x="81.5" y="-433" font-family="Helvetica,sans-Serif" font-size="10.00">+</text>
<text text-anchor="start" x="94.5" y="-433" font-family="Helvetica,sans-Serif" font-size="10.00">contains()</text>
<text text-anchor="start" x="81.5" y="-418" font-family="Helvetica,sans-Serif" font-size="10.00">+</text>
<text text-anchor="start" x="94.5" y="-418" font-family="Helvetica,sans-Serif" font-size="10.00">first()</text>
<text text-anchor="start" x="81.5" y="-403" font-family="Helvetica,sans-Serif" font-size="10.00">+</text>
<text text-anchor="start" x="94.5" y="-403" font-family="Helvetica,sans-Serif" font-size="10.00">firstEmpty()</text>
<text text-anchor="start" x="81.5" y="-388" font-family="Helvetica,sans-Serif" font-size="10.00">+</text>
<text text-anchor="start" x="94.5" y="-388" font-family="Helvetica,sans-Serif" font-size="10.00">getAddableItemQuantity()</text>
<text text-anchor="start" x="94.5" y="-373" font-family="Helvetica,sans-Serif" font-size="10.00">and 15 more...</text>
<text text-anchor="start" x="81.5" y="-358" font-family="Helvetica,sans-Serif" font-size="10.00">#</text>
<text text-anchor="start" x="94.5" y="-358" font-family="Helvetica,sans-Serif" font-size="10.00">getMatchingItemCount()</text>
<text text-anchor="start" x="81.5" y="-343" font-family="Helvetica,sans-Serif" font-size="10.00">#</text>
<text text-anchor="start" x="94.5" y="-343" font-family="Helvetica,sans-Serif" font-size="10.00">internalSetContents()</text>
<text text-anchor="start" x="81.5" y="-328" font-family="Helvetica,sans-Serif" font-size="10.00">#</text>
<text text-anchor="start" x="94.5" y="-328" font-family="Helvetica,sans-Serif" font-size="10.00">internalSetItem()</text>
<text text-anchor="start" x="81.5" y="-313" font-family="Helvetica,sans-Serif" font-size="10.00">#</text>
<text text-anchor="start" x="94.5" y="-313" font-family="Helvetica,sans-Serif" font-size="10.00">onContentChange()</text>
<text text-anchor="start" x="81.5" y="-298" font-family="Helvetica,sans-Serif" font-size="10.00">#</text>
<text text-anchor="start" x="94.5" y="-298" font-family="Helvetica,sans-Serif" font-size="10.00">onSlotChange()</text>
<polygon fill="#666666" stroke="#666666" points="77.5,-593 77.5,-593 226.5,-593 226.5,-593 77.5,-593"/>
<polygon fill="#666666" stroke="#666666" points="77.5,-533 77.5,-533 92.5,-533 92.5,-533 77.5,-533"/>
<polygon fill="#666666" stroke="#666666" points="92.5,-533 92.5,-533 226.5,-533 226.5,-533 92.5,-533"/>
<polygon fill="none" stroke="#666666" points="77,-291 77,-621 226,-621 226,-291 77,-291"/>
</a>
</g>
</g>
<!-- Node2&#45;&gt;Node1 -->
<g id="edge1_Node000001_Node000002" class="edge">
<title>Node2&#45;&gt;Node1</title>
<g id="a_edge1_Node000001_Node000002"><a xlink:title=" ">
<path fill="none" stroke="#63b8ff" d="M230.68,-299.27C238.2,-284.47 245.77,-269.59 253.12,-255.12"/>
<polygon fill="none" stroke="#63b8ff" points="227.41,-297.96 226,-308.46 233.65,-301.14 227.41,-297.96"/>
</a>
</g>
</g>
<!-- Node3 -->
<g id="Node000003" class="node">
<title>Node3</title>
<g id="a_Node000003"><a xlink:href="../../db/d39/interfacepocketmine_1_1inventory_1_1_inventory.html" target="_top" xlink:title=" ">
<polygon fill="white" stroke="transparent" points="149,-867 0,-867 0,-657 149,-657 149,-867"/>
<text text-anchor="start" x="21.5" y="-855" font-family="Helvetica,sans-Serif" font-size="10.00">pocketmine\inventory</text>
<text text-anchor="start" x="50" y="-844" font-family="Helvetica,sans-Serif" font-size="10.00">\Inventory</text>
<text text-anchor="start" x="4.5" y="-829" font-family="Helvetica,sans-Serif" font-size="10.00">+</text>
<text text-anchor="start" x="17.5" y="-829" font-family="Helvetica,sans-Serif" font-size="10.00">MAX_STACK</text>
<text text-anchor="start" x="4.5" y="-814" font-family="Helvetica,sans-Serif" font-size="10.00">+</text>
<text text-anchor="start" x="17.5" y="-814" font-family="Helvetica,sans-Serif" font-size="10.00">addItem()</text>
<text text-anchor="start" x="4.5" y="-799" font-family="Helvetica,sans-Serif" font-size="10.00">+</text>
<text text-anchor="start" x="17.5" y="-799" font-family="Helvetica,sans-Serif" font-size="10.00">all()</text>
<text text-anchor="start" x="4.5" y="-784" font-family="Helvetica,sans-Serif" font-size="10.00">+</text>
<text text-anchor="start" x="17.5" y="-784" font-family="Helvetica,sans-Serif" font-size="10.00">canAddItem()</text>
<text text-anchor="start" x="4.5" y="-769" font-family="Helvetica,sans-Serif" font-size="10.00">+</text>
<text text-anchor="start" x="17.5" y="-769" font-family="Helvetica,sans-Serif" font-size="10.00">clear()</text>
<text text-anchor="start" x="4.5" y="-754" font-family="Helvetica,sans-Serif" font-size="10.00">+</text>
<text text-anchor="start" x="17.5" y="-754" font-family="Helvetica,sans-Serif" font-size="10.00">clearAll()</text>
<text text-anchor="start" x="4.5" y="-739" font-family="Helvetica,sans-Serif" font-size="10.00">+</text>
<text text-anchor="start" x="17.5" y="-739" font-family="Helvetica,sans-Serif" font-size="10.00">contains()</text>
<text text-anchor="start" x="4.5" y="-724" font-family="Helvetica,sans-Serif" font-size="10.00">+</text>
<text text-anchor="start" x="17.5" y="-724" font-family="Helvetica,sans-Serif" font-size="10.00">first()</text>
<text text-anchor="start" x="4.5" y="-709" font-family="Helvetica,sans-Serif" font-size="10.00">+</text>
<text text-anchor="start" x="17.5" y="-709" font-family="Helvetica,sans-Serif" font-size="10.00">firstEmpty()</text>
<text text-anchor="start" x="4.5" y="-694" font-family="Helvetica,sans-Serif" font-size="10.00">+</text>
<text text-anchor="start" x="17.5" y="-694" font-family="Helvetica,sans-Serif" font-size="10.00">getAddableItemQuantity()</text>
<text text-anchor="start" x="4.5" y="-679" font-family="Helvetica,sans-Serif" font-size="10.00">+</text>
<text text-anchor="start" x="17.5" y="-679" font-family="Helvetica,sans-Serif" font-size="10.00">getContents()</text>
<text text-anchor="start" x="17.5" y="-664" font-family="Helvetica,sans-Serif" font-size="10.00">and 15 more...</text>
<polygon fill="#bfbfbf" stroke="#bfbfbf" points="0.5,-839 0.5,-839 149.5,-839 149.5,-839 0.5,-839"/>
<polygon fill="#bfbfbf" stroke="#bfbfbf" points="0.5,-824 0.5,-824 15.5,-824 15.5,-824 0.5,-824"/>
<polygon fill="#bfbfbf" stroke="#bfbfbf" points="15.5,-824 15.5,-824 149.5,-824 149.5,-824 15.5,-824"/>
<polygon fill="none" stroke="#bfbfbf" points="0,-657 0,-867 149,-867 149,-657 0,-657"/>
</a>
</g>
</g>
<!-- Node3&#45;&gt;Node2 -->
<g id="edge2_Node000002_Node000003" class="edge">
<title>Node3&#45;&gt;Node2</title>
<g id="a_edge2_Node000002_Node000003"><a xlink:title=" ">
<path fill="none" stroke="#63b8ff" d="M103.39,-646.93C105.54,-638.44 107.74,-629.78 109.94,-621.07"/>
<polygon fill="none" stroke="#63b8ff" points="99.95,-646.25 100.89,-656.81 106.74,-647.97 99.95,-646.25"/>
</a>
</g>
</g>
<!-- Node4 -->
<g id="Node000004" class="node">
<title>Node4</title>
<g id="a_Node000004"><a xlink:href="../../dd/d33/interfacepocketmine_1_1inventory_1_1_slot_validated_inventory.html" target="_top" xlink:title=" ">
<polygon fill="white" stroke="transparent" points="292,-792 167,-792 167,-732 292,-732 292,-792"/>
<text text-anchor="start" x="172.5" y="-780" font-family="Helvetica,sans-Serif" font-size="10.00">pocketmine\inventory</text>
<text text-anchor="start" x="172.5" y="-769" font-family="Helvetica,sans-Serif" font-size="10.00">\SlotValidatedInventory</text>
<text text-anchor="start" x="228" y="-754" font-family="Helvetica,sans-Serif" font-size="10.00"> </text>
<text text-anchor="start" x="174.5" y="-739" font-family="Helvetica,sans-Serif" font-size="10.00">+</text>
<text text-anchor="start" x="190.5" y="-739" font-family="Helvetica,sans-Serif" font-size="10.00">getSlotValidators()</text>
<polygon fill="#666666" stroke="#666666" points="167.5,-764 167.5,-764 292.5,-764 292.5,-764 167.5,-764"/>
<polygon fill="#666666" stroke="#666666" points="167.5,-749 167.5,-749 292.5,-749 292.5,-749 167.5,-749"/>
<polygon fill="none" stroke="#666666" points="167,-732 167,-792 292,-792 292,-732 167,-732"/>
</a>
</g>
</g>
<!-- Node4&#45;&gt;Node2 -->
<g id="edge3_Node000002_Node000004" class="edge">
<title>Node4&#45;&gt;Node2</title>
<g id="a_edge3_Node000002_Node000004"><a xlink:title=" ">
<path fill="none" stroke="#63b8ff" d="M219.48,-721.93C212.72,-695.59 203.3,-658.88 193.62,-621.16"/>
<polygon fill="none" stroke="#63b8ff" points="216.15,-723.03 222.02,-731.85 222.93,-721.3 216.15,-723.03"/>
</a>
</g>
</g>
<!-- Node5 -->
<g id="Node000005" class="node">
<title>Node5</title>
<g id="a_Node000005"><a xlink:href="../../d4/d3a/interfacepocketmine_1_1block_1_1inventory_1_1_block_inventory.html" target="_top" xlink:title=" ">
<polygon fill="white" stroke="transparent" points="390.5,-486 244.5,-486 244.5,-426 390.5,-426 390.5,-486"/>
<text text-anchor="start" x="249.5" y="-474" font-family="Helvetica,sans-Serif" font-size="10.00">pocketmine\block\inventory</text>
<text text-anchor="start" x="279" y="-463" font-family="Helvetica,sans-Serif" font-size="10.00">\BlockInventory</text>
<text text-anchor="start" x="315.5" y="-448" font-family="Helvetica,sans-Serif" font-size="10.00"> </text>
<text text-anchor="start" x="265.5" y="-433" font-family="Helvetica,sans-Serif" font-size="10.00">+</text>
<text text-anchor="start" x="295.5" y="-433" font-family="Helvetica,sans-Serif" font-size="10.00">getHolder()</text>
<polygon fill="#bfbfbf" stroke="#bfbfbf" points="244.5,-458 244.5,-458 390.5,-458 390.5,-458 244.5,-458"/>
<polygon fill="#bfbfbf" stroke="#bfbfbf" points="244.5,-443 244.5,-443 390.5,-443 390.5,-443 244.5,-443"/>
<polygon fill="none" stroke="#bfbfbf" points="244.5,-426 244.5,-486 390.5,-486 390.5,-426 244.5,-426"/>
</a>
</g>
</g>
<!-- Node5&#45;&gt;Node1 -->
<g id="edge4_Node000001_Node000005" class="edge">
<title>Node5&#45;&gt;Node1</title>
<g id="a_edge4_Node000001_Node000005"><a xlink:title=" ">
<path fill="none" stroke="#63b8ff" d="M317.5,-415.67C317.5,-375.89 317.5,-312.28 317.5,-255.03"/>
<polygon fill="none" stroke="#63b8ff" points="314,-415.74 317.5,-425.74 321,-415.74 314,-415.74"/>
</a>
</g>
</g>
<!-- Node6 -->
<g id="Node000006" class="node">
<title>Node6</title>
<g id="a_Node000006"><a xlink:href="../../d2/d91/interfacepocketmine_1_1inventory_1_1_inventory_holder.html" target="_top" xlink:title=" ">
<polygon fill="white" stroke="transparent" points="526,-486 409,-486 409,-426 526,-426 526,-486"/>
<text text-anchor="start" x="414.5" y="-474" font-family="Helvetica,sans-Serif" font-size="10.00">pocketmine\inventory</text>
<text text-anchor="start" x="427" y="-463" font-family="Helvetica,sans-Serif" font-size="10.00">\InventoryHolder</text>
<text text-anchor="start" x="466" y="-448" font-family="Helvetica,sans-Serif" font-size="10.00"> </text>
<text text-anchor="start" x="420" y="-433" font-family="Helvetica,sans-Serif" font-size="10.00">+</text>
<text text-anchor="start" x="439.5" y="-433" font-family="Helvetica,sans-Serif" font-size="10.00">getInventory()</text>
<polygon fill="#bfbfbf" stroke="#bfbfbf" points="409.5,-458 409.5,-458 526.5,-458 526.5,-458 409.5,-458"/>
<polygon fill="#bfbfbf" stroke="#bfbfbf" points="409.5,-443 409.5,-443 526.5,-443 526.5,-443 409.5,-443"/>
<polygon fill="none" stroke="#bfbfbf" points="409,-426 409,-486 526,-486 526,-426 409,-426"/>
</a>
</g>
</g>
<!-- Node6&#45;&gt;Node1 -->
<g id="edge5_Node000001_Node000006" class="edge">
<title>Node6&#45;&gt;Node1</title>
<g id="a_edge5_Node000001_Node000006"><a xlink:title=" ">
<path fill="none" stroke="#63b8ff" d="M452.5,-416.57C439.23,-383.11 418.98,-333.45 399.5,-291 394.16,-279.37 388.46,-267.35 382.65,-255.36"/>
<polygon fill="none" stroke="#63b8ff" points="449.29,-417.97 456.23,-425.98 455.8,-415.4 449.29,-417.97"/>
</a>
</g>
</g>
</g>
</svg>

<g id="navigator" transform="translate(0 0)" fill="#404254">
  <rect fill="#f2f5e9" fill-opacity="0.5" stroke="#606060" stroke-width=".5" x="0" y="0" width="60" height="60"/>
  <use id="zoomplus" xlink:href="#zoomPlus" x="17" y="9" onmousedown="handleZoom(evt,'in')"/>
  <use id="zoomminus" xlink:href="#zoomMin" x="42" y="9" onmousedown="handleZoom(evt,'out')"/>
  <use id="reset" xlink:href="#resetDef" x="30" y="36" onmousedown="handleReset()"/>
   <use id="arrowup" xlink:href="#arrowUp" x="0" y="0" onmousedown="handlePan(0,-1)"/>
  <use id="arrowright" xlink:href="#arrowRight" x="0" y="0" onmousedown="handlePan(1,0)"/>
  <use id="arrowdown" xlink:href="#arrowDown" x="0" y="0" onmousedown="handlePan(0,1)"/>
  <use id="arrowleft" xlink:href="#arrowLeft" x="0" y="0" onmousedown="handlePan(-1,0)"/>
</g>
<svg viewBox="0 0 15 15" width="100%" height="30px" preserveAspectRatio="xMaxYMin meet">
 <g id="arrow_out" transform="scale(0.3 0.3)">
  <a xlink:href="classpocketmine_1_1block_1_1inventory_1_1_double_chest_inventory__inherit__graph_org.svg" target="_base">
   <rect id="button" ry="5" rx="5" y="6" x="6" height="38" width="38"
        fill="#f2f5e9" fill-opacity="0.5" stroke="#606060" stroke-width="1.0"/>
   <path id="arrow"
     d="M 11.500037,31.436501 C 11.940474,20.09759 22.043105,11.32322 32.158766,21.979434 L 37.068811,17.246167 C 37.068811,17.246167 37.088388,32 37.088388,32 L 22.160133,31.978069 C 22.160133,31.978069 26.997745,27.140456 26.997745,27.140456 C 18.528582,18.264221 13.291696,25.230495 11.500037,31.436501 z"
     style="fill:#404040;"/>
  </a>
 </g>
</svg>

<style type='text/css'>
<![CDATA[
[data-mouse-over-selected='false'] { opacity: 0.7; }
[data-mouse-over-selected='true']  { opacity: 1.0; }
]]>
</style>
<script type="application/ecmascript"><![CDATA[
document.addEventListener('DOMContentLoaded', (event) => {
  highlightEdges();
  highlightAdjacentNodes();
});
]]></script>
</svg>
