<?xml version="1.0" encoding="UTF-8" standalone="no"?>
<!DOCTYPE svg PUBLIC "-//W3C//DTD SVG 1.1//EN"
 "http://www.w3.org/Graphics/SVG/1.1/DTD/svg11.dtd">
<!-- Generated by graphviz version 2.43.0 (0)
 -->
<!-- Title: pocketmine\network\mcpe\protocol\types\AttributeValue Pages: 1 -->
<svg width="506pt" height="411pt"
 viewBox="0.00 0.00 506.00 411.00" xmlns="http://www.w3.org/2000/svg" xmlns:xlink="http://www.w3.org/1999/xlink">
<g id="graph0" class="graph" transform="scale(1 1) rotate(0) translate(4 407)">
<title>pocketmine\network\mcpe\protocol\types\AttributeValue</title>
<!-- Node1 -->
<g id="Node000001" class="node">
<title>Node1</title>
<g id="a_Node000001"><a xlink:title=" ">
<polygon fill="#999999" stroke="transparent" points="305.5,-403 192.5,-403 192.5,-302 305.5,-302 305.5,-403"/>
<text text-anchor="start" x="198" y="-390.5" font-family="Helvetica,sans-Serif" font-size="10.00">pocketmine\network</text>
<text text-anchor="start" x="198" y="-379.5" font-family="Helvetica,sans-Serif" font-size="10.00">\mcpe\protocol\types</text>
<text text-anchor="start" x="213" y="-368.5" font-family="Helvetica,sans-Serif" font-size="10.00">\AttributeValue</text>
<text text-anchor="start" x="247.5" y="-353.5" font-family="Helvetica,sans-Serif" font-size="10.00"> </text>
<text text-anchor="start" x="206" y="-338.5" font-family="Helvetica,sans-Serif" font-size="10.00">+</text>
<text text-anchor="start" x="228" y="-338.5" font-family="Helvetica,sans-Serif" font-size="10.00">getTypeId()</text>
<text text-anchor="start" x="206" y="-323.5" font-family="Helvetica,sans-Serif" font-size="10.00">+</text>
<text text-anchor="start" x="228" y="-323.5" font-family="Helvetica,sans-Serif" font-size="10.00">write()</text>
<text text-anchor="start" x="206" y="-308.5" font-family="Helvetica,sans-Serif" font-size="10.00">+</text>
<text text-anchor="start" x="228" y="-308.5" font-family="Helvetica,sans-Serif" font-size="10.00">read()</text>
<polygon fill="#666666" stroke="#666666" points="193,-363.5 193,-363.5 306,-363.5 306,-363.5 193,-363.5"/>
<polygon fill="#666666" stroke="#666666" points="193,-348.5 193,-348.5 306,-348.5 306,-348.5 193,-348.5"/>
<polygon fill="none" stroke="#666666" points="192.5,-302 192.5,-403 305.5,-403 305.5,-302 192.5,-302"/>
</a>
</g>
</g>
<!-- Node2 -->
<g id="Node000002" class="node">
<title>Node2</title>
<g id="a_Node000002"><a xlink:href="../../dc/d47/classpocketmine_1_1network_1_1mcpe_1_1protocol_1_1types_1_1_attribute_value_bool.html" target="_top" xlink:title=" ">
<polygon fill="white" stroke="transparent" points="154,-266 0,-266 0,0 154,0 154,-266"/>
<text text-anchor="start" x="25.5" y="-254" font-family="Helvetica,sans-Serif" font-size="10.00">pocketmine\network</text>
<text text-anchor="start" x="25.5" y="-243" font-family="Helvetica,sans-Serif" font-size="10.00">\mcpe\protocol\types</text>
<text text-anchor="start" x="29.5" y="-232" font-family="Helvetica,sans-Serif" font-size="10.00">\AttributeValueBool</text>
<text text-anchor="start" x="4" y="-217" font-family="Helvetica,sans-Serif" font-size="10.00">+</text>
<text text-anchor="start" x="17" y="-217" font-family="Helvetica,sans-Serif" font-size="10.00">ID</text>
<text text-anchor="start" x="4" y="-202" font-family="Helvetica,sans-Serif" font-size="10.00">+</text>
<text text-anchor="start" x="17" y="-202" font-family="Helvetica,sans-Serif" font-size="10.00">OPERATION_ALPHA_BLEND</text>
<text text-anchor="start" x="4" y="-187" font-family="Helvetica,sans-Serif" font-size="10.00">+</text>
<text text-anchor="start" x="17" y="-187" font-family="Helvetica,sans-Serif" font-size="10.00">OPERATION_AND</text>
<text text-anchor="start" x="4" y="-172" font-family="Helvetica,sans-Serif" font-size="10.00">+</text>
<text text-anchor="start" x="17" y="-172" font-family="Helvetica,sans-Serif" font-size="10.00">OPERATION_NAND</text>
<text text-anchor="start" x="4" y="-157" font-family="Helvetica,sans-Serif" font-size="10.00">+</text>
<text text-anchor="start" x="17" y="-157" font-family="Helvetica,sans-Serif" font-size="10.00">OPERATION_NOR</text>
<text text-anchor="start" x="4" y="-142" font-family="Helvetica,sans-Serif" font-size="10.00">+</text>
<text text-anchor="start" x="17" y="-142" font-family="Helvetica,sans-Serif" font-size="10.00">OPERATION_OR</text>
<text text-anchor="start" x="4" y="-127" font-family="Helvetica,sans-Serif" font-size="10.00">+</text>
<text text-anchor="start" x="17" y="-127" font-family="Helvetica,sans-Serif" font-size="10.00">OPERATION_OVERRIDE</text>
<text text-anchor="start" x="4" y="-112" font-family="Helvetica,sans-Serif" font-size="10.00">+</text>
<text text-anchor="start" x="17" y="-112" font-family="Helvetica,sans-Serif" font-size="10.00">OPERATION_XNOR</text>
<text text-anchor="start" x="4" y="-97" font-family="Helvetica,sans-Serif" font-size="10.00">+</text>
<text text-anchor="start" x="17" y="-97" font-family="Helvetica,sans-Serif" font-size="10.00">OPERATION_XOR</text>
<text text-anchor="start" x="4" y="-82" font-family="Helvetica,sans-Serif" font-size="10.00">+</text>
<text text-anchor="start" x="17" y="-82" font-family="Helvetica,sans-Serif" font-size="10.00">__construct()</text>
<text text-anchor="start" x="4" y="-67" font-family="Helvetica,sans-Serif" font-size="10.00">+</text>
<text text-anchor="start" x="17" y="-67" font-family="Helvetica,sans-Serif" font-size="10.00">getOperation()</text>
<text text-anchor="start" x="4" y="-52" font-family="Helvetica,sans-Serif" font-size="10.00">+</text>
<text text-anchor="start" x="17" y="-52" font-family="Helvetica,sans-Serif" font-size="10.00">getTypeId()</text>
<text text-anchor="start" x="4" y="-37" font-family="Helvetica,sans-Serif" font-size="10.00">+</text>
<text text-anchor="start" x="17" y="-37" font-family="Helvetica,sans-Serif" font-size="10.00">getValue()</text>
<text text-anchor="start" x="4" y="-22" font-family="Helvetica,sans-Serif" font-size="10.00">+</text>
<text text-anchor="start" x="17" y="-22" font-family="Helvetica,sans-Serif" font-size="10.00">write()</text>
<text text-anchor="start" x="4" y="-7" font-family="Helvetica,sans-Serif" font-size="10.00">+</text>
<text text-anchor="start" x="17" y="-7" font-family="Helvetica,sans-Serif" font-size="10.00">read()</text>
<polygon fill="#666666" stroke="#666666" points="0,-227 0,-227 154,-227 154,-227 0,-227"/>
<polygon fill="#666666" stroke="#666666" points="0,-92 0,-92 15,-92 15,-92 0,-92"/>
<polygon fill="#666666" stroke="#666666" points="15,-92 15,-92 154,-92 154,-92 15,-92"/>
<polygon fill="none" stroke="#666666" points="0,0 0,-266 154,-266 154,0 0,0"/>
</a>
</g>
</g>
<!-- Node1&#45;&gt;Node2 -->
<g id="edge1_Node000001_Node000002" class="edge">
<title>Node1&#45;&gt;Node2</title>
<g id="a_edge1_Node000001_Node000002"><a xlink:title=" ">
<path fill="none" stroke="#63b8ff" d="M188.25,-294.36C179.45,-285.17 170.76,-275.54 163,-266 160.07,-262.39 157.14,-258.68 154.24,-254.9"/>
<polygon fill="none" stroke="#63b8ff" points="185.83,-296.9 195.31,-301.63 190.85,-292.02 185.83,-296.9"/>
</a>
</g>
</g>
<!-- Node3 -->
<g id="Node000003" class="node">
<title>Node3</title>
<g id="a_Node000003"><a xlink:href="../../d7/d29/classpocketmine_1_1network_1_1mcpe_1_1protocol_1_1types_1_1_attribute_value_color.html" target="_top" xlink:title=" ">
<polygon fill="white" stroke="transparent" points="326,-243.5 172,-243.5 172,-22.5 326,-22.5 326,-243.5"/>
<text text-anchor="start" x="197.5" y="-231" font-family="Helvetica,sans-Serif" font-size="10.00">pocketmine\network</text>
<text text-anchor="start" x="197.5" y="-220" font-family="Helvetica,sans-Serif" font-size="10.00">\mcpe\protocol\types</text>
<text text-anchor="start" x="199.5" y="-209" font-family="Helvetica,sans-Serif" font-size="10.00">\AttributeValueColor</text>
<text text-anchor="start" x="176" y="-194" font-family="Helvetica,sans-Serif" font-size="10.00">+</text>
<text text-anchor="start" x="189" y="-194" font-family="Helvetica,sans-Serif" font-size="10.00">ID</text>
<text text-anchor="start" x="176" y="-179" font-family="Helvetica,sans-Serif" font-size="10.00">+</text>
<text text-anchor="start" x="189" y="-179" font-family="Helvetica,sans-Serif" font-size="10.00">OPERATION_ADD</text>
<text text-anchor="start" x="176" y="-164" font-family="Helvetica,sans-Serif" font-size="10.00">+</text>
<text text-anchor="start" x="189" y="-164" font-family="Helvetica,sans-Serif" font-size="10.00">OPERATION_ALPHA_BLEND</text>
<text text-anchor="start" x="176" y="-149" font-family="Helvetica,sans-Serif" font-size="10.00">+</text>
<text text-anchor="start" x="189" y="-149" font-family="Helvetica,sans-Serif" font-size="10.00">OPERATION_MULTIPLY</text>
<text text-anchor="start" x="176" y="-134" font-family="Helvetica,sans-Serif" font-size="10.00">+</text>
<text text-anchor="start" x="189" y="-134" font-family="Helvetica,sans-Serif" font-size="10.00">OPERATION_OVERRIDE</text>
<text text-anchor="start" x="176" y="-119" font-family="Helvetica,sans-Serif" font-size="10.00">+</text>
<text text-anchor="start" x="189" y="-119" font-family="Helvetica,sans-Serif" font-size="10.00">OPERATION_SUBTRACT</text>
<text text-anchor="start" x="176" y="-104" font-family="Helvetica,sans-Serif" font-size="10.00">+</text>
<text text-anchor="start" x="189" y="-104" font-family="Helvetica,sans-Serif" font-size="10.00">__construct()</text>
<text text-anchor="start" x="176" y="-89" font-family="Helvetica,sans-Serif" font-size="10.00">+</text>
<text text-anchor="start" x="189" y="-89" font-family="Helvetica,sans-Serif" font-size="10.00">getOperation()</text>
<text text-anchor="start" x="176" y="-74" font-family="Helvetica,sans-Serif" font-size="10.00">+</text>
<text text-anchor="start" x="189" y="-74" font-family="Helvetica,sans-Serif" font-size="10.00">getTypeId()</text>
<text text-anchor="start" x="176" y="-59" font-family="Helvetica,sans-Serif" font-size="10.00">+</text>
<text text-anchor="start" x="189" y="-59" font-family="Helvetica,sans-Serif" font-size="10.00">getValue()</text>
<text text-anchor="start" x="176" y="-44" font-family="Helvetica,sans-Serif" font-size="10.00">+</text>
<text text-anchor="start" x="189" y="-44" font-family="Helvetica,sans-Serif" font-size="10.00">write()</text>
<text text-anchor="start" x="176" y="-29" font-family="Helvetica,sans-Serif" font-size="10.00">+</text>
<text text-anchor="start" x="189" y="-29" font-family="Helvetica,sans-Serif" font-size="10.00">read()</text>
<polygon fill="#666666" stroke="#666666" points="172,-204 172,-204 326,-204 326,-204 172,-204"/>
<polygon fill="#666666" stroke="#666666" points="172,-114 172,-114 187,-114 187,-114 172,-114"/>
<polygon fill="#666666" stroke="#666666" points="187,-114 187,-114 326,-114 326,-114 187,-114"/>
<polygon fill="none" stroke="#666666" points="172,-22.5 172,-243.5 326,-243.5 326,-22.5 172,-22.5"/>
</a>
</g>
</g>
<!-- Node1&#45;&gt;Node3 -->
<g id="edge2_Node000001_Node000003" class="edge">
<title>Node1&#45;&gt;Node3</title>
<g id="a_edge2_Node000001_Node000003"><a xlink:title=" ">
<path fill="none" stroke="#63b8ff" d="M249,-291.78C249,-276.82 249,-260.29 249,-243.73"/>
<polygon fill="none" stroke="#63b8ff" points="245.5,-291.87 249,-301.87 252.5,-291.87 245.5,-291.87"/>
</a>
</g>
</g>
<!-- Node4 -->
<g id="Node000004" class="node">
<title>Node4</title>
<g id="a_Node000004"><a xlink:href="../../dc/d31/classpocketmine_1_1network_1_1mcpe_1_1protocol_1_1types_1_1_attribute_value_float.html" target="_top" xlink:title=" ">
<polygon fill="white" stroke="transparent" points="498,-258.5 344,-258.5 344,-7.5 498,-7.5 498,-258.5"/>
<text text-anchor="start" x="369.5" y="-246" font-family="Helvetica,sans-Serif" font-size="10.00">pocketmine\network</text>
<text text-anchor="start" x="369.5" y="-235" font-family="Helvetica,sans-Serif" font-size="10.00">\mcpe\protocol\types</text>
<text text-anchor="start" x="372" y="-224" font-family="Helvetica,sans-Serif" font-size="10.00">\AttributeValueFloat</text>
<text text-anchor="start" x="348" y="-209" font-family="Helvetica,sans-Serif" font-size="10.00">+</text>
<text text-anchor="start" x="361" y="-209" font-family="Helvetica,sans-Serif" font-size="10.00">ID</text>
<text text-anchor="start" x="348" y="-194" font-family="Helvetica,sans-Serif" font-size="10.00">+</text>
<text text-anchor="start" x="361" y="-194" font-family="Helvetica,sans-Serif" font-size="10.00">OPERATION_ADD</text>
<text text-anchor="start" x="348" y="-179" font-family="Helvetica,sans-Serif" font-size="10.00">+</text>
<text text-anchor="start" x="361" y="-179" font-family="Helvetica,sans-Serif" font-size="10.00">OPERATION_ALPHA_BLEND</text>
<text text-anchor="start" x="348" y="-164" font-family="Helvetica,sans-Serif" font-size="10.00">+</text>
<text text-anchor="start" x="361" y="-164" font-family="Helvetica,sans-Serif" font-size="10.00">OPERATION_MAXIMUM</text>
<text text-anchor="start" x="348" y="-149" font-family="Helvetica,sans-Serif" font-size="10.00">+</text>
<text text-anchor="start" x="361" y="-149" font-family="Helvetica,sans-Serif" font-size="10.00">OPERATION_MINIMUM</text>
<text text-anchor="start" x="348" y="-134" font-family="Helvetica,sans-Serif" font-size="10.00">+</text>
<text text-anchor="start" x="361" y="-134" font-family="Helvetica,sans-Serif" font-size="10.00">OPERATION_MULTIPLY</text>
<text text-anchor="start" x="348" y="-119" font-family="Helvetica,sans-Serif" font-size="10.00">+</text>
<text text-anchor="start" x="361" y="-119" font-family="Helvetica,sans-Serif" font-size="10.00">OPERATION_OVERRIDE</text>
<text text-anchor="start" x="348" y="-104" font-family="Helvetica,sans-Serif" font-size="10.00">+</text>
<text text-anchor="start" x="361" y="-104" font-family="Helvetica,sans-Serif" font-size="10.00">OPERATION_SUBTRACT</text>
<text text-anchor="start" x="348" y="-89" font-family="Helvetica,sans-Serif" font-size="10.00">+</text>
<text text-anchor="start" x="361" y="-89" font-family="Helvetica,sans-Serif" font-size="10.00">__construct()</text>
<text text-anchor="start" x="348" y="-74" font-family="Helvetica,sans-Serif" font-size="10.00">+</text>
<text text-anchor="start" x="361" y="-74" font-family="Helvetica,sans-Serif" font-size="10.00">getOperation()</text>
<text text-anchor="start" x="348" y="-59" font-family="Helvetica,sans-Serif" font-size="10.00">+</text>
<text text-anchor="start" x="361" y="-59" font-family="Helvetica,sans-Serif" font-size="10.00">getTypeId()</text>
<text text-anchor="start" x="348" y="-44" font-family="Helvetica,sans-Serif" font-size="10.00">+</text>
<text text-anchor="start" x="361" y="-44" font-family="Helvetica,sans-Serif" font-size="10.00">getValue()</text>
<text text-anchor="start" x="348" y="-29" font-family="Helvetica,sans-Serif" font-size="10.00">+</text>
<text text-anchor="start" x="361" y="-29" font-family="Helvetica,sans-Serif" font-size="10.00">write()</text>
<text text-anchor="start" x="348" y="-14" font-family="Helvetica,sans-Serif" font-size="10.00">+</text>
<text text-anchor="start" x="361" y="-14" font-family="Helvetica,sans-Serif" font-size="10.00">read()</text>
<polygon fill="#666666" stroke="#666666" points="344,-219 344,-219 498,-219 498,-219 344,-219"/>
<polygon fill="#666666" stroke="#666666" points="344,-99 344,-99 359,-99 359,-99 344,-99"/>
<polygon fill="#666666" stroke="#666666" points="359,-99 359,-99 498,-99 498,-99 359,-99"/>
<polygon fill="none" stroke="#666666" points="344,-7.5 344,-258.5 498,-258.5 498,-7.5 344,-7.5"/>
</a>
</g>
</g>
<!-- Node1&#45;&gt;Node4 -->
<g id="edge3_Node000001_Node000004" class="edge">
<title>Node1&#45;&gt;Node4</title>
<g id="a_edge3_Node000001_Node000004"><a xlink:title=" ">
<path fill="none" stroke="#63b8ff" d="M309.75,-294.36C318.55,-285.17 327.24,-275.54 335,-266 337.93,-262.39 340.86,-258.68 343.76,-254.9"/>
<polygon fill="none" stroke="#63b8ff" points="307.15,-292.02 302.69,-301.63 312.17,-296.9 307.15,-292.02"/>
</a>
</g>
</g>
</g>
</svg>
