<?xml version="1.0" encoding="UTF-8" standalone="no"?>
<!DOCTYPE svg PUBLIC "-//W3C//DTD SVG 1.1//EN"
 "http://www.w3.org/Graphics/SVG/1.1/DTD/svg11.dtd">
<!-- Generated by graphviz version 2.43.0 (0)
 -->
<!-- Title: pocketmine\item\Trident Pages: 1 -->
<!--zoomable 1543 -->

<svg id="main" version="1.1" xmlns="http://www.w3.org/2000/svg" xmlns:xlink="http://www.w3.org/1999/xlink" xml:space="preserve" onload="init(evt)">

<style type="text/css"><![CDATA[
.node, .edge {opacity: 0.7;}
.node.selected, .edge.selected {opacity: 1;}
.edge:hover path { stroke: red; }
.edge:hover polygon { stroke: red; fill: red; }
]]></style>

<defs>
  <circle id="rim" cx="0" cy="0" r="7"/>
  <circle id="rim2" cx="0" cy="0" r="3.5"/>
  <g id="zoomPlus">
    <use xlink:href="#rim" fill="#404040"><set attributeName="fill" to="#808080" begin="zoomplus.mouseover" end="zoomplus.mouseout"/></use>
    <path d="M-4,0h8M0,-4v8" fill="none" stroke="white" stroke-width="1.5" pointer-events="none"/>
  </g>
  <g id="zoomMin">
    <use xlink:href="#rim" fill="#404040"><set attributeName="fill" to="#808080" begin="zoomminus.mouseover" end="zoomminus.mouseout"/></use>
    <path d="M-4,0h8" fill="none" stroke="white" stroke-width="1.5" pointer-events="none"/>
  </g>
  <g id="arrowUp" transform="translate(30 24)">
    <use xlink:href="#rim"/>
    <path pointer-events="none" fill="none" stroke="white" stroke-width="1.5" d="M0,-3.0v7 M-2.5,-0.5L0,-3.0L2.5,-0.5"/>
  </g>
  <g id="arrowRight" transform="rotate(90) translate(36 -43)">
    <use xlink:href="#rim"/>
    <path pointer-events="none" fill="none" stroke="white" stroke-width="1.5" d="M0,-3.0v7 M-2.5,-0.5L0,-3.0L2.5,-0.5"/>
  </g>
  <g id="arrowDown" transform="rotate(180) translate(-30 -48)">
    <use xlink:href="#rim"/>
    <path pointer-events="none" fill="none" stroke="white" stroke-width="1.5" d="M0,-3.0v7 M-2.5,-0.5L0,-3.0L2.5,-0.5"/>
  </g>
  <g id="arrowLeft" transform="rotate(270) translate(-36 17)">
    <use xlink:href="#rim"/>
    <path pointer-events="none" fill="none" stroke="white" stroke-width="1.5" d="M0,-3.0v7 M-2.5,-0.5L0,-3.0L2.5,-0.5"/>
  </g>
  <g id="resetDef">
    <use xlink:href="#rim2" fill="#404040"><set attributeName="fill" to="#808080" begin="reset.mouseover" end="reset.mouseout"/></use>
  </g>
</defs>
<script type="application/ecmascript">
var viewWidth = 352;
var viewHeight = 1543;
var sectionId = 'dynsection-1';
</script>
<script type="application/ecmascript" xlink:href="../../svg.min.js"/>
<svg id="graph" class="graph">
<g id="viewport">
<title>pocketmine\item\Trident</title>
<!-- Node1 -->
<g id="Node000001" class="node">
<title>Node1</title>
<g id="a_Node000001"><a xlink:title=" ">
<polygon fill="#999999" stroke="transparent" points="243,-124 114,-124 114,0 243,0 243,-124"/>
<text text-anchor="start" x="119.5" y="-112" font-family="Helvetica,sans-Serif" font-size="10.00">pocketmine\item\Trident</text>
<text text-anchor="start" x="177" y="-97" font-family="Helvetica,sans-Serif" font-size="10.00"> </text>
<text text-anchor="start" x="120.5" y="-82" font-family="Helvetica,sans-Serif" font-size="10.00">+</text>
<text text-anchor="start" x="135.5" y="-82" font-family="Helvetica,sans-Serif" font-size="10.00">canStartUsingItem()</text>
<text text-anchor="start" x="120.5" y="-67" font-family="Helvetica,sans-Serif" font-size="10.00">+</text>
<text text-anchor="start" x="135.5" y="-67" font-family="Helvetica,sans-Serif" font-size="10.00">getAttackPoints()</text>
<text text-anchor="start" x="120.5" y="-52" font-family="Helvetica,sans-Serif" font-size="10.00">+</text>
<text text-anchor="start" x="135.5" y="-52" font-family="Helvetica,sans-Serif" font-size="10.00">getMaxDurability()</text>
<text text-anchor="start" x="120.5" y="-37" font-family="Helvetica,sans-Serif" font-size="10.00">+</text>
<text text-anchor="start" x="135.5" y="-37" font-family="Helvetica,sans-Serif" font-size="10.00">onAttackEntity()</text>
<text text-anchor="start" x="120.5" y="-22" font-family="Helvetica,sans-Serif" font-size="10.00">+</text>
<text text-anchor="start" x="135.5" y="-22" font-family="Helvetica,sans-Serif" font-size="10.00">onDestroyBlock()</text>
<text text-anchor="start" x="120.5" y="-7" font-family="Helvetica,sans-Serif" font-size="10.00">+</text>
<text text-anchor="start" x="135.5" y="-7" font-family="Helvetica,sans-Serif" font-size="10.00">onReleaseUsing()</text>
<polygon fill="#666666" stroke="#666666" points="114.5,-107 114.5,-107 243.5,-107 243.5,-107 114.5,-107"/>
<polygon fill="#666666" stroke="#666666" points="114.5,-92 114.5,-92 243.5,-92 243.5,-92 114.5,-92"/>
<polygon fill="none" stroke="#666666" points="114,0 114,-124 243,-124 243,0 114,0"/>
</a>
</g>
</g>
<!-- Node2 -->
<g id="Node000002" class="node">
<title>Node2</title>
<g id="a_Node000002"><a xlink:href="../../da/de7/classpocketmine_1_1item_1_1_tool.html" target="_top" xlink:title=" ">
<polygon fill="white" stroke="transparent" points="170,-240 21,-240 21,-161 170,-161 170,-240"/>
<text text-anchor="start" x="43" y="-227.5" font-family="Helvetica,sans-Serif" font-size="10.00">pocketmine\item\Tool</text>
<text text-anchor="start" x="94" y="-212.5" font-family="Helvetica,sans-Serif" font-size="10.00"> </text>
<text text-anchor="start" x="25.5" y="-197.5" font-family="Helvetica,sans-Serif" font-size="10.00">+</text>
<text text-anchor="start" x="38.5" y="-197.5" font-family="Helvetica,sans-Serif" font-size="10.00">getMaxStackSize()</text>
<text text-anchor="start" x="25.5" y="-182.5" font-family="Helvetica,sans-Serif" font-size="10.00">+</text>
<text text-anchor="start" x="38.5" y="-182.5" font-family="Helvetica,sans-Serif" font-size="10.00">getMiningEfficiency()</text>
<text text-anchor="start" x="25.5" y="-167.5" font-family="Helvetica,sans-Serif" font-size="10.00">#</text>
<text text-anchor="start" x="38.5" y="-167.5" font-family="Helvetica,sans-Serif" font-size="10.00">getBaseMiningEfficiency()</text>
<polygon fill="#bfbfbf" stroke="#bfbfbf" points="21.5,-222.5 21.5,-222.5 170.5,-222.5 170.5,-222.5 21.5,-222.5"/>
<polygon fill="#bfbfbf" stroke="#bfbfbf" points="21.5,-207.5 21.5,-207.5 170.5,-207.5 170.5,-207.5 21.5,-207.5"/>
<polygon fill="none" stroke="#bfbfbf" points="21,-161 21,-240 170,-240 170,-161 21,-161"/>
</a>
</g>
</g>
<!-- Node2&#45;&gt;Node1 -->
<g id="edge1_Node000001_Node000002" class="edge">
<title>Node2&#45;&gt;Node1</title>
<g id="a_edge1_Node000001_Node000002"><a xlink:title=" ">
<path fill="none" stroke="#63b8ff" d="M124.41,-151.95C129.89,-142.94 135.69,-133.41 141.38,-124.05"/>
<polygon fill="none" stroke="#63b8ff" points="121.27,-150.39 119.06,-160.75 127.25,-154.02 121.27,-150.39"/>
</a>
</g>
</g>
<!-- Node3 -->
<g id="Node000003" class="node">
<title>Node3</title>
<g id="a_Node000003"><a xlink:href="../../dc/d20/classpocketmine_1_1item_1_1_durable.html" target="_top" xlink:title=" ">
<polygon fill="white" stroke="transparent" points="191,-476 0,-476 0,-277 191,-277 191,-476"/>
<text text-anchor="start" x="34" y="-463.5" font-family="Helvetica,sans-Serif" font-size="10.00">pocketmine\item\Durable</text>
<text text-anchor="start" x="4.5" y="-448.5" font-family="Helvetica,sans-Serif" font-size="10.00">#</text>
<text text-anchor="start" x="17.5" y="-448.5" font-family="Helvetica,sans-Serif" font-size="10.00">$damage</text>
<text text-anchor="start" x="4.5" y="-433.5" font-family="Helvetica,sans-Serif" font-size="10.00">+</text>
<text text-anchor="start" x="17.5" y="-433.5" font-family="Helvetica,sans-Serif" font-size="10.00">applyDamage()</text>
<text text-anchor="start" x="4.5" y="-418.5" font-family="Helvetica,sans-Serif" font-size="10.00">+</text>
<text text-anchor="start" x="17.5" y="-418.5" font-family="Helvetica,sans-Serif" font-size="10.00">getDamage()</text>
<text text-anchor="start" x="4.5" y="-403.5" font-family="Helvetica,sans-Serif" font-size="10.00">+</text>
<text text-anchor="start" x="17.5" y="-403.5" font-family="Helvetica,sans-Serif" font-size="10.00">getMaxDurability()</text>
<text text-anchor="start" x="4.5" y="-388.5" font-family="Helvetica,sans-Serif" font-size="10.00">+</text>
<text text-anchor="start" x="17.5" y="-388.5" font-family="Helvetica,sans-Serif" font-size="10.00">isBroken()</text>
<text text-anchor="start" x="4.5" y="-373.5" font-family="Helvetica,sans-Serif" font-size="10.00">+</text>
<text text-anchor="start" x="17.5" y="-373.5" font-family="Helvetica,sans-Serif" font-size="10.00">isUnbreakable()</text>
<text text-anchor="start" x="4.5" y="-358.5" font-family="Helvetica,sans-Serif" font-size="10.00">+</text>
<text text-anchor="start" x="17.5" y="-358.5" font-family="Helvetica,sans-Serif" font-size="10.00">setDamage()</text>
<text text-anchor="start" x="4.5" y="-343.5" font-family="Helvetica,sans-Serif" font-size="10.00">+</text>
<text text-anchor="start" x="17.5" y="-343.5" font-family="Helvetica,sans-Serif" font-size="10.00">setUnbreakable()</text>
<text text-anchor="start" x="4.5" y="-328.5" font-family="Helvetica,sans-Serif" font-size="10.00">#</text>
<text text-anchor="start" x="17.5" y="-328.5" font-family="Helvetica,sans-Serif" font-size="10.00">deserializeCompoundTag()</text>
<text text-anchor="start" x="4.5" y="-313.5" font-family="Helvetica,sans-Serif" font-size="10.00">#</text>
<text text-anchor="start" x="17.5" y="-313.5" font-family="Helvetica,sans-Serif" font-size="10.00">getUnbreakingDamageReduction()</text>
<text text-anchor="start" x="4.5" y="-298.5" font-family="Helvetica,sans-Serif" font-size="10.00">#</text>
<text text-anchor="start" x="17.5" y="-298.5" font-family="Helvetica,sans-Serif" font-size="10.00">onBroken()</text>
<text text-anchor="start" x="4.5" y="-283.5" font-family="Helvetica,sans-Serif" font-size="10.00">#</text>
<text text-anchor="start" x="17.5" y="-283.5" font-family="Helvetica,sans-Serif" font-size="10.00">serializeCompoundTag()</text>
<polygon fill="#bfbfbf" stroke="#bfbfbf" points="0.5,-458.5 0.5,-458.5 191.5,-458.5 191.5,-458.5 0.5,-458.5"/>
<polygon fill="#bfbfbf" stroke="#bfbfbf" points="0.5,-443.5 0.5,-443.5 15.5,-443.5 15.5,-443.5 0.5,-443.5"/>
<polygon fill="#bfbfbf" stroke="#bfbfbf" points="15.5,-443.5 15.5,-443.5 191.5,-443.5 191.5,-443.5 15.5,-443.5"/>
<polygon fill="none" stroke="#bfbfbf" points="0,-277 0,-476 191,-476 191,-277 0,-277"/>
</a>
</g>
</g>
<!-- Node3&#45;&gt;Node2 -->
<g id="edge2_Node000002_Node000003" class="edge">
<title>Node3&#45;&gt;Node2</title>
<g id="a_edge2_Node000002_Node000003"><a xlink:title=" ">
<path fill="none" stroke="#63b8ff" d="M95.5,-266.63C95.5,-257.37 95.5,-248.45 95.5,-240.35"/>
<polygon fill="none" stroke="#63b8ff" points="92,-266.81 95.5,-276.81 99,-266.81 92,-266.81"/>
</a>
</g>
</g>
<!-- Node4 -->
<g id="Node000004" class="node">
<title>Node4</title>
<g id="a_Node000004"><a xlink:href="../../d5/d8a/classpocketmine_1_1item_1_1_item.html" target="_top" xlink:title=" ">
<polygon fill="white" stroke="transparent" points="171,-967 20,-967 20,-513 171,-513 171,-967"/>
<text text-anchor="start" x="41.5" y="-955" font-family="Helvetica,sans-Serif" font-size="10.00">pocketmine\item\Item</text>
<text text-anchor="start" x="24.5" y="-940" font-family="Helvetica,sans-Serif" font-size="10.00">+</text>
<text text-anchor="start" x="37.5" y="-940" font-family="Helvetica,sans-Serif" font-size="10.00">TAG_BLOCK_ENTITY_TAG</text>
<text text-anchor="start" x="24.5" y="-925" font-family="Helvetica,sans-Serif" font-size="10.00">+</text>
<text text-anchor="start" x="37.5" y="-925" font-family="Helvetica,sans-Serif" font-size="10.00">TAG_DISPLAY</text>
<text text-anchor="start" x="24.5" y="-910" font-family="Helvetica,sans-Serif" font-size="10.00">+</text>
<text text-anchor="start" x="37.5" y="-910" font-family="Helvetica,sans-Serif" font-size="10.00">TAG_DISPLAY_LORE</text>
<text text-anchor="start" x="24.5" y="-895" font-family="Helvetica,sans-Serif" font-size="10.00">+</text>
<text text-anchor="start" x="37.5" y="-895" font-family="Helvetica,sans-Serif" font-size="10.00">TAG_DISPLAY_NAME</text>
<text text-anchor="start" x="24.5" y="-880" font-family="Helvetica,sans-Serif" font-size="10.00">+</text>
<text text-anchor="start" x="37.5" y="-880" font-family="Helvetica,sans-Serif" font-size="10.00">TAG_ENCH</text>
<text text-anchor="start" x="24.5" y="-865" font-family="Helvetica,sans-Serif" font-size="10.00">+</text>
<text text-anchor="start" x="37.5" y="-865" font-family="Helvetica,sans-Serif" font-size="10.00">TAG_KEEP_ON_DEATH</text>
<text text-anchor="start" x="24.5" y="-850" font-family="Helvetica,sans-Serif" font-size="10.00">#</text>
<text text-anchor="start" x="37.5" y="-850" font-family="Helvetica,sans-Serif" font-size="10.00">$canDestroy</text>
<text text-anchor="start" x="24.5" y="-835" font-family="Helvetica,sans-Serif" font-size="10.00">#</text>
<text text-anchor="start" x="37.5" y="-835" font-family="Helvetica,sans-Serif" font-size="10.00">$canPlaceOn</text>
<text text-anchor="start" x="24.5" y="-820" font-family="Helvetica,sans-Serif" font-size="10.00">#</text>
<text text-anchor="start" x="37.5" y="-820" font-family="Helvetica,sans-Serif" font-size="10.00">$count</text>
<text text-anchor="start" x="24.5" y="-805" font-family="Helvetica,sans-Serif" font-size="10.00">#</text>
<text text-anchor="start" x="37.5" y="-805" font-family="Helvetica,sans-Serif" font-size="10.00">$customName</text>
<text text-anchor="start" x="24.5" y="-790" font-family="Helvetica,sans-Serif" font-size="10.00">#</text>
<text text-anchor="start" x="37.5" y="-790" font-family="Helvetica,sans-Serif" font-size="10.00">$keepOnDeath</text>
<text text-anchor="start" x="24.5" y="-775" font-family="Helvetica,sans-Serif" font-size="10.00">#</text>
<text text-anchor="start" x="37.5" y="-775" font-family="Helvetica,sans-Serif" font-size="10.00">$lore</text>
<text text-anchor="start" x="24.5" y="-760" font-family="Helvetica,sans-Serif" font-size="10.00">+</text>
<text text-anchor="start" x="37.5" y="-760" font-family="Helvetica,sans-Serif" font-size="10.00">__construct()</text>
<text text-anchor="start" x="24.5" y="-745" font-family="Helvetica,sans-Serif" font-size="10.00">+</text>
<text text-anchor="start" x="37.5" y="-745" font-family="Helvetica,sans-Serif" font-size="10.00">__clone()</text>
<text text-anchor="start" x="24.5" y="-730" font-family="Helvetica,sans-Serif" font-size="10.00">+</text>
<text text-anchor="start" x="37.5" y="-730" font-family="Helvetica,sans-Serif" font-size="10.00">__toString()</text>
<text text-anchor="start" x="24.5" y="-715" font-family="Helvetica,sans-Serif" font-size="10.00">+</text>
<text text-anchor="start" x="37.5" y="-715" font-family="Helvetica,sans-Serif" font-size="10.00">canBePlaced()</text>
<text text-anchor="start" x="24.5" y="-700" font-family="Helvetica,sans-Serif" font-size="10.00">+</text>
<text text-anchor="start" x="37.5" y="-700" font-family="Helvetica,sans-Serif" font-size="10.00">canStackWith()</text>
<text text-anchor="start" x="24.5" y="-685" font-family="Helvetica,sans-Serif" font-size="10.00">+</text>
<text text-anchor="start" x="37.5" y="-685" font-family="Helvetica,sans-Serif" font-size="10.00">clearCustomBlockData()</text>
<text text-anchor="start" x="24.5" y="-670" font-family="Helvetica,sans-Serif" font-size="10.00">+</text>
<text text-anchor="start" x="37.5" y="-670" font-family="Helvetica,sans-Serif" font-size="10.00">clearCustomName()</text>
<text text-anchor="start" x="24.5" y="-655" font-family="Helvetica,sans-Serif" font-size="10.00">+</text>
<text text-anchor="start" x="37.5" y="-655" font-family="Helvetica,sans-Serif" font-size="10.00">clearNamedTag()</text>
<text text-anchor="start" x="24.5" y="-640" font-family="Helvetica,sans-Serif" font-size="10.00">+</text>
<text text-anchor="start" x="37.5" y="-640" font-family="Helvetica,sans-Serif" font-size="10.00">equals()</text>
<text text-anchor="start" x="24.5" y="-625" font-family="Helvetica,sans-Serif" font-size="10.00">+</text>
<text text-anchor="start" x="37.5" y="-625" font-family="Helvetica,sans-Serif" font-size="10.00">equalsExact()</text>
<text text-anchor="start" x="37.5" y="-610" font-family="Helvetica,sans-Serif" font-size="10.00">and 49 more...</text>
<text text-anchor="start" x="24.5" y="-595" font-family="Helvetica,sans-Serif" font-size="10.00">+</text>
<text text-anchor="start" x="37.5" y="-595" font-family="Helvetica,sans-Serif" font-size="10.00">legacyJsonDeserialize()</text>
<text text-anchor="start" x="24.5" y="-580" font-family="Helvetica,sans-Serif" font-size="10.00">+</text>
<text text-anchor="start" x="37.5" y="-580" font-family="Helvetica,sans-Serif" font-size="10.00">nbtDeserialize()</text>
<text text-anchor="start" x="24.5" y="-565" font-family="Helvetica,sans-Serif" font-size="10.00">#</text>
<text text-anchor="start" x="37.5" y="-565" font-family="Helvetica,sans-Serif" font-size="10.00">describeState()</text>
<text text-anchor="start" x="24.5" y="-550" font-family="Helvetica,sans-Serif" font-size="10.00">#</text>
<text text-anchor="start" x="37.5" y="-550" font-family="Helvetica,sans-Serif" font-size="10.00">deserializeCompoundTag()</text>
<text text-anchor="start" x="24.5" y="-535" font-family="Helvetica,sans-Serif" font-size="10.00">#</text>
<text text-anchor="start" x="37.5" y="-535" font-family="Helvetica,sans-Serif" font-size="10.00">serializeCompoundTag()</text>
<text text-anchor="start" x="24.5" y="-520" font-family="Helvetica,sans-Serif" font-size="10.00">#</text>
<text text-anchor="start" x="37.5" y="-520" font-family="Helvetica,sans-Serif" font-size="10.00">tryPlacementTransaction()</text>
<polygon fill="#bfbfbf" stroke="#bfbfbf" points="20.5,-950 20.5,-950 171.5,-950 171.5,-950 20.5,-950"/>
<polygon fill="#bfbfbf" stroke="#bfbfbf" points="20.5,-770 20.5,-770 35.5,-770 35.5,-770 20.5,-770"/>
<polygon fill="#bfbfbf" stroke="#bfbfbf" points="35.5,-770 35.5,-770 171.5,-770 171.5,-770 35.5,-770"/>
<polygon fill="none" stroke="#bfbfbf" points="20,-513 20,-967 171,-967 171,-513 20,-513"/>
</a>
</g>
</g>
<!-- Node4&#45;&gt;Node3 -->
<g id="edge3_Node000003_Node000004" class="edge">
<title>Node4&#45;&gt;Node3</title>
<g id="a_edge3_Node000003_Node000004"><a xlink:title=" ">
<path fill="none" stroke="#63b8ff" d="M95.5,-502.85C95.5,-493.67 95.5,-484.71 95.5,-476.06"/>
<polygon fill="none" stroke="#63b8ff" points="92,-502.88 95.5,-512.88 99,-502.88 92,-502.88"/>
</a>
</g>
</g>
<!-- Node5 -->
<g id="Node000005" class="node">
<title>Node5</title>
<g id="a_Node000005"><a xlink:title=" ">
<polygon fill="white" stroke="transparent" points="123.5,-1181 35.5,-1181 35.5,-1132 123.5,-1132 123.5,-1181"/>
<text text-anchor="start" x="40.5" y="-1168.5" font-family="Helvetica,sans-Serif" font-size="10.00">JsonSerializable</text>
<text text-anchor="start" x="77.5" y="-1153.5" font-family="Helvetica,sans-Serif" font-size="10.00"> </text>
<text text-anchor="start" x="77.5" y="-1138.5" font-family="Helvetica,sans-Serif" font-size="10.00"> </text>
<polygon fill="#bfbfbf" stroke="#bfbfbf" points="35.5,-1163.5 35.5,-1163.5 123.5,-1163.5 123.5,-1163.5 35.5,-1163.5"/>
<polygon fill="#bfbfbf" stroke="#bfbfbf" points="35.5,-1148.5 35.5,-1148.5 123.5,-1148.5 123.5,-1148.5 35.5,-1148.5"/>
<polygon fill="none" stroke="#bfbfbf" points="35.5,-1132 35.5,-1181 123.5,-1181 123.5,-1132 35.5,-1132"/>
</a>
</g>
</g>
<!-- Node5&#45;&gt;Node4 -->
<g id="edge4_Node000004_Node000005" class="edge">
<title>Node5&#45;&gt;Node4</title>
<g id="a_edge4_Node000004_Node000005"><a xlink:title=" ">
<path fill="none" stroke="#63b8ff" d="M80.81,-1121.54C82.17,-1086.23 84.43,-1027.73 86.77,-967.07"/>
<polygon fill="none" stroke="#63b8ff" points="77.31,-1121.6 80.42,-1131.73 84.3,-1121.87 77.31,-1121.6"/>
</a>
</g>
</g>
<!-- Node6 -->
<g id="Node000006" class="node">
<title>Node6</title>
<g id="a_Node000006"><a xlink:href="../../de/d67/classpocketmine_1_1nbt_1_1tag_1_1_compound_tag.html" target="_top" xlink:title=" ">
<polygon fill="white" stroke="transparent" points="255.5,-1299 141.5,-1299 141.5,-1014 255.5,-1014 255.5,-1299"/>
<text text-anchor="start" x="151" y="-1286.5" font-family="Helvetica,sans-Serif" font-size="10.00">pocketmine\nbt\tag</text>
<text text-anchor="start" x="162" y="-1275.5" font-family="Helvetica,sans-Serif" font-size="10.00">\CompoundTag</text>
<text text-anchor="start" x="196.5" y="-1260.5" font-family="Helvetica,sans-Serif" font-size="10.00"> </text>
<text text-anchor="start" x="145.5" y="-1245.5" font-family="Helvetica,sans-Serif" font-size="10.00">+</text>
<text text-anchor="start" x="158.5" y="-1245.5" font-family="Helvetica,sans-Serif" font-size="10.00">__construct()</text>
<text text-anchor="start" x="145.5" y="-1230.5" font-family="Helvetica,sans-Serif" font-size="10.00">+</text>
<text text-anchor="start" x="158.5" y="-1230.5" font-family="Helvetica,sans-Serif" font-size="10.00">__clone()</text>
<text text-anchor="start" x="145.5" y="-1215.5" font-family="Helvetica,sans-Serif" font-size="10.00">+</text>
<text text-anchor="start" x="158.5" y="-1215.5" font-family="Helvetica,sans-Serif" font-size="10.00">count()</text>
<text text-anchor="start" x="145.5" y="-1200.5" font-family="Helvetica,sans-Serif" font-size="10.00">+</text>
<text text-anchor="start" x="158.5" y="-1200.5" font-family="Helvetica,sans-Serif" font-size="10.00">equals()</text>
<text text-anchor="start" x="145.5" y="-1185.5" font-family="Helvetica,sans-Serif" font-size="10.00">+</text>
<text text-anchor="start" x="158.5" y="-1185.5" font-family="Helvetica,sans-Serif" font-size="10.00">getByte()</text>
<text text-anchor="start" x="145.5" y="-1170.5" font-family="Helvetica,sans-Serif" font-size="10.00">+</text>
<text text-anchor="start" x="158.5" y="-1170.5" font-family="Helvetica,sans-Serif" font-size="10.00">getByteArray()</text>
<text text-anchor="start" x="145.5" y="-1155.5" font-family="Helvetica,sans-Serif" font-size="10.00">+</text>
<text text-anchor="start" x="158.5" y="-1155.5" font-family="Helvetica,sans-Serif" font-size="10.00">getCompoundTag()</text>
<text text-anchor="start" x="145.5" y="-1140.5" font-family="Helvetica,sans-Serif" font-size="10.00">+</text>
<text text-anchor="start" x="158.5" y="-1140.5" font-family="Helvetica,sans-Serif" font-size="10.00">getCount()</text>
<text text-anchor="start" x="145.5" y="-1125.5" font-family="Helvetica,sans-Serif" font-size="10.00">+</text>
<text text-anchor="start" x="158.5" y="-1125.5" font-family="Helvetica,sans-Serif" font-size="10.00">getDouble()</text>
<text text-anchor="start" x="145.5" y="-1110.5" font-family="Helvetica,sans-Serif" font-size="10.00">+</text>
<text text-anchor="start" x="158.5" y="-1110.5" font-family="Helvetica,sans-Serif" font-size="10.00">getFloat()</text>
<text text-anchor="start" x="158.5" y="-1095.5" font-family="Helvetica,sans-Serif" font-size="10.00">and 23 more...</text>
<text text-anchor="start" x="145.5" y="-1080.5" font-family="Helvetica,sans-Serif" font-size="10.00">+</text>
<text text-anchor="start" x="158.5" y="-1080.5" font-family="Helvetica,sans-Serif" font-size="10.00">create()</text>
<text text-anchor="start" x="145.5" y="-1065.5" font-family="Helvetica,sans-Serif" font-size="10.00">+</text>
<text text-anchor="start" x="158.5" y="-1065.5" font-family="Helvetica,sans-Serif" font-size="10.00">read()</text>
<text text-anchor="start" x="145.5" y="-1050.5" font-family="Helvetica,sans-Serif" font-size="10.00">#</text>
<text text-anchor="start" x="158.5" y="-1050.5" font-family="Helvetica,sans-Serif" font-size="10.00">getTypeName()</text>
<text text-anchor="start" x="145.5" y="-1035.5" font-family="Helvetica,sans-Serif" font-size="10.00">#</text>
<text text-anchor="start" x="158.5" y="-1035.5" font-family="Helvetica,sans-Serif" font-size="10.00">makeCopy()</text>
<text text-anchor="start" x="145.5" y="-1020.5" font-family="Helvetica,sans-Serif" font-size="10.00">#</text>
<text text-anchor="start" x="158.5" y="-1020.5" font-family="Helvetica,sans-Serif" font-size="10.00">stringifyValue()</text>
<polygon fill="#666666" stroke="#666666" points="141.5,-1270.5 141.5,-1270.5 255.5,-1270.5 255.5,-1270.5 141.5,-1270.5"/>
<polygon fill="#666666" stroke="#666666" points="141.5,-1255.5 141.5,-1255.5 255.5,-1255.5 255.5,-1255.5 141.5,-1255.5"/>
<polygon fill="none" stroke="#666666" points="141.5,-1014 141.5,-1299 255.5,-1299 255.5,-1014 141.5,-1014"/>
</a>
</g>
</g>
<!-- Node6&#45;&gt;Node4 -->
<g id="edge5_Node000004_Node000006" class="edge">
<title>Node6&#45;&gt;Node4</title>
<g id="a_edge5_Node000004_Node000006"><a xlink:title=" ">
<path fill="none" stroke="#63b8ff" d="M163.27,-1013.72C160.45,-1002.38 157.56,-990.75 154.64,-978.98"/>
<polygon fill="none" stroke="#63b8ff" points="154.6,-978.82 149.27,-973.96 151.7,-967.17 157.03,-972.03 154.6,-978.82"/>
</a>
</g>
<text text-anchor="middle" x="201" y="-988" font-family="Helvetica,sans-Serif" font-size="10.00" fill="grey"> #$blockEntityTag</text>
</g>
<!-- Node7 -->
<g id="Node000007" class="node">
<title>Node7</title>
<g id="a_Node000007"><a xlink:href="../../dc/d26/classpocketmine_1_1nbt_1_1tag_1_1_tag.html" target="_top" xlink:title=" ">
<polygon fill="white" stroke="transparent" points="150,-1535 25,-1535 25,-1336 150,-1336 150,-1535"/>
<text text-anchor="start" x="30.5" y="-1522.5" font-family="Helvetica,sans-Serif" font-size="10.00">pocketmine\nbt\tag\Tag</text>
<text text-anchor="start" x="33.5" y="-1507.5" font-family="Helvetica,sans-Serif" font-size="10.00">#</text>
<text text-anchor="start" x="50.5" y="-1507.5" font-family="Helvetica,sans-Serif" font-size="10.00">$cloning</text>
<text text-anchor="start" x="33.5" y="-1492.5" font-family="Helvetica,sans-Serif" font-size="10.00">+</text>
<text text-anchor="start" x="50.5" y="-1492.5" font-family="Helvetica,sans-Serif" font-size="10.00">__toString()</text>
<text text-anchor="start" x="33.5" y="-1477.5" font-family="Helvetica,sans-Serif" font-size="10.00">+</text>
<text text-anchor="start" x="50.5" y="-1477.5" font-family="Helvetica,sans-Serif" font-size="10.00">equals()</text>
<text text-anchor="start" x="33.5" y="-1462.5" font-family="Helvetica,sans-Serif" font-size="10.00">+</text>
<text text-anchor="start" x="50.5" y="-1462.5" font-family="Helvetica,sans-Serif" font-size="10.00">getType()</text>
<text text-anchor="start" x="33.5" y="-1447.5" font-family="Helvetica,sans-Serif" font-size="10.00">+</text>
<text text-anchor="start" x="50.5" y="-1447.5" font-family="Helvetica,sans-Serif" font-size="10.00">getValue()</text>
<text text-anchor="start" x="33.5" y="-1432.5" font-family="Helvetica,sans-Serif" font-size="10.00">+</text>
<text text-anchor="start" x="50.5" y="-1432.5" font-family="Helvetica,sans-Serif" font-size="10.00">safeClone()</text>
<text text-anchor="start" x="33.5" y="-1417.5" font-family="Helvetica,sans-Serif" font-size="10.00">+</text>
<text text-anchor="start" x="50.5" y="-1417.5" font-family="Helvetica,sans-Serif" font-size="10.00">toString()</text>
<text text-anchor="start" x="33.5" y="-1402.5" font-family="Helvetica,sans-Serif" font-size="10.00">+</text>
<text text-anchor="start" x="50.5" y="-1402.5" font-family="Helvetica,sans-Serif" font-size="10.00">write()</text>
<text text-anchor="start" x="33.5" y="-1387.5" font-family="Helvetica,sans-Serif" font-size="10.00">#</text>
<text text-anchor="start" x="50.5" y="-1387.5" font-family="Helvetica,sans-Serif" font-size="10.00">getTypeName()</text>
<text text-anchor="start" x="33.5" y="-1372.5" font-family="Helvetica,sans-Serif" font-size="10.00">#</text>
<text text-anchor="start" x="50.5" y="-1372.5" font-family="Helvetica,sans-Serif" font-size="10.00">makeCopy()</text>
<text text-anchor="start" x="33.5" y="-1357.5" font-family="Helvetica,sans-Serif" font-size="10.00">#</text>
<text text-anchor="start" x="50.5" y="-1357.5" font-family="Helvetica,sans-Serif" font-size="10.00">stringifyValue()</text>
<text text-anchor="start" x="33.5" y="-1342.5" font-family="Helvetica,sans-Serif" font-size="10.00">#</text>
<text text-anchor="start" x="50.5" y="-1342.5" font-family="Helvetica,sans-Serif" font-size="10.00">restrictArgCount()</text>
<polygon fill="#bfbfbf" stroke="#bfbfbf" points="25.5,-1517.5 25.5,-1517.5 150.5,-1517.5 150.5,-1517.5 25.5,-1517.5"/>
<polygon fill="#bfbfbf" stroke="#bfbfbf" points="25.5,-1502.5 25.5,-1502.5 48.5,-1502.5 48.5,-1502.5 25.5,-1502.5"/>
<polygon fill="#bfbfbf" stroke="#bfbfbf" points="48.5,-1502.5 48.5,-1502.5 150.5,-1502.5 150.5,-1502.5 48.5,-1502.5"/>
<polygon fill="none" stroke="#bfbfbf" points="25,-1336 25,-1535 150,-1535 150,-1336 25,-1336"/>
</a>
</g>
</g>
<!-- Node7&#45;&gt;Node6 -->
<g id="edge6_Node000006_Node000007" class="edge">
<title>Node7&#45;&gt;Node6</title>
<g id="a_edge6_Node000006_Node000007"><a xlink:title=" ">
<path fill="none" stroke="#63b8ff" d="M130.91,-1326.18C134.44,-1317.36 138.04,-1308.38 141.65,-1299.37"/>
<polygon fill="none" stroke="#63b8ff" points="127.57,-1325.09 127.1,-1335.67 134.07,-1327.69 127.57,-1325.09"/>
</a>
</g>
</g>
<!-- Node8 -->
<g id="Node000008" class="node">
<title>Node8</title>
<g id="a_Node000008"><a xlink:title=" ">
<polygon fill="white" stroke="transparent" points="228.5,-1460 168.5,-1460 168.5,-1411 228.5,-1411 228.5,-1460"/>
<text text-anchor="start" x="173.5" y="-1447.5" font-family="Helvetica,sans-Serif" font-size="10.00">Countable</text>
<text text-anchor="start" x="196.5" y="-1432.5" font-family="Helvetica,sans-Serif" font-size="10.00"> </text>
<text text-anchor="start" x="196.5" y="-1417.5" font-family="Helvetica,sans-Serif" font-size="10.00"> </text>
<polygon fill="#bfbfbf" stroke="#bfbfbf" points="168.5,-1442.5 168.5,-1442.5 228.5,-1442.5 228.5,-1442.5 168.5,-1442.5"/>
<polygon fill="#bfbfbf" stroke="#bfbfbf" points="168.5,-1427.5 168.5,-1427.5 228.5,-1427.5 228.5,-1427.5 168.5,-1427.5"/>
<polygon fill="none" stroke="#bfbfbf" points="168.5,-1411 168.5,-1460 228.5,-1460 228.5,-1411 168.5,-1411"/>
</a>
</g>
</g>
<!-- Node8&#45;&gt;Node6 -->
<g id="edge7_Node000006_Node000008" class="edge">
<title>Node8&#45;&gt;Node6</title>
<g id="a_edge7_Node000006_Node000008"><a xlink:title=" ">
<path fill="none" stroke="#63b8ff" d="M198.5,-1400.88C198.5,-1374.99 198.5,-1337.3 198.5,-1299.28"/>
<polygon fill="none" stroke="#63b8ff" points="195,-1400.88 198.5,-1410.88 202,-1400.88 195,-1400.88"/>
</a>
</g>
</g>
<!-- Node9 -->
<g id="Node000009" class="node">
<title>Node9</title>
<g id="a_Node000009"><a xlink:title=" ">
<polygon fill="white" stroke="transparent" points="344,-1460 247,-1460 247,-1411 344,-1411 344,-1460"/>
<text text-anchor="start" x="252.5" y="-1447.5" font-family="Helvetica,sans-Serif" font-size="10.00">IteratorAggregate</text>
<text text-anchor="start" x="294" y="-1432.5" font-family="Helvetica,sans-Serif" font-size="10.00"> </text>
<text text-anchor="start" x="294" y="-1417.5" font-family="Helvetica,sans-Serif" font-size="10.00"> </text>
<polygon fill="#bfbfbf" stroke="#bfbfbf" points="247.5,-1442.5 247.5,-1442.5 344.5,-1442.5 344.5,-1442.5 247.5,-1442.5"/>
<polygon fill="#bfbfbf" stroke="#bfbfbf" points="247.5,-1427.5 247.5,-1427.5 344.5,-1427.5 344.5,-1427.5 247.5,-1427.5"/>
<polygon fill="none" stroke="#bfbfbf" points="247,-1411 247,-1460 344,-1460 344,-1411 247,-1411"/>
</a>
</g>
</g>
<!-- Node9&#45;&gt;Node6 -->
<g id="edge8_Node000006_Node000009" class="edge">
<title>Node9&#45;&gt;Node6</title>
<g id="a_edge8_Node000006_Node000009"><a xlink:title=" ">
<path fill="none" stroke="#63b8ff" d="M283.85,-1401.23C274.78,-1375.33 261.52,-1337.47 248.15,-1299.28"/>
<polygon fill="none" stroke="#63b8ff" points="280.62,-1402.6 287.23,-1410.88 287.23,-1400.29 280.62,-1402.6"/>
</a>
</g>
</g>
<!-- Node10 -->
<g id="Node000010" class="node">
<title>Node10</title>
<g id="a_Node000010"><a xlink:href="../../d4/d35/interfacepocketmine_1_1item_1_1_releasable.html" target="_top" xlink:title=" ">
<polygon fill="white" stroke="transparent" points="337.5,-225 187.5,-225 187.5,-176 337.5,-176 337.5,-225"/>
<text text-anchor="start" x="192.5" y="-212.5" font-family="Helvetica,sans-Serif" font-size="10.00">pocketmine\item\Releasable</text>
<text text-anchor="start" x="260.5" y="-197.5" font-family="Helvetica,sans-Serif" font-size="10.00"> </text>
<text text-anchor="start" x="199" y="-182.5" font-family="Helvetica,sans-Serif" font-size="10.00">+</text>
<text text-anchor="start" x="219.5" y="-182.5" font-family="Helvetica,sans-Serif" font-size="10.00">canStartUsingItem()</text>
<polygon fill="#666666" stroke="#666666" points="187.5,-207.5 187.5,-207.5 337.5,-207.5 337.5,-207.5 187.5,-207.5"/>
<polygon fill="#666666" stroke="#666666" points="187.5,-192.5 187.5,-192.5 337.5,-192.5 337.5,-192.5 187.5,-192.5"/>
<polygon fill="none" stroke="#666666" points="187.5,-176 187.5,-225 337.5,-225 337.5,-176 187.5,-176"/>
</a>
</g>
</g>
<!-- Node10&#45;&gt;Node1 -->
<g id="edge9_Node000001_Node000010" class="edge">
<title>Node10&#45;&gt;Node1</title>
<g id="a_edge9_Node000001_Node000010"><a xlink:title=" ">
<path fill="none" stroke="#63b8ff" d="M242.62,-167.19C234.66,-154.26 225.22,-138.92 216.06,-124.04"/>
<polygon fill="none" stroke="#63b8ff" points="239.65,-169.04 247.87,-175.72 245.61,-165.37 239.65,-169.04"/>
</a>
</g>
</g>
</g>
</svg>

<g id="navigator" transform="translate(0 0)" fill="#404254">
  <rect fill="#f2f5e9" fill-opacity="0.5" stroke="#606060" stroke-width=".5" x="0" y="0" width="60" height="60"/>
  <use id="zoomplus" xlink:href="#zoomPlus" x="17" y="9" onmousedown="handleZoom(evt,'in')"/>
  <use id="zoomminus" xlink:href="#zoomMin" x="42" y="9" onmousedown="handleZoom(evt,'out')"/>
  <use id="reset" xlink:href="#resetDef" x="30" y="36" onmousedown="handleReset()"/>
   <use id="arrowup" xlink:href="#arrowUp" x="0" y="0" onmousedown="handlePan(0,-1)"/>
  <use id="arrowright" xlink:href="#arrowRight" x="0" y="0" onmousedown="handlePan(1,0)"/>
  <use id="arrowdown" xlink:href="#arrowDown" x="0" y="0" onmousedown="handlePan(0,1)"/>
  <use id="arrowleft" xlink:href="#arrowLeft" x="0" y="0" onmousedown="handlePan(-1,0)"/>
</g>
<svg viewBox="0 0 15 15" width="100%" height="30px" preserveAspectRatio="xMaxYMin meet">
 <g id="arrow_out" transform="scale(0.3 0.3)">
  <a xlink:href="classpocketmine_1_1item_1_1_trident__coll__graph_org.svg" target="_base">
   <rect id="button" ry="5" rx="5" y="6" x="6" height="38" width="38"
        fill="#f2f5e9" fill-opacity="0.5" stroke="#606060" stroke-width="1.0"/>
   <path id="arrow"
     d="M 11.500037,31.436501 C 11.940474,20.09759 22.043105,11.32322 32.158766,21.979434 L 37.068811,17.246167 C 37.068811,17.246167 37.088388,32 37.088388,32 L 22.160133,31.978069 C 22.160133,31.978069 26.997745,27.140456 26.997745,27.140456 C 18.528582,18.264221 13.291696,25.230495 11.500037,31.436501 z"
     style="fill:#404040;"/>
  </a>
 </g>
</svg>

<style type='text/css'>
<![CDATA[
[data-mouse-over-selected='false'] { opacity: 0.7; }
[data-mouse-over-selected='true']  { opacity: 1.0; }
]]>
</style>
<script type="application/ecmascript"><![CDATA[
document.addEventListener('DOMContentLoaded', (event) => {
  highlightEdges();
  highlightAdjacentNodes();
});
]]></script>
</svg>
