<?xml version="1.0" encoding="UTF-8" standalone="no"?>
<!DOCTYPE svg PUBLIC "-//W3C//DTD SVG 1.1//EN"
 "http://www.w3.org/Graphics/SVG/1.1/DTD/svg11.dtd">
<!-- Generated by graphviz version 2.43.0 (0)
 -->
<!-- Title: pocketmine\block\WallSign Pages: 1 -->
<svg width="387pt" height="848pt"
 viewBox="0.00 0.00 387.00 848.00" xmlns="http://www.w3.org/2000/svg" xmlns:xlink="http://www.w3.org/1999/xlink">
<g id="graph0" class="graph" transform="scale(1 1) rotate(0) translate(4 844)">
<title>pocketmine\block\WallSign</title>
<!-- Node1 -->
<g id="Node000001" class="node">
<title>Node1</title>
<g id="a_Node000001"><a xlink:title=" ">
<polygon fill="#999999" stroke="transparent" points="311.5,-64 169.5,-64 169.5,0 311.5,0 311.5,-64"/>
<text text-anchor="start" x="174.5" y="-52" font-family="Helvetica,sans-Serif" font-size="10.00">pocketmine\block\WallSign</text>
<text text-anchor="start" x="238.5" y="-37" font-family="Helvetica,sans-Serif" font-size="10.00"> </text>
<text text-anchor="start" x="179" y="-22" font-family="Helvetica,sans-Serif" font-size="10.00">+</text>
<text text-anchor="start" x="197.5" y="-22" font-family="Helvetica,sans-Serif" font-size="10.00">place()</text>
<text text-anchor="start" x="179" y="-7" font-family="Helvetica,sans-Serif" font-size="10.00">#</text>
<text text-anchor="start" x="197.5" y="-7" font-family="Helvetica,sans-Serif" font-size="10.00">getSupportingFace()</text>
<polygon fill="#666666" stroke="#666666" points="169.5,-47 169.5,-47 311.5,-47 311.5,-47 169.5,-47"/>
<polygon fill="#666666" stroke="#666666" points="169.5,-32 169.5,-32 311.5,-32 311.5,-32 169.5,-32"/>
<polygon fill="none" stroke="#666666" points="169.5,0 169.5,-64 311.5,-64 311.5,0 169.5,0"/>
</a>
</g>
</g>
<!-- Node2 -->
<g id="Node000002" class="node">
<title>Node2</title>
<g id="a_Node000002"><a xlink:href="../../df/d0b/classpocketmine_1_1block_1_1_base_sign.html" target="_top" xlink:title=" ">
<polygon fill="white" stroke="transparent" points="239.5,-344 85.5,-344 85.5,-100 239.5,-100 239.5,-344"/>
<text text-anchor="start" x="95" y="-332" font-family="Helvetica,sans-Serif" font-size="10.00">pocketmine\block\BaseSign</text>
<text text-anchor="start" x="89.5" y="-317" font-family="Helvetica,sans-Serif" font-size="10.00">#</text>
<text text-anchor="start" x="102.5" y="-317" font-family="Helvetica,sans-Serif" font-size="10.00">$editorEntityRuntimeId</text>
<text text-anchor="start" x="89.5" y="-302" font-family="Helvetica,sans-Serif" font-size="10.00">#</text>
<text text-anchor="start" x="102.5" y="-302" font-family="Helvetica,sans-Serif" font-size="10.00">$text</text>
<text text-anchor="start" x="89.5" y="-287" font-family="Helvetica,sans-Serif" font-size="10.00">+</text>
<text text-anchor="start" x="102.5" y="-287" font-family="Helvetica,sans-Serif" font-size="10.00">__construct()</text>
<text text-anchor="start" x="89.5" y="-272" font-family="Helvetica,sans-Serif" font-size="10.00">+</text>
<text text-anchor="start" x="102.5" y="-272" font-family="Helvetica,sans-Serif" font-size="10.00">asItem()</text>
<text text-anchor="start" x="89.5" y="-257" font-family="Helvetica,sans-Serif" font-size="10.00">+</text>
<text text-anchor="start" x="102.5" y="-257" font-family="Helvetica,sans-Serif" font-size="10.00">getEditorEntityRuntimeId()</text>
<text text-anchor="start" x="89.5" y="-242" font-family="Helvetica,sans-Serif" font-size="10.00">+</text>
<text text-anchor="start" x="102.5" y="-242" font-family="Helvetica,sans-Serif" font-size="10.00">getFuelTime()</text>
<text text-anchor="start" x="89.5" y="-227" font-family="Helvetica,sans-Serif" font-size="10.00">+</text>
<text text-anchor="start" x="102.5" y="-227" font-family="Helvetica,sans-Serif" font-size="10.00">getMaxStackSize()</text>
<text text-anchor="start" x="89.5" y="-212" font-family="Helvetica,sans-Serif" font-size="10.00">+</text>
<text text-anchor="start" x="102.5" y="-212" font-family="Helvetica,sans-Serif" font-size="10.00">getSupportType()</text>
<text text-anchor="start" x="89.5" y="-197" font-family="Helvetica,sans-Serif" font-size="10.00">+</text>
<text text-anchor="start" x="102.5" y="-197" font-family="Helvetica,sans-Serif" font-size="10.00">getText()</text>
<text text-anchor="start" x="89.5" y="-182" font-family="Helvetica,sans-Serif" font-size="10.00">+</text>
<text text-anchor="start" x="102.5" y="-182" font-family="Helvetica,sans-Serif" font-size="10.00">isSolid()</text>
<text text-anchor="start" x="89.5" y="-167" font-family="Helvetica,sans-Serif" font-size="10.00">+</text>
<text text-anchor="start" x="102.5" y="-167" font-family="Helvetica,sans-Serif" font-size="10.00">isWaxed()</text>
<text text-anchor="start" x="89.5" y="-152" font-family="Helvetica,sans-Serif" font-size="10.00">+</text>
<text text-anchor="start" x="102.5" y="-152" font-family="Helvetica,sans-Serif" font-size="10.00">onInteract()</text>
<text text-anchor="start" x="102.5" y="-137" font-family="Helvetica,sans-Serif" font-size="10.00">and 9 more...</text>
<text text-anchor="start" x="89.5" y="-122" font-family="Helvetica,sans-Serif" font-size="10.00">#</text>
<text text-anchor="start" x="102.5" y="-122" font-family="Helvetica,sans-Serif" font-size="10.00">getSupportingFace()</text>
<text text-anchor="start" x="89.5" y="-107" font-family="Helvetica,sans-Serif" font-size="10.00">#</text>
<text text-anchor="start" x="102.5" y="-107" font-family="Helvetica,sans-Serif" font-size="10.00">recalculateCollisionBoxes()</text>
<polygon fill="#bfbfbf" stroke="#bfbfbf" points="85.5,-327 85.5,-327 239.5,-327 239.5,-327 85.5,-327"/>
<polygon fill="#bfbfbf" stroke="#bfbfbf" points="85.5,-297 85.5,-297 100.5,-297 100.5,-297 85.5,-297"/>
<polygon fill="#bfbfbf" stroke="#bfbfbf" points="100.5,-297 100.5,-297 239.5,-297 239.5,-297 100.5,-297"/>
<polygon fill="none" stroke="#bfbfbf" points="85.5,-100 85.5,-344 239.5,-344 239.5,-100 85.5,-100"/>
</a>
</g>
</g>
<!-- Node2&#45;&gt;Node1 -->
<g id="edge1_Node000001_Node000002" class="edge">
<title>Node2&#45;&gt;Node1</title>
<g id="a_edge1_Node000001_Node000002"><a xlink:title=" ">
<path fill="none" stroke="#63b8ff" d="M216.66,-90.46C220.63,-80.89 224.36,-71.91 227.63,-64.03"/>
<polygon fill="none" stroke="#63b8ff" points="213.38,-89.23 212.78,-99.81 219.85,-91.92 213.38,-89.23"/>
</a>
</g>
</g>
<!-- Node3 -->
<g id="Node000003" class="node">
<title>Node3</title>
<g id="a_Node000003"><a xlink:href="../../d5/d1b/classpocketmine_1_1block_1_1_transparent.html" target="_top" xlink:title=" ">
<polygon fill="white" stroke="transparent" points="163,-434.5 6,-434.5 6,-385.5 163,-385.5 163,-434.5"/>
<text text-anchor="start" x="11.5" y="-422" font-family="Helvetica,sans-Serif" font-size="10.00">pocketmine\block\Transparent</text>
<text text-anchor="start" x="83" y="-407" font-family="Helvetica,sans-Serif" font-size="10.00"> </text>
<text text-anchor="start" x="26" y="-392" font-family="Helvetica,sans-Serif" font-size="10.00">+</text>
<text text-anchor="start" x="54.5" y="-392" font-family="Helvetica,sans-Serif" font-size="10.00">isTransparent()</text>
<polygon fill="#666666" stroke="#666666" points="6.5,-417 6.5,-417 163.5,-417 163.5,-417 6.5,-417"/>
<polygon fill="#666666" stroke="#666666" points="6.5,-402 6.5,-402 163.5,-402 163.5,-402 6.5,-402"/>
<polygon fill="none" stroke="#666666" points="6,-385.5 6,-434.5 163,-434.5 163,-385.5 6,-385.5"/>
</a>
</g>
</g>
<!-- Node3&#45;&gt;Node2 -->
<g id="edge2_Node000002_Node000003" class="edge">
<title>Node3&#45;&gt;Node2</title>
<g id="a_edge2_Node000002_Node000003"><a xlink:title=" ">
<path fill="none" stroke="#63b8ff" d="M98.27,-376.15C102.24,-366.71 106.81,-355.8 111.65,-344.26"/>
<polygon fill="none" stroke="#63b8ff" points="95.02,-374.87 94.38,-385.44 101.47,-377.57 95.02,-374.87"/>
</a>
</g>
</g>
<!-- Node4 -->
<g id="Node000004" class="node">
<title>Node4</title>
<g id="a_Node000004"><a xlink:href="../../d7/d27/classpocketmine_1_1block_1_1_block.html" target="_top" xlink:title=" ">
<polygon fill="white" stroke="transparent" points="169,-840 0,-840 0,-476 169,-476 169,-840"/>
<text text-anchor="start" x="26.5" y="-828" font-family="Helvetica,sans-Serif" font-size="10.00">pocketmine\block\Block</text>
<text text-anchor="start" x="4.5" y="-813" font-family="Helvetica,sans-Serif" font-size="10.00">+</text>
<text text-anchor="start" x="17.5" y="-813" font-family="Helvetica,sans-Serif" font-size="10.00">EMPTY_STATE_ID</text>
<text text-anchor="start" x="4.5" y="-798" font-family="Helvetica,sans-Serif" font-size="10.00">+</text>
<text text-anchor="start" x="17.5" y="-798" font-family="Helvetica,sans-Serif" font-size="10.00">INTERNAL_STATE_DATA_BITS</text>
<text text-anchor="start" x="4.5" y="-783" font-family="Helvetica,sans-Serif" font-size="10.00">+</text>
<text text-anchor="start" x="17.5" y="-783" font-family="Helvetica,sans-Serif" font-size="10.00">INTERNAL_STATE_DATA_MASK</text>
<text text-anchor="start" x="4.5" y="-768" font-family="Helvetica,sans-Serif" font-size="10.00">#</text>
<text text-anchor="start" x="17.5" y="-768" font-family="Helvetica,sans-Serif" font-size="10.00">$collisionBoxes</text>
<text text-anchor="start" x="4.5" y="-753" font-family="Helvetica,sans-Serif" font-size="10.00">#</text>
<text text-anchor="start" x="17.5" y="-753" font-family="Helvetica,sans-Serif" font-size="10.00">$fallbackName</text>
<text text-anchor="start" x="4.5" y="-738" font-family="Helvetica,sans-Serif" font-size="10.00">#</text>
<text text-anchor="start" x="17.5" y="-738" font-family="Helvetica,sans-Serif" font-size="10.00">$idInfo</text>
<text text-anchor="start" x="4.5" y="-723" font-family="Helvetica,sans-Serif" font-size="10.00">#</text>
<text text-anchor="start" x="17.5" y="-723" font-family="Helvetica,sans-Serif" font-size="10.00">$position</text>
<text text-anchor="start" x="4.5" y="-708" font-family="Helvetica,sans-Serif" font-size="10.00">#</text>
<text text-anchor="start" x="17.5" y="-708" font-family="Helvetica,sans-Serif" font-size="10.00">$typeInfo</text>
<text text-anchor="start" x="4.5" y="-693" font-family="Helvetica,sans-Serif" font-size="10.00">+</text>
<text text-anchor="start" x="17.5" y="-693" font-family="Helvetica,sans-Serif" font-size="10.00">__construct()</text>
<text text-anchor="start" x="4.5" y="-678" font-family="Helvetica,sans-Serif" font-size="10.00">+</text>
<text text-anchor="start" x="17.5" y="-678" font-family="Helvetica,sans-Serif" font-size="10.00">__clone()</text>
<text text-anchor="start" x="4.5" y="-663" font-family="Helvetica,sans-Serif" font-size="10.00">+</text>
<text text-anchor="start" x="17.5" y="-663" font-family="Helvetica,sans-Serif" font-size="10.00">__toString()</text>
<text text-anchor="start" x="4.5" y="-648" font-family="Helvetica,sans-Serif" font-size="10.00">+</text>
<text text-anchor="start" x="17.5" y="-648" font-family="Helvetica,sans-Serif" font-size="10.00">addVelocityToEntity()</text>
<text text-anchor="start" x="4.5" y="-633" font-family="Helvetica,sans-Serif" font-size="10.00">+</text>
<text text-anchor="start" x="17.5" y="-633" font-family="Helvetica,sans-Serif" font-size="10.00">asItem()</text>
<text text-anchor="start" x="4.5" y="-618" font-family="Helvetica,sans-Serif" font-size="10.00">+</text>
<text text-anchor="start" x="17.5" y="-618" font-family="Helvetica,sans-Serif" font-size="10.00">blocksDirectSkyLight()</text>
<text text-anchor="start" x="4.5" y="-603" font-family="Helvetica,sans-Serif" font-size="10.00">+</text>
<text text-anchor="start" x="17.5" y="-603" font-family="Helvetica,sans-Serif" font-size="10.00">burnsForever()</text>
<text text-anchor="start" x="4.5" y="-588" font-family="Helvetica,sans-Serif" font-size="10.00">+</text>
<text text-anchor="start" x="17.5" y="-588" font-family="Helvetica,sans-Serif" font-size="10.00">calculateIntercept()</text>
<text text-anchor="start" x="4.5" y="-573" font-family="Helvetica,sans-Serif" font-size="10.00">+</text>
<text text-anchor="start" x="17.5" y="-573" font-family="Helvetica,sans-Serif" font-size="10.00">canBeFlowedInto()</text>
<text text-anchor="start" x="4.5" y="-558" font-family="Helvetica,sans-Serif" font-size="10.00">+</text>
<text text-anchor="start" x="17.5" y="-558" font-family="Helvetica,sans-Serif" font-size="10.00">canBePlaced()</text>
<text text-anchor="start" x="17.5" y="-543" font-family="Helvetica,sans-Serif" font-size="10.00">and 60 more...</text>
<text text-anchor="start" x="4.5" y="-528" font-family="Helvetica,sans-Serif" font-size="10.00">#</text>
<text text-anchor="start" x="17.5" y="-528" font-family="Helvetica,sans-Serif" font-size="10.00">describeBlockOnlyState()</text>
<text text-anchor="start" x="4.5" y="-513" font-family="Helvetica,sans-Serif" font-size="10.00">#</text>
<text text-anchor="start" x="17.5" y="-513" font-family="Helvetica,sans-Serif" font-size="10.00">getAdjacentSupportType()</text>
<text text-anchor="start" x="4.5" y="-498" font-family="Helvetica,sans-Serif" font-size="10.00">#</text>
<text text-anchor="start" x="17.5" y="-498" font-family="Helvetica,sans-Serif" font-size="10.00">getXpDropAmount()</text>
<text text-anchor="start" x="4.5" y="-483" font-family="Helvetica,sans-Serif" font-size="10.00">#</text>
<text text-anchor="start" x="17.5" y="-483" font-family="Helvetica,sans-Serif" font-size="10.00">recalculateCollisionBoxes()</text>
<polygon fill="#bfbfbf" stroke="#bfbfbf" points="0.5,-823 0.5,-823 169.5,-823 169.5,-823 0.5,-823"/>
<polygon fill="#bfbfbf" stroke="#bfbfbf" points="0.5,-703 0.5,-703 15.5,-703 15.5,-703 0.5,-703"/>
<polygon fill="#bfbfbf" stroke="#bfbfbf" points="15.5,-703 15.5,-703 169.5,-703 169.5,-703 15.5,-703"/>
<polygon fill="none" stroke="#bfbfbf" points="0,-476 0,-840 169,-840 169,-476 0,-476"/>
</a>
</g>
</g>
<!-- Node4&#45;&gt;Node3 -->
<g id="edge3_Node000003_Node000004" class="edge">
<title>Node4&#45;&gt;Node3</title>
<g id="a_edge3_Node000003_Node000004"><a xlink:title=" ">
<path fill="none" stroke="#63b8ff" d="M84.5,-465.77C84.5,-453.97 84.5,-443.39 84.5,-434.76"/>
<polygon fill="none" stroke="#63b8ff" points="81,-465.96 84.5,-475.96 88,-465.96 81,-465.96"/>
</a>
</g>
</g>
<!-- Node5 -->
<g id="Node000005" class="node">
<title>Node5</title>
<g id="a_Node000005"><a xlink:href="../../d0/df3/interfacepocketmine_1_1block_1_1utils_1_1_wood_material.html" target="_top" xlink:title=" ">
<polygon fill="white" stroke="transparent" points="302,-440 181,-440 181,-380 302,-380 302,-440"/>
<text text-anchor="start" x="186.5" y="-428" font-family="Helvetica,sans-Serif" font-size="10.00">pocketmine\block\utils</text>
<text text-anchor="start" x="206.5" y="-417" font-family="Helvetica,sans-Serif" font-size="10.00">\WoodMaterial</text>
<text text-anchor="start" x="240" y="-402" font-family="Helvetica,sans-Serif" font-size="10.00"> </text>
<text text-anchor="start" x="192" y="-387" font-family="Helvetica,sans-Serif" font-size="10.00">+</text>
<text text-anchor="start" x="211.5" y="-387" font-family="Helvetica,sans-Serif" font-size="10.00">getWoodType()</text>
<polygon fill="#bfbfbf" stroke="#bfbfbf" points="181.5,-412 181.5,-412 302.5,-412 302.5,-412 181.5,-412"/>
<polygon fill="#bfbfbf" stroke="#bfbfbf" points="181.5,-397 181.5,-397 302.5,-397 302.5,-397 181.5,-397"/>
<polygon fill="none" stroke="#bfbfbf" points="181,-380 181,-440 302,-440 302,-380 181,-380"/>
</a>
</g>
</g>
<!-- Node5&#45;&gt;Node2 -->
<g id="edge4_Node000002_Node000005" class="edge">
<title>Node5&#45;&gt;Node2</title>
<g id="a_edge4_Node000002_Node000005"><a xlink:title=" ">
<path fill="none" stroke="#63b8ff" d="M225.15,-370.51C221.71,-362.41 217.91,-353.45 213.93,-344.08"/>
<polygon fill="none" stroke="#63b8ff" points="222.03,-372.1 229.16,-379.94 228.47,-369.37 222.03,-372.1"/>
</a>
</g>
</g>
<!-- Node6 -->
<g id="Node000006" class="node">
<title>Node6</title>
<g id="a_Node000006"><a xlink:href="../../d7/daf/interfacepocketmine_1_1block_1_1utils_1_1_horizontal_facing.html" target="_top" xlink:title=" ">
<polygon fill="white" stroke="transparent" points="379,-259.5 258,-259.5 258,-184.5 379,-184.5 379,-259.5"/>
<text text-anchor="start" x="263.5" y="-247" font-family="Helvetica,sans-Serif" font-size="10.00">pocketmine\block\utils</text>
<text text-anchor="start" x="276.5" y="-236" font-family="Helvetica,sans-Serif" font-size="10.00">\HorizontalFacing</text>
<text text-anchor="start" x="317" y="-221" font-family="Helvetica,sans-Serif" font-size="10.00"> </text>
<text text-anchor="start" x="273.5" y="-206" font-family="Helvetica,sans-Serif" font-size="10.00">+</text>
<text text-anchor="start" x="297.5" y="-206" font-family="Helvetica,sans-Serif" font-size="10.00">getFacing()</text>
<text text-anchor="start" x="273.5" y="-191" font-family="Helvetica,sans-Serif" font-size="10.00">+</text>
<text text-anchor="start" x="297.5" y="-191" font-family="Helvetica,sans-Serif" font-size="10.00">setFacing()</text>
<polygon fill="#bfbfbf" stroke="#bfbfbf" points="258.5,-231 258.5,-231 379.5,-231 379.5,-231 258.5,-231"/>
<polygon fill="#bfbfbf" stroke="#bfbfbf" points="258.5,-216 258.5,-216 379.5,-216 379.5,-216 258.5,-216"/>
<polygon fill="none" stroke="#bfbfbf" points="258,-184.5 258,-259.5 379,-259.5 379,-184.5 258,-184.5"/>
</a>
</g>
</g>
<!-- Node6&#45;&gt;Node1 -->
<g id="edge5_Node000001_Node000006" class="edge">
<title>Node6&#45;&gt;Node1</title>
<g id="a_edge5_Node000001_Node000006"><a xlink:title=" ">
<path fill="none" stroke="#63b8ff" d="M299.39,-174.94C285.13,-140.56 266.01,-94.5 253.49,-64.3"/>
<polygon fill="none" stroke="#63b8ff" points="296.21,-176.41 303.28,-184.31 302.68,-173.73 296.21,-176.41"/>
</a>
</g>
</g>
</g>
</svg>
