<?xml version="1.0" encoding="UTF-8" standalone="no"?>
<!DOCTYPE svg PUBLIC "-//W3C//DTD SVG 1.1//EN"
 "http://www.w3.org/Graphics/SVG/1.1/DTD/svg11.dtd">
<!-- Generated by graphviz version 2.43.0 (0)
 -->
<!-- Title: pocketmine\network\mcpe\InventoryManager\syncEnchantingTableOptions Pages: 1 -->
<svg width="373pt" height="88pt"
 viewBox="0.00 0.00 373.00 88.00" xmlns="http://www.w3.org/2000/svg" xmlns:xlink="http://www.w3.org/1999/xlink">
<g id="graph0" class="graph" transform="scale(1 1) rotate(0) translate(4 84)">
<title>pocketmine\network\mcpe\InventoryManager\syncEnchantingTableOptions</title>
<polygon fill="white" stroke="transparent" points="-4,4 -4,-84 369,-84 369,4 -4,4"/>
<!-- Node1 -->
<g id="node1" class="node">
<title>Node1</title>
<g id="a_node1"><a xlink:title=" ">
<polygon fill="#bfbfbf" stroke="black" points="0,-19 0,-60 159,-60 159,-19 0,-19"/>
<text text-anchor="start" x="8" y="-48" font-family="Helvetica,sans-Serif" font-size="10.00">pocketmine\network</text>
<text text-anchor="start" x="8" y="-37" font-family="Helvetica,sans-Serif" font-size="10.00">\mcpe\InventoryManager</text>
<text text-anchor="middle" x="79.5" y="-26" font-family="Helvetica,sans-Serif" font-size="10.00">\syncEnchantingTableOptions</text>
</a>
</g>
</g>
<!-- Node2 -->
<g id="node2" class="node">
<title>Node2</title>
<g id="a_node2"><a xlink:href="../../d5/d0a/classpocketmine_1_1item_1_1enchantment_1_1_enchantment_instance.html#a3b27b7c724cc7e1b283b2ec6429108e1" target="_top" xlink:title=" ">
<polygon fill="white" stroke="black" points="195,-49.5 195,-79.5 365,-79.5 365,-49.5 195,-49.5"/>
<text text-anchor="start" x="203" y="-67.5" font-family="Helvetica,sans-Serif" font-size="10.00">pocketmine\item\enchantment</text>
<text text-anchor="middle" x="280" y="-56.5" font-family="Helvetica,sans-Serif" font-size="10.00">\EnchantmentInstance\getLevel</text>
</a>
</g>
</g>
<!-- Node1&#45;&gt;Node2 -->
<g id="edge1" class="edge">
<title>Node1&#45;&gt;Node2</title>
<path fill="none" stroke="midnightblue" d="M159.24,-49.42C167.64,-50.47 176.25,-51.56 184.8,-52.64"/>
<polygon fill="midnightblue" stroke="midnightblue" points="184.45,-56.12 194.81,-53.9 185.33,-49.17 184.45,-56.12"/>
</g>
<!-- Node3 -->
<g id="node3" class="node">
<title>Node3</title>
<g id="a_node3"><a xlink:href="../../d5/d0a/classpocketmine_1_1item_1_1enchantment_1_1_enchantment_instance.html#acacebf07e30745aff1b59f7c5682d6a1" target="_top" xlink:title=" ">
<polygon fill="white" stroke="black" points="196.5,-0.5 196.5,-30.5 363.5,-30.5 363.5,-0.5 196.5,-0.5"/>
<text text-anchor="start" x="204.5" y="-18.5" font-family="Helvetica,sans-Serif" font-size="10.00">pocketmine\item\enchantment</text>
<text text-anchor="middle" x="280" y="-7.5" font-family="Helvetica,sans-Serif" font-size="10.00">\EnchantmentInstance\getType</text>
</a>
</g>
</g>
<!-- Node1&#45;&gt;Node3 -->
<g id="edge2" class="edge">
<title>Node1&#45;&gt;Node3</title>
<path fill="none" stroke="midnightblue" d="M159.24,-29.98C168.12,-28.91 177.24,-27.8 186.28,-26.71"/>
<polygon fill="midnightblue" stroke="midnightblue" points="186.94,-30.16 196.45,-25.48 186.1,-23.21 186.94,-30.16"/>
</g>
</g>
</svg>
