<?xml version="1.0" encoding="UTF-8" standalone="no"?>
<!DOCTYPE svg PUBLIC "-//W3C//DTD SVG 1.1//EN"
 "http://www.w3.org/Graphics/SVG/1.1/DTD/svg11.dtd">
<!-- Generated by graphviz version 2.43.0 (0)
 -->
<!-- Title: pocketmine\network\mcpe\protocol\types\entity\MetadataProperty Pages: 1 -->
<!--zoomable 287 -->

<svg id="main" version="1.1" xmlns="http://www.w3.org/2000/svg" xmlns:xlink="http://www.w3.org/1999/xlink" xml:space="preserve" onload="init(evt)">

<style type="text/css"><![CDATA[
.node, .edge {opacity: 0.7;}
.node.selected, .edge.selected {opacity: 1;}
.edge:hover path { stroke: red; }
.edge:hover polygon { stroke: red; fill: red; }
]]></style>

<defs>
  <circle id="rim" cx="0" cy="0" r="7"/>
  <circle id="rim2" cx="0" cy="0" r="3.5"/>
  <g id="zoomPlus">
    <use xlink:href="#rim" fill="#404040"><set attributeName="fill" to="#808080" begin="zoomplus.mouseover" end="zoomplus.mouseout"/></use>
    <path d="M-4,0h8M0,-4v8" fill="none" stroke="white" stroke-width="1.5" pointer-events="none"/>
  </g>
  <g id="zoomMin">
    <use xlink:href="#rim" fill="#404040"><set attributeName="fill" to="#808080" begin="zoomminus.mouseover" end="zoomminus.mouseout"/></use>
    <path d="M-4,0h8" fill="none" stroke="white" stroke-width="1.5" pointer-events="none"/>
  </g>
  <g id="arrowUp" transform="translate(30 24)">
    <use xlink:href="#rim"/>
    <path pointer-events="none" fill="none" stroke="white" stroke-width="1.5" d="M0,-3.0v7 M-2.5,-0.5L0,-3.0L2.5,-0.5"/>
  </g>
  <g id="arrowRight" transform="rotate(90) translate(36 -43)">
    <use xlink:href="#rim"/>
    <path pointer-events="none" fill="none" stroke="white" stroke-width="1.5" d="M0,-3.0v7 M-2.5,-0.5L0,-3.0L2.5,-0.5"/>
  </g>
  <g id="arrowDown" transform="rotate(180) translate(-30 -48)">
    <use xlink:href="#rim"/>
    <path pointer-events="none" fill="none" stroke="white" stroke-width="1.5" d="M0,-3.0v7 M-2.5,-0.5L0,-3.0L2.5,-0.5"/>
  </g>
  <g id="arrowLeft" transform="rotate(270) translate(-36 17)">
    <use xlink:href="#rim"/>
    <path pointer-events="none" fill="none" stroke="white" stroke-width="1.5" d="M0,-3.0v7 M-2.5,-0.5L0,-3.0L2.5,-0.5"/>
  </g>
  <g id="resetDef">
    <use xlink:href="#rim2" fill="#404040"><set attributeName="fill" to="#808080" begin="reset.mouseover" end="reset.mouseout"/></use>
  </g>
</defs>
<script type="application/ecmascript">
var viewWidth = 1582;
var viewHeight = 287;
var sectionId = 'dynsection-0';
</script>
<script type="application/ecmascript" xlink:href="../../svg.min.js"/>
<svg id="graph" class="graph">
<g id="viewport">
<title>pocketmine\network\mcpe\protocol\types\entity\MetadataProperty</title>
<!-- Node1 -->
<g id="Node000001" class="node">
<title>Node1</title>
<g id="a_Node000001"><a xlink:title=" ">
<polygon fill="#999999" stroke="transparent" points="863,-279 730,-279 730,-178 863,-178 863,-279"/>
<text text-anchor="start" x="735.5" y="-266.5" font-family="Helvetica,sans-Serif" font-size="10.00">pocketmine\network</text>
<text text-anchor="start" x="735.5" y="-255.5" font-family="Helvetica,sans-Serif" font-size="10.00">\mcpe\protocol\types</text>
<text text-anchor="start" x="735.5" y="-244.5" font-family="Helvetica,sans-Serif" font-size="10.00">\entity\MetadataProperty</text>
<text text-anchor="start" x="795" y="-229.5" font-family="Helvetica,sans-Serif" font-size="10.00"> </text>
<text text-anchor="start" x="748.5" y="-214.5" font-family="Helvetica,sans-Serif" font-size="10.00">+</text>
<text text-anchor="start" x="775.5" y="-214.5" font-family="Helvetica,sans-Serif" font-size="10.00">equals()</text>
<text text-anchor="start" x="748.5" y="-199.5" font-family="Helvetica,sans-Serif" font-size="10.00">+</text>
<text text-anchor="start" x="775.5" y="-199.5" font-family="Helvetica,sans-Serif" font-size="10.00">getTypeId()</text>
<text text-anchor="start" x="748.5" y="-184.5" font-family="Helvetica,sans-Serif" font-size="10.00">+</text>
<text text-anchor="start" x="775.5" y="-184.5" font-family="Helvetica,sans-Serif" font-size="10.00">write()</text>
<polygon fill="#666666" stroke="#666666" points="730.5,-239.5 730.5,-239.5 863.5,-239.5 863.5,-239.5 730.5,-239.5"/>
<polygon fill="#666666" stroke="#666666" points="730.5,-224.5 730.5,-224.5 863.5,-224.5 863.5,-224.5 730.5,-224.5"/>
<polygon fill="none" stroke="#666666" points="730,-178 730,-279 863,-279 863,-178 730,-178"/>
</a>
</g>
</g>
<!-- Node2 -->
<g id="Node000002" class="node">
<title>Node2</title>
<g id="a_Node000002"><a xlink:href="../../d0/db0/classpocketmine_1_1network_1_1mcpe_1_1protocol_1_1types_1_1entity_1_1_block_pos_metadata_property.html" target="_top" xlink:title=" ">
<polygon fill="white" stroke="transparent" points="177,-136.5 0,-136.5 0,-5.5 177,-5.5 177,-136.5"/>
<text text-anchor="start" x="5.5" y="-124" font-family="Helvetica,sans-Serif" font-size="10.00">pocketmine\network</text>
<text text-anchor="start" x="5.5" y="-113" font-family="Helvetica,sans-Serif" font-size="10.00">\mcpe\protocol\types</text>
<text text-anchor="start" x="5.5" y="-102" font-family="Helvetica,sans-Serif" font-size="10.00">\entity\BlockPosMetadataProperty</text>
<text text-anchor="start" x="27.5" y="-87" font-family="Helvetica,sans-Serif" font-size="10.00">+</text>
<text text-anchor="start" x="63.5" y="-87" font-family="Helvetica,sans-Serif" font-size="10.00">ID</text>
<text text-anchor="start" x="27.5" y="-72" font-family="Helvetica,sans-Serif" font-size="10.00">+</text>
<text text-anchor="start" x="63.5" y="-72" font-family="Helvetica,sans-Serif" font-size="10.00">__construct()</text>
<text text-anchor="start" x="27.5" y="-57" font-family="Helvetica,sans-Serif" font-size="10.00">+</text>
<text text-anchor="start" x="63.5" y="-57" font-family="Helvetica,sans-Serif" font-size="10.00">equals()</text>
<text text-anchor="start" x="27.5" y="-42" font-family="Helvetica,sans-Serif" font-size="10.00">+</text>
<text text-anchor="start" x="63.5" y="-42" font-family="Helvetica,sans-Serif" font-size="10.00">getValue()</text>
<text text-anchor="start" x="27.5" y="-27" font-family="Helvetica,sans-Serif" font-size="10.00">+</text>
<text text-anchor="start" x="63.5" y="-27" font-family="Helvetica,sans-Serif" font-size="10.00">write()</text>
<text text-anchor="start" x="27.5" y="-12" font-family="Helvetica,sans-Serif" font-size="10.00">+</text>
<text text-anchor="start" x="63.5" y="-12" font-family="Helvetica,sans-Serif" font-size="10.00">read()</text>
<polygon fill="#bfbfbf" stroke="#bfbfbf" points="0.5,-97 0.5,-97 177.5,-97 177.5,-97 0.5,-97"/>
<polygon fill="#bfbfbf" stroke="#bfbfbf" points="0.5,-82 0.5,-82 61.5,-82 61.5,-82 0.5,-82"/>
<polygon fill="#bfbfbf" stroke="#bfbfbf" points="61.5,-82 61.5,-82 177.5,-82 177.5,-82 61.5,-82"/>
<polygon fill="none" stroke="#bfbfbf" points="0,-5.5 0,-136.5 177,-136.5 177,-5.5 0,-5.5"/>
</a>
</g>
</g>
<!-- Node1&#45;&gt;Node2 -->
<g id="edge1_Node000001_Node000002" class="edge">
<title>Node1&#45;&gt;Node2</title>
<g id="a_edge1_Node000001_Node000002"><a xlink:title=" ">
<path fill="none" stroke="#63b8ff" d="M719.61,-221.39C577.86,-209.36 281.07,-180.4 185.5,-142 181.45,-140.37 177.42,-138.54 173.42,-136.55"/>
<polygon fill="none" stroke="#63b8ff" points="719.7,-224.91 729.96,-222.26 720.29,-217.93 719.7,-224.91"/>
</a>
</g>
</g>
<!-- Node3 -->
<g id="Node000003" class="node">
<title>Node3</title>
<g id="a_Node000003"><a xlink:href="../../d5/dc6/classpocketmine_1_1network_1_1mcpe_1_1protocol_1_1types_1_1entity_1_1_byte_metadata_property.html" target="_top" xlink:title=" ">
<polygon fill="white" stroke="transparent" points="350,-129 195,-129 195,-13 350,-13 350,-129"/>
<text text-anchor="start" x="200.5" y="-117" font-family="Helvetica,sans-Serif" font-size="10.00">pocketmine\network</text>
<text text-anchor="start" x="200.5" y="-106" font-family="Helvetica,sans-Serif" font-size="10.00">\mcpe\protocol\types</text>
<text text-anchor="start" x="200.5" y="-95" font-family="Helvetica,sans-Serif" font-size="10.00">\entity\ByteMetadataProperty</text>
<text text-anchor="start" x="224.5" y="-80" font-family="Helvetica,sans-Serif" font-size="10.00">+</text>
<text text-anchor="start" x="262.5" y="-80" font-family="Helvetica,sans-Serif" font-size="10.00">ID</text>
<text text-anchor="start" x="224.5" y="-65" font-family="Helvetica,sans-Serif" font-size="10.00">+</text>
<text text-anchor="start" x="262.5" y="-65" font-family="Helvetica,sans-Serif" font-size="10.00">write()</text>
<text text-anchor="start" x="224.5" y="-50" font-family="Helvetica,sans-Serif" font-size="10.00">+</text>
<text text-anchor="start" x="262.5" y="-50" font-family="Helvetica,sans-Serif" font-size="10.00">read()</text>
<text text-anchor="start" x="224.5" y="-35" font-family="Helvetica,sans-Serif" font-size="10.00">#</text>
<text text-anchor="start" x="262.5" y="-35" font-family="Helvetica,sans-Serif" font-size="10.00">max()</text>
<text text-anchor="start" x="224.5" y="-20" font-family="Helvetica,sans-Serif" font-size="10.00">#</text>
<text text-anchor="start" x="262.5" y="-20" font-family="Helvetica,sans-Serif" font-size="10.00">min()</text>
<polygon fill="#bfbfbf" stroke="#bfbfbf" points="195.5,-90 195.5,-90 350.5,-90 350.5,-90 195.5,-90"/>
<polygon fill="#bfbfbf" stroke="#bfbfbf" points="195.5,-75 195.5,-75 260.5,-75 260.5,-75 195.5,-75"/>
<polygon fill="#bfbfbf" stroke="#bfbfbf" points="260.5,-75 260.5,-75 350.5,-75 350.5,-75 260.5,-75"/>
<polygon fill="none" stroke="#bfbfbf" points="195,-13 195,-129 350,-129 350,-13 195,-13"/>
</a>
</g>
</g>
<!-- Node1&#45;&gt;Node3 -->
<g id="edge2_Node000001_Node000003" class="edge">
<title>Node1&#45;&gt;Node3</title>
<g id="a_edge2_Node000001_Node000003"><a xlink:title=" ">
<path fill="none" stroke="#63b8ff" d="M719.8,-223.8C629.52,-216.95 476.9,-197.45 358.5,-142 350.83,-138.41 343.25,-133.98 335.97,-129.12"/>
<polygon fill="none" stroke="#63b8ff" points="719.73,-227.3 729.96,-224.53 720.24,-220.32 719.73,-227.3"/>
</a>
</g>
</g>
<!-- Node4 -->
<g id="Node000004" class="node">
<title>Node4</title>
<g id="a_Node000004"><a xlink:href="../../df/d94/classpocketmine_1_1network_1_1mcpe_1_1protocol_1_1types_1_1entity_1_1_compound_tag_metadata_property.html" target="_top" xlink:title=" ">
<polygon fill="white" stroke="transparent" points="529,-142 368,-142 368,0 529,0 529,-142"/>
<text text-anchor="start" x="373.5" y="-130" font-family="Helvetica,sans-Serif" font-size="10.00">pocketmine\network</text>
<text text-anchor="start" x="373.5" y="-119" font-family="Helvetica,sans-Serif" font-size="10.00">\mcpe\protocol\types</text>
<text text-anchor="start" x="373.5" y="-108" font-family="Helvetica,sans-Serif" font-size="10.00">\entity\CompoundTagMetadata</text>
<text text-anchor="start" x="428" y="-97" font-family="Helvetica,sans-Serif" font-size="10.00">Property</text>
<text text-anchor="start" x="391.5" y="-82" font-family="Helvetica,sans-Serif" font-size="10.00">+</text>
<text text-anchor="start" x="423.5" y="-82" font-family="Helvetica,sans-Serif" font-size="10.00">ID</text>
<text text-anchor="start" x="391.5" y="-67" font-family="Helvetica,sans-Serif" font-size="10.00">+</text>
<text text-anchor="start" x="423.5" y="-67" font-family="Helvetica,sans-Serif" font-size="10.00">__construct()</text>
<text text-anchor="start" x="391.5" y="-52" font-family="Helvetica,sans-Serif" font-size="10.00">+</text>
<text text-anchor="start" x="423.5" y="-52" font-family="Helvetica,sans-Serif" font-size="10.00">equals()</text>
<text text-anchor="start" x="391.5" y="-37" font-family="Helvetica,sans-Serif" font-size="10.00">+</text>
<text text-anchor="start" x="423.5" y="-37" font-family="Helvetica,sans-Serif" font-size="10.00">getValue()</text>
<text text-anchor="start" x="391.5" y="-22" font-family="Helvetica,sans-Serif" font-size="10.00">+</text>
<text text-anchor="start" x="423.5" y="-22" font-family="Helvetica,sans-Serif" font-size="10.00">write()</text>
<text text-anchor="start" x="391.5" y="-7" font-family="Helvetica,sans-Serif" font-size="10.00">+</text>
<text text-anchor="start" x="423.5" y="-7" font-family="Helvetica,sans-Serif" font-size="10.00">read()</text>
<polygon fill="#bfbfbf" stroke="#bfbfbf" points="368.5,-92 368.5,-92 529.5,-92 529.5,-92 368.5,-92"/>
<polygon fill="#bfbfbf" stroke="#bfbfbf" points="368.5,-77 368.5,-77 421.5,-77 421.5,-77 368.5,-77"/>
<polygon fill="#bfbfbf" stroke="#bfbfbf" points="421.5,-77 421.5,-77 529.5,-77 529.5,-77 421.5,-77"/>
<polygon fill="none" stroke="#bfbfbf" points="368,0 368,-142 529,-142 529,0 368,0"/>
</a>
</g>
</g>
<!-- Node1&#45;&gt;Node4 -->
<g id="edge3_Node000001_Node000004" class="edge">
<title>Node1&#45;&gt;Node4</title>
<g id="a_edge3_Node000001_Node000004"><a xlink:title=" ">
<path fill="none" stroke="#63b8ff" d="M719.85,-209.48C667.01,-195.31 596.18,-172.8 538.5,-142 535.36,-140.32 532.21,-138.53 529.08,-136.66"/>
<polygon fill="none" stroke="#63b8ff" points="719.27,-212.94 729.84,-212.11 721.06,-206.18 719.27,-212.94"/>
</a>
</g>
</g>
<!-- Node5 -->
<g id="Node000005" class="node">
<title>Node5</title>
<g id="a_Node000005"><a xlink:href="../../d8/d60/classpocketmine_1_1network_1_1mcpe_1_1protocol_1_1types_1_1entity_1_1_float_metadata_property.html" target="_top" xlink:title=" ">
<polygon fill="white" stroke="transparent" points="705.5,-136.5 547.5,-136.5 547.5,-5.5 705.5,-5.5 705.5,-136.5"/>
<text text-anchor="start" x="552.5" y="-124" font-family="Helvetica,sans-Serif" font-size="10.00">pocketmine\network</text>
<text text-anchor="start" x="552.5" y="-113" font-family="Helvetica,sans-Serif" font-size="10.00">\mcpe\protocol\types</text>
<text text-anchor="start" x="552.5" y="-102" font-family="Helvetica,sans-Serif" font-size="10.00">\entity\FloatMetadataProperty</text>
<text text-anchor="start" x="569.5" y="-87" font-family="Helvetica,sans-Serif" font-size="10.00">+</text>
<text text-anchor="start" x="600.5" y="-87" font-family="Helvetica,sans-Serif" font-size="10.00">ID</text>
<text text-anchor="start" x="569.5" y="-72" font-family="Helvetica,sans-Serif" font-size="10.00">+</text>
<text text-anchor="start" x="600.5" y="-72" font-family="Helvetica,sans-Serif" font-size="10.00">__construct()</text>
<text text-anchor="start" x="569.5" y="-57" font-family="Helvetica,sans-Serif" font-size="10.00">+</text>
<text text-anchor="start" x="600.5" y="-57" font-family="Helvetica,sans-Serif" font-size="10.00">equals()</text>
<text text-anchor="start" x="569.5" y="-42" font-family="Helvetica,sans-Serif" font-size="10.00">+</text>
<text text-anchor="start" x="600.5" y="-42" font-family="Helvetica,sans-Serif" font-size="10.00">getValue()</text>
<text text-anchor="start" x="569.5" y="-27" font-family="Helvetica,sans-Serif" font-size="10.00">+</text>
<text text-anchor="start" x="600.5" y="-27" font-family="Helvetica,sans-Serif" font-size="10.00">write()</text>
<text text-anchor="start" x="569.5" y="-12" font-family="Helvetica,sans-Serif" font-size="10.00">+</text>
<text text-anchor="start" x="600.5" y="-12" font-family="Helvetica,sans-Serif" font-size="10.00">read()</text>
<polygon fill="#bfbfbf" stroke="#bfbfbf" points="547.5,-97 547.5,-97 705.5,-97 705.5,-97 547.5,-97"/>
<polygon fill="#bfbfbf" stroke="#bfbfbf" points="547.5,-82 547.5,-82 598.5,-82 598.5,-82 547.5,-82"/>
<polygon fill="#bfbfbf" stroke="#bfbfbf" points="598.5,-82 598.5,-82 705.5,-82 705.5,-82 598.5,-82"/>
<polygon fill="none" stroke="#bfbfbf" points="547.5,-5.5 547.5,-136.5 705.5,-136.5 705.5,-5.5 547.5,-5.5"/>
</a>
</g>
</g>
<!-- Node1&#45;&gt;Node5 -->
<g id="edge4_Node000001_Node000005" class="edge">
<title>Node1&#45;&gt;Node5</title>
<g id="a_edge4_Node000001_Node000005"><a xlink:title=" ">
<path fill="none" stroke="#63b8ff" d="M734.72,-170.99C722.47,-159.78 709.53,-147.95 697.01,-136.5"/>
<polygon fill="none" stroke="#63b8ff" points="732.5,-173.7 742.24,-177.87 737.23,-168.54 732.5,-173.7"/>
</a>
</g>
</g>
<!-- Node6 -->
<g id="Node000006" class="node">
<title>Node6</title>
<g id="a_Node000006"><a xlink:href="../../d0/da8/classpocketmine_1_1network_1_1mcpe_1_1protocol_1_1types_1_1entity_1_1_int_metadata_property.html" target="_top" xlink:title=" ">
<polygon fill="white" stroke="transparent" points="869.5,-129 723.5,-129 723.5,-13 869.5,-13 869.5,-129"/>
<text text-anchor="start" x="728.5" y="-117" font-family="Helvetica,sans-Serif" font-size="10.00">pocketmine\network</text>
<text text-anchor="start" x="728.5" y="-106" font-family="Helvetica,sans-Serif" font-size="10.00">\mcpe\protocol\types</text>
<text text-anchor="start" x="728.5" y="-95" font-family="Helvetica,sans-Serif" font-size="10.00">\entity\IntMetadataProperty</text>
<text text-anchor="start" x="750.5" y="-80" font-family="Helvetica,sans-Serif" font-size="10.00">+</text>
<text text-anchor="start" x="786.5" y="-80" font-family="Helvetica,sans-Serif" font-size="10.00">ID</text>
<text text-anchor="start" x="750.5" y="-65" font-family="Helvetica,sans-Serif" font-size="10.00">+</text>
<text text-anchor="start" x="786.5" y="-65" font-family="Helvetica,sans-Serif" font-size="10.00">write()</text>
<text text-anchor="start" x="750.5" y="-50" font-family="Helvetica,sans-Serif" font-size="10.00">+</text>
<text text-anchor="start" x="786.5" y="-50" font-family="Helvetica,sans-Serif" font-size="10.00">read()</text>
<text text-anchor="start" x="750.5" y="-35" font-family="Helvetica,sans-Serif" font-size="10.00">#</text>
<text text-anchor="start" x="786.5" y="-35" font-family="Helvetica,sans-Serif" font-size="10.00">max()</text>
<text text-anchor="start" x="750.5" y="-20" font-family="Helvetica,sans-Serif" font-size="10.00">#</text>
<text text-anchor="start" x="786.5" y="-20" font-family="Helvetica,sans-Serif" font-size="10.00">min()</text>
<polygon fill="#bfbfbf" stroke="#bfbfbf" points="723.5,-90 723.5,-90 869.5,-90 869.5,-90 723.5,-90"/>
<polygon fill="#bfbfbf" stroke="#bfbfbf" points="723.5,-75 723.5,-75 784.5,-75 784.5,-75 723.5,-75"/>
<polygon fill="#bfbfbf" stroke="#bfbfbf" points="784.5,-75 784.5,-75 869.5,-75 869.5,-75 784.5,-75"/>
<polygon fill="none" stroke="#bfbfbf" points="723.5,-13 723.5,-129 869.5,-129 869.5,-13 723.5,-13"/>
</a>
</g>
</g>
<!-- Node1&#45;&gt;Node6 -->
<g id="edge5_Node000001_Node000006" class="edge">
<title>Node1&#45;&gt;Node6</title>
<g id="a_edge5_Node000001_Node000006"><a xlink:title=" ">
<path fill="none" stroke="#63b8ff" d="M796.5,-167.82C796.5,-155.08 796.5,-141.65 796.5,-129"/>
<polygon fill="none" stroke="#63b8ff" points="793,-167.87 796.5,-177.87 800,-167.87 793,-167.87"/>
</a>
</g>
</g>
<!-- Node7 -->
<g id="Node000007" class="node">
<title>Node7</title>
<g id="a_Node000007"><a xlink:href="../../d5/d92/classpocketmine_1_1network_1_1mcpe_1_1protocol_1_1types_1_1entity_1_1_long_metadata_property.html" target="_top" xlink:title=" ">
<polygon fill="white" stroke="transparent" points="1043.5,-129 887.5,-129 887.5,-13 1043.5,-13 1043.5,-129"/>
<text text-anchor="start" x="892.5" y="-117" font-family="Helvetica,sans-Serif" font-size="10.00">pocketmine\network</text>
<text text-anchor="start" x="892.5" y="-106" font-family="Helvetica,sans-Serif" font-size="10.00">\mcpe\protocol\types</text>
<text text-anchor="start" x="892.5" y="-95" font-family="Helvetica,sans-Serif" font-size="10.00">\entity\LongMetadataProperty</text>
<text text-anchor="start" x="917" y="-80" font-family="Helvetica,sans-Serif" font-size="10.00">+</text>
<text text-anchor="start" x="955.5" y="-80" font-family="Helvetica,sans-Serif" font-size="10.00">ID</text>
<text text-anchor="start" x="917" y="-65" font-family="Helvetica,sans-Serif" font-size="10.00">+</text>
<text text-anchor="start" x="955.5" y="-65" font-family="Helvetica,sans-Serif" font-size="10.00">write()</text>
<text text-anchor="start" x="917" y="-50" font-family="Helvetica,sans-Serif" font-size="10.00">+</text>
<text text-anchor="start" x="955.5" y="-50" font-family="Helvetica,sans-Serif" font-size="10.00">read()</text>
<text text-anchor="start" x="917" y="-35" font-family="Helvetica,sans-Serif" font-size="10.00">#</text>
<text text-anchor="start" x="955.5" y="-35" font-family="Helvetica,sans-Serif" font-size="10.00">max()</text>
<text text-anchor="start" x="917" y="-20" font-family="Helvetica,sans-Serif" font-size="10.00">#</text>
<text text-anchor="start" x="955.5" y="-20" font-family="Helvetica,sans-Serif" font-size="10.00">min()</text>
<polygon fill="#bfbfbf" stroke="#bfbfbf" points="887.5,-90 887.5,-90 1043.5,-90 1043.5,-90 887.5,-90"/>
<polygon fill="#bfbfbf" stroke="#bfbfbf" points="887.5,-75 887.5,-75 953.5,-75 953.5,-75 887.5,-75"/>
<polygon fill="#bfbfbf" stroke="#bfbfbf" points="953.5,-75 953.5,-75 1043.5,-75 1043.5,-75 953.5,-75"/>
<polygon fill="none" stroke="#bfbfbf" points="887.5,-13 887.5,-129 1043.5,-129 1043.5,-13 887.5,-13"/>
</a>
</g>
</g>
<!-- Node1&#45;&gt;Node7 -->
<g id="edge6_Node000001_Node000007" class="edge">
<title>Node1&#45;&gt;Node7</title>
<g id="a_edge6_Node000001_Node000007"><a xlink:title=" ">
<path fill="none" stroke="#63b8ff" d="M858.08,-170.84C872.89,-157.21 888.72,-142.65 903.55,-129"/>
<polygon fill="none" stroke="#63b8ff" points="855.43,-168.52 850.44,-177.87 860.17,-173.68 855.43,-168.52"/>
</a>
</g>
</g>
<!-- Node8 -->
<g id="Node000008" class="node">
<title>Node8</title>
<g id="a_Node000008"><a xlink:href="../../d3/d52/classpocketmine_1_1network_1_1mcpe_1_1protocol_1_1types_1_1entity_1_1_short_metadata_property.html" target="_top" xlink:title=" ">
<polygon fill="white" stroke="transparent" points="1219.5,-129 1061.5,-129 1061.5,-13 1219.5,-13 1219.5,-129"/>
<text text-anchor="start" x="1066.5" y="-117" font-family="Helvetica,sans-Serif" font-size="10.00">pocketmine\network</text>
<text text-anchor="start" x="1066.5" y="-106" font-family="Helvetica,sans-Serif" font-size="10.00">\mcpe\protocol\types</text>
<text text-anchor="start" x="1066.5" y="-95" font-family="Helvetica,sans-Serif" font-size="10.00">\entity\ShortMetadataProperty</text>
<text text-anchor="start" x="1091.5" y="-80" font-family="Helvetica,sans-Serif" font-size="10.00">+</text>
<text text-anchor="start" x="1130.5" y="-80" font-family="Helvetica,sans-Serif" font-size="10.00">ID</text>
<text text-anchor="start" x="1091.5" y="-65" font-family="Helvetica,sans-Serif" font-size="10.00">+</text>
<text text-anchor="start" x="1130.5" y="-65" font-family="Helvetica,sans-Serif" font-size="10.00">write()</text>
<text text-anchor="start" x="1091.5" y="-50" font-family="Helvetica,sans-Serif" font-size="10.00">+</text>
<text text-anchor="start" x="1130.5" y="-50" font-family="Helvetica,sans-Serif" font-size="10.00">read()</text>
<text text-anchor="start" x="1091.5" y="-35" font-family="Helvetica,sans-Serif" font-size="10.00">#</text>
<text text-anchor="start" x="1130.5" y="-35" font-family="Helvetica,sans-Serif" font-size="10.00">max()</text>
<text text-anchor="start" x="1091.5" y="-20" font-family="Helvetica,sans-Serif" font-size="10.00">#</text>
<text text-anchor="start" x="1130.5" y="-20" font-family="Helvetica,sans-Serif" font-size="10.00">min()</text>
<polygon fill="#bfbfbf" stroke="#bfbfbf" points="1061.5,-90 1061.5,-90 1219.5,-90 1219.5,-90 1061.5,-90"/>
<polygon fill="#bfbfbf" stroke="#bfbfbf" points="1061.5,-75 1061.5,-75 1128.5,-75 1128.5,-75 1061.5,-75"/>
<polygon fill="#bfbfbf" stroke="#bfbfbf" points="1128.5,-75 1128.5,-75 1219.5,-75 1219.5,-75 1128.5,-75"/>
<polygon fill="none" stroke="#bfbfbf" points="1061.5,-13 1061.5,-129 1219.5,-129 1219.5,-13 1061.5,-13"/>
</a>
</g>
</g>
<!-- Node1&#45;&gt;Node8 -->
<g id="edge7_Node000001_Node000008" class="edge">
<title>Node1&#45;&gt;Node8</title>
<g id="a_edge7_Node000001_Node000008"><a xlink:title=" ">
<path fill="none" stroke="#63b8ff" d="M872.92,-209.51C925.37,-195.38 995.53,-172.91 1052.5,-142 1059.54,-138.18 1066.57,-133.79 1073.43,-129.11"/>
<polygon fill="none" stroke="#63b8ff" points="871.78,-206.19 863.01,-212.14 873.57,-212.96 871.78,-206.19"/>
</a>
</g>
</g>
<!-- Node9 -->
<g id="Node000009" class="node">
<title>Node9</title>
<g id="a_Node000009"><a xlink:href="../../da/d66/classpocketmine_1_1network_1_1mcpe_1_1protocol_1_1types_1_1entity_1_1_string_metadata_property.html" target="_top" xlink:title=" ">
<polygon fill="white" stroke="transparent" points="1399,-136.5 1238,-136.5 1238,-5.5 1399,-5.5 1399,-136.5"/>
<text text-anchor="start" x="1243.5" y="-124" font-family="Helvetica,sans-Serif" font-size="10.00">pocketmine\network</text>
<text text-anchor="start" x="1243.5" y="-113" font-family="Helvetica,sans-Serif" font-size="10.00">\mcpe\protocol\types</text>
<text text-anchor="start" x="1243.5" y="-102" font-family="Helvetica,sans-Serif" font-size="10.00">\entity\StringMetadataProperty</text>
<text text-anchor="start" x="1261.5" y="-87" font-family="Helvetica,sans-Serif" font-size="10.00">+</text>
<text text-anchor="start" x="1293.5" y="-87" font-family="Helvetica,sans-Serif" font-size="10.00">ID</text>
<text text-anchor="start" x="1261.5" y="-72" font-family="Helvetica,sans-Serif" font-size="10.00">+</text>
<text text-anchor="start" x="1293.5" y="-72" font-family="Helvetica,sans-Serif" font-size="10.00">__construct()</text>
<text text-anchor="start" x="1261.5" y="-57" font-family="Helvetica,sans-Serif" font-size="10.00">+</text>
<text text-anchor="start" x="1293.5" y="-57" font-family="Helvetica,sans-Serif" font-size="10.00">equals()</text>
<text text-anchor="start" x="1261.5" y="-42" font-family="Helvetica,sans-Serif" font-size="10.00">+</text>
<text text-anchor="start" x="1293.5" y="-42" font-family="Helvetica,sans-Serif" font-size="10.00">getValue()</text>
<text text-anchor="start" x="1261.5" y="-27" font-family="Helvetica,sans-Serif" font-size="10.00">+</text>
<text text-anchor="start" x="1293.5" y="-27" font-family="Helvetica,sans-Serif" font-size="10.00">write()</text>
<text text-anchor="start" x="1261.5" y="-12" font-family="Helvetica,sans-Serif" font-size="10.00">+</text>
<text text-anchor="start" x="1293.5" y="-12" font-family="Helvetica,sans-Serif" font-size="10.00">read()</text>
<polygon fill="#bfbfbf" stroke="#bfbfbf" points="1238.5,-97 1238.5,-97 1399.5,-97 1399.5,-97 1238.5,-97"/>
<polygon fill="#bfbfbf" stroke="#bfbfbf" points="1238.5,-82 1238.5,-82 1291.5,-82 1291.5,-82 1238.5,-82"/>
<polygon fill="#bfbfbf" stroke="#bfbfbf" points="1291.5,-82 1291.5,-82 1399.5,-82 1399.5,-82 1291.5,-82"/>
<polygon fill="none" stroke="#bfbfbf" points="1238,-5.5 1238,-136.5 1399,-136.5 1399,-5.5 1238,-5.5"/>
</a>
</g>
</g>
<!-- Node1&#45;&gt;Node9 -->
<g id="edge8_Node000001_Node000009" class="edge">
<title>Node1&#45;&gt;Node9</title>
<g id="a_edge8_Node000001_Node000009"><a xlink:title=" ">
<path fill="none" stroke="#63b8ff" d="M873.09,-223.05C962.08,-215.5 1111.64,-195.34 1228.5,-142 1232.1,-140.36 1235.69,-138.54 1239.24,-136.59"/>
<polygon fill="none" stroke="#63b8ff" points="872.75,-219.56 863.07,-223.87 873.32,-226.54 872.75,-219.56"/>
</a>
</g>
</g>
<!-- Node10 -->
<g id="Node000010" class="node">
<title>Node10</title>
<g id="a_Node000010"><a xlink:href="../../df/d8e/classpocketmine_1_1network_1_1mcpe_1_1protocol_1_1types_1_1entity_1_1_vec3_metadata_property.html" target="_top" xlink:title=" ">
<polygon fill="white" stroke="transparent" points="1573.5,-136.5 1417.5,-136.5 1417.5,-5.5 1573.5,-5.5 1573.5,-136.5"/>
<text text-anchor="start" x="1422.5" y="-124" font-family="Helvetica,sans-Serif" font-size="10.00">pocketmine\network</text>
<text text-anchor="start" x="1422.5" y="-113" font-family="Helvetica,sans-Serif" font-size="10.00">\mcpe\protocol\types</text>
<text text-anchor="start" x="1422.5" y="-102" font-family="Helvetica,sans-Serif" font-size="10.00">\entity\Vec3MetadataProperty</text>
<text text-anchor="start" x="1439" y="-87" font-family="Helvetica,sans-Serif" font-size="10.00">+</text>
<text text-anchor="start" x="1469.5" y="-87" font-family="Helvetica,sans-Serif" font-size="10.00">ID</text>
<text text-anchor="start" x="1439" y="-72" font-family="Helvetica,sans-Serif" font-size="10.00">+</text>
<text text-anchor="start" x="1469.5" y="-72" font-family="Helvetica,sans-Serif" font-size="10.00">__construct()</text>
<text text-anchor="start" x="1439" y="-57" font-family="Helvetica,sans-Serif" font-size="10.00">+</text>
<text text-anchor="start" x="1469.5" y="-57" font-family="Helvetica,sans-Serif" font-size="10.00">equals()</text>
<text text-anchor="start" x="1439" y="-42" font-family="Helvetica,sans-Serif" font-size="10.00">+</text>
<text text-anchor="start" x="1469.5" y="-42" font-family="Helvetica,sans-Serif" font-size="10.00">getValue()</text>
<text text-anchor="start" x="1439" y="-27" font-family="Helvetica,sans-Serif" font-size="10.00">+</text>
<text text-anchor="start" x="1469.5" y="-27" font-family="Helvetica,sans-Serif" font-size="10.00">write()</text>
<text text-anchor="start" x="1439" y="-12" font-family="Helvetica,sans-Serif" font-size="10.00">+</text>
<text text-anchor="start" x="1469.5" y="-12" font-family="Helvetica,sans-Serif" font-size="10.00">read()</text>
<polygon fill="#bfbfbf" stroke="#bfbfbf" points="1417.5,-97 1417.5,-97 1573.5,-97 1573.5,-97 1417.5,-97"/>
<polygon fill="#bfbfbf" stroke="#bfbfbf" points="1417.5,-82 1417.5,-82 1467.5,-82 1467.5,-82 1417.5,-82"/>
<polygon fill="#bfbfbf" stroke="#bfbfbf" points="1467.5,-82 1467.5,-82 1573.5,-82 1573.5,-82 1467.5,-82"/>
<polygon fill="none" stroke="#bfbfbf" points="1417.5,-5.5 1417.5,-136.5 1573.5,-136.5 1573.5,-5.5 1417.5,-5.5"/>
</a>
</g>
</g>
<!-- Node1&#45;&gt;Node10 -->
<g id="edge9_Node000001_Node000010" class="edge">
<title>Node1&#45;&gt;Node10</title>
<g id="a_edge9_Node000001_Node000010"><a xlink:title=" ">
<path fill="none" stroke="#63b8ff" d="M873.44,-221.88C1015.64,-210.66 1313.76,-182.97 1408.5,-142 1412.24,-140.38 1415.95,-138.56 1419.61,-136.58"/>
<polygon fill="none" stroke="#63b8ff" points="872.75,-218.42 863.06,-222.69 873.3,-225.4 872.75,-218.42"/>
</a>
</g>
</g>
</g>
</svg>

<g id="navigator" transform="translate(0 0)" fill="#404254">
  <rect fill="#f2f5e9" fill-opacity="0.5" stroke="#606060" stroke-width=".5" x="0" y="0" width="60" height="60"/>
  <use id="zoomplus" xlink:href="#zoomPlus" x="17" y="9" onmousedown="handleZoom(evt,'in')"/>
  <use id="zoomminus" xlink:href="#zoomMin" x="42" y="9" onmousedown="handleZoom(evt,'out')"/>
  <use id="reset" xlink:href="#resetDef" x="30" y="36" onmousedown="handleReset()"/>
   <use id="arrowup" xlink:href="#arrowUp" x="0" y="0" onmousedown="handlePan(0,-1)"/>
  <use id="arrowright" xlink:href="#arrowRight" x="0" y="0" onmousedown="handlePan(1,0)"/>
  <use id="arrowdown" xlink:href="#arrowDown" x="0" y="0" onmousedown="handlePan(0,1)"/>
  <use id="arrowleft" xlink:href="#arrowLeft" x="0" y="0" onmousedown="handlePan(-1,0)"/>
</g>
<svg viewBox="0 0 15 15" width="100%" height="30px" preserveAspectRatio="xMaxYMin meet">
 <g id="arrow_out" transform="scale(0.3 0.3)">
  <a xlink:href="interfacepocketmine_1_1network_1_1mcpe_1_1protocol_1_1types_1_1entity_1_1_metadata_property__inherit__graph_org.svg" target="_base">
   <rect id="button" ry="5" rx="5" y="6" x="6" height="38" width="38"
        fill="#f2f5e9" fill-opacity="0.5" stroke="#606060" stroke-width="1.0"/>
   <path id="arrow"
     d="M 11.500037,31.436501 C 11.940474,20.09759 22.043105,11.32322 32.158766,21.979434 L 37.068811,17.246167 C 37.068811,17.246167 37.088388,32 37.088388,32 L 22.160133,31.978069 C 22.160133,31.978069 26.997745,27.140456 26.997745,27.140456 C 18.528582,18.264221 13.291696,25.230495 11.500037,31.436501 z"
     style="fill:#404040;"/>
  </a>
 </g>
</svg>

<style type='text/css'>
<![CDATA[
[data-mouse-over-selected='false'] { opacity: 0.7; }
[data-mouse-over-selected='true']  { opacity: 1.0; }
]]>
</style>
<script type="application/ecmascript"><![CDATA[
document.addEventListener('DOMContentLoaded', (event) => {
  highlightEdges();
  highlightAdjacentNodes();
});
]]></script>
</svg>
