<?xml version="1.0" encoding="UTF-8" standalone="no"?>
<!DOCTYPE svg PUBLIC "-//W3C//DTD SVG 1.1//EN"
 "http://www.w3.org/Graphics/SVG/1.1/DTD/svg11.dtd">
<!-- Generated by graphviz version 2.43.0 (0)
 -->
<!-- Title: pocketmine\network\mcpe\protocol\CraftingDataPacket Pages: 1 -->
<svg width="312pt" height="781pt"
 viewBox="0.00 0.00 312.00 781.00" xmlns="http://www.w3.org/2000/svg" xmlns:xlink="http://www.w3.org/1999/xlink">
<g id="graph0" class="graph" transform="scale(1 1) rotate(0) translate(4 777)">
<title>pocketmine\network\mcpe\protocol\CraftingDataPacket</title>
<!-- Node1 -->
<g id="Node000001" class="node">
<title>Node1</title>
<g id="a_Node000001"><a xlink:title=" ">
<polygon fill="#999999" stroke="transparent" points="238.5,-311 62.5,-311 62.5,0 238.5,0 238.5,-311"/>
<text text-anchor="start" x="81.5" y="-298.5" font-family="Helvetica,sans-Serif" font-size="10.00">pocketmine\network</text>
<text text-anchor="start" x="81.5" y="-287.5" font-family="Helvetica,sans-Serif" font-size="10.00">\mcpe\protocol\CraftingData</text>
<text text-anchor="start" x="134.5" y="-276.5" font-family="Helvetica,sans-Serif" font-size="10.00">Packet</text>
<text text-anchor="start" x="66.5" y="-261.5" font-family="Helvetica,sans-Serif" font-size="10.00">+</text>
<text text-anchor="start" x="79.5" y="-261.5" font-family="Helvetica,sans-Serif" font-size="10.00">$cleanRecipes</text>
<text text-anchor="start" x="66.5" y="-246.5" font-family="Helvetica,sans-Serif" font-size="10.00">+</text>
<text text-anchor="start" x="79.5" y="-246.5" font-family="Helvetica,sans-Serif" font-size="10.00">$materialReducerRecipes</text>
<text text-anchor="start" x="66.5" y="-231.5" font-family="Helvetica,sans-Serif" font-size="10.00">+</text>
<text text-anchor="start" x="79.5" y="-231.5" font-family="Helvetica,sans-Serif" font-size="10.00">$potionContainerRecipes</text>
<text text-anchor="start" x="66.5" y="-216.5" font-family="Helvetica,sans-Serif" font-size="10.00">+</text>
<text text-anchor="start" x="79.5" y="-216.5" font-family="Helvetica,sans-Serif" font-size="10.00">$potionTypeRecipes</text>
<text text-anchor="start" x="66.5" y="-201.5" font-family="Helvetica,sans-Serif" font-size="10.00">+</text>
<text text-anchor="start" x="79.5" y="-201.5" font-family="Helvetica,sans-Serif" font-size="10.00">$recipesWithTypeIds</text>
<text text-anchor="start" x="66.5" y="-186.5" font-family="Helvetica,sans-Serif" font-size="10.00">+</text>
<text text-anchor="start" x="79.5" y="-186.5" font-family="Helvetica,sans-Serif" font-size="10.00">ENTRY_MULTI</text>
<text text-anchor="start" x="66.5" y="-171.5" font-family="Helvetica,sans-Serif" font-size="10.00">+</text>
<text text-anchor="start" x="79.5" y="-171.5" font-family="Helvetica,sans-Serif" font-size="10.00">ENTRY_SHAPED</text>
<text text-anchor="start" x="66.5" y="-156.5" font-family="Helvetica,sans-Serif" font-size="10.00">+</text>
<text text-anchor="start" x="79.5" y="-156.5" font-family="Helvetica,sans-Serif" font-size="10.00">ENTRY_SHAPED_CHEMISTRY</text>
<text text-anchor="start" x="66.5" y="-141.5" font-family="Helvetica,sans-Serif" font-size="10.00">+</text>
<text text-anchor="start" x="79.5" y="-141.5" font-family="Helvetica,sans-Serif" font-size="10.00">ENTRY_SHAPELESS</text>
<text text-anchor="start" x="66.5" y="-126.5" font-family="Helvetica,sans-Serif" font-size="10.00">+</text>
<text text-anchor="start" x="79.5" y="-126.5" font-family="Helvetica,sans-Serif" font-size="10.00">ENTRY_SHAPELESS_CHEMISTRY</text>
<text text-anchor="start" x="66.5" y="-111.5" font-family="Helvetica,sans-Serif" font-size="10.00">+</text>
<text text-anchor="start" x="79.5" y="-111.5" font-family="Helvetica,sans-Serif" font-size="10.00">ENTRY_SMITHING_TRANSFORM</text>
<text text-anchor="start" x="66.5" y="-96.5" font-family="Helvetica,sans-Serif" font-size="10.00">+</text>
<text text-anchor="start" x="79.5" y="-96.5" font-family="Helvetica,sans-Serif" font-size="10.00">ENTRY_SMITHING_TRIM</text>
<text text-anchor="start" x="66.5" y="-81.5" font-family="Helvetica,sans-Serif" font-size="10.00">+</text>
<text text-anchor="start" x="79.5" y="-81.5" font-family="Helvetica,sans-Serif" font-size="10.00">ENTRY_USER_DATA_SHAPELESS</text>
<text text-anchor="start" x="66.5" y="-66.5" font-family="Helvetica,sans-Serif" font-size="10.00">+</text>
<text text-anchor="start" x="79.5" y="-66.5" font-family="Helvetica,sans-Serif" font-size="10.00">NETWORK_ID</text>
<text text-anchor="start" x="66.5" y="-51.5" font-family="Helvetica,sans-Serif" font-size="10.00">+</text>
<text text-anchor="start" x="79.5" y="-51.5" font-family="Helvetica,sans-Serif" font-size="10.00">handle()</text>
<text text-anchor="start" x="66.5" y="-36.5" font-family="Helvetica,sans-Serif" font-size="10.00">+</text>
<text text-anchor="start" x="79.5" y="-36.5" font-family="Helvetica,sans-Serif" font-size="10.00">create()</text>
<text text-anchor="start" x="66.5" y="-21.5" font-family="Helvetica,sans-Serif" font-size="10.00">#</text>
<text text-anchor="start" x="79.5" y="-21.5" font-family="Helvetica,sans-Serif" font-size="10.00">decodePayload()</text>
<text text-anchor="start" x="66.5" y="-6.5" font-family="Helvetica,sans-Serif" font-size="10.00">#</text>
<text text-anchor="start" x="79.5" y="-6.5" font-family="Helvetica,sans-Serif" font-size="10.00">encodePayload()</text>
<polygon fill="#666666" stroke="#666666" points="62.5,-271.5 62.5,-271.5 238.5,-271.5 238.5,-271.5 62.5,-271.5"/>
<polygon fill="#666666" stroke="#666666" points="62.5,-61.5 62.5,-61.5 77.5,-61.5 77.5,-61.5 62.5,-61.5"/>
<polygon fill="#666666" stroke="#666666" points="77.5,-61.5 77.5,-61.5 238.5,-61.5 238.5,-61.5 77.5,-61.5"/>
<polygon fill="none" stroke="#666666" points="62.5,0 62.5,-311 238.5,-311 238.5,0 62.5,0"/>
</a>
</g>
</g>
<!-- Node2 -->
<g id="Node000002" class="node">
<title>Node2</title>
<g id="a_Node000002"><a xlink:href="../../d1/ddb/classpocketmine_1_1network_1_1mcpe_1_1protocol_1_1_data_packet.html" target="_top" xlink:title=" ">
<polygon fill="white" stroke="transparent" points="141,-602 0,-602 0,-347 141,-347 141,-602"/>
<text text-anchor="start" x="5.5" y="-589.5" font-family="Helvetica,sans-Serif" font-size="10.00">pocketmine\network</text>
<text text-anchor="start" x="5.5" y="-578.5" font-family="Helvetica,sans-Serif" font-size="10.00">\mcpe\protocol\DataPacket</text>
<text text-anchor="start" x="5" y="-563.5" font-family="Helvetica,sans-Serif" font-size="10.00">+</text>
<text text-anchor="start" x="18.5" y="-563.5" font-family="Helvetica,sans-Serif" font-size="10.00">$recipientSubId</text>
<text text-anchor="start" x="5" y="-548.5" font-family="Helvetica,sans-Serif" font-size="10.00">+</text>
<text text-anchor="start" x="18.5" y="-548.5" font-family="Helvetica,sans-Serif" font-size="10.00">$senderSubId</text>
<text text-anchor="start" x="5" y="-533.5" font-family="Helvetica,sans-Serif" font-size="10.00">+</text>
<text text-anchor="start" x="18.5" y="-533.5" font-family="Helvetica,sans-Serif" font-size="10.00">NETWORK_ID</text>
<text text-anchor="start" x="5" y="-518.5" font-family="Helvetica,sans-Serif" font-size="10.00">+</text>
<text text-anchor="start" x="18.5" y="-518.5" font-family="Helvetica,sans-Serif" font-size="10.00">PID_MASK</text>
<text text-anchor="start" x="5" y="-503.5" font-family="Helvetica,sans-Serif" font-size="10.00">+</text>
<text text-anchor="start" x="18.5" y="-503.5" font-family="Helvetica,sans-Serif" font-size="10.00">__get()</text>
<text text-anchor="start" x="5" y="-488.5" font-family="Helvetica,sans-Serif" font-size="10.00">+</text>
<text text-anchor="start" x="18.5" y="-488.5" font-family="Helvetica,sans-Serif" font-size="10.00">__set()</text>
<text text-anchor="start" x="5" y="-473.5" font-family="Helvetica,sans-Serif" font-size="10.00">+</text>
<text text-anchor="start" x="18.5" y="-473.5" font-family="Helvetica,sans-Serif" font-size="10.00">canBeSentBeforeLogin()</text>
<text text-anchor="start" x="5" y="-458.5" font-family="Helvetica,sans-Serif" font-size="10.00">+</text>
<text text-anchor="start" x="18.5" y="-458.5" font-family="Helvetica,sans-Serif" font-size="10.00">decode()</text>
<text text-anchor="start" x="5" y="-443.5" font-family="Helvetica,sans-Serif" font-size="10.00">+</text>
<text text-anchor="start" x="18.5" y="-443.5" font-family="Helvetica,sans-Serif" font-size="10.00">encode()</text>
<text text-anchor="start" x="5" y="-428.5" font-family="Helvetica,sans-Serif" font-size="10.00">+</text>
<text text-anchor="start" x="18.5" y="-428.5" font-family="Helvetica,sans-Serif" font-size="10.00">getName()</text>
<text text-anchor="start" x="5" y="-413.5" font-family="Helvetica,sans-Serif" font-size="10.00">+</text>
<text text-anchor="start" x="18.5" y="-413.5" font-family="Helvetica,sans-Serif" font-size="10.00">pid()</text>
<text text-anchor="start" x="5" y="-398.5" font-family="Helvetica,sans-Serif" font-size="10.00">#</text>
<text text-anchor="start" x="18.5" y="-398.5" font-family="Helvetica,sans-Serif" font-size="10.00">decodeHeader()</text>
<text text-anchor="start" x="5" y="-383.5" font-family="Helvetica,sans-Serif" font-size="10.00">#</text>
<text text-anchor="start" x="18.5" y="-383.5" font-family="Helvetica,sans-Serif" font-size="10.00">decodePayload()</text>
<text text-anchor="start" x="5" y="-368.5" font-family="Helvetica,sans-Serif" font-size="10.00">#</text>
<text text-anchor="start" x="18.5" y="-368.5" font-family="Helvetica,sans-Serif" font-size="10.00">encodeHeader()</text>
<text text-anchor="start" x="5" y="-353.5" font-family="Helvetica,sans-Serif" font-size="10.00">#</text>
<text text-anchor="start" x="18.5" y="-353.5" font-family="Helvetica,sans-Serif" font-size="10.00">encodePayload()</text>
<polygon fill="#bfbfbf" stroke="#bfbfbf" points="0.5,-573.5 0.5,-573.5 141.5,-573.5 141.5,-573.5 0.5,-573.5"/>
<polygon fill="#bfbfbf" stroke="#bfbfbf" points="0.5,-513.5 0.5,-513.5 16.5,-513.5 16.5,-513.5 0.5,-513.5"/>
<polygon fill="#bfbfbf" stroke="#bfbfbf" points="16.5,-513.5 16.5,-513.5 141.5,-513.5 141.5,-513.5 16.5,-513.5"/>
<polygon fill="none" stroke="#bfbfbf" points="0,-347 0,-602 141,-602 141,-347 0,-347"/>
</a>
</g>
</g>
<!-- Node2&#45;&gt;Node1 -->
<g id="edge1_Node000001_Node000002" class="edge">
<title>Node2&#45;&gt;Node1</title>
<g id="a_edge1_Node000001_Node000002"><a xlink:title=" ">
<path fill="none" stroke="#63b8ff" d="M104.97,-336.9C107.12,-328.39 109.29,-319.79 111.46,-311.21"/>
<polygon fill="none" stroke="#63b8ff" points="101.52,-336.29 102.46,-346.85 108.3,-338.01 101.52,-336.29"/>
</a>
</g>
</g>
<!-- Node3 -->
<g id="Node000003" class="node">
<title>Node3</title>
<g id="a_Node000003"><a xlink:href="../../d4/d5d/interfacepocketmine_1_1network_1_1mcpe_1_1protocol_1_1_packet.html" target="_top" xlink:title=" ">
<polygon fill="white" stroke="transparent" points="220,-773 81,-773 81,-638 220,-638 220,-773"/>
<text text-anchor="start" x="97" y="-760.5" font-family="Helvetica,sans-Serif" font-size="10.00">pocketmine\network</text>
<text text-anchor="start" x="97" y="-749.5" font-family="Helvetica,sans-Serif" font-size="10.00">\mcpe\protocol\Packet</text>
<text text-anchor="start" x="149" y="-734.5" font-family="Helvetica,sans-Serif" font-size="10.00"> </text>
<text text-anchor="start" x="85.5" y="-719.5" font-family="Helvetica,sans-Serif" font-size="10.00">+</text>
<text text-anchor="start" x="98.5" y="-719.5" font-family="Helvetica,sans-Serif" font-size="10.00">canBeSentBeforeLogin()</text>
<text text-anchor="start" x="85.5" y="-704.5" font-family="Helvetica,sans-Serif" font-size="10.00">+</text>
<text text-anchor="start" x="98.5" y="-704.5" font-family="Helvetica,sans-Serif" font-size="10.00">decode()</text>
<text text-anchor="start" x="85.5" y="-689.5" font-family="Helvetica,sans-Serif" font-size="10.00">+</text>
<text text-anchor="start" x="98.5" y="-689.5" font-family="Helvetica,sans-Serif" font-size="10.00">encode()</text>
<text text-anchor="start" x="85.5" y="-674.5" font-family="Helvetica,sans-Serif" font-size="10.00">+</text>
<text text-anchor="start" x="98.5" y="-674.5" font-family="Helvetica,sans-Serif" font-size="10.00">getName()</text>
<text text-anchor="start" x="85.5" y="-659.5" font-family="Helvetica,sans-Serif" font-size="10.00">+</text>
<text text-anchor="start" x="98.5" y="-659.5" font-family="Helvetica,sans-Serif" font-size="10.00">handle()</text>
<text text-anchor="start" x="85.5" y="-644.5" font-family="Helvetica,sans-Serif" font-size="10.00">+</text>
<text text-anchor="start" x="98.5" y="-644.5" font-family="Helvetica,sans-Serif" font-size="10.00">pid()</text>
<polygon fill="#bfbfbf" stroke="#bfbfbf" points="81.5,-744.5 81.5,-744.5 220.5,-744.5 220.5,-744.5 81.5,-744.5"/>
<polygon fill="#bfbfbf" stroke="#bfbfbf" points="81.5,-729.5 81.5,-729.5 220.5,-729.5 220.5,-729.5 81.5,-729.5"/>
<polygon fill="none" stroke="#bfbfbf" points="81,-638 81,-773 220,-773 220,-638 81,-638"/>
</a>
</g>
</g>
<!-- Node3&#45;&gt;Node2 -->
<g id="edge2_Node000002_Node000003" class="edge">
<title>Node3&#45;&gt;Node2</title>
<g id="a_edge2_Node000002_Node000003"><a xlink:title=" ">
<path fill="none" stroke="#63b8ff" d="M123.94,-628.48C120.96,-619.95 117.87,-611.11 114.75,-602.16"/>
<polygon fill="none" stroke="#63b8ff" points="120.65,-629.67 127.25,-637.96 127.26,-627.36 120.65,-629.67"/>
</a>
</g>
</g>
<!-- Node4 -->
<g id="Node000004" class="node">
<title>Node4</title>
<g id="a_Node000004"><a xlink:href="../../da/d77/interfacepocketmine_1_1network_1_1mcpe_1_1protocol_1_1_clientbound_packet.html" target="_top" xlink:title=" ">
<polygon fill="white" stroke="transparent" points="304,-510 159,-510 159,-439 304,-439 304,-510"/>
<text text-anchor="start" x="164.5" y="-497.5" font-family="Helvetica,sans-Serif" font-size="10.00">pocketmine\network</text>
<text text-anchor="start" x="164.5" y="-486.5" font-family="Helvetica,sans-Serif" font-size="10.00">\mcpe\protocol\Clientbound</text>
<text text-anchor="start" x="216" y="-475.5" font-family="Helvetica,sans-Serif" font-size="10.00">Packet</text>
<text text-anchor="start" x="230" y="-460.5" font-family="Helvetica,sans-Serif" font-size="10.00"> </text>
<text text-anchor="start" x="230" y="-445.5" font-family="Helvetica,sans-Serif" font-size="10.00"> </text>
<polygon fill="#bfbfbf" stroke="#bfbfbf" points="159.5,-470.5 159.5,-470.5 304.5,-470.5 304.5,-470.5 159.5,-470.5"/>
<polygon fill="#bfbfbf" stroke="#bfbfbf" points="159.5,-455.5 159.5,-455.5 304.5,-455.5 304.5,-455.5 159.5,-455.5"/>
<polygon fill="none" stroke="#bfbfbf" points="159,-439 159,-510 304,-510 304,-439 159,-439"/>
</a>
</g>
</g>
<!-- Node3&#45;&gt;Node4 -->
<g id="edge4_Node000004_Node000003" class="edge">
<title>Node3&#45;&gt;Node4</title>
<g id="a_edge4_Node000004_Node000003"><a xlink:title=" ">
<path fill="none" stroke="#63b8ff" d="M177.39,-628.47C191.55,-588.43 208.23,-541.29 219.29,-510.03"/>
<polygon fill="none" stroke="#63b8ff" points="174.07,-627.36 174.04,-637.96 180.67,-629.7 174.07,-627.36"/>
</a>
</g>
</g>
<!-- Node4&#45;&gt;Node1 -->
<g id="edge3_Node000001_Node000004" class="edge">
<title>Node4&#45;&gt;Node1</title>
<g id="a_edge3_Node000001_Node000004"><a xlink:title=" ">
<path fill="none" stroke="#63b8ff" d="M220.11,-428.93C212.17,-397.85 201.06,-354.38 190.05,-311.28"/>
<polygon fill="none" stroke="#63b8ff" points="216.81,-430.15 222.68,-438.97 223.59,-428.42 216.81,-430.15"/>
</a>
</g>
</g>
</g>
</svg>
