<?xml version="1.0" encoding="UTF-8" standalone="no"?>
<!DOCTYPE svg PUBLIC "-//W3C//DTD SVG 1.1//EN"
 "http://www.w3.org/Graphics/SVG/1.1/DTD/svg11.dtd">
<!-- Generated by graphviz version 2.43.0 (0)
 -->
<!-- Title: pocketmine\network\mcpe\protocol\CraftingDataPacket Pages: 1 -->
<!--zoomable 736 -->

<svg id="main" version="1.1" xmlns="http://www.w3.org/2000/svg" xmlns:xlink="http://www.w3.org/1999/xlink" xml:space="preserve" onload="init(evt)">

<style type="text/css"><![CDATA[
.node, .edge {opacity: 0.7;}
.node.selected, .edge.selected {opacity: 1;}
.edge:hover path { stroke: red; }
.edge:hover polygon { stroke: red; fill: red; }
]]></style>

<defs>
  <circle id="rim" cx="0" cy="0" r="7"/>
  <circle id="rim2" cx="0" cy="0" r="3.5"/>
  <g id="zoomPlus">
    <use xlink:href="#rim" fill="#404040"><set attributeName="fill" to="#808080" begin="zoomplus.mouseover" end="zoomplus.mouseout"/></use>
    <path d="M-4,0h8M0,-4v8" fill="none" stroke="white" stroke-width="1.5" pointer-events="none"/>
  </g>
  <g id="zoomMin">
    <use xlink:href="#rim" fill="#404040"><set attributeName="fill" to="#808080" begin="zoomminus.mouseover" end="zoomminus.mouseout"/></use>
    <path d="M-4,0h8" fill="none" stroke="white" stroke-width="1.5" pointer-events="none"/>
  </g>
  <g id="arrowUp" transform="translate(30 24)">
    <use xlink:href="#rim"/>
    <path pointer-events="none" fill="none" stroke="white" stroke-width="1.5" d="M0,-3.0v7 M-2.5,-0.5L0,-3.0L2.5,-0.5"/>
  </g>
  <g id="arrowRight" transform="rotate(90) translate(36 -43)">
    <use xlink:href="#rim"/>
    <path pointer-events="none" fill="none" stroke="white" stroke-width="1.5" d="M0,-3.0v7 M-2.5,-0.5L0,-3.0L2.5,-0.5"/>
  </g>
  <g id="arrowDown" transform="rotate(180) translate(-30 -48)">
    <use xlink:href="#rim"/>
    <path pointer-events="none" fill="none" stroke="white" stroke-width="1.5" d="M0,-3.0v7 M-2.5,-0.5L0,-3.0L2.5,-0.5"/>
  </g>
  <g id="arrowLeft" transform="rotate(270) translate(-36 17)">
    <use xlink:href="#rim"/>
    <path pointer-events="none" fill="none" stroke="white" stroke-width="1.5" d="M0,-3.0v7 M-2.5,-0.5L0,-3.0L2.5,-0.5"/>
  </g>
  <g id="resetDef">
    <use xlink:href="#rim2" fill="#404040"><set attributeName="fill" to="#808080" begin="reset.mouseover" end="reset.mouseout"/></use>
  </g>
</defs>
<script type="application/ecmascript">
var viewWidth = 312;
var viewHeight = 736;
var sectionId = 'dynsection-1';
</script>
<script type="application/ecmascript" xlink:href="../../svg.min.js"/>
<svg id="graph" class="graph">
<g id="viewport">
<title>pocketmine\network\mcpe\protocol\CraftingDataPacket</title>
<!-- Node1 -->
<g id="Node000001" class="node">
<title>Node1</title>
<g id="a_Node000001"><a xlink:title=" ">
<polygon fill="#999999" stroke="transparent" points="230.5,-266 70.5,-266 70.5,0 230.5,0 230.5,-266"/>
<text text-anchor="start" x="81.5" y="-254" font-family="Helvetica,sans-Serif" font-size="10.00">pocketmine\network</text>
<text text-anchor="start" x="81.5" y="-243" font-family="Helvetica,sans-Serif" font-size="10.00">\mcpe\protocol\CraftingData</text>
<text text-anchor="start" x="134.5" y="-232" font-family="Helvetica,sans-Serif" font-size="10.00">Packet</text>
<text text-anchor="start" x="74.5" y="-217" font-family="Helvetica,sans-Serif" font-size="10.00">+</text>
<text text-anchor="start" x="87.5" y="-217" font-family="Helvetica,sans-Serif" font-size="10.00">$cleanRecipes</text>
<text text-anchor="start" x="74.5" y="-202" font-family="Helvetica,sans-Serif" font-size="10.00">+</text>
<text text-anchor="start" x="87.5" y="-202" font-family="Helvetica,sans-Serif" font-size="10.00">$materialReducerRecipes</text>
<text text-anchor="start" x="74.5" y="-187" font-family="Helvetica,sans-Serif" font-size="10.00">+</text>
<text text-anchor="start" x="87.5" y="-187" font-family="Helvetica,sans-Serif" font-size="10.00">$potionContainerRecipes</text>
<text text-anchor="start" x="74.5" y="-172" font-family="Helvetica,sans-Serif" font-size="10.00">+</text>
<text text-anchor="start" x="87.5" y="-172" font-family="Helvetica,sans-Serif" font-size="10.00">$potionTypeRecipes</text>
<text text-anchor="start" x="74.5" y="-157" font-family="Helvetica,sans-Serif" font-size="10.00">+</text>
<text text-anchor="start" x="87.5" y="-157" font-family="Helvetica,sans-Serif" font-size="10.00">$recipesWithTypeIds</text>
<text text-anchor="start" x="74.5" y="-142" font-family="Helvetica,sans-Serif" font-size="10.00">+</text>
<text text-anchor="start" x="87.5" y="-142" font-family="Helvetica,sans-Serif" font-size="10.00">ENTRY_FURNACE</text>
<text text-anchor="start" x="74.5" y="-127" font-family="Helvetica,sans-Serif" font-size="10.00">+</text>
<text text-anchor="start" x="87.5" y="-127" font-family="Helvetica,sans-Serif" font-size="10.00">ENTRY_FURNACE_DATA</text>
<text text-anchor="start" x="74.5" y="-112" font-family="Helvetica,sans-Serif" font-size="10.00">+</text>
<text text-anchor="start" x="87.5" y="-112" font-family="Helvetica,sans-Serif" font-size="10.00">ENTRY_MULTI</text>
<text text-anchor="start" x="74.5" y="-97" font-family="Helvetica,sans-Serif" font-size="10.00">+</text>
<text text-anchor="start" x="87.5" y="-97" font-family="Helvetica,sans-Serif" font-size="10.00">ENTRY_SHAPED</text>
<text text-anchor="start" x="74.5" y="-82" font-family="Helvetica,sans-Serif" font-size="10.00">+</text>
<text text-anchor="start" x="87.5" y="-82" font-family="Helvetica,sans-Serif" font-size="10.00">ENTRY_SHAPED_CHEMISTRY</text>
<text text-anchor="start" x="87.5" y="-67" font-family="Helvetica,sans-Serif" font-size="10.00">and 6 more...</text>
<text text-anchor="start" x="74.5" y="-52" font-family="Helvetica,sans-Serif" font-size="10.00">+</text>
<text text-anchor="start" x="87.5" y="-52" font-family="Helvetica,sans-Serif" font-size="10.00">handle()</text>
<text text-anchor="start" x="74.5" y="-37" font-family="Helvetica,sans-Serif" font-size="10.00">+</text>
<text text-anchor="start" x="87.5" y="-37" font-family="Helvetica,sans-Serif" font-size="10.00">create()</text>
<text text-anchor="start" x="74.5" y="-22" font-family="Helvetica,sans-Serif" font-size="10.00">#</text>
<text text-anchor="start" x="87.5" y="-22" font-family="Helvetica,sans-Serif" font-size="10.00">decodePayload()</text>
<text text-anchor="start" x="74.5" y="-7" font-family="Helvetica,sans-Serif" font-size="10.00">#</text>
<text text-anchor="start" x="87.5" y="-7" font-family="Helvetica,sans-Serif" font-size="10.00">encodePayload()</text>
<polygon fill="#666666" stroke="#666666" points="70.5,-227 70.5,-227 230.5,-227 230.5,-227 70.5,-227"/>
<polygon fill="#666666" stroke="#666666" points="70.5,-62 70.5,-62 85.5,-62 85.5,-62 70.5,-62"/>
<polygon fill="#666666" stroke="#666666" points="85.5,-62 85.5,-62 230.5,-62 230.5,-62 85.5,-62"/>
<polygon fill="none" stroke="#666666" points="70.5,0 70.5,-266 230.5,-266 230.5,0 70.5,0"/>
</a>
</g>
</g>
<!-- Node2 -->
<g id="Node000002" class="node">
<title>Node2</title>
<g id="a_Node000002"><a xlink:href="../../d1/ddb/classpocketmine_1_1network_1_1mcpe_1_1protocol_1_1_data_packet.html" target="_top" xlink:title=" ">
<polygon fill="white" stroke="transparent" points="141,-557 0,-557 0,-302 141,-302 141,-557"/>
<text text-anchor="start" x="5.5" y="-544.5" font-family="Helvetica,sans-Serif" font-size="10.00">pocketmine\network</text>
<text text-anchor="start" x="5.5" y="-533.5" font-family="Helvetica,sans-Serif" font-size="10.00">\mcpe\protocol\DataPacket</text>
<text text-anchor="start" x="5" y="-518.5" font-family="Helvetica,sans-Serif" font-size="10.00">+</text>
<text text-anchor="start" x="18.5" y="-518.5" font-family="Helvetica,sans-Serif" font-size="10.00">$recipientSubId</text>
<text text-anchor="start" x="5" y="-503.5" font-family="Helvetica,sans-Serif" font-size="10.00">+</text>
<text text-anchor="start" x="18.5" y="-503.5" font-family="Helvetica,sans-Serif" font-size="10.00">$senderSubId</text>
<text text-anchor="start" x="5" y="-488.5" font-family="Helvetica,sans-Serif" font-size="10.00">+</text>
<text text-anchor="start" x="18.5" y="-488.5" font-family="Helvetica,sans-Serif" font-size="10.00">NETWORK_ID</text>
<text text-anchor="start" x="5" y="-473.5" font-family="Helvetica,sans-Serif" font-size="10.00">+</text>
<text text-anchor="start" x="18.5" y="-473.5" font-family="Helvetica,sans-Serif" font-size="10.00">PID_MASK</text>
<text text-anchor="start" x="5" y="-458.5" font-family="Helvetica,sans-Serif" font-size="10.00">+</text>
<text text-anchor="start" x="18.5" y="-458.5" font-family="Helvetica,sans-Serif" font-size="10.00">__get()</text>
<text text-anchor="start" x="5" y="-443.5" font-family="Helvetica,sans-Serif" font-size="10.00">+</text>
<text text-anchor="start" x="18.5" y="-443.5" font-family="Helvetica,sans-Serif" font-size="10.00">__set()</text>
<text text-anchor="start" x="5" y="-428.5" font-family="Helvetica,sans-Serif" font-size="10.00">+</text>
<text text-anchor="start" x="18.5" y="-428.5" font-family="Helvetica,sans-Serif" font-size="10.00">canBeSentBeforeLogin()</text>
<text text-anchor="start" x="5" y="-413.5" font-family="Helvetica,sans-Serif" font-size="10.00">+</text>
<text text-anchor="start" x="18.5" y="-413.5" font-family="Helvetica,sans-Serif" font-size="10.00">decode()</text>
<text text-anchor="start" x="5" y="-398.5" font-family="Helvetica,sans-Serif" font-size="10.00">+</text>
<text text-anchor="start" x="18.5" y="-398.5" font-family="Helvetica,sans-Serif" font-size="10.00">encode()</text>
<text text-anchor="start" x="5" y="-383.5" font-family="Helvetica,sans-Serif" font-size="10.00">+</text>
<text text-anchor="start" x="18.5" y="-383.5" font-family="Helvetica,sans-Serif" font-size="10.00">getName()</text>
<text text-anchor="start" x="5" y="-368.5" font-family="Helvetica,sans-Serif" font-size="10.00">+</text>
<text text-anchor="start" x="18.5" y="-368.5" font-family="Helvetica,sans-Serif" font-size="10.00">pid()</text>
<text text-anchor="start" x="5" y="-353.5" font-family="Helvetica,sans-Serif" font-size="10.00">#</text>
<text text-anchor="start" x="18.5" y="-353.5" font-family="Helvetica,sans-Serif" font-size="10.00">decodeHeader()</text>
<text text-anchor="start" x="5" y="-338.5" font-family="Helvetica,sans-Serif" font-size="10.00">#</text>
<text text-anchor="start" x="18.5" y="-338.5" font-family="Helvetica,sans-Serif" font-size="10.00">decodePayload()</text>
<text text-anchor="start" x="5" y="-323.5" font-family="Helvetica,sans-Serif" font-size="10.00">#</text>
<text text-anchor="start" x="18.5" y="-323.5" font-family="Helvetica,sans-Serif" font-size="10.00">encodeHeader()</text>
<text text-anchor="start" x="5" y="-308.5" font-family="Helvetica,sans-Serif" font-size="10.00">#</text>
<text text-anchor="start" x="18.5" y="-308.5" font-family="Helvetica,sans-Serif" font-size="10.00">encodePayload()</text>
<polygon fill="#bfbfbf" stroke="#bfbfbf" points="0.5,-528.5 0.5,-528.5 141.5,-528.5 141.5,-528.5 0.5,-528.5"/>
<polygon fill="#bfbfbf" stroke="#bfbfbf" points="0.5,-468.5 0.5,-468.5 16.5,-468.5 16.5,-468.5 0.5,-468.5"/>
<polygon fill="#bfbfbf" stroke="#bfbfbf" points="16.5,-468.5 16.5,-468.5 141.5,-468.5 141.5,-468.5 16.5,-468.5"/>
<polygon fill="none" stroke="#bfbfbf" points="0,-302 0,-557 141,-557 141,-302 0,-302"/>
</a>
</g>
</g>
<!-- Node2&#45;&gt;Node1 -->
<g id="edge1_Node000001_Node000002" class="edge">
<title>Node2&#45;&gt;Node1</title>
<g id="a_edge1_Node000001_Node000002"><a xlink:title=" ">
<path fill="none" stroke="#63b8ff" d="M107.54,-292.14C109.89,-283.48 112.26,-274.76 114.61,-266.12"/>
<polygon fill="none" stroke="#63b8ff" points="104.14,-291.33 104.89,-301.9 110.89,-293.16 104.14,-291.33"/>
</a>
</g>
</g>
<!-- Node3 -->
<g id="Node000003" class="node">
<title>Node3</title>
<g id="a_Node000003"><a xlink:href="../../d4/d5d/interfacepocketmine_1_1network_1_1mcpe_1_1protocol_1_1_packet.html" target="_top" xlink:title=" ">
<polygon fill="white" stroke="transparent" points="220,-728 81,-728 81,-593 220,-593 220,-728"/>
<text text-anchor="start" x="97" y="-715.5" font-family="Helvetica,sans-Serif" font-size="10.00">pocketmine\network</text>
<text text-anchor="start" x="97" y="-704.5" font-family="Helvetica,sans-Serif" font-size="10.00">\mcpe\protocol\Packet</text>
<text text-anchor="start" x="149" y="-689.5" font-family="Helvetica,sans-Serif" font-size="10.00"> </text>
<text text-anchor="start" x="85.5" y="-674.5" font-family="Helvetica,sans-Serif" font-size="10.00">+</text>
<text text-anchor="start" x="98.5" y="-674.5" font-family="Helvetica,sans-Serif" font-size="10.00">canBeSentBeforeLogin()</text>
<text text-anchor="start" x="85.5" y="-659.5" font-family="Helvetica,sans-Serif" font-size="10.00">+</text>
<text text-anchor="start" x="98.5" y="-659.5" font-family="Helvetica,sans-Serif" font-size="10.00">decode()</text>
<text text-anchor="start" x="85.5" y="-644.5" font-family="Helvetica,sans-Serif" font-size="10.00">+</text>
<text text-anchor="start" x="98.5" y="-644.5" font-family="Helvetica,sans-Serif" font-size="10.00">encode()</text>
<text text-anchor="start" x="85.5" y="-629.5" font-family="Helvetica,sans-Serif" font-size="10.00">+</text>
<text text-anchor="start" x="98.5" y="-629.5" font-family="Helvetica,sans-Serif" font-size="10.00">getName()</text>
<text text-anchor="start" x="85.5" y="-614.5" font-family="Helvetica,sans-Serif" font-size="10.00">+</text>
<text text-anchor="start" x="98.5" y="-614.5" font-family="Helvetica,sans-Serif" font-size="10.00">handle()</text>
<text text-anchor="start" x="85.5" y="-599.5" font-family="Helvetica,sans-Serif" font-size="10.00">+</text>
<text text-anchor="start" x="98.5" y="-599.5" font-family="Helvetica,sans-Serif" font-size="10.00">pid()</text>
<polygon fill="#bfbfbf" stroke="#bfbfbf" points="81.5,-699.5 81.5,-699.5 220.5,-699.5 220.5,-699.5 81.5,-699.5"/>
<polygon fill="#bfbfbf" stroke="#bfbfbf" points="81.5,-684.5 81.5,-684.5 220.5,-684.5 220.5,-684.5 81.5,-684.5"/>
<polygon fill="none" stroke="#bfbfbf" points="81,-593 81,-728 220,-728 220,-593 81,-593"/>
</a>
</g>
</g>
<!-- Node3&#45;&gt;Node2 -->
<g id="edge2_Node000002_Node000003" class="edge">
<title>Node3&#45;&gt;Node2</title>
<g id="a_edge2_Node000002_Node000003"><a xlink:title=" ">
<path fill="none" stroke="#63b8ff" d="M123.94,-583.48C120.96,-574.95 117.87,-566.11 114.75,-557.16"/>
<polygon fill="none" stroke="#63b8ff" points="120.65,-584.67 127.25,-592.96 127.26,-582.36 120.65,-584.67"/>
</a>
</g>
</g>
<!-- Node4 -->
<g id="Node000004" class="node">
<title>Node4</title>
<g id="a_Node000004"><a xlink:href="../../da/d77/interfacepocketmine_1_1network_1_1mcpe_1_1protocol_1_1_clientbound_packet.html" target="_top" xlink:title=" ">
<polygon fill="white" stroke="transparent" points="304,-465 159,-465 159,-394 304,-394 304,-465"/>
<text text-anchor="start" x="164.5" y="-452.5" font-family="Helvetica,sans-Serif" font-size="10.00">pocketmine\network</text>
<text text-anchor="start" x="164.5" y="-441.5" font-family="Helvetica,sans-Serif" font-size="10.00">\mcpe\protocol\Clientbound</text>
<text text-anchor="start" x="216" y="-430.5" font-family="Helvetica,sans-Serif" font-size="10.00">Packet</text>
<text text-anchor="start" x="230" y="-415.5" font-family="Helvetica,sans-Serif" font-size="10.00"> </text>
<text text-anchor="start" x="230" y="-400.5" font-family="Helvetica,sans-Serif" font-size="10.00"> </text>
<polygon fill="#bfbfbf" stroke="#bfbfbf" points="159.5,-425.5 159.5,-425.5 304.5,-425.5 304.5,-425.5 159.5,-425.5"/>
<polygon fill="#bfbfbf" stroke="#bfbfbf" points="159.5,-410.5 159.5,-410.5 304.5,-410.5 304.5,-410.5 159.5,-410.5"/>
<polygon fill="none" stroke="#bfbfbf" points="159,-394 159,-465 304,-465 304,-394 159,-394"/>
</a>
</g>
</g>
<!-- Node3&#45;&gt;Node4 -->
<g id="edge4_Node000004_Node000003" class="edge">
<title>Node3&#45;&gt;Node4</title>
<g id="a_edge4_Node000004_Node000003"><a xlink:title=" ">
<path fill="none" stroke="#63b8ff" d="M177.39,-583.47C191.55,-543.43 208.23,-496.29 219.29,-465.03"/>
<polygon fill="none" stroke="#63b8ff" points="174.07,-582.36 174.04,-592.96 180.67,-584.7 174.07,-582.36"/>
</a>
</g>
</g>
<!-- Node4&#45;&gt;Node1 -->
<g id="edge3_Node000001_Node000004" class="edge">
<title>Node4&#45;&gt;Node1</title>
<g id="a_edge3_Node000001_Node000004"><a xlink:title=" ">
<path fill="none" stroke="#63b8ff" d="M219.28,-384.09C210.63,-352.6 198.52,-308.59 186.88,-266.25"/>
<polygon fill="none" stroke="#63b8ff" points="215.94,-385.14 221.97,-393.85 222.69,-383.28 215.94,-385.14"/>
</a>
</g>
</g>
</g>
</svg>

<g id="navigator" transform="translate(0 0)" fill="#404254">
  <rect fill="#f2f5e9" fill-opacity="0.5" stroke="#606060" stroke-width=".5" x="0" y="0" width="60" height="60"/>
  <use id="zoomplus" xlink:href="#zoomPlus" x="17" y="9" onmousedown="handleZoom(evt,'in')"/>
  <use id="zoomminus" xlink:href="#zoomMin" x="42" y="9" onmousedown="handleZoom(evt,'out')"/>
  <use id="reset" xlink:href="#resetDef" x="30" y="36" onmousedown="handleReset()"/>
   <use id="arrowup" xlink:href="#arrowUp" x="0" y="0" onmousedown="handlePan(0,-1)"/>
  <use id="arrowright" xlink:href="#arrowRight" x="0" y="0" onmousedown="handlePan(1,0)"/>
  <use id="arrowdown" xlink:href="#arrowDown" x="0" y="0" onmousedown="handlePan(0,1)"/>
  <use id="arrowleft" xlink:href="#arrowLeft" x="0" y="0" onmousedown="handlePan(-1,0)"/>
</g>
<svg viewBox="0 0 15 15" width="100%" height="30px" preserveAspectRatio="xMaxYMin meet">
 <g id="arrow_out" transform="scale(0.3 0.3)">
  <a xlink:href="classpocketmine_1_1network_1_1mcpe_1_1protocol_1_1_crafting_data_packet__coll__graph_org.svg" target="_base">
   <rect id="button" ry="5" rx="5" y="6" x="6" height="38" width="38"
        fill="#f2f5e9" fill-opacity="0.5" stroke="#606060" stroke-width="1.0"/>
   <path id="arrow"
     d="M 11.500037,31.436501 C 11.940474,20.09759 22.043105,11.32322 32.158766,21.979434 L 37.068811,17.246167 C 37.068811,17.246167 37.088388,32 37.088388,32 L 22.160133,31.978069 C 22.160133,31.978069 26.997745,27.140456 26.997745,27.140456 C 18.528582,18.264221 13.291696,25.230495 11.500037,31.436501 z"
     style="fill:#404040;"/>
  </a>
 </g>
</svg>

<style type='text/css'>
<![CDATA[
[data-mouse-over-selected='false'] { opacity: 0.7; }
[data-mouse-over-selected='true']  { opacity: 1.0; }
]]>
</style>
<script type="application/ecmascript"><![CDATA[
document.addEventListener('DOMContentLoaded', (event) => {
  highlightEdges();
  highlightAdjacentNodes();
});
]]></script>
</svg>
