<?xml version="1.0" encoding="UTF-8" standalone="no"?>
<!DOCTYPE svg PUBLIC "-//W3C//DTD SVG 1.1//EN"
 "http://www.w3.org/Graphics/SVG/1.1/DTD/svg11.dtd">
<!-- Generated by graphviz version 2.43.0 (0)
 -->
<!-- Title: pocketmine\block\inventory\CraftingTableInventory Pages: 1 -->
<!--zoomable 1067 -->

<svg id="main" version="1.1" xmlns="http://www.w3.org/2000/svg" xmlns:xlink="http://www.w3.org/1999/xlink" xml:space="preserve" onload="init(evt)">

<style type="text/css"><![CDATA[
.node, .edge {opacity: 0.7;}
.node.selected, .edge.selected {opacity: 1;}
.edge:hover path { stroke: red; }
.edge:hover polygon { stroke: red; fill: red; }
]]></style>

<defs>
  <circle id="rim" cx="0" cy="0" r="7"/>
  <circle id="rim2" cx="0" cy="0" r="3.5"/>
  <g id="zoomPlus">
    <use xlink:href="#rim" fill="#404040"><set attributeName="fill" to="#808080" begin="zoomplus.mouseover" end="zoomplus.mouseout"/></use>
    <path d="M-4,0h8M0,-4v8" fill="none" stroke="white" stroke-width="1.5" pointer-events="none"/>
  </g>
  <g id="zoomMin">
    <use xlink:href="#rim" fill="#404040"><set attributeName="fill" to="#808080" begin="zoomminus.mouseover" end="zoomminus.mouseout"/></use>
    <path d="M-4,0h8" fill="none" stroke="white" stroke-width="1.5" pointer-events="none"/>
  </g>
  <g id="arrowUp" transform="translate(30 24)">
    <use xlink:href="#rim"/>
    <path pointer-events="none" fill="none" stroke="white" stroke-width="1.5" d="M0,-3.0v7 M-2.5,-0.5L0,-3.0L2.5,-0.5"/>
  </g>
  <g id="arrowRight" transform="rotate(90) translate(36 -43)">
    <use xlink:href="#rim"/>
    <path pointer-events="none" fill="none" stroke="white" stroke-width="1.5" d="M0,-3.0v7 M-2.5,-0.5L0,-3.0L2.5,-0.5"/>
  </g>
  <g id="arrowDown" transform="rotate(180) translate(-30 -48)">
    <use xlink:href="#rim"/>
    <path pointer-events="none" fill="none" stroke="white" stroke-width="1.5" d="M0,-3.0v7 M-2.5,-0.5L0,-3.0L2.5,-0.5"/>
  </g>
  <g id="arrowLeft" transform="rotate(270) translate(-36 17)">
    <use xlink:href="#rim"/>
    <path pointer-events="none" fill="none" stroke="white" stroke-width="1.5" d="M0,-3.0v7 M-2.5,-0.5L0,-3.0L2.5,-0.5"/>
  </g>
  <g id="resetDef">
    <use xlink:href="#rim2" fill="#404040"><set attributeName="fill" to="#808080" begin="reset.mouseover" end="reset.mouseout"/></use>
  </g>
</defs>
<script type="application/ecmascript">
var viewWidth = 388;
var viewHeight = 1067;
var sectionId = 'dynsection-0';
</script>
<script type="application/ecmascript" xlink:href="../../svg.min.js"/>
<svg id="graph" class="graph">
<g id="viewport">
<title>pocketmine\block\inventory\CraftingTableInventory</title>
<!-- Node1 -->
<g id="Node000001" class="node">
<title>Node1</title>
<g id="a_Node000001"><a xlink:title=" ">
<polygon fill="#999999" stroke="transparent" points="278.5,-60 132.5,-60 132.5,0 278.5,0 278.5,-60"/>
<text text-anchor="start" x="137.5" y="-48" font-family="Helvetica,sans-Serif" font-size="10.00">pocketmine\block\inventory</text>
<text text-anchor="start" x="148.5" y="-37" font-family="Helvetica,sans-Serif" font-size="10.00">\CraftingTableInventory</text>
<text text-anchor="start" x="203.5" y="-22" font-family="Helvetica,sans-Serif" font-size="10.00"> </text>
<text text-anchor="start" x="151.5" y="-7" font-family="Helvetica,sans-Serif" font-size="10.00">+</text>
<text text-anchor="start" x="179.5" y="-7" font-family="Helvetica,sans-Serif" font-size="10.00">__construct()</text>
<polygon fill="#666666" stroke="#666666" points="132.5,-32 132.5,-32 278.5,-32 278.5,-32 132.5,-32"/>
<polygon fill="#666666" stroke="#666666" points="132.5,-17 132.5,-17 278.5,-17 278.5,-17 132.5,-17"/>
<polygon fill="none" stroke="#666666" points="132.5,0 132.5,-60 278.5,-60 278.5,0 132.5,0"/>
</a>
</g>
</g>
<!-- Node2 -->
<g id="Node000002" class="node">
<title>Node2</title>
<g id="a_Node000002"><a xlink:href="../../de/d7a/classpocketmine_1_1crafting_1_1_crafting_grid.html" target="_top" xlink:title=" ">
<polygon fill="white" stroke="transparent" points="161.5,-246 51.5,-246 51.5,-96 161.5,-96 161.5,-246"/>
<text text-anchor="start" x="58" y="-234" font-family="Helvetica,sans-Serif" font-size="10.00">pocketmine\crafting</text>
<text text-anchor="start" x="75.5" y="-223" font-family="Helvetica,sans-Serif" font-size="10.00">\CraftingGrid</text>
<text text-anchor="start" x="55.5" y="-208" font-family="Helvetica,sans-Serif" font-size="10.00">+</text>
<text text-anchor="start" x="68.5" y="-208" font-family="Helvetica,sans-Serif" font-size="10.00">SIZE_BIG</text>
<text text-anchor="start" x="55.5" y="-193" font-family="Helvetica,sans-Serif" font-size="10.00">+</text>
<text text-anchor="start" x="68.5" y="-193" font-family="Helvetica,sans-Serif" font-size="10.00">SIZE_SMALL</text>
<text text-anchor="start" x="55.5" y="-178" font-family="Helvetica,sans-Serif" font-size="10.00">+</text>
<text text-anchor="start" x="68.5" y="-178" font-family="Helvetica,sans-Serif" font-size="10.00">__construct()</text>
<text text-anchor="start" x="55.5" y="-163" font-family="Helvetica,sans-Serif" font-size="10.00">+</text>
<text text-anchor="start" x="68.5" y="-163" font-family="Helvetica,sans-Serif" font-size="10.00">getGridWidth()</text>
<text text-anchor="start" x="55.5" y="-148" font-family="Helvetica,sans-Serif" font-size="10.00">+</text>
<text text-anchor="start" x="68.5" y="-148" font-family="Helvetica,sans-Serif" font-size="10.00">getIngredient()</text>
<text text-anchor="start" x="55.5" y="-133" font-family="Helvetica,sans-Serif" font-size="10.00">+</text>
<text text-anchor="start" x="68.5" y="-133" font-family="Helvetica,sans-Serif" font-size="10.00">getRecipeHeight()</text>
<text text-anchor="start" x="55.5" y="-118" font-family="Helvetica,sans-Serif" font-size="10.00">+</text>
<text text-anchor="start" x="68.5" y="-118" font-family="Helvetica,sans-Serif" font-size="10.00">getRecipeWidth()</text>
<text text-anchor="start" x="55.5" y="-103" font-family="Helvetica,sans-Serif" font-size="10.00">+</text>
<text text-anchor="start" x="68.5" y="-103" font-family="Helvetica,sans-Serif" font-size="10.00">setItem()</text>
<polygon fill="#bfbfbf" stroke="#bfbfbf" points="51.5,-218 51.5,-218 161.5,-218 161.5,-218 51.5,-218"/>
<polygon fill="#bfbfbf" stroke="#bfbfbf" points="51.5,-188 51.5,-188 66.5,-188 66.5,-188 51.5,-188"/>
<polygon fill="#bfbfbf" stroke="#bfbfbf" points="66.5,-188 66.5,-188 161.5,-188 161.5,-188 66.5,-188"/>
<polygon fill="none" stroke="#bfbfbf" points="51.5,-96 51.5,-246 161.5,-246 161.5,-96 51.5,-96"/>
</a>
</g>
</g>
<!-- Node2&#45;&gt;Node1 -->
<g id="edge1_Node000001_Node000002" class="edge">
<title>Node2&#45;&gt;Node1</title>
<g id="a_edge1_Node000001_Node000002"><a xlink:title=" ">
<path fill="none" stroke="#63b8ff" d="M165.36,-87.36C172.3,-77.62 178.99,-68.23 184.84,-60"/>
<polygon fill="none" stroke="#63b8ff" points="162.43,-85.44 159.48,-95.62 168.13,-89.5 162.43,-85.44"/>
</a>
</g>
</g>
<!-- Node3 -->
<g id="Node000003" class="node">
<title>Node3</title>
<g id="a_Node000003"><a xlink:href="../../d6/dc1/classpocketmine_1_1inventory_1_1_simple_inventory.html" target="_top" xlink:title=" ">
<polygon fill="white" stroke="transparent" points="145,-447 4,-447 4,-282 145,-282 145,-447"/>
<text text-anchor="start" x="21.5" y="-434.5" font-family="Helvetica,sans-Serif" font-size="10.00">pocketmine\inventory</text>
<text text-anchor="start" x="33" y="-423.5" font-family="Helvetica,sans-Serif" font-size="10.00">\SimpleInventory</text>
<text text-anchor="start" x="8.5" y="-408.5" font-family="Helvetica,sans-Serif" font-size="10.00">#</text>
<text text-anchor="start" x="21.5" y="-408.5" font-family="Helvetica,sans-Serif" font-size="10.00">$slots</text>
<text text-anchor="start" x="8.5" y="-393.5" font-family="Helvetica,sans-Serif" font-size="10.00">+</text>
<text text-anchor="start" x="21.5" y="-393.5" font-family="Helvetica,sans-Serif" font-size="10.00">__construct()</text>
<text text-anchor="start" x="8.5" y="-378.5" font-family="Helvetica,sans-Serif" font-size="10.00">+</text>
<text text-anchor="start" x="21.5" y="-378.5" font-family="Helvetica,sans-Serif" font-size="10.00">getContents()</text>
<text text-anchor="start" x="8.5" y="-363.5" font-family="Helvetica,sans-Serif" font-size="10.00">+</text>
<text text-anchor="start" x="21.5" y="-363.5" font-family="Helvetica,sans-Serif" font-size="10.00">getItem()</text>
<text text-anchor="start" x="8.5" y="-348.5" font-family="Helvetica,sans-Serif" font-size="10.00">+</text>
<text text-anchor="start" x="21.5" y="-348.5" font-family="Helvetica,sans-Serif" font-size="10.00">getSize()</text>
<text text-anchor="start" x="8.5" y="-333.5" font-family="Helvetica,sans-Serif" font-size="10.00">+</text>
<text text-anchor="start" x="21.5" y="-333.5" font-family="Helvetica,sans-Serif" font-size="10.00">isSlotEmpty()</text>
<text text-anchor="start" x="8.5" y="-318.5" font-family="Helvetica,sans-Serif" font-size="10.00">#</text>
<text text-anchor="start" x="21.5" y="-318.5" font-family="Helvetica,sans-Serif" font-size="10.00">getMatchingItemCount()</text>
<text text-anchor="start" x="8.5" y="-303.5" font-family="Helvetica,sans-Serif" font-size="10.00">#</text>
<text text-anchor="start" x="21.5" y="-303.5" font-family="Helvetica,sans-Serif" font-size="10.00">internalSetContents()</text>
<text text-anchor="start" x="8.5" y="-288.5" font-family="Helvetica,sans-Serif" font-size="10.00">#</text>
<text text-anchor="start" x="21.5" y="-288.5" font-family="Helvetica,sans-Serif" font-size="10.00">internalSetItem()</text>
<polygon fill="#666666" stroke="#666666" points="4.5,-418.5 4.5,-418.5 145.5,-418.5 145.5,-418.5 4.5,-418.5"/>
<polygon fill="#666666" stroke="#666666" points="4.5,-403.5 4.5,-403.5 19.5,-403.5 19.5,-403.5 4.5,-403.5"/>
<polygon fill="#666666" stroke="#666666" points="19.5,-403.5 19.5,-403.5 145.5,-403.5 145.5,-403.5 19.5,-403.5"/>
<polygon fill="none" stroke="#666666" points="4,-282 4,-447 145,-447 145,-282 4,-282"/>
</a>
</g>
</g>
<!-- Node3&#45;&gt;Node2 -->
<g id="edge2_Node000002_Node000003" class="edge">
<title>Node3&#45;&gt;Node2</title>
<g id="a_edge2_Node000002_Node000003"><a xlink:title=" ">
<path fill="none" stroke="#63b8ff" d="M89.84,-271.73C91.26,-263.18 92.7,-254.59 94.1,-246.22"/>
<polygon fill="none" stroke="#63b8ff" points="86.36,-271.29 88.16,-281.73 93.26,-272.44 86.36,-271.29"/>
</a>
</g>
</g>
<!-- Node4 -->
<g id="Node000004" class="node">
<title>Node4</title>
<g id="a_Node000004"><a xlink:href="../../d5/dc4/classpocketmine_1_1inventory_1_1_base_inventory.html" target="_top" xlink:title=" ">
<polygon fill="white" stroke="transparent" points="149,-813 0,-813 0,-483 149,-483 149,-813"/>
<text text-anchor="start" x="21.5" y="-801" font-family="Helvetica,sans-Serif" font-size="10.00">pocketmine\inventory</text>
<text text-anchor="start" x="38" y="-790" font-family="Helvetica,sans-Serif" font-size="10.00">\BaseInventory</text>
<text text-anchor="start" x="4.5" y="-775" font-family="Helvetica,sans-Serif" font-size="10.00">#</text>
<text text-anchor="start" x="17.5" y="-775" font-family="Helvetica,sans-Serif" font-size="10.00">$listeners</text>
<text text-anchor="start" x="4.5" y="-760" font-family="Helvetica,sans-Serif" font-size="10.00">#</text>
<text text-anchor="start" x="17.5" y="-760" font-family="Helvetica,sans-Serif" font-size="10.00">$maxStackSize</text>
<text text-anchor="start" x="4.5" y="-745" font-family="Helvetica,sans-Serif" font-size="10.00">#</text>
<text text-anchor="start" x="17.5" y="-745" font-family="Helvetica,sans-Serif" font-size="10.00">$validators</text>
<text text-anchor="start" x="4.5" y="-730" font-family="Helvetica,sans-Serif" font-size="10.00">#</text>
<text text-anchor="start" x="17.5" y="-730" font-family="Helvetica,sans-Serif" font-size="10.00">$viewers</text>
<text text-anchor="start" x="4.5" y="-715" font-family="Helvetica,sans-Serif" font-size="10.00">+</text>
<text text-anchor="start" x="17.5" y="-715" font-family="Helvetica,sans-Serif" font-size="10.00">__construct()</text>
<text text-anchor="start" x="4.5" y="-700" font-family="Helvetica,sans-Serif" font-size="10.00">+</text>
<text text-anchor="start" x="17.5" y="-700" font-family="Helvetica,sans-Serif" font-size="10.00">addItem()</text>
<text text-anchor="start" x="4.5" y="-685" font-family="Helvetica,sans-Serif" font-size="10.00">+</text>
<text text-anchor="start" x="17.5" y="-685" font-family="Helvetica,sans-Serif" font-size="10.00">all()</text>
<text text-anchor="start" x="4.5" y="-670" font-family="Helvetica,sans-Serif" font-size="10.00">+</text>
<text text-anchor="start" x="17.5" y="-670" font-family="Helvetica,sans-Serif" font-size="10.00">canAddItem()</text>
<text text-anchor="start" x="4.5" y="-655" font-family="Helvetica,sans-Serif" font-size="10.00">+</text>
<text text-anchor="start" x="17.5" y="-655" font-family="Helvetica,sans-Serif" font-size="10.00">clear()</text>
<text text-anchor="start" x="4.5" y="-640" font-family="Helvetica,sans-Serif" font-size="10.00">+</text>
<text text-anchor="start" x="17.5" y="-640" font-family="Helvetica,sans-Serif" font-size="10.00">clearAll()</text>
<text text-anchor="start" x="4.5" y="-625" font-family="Helvetica,sans-Serif" font-size="10.00">+</text>
<text text-anchor="start" x="17.5" y="-625" font-family="Helvetica,sans-Serif" font-size="10.00">contains()</text>
<text text-anchor="start" x="4.5" y="-610" font-family="Helvetica,sans-Serif" font-size="10.00">+</text>
<text text-anchor="start" x="17.5" y="-610" font-family="Helvetica,sans-Serif" font-size="10.00">first()</text>
<text text-anchor="start" x="4.5" y="-595" font-family="Helvetica,sans-Serif" font-size="10.00">+</text>
<text text-anchor="start" x="17.5" y="-595" font-family="Helvetica,sans-Serif" font-size="10.00">firstEmpty()</text>
<text text-anchor="start" x="4.5" y="-580" font-family="Helvetica,sans-Serif" font-size="10.00">+</text>
<text text-anchor="start" x="17.5" y="-580" font-family="Helvetica,sans-Serif" font-size="10.00">getAddableItemQuantity()</text>
<text text-anchor="start" x="17.5" y="-565" font-family="Helvetica,sans-Serif" font-size="10.00">and 15 more...</text>
<text text-anchor="start" x="4.5" y="-550" font-family="Helvetica,sans-Serif" font-size="10.00">#</text>
<text text-anchor="start" x="17.5" y="-550" font-family="Helvetica,sans-Serif" font-size="10.00">getMatchingItemCount()</text>
<text text-anchor="start" x="4.5" y="-535" font-family="Helvetica,sans-Serif" font-size="10.00">#</text>
<text text-anchor="start" x="17.5" y="-535" font-family="Helvetica,sans-Serif" font-size="10.00">internalSetContents()</text>
<text text-anchor="start" x="4.5" y="-520" font-family="Helvetica,sans-Serif" font-size="10.00">#</text>
<text text-anchor="start" x="17.5" y="-520" font-family="Helvetica,sans-Serif" font-size="10.00">internalSetItem()</text>
<text text-anchor="start" x="4.5" y="-505" font-family="Helvetica,sans-Serif" font-size="10.00">#</text>
<text text-anchor="start" x="17.5" y="-505" font-family="Helvetica,sans-Serif" font-size="10.00">onContentChange()</text>
<text text-anchor="start" x="4.5" y="-490" font-family="Helvetica,sans-Serif" font-size="10.00">#</text>
<text text-anchor="start" x="17.5" y="-490" font-family="Helvetica,sans-Serif" font-size="10.00">onSlotChange()</text>
<polygon fill="#666666" stroke="#666666" points="0.5,-785 0.5,-785 149.5,-785 149.5,-785 0.5,-785"/>
<polygon fill="#666666" stroke="#666666" points="0.5,-725 0.5,-725 15.5,-725 15.5,-725 0.5,-725"/>
<polygon fill="#666666" stroke="#666666" points="15.5,-725 15.5,-725 149.5,-725 149.5,-725 15.5,-725"/>
<polygon fill="none" stroke="#666666" points="0,-483 0,-813 149,-813 149,-483 0,-483"/>
</a>
</g>
</g>
<!-- Node4&#45;&gt;Node3 -->
<g id="edge3_Node000003_Node000004" class="edge">
<title>Node4&#45;&gt;Node3</title>
<g id="a_edge3_Node000003_Node000004"><a xlink:title=" ">
<path fill="none" stroke="#63b8ff" d="M74.5,-472.81C74.5,-463.99 74.5,-455.36 74.5,-447.06"/>
<polygon fill="none" stroke="#63b8ff" points="71,-472.84 74.5,-482.84 78,-472.84 71,-472.84"/>
</a>
</g>
</g>
<!-- Node5 -->
<g id="Node000005" class="node">
<title>Node5</title>
<g id="a_Node000005"><a xlink:href="../../db/d39/interfacepocketmine_1_1inventory_1_1_inventory.html" target="_top" xlink:title=" ">
<polygon fill="white" stroke="transparent" points="296,-1059 147,-1059 147,-849 296,-849 296,-1059"/>
<text text-anchor="start" x="168.5" y="-1047" font-family="Helvetica,sans-Serif" font-size="10.00">pocketmine\inventory</text>
<text text-anchor="start" x="197" y="-1036" font-family="Helvetica,sans-Serif" font-size="10.00">\Inventory</text>
<text text-anchor="start" x="151.5" y="-1021" font-family="Helvetica,sans-Serif" font-size="10.00">+</text>
<text text-anchor="start" x="164.5" y="-1021" font-family="Helvetica,sans-Serif" font-size="10.00">MAX_STACK</text>
<text text-anchor="start" x="151.5" y="-1006" font-family="Helvetica,sans-Serif" font-size="10.00">+</text>
<text text-anchor="start" x="164.5" y="-1006" font-family="Helvetica,sans-Serif" font-size="10.00">addItem()</text>
<text text-anchor="start" x="151.5" y="-991" font-family="Helvetica,sans-Serif" font-size="10.00">+</text>
<text text-anchor="start" x="164.5" y="-991" font-family="Helvetica,sans-Serif" font-size="10.00">all()</text>
<text text-anchor="start" x="151.5" y="-976" font-family="Helvetica,sans-Serif" font-size="10.00">+</text>
<text text-anchor="start" x="164.5" y="-976" font-family="Helvetica,sans-Serif" font-size="10.00">canAddItem()</text>
<text text-anchor="start" x="151.5" y="-961" font-family="Helvetica,sans-Serif" font-size="10.00">+</text>
<text text-anchor="start" x="164.5" y="-961" font-family="Helvetica,sans-Serif" font-size="10.00">clear()</text>
<text text-anchor="start" x="151.5" y="-946" font-family="Helvetica,sans-Serif" font-size="10.00">+</text>
<text text-anchor="start" x="164.5" y="-946" font-family="Helvetica,sans-Serif" font-size="10.00">clearAll()</text>
<text text-anchor="start" x="151.5" y="-931" font-family="Helvetica,sans-Serif" font-size="10.00">+</text>
<text text-anchor="start" x="164.5" y="-931" font-family="Helvetica,sans-Serif" font-size="10.00">contains()</text>
<text text-anchor="start" x="151.5" y="-916" font-family="Helvetica,sans-Serif" font-size="10.00">+</text>
<text text-anchor="start" x="164.5" y="-916" font-family="Helvetica,sans-Serif" font-size="10.00">first()</text>
<text text-anchor="start" x="151.5" y="-901" font-family="Helvetica,sans-Serif" font-size="10.00">+</text>
<text text-anchor="start" x="164.5" y="-901" font-family="Helvetica,sans-Serif" font-size="10.00">firstEmpty()</text>
<text text-anchor="start" x="151.5" y="-886" font-family="Helvetica,sans-Serif" font-size="10.00">+</text>
<text text-anchor="start" x="164.5" y="-886" font-family="Helvetica,sans-Serif" font-size="10.00">getAddableItemQuantity()</text>
<text text-anchor="start" x="151.5" y="-871" font-family="Helvetica,sans-Serif" font-size="10.00">+</text>
<text text-anchor="start" x="164.5" y="-871" font-family="Helvetica,sans-Serif" font-size="10.00">getContents()</text>
<text text-anchor="start" x="164.5" y="-856" font-family="Helvetica,sans-Serif" font-size="10.00">and 15 more...</text>
<polygon fill="#bfbfbf" stroke="#bfbfbf" points="147.5,-1031 147.5,-1031 296.5,-1031 296.5,-1031 147.5,-1031"/>
<polygon fill="#bfbfbf" stroke="#bfbfbf" points="147.5,-1016 147.5,-1016 162.5,-1016 162.5,-1016 147.5,-1016"/>
<polygon fill="#bfbfbf" stroke="#bfbfbf" points="162.5,-1016 162.5,-1016 296.5,-1016 296.5,-1016 162.5,-1016"/>
<polygon fill="none" stroke="#bfbfbf" points="147,-849 147,-1059 296,-1059 296,-849 147,-849"/>
</a>
</g>
</g>
<!-- Node5&#45;&gt;Node4 -->
<g id="edge4_Node000004_Node000005" class="edge">
<title>Node5&#45;&gt;Node4</title>
<g id="a_edge4_Node000004_Node000005"><a xlink:title=" ">
<path fill="none" stroke="#63b8ff" d="M166.72,-839.72C160.93,-827.75 154.98,-815.43 149.01,-803.09"/>
<polygon fill="none" stroke="#63b8ff" points="163.61,-841.33 171.12,-848.81 169.91,-838.28 163.61,-841.33"/>
</a>
</g>
</g>
<!-- Node8 -->
<g id="Node000008" class="node">
<title>Node8</title>
<g id="a_Node000008"><a xlink:href="../../d5/d7b/interfacepocketmine_1_1inventory_1_1_temporary_inventory.html" target="_top" xlink:title=" ">
<polygon fill="white" stroke="transparent" points="280,-394.5 163,-394.5 163,-334.5 280,-334.5 280,-394.5"/>
<text text-anchor="start" x="168.5" y="-382.5" font-family="Helvetica,sans-Serif" font-size="10.00">pocketmine\inventory</text>
<text text-anchor="start" x="171" y="-371.5" font-family="Helvetica,sans-Serif" font-size="10.00">\TemporaryInventory</text>
<text text-anchor="start" x="220" y="-356.5" font-family="Helvetica,sans-Serif" font-size="10.00"> </text>
<text text-anchor="start" x="220" y="-341.5" font-family="Helvetica,sans-Serif" font-size="10.00"> </text>
<polygon fill="#bfbfbf" stroke="#bfbfbf" points="163.5,-366.5 163.5,-366.5 280.5,-366.5 280.5,-366.5 163.5,-366.5"/>
<polygon fill="#bfbfbf" stroke="#bfbfbf" points="163.5,-351.5 163.5,-351.5 280.5,-351.5 280.5,-351.5 163.5,-351.5"/>
<polygon fill="none" stroke="#bfbfbf" points="163,-334.5 163,-394.5 280,-394.5 280,-334.5 163,-334.5"/>
</a>
</g>
</g>
<!-- Node5&#45;&gt;Node8 -->
<g id="edge8_Node000008_Node000005" class="edge">
<title>Node5&#45;&gt;Node8</title>
<g id="a_edge8_Node000008_Node000005"><a xlink:title=" ">
<path fill="none" stroke="#63b8ff" d="M221.5,-838.73C221.5,-700.02 221.5,-474.71 221.5,-394.77"/>
<polygon fill="none" stroke="#63b8ff" points="218,-838.98 221.5,-848.98 225,-838.98 218,-838.98"/>
</a>
</g>
</g>
<!-- Node6 -->
<g id="Node000006" class="node">
<title>Node6</title>
<g id="a_Node000006"><a xlink:href="../../dd/d33/interfacepocketmine_1_1inventory_1_1_slot_validated_inventory.html" target="_top" xlink:title=" ">
<polygon fill="white" stroke="transparent" points="129,-984 4,-984 4,-924 129,-924 129,-984"/>
<text text-anchor="start" x="9.5" y="-972" font-family="Helvetica,sans-Serif" font-size="10.00">pocketmine\inventory</text>
<text text-anchor="start" x="9.5" y="-961" font-family="Helvetica,sans-Serif" font-size="10.00">\SlotValidatedInventory</text>
<text text-anchor="start" x="65" y="-946" font-family="Helvetica,sans-Serif" font-size="10.00"> </text>
<text text-anchor="start" x="11.5" y="-931" font-family="Helvetica,sans-Serif" font-size="10.00">+</text>
<text text-anchor="start" x="27.5" y="-931" font-family="Helvetica,sans-Serif" font-size="10.00">getSlotValidators()</text>
<polygon fill="#666666" stroke="#666666" points="4.5,-956 4.5,-956 129.5,-956 129.5,-956 4.5,-956"/>
<polygon fill="#666666" stroke="#666666" points="4.5,-941 4.5,-941 129.5,-941 129.5,-941 4.5,-941"/>
<polygon fill="none" stroke="#666666" points="4,-924 4,-984 129,-984 129,-924 4,-924"/>
</a>
</g>
</g>
<!-- Node6&#45;&gt;Node4 -->
<g id="edge5_Node000004_Node000006" class="edge">
<title>Node6&#45;&gt;Node4</title>
<g id="a_edge5_Node000004_Node000006"><a xlink:title=" ">
<path fill="none" stroke="#63b8ff" d="M67.54,-913.58C68.23,-887.27 69.19,-850.71 70.18,-813.16"/>
<polygon fill="none" stroke="#63b8ff" points="64.03,-913.76 67.27,-923.85 71.03,-913.95 64.03,-913.76"/>
</a>
</g>
</g>
<!-- Node7 -->
<g id="Node000007" class="node">
<title>Node7</title>
<g id="a_Node000007"><a xlink:href="../../d4/d3a/interfacepocketmine_1_1block_1_1inventory_1_1_block_inventory.html" target="_top" xlink:title=" ">
<polygon fill="white" stroke="transparent" points="379.5,-201 233.5,-201 233.5,-141 379.5,-141 379.5,-201"/>
<text text-anchor="start" x="238.5" y="-189" font-family="Helvetica,sans-Serif" font-size="10.00">pocketmine\block\inventory</text>
<text text-anchor="start" x="268" y="-178" font-family="Helvetica,sans-Serif" font-size="10.00">\BlockInventory</text>
<text text-anchor="start" x="304.5" y="-163" font-family="Helvetica,sans-Serif" font-size="10.00"> </text>
<text text-anchor="start" x="254.5" y="-148" font-family="Helvetica,sans-Serif" font-size="10.00">+</text>
<text text-anchor="start" x="284.5" y="-148" font-family="Helvetica,sans-Serif" font-size="10.00">getHolder()</text>
<polygon fill="#bfbfbf" stroke="#bfbfbf" points="233.5,-173 233.5,-173 379.5,-173 379.5,-173 233.5,-173"/>
<polygon fill="#bfbfbf" stroke="#bfbfbf" points="233.5,-158 233.5,-158 379.5,-158 379.5,-158 233.5,-158"/>
<polygon fill="none" stroke="#bfbfbf" points="233.5,-141 233.5,-201 379.5,-201 379.5,-141 233.5,-141"/>
</a>
</g>
</g>
<!-- Node7&#45;&gt;Node1 -->
<g id="edge6_Node000001_Node000007" class="edge">
<title>Node7&#45;&gt;Node1</title>
<g id="a_edge6_Node000001_Node000007"><a xlink:title=" ">
<path fill="none" stroke="#63b8ff" d="M279.44,-132.76C262.88,-109.96 241.99,-81.22 226.65,-60.1"/>
<polygon fill="none" stroke="#63b8ff" points="276.62,-134.83 285.33,-140.86 282.28,-130.71 276.62,-134.83"/>
</a>
</g>
</g>
<!-- Node8&#45;&gt;Node1 -->
<g id="edge7_Node000001_Node000008" class="edge">
<title>Node8&#45;&gt;Node1</title>
<g id="a_edge7_Node000001_Node000008"><a xlink:title=" ">
<path fill="none" stroke="#63b8ff" d="M219.6,-324.04C216.35,-256.37 209.77,-119.74 206.9,-60.03"/>
<polygon fill="none" stroke="#63b8ff" points="216.12,-324.46 220.09,-334.28 223.11,-324.13 216.12,-324.46"/>
</a>
</g>
</g>
</g>
</svg>

<g id="navigator" transform="translate(0 0)" fill="#404254">
  <rect fill="#f2f5e9" fill-opacity="0.5" stroke="#606060" stroke-width=".5" x="0" y="0" width="60" height="60"/>
  <use id="zoomplus" xlink:href="#zoomPlus" x="17" y="9" onmousedown="handleZoom(evt,'in')"/>
  <use id="zoomminus" xlink:href="#zoomMin" x="42" y="9" onmousedown="handleZoom(evt,'out')"/>
  <use id="reset" xlink:href="#resetDef" x="30" y="36" onmousedown="handleReset()"/>
   <use id="arrowup" xlink:href="#arrowUp" x="0" y="0" onmousedown="handlePan(0,-1)"/>
  <use id="arrowright" xlink:href="#arrowRight" x="0" y="0" onmousedown="handlePan(1,0)"/>
  <use id="arrowdown" xlink:href="#arrowDown" x="0" y="0" onmousedown="handlePan(0,1)"/>
  <use id="arrowleft" xlink:href="#arrowLeft" x="0" y="0" onmousedown="handlePan(-1,0)"/>
</g>
<svg viewBox="0 0 15 15" width="100%" height="30px" preserveAspectRatio="xMaxYMin meet">
 <g id="arrow_out" transform="scale(0.3 0.3)">
  <a xlink:href="classpocketmine_1_1block_1_1inventory_1_1_crafting_table_inventory__inherit__graph_org.svg" target="_base">
   <rect id="button" ry="5" rx="5" y="6" x="6" height="38" width="38"
        fill="#f2f5e9" fill-opacity="0.5" stroke="#606060" stroke-width="1.0"/>
   <path id="arrow"
     d="M 11.500037,31.436501 C 11.940474,20.09759 22.043105,11.32322 32.158766,21.979434 L 37.068811,17.246167 C 37.068811,17.246167 37.088388,32 37.088388,32 L 22.160133,31.978069 C 22.160133,31.978069 26.997745,27.140456 26.997745,27.140456 C 18.528582,18.264221 13.291696,25.230495 11.500037,31.436501 z"
     style="fill:#404040;"/>
  </a>
 </g>
</svg>

<style type='text/css'>
<![CDATA[
[data-mouse-over-selected='false'] { opacity: 0.7; }
[data-mouse-over-selected='true']  { opacity: 1.0; }
]]>
</style>
<script type="application/ecmascript"><![CDATA[
document.addEventListener('DOMContentLoaded', (event) => {
  highlightEdges();
  highlightAdjacentNodes();
});
]]></script>
</svg>
