<?xml version="1.0" encoding="UTF-8" standalone="no"?>
<!DOCTYPE svg PUBLIC "-//W3C//DTD SVG 1.1//EN"
 "http://www.w3.org/Graphics/SVG/1.1/DTD/svg11.dtd">
<!-- Generated by graphviz version 2.43.0 (0)
 -->
<!-- Title: pocketmine\block\inventory\CraftingTableInventory Pages: 1 -->
<svg width="398pt" height="937pt"
 viewBox="0.00 0.00 397.50 937.00" xmlns="http://www.w3.org/2000/svg" xmlns:xlink="http://www.w3.org/1999/xlink">
<g id="graph0" class="graph" transform="scale(1 1) rotate(0) translate(4 933)">
<title>pocketmine\block\inventory\CraftingTableInventory</title>
<polygon fill="white" stroke="transparent" points="-4,4 -4,-933 393.5,-933 393.5,4 -4,4"/>
<!-- Node1 -->
<g id="node1" class="node">
<title>Node1</title>
<g id="a_node1"><a xlink:title=" ">
<polygon fill="#bfbfbf" stroke="black" points="133.5,-0.5 133.5,-68.5 285.5,-68.5 285.5,-0.5 133.5,-0.5"/>
<text text-anchor="start" x="141.5" y="-56.5" font-family="Helvetica,sans-Serif" font-size="10.00">pocketmine\block\inventory</text>
<text text-anchor="middle" x="209.5" y="-45.5" font-family="Helvetica,sans-Serif" font-size="10.00">\CraftingTableInventory</text>
<polyline fill="none" stroke="black" points="133.5,-38.5 285.5,-38.5 "/>
<text text-anchor="middle" x="209.5" y="-26.5" font-family="Helvetica,sans-Serif" font-size="10.00"> </text>
<polyline fill="none" stroke="black" points="133.5,-19.5 285.5,-19.5 "/>
<text text-anchor="start" x="141.5" y="-7.5" font-family="Helvetica,sans-Serif" font-size="10.00">+ __construct()</text>
</a>
</g>
</g>
<!-- Node2 -->
<g id="node2" class="node">
<title>Node2</title>
<g id="a_node2"><a xlink:href="../../de/d7a/classpocketmine_1_1crafting_1_1_crafting_grid.html" target="_top" xlink:title=" ">
<polygon fill="white" stroke="#bfbfbf" points="48.5,-105.5 48.5,-239.5 164.5,-239.5 164.5,-105.5 48.5,-105.5"/>
<text text-anchor="start" x="56.5" y="-227.5" font-family="Helvetica,sans-Serif" font-size="10.00">pocketmine\crafting</text>
<text text-anchor="middle" x="106.5" y="-216.5" font-family="Helvetica,sans-Serif" font-size="10.00">\CraftingGrid</text>
<polyline fill="none" stroke="#bfbfbf" points="48.5,-209.5 164.5,-209.5 "/>
<text text-anchor="start" x="56.5" y="-197.5" font-family="Helvetica,sans-Serif" font-size="10.00">+ SIZE_BIG</text>
<text text-anchor="start" x="56.5" y="-186.5" font-family="Helvetica,sans-Serif" font-size="10.00">+ SIZE_SMALL</text>
<polyline fill="none" stroke="#bfbfbf" points="48.5,-179.5 164.5,-179.5 "/>
<text text-anchor="start" x="56.5" y="-167.5" font-family="Helvetica,sans-Serif" font-size="10.00">+ __construct()</text>
<text text-anchor="start" x="56.5" y="-156.5" font-family="Helvetica,sans-Serif" font-size="10.00">+ getGridWidth()</text>
<text text-anchor="start" x="56.5" y="-145.5" font-family="Helvetica,sans-Serif" font-size="10.00">+ getIngredient()</text>
<text text-anchor="start" x="56.5" y="-134.5" font-family="Helvetica,sans-Serif" font-size="10.00">+ getRecipeHeight()</text>
<text text-anchor="start" x="56.5" y="-123.5" font-family="Helvetica,sans-Serif" font-size="10.00">+ getRecipeWidth()</text>
<text text-anchor="start" x="56.5" y="-112.5" font-family="Helvetica,sans-Serif" font-size="10.00">+ setItem()</text>
</a>
</g>
</g>
<!-- Node2&#45;&gt;Node1 -->
<g id="edge1" class="edge">
<title>Node2&#45;&gt;Node1</title>
<path fill="none" stroke="midnightblue" d="M162.59,-97.44C170.17,-87.44 177.61,-77.61 184.26,-68.83"/>
<polygon fill="none" stroke="midnightblue" points="159.74,-95.41 156.49,-105.49 165.32,-99.63 159.74,-95.41"/>
</g>
<!-- Node3 -->
<g id="node3" class="node">
<title>Node3</title>
<g id="a_node3"><a xlink:href="../../d6/dc1/classpocketmine_1_1inventory_1_1_simple_inventory.html" target="_top" xlink:title=" ">
<polygon fill="white" stroke="black" points="0,-276.5 0,-421.5 147,-421.5 147,-276.5 0,-276.5"/>
<text text-anchor="start" x="8" y="-409.5" font-family="Helvetica,sans-Serif" font-size="10.00">pocketmine\inventory</text>
<text text-anchor="middle" x="73.5" y="-398.5" font-family="Helvetica,sans-Serif" font-size="10.00">\SimpleInventory</text>
<polyline fill="none" stroke="black" points="0,-391.5 147,-391.5 "/>
<text text-anchor="start" x="8" y="-379.5" font-family="Helvetica,sans-Serif" font-size="10.00"># $slots</text>
<polyline fill="none" stroke="black" points="0,-372.5 147,-372.5 "/>
<text text-anchor="start" x="8" y="-360.5" font-family="Helvetica,sans-Serif" font-size="10.00">+ __construct()</text>
<text text-anchor="start" x="8" y="-349.5" font-family="Helvetica,sans-Serif" font-size="10.00">+ getContents()</text>
<text text-anchor="start" x="8" y="-338.5" font-family="Helvetica,sans-Serif" font-size="10.00">+ getItem()</text>
<text text-anchor="start" x="8" y="-327.5" font-family="Helvetica,sans-Serif" font-size="10.00">+ getSize()</text>
<text text-anchor="start" x="8" y="-316.5" font-family="Helvetica,sans-Serif" font-size="10.00">+ isSlotEmpty()</text>
<text text-anchor="start" x="8" y="-305.5" font-family="Helvetica,sans-Serif" font-size="10.00"># getMatchingItemCount()</text>
<text text-anchor="start" x="8" y="-294.5" font-family="Helvetica,sans-Serif" font-size="10.00"># internalSetContents()</text>
<text text-anchor="start" x="8" y="-283.5" font-family="Helvetica,sans-Serif" font-size="10.00"># internalSetItem()</text>
</a>
</g>
</g>
<!-- Node3&#45;&gt;Node2 -->
<g id="edge2" class="edge">
<title>Node3&#45;&gt;Node2</title>
<path fill="none" stroke="midnightblue" d="M88.96,-266.25C90.65,-257.33 92.35,-248.33 93.99,-239.63"/>
<polygon fill="none" stroke="midnightblue" points="85.48,-265.79 87.07,-276.27 92.36,-267.09 85.48,-265.79"/>
</g>
<!-- Node4 -->
<g id="node4" class="node">
<title>Node4</title>
<g id="a_node4"><a xlink:href="../../d5/dc4/classpocketmine_1_1inventory_1_1_base_inventory.html" target="_top" xlink:title=" ">
<polygon fill="white" stroke="black" points="19,-458.5 19,-713.5 174,-713.5 174,-458.5 19,-458.5"/>
<text text-anchor="start" x="27" y="-701.5" font-family="Helvetica,sans-Serif" font-size="10.00">pocketmine\inventory</text>
<text text-anchor="middle" x="96.5" y="-690.5" font-family="Helvetica,sans-Serif" font-size="10.00">\BaseInventory</text>
<polyline fill="none" stroke="black" points="19,-683.5 174,-683.5 "/>
<text text-anchor="start" x="27" y="-671.5" font-family="Helvetica,sans-Serif" font-size="10.00"># $listeners</text>
<text text-anchor="start" x="27" y="-660.5" font-family="Helvetica,sans-Serif" font-size="10.00"># $maxStackSize</text>
<text text-anchor="start" x="27" y="-649.5" font-family="Helvetica,sans-Serif" font-size="10.00"># $viewers</text>
<polyline fill="none" stroke="black" points="19,-642.5 174,-642.5 "/>
<text text-anchor="start" x="27" y="-630.5" font-family="Helvetica,sans-Serif" font-size="10.00">+ __construct()</text>
<text text-anchor="start" x="27" y="-619.5" font-family="Helvetica,sans-Serif" font-size="10.00">+ addItem()</text>
<text text-anchor="start" x="27" y="-608.5" font-family="Helvetica,sans-Serif" font-size="10.00">+ all()</text>
<text text-anchor="start" x="27" y="-597.5" font-family="Helvetica,sans-Serif" font-size="10.00">+ canAddItem()</text>
<text text-anchor="start" x="27" y="-586.5" font-family="Helvetica,sans-Serif" font-size="10.00">+ clear()</text>
<text text-anchor="start" x="27" y="-575.5" font-family="Helvetica,sans-Serif" font-size="10.00">+ clearAll()</text>
<text text-anchor="start" x="27" y="-564.5" font-family="Helvetica,sans-Serif" font-size="10.00">+ contains()</text>
<text text-anchor="start" x="27" y="-553.5" font-family="Helvetica,sans-Serif" font-size="10.00">+ first()</text>
<text text-anchor="start" x="27" y="-542.5" font-family="Helvetica,sans-Serif" font-size="10.00">+ firstEmpty()</text>
<text text-anchor="start" x="27" y="-531.5" font-family="Helvetica,sans-Serif" font-size="10.00">+ getAddableItemQuantity()</text>
<text text-anchor="start" x="27" y="-520.5" font-family="Helvetica,sans-Serif" font-size="10.00">and 14 more...</text>
<text text-anchor="start" x="27" y="-509.5" font-family="Helvetica,sans-Serif" font-size="10.00"># getMatchingItemCount()</text>
<text text-anchor="start" x="27" y="-498.5" font-family="Helvetica,sans-Serif" font-size="10.00"># internalSetContents()</text>
<text text-anchor="start" x="27" y="-487.5" font-family="Helvetica,sans-Serif" font-size="10.00"># internalSetItem()</text>
<text text-anchor="start" x="27" y="-476.5" font-family="Helvetica,sans-Serif" font-size="10.00"># onContentChange()</text>
<text text-anchor="start" x="27" y="-465.5" font-family="Helvetica,sans-Serif" font-size="10.00"># onSlotChange()</text>
</a>
</g>
</g>
<!-- Node4&#45;&gt;Node3 -->
<g id="edge3" class="edge">
<title>Node4&#45;&gt;Node3</title>
<path fill="none" stroke="midnightblue" d="M83.11,-448.24C82.22,-439.09 81.34,-430.1 80.5,-421.5"/>
<polygon fill="none" stroke="midnightblue" points="79.63,-448.6 84.09,-458.21 86.6,-447.92 79.63,-448.6"/>
</g>
<!-- Node5 -->
<g id="node5" class="node">
<title>Node5</title>
<g id="a_node5"><a xlink:href="../../db/d39/interfacepocketmine_1_1inventory_1_1_inventory.html" target="_top" xlink:title=" ">
<polygon fill="white" stroke="#bfbfbf" points="72,-750.5 72,-928.5 227,-928.5 227,-750.5 72,-750.5"/>
<text text-anchor="start" x="80" y="-916.5" font-family="Helvetica,sans-Serif" font-size="10.00">pocketmine\inventory</text>
<text text-anchor="middle" x="149.5" y="-905.5" font-family="Helvetica,sans-Serif" font-size="10.00">\Inventory</text>
<polyline fill="none" stroke="#bfbfbf" points="72,-898.5 227,-898.5 "/>
<text text-anchor="start" x="80" y="-886.5" font-family="Helvetica,sans-Serif" font-size="10.00">+ MAX_STACK</text>
<polyline fill="none" stroke="#bfbfbf" points="72,-879.5 227,-879.5 "/>
<text text-anchor="start" x="80" y="-867.5" font-family="Helvetica,sans-Serif" font-size="10.00">+ addItem()</text>
<text text-anchor="start" x="80" y="-856.5" font-family="Helvetica,sans-Serif" font-size="10.00">+ all()</text>
<text text-anchor="start" x="80" y="-845.5" font-family="Helvetica,sans-Serif" font-size="10.00">+ canAddItem()</text>
<text text-anchor="start" x="80" y="-834.5" font-family="Helvetica,sans-Serif" font-size="10.00">+ clear()</text>
<text text-anchor="start" x="80" y="-823.5" font-family="Helvetica,sans-Serif" font-size="10.00">+ clearAll()</text>
<text text-anchor="start" x="80" y="-812.5" font-family="Helvetica,sans-Serif" font-size="10.00">+ contains()</text>
<text text-anchor="start" x="80" y="-801.5" font-family="Helvetica,sans-Serif" font-size="10.00">+ first()</text>
<text text-anchor="start" x="80" y="-790.5" font-family="Helvetica,sans-Serif" font-size="10.00">+ firstEmpty()</text>
<text text-anchor="start" x="80" y="-779.5" font-family="Helvetica,sans-Serif" font-size="10.00">+ getAddableItemQuantity()</text>
<text text-anchor="start" x="80" y="-768.5" font-family="Helvetica,sans-Serif" font-size="10.00">+ getContents()</text>
<text text-anchor="start" x="80" y="-757.5" font-family="Helvetica,sans-Serif" font-size="10.00">and 15 more...</text>
</a>
</g>
</g>
<!-- Node5&#45;&gt;Node4 -->
<g id="edge4" class="edge">
<title>Node5&#45;&gt;Node4</title>
<path fill="none" stroke="midnightblue" d="M128.81,-740.33C126.96,-731.52 125.06,-722.53 123.16,-713.52"/>
<polygon fill="none" stroke="midnightblue" points="125.4,-741.12 130.89,-750.18 132.25,-739.68 125.4,-741.12"/>
</g>
<!-- Node7 -->
<g id="node7" class="node">
<title>Node7</title>
<g id="a_node7"><a xlink:href="../../d5/d7b/interfacepocketmine_1_1inventory_1_1_temporary_inventory.html" target="_top" xlink:title=" ">
<polygon fill="white" stroke="#bfbfbf" points="165,-315 165,-383 288,-383 288,-315 165,-315"/>
<text text-anchor="start" x="173" y="-371" font-family="Helvetica,sans-Serif" font-size="10.00">pocketmine\inventory</text>
<text text-anchor="middle" x="226.5" y="-360" font-family="Helvetica,sans-Serif" font-size="10.00">\TemporaryInventory</text>
<polyline fill="none" stroke="#bfbfbf" points="165,-353 288,-353 "/>
<text text-anchor="middle" x="226.5" y="-341" font-family="Helvetica,sans-Serif" font-size="10.00"> </text>
<polyline fill="none" stroke="#bfbfbf" points="165,-334 288,-334 "/>
<text text-anchor="middle" x="226.5" y="-322" font-family="Helvetica,sans-Serif" font-size="10.00"> </text>
</a>
</g>
</g>
<!-- Node5&#45;&gt;Node7 -->
<g id="edge7" class="edge">
<title>Node5&#45;&gt;Node7</title>
<path fill="none" stroke="midnightblue" d="M176.79,-740.7C178.88,-731.71 180.83,-722.71 182.5,-714 205.67,-593.35 218.91,-447.73 224.03,-383.36"/>
<polygon fill="none" stroke="midnightblue" points="173.38,-739.89 174.46,-750.43 180.19,-741.52 173.38,-739.89"/>
</g>
<!-- Node6 -->
<g id="node6" class="node">
<title>Node6</title>
<g id="a_node6"><a xlink:href="../../d4/d3a/interfacepocketmine_1_1block_1_1inventory_1_1_block_inventory.html" target="_top" xlink:title=" ">
<polygon fill="white" stroke="#bfbfbf" points="237.5,-138.5 237.5,-206.5 389.5,-206.5 389.5,-138.5 237.5,-138.5"/>
<text text-anchor="start" x="245.5" y="-194.5" font-family="Helvetica,sans-Serif" font-size="10.00">pocketmine\block\inventory</text>
<text text-anchor="middle" x="313.5" y="-183.5" font-family="Helvetica,sans-Serif" font-size="10.00">\BlockInventory</text>
<polyline fill="none" stroke="#bfbfbf" points="237.5,-176.5 389.5,-176.5 "/>
<text text-anchor="middle" x="313.5" y="-164.5" font-family="Helvetica,sans-Serif" font-size="10.00"> </text>
<polyline fill="none" stroke="#bfbfbf" points="237.5,-157.5 389.5,-157.5 "/>
<text text-anchor="start" x="245.5" y="-145.5" font-family="Helvetica,sans-Serif" font-size="10.00">+ getHolder()</text>
</a>
</g>
</g>
<!-- Node6&#45;&gt;Node1 -->
<g id="edge5" class="edge">
<title>Node6&#45;&gt;Node1</title>
<path fill="none" stroke="midnightblue" d="M281.82,-130.07C266.82,-110.46 249.16,-87.36 235.04,-68.9"/>
<polygon fill="none" stroke="midnightblue" points="279.2,-132.41 288.06,-138.23 284.76,-128.16 279.2,-132.41"/>
</g>
<!-- Node7&#45;&gt;Node1 -->
<g id="edge6" class="edge">
<title>Node7&#45;&gt;Node1</title>
<path fill="none" stroke="midnightblue" d="M224.15,-304.83C220.72,-241.75 214.41,-125.71 211.31,-68.78"/>
<polygon fill="none" stroke="midnightblue" points="220.66,-305.06 224.7,-314.85 227.65,-304.68 220.66,-305.06"/>
</g>
</g>
</svg>
