<?xml version="1.0" encoding="UTF-8" standalone="no"?>
<!DOCTYPE svg PUBLIC "-//W3C//DTD SVG 1.1//EN"
 "http://www.w3.org/Graphics/SVG/1.1/DTD/svg11.dtd">
<!-- Generated by graphviz version 2.43.0 (0)
 -->
<!-- Title: pocketmine\network\mcpe\protocol\PlayStatusPacket Pages: 1 -->
<svg width="312pt" height="788pt"
 viewBox="0.00 0.00 312.00 788.00" xmlns="http://www.w3.org/2000/svg" xmlns:xlink="http://www.w3.org/1999/xlink">
<g id="graph0" class="graph" transform="scale(1 1) rotate(0) translate(4 784)">
<title>pocketmine\network\mcpe\protocol\PlayStatusPacket</title>
<!-- Node1 -->
<g id="Node000001" class="node">
<title>Node1</title>
<g id="a_Node000001"><a xlink:title=" ">
<polygon fill="#999999" stroke="transparent" points="235.5,-318 65.5,-318 65.5,0 235.5,0 235.5,-318"/>
<text text-anchor="start" x="70.5" y="-306" font-family="Helvetica,sans-Serif" font-size="10.00">pocketmine\network</text>
<text text-anchor="start" x="70.5" y="-295" font-family="Helvetica,sans-Serif" font-size="10.00">\mcpe\protocol\PlayStatusPacket</text>
<text text-anchor="start" x="71" y="-280" font-family="Helvetica,sans-Serif" font-size="10.00">+</text>
<text text-anchor="start" x="85.5" y="-280" font-family="Helvetica,sans-Serif" font-size="10.00">$status</text>
<text text-anchor="start" x="71" y="-265" font-family="Helvetica,sans-Serif" font-size="10.00">+</text>
<text text-anchor="start" x="85.5" y="-265" font-family="Helvetica,sans-Serif" font-size="10.00">LOGIN_FAILED_CLIENT</text>
<text text-anchor="start" x="71" y="-250" font-family="Helvetica,sans-Serif" font-size="10.00">+</text>
<text text-anchor="start" x="85.5" y="-250" font-family="Helvetica,sans-Serif" font-size="10.00">LOGIN_FAILED_EDITOR</text>
<text text-anchor="start" x="85.5" y="-239" font-family="Helvetica,sans-Serif" font-size="10.00">_VANILLA</text>
<text text-anchor="start" x="71" y="-224" font-family="Helvetica,sans-Serif" font-size="10.00">+</text>
<text text-anchor="start" x="85.5" y="-224" font-family="Helvetica,sans-Serif" font-size="10.00">LOGIN_FAILED_EDU_VANILLA</text>
<text text-anchor="start" x="71" y="-209" font-family="Helvetica,sans-Serif" font-size="10.00">+</text>
<text text-anchor="start" x="85.5" y="-209" font-family="Helvetica,sans-Serif" font-size="10.00">LOGIN_FAILED_INVALID</text>
<text text-anchor="start" x="85.5" y="-198" font-family="Helvetica,sans-Serif" font-size="10.00">_TENANT</text>
<text text-anchor="start" x="71" y="-183" font-family="Helvetica,sans-Serif" font-size="10.00">+</text>
<text text-anchor="start" x="85.5" y="-183" font-family="Helvetica,sans-Serif" font-size="10.00">LOGIN_FAILED_SERVER</text>
<text text-anchor="start" x="71" y="-168" font-family="Helvetica,sans-Serif" font-size="10.00">+</text>
<text text-anchor="start" x="85.5" y="-168" font-family="Helvetica,sans-Serif" font-size="10.00">LOGIN_FAILED_SERVER_FULL</text>
<text text-anchor="start" x="71" y="-153" font-family="Helvetica,sans-Serif" font-size="10.00">+</text>
<text text-anchor="start" x="85.5" y="-153" font-family="Helvetica,sans-Serif" font-size="10.00">LOGIN_FAILED_VANILLA</text>
<text text-anchor="start" x="85.5" y="-142" font-family="Helvetica,sans-Serif" font-size="10.00">_EDITOR</text>
<text text-anchor="start" x="71" y="-127" font-family="Helvetica,sans-Serif" font-size="10.00">+</text>
<text text-anchor="start" x="85.5" y="-127" font-family="Helvetica,sans-Serif" font-size="10.00">LOGIN_FAILED_VANILLA_EDU</text>
<text text-anchor="start" x="71" y="-112" font-family="Helvetica,sans-Serif" font-size="10.00">+</text>
<text text-anchor="start" x="85.5" y="-112" font-family="Helvetica,sans-Serif" font-size="10.00">LOGIN_SUCCESS</text>
<text text-anchor="start" x="71" y="-97" font-family="Helvetica,sans-Serif" font-size="10.00">+</text>
<text text-anchor="start" x="85.5" y="-97" font-family="Helvetica,sans-Serif" font-size="10.00">NETWORK_ID</text>
<text text-anchor="start" x="71" y="-82" font-family="Helvetica,sans-Serif" font-size="10.00">+</text>
<text text-anchor="start" x="85.5" y="-82" font-family="Helvetica,sans-Serif" font-size="10.00">PLAYER_SPAWN</text>
<text text-anchor="start" x="71" y="-67" font-family="Helvetica,sans-Serif" font-size="10.00">+</text>
<text text-anchor="start" x="85.5" y="-67" font-family="Helvetica,sans-Serif" font-size="10.00">canBeSentBeforeLogin()</text>
<text text-anchor="start" x="71" y="-52" font-family="Helvetica,sans-Serif" font-size="10.00">+</text>
<text text-anchor="start" x="85.5" y="-52" font-family="Helvetica,sans-Serif" font-size="10.00">handle()</text>
<text text-anchor="start" x="71" y="-37" font-family="Helvetica,sans-Serif" font-size="10.00">+</text>
<text text-anchor="start" x="85.5" y="-37" font-family="Helvetica,sans-Serif" font-size="10.00">create()</text>
<text text-anchor="start" x="71" y="-22" font-family="Helvetica,sans-Serif" font-size="10.00">#</text>
<text text-anchor="start" x="85.5" y="-22" font-family="Helvetica,sans-Serif" font-size="10.00">decodePayload()</text>
<text text-anchor="start" x="71" y="-7" font-family="Helvetica,sans-Serif" font-size="10.00">#</text>
<text text-anchor="start" x="85.5" y="-7" font-family="Helvetica,sans-Serif" font-size="10.00">encodePayload()</text>
<polygon fill="#666666" stroke="#666666" points="65.5,-290 65.5,-290 235.5,-290 235.5,-290 65.5,-290"/>
<polygon fill="#666666" stroke="#666666" points="65.5,-77 65.5,-77 83.5,-77 83.5,-77 65.5,-77"/>
<polygon fill="#666666" stroke="#666666" points="83.5,-77 83.5,-77 235.5,-77 235.5,-77 83.5,-77"/>
<polygon fill="none" stroke="#666666" points="65.5,0 65.5,-318 235.5,-318 235.5,0 65.5,0"/>
</a>
</g>
</g>
<!-- Node2 -->
<g id="Node000002" class="node">
<title>Node2</title>
<g id="a_Node000002"><a xlink:href="../../d1/ddb/classpocketmine_1_1network_1_1mcpe_1_1protocol_1_1_data_packet.html" target="_top" xlink:title=" ">
<polygon fill="white" stroke="transparent" points="141,-609 0,-609 0,-354 141,-354 141,-609"/>
<text text-anchor="start" x="5.5" y="-596.5" font-family="Helvetica,sans-Serif" font-size="10.00">pocketmine\network</text>
<text text-anchor="start" x="5.5" y="-585.5" font-family="Helvetica,sans-Serif" font-size="10.00">\mcpe\protocol\DataPacket</text>
<text text-anchor="start" x="5" y="-570.5" font-family="Helvetica,sans-Serif" font-size="10.00">+</text>
<text text-anchor="start" x="18.5" y="-570.5" font-family="Helvetica,sans-Serif" font-size="10.00">$recipientSubId</text>
<text text-anchor="start" x="5" y="-555.5" font-family="Helvetica,sans-Serif" font-size="10.00">+</text>
<text text-anchor="start" x="18.5" y="-555.5" font-family="Helvetica,sans-Serif" font-size="10.00">$senderSubId</text>
<text text-anchor="start" x="5" y="-540.5" font-family="Helvetica,sans-Serif" font-size="10.00">+</text>
<text text-anchor="start" x="18.5" y="-540.5" font-family="Helvetica,sans-Serif" font-size="10.00">NETWORK_ID</text>
<text text-anchor="start" x="5" y="-525.5" font-family="Helvetica,sans-Serif" font-size="10.00">+</text>
<text text-anchor="start" x="18.5" y="-525.5" font-family="Helvetica,sans-Serif" font-size="10.00">PID_MASK</text>
<text text-anchor="start" x="5" y="-510.5" font-family="Helvetica,sans-Serif" font-size="10.00">+</text>
<text text-anchor="start" x="18.5" y="-510.5" font-family="Helvetica,sans-Serif" font-size="10.00">__get()</text>
<text text-anchor="start" x="5" y="-495.5" font-family="Helvetica,sans-Serif" font-size="10.00">+</text>
<text text-anchor="start" x="18.5" y="-495.5" font-family="Helvetica,sans-Serif" font-size="10.00">__set()</text>
<text text-anchor="start" x="5" y="-480.5" font-family="Helvetica,sans-Serif" font-size="10.00">+</text>
<text text-anchor="start" x="18.5" y="-480.5" font-family="Helvetica,sans-Serif" font-size="10.00">canBeSentBeforeLogin()</text>
<text text-anchor="start" x="5" y="-465.5" font-family="Helvetica,sans-Serif" font-size="10.00">+</text>
<text text-anchor="start" x="18.5" y="-465.5" font-family="Helvetica,sans-Serif" font-size="10.00">decode()</text>
<text text-anchor="start" x="5" y="-450.5" font-family="Helvetica,sans-Serif" font-size="10.00">+</text>
<text text-anchor="start" x="18.5" y="-450.5" font-family="Helvetica,sans-Serif" font-size="10.00">encode()</text>
<text text-anchor="start" x="5" y="-435.5" font-family="Helvetica,sans-Serif" font-size="10.00">+</text>
<text text-anchor="start" x="18.5" y="-435.5" font-family="Helvetica,sans-Serif" font-size="10.00">getName()</text>
<text text-anchor="start" x="5" y="-420.5" font-family="Helvetica,sans-Serif" font-size="10.00">+</text>
<text text-anchor="start" x="18.5" y="-420.5" font-family="Helvetica,sans-Serif" font-size="10.00">pid()</text>
<text text-anchor="start" x="5" y="-405.5" font-family="Helvetica,sans-Serif" font-size="10.00">#</text>
<text text-anchor="start" x="18.5" y="-405.5" font-family="Helvetica,sans-Serif" font-size="10.00">decodeHeader()</text>
<text text-anchor="start" x="5" y="-390.5" font-family="Helvetica,sans-Serif" font-size="10.00">#</text>
<text text-anchor="start" x="18.5" y="-390.5" font-family="Helvetica,sans-Serif" font-size="10.00">decodePayload()</text>
<text text-anchor="start" x="5" y="-375.5" font-family="Helvetica,sans-Serif" font-size="10.00">#</text>
<text text-anchor="start" x="18.5" y="-375.5" font-family="Helvetica,sans-Serif" font-size="10.00">encodeHeader()</text>
<text text-anchor="start" x="5" y="-360.5" font-family="Helvetica,sans-Serif" font-size="10.00">#</text>
<text text-anchor="start" x="18.5" y="-360.5" font-family="Helvetica,sans-Serif" font-size="10.00">encodePayload()</text>
<polygon fill="#bfbfbf" stroke="#bfbfbf" points="0.5,-580.5 0.5,-580.5 141.5,-580.5 141.5,-580.5 0.5,-580.5"/>
<polygon fill="#bfbfbf" stroke="#bfbfbf" points="0.5,-520.5 0.5,-520.5 16.5,-520.5 16.5,-520.5 0.5,-520.5"/>
<polygon fill="#bfbfbf" stroke="#bfbfbf" points="16.5,-520.5 16.5,-520.5 141.5,-520.5 141.5,-520.5 16.5,-520.5"/>
<polygon fill="none" stroke="#bfbfbf" points="0,-354 0,-609 141,-609 141,-354 0,-354"/>
</a>
</g>
</g>
<!-- Node2&#45;&gt;Node1 -->
<g id="edge1_Node000001_Node000002" class="edge">
<title>Node2&#45;&gt;Node1</title>
<g id="a_edge1_Node000001_Node000002"><a xlink:title=" ">
<path fill="none" stroke="#63b8ff" d="M104.6,-343.88C106.73,-335.37 108.87,-326.77 111.02,-318.17"/>
<polygon fill="none" stroke="#63b8ff" points="101.14,-343.28 102.12,-353.83 107.94,-344.98 101.14,-343.28"/>
</a>
</g>
</g>
<!-- Node3 -->
<g id="Node000003" class="node">
<title>Node3</title>
<g id="a_Node000003"><a xlink:href="../../d4/d5d/interfacepocketmine_1_1network_1_1mcpe_1_1protocol_1_1_packet.html" target="_top" xlink:title=" ">
<polygon fill="white" stroke="transparent" points="220,-780 81,-780 81,-645 220,-645 220,-780"/>
<text text-anchor="start" x="97" y="-767.5" font-family="Helvetica,sans-Serif" font-size="10.00">pocketmine\network</text>
<text text-anchor="start" x="97" y="-756.5" font-family="Helvetica,sans-Serif" font-size="10.00">\mcpe\protocol\Packet</text>
<text text-anchor="start" x="149" y="-741.5" font-family="Helvetica,sans-Serif" font-size="10.00"> </text>
<text text-anchor="start" x="85.5" y="-726.5" font-family="Helvetica,sans-Serif" font-size="10.00">+</text>
<text text-anchor="start" x="98.5" y="-726.5" font-family="Helvetica,sans-Serif" font-size="10.00">canBeSentBeforeLogin()</text>
<text text-anchor="start" x="85.5" y="-711.5" font-family="Helvetica,sans-Serif" font-size="10.00">+</text>
<text text-anchor="start" x="98.5" y="-711.5" font-family="Helvetica,sans-Serif" font-size="10.00">decode()</text>
<text text-anchor="start" x="85.5" y="-696.5" font-family="Helvetica,sans-Serif" font-size="10.00">+</text>
<text text-anchor="start" x="98.5" y="-696.5" font-family="Helvetica,sans-Serif" font-size="10.00">encode()</text>
<text text-anchor="start" x="85.5" y="-681.5" font-family="Helvetica,sans-Serif" font-size="10.00">+</text>
<text text-anchor="start" x="98.5" y="-681.5" font-family="Helvetica,sans-Serif" font-size="10.00">getName()</text>
<text text-anchor="start" x="85.5" y="-666.5" font-family="Helvetica,sans-Serif" font-size="10.00">+</text>
<text text-anchor="start" x="98.5" y="-666.5" font-family="Helvetica,sans-Serif" font-size="10.00">handle()</text>
<text text-anchor="start" x="85.5" y="-651.5" font-family="Helvetica,sans-Serif" font-size="10.00">+</text>
<text text-anchor="start" x="98.5" y="-651.5" font-family="Helvetica,sans-Serif" font-size="10.00">pid()</text>
<polygon fill="#bfbfbf" stroke="#bfbfbf" points="81.5,-751.5 81.5,-751.5 220.5,-751.5 220.5,-751.5 81.5,-751.5"/>
<polygon fill="#bfbfbf" stroke="#bfbfbf" points="81.5,-736.5 81.5,-736.5 220.5,-736.5 220.5,-736.5 81.5,-736.5"/>
<polygon fill="none" stroke="#bfbfbf" points="81,-645 81,-780 220,-780 220,-645 81,-645"/>
</a>
</g>
</g>
<!-- Node3&#45;&gt;Node2 -->
<g id="edge2_Node000002_Node000003" class="edge">
<title>Node3&#45;&gt;Node2</title>
<g id="a_edge2_Node000002_Node000003"><a xlink:title=" ">
<path fill="none" stroke="#63b8ff" d="M123.94,-635.48C120.96,-626.95 117.87,-618.11 114.75,-609.16"/>
<polygon fill="none" stroke="#63b8ff" points="120.65,-636.67 127.25,-644.96 127.26,-634.36 120.65,-636.67"/>
</a>
</g>
</g>
<!-- Node4 -->
<g id="Node000004" class="node">
<title>Node4</title>
<g id="a_Node000004"><a xlink:href="../../da/d77/interfacepocketmine_1_1network_1_1mcpe_1_1protocol_1_1_clientbound_packet.html" target="_top" xlink:title=" ">
<polygon fill="white" stroke="transparent" points="304,-517 159,-517 159,-446 304,-446 304,-517"/>
<text text-anchor="start" x="164.5" y="-504.5" font-family="Helvetica,sans-Serif" font-size="10.00">pocketmine\network</text>
<text text-anchor="start" x="164.5" y="-493.5" font-family="Helvetica,sans-Serif" font-size="10.00">\mcpe\protocol\Clientbound</text>
<text text-anchor="start" x="216" y="-482.5" font-family="Helvetica,sans-Serif" font-size="10.00">Packet</text>
<text text-anchor="start" x="230" y="-467.5" font-family="Helvetica,sans-Serif" font-size="10.00"> </text>
<text text-anchor="start" x="230" y="-452.5" font-family="Helvetica,sans-Serif" font-size="10.00"> </text>
<polygon fill="#bfbfbf" stroke="#bfbfbf" points="159.5,-477.5 159.5,-477.5 304.5,-477.5 304.5,-477.5 159.5,-477.5"/>
<polygon fill="#bfbfbf" stroke="#bfbfbf" points="159.5,-462.5 159.5,-462.5 304.5,-462.5 304.5,-462.5 159.5,-462.5"/>
<polygon fill="none" stroke="#bfbfbf" points="159,-446 159,-517 304,-517 304,-446 159,-446"/>
</a>
</g>
</g>
<!-- Node3&#45;&gt;Node4 -->
<g id="edge4_Node000004_Node000003" class="edge">
<title>Node3&#45;&gt;Node4</title>
<g id="a_edge4_Node000004_Node000003"><a xlink:title=" ">
<path fill="none" stroke="#63b8ff" d="M177.39,-635.47C191.55,-595.43 208.23,-548.29 219.29,-517.03"/>
<polygon fill="none" stroke="#63b8ff" points="174.07,-634.36 174.04,-644.96 180.67,-636.7 174.07,-634.36"/>
</a>
</g>
</g>
<!-- Node4&#45;&gt;Node1 -->
<g id="edge3_Node000001_Node000004" class="edge">
<title>Node4&#45;&gt;Node1</title>
<g id="a_edge3_Node000001_Node000004"><a xlink:title=" ">
<path fill="none" stroke="#63b8ff" d="M220.22,-435.87C212.38,-404.85 201.42,-361.46 190.5,-318.27"/>
<polygon fill="none" stroke="#63b8ff" points="216.91,-437.06 222.75,-445.9 223.7,-435.34 216.91,-437.06"/>
</a>
</g>
</g>
</g>
</svg>
