<?xml version="1.0" encoding="UTF-8" standalone="no"?>
<!DOCTYPE svg PUBLIC "-//W3C//DTD SVG 1.1//EN"
 "http://www.w3.org/Graphics/SVG/1.1/DTD/svg11.dtd">
<!-- Generated by graphviz version 2.43.0 (0)
 -->
<!-- Title: pocketmine\event\player\PlayerExhaustEvent Pages: 1 -->
<svg width="470pt" height="464pt"
 viewBox="0.00 0.00 470.00 464.00" xmlns="http://www.w3.org/2000/svg" xmlns:xlink="http://www.w3.org/1999/xlink">
<g id="graph0" class="graph" transform="scale(1 1) rotate(0) translate(4 460)">
<title>pocketmine\event\player\PlayerExhaustEvent</title>
<polygon fill="white" stroke="transparent" points="-4,4 -4,-460 466,-460 466,4 -4,4"/>
<!-- Node1 -->
<g id="node1" class="node">
<title>Node1</title>
<g id="a_node1"><a xlink:title=" ">
<polygon fill="#bfbfbf" stroke="black" points="167,-0.5 167,-123.5 305,-123.5 305,-0.5 167,-0.5"/>
<text text-anchor="start" x="175" y="-111.5" font-family="Helvetica,sans-Serif" font-size="10.00">pocketmine\event\player</text>
<text text-anchor="middle" x="236" y="-100.5" font-family="Helvetica,sans-Serif" font-size="10.00">\PlayerExhaustEvent</text>
<polyline fill="none" stroke="black" points="167,-93.5 305,-93.5 "/>
<text text-anchor="start" x="175" y="-81.5" font-family="Helvetica,sans-Serif" font-size="10.00">+ CAUSE_WALKING</text>
<text text-anchor="start" x="175" y="-70.5" font-family="Helvetica,sans-Serif" font-size="10.00"># $player</text>
<polyline fill="none" stroke="black" points="167,-63.5 305,-63.5 "/>
<text text-anchor="start" x="175" y="-51.5" font-family="Helvetica,sans-Serif" font-size="10.00">+ __construct()</text>
<text text-anchor="start" x="175" y="-40.5" font-family="Helvetica,sans-Serif" font-size="10.00">+ getAmount()</text>
<text text-anchor="start" x="175" y="-29.5" font-family="Helvetica,sans-Serif" font-size="10.00">+ getCause()</text>
<text text-anchor="start" x="175" y="-18.5" font-family="Helvetica,sans-Serif" font-size="10.00">+ getPlayer()</text>
<text text-anchor="start" x="175" y="-7.5" font-family="Helvetica,sans-Serif" font-size="10.00">+ setAmount()</text>
</a>
</g>
</g>
<!-- Node2 -->
<g id="node2" class="node">
<title>Node2</title>
<g id="a_node2"><a xlink:href="../../de/d84/classpocketmine_1_1event_1_1entity_1_1_entity_event.html" target="_top" xlink:title=" ">
<polygon fill="white" stroke="black" points="0,-281.5 0,-349.5 136,-349.5 136,-281.5 0,-281.5"/>
<text text-anchor="start" x="8" y="-337.5" font-family="Helvetica,sans-Serif" font-size="10.00">pocketmine\event\entity</text>
<text text-anchor="middle" x="68" y="-326.5" font-family="Helvetica,sans-Serif" font-size="10.00">\EntityEvent</text>
<polyline fill="none" stroke="black" points="0,-319.5 136,-319.5 "/>
<text text-anchor="start" x="8" y="-307.5" font-family="Helvetica,sans-Serif" font-size="10.00"># $entity</text>
<polyline fill="none" stroke="black" points="0,-300.5 136,-300.5 "/>
<text text-anchor="start" x="8" y="-288.5" font-family="Helvetica,sans-Serif" font-size="10.00">+ getEntity()</text>
</a>
</g>
</g>
<!-- Node2&#45;&gt;Node1 -->
<g id="edge1" class="edge">
<title>Node2&#45;&gt;Node1</title>
<path fill="none" stroke="midnightblue" d="M95.7,-273.03C122.85,-232.39 164.55,-169.97 195.43,-123.73"/>
<polygon fill="none" stroke="midnightblue" points="92.78,-271.1 90.14,-281.36 98.6,-274.99 92.78,-271.1"/>
</g>
<!-- Node3 -->
<g id="node3" class="node">
<title>Node3</title>
<g id="a_node3"><a xlink:href="../../d1/d2f/classpocketmine_1_1event_1_1_event.html" target="_top" xlink:title=" ">
<polygon fill="white" stroke="#bfbfbf" points="0.5,-387.5 0.5,-455.5 135.5,-455.5 135.5,-387.5 0.5,-387.5"/>
<text text-anchor="middle" x="68" y="-443.5" font-family="Helvetica,sans-Serif" font-size="10.00">pocketmine\event\Event</text>
<polyline fill="none" stroke="#bfbfbf" points="0.5,-436.5 135.5,-436.5 "/>
<text text-anchor="start" x="8.5" y="-424.5" font-family="Helvetica,sans-Serif" font-size="10.00"># $eventName</text>
<polyline fill="none" stroke="#bfbfbf" points="0.5,-417.5 135.5,-417.5 "/>
<text text-anchor="start" x="8.5" y="-405.5" font-family="Helvetica,sans-Serif" font-size="10.00">+ call()</text>
<text text-anchor="start" x="8.5" y="-394.5" font-family="Helvetica,sans-Serif" font-size="10.00">+ getEventName()</text>
</a>
</g>
</g>
<!-- Node3&#45;&gt;Node2 -->
<g id="edge2" class="edge">
<title>Node3&#45;&gt;Node2</title>
<path fill="none" stroke="midnightblue" d="M68,-377.17C68,-368 68,-358.46 68,-349.73"/>
<polygon fill="none" stroke="midnightblue" points="64.5,-377.31 68,-387.31 71.5,-377.31 64.5,-377.31"/>
</g>
<!-- Node4 -->
<g id="node4" class="node">
<title>Node4</title>
<g id="a_node4"><a xlink:href="../../db/d62/interfacepocketmine_1_1event_1_1_cancellable.html" target="_top" xlink:title=" ">
<polygon fill="white" stroke="black" points="154,-287 154,-344 318,-344 318,-287 154,-287"/>
<text text-anchor="middle" x="236" y="-332" font-family="Helvetica,sans-Serif" font-size="10.00">pocketmine\event\Cancellable</text>
<polyline fill="none" stroke="black" points="154,-325 318,-325 "/>
<text text-anchor="middle" x="236" y="-313" font-family="Helvetica,sans-Serif" font-size="10.00"> </text>
<polyline fill="none" stroke="black" points="154,-306 318,-306 "/>
<text text-anchor="start" x="162" y="-294" font-family="Helvetica,sans-Serif" font-size="10.00">+ isCancelled()</text>
</a>
</g>
</g>
<!-- Node4&#45;&gt;Node1 -->
<g id="edge3" class="edge">
<title>Node4&#45;&gt;Node1</title>
<path fill="none" stroke="midnightblue" d="M236,-276.37C236,-235.87 236,-171.24 236,-123.72"/>
<polygon fill="none" stroke="midnightblue" points="232.5,-276.62 236,-286.62 239.5,-276.62 232.5,-276.62"/>
</g>
<!-- Node5 -->
<g id="node5" class="node">
<title>Node5</title>
<g id="a_node5"><a xlink:title=" ">
<polygon fill="white" stroke="#bfbfbf" points="336.5,-287 336.5,-344 379.5,-344 379.5,-287 336.5,-287"/>
<text text-anchor="middle" x="358" y="-332" font-family="Helvetica,sans-Serif" font-size="10.00">const</text>
<polyline fill="none" stroke="#bfbfbf" points="336.5,-325 379.5,-325 "/>
<text text-anchor="middle" x="358" y="-313" font-family="Helvetica,sans-Serif" font-size="10.00"> </text>
<polyline fill="none" stroke="#bfbfbf" points="336.5,-306 379.5,-306 "/>
<text text-anchor="middle" x="358" y="-294" font-family="Helvetica,sans-Serif" font-size="10.00"> </text>
</a>
</g>
</g>
<!-- Node5&#45;&gt;Node1 -->
<g id="edge4" class="edge">
<title>Node5&#45;&gt;Node1</title>
<path fill="none" stroke="#404040" d="M344.48,-286.62C326.82,-250.22 295.27,-185.19 270.73,-134.6"/>
<polygon fill="none" stroke="#404040" points="270.69,-134.52 264.47,-130.86 265.45,-123.72 271.67,-127.37 270.69,-134.52"/>
<text text-anchor="middle" x="396.5" y="-255" font-family="Helvetica,sans-Serif" font-size="10.00"> +CAUSE_ATTACK</text>
<text text-anchor="middle" x="396.5" y="-244" font-family="Helvetica,sans-Serif" font-size="10.00">+CAUSE_CUSTOM</text>
<text text-anchor="middle" x="396.5" y="-233" font-family="Helvetica,sans-Serif" font-size="10.00">+CAUSE_DAMAGE</text>
<text text-anchor="middle" x="396.5" y="-222" font-family="Helvetica,sans-Serif" font-size="10.00">+CAUSE_HEALTH_REGEN</text>
<text text-anchor="middle" x="396.5" y="-211" font-family="Helvetica,sans-Serif" font-size="10.00">+CAUSE_JUMPING</text>
<text text-anchor="middle" x="396.5" y="-200" font-family="Helvetica,sans-Serif" font-size="10.00">+CAUSE_MINING</text>
<text text-anchor="middle" x="396.5" y="-189" font-family="Helvetica,sans-Serif" font-size="10.00">+CAUSE_POTION</text>
<text text-anchor="middle" x="396.5" y="-178" font-family="Helvetica,sans-Serif" font-size="10.00">+CAUSE_SPRINTING</text>
<text text-anchor="middle" x="396.5" y="-167" font-family="Helvetica,sans-Serif" font-size="10.00">+CAUSE_SPRINT_JUMPING</text>
<text text-anchor="middle" x="396.5" y="-156" font-family="Helvetica,sans-Serif" font-size="10.00">+CAUSE_SWIMMING</text>
<text text-anchor="middle" x="396.5" y="-145" font-family="Helvetica,sans-Serif" font-size="10.00">...</text>
</g>
</g>
</svg>
