<?xml version="1.0" encoding="UTF-8" standalone="no"?>
<!DOCTYPE svg PUBLIC "-//W3C//DTD SVG 1.1//EN"
 "http://www.w3.org/Graphics/SVG/1.1/DTD/svg11.dtd">
<!-- Generated by graphviz version 2.43.0 (0)
 -->
<!-- Title: pocketmine\block\tile\Bed Pages: 1 -->
<!--zoomable 1831 -->
<svg id="main" version="1.1" xmlns="http://www.w3.org/2000/svg" xmlns:xlink="http://www.w3.org/1999/xlink" xml:space="preserve" onload="init(evt)">
<style type="text/css"><![CDATA[
.edge:hover path { stroke: red; }
.edge:hover polygon { stroke: red; fill: red; }
]]></style>
<script type="text/javascript"><![CDATA[
var edges = document.getElementsByTagName('g');
if (edges && edges.length) {
  for (var i=0;i<edges.length;i++) {
    if (edges[i].id.substr(0,4)=='edge') {
      edges[i].setAttribute('class','edge');
    }
  }
}
]]></script>
        <defs>
                <circle id="rim" cx="0" cy="0" r="7"/>
                <circle id="rim2" cx="0" cy="0" r="3.5"/>
                <g id="zoomPlus">
                        <use xlink:href="#rim" fill="#404040">
                                <set attributeName="fill" to="#808080" begin="zoomplus.mouseover" end="zoomplus.mouseout"/>
                        </use>
                        <path d="M-4,0h8M0,-4v8" fill="none" stroke="white" stroke-width="1.5" pointer-events="none"/>
                </g>
                <g id="zoomMin">
                        <use xlink:href="#rim" fill="#404040">
                                <set attributeName="fill" to="#808080" begin="zoomminus.mouseover" end="zoomminus.mouseout"/>
                        </use>
                        <path d="M-4,0h8" fill="none" stroke="white" stroke-width="1.5" pointer-events="none"/>
                </g>
                <g id="dirArrow">
                        <path fill="none" stroke="white" stroke-width="1.5" d="M0,-3.0v7 M-2.5,-0.5L0,-3.0L2.5,-0.5"/>
                </g>
               <g id="resetDef">
                       <use xlink:href="#rim2" fill="#404040">
                               <set attributeName="fill" to="#808080" begin="reset.mouseover" end="reset.mouseout"/>
                       </use>
               </g>
        </defs>

<script type="text/javascript">
var viewWidth = 605;
var viewHeight = 1831;
var sectionId = 'dynsection-1';
</script>
<script xlink:href="../../svgpan.js"/>
<svg id="graph" class="graph">
<g id="viewport">
<title>pocketmine\block\tile\Bed</title>
<polygon fill="white" stroke="transparent" points="-4,4 -4,-1827 601,-1827 601,4 -4,4"/>
<!-- Node1 -->
<g id="node1" class="node">
<title>Node1</title>
<g id="a_node1"><a xlink:title=" ">
<polygon fill="#bfbfbf" stroke="black" points="0,-0.5 0,-112.5 158,-112.5 158,-0.5 0,-0.5"/>
<text text-anchor="middle" x="79" y="-100.5" font-family="Helvetica,sans-Serif" font-size="10.00">pocketmine\block\tile\Bed</text>
<polyline fill="none" stroke="black" points="0,-93.5 158,-93.5 "/>
<text text-anchor="middle" x="79" y="-81.5" font-family="Helvetica,sans-Serif" font-size="10.00"> </text>
<polyline fill="none" stroke="black" points="0,-74.5 158,-74.5 "/>
<text text-anchor="start" x="8" y="-62.5" font-family="Helvetica,sans-Serif" font-size="10.00">+ __construct()</text>
<text text-anchor="start" x="8" y="-51.5" font-family="Helvetica,sans-Serif" font-size="10.00">+ getColor()</text>
<text text-anchor="start" x="8" y="-40.5" font-family="Helvetica,sans-Serif" font-size="10.00">+ readSaveData()</text>
<text text-anchor="start" x="8" y="-29.5" font-family="Helvetica,sans-Serif" font-size="10.00">+ setColor()</text>
<text text-anchor="start" x="8" y="-18.5" font-family="Helvetica,sans-Serif" font-size="10.00"># addAdditionalSpawnData()</text>
<text text-anchor="start" x="8" y="-7.5" font-family="Helvetica,sans-Serif" font-size="10.00"># writeSaveData()</text>
</a>
</g>
</g>
<!-- Node2 -->
<g id="node2" class="node">
<title>Node2</title>
<g id="a_node2"><a xlink:href="../../dc/d0b/classpocketmine_1_1block_1_1tile_1_1_spawnable.html" target="_top" xlink:title=" ">
<polygon fill="white" stroke="#bfbfbf" points="76,-150.5 76,-295.5 266,-295.5 266,-150.5 76,-150.5"/>
<text text-anchor="start" x="84" y="-283.5" font-family="Helvetica,sans-Serif" font-size="10.00">pocketmine\block\tile</text>
<text text-anchor="middle" x="171" y="-272.5" font-family="Helvetica,sans-Serif" font-size="10.00">\Spawnable</text>
<polyline fill="none" stroke="#bfbfbf" points="76,-265.5 266,-265.5 "/>
<text text-anchor="middle" x="171" y="-253.5" font-family="Helvetica,sans-Serif" font-size="10.00"> </text>
<polyline fill="none" stroke="#bfbfbf" points="76,-246.5 266,-246.5 "/>
<text text-anchor="start" x="84" y="-234.5" font-family="Helvetica,sans-Serif" font-size="10.00">+ clearSpawnCompoundCache()</text>
<text text-anchor="start" x="84" y="-223.5" font-family="Helvetica,sans-Serif" font-size="10.00">+ getRenderUpdateBugWorkaround</text>
<text text-anchor="start" x="84" y="-212.5" font-family="Helvetica,sans-Serif" font-size="10.00">StateProperties()</text>
<text text-anchor="start" x="84" y="-201.5" font-family="Helvetica,sans-Serif" font-size="10.00">+ getSerializedSpawnCompound()</text>
<text text-anchor="start" x="84" y="-190.5" font-family="Helvetica,sans-Serif" font-size="10.00">+ getSpawnCompound()</text>
<text text-anchor="start" x="84" y="-179.5" font-family="Helvetica,sans-Serif" font-size="10.00">+ isDirty()</text>
<text text-anchor="start" x="84" y="-168.5" font-family="Helvetica,sans-Serif" font-size="10.00">+ setDirty()</text>
<text text-anchor="start" x="84" y="-157.5" font-family="Helvetica,sans-Serif" font-size="10.00"># addAdditionalSpawnData()</text>
</a>
</g>
</g>
<!-- Node2&#45;&gt;Node1 -->
<g id="edge1" class="edge">
<title>Node2&#45;&gt;Node1</title>
<path fill="none" stroke="midnightblue" d="M125.92,-141.4C120.47,-131.65 115,-121.87 109.82,-112.61"/>
<polygon fill="none" stroke="midnightblue" points="122.98,-143.31 130.92,-150.33 129.09,-139.89 122.98,-143.31"/>
</g>
<!-- Node3 -->
<g id="node3" class="node">
<title>Node3</title>
<g id="a_node3"><a xlink:href="../../d9/d74/classpocketmine_1_1block_1_1tile_1_1_tile.html" target="_top" xlink:title=" ">
<polygon fill="white" stroke="#bfbfbf" points="116,-333.5 116,-522.5 266,-522.5 266,-333.5 116,-333.5"/>
<text text-anchor="middle" x="191" y="-510.5" font-family="Helvetica,sans-Serif" font-size="10.00">pocketmine\block\tile\Tile</text>
<polyline fill="none" stroke="#bfbfbf" points="116,-503.5 266,-503.5 "/>
<text text-anchor="start" x="124" y="-491.5" font-family="Helvetica,sans-Serif" font-size="10.00">+ $closed</text>
<polyline fill="none" stroke="#bfbfbf" points="116,-484.5 266,-484.5 "/>
<text text-anchor="start" x="124" y="-472.5" font-family="Helvetica,sans-Serif" font-size="10.00">+ __construct()</text>
<text text-anchor="start" x="124" y="-461.5" font-family="Helvetica,sans-Serif" font-size="10.00">+ __destruct()</text>
<text text-anchor="start" x="124" y="-450.5" font-family="Helvetica,sans-Serif" font-size="10.00">+ close()</text>
<text text-anchor="start" x="124" y="-439.5" font-family="Helvetica,sans-Serif" font-size="10.00">+ copyDataFromItem()</text>
<text text-anchor="start" x="124" y="-428.5" font-family="Helvetica,sans-Serif" font-size="10.00">+ getBlock()</text>
<text text-anchor="start" x="124" y="-417.5" font-family="Helvetica,sans-Serif" font-size="10.00">+ getCleanedNBT()</text>
<text text-anchor="start" x="124" y="-406.5" font-family="Helvetica,sans-Serif" font-size="10.00">+ getPosition()</text>
<text text-anchor="start" x="124" y="-395.5" font-family="Helvetica,sans-Serif" font-size="10.00">+ isClosed()</text>
<text text-anchor="start" x="124" y="-384.5" font-family="Helvetica,sans-Serif" font-size="10.00">+ onBlockDestroyed()</text>
<text text-anchor="start" x="124" y="-373.5" font-family="Helvetica,sans-Serif" font-size="10.00">+ readSaveData()</text>
<text text-anchor="start" x="124" y="-362.5" font-family="Helvetica,sans-Serif" font-size="10.00">+ saveNBT()</text>
<text text-anchor="start" x="124" y="-351.5" font-family="Helvetica,sans-Serif" font-size="10.00"># onBlockDestroyedHook()</text>
<text text-anchor="start" x="124" y="-340.5" font-family="Helvetica,sans-Serif" font-size="10.00"># writeSaveData()</text>
</a>
</g>
</g>
<!-- Node3&#45;&gt;Node2 -->
<g id="edge2" class="edge">
<title>Node3&#45;&gt;Node2</title>
<path fill="none" stroke="midnightblue" d="M180.76,-323.11C179.84,-313.78 178.93,-304.47 178.05,-295.51"/>
<polygon fill="none" stroke="midnightblue" points="177.3,-323.62 181.76,-333.22 184.26,-322.93 177.3,-323.62"/>
</g>
<!-- Node4 -->
<g id="node4" class="node">
<title>Node4</title>
<g id="a_node4"><a xlink:title=" ">
<polygon fill="white" stroke="#bfbfbf" points="81.5,-1330.5 81.5,-1387.5 124.5,-1387.5 124.5,-1330.5 81.5,-1330.5"/>
<text text-anchor="middle" x="103" y="-1375.5" font-family="Helvetica,sans-Serif" font-size="10.00">const</text>
<polyline fill="none" stroke="#bfbfbf" points="81.5,-1368.5 124.5,-1368.5 "/>
<text text-anchor="middle" x="103" y="-1356.5" font-family="Helvetica,sans-Serif" font-size="10.00"> </text>
<polyline fill="none" stroke="#bfbfbf" points="81.5,-1349.5 124.5,-1349.5 "/>
<text text-anchor="middle" x="103" y="-1337.5" font-family="Helvetica,sans-Serif" font-size="10.00"> </text>
</a>
</g>
</g>
<!-- Node4&#45;&gt;Node1 -->
<g id="edge12" class="edge">
<title>Node4&#45;&gt;Node1</title>
<path fill="none" stroke="#404040" d="M95.9,-1330.44C79.42,-1264 40,-1089.59 40,-941.5 40,-941.5 40,-941.5 40,-222 40,-189.37 47.36,-154.05 55.68,-124.54"/>
<polygon fill="none" stroke="#404040" points="55.78,-124.21 53.63,-117.32 59.16,-112.69 61.3,-119.58 55.78,-124.21"/>
<text text-anchor="middle" x="75" y="-544" font-family="Helvetica,sans-Serif" font-size="10.00"> +TAG_COLOR</text>
</g>
<!-- Node4&#45;&gt;Node3 -->
<g id="edge3" class="edge">
<title>Node4&#45;&gt;Node3</title>
<path fill="none" stroke="#404040" d="M101.77,-1330.46C97.8,-1228.54 88.52,-863.44 144,-570 146.19,-558.4 149.1,-546.44 152.4,-534.63"/>
<polygon fill="none" stroke="#404040" points="152.47,-534.4 150.31,-527.52 155.82,-522.88 157.99,-529.76 152.47,-534.4"/>
<text text-anchor="middle" x="144.5" y="-759" font-family="Helvetica,sans-Serif" font-size="10.00"> +TAG_ID</text>
<text text-anchor="middle" x="144.5" y="-748" font-family="Helvetica,sans-Serif" font-size="10.00">+TAG_X</text>
<text text-anchor="middle" x="144.5" y="-737" font-family="Helvetica,sans-Serif" font-size="10.00">+TAG_Y</text>
<text text-anchor="middle" x="144.5" y="-726" font-family="Helvetica,sans-Serif" font-size="10.00">+TAG_Z</text>
</g>
<!-- Node7 -->
<g id="node7" class="node">
<title>Node7</title>
<g id="a_node7"><a xlink:href="../../d4/d2b/classpocketmine_1_1world_1_1_world.html" target="_top" xlink:title=" ">
<polygon fill="white" stroke="black" points="313,-785.5 313,-1095.5 485,-1095.5 485,-785.5 313,-785.5"/>
<text text-anchor="middle" x="399" y="-1083.5" font-family="Helvetica,sans-Serif" font-size="10.00">pocketmine\world\World</text>
<polyline fill="none" stroke="black" points="313,-1076.5 485,-1076.5 "/>
<text text-anchor="start" x="321" y="-1064.5" font-family="Helvetica,sans-Serif" font-size="10.00">+ $stopTime</text>
<text text-anchor="start" x="321" y="-1053.5" font-family="Helvetica,sans-Serif" font-size="10.00">+ $tickRateTime</text>
<text text-anchor="start" x="321" y="-1042.5" font-family="Helvetica,sans-Serif" font-size="10.00">+ $updateEntities</text>
<text text-anchor="start" x="321" y="-1031.5" font-family="Helvetica,sans-Serif" font-size="10.00">+ TIME_SUNRISE</text>
<text text-anchor="start" x="321" y="-1020.5" font-family="Helvetica,sans-Serif" font-size="10.00">+ TIME_SUNSET</text>
<text text-anchor="start" x="321" y="-1009.5" font-family="Helvetica,sans-Serif" font-size="10.00">+ Y_MAX</text>
<text text-anchor="start" x="321" y="-998.5" font-family="Helvetica,sans-Serif" font-size="10.00">+ Y_MIN</text>
<polyline fill="none" stroke="black" points="313,-991.5 485,-991.5 "/>
<text text-anchor="start" x="321" y="-979.5" font-family="Helvetica,sans-Serif" font-size="10.00">+ __construct()</text>
<text text-anchor="start" x="321" y="-968.5" font-family="Helvetica,sans-Serif" font-size="10.00">+ __debugInfo()</text>
<text text-anchor="start" x="321" y="-957.5" font-family="Helvetica,sans-Serif" font-size="10.00">+ addEntity()</text>
<text text-anchor="start" x="321" y="-946.5" font-family="Helvetica,sans-Serif" font-size="10.00">+ addOnUnloadCallback()</text>
<text text-anchor="start" x="321" y="-935.5" font-family="Helvetica,sans-Serif" font-size="10.00">+ addParticle()</text>
<text text-anchor="start" x="321" y="-924.5" font-family="Helvetica,sans-Serif" font-size="10.00">+ addRandomTickedBlock()</text>
<text text-anchor="start" x="321" y="-913.5" font-family="Helvetica,sans-Serif" font-size="10.00">+ addSound()</text>
<text text-anchor="start" x="321" y="-902.5" font-family="Helvetica,sans-Serif" font-size="10.00">+ addTile()</text>
<text text-anchor="start" x="321" y="-891.5" font-family="Helvetica,sans-Serif" font-size="10.00">+ broadcastPacketToViewers()</text>
<text text-anchor="start" x="321" y="-880.5" font-family="Helvetica,sans-Serif" font-size="10.00">+ cancelUnloadChunkRequest()</text>
<text text-anchor="start" x="321" y="-869.5" font-family="Helvetica,sans-Serif" font-size="10.00">and 120 more...</text>
<text text-anchor="start" x="321" y="-858.5" font-family="Helvetica,sans-Serif" font-size="10.00">+ blockHash()</text>
<text text-anchor="start" x="321" y="-847.5" font-family="Helvetica,sans-Serif" font-size="10.00">+ chunkBlockHash()</text>
<text text-anchor="start" x="321" y="-836.5" font-family="Helvetica,sans-Serif" font-size="10.00">+ chunkHash()</text>
<text text-anchor="start" x="321" y="-825.5" font-family="Helvetica,sans-Serif" font-size="10.00">+ getBlockXYZ()</text>
<text text-anchor="start" x="321" y="-814.5" font-family="Helvetica,sans-Serif" font-size="10.00">+ getDifficultyFromString()</text>
<text text-anchor="start" x="321" y="-803.5" font-family="Helvetica,sans-Serif" font-size="10.00">+ getXZ()</text>
<text text-anchor="start" x="321" y="-792.5" font-family="Helvetica,sans-Serif" font-size="10.00"># actuallyDoTick()</text>
</a>
</g>
</g>
<!-- Node4&#45;&gt;Node7 -->
<g id="edge8" class="edge">
<title>Node4&#45;&gt;Node7</title>
<path fill="none" stroke="#404040" d="M111.7,-1330.41C117.64,-1311.66 125.72,-1286.31 133,-1264 135.62,-1255.98 136.36,-1254.01 139,-1246 158.31,-1187.4 134.86,-1153.8 182,-1114 221.1,-1080.99 253.65,-1120.23 302.22,-1095.85"/>
<polygon fill="none" stroke="#404040" points="302.47,-1095.7 305.63,-1089.22 312.83,-1089.64 309.67,-1096.12 302.47,-1095.7"/>
<text text-anchor="start" x="182" y="-1238" font-family="Helvetica,sans-Serif" font-size="10.00"> +DEFAULT_TICKED_BLOCKS</text>
<text text-anchor="middle" x="252" y="-1227" font-family="Helvetica,sans-Serif" font-size="10.00">_PER_SUBCHUNK_PER_TICK</text>
<text text-anchor="middle" x="252" y="-1216" font-family="Helvetica,sans-Serif" font-size="10.00">+DIFFICULTY_EASY</text>
<text text-anchor="middle" x="252" y="-1205" font-family="Helvetica,sans-Serif" font-size="10.00">+DIFFICULTY_HARD</text>
<text text-anchor="middle" x="252" y="-1194" font-family="Helvetica,sans-Serif" font-size="10.00">+DIFFICULTY_NORMAL</text>
<text text-anchor="middle" x="252" y="-1183" font-family="Helvetica,sans-Serif" font-size="10.00">+DIFFICULTY_PEACEFUL</text>
<text text-anchor="middle" x="252" y="-1172" font-family="Helvetica,sans-Serif" font-size="10.00">+TIME_DAY</text>
<text text-anchor="middle" x="252" y="-1161" font-family="Helvetica,sans-Serif" font-size="10.00">+TIME_FULL</text>
<text text-anchor="middle" x="252" y="-1150" font-family="Helvetica,sans-Serif" font-size="10.00">+TIME_MIDNIGHT</text>
<text text-anchor="middle" x="252" y="-1139" font-family="Helvetica,sans-Serif" font-size="10.00">+TIME_NIGHT</text>
<text text-anchor="middle" x="252" y="-1128" font-family="Helvetica,sans-Serif" font-size="10.00">+TIME_NOON</text>
<text text-anchor="middle" x="252" y="-1117" font-family="Helvetica,sans-Serif" font-size="10.00">...</text>
</g>
<!-- Node5 -->
<g id="node5" class="node">
<title>Node5</title>
<g id="a_node5"><a xlink:href="../../d5/dd2/classpocketmine_1_1world_1_1_position.html" target="_top" xlink:title=" ">
<polygon fill="white" stroke="#bfbfbf" points="153,-570.5 153,-704.5 299,-704.5 299,-570.5 153,-570.5"/>
<text text-anchor="middle" x="226" y="-692.5" font-family="Helvetica,sans-Serif" font-size="10.00">pocketmine\world\Position</text>
<polyline fill="none" stroke="#bfbfbf" points="153,-685.5 299,-685.5 "/>
<text text-anchor="middle" x="226" y="-673.5" font-family="Helvetica,sans-Serif" font-size="10.00"> </text>
<polyline fill="none" stroke="#bfbfbf" points="153,-666.5 299,-666.5 "/>
<text text-anchor="start" x="161" y="-654.5" font-family="Helvetica,sans-Serif" font-size="10.00">+ __construct()</text>
<text text-anchor="start" x="161" y="-643.5" font-family="Helvetica,sans-Serif" font-size="10.00">+ __toString()</text>
<text text-anchor="start" x="161" y="-632.5" font-family="Helvetica,sans-Serif" font-size="10.00">+ asPosition()</text>
<text text-anchor="start" x="161" y="-621.5" font-family="Helvetica,sans-Serif" font-size="10.00">+ equals()</text>
<text text-anchor="start" x="161" y="-610.5" font-family="Helvetica,sans-Serif" font-size="10.00">+ getSide()</text>
<text text-anchor="start" x="161" y="-599.5" font-family="Helvetica,sans-Serif" font-size="10.00">+ getWorld()</text>
<text text-anchor="start" x="161" y="-588.5" font-family="Helvetica,sans-Serif" font-size="10.00">+ isValid()</text>
<text text-anchor="start" x="161" y="-577.5" font-family="Helvetica,sans-Serif" font-size="10.00">+ fromObject()</text>
</a>
</g>
</g>
<!-- Node5&#45;&gt;Node3 -->
<g id="edge4" class="edge">
<title>Node5&#45;&gt;Node3</title>
<path fill="none" stroke="#404040" d="M214.83,-570.28C212.91,-558.89 210.87,-546.81 208.83,-534.69"/>
<polygon fill="none" stroke="#404040" points="208.78,-534.41 203.84,-529.16 206.78,-522.58 211.73,-527.83 208.78,-534.41"/>
<text text-anchor="middle" x="240.5" y="-544" font-family="Helvetica,sans-Serif" font-size="10.00"> #$position</text>
</g>
<!-- Node6 -->
<g id="node6" class="node">
<title>Node6</title>
<g id="a_node6"><a xlink:href="../../d2/d90/classpocketmine_1_1math_1_1_vector3.html" target="_top" xlink:title=" ">
<polygon fill="white" stroke="#bfbfbf" points="153,-835 153,-1046 295,-1046 295,-835 153,-835"/>
<text text-anchor="middle" x="224" y="-1034" font-family="Helvetica,sans-Serif" font-size="10.00">pocketmine\math\Vector3</text>
<polyline fill="none" stroke="#bfbfbf" points="153,-1027 295,-1027 "/>
<text text-anchor="middle" x="224" y="-1015" font-family="Helvetica,sans-Serif" font-size="10.00"> </text>
<polyline fill="none" stroke="#bfbfbf" points="153,-1008 295,-1008 "/>
<text text-anchor="start" x="161" y="-996" font-family="Helvetica,sans-Serif" font-size="10.00">+ __construct()</text>
<text text-anchor="start" x="161" y="-985" font-family="Helvetica,sans-Serif" font-size="10.00">+ __toString()</text>
<text text-anchor="start" x="161" y="-974" font-family="Helvetica,sans-Serif" font-size="10.00">+ abs()</text>
<text text-anchor="start" x="161" y="-963" font-family="Helvetica,sans-Serif" font-size="10.00">+ add()</text>
<text text-anchor="start" x="161" y="-952" font-family="Helvetica,sans-Serif" font-size="10.00">+ addVector()</text>
<text text-anchor="start" x="161" y="-941" font-family="Helvetica,sans-Serif" font-size="10.00">+ asVector3()</text>
<text text-anchor="start" x="161" y="-930" font-family="Helvetica,sans-Serif" font-size="10.00">+ ceil()</text>
<text text-anchor="start" x="161" y="-919" font-family="Helvetica,sans-Serif" font-size="10.00">+ cross()</text>
<text text-anchor="start" x="161" y="-908" font-family="Helvetica,sans-Serif" font-size="10.00">+ distance()</text>
<text text-anchor="start" x="161" y="-897" font-family="Helvetica,sans-Serif" font-size="10.00">+ distanceSquared()</text>
<text text-anchor="start" x="161" y="-886" font-family="Helvetica,sans-Serif" font-size="10.00">and 32 more...</text>
<text text-anchor="start" x="161" y="-875" font-family="Helvetica,sans-Serif" font-size="10.00">+ maxComponents()</text>
<text text-anchor="start" x="161" y="-864" font-family="Helvetica,sans-Serif" font-size="10.00">+ minComponents()</text>
<text text-anchor="start" x="161" y="-853" font-family="Helvetica,sans-Serif" font-size="10.00">+ sum()</text>
<text text-anchor="start" x="161" y="-842" font-family="Helvetica,sans-Serif" font-size="10.00">+ zero()</text>
</a>
</g>
</g>
<!-- Node6&#45;&gt;Node5 -->
<g id="edge5" class="edge">
<title>Node6&#45;&gt;Node5</title>
<path fill="none" stroke="midnightblue" d="M224.76,-824.45C225.03,-784.02 225.33,-739.97 225.56,-704.89"/>
<polygon fill="none" stroke="midnightblue" points="221.26,-824.62 224.7,-834.65 228.26,-824.67 221.26,-824.62"/>
</g>
<!-- Node7&#45;&gt;Node5 -->
<g id="edge6" class="edge">
<title>Node7&#45;&gt;Node5</title>
<path fill="none" stroke="#404040" d="M312.75,-789.44C297.99,-763.76 283.22,-738.06 270.16,-715.34"/>
<polygon fill="none" stroke="#404040" points="270.07,-715.19 263.62,-711.98 264.1,-704.78 270.55,-707.99 270.07,-715.19"/>
<text text-anchor="middle" x="319.5" y="-742.5" font-family="Helvetica,sans-Serif" font-size="10.00"> +$world</text>
</g>
<!-- Node8 -->
<g id="node8" class="node">
<title>Node8</title>
<g id="a_node8"><a xlink:href="../../d0/d03/interfacepocketmine_1_1world_1_1_chunk_manager.html" target="_top" xlink:title=" ">
<polygon fill="white" stroke="#bfbfbf" points="334,-1297.5 334,-1420.5 514,-1420.5 514,-1297.5 334,-1297.5"/>
<text text-anchor="middle" x="424" y="-1408.5" font-family="Helvetica,sans-Serif" font-size="10.00">pocketmine\world\ChunkManager</text>
<polyline fill="none" stroke="#bfbfbf" points="334,-1401.5 514,-1401.5 "/>
<text text-anchor="middle" x="424" y="-1389.5" font-family="Helvetica,sans-Serif" font-size="10.00"> </text>
<polyline fill="none" stroke="#bfbfbf" points="334,-1382.5 514,-1382.5 "/>
<text text-anchor="start" x="342" y="-1370.5" font-family="Helvetica,sans-Serif" font-size="10.00">+ getBlockAt()</text>
<text text-anchor="start" x="342" y="-1359.5" font-family="Helvetica,sans-Serif" font-size="10.00">+ getChunk()</text>
<text text-anchor="start" x="342" y="-1348.5" font-family="Helvetica,sans-Serif" font-size="10.00">+ getMaxY()</text>
<text text-anchor="start" x="342" y="-1337.5" font-family="Helvetica,sans-Serif" font-size="10.00">+ getMinY()</text>
<text text-anchor="start" x="342" y="-1326.5" font-family="Helvetica,sans-Serif" font-size="10.00">+ isInWorld()</text>
<text text-anchor="start" x="342" y="-1315.5" font-family="Helvetica,sans-Serif" font-size="10.00">+ setBlockAt()</text>
<text text-anchor="start" x="342" y="-1304.5" font-family="Helvetica,sans-Serif" font-size="10.00">+ setChunk()</text>
</a>
</g>
</g>
<!-- Node8&#45;&gt;Node7 -->
<g id="edge7" class="edge">
<title>Node8&#45;&gt;Node7</title>
<path fill="none" stroke="midnightblue" d="M420.06,-1287.21C417.32,-1238.5 413.53,-1172.32 410,-1114 409.64,-1108.01 409.26,-1101.9 408.88,-1095.73"/>
<polygon fill="none" stroke="midnightblue" points="416.57,-1287.54 420.63,-1297.33 423.56,-1287.15 416.57,-1287.54"/>
</g>
<!-- Node9 -->
<g id="node9" class="node">
<title>Node9</title>
<g id="a_node9"><a xlink:href="../../d7/d08/classpocketmine_1_1world_1_1_world_timings.html" target="_top" xlink:title=" ">
<polygon fill="white" stroke="#bfbfbf" points="142.5,-1264.5 142.5,-1453.5 315.5,-1453.5 315.5,-1264.5 142.5,-1264.5"/>
<text text-anchor="middle" x="229" y="-1441.5" font-family="Helvetica,sans-Serif" font-size="10.00">pocketmine\world\WorldTimings</text>
<polyline fill="none" stroke="#bfbfbf" points="142.5,-1434.5 315.5,-1434.5 "/>
<text text-anchor="start" x="150.5" y="-1422.5" font-family="Helvetica,sans-Serif" font-size="10.00">+ $scheduledBlockUpdates</text>
<text text-anchor="start" x="150.5" y="-1411.5" font-family="Helvetica,sans-Serif" font-size="10.00">+ $setBlock</text>
<text text-anchor="start" x="150.5" y="-1400.5" font-family="Helvetica,sans-Serif" font-size="10.00">+ $syncChunkLoad</text>
<text text-anchor="start" x="150.5" y="-1389.5" font-family="Helvetica,sans-Serif" font-size="10.00">+ $syncChunkLoadData</text>
<text text-anchor="start" x="150.5" y="-1378.5" font-family="Helvetica,sans-Serif" font-size="10.00">+ $syncChunkLoadEntities</text>
<text text-anchor="start" x="150.5" y="-1367.5" font-family="Helvetica,sans-Serif" font-size="10.00">+ $syncChunkLoadFixInvalid</text>
<text text-anchor="start" x="150.5" y="-1356.5" font-family="Helvetica,sans-Serif" font-size="10.00">Blocks</text>
<text text-anchor="start" x="150.5" y="-1345.5" font-family="Helvetica,sans-Serif" font-size="10.00">+ $syncChunkLoadTileEntities</text>
<text text-anchor="start" x="150.5" y="-1334.5" font-family="Helvetica,sans-Serif" font-size="10.00">+ $syncChunkSave</text>
<text text-anchor="start" x="150.5" y="-1323.5" font-family="Helvetica,sans-Serif" font-size="10.00">+ $syncChunkSend</text>
<text text-anchor="start" x="150.5" y="-1312.5" font-family="Helvetica,sans-Serif" font-size="10.00">+ $syncChunkSendPrepare</text>
<text text-anchor="start" x="150.5" y="-1301.5" font-family="Helvetica,sans-Serif" font-size="10.00">+ $syncDataSave</text>
<text text-anchor="start" x="150.5" y="-1290.5" font-family="Helvetica,sans-Serif" font-size="10.00">+ $tileTick</text>
<polyline fill="none" stroke="#bfbfbf" points="142.5,-1283.5 315.5,-1283.5 "/>
<text text-anchor="start" x="150.5" y="-1271.5" font-family="Helvetica,sans-Serif" font-size="10.00">+ __construct()</text>
</a>
</g>
</g>
<!-- Node9&#45;&gt;Node7 -->
<g id="edge9" class="edge">
<title>Node9&#45;&gt;Node7</title>
<path fill="none" stroke="#404040" d="M315.52,-1264.82C319.38,-1258.66 322.92,-1252.37 326,-1246 352,-1192.25 337.43,-1172.15 351,-1114 351.51,-1111.82 352.02,-1109.63 352.55,-1107.43"/>
<polygon fill="none" stroke="#404040" points="352.6,-1107.23 350.13,-1100.45 355.44,-1095.57 357.9,-1102.35 352.6,-1107.23"/>
<text text-anchor="middle" x="378.5" y="-1177.5" font-family="Helvetica,sans-Serif" font-size="10.00"> +$timings</text>
</g>
<!-- Node10 -->
<g id="node10" class="node">
<title>Node10</title>
<g id="a_node10"><a xlink:href="../../d7/d9b/classpocketmine_1_1timings_1_1_timings_handler.html" target="_top" xlink:title=" ">
<polygon fill="white" stroke="#bfbfbf" points="329.5,-1622.5 329.5,-1822.5 442.5,-1822.5 442.5,-1622.5 329.5,-1622.5"/>
<text text-anchor="start" x="337.5" y="-1810.5" font-family="Helvetica,sans-Serif" font-size="10.00">pocketmine\timings</text>
<text text-anchor="middle" x="386" y="-1799.5" font-family="Helvetica,sans-Serif" font-size="10.00">\TimingsHandler</text>
<polyline fill="none" stroke="#bfbfbf" points="329.5,-1792.5 442.5,-1792.5 "/>
<text text-anchor="middle" x="386" y="-1780.5" font-family="Helvetica,sans-Serif" font-size="10.00"> </text>
<polyline fill="none" stroke="#bfbfbf" points="329.5,-1773.5 442.5,-1773.5 "/>
<text text-anchor="start" x="337.5" y="-1761.5" font-family="Helvetica,sans-Serif" font-size="10.00">+ __construct()</text>
<text text-anchor="start" x="337.5" y="-1750.5" font-family="Helvetica,sans-Serif" font-size="10.00">+ getGroup()</text>
<text text-anchor="start" x="337.5" y="-1739.5" font-family="Helvetica,sans-Serif" font-size="10.00">+ getName()</text>
<text text-anchor="start" x="337.5" y="-1728.5" font-family="Helvetica,sans-Serif" font-size="10.00">+ reset()</text>
<text text-anchor="start" x="337.5" y="-1717.5" font-family="Helvetica,sans-Serif" font-size="10.00">+ startTiming()</text>
<text text-anchor="start" x="337.5" y="-1706.5" font-family="Helvetica,sans-Serif" font-size="10.00">+ stopTiming()</text>
<text text-anchor="start" x="337.5" y="-1695.5" font-family="Helvetica,sans-Serif" font-size="10.00">+ time()</text>
<text text-anchor="start" x="337.5" y="-1684.5" font-family="Helvetica,sans-Serif" font-size="10.00">+ getStartTime()</text>
<text text-anchor="start" x="337.5" y="-1673.5" font-family="Helvetica,sans-Serif" font-size="10.00">+ isEnabled()</text>
<text text-anchor="start" x="337.5" y="-1662.5" font-family="Helvetica,sans-Serif" font-size="10.00">+ printTimings()</text>
<text text-anchor="start" x="337.5" y="-1651.5" font-family="Helvetica,sans-Serif" font-size="10.00">+ reload()</text>
<text text-anchor="start" x="337.5" y="-1640.5" font-family="Helvetica,sans-Serif" font-size="10.00">+ setEnabled()</text>
<text text-anchor="start" x="337.5" y="-1629.5" font-family="Helvetica,sans-Serif" font-size="10.00">+ tick()</text>
</a>
</g>
</g>
<!-- Node10&#45;&gt;Node3 -->
<g id="edge11" class="edge">
<title>Node10&#45;&gt;Node3</title>
<path fill="none" stroke="#404040" d="M442.55,-1668.37C459.73,-1649.53 477.18,-1627.2 489,-1604 539.39,-1505.13 542,-1470.97 542,-1360 542,-1360 542,-1360 542,-636.5 542,-514.27 382.33,-462.53 278.37,-441.79"/>
<polygon fill="none" stroke="#404040" points="278.08,-441.74 271.44,-444.53 266.3,-439.47 272.95,-436.68 278.08,-441.74"/>
<text text-anchor="middle" x="569.5" y="-938" font-family="Helvetica,sans-Serif" font-size="10.00"> #$timings</text>
</g>
<!-- Node10&#45;&gt;Node9 -->
<g id="edge10" class="edge">
<title>Node10&#45;&gt;Node9</title>
<path fill="none" stroke="#404040" d="M342.89,-1622.24C321.67,-1573.37 296.07,-1514.44 274.53,-1464.84"/>
<polygon fill="none" stroke="#404040" points="274.5,-1464.76 268.44,-1460.85 269.72,-1453.75 275.78,-1457.66 274.5,-1464.76"/>
<text text-anchor="middle" x="407.5" y="-1596" font-family="Helvetica,sans-Serif" font-size="10.00"> +$chunkPopulationCompletion</text>
<text text-anchor="middle" x="407.5" y="-1585" font-family="Helvetica,sans-Serif" font-size="10.00">+$chunkPopulationOrder</text>
<text text-anchor="middle" x="407.5" y="-1574" font-family="Helvetica,sans-Serif" font-size="10.00">+$doBlockLightUpdates</text>
<text text-anchor="middle" x="407.5" y="-1563" font-family="Helvetica,sans-Serif" font-size="10.00">+$doBlockSkyLightUpdates</text>
<text text-anchor="middle" x="407.5" y="-1552" font-family="Helvetica,sans-Serif" font-size="10.00">+$doChunkGC</text>
<text text-anchor="middle" x="407.5" y="-1541" font-family="Helvetica,sans-Serif" font-size="10.00">+$doChunkUnload</text>
<text text-anchor="middle" x="407.5" y="-1530" font-family="Helvetica,sans-Serif" font-size="10.00">+$doTick</text>
<text text-anchor="middle" x="407.5" y="-1519" font-family="Helvetica,sans-Serif" font-size="10.00">+$entityTick</text>
<text text-anchor="middle" x="407.5" y="-1508" font-family="Helvetica,sans-Serif" font-size="10.00">+$randomChunkUpdates</text>
<text text-anchor="start" x="330" y="-1497" font-family="Helvetica,sans-Serif" font-size="10.00">+$randomChunkUpdatesChunk</text>
<text text-anchor="middle" x="407.5" y="-1486" font-family="Helvetica,sans-Serif" font-size="10.00">Selection</text>
<text text-anchor="middle" x="407.5" y="-1475" font-family="Helvetica,sans-Serif" font-size="10.00">...</text>
</g>
</g>
</svg>
        <g id="navigator" transform="translate(0 0)" fill="#404254">
                <rect fill="#f2f5e9" fill-opacity="0.5" stroke="#606060" stroke-width=".5" x="0" y="0" width="60" height="60"/>
                <use id="zoomplus" xlink:href="#zoomPlus" x="17" y="9" onmousedown="handleZoom(evt,'in')"/>
                <use id="zoomminus" xlink:href="#zoomMin" x="42" y="9" onmousedown="handleZoom(evt,'out')"/>
                <use id="reset" xlink:href="#resetDef" x="30" y="36" onmousedown="handleReset()"/>
                <g id="arrowUp" xlink:href="#dirArrow" transform="translate(30 24)" onmousedown="handlePan(0,-1)">
                  <use xlink:href="#rim" fill="#404040">
                        <set attributeName="fill" to="#808080" begin="arrowUp.mouseover" end="arrowUp.mouseout"/>
                  </use>
                  <path fill="none" stroke="white" stroke-width="1.5" d="M0,-3.0v7 M-2.5,-0.5L0,-3.0L2.5,-0.5"/>
                </g>
                <g id="arrowRight" xlink:href="#dirArrow" transform="rotate(90) translate(36 -43)" onmousedown="handlePan(1,0)">
                  <use xlink:href="#rim" fill="#404040">
                        <set attributeName="fill" to="#808080" begin="arrowRight.mouseover" end="arrowRight.mouseout"/>
                  </use>
                  <path fill="none" stroke="white" stroke-width="1.5" d="M0,-3.0v7 M-2.5,-0.5L0,-3.0L2.5,-0.5"/>
                </g>
                <g id="arrowDown" xlink:href="#dirArrow" transform="rotate(180) translate(-30 -48)" onmousedown="handlePan(0,1)">
                  <use xlink:href="#rim" fill="#404040">
                        <set attributeName="fill" to="#808080" begin="arrowDown.mouseover" end="arrowDown.mouseout"/>
                  </use>
                  <path fill="none" stroke="white" stroke-width="1.5" d="M0,-3.0v7 M-2.5,-0.5L0,-3.0L2.5,-0.5"/>
                </g>
                <g id="arrowLeft" xlink:href="#dirArrow" transform="rotate(270) translate(-36 17)" onmousedown="handlePan(-1,0)">
                  <use xlink:href="#rim" fill="#404040">
                        <set attributeName="fill" to="#808080" begin="arrowLeft.mouseover" end="arrowLeft.mouseout"/>
                  </use>
                  <path fill="none" stroke="white" stroke-width="1.5" d="M0,-3.0v7 M-2.5,-0.5L0,-3.0L2.5,-0.5"/>
                </g>
        </g>
        <svg viewBox="0 0 15 15" width="100%" height="30px" preserveAspectRatio="xMaxYMin meet">
         <g id="arrow_out" transform="scale(0.3 0.3)">
          <a xlink:href="classpocketmine_1_1block_1_1tile_1_1_bed__coll__graph_org.svg" target="_base">
           <rect id="button" ry="5" rx="5" y="6" x="6" height="38" width="38"
                fill="#f2f5e9" fill-opacity="0.5" stroke="#606060" stroke-width="1.0"/>
           <path id="arrow"
             d="M 11.500037,31.436501 C 11.940474,20.09759 22.043105,11.32322 32.158766,21.979434 L 37.068811,17.246167 C 37.068811,17.246167 37.088388,32 37.088388,32 L 22.160133,31.978069 C 22.160133,31.978069 26.997745,27.140456 26.997745,27.140456 C 18.528582,18.264221 13.291696,25.230495 11.500037,31.436501 z"
             style="fill:#404040;"/>
          </a>
         </g>
        </svg>
</svg>
