<?xml version="1.0" encoding="UTF-8" standalone="no"?>
<!DOCTYPE svg PUBLIC "-//W3C//DTD SVG 1.1//EN"
 "http://www.w3.org/Graphics/SVG/1.1/DTD/svg11.dtd">
<!-- Generated by graphviz version 2.43.0 (0)
 -->
<!-- Title: pocketmine\item\WritableBookBase Pages: 1 -->
<!--zoomable 1065 -->
<svg id="main" version="1.1" xmlns="http://www.w3.org/2000/svg" xmlns:xlink="http://www.w3.org/1999/xlink" xml:space="preserve" onload="init(evt)">
<style type="text/css"><![CDATA[
.edge:hover path { stroke: red; }
.edge:hover polygon { stroke: red; fill: red; }
]]></style>
<script type="text/javascript"><![CDATA[
var edges = document.getElementsByTagName('g');
if (edges && edges.length) {
  for (var i=0;i<edges.length;i++) {
    if (edges[i].id.substr(0,4)=='edge') {
      edges[i].setAttribute('class','edge');
    }
  }
}
]]></script>
        <defs>
                <circle id="rim" cx="0" cy="0" r="7"/>
                <circle id="rim2" cx="0" cy="0" r="3.5"/>
                <g id="zoomPlus">
                        <use xlink:href="#rim" fill="#404040">
                                <set attributeName="fill" to="#808080" begin="zoomplus.mouseover" end="zoomplus.mouseout"/>
                        </use>
                        <path d="M-4,0h8M0,-4v8" fill="none" stroke="white" stroke-width="1.5" pointer-events="none"/>
                </g>
                <g id="zoomMin">
                        <use xlink:href="#rim" fill="#404040">
                                <set attributeName="fill" to="#808080" begin="zoomminus.mouseover" end="zoomminus.mouseout"/>
                        </use>
                        <path d="M-4,0h8" fill="none" stroke="white" stroke-width="1.5" pointer-events="none"/>
                </g>
                <g id="dirArrow">
                        <path fill="none" stroke="white" stroke-width="1.5" d="M0,-3.0v7 M-2.5,-0.5L0,-3.0L2.5,-0.5"/>
                </g>
               <g id="resetDef">
                       <use xlink:href="#rim2" fill="#404040">
                               <set attributeName="fill" to="#808080" begin="reset.mouseover" end="reset.mouseout"/>
                       </use>
               </g>
        </defs>

<script type="text/javascript">
var viewWidth = 531;
var viewHeight = 1065;
var sectionId = 'dynsection-1';
</script>
<script xlink:href="../../svgpan.js"/>
<svg id="graph" class="graph">
<g id="viewport">
<title>pocketmine\item\WritableBookBase</title>
<polygon fill="white" stroke="transparent" points="-4,4 -4,-1061 526.5,-1061 526.5,4 -4,4"/>
<!-- Node1 -->
<g id="node1" class="node">
<title>Node1</title>
<g id="a_node1"><a xlink:title=" ">
<polygon fill="#bfbfbf" stroke="black" points="215.5,-0.5 215.5,-200.5 373.5,-200.5 373.5,-0.5 215.5,-0.5"/>
<text text-anchor="start" x="223.5" y="-188.5" font-family="Helvetica,sans-Serif" font-size="10.00">pocketmine\item\Writable</text>
<text text-anchor="middle" x="294.5" y="-177.5" font-family="Helvetica,sans-Serif" font-size="10.00">BookBase</text>
<polyline fill="none" stroke="black" points="215.5,-170.5 373.5,-170.5 "/>
<text text-anchor="middle" x="294.5" y="-158.5" font-family="Helvetica,sans-Serif" font-size="10.00"> </text>
<polyline fill="none" stroke="black" points="215.5,-151.5 373.5,-151.5 "/>
<text text-anchor="start" x="223.5" y="-139.5" font-family="Helvetica,sans-Serif" font-size="10.00">+ __construct()</text>
<text text-anchor="start" x="223.5" y="-128.5" font-family="Helvetica,sans-Serif" font-size="10.00">+ addPage()</text>
<text text-anchor="start" x="223.5" y="-117.5" font-family="Helvetica,sans-Serif" font-size="10.00">+ deletePage()</text>
<text text-anchor="start" x="223.5" y="-106.5" font-family="Helvetica,sans-Serif" font-size="10.00">+ getMaxStackSize()</text>
<text text-anchor="start" x="223.5" y="-95.5" font-family="Helvetica,sans-Serif" font-size="10.00">+ getPages()</text>
<text text-anchor="start" x="223.5" y="-84.5" font-family="Helvetica,sans-Serif" font-size="10.00">+ getPageText()</text>
<text text-anchor="start" x="223.5" y="-73.5" font-family="Helvetica,sans-Serif" font-size="10.00">+ insertPage()</text>
<text text-anchor="start" x="223.5" y="-62.5" font-family="Helvetica,sans-Serif" font-size="10.00">+ pageExists()</text>
<text text-anchor="start" x="223.5" y="-51.5" font-family="Helvetica,sans-Serif" font-size="10.00">+ setPages()</text>
<text text-anchor="start" x="223.5" y="-40.5" font-family="Helvetica,sans-Serif" font-size="10.00">+ setPageText()</text>
<text text-anchor="start" x="223.5" y="-29.5" font-family="Helvetica,sans-Serif" font-size="10.00">+ swapPages()</text>
<text text-anchor="start" x="223.5" y="-18.5" font-family="Helvetica,sans-Serif" font-size="10.00"># deserializeCompoundTag()</text>
<text text-anchor="start" x="223.5" y="-7.5" font-family="Helvetica,sans-Serif" font-size="10.00"># serializeCompoundTag()</text>
</a>
</g>
</g>
<!-- Node2 -->
<g id="node2" class="node">
<title>Node2</title>
<g id="a_node2"><a xlink:href="../../d5/d8a/classpocketmine_1_1item_1_1_item.html" target="_top" xlink:title=" ">
<polygon fill="white" stroke="#bfbfbf" points="113.5,-238.5 113.5,-515.5 271.5,-515.5 271.5,-238.5 113.5,-238.5"/>
<text text-anchor="middle" x="192.5" y="-503.5" font-family="Helvetica,sans-Serif" font-size="10.00">pocketmine\item\Item</text>
<polyline fill="none" stroke="#bfbfbf" points="113.5,-496.5 271.5,-496.5 "/>
<text text-anchor="start" x="121.5" y="-484.5" font-family="Helvetica,sans-Serif" font-size="10.00"># $canDestroy</text>
<text text-anchor="start" x="121.5" y="-473.5" font-family="Helvetica,sans-Serif" font-size="10.00"># $canPlaceOn</text>
<text text-anchor="start" x="121.5" y="-462.5" font-family="Helvetica,sans-Serif" font-size="10.00"># $count</text>
<text text-anchor="start" x="121.5" y="-451.5" font-family="Helvetica,sans-Serif" font-size="10.00"># $customName</text>
<text text-anchor="start" x="121.5" y="-440.5" font-family="Helvetica,sans-Serif" font-size="10.00"># $keepOnDeath</text>
<text text-anchor="start" x="121.5" y="-429.5" font-family="Helvetica,sans-Serif" font-size="10.00"># $lore</text>
<polyline fill="none" stroke="#bfbfbf" points="113.5,-422.5 271.5,-422.5 "/>
<text text-anchor="start" x="121.5" y="-410.5" font-family="Helvetica,sans-Serif" font-size="10.00">+ __construct()</text>
<text text-anchor="start" x="121.5" y="-399.5" font-family="Helvetica,sans-Serif" font-size="10.00">+ __clone()</text>
<text text-anchor="start" x="121.5" y="-388.5" font-family="Helvetica,sans-Serif" font-size="10.00">+ __toString()</text>
<text text-anchor="start" x="121.5" y="-377.5" font-family="Helvetica,sans-Serif" font-size="10.00">+ canBePlaced()</text>
<text text-anchor="start" x="121.5" y="-366.5" font-family="Helvetica,sans-Serif" font-size="10.00">+ canStackWith()</text>
<text text-anchor="start" x="121.5" y="-355.5" font-family="Helvetica,sans-Serif" font-size="10.00">+ clearCustomBlockData()</text>
<text text-anchor="start" x="121.5" y="-344.5" font-family="Helvetica,sans-Serif" font-size="10.00">+ clearCustomName()</text>
<text text-anchor="start" x="121.5" y="-333.5" font-family="Helvetica,sans-Serif" font-size="10.00">+ clearNamedTag()</text>
<text text-anchor="start" x="121.5" y="-322.5" font-family="Helvetica,sans-Serif" font-size="10.00">+ equals()</text>
<text text-anchor="start" x="121.5" y="-311.5" font-family="Helvetica,sans-Serif" font-size="10.00">+ equalsExact()</text>
<text text-anchor="start" x="121.5" y="-300.5" font-family="Helvetica,sans-Serif" font-size="10.00">and 48 more...</text>
<text text-anchor="start" x="121.5" y="-289.5" font-family="Helvetica,sans-Serif" font-size="10.00">+ legacyJsonDeserialize()</text>
<text text-anchor="start" x="121.5" y="-278.5" font-family="Helvetica,sans-Serif" font-size="10.00">+ nbtDeserialize()</text>
<text text-anchor="start" x="121.5" y="-267.5" font-family="Helvetica,sans-Serif" font-size="10.00"># describeState()</text>
<text text-anchor="start" x="121.5" y="-256.5" font-family="Helvetica,sans-Serif" font-size="10.00"># deserializeCompoundTag()</text>
<text text-anchor="start" x="121.5" y="-245.5" font-family="Helvetica,sans-Serif" font-size="10.00"># serializeCompoundTag()</text>
</a>
</g>
</g>
<!-- Node2&#45;&gt;Node1 -->
<g id="edge1" class="edge">
<title>Node2&#45;&gt;Node1</title>
<path fill="none" stroke="midnightblue" d="M247.19,-228.82C250.72,-219.32 254.23,-209.87 257.65,-200.67"/>
<polygon fill="none" stroke="midnightblue" points="243.85,-227.75 243.65,-238.35 250.41,-230.19 243.85,-227.75"/>
</g>
<!-- Node3 -->
<g id="node3" class="node">
<title>Node3</title>
<g id="a_node3"><a xlink:title=" ">
<polygon fill="white" stroke="#bfbfbf" points="10.5,-706.5 10.5,-763.5 104.5,-763.5 104.5,-706.5 10.5,-706.5"/>
<text text-anchor="middle" x="57.5" y="-751.5" font-family="Helvetica,sans-Serif" font-size="10.00">JsonSerializable</text>
<polyline fill="none" stroke="#bfbfbf" points="10.5,-744.5 104.5,-744.5 "/>
<text text-anchor="middle" x="57.5" y="-732.5" font-family="Helvetica,sans-Serif" font-size="10.00"> </text>
<polyline fill="none" stroke="#bfbfbf" points="10.5,-725.5 104.5,-725.5 "/>
<text text-anchor="middle" x="57.5" y="-713.5" font-family="Helvetica,sans-Serif" font-size="10.00"> </text>
</a>
</g>
</g>
<!-- Node3&#45;&gt;Node2 -->
<g id="edge2" class="edge">
<title>Node3&#45;&gt;Node2</title>
<path fill="none" stroke="midnightblue" d="M71.04,-696.79C85.72,-656.57 109.96,-590.62 131.5,-534 133.78,-528.02 136.11,-521.92 138.48,-515.75"/>
<polygon fill="none" stroke="midnightblue" points="67.65,-695.85 67.52,-706.44 74.23,-698.25 67.65,-695.85"/>
</g>
<!-- Node4 -->
<g id="node4" class="node">
<title>Node4</title>
<g id="a_node4"><a xlink:title=" ">
<polygon fill="white" stroke="#bfbfbf" points="295,-706.5 295,-763.5 338,-763.5 338,-706.5 295,-706.5"/>
<text text-anchor="middle" x="316.5" y="-751.5" font-family="Helvetica,sans-Serif" font-size="10.00">const</text>
<polyline fill="none" stroke="#bfbfbf" points="295,-744.5 338,-744.5 "/>
<text text-anchor="middle" x="316.5" y="-732.5" font-family="Helvetica,sans-Serif" font-size="10.00"> </text>
<polyline fill="none" stroke="#bfbfbf" points="295,-725.5 338,-725.5 "/>
<text text-anchor="middle" x="316.5" y="-713.5" font-family="Helvetica,sans-Serif" font-size="10.00"> </text>
</a>
</g>
</g>
<!-- Node4&#45;&gt;Node1 -->
<g id="edge8" class="edge">
<title>Node4&#45;&gt;Node1</title>
<path fill="none" stroke="#404040" d="M335.07,-706.46C351.48,-680.35 374.21,-639.36 383.5,-600 414.72,-467.77 375.81,-313.52 340.06,-212.02"/>
<polygon fill="none" stroke="#404040" points="339.99,-211.83 334.21,-207.52 335.95,-200.53 341.74,-204.83 339.99,-211.83"/>
<text text-anchor="middle" x="458.5" y="-385.5" font-family="Helvetica,sans-Serif" font-size="10.00"> +TAG_PAGES</text>
<text text-anchor="middle" x="458.5" y="-374.5" font-family="Helvetica,sans-Serif" font-size="10.00">+TAG_PAGE_PHOTONAME</text>
<text text-anchor="middle" x="458.5" y="-363.5" font-family="Helvetica,sans-Serif" font-size="10.00">+TAG_PAGE_TEXT</text>
</g>
<!-- Node4&#45;&gt;Node2 -->
<g id="edge3" class="edge">
<title>Node4&#45;&gt;Node2</title>
<path fill="none" stroke="#404040" d="M300.46,-706.29C285.61,-679.72 263.74,-638.13 249.5,-600 240.85,-576.83 233.03,-551.83 226.16,-527.24"/>
<polygon fill="none" stroke="#404040" points="226.15,-527.17 220.7,-522.45 222.97,-515.6 228.42,-520.33 226.15,-527.17"/>
<text text-anchor="middle" x="316.5" y="-592" font-family="Helvetica,sans-Serif" font-size="10.00"> +TAG_BLOCK_ENTITY_TAG</text>
<text text-anchor="middle" x="316.5" y="-581" font-family="Helvetica,sans-Serif" font-size="10.00">+TAG_DISPLAY</text>
<text text-anchor="middle" x="316.5" y="-570" font-family="Helvetica,sans-Serif" font-size="10.00">+TAG_DISPLAY_LORE</text>
<text text-anchor="middle" x="316.5" y="-559" font-family="Helvetica,sans-Serif" font-size="10.00">+TAG_DISPLAY_NAME</text>
<text text-anchor="middle" x="316.5" y="-548" font-family="Helvetica,sans-Serif" font-size="10.00">+TAG_ENCH</text>
<text text-anchor="middle" x="316.5" y="-537" font-family="Helvetica,sans-Serif" font-size="10.00">+TAG_KEEP_ON_DEATH</text>
</g>
<!-- Node5 -->
<g id="node5" class="node">
<title>Node5</title>
<g id="a_node5"><a xlink:href="../../de/d67/classpocketmine_1_1nbt_1_1tag_1_1_compound_tag.html" target="_top" xlink:title=" ">
<polygon fill="white" stroke="black" points="122.5,-618.5 122.5,-851.5 242.5,-851.5 242.5,-618.5 122.5,-618.5"/>
<text text-anchor="start" x="130.5" y="-839.5" font-family="Helvetica,sans-Serif" font-size="10.00">pocketmine\nbt\tag</text>
<text text-anchor="middle" x="182.5" y="-828.5" font-family="Helvetica,sans-Serif" font-size="10.00">\CompoundTag</text>
<polyline fill="none" stroke="black" points="122.5,-821.5 242.5,-821.5 "/>
<text text-anchor="middle" x="182.5" y="-809.5" font-family="Helvetica,sans-Serif" font-size="10.00"> </text>
<polyline fill="none" stroke="black" points="122.5,-802.5 242.5,-802.5 "/>
<text text-anchor="start" x="130.5" y="-790.5" font-family="Helvetica,sans-Serif" font-size="10.00">+ __construct()</text>
<text text-anchor="start" x="130.5" y="-779.5" font-family="Helvetica,sans-Serif" font-size="10.00">+ __clone()</text>
<text text-anchor="start" x="130.5" y="-768.5" font-family="Helvetica,sans-Serif" font-size="10.00">+ count()</text>
<text text-anchor="start" x="130.5" y="-757.5" font-family="Helvetica,sans-Serif" font-size="10.00">+ equals()</text>
<text text-anchor="start" x="130.5" y="-746.5" font-family="Helvetica,sans-Serif" font-size="10.00">+ getByte()</text>
<text text-anchor="start" x="130.5" y="-735.5" font-family="Helvetica,sans-Serif" font-size="10.00">+ getByteArray()</text>
<text text-anchor="start" x="130.5" y="-724.5" font-family="Helvetica,sans-Serif" font-size="10.00">+ getCompoundTag()</text>
<text text-anchor="start" x="130.5" y="-713.5" font-family="Helvetica,sans-Serif" font-size="10.00">+ getCount()</text>
<text text-anchor="start" x="130.5" y="-702.5" font-family="Helvetica,sans-Serif" font-size="10.00">+ getDouble()</text>
<text text-anchor="start" x="130.5" y="-691.5" font-family="Helvetica,sans-Serif" font-size="10.00">+ getFloat()</text>
<text text-anchor="start" x="130.5" y="-680.5" font-family="Helvetica,sans-Serif" font-size="10.00">and 23 more...</text>
<text text-anchor="start" x="130.5" y="-669.5" font-family="Helvetica,sans-Serif" font-size="10.00">+ create()</text>
<text text-anchor="start" x="130.5" y="-658.5" font-family="Helvetica,sans-Serif" font-size="10.00">+ read()</text>
<text text-anchor="start" x="130.5" y="-647.5" font-family="Helvetica,sans-Serif" font-size="10.00"># getTypeName()</text>
<text text-anchor="start" x="130.5" y="-636.5" font-family="Helvetica,sans-Serif" font-size="10.00"># makeCopy()</text>
<text text-anchor="start" x="130.5" y="-625.5" font-family="Helvetica,sans-Serif" font-size="10.00"># stringifyValue()</text>
</a>
</g>
</g>
<!-- Node5&#45;&gt;Node2 -->
<g id="edge4" class="edge">
<title>Node5&#45;&gt;Node2</title>
<path fill="none" stroke="#404040" d="M141.12,-618.37C139.71,-612.21 138.49,-606.05 137.5,-600 133.65,-576.45 134.64,-551.72 138.41,-527.67"/>
<polygon fill="none" stroke="#404040" points="138.46,-527.36 135.57,-520.76 140.55,-515.54 143.44,-522.15 138.46,-527.36"/>
<text text-anchor="middle" x="182" y="-564.5" font-family="Helvetica,sans-Serif" font-size="10.00"> #$blockEntityTag</text>
</g>
<!-- Node6 -->
<g id="node6" class="node">
<title>Node6</title>
<g id="a_node6"><a xlink:href="../../dc/d26/classpocketmine_1_1nbt_1_1tag_1_1_tag.html" target="_top" xlink:title=" ">
<polygon fill="white" stroke="#bfbfbf" points="0,-889.5 0,-1056.5 131,-1056.5 131,-889.5 0,-889.5"/>
<text text-anchor="middle" x="65.5" y="-1044.5" font-family="Helvetica,sans-Serif" font-size="10.00">pocketmine\nbt\tag\Tag</text>
<polyline fill="none" stroke="#bfbfbf" points="0,-1037.5 131,-1037.5 "/>
<text text-anchor="start" x="8" y="-1025.5" font-family="Helvetica,sans-Serif" font-size="10.00"># $cloning</text>
<polyline fill="none" stroke="#bfbfbf" points="0,-1018.5 131,-1018.5 "/>
<text text-anchor="start" x="8" y="-1006.5" font-family="Helvetica,sans-Serif" font-size="10.00">+ __toString()</text>
<text text-anchor="start" x="8" y="-995.5" font-family="Helvetica,sans-Serif" font-size="10.00">+ equals()</text>
<text text-anchor="start" x="8" y="-984.5" font-family="Helvetica,sans-Serif" font-size="10.00">+ getType()</text>
<text text-anchor="start" x="8" y="-973.5" font-family="Helvetica,sans-Serif" font-size="10.00">+ getValue()</text>
<text text-anchor="start" x="8" y="-962.5" font-family="Helvetica,sans-Serif" font-size="10.00">+ safeClone()</text>
<text text-anchor="start" x="8" y="-951.5" font-family="Helvetica,sans-Serif" font-size="10.00">+ toString()</text>
<text text-anchor="start" x="8" y="-940.5" font-family="Helvetica,sans-Serif" font-size="10.00">+ write()</text>
<text text-anchor="start" x="8" y="-929.5" font-family="Helvetica,sans-Serif" font-size="10.00"># getTypeName()</text>
<text text-anchor="start" x="8" y="-918.5" font-family="Helvetica,sans-Serif" font-size="10.00"># makeCopy()</text>
<text text-anchor="start" x="8" y="-907.5" font-family="Helvetica,sans-Serif" font-size="10.00"># stringifyValue()</text>
<text text-anchor="start" x="8" y="-896.5" font-family="Helvetica,sans-Serif" font-size="10.00"># restrictArgCount()</text>
</a>
</g>
</g>
<!-- Node6&#45;&gt;Node5 -->
<g id="edge5" class="edge">
<title>Node6&#45;&gt;Node5</title>
<path fill="none" stroke="midnightblue" d="M110.87,-880.48C115.55,-871.04 120.35,-861.35 125.15,-851.69"/>
<polygon fill="none" stroke="midnightblue" points="107.73,-878.94 106.42,-889.46 114,-882.05 107.73,-878.94"/>
</g>
<!-- Node7 -->
<g id="node7" class="node">
<title>Node7</title>
<g id="a_node7"><a xlink:title=" ">
<polygon fill="white" stroke="#bfbfbf" points="149.5,-944.5 149.5,-1001.5 215.5,-1001.5 215.5,-944.5 149.5,-944.5"/>
<text text-anchor="middle" x="182.5" y="-989.5" font-family="Helvetica,sans-Serif" font-size="10.00">Countable</text>
<polyline fill="none" stroke="#bfbfbf" points="149.5,-982.5 215.5,-982.5 "/>
<text text-anchor="middle" x="182.5" y="-970.5" font-family="Helvetica,sans-Serif" font-size="10.00"> </text>
<polyline fill="none" stroke="#bfbfbf" points="149.5,-963.5 215.5,-963.5 "/>
<text text-anchor="middle" x="182.5" y="-951.5" font-family="Helvetica,sans-Serif" font-size="10.00"> </text>
</a>
</g>
</g>
<!-- Node7&#45;&gt;Node5 -->
<g id="edge6" class="edge">
<title>Node7&#45;&gt;Node5</title>
<path fill="none" stroke="midnightblue" d="M182.5,-934.32C182.5,-911.7 182.5,-881.6 182.5,-851.69"/>
<polygon fill="none" stroke="midnightblue" points="179,-934.47 182.5,-944.47 186,-934.47 179,-934.47"/>
</g>
<!-- Node8 -->
<g id="node8" class="node">
<title>Node8</title>
<g id="a_node8"><a xlink:title=" ">
<polygon fill="white" stroke="#bfbfbf" points="234,-944.5 234,-1001.5 337,-1001.5 337,-944.5 234,-944.5"/>
<text text-anchor="middle" x="285.5" y="-989.5" font-family="Helvetica,sans-Serif" font-size="10.00">IteratorAggregate</text>
<polyline fill="none" stroke="#bfbfbf" points="234,-982.5 337,-982.5 "/>
<text text-anchor="middle" x="285.5" y="-970.5" font-family="Helvetica,sans-Serif" font-size="10.00"> </text>
<polyline fill="none" stroke="#bfbfbf" points="234,-963.5 337,-963.5 "/>
<text text-anchor="middle" x="285.5" y="-951.5" font-family="Helvetica,sans-Serif" font-size="10.00"> </text>
</a>
</g>
</g>
<!-- Node8&#45;&gt;Node5 -->
<g id="edge7" class="edge">
<title>Node8&#45;&gt;Node5</title>
<path fill="none" stroke="midnightblue" d="M269.45,-935.23C259.54,-912.52 246.22,-882 232.99,-851.69"/>
<polygon fill="none" stroke="midnightblue" points="266.28,-936.7 273.48,-944.47 272.69,-933.9 266.28,-936.7"/>
</g>
</g>
</svg>
        <g id="navigator" transform="translate(0 0)" fill="#404254">
                <rect fill="#f2f5e9" fill-opacity="0.5" stroke="#606060" stroke-width=".5" x="0" y="0" width="60" height="60"/>
                <use id="zoomplus" xlink:href="#zoomPlus" x="17" y="9" onmousedown="handleZoom(evt,'in')"/>
                <use id="zoomminus" xlink:href="#zoomMin" x="42" y="9" onmousedown="handleZoom(evt,'out')"/>
                <use id="reset" xlink:href="#resetDef" x="30" y="36" onmousedown="handleReset()"/>
                <g id="arrowUp" xlink:href="#dirArrow" transform="translate(30 24)" onmousedown="handlePan(0,-1)">
                  <use xlink:href="#rim" fill="#404040">
                        <set attributeName="fill" to="#808080" begin="arrowUp.mouseover" end="arrowUp.mouseout"/>
                  </use>
                  <path fill="none" stroke="white" stroke-width="1.5" d="M0,-3.0v7 M-2.5,-0.5L0,-3.0L2.5,-0.5"/>
                </g>
                <g id="arrowRight" xlink:href="#dirArrow" transform="rotate(90) translate(36 -43)" onmousedown="handlePan(1,0)">
                  <use xlink:href="#rim" fill="#404040">
                        <set attributeName="fill" to="#808080" begin="arrowRight.mouseover" end="arrowRight.mouseout"/>
                  </use>
                  <path fill="none" stroke="white" stroke-width="1.5" d="M0,-3.0v7 M-2.5,-0.5L0,-3.0L2.5,-0.5"/>
                </g>
                <g id="arrowDown" xlink:href="#dirArrow" transform="rotate(180) translate(-30 -48)" onmousedown="handlePan(0,1)">
                  <use xlink:href="#rim" fill="#404040">
                        <set attributeName="fill" to="#808080" begin="arrowDown.mouseover" end="arrowDown.mouseout"/>
                  </use>
                  <path fill="none" stroke="white" stroke-width="1.5" d="M0,-3.0v7 M-2.5,-0.5L0,-3.0L2.5,-0.5"/>
                </g>
                <g id="arrowLeft" xlink:href="#dirArrow" transform="rotate(270) translate(-36 17)" onmousedown="handlePan(-1,0)">
                  <use xlink:href="#rim" fill="#404040">
                        <set attributeName="fill" to="#808080" begin="arrowLeft.mouseover" end="arrowLeft.mouseout"/>
                  </use>
                  <path fill="none" stroke="white" stroke-width="1.5" d="M0,-3.0v7 M-2.5,-0.5L0,-3.0L2.5,-0.5"/>
                </g>
        </g>
        <svg viewBox="0 0 15 15" width="100%" height="30px" preserveAspectRatio="xMaxYMin meet">
         <g id="arrow_out" transform="scale(0.3 0.3)">
          <a xlink:href="classpocketmine_1_1item_1_1_writable_book_base__coll__graph_org.svg" target="_base">
           <rect id="button" ry="5" rx="5" y="6" x="6" height="38" width="38"
                fill="#f2f5e9" fill-opacity="0.5" stroke="#606060" stroke-width="1.0"/>
           <path id="arrow"
             d="M 11.500037,31.436501 C 11.940474,20.09759 22.043105,11.32322 32.158766,21.979434 L 37.068811,17.246167 C 37.068811,17.246167 37.088388,32 37.088388,32 L 22.160133,31.978069 C 22.160133,31.978069 26.997745,27.140456 26.997745,27.140456 C 18.528582,18.264221 13.291696,25.230495 11.500037,31.436501 z"
             style="fill:#404040;"/>
          </a>
         </g>
        </svg>
</svg>
