<?xml version="1.0" encoding="UTF-8" standalone="no"?>
<!DOCTYPE svg PUBLIC "-//W3C//DTD SVG 1.1//EN"
 "http://www.w3.org/Graphics/SVG/1.1/DTD/svg11.dtd">
<!-- Generated by graphviz version 2.43.0 (0)
 -->
<!-- Title: pocketmine\network\mcpe\protocol\types\inventory\stackrequest\LabTableCombineStackRequestAction Pages: 1 -->
<svg width="235pt" height="259pt"
 viewBox="0.00 0.00 234.50 259.00" xmlns="http://www.w3.org/2000/svg" xmlns:xlink="http://www.w3.org/1999/xlink">
<g id="graph0" class="graph" transform="scale(1 1) rotate(0) translate(4 255)">
<title>pocketmine\network\mcpe\protocol\types\inventory\stackrequest\LabTableCombineStackRequestAction</title>
<polygon fill="white" stroke="transparent" points="-4,4 -4,-255 230.5,-255 230.5,4 -4,4"/>
<!-- Node1 -->
<g id="node1" class="node">
<title>Node1</title>
<g id="a_node1"><a xlink:title=" ">
<polygon fill="#bfbfbf" stroke="black" points="23.5,-0.5 23.5,-101.5 226.5,-101.5 226.5,-0.5 23.5,-0.5"/>
<text text-anchor="start" x="31.5" y="-89.5" font-family="Helvetica,sans-Serif" font-size="10.00">pocketmine\network</text>
<text text-anchor="start" x="31.5" y="-78.5" font-family="Helvetica,sans-Serif" font-size="10.00">\mcpe\protocol\types</text>
<text text-anchor="start" x="31.5" y="-67.5" font-family="Helvetica,sans-Serif" font-size="10.00">\inventory\stackrequest</text>
<text text-anchor="middle" x="125" y="-56.5" font-family="Helvetica,sans-Serif" font-size="10.00">\LabTableCombineStackRequestAction</text>
<polyline fill="none" stroke="black" points="23.5,-49.5 226.5,-49.5 "/>
<text text-anchor="middle" x="125" y="-37.5" font-family="Helvetica,sans-Serif" font-size="10.00"> </text>
<polyline fill="none" stroke="black" points="23.5,-30.5 226.5,-30.5 "/>
<text text-anchor="start" x="31.5" y="-18.5" font-family="Helvetica,sans-Serif" font-size="10.00">+ write()</text>
<text text-anchor="start" x="31.5" y="-7.5" font-family="Helvetica,sans-Serif" font-size="10.00">+ read()</text>
</a>
</g>
</g>
<!-- Node2 -->
<g id="node2" class="node">
<title>Node2</title>
<g id="a_node2"><a xlink:href="../../d8/d3b/classpocketmine_1_1network_1_1mcpe_1_1protocol_1_1types_1_1inventory_1_1stackrequest_1_1_item_stack_request_action.html" target="_top" xlink:title=" ">
<polygon fill="white" stroke="#bfbfbf" points="0,-149.5 0,-250.5 140,-250.5 140,-149.5 0,-149.5"/>
<text text-anchor="start" x="8" y="-238.5" font-family="Helvetica,sans-Serif" font-size="10.00">pocketmine\network</text>
<text text-anchor="start" x="8" y="-227.5" font-family="Helvetica,sans-Serif" font-size="10.00">\mcpe\protocol\types</text>
<text text-anchor="start" x="8" y="-216.5" font-family="Helvetica,sans-Serif" font-size="10.00">\inventory\stackrequest</text>
<text text-anchor="middle" x="70" y="-205.5" font-family="Helvetica,sans-Serif" font-size="10.00">\ItemStackRequestAction</text>
<polyline fill="none" stroke="#bfbfbf" points="0,-198.5 140,-198.5 "/>
<text text-anchor="middle" x="70" y="-186.5" font-family="Helvetica,sans-Serif" font-size="10.00"> </text>
<polyline fill="none" stroke="#bfbfbf" points="0,-179.5 140,-179.5 "/>
<text text-anchor="start" x="8" y="-167.5" font-family="Helvetica,sans-Serif" font-size="10.00">+ getTypeId()</text>
<text text-anchor="start" x="8" y="-156.5" font-family="Helvetica,sans-Serif" font-size="10.00">+ write()</text>
</a>
</g>
</g>
<!-- Node2&#45;&gt;Node1 -->
<g id="edge1" class="edge">
<title>Node2&#45;&gt;Node1</title>
<path fill="none" stroke="midnightblue" d="M92.18,-139.73C96.89,-127.12 101.83,-113.93 106.4,-101.72"/>
<polygon fill="none" stroke="midnightblue" points="88.85,-138.64 88.62,-149.23 95.4,-141.09 88.85,-138.64"/>
</g>
<!-- Node3 -->
<g id="node3" class="node">
<title>Node3</title>
<g id="a_node3"><a xlink:title=" ">
<polygon fill="white" stroke="#bfbfbf" points="158.5,-171.5 158.5,-228.5 201.5,-228.5 201.5,-171.5 158.5,-171.5"/>
<text text-anchor="middle" x="180" y="-216.5" font-family="Helvetica,sans-Serif" font-size="10.00">const</text>
<polyline fill="none" stroke="#bfbfbf" points="158.5,-209.5 201.5,-209.5 "/>
<text text-anchor="middle" x="180" y="-197.5" font-family="Helvetica,sans-Serif" font-size="10.00"> </text>
<polyline fill="none" stroke="#bfbfbf" points="158.5,-190.5 201.5,-190.5 "/>
<text text-anchor="middle" x="180" y="-178.5" font-family="Helvetica,sans-Serif" font-size="10.00"> </text>
</a>
</g>
</g>
<!-- Node3&#45;&gt;Node1 -->
<g id="edge2" class="edge">
<title>Node3&#45;&gt;Node1</title>
<path fill="none" stroke="#404040" d="M169.65,-171.35C163.49,-154.87 155.4,-133.26 147.81,-112.97"/>
<polygon fill="none" stroke="#404040" points="147.74,-112.78 141.89,-108.56 143.54,-101.54 149.39,-105.76 147.74,-112.78"/>
<text text-anchor="middle" x="165" y="-123" font-family="Helvetica,sans-Serif" font-size="10.00"> +ID</text>
</g>
</g>
</svg>
