<?xml version="1.0" encoding="UTF-8" standalone="no"?>
<!DOCTYPE svg PUBLIC "-//W3C//DTD SVG 1.1//EN"
 "http://www.w3.org/Graphics/SVG/1.1/DTD/svg11.dtd">
<!-- Generated by graphviz version 2.43.0 (0)
 -->
<!-- Title: pocketmine\network\mcpe\protocol\types\camera\CameraSetInstructionEaseType Pages: 1 -->
<svg width="167pt" height="255pt"
 viewBox="0.00 0.00 167.00 255.00" xmlns="http://www.w3.org/2000/svg" xmlns:xlink="http://www.w3.org/1999/xlink">
<g id="graph0" class="graph" transform="scale(1 1) rotate(0) translate(4 251)">
<title>pocketmine\network\mcpe\protocol\types\camera\CameraSetInstructionEaseType</title>
<!-- Node1 -->
<g id="Node000001" class="node">
<title>Node1</title>
<g id="a_Node000001"><a xlink:title=" ">
<polygon fill="#999999" stroke="transparent" points="159,-247 0,-247 0,0 159,0 159,-247"/>
<text text-anchor="start" x="5.5" y="-234.5" font-family="Helvetica,sans-Serif" font-size="10.00">pocketmine\network</text>
<text text-anchor="start" x="5.5" y="-223.5" font-family="Helvetica,sans-Serif" font-size="10.00">\mcpe\protocol\types</text>
<text text-anchor="start" x="5.5" y="-212.5" font-family="Helvetica,sans-Serif" font-size="10.00">\camera\CameraSetInstruction</text>
<text text-anchor="start" x="57" y="-201.5" font-family="Helvetica,sans-Serif" font-size="10.00">EaseType</text>
<text text-anchor="start" x="17.5" y="-186.5" font-family="Helvetica,sans-Serif" font-size="10.00">+</text>
<text text-anchor="start" x="43.5" y="-186.5" font-family="Helvetica,sans-Serif" font-size="10.00">IN_BACK</text>
<text text-anchor="start" x="17.5" y="-171.5" font-family="Helvetica,sans-Serif" font-size="10.00">+</text>
<text text-anchor="start" x="43.5" y="-171.5" font-family="Helvetica,sans-Serif" font-size="10.00">IN_BOUNCE</text>
<text text-anchor="start" x="17.5" y="-156.5" font-family="Helvetica,sans-Serif" font-size="10.00">+</text>
<text text-anchor="start" x="43.5" y="-156.5" font-family="Helvetica,sans-Serif" font-size="10.00">IN_CIRC</text>
<text text-anchor="start" x="17.5" y="-141.5" font-family="Helvetica,sans-Serif" font-size="10.00">+</text>
<text text-anchor="start" x="43.5" y="-141.5" font-family="Helvetica,sans-Serif" font-size="10.00">IN_CUBIC</text>
<text text-anchor="start" x="17.5" y="-126.5" font-family="Helvetica,sans-Serif" font-size="10.00">+</text>
<text text-anchor="start" x="43.5" y="-126.5" font-family="Helvetica,sans-Serif" font-size="10.00">IN_ELASTIC</text>
<text text-anchor="start" x="17.5" y="-111.5" font-family="Helvetica,sans-Serif" font-size="10.00">+</text>
<text text-anchor="start" x="43.5" y="-111.5" font-family="Helvetica,sans-Serif" font-size="10.00">IN_EXPO</text>
<text text-anchor="start" x="17.5" y="-96.5" font-family="Helvetica,sans-Serif" font-size="10.00">+</text>
<text text-anchor="start" x="43.5" y="-96.5" font-family="Helvetica,sans-Serif" font-size="10.00">IN_OUT_BACK</text>
<text text-anchor="start" x="17.5" y="-81.5" font-family="Helvetica,sans-Serif" font-size="10.00">+</text>
<text text-anchor="start" x="43.5" y="-81.5" font-family="Helvetica,sans-Serif" font-size="10.00">IN_OUT_BOUNCE</text>
<text text-anchor="start" x="17.5" y="-66.5" font-family="Helvetica,sans-Serif" font-size="10.00">+</text>
<text text-anchor="start" x="43.5" y="-66.5" font-family="Helvetica,sans-Serif" font-size="10.00">IN_OUT_CIRC</text>
<text text-anchor="start" x="17.5" y="-51.5" font-family="Helvetica,sans-Serif" font-size="10.00">+</text>
<text text-anchor="start" x="43.5" y="-51.5" font-family="Helvetica,sans-Serif" font-size="10.00">IN_OUT_CUBIC</text>
<text text-anchor="start" x="43.5" y="-36.5" font-family="Helvetica,sans-Serif" font-size="10.00">and 22 more...</text>
<text text-anchor="start" x="17.5" y="-21.5" font-family="Helvetica,sans-Serif" font-size="10.00">+</text>
<text text-anchor="start" x="43.5" y="-21.5" font-family="Helvetica,sans-Serif" font-size="10.00">fromName()</text>
<text text-anchor="start" x="17.5" y="-6.5" font-family="Helvetica,sans-Serif" font-size="10.00">+</text>
<text text-anchor="start" x="43.5" y="-6.5" font-family="Helvetica,sans-Serif" font-size="10.00">toName()</text>
<polygon fill="#666666" stroke="#666666" points="0.5,-196.5 0.5,-196.5 159.5,-196.5 159.5,-196.5 0.5,-196.5"/>
<polygon fill="#666666" stroke="#666666" points="0.5,-31.5 0.5,-31.5 41.5,-31.5 41.5,-31.5 0.5,-31.5"/>
<polygon fill="#666666" stroke="#666666" points="41.5,-31.5 41.5,-31.5 159.5,-31.5 159.5,-31.5 41.5,-31.5"/>
<polygon fill="none" stroke="#666666" points="0,0 0,-247 159,-247 159,0 0,0"/>
</a>
</g>
</g>
</g>
</svg>
