<?xml version="1.0" encoding="UTF-8" standalone="no"?>
<!DOCTYPE svg PUBLIC "-//W3C//DTD SVG 1.1//EN"
 "http://www.w3.org/Graphics/SVG/1.1/DTD/svg11.dtd">
<!-- Generated by graphviz version 2.43.0 (0)
 -->
<!-- Title: pocketmine\network\mcpe\protocol\types\StructureSettings Pages: 1 -->
<svg width="288pt" height="479pt"
 viewBox="0.00 0.00 287.50 479.00" xmlns="http://www.w3.org/2000/svg" xmlns:xlink="http://www.w3.org/1999/xlink">
<g id="graph0" class="graph" transform="scale(1 1) rotate(0) translate(4 475)">
<title>pocketmine\network\mcpe\protocol\types\StructureSettings</title>
<polygon fill="white" stroke="transparent" points="-4,4 -4,-475 283.5,-475 283.5,4 -4,4"/>
<!-- Node1 -->
<g id="node1" class="node">
<title>Node1</title>
<g id="a_node1"><a xlink:title=" ">
<polygon fill="#bfbfbf" stroke="black" points="60.5,-0.5 60.5,-178.5 206.5,-178.5 206.5,-0.5 60.5,-0.5"/>
<text text-anchor="start" x="68.5" y="-166.5" font-family="Helvetica,sans-Serif" font-size="10.00">pocketmine\network</text>
<text text-anchor="start" x="68.5" y="-155.5" font-family="Helvetica,sans-Serif" font-size="10.00">\mcpe\protocol\types</text>
<text text-anchor="middle" x="133.5" y="-144.5" font-family="Helvetica,sans-Serif" font-size="10.00">\StructureSettings</text>
<polyline fill="none" stroke="black" points="60.5,-137.5 206.5,-137.5 "/>
<text text-anchor="start" x="68.5" y="-125.5" font-family="Helvetica,sans-Serif" font-size="10.00">+ $animationMode</text>
<text text-anchor="start" x="68.5" y="-114.5" font-family="Helvetica,sans-Serif" font-size="10.00">+ $animationSeconds</text>
<text text-anchor="start" x="68.5" y="-103.5" font-family="Helvetica,sans-Serif" font-size="10.00">+ $ignoreBlocks</text>
<text text-anchor="start" x="68.5" y="-92.5" font-family="Helvetica,sans-Serif" font-size="10.00">+ $ignoreEntities</text>
<text text-anchor="start" x="68.5" y="-81.5" font-family="Helvetica,sans-Serif" font-size="10.00">+ $integritySeed</text>
<text text-anchor="start" x="68.5" y="-70.5" font-family="Helvetica,sans-Serif" font-size="10.00">+ $integrityValue</text>
<text text-anchor="start" x="68.5" y="-59.5" font-family="Helvetica,sans-Serif" font-size="10.00">+ $lastTouchedByPlayerID</text>
<text text-anchor="start" x="68.5" y="-48.5" font-family="Helvetica,sans-Serif" font-size="10.00">+ $mirror</text>
<text text-anchor="start" x="68.5" y="-37.5" font-family="Helvetica,sans-Serif" font-size="10.00">+ $paletteName</text>
<text text-anchor="start" x="68.5" y="-26.5" font-family="Helvetica,sans-Serif" font-size="10.00">+ $rotation</text>
<polyline fill="none" stroke="black" points="60.5,-19.5 206.5,-19.5 "/>
<text text-anchor="middle" x="133.5" y="-7.5" font-family="Helvetica,sans-Serif" font-size="10.00"> </text>
</a>
</g>
</g>
<!-- Node2 -->
<g id="node2" class="node">
<title>Node2</title>
<g id="a_node2"><a xlink:href="../../d1/d5f/classpocketmine_1_1network_1_1mcpe_1_1protocol_1_1types_1_1_block_position.html" target="_top" xlink:title=" ">
<polygon fill="white" stroke="#bfbfbf" points="0,-287 0,-421 119,-421 119,-287 0,-287"/>
<text text-anchor="start" x="8" y="-409" font-family="Helvetica,sans-Serif" font-size="10.00">pocketmine\network</text>
<text text-anchor="start" x="8" y="-398" font-family="Helvetica,sans-Serif" font-size="10.00">\mcpe\protocol\types</text>
<text text-anchor="middle" x="59.5" y="-387" font-family="Helvetica,sans-Serif" font-size="10.00">\BlockPosition</text>
<polyline fill="none" stroke="#bfbfbf" points="0,-380 119,-380 "/>
<text text-anchor="middle" x="59.5" y="-368" font-family="Helvetica,sans-Serif" font-size="10.00"> </text>
<polyline fill="none" stroke="#bfbfbf" points="0,-361 119,-361 "/>
<text text-anchor="start" x="8" y="-349" font-family="Helvetica,sans-Serif" font-size="10.00">+ __construct()</text>
<text text-anchor="start" x="8" y="-338" font-family="Helvetica,sans-Serif" font-size="10.00">+ equals()</text>
<text text-anchor="start" x="8" y="-327" font-family="Helvetica,sans-Serif" font-size="10.00">+ getX()</text>
<text text-anchor="start" x="8" y="-316" font-family="Helvetica,sans-Serif" font-size="10.00">+ getY()</text>
<text text-anchor="start" x="8" y="-305" font-family="Helvetica,sans-Serif" font-size="10.00">+ getZ()</text>
<text text-anchor="start" x="8" y="-294" font-family="Helvetica,sans-Serif" font-size="10.00">+ fromVector3()</text>
</a>
</g>
</g>
<!-- Node2&#45;&gt;Node1 -->
<g id="edge1" class="edge">
<title>Node2&#45;&gt;Node1</title>
<path fill="none" stroke="#404040" d="M78.17,-286.76C86.41,-257.54 96.27,-222.57 105.37,-190.3"/>
<polygon fill="none" stroke="#404040" points="105.42,-190.1 103.2,-183.24 108.68,-178.55 110.9,-185.41 105.42,-190.1"/>
<text text-anchor="middle" x="140.5" y="-211" font-family="Helvetica,sans-Serif" font-size="10.00"> +$dimensions</text>
<text text-anchor="middle" x="140.5" y="-200" font-family="Helvetica,sans-Serif" font-size="10.00">+$offset</text>
</g>
<!-- Node3 -->
<g id="node3" class="node">
<title>Node3</title>
<g id="a_node3"><a xlink:href="../../d2/d90/classpocketmine_1_1math_1_1_vector3.html" target="_top" xlink:title=" ">
<polygon fill="white" stroke="#bfbfbf" points="137.5,-237.5 137.5,-470.5 279.5,-470.5 279.5,-237.5 137.5,-237.5"/>
<text text-anchor="middle" x="208.5" y="-458.5" font-family="Helvetica,sans-Serif" font-size="10.00">pocketmine\math\Vector3</text>
<polyline fill="none" stroke="#bfbfbf" points="137.5,-451.5 279.5,-451.5 "/>
<text text-anchor="start" x="145.5" y="-439.5" font-family="Helvetica,sans-Serif" font-size="10.00">+ $x</text>
<text text-anchor="start" x="145.5" y="-428.5" font-family="Helvetica,sans-Serif" font-size="10.00">+ $y</text>
<text text-anchor="start" x="145.5" y="-417.5" font-family="Helvetica,sans-Serif" font-size="10.00">+ $z</text>
<polyline fill="none" stroke="#bfbfbf" points="137.5,-410.5 279.5,-410.5 "/>
<text text-anchor="start" x="145.5" y="-398.5" font-family="Helvetica,sans-Serif" font-size="10.00">+ __construct()</text>
<text text-anchor="start" x="145.5" y="-387.5" font-family="Helvetica,sans-Serif" font-size="10.00">+ __toString()</text>
<text text-anchor="start" x="145.5" y="-376.5" font-family="Helvetica,sans-Serif" font-size="10.00">+ abs()</text>
<text text-anchor="start" x="145.5" y="-365.5" font-family="Helvetica,sans-Serif" font-size="10.00">+ add()</text>
<text text-anchor="start" x="145.5" y="-354.5" font-family="Helvetica,sans-Serif" font-size="10.00">+ addVector()</text>
<text text-anchor="start" x="145.5" y="-343.5" font-family="Helvetica,sans-Serif" font-size="10.00">+ asVector3()</text>
<text text-anchor="start" x="145.5" y="-332.5" font-family="Helvetica,sans-Serif" font-size="10.00">+ ceil()</text>
<text text-anchor="start" x="145.5" y="-321.5" font-family="Helvetica,sans-Serif" font-size="10.00">+ cross()</text>
<text text-anchor="start" x="145.5" y="-310.5" font-family="Helvetica,sans-Serif" font-size="10.00">+ distance()</text>
<text text-anchor="start" x="145.5" y="-299.5" font-family="Helvetica,sans-Serif" font-size="10.00">+ distanceSquared()</text>
<text text-anchor="start" x="145.5" y="-288.5" font-family="Helvetica,sans-Serif" font-size="10.00">and 32 more...</text>
<text text-anchor="start" x="145.5" y="-277.5" font-family="Helvetica,sans-Serif" font-size="10.00">+ maxComponents()</text>
<text text-anchor="start" x="145.5" y="-266.5" font-family="Helvetica,sans-Serif" font-size="10.00">+ minComponents()</text>
<text text-anchor="start" x="145.5" y="-255.5" font-family="Helvetica,sans-Serif" font-size="10.00">+ sum()</text>
<text text-anchor="start" x="145.5" y="-244.5" font-family="Helvetica,sans-Serif" font-size="10.00">+ zero()</text>
</a>
</g>
</g>
<!-- Node3&#45;&gt;Node1 -->
<g id="edge2" class="edge">
<title>Node3&#45;&gt;Node1</title>
<path fill="none" stroke="#404040" d="M191.83,-237.22C188.87,-223.54 185.45,-209.88 181.5,-197 180.81,-194.75 180.08,-192.48 179.32,-190.2"/>
<polygon fill="none" stroke="#404040" points="179.28,-190.08 173.51,-185.75 175.29,-178.76 181.06,-183.09 179.28,-190.08"/>
<text text-anchor="middle" x="208" y="-205.5" font-family="Helvetica,sans-Serif" font-size="10.00"> +$pivot</text>
</g>
</g>
</svg>
