<?xml version="1.0" encoding="UTF-8" standalone="no"?>
<!DOCTYPE svg PUBLIC "-//W3C//DTD SVG 1.1//EN"
 "http://www.w3.org/Graphics/SVG/1.1/DTD/svg11.dtd">
<!-- Generated by graphviz version 2.43.0 (0)
 -->
<!-- Title: pocketmine\network\mcpe\raklib\RakLibServer Pages: 1 -->
<svg width="324pt" height="336pt"
 viewBox="0.00 0.00 323.50 336.00" xmlns="http://www.w3.org/2000/svg" xmlns:xlink="http://www.w3.org/1999/xlink">
<g id="graph0" class="graph" transform="scale(1 1) rotate(0) translate(4 332)">
<title>pocketmine\network\mcpe\raklib\RakLibServer</title>
<!-- Node1 -->
<g id="Node000001" class="node">
<title>Node1</title>
<g id="a_Node000001"><a xlink:title=" ">
<polygon fill="#999999" stroke="transparent" points="222,-120 83,-120 83,0 222,0 222,-120"/>
<text text-anchor="start" x="88.5" y="-108" font-family="Helvetica,sans-Serif" font-size="10.00">pocketmine\network</text>
<text text-anchor="start" x="88.5" y="-97" font-family="Helvetica,sans-Serif" font-size="10.00">\mcpe\raklib\RakLibServer</text>
<text text-anchor="start" x="95" y="-82" font-family="Helvetica,sans-Serif" font-size="10.00">#</text>
<text text-anchor="start" x="115.5" y="-82" font-family="Helvetica,sans-Serif" font-size="10.00">$mainPath</text>
<text text-anchor="start" x="95" y="-67" font-family="Helvetica,sans-Serif" font-size="10.00">#</text>
<text text-anchor="start" x="115.5" y="-67" font-family="Helvetica,sans-Serif" font-size="10.00">$ready</text>
<text text-anchor="start" x="95" y="-52" font-family="Helvetica,sans-Serif" font-size="10.00">+</text>
<text text-anchor="start" x="115.5" y="-52" font-family="Helvetica,sans-Serif" font-size="10.00">__construct()</text>
<text text-anchor="start" x="95" y="-37" font-family="Helvetica,sans-Serif" font-size="10.00">+</text>
<text text-anchor="start" x="115.5" y="-37" font-family="Helvetica,sans-Serif" font-size="10.00">getThreadName()</text>
<text text-anchor="start" x="95" y="-22" font-family="Helvetica,sans-Serif" font-size="10.00">+</text>
<text text-anchor="start" x="115.5" y="-22" font-family="Helvetica,sans-Serif" font-size="10.00">startAndWait()</text>
<text text-anchor="start" x="95" y="-7" font-family="Helvetica,sans-Serif" font-size="10.00">#</text>
<text text-anchor="start" x="115.5" y="-7" font-family="Helvetica,sans-Serif" font-size="10.00">onRun()</text>
<polygon fill="#666666" stroke="#666666" points="83.5,-92 83.5,-92 222.5,-92 222.5,-92 83.5,-92"/>
<polygon fill="#666666" stroke="#666666" points="83.5,-62 83.5,-62 113.5,-62 113.5,-62 83.5,-62"/>
<polygon fill="#666666" stroke="#666666" points="113.5,-62 113.5,-62 222.5,-62 222.5,-62 113.5,-62"/>
<polygon fill="none" stroke="#666666" points="83,0 83,-120 222,-120 222,0 83,0"/>
</a>
</g>
</g>
<!-- Node2 -->
<g id="Node000002" class="node">
<title>Node2</title>
<g id="a_Node000002"><a xlink:href="../../d0/d6e/classpocketmine_1_1thread_1_1_thread.html" target="_top" xlink:title=" ">
<polygon fill="white" stroke="transparent" points="139,-229 0,-229 0,-180 139,-180 139,-229"/>
<text text-anchor="start" x="5.5" y="-216.5" font-family="Helvetica,sans-Serif" font-size="10.00">pocketmine\thread\Thread</text>
<text text-anchor="start" x="68" y="-201.5" font-family="Helvetica,sans-Serif" font-size="10.00"> </text>
<text text-anchor="start" x="68" y="-186.5" font-family="Helvetica,sans-Serif" font-size="10.00"> </text>
<polygon fill="#666666" stroke="#666666" points="0.5,-211.5 0.5,-211.5 139.5,-211.5 139.5,-211.5 0.5,-211.5"/>
<polygon fill="#666666" stroke="#666666" points="0.5,-196.5 0.5,-196.5 139.5,-196.5 139.5,-196.5 0.5,-196.5"/>
<polygon fill="none" stroke="#666666" points="0,-180 0,-229 139,-229 139,-180 0,-180"/>
</a>
</g>
</g>
<!-- Node2&#45;&gt;Node1 -->
<g id="edge1_Node000001_Node000002" class="edge">
<title>Node2&#45;&gt;Node1</title>
<g id="a_edge1_Node000001_Node000002"><a xlink:title=" ">
<path fill="none" stroke="#63b8ff" d="M88.39,-171.07C97.16,-156.01 107.86,-137.63 118,-120.24"/>
<polygon fill="none" stroke="#63b8ff" points="85.21,-169.57 83.21,-179.97 91.26,-173.09 85.21,-169.57"/>
</a>
</g>
</g>
<!-- Node3 -->
<g id="Node000003" class="node">
<title>Node3</title>
<g id="a_Node000003"><a xlink:title=" ">
<polygon fill="white" stroke="transparent" points="108,-328 31,-328 31,-279 108,-279 108,-328"/>
<text text-anchor="start" x="36.5" y="-315.5" font-family="Helvetica,sans-Serif" font-size="10.00">NativeThread</text>
<text text-anchor="start" x="68" y="-300.5" font-family="Helvetica,sans-Serif" font-size="10.00"> </text>
<text text-anchor="start" x="68" y="-285.5" font-family="Helvetica,sans-Serif" font-size="10.00"> </text>
<polygon fill="#bfbfbf" stroke="#bfbfbf" points="31.5,-310.5 31.5,-310.5 108.5,-310.5 108.5,-310.5 31.5,-310.5"/>
<polygon fill="#bfbfbf" stroke="#bfbfbf" points="31.5,-295.5 31.5,-295.5 108.5,-295.5 108.5,-295.5 31.5,-295.5"/>
<polygon fill="none" stroke="#bfbfbf" points="31,-279 31,-328 108,-328 108,-279 31,-279"/>
</a>
</g>
</g>
<!-- Node3&#45;&gt;Node2 -->
<g id="edge2_Node000002_Node000003" class="edge">
<title>Node3&#45;&gt;Node2</title>
<g id="a_edge2_Node000002_Node000003"><a xlink:title=" ">
<path fill="none" stroke="#63b8ff" d="M69.5,-268.52C69.5,-255.54 69.5,-241.02 69.5,-229.2"/>
<polygon fill="none" stroke="#63b8ff" points="66,-268.52 69.5,-278.52 73,-268.52 66,-268.52"/>
</a>
</g>
</g>
<!-- Node4 -->
<g id="Node000004" class="node">
<title>Node4</title>
<g id="a_Node000004"><a xlink:href="../../d4/d69/classpocketmine_1_1thread_1_1_non_thread_safe_value.html" target="_top" xlink:title=" ">
<polygon fill="white" stroke="transparent" points="315.5,-242 157.5,-242 157.5,-167 315.5,-167 315.5,-242"/>
<text text-anchor="start" x="162.5" y="-229.5" font-family="Helvetica,sans-Serif" font-size="10.00">pocketmine\thread\NonThread</text>
<text text-anchor="start" x="212" y="-218.5" font-family="Helvetica,sans-Serif" font-size="10.00">SafeValue</text>
<text text-anchor="start" x="234.5" y="-203.5" font-family="Helvetica,sans-Serif" font-size="10.00"> </text>
<text text-anchor="start" x="179.5" y="-188.5" font-family="Helvetica,sans-Serif" font-size="10.00">+</text>
<text text-anchor="start" x="210.5" y="-188.5" font-family="Helvetica,sans-Serif" font-size="10.00">__construct()</text>
<text text-anchor="start" x="179.5" y="-173.5" font-family="Helvetica,sans-Serif" font-size="10.00">+</text>
<text text-anchor="start" x="210.5" y="-173.5" font-family="Helvetica,sans-Serif" font-size="10.00">deserialize()</text>
<polygon fill="#666666" stroke="#666666" points="157.5,-213.5 157.5,-213.5 315.5,-213.5 315.5,-213.5 157.5,-213.5"/>
<polygon fill="#666666" stroke="#666666" points="157.5,-198.5 157.5,-198.5 315.5,-198.5 315.5,-198.5 157.5,-198.5"/>
<polygon fill="none" stroke="#666666" points="157.5,-167 157.5,-242 315.5,-242 315.5,-167 157.5,-167"/>
</a>
</g>
</g>
<!-- Node4&#45;&gt;Node1 -->
<g id="edge3_Node000001_Node000004" class="edge">
<title>Node4&#45;&gt;Node1</title>
<g id="a_edge3_Node000001_Node000004"><a xlink:title=" ">
<path fill="none" stroke="#63b8ff" d="M214.87,-166.8C208.34,-155.72 200.94,-143.17 193.58,-130.68"/>
<polygon fill="none" stroke="#63b8ff" points="193.51,-130.58 187.02,-127.44 187.42,-120.24 193.91,-123.38 193.51,-130.58"/>
</a>
</g>
<text text-anchor="middle" x="230.5" y="-141" font-family="Helvetica,sans-Serif" font-size="10.00" fill="grey"> #$address</text>
</g>
<!-- Node5 -->
<g id="Node000005" class="node">
<title>Node5</title>
<g id="a_Node000005"><a xlink:title=" ">
<polygon fill="white" stroke="transparent" points="269.5,-328 203.5,-328 203.5,-279 269.5,-279 269.5,-328"/>
<text text-anchor="start" x="208.5" y="-315.5" font-family="Helvetica,sans-Serif" font-size="10.00">ThreadSafe</text>
<text text-anchor="start" x="234.5" y="-300.5" font-family="Helvetica,sans-Serif" font-size="10.00"> </text>
<text text-anchor="start" x="234.5" y="-285.5" font-family="Helvetica,sans-Serif" font-size="10.00"> </text>
<polygon fill="#bfbfbf" stroke="#bfbfbf" points="203.5,-310.5 203.5,-310.5 269.5,-310.5 269.5,-310.5 203.5,-310.5"/>
<polygon fill="#bfbfbf" stroke="#bfbfbf" points="203.5,-295.5 203.5,-295.5 269.5,-295.5 269.5,-295.5 203.5,-295.5"/>
<polygon fill="none" stroke="#bfbfbf" points="203.5,-279 203.5,-328 269.5,-328 269.5,-279 203.5,-279"/>
</a>
</g>
</g>
<!-- Node5&#45;&gt;Node4 -->
<g id="edge4_Node000004_Node000005" class="edge">
<title>Node5&#45;&gt;Node4</title>
<g id="a_edge4_Node000004_Node000005"><a xlink:title=" ">
<path fill="none" stroke="#63b8ff" d="M236.5,-268.5C236.5,-259.94 236.5,-250.72 236.5,-242.05"/>
<polygon fill="none" stroke="#63b8ff" points="233,-268.52 236.5,-278.52 240,-268.52 233,-268.52"/>
</a>
</g>
</g>
</g>
</svg>
