<?xml version="1.0" encoding="UTF-8" standalone="no"?>
<!DOCTYPE svg PUBLIC "-//W3C//DTD SVG 1.1//EN"
 "http://www.w3.org/Graphics/SVG/1.1/DTD/svg11.dtd">
<!-- Generated by graphviz version 2.43.0 (0)
 -->
<!-- Title: pocketmine\inventory\InventoryHolder Pages: 1 -->
<!--zoomable 1085 -->
<svg id="main" version="1.1" xmlns="http://www.w3.org/2000/svg" xmlns:xlink="http://www.w3.org/1999/xlink" xml:space="preserve" onload="init(evt)">
<style type="text/css"><![CDATA[
.edge:hover path { stroke: red; }
.edge:hover polygon { stroke: red; fill: red; }
]]></style>
<script type="text/javascript"><![CDATA[
var edges = document.getElementsByTagName('g');
if (edges && edges.length) {
  for (var i=0;i<edges.length;i++) {
    if (edges[i].id.substr(0,4)=='edge') {
      edges[i].setAttribute('class','edge');
    }
  }
}
]]></script>
        <defs>
                <circle id="rim" cx="0" cy="0" r="7"/>
                <circle id="rim2" cx="0" cy="0" r="3.5"/>
                <g id="zoomPlus">
                        <use xlink:href="#rim" fill="#404040">
                                <set attributeName="fill" to="#808080" begin="zoomplus.mouseover" end="zoomplus.mouseout"/>
                        </use>
                        <path d="M-4,0h8M0,-4v8" fill="none" stroke="white" stroke-width="1.5" pointer-events="none"/>
                </g>
                <g id="zoomMin">
                        <use xlink:href="#rim" fill="#404040">
                                <set attributeName="fill" to="#808080" begin="zoomminus.mouseover" end="zoomminus.mouseout"/>
                        </use>
                        <path d="M-4,0h8" fill="none" stroke="white" stroke-width="1.5" pointer-events="none"/>
                </g>
                <g id="dirArrow">
                        <path fill="none" stroke="white" stroke-width="1.5" d="M0,-3.0v7 M-2.5,-0.5L0,-3.0L2.5,-0.5"/>
                </g>
               <g id="resetDef">
                       <use xlink:href="#rim2" fill="#404040">
                               <set attributeName="fill" to="#808080" begin="reset.mouseover" end="reset.mouseout"/>
                       </use>
               </g>
        </defs>

<script type="text/javascript">
var viewWidth = 1452;
var viewHeight = 1085;
var sectionId = 'dynsection-0';
</script>
<script xlink:href="../../svgpan.js"/>
<svg id="graph" class="graph">
<g id="viewport">
<title>pocketmine\inventory\InventoryHolder</title>
<polygon fill="white" stroke="transparent" points="-4,4 -4,-1081 1447.5,-1081 1447.5,4 -4,4"/>
<!-- Node1 -->
<g id="node1" class="node">
<title>Node1</title>
<g id="a_node1"><a xlink:title=" ">
<polygon fill="#bfbfbf" stroke="black" points="676.5,-1008.5 676.5,-1076.5 799.5,-1076.5 799.5,-1008.5 676.5,-1008.5"/>
<text text-anchor="start" x="684.5" y="-1064.5" font-family="Helvetica,sans-Serif" font-size="10.00">pocketmine\inventory</text>
<text text-anchor="middle" x="738" y="-1053.5" font-family="Helvetica,sans-Serif" font-size="10.00">\InventoryHolder</text>
<polyline fill="none" stroke="black" points="676.5,-1046.5 799.5,-1046.5 "/>
<text text-anchor="middle" x="738" y="-1034.5" font-family="Helvetica,sans-Serif" font-size="10.00"> </text>
<polyline fill="none" stroke="black" points="676.5,-1027.5 799.5,-1027.5 "/>
<text text-anchor="start" x="684.5" y="-1015.5" font-family="Helvetica,sans-Serif" font-size="10.00">+ getInventory()</text>
</a>
</g>
</g>
<!-- Node2 -->
<g id="node2" class="node">
<title>Node2</title>
<g id="a_node2"><a xlink:href="../../d3/d26/classpocketmine_1_1block_1_1inventory_1_1_double_chest_inventory.html" target="_top" xlink:title=" ">
<polygon fill="white" stroke="#bfbfbf" points="507,-683.5 507,-894.5 659,-894.5 659,-683.5 507,-683.5"/>
<text text-anchor="start" x="515" y="-882.5" font-family="Helvetica,sans-Serif" font-size="10.00">pocketmine\block\inventory</text>
<text text-anchor="middle" x="583" y="-871.5" font-family="Helvetica,sans-Serif" font-size="10.00">\DoubleChestInventory</text>
<polyline fill="none" stroke="#bfbfbf" points="507,-864.5 659,-864.5 "/>
<text text-anchor="middle" x="583" y="-852.5" font-family="Helvetica,sans-Serif" font-size="10.00"> </text>
<polyline fill="none" stroke="#bfbfbf" points="507,-845.5 659,-845.5 "/>
<text text-anchor="start" x="515" y="-833.5" font-family="Helvetica,sans-Serif" font-size="10.00">+ __construct()</text>
<text text-anchor="start" x="515" y="-822.5" font-family="Helvetica,sans-Serif" font-size="10.00">+ getContents()</text>
<text text-anchor="start" x="515" y="-811.5" font-family="Helvetica,sans-Serif" font-size="10.00">+ getInventory()</text>
<text text-anchor="start" x="515" y="-800.5" font-family="Helvetica,sans-Serif" font-size="10.00">+ getItem()</text>
<text text-anchor="start" x="515" y="-789.5" font-family="Helvetica,sans-Serif" font-size="10.00">+ getLeftSide()</text>
<text text-anchor="start" x="515" y="-778.5" font-family="Helvetica,sans-Serif" font-size="10.00">+ getRightSide()</text>
<text text-anchor="start" x="515" y="-767.5" font-family="Helvetica,sans-Serif" font-size="10.00">+ getSize()</text>
<text text-anchor="start" x="515" y="-756.5" font-family="Helvetica,sans-Serif" font-size="10.00">+ isSlotEmpty()</text>
<text text-anchor="start" x="515" y="-745.5" font-family="Helvetica,sans-Serif" font-size="10.00"># animateBlock()</text>
<text text-anchor="start" x="515" y="-734.5" font-family="Helvetica,sans-Serif" font-size="10.00"># getCloseSound()</text>
<text text-anchor="start" x="515" y="-723.5" font-family="Helvetica,sans-Serif" font-size="10.00"># getMatchingItemCount()</text>
<text text-anchor="start" x="515" y="-712.5" font-family="Helvetica,sans-Serif" font-size="10.00"># getOpenSound()</text>
<text text-anchor="start" x="515" y="-701.5" font-family="Helvetica,sans-Serif" font-size="10.00"># internalSetContents()</text>
<text text-anchor="start" x="515" y="-690.5" font-family="Helvetica,sans-Serif" font-size="10.00"># internalSetItem()</text>
</a>
</g>
</g>
<!-- Node1&#45;&gt;Node2 -->
<g id="edge1" class="edge">
<title>Node1&#45;&gt;Node2</title>
<path fill="none" stroke="midnightblue" d="M692.71,-1001.25C683.88,-992.16 675.15,-982.17 668,-972 651.35,-948.32 636.56,-920.87 624.18,-894.57"/>
<polygon fill="none" stroke="midnightblue" points="690.24,-1003.74 699.78,-1008.34 695.2,-998.79 690.24,-1003.74"/>
</g>
<!-- Node3 -->
<g id="node3" class="node">
<title>Node3</title>
<g id="a_node3"><a xlink:href="../../d9/de1/interfacepocketmine_1_1block_1_1tile_1_1_container.html" target="_top" xlink:title=" ">
<polygon fill="white" stroke="#bfbfbf" points="677,-744 677,-834 799,-834 799,-744 677,-744"/>
<text text-anchor="start" x="685" y="-822" font-family="Helvetica,sans-Serif" font-size="10.00">pocketmine\block\tile</text>
<text text-anchor="middle" x="738" y="-811" font-family="Helvetica,sans-Serif" font-size="10.00">\Container</text>
<polyline fill="none" stroke="#bfbfbf" points="677,-804 799,-804 "/>
<text text-anchor="start" x="685" y="-792" font-family="Helvetica,sans-Serif" font-size="10.00">+ TAG_ITEMS</text>
<text text-anchor="start" x="685" y="-781" font-family="Helvetica,sans-Serif" font-size="10.00">+ TAG_LOCK</text>
<polyline fill="none" stroke="#bfbfbf" points="677,-774 799,-774 "/>
<text text-anchor="start" x="685" y="-762" font-family="Helvetica,sans-Serif" font-size="10.00">+ canOpenWith()</text>
<text text-anchor="start" x="685" y="-751" font-family="Helvetica,sans-Serif" font-size="10.00">+ getRealInventory()</text>
</a>
</g>
</g>
<!-- Node1&#45;&gt;Node3 -->
<g id="edge2" class="edge">
<title>Node1&#45;&gt;Node3</title>
<path fill="none" stroke="midnightblue" d="M738,-998.15C738,-952.32 738,-880.39 738,-834.23"/>
<polygon fill="none" stroke="midnightblue" points="734.5,-998.36 738,-1008.36 741.5,-998.36 734.5,-998.36"/>
</g>
<!-- Node15 -->
<g id="node15" class="node">
<title>Node15</title>
<g id="a_node15"><a xlink:href="../../d4/ddf/classpocketmine_1_1entity_1_1_human.html" target="_top" xlink:title=" ">
<polygon fill="white" stroke="#bfbfbf" points="1049.5,-606.5 1049.5,-971.5 1212.5,-971.5 1212.5,-606.5 1049.5,-606.5"/>
<text text-anchor="middle" x="1131" y="-959.5" font-family="Helvetica,sans-Serif" font-size="10.00">pocketmine\entity\Human</text>
<polyline fill="none" stroke="#bfbfbf" points="1049.5,-952.5 1212.5,-952.5 "/>
<text text-anchor="start" x="1057.5" y="-940.5" font-family="Helvetica,sans-Serif" font-size="10.00"># $enderInventory</text>
<text text-anchor="start" x="1057.5" y="-929.5" font-family="Helvetica,sans-Serif" font-size="10.00"># $hungerManager</text>
<text text-anchor="start" x="1057.5" y="-918.5" font-family="Helvetica,sans-Serif" font-size="10.00"># $inventory</text>
<text text-anchor="start" x="1057.5" y="-907.5" font-family="Helvetica,sans-Serif" font-size="10.00"># $offHandInventory</text>
<text text-anchor="start" x="1057.5" y="-896.5" font-family="Helvetica,sans-Serif" font-size="10.00"># $skin</text>
<text text-anchor="start" x="1057.5" y="-885.5" font-family="Helvetica,sans-Serif" font-size="10.00"># $uuid</text>
<text text-anchor="start" x="1057.5" y="-874.5" font-family="Helvetica,sans-Serif" font-size="10.00"># $xpManager</text>
<text text-anchor="start" x="1057.5" y="-863.5" font-family="Helvetica,sans-Serif" font-size="10.00"># $xpSeed</text>
<polyline fill="none" stroke="#bfbfbf" points="1049.5,-856.5 1212.5,-856.5 "/>
<text text-anchor="start" x="1057.5" y="-844.5" font-family="Helvetica,sans-Serif" font-size="10.00">+ __construct()</text>
<text text-anchor="start" x="1057.5" y="-833.5" font-family="Helvetica,sans-Serif" font-size="10.00">+ applyDamageModifiers()</text>
<text text-anchor="start" x="1057.5" y="-822.5" font-family="Helvetica,sans-Serif" font-size="10.00">+ consumeObject()</text>
<text text-anchor="start" x="1057.5" y="-811.5" font-family="Helvetica,sans-Serif" font-size="10.00">+ emote()</text>
<text text-anchor="start" x="1057.5" y="-800.5" font-family="Helvetica,sans-Serif" font-size="10.00">+ getDrops()</text>
<text text-anchor="start" x="1057.5" y="-789.5" font-family="Helvetica,sans-Serif" font-size="10.00">+ getEnchantmentSeed()</text>
<text text-anchor="start" x="1057.5" y="-778.5" font-family="Helvetica,sans-Serif" font-size="10.00">+ getEnderInventory()</text>
<text text-anchor="start" x="1057.5" y="-767.5" font-family="Helvetica,sans-Serif" font-size="10.00">+ getHungerManager()</text>
<text text-anchor="start" x="1057.5" y="-756.5" font-family="Helvetica,sans-Serif" font-size="10.00">+ getInventory()</text>
<text text-anchor="start" x="1057.5" y="-745.5" font-family="Helvetica,sans-Serif" font-size="10.00">+ getName()</text>
<text text-anchor="start" x="1057.5" y="-734.5" font-family="Helvetica,sans-Serif" font-size="10.00">and 13 more...</text>
<text text-anchor="start" x="1057.5" y="-723.5" font-family="Helvetica,sans-Serif" font-size="10.00">+ getNetworkTypeId()</text>
<text text-anchor="start" x="1057.5" y="-712.5" font-family="Helvetica,sans-Serif" font-size="10.00">+ parseSkinNBT()</text>
<text text-anchor="start" x="1057.5" y="-701.5" font-family="Helvetica,sans-Serif" font-size="10.00"># applyConsumptionResults()</text>
<text text-anchor="start" x="1057.5" y="-690.5" font-family="Helvetica,sans-Serif" font-size="10.00"># applyPostDamageEffects()</text>
<text text-anchor="start" x="1057.5" y="-679.5" font-family="Helvetica,sans-Serif" font-size="10.00"># destroyCycles()</text>
<text text-anchor="start" x="1057.5" y="-668.5" font-family="Helvetica,sans-Serif" font-size="10.00"># entityBaseTick()</text>
<text text-anchor="start" x="1057.5" y="-657.5" font-family="Helvetica,sans-Serif" font-size="10.00"># getInitialSizeInfo()</text>
<text text-anchor="start" x="1057.5" y="-646.5" font-family="Helvetica,sans-Serif" font-size="10.00"># initEntity()</text>
<text text-anchor="start" x="1057.5" y="-635.5" font-family="Helvetica,sans-Serif" font-size="10.00"># initHumanData()</text>
<text text-anchor="start" x="1057.5" y="-624.5" font-family="Helvetica,sans-Serif" font-size="10.00"># onDispose()</text>
<text text-anchor="start" x="1057.5" y="-613.5" font-family="Helvetica,sans-Serif" font-size="10.00"># sendSpawnPacket()</text>
</a>
</g>
</g>
<!-- Node1&#45;&gt;Node15 -->
<g id="edge14" class="edge">
<title>Node1&#45;&gt;Node15</title>
<path fill="none" stroke="midnightblue" d="M798.58,-1002.73C865.8,-959.71 974.63,-890.07 1049.34,-842.26"/>
<polygon fill="none" stroke="midnightblue" points="796.32,-1000.02 789.78,-1008.36 800.09,-1005.92 796.32,-1000.02"/>
</g>
<!-- Node4 -->
<g id="node4" class="node">
<title>Node4</title>
<g id="a_node4"><a xlink:href="../../d4/dcc/classpocketmine_1_1block_1_1tile_1_1_barrel.html" target="_top" xlink:title=" ">
<polygon fill="white" stroke="#bfbfbf" points="0,-270.5 0,-404.5 122,-404.5 122,-270.5 0,-270.5"/>
<text text-anchor="start" x="8" y="-392.5" font-family="Helvetica,sans-Serif" font-size="10.00">pocketmine\block\tile</text>
<text text-anchor="middle" x="61" y="-381.5" font-family="Helvetica,sans-Serif" font-size="10.00">\Barrel</text>
<polyline fill="none" stroke="#bfbfbf" points="0,-374.5 122,-374.5 "/>
<text text-anchor="start" x="8" y="-362.5" font-family="Helvetica,sans-Serif" font-size="10.00"># $inventory</text>
<polyline fill="none" stroke="#bfbfbf" points="0,-355.5 122,-355.5 "/>
<text text-anchor="start" x="8" y="-343.5" font-family="Helvetica,sans-Serif" font-size="10.00">+ __construct()</text>
<text text-anchor="start" x="8" y="-332.5" font-family="Helvetica,sans-Serif" font-size="10.00">+ close()</text>
<text text-anchor="start" x="8" y="-321.5" font-family="Helvetica,sans-Serif" font-size="10.00">+ getDefaultName()</text>
<text text-anchor="start" x="8" y="-310.5" font-family="Helvetica,sans-Serif" font-size="10.00">+ getInventory()</text>
<text text-anchor="start" x="8" y="-299.5" font-family="Helvetica,sans-Serif" font-size="10.00">+ getRealInventory()</text>
<text text-anchor="start" x="8" y="-288.5" font-family="Helvetica,sans-Serif" font-size="10.00">+ readSaveData()</text>
<text text-anchor="start" x="8" y="-277.5" font-family="Helvetica,sans-Serif" font-size="10.00"># writeSaveData()</text>
</a>
</g>
</g>
<!-- Node3&#45;&gt;Node4 -->
<g id="edge3" class="edge">
<title>Node3&#45;&gt;Node4</title>
<path fill="none" stroke="midnightblue" d="M732.64,-733.87C725.38,-691.77 708.28,-635.69 668,-606 571.73,-535.03 224.59,-644.46 131,-570 81.71,-530.79 66.15,-458.05 61.72,-404.53"/>
<polygon fill="none" stroke="midnightblue" points="729.22,-734.65 734.24,-743.97 736.13,-733.55 729.22,-734.65"/>
</g>
<!-- Node5 -->
<g id="node5" class="node">
<title>Node5</title>
<g id="a_node5"><a xlink:href="../../d3/d41/classpocketmine_1_1block_1_1tile_1_1_brewing_stand.html" target="_top" xlink:title=" ">
<polygon fill="white" stroke="#bfbfbf" points="140,-259.5 140,-415.5 298,-415.5 298,-259.5 140,-259.5"/>
<text text-anchor="start" x="148" y="-403.5" font-family="Helvetica,sans-Serif" font-size="10.00">pocketmine\block\tile</text>
<text text-anchor="middle" x="219" y="-392.5" font-family="Helvetica,sans-Serif" font-size="10.00">\BrewingStand</text>
<polyline fill="none" stroke="#bfbfbf" points="140,-385.5 298,-385.5 "/>
<text text-anchor="start" x="148" y="-373.5" font-family="Helvetica,sans-Serif" font-size="10.00">+ BREW_TIME_TICKS</text>
<polyline fill="none" stroke="#bfbfbf" points="140,-366.5 298,-366.5 "/>
<text text-anchor="start" x="148" y="-354.5" font-family="Helvetica,sans-Serif" font-size="10.00">+ __construct()</text>
<text text-anchor="start" x="148" y="-343.5" font-family="Helvetica,sans-Serif" font-size="10.00">+ close()</text>
<text text-anchor="start" x="148" y="-332.5" font-family="Helvetica,sans-Serif" font-size="10.00">+ getDefaultName()</text>
<text text-anchor="start" x="148" y="-321.5" font-family="Helvetica,sans-Serif" font-size="10.00">+ getInventory()</text>
<text text-anchor="start" x="148" y="-310.5" font-family="Helvetica,sans-Serif" font-size="10.00">+ getRealInventory()</text>
<text text-anchor="start" x="148" y="-299.5" font-family="Helvetica,sans-Serif" font-size="10.00">+ onUpdate()</text>
<text text-anchor="start" x="148" y="-288.5" font-family="Helvetica,sans-Serif" font-size="10.00">+ readSaveData()</text>
<text text-anchor="start" x="148" y="-277.5" font-family="Helvetica,sans-Serif" font-size="10.00"># addAdditionalSpawnData()</text>
<text text-anchor="start" x="148" y="-266.5" font-family="Helvetica,sans-Serif" font-size="10.00"># writeSaveData()</text>
</a>
</g>
</g>
<!-- Node3&#45;&gt;Node5 -->
<g id="edge4" class="edge">
<title>Node3&#45;&gt;Node5</title>
<path fill="none" stroke="midnightblue" d="M732.31,-733.82C724.86,-691.97 707.67,-636.25 668,-606 539.79,-508.23 435.02,-668.02 307,-570 259.29,-533.47 237.45,-467.84 227.44,-415.76"/>
<polygon fill="none" stroke="midnightblue" points="728.89,-734.57 733.96,-743.87 735.79,-733.44 728.89,-734.57"/>
</g>
<!-- Node6 -->
<g id="node6" class="node">
<title>Node6</title>
<g id="a_node6"><a xlink:href="../../d5/d8b/classpocketmine_1_1block_1_1tile_1_1_campfire.html" target="_top" xlink:title=" ">
<polygon fill="white" stroke="#bfbfbf" points="316,-265 316,-410 474,-410 474,-265 316,-265"/>
<text text-anchor="start" x="324" y="-398" font-family="Helvetica,sans-Serif" font-size="10.00">pocketmine\block\tile</text>
<text text-anchor="middle" x="395" y="-387" font-family="Helvetica,sans-Serif" font-size="10.00">\Campfire</text>
<polyline fill="none" stroke="#bfbfbf" points="316,-380 474,-380 "/>
<text text-anchor="start" x="324" y="-368" font-family="Helvetica,sans-Serif" font-size="10.00"># $inventory</text>
<polyline fill="none" stroke="#bfbfbf" points="316,-361 474,-361 "/>
<text text-anchor="start" x="324" y="-349" font-family="Helvetica,sans-Serif" font-size="10.00">+ __construct()</text>
<text text-anchor="start" x="324" y="-338" font-family="Helvetica,sans-Serif" font-size="10.00">+ getCookingTimes()</text>
<text text-anchor="start" x="324" y="-327" font-family="Helvetica,sans-Serif" font-size="10.00">+ getInventory()</text>
<text text-anchor="start" x="324" y="-316" font-family="Helvetica,sans-Serif" font-size="10.00">+ getRealInventory()</text>
<text text-anchor="start" x="324" y="-305" font-family="Helvetica,sans-Serif" font-size="10.00">+ readSaveData()</text>
<text text-anchor="start" x="324" y="-294" font-family="Helvetica,sans-Serif" font-size="10.00">+ setCookingTimes()</text>
<text text-anchor="start" x="324" y="-283" font-family="Helvetica,sans-Serif" font-size="10.00"># addAdditionalSpawnData()</text>
<text text-anchor="start" x="324" y="-272" font-family="Helvetica,sans-Serif" font-size="10.00"># writeSaveData()</text>
</a>
</g>
</g>
<!-- Node3&#45;&gt;Node6 -->
<g id="edge5" class="edge">
<title>Node3&#45;&gt;Node6</title>
<path fill="none" stroke="midnightblue" d="M731.38,-734.02C723.41,-692.81 705.98,-637.86 668,-606 603.82,-552.17 547.07,-623.95 483,-570 435.72,-530.19 413.79,-462.09 403.65,-410.03"/>
<polygon fill="none" stroke="midnightblue" points="727.94,-734.69 733.16,-743.91 734.83,-733.45 727.94,-734.69"/>
</g>
<!-- Node7 -->
<g id="node7" class="node">
<title>Node7</title>
<g id="a_node7"><a xlink:href="../../d9/d64/classpocketmine_1_1block_1_1tile_1_1_chest.html" target="_top" xlink:title=" ">
<polygon fill="white" stroke="#bfbfbf" points="492,-204.5 492,-470.5 650,-470.5 650,-204.5 492,-204.5"/>
<text text-anchor="start" x="500" y="-458.5" font-family="Helvetica,sans-Serif" font-size="10.00">pocketmine\block\tile</text>
<text text-anchor="middle" x="571" y="-447.5" font-family="Helvetica,sans-Serif" font-size="10.00">\Chest</text>
<polyline fill="none" stroke="#bfbfbf" points="492,-440.5 650,-440.5 "/>
<text text-anchor="start" x="500" y="-428.5" font-family="Helvetica,sans-Serif" font-size="10.00">+ TAG_PAIR_LEAD</text>
<text text-anchor="start" x="500" y="-417.5" font-family="Helvetica,sans-Serif" font-size="10.00">+ TAG_PAIRX</text>
<text text-anchor="start" x="500" y="-406.5" font-family="Helvetica,sans-Serif" font-size="10.00">+ TAG_PAIRZ</text>
<text text-anchor="start" x="500" y="-395.5" font-family="Helvetica,sans-Serif" font-size="10.00"># $doubleInventory</text>
<text text-anchor="start" x="500" y="-384.5" font-family="Helvetica,sans-Serif" font-size="10.00"># $inventory</text>
<polyline fill="none" stroke="#bfbfbf" points="492,-377.5 650,-377.5 "/>
<text text-anchor="start" x="500" y="-365.5" font-family="Helvetica,sans-Serif" font-size="10.00">+ __construct()</text>
<text text-anchor="start" x="500" y="-354.5" font-family="Helvetica,sans-Serif" font-size="10.00">+ close()</text>
<text text-anchor="start" x="500" y="-343.5" font-family="Helvetica,sans-Serif" font-size="10.00">+ getCleanedNBT()</text>
<text text-anchor="start" x="500" y="-332.5" font-family="Helvetica,sans-Serif" font-size="10.00">+ getDefaultName()</text>
<text text-anchor="start" x="500" y="-321.5" font-family="Helvetica,sans-Serif" font-size="10.00">+ getInventory()</text>
<text text-anchor="start" x="500" y="-310.5" font-family="Helvetica,sans-Serif" font-size="10.00">+ getPair()</text>
<text text-anchor="start" x="500" y="-299.5" font-family="Helvetica,sans-Serif" font-size="10.00">+ getRealInventory()</text>
<text text-anchor="start" x="500" y="-288.5" font-family="Helvetica,sans-Serif" font-size="10.00">+ isPaired()</text>
<text text-anchor="start" x="500" y="-277.5" font-family="Helvetica,sans-Serif" font-size="10.00">+ pairWith()</text>
<text text-anchor="start" x="500" y="-266.5" font-family="Helvetica,sans-Serif" font-size="10.00">+ readSaveData()</text>
<text text-anchor="start" x="500" y="-255.5" font-family="Helvetica,sans-Serif" font-size="10.00">+ unpair()</text>
<text text-anchor="start" x="500" y="-244.5" font-family="Helvetica,sans-Serif" font-size="10.00"># addAdditionalSpawnData()</text>
<text text-anchor="start" x="500" y="-233.5" font-family="Helvetica,sans-Serif" font-size="10.00"># checkPairing()</text>
<text text-anchor="start" x="500" y="-222.5" font-family="Helvetica,sans-Serif" font-size="10.00"># onBlockDestroyedHook()</text>
<text text-anchor="start" x="500" y="-211.5" font-family="Helvetica,sans-Serif" font-size="10.00"># writeSaveData()</text>
</a>
</g>
</g>
<!-- Node3&#45;&gt;Node7 -->
<g id="edge6" class="edge">
<title>Node3&#45;&gt;Node7</title>
<path fill="none" stroke="midnightblue" d="M717.96,-734.07C693.91,-669.33 652.72,-558.47 620.06,-470.56"/>
<polygon fill="none" stroke="midnightblue" points="714.77,-735.52 721.53,-743.67 721.33,-733.08 714.77,-735.52"/>
</g>
<!-- Node8 -->
<g id="node8" class="node">
<title>Node8</title>
<g id="a_node8"><a xlink:href="../../d5/ddf/classpocketmine_1_1block_1_1tile_1_1_chiseled_bookshelf.html" target="_top" xlink:title=" ">
<polygon fill="white" stroke="#bfbfbf" points="668,-259.5 668,-415.5 808,-415.5 808,-259.5 668,-259.5"/>
<text text-anchor="start" x="676" y="-403.5" font-family="Helvetica,sans-Serif" font-size="10.00">pocketmine\block\tile</text>
<text text-anchor="middle" x="738" y="-392.5" font-family="Helvetica,sans-Serif" font-size="10.00">\ChiseledBookshelf</text>
<polyline fill="none" stroke="#bfbfbf" points="668,-385.5 808,-385.5 "/>
<text text-anchor="middle" x="738" y="-373.5" font-family="Helvetica,sans-Serif" font-size="10.00"> </text>
<polyline fill="none" stroke="#bfbfbf" points="668,-366.5 808,-366.5 "/>
<text text-anchor="start" x="676" y="-354.5" font-family="Helvetica,sans-Serif" font-size="10.00">+ __construct()</text>
<text text-anchor="start" x="676" y="-343.5" font-family="Helvetica,sans-Serif" font-size="10.00">+ getInventory()</text>
<text text-anchor="start" x="676" y="-332.5" font-family="Helvetica,sans-Serif" font-size="10.00">+ getLastInteractedSlot()</text>
<text text-anchor="start" x="676" y="-321.5" font-family="Helvetica,sans-Serif" font-size="10.00">+ getRealInventory()</text>
<text text-anchor="start" x="676" y="-310.5" font-family="Helvetica,sans-Serif" font-size="10.00">+ readSaveData()</text>
<text text-anchor="start" x="676" y="-299.5" font-family="Helvetica,sans-Serif" font-size="10.00">+ setLastInteractedSlot()</text>
<text text-anchor="start" x="676" y="-288.5" font-family="Helvetica,sans-Serif" font-size="10.00"># loadItems()</text>
<text text-anchor="start" x="676" y="-277.5" font-family="Helvetica,sans-Serif" font-size="10.00"># saveItems()</text>
<text text-anchor="start" x="676" y="-266.5" font-family="Helvetica,sans-Serif" font-size="10.00"># writeSaveData()</text>
</a>
</g>
</g>
<!-- Node3&#45;&gt;Node8 -->
<g id="edge7" class="edge">
<title>Node3&#45;&gt;Node8</title>
<path fill="none" stroke="midnightblue" d="M738,-733.4C738,-653.99 738,-506.25 738,-415.72"/>
<polygon fill="none" stroke="midnightblue" points="734.5,-733.67 738,-743.67 741.5,-733.67 734.5,-733.67"/>
</g>
<!-- Node9 -->
<g id="node9" class="node">
<title>Node9</title>
<g id="a_node9"><a xlink:href="../../db/d1f/classpocketmine_1_1block_1_1tile_1_1_furnace.html" target="_top" xlink:title=" ">
<polygon fill="white" stroke="#bfbfbf" points="826,-226.5 826,-448.5 948,-448.5 948,-226.5 826,-226.5"/>
<text text-anchor="start" x="834" y="-436.5" font-family="Helvetica,sans-Serif" font-size="10.00">pocketmine\block\tile</text>
<text text-anchor="middle" x="887" y="-425.5" font-family="Helvetica,sans-Serif" font-size="10.00">\Furnace</text>
<polyline fill="none" stroke="#bfbfbf" points="826,-418.5 948,-418.5 "/>
<text text-anchor="start" x="834" y="-406.5" font-family="Helvetica,sans-Serif" font-size="10.00">+ TAG_BURN_TIME</text>
<text text-anchor="start" x="834" y="-395.5" font-family="Helvetica,sans-Serif" font-size="10.00">+ TAG_COOK_TIME</text>
<text text-anchor="start" x="834" y="-384.5" font-family="Helvetica,sans-Serif" font-size="10.00">+ TAG_MAX_TIME</text>
<text text-anchor="start" x="834" y="-373.5" font-family="Helvetica,sans-Serif" font-size="10.00"># $inventory</text>
<polyline fill="none" stroke="#bfbfbf" points="826,-366.5 948,-366.5 "/>
<text text-anchor="start" x="834" y="-354.5" font-family="Helvetica,sans-Serif" font-size="10.00">+ __construct()</text>
<text text-anchor="start" x="834" y="-343.5" font-family="Helvetica,sans-Serif" font-size="10.00">+ close()</text>
<text text-anchor="start" x="834" y="-332.5" font-family="Helvetica,sans-Serif" font-size="10.00">+ getDefaultName()</text>
<text text-anchor="start" x="834" y="-321.5" font-family="Helvetica,sans-Serif" font-size="10.00">+ getFurnaceType()</text>
<text text-anchor="start" x="834" y="-310.5" font-family="Helvetica,sans-Serif" font-size="10.00">+ getInventory()</text>
<text text-anchor="start" x="834" y="-299.5" font-family="Helvetica,sans-Serif" font-size="10.00">+ getRealInventory()</text>
<text text-anchor="start" x="834" y="-288.5" font-family="Helvetica,sans-Serif" font-size="10.00">+ onUpdate()</text>
<text text-anchor="start" x="834" y="-277.5" font-family="Helvetica,sans-Serif" font-size="10.00">+ readSaveData()</text>
<text text-anchor="start" x="834" y="-266.5" font-family="Helvetica,sans-Serif" font-size="10.00"># checkFuel()</text>
<text text-anchor="start" x="834" y="-255.5" font-family="Helvetica,sans-Serif" font-size="10.00"># onStartSmelting()</text>
<text text-anchor="start" x="834" y="-244.5" font-family="Helvetica,sans-Serif" font-size="10.00"># onStopSmelting()</text>
<text text-anchor="start" x="834" y="-233.5" font-family="Helvetica,sans-Serif" font-size="10.00"># writeSaveData()</text>
</a>
</g>
</g>
<!-- Node3&#45;&gt;Node9 -->
<g id="edge8" class="edge">
<title>Node3&#45;&gt;Node9</title>
<path fill="none" stroke="midnightblue" d="M758.35,-734.37C774.81,-690.41 798.24,-626.47 817,-570 830.07,-530.65 843.47,-487.21 855,-448.69"/>
<polygon fill="none" stroke="midnightblue" points="754.98,-733.39 754.74,-743.99 761.53,-735.85 754.98,-733.39"/>
</g>
<!-- Node13 -->
<g id="node13" class="node">
<title>Node13</title>
<g id="a_node13"><a xlink:href="../../d2/d1d/classpocketmine_1_1block_1_1tile_1_1_hopper.html" target="_top" xlink:title=" ">
<polygon fill="white" stroke="#bfbfbf" points="966,-270.5 966,-404.5 1088,-404.5 1088,-270.5 966,-270.5"/>
<text text-anchor="start" x="974" y="-392.5" font-family="Helvetica,sans-Serif" font-size="10.00">pocketmine\block\tile</text>
<text text-anchor="middle" x="1027" y="-381.5" font-family="Helvetica,sans-Serif" font-size="10.00">\Hopper</text>
<polyline fill="none" stroke="#bfbfbf" points="966,-374.5 1088,-374.5 "/>
<text text-anchor="middle" x="1027" y="-362.5" font-family="Helvetica,sans-Serif" font-size="10.00"> </text>
<polyline fill="none" stroke="#bfbfbf" points="966,-355.5 1088,-355.5 "/>
<text text-anchor="start" x="974" y="-343.5" font-family="Helvetica,sans-Serif" font-size="10.00">+ __construct()</text>
<text text-anchor="start" x="974" y="-332.5" font-family="Helvetica,sans-Serif" font-size="10.00">+ close()</text>
<text text-anchor="start" x="974" y="-321.5" font-family="Helvetica,sans-Serif" font-size="10.00">+ getDefaultName()</text>
<text text-anchor="start" x="974" y="-310.5" font-family="Helvetica,sans-Serif" font-size="10.00">+ getInventory()</text>
<text text-anchor="start" x="974" y="-299.5" font-family="Helvetica,sans-Serif" font-size="10.00">+ getRealInventory()</text>
<text text-anchor="start" x="974" y="-288.5" font-family="Helvetica,sans-Serif" font-size="10.00">+ readSaveData()</text>
<text text-anchor="start" x="974" y="-277.5" font-family="Helvetica,sans-Serif" font-size="10.00"># writeSaveData()</text>
</a>
</g>
</g>
<!-- Node3&#45;&gt;Node13 -->
<g id="edge12" class="edge">
<title>Node3&#45;&gt;Node13</title>
<path fill="none" stroke="midnightblue" d="M804.26,-737.35C852.93,-696.92 917.24,-636.23 957,-570 987.74,-518.79 1005.93,-453.01 1016.03,-404.67"/>
<polygon fill="none" stroke="midnightblue" points="801.78,-734.86 796.28,-743.91 806.23,-740.26 801.78,-734.86"/>
</g>
<!-- Node14 -->
<g id="node14" class="node">
<title>Node14</title>
<g id="a_node14"><a xlink:href="../../dd/dd0/classpocketmine_1_1block_1_1tile_1_1_shulker_box.html" target="_top" xlink:title=" ">
<polygon fill="white" stroke="#bfbfbf" points="1106,-226.5 1106,-448.5 1264,-448.5 1264,-226.5 1106,-226.5"/>
<text text-anchor="start" x="1114" y="-436.5" font-family="Helvetica,sans-Serif" font-size="10.00">pocketmine\block\tile</text>
<text text-anchor="middle" x="1185" y="-425.5" font-family="Helvetica,sans-Serif" font-size="10.00">\ShulkerBox</text>
<polyline fill="none" stroke="#bfbfbf" points="1106,-418.5 1264,-418.5 "/>
<text text-anchor="start" x="1114" y="-406.5" font-family="Helvetica,sans-Serif" font-size="10.00">+ TAG_FACING</text>
<text text-anchor="start" x="1114" y="-395.5" font-family="Helvetica,sans-Serif" font-size="10.00"># $facing</text>
<text text-anchor="start" x="1114" y="-384.5" font-family="Helvetica,sans-Serif" font-size="10.00"># $inventory</text>
<polyline fill="none" stroke="#bfbfbf" points="1106,-377.5 1264,-377.5 "/>
<text text-anchor="start" x="1114" y="-365.5" font-family="Helvetica,sans-Serif" font-size="10.00">+ __construct()</text>
<text text-anchor="start" x="1114" y="-354.5" font-family="Helvetica,sans-Serif" font-size="10.00">+ close()</text>
<text text-anchor="start" x="1114" y="-343.5" font-family="Helvetica,sans-Serif" font-size="10.00">+ copyDataFromItem()</text>
<text text-anchor="start" x="1114" y="-332.5" font-family="Helvetica,sans-Serif" font-size="10.00">+ getCleanedNBT()</text>
<text text-anchor="start" x="1114" y="-321.5" font-family="Helvetica,sans-Serif" font-size="10.00">+ getDefaultName()</text>
<text text-anchor="start" x="1114" y="-310.5" font-family="Helvetica,sans-Serif" font-size="10.00">+ getFacing()</text>
<text text-anchor="start" x="1114" y="-299.5" font-family="Helvetica,sans-Serif" font-size="10.00">+ getInventory()</text>
<text text-anchor="start" x="1114" y="-288.5" font-family="Helvetica,sans-Serif" font-size="10.00">+ getRealInventory()</text>
<text text-anchor="start" x="1114" y="-277.5" font-family="Helvetica,sans-Serif" font-size="10.00">+ readSaveData()</text>
<text text-anchor="start" x="1114" y="-266.5" font-family="Helvetica,sans-Serif" font-size="10.00">+ setFacing()</text>
<text text-anchor="start" x="1114" y="-255.5" font-family="Helvetica,sans-Serif" font-size="10.00"># addAdditionalSpawnData()</text>
<text text-anchor="start" x="1114" y="-244.5" font-family="Helvetica,sans-Serif" font-size="10.00"># onBlockDestroyedHook()</text>
<text text-anchor="start" x="1114" y="-233.5" font-family="Helvetica,sans-Serif" font-size="10.00"># writeSaveData()</text>
</a>
</g>
</g>
<!-- Node3&#45;&gt;Node14 -->
<g id="edge13" class="edge">
<title>Node3&#45;&gt;Node14</title>
<path fill="none" stroke="midnightblue" d="M808,-745.88C911.71,-683.42 1094.33,-573.21 1097,-570 1125.95,-535.22 1145.97,-489.91 1159.51,-448.6"/>
<polygon fill="none" stroke="midnightblue" points="805.9,-743.06 799.14,-751.21 809.51,-749.05 805.9,-743.06"/>
</g>
<!-- Node10 -->
<g id="node10" class="node">
<title>Node10</title>
<g id="a_node10"><a xlink:href="../../dc/dd8/classpocketmine_1_1block_1_1tile_1_1_blast_furnace.html" target="_top" xlink:title=" ">
<polygon fill="white" stroke="#bfbfbf" points="686,-0.5 686,-68.5 808,-68.5 808,-0.5 686,-0.5"/>
<text text-anchor="start" x="694" y="-56.5" font-family="Helvetica,sans-Serif" font-size="10.00">pocketmine\block\tile</text>
<text text-anchor="middle" x="747" y="-45.5" font-family="Helvetica,sans-Serif" font-size="10.00">\BlastFurnace</text>
<polyline fill="none" stroke="#bfbfbf" points="686,-38.5 808,-38.5 "/>
<text text-anchor="middle" x="747" y="-26.5" font-family="Helvetica,sans-Serif" font-size="10.00"> </text>
<polyline fill="none" stroke="#bfbfbf" points="686,-19.5 808,-19.5 "/>
<text text-anchor="start" x="694" y="-7.5" font-family="Helvetica,sans-Serif" font-size="10.00">+ getFurnaceType()</text>
</a>
</g>
</g>
<!-- Node9&#45;&gt;Node10 -->
<g id="edge9" class="edge">
<title>Node9&#45;&gt;Node10</title>
<path fill="none" stroke="midnightblue" d="M862.85,-216.46C852.21,-179.1 837.36,-138.86 817,-105 809.06,-91.79 798.05,-79.28 787.11,-68.61"/>
<polygon fill="none" stroke="midnightblue" points="859.56,-217.7 865.6,-226.4 866.3,-215.83 859.56,-217.7"/>
</g>
<!-- Node11 -->
<g id="node11" class="node">
<title>Node11</title>
<g id="a_node11"><a xlink:href="../../df/d73/classpocketmine_1_1block_1_1tile_1_1_normal_furnace.html" target="_top" xlink:title=" ">
<polygon fill="white" stroke="#bfbfbf" points="826,-0.5 826,-68.5 948,-68.5 948,-0.5 826,-0.5"/>
<text text-anchor="start" x="834" y="-56.5" font-family="Helvetica,sans-Serif" font-size="10.00">pocketmine\block\tile</text>
<text text-anchor="middle" x="887" y="-45.5" font-family="Helvetica,sans-Serif" font-size="10.00">\NormalFurnace</text>
<polyline fill="none" stroke="#bfbfbf" points="826,-38.5 948,-38.5 "/>
<text text-anchor="middle" x="887" y="-26.5" font-family="Helvetica,sans-Serif" font-size="10.00"> </text>
<polyline fill="none" stroke="#bfbfbf" points="826,-19.5 948,-19.5 "/>
<text text-anchor="start" x="834" y="-7.5" font-family="Helvetica,sans-Serif" font-size="10.00">+ getFurnaceType()</text>
</a>
</g>
</g>
<!-- Node9&#45;&gt;Node11 -->
<g id="edge10" class="edge">
<title>Node9&#45;&gt;Node11</title>
<path fill="none" stroke="midnightblue" d="M887,-215.9C887,-162.62 887,-104.14 887,-68.62"/>
<polygon fill="none" stroke="midnightblue" points="883.5,-216.13 887,-226.13 890.5,-216.13 883.5,-216.13"/>
</g>
<!-- Node12 -->
<g id="node12" class="node">
<title>Node12</title>
<g id="a_node12"><a xlink:href="../../db/d5c/classpocketmine_1_1block_1_1tile_1_1_smoker.html" target="_top" xlink:title=" ">
<polygon fill="white" stroke="#bfbfbf" points="966,-0.5 966,-68.5 1088,-68.5 1088,-0.5 966,-0.5"/>
<text text-anchor="start" x="974" y="-56.5" font-family="Helvetica,sans-Serif" font-size="10.00">pocketmine\block\tile</text>
<text text-anchor="middle" x="1027" y="-45.5" font-family="Helvetica,sans-Serif" font-size="10.00">\Smoker</text>
<polyline fill="none" stroke="#bfbfbf" points="966,-38.5 1088,-38.5 "/>
<text text-anchor="middle" x="1027" y="-26.5" font-family="Helvetica,sans-Serif" font-size="10.00"> </text>
<polyline fill="none" stroke="#bfbfbf" points="966,-19.5 1088,-19.5 "/>
<text text-anchor="start" x="974" y="-7.5" font-family="Helvetica,sans-Serif" font-size="10.00">+ getFurnaceType()</text>
</a>
</g>
</g>
<!-- Node9&#45;&gt;Node12 -->
<g id="edge11" class="edge">
<title>Node9&#45;&gt;Node12</title>
<path fill="none" stroke="midnightblue" d="M911.15,-216.46C921.79,-179.1 936.64,-138.86 957,-105 964.94,-91.79 975.95,-79.28 986.89,-68.61"/>
<polygon fill="none" stroke="midnightblue" points="907.7,-215.83 908.4,-226.4 914.44,-217.7 907.7,-215.83"/>
</g>
<!-- Node16 -->
<g id="node16" class="node">
<title>Node16</title>
<g id="a_node16"><a xlink:href="../../d0/d6f/classpocketmine_1_1player_1_1_player.html" target="_top" xlink:title=" ">
<polygon fill="white" stroke="black" points="1282.5,-105.5 1282.5,-569.5 1443.5,-569.5 1443.5,-105.5 1282.5,-105.5"/>
<text text-anchor="middle" x="1363" y="-557.5" font-family="Helvetica,sans-Serif" font-size="10.00">pocketmine\player\Player</text>
<polyline fill="none" stroke="black" points="1282.5,-550.5 1443.5,-550.5 "/>
<text text-anchor="start" x="1290.5" y="-538.5" font-family="Helvetica,sans-Serif" font-size="10.00">+ $spawned</text>
<text text-anchor="start" x="1290.5" y="-527.5" font-family="Helvetica,sans-Serif" font-size="10.00">+ TAG_FIRST_PLAYED</text>
<text text-anchor="start" x="1290.5" y="-516.5" font-family="Helvetica,sans-Serif" font-size="10.00">+ TAG_LAST_KNOWN_XUID</text>
<text text-anchor="start" x="1290.5" y="-505.5" font-family="Helvetica,sans-Serif" font-size="10.00">+ TAG_LAST_PLAYED</text>
<text text-anchor="start" x="1290.5" y="-494.5" font-family="Helvetica,sans-Serif" font-size="10.00">+ TAG_LEVEL</text>
<text text-anchor="start" x="1290.5" y="-483.5" font-family="Helvetica,sans-Serif" font-size="10.00"># $allowFlight</text>
<text text-anchor="start" x="1290.5" y="-472.5" font-family="Helvetica,sans-Serif" font-size="10.00"># $authenticated</text>
<text text-anchor="start" x="1290.5" y="-461.5" font-family="Helvetica,sans-Serif" font-size="10.00"># $autoJump</text>
<text text-anchor="start" x="1290.5" y="-450.5" font-family="Helvetica,sans-Serif" font-size="10.00"># $blockBreakHandler</text>
<text text-anchor="start" x="1290.5" y="-439.5" font-family="Helvetica,sans-Serif" font-size="10.00"># $blockCollision</text>
<text text-anchor="start" x="1290.5" y="-428.5" font-family="Helvetica,sans-Serif" font-size="10.00"># $chunkLoader</text>
<text text-anchor="start" x="1290.5" y="-417.5" font-family="Helvetica,sans-Serif" font-size="10.00"># $chunkSelector</text>
<text text-anchor="start" x="1290.5" y="-406.5" font-family="Helvetica,sans-Serif" font-size="10.00"># $chunksPerTick</text>
<text text-anchor="start" x="1290.5" y="-395.5" font-family="Helvetica,sans-Serif" font-size="10.00"># $chunkTicker</text>
<text text-anchor="start" x="1290.5" y="-384.5" font-family="Helvetica,sans-Serif" font-size="10.00"># $craftingGrid</text>
<text text-anchor="start" x="1290.5" y="-373.5" font-family="Helvetica,sans-Serif" font-size="10.00">and 33 more...</text>
<polyline fill="none" stroke="black" points="1282.5,-366.5 1443.5,-366.5 "/>
<text text-anchor="start" x="1290.5" y="-354.5" font-family="Helvetica,sans-Serif" font-size="10.00">+ __construct()</text>
<text text-anchor="start" x="1290.5" y="-343.5" font-family="Helvetica,sans-Serif" font-size="10.00">+ __destruct()</text>
<text text-anchor="start" x="1290.5" y="-332.5" font-family="Helvetica,sans-Serif" font-size="10.00">+ __debugInfo()</text>
<text text-anchor="start" x="1290.5" y="-321.5" font-family="Helvetica,sans-Serif" font-size="10.00">+ attack()</text>
<text text-anchor="start" x="1290.5" y="-310.5" font-family="Helvetica,sans-Serif" font-size="10.00">+ attackBlock()</text>
<text text-anchor="start" x="1290.5" y="-299.5" font-family="Helvetica,sans-Serif" font-size="10.00">+ attackEntity()</text>
<text text-anchor="start" x="1290.5" y="-288.5" font-family="Helvetica,sans-Serif" font-size="10.00">+ breakBlock()</text>
<text text-anchor="start" x="1290.5" y="-277.5" font-family="Helvetica,sans-Serif" font-size="10.00">+ broadcastAnimation()</text>
<text text-anchor="start" x="1290.5" y="-266.5" font-family="Helvetica,sans-Serif" font-size="10.00">+ broadcastSound()</text>
<text text-anchor="start" x="1290.5" y="-255.5" font-family="Helvetica,sans-Serif" font-size="10.00">+ canBeCollidedWith()</text>
<text text-anchor="start" x="1290.5" y="-244.5" font-family="Helvetica,sans-Serif" font-size="10.00">and 126 more...</text>
<text text-anchor="start" x="1290.5" y="-233.5" font-family="Helvetica,sans-Serif" font-size="10.00">+ isValidUserName()</text>
<text text-anchor="start" x="1290.5" y="-222.5" font-family="Helvetica,sans-Serif" font-size="10.00"># actuallyRespawn()</text>
<text text-anchor="start" x="1290.5" y="-211.5" font-family="Helvetica,sans-Serif" font-size="10.00"># addDefaultWindows()</text>
<text text-anchor="start" x="1290.5" y="-200.5" font-family="Helvetica,sans-Serif" font-size="10.00"># addPermanentInventories()</text>
<text text-anchor="start" x="1290.5" y="-189.5" font-family="Helvetica,sans-Serif" font-size="10.00"># applyPostDamageEffects()</text>
<text text-anchor="start" x="1290.5" y="-178.5" font-family="Helvetica,sans-Serif" font-size="10.00"># calculateFallDamage()</text>
<text text-anchor="start" x="1290.5" y="-167.5" font-family="Helvetica,sans-Serif" font-size="10.00"># checkGroundState()</text>
<text text-anchor="start" x="1290.5" y="-156.5" font-family="Helvetica,sans-Serif" font-size="10.00"># checkItemCooldowns()</text>
<text text-anchor="start" x="1290.5" y="-145.5" font-family="Helvetica,sans-Serif" font-size="10.00"># checkNearEntities()</text>
<text text-anchor="start" x="1290.5" y="-134.5" font-family="Helvetica,sans-Serif" font-size="10.00"># destroyCycles()</text>
<text text-anchor="start" x="1290.5" y="-123.5" font-family="Helvetica,sans-Serif" font-size="10.00"># initEntity()</text>
<text text-anchor="start" x="1290.5" y="-112.5" font-family="Helvetica,sans-Serif" font-size="10.00">and 18 more...</text>
</a>
</g>
</g>
<!-- Node15&#45;&gt;Node16 -->
<g id="edge15" class="edge">
<title>Node15&#45;&gt;Node16</title>
<path fill="none" stroke="midnightblue" d="M1218.05,-664.02C1237.38,-633.96 1256.89,-601.41 1273,-570 1276.2,-563.77 1279.35,-557.39 1282.46,-550.92"/>
<polygon fill="none" stroke="midnightblue" points="1215.1,-662.13 1212.6,-672.43 1220.97,-665.94 1215.1,-662.13"/>
</g>
</g>
</svg>
        <g id="navigator" transform="translate(0 0)" fill="#404254">
                <rect fill="#f2f5e9" fill-opacity="0.5" stroke="#606060" stroke-width=".5" x="0" y="0" width="60" height="60"/>
                <use id="zoomplus" xlink:href="#zoomPlus" x="17" y="9" onmousedown="handleZoom(evt,'in')"/>
                <use id="zoomminus" xlink:href="#zoomMin" x="42" y="9" onmousedown="handleZoom(evt,'out')"/>
                <use id="reset" xlink:href="#resetDef" x="30" y="36" onmousedown="handleReset()"/>
                <g id="arrowUp" xlink:href="#dirArrow" transform="translate(30 24)" onmousedown="handlePan(0,-1)">
                  <use xlink:href="#rim" fill="#404040">
                        <set attributeName="fill" to="#808080" begin="arrowUp.mouseover" end="arrowUp.mouseout"/>
                  </use>
                  <path fill="none" stroke="white" stroke-width="1.5" d="M0,-3.0v7 M-2.5,-0.5L0,-3.0L2.5,-0.5"/>
                </g>
                <g id="arrowRight" xlink:href="#dirArrow" transform="rotate(90) translate(36 -43)" onmousedown="handlePan(1,0)">
                  <use xlink:href="#rim" fill="#404040">
                        <set attributeName="fill" to="#808080" begin="arrowRight.mouseover" end="arrowRight.mouseout"/>
                  </use>
                  <path fill="none" stroke="white" stroke-width="1.5" d="M0,-3.0v7 M-2.5,-0.5L0,-3.0L2.5,-0.5"/>
                </g>
                <g id="arrowDown" xlink:href="#dirArrow" transform="rotate(180) translate(-30 -48)" onmousedown="handlePan(0,1)">
                  <use xlink:href="#rim" fill="#404040">
                        <set attributeName="fill" to="#808080" begin="arrowDown.mouseover" end="arrowDown.mouseout"/>
                  </use>
                  <path fill="none" stroke="white" stroke-width="1.5" d="M0,-3.0v7 M-2.5,-0.5L0,-3.0L2.5,-0.5"/>
                </g>
                <g id="arrowLeft" xlink:href="#dirArrow" transform="rotate(270) translate(-36 17)" onmousedown="handlePan(-1,0)">
                  <use xlink:href="#rim" fill="#404040">
                        <set attributeName="fill" to="#808080" begin="arrowLeft.mouseover" end="arrowLeft.mouseout"/>
                  </use>
                  <path fill="none" stroke="white" stroke-width="1.5" d="M0,-3.0v7 M-2.5,-0.5L0,-3.0L2.5,-0.5"/>
                </g>
        </g>
        <svg viewBox="0 0 15 15" width="100%" height="30px" preserveAspectRatio="xMaxYMin meet">
         <g id="arrow_out" transform="scale(0.3 0.3)">
          <a xlink:href="interfacepocketmine_1_1inventory_1_1_inventory_holder__inherit__graph_org.svg" target="_base">
           <rect id="button" ry="5" rx="5" y="6" x="6" height="38" width="38"
                fill="#f2f5e9" fill-opacity="0.5" stroke="#606060" stroke-width="1.0"/>
           <path id="arrow"
             d="M 11.500037,31.436501 C 11.940474,20.09759 22.043105,11.32322 32.158766,21.979434 L 37.068811,17.246167 C 37.068811,17.246167 37.088388,32 37.088388,32 L 22.160133,31.978069 C 22.160133,31.978069 26.997745,27.140456 26.997745,27.140456 C 18.528582,18.264221 13.291696,25.230495 11.500037,31.436501 z"
             style="fill:#404040;"/>
          </a>
         </g>
        </svg>
</svg>
