<?xml version="1.0" encoding="UTF-8" standalone="no"?>
<!DOCTYPE svg PUBLIC "-//W3C//DTD SVG 1.1//EN"
 "http://www.w3.org/Graphics/SVG/1.1/DTD/svg11.dtd">
<!-- Generated by graphviz version 2.43.0 (0)
 -->
<!-- Title: pocketmine\inventory\InventoryHolder Pages: 1 -->
<svg width="1118pt" height="1085pt"
 viewBox="0.00 0.00 1117.50 1085.00" xmlns="http://www.w3.org/2000/svg" xmlns:xlink="http://www.w3.org/1999/xlink">
<g id="graph0" class="graph" transform="scale(1 1) rotate(0) translate(4 1081)">
<title>pocketmine\inventory\InventoryHolder</title>
<polygon fill="white" stroke="transparent" points="-4,4 -4,-1081 1113.5,-1081 1113.5,4 -4,4"/>
<!-- Node1 -->
<g id="node1" class="node">
<title>Node1</title>
<g id="a_node1"><a xlink:title=" ">
<polygon fill="#bfbfbf" stroke="black" points="491.5,-1008.5 491.5,-1076.5 614.5,-1076.5 614.5,-1008.5 491.5,-1008.5"/>
<text text-anchor="start" x="499.5" y="-1064.5" font-family="Helvetica,sans-Serif" font-size="10.00">pocketmine\inventory</text>
<text text-anchor="middle" x="553" y="-1053.5" font-family="Helvetica,sans-Serif" font-size="10.00">\InventoryHolder</text>
<polyline fill="none" stroke="black" points="491.5,-1046.5 614.5,-1046.5 "/>
<text text-anchor="middle" x="553" y="-1034.5" font-family="Helvetica,sans-Serif" font-size="10.00"> </text>
<polyline fill="none" stroke="black" points="491.5,-1027.5 614.5,-1027.5 "/>
<text text-anchor="start" x="499.5" y="-1015.5" font-family="Helvetica,sans-Serif" font-size="10.00">+ getInventory()</text>
</a>
</g>
</g>
<!-- Node2 -->
<g id="node2" class="node">
<title>Node2</title>
<g id="a_node2"><a xlink:href="../../d3/d26/classpocketmine_1_1block_1_1inventory_1_1_double_chest_inventory.html" target="_top" xlink:title=" ">
<polygon fill="white" stroke="#bfbfbf" points="322,-683.5 322,-894.5 474,-894.5 474,-683.5 322,-683.5"/>
<text text-anchor="start" x="330" y="-882.5" font-family="Helvetica,sans-Serif" font-size="10.00">pocketmine\block\inventory</text>
<text text-anchor="middle" x="398" y="-871.5" font-family="Helvetica,sans-Serif" font-size="10.00">\DoubleChestInventory</text>
<polyline fill="none" stroke="#bfbfbf" points="322,-864.5 474,-864.5 "/>
<text text-anchor="middle" x="398" y="-852.5" font-family="Helvetica,sans-Serif" font-size="10.00"> </text>
<polyline fill="none" stroke="#bfbfbf" points="322,-845.5 474,-845.5 "/>
<text text-anchor="start" x="330" y="-833.5" font-family="Helvetica,sans-Serif" font-size="10.00">+ __construct()</text>
<text text-anchor="start" x="330" y="-822.5" font-family="Helvetica,sans-Serif" font-size="10.00">+ getContents()</text>
<text text-anchor="start" x="330" y="-811.5" font-family="Helvetica,sans-Serif" font-size="10.00">+ getInventory()</text>
<text text-anchor="start" x="330" y="-800.5" font-family="Helvetica,sans-Serif" font-size="10.00">+ getItem()</text>
<text text-anchor="start" x="330" y="-789.5" font-family="Helvetica,sans-Serif" font-size="10.00">+ getLeftSide()</text>
<text text-anchor="start" x="330" y="-778.5" font-family="Helvetica,sans-Serif" font-size="10.00">+ getRightSide()</text>
<text text-anchor="start" x="330" y="-767.5" font-family="Helvetica,sans-Serif" font-size="10.00">+ getSize()</text>
<text text-anchor="start" x="330" y="-756.5" font-family="Helvetica,sans-Serif" font-size="10.00">+ isSlotEmpty()</text>
<text text-anchor="start" x="330" y="-745.5" font-family="Helvetica,sans-Serif" font-size="10.00"># animateBlock()</text>
<text text-anchor="start" x="330" y="-734.5" font-family="Helvetica,sans-Serif" font-size="10.00"># getCloseSound()</text>
<text text-anchor="start" x="330" y="-723.5" font-family="Helvetica,sans-Serif" font-size="10.00"># getMatchingItemCount()</text>
<text text-anchor="start" x="330" y="-712.5" font-family="Helvetica,sans-Serif" font-size="10.00"># getOpenSound()</text>
<text text-anchor="start" x="330" y="-701.5" font-family="Helvetica,sans-Serif" font-size="10.00"># internalSetContents()</text>
<text text-anchor="start" x="330" y="-690.5" font-family="Helvetica,sans-Serif" font-size="10.00"># internalSetItem()</text>
</a>
</g>
</g>
<!-- Node1&#45;&gt;Node2 -->
<g id="edge1" class="edge">
<title>Node1&#45;&gt;Node2</title>
<path fill="none" stroke="midnightblue" d="M507.71,-1001.25C498.88,-992.16 490.15,-982.17 483,-972 466.35,-948.32 451.56,-920.87 439.18,-894.57"/>
<polygon fill="none" stroke="midnightblue" points="505.24,-1003.74 514.78,-1008.34 510.2,-998.79 505.24,-1003.74"/>
</g>
<!-- Node3 -->
<g id="node3" class="node">
<title>Node3</title>
<g id="a_node3"><a xlink:href="../../d9/de1/interfacepocketmine_1_1block_1_1tile_1_1_container.html" target="_top" xlink:title=" ">
<polygon fill="white" stroke="#bfbfbf" points="492,-744 492,-834 614,-834 614,-744 492,-744"/>
<text text-anchor="start" x="500" y="-822" font-family="Helvetica,sans-Serif" font-size="10.00">pocketmine\block\tile</text>
<text text-anchor="middle" x="553" y="-811" font-family="Helvetica,sans-Serif" font-size="10.00">\Container</text>
<polyline fill="none" stroke="#bfbfbf" points="492,-804 614,-804 "/>
<text text-anchor="start" x="500" y="-792" font-family="Helvetica,sans-Serif" font-size="10.00">+ TAG_ITEMS</text>
<text text-anchor="start" x="500" y="-781" font-family="Helvetica,sans-Serif" font-size="10.00">+ TAG_LOCK</text>
<polyline fill="none" stroke="#bfbfbf" points="492,-774 614,-774 "/>
<text text-anchor="start" x="500" y="-762" font-family="Helvetica,sans-Serif" font-size="10.00">+ canOpenWith()</text>
<text text-anchor="start" x="500" y="-751" font-family="Helvetica,sans-Serif" font-size="10.00">+ getRealInventory()</text>
</a>
</g>
</g>
<!-- Node1&#45;&gt;Node3 -->
<g id="edge2" class="edge">
<title>Node1&#45;&gt;Node3</title>
<path fill="none" stroke="midnightblue" d="M553,-998.15C553,-952.32 553,-880.39 553,-834.23"/>
<polygon fill="none" stroke="midnightblue" points="549.5,-998.36 553,-1008.36 556.5,-998.36 549.5,-998.36"/>
</g>
<!-- Node13 -->
<g id="node13" class="node">
<title>Node13</title>
<g id="a_node13"><a xlink:href="../../d4/ddf/classpocketmine_1_1entity_1_1_human.html" target="_top" xlink:title=" ">
<polygon fill="white" stroke="#bfbfbf" points="789.5,-606.5 789.5,-971.5 952.5,-971.5 952.5,-606.5 789.5,-606.5"/>
<text text-anchor="middle" x="871" y="-959.5" font-family="Helvetica,sans-Serif" font-size="10.00">pocketmine\entity\Human</text>
<polyline fill="none" stroke="#bfbfbf" points="789.5,-952.5 952.5,-952.5 "/>
<text text-anchor="start" x="797.5" y="-940.5" font-family="Helvetica,sans-Serif" font-size="10.00"># $enderInventory</text>
<text text-anchor="start" x="797.5" y="-929.5" font-family="Helvetica,sans-Serif" font-size="10.00"># $hungerManager</text>
<text text-anchor="start" x="797.5" y="-918.5" font-family="Helvetica,sans-Serif" font-size="10.00"># $inventory</text>
<text text-anchor="start" x="797.5" y="-907.5" font-family="Helvetica,sans-Serif" font-size="10.00"># $offHandInventory</text>
<text text-anchor="start" x="797.5" y="-896.5" font-family="Helvetica,sans-Serif" font-size="10.00"># $skin</text>
<text text-anchor="start" x="797.5" y="-885.5" font-family="Helvetica,sans-Serif" font-size="10.00"># $uuid</text>
<text text-anchor="start" x="797.5" y="-874.5" font-family="Helvetica,sans-Serif" font-size="10.00"># $xpManager</text>
<text text-anchor="start" x="797.5" y="-863.5" font-family="Helvetica,sans-Serif" font-size="10.00"># $xpSeed</text>
<polyline fill="none" stroke="#bfbfbf" points="789.5,-856.5 952.5,-856.5 "/>
<text text-anchor="start" x="797.5" y="-844.5" font-family="Helvetica,sans-Serif" font-size="10.00">+ __construct()</text>
<text text-anchor="start" x="797.5" y="-833.5" font-family="Helvetica,sans-Serif" font-size="10.00">+ applyDamageModifiers()</text>
<text text-anchor="start" x="797.5" y="-822.5" font-family="Helvetica,sans-Serif" font-size="10.00">+ consumeObject()</text>
<text text-anchor="start" x="797.5" y="-811.5" font-family="Helvetica,sans-Serif" font-size="10.00">+ emote()</text>
<text text-anchor="start" x="797.5" y="-800.5" font-family="Helvetica,sans-Serif" font-size="10.00">+ getDrops()</text>
<text text-anchor="start" x="797.5" y="-789.5" font-family="Helvetica,sans-Serif" font-size="10.00">+ getEnderInventory()</text>
<text text-anchor="start" x="797.5" y="-778.5" font-family="Helvetica,sans-Serif" font-size="10.00">+ getHungerManager()</text>
<text text-anchor="start" x="797.5" y="-767.5" font-family="Helvetica,sans-Serif" font-size="10.00">+ getInventory()</text>
<text text-anchor="start" x="797.5" y="-756.5" font-family="Helvetica,sans-Serif" font-size="10.00">+ getName()</text>
<text text-anchor="start" x="797.5" y="-745.5" font-family="Helvetica,sans-Serif" font-size="10.00">+ getOffHandInventory()</text>
<text text-anchor="start" x="797.5" y="-734.5" font-family="Helvetica,sans-Serif" font-size="10.00">and 10 more...</text>
<text text-anchor="start" x="797.5" y="-723.5" font-family="Helvetica,sans-Serif" font-size="10.00">+ getNetworkTypeId()</text>
<text text-anchor="start" x="797.5" y="-712.5" font-family="Helvetica,sans-Serif" font-size="10.00">+ parseSkinNBT()</text>
<text text-anchor="start" x="797.5" y="-701.5" font-family="Helvetica,sans-Serif" font-size="10.00"># applyConsumptionResults()</text>
<text text-anchor="start" x="797.5" y="-690.5" font-family="Helvetica,sans-Serif" font-size="10.00"># applyPostDamageEffects()</text>
<text text-anchor="start" x="797.5" y="-679.5" font-family="Helvetica,sans-Serif" font-size="10.00"># destroyCycles()</text>
<text text-anchor="start" x="797.5" y="-668.5" font-family="Helvetica,sans-Serif" font-size="10.00"># entityBaseTick()</text>
<text text-anchor="start" x="797.5" y="-657.5" font-family="Helvetica,sans-Serif" font-size="10.00"># getInitialSizeInfo()</text>
<text text-anchor="start" x="797.5" y="-646.5" font-family="Helvetica,sans-Serif" font-size="10.00"># initEntity()</text>
<text text-anchor="start" x="797.5" y="-635.5" font-family="Helvetica,sans-Serif" font-size="10.00"># initHumanData()</text>
<text text-anchor="start" x="797.5" y="-624.5" font-family="Helvetica,sans-Serif" font-size="10.00"># onDispose()</text>
<text text-anchor="start" x="797.5" y="-613.5" font-family="Helvetica,sans-Serif" font-size="10.00"># sendSpawnPacket()</text>
</a>
</g>
</g>
<!-- Node1&#45;&gt;Node13 -->
<g id="edge12" class="edge">
<title>Node1&#45;&gt;Node13</title>
<path fill="none" stroke="midnightblue" d="M602.98,-1001.97C652.94,-962.46 730.59,-901.05 789.47,-854.48"/>
<polygon fill="none" stroke="midnightblue" points="600.57,-999.41 594.9,-1008.36 604.91,-1004.9 600.57,-999.41"/>
</g>
<!-- Node4 -->
<g id="node4" class="node">
<title>Node4</title>
<g id="a_node4"><a xlink:href="../../d4/dcc/classpocketmine_1_1block_1_1tile_1_1_barrel.html" target="_top" xlink:title=" ">
<polygon fill="white" stroke="#bfbfbf" points="0,-270.5 0,-404.5 122,-404.5 122,-270.5 0,-270.5"/>
<text text-anchor="start" x="8" y="-392.5" font-family="Helvetica,sans-Serif" font-size="10.00">pocketmine\block\tile</text>
<text text-anchor="middle" x="61" y="-381.5" font-family="Helvetica,sans-Serif" font-size="10.00">\Barrel</text>
<polyline fill="none" stroke="#bfbfbf" points="0,-374.5 122,-374.5 "/>
<text text-anchor="start" x="8" y="-362.5" font-family="Helvetica,sans-Serif" font-size="10.00"># $inventory</text>
<polyline fill="none" stroke="#bfbfbf" points="0,-355.5 122,-355.5 "/>
<text text-anchor="start" x="8" y="-343.5" font-family="Helvetica,sans-Serif" font-size="10.00">+ __construct()</text>
<text text-anchor="start" x="8" y="-332.5" font-family="Helvetica,sans-Serif" font-size="10.00">+ close()</text>
<text text-anchor="start" x="8" y="-321.5" font-family="Helvetica,sans-Serif" font-size="10.00">+ getDefaultName()</text>
<text text-anchor="start" x="8" y="-310.5" font-family="Helvetica,sans-Serif" font-size="10.00">+ getInventory()</text>
<text text-anchor="start" x="8" y="-299.5" font-family="Helvetica,sans-Serif" font-size="10.00">+ getRealInventory()</text>
<text text-anchor="start" x="8" y="-288.5" font-family="Helvetica,sans-Serif" font-size="10.00">+ readSaveData()</text>
<text text-anchor="start" x="8" y="-277.5" font-family="Helvetica,sans-Serif" font-size="10.00"># writeSaveData()</text>
</a>
</g>
</g>
<!-- Node3&#45;&gt;Node4 -->
<g id="edge3" class="edge">
<title>Node3&#45;&gt;Node4</title>
<path fill="none" stroke="midnightblue" d="M547.29,-733.85C539.83,-692.02 522.63,-636.3 483,-606 358.07,-510.48 252.33,-670.05 131,-570 82.57,-530.07 66.83,-457.82 62.12,-404.63"/>
<polygon fill="none" stroke="midnightblue" points="543.87,-734.6 548.94,-743.89 550.77,-733.46 543.87,-734.6"/>
</g>
<!-- Node5 -->
<g id="node5" class="node">
<title>Node5</title>
<g id="a_node5"><a xlink:href="../../d3/d41/classpocketmine_1_1block_1_1tile_1_1_brewing_stand.html" target="_top" xlink:title=" ">
<polygon fill="white" stroke="#bfbfbf" points="140,-259.5 140,-415.5 298,-415.5 298,-259.5 140,-259.5"/>
<text text-anchor="start" x="148" y="-403.5" font-family="Helvetica,sans-Serif" font-size="10.00">pocketmine\block\tile</text>
<text text-anchor="middle" x="219" y="-392.5" font-family="Helvetica,sans-Serif" font-size="10.00">\BrewingStand</text>
<polyline fill="none" stroke="#bfbfbf" points="140,-385.5 298,-385.5 "/>
<text text-anchor="start" x="148" y="-373.5" font-family="Helvetica,sans-Serif" font-size="10.00">+ BREW_TIME_TICKS</text>
<polyline fill="none" stroke="#bfbfbf" points="140,-366.5 298,-366.5 "/>
<text text-anchor="start" x="148" y="-354.5" font-family="Helvetica,sans-Serif" font-size="10.00">+ __construct()</text>
<text text-anchor="start" x="148" y="-343.5" font-family="Helvetica,sans-Serif" font-size="10.00">+ close()</text>
<text text-anchor="start" x="148" y="-332.5" font-family="Helvetica,sans-Serif" font-size="10.00">+ getDefaultName()</text>
<text text-anchor="start" x="148" y="-321.5" font-family="Helvetica,sans-Serif" font-size="10.00">+ getInventory()</text>
<text text-anchor="start" x="148" y="-310.5" font-family="Helvetica,sans-Serif" font-size="10.00">+ getRealInventory()</text>
<text text-anchor="start" x="148" y="-299.5" font-family="Helvetica,sans-Serif" font-size="10.00">+ onUpdate()</text>
<text text-anchor="start" x="148" y="-288.5" font-family="Helvetica,sans-Serif" font-size="10.00">+ readSaveData()</text>
<text text-anchor="start" x="148" y="-277.5" font-family="Helvetica,sans-Serif" font-size="10.00"># addAdditionalSpawnData()</text>
<text text-anchor="start" x="148" y="-266.5" font-family="Helvetica,sans-Serif" font-size="10.00"># writeSaveData()</text>
</a>
</g>
</g>
<!-- Node3&#45;&gt;Node5 -->
<g id="edge4" class="edge">
<title>Node3&#45;&gt;Node5</title>
<path fill="none" stroke="midnightblue" d="M546.22,-733.73C538.17,-692.62 520.71,-637.94 483,-606 422.07,-554.4 367.83,-621.72 307,-570 261.63,-531.43 239.6,-466.83 228.93,-415.66"/>
<polygon fill="none" stroke="midnightblue" points="542.78,-734.4 548.02,-743.6 549.67,-733.14 542.78,-734.4"/>
</g>
<!-- Node6 -->
<g id="node6" class="node">
<title>Node6</title>
<g id="a_node6"><a xlink:href="../../d9/d64/classpocketmine_1_1block_1_1tile_1_1_chest.html" target="_top" xlink:title=" ">
<polygon fill="white" stroke="#bfbfbf" points="316,-204.5 316,-470.5 474,-470.5 474,-204.5 316,-204.5"/>
<text text-anchor="start" x="324" y="-458.5" font-family="Helvetica,sans-Serif" font-size="10.00">pocketmine\block\tile</text>
<text text-anchor="middle" x="395" y="-447.5" font-family="Helvetica,sans-Serif" font-size="10.00">\Chest</text>
<polyline fill="none" stroke="#bfbfbf" points="316,-440.5 474,-440.5 "/>
<text text-anchor="start" x="324" y="-428.5" font-family="Helvetica,sans-Serif" font-size="10.00">+ TAG_PAIR_LEAD</text>
<text text-anchor="start" x="324" y="-417.5" font-family="Helvetica,sans-Serif" font-size="10.00">+ TAG_PAIRX</text>
<text text-anchor="start" x="324" y="-406.5" font-family="Helvetica,sans-Serif" font-size="10.00">+ TAG_PAIRZ</text>
<text text-anchor="start" x="324" y="-395.5" font-family="Helvetica,sans-Serif" font-size="10.00"># $doubleInventory</text>
<text text-anchor="start" x="324" y="-384.5" font-family="Helvetica,sans-Serif" font-size="10.00"># $inventory</text>
<polyline fill="none" stroke="#bfbfbf" points="316,-377.5 474,-377.5 "/>
<text text-anchor="start" x="324" y="-365.5" font-family="Helvetica,sans-Serif" font-size="10.00">+ __construct()</text>
<text text-anchor="start" x="324" y="-354.5" font-family="Helvetica,sans-Serif" font-size="10.00">+ close()</text>
<text text-anchor="start" x="324" y="-343.5" font-family="Helvetica,sans-Serif" font-size="10.00">+ getCleanedNBT()</text>
<text text-anchor="start" x="324" y="-332.5" font-family="Helvetica,sans-Serif" font-size="10.00">+ getDefaultName()</text>
<text text-anchor="start" x="324" y="-321.5" font-family="Helvetica,sans-Serif" font-size="10.00">+ getInventory()</text>
<text text-anchor="start" x="324" y="-310.5" font-family="Helvetica,sans-Serif" font-size="10.00">+ getPair()</text>
<text text-anchor="start" x="324" y="-299.5" font-family="Helvetica,sans-Serif" font-size="10.00">+ getRealInventory()</text>
<text text-anchor="start" x="324" y="-288.5" font-family="Helvetica,sans-Serif" font-size="10.00">+ isPaired()</text>
<text text-anchor="start" x="324" y="-277.5" font-family="Helvetica,sans-Serif" font-size="10.00">+ pairWith()</text>
<text text-anchor="start" x="324" y="-266.5" font-family="Helvetica,sans-Serif" font-size="10.00">+ readSaveData()</text>
<text text-anchor="start" x="324" y="-255.5" font-family="Helvetica,sans-Serif" font-size="10.00">+ unpair()</text>
<text text-anchor="start" x="324" y="-244.5" font-family="Helvetica,sans-Serif" font-size="10.00"># addAdditionalSpawnData()</text>
<text text-anchor="start" x="324" y="-233.5" font-family="Helvetica,sans-Serif" font-size="10.00"># checkPairing()</text>
<text text-anchor="start" x="324" y="-222.5" font-family="Helvetica,sans-Serif" font-size="10.00"># onBlockDestroyedHook()</text>
<text text-anchor="start" x="324" y="-211.5" font-family="Helvetica,sans-Serif" font-size="10.00"># writeSaveData()</text>
</a>
</g>
</g>
<!-- Node3&#45;&gt;Node6 -->
<g id="edge5" class="edge">
<title>Node3&#45;&gt;Node6</title>
<path fill="none" stroke="midnightblue" d="M534.04,-734.07C511.29,-669.33 472.32,-558.47 441.42,-470.56"/>
<polygon fill="none" stroke="midnightblue" points="530.8,-735.4 537.42,-743.67 537.4,-733.08 530.8,-735.4"/>
</g>
<!-- Node7 -->
<g id="node7" class="node">
<title>Node7</title>
<g id="a_node7"><a xlink:href="../../db/d1f/classpocketmine_1_1block_1_1tile_1_1_furnace.html" target="_top" xlink:title=" ">
<polygon fill="white" stroke="#bfbfbf" points="492,-226.5 492,-448.5 614,-448.5 614,-226.5 492,-226.5"/>
<text text-anchor="start" x="500" y="-436.5" font-family="Helvetica,sans-Serif" font-size="10.00">pocketmine\block\tile</text>
<text text-anchor="middle" x="553" y="-425.5" font-family="Helvetica,sans-Serif" font-size="10.00">\Furnace</text>
<polyline fill="none" stroke="#bfbfbf" points="492,-418.5 614,-418.5 "/>
<text text-anchor="start" x="500" y="-406.5" font-family="Helvetica,sans-Serif" font-size="10.00">+ TAG_BURN_TIME</text>
<text text-anchor="start" x="500" y="-395.5" font-family="Helvetica,sans-Serif" font-size="10.00">+ TAG_COOK_TIME</text>
<text text-anchor="start" x="500" y="-384.5" font-family="Helvetica,sans-Serif" font-size="10.00">+ TAG_MAX_TIME</text>
<text text-anchor="start" x="500" y="-373.5" font-family="Helvetica,sans-Serif" font-size="10.00"># $inventory</text>
<polyline fill="none" stroke="#bfbfbf" points="492,-366.5 614,-366.5 "/>
<text text-anchor="start" x="500" y="-354.5" font-family="Helvetica,sans-Serif" font-size="10.00">+ __construct()</text>
<text text-anchor="start" x="500" y="-343.5" font-family="Helvetica,sans-Serif" font-size="10.00">+ close()</text>
<text text-anchor="start" x="500" y="-332.5" font-family="Helvetica,sans-Serif" font-size="10.00">+ getDefaultName()</text>
<text text-anchor="start" x="500" y="-321.5" font-family="Helvetica,sans-Serif" font-size="10.00">+ getFurnaceType()</text>
<text text-anchor="start" x="500" y="-310.5" font-family="Helvetica,sans-Serif" font-size="10.00">+ getInventory()</text>
<text text-anchor="start" x="500" y="-299.5" font-family="Helvetica,sans-Serif" font-size="10.00">+ getRealInventory()</text>
<text text-anchor="start" x="500" y="-288.5" font-family="Helvetica,sans-Serif" font-size="10.00">+ onUpdate()</text>
<text text-anchor="start" x="500" y="-277.5" font-family="Helvetica,sans-Serif" font-size="10.00">+ readSaveData()</text>
<text text-anchor="start" x="500" y="-266.5" font-family="Helvetica,sans-Serif" font-size="10.00"># checkFuel()</text>
<text text-anchor="start" x="500" y="-255.5" font-family="Helvetica,sans-Serif" font-size="10.00"># onStartSmelting()</text>
<text text-anchor="start" x="500" y="-244.5" font-family="Helvetica,sans-Serif" font-size="10.00"># onStopSmelting()</text>
<text text-anchor="start" x="500" y="-233.5" font-family="Helvetica,sans-Serif" font-size="10.00"># writeSaveData()</text>
</a>
</g>
</g>
<!-- Node3&#45;&gt;Node7 -->
<g id="edge6" class="edge">
<title>Node3&#45;&gt;Node7</title>
<path fill="none" stroke="midnightblue" d="M553,-733.26C553,-662.86 553,-538.91 553,-448.65"/>
<polygon fill="none" stroke="midnightblue" points="549.5,-733.67 553,-743.67 556.5,-733.67 549.5,-733.67"/>
</g>
<!-- Node11 -->
<g id="node11" class="node">
<title>Node11</title>
<g id="a_node11"><a xlink:href="../../d2/d1d/classpocketmine_1_1block_1_1tile_1_1_hopper.html" target="_top" xlink:title=" ">
<polygon fill="white" stroke="#bfbfbf" points="632,-270.5 632,-404.5 754,-404.5 754,-270.5 632,-270.5"/>
<text text-anchor="start" x="640" y="-392.5" font-family="Helvetica,sans-Serif" font-size="10.00">pocketmine\block\tile</text>
<text text-anchor="middle" x="693" y="-381.5" font-family="Helvetica,sans-Serif" font-size="10.00">\Hopper</text>
<polyline fill="none" stroke="#bfbfbf" points="632,-374.5 754,-374.5 "/>
<text text-anchor="middle" x="693" y="-362.5" font-family="Helvetica,sans-Serif" font-size="10.00"> </text>
<polyline fill="none" stroke="#bfbfbf" points="632,-355.5 754,-355.5 "/>
<text text-anchor="start" x="640" y="-343.5" font-family="Helvetica,sans-Serif" font-size="10.00">+ __construct()</text>
<text text-anchor="start" x="640" y="-332.5" font-family="Helvetica,sans-Serif" font-size="10.00">+ close()</text>
<text text-anchor="start" x="640" y="-321.5" font-family="Helvetica,sans-Serif" font-size="10.00">+ getDefaultName()</text>
<text text-anchor="start" x="640" y="-310.5" font-family="Helvetica,sans-Serif" font-size="10.00">+ getInventory()</text>
<text text-anchor="start" x="640" y="-299.5" font-family="Helvetica,sans-Serif" font-size="10.00">+ getRealInventory()</text>
<text text-anchor="start" x="640" y="-288.5" font-family="Helvetica,sans-Serif" font-size="10.00">+ readSaveData()</text>
<text text-anchor="start" x="640" y="-277.5" font-family="Helvetica,sans-Serif" font-size="10.00"># writeSaveData()</text>
</a>
</g>
</g>
<!-- Node3&#45;&gt;Node11 -->
<g id="edge10" class="edge">
<title>Node3&#45;&gt;Node11</title>
<path fill="none" stroke="midnightblue" d="M570.57,-734.17C584.88,-690.1 605.51,-626.1 623,-570 640.34,-514.38 659.44,-451.05 673.31,-404.7"/>
<polygon fill="none" stroke="midnightblue" points="567.2,-733.22 567.43,-743.81 573.85,-735.38 567.2,-733.22"/>
</g>
<!-- Node12 -->
<g id="node12" class="node">
<title>Node12</title>
<g id="a_node12"><a xlink:href="../../dd/dd0/classpocketmine_1_1block_1_1tile_1_1_shulker_box.html" target="_top" xlink:title=" ">
<polygon fill="white" stroke="#bfbfbf" points="772,-226.5 772,-448.5 930,-448.5 930,-226.5 772,-226.5"/>
<text text-anchor="start" x="780" y="-436.5" font-family="Helvetica,sans-Serif" font-size="10.00">pocketmine\block\tile</text>
<text text-anchor="middle" x="851" y="-425.5" font-family="Helvetica,sans-Serif" font-size="10.00">\ShulkerBox</text>
<polyline fill="none" stroke="#bfbfbf" points="772,-418.5 930,-418.5 "/>
<text text-anchor="start" x="780" y="-406.5" font-family="Helvetica,sans-Serif" font-size="10.00">+ TAG_FACING</text>
<text text-anchor="start" x="780" y="-395.5" font-family="Helvetica,sans-Serif" font-size="10.00"># $facing</text>
<text text-anchor="start" x="780" y="-384.5" font-family="Helvetica,sans-Serif" font-size="10.00"># $inventory</text>
<polyline fill="none" stroke="#bfbfbf" points="772,-377.5 930,-377.5 "/>
<text text-anchor="start" x="780" y="-365.5" font-family="Helvetica,sans-Serif" font-size="10.00">+ __construct()</text>
<text text-anchor="start" x="780" y="-354.5" font-family="Helvetica,sans-Serif" font-size="10.00">+ close()</text>
<text text-anchor="start" x="780" y="-343.5" font-family="Helvetica,sans-Serif" font-size="10.00">+ copyDataFromItem()</text>
<text text-anchor="start" x="780" y="-332.5" font-family="Helvetica,sans-Serif" font-size="10.00">+ getCleanedNBT()</text>
<text text-anchor="start" x="780" y="-321.5" font-family="Helvetica,sans-Serif" font-size="10.00">+ getDefaultName()</text>
<text text-anchor="start" x="780" y="-310.5" font-family="Helvetica,sans-Serif" font-size="10.00">+ getFacing()</text>
<text text-anchor="start" x="780" y="-299.5" font-family="Helvetica,sans-Serif" font-size="10.00">+ getInventory()</text>
<text text-anchor="start" x="780" y="-288.5" font-family="Helvetica,sans-Serif" font-size="10.00">+ getRealInventory()</text>
<text text-anchor="start" x="780" y="-277.5" font-family="Helvetica,sans-Serif" font-size="10.00">+ readSaveData()</text>
<text text-anchor="start" x="780" y="-266.5" font-family="Helvetica,sans-Serif" font-size="10.00">+ setFacing()</text>
<text text-anchor="start" x="780" y="-255.5" font-family="Helvetica,sans-Serif" font-size="10.00"># addAdditionalSpawnData()</text>
<text text-anchor="start" x="780" y="-244.5" font-family="Helvetica,sans-Serif" font-size="10.00"># onBlockDestroyedHook()</text>
<text text-anchor="start" x="780" y="-233.5" font-family="Helvetica,sans-Serif" font-size="10.00"># writeSaveData()</text>
</a>
</g>
</g>
<!-- Node3&#45;&gt;Node12 -->
<g id="edge11" class="edge">
<title>Node3&#45;&gt;Node12</title>
<path fill="none" stroke="midnightblue" d="M613.81,-737.23C659.9,-696.09 722.09,-634.54 763,-570 786.54,-532.87 805.31,-488.47 819.37,-448.53"/>
<polygon fill="none" stroke="midnightblue" points="611.43,-734.66 606.27,-743.91 616.07,-739.9 611.43,-734.66"/>
</g>
<!-- Node8 -->
<g id="node8" class="node">
<title>Node8</title>
<g id="a_node8"><a xlink:href="../../dc/dd8/classpocketmine_1_1block_1_1tile_1_1_blast_furnace.html" target="_top" xlink:title=" ">
<polygon fill="white" stroke="#bfbfbf" points="352,-0.5 352,-68.5 474,-68.5 474,-0.5 352,-0.5"/>
<text text-anchor="start" x="360" y="-56.5" font-family="Helvetica,sans-Serif" font-size="10.00">pocketmine\block\tile</text>
<text text-anchor="middle" x="413" y="-45.5" font-family="Helvetica,sans-Serif" font-size="10.00">\BlastFurnace</text>
<polyline fill="none" stroke="#bfbfbf" points="352,-38.5 474,-38.5 "/>
<text text-anchor="middle" x="413" y="-26.5" font-family="Helvetica,sans-Serif" font-size="10.00"> </text>
<polyline fill="none" stroke="#bfbfbf" points="352,-19.5 474,-19.5 "/>
<text text-anchor="start" x="360" y="-7.5" font-family="Helvetica,sans-Serif" font-size="10.00">+ getFurnaceType()</text>
</a>
</g>
</g>
<!-- Node7&#45;&gt;Node8 -->
<g id="edge7" class="edge">
<title>Node7&#45;&gt;Node8</title>
<path fill="none" stroke="midnightblue" d="M528.85,-216.46C518.21,-179.1 503.36,-138.86 483,-105 475.06,-91.79 464.05,-79.28 453.11,-68.61"/>
<polygon fill="none" stroke="midnightblue" points="525.56,-217.7 531.6,-226.4 532.3,-215.83 525.56,-217.7"/>
</g>
<!-- Node9 -->
<g id="node9" class="node">
<title>Node9</title>
<g id="a_node9"><a xlink:href="../../df/d73/classpocketmine_1_1block_1_1tile_1_1_normal_furnace.html" target="_top" xlink:title=" ">
<polygon fill="white" stroke="#bfbfbf" points="492,-0.5 492,-68.5 614,-68.5 614,-0.5 492,-0.5"/>
<text text-anchor="start" x="500" y="-56.5" font-family="Helvetica,sans-Serif" font-size="10.00">pocketmine\block\tile</text>
<text text-anchor="middle" x="553" y="-45.5" font-family="Helvetica,sans-Serif" font-size="10.00">\NormalFurnace</text>
<polyline fill="none" stroke="#bfbfbf" points="492,-38.5 614,-38.5 "/>
<text text-anchor="middle" x="553" y="-26.5" font-family="Helvetica,sans-Serif" font-size="10.00"> </text>
<polyline fill="none" stroke="#bfbfbf" points="492,-19.5 614,-19.5 "/>
<text text-anchor="start" x="500" y="-7.5" font-family="Helvetica,sans-Serif" font-size="10.00">+ getFurnaceType()</text>
</a>
</g>
</g>
<!-- Node7&#45;&gt;Node9 -->
<g id="edge8" class="edge">
<title>Node7&#45;&gt;Node9</title>
<path fill="none" stroke="midnightblue" d="M553,-215.9C553,-162.62 553,-104.14 553,-68.62"/>
<polygon fill="none" stroke="midnightblue" points="549.5,-216.13 553,-226.13 556.5,-216.13 549.5,-216.13"/>
</g>
<!-- Node10 -->
<g id="node10" class="node">
<title>Node10</title>
<g id="a_node10"><a xlink:href="../../db/d5c/classpocketmine_1_1block_1_1tile_1_1_smoker.html" target="_top" xlink:title=" ">
<polygon fill="white" stroke="#bfbfbf" points="632,-0.5 632,-68.5 754,-68.5 754,-0.5 632,-0.5"/>
<text text-anchor="start" x="640" y="-56.5" font-family="Helvetica,sans-Serif" font-size="10.00">pocketmine\block\tile</text>
<text text-anchor="middle" x="693" y="-45.5" font-family="Helvetica,sans-Serif" font-size="10.00">\Smoker</text>
<polyline fill="none" stroke="#bfbfbf" points="632,-38.5 754,-38.5 "/>
<text text-anchor="middle" x="693" y="-26.5" font-family="Helvetica,sans-Serif" font-size="10.00"> </text>
<polyline fill="none" stroke="#bfbfbf" points="632,-19.5 754,-19.5 "/>
<text text-anchor="start" x="640" y="-7.5" font-family="Helvetica,sans-Serif" font-size="10.00">+ getFurnaceType()</text>
</a>
</g>
</g>
<!-- Node7&#45;&gt;Node10 -->
<g id="edge9" class="edge">
<title>Node7&#45;&gt;Node10</title>
<path fill="none" stroke="midnightblue" d="M577.15,-216.46C587.79,-179.1 602.64,-138.86 623,-105 630.94,-91.79 641.95,-79.28 652.89,-68.61"/>
<polygon fill="none" stroke="midnightblue" points="573.7,-215.83 574.4,-226.4 580.44,-217.7 573.7,-215.83"/>
</g>
<!-- Node14 -->
<g id="node14" class="node">
<title>Node14</title>
<g id="a_node14"><a xlink:href="../../d0/d6f/classpocketmine_1_1player_1_1_player.html" target="_top" xlink:title=" ">
<polygon fill="white" stroke="black" points="948.5,-105.5 948.5,-569.5 1109.5,-569.5 1109.5,-105.5 948.5,-105.5"/>
<text text-anchor="middle" x="1029" y="-557.5" font-family="Helvetica,sans-Serif" font-size="10.00">pocketmine\player\Player</text>
<polyline fill="none" stroke="black" points="948.5,-550.5 1109.5,-550.5 "/>
<text text-anchor="start" x="956.5" y="-538.5" font-family="Helvetica,sans-Serif" font-size="10.00">+ $spawned</text>
<text text-anchor="start" x="956.5" y="-527.5" font-family="Helvetica,sans-Serif" font-size="10.00">+ TAG_FIRST_PLAYED</text>
<text text-anchor="start" x="956.5" y="-516.5" font-family="Helvetica,sans-Serif" font-size="10.00">+ TAG_LAST_KNOWN_XUID</text>
<text text-anchor="start" x="956.5" y="-505.5" font-family="Helvetica,sans-Serif" font-size="10.00">+ TAG_LAST_PLAYED</text>
<text text-anchor="start" x="956.5" y="-494.5" font-family="Helvetica,sans-Serif" font-size="10.00">+ TAG_LEVEL</text>
<text text-anchor="start" x="956.5" y="-483.5" font-family="Helvetica,sans-Serif" font-size="10.00"># $allowFlight</text>
<text text-anchor="start" x="956.5" y="-472.5" font-family="Helvetica,sans-Serif" font-size="10.00"># $authenticated</text>
<text text-anchor="start" x="956.5" y="-461.5" font-family="Helvetica,sans-Serif" font-size="10.00"># $autoJump</text>
<text text-anchor="start" x="956.5" y="-450.5" font-family="Helvetica,sans-Serif" font-size="10.00"># $blockBreakHandler</text>
<text text-anchor="start" x="956.5" y="-439.5" font-family="Helvetica,sans-Serif" font-size="10.00"># $blockCollision</text>
<text text-anchor="start" x="956.5" y="-428.5" font-family="Helvetica,sans-Serif" font-size="10.00"># $chunkLoader</text>
<text text-anchor="start" x="956.5" y="-417.5" font-family="Helvetica,sans-Serif" font-size="10.00"># $chunkSelector</text>
<text text-anchor="start" x="956.5" y="-406.5" font-family="Helvetica,sans-Serif" font-size="10.00"># $chunksPerTick</text>
<text text-anchor="start" x="956.5" y="-395.5" font-family="Helvetica,sans-Serif" font-size="10.00"># $chunkTicker</text>
<text text-anchor="start" x="956.5" y="-384.5" font-family="Helvetica,sans-Serif" font-size="10.00"># $craftingGrid</text>
<text text-anchor="start" x="956.5" y="-373.5" font-family="Helvetica,sans-Serif" font-size="10.00">and 32 more...</text>
<polyline fill="none" stroke="black" points="948.5,-366.5 1109.5,-366.5 "/>
<text text-anchor="start" x="956.5" y="-354.5" font-family="Helvetica,sans-Serif" font-size="10.00">+ __construct()</text>
<text text-anchor="start" x="956.5" y="-343.5" font-family="Helvetica,sans-Serif" font-size="10.00">+ __destruct()</text>
<text text-anchor="start" x="956.5" y="-332.5" font-family="Helvetica,sans-Serif" font-size="10.00">+ __debugInfo()</text>
<text text-anchor="start" x="956.5" y="-321.5" font-family="Helvetica,sans-Serif" font-size="10.00">+ attack()</text>
<text text-anchor="start" x="956.5" y="-310.5" font-family="Helvetica,sans-Serif" font-size="10.00">+ attackBlock()</text>
<text text-anchor="start" x="956.5" y="-299.5" font-family="Helvetica,sans-Serif" font-size="10.00">+ attackEntity()</text>
<text text-anchor="start" x="956.5" y="-288.5" font-family="Helvetica,sans-Serif" font-size="10.00">+ breakBlock()</text>
<text text-anchor="start" x="956.5" y="-277.5" font-family="Helvetica,sans-Serif" font-size="10.00">+ broadcastAnimation()</text>
<text text-anchor="start" x="956.5" y="-266.5" font-family="Helvetica,sans-Serif" font-size="10.00">+ broadcastSound()</text>
<text text-anchor="start" x="956.5" y="-255.5" font-family="Helvetica,sans-Serif" font-size="10.00">+ canBeCollidedWith()</text>
<text text-anchor="start" x="956.5" y="-244.5" font-family="Helvetica,sans-Serif" font-size="10.00">and 121 more...</text>
<text text-anchor="start" x="956.5" y="-233.5" font-family="Helvetica,sans-Serif" font-size="10.00">+ isValidUserName()</text>
<text text-anchor="start" x="956.5" y="-222.5" font-family="Helvetica,sans-Serif" font-size="10.00"># actuallyRespawn()</text>
<text text-anchor="start" x="956.5" y="-211.5" font-family="Helvetica,sans-Serif" font-size="10.00"># addDefaultWindows()</text>
<text text-anchor="start" x="956.5" y="-200.5" font-family="Helvetica,sans-Serif" font-size="10.00"># addPermanentInventories()</text>
<text text-anchor="start" x="956.5" y="-189.5" font-family="Helvetica,sans-Serif" font-size="10.00"># applyPostDamageEffects()</text>
<text text-anchor="start" x="956.5" y="-178.5" font-family="Helvetica,sans-Serif" font-size="10.00"># calculateFallDamage()</text>
<text text-anchor="start" x="956.5" y="-167.5" font-family="Helvetica,sans-Serif" font-size="10.00"># checkGroundState()</text>
<text text-anchor="start" x="956.5" y="-156.5" font-family="Helvetica,sans-Serif" font-size="10.00"># checkItemCooldowns()</text>
<text text-anchor="start" x="956.5" y="-145.5" font-family="Helvetica,sans-Serif" font-size="10.00"># checkNearEntities()</text>
<text text-anchor="start" x="956.5" y="-134.5" font-family="Helvetica,sans-Serif" font-size="10.00"># destroyCycles()</text>
<text text-anchor="start" x="956.5" y="-123.5" font-family="Helvetica,sans-Serif" font-size="10.00"># initEntity()</text>
<text text-anchor="start" x="956.5" y="-112.5" font-family="Helvetica,sans-Serif" font-size="10.00">and 18 more...</text>
</a>
</g>
</g>
<!-- Node13&#45;&gt;Node14 -->
<g id="edge13" class="edge">
<title>Node13&#45;&gt;Node14</title>
<path fill="none" stroke="midnightblue" d="M938.19,-596.84C941.59,-587.18 945.01,-577.44 948.44,-567.68"/>
<polygon fill="none" stroke="midnightblue" points="934.82,-595.87 934.81,-606.47 941.43,-598.19 934.82,-595.87"/>
</g>
</g>
</svg>
