<?xml version="1.0" encoding="UTF-8" standalone="no"?>
<!DOCTYPE svg PUBLIC "-//W3C//DTD SVG 1.1//EN"
 "http://www.w3.org/Graphics/SVG/1.1/DTD/svg11.dtd">
<!-- Generated by graphviz version 2.43.0 (0)
 -->
<!-- Title: SimpleLogger\log Pages: 1 -->
<svg width="471pt" height="294pt"
 viewBox="0.00 0.00 471.00 294.00" xmlns="http://www.w3.org/2000/svg" xmlns:xlink="http://www.w3.org/1999/xlink">
<g id="graph0" class="graph" transform="scale(1 1) rotate(0) translate(4 290)">
<title>SimpleLogger\log</title>
<polygon fill="white" stroke="transparent" points="-4,4 -4,-290 467,-290 467,4 -4,4"/>
<!-- Node1 -->
<g id="node1" class="node">
<title>Node1</title>
<g id="a_node1"><a xlink:title=" ">
<polygon fill="#bfbfbf" stroke="black" points="362,-133.5 362,-152.5 463,-152.5 463,-133.5 362,-133.5"/>
<text text-anchor="middle" x="412.5" y="-140.5" font-family="Helvetica,sans-Serif" font-size="10.00">SimpleLogger\log</text>
</a>
</g>
</g>
<!-- Node2 -->
<g id="node2" class="node">
<title>Node2</title>
<g id="a_node2"><a xlink:href="../../d9/df4/class_simple_logger.html#a18c9c3477da9371850189ce16f526702" target="_top" xlink:title=" ">
<polygon fill="white" stroke="black" points="201,-266.5 201,-285.5 310,-285.5 310,-266.5 201,-266.5"/>
<text text-anchor="middle" x="255.5" y="-273.5" font-family="Helvetica,sans-Serif" font-size="10.00">SimpleLogger\alert</text>
</a>
</g>
</g>
<!-- Node1&#45;&gt;Node2 -->
<g id="edge1" class="edge">
<title>Node1&#45;&gt;Node2</title>
<path fill="none" stroke="midnightblue" d="M402.54,-161.64C389.36,-187.08 362.3,-232.32 326,-257 320.31,-260.87 313.86,-263.95 307.23,-266.41"/>
<polygon fill="midnightblue" stroke="midnightblue" points="405.7,-163.16 407.05,-152.65 399.44,-160.02 405.7,-163.16"/>
</g>
<!-- Node3 -->
<g id="node3" class="node">
<title>Node3</title>
<g id="a_node3"><a xlink:href="../../d9/df4/class_simple_logger.html#a025da7129259570211e72094ea4c9944" target="_top" xlink:title=" ">
<polygon fill="white" stroke="black" points="196,-228.5 196,-247.5 315,-247.5 315,-228.5 196,-228.5"/>
<text text-anchor="middle" x="255.5" y="-235.5" font-family="Helvetica,sans-Serif" font-size="10.00">SimpleLogger\critical</text>
</a>
</g>
</g>
<!-- Node1&#45;&gt;Node3 -->
<g id="edge2" class="edge">
<title>Node1&#45;&gt;Node3</title>
<path fill="none" stroke="midnightblue" d="M396.44,-160.43C380.58,-177.73 354.06,-203.79 326,-219 318.96,-222.82 311.1,-225.91 303.26,-228.41"/>
<polygon fill="midnightblue" stroke="midnightblue" points="399.27,-162.52 403.33,-152.73 394.05,-157.85 399.27,-162.52"/>
</g>
<!-- Node5 -->
<g id="node5" class="node">
<title>Node5</title>
<g id="a_node5"><a xlink:href="../../d9/df4/class_simple_logger.html#af481321b150b700b751722731a1100ac" target="_top" xlink:title=" ">
<polygon fill="white" stroke="black" points="197.5,-190.5 197.5,-209.5 313.5,-209.5 313.5,-190.5 197.5,-190.5"/>
<text text-anchor="middle" x="255.5" y="-197.5" font-family="Helvetica,sans-Serif" font-size="10.00">SimpleLogger\debug</text>
</a>
</g>
</g>
<!-- Node1&#45;&gt;Node5 -->
<g id="edge4" class="edge">
<title>Node1&#45;&gt;Node5</title>
<path fill="none" stroke="midnightblue" d="M383.08,-156.93C366.65,-164.66 345.44,-174.07 326,-181 316.22,-184.49 305.48,-187.71 295.42,-190.47"/>
<polygon fill="midnightblue" stroke="midnightblue" points="384.62,-160.07 392.15,-152.61 381.61,-153.75 384.62,-160.07"/>
</g>
<!-- Node6 -->
<g id="node6" class="node">
<title>Node6</title>
<g id="a_node6"><a xlink:href="../../d9/df4/class_simple_logger.html#afd90b06678e950d3df1fa3040ec2e39b" target="_top" xlink:title=" ">
<polygon fill="white" stroke="black" points="185,-152.5 185,-171.5 326,-171.5 326,-152.5 185,-152.5"/>
<text text-anchor="middle" x="255.5" y="-159.5" font-family="Helvetica,sans-Serif" font-size="10.00">SimpleLogger\emergency</text>
</a>
</g>
</g>
<!-- Node1&#45;&gt;Node6 -->
<g id="edge5" class="edge">
<title>Node1&#45;&gt;Node6</title>
<path fill="none" stroke="midnightblue" d="M351.58,-150.34C343.23,-151.37 334.58,-152.43 326.07,-153.47"/>
<polygon fill="midnightblue" stroke="midnightblue" points="352.1,-153.81 361.6,-149.12 351.25,-146.86 352.1,-153.81"/>
</g>
<!-- Node7 -->
<g id="node7" class="node">
<title>Node7</title>
<g id="a_node7"><a xlink:href="../../d9/df4/class_simple_logger.html#a3f97cf8197331c69b234d20739ab1351" target="_top" xlink:title=" ">
<polygon fill="white" stroke="black" points="200.5,-114.5 200.5,-133.5 310.5,-133.5 310.5,-114.5 200.5,-114.5"/>
<text text-anchor="middle" x="255.5" y="-121.5" font-family="Helvetica,sans-Serif" font-size="10.00">SimpleLogger\error</text>
</a>
</g>
</g>
<!-- Node1&#45;&gt;Node7 -->
<g id="edge6" class="edge">
<title>Node1&#45;&gt;Node7</title>
<path fill="none" stroke="midnightblue" d="M351.48,-135.64C338.01,-133.99 323.8,-132.25 310.59,-130.63"/>
<polygon fill="midnightblue" stroke="midnightblue" points="351.25,-139.14 361.6,-136.88 352.1,-132.19 351.25,-139.14"/>
</g>
<!-- Node8 -->
<g id="node8" class="node">
<title>Node8</title>
<g id="a_node8"><a xlink:href="../../d9/df4/class_simple_logger.html#aed7a354e34ecefc1e06093be3b840453" target="_top" xlink:title=" ">
<polygon fill="white" stroke="black" points="203,-76.5 203,-95.5 308,-95.5 308,-76.5 203,-76.5"/>
<text text-anchor="middle" x="255.5" y="-83.5" font-family="Helvetica,sans-Serif" font-size="10.00">SimpleLogger\info</text>
</a>
</g>
</g>
<!-- Node1&#45;&gt;Node8 -->
<g id="edge7" class="edge">
<title>Node1&#45;&gt;Node8</title>
<path fill="none" stroke="midnightblue" d="M383.08,-129.07C366.65,-121.34 345.44,-111.93 326,-105 316.22,-101.51 305.48,-98.29 295.42,-95.53"/>
<polygon fill="midnightblue" stroke="midnightblue" points="381.61,-132.25 392.15,-133.39 384.62,-125.93 381.61,-132.25"/>
</g>
<!-- Node9 -->
<g id="node9" class="node">
<title>Node9</title>
<g id="a_node9"><a xlink:href="../../d9/df4/class_simple_logger.html#a7ac1aa95a08676d825b73abb4ea2d235" target="_top" xlink:title=" ">
<polygon fill="white" stroke="black" points="197.5,-38.5 197.5,-57.5 313.5,-57.5 313.5,-38.5 197.5,-38.5"/>
<text text-anchor="middle" x="255.5" y="-45.5" font-family="Helvetica,sans-Serif" font-size="10.00">SimpleLogger\notice</text>
</a>
</g>
</g>
<!-- Node1&#45;&gt;Node9 -->
<g id="edge8" class="edge">
<title>Node1&#45;&gt;Node9</title>
<path fill="none" stroke="midnightblue" d="M396.44,-125.57C380.58,-108.27 354.06,-82.21 326,-67 318.96,-63.18 311.1,-60.09 303.26,-57.59"/>
<polygon fill="midnightblue" stroke="midnightblue" points="394.05,-128.15 403.33,-133.27 399.27,-123.48 394.05,-128.15"/>
</g>
<!-- Node10 -->
<g id="node10" class="node">
<title>Node10</title>
<g id="a_node10"><a xlink:href="../../d9/df4/class_simple_logger.html#a90d56758056875ee454cc49da1eda0e0" target="_top" xlink:title=" ">
<polygon fill="white" stroke="black" points="193,-0.5 193,-19.5 318,-19.5 318,-0.5 193,-0.5"/>
<text text-anchor="middle" x="255.5" y="-7.5" font-family="Helvetica,sans-Serif" font-size="10.00">SimpleLogger\warning</text>
</a>
</g>
</g>
<!-- Node1&#45;&gt;Node10 -->
<g id="edge9" class="edge">
<title>Node1&#45;&gt;Node10</title>
<path fill="none" stroke="midnightblue" d="M402.54,-124.36C389.36,-98.92 362.3,-53.68 326,-29 320.31,-25.13 313.86,-22.05 307.23,-19.59"/>
<polygon fill="midnightblue" stroke="midnightblue" points="399.44,-125.98 407.05,-133.35 405.7,-122.84 399.44,-125.98"/>
</g>
<!-- Node4 -->
<g id="node4" class="node">
<title>Node4</title>
<g id="a_node4"><a xlink:href="../../d9/df4/class_simple_logger.html#ab89ae4454c3912980ace2d01fdf9b102" target="_top" xlink:title=" ">
<polygon fill="white" stroke="black" points="0,-228.5 0,-247.5 149,-247.5 149,-228.5 0,-228.5"/>
<text text-anchor="middle" x="74.5" y="-235.5" font-family="Helvetica,sans-Serif" font-size="10.00">SimpleLogger\logException</text>
</a>
</g>
</g>
<!-- Node3&#45;&gt;Node4 -->
<g id="edge3" class="edge">
<title>Node3&#45;&gt;Node4</title>
<path fill="none" stroke="midnightblue" d="M185.59,-238C173.7,-238 161.3,-238 149.28,-238"/>
<polygon fill="midnightblue" stroke="midnightblue" points="185.89,-241.5 195.89,-238 185.89,-234.5 185.89,-241.5"/>
</g>
</g>
</svg>
