<?xml version="1.0" encoding="UTF-8" standalone="no"?>
<!DOCTYPE svg PUBLIC "-//W3C//DTD SVG 1.1//EN"
 "http://www.w3.org/Graphics/SVG/1.1/DTD/svg11.dtd">
<!-- Generated by graphviz version 2.43.0 (0)
 -->
<!-- Title: pocketmine\block\Thin\readStateFromWorld Pages: 1 -->
<svg width="489pt" height="161pt"
 viewBox="0.00 0.00 489.00 161.00" xmlns="http://www.w3.org/2000/svg" xmlns:xlink="http://www.w3.org/1999/xlink">
<g id="graph0" class="graph" transform="scale(1 1) rotate(0) translate(4 157)">
<title>pocketmine\block\Thin\readStateFromWorld</title>
<polygon fill="white" stroke="transparent" points="-4,4 -4,-157 485,-157 485,4 -4,4"/>
<!-- Node1 -->
<g id="node1" class="node">
<title>Node1</title>
<g id="a_node1"><a xlink:title=" ">
<polygon fill="#bfbfbf" stroke="black" points="0,-49.5 0,-79.5 127,-79.5 127,-49.5 0,-49.5"/>
<text text-anchor="start" x="8" y="-67.5" font-family="Helvetica,sans-Serif" font-size="10.00">pocketmine\block\Thin</text>
<text text-anchor="middle" x="63.5" y="-56.5" font-family="Helvetica,sans-Serif" font-size="10.00">\readStateFromWorld</text>
</a>
</g>
</g>
<!-- Node2 -->
<g id="node2" class="node">
<title>Node2</title>
<g id="a_node2"><a xlink:href="../../d7/d27/classpocketmine_1_1block_1_1_block.html#a6f13ff76dad934b1b2e078a5b57dd7a5" target="_top" xlink:title=" ">
<polygon fill="white" stroke="black" points="164.5,-98.5 164.5,-128.5 297.5,-128.5 297.5,-98.5 164.5,-98.5"/>
<text text-anchor="start" x="172.5" y="-116.5" font-family="Helvetica,sans-Serif" font-size="10.00">pocketmine\block\Block</text>
<text text-anchor="middle" x="231" y="-105.5" font-family="Helvetica,sans-Serif" font-size="10.00">\getSide</text>
</a>
</g>
</g>
<!-- Node1&#45;&gt;Node2 -->
<g id="edge1" class="edge">
<title>Node1&#45;&gt;Node2</title>
<path fill="none" stroke="midnightblue" d="M115.51,-79.6C132.57,-84.66 151.77,-90.34 169.49,-95.58"/>
<polygon fill="midnightblue" stroke="midnightblue" points="168.58,-98.97 179.16,-98.45 170.57,-92.25 168.58,-98.97"/>
</g>
<!-- Node5 -->
<g id="node5" class="node">
<title>Node5</title>
<g id="a_node5"><a xlink:href="../../d0/d73/classpocketmine_1_1block_1_1_wall.html#a35e81a2b9fecf82a57e51f53cd6b4069" target="_top" xlink:title=" ">
<polygon fill="white" stroke="black" points="167.5,-49.5 167.5,-79.5 294.5,-79.5 294.5,-49.5 167.5,-49.5"/>
<text text-anchor="start" x="175.5" y="-67.5" font-family="Helvetica,sans-Serif" font-size="10.00">pocketmine\block\Wall</text>
<text text-anchor="middle" x="231" y="-56.5" font-family="Helvetica,sans-Serif" font-size="10.00">\getSupportType</text>
</a>
</g>
</g>
<!-- Node1&#45;&gt;Node5 -->
<g id="edge4" class="edge">
<title>Node1&#45;&gt;Node5</title>
<path fill="none" stroke="midnightblue" d="M127.07,-64.5C136.95,-64.5 147.25,-64.5 157.34,-64.5"/>
<polygon fill="midnightblue" stroke="midnightblue" points="157.34,-68 167.34,-64.5 157.34,-61 157.34,-68"/>
</g>
<!-- Node6 -->
<g id="node6" class="node">
<title>Node6</title>
<g id="a_node6"><a xlink:href="../../dd/d25/classpocketmine_1_1math_1_1_facing.html#adb0c50bed6e2a948367c7c9ca6b0831d" target="_top" xlink:title=" ">
<polygon fill="white" stroke="black" points="163,-0.5 163,-30.5 299,-30.5 299,-0.5 163,-0.5"/>
<text text-anchor="start" x="171" y="-18.5" font-family="Helvetica,sans-Serif" font-size="10.00">pocketmine\math\Facing</text>
<text text-anchor="middle" x="231" y="-7.5" font-family="Helvetica,sans-Serif" font-size="10.00">\opposite</text>
</a>
</g>
</g>
<!-- Node1&#45;&gt;Node6 -->
<g id="edge5" class="edge">
<title>Node1&#45;&gt;Node6</title>
<path fill="none" stroke="midnightblue" d="M115.51,-49.4C132.57,-44.34 151.77,-38.66 169.49,-33.42"/>
<polygon fill="midnightblue" stroke="midnightblue" points="170.57,-36.75 179.16,-30.55 168.58,-30.03 170.57,-36.75"/>
</g>
<!-- Node3 -->
<g id="node3" class="node">
<title>Node3</title>
<g id="a_node3"><a xlink:href="../../d5/dd2/classpocketmine_1_1world_1_1_position.html#a298ffd1f76195d1c6aabf0eabdaa91a3" target="_top" xlink:title=" ">
<polygon fill="white" stroke="black" points="335,-122.5 335,-152.5 481,-152.5 481,-122.5 335,-122.5"/>
<text text-anchor="start" x="343" y="-140.5" font-family="Helvetica,sans-Serif" font-size="10.00">pocketmine\world\Position</text>
<text text-anchor="middle" x="408" y="-129.5" font-family="Helvetica,sans-Serif" font-size="10.00">\getWorld</text>
</a>
</g>
</g>
<!-- Node2&#45;&gt;Node3 -->
<g id="edge2" class="edge">
<title>Node2&#45;&gt;Node3</title>
<path fill="none" stroke="midnightblue" d="M297.66,-122.5C306.47,-123.71 315.59,-124.96 324.64,-126.21"/>
<polygon fill="midnightblue" stroke="midnightblue" points="324.43,-129.71 334.81,-127.6 325.38,-122.77 324.43,-129.71"/>
</g>
<!-- Node4 -->
<g id="node4" class="node">
<title>Node4</title>
<g id="a_node4"><a xlink:href="../../d5/dd2/classpocketmine_1_1world_1_1_position.html#a29b73bde9e41b39346aad70456e33f4c" target="_top" xlink:title=" ">
<polygon fill="white" stroke="black" points="335,-73.5 335,-103.5 481,-103.5 481,-73.5 335,-73.5"/>
<text text-anchor="start" x="343" y="-91.5" font-family="Helvetica,sans-Serif" font-size="10.00">pocketmine\world\Position</text>
<text text-anchor="middle" x="408" y="-80.5" font-family="Helvetica,sans-Serif" font-size="10.00">\isValid</text>
</a>
</g>
</g>
<!-- Node2&#45;&gt;Node4 -->
<g id="edge3" class="edge">
<title>Node2&#45;&gt;Node4</title>
<path fill="none" stroke="midnightblue" d="M297.66,-104.12C306.47,-102.86 315.59,-101.56 324.64,-100.27"/>
<polygon fill="midnightblue" stroke="midnightblue" points="325.4,-103.69 334.81,-98.81 324.41,-96.76 325.4,-103.69"/>
</g>
</g>
</svg>
