<?xml version="1.0" encoding="UTF-8" standalone="no"?>
<!DOCTYPE svg PUBLIC "-//W3C//DTD SVG 1.1//EN"
 "http://www.w3.org/Graphics/SVG/1.1/DTD/svg11.dtd">
<!-- Generated by graphviz version 2.43.0 (0)
 -->
<!-- Title: pocketmine\network\AdvancedNetworkInterface Pages: 1 -->
<svg width="344pt" height="515pt"
 viewBox="0.00 0.00 343.50 515.00" xmlns="http://www.w3.org/2000/svg" xmlns:xlink="http://www.w3.org/1999/xlink">
<g id="graph0" class="graph" transform="scale(1 1) rotate(0) translate(4 511)">
<title>pocketmine\network\AdvancedNetworkInterface</title>
<!-- Node1 -->
<g id="Node000001" class="node">
<title>Node1</title>
<g id="a_Node000001"><a xlink:title=" ">
<polygon fill="#999999" stroke="transparent" points="237.5,-366 91.5,-366 91.5,-246 237.5,-246 237.5,-366"/>
<text text-anchor="start" x="96.5" y="-354" font-family="Helvetica,sans-Serif" font-size="10.00">pocketmine\network</text>
<text text-anchor="start" x="96.5" y="-343" font-family="Helvetica,sans-Serif" font-size="10.00">\AdvancedNetworkInterface</text>
<text text-anchor="start" x="162.5" y="-328" font-family="Helvetica,sans-Serif" font-size="10.00"> </text>
<text text-anchor="start" x="101" y="-313" font-family="Helvetica,sans-Serif" font-size="10.00">+</text>
<text text-anchor="start" x="119.5" y="-313" font-family="Helvetica,sans-Serif" font-size="10.00">addRawPacketFilter()</text>
<text text-anchor="start" x="101" y="-298" font-family="Helvetica,sans-Serif" font-size="10.00">+</text>
<text text-anchor="start" x="119.5" y="-298" font-family="Helvetica,sans-Serif" font-size="10.00">blockAddress()</text>
<text text-anchor="start" x="101" y="-283" font-family="Helvetica,sans-Serif" font-size="10.00">+</text>
<text text-anchor="start" x="119.5" y="-283" font-family="Helvetica,sans-Serif" font-size="10.00">sendRawPacket()</text>
<text text-anchor="start" x="101" y="-268" font-family="Helvetica,sans-Serif" font-size="10.00">+</text>
<text text-anchor="start" x="119.5" y="-268" font-family="Helvetica,sans-Serif" font-size="10.00">setNetwork()</text>
<text text-anchor="start" x="101" y="-253" font-family="Helvetica,sans-Serif" font-size="10.00">+</text>
<text text-anchor="start" x="119.5" y="-253" font-family="Helvetica,sans-Serif" font-size="10.00">unblockAddress()</text>
<polygon fill="#666666" stroke="#666666" points="91.5,-338 91.5,-338 237.5,-338 237.5,-338 91.5,-338"/>
<polygon fill="#666666" stroke="#666666" points="91.5,-323 91.5,-323 237.5,-323 237.5,-323 91.5,-323"/>
<polygon fill="none" stroke="#666666" points="91.5,-246 91.5,-366 237.5,-366 237.5,-246 91.5,-246"/>
</a>
</g>
</g>
<!-- Node3 -->
<g id="Node000003" class="node">
<title>Node3</title>
<g id="a_Node000003"><a xlink:href="../../d9/dc4/classpocketmine_1_1network_1_1mcpe_1_1raklib_1_1_rak_lib_interface.html" target="_top" xlink:title=" ">
<polygon fill="white" stroke="transparent" points="153,-210 0,-210 0,0 153,0 153,-210"/>
<text text-anchor="start" x="6.5" y="-198" font-family="Helvetica,sans-Serif" font-size="10.00">pocketmine\network</text>
<text text-anchor="start" x="6.5" y="-187" font-family="Helvetica,sans-Serif" font-size="10.00">\mcpe\raklib\RakLibInterface</text>
<text text-anchor="start" x="75" y="-172" font-family="Helvetica,sans-Serif" font-size="10.00"> </text>
<text text-anchor="start" x="4.5" y="-157" font-family="Helvetica,sans-Serif" font-size="10.00">+</text>
<text text-anchor="start" x="17.5" y="-157" font-family="Helvetica,sans-Serif" font-size="10.00">__construct()</text>
<text text-anchor="start" x="4.5" y="-142" font-family="Helvetica,sans-Serif" font-size="10.00">+</text>
<text text-anchor="start" x="17.5" y="-142" font-family="Helvetica,sans-Serif" font-size="10.00">addRawPacketFilter()</text>
<text text-anchor="start" x="4.5" y="-127" font-family="Helvetica,sans-Serif" font-size="10.00">+</text>
<text text-anchor="start" x="17.5" y="-127" font-family="Helvetica,sans-Serif" font-size="10.00">blockAddress()</text>
<text text-anchor="start" x="4.5" y="-112" font-family="Helvetica,sans-Serif" font-size="10.00">+</text>
<text text-anchor="start" x="17.5" y="-112" font-family="Helvetica,sans-Serif" font-size="10.00">close()</text>
<text text-anchor="start" x="4.5" y="-97" font-family="Helvetica,sans-Serif" font-size="10.00">+</text>
<text text-anchor="start" x="17.5" y="-97" font-family="Helvetica,sans-Serif" font-size="10.00">onBandwidthStatsUpdate()</text>
<text text-anchor="start" x="4.5" y="-82" font-family="Helvetica,sans-Serif" font-size="10.00">+</text>
<text text-anchor="start" x="17.5" y="-82" font-family="Helvetica,sans-Serif" font-size="10.00">onClientConnect()</text>
<text text-anchor="start" x="4.5" y="-67" font-family="Helvetica,sans-Serif" font-size="10.00">+</text>
<text text-anchor="start" x="17.5" y="-67" font-family="Helvetica,sans-Serif" font-size="10.00">onClientDisconnect()</text>
<text text-anchor="start" x="4.5" y="-52" font-family="Helvetica,sans-Serif" font-size="10.00">+</text>
<text text-anchor="start" x="17.5" y="-52" font-family="Helvetica,sans-Serif" font-size="10.00">onPacketAck()</text>
<text text-anchor="start" x="4.5" y="-37" font-family="Helvetica,sans-Serif" font-size="10.00">+</text>
<text text-anchor="start" x="17.5" y="-37" font-family="Helvetica,sans-Serif" font-size="10.00">onPacketReceive()</text>
<text text-anchor="start" x="4.5" y="-22" font-family="Helvetica,sans-Serif" font-size="10.00">+</text>
<text text-anchor="start" x="17.5" y="-22" font-family="Helvetica,sans-Serif" font-size="10.00">onPingMeasure()</text>
<text text-anchor="start" x="17.5" y="-7" font-family="Helvetica,sans-Serif" font-size="10.00">and 11 more...</text>
<polygon fill="#bfbfbf" stroke="#bfbfbf" points="0.5,-182 0.5,-182 153.5,-182 153.5,-182 0.5,-182"/>
<polygon fill="#bfbfbf" stroke="#bfbfbf" points="0.5,-167 0.5,-167 153.5,-167 153.5,-167 0.5,-167"/>
<polygon fill="none" stroke="#bfbfbf" points="0,0 0,-210 153,-210 153,0 0,0"/>
</a>
</g>
</g>
<!-- Node1&#45;&gt;Node3 -->
<g id="edge2_Node000001_Node000003" class="edge">
<title>Node1&#45;&gt;Node3</title>
<g id="a_edge2_Node000001_Node000003"><a xlink:title=" ">
<path fill="none" stroke="#63b8ff" d="M134.27,-236.63C130.45,-228.01 126.49,-219.04 122.5,-210.03"/>
<polygon fill="none" stroke="#63b8ff" points="131.09,-238.1 138.34,-245.83 137.49,-235.27 131.09,-238.1"/>
</a>
</g>
</g>
<!-- Node4 -->
<g id="Node000004" class="node">
<title>Node4</title>
<g id="a_Node000004"><a xlink:href="../../d8/d3c/classpocketmine_1_1network_1_1query_1_1_dedicated_query_network_interface.html" target="_top" xlink:title=" ">
<polygon fill="white" stroke="transparent" points="335.5,-208 171.5,-208 171.5,-2 335.5,-2 335.5,-208"/>
<text text-anchor="start" x="176.5" y="-196" font-family="Helvetica,sans-Serif" font-size="10.00">pocketmine\network</text>
<text text-anchor="start" x="176.5" y="-185" font-family="Helvetica,sans-Serif" font-size="10.00">\query\DedicatedQueryNetwork</text>
<text text-anchor="start" x="231.5" y="-174" font-family="Helvetica,sans-Serif" font-size="10.00">Interface</text>
<text text-anchor="start" x="251.5" y="-159" font-family="Helvetica,sans-Serif" font-size="10.00"> </text>
<text text-anchor="start" x="185.5" y="-144" font-family="Helvetica,sans-Serif" font-size="10.00">+</text>
<text text-anchor="start" x="208.5" y="-144" font-family="Helvetica,sans-Serif" font-size="10.00">__construct()</text>
<text text-anchor="start" x="185.5" y="-129" font-family="Helvetica,sans-Serif" font-size="10.00">+</text>
<text text-anchor="start" x="208.5" y="-129" font-family="Helvetica,sans-Serif" font-size="10.00">addRawPacketFilter()</text>
<text text-anchor="start" x="185.5" y="-114" font-family="Helvetica,sans-Serif" font-size="10.00">+</text>
<text text-anchor="start" x="208.5" y="-114" font-family="Helvetica,sans-Serif" font-size="10.00">blockAddress()</text>
<text text-anchor="start" x="185.5" y="-99" font-family="Helvetica,sans-Serif" font-size="10.00">+</text>
<text text-anchor="start" x="208.5" y="-99" font-family="Helvetica,sans-Serif" font-size="10.00">sendRawPacket()</text>
<text text-anchor="start" x="185.5" y="-84" font-family="Helvetica,sans-Serif" font-size="10.00">+</text>
<text text-anchor="start" x="208.5" y="-84" font-family="Helvetica,sans-Serif" font-size="10.00">setName()</text>
<text text-anchor="start" x="185.5" y="-69" font-family="Helvetica,sans-Serif" font-size="10.00">+</text>
<text text-anchor="start" x="208.5" y="-69" font-family="Helvetica,sans-Serif" font-size="10.00">setNetwork()</text>
<text text-anchor="start" x="185.5" y="-54" font-family="Helvetica,sans-Serif" font-size="10.00">+</text>
<text text-anchor="start" x="208.5" y="-54" font-family="Helvetica,sans-Serif" font-size="10.00">shutdown()</text>
<text text-anchor="start" x="185.5" y="-39" font-family="Helvetica,sans-Serif" font-size="10.00">+</text>
<text text-anchor="start" x="208.5" y="-39" font-family="Helvetica,sans-Serif" font-size="10.00">start()</text>
<text text-anchor="start" x="185.5" y="-24" font-family="Helvetica,sans-Serif" font-size="10.00">+</text>
<text text-anchor="start" x="208.5" y="-24" font-family="Helvetica,sans-Serif" font-size="10.00">tick()</text>
<text text-anchor="start" x="185.5" y="-9" font-family="Helvetica,sans-Serif" font-size="10.00">+</text>
<text text-anchor="start" x="208.5" y="-9" font-family="Helvetica,sans-Serif" font-size="10.00">unblockAddress()</text>
<polygon fill="#666666" stroke="#666666" points="171.5,-169 171.5,-169 335.5,-169 335.5,-169 171.5,-169"/>
<polygon fill="#666666" stroke="#666666" points="171.5,-154 171.5,-154 335.5,-154 335.5,-154 171.5,-154"/>
<polygon fill="none" stroke="#666666" points="171.5,-2 171.5,-208 335.5,-208 335.5,-2 171.5,-2"/>
</a>
</g>
</g>
<!-- Node1&#45;&gt;Node4 -->
<g id="edge3_Node000001_Node000004" class="edge">
<title>Node1&#45;&gt;Node4</title>
<g id="a_edge3_Node000001_Node000004"><a xlink:title=" ">
<path fill="none" stroke="#63b8ff" d="M195.16,-236.45C199.25,-227.29 203.52,-217.75 207.81,-208.17"/>
<polygon fill="none" stroke="#63b8ff" points="191.85,-235.27 190.96,-245.83 198.24,-238.13 191.85,-235.27"/>
</a>
</g>
</g>
<!-- Node2 -->
<g id="Node000002" class="node">
<title>Node2</title>
<g id="a_Node000002"><a xlink:href="../../db/d95/interfacepocketmine_1_1network_1_1_network_interface.html" target="_top" xlink:title=" ">
<polygon fill="white" stroke="transparent" points="219.5,-507 109.5,-507 109.5,-402 219.5,-402 219.5,-507"/>
<text text-anchor="start" x="114.5" y="-494.5" font-family="Helvetica,sans-Serif" font-size="10.00">pocketmine\network</text>
<text text-anchor="start" x="120.5" y="-483.5" font-family="Helvetica,sans-Serif" font-size="10.00">\NetworkInterface</text>
<text text-anchor="start" x="162.5" y="-468.5" font-family="Helvetica,sans-Serif" font-size="10.00"> </text>
<text text-anchor="start" x="122" y="-453.5" font-family="Helvetica,sans-Serif" font-size="10.00">+</text>
<text text-anchor="start" x="143.5" y="-453.5" font-family="Helvetica,sans-Serif" font-size="10.00">setName()</text>
<text text-anchor="start" x="122" y="-438.5" font-family="Helvetica,sans-Serif" font-size="10.00">+</text>
<text text-anchor="start" x="143.5" y="-438.5" font-family="Helvetica,sans-Serif" font-size="10.00">shutdown()</text>
<text text-anchor="start" x="122" y="-423.5" font-family="Helvetica,sans-Serif" font-size="10.00">+</text>
<text text-anchor="start" x="143.5" y="-423.5" font-family="Helvetica,sans-Serif" font-size="10.00">start()</text>
<text text-anchor="start" x="122" y="-408.5" font-family="Helvetica,sans-Serif" font-size="10.00">+</text>
<text text-anchor="start" x="143.5" y="-408.5" font-family="Helvetica,sans-Serif" font-size="10.00">tick()</text>
<polygon fill="#666666" stroke="#666666" points="109.5,-478.5 109.5,-478.5 219.5,-478.5 219.5,-478.5 109.5,-478.5"/>
<polygon fill="#666666" stroke="#666666" points="109.5,-463.5 109.5,-463.5 219.5,-463.5 219.5,-463.5 109.5,-463.5"/>
<polygon fill="none" stroke="#666666" points="109.5,-402 109.5,-507 219.5,-507 219.5,-402 109.5,-402"/>
</a>
</g>
</g>
<!-- Node2&#45;&gt;Node1 -->
<g id="edge1_Node000001_Node000002" class="edge">
<title>Node2&#45;&gt;Node1</title>
<g id="a_edge1_Node000001_Node000002"><a xlink:title=" ">
<path fill="none" stroke="#63b8ff" d="M164.5,-391.68C164.5,-383.24 164.5,-374.58 164.5,-366.19"/>
<polygon fill="none" stroke="#63b8ff" points="161,-391.85 164.5,-401.85 168,-391.85 161,-391.85"/>
</a>
</g>
</g>
</g>
</svg>
