<?xml version="1.0" encoding="UTF-8" standalone="no"?>
<!DOCTYPE svg PUBLIC "-//W3C//DTD SVG 1.1//EN"
 "http://www.w3.org/Graphics/SVG/1.1/DTD/svg11.dtd">
<!-- Generated by graphviz version 2.43.0 (0)
 -->
<!-- Title: pocketmine\network\mcpe\protocol\types\inventory\TransactionData Pages: 1 -->
<!--zoomable 424 -->
<svg id="main" version="1.1" xmlns="http://www.w3.org/2000/svg" xmlns:xlink="http://www.w3.org/1999/xlink" xml:space="preserve" onload="init(evt)">
<style type="text/css"><![CDATA[
.edge:hover path { stroke: red; }
.edge:hover polygon { stroke: red; fill: red; }
]]></style>
<script type="text/javascript"><![CDATA[
var edges = document.getElementsByTagName('g');
if (edges && edges.length) {
  for (var i=0;i<edges.length;i++) {
    if (edges[i].id.substr(0,4)=='edge') {
      edges[i].setAttribute('class','edge');
    }
  }
}
]]></script>
        <defs>
                <circle id="rim" cx="0" cy="0" r="7"/>
                <circle id="rim2" cx="0" cy="0" r="3.5"/>
                <g id="zoomPlus">
                        <use xlink:href="#rim" fill="#404040">
                                <set attributeName="fill" to="#808080" begin="zoomplus.mouseover" end="zoomplus.mouseout"/>
                        </use>
                        <path d="M-4,0h8M0,-4v8" fill="none" stroke="white" stroke-width="1.5" pointer-events="none"/>
                </g>
                <g id="zoomMin">
                        <use xlink:href="#rim" fill="#404040">
                                <set attributeName="fill" to="#808080" begin="zoomminus.mouseover" end="zoomminus.mouseout"/>
                        </use>
                        <path d="M-4,0h8" fill="none" stroke="white" stroke-width="1.5" pointer-events="none"/>
                </g>
                <g id="dirArrow">
                        <path fill="none" stroke="white" stroke-width="1.5" d="M0,-3.0v7 M-2.5,-0.5L0,-3.0L2.5,-0.5"/>
                </g>
               <g id="resetDef">
                       <use xlink:href="#rim2" fill="#404040">
                               <set attributeName="fill" to="#808080" begin="reset.mouseover" end="reset.mouseout"/>
                       </use>
               </g>
        </defs>

<script type="text/javascript">
var viewWidth = 1090;
var viewHeight = 424;
var sectionId = 'dynsection-0';
</script>
<script xlink:href="../../svgpan.js"/>
<svg id="graph" class="graph">
<g id="viewport">
<title>pocketmine\network\mcpe\protocol\types\inventory\TransactionData</title>
<polygon fill="white" stroke="transparent" points="-4,4 -4,-420 1085.5,-420 1085.5,4 -4,4"/>
<!-- Node1 -->
<g id="node1" class="node">
<title>Node1</title>
<g id="a_node1"><a xlink:title=" ">
<polygon fill="#bfbfbf" stroke="black" points="447,-281.5 447,-415.5 595,-415.5 595,-281.5 447,-281.5"/>
<text text-anchor="start" x="455" y="-403.5" font-family="Helvetica,sans-Serif" font-size="10.00">pocketmine\network</text>
<text text-anchor="start" x="455" y="-392.5" font-family="Helvetica,sans-Serif" font-size="10.00">\mcpe\protocol\types</text>
<text text-anchor="middle" x="521" y="-381.5" font-family="Helvetica,sans-Serif" font-size="10.00">\inventory\TransactionData</text>
<polyline fill="none" stroke="black" points="447,-374.5 595,-374.5 "/>
<text text-anchor="start" x="455" y="-362.5" font-family="Helvetica,sans-Serif" font-size="10.00"># $actions</text>
<polyline fill="none" stroke="black" points="447,-355.5 595,-355.5 "/>
<text text-anchor="start" x="455" y="-343.5" font-family="Helvetica,sans-Serif" font-size="10.00">+ decode()</text>
<text text-anchor="start" x="455" y="-332.5" font-family="Helvetica,sans-Serif" font-size="10.00">+ encode()</text>
<text text-anchor="start" x="455" y="-321.5" font-family="Helvetica,sans-Serif" font-size="10.00">+ getActions()</text>
<text text-anchor="start" x="455" y="-310.5" font-family="Helvetica,sans-Serif" font-size="10.00">+ getTypeId()</text>
<text text-anchor="start" x="455" y="-299.5" font-family="Helvetica,sans-Serif" font-size="10.00"># decodeData()</text>
<text text-anchor="start" x="455" y="-288.5" font-family="Helvetica,sans-Serif" font-size="10.00"># encodeData()</text>
</a>
</g>
</g>
<!-- Node2 -->
<g id="node2" class="node">
<title>Node2</title>
<g id="a_node2"><a xlink:href="../../d7/da6/classpocketmine_1_1network_1_1mcpe_1_1protocol_1_1types_1_1inventory_1_1_mismatch_transaction_data.html" target="_top" xlink:title=" ">
<polygon fill="white" stroke="#bfbfbf" points="0,-72 0,-173 196,-173 196,-72 0,-72"/>
<text text-anchor="start" x="8" y="-161" font-family="Helvetica,sans-Serif" font-size="10.00">pocketmine\network</text>
<text text-anchor="start" x="8" y="-150" font-family="Helvetica,sans-Serif" font-size="10.00">\mcpe\protocol\types</text>
<text text-anchor="middle" x="98" y="-139" font-family="Helvetica,sans-Serif" font-size="10.00">\inventory\MismatchTransactionData</text>
<polyline fill="none" stroke="#bfbfbf" points="0,-132 196,-132 "/>
<text text-anchor="start" x="8" y="-120" font-family="Helvetica,sans-Serif" font-size="10.00">+ ID</text>
<polyline fill="none" stroke="#bfbfbf" points="0,-113 196,-113 "/>
<text text-anchor="start" x="8" y="-101" font-family="Helvetica,sans-Serif" font-size="10.00">+ new()</text>
<text text-anchor="start" x="8" y="-90" font-family="Helvetica,sans-Serif" font-size="10.00"># decodeData()</text>
<text text-anchor="start" x="8" y="-79" font-family="Helvetica,sans-Serif" font-size="10.00"># encodeData()</text>
</a>
</g>
</g>
<!-- Node1&#45;&gt;Node2 -->
<g id="edge1" class="edge">
<title>Node1&#45;&gt;Node2</title>
<path fill="none" stroke="midnightblue" d="M436.72,-332.95C369.78,-318.51 275.95,-291.61 205,-245 176.34,-226.17 150.7,-197.7 131.7,-173.04"/>
<polygon fill="none" stroke="midnightblue" points="436.31,-336.44 446.81,-335.08 437.75,-329.59 436.31,-336.44"/>
</g>
<!-- Node3 -->
<g id="node3" class="node">
<title>Node3</title>
<g id="a_node3"><a xlink:href="../../de/da9/classpocketmine_1_1network_1_1mcpe_1_1protocol_1_1types_1_1inventory_1_1_normal_transaction_data.html" target="_top" xlink:title=" ">
<polygon fill="white" stroke="#bfbfbf" points="214,-72 214,-173 398,-173 398,-72 214,-72"/>
<text text-anchor="start" x="222" y="-161" font-family="Helvetica,sans-Serif" font-size="10.00">pocketmine\network</text>
<text text-anchor="start" x="222" y="-150" font-family="Helvetica,sans-Serif" font-size="10.00">\mcpe\protocol\types</text>
<text text-anchor="middle" x="306" y="-139" font-family="Helvetica,sans-Serif" font-size="10.00">\inventory\NormalTransactionData</text>
<polyline fill="none" stroke="#bfbfbf" points="214,-132 398,-132 "/>
<text text-anchor="start" x="222" y="-120" font-family="Helvetica,sans-Serif" font-size="10.00">+ ID</text>
<polyline fill="none" stroke="#bfbfbf" points="214,-113 398,-113 "/>
<text text-anchor="start" x="222" y="-101" font-family="Helvetica,sans-Serif" font-size="10.00">+ new()</text>
<text text-anchor="start" x="222" y="-90" font-family="Helvetica,sans-Serif" font-size="10.00"># decodeData()</text>
<text text-anchor="start" x="222" y="-79" font-family="Helvetica,sans-Serif" font-size="10.00"># encodeData()</text>
</a>
</g>
</g>
<!-- Node1&#45;&gt;Node3 -->
<g id="edge2" class="edge">
<title>Node1&#45;&gt;Node3</title>
<path fill="none" stroke="midnightblue" d="M439.52,-276.88C428.35,-266.44 417.22,-255.62 407,-245 385.23,-222.36 362.73,-195.67 344.5,-173.08"/>
<polygon fill="none" stroke="midnightblue" points="437.14,-279.45 446.86,-283.68 441.9,-274.32 437.14,-279.45"/>
</g>
<!-- Node4 -->
<g id="node4" class="node">
<title>Node4</title>
<g id="a_node4"><a xlink:href="../../d3/d35/classpocketmine_1_1network_1_1mcpe_1_1protocol_1_1types_1_1inventory_1_1_release_item_transaction_data.html" target="_top" xlink:title=" ">
<polygon fill="white" stroke="#bfbfbf" points="416.5,-39 416.5,-206 625.5,-206 625.5,-39 416.5,-39"/>
<text text-anchor="start" x="424.5" y="-194" font-family="Helvetica,sans-Serif" font-size="10.00">pocketmine\network</text>
<text text-anchor="start" x="424.5" y="-183" font-family="Helvetica,sans-Serif" font-size="10.00">\mcpe\protocol\types</text>
<text text-anchor="middle" x="521" y="-172" font-family="Helvetica,sans-Serif" font-size="10.00">\inventory\ReleaseItemTransactionData</text>
<polyline fill="none" stroke="#bfbfbf" points="416.5,-165 625.5,-165 "/>
<text text-anchor="start" x="424.5" y="-153" font-family="Helvetica,sans-Serif" font-size="10.00">+ ACTION_CONSUME</text>
<text text-anchor="start" x="424.5" y="-142" font-family="Helvetica,sans-Serif" font-size="10.00">+ ACTION_RELEASE</text>
<text text-anchor="start" x="424.5" y="-131" font-family="Helvetica,sans-Serif" font-size="10.00">+ ID</text>
<polyline fill="none" stroke="#bfbfbf" points="416.5,-124 625.5,-124 "/>
<text text-anchor="start" x="424.5" y="-112" font-family="Helvetica,sans-Serif" font-size="10.00">+ getActionType()</text>
<text text-anchor="start" x="424.5" y="-101" font-family="Helvetica,sans-Serif" font-size="10.00">+ getHeadPosition()</text>
<text text-anchor="start" x="424.5" y="-90" font-family="Helvetica,sans-Serif" font-size="10.00">+ getHotbarSlot()</text>
<text text-anchor="start" x="424.5" y="-79" font-family="Helvetica,sans-Serif" font-size="10.00">+ getItemInHand()</text>
<text text-anchor="start" x="424.5" y="-68" font-family="Helvetica,sans-Serif" font-size="10.00">+ new()</text>
<text text-anchor="start" x="424.5" y="-57" font-family="Helvetica,sans-Serif" font-size="10.00"># decodeData()</text>
<text text-anchor="start" x="424.5" y="-46" font-family="Helvetica,sans-Serif" font-size="10.00"># encodeData()</text>
</a>
</g>
</g>
<!-- Node1&#45;&gt;Node4 -->
<g id="edge3" class="edge">
<title>Node1&#45;&gt;Node4</title>
<path fill="none" stroke="midnightblue" d="M521,-271.12C521,-250.25 521,-227.54 521,-206.33"/>
<polygon fill="none" stroke="midnightblue" points="517.5,-271.2 521,-281.2 524.5,-271.2 517.5,-271.2"/>
</g>
<!-- Node5 -->
<g id="node5" class="node">
<title>Node5</title>
<g id="a_node5"><a xlink:href="../../d7/dfa/classpocketmine_1_1network_1_1mcpe_1_1protocol_1_1types_1_1inventory_1_1_use_item_on_entity_transaction_data.html" target="_top" xlink:title=" ">
<polygon fill="white" stroke="#bfbfbf" points="643.5,-22.5 643.5,-222.5 874.5,-222.5 874.5,-22.5 643.5,-22.5"/>
<text text-anchor="start" x="651.5" y="-210.5" font-family="Helvetica,sans-Serif" font-size="10.00">pocketmine\network</text>
<text text-anchor="start" x="651.5" y="-199.5" font-family="Helvetica,sans-Serif" font-size="10.00">\mcpe\protocol\types</text>
<text text-anchor="middle" x="759" y="-188.5" font-family="Helvetica,sans-Serif" font-size="10.00">\inventory\UseItemOnEntityTransactionData</text>
<polyline fill="none" stroke="#bfbfbf" points="643.5,-181.5 874.5,-181.5 "/>
<text text-anchor="start" x="651.5" y="-169.5" font-family="Helvetica,sans-Serif" font-size="10.00">+ ACTION_ATTACK</text>
<text text-anchor="start" x="651.5" y="-158.5" font-family="Helvetica,sans-Serif" font-size="10.00">+ ACTION_INTERACT</text>
<text text-anchor="start" x="651.5" y="-147.5" font-family="Helvetica,sans-Serif" font-size="10.00">+ ACTION_ITEM_INTERACT</text>
<text text-anchor="start" x="651.5" y="-136.5" font-family="Helvetica,sans-Serif" font-size="10.00">+ ID</text>
<polyline fill="none" stroke="#bfbfbf" points="643.5,-129.5 874.5,-129.5 "/>
<text text-anchor="start" x="651.5" y="-117.5" font-family="Helvetica,sans-Serif" font-size="10.00">+ getActionType()</text>
<text text-anchor="start" x="651.5" y="-106.5" font-family="Helvetica,sans-Serif" font-size="10.00">+ getActorRuntimeId()</text>
<text text-anchor="start" x="651.5" y="-95.5" font-family="Helvetica,sans-Serif" font-size="10.00">+ getClickPosition()</text>
<text text-anchor="start" x="651.5" y="-84.5" font-family="Helvetica,sans-Serif" font-size="10.00">+ getHotbarSlot()</text>
<text text-anchor="start" x="651.5" y="-73.5" font-family="Helvetica,sans-Serif" font-size="10.00">+ getItemInHand()</text>
<text text-anchor="start" x="651.5" y="-62.5" font-family="Helvetica,sans-Serif" font-size="10.00">+ getPlayerPosition()</text>
<text text-anchor="start" x="651.5" y="-51.5" font-family="Helvetica,sans-Serif" font-size="10.00">+ new()</text>
<text text-anchor="start" x="651.5" y="-40.5" font-family="Helvetica,sans-Serif" font-size="10.00"># decodeData()</text>
<text text-anchor="start" x="651.5" y="-29.5" font-family="Helvetica,sans-Serif" font-size="10.00"># encodeData()</text>
</a>
</g>
</g>
<!-- Node1&#45;&gt;Node5 -->
<g id="edge4" class="edge">
<title>Node1&#45;&gt;Node5</title>
<path fill="none" stroke="midnightblue" d="M602.58,-274.92C613.54,-264.94 624.59,-254.77 635,-245 642.69,-237.78 650.6,-230.26 658.52,-222.67"/>
<polygon fill="none" stroke="midnightblue" points="600.06,-272.48 595.01,-281.79 604.77,-277.66 600.06,-272.48"/>
</g>
<!-- Node6 -->
<g id="node6" class="node">
<title>Node6</title>
<g id="a_node6"><a xlink:href="../../dd/d91/classpocketmine_1_1network_1_1mcpe_1_1protocol_1_1types_1_1inventory_1_1_use_item_transaction_data.html" target="_top" xlink:title=" ">
<polygon fill="white" stroke="#bfbfbf" points="892.5,-0.5 892.5,-244.5 1081.5,-244.5 1081.5,-0.5 892.5,-0.5"/>
<text text-anchor="start" x="900.5" y="-232.5" font-family="Helvetica,sans-Serif" font-size="10.00">pocketmine\network</text>
<text text-anchor="start" x="900.5" y="-221.5" font-family="Helvetica,sans-Serif" font-size="10.00">\mcpe\protocol\types</text>
<text text-anchor="middle" x="987" y="-210.5" font-family="Helvetica,sans-Serif" font-size="10.00">\inventory\UseItemTransactionData</text>
<polyline fill="none" stroke="#bfbfbf" points="892.5,-203.5 1081.5,-203.5 "/>
<text text-anchor="start" x="900.5" y="-191.5" font-family="Helvetica,sans-Serif" font-size="10.00">+ ACTION_BREAK_BLOCK</text>
<text text-anchor="start" x="900.5" y="-180.5" font-family="Helvetica,sans-Serif" font-size="10.00">+ ACTION_CLICK_AIR</text>
<text text-anchor="start" x="900.5" y="-169.5" font-family="Helvetica,sans-Serif" font-size="10.00">+ ACTION_CLICK_BLOCK</text>
<text text-anchor="start" x="900.5" y="-158.5" font-family="Helvetica,sans-Serif" font-size="10.00">+ ID</text>
<polyline fill="none" stroke="#bfbfbf" points="892.5,-151.5 1081.5,-151.5 "/>
<text text-anchor="start" x="900.5" y="-139.5" font-family="Helvetica,sans-Serif" font-size="10.00">+ getActionType()</text>
<text text-anchor="start" x="900.5" y="-128.5" font-family="Helvetica,sans-Serif" font-size="10.00">+ getBlockPosition()</text>
<text text-anchor="start" x="900.5" y="-117.5" font-family="Helvetica,sans-Serif" font-size="10.00">+ getBlockRuntimeId()</text>
<text text-anchor="start" x="900.5" y="-106.5" font-family="Helvetica,sans-Serif" font-size="10.00">+ getClickPosition()</text>
<text text-anchor="start" x="900.5" y="-95.5" font-family="Helvetica,sans-Serif" font-size="10.00">+ getClientInteractPrediction()</text>
<text text-anchor="start" x="900.5" y="-84.5" font-family="Helvetica,sans-Serif" font-size="10.00">+ getFace()</text>
<text text-anchor="start" x="900.5" y="-73.5" font-family="Helvetica,sans-Serif" font-size="10.00">+ getHotbarSlot()</text>
<text text-anchor="start" x="900.5" y="-62.5" font-family="Helvetica,sans-Serif" font-size="10.00">+ getItemInHand()</text>
<text text-anchor="start" x="900.5" y="-51.5" font-family="Helvetica,sans-Serif" font-size="10.00">+ getPlayerPosition()</text>
<text text-anchor="start" x="900.5" y="-40.5" font-family="Helvetica,sans-Serif" font-size="10.00">+ getTriggerType()</text>
<text text-anchor="start" x="900.5" y="-29.5" font-family="Helvetica,sans-Serif" font-size="10.00">+ new()</text>
<text text-anchor="start" x="900.5" y="-18.5" font-family="Helvetica,sans-Serif" font-size="10.00"># decodeData()</text>
<text text-anchor="start" x="900.5" y="-7.5" font-family="Helvetica,sans-Serif" font-size="10.00"># encodeData()</text>
</a>
</g>
</g>
<!-- Node1&#45;&gt;Node6 -->
<g id="edge5" class="edge">
<title>Node1&#45;&gt;Node6</title>
<path fill="none" stroke="midnightblue" d="M605.28,-337.98C682.79,-326.06 798.34,-300.08 884,-245 886.79,-243.21 889.55,-241.31 892.26,-239.33"/>
<polygon fill="none" stroke="midnightblue" points="604.45,-334.56 595.08,-339.5 605.48,-341.49 604.45,-334.56"/>
</g>
</g>
</svg>
        <g id="navigator" transform="translate(0 0)" fill="#404254">
                <rect fill="#f2f5e9" fill-opacity="0.5" stroke="#606060" stroke-width=".5" x="0" y="0" width="60" height="60"/>
                <use id="zoomplus" xlink:href="#zoomPlus" x="17" y="9" onmousedown="handleZoom(evt,'in')"/>
                <use id="zoomminus" xlink:href="#zoomMin" x="42" y="9" onmousedown="handleZoom(evt,'out')"/>
                <use id="reset" xlink:href="#resetDef" x="30" y="36" onmousedown="handleReset()"/>
                <g id="arrowUp" xlink:href="#dirArrow" transform="translate(30 24)" onmousedown="handlePan(0,-1)">
                  <use xlink:href="#rim" fill="#404040">
                        <set attributeName="fill" to="#808080" begin="arrowUp.mouseover" end="arrowUp.mouseout"/>
                  </use>
                  <path fill="none" stroke="white" stroke-width="1.5" d="M0,-3.0v7 M-2.5,-0.5L0,-3.0L2.5,-0.5"/>
                </g>
                <g id="arrowRight" xlink:href="#dirArrow" transform="rotate(90) translate(36 -43)" onmousedown="handlePan(1,0)">
                  <use xlink:href="#rim" fill="#404040">
                        <set attributeName="fill" to="#808080" begin="arrowRight.mouseover" end="arrowRight.mouseout"/>
                  </use>
                  <path fill="none" stroke="white" stroke-width="1.5" d="M0,-3.0v7 M-2.5,-0.5L0,-3.0L2.5,-0.5"/>
                </g>
                <g id="arrowDown" xlink:href="#dirArrow" transform="rotate(180) translate(-30 -48)" onmousedown="handlePan(0,1)">
                  <use xlink:href="#rim" fill="#404040">
                        <set attributeName="fill" to="#808080" begin="arrowDown.mouseover" end="arrowDown.mouseout"/>
                  </use>
                  <path fill="none" stroke="white" stroke-width="1.5" d="M0,-3.0v7 M-2.5,-0.5L0,-3.0L2.5,-0.5"/>
                </g>
                <g id="arrowLeft" xlink:href="#dirArrow" transform="rotate(270) translate(-36 17)" onmousedown="handlePan(-1,0)">
                  <use xlink:href="#rim" fill="#404040">
                        <set attributeName="fill" to="#808080" begin="arrowLeft.mouseover" end="arrowLeft.mouseout"/>
                  </use>
                  <path fill="none" stroke="white" stroke-width="1.5" d="M0,-3.0v7 M-2.5,-0.5L0,-3.0L2.5,-0.5"/>
                </g>
        </g>
        <svg viewBox="0 0 15 15" width="100%" height="30px" preserveAspectRatio="xMaxYMin meet">
         <g id="arrow_out" transform="scale(0.3 0.3)">
          <a xlink:href="classpocketmine_1_1network_1_1mcpe_1_1protocol_1_1types_1_1inventory_1_1_transaction_data__inherit__graph_org.svg" target="_base">
           <rect id="button" ry="5" rx="5" y="6" x="6" height="38" width="38"
                fill="#f2f5e9" fill-opacity="0.5" stroke="#606060" stroke-width="1.0"/>
           <path id="arrow"
             d="M 11.500037,31.436501 C 11.940474,20.09759 22.043105,11.32322 32.158766,21.979434 L 37.068811,17.246167 C 37.068811,17.246167 37.088388,32 37.088388,32 L 22.160133,31.978069 C 22.160133,31.978069 26.997745,27.140456 26.997745,27.140456 C 18.528582,18.264221 13.291696,25.230495 11.500037,31.436501 z"
             style="fill:#404040;"/>
          </a>
         </g>
        </svg>
</svg>
