<?xml version="1.0" encoding="UTF-8" standalone="no"?>
<!DOCTYPE svg PUBLIC "-//W3C//DTD SVG 1.1//EN"
 "http://www.w3.org/Graphics/SVG/1.1/DTD/svg11.dtd">
<!-- Generated by graphviz version 2.43.0 (0)
 -->
<!-- Title: pocketmine\network\mcpe\protocol\types\AttributeValueColorArray Pages: 1 -->
<svg width="144pt" height="261pt"
 viewBox="0.00 0.00 144.00 261.00" xmlns="http://www.w3.org/2000/svg" xmlns:xlink="http://www.w3.org/1999/xlink">
<g id="graph0" class="graph" transform="scale(1 1) rotate(0) translate(4 257)">
<title>pocketmine\network\mcpe\protocol\types\AttributeValueColorArray</title>
<!-- Node1 -->
<g id="Node000001" class="node">
<title>Node1</title>
<g id="a_Node000001"><a xlink:title=" ">
<polygon fill="#999999" stroke="transparent" points="135.5,-131 0.5,-131 0.5,0 135.5,0 135.5,-131"/>
<text text-anchor="start" x="6" y="-118.5" font-family="Helvetica,sans-Serif" font-size="10.00">pocketmine\network</text>
<text text-anchor="start" x="6" y="-107.5" font-family="Helvetica,sans-Serif" font-size="10.00">\mcpe\protocol\types</text>
<text text-anchor="start" x="6" y="-96.5" font-family="Helvetica,sans-Serif" font-size="10.00">\AttributeValueColorArray</text>
<text text-anchor="start" x="17.5" y="-81.5" font-family="Helvetica,sans-Serif" font-size="10.00">+</text>
<text text-anchor="start" x="43" y="-81.5" font-family="Helvetica,sans-Serif" font-size="10.00">ID</text>
<text text-anchor="start" x="17.5" y="-66.5" font-family="Helvetica,sans-Serif" font-size="10.00">+</text>
<text text-anchor="start" x="43" y="-66.5" font-family="Helvetica,sans-Serif" font-size="10.00">__construct()</text>
<text text-anchor="start" x="17.5" y="-51.5" font-family="Helvetica,sans-Serif" font-size="10.00">+</text>
<text text-anchor="start" x="43" y="-51.5" font-family="Helvetica,sans-Serif" font-size="10.00">getTypeId()</text>
<text text-anchor="start" x="17.5" y="-36.5" font-family="Helvetica,sans-Serif" font-size="10.00">+</text>
<text text-anchor="start" x="43" y="-36.5" font-family="Helvetica,sans-Serif" font-size="10.00">getValue()</text>
<text text-anchor="start" x="17.5" y="-21.5" font-family="Helvetica,sans-Serif" font-size="10.00">+</text>
<text text-anchor="start" x="43" y="-21.5" font-family="Helvetica,sans-Serif" font-size="10.00">write()</text>
<text text-anchor="start" x="17.5" y="-6.5" font-family="Helvetica,sans-Serif" font-size="10.00">+</text>
<text text-anchor="start" x="43" y="-6.5" font-family="Helvetica,sans-Serif" font-size="10.00">read()</text>
<polygon fill="#666666" stroke="#666666" points="1,-91.5 1,-91.5 136,-91.5 136,-91.5 1,-91.5"/>
<polygon fill="#666666" stroke="#666666" points="1,-76.5 1,-76.5 41,-76.5 41,-76.5 1,-76.5"/>
<polygon fill="#666666" stroke="#666666" points="41,-76.5 41,-76.5 136,-76.5 136,-76.5 41,-76.5"/>
<polygon fill="none" stroke="#666666" points="0.5,0 0.5,-131 135.5,-131 135.5,0 0.5,0"/>
</a>
</g>
</g>
<!-- Node2 -->
<g id="Node000002" class="node">
<title>Node2</title>
<g id="a_Node000002"><a xlink:href="../../d9/d44/classpocketmine_1_1network_1_1mcpe_1_1protocol_1_1types_1_1_attribute_value_color_value.html" target="_top" xlink:title=" ">
<polygon fill="white" stroke="transparent" points="136,-253 0,-253 0,-167 136,-167 136,-253"/>
<text text-anchor="start" x="5" y="-241" font-family="Helvetica,sans-Serif" font-size="10.00">pocketmine\network</text>
<text text-anchor="start" x="5" y="-230" font-family="Helvetica,sans-Serif" font-size="10.00">\mcpe\protocol\types</text>
<text text-anchor="start" x="5" y="-219" font-family="Helvetica,sans-Serif" font-size="10.00">\AttributeValueColorValue</text>
<text text-anchor="start" x="66" y="-204" font-family="Helvetica,sans-Serif" font-size="10.00"> </text>
<text text-anchor="start" x="19" y="-189" font-family="Helvetica,sans-Serif" font-size="10.00">+</text>
<text text-anchor="start" x="47" y="-189" font-family="Helvetica,sans-Serif" font-size="10.00">getTypeId()</text>
<text text-anchor="start" x="19" y="-174" font-family="Helvetica,sans-Serif" font-size="10.00">+</text>
<text text-anchor="start" x="47" y="-174" font-family="Helvetica,sans-Serif" font-size="10.00">write()</text>
<polygon fill="#666666" stroke="#666666" points="0,-214 0,-214 136,-214 136,-214 0,-214"/>
<polygon fill="#666666" stroke="#666666" points="0,-199 0,-199 136,-199 136,-199 0,-199"/>
<polygon fill="none" stroke="#666666" points="0,-167 0,-253 136,-253 136,-167 0,-167"/>
</a>
</g>
</g>
<!-- Node2&#45;&gt;Node1 -->
<g id="edge1_Node000001_Node000002" class="edge">
<title>Node2&#45;&gt;Node1</title>
<g id="a_edge1_Node000001_Node000002"><a xlink:title=" ">
<path fill="none" stroke="#63b8ff" d="M68,-156.43C68,-148.2 68,-139.6 68,-131.14"/>
<polygon fill="none" stroke="#63b8ff" points="64.5,-156.63 68,-166.63 71.5,-156.63 64.5,-156.63"/>
</a>
</g>
</g>
</g>
</svg>
