<?xml version="1.0" encoding="UTF-8" standalone="no"?>
<!DOCTYPE svg PUBLIC "-//W3C//DTD SVG 1.1//EN"
 "http://www.w3.org/Graphics/SVG/1.1/DTD/svg11.dtd">
<!-- Generated by graphviz version 2.43.0 (0)
 -->
<!-- Title: pocketmine\network\mcpe\protocol\PlayerUpdateEntityOverridesPacket Pages: 1 -->
<!--zoomable 706 -->

<svg id="main" version="1.1" xmlns="http://www.w3.org/2000/svg" xmlns:xlink="http://www.w3.org/1999/xlink" xml:space="preserve" onload="init(evt)">

<style type="text/css"><![CDATA[
.node, .edge {opacity: 0.7;}
.node.selected, .edge.selected {opacity: 1;}
.edge:hover path { stroke: red; }
.edge:hover polygon { stroke: red; fill: red; }
]]></style>

<defs>
  <circle id="rim" cx="0" cy="0" r="7"/>
  <circle id="rim2" cx="0" cy="0" r="3.5"/>
  <g id="zoomPlus">
    <use xlink:href="#rim" fill="#404040"><set attributeName="fill" to="#808080" begin="zoomplus.mouseover" end="zoomplus.mouseout"/></use>
    <path d="M-4,0h8M0,-4v8" fill="none" stroke="white" stroke-width="1.5" pointer-events="none"/>
  </g>
  <g id="zoomMin">
    <use xlink:href="#rim" fill="#404040"><set attributeName="fill" to="#808080" begin="zoomminus.mouseover" end="zoomminus.mouseout"/></use>
    <path d="M-4,0h8" fill="none" stroke="white" stroke-width="1.5" pointer-events="none"/>
  </g>
  <g id="arrowUp" transform="translate(30 24)">
    <use xlink:href="#rim"/>
    <path pointer-events="none" fill="none" stroke="white" stroke-width="1.5" d="M0,-3.0v7 M-2.5,-0.5L0,-3.0L2.5,-0.5"/>
  </g>
  <g id="arrowRight" transform="rotate(90) translate(36 -43)">
    <use xlink:href="#rim"/>
    <path pointer-events="none" fill="none" stroke="white" stroke-width="1.5" d="M0,-3.0v7 M-2.5,-0.5L0,-3.0L2.5,-0.5"/>
  </g>
  <g id="arrowDown" transform="rotate(180) translate(-30 -48)">
    <use xlink:href="#rim"/>
    <path pointer-events="none" fill="none" stroke="white" stroke-width="1.5" d="M0,-3.0v7 M-2.5,-0.5L0,-3.0L2.5,-0.5"/>
  </g>
  <g id="arrowLeft" transform="rotate(270) translate(-36 17)">
    <use xlink:href="#rim"/>
    <path pointer-events="none" fill="none" stroke="white" stroke-width="1.5" d="M0,-3.0v7 M-2.5,-0.5L0,-3.0L2.5,-0.5"/>
  </g>
  <g id="resetDef">
    <use xlink:href="#rim2" fill="#404040"><set attributeName="fill" to="#808080" begin="reset.mouseover" end="reset.mouseout"/></use>
  </g>
</defs>
<script type="application/ecmascript">
var viewWidth = 312;
var viewHeight = 706;
var sectionId = 'dynsection-1';
</script>
<script type="application/ecmascript" xlink:href="../../svg.min.js"/>
<svg id="graph" class="graph">
<g id="viewport">
<title>pocketmine\network\mcpe\protocol\PlayerUpdateEntityOverridesPacket</title>
<!-- Node1 -->
<g id="Node000001" class="node">
<title>Node1</title>
<g id="a_Node000001"><a xlink:title=" ">
<polygon fill="#999999" stroke="transparent" points="226.5,-236 74.5,-236 74.5,0 226.5,0 226.5,-236"/>
<text text-anchor="start" x="79.5" y="-224" font-family="Helvetica,sans-Serif" font-size="10.00">pocketmine\network</text>
<text text-anchor="start" x="79.5" y="-213" font-family="Helvetica,sans-Serif" font-size="10.00">\mcpe\protocol\PlayerUpdate</text>
<text text-anchor="start" x="96.5" y="-202" font-family="Helvetica,sans-Serif" font-size="10.00">EntityOverridesPacket</text>
<text text-anchor="start" x="81" y="-187" font-family="Helvetica,sans-Serif" font-size="10.00">+</text>
<text text-anchor="start" x="96.5" y="-187" font-family="Helvetica,sans-Serif" font-size="10.00">NETWORK_ID</text>
<text text-anchor="start" x="81" y="-172" font-family="Helvetica,sans-Serif" font-size="10.00">+</text>
<text text-anchor="start" x="96.5" y="-172" font-family="Helvetica,sans-Serif" font-size="10.00">getActorRuntimeId()</text>
<text text-anchor="start" x="81" y="-157" font-family="Helvetica,sans-Serif" font-size="10.00">+</text>
<text text-anchor="start" x="96.5" y="-157" font-family="Helvetica,sans-Serif" font-size="10.00">getFloatOverrideValue()</text>
<text text-anchor="start" x="81" y="-142" font-family="Helvetica,sans-Serif" font-size="10.00">+</text>
<text text-anchor="start" x="96.5" y="-142" font-family="Helvetica,sans-Serif" font-size="10.00">getIntOverrideValue()</text>
<text text-anchor="start" x="81" y="-127" font-family="Helvetica,sans-Serif" font-size="10.00">+</text>
<text text-anchor="start" x="96.5" y="-127" font-family="Helvetica,sans-Serif" font-size="10.00">getPropertyIndex()</text>
<text text-anchor="start" x="81" y="-112" font-family="Helvetica,sans-Serif" font-size="10.00">+</text>
<text text-anchor="start" x="96.5" y="-112" font-family="Helvetica,sans-Serif" font-size="10.00">getUpdateType()</text>
<text text-anchor="start" x="81" y="-97" font-family="Helvetica,sans-Serif" font-size="10.00">+</text>
<text text-anchor="start" x="96.5" y="-97" font-family="Helvetica,sans-Serif" font-size="10.00">handle()</text>
<text text-anchor="start" x="81" y="-82" font-family="Helvetica,sans-Serif" font-size="10.00">+</text>
<text text-anchor="start" x="96.5" y="-82" font-family="Helvetica,sans-Serif" font-size="10.00">createClearOverrides()</text>
<text text-anchor="start" x="81" y="-67" font-family="Helvetica,sans-Serif" font-size="10.00">+</text>
<text text-anchor="start" x="96.5" y="-67" font-family="Helvetica,sans-Serif" font-size="10.00">createFloatOverride()</text>
<text text-anchor="start" x="81" y="-52" font-family="Helvetica,sans-Serif" font-size="10.00">+</text>
<text text-anchor="start" x="96.5" y="-52" font-family="Helvetica,sans-Serif" font-size="10.00">createIntOverride()</text>
<text text-anchor="start" x="81" y="-37" font-family="Helvetica,sans-Serif" font-size="10.00">+</text>
<text text-anchor="start" x="96.5" y="-37" font-family="Helvetica,sans-Serif" font-size="10.00">createRemoveOverride()</text>
<text text-anchor="start" x="81" y="-22" font-family="Helvetica,sans-Serif" font-size="10.00">#</text>
<text text-anchor="start" x="96.5" y="-22" font-family="Helvetica,sans-Serif" font-size="10.00">decodePayload()</text>
<text text-anchor="start" x="81" y="-7" font-family="Helvetica,sans-Serif" font-size="10.00">#</text>
<text text-anchor="start" x="96.5" y="-7" font-family="Helvetica,sans-Serif" font-size="10.00">encodePayload()</text>
<polygon fill="#666666" stroke="#666666" points="74.5,-197 74.5,-197 226.5,-197 226.5,-197 74.5,-197"/>
<polygon fill="#666666" stroke="#666666" points="74.5,-182 74.5,-182 94.5,-182 94.5,-182 74.5,-182"/>
<polygon fill="#666666" stroke="#666666" points="94.5,-182 94.5,-182 226.5,-182 226.5,-182 94.5,-182"/>
<polygon fill="none" stroke="#666666" points="74.5,0 74.5,-236 226.5,-236 226.5,0 74.5,0"/>
</a>
</g>
</g>
<!-- Node2 -->
<g id="Node000002" class="node">
<title>Node2</title>
<g id="a_Node000002"><a xlink:href="../../d1/ddb/classpocketmine_1_1network_1_1mcpe_1_1protocol_1_1_data_packet.html" target="_top" xlink:title=" ">
<polygon fill="white" stroke="transparent" points="141,-527 0,-527 0,-272 141,-272 141,-527"/>
<text text-anchor="start" x="5.5" y="-514.5" font-family="Helvetica,sans-Serif" font-size="10.00">pocketmine\network</text>
<text text-anchor="start" x="5.5" y="-503.5" font-family="Helvetica,sans-Serif" font-size="10.00">\mcpe\protocol\DataPacket</text>
<text text-anchor="start" x="5" y="-488.5" font-family="Helvetica,sans-Serif" font-size="10.00">+</text>
<text text-anchor="start" x="18.5" y="-488.5" font-family="Helvetica,sans-Serif" font-size="10.00">$recipientSubId</text>
<text text-anchor="start" x="5" y="-473.5" font-family="Helvetica,sans-Serif" font-size="10.00">+</text>
<text text-anchor="start" x="18.5" y="-473.5" font-family="Helvetica,sans-Serif" font-size="10.00">$senderSubId</text>
<text text-anchor="start" x="5" y="-458.5" font-family="Helvetica,sans-Serif" font-size="10.00">+</text>
<text text-anchor="start" x="18.5" y="-458.5" font-family="Helvetica,sans-Serif" font-size="10.00">NETWORK_ID</text>
<text text-anchor="start" x="5" y="-443.5" font-family="Helvetica,sans-Serif" font-size="10.00">+</text>
<text text-anchor="start" x="18.5" y="-443.5" font-family="Helvetica,sans-Serif" font-size="10.00">PID_MASK</text>
<text text-anchor="start" x="5" y="-428.5" font-family="Helvetica,sans-Serif" font-size="10.00">+</text>
<text text-anchor="start" x="18.5" y="-428.5" font-family="Helvetica,sans-Serif" font-size="10.00">__get()</text>
<text text-anchor="start" x="5" y="-413.5" font-family="Helvetica,sans-Serif" font-size="10.00">+</text>
<text text-anchor="start" x="18.5" y="-413.5" font-family="Helvetica,sans-Serif" font-size="10.00">__set()</text>
<text text-anchor="start" x="5" y="-398.5" font-family="Helvetica,sans-Serif" font-size="10.00">+</text>
<text text-anchor="start" x="18.5" y="-398.5" font-family="Helvetica,sans-Serif" font-size="10.00">canBeSentBeforeLogin()</text>
<text text-anchor="start" x="5" y="-383.5" font-family="Helvetica,sans-Serif" font-size="10.00">+</text>
<text text-anchor="start" x="18.5" y="-383.5" font-family="Helvetica,sans-Serif" font-size="10.00">decode()</text>
<text text-anchor="start" x="5" y="-368.5" font-family="Helvetica,sans-Serif" font-size="10.00">+</text>
<text text-anchor="start" x="18.5" y="-368.5" font-family="Helvetica,sans-Serif" font-size="10.00">encode()</text>
<text text-anchor="start" x="5" y="-353.5" font-family="Helvetica,sans-Serif" font-size="10.00">+</text>
<text text-anchor="start" x="18.5" y="-353.5" font-family="Helvetica,sans-Serif" font-size="10.00">getName()</text>
<text text-anchor="start" x="5" y="-338.5" font-family="Helvetica,sans-Serif" font-size="10.00">+</text>
<text text-anchor="start" x="18.5" y="-338.5" font-family="Helvetica,sans-Serif" font-size="10.00">pid()</text>
<text text-anchor="start" x="5" y="-323.5" font-family="Helvetica,sans-Serif" font-size="10.00">#</text>
<text text-anchor="start" x="18.5" y="-323.5" font-family="Helvetica,sans-Serif" font-size="10.00">decodeHeader()</text>
<text text-anchor="start" x="5" y="-308.5" font-family="Helvetica,sans-Serif" font-size="10.00">#</text>
<text text-anchor="start" x="18.5" y="-308.5" font-family="Helvetica,sans-Serif" font-size="10.00">decodePayload()</text>
<text text-anchor="start" x="5" y="-293.5" font-family="Helvetica,sans-Serif" font-size="10.00">#</text>
<text text-anchor="start" x="18.5" y="-293.5" font-family="Helvetica,sans-Serif" font-size="10.00">encodeHeader()</text>
<text text-anchor="start" x="5" y="-278.5" font-family="Helvetica,sans-Serif" font-size="10.00">#</text>
<text text-anchor="start" x="18.5" y="-278.5" font-family="Helvetica,sans-Serif" font-size="10.00">encodePayload()</text>
<polygon fill="#bfbfbf" stroke="#bfbfbf" points="0.5,-498.5 0.5,-498.5 141.5,-498.5 141.5,-498.5 0.5,-498.5"/>
<polygon fill="#bfbfbf" stroke="#bfbfbf" points="0.5,-438.5 0.5,-438.5 16.5,-438.5 16.5,-438.5 0.5,-438.5"/>
<polygon fill="#bfbfbf" stroke="#bfbfbf" points="16.5,-438.5 16.5,-438.5 141.5,-438.5 141.5,-438.5 16.5,-438.5"/>
<polygon fill="none" stroke="#bfbfbf" points="0,-272 0,-527 141,-527 141,-272 0,-272"/>
</a>
</g>
</g>
<!-- Node2&#45;&gt;Node1 -->
<g id="edge1_Node000001_Node000002" class="edge">
<title>Node2&#45;&gt;Node1</title>
<g id="a_edge1_Node000001_Node000002"><a xlink:title=" ">
<path fill="none" stroke="#63b8ff" d="M109.54,-262.1C112.01,-253.46 114.49,-244.81 116.93,-236.27"/>
<polygon fill="none" stroke="#63b8ff" points="106.14,-261.26 106.75,-271.83 112.87,-263.18 106.14,-261.26"/>
</a>
</g>
</g>
<!-- Node3 -->
<g id="Node000003" class="node">
<title>Node3</title>
<g id="a_Node000003"><a xlink:href="../../d4/d5d/interfacepocketmine_1_1network_1_1mcpe_1_1protocol_1_1_packet.html" target="_top" xlink:title=" ">
<polygon fill="white" stroke="transparent" points="220,-698 81,-698 81,-563 220,-563 220,-698"/>
<text text-anchor="start" x="97" y="-685.5" font-family="Helvetica,sans-Serif" font-size="10.00">pocketmine\network</text>
<text text-anchor="start" x="97" y="-674.5" font-family="Helvetica,sans-Serif" font-size="10.00">\mcpe\protocol\Packet</text>
<text text-anchor="start" x="149" y="-659.5" font-family="Helvetica,sans-Serif" font-size="10.00"> </text>
<text text-anchor="start" x="85.5" y="-644.5" font-family="Helvetica,sans-Serif" font-size="10.00">+</text>
<text text-anchor="start" x="98.5" y="-644.5" font-family="Helvetica,sans-Serif" font-size="10.00">canBeSentBeforeLogin()</text>
<text text-anchor="start" x="85.5" y="-629.5" font-family="Helvetica,sans-Serif" font-size="10.00">+</text>
<text text-anchor="start" x="98.5" y="-629.5" font-family="Helvetica,sans-Serif" font-size="10.00">decode()</text>
<text text-anchor="start" x="85.5" y="-614.5" font-family="Helvetica,sans-Serif" font-size="10.00">+</text>
<text text-anchor="start" x="98.5" y="-614.5" font-family="Helvetica,sans-Serif" font-size="10.00">encode()</text>
<text text-anchor="start" x="85.5" y="-599.5" font-family="Helvetica,sans-Serif" font-size="10.00">+</text>
<text text-anchor="start" x="98.5" y="-599.5" font-family="Helvetica,sans-Serif" font-size="10.00">getName()</text>
<text text-anchor="start" x="85.5" y="-584.5" font-family="Helvetica,sans-Serif" font-size="10.00">+</text>
<text text-anchor="start" x="98.5" y="-584.5" font-family="Helvetica,sans-Serif" font-size="10.00">handle()</text>
<text text-anchor="start" x="85.5" y="-569.5" font-family="Helvetica,sans-Serif" font-size="10.00">+</text>
<text text-anchor="start" x="98.5" y="-569.5" font-family="Helvetica,sans-Serif" font-size="10.00">pid()</text>
<polygon fill="#bfbfbf" stroke="#bfbfbf" points="81.5,-669.5 81.5,-669.5 220.5,-669.5 220.5,-669.5 81.5,-669.5"/>
<polygon fill="#bfbfbf" stroke="#bfbfbf" points="81.5,-654.5 81.5,-654.5 220.5,-654.5 220.5,-654.5 81.5,-654.5"/>
<polygon fill="none" stroke="#bfbfbf" points="81,-563 81,-698 220,-698 220,-563 81,-563"/>
</a>
</g>
</g>
<!-- Node3&#45;&gt;Node2 -->
<g id="edge2_Node000002_Node000003" class="edge">
<title>Node3&#45;&gt;Node2</title>
<g id="a_edge2_Node000002_Node000003"><a xlink:title=" ">
<path fill="none" stroke="#63b8ff" d="M123.94,-553.48C120.96,-544.95 117.87,-536.11 114.75,-527.16"/>
<polygon fill="none" stroke="#63b8ff" points="120.65,-554.67 127.25,-562.96 127.26,-552.36 120.65,-554.67"/>
</a>
</g>
</g>
<!-- Node4 -->
<g id="Node000004" class="node">
<title>Node4</title>
<g id="a_Node000004"><a xlink:href="../../da/d77/interfacepocketmine_1_1network_1_1mcpe_1_1protocol_1_1_clientbound_packet.html" target="_top" xlink:title=" ">
<polygon fill="white" stroke="transparent" points="304,-435 159,-435 159,-364 304,-364 304,-435"/>
<text text-anchor="start" x="164.5" y="-422.5" font-family="Helvetica,sans-Serif" font-size="10.00">pocketmine\network</text>
<text text-anchor="start" x="164.5" y="-411.5" font-family="Helvetica,sans-Serif" font-size="10.00">\mcpe\protocol\Clientbound</text>
<text text-anchor="start" x="216" y="-400.5" font-family="Helvetica,sans-Serif" font-size="10.00">Packet</text>
<text text-anchor="start" x="230" y="-385.5" font-family="Helvetica,sans-Serif" font-size="10.00"> </text>
<text text-anchor="start" x="230" y="-370.5" font-family="Helvetica,sans-Serif" font-size="10.00"> </text>
<polygon fill="#bfbfbf" stroke="#bfbfbf" points="159.5,-395.5 159.5,-395.5 304.5,-395.5 304.5,-395.5 159.5,-395.5"/>
<polygon fill="#bfbfbf" stroke="#bfbfbf" points="159.5,-380.5 159.5,-380.5 304.5,-380.5 304.5,-380.5 159.5,-380.5"/>
<polygon fill="none" stroke="#bfbfbf" points="159,-364 159,-435 304,-435 304,-364 159,-364"/>
</a>
</g>
</g>
<!-- Node3&#45;&gt;Node4 -->
<g id="edge4_Node000004_Node000003" class="edge">
<title>Node3&#45;&gt;Node4</title>
<g id="a_edge4_Node000004_Node000003"><a xlink:title=" ">
<path fill="none" stroke="#63b8ff" d="M177.39,-553.47C191.55,-513.43 208.23,-466.29 219.29,-435.03"/>
<polygon fill="none" stroke="#63b8ff" points="174.07,-552.36 174.04,-562.96 180.67,-554.7 174.07,-552.36"/>
</a>
</g>
</g>
<!-- Node4&#45;&gt;Node1 -->
<g id="edge3_Node000001_Node000004" class="edge">
<title>Node4&#45;&gt;Node1</title>
<g id="a_edge3_Node000001_Node000004"><a xlink:title=" ">
<path fill="none" stroke="#63b8ff" d="M218.62,-354.07C209.4,-322.23 196.52,-277.79 184.44,-236.1"/>
<polygon fill="none" stroke="#63b8ff" points="215.34,-355.32 221.49,-363.95 222.06,-353.37 215.34,-355.32"/>
</a>
</g>
</g>
</g>
</svg>

<g id="navigator" transform="translate(0 0)" fill="#404254">
  <rect fill="#f2f5e9" fill-opacity="0.5" stroke="#606060" stroke-width=".5" x="0" y="0" width="60" height="60"/>
  <use id="zoomplus" xlink:href="#zoomPlus" x="17" y="9" onmousedown="handleZoom(evt,'in')"/>
  <use id="zoomminus" xlink:href="#zoomMin" x="42" y="9" onmousedown="handleZoom(evt,'out')"/>
  <use id="reset" xlink:href="#resetDef" x="30" y="36" onmousedown="handleReset()"/>
   <use id="arrowup" xlink:href="#arrowUp" x="0" y="0" onmousedown="handlePan(0,-1)"/>
  <use id="arrowright" xlink:href="#arrowRight" x="0" y="0" onmousedown="handlePan(1,0)"/>
  <use id="arrowdown" xlink:href="#arrowDown" x="0" y="0" onmousedown="handlePan(0,1)"/>
  <use id="arrowleft" xlink:href="#arrowLeft" x="0" y="0" onmousedown="handlePan(-1,0)"/>
</g>
<svg viewBox="0 0 15 15" width="100%" height="30px" preserveAspectRatio="xMaxYMin meet">
 <g id="arrow_out" transform="scale(0.3 0.3)">
  <a xlink:href="classpocketmine_1_1network_1_1mcpe_1_1protocol_1_1_player_update_entity_overrides_packet__coll__graph_org.svg" target="_base">
   <rect id="button" ry="5" rx="5" y="6" x="6" height="38" width="38"
        fill="#f2f5e9" fill-opacity="0.5" stroke="#606060" stroke-width="1.0"/>
   <path id="arrow"
     d="M 11.500037,31.436501 C 11.940474,20.09759 22.043105,11.32322 32.158766,21.979434 L 37.068811,17.246167 C 37.068811,17.246167 37.088388,32 37.088388,32 L 22.160133,31.978069 C 22.160133,31.978069 26.997745,27.140456 26.997745,27.140456 C 18.528582,18.264221 13.291696,25.230495 11.500037,31.436501 z"
     style="fill:#404040;"/>
  </a>
 </g>
</svg>

<style type='text/css'>
<![CDATA[
[data-mouse-over-selected='false'] { opacity: 0.7; }
[data-mouse-over-selected='true']  { opacity: 1.0; }
]]>
</style>
<script type="application/ecmascript"><![CDATA[
document.addEventListener('DOMContentLoaded', (event) => {
  highlightEdges();
  highlightAdjacentNodes();
});
]]></script>
</svg>
