<?xml version="1.0" encoding="UTF-8" standalone="no"?>
<!DOCTYPE svg PUBLIC "-//W3C//DTD SVG 1.1//EN"
 "http://www.w3.org/Graphics/SVG/1.1/DTD/svg11.dtd">
<!-- Generated by graphviz version 2.43.0 (0)
 -->
<!-- Title: pocketmine\item\Banner Pages: 1 -->
<svg width="518pt" height="1170pt"
 viewBox="0.00 0.00 517.50 1170.00" xmlns="http://www.w3.org/2000/svg" xmlns:xlink="http://www.w3.org/1999/xlink">
<g id="graph0" class="graph" transform="scale(1 1) rotate(0) translate(4 1166)">
<title>pocketmine\item\Banner</title>
<polygon fill="white" stroke="transparent" points="-4,4 -4,-1166 513.5,-1166 513.5,4 -4,4"/>
<!-- Node1 -->
<g id="node1" class="node">
<title>Node1</title>
<g id="a_node1"><a xlink:title=" ">
<polygon fill="#bfbfbf" stroke="black" points="266.5,-0.5 266.5,-134.5 424.5,-134.5 424.5,-0.5 266.5,-0.5"/>
<text text-anchor="middle" x="345.5" y="-122.5" font-family="Helvetica,sans-Serif" font-size="10.00">pocketmine\item\Banner</text>
<polyline fill="none" stroke="black" points="266.5,-115.5 424.5,-115.5 "/>
<text text-anchor="middle" x="345.5" y="-103.5" font-family="Helvetica,sans-Serif" font-size="10.00"> </text>
<polyline fill="none" stroke="black" points="266.5,-96.5 424.5,-96.5 "/>
<text text-anchor="start" x="274.5" y="-84.5" font-family="Helvetica,sans-Serif" font-size="10.00">+ getColor()</text>
<text text-anchor="start" x="274.5" y="-73.5" font-family="Helvetica,sans-Serif" font-size="10.00">+ getFuelTime()</text>
<text text-anchor="start" x="274.5" y="-62.5" font-family="Helvetica,sans-Serif" font-size="10.00">+ getPatterns()</text>
<text text-anchor="start" x="274.5" y="-51.5" font-family="Helvetica,sans-Serif" font-size="10.00">+ setColor()</text>
<text text-anchor="start" x="274.5" y="-40.5" font-family="Helvetica,sans-Serif" font-size="10.00">+ setPatterns()</text>
<text text-anchor="start" x="274.5" y="-29.5" font-family="Helvetica,sans-Serif" font-size="10.00"># describeState()</text>
<text text-anchor="start" x="274.5" y="-18.5" font-family="Helvetica,sans-Serif" font-size="10.00"># deserializeCompoundTag()</text>
<text text-anchor="start" x="274.5" y="-7.5" font-family="Helvetica,sans-Serif" font-size="10.00"># serializeCompoundTag()</text>
</a>
</g>
</g>
<!-- Node2 -->
<g id="node2" class="node">
<title>Node2</title>
<g id="a_node2"><a xlink:href="../../d8/d23/classpocketmine_1_1item_1_1_item_block_wall_or_floor.html" target="_top" xlink:title=" ">
<polygon fill="white" stroke="#bfbfbf" points="192.5,-172.5 192.5,-273.5 344.5,-273.5 344.5,-172.5 192.5,-172.5"/>
<text text-anchor="start" x="200.5" y="-261.5" font-family="Helvetica,sans-Serif" font-size="10.00">pocketmine\item\ItemBlock</text>
<text text-anchor="middle" x="268.5" y="-250.5" font-family="Helvetica,sans-Serif" font-size="10.00">WallOrFloor</text>
<polyline fill="none" stroke="#bfbfbf" points="192.5,-243.5 344.5,-243.5 "/>
<text text-anchor="middle" x="268.5" y="-231.5" font-family="Helvetica,sans-Serif" font-size="10.00"> </text>
<polyline fill="none" stroke="#bfbfbf" points="192.5,-224.5 344.5,-224.5 "/>
<text text-anchor="start" x="200.5" y="-212.5" font-family="Helvetica,sans-Serif" font-size="10.00">+ __construct()</text>
<text text-anchor="start" x="200.5" y="-201.5" font-family="Helvetica,sans-Serif" font-size="10.00">+ getBlock()</text>
<text text-anchor="start" x="200.5" y="-190.5" font-family="Helvetica,sans-Serif" font-size="10.00">+ getFuelTime()</text>
<text text-anchor="start" x="200.5" y="-179.5" font-family="Helvetica,sans-Serif" font-size="10.00">+ getMaxStackSize()</text>
</a>
</g>
</g>
<!-- Node2&#45;&gt;Node1 -->
<g id="edge1" class="edge">
<title>Node2&#45;&gt;Node1</title>
<path fill="none" stroke="midnightblue" d="M298.1,-163C302.76,-153.7 307.62,-144.02 312.36,-134.57"/>
<polygon fill="none" stroke="midnightblue" points="294.86,-161.66 293.5,-172.16 301.11,-164.79 294.86,-161.66"/>
</g>
<!-- Node3 -->
<g id="node3" class="node">
<title>Node3</title>
<g id="a_node3"><a xlink:href="../../d5/d8a/classpocketmine_1_1item_1_1_item.html" target="_top" xlink:title=" ">
<polygon fill="white" stroke="#bfbfbf" points="113.5,-343.5 113.5,-620.5 271.5,-620.5 271.5,-343.5 113.5,-343.5"/>
<text text-anchor="middle" x="192.5" y="-608.5" font-family="Helvetica,sans-Serif" font-size="10.00">pocketmine\item\Item</text>
<polyline fill="none" stroke="#bfbfbf" points="113.5,-601.5 271.5,-601.5 "/>
<text text-anchor="start" x="121.5" y="-589.5" font-family="Helvetica,sans-Serif" font-size="10.00"># $canDestroy</text>
<text text-anchor="start" x="121.5" y="-578.5" font-family="Helvetica,sans-Serif" font-size="10.00"># $canPlaceOn</text>
<text text-anchor="start" x="121.5" y="-567.5" font-family="Helvetica,sans-Serif" font-size="10.00"># $count</text>
<text text-anchor="start" x="121.5" y="-556.5" font-family="Helvetica,sans-Serif" font-size="10.00"># $customName</text>
<text text-anchor="start" x="121.5" y="-545.5" font-family="Helvetica,sans-Serif" font-size="10.00"># $keepOnDeath</text>
<text text-anchor="start" x="121.5" y="-534.5" font-family="Helvetica,sans-Serif" font-size="10.00"># $lore</text>
<polyline fill="none" stroke="#bfbfbf" points="113.5,-527.5 271.5,-527.5 "/>
<text text-anchor="start" x="121.5" y="-515.5" font-family="Helvetica,sans-Serif" font-size="10.00">+ __construct()</text>
<text text-anchor="start" x="121.5" y="-504.5" font-family="Helvetica,sans-Serif" font-size="10.00">+ __clone()</text>
<text text-anchor="start" x="121.5" y="-493.5" font-family="Helvetica,sans-Serif" font-size="10.00">+ __toString()</text>
<text text-anchor="start" x="121.5" y="-482.5" font-family="Helvetica,sans-Serif" font-size="10.00">+ canBePlaced()</text>
<text text-anchor="start" x="121.5" y="-471.5" font-family="Helvetica,sans-Serif" font-size="10.00">+ canStackWith()</text>
<text text-anchor="start" x="121.5" y="-460.5" font-family="Helvetica,sans-Serif" font-size="10.00">+ clearCustomBlockData()</text>
<text text-anchor="start" x="121.5" y="-449.5" font-family="Helvetica,sans-Serif" font-size="10.00">+ clearCustomName()</text>
<text text-anchor="start" x="121.5" y="-438.5" font-family="Helvetica,sans-Serif" font-size="10.00">+ clearNamedTag()</text>
<text text-anchor="start" x="121.5" y="-427.5" font-family="Helvetica,sans-Serif" font-size="10.00">+ equals()</text>
<text text-anchor="start" x="121.5" y="-416.5" font-family="Helvetica,sans-Serif" font-size="10.00">+ equalsExact()</text>
<text text-anchor="start" x="121.5" y="-405.5" font-family="Helvetica,sans-Serif" font-size="10.00">and 47 more...</text>
<text text-anchor="start" x="121.5" y="-394.5" font-family="Helvetica,sans-Serif" font-size="10.00">+ legacyJsonDeserialize()</text>
<text text-anchor="start" x="121.5" y="-383.5" font-family="Helvetica,sans-Serif" font-size="10.00">+ nbtDeserialize()</text>
<text text-anchor="start" x="121.5" y="-372.5" font-family="Helvetica,sans-Serif" font-size="10.00"># describeState()</text>
<text text-anchor="start" x="121.5" y="-361.5" font-family="Helvetica,sans-Serif" font-size="10.00"># deserializeCompoundTag()</text>
<text text-anchor="start" x="121.5" y="-350.5" font-family="Helvetica,sans-Serif" font-size="10.00"># serializeCompoundTag()</text>
</a>
</g>
</g>
<!-- Node3&#45;&gt;Node2 -->
<g id="edge2" class="edge">
<title>Node3&#45;&gt;Node2</title>
<path fill="none" stroke="midnightblue" d="M236.03,-333.81C242.44,-312.14 248.63,-291.19 253.86,-273.5"/>
<polygon fill="none" stroke="midnightblue" points="232.65,-332.89 233.17,-343.47 239.36,-334.87 232.65,-332.89"/>
</g>
<!-- Node4 -->
<g id="node4" class="node">
<title>Node4</title>
<g id="a_node4"><a xlink:title=" ">
<polygon fill="white" stroke="#bfbfbf" points="10.5,-811.5 10.5,-868.5 104.5,-868.5 104.5,-811.5 10.5,-811.5"/>
<text text-anchor="middle" x="57.5" y="-856.5" font-family="Helvetica,sans-Serif" font-size="10.00">JsonSerializable</text>
<polyline fill="none" stroke="#bfbfbf" points="10.5,-849.5 104.5,-849.5 "/>
<text text-anchor="middle" x="57.5" y="-837.5" font-family="Helvetica,sans-Serif" font-size="10.00"> </text>
<polyline fill="none" stroke="#bfbfbf" points="10.5,-830.5 104.5,-830.5 "/>
<text text-anchor="middle" x="57.5" y="-818.5" font-family="Helvetica,sans-Serif" font-size="10.00"> </text>
</a>
</g>
</g>
<!-- Node4&#45;&gt;Node3 -->
<g id="edge3" class="edge">
<title>Node4&#45;&gt;Node3</title>
<path fill="none" stroke="midnightblue" d="M71.04,-801.79C85.72,-761.57 109.96,-695.62 131.5,-639 133.78,-633.02 136.11,-626.92 138.48,-620.75"/>
<polygon fill="none" stroke="midnightblue" points="67.65,-800.85 67.52,-811.44 74.23,-803.25 67.65,-800.85"/>
</g>
<!-- Node5 -->
<g id="node5" class="node">
<title>Node5</title>
<g id="a_node5"><a xlink:title=" ">
<polygon fill="white" stroke="#bfbfbf" points="295,-811.5 295,-868.5 338,-868.5 338,-811.5 295,-811.5"/>
<text text-anchor="middle" x="316.5" y="-856.5" font-family="Helvetica,sans-Serif" font-size="10.00">const</text>
<polyline fill="none" stroke="#bfbfbf" points="295,-849.5 338,-849.5 "/>
<text text-anchor="middle" x="316.5" y="-837.5" font-family="Helvetica,sans-Serif" font-size="10.00"> </text>
<polyline fill="none" stroke="#bfbfbf" points="295,-830.5 338,-830.5 "/>
<text text-anchor="middle" x="316.5" y="-818.5" font-family="Helvetica,sans-Serif" font-size="10.00"> </text>
</a>
</g>
</g>
<!-- Node5&#45;&gt;Node1 -->
<g id="edge9" class="edge">
<title>Node5&#45;&gt;Node1</title>
<path fill="none" stroke="#404040" d="M335.07,-811.46C351.48,-785.35 374.21,-744.36 383.5,-705 429.97,-508.13 390.74,-268.03 364.48,-146.7"/>
<polygon fill="none" stroke="#404040" points="364.4,-146.35 359.21,-141.35 361.82,-134.63 367.02,-139.63 364.4,-146.35"/>
<text text-anchor="middle" x="451.5" y="-317" font-family="Helvetica,sans-Serif" font-size="10.00"> +TAG_PATTERNS</text>
<text text-anchor="middle" x="451.5" y="-306" font-family="Helvetica,sans-Serif" font-size="10.00">+TAG_PATTERN_COLOR</text>
<text text-anchor="middle" x="451.5" y="-295" font-family="Helvetica,sans-Serif" font-size="10.00">+TAG_PATTERN_NAME</text>
</g>
<!-- Node5&#45;&gt;Node3 -->
<g id="edge4" class="edge">
<title>Node5&#45;&gt;Node3</title>
<path fill="none" stroke="#404040" d="M300.46,-811.29C285.61,-784.72 263.74,-743.13 249.5,-705 240.85,-681.83 233.03,-656.83 226.16,-632.24"/>
<polygon fill="none" stroke="#404040" points="226.15,-632.17 220.7,-627.45 222.97,-620.6 228.42,-625.33 226.15,-632.17"/>
<text text-anchor="middle" x="316.5" y="-697" font-family="Helvetica,sans-Serif" font-size="10.00"> +TAG_BLOCK_ENTITY_TAG</text>
<text text-anchor="middle" x="316.5" y="-686" font-family="Helvetica,sans-Serif" font-size="10.00">+TAG_DISPLAY</text>
<text text-anchor="middle" x="316.5" y="-675" font-family="Helvetica,sans-Serif" font-size="10.00">+TAG_DISPLAY_LORE</text>
<text text-anchor="middle" x="316.5" y="-664" font-family="Helvetica,sans-Serif" font-size="10.00">+TAG_DISPLAY_NAME</text>
<text text-anchor="middle" x="316.5" y="-653" font-family="Helvetica,sans-Serif" font-size="10.00">+TAG_ENCH</text>
<text text-anchor="middle" x="316.5" y="-642" font-family="Helvetica,sans-Serif" font-size="10.00">+TAG_KEEP_ON_DEATH</text>
</g>
<!-- Node6 -->
<g id="node6" class="node">
<title>Node6</title>
<g id="a_node6"><a xlink:href="../../de/d67/classpocketmine_1_1nbt_1_1tag_1_1_compound_tag.html" target="_top" xlink:title=" ">
<polygon fill="white" stroke="black" points="122.5,-723.5 122.5,-956.5 242.5,-956.5 242.5,-723.5 122.5,-723.5"/>
<text text-anchor="start" x="130.5" y="-944.5" font-family="Helvetica,sans-Serif" font-size="10.00">pocketmine\nbt\tag</text>
<text text-anchor="middle" x="182.5" y="-933.5" font-family="Helvetica,sans-Serif" font-size="10.00">\CompoundTag</text>
<polyline fill="none" stroke="black" points="122.5,-926.5 242.5,-926.5 "/>
<text text-anchor="middle" x="182.5" y="-914.5" font-family="Helvetica,sans-Serif" font-size="10.00"> </text>
<polyline fill="none" stroke="black" points="122.5,-907.5 242.5,-907.5 "/>
<text text-anchor="start" x="130.5" y="-895.5" font-family="Helvetica,sans-Serif" font-size="10.00">+ __construct()</text>
<text text-anchor="start" x="130.5" y="-884.5" font-family="Helvetica,sans-Serif" font-size="10.00">+ __clone()</text>
<text text-anchor="start" x="130.5" y="-873.5" font-family="Helvetica,sans-Serif" font-size="10.00">+ count()</text>
<text text-anchor="start" x="130.5" y="-862.5" font-family="Helvetica,sans-Serif" font-size="10.00">+ equals()</text>
<text text-anchor="start" x="130.5" y="-851.5" font-family="Helvetica,sans-Serif" font-size="10.00">+ getByte()</text>
<text text-anchor="start" x="130.5" y="-840.5" font-family="Helvetica,sans-Serif" font-size="10.00">+ getByteArray()</text>
<text text-anchor="start" x="130.5" y="-829.5" font-family="Helvetica,sans-Serif" font-size="10.00">+ getCompoundTag()</text>
<text text-anchor="start" x="130.5" y="-818.5" font-family="Helvetica,sans-Serif" font-size="10.00">+ getCount()</text>
<text text-anchor="start" x="130.5" y="-807.5" font-family="Helvetica,sans-Serif" font-size="10.00">+ getDouble()</text>
<text text-anchor="start" x="130.5" y="-796.5" font-family="Helvetica,sans-Serif" font-size="10.00">+ getFloat()</text>
<text text-anchor="start" x="130.5" y="-785.5" font-family="Helvetica,sans-Serif" font-size="10.00">and 23 more...</text>
<text text-anchor="start" x="130.5" y="-774.5" font-family="Helvetica,sans-Serif" font-size="10.00">+ create()</text>
<text text-anchor="start" x="130.5" y="-763.5" font-family="Helvetica,sans-Serif" font-size="10.00">+ read()</text>
<text text-anchor="start" x="130.5" y="-752.5" font-family="Helvetica,sans-Serif" font-size="10.00"># getTypeName()</text>
<text text-anchor="start" x="130.5" y="-741.5" font-family="Helvetica,sans-Serif" font-size="10.00"># makeCopy()</text>
<text text-anchor="start" x="130.5" y="-730.5" font-family="Helvetica,sans-Serif" font-size="10.00"># stringifyValue()</text>
</a>
</g>
</g>
<!-- Node6&#45;&gt;Node3 -->
<g id="edge5" class="edge">
<title>Node6&#45;&gt;Node3</title>
<path fill="none" stroke="#404040" d="M141.12,-723.37C139.71,-717.21 138.49,-711.05 137.5,-705 133.65,-681.45 134.64,-656.72 138.41,-632.67"/>
<polygon fill="none" stroke="#404040" points="138.46,-632.36 135.57,-625.76 140.55,-620.54 143.44,-627.15 138.46,-632.36"/>
<text text-anchor="middle" x="182" y="-669.5" font-family="Helvetica,sans-Serif" font-size="10.00"> #$blockEntityTag</text>
</g>
<!-- Node7 -->
<g id="node7" class="node">
<title>Node7</title>
<g id="a_node7"><a xlink:href="../../dc/d26/classpocketmine_1_1nbt_1_1tag_1_1_tag.html" target="_top" xlink:title=" ">
<polygon fill="white" stroke="#bfbfbf" points="0,-994.5 0,-1161.5 131,-1161.5 131,-994.5 0,-994.5"/>
<text text-anchor="middle" x="65.5" y="-1149.5" font-family="Helvetica,sans-Serif" font-size="10.00">pocketmine\nbt\tag\Tag</text>
<polyline fill="none" stroke="#bfbfbf" points="0,-1142.5 131,-1142.5 "/>
<text text-anchor="start" x="8" y="-1130.5" font-family="Helvetica,sans-Serif" font-size="10.00"># $cloning</text>
<polyline fill="none" stroke="#bfbfbf" points="0,-1123.5 131,-1123.5 "/>
<text text-anchor="start" x="8" y="-1111.5" font-family="Helvetica,sans-Serif" font-size="10.00">+ __toString()</text>
<text text-anchor="start" x="8" y="-1100.5" font-family="Helvetica,sans-Serif" font-size="10.00">+ equals()</text>
<text text-anchor="start" x="8" y="-1089.5" font-family="Helvetica,sans-Serif" font-size="10.00">+ getType()</text>
<text text-anchor="start" x="8" y="-1078.5" font-family="Helvetica,sans-Serif" font-size="10.00">+ getValue()</text>
<text text-anchor="start" x="8" y="-1067.5" font-family="Helvetica,sans-Serif" font-size="10.00">+ safeClone()</text>
<text text-anchor="start" x="8" y="-1056.5" font-family="Helvetica,sans-Serif" font-size="10.00">+ toString()</text>
<text text-anchor="start" x="8" y="-1045.5" font-family="Helvetica,sans-Serif" font-size="10.00">+ write()</text>
<text text-anchor="start" x="8" y="-1034.5" font-family="Helvetica,sans-Serif" font-size="10.00"># getTypeName()</text>
<text text-anchor="start" x="8" y="-1023.5" font-family="Helvetica,sans-Serif" font-size="10.00"># makeCopy()</text>
<text text-anchor="start" x="8" y="-1012.5" font-family="Helvetica,sans-Serif" font-size="10.00"># stringifyValue()</text>
<text text-anchor="start" x="8" y="-1001.5" font-family="Helvetica,sans-Serif" font-size="10.00"># restrictArgCount()</text>
</a>
</g>
</g>
<!-- Node7&#45;&gt;Node6 -->
<g id="edge6" class="edge">
<title>Node7&#45;&gt;Node6</title>
<path fill="none" stroke="midnightblue" d="M110.87,-985.48C115.55,-976.04 120.35,-966.35 125.15,-956.69"/>
<polygon fill="none" stroke="midnightblue" points="107.73,-983.94 106.42,-994.46 114,-987.05 107.73,-983.94"/>
</g>
<!-- Node8 -->
<g id="node8" class="node">
<title>Node8</title>
<g id="a_node8"><a xlink:title=" ">
<polygon fill="white" stroke="#bfbfbf" points="149.5,-1049.5 149.5,-1106.5 215.5,-1106.5 215.5,-1049.5 149.5,-1049.5"/>
<text text-anchor="middle" x="182.5" y="-1094.5" font-family="Helvetica,sans-Serif" font-size="10.00">Countable</text>
<polyline fill="none" stroke="#bfbfbf" points="149.5,-1087.5 215.5,-1087.5 "/>
<text text-anchor="middle" x="182.5" y="-1075.5" font-family="Helvetica,sans-Serif" font-size="10.00"> </text>
<polyline fill="none" stroke="#bfbfbf" points="149.5,-1068.5 215.5,-1068.5 "/>
<text text-anchor="middle" x="182.5" y="-1056.5" font-family="Helvetica,sans-Serif" font-size="10.00"> </text>
</a>
</g>
</g>
<!-- Node8&#45;&gt;Node6 -->
<g id="edge7" class="edge">
<title>Node8&#45;&gt;Node6</title>
<path fill="none" stroke="midnightblue" d="M182.5,-1039.32C182.5,-1016.7 182.5,-986.6 182.5,-956.69"/>
<polygon fill="none" stroke="midnightblue" points="179,-1039.47 182.5,-1049.47 186,-1039.47 179,-1039.47"/>
</g>
<!-- Node9 -->
<g id="node9" class="node">
<title>Node9</title>
<g id="a_node9"><a xlink:title=" ">
<polygon fill="white" stroke="#bfbfbf" points="234,-1049.5 234,-1106.5 337,-1106.5 337,-1049.5 234,-1049.5"/>
<text text-anchor="middle" x="285.5" y="-1094.5" font-family="Helvetica,sans-Serif" font-size="10.00">IteratorAggregate</text>
<polyline fill="none" stroke="#bfbfbf" points="234,-1087.5 337,-1087.5 "/>
<text text-anchor="middle" x="285.5" y="-1075.5" font-family="Helvetica,sans-Serif" font-size="10.00"> </text>
<polyline fill="none" stroke="#bfbfbf" points="234,-1068.5 337,-1068.5 "/>
<text text-anchor="middle" x="285.5" y="-1056.5" font-family="Helvetica,sans-Serif" font-size="10.00"> </text>
</a>
</g>
</g>
<!-- Node9&#45;&gt;Node6 -->
<g id="edge8" class="edge">
<title>Node9&#45;&gt;Node6</title>
<path fill="none" stroke="midnightblue" d="M269.45,-1040.23C259.54,-1017.52 246.22,-987 232.99,-956.69"/>
<polygon fill="none" stroke="midnightblue" points="266.28,-1041.7 273.48,-1049.47 272.69,-1038.9 266.28,-1041.7"/>
</g>
</g>
</svg>
