<?xml version="1.0" encoding="UTF-8" standalone="no"?>
<!DOCTYPE svg PUBLIC "-//W3C//DTD SVG 1.1//EN"
 "http://www.w3.org/Graphics/SVG/1.1/DTD/svg11.dtd">
<!-- Generated by graphviz version 2.43.0 (0)
 -->
<!-- Title: pocketmine\event\player\PlayerBedEnterEvent Pages: 1 -->
<svg width="316pt" height="294pt"
 viewBox="0.00 0.00 316.00 294.00" xmlns="http://www.w3.org/2000/svg" xmlns:xlink="http://www.w3.org/1999/xlink">

<svg id="main" version="1.1" xmlns="http://www.w3.org/2000/svg" xmlns:xlink="http://www.w3.org/1999/xlink" xml:space="preserve">

<style type="text/css"><![CDATA[
.node, .edge {opacity: 0.7;}
.node.selected, .edge.selected {opacity: 1;}
.edge:hover path { stroke: red; }
.edge:hover polygon { stroke: red; fill: red; }
]]></style>
<script type="application/ecmascript" xlink:href="../../svg.min.js"/>
<svg id="graph" class="graph">
<g id="graph0" class="graph" transform="scale(1 1) rotate(0) translate(4 290)">
<title>pocketmine\event\player\PlayerBedEnterEvent</title>
<!-- Node1 -->
<g id="Node000001" class="node">
<title>Node1</title>
<g id="a_Node000001"><a xlink:title=" ">
<polygon fill="#999999" stroke="transparent" points="213,-75 81,-75 81,0 213,0 213,-75"/>
<text text-anchor="start" x="86" y="-62.5" font-family="Helvetica,sans-Serif" font-size="10.00">pocketmine\event\player</text>
<text text-anchor="start" x="94" y="-51.5" font-family="Helvetica,sans-Serif" font-size="10.00">\PlayerBedEnterEvent</text>
<text text-anchor="start" x="145" y="-36.5" font-family="Helvetica,sans-Serif" font-size="10.00"> </text>
<text text-anchor="start" x="96.5" y="-21.5" font-family="Helvetica,sans-Serif" font-size="10.00">+</text>
<text text-anchor="start" x="121" y="-21.5" font-family="Helvetica,sans-Serif" font-size="10.00">__construct()</text>
<text text-anchor="start" x="96.5" y="-6.5" font-family="Helvetica,sans-Serif" font-size="10.00">+</text>
<text text-anchor="start" x="121" y="-6.5" font-family="Helvetica,sans-Serif" font-size="10.00">getBed()</text>
<polygon fill="#666666" stroke="#666666" points="81,-46.5 81,-46.5 213,-46.5 213,-46.5 81,-46.5"/>
<polygon fill="#666666" stroke="#666666" points="81,-31.5 81,-31.5 213,-31.5 213,-31.5 81,-31.5"/>
<polygon fill="none" stroke="#666666" points="81,0 81,-75 213,-75 213,0 81,0"/>
</a>
</g>
</g>
<!-- Node2 -->
<g id="Node000002" class="node">
<title>Node2</title>
<g id="a_Node000002"><a xlink:href="../../d1/db1/classpocketmine_1_1event_1_1player_1_1_player_event.html" target="_top" xlink:title=" ">
<polygon fill="white" stroke="transparent" points="132,-171 0,-171 0,-111 132,-111 132,-171"/>
<text text-anchor="start" x="5" y="-159" font-family="Helvetica,sans-Serif" font-size="10.00">pocketmine\event\player</text>
<text text-anchor="start" x="35" y="-148" font-family="Helvetica,sans-Serif" font-size="10.00">\PlayerEvent</text>
<text text-anchor="start" x="18" y="-133" font-family="Helvetica,sans-Serif" font-size="10.00">#</text>
<text text-anchor="start" x="45" y="-133" font-family="Helvetica,sans-Serif" font-size="10.00">$player</text>
<text text-anchor="start" x="18" y="-118" font-family="Helvetica,sans-Serif" font-size="10.00">+</text>
<text text-anchor="start" x="45" y="-118" font-family="Helvetica,sans-Serif" font-size="10.00">getPlayer()</text>
<polygon fill="#bfbfbf" stroke="#bfbfbf" points="0,-143 0,-143 132,-143 132,-143 0,-143"/>
<polygon fill="#bfbfbf" stroke="#bfbfbf" points="0,-128 0,-128 43,-128 43,-128 0,-128"/>
<polygon fill="#bfbfbf" stroke="#bfbfbf" points="43,-128 43,-128 132,-128 132,-128 43,-128"/>
<polygon fill="none" stroke="#bfbfbf" points="0,-111 0,-171 132,-171 132,-111 0,-111"/>
</a>
</g>
</g>
<!-- Node2&#45;&gt;Node1 -->
<g id="edge1_Node000001_Node000002" class="edge">
<title>Node2&#45;&gt;Node1</title>
<g id="a_edge1_Node000001_Node000002"><a xlink:title=" ">
<path fill="none" stroke="#63b8ff" d="M95.65,-102.84C102.85,-93.82 110.54,-84.19 117.72,-75.19"/>
<polygon fill="none" stroke="#63b8ff" points="92.71,-100.91 89.21,-110.91 98.18,-105.28 92.71,-100.91"/>
</a>
</g>
</g>
<!-- Node3 -->
<g id="Node000003" class="node">
<title>Node3</title>
<g id="a_Node000003"><a xlink:href="../../d1/d2f/classpocketmine_1_1event_1_1_event.html" target="_top" xlink:title=" ">
<polygon fill="white" stroke="transparent" points="130.5,-286 1.5,-286 1.5,-207 130.5,-207 130.5,-286"/>
<text text-anchor="start" x="7" y="-273.5" font-family="Helvetica,sans-Serif" font-size="10.00">pocketmine\event\Event</text>
<text text-anchor="start" x="12.5" y="-258.5" font-family="Helvetica,sans-Serif" font-size="10.00">#</text>
<text text-anchor="start" x="32" y="-258.5" font-family="Helvetica,sans-Serif" font-size="10.00">$eventName</text>
<text text-anchor="start" x="12.5" y="-243.5" font-family="Helvetica,sans-Serif" font-size="10.00">+</text>
<text text-anchor="start" x="32" y="-243.5" font-family="Helvetica,sans-Serif" font-size="10.00">call()</text>
<text text-anchor="start" x="12.5" y="-228.5" font-family="Helvetica,sans-Serif" font-size="10.00">+</text>
<text text-anchor="start" x="32" y="-228.5" font-family="Helvetica,sans-Serif" font-size="10.00">getEventName()</text>
<text text-anchor="start" x="12.5" y="-213.5" font-family="Helvetica,sans-Serif" font-size="10.00">+</text>
<text text-anchor="start" x="32" y="-213.5" font-family="Helvetica,sans-Serif" font-size="10.00">hasHandlers()</text>
<polygon fill="#bfbfbf" stroke="#bfbfbf" points="2,-268.5 2,-268.5 131,-268.5 131,-268.5 2,-268.5"/>
<polygon fill="#bfbfbf" stroke="#bfbfbf" points="2,-253.5 2,-253.5 30,-253.5 30,-253.5 2,-253.5"/>
<polygon fill="#bfbfbf" stroke="#bfbfbf" points="30,-253.5 30,-253.5 131,-253.5 131,-253.5 30,-253.5"/>
<polygon fill="none" stroke="#bfbfbf" points="1.5,-207 1.5,-286 130.5,-286 130.5,-207 1.5,-207"/>
</a>
</g>
</g>
<!-- Node3&#45;&gt;Node2 -->
<g id="edge2_Node000002_Node000003" class="edge">
<title>Node3&#45;&gt;Node2</title>
<g id="a_edge2_Node000002_Node000003"><a xlink:title=" ">
<path fill="none" stroke="#63b8ff" d="M66,-196.8C66,-188.04 66,-179.17 66,-171.19"/>
<polygon fill="none" stroke="#63b8ff" points="62.5,-196.96 66,-206.96 69.5,-196.96 62.5,-196.96"/>
</a>
</g>
</g>
<!-- Node4 -->
<g id="Node000004" class="node">
<title>Node4</title>
<g id="a_Node000004"><a xlink:href="../../db/d62/interfacepocketmine_1_1event_1_1_cancellable.html" target="_top" xlink:title=" ">
<polygon fill="white" stroke="transparent" points="308,-165.5 150,-165.5 150,-116.5 308,-116.5 308,-165.5"/>
<text text-anchor="start" x="155" y="-153" font-family="Helvetica,sans-Serif" font-size="10.00">pocketmine\event\Cancellable</text>
<text text-anchor="start" x="227" y="-138" font-family="Helvetica,sans-Serif" font-size="10.00"> </text>
<text text-anchor="start" x="172" y="-123" font-family="Helvetica,sans-Serif" font-size="10.00">+</text>
<text text-anchor="start" x="203" y="-123" font-family="Helvetica,sans-Serif" font-size="10.00">isCancelled()</text>
<polygon fill="#666666" stroke="#666666" points="150,-148 150,-148 308,-148 308,-148 150,-148"/>
<polygon fill="#666666" stroke="#666666" points="150,-133 150,-133 308,-133 308,-133 150,-133"/>
<polygon fill="none" stroke="#666666" points="150,-116.5 150,-165.5 308,-165.5 308,-116.5 150,-116.5"/>
</a>
</g>
</g>
<!-- Node4&#45;&gt;Node1 -->
<g id="edge3_Node000001_Node000004" class="edge">
<title>Node4&#45;&gt;Node1</title>
<g id="a_edge3_Node000001_Node000004"><a xlink:title=" ">
<path fill="none" stroke="#63b8ff" d="M203.66,-108.63C195.07,-98 185.4,-86.03 176.52,-75.04"/>
<polygon fill="none" stroke="#63b8ff" points="200.97,-110.88 209.98,-116.46 206.42,-106.48 200.97,-110.88"/>
</a>
</g>
</g>
</g>
</svg>
</svg>

<style type='text/css'>
<![CDATA[
[data-mouse-over-selected='false'] { opacity: 0.7; }
[data-mouse-over-selected='true']  { opacity: 1.0; }
]]>
</style>
<script type="application/ecmascript"><![CDATA[
document.addEventListener('DOMContentLoaded', (event) => {
  highlightEdges();
  highlightAdjacentNodes();
});
]]></script>
</svg>
