<?xml version="1.0" encoding="UTF-8" standalone="no"?>
<!DOCTYPE svg PUBLIC "-//W3C//DTD SVG 1.1//EN"
 "http://www.w3.org/Graphics/SVG/1.1/DTD/svg11.dtd">
<!-- Generated by graphviz version 2.43.0 (0)
 -->
<!-- Title: pocketmine\block\Ladder Pages: 1 -->
<svg width="176pt" height="540pt"
 viewBox="0.00 0.00 176.00 540.00" xmlns="http://www.w3.org/2000/svg" xmlns:xlink="http://www.w3.org/1999/xlink">
<g id="graph0" class="graph" transform="scale(1 1) rotate(0) translate(4 536)">
<title>pocketmine\block\Ladder</title>
<polygon fill="white" stroke="transparent" points="-4,4 -4,-536 172,-536 172,4 -4,4"/>
<!-- Node1 -->
<g id="node1" class="node">
<title>Node1</title>
<g id="a_node1"><a xlink:title=" ">
<polygon fill="#bfbfbf" stroke="black" points="3.5,-0.5 3.5,-123.5 164.5,-123.5 164.5,-0.5 3.5,-0.5"/>
<text text-anchor="middle" x="84" y="-111.5" font-family="Helvetica,sans-Serif" font-size="10.00">pocketmine\block\Ladder</text>
<polyline fill="none" stroke="black" points="3.5,-104.5 164.5,-104.5 "/>
<text text-anchor="middle" x="84" y="-92.5" font-family="Helvetica,sans-Serif" font-size="10.00"> </text>
<polyline fill="none" stroke="black" points="3.5,-85.5 164.5,-85.5 "/>
<text text-anchor="start" x="11.5" y="-73.5" font-family="Helvetica,sans-Serif" font-size="10.00">+ canClimb()</text>
<text text-anchor="start" x="11.5" y="-62.5" font-family="Helvetica,sans-Serif" font-size="10.00">+ hasEntityCollision()</text>
<text text-anchor="start" x="11.5" y="-51.5" font-family="Helvetica,sans-Serif" font-size="10.00">+ isSolid()</text>
<text text-anchor="start" x="11.5" y="-40.5" font-family="Helvetica,sans-Serif" font-size="10.00">+ onEntityInside()</text>
<text text-anchor="start" x="11.5" y="-29.5" font-family="Helvetica,sans-Serif" font-size="10.00">+ onNearbyBlockChange()</text>
<text text-anchor="start" x="11.5" y="-18.5" font-family="Helvetica,sans-Serif" font-size="10.00">+ place()</text>
<text text-anchor="start" x="11.5" y="-7.5" font-family="Helvetica,sans-Serif" font-size="10.00"># recalculateCollisionBoxes()</text>
</a>
</g>
</g>
<!-- Node2 -->
<g id="node2" class="node">
<title>Node2</title>
<g id="a_node2"><a xlink:href="../../d5/d1b/classpocketmine_1_1block_1_1_transparent.html" target="_top" xlink:title=" ">
<polygon fill="white" stroke="#bfbfbf" points="2.5,-160.5 2.5,-217.5 165.5,-217.5 165.5,-160.5 2.5,-160.5"/>
<text text-anchor="middle" x="84" y="-205.5" font-family="Helvetica,sans-Serif" font-size="10.00">pocketmine\block\Transparent</text>
<polyline fill="none" stroke="#bfbfbf" points="2.5,-198.5 165.5,-198.5 "/>
<text text-anchor="middle" x="84" y="-186.5" font-family="Helvetica,sans-Serif" font-size="10.00"> </text>
<polyline fill="none" stroke="#bfbfbf" points="2.5,-179.5 165.5,-179.5 "/>
<text text-anchor="start" x="10.5" y="-167.5" font-family="Helvetica,sans-Serif" font-size="10.00">+ isTransparent()</text>
</a>
</g>
</g>
<!-- Node2&#45;&gt;Node1 -->
<g id="edge1" class="edge">
<title>Node2&#45;&gt;Node1</title>
<path fill="none" stroke="midnightblue" d="M84,-150.1C84,-141.74 84,-132.68 84,-123.67"/>
<polygon fill="none" stroke="midnightblue" points="80.5,-150.26 84,-160.26 87.5,-150.26 80.5,-150.26"/>
</g>
<!-- Node3 -->
<g id="node3" class="node">
<title>Node3</title>
<g id="a_node3"><a xlink:href="../../d7/d27/classpocketmine_1_1block_1_1_block.html" target="_top" xlink:title=" ">
<polygon fill="white" stroke="#bfbfbf" points="0,-254.5 0,-531.5 168,-531.5 168,-254.5 0,-254.5"/>
<text text-anchor="middle" x="84" y="-519.5" font-family="Helvetica,sans-Serif" font-size="10.00">pocketmine\block\Block</text>
<polyline fill="none" stroke="#bfbfbf" points="0,-512.5 168,-512.5 "/>
<text text-anchor="start" x="8" y="-500.5" font-family="Helvetica,sans-Serif" font-size="10.00">+ INTERNAL_METADATA_BITS</text>
<text text-anchor="start" x="8" y="-489.5" font-family="Helvetica,sans-Serif" font-size="10.00">+ INTERNAL_METADATA_MASK</text>
<text text-anchor="start" x="8" y="-478.5" font-family="Helvetica,sans-Serif" font-size="10.00"># $breakInfo</text>
<text text-anchor="start" x="8" y="-467.5" font-family="Helvetica,sans-Serif" font-size="10.00"># $collisionBoxes</text>
<text text-anchor="start" x="8" y="-456.5" font-family="Helvetica,sans-Serif" font-size="10.00"># $fallbackName</text>
<text text-anchor="start" x="8" y="-445.5" font-family="Helvetica,sans-Serif" font-size="10.00"># $idInfo</text>
<text text-anchor="start" x="8" y="-434.5" font-family="Helvetica,sans-Serif" font-size="10.00"># $position</text>
<polyline fill="none" stroke="#bfbfbf" points="0,-427.5 168,-427.5 "/>
<text text-anchor="start" x="8" y="-415.5" font-family="Helvetica,sans-Serif" font-size="10.00">+ __construct()</text>
<text text-anchor="start" x="8" y="-404.5" font-family="Helvetica,sans-Serif" font-size="10.00">+ __clone()</text>
<text text-anchor="start" x="8" y="-393.5" font-family="Helvetica,sans-Serif" font-size="10.00">+ __toString()</text>
<text text-anchor="start" x="8" y="-382.5" font-family="Helvetica,sans-Serif" font-size="10.00">+ addVelocityToEntity()</text>
<text text-anchor="start" x="8" y="-371.5" font-family="Helvetica,sans-Serif" font-size="10.00">+ asItem()</text>
<text text-anchor="start" x="8" y="-360.5" font-family="Helvetica,sans-Serif" font-size="10.00">+ blocksDirectSkyLight()</text>
<text text-anchor="start" x="8" y="-349.5" font-family="Helvetica,sans-Serif" font-size="10.00">+ burnsForever()</text>
<text text-anchor="start" x="8" y="-338.5" font-family="Helvetica,sans-Serif" font-size="10.00">+ calculateIntercept()</text>
<text text-anchor="start" x="8" y="-327.5" font-family="Helvetica,sans-Serif" font-size="10.00">+ canBeFlowedInto()</text>
<text text-anchor="start" x="8" y="-316.5" font-family="Helvetica,sans-Serif" font-size="10.00">+ canBePlaced()</text>
<text text-anchor="start" x="8" y="-305.5" font-family="Helvetica,sans-Serif" font-size="10.00">and 56 more...</text>
<text text-anchor="start" x="8" y="-294.5" font-family="Helvetica,sans-Serif" font-size="10.00"># getXpDropAmount()</text>
<text text-anchor="start" x="8" y="-283.5" font-family="Helvetica,sans-Serif" font-size="10.00"># recalculateCollisionBoxes()</text>
<text text-anchor="start" x="8" y="-272.5" font-family="Helvetica,sans-Serif" font-size="10.00"># writeStateToItemMeta()</text>
<text text-anchor="start" x="8" y="-261.5" font-family="Helvetica,sans-Serif" font-size="10.00"># writeStateToMeta()</text>
</a>
</g>
</g>
<!-- Node3&#45;&gt;Node2 -->
<g id="edge2" class="edge">
<title>Node3&#45;&gt;Node2</title>
<path fill="none" stroke="midnightblue" d="M84,-244.41C84,-234.59 84,-225.52 84,-217.71"/>
<polygon fill="none" stroke="midnightblue" points="80.5,-244.47 84,-254.47 87.5,-244.47 80.5,-244.47"/>
</g>
</g>
</svg>
