<?xml version="1.0" encoding="UTF-8" standalone="no"?>
<!DOCTYPE svg PUBLIC "-//W3C//DTD SVG 1.1//EN"
 "http://www.w3.org/Graphics/SVG/1.1/DTD/svg11.dtd">
<!-- Generated by graphviz version 2.43.0 (0)
 -->
<!-- Title: pocketmine\network\mcpe\protocol\serializer\NetworkNbtSerializer Pages: 1 -->
<svg width="310pt" height="845pt"
 viewBox="0.00 0.00 310.00 845.00" xmlns="http://www.w3.org/2000/svg" xmlns:xlink="http://www.w3.org/1999/xlink">
<g id="graph0" class="graph" transform="scale(1 1) rotate(0) translate(4 841)">
<title>pocketmine\network\mcpe\protocol\serializer\NetworkNbtSerializer</title>
<!-- Node1 -->
<g id="Node000001" class="node">
<title>Node1</title>
<g id="a_Node000001"><a xlink:title=" ">
<polygon fill="#999999" stroke="transparent" points="216.5,-281 85.5,-281 85.5,0 216.5,0 216.5,-281"/>
<text text-anchor="start" x="91" y="-268.5" font-family="Helvetica,sans-Serif" font-size="10.00">pocketmine\network</text>
<text text-anchor="start" x="91" y="-257.5" font-family="Helvetica,sans-Serif" font-size="10.00">\mcpe\protocol\serializer</text>
<text text-anchor="start" x="97.5" y="-246.5" font-family="Helvetica,sans-Serif" font-size="10.00">\NetworkNbtSerializer</text>
<text text-anchor="start" x="149.5" y="-231.5" font-family="Helvetica,sans-Serif" font-size="10.00"> </text>
<text text-anchor="start" x="95.5" y="-216.5" font-family="Helvetica,sans-Serif" font-size="10.00">+</text>
<text text-anchor="start" x="114" y="-216.5" font-family="Helvetica,sans-Serif" font-size="10.00">readDouble()</text>
<text text-anchor="start" x="95.5" y="-201.5" font-family="Helvetica,sans-Serif" font-size="10.00">+</text>
<text text-anchor="start" x="114" y="-201.5" font-family="Helvetica,sans-Serif" font-size="10.00">readFloat()</text>
<text text-anchor="start" x="95.5" y="-186.5" font-family="Helvetica,sans-Serif" font-size="10.00">+</text>
<text text-anchor="start" x="114" y="-186.5" font-family="Helvetica,sans-Serif" font-size="10.00">readInt()</text>
<text text-anchor="start" x="95.5" y="-171.5" font-family="Helvetica,sans-Serif" font-size="10.00">+</text>
<text text-anchor="start" x="114" y="-171.5" font-family="Helvetica,sans-Serif" font-size="10.00">readIntArray()</text>
<text text-anchor="start" x="95.5" y="-156.5" font-family="Helvetica,sans-Serif" font-size="10.00">+</text>
<text text-anchor="start" x="114" y="-156.5" font-family="Helvetica,sans-Serif" font-size="10.00">readLong()</text>
<text text-anchor="start" x="95.5" y="-141.5" font-family="Helvetica,sans-Serif" font-size="10.00">+</text>
<text text-anchor="start" x="114" y="-141.5" font-family="Helvetica,sans-Serif" font-size="10.00">readShort()</text>
<text text-anchor="start" x="95.5" y="-126.5" font-family="Helvetica,sans-Serif" font-size="10.00">+</text>
<text text-anchor="start" x="114" y="-126.5" font-family="Helvetica,sans-Serif" font-size="10.00">readSignedShort()</text>
<text text-anchor="start" x="95.5" y="-111.5" font-family="Helvetica,sans-Serif" font-size="10.00">+</text>
<text text-anchor="start" x="114" y="-111.5" font-family="Helvetica,sans-Serif" font-size="10.00">readString()</text>
<text text-anchor="start" x="95.5" y="-96.5" font-family="Helvetica,sans-Serif" font-size="10.00">+</text>
<text text-anchor="start" x="114" y="-96.5" font-family="Helvetica,sans-Serif" font-size="10.00">writeDouble()</text>
<text text-anchor="start" x="95.5" y="-81.5" font-family="Helvetica,sans-Serif" font-size="10.00">+</text>
<text text-anchor="start" x="114" y="-81.5" font-family="Helvetica,sans-Serif" font-size="10.00">writeFloat()</text>
<text text-anchor="start" x="95.5" y="-66.5" font-family="Helvetica,sans-Serif" font-size="10.00">+</text>
<text text-anchor="start" x="114" y="-66.5" font-family="Helvetica,sans-Serif" font-size="10.00">writeInt()</text>
<text text-anchor="start" x="95.5" y="-51.5" font-family="Helvetica,sans-Serif" font-size="10.00">+</text>
<text text-anchor="start" x="114" y="-51.5" font-family="Helvetica,sans-Serif" font-size="10.00">writeIntArray()</text>
<text text-anchor="start" x="95.5" y="-36.5" font-family="Helvetica,sans-Serif" font-size="10.00">+</text>
<text text-anchor="start" x="114" y="-36.5" font-family="Helvetica,sans-Serif" font-size="10.00">writeLong()</text>
<text text-anchor="start" x="95.5" y="-21.5" font-family="Helvetica,sans-Serif" font-size="10.00">+</text>
<text text-anchor="start" x="114" y="-21.5" font-family="Helvetica,sans-Serif" font-size="10.00">writeShort()</text>
<text text-anchor="start" x="95.5" y="-6.5" font-family="Helvetica,sans-Serif" font-size="10.00">+</text>
<text text-anchor="start" x="114" y="-6.5" font-family="Helvetica,sans-Serif" font-size="10.00">writeString()</text>
<polygon fill="#666666" stroke="#666666" points="86,-241.5 86,-241.5 217,-241.5 217,-241.5 86,-241.5"/>
<polygon fill="#666666" stroke="#666666" points="86,-226.5 86,-226.5 217,-226.5 217,-226.5 86,-226.5"/>
<polygon fill="none" stroke="#666666" points="85.5,0 85.5,-281 216.5,-281 216.5,0 85.5,0"/>
</a>
</g>
</g>
<!-- Node2 -->
<g id="Node000002" class="node">
<title>Node2</title>
<g id="a_Node000002"><a xlink:href="../../de/dc3/classpocketmine_1_1nbt_1_1_base_nbt_serializer.html" target="_top" xlink:title=" ">
<polygon fill="white" stroke="transparent" points="239,-591 63,-591 63,-317 239,-317 239,-591"/>
<text text-anchor="start" x="68" y="-579" font-family="Helvetica,sans-Serif" font-size="10.00">pocketmine\nbt\BaseNbtSerializer</text>
<text text-anchor="start" x="74.5" y="-564" font-family="Helvetica,sans-Serif" font-size="10.00">#</text>
<text text-anchor="start" x="95" y="-564" font-family="Helvetica,sans-Serif" font-size="10.00">$buffer</text>
<text text-anchor="start" x="74.5" y="-549" font-family="Helvetica,sans-Serif" font-size="10.00">+</text>
<text text-anchor="start" x="95" y="-549" font-family="Helvetica,sans-Serif" font-size="10.00">__construct()</text>
<text text-anchor="start" x="74.5" y="-534" font-family="Helvetica,sans-Serif" font-size="10.00">+</text>
<text text-anchor="start" x="95" y="-534" font-family="Helvetica,sans-Serif" font-size="10.00">read()</text>
<text text-anchor="start" x="74.5" y="-519" font-family="Helvetica,sans-Serif" font-size="10.00">+</text>
<text text-anchor="start" x="95" y="-519" font-family="Helvetica,sans-Serif" font-size="10.00">readByte()</text>
<text text-anchor="start" x="74.5" y="-504" font-family="Helvetica,sans-Serif" font-size="10.00">+</text>
<text text-anchor="start" x="95" y="-504" font-family="Helvetica,sans-Serif" font-size="10.00">readByteArray()</text>
<text text-anchor="start" x="74.5" y="-489" font-family="Helvetica,sans-Serif" font-size="10.00">+</text>
<text text-anchor="start" x="95" y="-489" font-family="Helvetica,sans-Serif" font-size="10.00">readHeadless()</text>
<text text-anchor="start" x="74.5" y="-474" font-family="Helvetica,sans-Serif" font-size="10.00">+</text>
<text text-anchor="start" x="95" y="-474" font-family="Helvetica,sans-Serif" font-size="10.00">readMultiple()</text>
<text text-anchor="start" x="74.5" y="-459" font-family="Helvetica,sans-Serif" font-size="10.00">+</text>
<text text-anchor="start" x="95" y="-459" font-family="Helvetica,sans-Serif" font-size="10.00">readSignedByte()</text>
<text text-anchor="start" x="74.5" y="-444" font-family="Helvetica,sans-Serif" font-size="10.00">+</text>
<text text-anchor="start" x="95" y="-444" font-family="Helvetica,sans-Serif" font-size="10.00">readString()</text>
<text text-anchor="start" x="74.5" y="-429" font-family="Helvetica,sans-Serif" font-size="10.00">+</text>
<text text-anchor="start" x="95" y="-429" font-family="Helvetica,sans-Serif" font-size="10.00">write()</text>
<text text-anchor="start" x="74.5" y="-414" font-family="Helvetica,sans-Serif" font-size="10.00">+</text>
<text text-anchor="start" x="95" y="-414" font-family="Helvetica,sans-Serif" font-size="10.00">writeByte()</text>
<text text-anchor="start" x="74.5" y="-399" font-family="Helvetica,sans-Serif" font-size="10.00">+</text>
<text text-anchor="start" x="95" y="-399" font-family="Helvetica,sans-Serif" font-size="10.00">writeByteArray()</text>
<text text-anchor="start" x="74.5" y="-384" font-family="Helvetica,sans-Serif" font-size="10.00">+</text>
<text text-anchor="start" x="95" y="-384" font-family="Helvetica,sans-Serif" font-size="10.00">writeHeadless()</text>
<text text-anchor="start" x="74.5" y="-369" font-family="Helvetica,sans-Serif" font-size="10.00">+</text>
<text text-anchor="start" x="95" y="-369" font-family="Helvetica,sans-Serif" font-size="10.00">writeMultiple()</text>
<text text-anchor="start" x="74.5" y="-354" font-family="Helvetica,sans-Serif" font-size="10.00">+</text>
<text text-anchor="start" x="95" y="-354" font-family="Helvetica,sans-Serif" font-size="10.00">writeString()</text>
<text text-anchor="start" x="74.5" y="-339" font-family="Helvetica,sans-Serif" font-size="10.00">#</text>
<text text-anchor="start" x="95" y="-339" font-family="Helvetica,sans-Serif" font-size="10.00">checkReadStringLength()</text>
<text text-anchor="start" x="74.5" y="-324" font-family="Helvetica,sans-Serif" font-size="10.00">#</text>
<text text-anchor="start" x="95" y="-324" font-family="Helvetica,sans-Serif" font-size="10.00">checkWriteStringLength()</text>
<polygon fill="#666666" stroke="#666666" points="63,-574 63,-574 239,-574 239,-574 63,-574"/>
<polygon fill="#666666" stroke="#666666" points="63,-559 63,-559 93,-559 93,-559 63,-559"/>
<polygon fill="#666666" stroke="#666666" points="93,-559 93,-559 239,-559 239,-559 93,-559"/>
<polygon fill="none" stroke="#666666" points="63,-317 63,-591 239,-591 239,-317 63,-317"/>
</a>
</g>
</g>
<!-- Node2&#45;&gt;Node1 -->
<g id="edge1_Node000001_Node000002" class="edge">
<title>Node2&#45;&gt;Node1</title>
<g id="a_edge1_Node000001_Node000002"><a xlink:title=" ">
<path fill="none" stroke="#63b8ff" d="M151,-306.57C151,-298.15 151,-289.68 151,-281.28"/>
<polygon fill="none" stroke="#63b8ff" points="147.5,-306.82 151,-316.82 154.5,-306.82 147.5,-306.82"/>
</a>
</g>
</g>
<!-- Node3 -->
<g id="Node000003" class="node">
<title>Node3</title>
<g id="a_Node000003"><a xlink:href="../../d1/d97/interfacepocketmine_1_1nbt_1_1_nbt_stream_reader.html" target="_top" xlink:title=" ">
<polygon fill="white" stroke="transparent" points="142,-837 0,-837 0,-627 142,-627 142,-837"/>
<text text-anchor="start" x="5" y="-825" font-family="Helvetica,sans-Serif" font-size="10.00">pocketmine\nbt\NbtStream</text>
<text text-anchor="start" x="53.5" y="-814" font-family="Helvetica,sans-Serif" font-size="10.00">Reader</text>
<text text-anchor="start" x="69" y="-799" font-family="Helvetica,sans-Serif" font-size="10.00"> </text>
<text text-anchor="start" x="12" y="-784" font-family="Helvetica,sans-Serif" font-size="10.00">+</text>
<text text-anchor="start" x="33" y="-784" font-family="Helvetica,sans-Serif" font-size="10.00">readByte()</text>
<text text-anchor="start" x="12" y="-769" font-family="Helvetica,sans-Serif" font-size="10.00">+</text>
<text text-anchor="start" x="33" y="-769" font-family="Helvetica,sans-Serif" font-size="10.00">readByteArray()</text>
<text text-anchor="start" x="12" y="-754" font-family="Helvetica,sans-Serif" font-size="10.00">+</text>
<text text-anchor="start" x="33" y="-754" font-family="Helvetica,sans-Serif" font-size="10.00">readDouble()</text>
<text text-anchor="start" x="12" y="-739" font-family="Helvetica,sans-Serif" font-size="10.00">+</text>
<text text-anchor="start" x="33" y="-739" font-family="Helvetica,sans-Serif" font-size="10.00">readFloat()</text>
<text text-anchor="start" x="12" y="-724" font-family="Helvetica,sans-Serif" font-size="10.00">+</text>
<text text-anchor="start" x="33" y="-724" font-family="Helvetica,sans-Serif" font-size="10.00">readInt()</text>
<text text-anchor="start" x="12" y="-709" font-family="Helvetica,sans-Serif" font-size="10.00">+</text>
<text text-anchor="start" x="33" y="-709" font-family="Helvetica,sans-Serif" font-size="10.00">readIntArray()</text>
<text text-anchor="start" x="12" y="-694" font-family="Helvetica,sans-Serif" font-size="10.00">+</text>
<text text-anchor="start" x="33" y="-694" font-family="Helvetica,sans-Serif" font-size="10.00">readLong()</text>
<text text-anchor="start" x="12" y="-679" font-family="Helvetica,sans-Serif" font-size="10.00">+</text>
<text text-anchor="start" x="33" y="-679" font-family="Helvetica,sans-Serif" font-size="10.00">readShort()</text>
<text text-anchor="start" x="12" y="-664" font-family="Helvetica,sans-Serif" font-size="10.00">+</text>
<text text-anchor="start" x="33" y="-664" font-family="Helvetica,sans-Serif" font-size="10.00">readSignedByte()</text>
<text text-anchor="start" x="12" y="-649" font-family="Helvetica,sans-Serif" font-size="10.00">+</text>
<text text-anchor="start" x="33" y="-649" font-family="Helvetica,sans-Serif" font-size="10.00">readSignedShort()</text>
<text text-anchor="start" x="12" y="-634" font-family="Helvetica,sans-Serif" font-size="10.00">+</text>
<text text-anchor="start" x="33" y="-634" font-family="Helvetica,sans-Serif" font-size="10.00">readString()</text>
<polygon fill="#bfbfbf" stroke="#bfbfbf" points="0,-809 0,-809 142,-809 142,-809 0,-809"/>
<polygon fill="#bfbfbf" stroke="#bfbfbf" points="0,-794 0,-794 142,-794 142,-794 0,-794"/>
<polygon fill="none" stroke="#bfbfbf" points="0,-627 0,-837 142,-837 142,-627 0,-627"/>
</a>
</g>
</g>
<!-- Node3&#45;&gt;Node2 -->
<g id="edge2_Node000002_Node000003" class="edge">
<title>Node3&#45;&gt;Node2</title>
<g id="a_edge2_Node000002_Node000003"><a xlink:title=" ">
<path fill="none" stroke="#63b8ff" d="M104.1,-616.8C106.55,-608.34 109.04,-599.76 111.52,-591.19"/>
<polygon fill="none" stroke="#63b8ff" points="100.67,-616.08 101.24,-626.66 107.39,-618.03 100.67,-616.08"/>
</a>
</g>
</g>
<!-- Node4 -->
<g id="Node000004" class="node">
<title>Node4</title>
<g id="a_Node000004"><a xlink:href="../../d7/d36/interfacepocketmine_1_1nbt_1_1_nbt_stream_writer.html" target="_top" xlink:title=" ">
<polygon fill="white" stroke="transparent" points="302,-822 160,-822 160,-642 302,-642 302,-822"/>
<text text-anchor="start" x="165" y="-810" font-family="Helvetica,sans-Serif" font-size="10.00">pocketmine\nbt\NbtStream</text>
<text text-anchor="start" x="215.5" y="-799" font-family="Helvetica,sans-Serif" font-size="10.00">Writer</text>
<text text-anchor="start" x="229" y="-784" font-family="Helvetica,sans-Serif" font-size="10.00"> </text>
<text text-anchor="start" x="173.5" y="-769" font-family="Helvetica,sans-Serif" font-size="10.00">+</text>
<text text-anchor="start" x="196" y="-769" font-family="Helvetica,sans-Serif" font-size="10.00">writeByte()</text>
<text text-anchor="start" x="173.5" y="-754" font-family="Helvetica,sans-Serif" font-size="10.00">+</text>
<text text-anchor="start" x="196" y="-754" font-family="Helvetica,sans-Serif" font-size="10.00">writeByteArray()</text>
<text text-anchor="start" x="173.5" y="-739" font-family="Helvetica,sans-Serif" font-size="10.00">+</text>
<text text-anchor="start" x="196" y="-739" font-family="Helvetica,sans-Serif" font-size="10.00">writeDouble()</text>
<text text-anchor="start" x="173.5" y="-724" font-family="Helvetica,sans-Serif" font-size="10.00">+</text>
<text text-anchor="start" x="196" y="-724" font-family="Helvetica,sans-Serif" font-size="10.00">writeFloat()</text>
<text text-anchor="start" x="173.5" y="-709" font-family="Helvetica,sans-Serif" font-size="10.00">+</text>
<text text-anchor="start" x="196" y="-709" font-family="Helvetica,sans-Serif" font-size="10.00">writeInt()</text>
<text text-anchor="start" x="173.5" y="-694" font-family="Helvetica,sans-Serif" font-size="10.00">+</text>
<text text-anchor="start" x="196" y="-694" font-family="Helvetica,sans-Serif" font-size="10.00">writeIntArray()</text>
<text text-anchor="start" x="173.5" y="-679" font-family="Helvetica,sans-Serif" font-size="10.00">+</text>
<text text-anchor="start" x="196" y="-679" font-family="Helvetica,sans-Serif" font-size="10.00">writeLong()</text>
<text text-anchor="start" x="173.5" y="-664" font-family="Helvetica,sans-Serif" font-size="10.00">+</text>
<text text-anchor="start" x="196" y="-664" font-family="Helvetica,sans-Serif" font-size="10.00">writeShort()</text>
<text text-anchor="start" x="173.5" y="-649" font-family="Helvetica,sans-Serif" font-size="10.00">+</text>
<text text-anchor="start" x="196" y="-649" font-family="Helvetica,sans-Serif" font-size="10.00">writeString()</text>
<polygon fill="#bfbfbf" stroke="#bfbfbf" points="160,-794 160,-794 302,-794 302,-794 160,-794"/>
<polygon fill="#bfbfbf" stroke="#bfbfbf" points="160,-779 160,-779 302,-779 302,-779 160,-779"/>
<polygon fill="none" stroke="#bfbfbf" points="160,-642 160,-822 302,-822 302,-642 160,-642"/>
</a>
</g>
</g>
<!-- Node4&#45;&gt;Node2 -->
<g id="edge3_Node000002_Node000004" class="edge">
<title>Node4&#45;&gt;Node2</title>
<g id="a_edge3_Node000002_Node000004"><a xlink:title=" ">
<path fill="none" stroke="#63b8ff" d="M202.35,-632.16C198.48,-618.81 194.46,-604.93 190.44,-591.08"/>
<polygon fill="none" stroke="#63b8ff" points="198.99,-633.14 205.14,-641.77 205.71,-631.19 198.99,-633.14"/>
</a>
</g>
</g>
</g>
</svg>
