<?xml version="1.0" encoding="UTF-8" standalone="no"?>
<!DOCTYPE svg PUBLIC "-//W3C//DTD SVG 1.1//EN"
 "http://www.w3.org/Graphics/SVG/1.1/DTD/svg11.dtd">
<!-- Generated by graphviz version 2.43.0 (0)
 -->
<!-- Title: pocketmine\event\player\PlayerItemHeldEvent Pages: 1 -->
<svg width="316pt" height="309pt"
 viewBox="0.00 0.00 316.00 309.00" xmlns="http://www.w3.org/2000/svg" xmlns:xlink="http://www.w3.org/1999/xlink">

<svg id="main" version="1.1" xmlns="http://www.w3.org/2000/svg" xmlns:xlink="http://www.w3.org/1999/xlink" xml:space="preserve">

<style type="text/css"><![CDATA[
.node, .edge {opacity: 0.7;}
.node.selected, .edge.selected {opacity: 1;}
.edge:hover path { stroke: red; }
.edge:hover polygon { stroke: red; fill: red; }
]]></style>
<script type="application/ecmascript" xlink:href="../../svg.min.js"/>
<svg id="graph" class="graph">
<g id="graph0" class="graph" transform="scale(1 1) rotate(0) translate(4 305)">
<title>pocketmine\event\player\PlayerItemHeldEvent</title>
<!-- Node1 -->
<g id="Node000001" class="node">
<title>Node1</title>
<g id="a_Node000001"><a xlink:title=" ">
<polygon fill="#999999" stroke="transparent" points="213,-90 81,-90 81,0 213,0 213,-90"/>
<text text-anchor="start" x="86" y="-78" font-family="Helvetica,sans-Serif" font-size="10.00">pocketmine\event\player</text>
<text text-anchor="start" x="93.5" y="-67" font-family="Helvetica,sans-Serif" font-size="10.00">\PlayerItemHeldEvent</text>
<text text-anchor="start" x="145" y="-52" font-family="Helvetica,sans-Serif" font-size="10.00"> </text>
<text text-anchor="start" x="96.5" y="-37" font-family="Helvetica,sans-Serif" font-size="10.00">+</text>
<text text-anchor="start" x="121" y="-37" font-family="Helvetica,sans-Serif" font-size="10.00">__construct()</text>
<text text-anchor="start" x="96.5" y="-22" font-family="Helvetica,sans-Serif" font-size="10.00">+</text>
<text text-anchor="start" x="121" y="-22" font-family="Helvetica,sans-Serif" font-size="10.00">getItem()</text>
<text text-anchor="start" x="96.5" y="-7" font-family="Helvetica,sans-Serif" font-size="10.00">+</text>
<text text-anchor="start" x="121" y="-7" font-family="Helvetica,sans-Serif" font-size="10.00">getSlot()</text>
<polygon fill="#666666" stroke="#666666" points="81,-62 81,-62 213,-62 213,-62 81,-62"/>
<polygon fill="#666666" stroke="#666666" points="81,-47 81,-47 213,-47 213,-47 81,-47"/>
<polygon fill="none" stroke="#666666" points="81,0 81,-90 213,-90 213,0 81,0"/>
</a>
</g>
</g>
<!-- Node2 -->
<g id="Node000002" class="node">
<title>Node2</title>
<g id="a_Node000002"><a xlink:href="../../d1/db1/classpocketmine_1_1event_1_1player_1_1_player_event.html" target="_top" xlink:title=" ">
<polygon fill="white" stroke="transparent" points="132,-186 0,-186 0,-126 132,-126 132,-186"/>
<text text-anchor="start" x="5" y="-174" font-family="Helvetica,sans-Serif" font-size="10.00">pocketmine\event\player</text>
<text text-anchor="start" x="35" y="-163" font-family="Helvetica,sans-Serif" font-size="10.00">\PlayerEvent</text>
<text text-anchor="start" x="18" y="-148" font-family="Helvetica,sans-Serif" font-size="10.00">#</text>
<text text-anchor="start" x="45" y="-148" font-family="Helvetica,sans-Serif" font-size="10.00">$player</text>
<text text-anchor="start" x="18" y="-133" font-family="Helvetica,sans-Serif" font-size="10.00">+</text>
<text text-anchor="start" x="45" y="-133" font-family="Helvetica,sans-Serif" font-size="10.00">getPlayer()</text>
<polygon fill="#bfbfbf" stroke="#bfbfbf" points="0,-158 0,-158 132,-158 132,-158 0,-158"/>
<polygon fill="#bfbfbf" stroke="#bfbfbf" points="0,-143 0,-143 43,-143 43,-143 0,-143"/>
<polygon fill="#bfbfbf" stroke="#bfbfbf" points="43,-143 43,-143 132,-143 132,-143 43,-143"/>
<polygon fill="none" stroke="#bfbfbf" points="0,-126 0,-186 132,-186 132,-126 0,-126"/>
</a>
</g>
</g>
<!-- Node2&#45;&gt;Node1 -->
<g id="edge1_Node000001_Node000002" class="edge">
<title>Node2&#45;&gt;Node1</title>
<g id="a_edge1_Node000001_Node000002"><a xlink:title=" ">
<path fill="none" stroke="#63b8ff" d="M93.83,-117.54C100.41,-108.69 107.48,-99.18 114.26,-90.06"/>
<polygon fill="none" stroke="#63b8ff" points="90.86,-115.68 87.71,-125.79 96.48,-119.85 90.86,-115.68"/>
</a>
</g>
</g>
<!-- Node3 -->
<g id="Node000003" class="node">
<title>Node3</title>
<g id="a_Node000003"><a xlink:href="../../d1/d2f/classpocketmine_1_1event_1_1_event.html" target="_top" xlink:title=" ">
<polygon fill="white" stroke="transparent" points="130.5,-301 1.5,-301 1.5,-222 130.5,-222 130.5,-301"/>
<text text-anchor="start" x="7" y="-288.5" font-family="Helvetica,sans-Serif" font-size="10.00">pocketmine\event\Event</text>
<text text-anchor="start" x="12.5" y="-273.5" font-family="Helvetica,sans-Serif" font-size="10.00">#</text>
<text text-anchor="start" x="32" y="-273.5" font-family="Helvetica,sans-Serif" font-size="10.00">$eventName</text>
<text text-anchor="start" x="12.5" y="-258.5" font-family="Helvetica,sans-Serif" font-size="10.00">+</text>
<text text-anchor="start" x="32" y="-258.5" font-family="Helvetica,sans-Serif" font-size="10.00">call()</text>
<text text-anchor="start" x="12.5" y="-243.5" font-family="Helvetica,sans-Serif" font-size="10.00">+</text>
<text text-anchor="start" x="32" y="-243.5" font-family="Helvetica,sans-Serif" font-size="10.00">getEventName()</text>
<text text-anchor="start" x="12.5" y="-228.5" font-family="Helvetica,sans-Serif" font-size="10.00">+</text>
<text text-anchor="start" x="32" y="-228.5" font-family="Helvetica,sans-Serif" font-size="10.00">hasHandlers()</text>
<polygon fill="#bfbfbf" stroke="#bfbfbf" points="2,-283.5 2,-283.5 131,-283.5 131,-283.5 2,-283.5"/>
<polygon fill="#bfbfbf" stroke="#bfbfbf" points="2,-268.5 2,-268.5 30,-268.5 30,-268.5 2,-268.5"/>
<polygon fill="#bfbfbf" stroke="#bfbfbf" points="30,-268.5 30,-268.5 131,-268.5 131,-268.5 30,-268.5"/>
<polygon fill="none" stroke="#bfbfbf" points="1.5,-222 1.5,-301 130.5,-301 130.5,-222 1.5,-222"/>
</a>
</g>
</g>
<!-- Node3&#45;&gt;Node2 -->
<g id="edge2_Node000002_Node000003" class="edge">
<title>Node3&#45;&gt;Node2</title>
<g id="a_edge2_Node000002_Node000003"><a xlink:title=" ">
<path fill="none" stroke="#63b8ff" d="M66,-211.8C66,-203.04 66,-194.17 66,-186.19"/>
<polygon fill="none" stroke="#63b8ff" points="62.5,-211.96 66,-221.96 69.5,-211.96 62.5,-211.96"/>
</a>
</g>
</g>
<!-- Node4 -->
<g id="Node000004" class="node">
<title>Node4</title>
<g id="a_Node000004"><a xlink:href="../../db/d62/interfacepocketmine_1_1event_1_1_cancellable.html" target="_top" xlink:title=" ">
<polygon fill="white" stroke="transparent" points="308,-180.5 150,-180.5 150,-131.5 308,-131.5 308,-180.5"/>
<text text-anchor="start" x="155" y="-168" font-family="Helvetica,sans-Serif" font-size="10.00">pocketmine\event\Cancellable</text>
<text text-anchor="start" x="227" y="-153" font-family="Helvetica,sans-Serif" font-size="10.00"> </text>
<text text-anchor="start" x="172" y="-138" font-family="Helvetica,sans-Serif" font-size="10.00">+</text>
<text text-anchor="start" x="203" y="-138" font-family="Helvetica,sans-Serif" font-size="10.00">isCancelled()</text>
<polygon fill="#666666" stroke="#666666" points="150,-163 150,-163 308,-163 308,-163 150,-163"/>
<polygon fill="#666666" stroke="#666666" points="150,-148 150,-148 308,-148 308,-148 150,-148"/>
<polygon fill="none" stroke="#666666" points="150,-131.5 150,-180.5 308,-180.5 308,-131.5 150,-131.5"/>
</a>
</g>
</g>
<!-- Node4&#45;&gt;Node1 -->
<g id="edge3_Node000001_Node000004" class="edge">
<title>Node4&#45;&gt;Node1</title>
<g id="a_edge3_Node000001_Node000004"><a xlink:title=" ">
<path fill="none" stroke="#63b8ff" d="M204.98,-123.07C197.26,-112.81 188.56,-101.24 180.29,-90.26"/>
<polygon fill="none" stroke="#63b8ff" points="202.4,-125.46 211.21,-131.35 207.99,-121.25 202.4,-125.46"/>
</a>
</g>
</g>
</g>
</svg>
</svg>

<style type='text/css'>
<![CDATA[
[data-mouse-over-selected='false'] { opacity: 0.7; }
[data-mouse-over-selected='true']  { opacity: 1.0; }
]]>
</style>
<script type="application/ecmascript"><![CDATA[
document.addEventListener('DOMContentLoaded', (event) => {
  highlightEdges();
  highlightAdjacentNodes();
});
]]></script>
</svg>
