<?xml version="1.0" encoding="UTF-8" standalone="no"?>
<!DOCTYPE svg PUBLIC "-//W3C//DTD SVG 1.1//EN"
 "http://www.w3.org/Graphics/SVG/1.1/DTD/svg11.dtd">
<!-- Generated by graphviz version 2.43.0 (0)
 -->
<!-- Title: pocketmine\block\inventory\DoubleChestInventory Pages: 1 -->
<svg width="612pt" height="954pt"
 viewBox="0.00 0.00 612.00 954.00" xmlns="http://www.w3.org/2000/svg" xmlns:xlink="http://www.w3.org/1999/xlink">
<g id="graph0" class="graph" transform="scale(1 1) rotate(0) translate(4 950)">
<title>pocketmine\block\inventory\DoubleChestInventory</title>
<!-- Node1 -->
<g id="Node000001" class="node">
<title>Node1</title>
<g id="a_Node000001"><a xlink:title=" ">
<polygon fill="#999999" stroke="transparent" points="468.5,-255 322.5,-255 322.5,0 468.5,0 468.5,-255"/>
<text text-anchor="start" x="327.5" y="-242.5" font-family="Helvetica,sans-Serif" font-size="10.00">pocketmine\block\inventory</text>
<text text-anchor="start" x="339.5" y="-231.5" font-family="Helvetica,sans-Serif" font-size="10.00">\DoubleChestInventory</text>
<text text-anchor="start" x="393.5" y="-216.5" font-family="Helvetica,sans-Serif" font-size="10.00"> </text>
<text text-anchor="start" x="327.5" y="-201.5" font-family="Helvetica,sans-Serif" font-size="10.00">+</text>
<text text-anchor="start" x="341.5" y="-201.5" font-family="Helvetica,sans-Serif" font-size="10.00">__construct()</text>
<text text-anchor="start" x="327.5" y="-186.5" font-family="Helvetica,sans-Serif" font-size="10.00">+</text>
<text text-anchor="start" x="341.5" y="-186.5" font-family="Helvetica,sans-Serif" font-size="10.00">getContents()</text>
<text text-anchor="start" x="327.5" y="-171.5" font-family="Helvetica,sans-Serif" font-size="10.00">+</text>
<text text-anchor="start" x="341.5" y="-171.5" font-family="Helvetica,sans-Serif" font-size="10.00">getInventory()</text>
<text text-anchor="start" x="327.5" y="-156.5" font-family="Helvetica,sans-Serif" font-size="10.00">+</text>
<text text-anchor="start" x="341.5" y="-156.5" font-family="Helvetica,sans-Serif" font-size="10.00">getItem()</text>
<text text-anchor="start" x="327.5" y="-141.5" font-family="Helvetica,sans-Serif" font-size="10.00">+</text>
<text text-anchor="start" x="341.5" y="-141.5" font-family="Helvetica,sans-Serif" font-size="10.00">getLeftSide()</text>
<text text-anchor="start" x="327.5" y="-126.5" font-family="Helvetica,sans-Serif" font-size="10.00">+</text>
<text text-anchor="start" x="341.5" y="-126.5" font-family="Helvetica,sans-Serif" font-size="10.00">getRightSide()</text>
<text text-anchor="start" x="327.5" y="-111.5" font-family="Helvetica,sans-Serif" font-size="10.00">+</text>
<text text-anchor="start" x="341.5" y="-111.5" font-family="Helvetica,sans-Serif" font-size="10.00">getSize()</text>
<text text-anchor="start" x="327.5" y="-96.5" font-family="Helvetica,sans-Serif" font-size="10.00">+</text>
<text text-anchor="start" x="341.5" y="-96.5" font-family="Helvetica,sans-Serif" font-size="10.00">isSlotEmpty()</text>
<text text-anchor="start" x="327.5" y="-81.5" font-family="Helvetica,sans-Serif" font-size="10.00">#</text>
<text text-anchor="start" x="341.5" y="-81.5" font-family="Helvetica,sans-Serif" font-size="10.00">animateBlock()</text>
<text text-anchor="start" x="327.5" y="-66.5" font-family="Helvetica,sans-Serif" font-size="10.00">#</text>
<text text-anchor="start" x="341.5" y="-66.5" font-family="Helvetica,sans-Serif" font-size="10.00">getCloseSound()</text>
<text text-anchor="start" x="327.5" y="-51.5" font-family="Helvetica,sans-Serif" font-size="10.00">#</text>
<text text-anchor="start" x="341.5" y="-51.5" font-family="Helvetica,sans-Serif" font-size="10.00">getMatchingItemCount()</text>
<text text-anchor="start" x="327.5" y="-36.5" font-family="Helvetica,sans-Serif" font-size="10.00">#</text>
<text text-anchor="start" x="341.5" y="-36.5" font-family="Helvetica,sans-Serif" font-size="10.00">getOpenSound()</text>
<text text-anchor="start" x="327.5" y="-21.5" font-family="Helvetica,sans-Serif" font-size="10.00">#</text>
<text text-anchor="start" x="341.5" y="-21.5" font-family="Helvetica,sans-Serif" font-size="10.00">internalSetContents()</text>
<text text-anchor="start" x="327.5" y="-6.5" font-family="Helvetica,sans-Serif" font-size="10.00">#</text>
<text text-anchor="start" x="341.5" y="-6.5" font-family="Helvetica,sans-Serif" font-size="10.00">internalSetItem()</text>
<polygon fill="#666666" stroke="#666666" points="322.5,-226.5 322.5,-226.5 468.5,-226.5 468.5,-226.5 322.5,-226.5"/>
<polygon fill="#666666" stroke="#666666" points="322.5,-211.5 322.5,-211.5 468.5,-211.5 468.5,-211.5 322.5,-211.5"/>
<polygon fill="none" stroke="#666666" points="322.5,0 322.5,-255 468.5,-255 468.5,0 322.5,0"/>
</a>
</g>
</g>
<!-- Node2 -->
<g id="Node000002" class="node">
<title>Node2</title>
<g id="a_Node000002"><a xlink:href="../../d5/dc4/classpocketmine_1_1inventory_1_1_base_inventory.html" target="_top" xlink:title=" ">
<polygon fill="white" stroke="transparent" points="304,-592 155,-592 155,-292 304,-292 304,-592"/>
<text text-anchor="start" x="176.5" y="-580" font-family="Helvetica,sans-Serif" font-size="10.00">pocketmine\inventory</text>
<text text-anchor="start" x="193" y="-569" font-family="Helvetica,sans-Serif" font-size="10.00">\BaseInventory</text>
<text text-anchor="start" x="159.5" y="-554" font-family="Helvetica,sans-Serif" font-size="10.00">#</text>
<text text-anchor="start" x="172.5" y="-554" font-family="Helvetica,sans-Serif" font-size="10.00">$maxStackSize</text>
<text text-anchor="start" x="159.5" y="-539" font-family="Helvetica,sans-Serif" font-size="10.00">#</text>
<text text-anchor="start" x="172.5" y="-539" font-family="Helvetica,sans-Serif" font-size="10.00">$viewers</text>
<text text-anchor="start" x="159.5" y="-524" font-family="Helvetica,sans-Serif" font-size="10.00">+</text>
<text text-anchor="start" x="172.5" y="-524" font-family="Helvetica,sans-Serif" font-size="10.00">__construct()</text>
<text text-anchor="start" x="159.5" y="-509" font-family="Helvetica,sans-Serif" font-size="10.00">+</text>
<text text-anchor="start" x="172.5" y="-509" font-family="Helvetica,sans-Serif" font-size="10.00">addItem()</text>
<text text-anchor="start" x="159.5" y="-494" font-family="Helvetica,sans-Serif" font-size="10.00">+</text>
<text text-anchor="start" x="172.5" y="-494" font-family="Helvetica,sans-Serif" font-size="10.00">all()</text>
<text text-anchor="start" x="159.5" y="-479" font-family="Helvetica,sans-Serif" font-size="10.00">+</text>
<text text-anchor="start" x="172.5" y="-479" font-family="Helvetica,sans-Serif" font-size="10.00">canAddItem()</text>
<text text-anchor="start" x="159.5" y="-464" font-family="Helvetica,sans-Serif" font-size="10.00">+</text>
<text text-anchor="start" x="172.5" y="-464" font-family="Helvetica,sans-Serif" font-size="10.00">clear()</text>
<text text-anchor="start" x="159.5" y="-449" font-family="Helvetica,sans-Serif" font-size="10.00">+</text>
<text text-anchor="start" x="172.5" y="-449" font-family="Helvetica,sans-Serif" font-size="10.00">clearAll()</text>
<text text-anchor="start" x="159.5" y="-434" font-family="Helvetica,sans-Serif" font-size="10.00">+</text>
<text text-anchor="start" x="172.5" y="-434" font-family="Helvetica,sans-Serif" font-size="10.00">contains()</text>
<text text-anchor="start" x="159.5" y="-419" font-family="Helvetica,sans-Serif" font-size="10.00">+</text>
<text text-anchor="start" x="172.5" y="-419" font-family="Helvetica,sans-Serif" font-size="10.00">first()</text>
<text text-anchor="start" x="159.5" y="-404" font-family="Helvetica,sans-Serif" font-size="10.00">+</text>
<text text-anchor="start" x="172.5" y="-404" font-family="Helvetica,sans-Serif" font-size="10.00">firstEmpty()</text>
<text text-anchor="start" x="159.5" y="-389" font-family="Helvetica,sans-Serif" font-size="10.00">+</text>
<text text-anchor="start" x="172.5" y="-389" font-family="Helvetica,sans-Serif" font-size="10.00">getAddableItemQuantity()</text>
<text text-anchor="start" x="172.5" y="-374" font-family="Helvetica,sans-Serif" font-size="10.00">and 15 more...</text>
<text text-anchor="start" x="159.5" y="-359" font-family="Helvetica,sans-Serif" font-size="10.00">#</text>
<text text-anchor="start" x="172.5" y="-359" font-family="Helvetica,sans-Serif" font-size="10.00">getMatchingItemCount()</text>
<text text-anchor="start" x="159.5" y="-344" font-family="Helvetica,sans-Serif" font-size="10.00">#</text>
<text text-anchor="start" x="172.5" y="-344" font-family="Helvetica,sans-Serif" font-size="10.00">internalSetContents()</text>
<text text-anchor="start" x="159.5" y="-329" font-family="Helvetica,sans-Serif" font-size="10.00">#</text>
<text text-anchor="start" x="172.5" y="-329" font-family="Helvetica,sans-Serif" font-size="10.00">internalSetItem()</text>
<text text-anchor="start" x="159.5" y="-314" font-family="Helvetica,sans-Serif" font-size="10.00">#</text>
<text text-anchor="start" x="172.5" y="-314" font-family="Helvetica,sans-Serif" font-size="10.00">onContentChange()</text>
<text text-anchor="start" x="159.5" y="-299" font-family="Helvetica,sans-Serif" font-size="10.00">#</text>
<text text-anchor="start" x="172.5" y="-299" font-family="Helvetica,sans-Serif" font-size="10.00">onSlotChange()</text>
<polygon fill="#666666" stroke="#666666" points="155.5,-564 155.5,-564 304.5,-564 304.5,-564 155.5,-564"/>
<polygon fill="#666666" stroke="#666666" points="155.5,-534 155.5,-534 170.5,-534 170.5,-534 155.5,-534"/>
<polygon fill="#666666" stroke="#666666" points="170.5,-534 170.5,-534 304.5,-534 304.5,-534 170.5,-534"/>
<polygon fill="none" stroke="#666666" points="155,-292 155,-592 304,-592 304,-292 155,-292"/>
</a>
</g>
</g>
<!-- Node2&#45;&gt;Node1 -->
<g id="edge1_Node000001_Node000002" class="edge">
<title>Node2&#45;&gt;Node1</title>
<g id="a_edge1_Node000001_Node000002"><a xlink:title=" ">
<path fill="none" stroke="#63b8ff" d="M308.71,-291.89C315.18,-279.7 321.69,-267.45 328.07,-255.44"/>
<polygon fill="none" stroke="#63b8ff" points="305.6,-290.27 304,-300.75 311.78,-293.56 305.6,-290.27"/>
</a>
</g>
</g>
<!-- Node3 -->
<g id="Node000003" class="node">
<title>Node3</title>
<g id="a_Node000003"><a xlink:href="../../db/d39/interfacepocketmine_1_1inventory_1_1_inventory.html" target="_top" xlink:title=" ">
<polygon fill="white" stroke="transparent" points="149,-860 0,-860 0,-650 149,-650 149,-860"/>
<text text-anchor="start" x="21.5" y="-848" font-family="Helvetica,sans-Serif" font-size="10.00">pocketmine\inventory</text>
<text text-anchor="start" x="50" y="-837" font-family="Helvetica,sans-Serif" font-size="10.00">\Inventory</text>
<text text-anchor="start" x="4.5" y="-822" font-family="Helvetica,sans-Serif" font-size="10.00">+</text>
<text text-anchor="start" x="17.5" y="-822" font-family="Helvetica,sans-Serif" font-size="10.00">MAX_STACK</text>
<text text-anchor="start" x="4.5" y="-807" font-family="Helvetica,sans-Serif" font-size="10.00">+</text>
<text text-anchor="start" x="17.5" y="-807" font-family="Helvetica,sans-Serif" font-size="10.00">addItem()</text>
<text text-anchor="start" x="4.5" y="-792" font-family="Helvetica,sans-Serif" font-size="10.00">+</text>
<text text-anchor="start" x="17.5" y="-792" font-family="Helvetica,sans-Serif" font-size="10.00">all()</text>
<text text-anchor="start" x="4.5" y="-777" font-family="Helvetica,sans-Serif" font-size="10.00">+</text>
<text text-anchor="start" x="17.5" y="-777" font-family="Helvetica,sans-Serif" font-size="10.00">canAddItem()</text>
<text text-anchor="start" x="4.5" y="-762" font-family="Helvetica,sans-Serif" font-size="10.00">+</text>
<text text-anchor="start" x="17.5" y="-762" font-family="Helvetica,sans-Serif" font-size="10.00">clear()</text>
<text text-anchor="start" x="4.5" y="-747" font-family="Helvetica,sans-Serif" font-size="10.00">+</text>
<text text-anchor="start" x="17.5" y="-747" font-family="Helvetica,sans-Serif" font-size="10.00">clearAll()</text>
<text text-anchor="start" x="4.5" y="-732" font-family="Helvetica,sans-Serif" font-size="10.00">+</text>
<text text-anchor="start" x="17.5" y="-732" font-family="Helvetica,sans-Serif" font-size="10.00">contains()</text>
<text text-anchor="start" x="4.5" y="-717" font-family="Helvetica,sans-Serif" font-size="10.00">+</text>
<text text-anchor="start" x="17.5" y="-717" font-family="Helvetica,sans-Serif" font-size="10.00">first()</text>
<text text-anchor="start" x="4.5" y="-702" font-family="Helvetica,sans-Serif" font-size="10.00">+</text>
<text text-anchor="start" x="17.5" y="-702" font-family="Helvetica,sans-Serif" font-size="10.00">firstEmpty()</text>
<text text-anchor="start" x="4.5" y="-687" font-family="Helvetica,sans-Serif" font-size="10.00">+</text>
<text text-anchor="start" x="17.5" y="-687" font-family="Helvetica,sans-Serif" font-size="10.00">getAddableItemQuantity()</text>
<text text-anchor="start" x="4.5" y="-672" font-family="Helvetica,sans-Serif" font-size="10.00">+</text>
<text text-anchor="start" x="17.5" y="-672" font-family="Helvetica,sans-Serif" font-size="10.00">getContents()</text>
<text text-anchor="start" x="17.5" y="-657" font-family="Helvetica,sans-Serif" font-size="10.00">and 15 more...</text>
<polygon fill="#bfbfbf" stroke="#bfbfbf" points="0.5,-832 0.5,-832 149.5,-832 149.5,-832 0.5,-832"/>
<polygon fill="#bfbfbf" stroke="#bfbfbf" points="0.5,-817 0.5,-817 15.5,-817 15.5,-817 0.5,-817"/>
<polygon fill="#bfbfbf" stroke="#bfbfbf" points="15.5,-817 15.5,-817 149.5,-817 149.5,-817 15.5,-817"/>
<polygon fill="none" stroke="#bfbfbf" points="0,-650 0,-860 149,-860 149,-650 0,-650"/>
</a>
</g>
</g>
<!-- Node3&#45;&gt;Node2 -->
<g id="edge2_Node000002_Node000003" class="edge">
<title>Node3&#45;&gt;Node2</title>
<g id="a_edge2_Node000002_Node000003"><a xlink:title=" ">
<path fill="none" stroke="#63b8ff" d="M131.11,-640.42C138.92,-624.74 147.05,-608.44 155.13,-592.23"/>
<polygon fill="none" stroke="#63b8ff" points="127.87,-639.07 126.54,-649.58 134.14,-642.19 127.87,-639.07"/>
</a>
</g>
</g>
<!-- Node4 -->
<g id="Node000004" class="node">
<title>Node4</title>
<g id="a_Node000004"><a xlink:href="../../dd/d33/interfacepocketmine_1_1inventory_1_1_slot_validated_inventory.html" target="_top" xlink:title=" ">
<polygon fill="white" stroke="transparent" points="292,-785 167,-785 167,-725 292,-725 292,-785"/>
<text text-anchor="start" x="172.5" y="-773" font-family="Helvetica,sans-Serif" font-size="10.00">pocketmine\inventory</text>
<text text-anchor="start" x="172.5" y="-762" font-family="Helvetica,sans-Serif" font-size="10.00">\SlotValidatedInventory</text>
<text text-anchor="start" x="228" y="-747" font-family="Helvetica,sans-Serif" font-size="10.00"> </text>
<text text-anchor="start" x="174.5" y="-732" font-family="Helvetica,sans-Serif" font-size="10.00">+</text>
<text text-anchor="start" x="190.5" y="-732" font-family="Helvetica,sans-Serif" font-size="10.00">getSlotValidators()</text>
<polygon fill="#666666" stroke="#666666" points="167.5,-757 167.5,-757 292.5,-757 292.5,-757 167.5,-757"/>
<polygon fill="#666666" stroke="#666666" points="167.5,-742 167.5,-742 292.5,-742 292.5,-742 167.5,-742"/>
<polygon fill="none" stroke="#666666" points="167,-725 167,-785 292,-785 292,-725 167,-725"/>
</a>
</g>
</g>
<!-- Node4&#45;&gt;Node2 -->
<g id="edge3_Node000002_Node000004" class="edge">
<title>Node4&#45;&gt;Node2</title>
<g id="a_edge3_Node000002_Node000004"><a xlink:title=" ">
<path fill="none" stroke="#63b8ff" d="M229.5,-714.72C229.5,-683.44 229.5,-637.54 229.5,-592.35"/>
<polygon fill="none" stroke="#63b8ff" points="226,-714.74 229.5,-724.74 233,-714.74 226,-714.74"/>
</a>
</g>
</g>
<!-- Node5 -->
<g id="Node000005" class="node">
<title>Node5</title>
<g id="a_Node000005"><a xlink:href="../../dd/de5/classpocketmine_1_1utils_1_1_object_set.html" target="_top" xlink:title=" ">
<polygon fill="white" stroke="transparent" points="452.5,-817 310.5,-817 310.5,-693 452.5,-693 452.5,-817"/>
<text text-anchor="start" x="315.5" y="-805" font-family="Helvetica,sans-Serif" font-size="10.00">pocketmine\utils\ObjectSet</text>
<text text-anchor="start" x="379.5" y="-790" font-family="Helvetica,sans-Serif" font-size="10.00"> </text>
<text text-anchor="start" x="329.5" y="-775" font-family="Helvetica,sans-Serif" font-size="10.00">+</text>
<text text-anchor="start" x="357.5" y="-775" font-family="Helvetica,sans-Serif" font-size="10.00">add()</text>
<text text-anchor="start" x="329.5" y="-760" font-family="Helvetica,sans-Serif" font-size="10.00">+</text>
<text text-anchor="start" x="357.5" y="-760" font-family="Helvetica,sans-Serif" font-size="10.00">clear()</text>
<text text-anchor="start" x="329.5" y="-745" font-family="Helvetica,sans-Serif" font-size="10.00">+</text>
<text text-anchor="start" x="357.5" y="-745" font-family="Helvetica,sans-Serif" font-size="10.00">contains()</text>
<text text-anchor="start" x="329.5" y="-730" font-family="Helvetica,sans-Serif" font-size="10.00">+</text>
<text text-anchor="start" x="357.5" y="-730" font-family="Helvetica,sans-Serif" font-size="10.00">getIterator()</text>
<text text-anchor="start" x="329.5" y="-715" font-family="Helvetica,sans-Serif" font-size="10.00">+</text>
<text text-anchor="start" x="357.5" y="-715" font-family="Helvetica,sans-Serif" font-size="10.00">remove()</text>
<text text-anchor="start" x="329.5" y="-700" font-family="Helvetica,sans-Serif" font-size="10.00">+</text>
<text text-anchor="start" x="357.5" y="-700" font-family="Helvetica,sans-Serif" font-size="10.00">toArray()</text>
<polygon fill="#666666" stroke="#666666" points="310.5,-800 310.5,-800 452.5,-800 452.5,-800 310.5,-800"/>
<polygon fill="#666666" stroke="#666666" points="310.5,-785 310.5,-785 452.5,-785 452.5,-785 310.5,-785"/>
<polygon fill="none" stroke="#666666" points="310.5,-693 310.5,-817 452.5,-817 452.5,-693 310.5,-693"/>
</a>
</g>
</g>
<!-- Node5&#45;&gt;Node2 -->
<g id="edge4_Node000002_Node000005" class="edge">
<title>Node5&#45;&gt;Node2</title>
<g id="a_edge4_Node000002_Node000005"><a xlink:title=" ">
<path fill="none" stroke="#63b8ff" d="M351.65,-692.93C338.91,-666.86 323.39,-635.1 307.74,-603.08"/>
<polygon fill="none" stroke="#63b8ff" points="307.7,-603 301.47,-599.37 302.43,-592.22 308.66,-595.85 307.7,-603"/>
</a>
</g>
<text text-anchor="middle" x="351.5" y="-624" font-family="Helvetica,sans-Serif" font-size="10.00" fill="grey"> #$listeners</text>
<text text-anchor="middle" x="351.5" y="-613" font-family="Helvetica,sans-Serif" font-size="10.00" fill="grey">#$validators</text>
</g>
<!-- Node6 -->
<g id="Node000006" class="node">
<title>Node6</title>
<g id="a_Node000006"><a xlink:title=" ">
<polygon fill="white" stroke="transparent" points="430,-946 333,-946 333,-897 430,-897 430,-946"/>
<text text-anchor="start" x="338.5" y="-933.5" font-family="Helvetica,sans-Serif" font-size="10.00">IteratorAggregate</text>
<text text-anchor="start" x="380" y="-918.5" font-family="Helvetica,sans-Serif" font-size="10.00"> </text>
<text text-anchor="start" x="380" y="-903.5" font-family="Helvetica,sans-Serif" font-size="10.00"> </text>
<polygon fill="#bfbfbf" stroke="#bfbfbf" points="333.5,-928.5 333.5,-928.5 430.5,-928.5 430.5,-928.5 333.5,-928.5"/>
<polygon fill="#bfbfbf" stroke="#bfbfbf" points="333.5,-913.5 333.5,-913.5 430.5,-913.5 430.5,-913.5 333.5,-913.5"/>
<polygon fill="none" stroke="#bfbfbf" points="333,-897 333,-946 430,-946 430,-897 333,-897"/>
</a>
</g>
</g>
<!-- Node6&#45;&gt;Node5 -->
<g id="edge5_Node000005_Node000006" class="edge">
<title>Node6&#45;&gt;Node5</title>
<g id="a_edge5_Node000005_Node000006"><a xlink:title=" ">
<path fill="none" stroke="#63b8ff" d="M381.5,-886.75C381.5,-866.71 381.5,-840.69 381.5,-817.14"/>
<polygon fill="none" stroke="#63b8ff" points="378,-886.93 381.5,-896.93 385,-886.93 378,-886.93"/>
</a>
</g>
</g>
<!-- Node7 -->
<g id="Node000007" class="node">
<title>Node7</title>
<g id="a_Node000007"><a xlink:href="../../d4/d3a/interfacepocketmine_1_1block_1_1inventory_1_1_block_inventory.html" target="_top" xlink:title=" ">
<polygon fill="white" stroke="transparent" points="468.5,-472 322.5,-472 322.5,-412 468.5,-412 468.5,-472"/>
<text text-anchor="start" x="327.5" y="-460" font-family="Helvetica,sans-Serif" font-size="10.00">pocketmine\block\inventory</text>
<text text-anchor="start" x="357" y="-449" font-family="Helvetica,sans-Serif" font-size="10.00">\BlockInventory</text>
<text text-anchor="start" x="393.5" y="-434" font-family="Helvetica,sans-Serif" font-size="10.00"> </text>
<text text-anchor="start" x="343.5" y="-419" font-family="Helvetica,sans-Serif" font-size="10.00">+</text>
<text text-anchor="start" x="373.5" y="-419" font-family="Helvetica,sans-Serif" font-size="10.00">getHolder()</text>
<polygon fill="#bfbfbf" stroke="#bfbfbf" points="322.5,-444 322.5,-444 468.5,-444 468.5,-444 322.5,-444"/>
<polygon fill="#bfbfbf" stroke="#bfbfbf" points="322.5,-429 322.5,-429 468.5,-429 468.5,-429 322.5,-429"/>
<polygon fill="none" stroke="#bfbfbf" points="322.5,-412 322.5,-472 468.5,-472 468.5,-412 322.5,-412"/>
</a>
</g>
</g>
<!-- Node7&#45;&gt;Node1 -->
<g id="edge6_Node000001_Node000007" class="edge">
<title>Node7&#45;&gt;Node1</title>
<g id="a_edge6_Node000001_Node000007"><a xlink:title=" ">
<path fill="none" stroke="#63b8ff" d="M395.5,-401.58C395.5,-364.74 395.5,-307.68 395.5,-255.22"/>
<polygon fill="none" stroke="#63b8ff" points="392,-401.88 395.5,-411.88 399,-401.88 392,-401.88"/>
</a>
</g>
</g>
<!-- Node8 -->
<g id="Node000008" class="node">
<title>Node8</title>
<g id="a_Node000008"><a xlink:href="../../d2/d91/interfacepocketmine_1_1inventory_1_1_inventory_holder.html" target="_top" xlink:title=" ">
<polygon fill="white" stroke="transparent" points="604,-472 487,-472 487,-412 604,-412 604,-472"/>
<text text-anchor="start" x="492.5" y="-460" font-family="Helvetica,sans-Serif" font-size="10.00">pocketmine\inventory</text>
<text text-anchor="start" x="505" y="-449" font-family="Helvetica,sans-Serif" font-size="10.00">\InventoryHolder</text>
<text text-anchor="start" x="544" y="-434" font-family="Helvetica,sans-Serif" font-size="10.00"> </text>
<text text-anchor="start" x="498" y="-419" font-family="Helvetica,sans-Serif" font-size="10.00">+</text>
<text text-anchor="start" x="517.5" y="-419" font-family="Helvetica,sans-Serif" font-size="10.00">getInventory()</text>
<polygon fill="#bfbfbf" stroke="#bfbfbf" points="487.5,-444 487.5,-444 604.5,-444 604.5,-444 487.5,-444"/>
<polygon fill="#bfbfbf" stroke="#bfbfbf" points="487.5,-429 487.5,-429 604.5,-429 604.5,-429 487.5,-429"/>
<polygon fill="none" stroke="#bfbfbf" points="487,-412 487,-472 604,-472 604,-412 487,-412"/>
</a>
</g>
</g>
<!-- Node8&#45;&gt;Node1 -->
<g id="edge7_Node000001_Node000008" class="edge">
<title>Node8&#45;&gt;Node1</title>
<g id="a_edge7_Node000001_Node000008"><a xlink:title=" ">
<path fill="none" stroke="#63b8ff" d="M528.35,-402.4C514.83,-372.21 495.34,-329.26 477.5,-292 471.74,-279.97 465.66,-267.49 459.53,-255.02"/>
<polygon fill="none" stroke="#63b8ff" points="525.25,-404.03 532.52,-411.73 531.64,-401.17 525.25,-404.03"/>
</a>
</g>
</g>
</g>
</svg>
