<?xml version="1.0" encoding="UTF-8" standalone="no"?>
<!DOCTYPE svg PUBLIC "-//W3C//DTD SVG 1.1//EN"
 "http://www.w3.org/Graphics/SVG/1.1/DTD/svg11.dtd">
<!-- Generated by graphviz version 2.43.0 (0)
 -->
<!-- Title: pocketmine\item\Bow Pages: 1 -->
<!--zoomable 904 -->
<svg id="main" version="1.1" xmlns="http://www.w3.org/2000/svg" xmlns:xlink="http://www.w3.org/1999/xlink" xml:space="preserve" onload="init(evt)">
<style type="text/css"><![CDATA[
.edge:hover path { stroke: red; }
.edge:hover polygon { stroke: red; fill: red; }
]]></style>
<script type="text/javascript"><![CDATA[
var edges = document.getElementsByTagName('g');
if (edges && edges.length) {
  for (var i=0;i<edges.length;i++) {
    if (edges[i].id.substr(0,4)=='edge') {
      edges[i].setAttribute('class','edge');
    }
  }
}
]]></script>
        <defs>
                <circle id="rim" cx="0" cy="0" r="7"/>
                <circle id="rim2" cx="0" cy="0" r="3.5"/>
                <g id="zoomPlus">
                        <use xlink:href="#rim" fill="#404040">
                                <set attributeName="fill" to="#808080" begin="zoomplus.mouseover" end="zoomplus.mouseout"/>
                        </use>
                        <path d="M-4,0h8M0,-4v8" fill="none" stroke="white" stroke-width="1.5" pointer-events="none"/>
                </g>
                <g id="zoomMin">
                        <use xlink:href="#rim" fill="#404040">
                                <set attributeName="fill" to="#808080" begin="zoomminus.mouseover" end="zoomminus.mouseout"/>
                        </use>
                        <path d="M-4,0h8" fill="none" stroke="white" stroke-width="1.5" pointer-events="none"/>
                </g>
                <g id="dirArrow">
                        <path fill="none" stroke="white" stroke-width="1.5" d="M0,-3.0v7 M-2.5,-0.5L0,-3.0L2.5,-0.5"/>
                </g>
               <g id="resetDef">
                       <use xlink:href="#rim2" fill="#404040">
                               <set attributeName="fill" to="#808080" begin="reset.mouseover" end="reset.mouseout"/>
                       </use>
               </g>
        </defs>

<script type="text/javascript">
var viewWidth = 359;
var viewHeight = 904;
var sectionId = 'dynsection-0';
</script>
<script xlink:href="../../svgpan.js"/>
<svg id="graph" class="graph">
<g id="viewport">
<title>pocketmine\item\Bow</title>
<polygon fill="white" stroke="transparent" points="-4,4 -4,-900 354.5,-900 354.5,4 -4,4"/>
<!-- Node1 -->
<g id="node1" class="node">
<title>Node1</title>
<g id="a_node1"><a xlink:title=" ">
<polygon fill="#bfbfbf" stroke="black" points="122.5,-0.5 122.5,-90.5 248.5,-90.5 248.5,-0.5 122.5,-0.5"/>
<text text-anchor="middle" x="185.5" y="-78.5" font-family="Helvetica,sans-Serif" font-size="10.00">pocketmine\item\Bow</text>
<polyline fill="none" stroke="black" points="122.5,-71.5 248.5,-71.5 "/>
<text text-anchor="middle" x="185.5" y="-59.5" font-family="Helvetica,sans-Serif" font-size="10.00"> </text>
<polyline fill="none" stroke="black" points="122.5,-52.5 248.5,-52.5 "/>
<text text-anchor="start" x="130.5" y="-40.5" font-family="Helvetica,sans-Serif" font-size="10.00">+ canStartUsingItem()</text>
<text text-anchor="start" x="130.5" y="-29.5" font-family="Helvetica,sans-Serif" font-size="10.00">+ getFuelTime()</text>
<text text-anchor="start" x="130.5" y="-18.5" font-family="Helvetica,sans-Serif" font-size="10.00">+ getMaxDurability()</text>
<text text-anchor="start" x="130.5" y="-7.5" font-family="Helvetica,sans-Serif" font-size="10.00">+ onReleaseUsing()</text>
</a>
</g>
</g>
<!-- Node2 -->
<g id="node2" class="node">
<title>Node2</title>
<g id="a_node2"><a xlink:href="../../da/de7/classpocketmine_1_1item_1_1_tool.html" target="_top" xlink:title=" ">
<polygon fill="white" stroke="#bfbfbf" points="21,-127.5 21,-206.5 176,-206.5 176,-127.5 21,-127.5"/>
<text text-anchor="middle" x="98.5" y="-194.5" font-family="Helvetica,sans-Serif" font-size="10.00">pocketmine\item\Tool</text>
<polyline fill="none" stroke="#bfbfbf" points="21,-187.5 176,-187.5 "/>
<text text-anchor="middle" x="98.5" y="-175.5" font-family="Helvetica,sans-Serif" font-size="10.00"> </text>
<polyline fill="none" stroke="#bfbfbf" points="21,-168.5 176,-168.5 "/>
<text text-anchor="start" x="29" y="-156.5" font-family="Helvetica,sans-Serif" font-size="10.00">+ getMaxStackSize()</text>
<text text-anchor="start" x="29" y="-145.5" font-family="Helvetica,sans-Serif" font-size="10.00">+ getMiningEfficiency()</text>
<text text-anchor="start" x="29" y="-134.5" font-family="Helvetica,sans-Serif" font-size="10.00"># getBaseMiningEfficiency()</text>
</a>
</g>
</g>
<!-- Node2&#45;&gt;Node1 -->
<g id="edge1" class="edge">
<title>Node2&#45;&gt;Node1</title>
<path fill="none" stroke="midnightblue" d="M132.8,-118.88C139.51,-109.67 146.53,-100.03 153.17,-90.91"/>
<polygon fill="none" stroke="midnightblue" points="129.8,-117.06 126.75,-127.2 135.46,-121.18 129.8,-117.06"/>
</g>
<!-- Node3 -->
<g id="node3" class="node">
<title>Node3</title>
<g id="a_node3"><a xlink:href="../../dc/d20/classpocketmine_1_1item_1_1_durable.html" target="_top" xlink:title=" ">
<polygon fill="white" stroke="#bfbfbf" points="0,-243.5 0,-410.5 197,-410.5 197,-243.5 0,-243.5"/>
<text text-anchor="middle" x="98.5" y="-398.5" font-family="Helvetica,sans-Serif" font-size="10.00">pocketmine\item\Durable</text>
<polyline fill="none" stroke="#bfbfbf" points="0,-391.5 197,-391.5 "/>
<text text-anchor="start" x="8" y="-379.5" font-family="Helvetica,sans-Serif" font-size="10.00"># $damage</text>
<polyline fill="none" stroke="#bfbfbf" points="0,-372.5 197,-372.5 "/>
<text text-anchor="start" x="8" y="-360.5" font-family="Helvetica,sans-Serif" font-size="10.00">+ applyDamage()</text>
<text text-anchor="start" x="8" y="-349.5" font-family="Helvetica,sans-Serif" font-size="10.00">+ getDamage()</text>
<text text-anchor="start" x="8" y="-338.5" font-family="Helvetica,sans-Serif" font-size="10.00">+ getMaxDurability()</text>
<text text-anchor="start" x="8" y="-327.5" font-family="Helvetica,sans-Serif" font-size="10.00">+ isBroken()</text>
<text text-anchor="start" x="8" y="-316.5" font-family="Helvetica,sans-Serif" font-size="10.00">+ isUnbreakable()</text>
<text text-anchor="start" x="8" y="-305.5" font-family="Helvetica,sans-Serif" font-size="10.00">+ setDamage()</text>
<text text-anchor="start" x="8" y="-294.5" font-family="Helvetica,sans-Serif" font-size="10.00">+ setUnbreakable()</text>
<text text-anchor="start" x="8" y="-283.5" font-family="Helvetica,sans-Serif" font-size="10.00"># deserializeCompoundTag()</text>
<text text-anchor="start" x="8" y="-272.5" font-family="Helvetica,sans-Serif" font-size="10.00"># getUnbreakingDamageReduction()</text>
<text text-anchor="start" x="8" y="-261.5" font-family="Helvetica,sans-Serif" font-size="10.00"># onBroken()</text>
<text text-anchor="start" x="8" y="-250.5" font-family="Helvetica,sans-Serif" font-size="10.00"># serializeCompoundTag()</text>
</a>
</g>
</g>
<!-- Node3&#45;&gt;Node2 -->
<g id="edge2" class="edge">
<title>Node3&#45;&gt;Node2</title>
<path fill="none" stroke="midnightblue" d="M98.5,-233.12C98.5,-223.81 98.5,-214.76 98.5,-206.52"/>
<polygon fill="none" stroke="midnightblue" points="95,-233.3 98.5,-243.3 102,-233.3 95,-233.3"/>
</g>
<!-- Node4 -->
<g id="node4" class="node">
<title>Node4</title>
<g id="a_node4"><a xlink:href="../../d5/d8a/classpocketmine_1_1item_1_1_item.html" target="_top" xlink:title=" ">
<polygon fill="white" stroke="#bfbfbf" points="19.5,-447.5 19.5,-801.5 177.5,-801.5 177.5,-447.5 19.5,-447.5"/>
<text text-anchor="middle" x="98.5" y="-789.5" font-family="Helvetica,sans-Serif" font-size="10.00">pocketmine\item\Item</text>
<polyline fill="none" stroke="#bfbfbf" points="19.5,-782.5 177.5,-782.5 "/>
<text text-anchor="start" x="27.5" y="-770.5" font-family="Helvetica,sans-Serif" font-size="10.00">+ TAG_BLOCK_ENTITY_TAG</text>
<text text-anchor="start" x="27.5" y="-759.5" font-family="Helvetica,sans-Serif" font-size="10.00">+ TAG_DISPLAY</text>
<text text-anchor="start" x="27.5" y="-748.5" font-family="Helvetica,sans-Serif" font-size="10.00">+ TAG_DISPLAY_LORE</text>
<text text-anchor="start" x="27.5" y="-737.5" font-family="Helvetica,sans-Serif" font-size="10.00">+ TAG_DISPLAY_NAME</text>
<text text-anchor="start" x="27.5" y="-726.5" font-family="Helvetica,sans-Serif" font-size="10.00">+ TAG_ENCH</text>
<text text-anchor="start" x="27.5" y="-715.5" font-family="Helvetica,sans-Serif" font-size="10.00">+ TAG_KEEP_ON_DEATH</text>
<text text-anchor="start" x="27.5" y="-704.5" font-family="Helvetica,sans-Serif" font-size="10.00"># $blockEntityTag</text>
<text text-anchor="start" x="27.5" y="-693.5" font-family="Helvetica,sans-Serif" font-size="10.00"># $canDestroy</text>
<text text-anchor="start" x="27.5" y="-682.5" font-family="Helvetica,sans-Serif" font-size="10.00"># $canPlaceOn</text>
<text text-anchor="start" x="27.5" y="-671.5" font-family="Helvetica,sans-Serif" font-size="10.00"># $count</text>
<text text-anchor="start" x="27.5" y="-660.5" font-family="Helvetica,sans-Serif" font-size="10.00"># $customName</text>
<text text-anchor="start" x="27.5" y="-649.5" font-family="Helvetica,sans-Serif" font-size="10.00"># $keepOnDeath</text>
<text text-anchor="start" x="27.5" y="-638.5" font-family="Helvetica,sans-Serif" font-size="10.00"># $lore</text>
<polyline fill="none" stroke="#bfbfbf" points="19.5,-631.5 177.5,-631.5 "/>
<text text-anchor="start" x="27.5" y="-619.5" font-family="Helvetica,sans-Serif" font-size="10.00">+ __construct()</text>
<text text-anchor="start" x="27.5" y="-608.5" font-family="Helvetica,sans-Serif" font-size="10.00">+ __clone()</text>
<text text-anchor="start" x="27.5" y="-597.5" font-family="Helvetica,sans-Serif" font-size="10.00">+ __toString()</text>
<text text-anchor="start" x="27.5" y="-586.5" font-family="Helvetica,sans-Serif" font-size="10.00">+ canBePlaced()</text>
<text text-anchor="start" x="27.5" y="-575.5" font-family="Helvetica,sans-Serif" font-size="10.00">+ canStackWith()</text>
<text text-anchor="start" x="27.5" y="-564.5" font-family="Helvetica,sans-Serif" font-size="10.00">+ clearCustomBlockData()</text>
<text text-anchor="start" x="27.5" y="-553.5" font-family="Helvetica,sans-Serif" font-size="10.00">+ clearCustomName()</text>
<text text-anchor="start" x="27.5" y="-542.5" font-family="Helvetica,sans-Serif" font-size="10.00">+ clearNamedTag()</text>
<text text-anchor="start" x="27.5" y="-531.5" font-family="Helvetica,sans-Serif" font-size="10.00">+ equals()</text>
<text text-anchor="start" x="27.5" y="-520.5" font-family="Helvetica,sans-Serif" font-size="10.00">+ equalsExact()</text>
<text text-anchor="start" x="27.5" y="-509.5" font-family="Helvetica,sans-Serif" font-size="10.00">and 45 more...</text>
<text text-anchor="start" x="27.5" y="-498.5" font-family="Helvetica,sans-Serif" font-size="10.00">+ legacyJsonDeserialize()</text>
<text text-anchor="start" x="27.5" y="-487.5" font-family="Helvetica,sans-Serif" font-size="10.00">+ nbtDeserialize()</text>
<text text-anchor="start" x="27.5" y="-476.5" font-family="Helvetica,sans-Serif" font-size="10.00"># describeState()</text>
<text text-anchor="start" x="27.5" y="-465.5" font-family="Helvetica,sans-Serif" font-size="10.00"># deserializeCompoundTag()</text>
<text text-anchor="start" x="27.5" y="-454.5" font-family="Helvetica,sans-Serif" font-size="10.00"># serializeCompoundTag()</text>
</a>
</g>
</g>
<!-- Node4&#45;&gt;Node3 -->
<g id="edge3" class="edge">
<title>Node4&#45;&gt;Node3</title>
<path fill="none" stroke="midnightblue" d="M98.5,-437.07C98.5,-428.04 98.5,-419.23 98.5,-410.76"/>
<polygon fill="none" stroke="midnightblue" points="95,-437.34 98.5,-447.34 102,-437.34 95,-437.34"/>
</g>
<!-- Node5 -->
<g id="node5" class="node">
<title>Node5</title>
<g id="a_node5"><a xlink:title=" ">
<polygon fill="white" stroke="#bfbfbf" points="51.5,-838.5 51.5,-895.5 145.5,-895.5 145.5,-838.5 51.5,-838.5"/>
<text text-anchor="middle" x="98.5" y="-883.5" font-family="Helvetica,sans-Serif" font-size="10.00">JsonSerializable</text>
<polyline fill="none" stroke="#bfbfbf" points="51.5,-876.5 145.5,-876.5 "/>
<text text-anchor="middle" x="98.5" y="-864.5" font-family="Helvetica,sans-Serif" font-size="10.00"> </text>
<polyline fill="none" stroke="#bfbfbf" points="51.5,-857.5 145.5,-857.5 "/>
<text text-anchor="middle" x="98.5" y="-845.5" font-family="Helvetica,sans-Serif" font-size="10.00"> </text>
</a>
</g>
</g>
<!-- Node5&#45;&gt;Node4 -->
<g id="edge4" class="edge">
<title>Node5&#45;&gt;Node4</title>
<path fill="none" stroke="midnightblue" d="M98.5,-828.18C98.5,-820.22 98.5,-811.35 98.5,-801.87"/>
<polygon fill="none" stroke="midnightblue" points="95,-828.41 98.5,-838.41 102,-828.41 95,-828.41"/>
</g>
<!-- Node6 -->
<g id="node6" class="node">
<title>Node6</title>
<g id="a_node6"><a xlink:href="../../d4/d35/interfacepocketmine_1_1item_1_1_releasable.html" target="_top" xlink:title=" ">
<polygon fill="white" stroke="black" points="194.5,-138.5 194.5,-195.5 350.5,-195.5 350.5,-138.5 194.5,-138.5"/>
<text text-anchor="middle" x="272.5" y="-183.5" font-family="Helvetica,sans-Serif" font-size="10.00">pocketmine\item\Releasable</text>
<polyline fill="none" stroke="black" points="194.5,-176.5 350.5,-176.5 "/>
<text text-anchor="middle" x="272.5" y="-164.5" font-family="Helvetica,sans-Serif" font-size="10.00"> </text>
<polyline fill="none" stroke="black" points="194.5,-157.5 350.5,-157.5 "/>
<text text-anchor="start" x="202.5" y="-145.5" font-family="Helvetica,sans-Serif" font-size="10.00">+ canStartUsingItem()</text>
</a>
</g>
</g>
<!-- Node6&#45;&gt;Node1 -->
<g id="edge5" class="edge">
<title>Node6&#45;&gt;Node1</title>
<path fill="none" stroke="midnightblue" d="M246.33,-130.05C237.36,-117.74 227.23,-103.81 217.83,-90.91"/>
<polygon fill="none" stroke="midnightblue" points="243.61,-132.26 252.32,-138.28 249.27,-128.14 243.61,-132.26"/>
</g>
</g>
</svg>
        <g id="navigator" transform="translate(0 0)" fill="#404254">
                <rect fill="#f2f5e9" fill-opacity="0.5" stroke="#606060" stroke-width=".5" x="0" y="0" width="60" height="60"/>
                <use id="zoomplus" xlink:href="#zoomPlus" x="17" y="9" onmousedown="handleZoom(evt,'in')"/>
                <use id="zoomminus" xlink:href="#zoomMin" x="42" y="9" onmousedown="handleZoom(evt,'out')"/>
                <use id="reset" xlink:href="#resetDef" x="30" y="36" onmousedown="handleReset()"/>
                <g id="arrowUp" xlink:href="#dirArrow" transform="translate(30 24)" onmousedown="handlePan(0,-1)">
                  <use xlink:href="#rim" fill="#404040">
                        <set attributeName="fill" to="#808080" begin="arrowUp.mouseover" end="arrowUp.mouseout"/>
                  </use>
                  <path fill="none" stroke="white" stroke-width="1.5" d="M0,-3.0v7 M-2.5,-0.5L0,-3.0L2.5,-0.5"/>
                </g>
                <g id="arrowRight" xlink:href="#dirArrow" transform="rotate(90) translate(36 -43)" onmousedown="handlePan(1,0)">
                  <use xlink:href="#rim" fill="#404040">
                        <set attributeName="fill" to="#808080" begin="arrowRight.mouseover" end="arrowRight.mouseout"/>
                  </use>
                  <path fill="none" stroke="white" stroke-width="1.5" d="M0,-3.0v7 M-2.5,-0.5L0,-3.0L2.5,-0.5"/>
                </g>
                <g id="arrowDown" xlink:href="#dirArrow" transform="rotate(180) translate(-30 -48)" onmousedown="handlePan(0,1)">
                  <use xlink:href="#rim" fill="#404040">
                        <set attributeName="fill" to="#808080" begin="arrowDown.mouseover" end="arrowDown.mouseout"/>
                  </use>
                  <path fill="none" stroke="white" stroke-width="1.5" d="M0,-3.0v7 M-2.5,-0.5L0,-3.0L2.5,-0.5"/>
                </g>
                <g id="arrowLeft" xlink:href="#dirArrow" transform="rotate(270) translate(-36 17)" onmousedown="handlePan(-1,0)">
                  <use xlink:href="#rim" fill="#404040">
                        <set attributeName="fill" to="#808080" begin="arrowLeft.mouseover" end="arrowLeft.mouseout"/>
                  </use>
                  <path fill="none" stroke="white" stroke-width="1.5" d="M0,-3.0v7 M-2.5,-0.5L0,-3.0L2.5,-0.5"/>
                </g>
        </g>
        <svg viewBox="0 0 15 15" width="100%" height="30px" preserveAspectRatio="xMaxYMin meet">
         <g id="arrow_out" transform="scale(0.3 0.3)">
          <a xlink:href="classpocketmine_1_1item_1_1_bow__inherit__graph_org.svg" target="_base">
           <rect id="button" ry="5" rx="5" y="6" x="6" height="38" width="38"
                fill="#f2f5e9" fill-opacity="0.5" stroke="#606060" stroke-width="1.0"/>
           <path id="arrow"
             d="M 11.500037,31.436501 C 11.940474,20.09759 22.043105,11.32322 32.158766,21.979434 L 37.068811,17.246167 C 37.068811,17.246167 37.088388,32 37.088388,32 L 22.160133,31.978069 C 22.160133,31.978069 26.997745,27.140456 26.997745,27.140456 C 18.528582,18.264221 13.291696,25.230495 11.500037,31.436501 z"
             style="fill:#404040;"/>
          </a>
         </g>
        </svg>
</svg>
