<?xml version="1.0" encoding="UTF-8" standalone="no"?>
<!DOCTYPE svg PUBLIC "-//W3C//DTD SVG 1.1//EN"
 "http://www.w3.org/Graphics/SVG/1.1/DTD/svg11.dtd">
<!-- Generated by graphviz version 2.43.0 (0)
 -->
<!-- Title: pocketmine\block\WoodenPressurePlate Pages: 1 -->
<svg width="732pt" height="1239pt"
 viewBox="0.00 0.00 732.31 1239.00" xmlns="http://www.w3.org/2000/svg" xmlns:xlink="http://www.w3.org/1999/xlink">
<g id="graph0" class="graph" transform="scale(1 1) rotate(0) translate(4 1235)">
<title>pocketmine\block\WoodenPressurePlate</title>
<polygon fill="white" stroke="transparent" points="-4,4 -4,-1235 728.31,-1235 728.31,4 -4,4"/>
<!-- Node1 -->
<g id="node1" class="node">
<title>Node1</title>
<g id="a_node1"><a xlink:title=" ">
<polygon fill="#bfbfbf" stroke="black" points="329.81,-0.5 329.81,-68.5 516.81,-68.5 516.81,-0.5 329.81,-0.5"/>
<text text-anchor="start" x="337.81" y="-56.5" font-family="Helvetica,sans-Serif" font-size="10.00">pocketmine\block\WoodenPressure</text>
<text text-anchor="middle" x="423.31" y="-45.5" font-family="Helvetica,sans-Serif" font-size="10.00">Plate</text>
<polyline fill="none" stroke="black" points="329.81,-38.5 516.81,-38.5 "/>
<text text-anchor="middle" x="423.31" y="-26.5" font-family="Helvetica,sans-Serif" font-size="10.00"> </text>
<polyline fill="none" stroke="black" points="329.81,-19.5 516.81,-19.5 "/>
<text text-anchor="start" x="337.81" y="-7.5" font-family="Helvetica,sans-Serif" font-size="10.00">+ getFuelTime()</text>
</a>
</g>
</g>
<!-- Node2 -->
<g id="node2" class="node">
<title>Node2</title>
<g id="a_node2"><a xlink:href="../../dd/dc4/classpocketmine_1_1block_1_1_simple_pressure_plate.html" target="_top" xlink:title=" ">
<polygon fill="white" stroke="#bfbfbf" points="332.31,-106.5 332.31,-218.5 514.31,-218.5 514.31,-106.5 332.31,-106.5"/>
<text text-anchor="start" x="340.31" y="-206.5" font-family="Helvetica,sans-Serif" font-size="10.00">pocketmine\block\SimplePressure</text>
<text text-anchor="middle" x="423.31" y="-195.5" font-family="Helvetica,sans-Serif" font-size="10.00">Plate</text>
<polyline fill="none" stroke="#bfbfbf" points="332.31,-188.5 514.31,-188.5 "/>
<text text-anchor="start" x="340.31" y="-176.5" font-family="Helvetica,sans-Serif" font-size="10.00"># $pressed</text>
<polyline fill="none" stroke="#bfbfbf" points="332.31,-169.5 514.31,-169.5 "/>
<text text-anchor="start" x="340.31" y="-157.5" font-family="Helvetica,sans-Serif" font-size="10.00">+ getStateBitmask()</text>
<text text-anchor="start" x="340.31" y="-146.5" font-family="Helvetica,sans-Serif" font-size="10.00">+ isPressed()</text>
<text text-anchor="start" x="340.31" y="-135.5" font-family="Helvetica,sans-Serif" font-size="10.00">+ readStateFromData()</text>
<text text-anchor="start" x="340.31" y="-124.5" font-family="Helvetica,sans-Serif" font-size="10.00">+ setPressed()</text>
<text text-anchor="start" x="340.31" y="-113.5" font-family="Helvetica,sans-Serif" font-size="10.00"># writeStateToMeta()</text>
</a>
</g>
</g>
<!-- Node2&#45;&gt;Node1 -->
<g id="edge1" class="edge">
<title>Node2&#45;&gt;Node1</title>
<path fill="none" stroke="midnightblue" d="M423.31,-95.96C423.31,-86.48 423.31,-77.08 423.31,-68.62"/>
<polygon fill="none" stroke="midnightblue" points="419.81,-96.23 423.31,-106.23 426.81,-96.23 419.81,-96.23"/>
</g>
<!-- Node3 -->
<g id="node3" class="node">
<title>Node3</title>
<g id="a_node3"><a xlink:href="../../de/d89/classpocketmine_1_1block_1_1_pressure_plate.html" target="_top" xlink:title=" ">
<polygon fill="white" stroke="#bfbfbf" points="342.81,-256.5 342.81,-368.5 503.81,-368.5 503.81,-256.5 342.81,-256.5"/>
<text text-anchor="start" x="350.81" y="-356.5" font-family="Helvetica,sans-Serif" font-size="10.00">pocketmine\block\Pressure</text>
<text text-anchor="middle" x="423.31" y="-345.5" font-family="Helvetica,sans-Serif" font-size="10.00">Plate</text>
<polyline fill="none" stroke="#bfbfbf" points="342.81,-338.5 503.81,-338.5 "/>
<text text-anchor="middle" x="423.31" y="-326.5" font-family="Helvetica,sans-Serif" font-size="10.00"> </text>
<polyline fill="none" stroke="#bfbfbf" points="342.81,-319.5 503.81,-319.5 "/>
<text text-anchor="start" x="350.81" y="-307.5" font-family="Helvetica,sans-Serif" font-size="10.00">+ getSupportType()</text>
<text text-anchor="start" x="350.81" y="-296.5" font-family="Helvetica,sans-Serif" font-size="10.00">+ isSolid()</text>
<text text-anchor="start" x="350.81" y="-285.5" font-family="Helvetica,sans-Serif" font-size="10.00">+ onNearbyBlockChange()</text>
<text text-anchor="start" x="350.81" y="-274.5" font-family="Helvetica,sans-Serif" font-size="10.00">+ place()</text>
<text text-anchor="start" x="350.81" y="-263.5" font-family="Helvetica,sans-Serif" font-size="10.00"># recalculateCollisionBoxes()</text>
</a>
</g>
</g>
<!-- Node3&#45;&gt;Node2 -->
<g id="edge2" class="edge">
<title>Node3&#45;&gt;Node2</title>
<path fill="none" stroke="midnightblue" d="M423.31,-246.14C423.31,-236.97 423.31,-227.61 423.31,-218.66"/>
<polygon fill="none" stroke="midnightblue" points="419.81,-246.39 423.31,-256.39 426.81,-246.39 419.81,-246.39"/>
</g>
<!-- Node4 -->
<g id="node4" class="node">
<title>Node4</title>
<g id="a_node4"><a xlink:href="../../d5/d1b/classpocketmine_1_1block_1_1_transparent.html" target="_top" xlink:title=" ">
<polygon fill="white" stroke="black" points="341.81,-406.5 341.81,-463.5 504.81,-463.5 504.81,-406.5 341.81,-406.5"/>
<text text-anchor="middle" x="423.31" y="-451.5" font-family="Helvetica,sans-Serif" font-size="10.00">pocketmine\block\Transparent</text>
<polyline fill="none" stroke="black" points="341.81,-444.5 504.81,-444.5 "/>
<text text-anchor="middle" x="423.31" y="-432.5" font-family="Helvetica,sans-Serif" font-size="10.00"> </text>
<polyline fill="none" stroke="black" points="341.81,-425.5 504.81,-425.5 "/>
<text text-anchor="start" x="349.81" y="-413.5" font-family="Helvetica,sans-Serif" font-size="10.00">+ isTransparent()</text>
</a>
</g>
</g>
<!-- Node4&#45;&gt;Node3 -->
<g id="edge3" class="edge">
<title>Node4&#45;&gt;Node3</title>
<path fill="none" stroke="midnightblue" d="M423.31,-396.11C423.31,-387.36 423.31,-377.88 423.31,-368.57"/>
<polygon fill="none" stroke="midnightblue" points="419.81,-396.35 423.31,-406.35 426.81,-396.35 419.81,-396.35"/>
</g>
<!-- Node5 -->
<g id="node5" class="node">
<title>Node5</title>
<g id="a_node5"><a xlink:href="../../d7/d27/classpocketmine_1_1block_1_1_block.html" target="_top" xlink:title=" ">
<polygon fill="white" stroke="#bfbfbf" points="342.81,-501.5 342.81,-723.5 503.81,-723.5 503.81,-501.5 342.81,-501.5"/>
<text text-anchor="middle" x="423.31" y="-711.5" font-family="Helvetica,sans-Serif" font-size="10.00">pocketmine\block\Block</text>
<polyline fill="none" stroke="#bfbfbf" points="342.81,-704.5 503.81,-704.5 "/>
<text text-anchor="start" x="350.81" y="-692.5" font-family="Helvetica,sans-Serif" font-size="10.00"># $collisionBoxes</text>
<text text-anchor="start" x="350.81" y="-681.5" font-family="Helvetica,sans-Serif" font-size="10.00"># $fallbackName</text>
<polyline fill="none" stroke="#bfbfbf" points="342.81,-674.5 503.81,-674.5 "/>
<text text-anchor="start" x="350.81" y="-662.5" font-family="Helvetica,sans-Serif" font-size="10.00">+ __construct()</text>
<text text-anchor="start" x="350.81" y="-651.5" font-family="Helvetica,sans-Serif" font-size="10.00">+ __clone()</text>
<text text-anchor="start" x="350.81" y="-640.5" font-family="Helvetica,sans-Serif" font-size="10.00">+ __toString()</text>
<text text-anchor="start" x="350.81" y="-629.5" font-family="Helvetica,sans-Serif" font-size="10.00">+ addVelocityToEntity()</text>
<text text-anchor="start" x="350.81" y="-618.5" font-family="Helvetica,sans-Serif" font-size="10.00">+ asItem()</text>
<text text-anchor="start" x="350.81" y="-607.5" font-family="Helvetica,sans-Serif" font-size="10.00">+ blocksDirectSkyLight()</text>
<text text-anchor="start" x="350.81" y="-596.5" font-family="Helvetica,sans-Serif" font-size="10.00">+ burnsForever()</text>
<text text-anchor="start" x="350.81" y="-585.5" font-family="Helvetica,sans-Serif" font-size="10.00">+ calculateIntercept()</text>
<text text-anchor="start" x="350.81" y="-574.5" font-family="Helvetica,sans-Serif" font-size="10.00">+ canBeFlowedInto()</text>
<text text-anchor="start" x="350.81" y="-563.5" font-family="Helvetica,sans-Serif" font-size="10.00">+ canBePlaced()</text>
<text text-anchor="start" x="350.81" y="-552.5" font-family="Helvetica,sans-Serif" font-size="10.00">and 57 more...</text>
<text text-anchor="start" x="350.81" y="-541.5" font-family="Helvetica,sans-Serif" font-size="10.00"># getXpDropAmount()</text>
<text text-anchor="start" x="350.81" y="-530.5" font-family="Helvetica,sans-Serif" font-size="10.00"># recalculateCollisionBoxes()</text>
<text text-anchor="start" x="350.81" y="-519.5" font-family="Helvetica,sans-Serif" font-size="10.00"># writeStateToItemMeta()</text>
<text text-anchor="start" x="350.81" y="-508.5" font-family="Helvetica,sans-Serif" font-size="10.00"># writeStateToMeta()</text>
</a>
</g>
</g>
<!-- Node5&#45;&gt;Node4 -->
<g id="edge4" class="edge">
<title>Node5&#45;&gt;Node4</title>
<path fill="none" stroke="midnightblue" d="M423.31,-491.09C423.31,-481.03 423.31,-471.64 423.31,-463.56"/>
<polygon fill="none" stroke="midnightblue" points="419.81,-491.35 423.31,-501.35 426.81,-491.35 419.81,-491.35"/>
</g>
<!-- Node6 -->
<g id="node6" class="node">
<title>Node6</title>
<g id="a_node6"><a xlink:title=" ">
<polygon fill="white" stroke="#bfbfbf" points="62.81,-1085.5 62.81,-1142.5 105.81,-1142.5 105.81,-1085.5 62.81,-1085.5"/>
<text text-anchor="middle" x="84.31" y="-1130.5" font-family="Helvetica,sans-Serif" font-size="10.00">const</text>
<polyline fill="none" stroke="#bfbfbf" points="62.81,-1123.5 105.81,-1123.5 "/>
<text text-anchor="middle" x="84.31" y="-1111.5" font-family="Helvetica,sans-Serif" font-size="10.00"> </text>
<polyline fill="none" stroke="#bfbfbf" points="62.81,-1104.5 105.81,-1104.5 "/>
<text text-anchor="middle" x="84.31" y="-1092.5" font-family="Helvetica,sans-Serif" font-size="10.00"> </text>
</a>
</g>
</g>
<!-- Node6&#45;&gt;Node5 -->
<g id="edge5" class="edge">
<title>Node6&#45;&gt;Node5</title>
<path fill="none" stroke="#404040" d="M67.75,-1085.36C32.95,-1023.32 -39.21,-870.61 28.31,-771 95.57,-671.77 236.43,-635.05 330.46,-621.47"/>
<polygon fill="none" stroke="#404040" points="330.65,-621.44 336.05,-616.67 342.54,-619.82 337.14,-624.59 330.65,-621.44"/>
<text text-anchor="start" x="28.31" y="-863.5" font-family="Helvetica,sans-Serif" font-size="10.00"> +INTERNAL_METADATA</text>
<text text-anchor="middle" x="102.81" y="-852.5" font-family="Helvetica,sans-Serif" font-size="10.00">_BITS</text>
<text text-anchor="middle" x="102.81" y="-841.5" font-family="Helvetica,sans-Serif" font-size="10.00">+INTERNAL_METADATA_MASK</text>
</g>
<!-- Node8 -->
<g id="node8" class="node">
<title>Node8</title>
<g id="a_node8"><a xlink:href="../../d3/d10/classpocketmine_1_1block_1_1_block_break_info.html" target="_top" xlink:title=" ">
<polygon fill="white" stroke="#bfbfbf" points="186.31,-771.5 186.31,-938.5 366.31,-938.5 366.31,-771.5 186.31,-771.5"/>
<text text-anchor="middle" x="276.31" y="-926.5" font-family="Helvetica,sans-Serif" font-size="10.00">pocketmine\block\BlockBreakInfo</text>
<polyline fill="none" stroke="#bfbfbf" points="186.31,-919.5 366.31,-919.5 "/>
<text text-anchor="middle" x="276.31" y="-907.5" font-family="Helvetica,sans-Serif" font-size="10.00"> </text>
<polyline fill="none" stroke="#bfbfbf" points="186.31,-900.5 366.31,-900.5 "/>
<text text-anchor="start" x="194.31" y="-888.5" font-family="Helvetica,sans-Serif" font-size="10.00">+ __construct()</text>
<text text-anchor="start" x="194.31" y="-877.5" font-family="Helvetica,sans-Serif" font-size="10.00">+ breaksInstantly()</text>
<text text-anchor="start" x="194.31" y="-866.5" font-family="Helvetica,sans-Serif" font-size="10.00">+ getBlastResistance()</text>
<text text-anchor="start" x="194.31" y="-855.5" font-family="Helvetica,sans-Serif" font-size="10.00">+ getBreakTime()</text>
<text text-anchor="start" x="194.31" y="-844.5" font-family="Helvetica,sans-Serif" font-size="10.00">+ getHardness()</text>
<text text-anchor="start" x="194.31" y="-833.5" font-family="Helvetica,sans-Serif" font-size="10.00">+ getToolHarvestLevel()</text>
<text text-anchor="start" x="194.31" y="-822.5" font-family="Helvetica,sans-Serif" font-size="10.00">+ getToolType()</text>
<text text-anchor="start" x="194.31" y="-811.5" font-family="Helvetica,sans-Serif" font-size="10.00">+ isBreakable()</text>
<text text-anchor="start" x="194.31" y="-800.5" font-family="Helvetica,sans-Serif" font-size="10.00">+ isToolCompatible()</text>
<text text-anchor="start" x="194.31" y="-789.5" font-family="Helvetica,sans-Serif" font-size="10.00">+ indestructible()</text>
<text text-anchor="start" x="194.31" y="-778.5" font-family="Helvetica,sans-Serif" font-size="10.00">+ instant()</text>
</a>
</g>
</g>
<!-- Node6&#45;&gt;Node8 -->
<g id="edge8" class="edge">
<title>Node6&#45;&gt;Node8</title>
<path fill="none" stroke="#404040" d="M104.85,-1085.5C129.15,-1052.97 170.88,-997.12 207.08,-948.66"/>
<polygon fill="none" stroke="#404040" points="207.3,-948.37 207.68,-941.17 214.48,-938.76 214.09,-945.96 207.3,-948.37"/>
<text text-anchor="middle" x="285.81" y="-971" font-family="Helvetica,sans-Serif" font-size="10.00"> +COMPATIBLE_TOOL_MULTIPLIER</text>
<text text-anchor="middle" x="285.81" y="-960" font-family="Helvetica,sans-Serif" font-size="10.00">+INCOMPATIBLE_TOOL_MULTIPLIER</text>
</g>
<!-- Node7 -->
<g id="node7" class="node">
<title>Node7</title>
<g id="a_node7"><a xlink:href="../../dd/d18/classpocketmine_1_1block_1_1_block_identifier.html" target="_top" xlink:title=" ">
<polygon fill="white" stroke="#bfbfbf" points="384.31,-799 384.31,-911 560.31,-911 560.31,-799 384.31,-799"/>
<text text-anchor="middle" x="472.31" y="-899" font-family="Helvetica,sans-Serif" font-size="10.00">pocketmine\block\BlockIdentifier</text>
<polyline fill="none" stroke="#bfbfbf" points="384.31,-892 560.31,-892 "/>
<text text-anchor="middle" x="472.31" y="-880" font-family="Helvetica,sans-Serif" font-size="10.00"> </text>
<polyline fill="none" stroke="#bfbfbf" points="384.31,-873 560.31,-873 "/>
<text text-anchor="start" x="392.31" y="-861" font-family="Helvetica,sans-Serif" font-size="10.00">+ __construct()</text>
<text text-anchor="start" x="392.31" y="-850" font-family="Helvetica,sans-Serif" font-size="10.00">+ getAllBlockIds()</text>
<text text-anchor="start" x="392.31" y="-839" font-family="Helvetica,sans-Serif" font-size="10.00">+ getBlockId()</text>
<text text-anchor="start" x="392.31" y="-828" font-family="Helvetica,sans-Serif" font-size="10.00">+ getItemId()</text>
<text text-anchor="start" x="392.31" y="-817" font-family="Helvetica,sans-Serif" font-size="10.00">+ getTileClass()</text>
<text text-anchor="start" x="392.31" y="-806" font-family="Helvetica,sans-Serif" font-size="10.00">+ getVariant()</text>
</a>
</g>
</g>
<!-- Node7&#45;&gt;Node5 -->
<g id="edge6" class="edge">
<title>Node7&#45;&gt;Node5</title>
<path fill="none" stroke="#404040" d="M461.07,-798.82C457.21,-779.9 452.73,-757.89 448.22,-735.8"/>
<polygon fill="none" stroke="#404040" points="448.19,-735.65 443.08,-730.57 445.8,-723.89 450.92,-728.97 448.19,-735.65"/>
<text text-anchor="middle" x="474.31" y="-745" font-family="Helvetica,sans-Serif" font-size="10.00"> #$idInfo</text>
</g>
<!-- Node8&#45;&gt;Node5 -->
<g id="edge7" class="edge">
<title>Node8&#45;&gt;Node5</title>
<path fill="none" stroke="#404040" d="M326.9,-771.23C334.23,-759.24 341.9,-746.69 349.57,-734.14"/>
<polygon fill="none" stroke="#404040" points="349.75,-733.84 349.47,-726.64 356.01,-723.6 356.29,-730.81 349.75,-733.84"/>
<text text-anchor="middle" x="373.31" y="-745" font-family="Helvetica,sans-Serif" font-size="10.00"> #$breakInfo</text>
</g>
<!-- Node9 -->
<g id="node9" class="node">
<title>Node9</title>
<g id="a_node9"><a xlink:href="../../d5/dd2/classpocketmine_1_1world_1_1_position.html" target="_top" xlink:title=" ">
<polygon fill="white" stroke="#bfbfbf" points="578.31,-788 578.31,-922 724.31,-922 724.31,-788 578.31,-788"/>
<text text-anchor="middle" x="651.31" y="-910" font-family="Helvetica,sans-Serif" font-size="10.00">pocketmine\world\Position</text>
<polyline fill="none" stroke="#bfbfbf" points="578.31,-903 724.31,-903 "/>
<text text-anchor="start" x="586.31" y="-891" font-family="Helvetica,sans-Serif" font-size="10.00">+ $world</text>
<polyline fill="none" stroke="#bfbfbf" points="578.31,-884 724.31,-884 "/>
<text text-anchor="start" x="586.31" y="-872" font-family="Helvetica,sans-Serif" font-size="10.00">+ __construct()</text>
<text text-anchor="start" x="586.31" y="-861" font-family="Helvetica,sans-Serif" font-size="10.00">+ __toString()</text>
<text text-anchor="start" x="586.31" y="-850" font-family="Helvetica,sans-Serif" font-size="10.00">+ asPosition()</text>
<text text-anchor="start" x="586.31" y="-839" font-family="Helvetica,sans-Serif" font-size="10.00">+ equals()</text>
<text text-anchor="start" x="586.31" y="-828" font-family="Helvetica,sans-Serif" font-size="10.00">+ getSide()</text>
<text text-anchor="start" x="586.31" y="-817" font-family="Helvetica,sans-Serif" font-size="10.00">+ getWorld()</text>
<text text-anchor="start" x="586.31" y="-806" font-family="Helvetica,sans-Serif" font-size="10.00">+ isValid()</text>
<text text-anchor="start" x="586.31" y="-795" font-family="Helvetica,sans-Serif" font-size="10.00">+ fromObject()</text>
</a>
</g>
</g>
<!-- Node9&#45;&gt;Node5 -->
<g id="edge9" class="edge">
<title>Node9&#45;&gt;Node5</title>
<path fill="none" stroke="#404040" d="M588.7,-787.96C565.25,-763.23 538.13,-734.62 512.72,-707.82"/>
<polygon fill="none" stroke="#404040" points="512.43,-707.51 505.4,-705.91 504.18,-698.8 511.21,-700.41 512.43,-707.51"/>
<text text-anchor="middle" x="579.81" y="-745" font-family="Helvetica,sans-Serif" font-size="10.00"> #$position</text>
</g>
<!-- Node10 -->
<g id="node10" class="node">
<title>Node10</title>
<g id="a_node10"><a xlink:href="../../d2/d90/classpocketmine_1_1math_1_1_vector3.html" target="_top" xlink:title=" ">
<polygon fill="white" stroke="#bfbfbf" points="580.31,-997.5 580.31,-1230.5 722.31,-1230.5 722.31,-997.5 580.31,-997.5"/>
<text text-anchor="middle" x="651.31" y="-1218.5" font-family="Helvetica,sans-Serif" font-size="10.00">pocketmine\math\Vector3</text>
<polyline fill="none" stroke="#bfbfbf" points="580.31,-1211.5 722.31,-1211.5 "/>
<text text-anchor="start" x="588.31" y="-1199.5" font-family="Helvetica,sans-Serif" font-size="10.00">+ $x</text>
<text text-anchor="start" x="588.31" y="-1188.5" font-family="Helvetica,sans-Serif" font-size="10.00">+ $y</text>
<text text-anchor="start" x="588.31" y="-1177.5" font-family="Helvetica,sans-Serif" font-size="10.00">+ $z</text>
<polyline fill="none" stroke="#bfbfbf" points="580.31,-1170.5 722.31,-1170.5 "/>
<text text-anchor="start" x="588.31" y="-1158.5" font-family="Helvetica,sans-Serif" font-size="10.00">+ __construct()</text>
<text text-anchor="start" x="588.31" y="-1147.5" font-family="Helvetica,sans-Serif" font-size="10.00">+ __toString()</text>
<text text-anchor="start" x="588.31" y="-1136.5" font-family="Helvetica,sans-Serif" font-size="10.00">+ abs()</text>
<text text-anchor="start" x="588.31" y="-1125.5" font-family="Helvetica,sans-Serif" font-size="10.00">+ add()</text>
<text text-anchor="start" x="588.31" y="-1114.5" font-family="Helvetica,sans-Serif" font-size="10.00">+ addVector()</text>
<text text-anchor="start" x="588.31" y="-1103.5" font-family="Helvetica,sans-Serif" font-size="10.00">+ asVector3()</text>
<text text-anchor="start" x="588.31" y="-1092.5" font-family="Helvetica,sans-Serif" font-size="10.00">+ ceil()</text>
<text text-anchor="start" x="588.31" y="-1081.5" font-family="Helvetica,sans-Serif" font-size="10.00">+ cross()</text>
<text text-anchor="start" x="588.31" y="-1070.5" font-family="Helvetica,sans-Serif" font-size="10.00">+ distance()</text>
<text text-anchor="start" x="588.31" y="-1059.5" font-family="Helvetica,sans-Serif" font-size="10.00">+ distanceSquared()</text>
<text text-anchor="start" x="588.31" y="-1048.5" font-family="Helvetica,sans-Serif" font-size="10.00">and 32 more...</text>
<text text-anchor="start" x="588.31" y="-1037.5" font-family="Helvetica,sans-Serif" font-size="10.00">+ maxComponents()</text>
<text text-anchor="start" x="588.31" y="-1026.5" font-family="Helvetica,sans-Serif" font-size="10.00">+ minComponents()</text>
<text text-anchor="start" x="588.31" y="-1015.5" font-family="Helvetica,sans-Serif" font-size="10.00">+ sum()</text>
<text text-anchor="start" x="588.31" y="-1004.5" font-family="Helvetica,sans-Serif" font-size="10.00">+ zero()</text>
</a>
</g>
</g>
<!-- Node10&#45;&gt;Node9 -->
<g id="edge10" class="edge">
<title>Node10&#45;&gt;Node9</title>
<path fill="none" stroke="midnightblue" d="M651.31,-987.01C651.31,-964.62 651.31,-942.12 651.31,-922.25"/>
<polygon fill="none" stroke="midnightblue" points="647.81,-987.28 651.31,-997.28 654.81,-987.28 647.81,-987.28"/>
</g>
</g>
</svg>
