<?xml version="1.0" encoding="UTF-8" standalone="no"?>
<!DOCTYPE svg PUBLIC "-//W3C//DTD SVG 1.1//EN"
 "http://www.w3.org/Graphics/SVG/1.1/DTD/svg11.dtd">
<!-- Generated by graphviz version 2.43.0 (0)
 -->
<!-- Title: pocketmine\world\format\io\WritableWorldProviderManagerEntry\__construct Pages: 1 -->
<svg width="412pt" height="110pt"
 viewBox="0.00 0.00 412.00 110.00" xmlns="http://www.w3.org/2000/svg" xmlns:xlink="http://www.w3.org/1999/xlink">
<g id="graph0" class="graph" transform="scale(1 1) rotate(0) translate(4 106)">
<title>pocketmine\world\format\io\WritableWorldProviderManagerEntry\__construct</title>
<polygon fill="white" stroke="transparent" points="-4,4 -4,-106 408,-106 408,4 -4,4"/>
<!-- Node1 -->
<g id="node1" class="node">
<title>Node1</title>
<g id="a_node1"><a xlink:title=" ">
<polygon fill="#bfbfbf" stroke="black" points="0,-30.5 0,-71.5 184,-71.5 184,-30.5 0,-30.5"/>
<text text-anchor="start" x="8" y="-59.5" font-family="Helvetica,sans-Serif" font-size="10.00">pocketmine\world\format</text>
<text text-anchor="start" x="8" y="-48.5" font-family="Helvetica,sans-Serif" font-size="10.00">\io\WritableWorldProviderManager</text>
<text text-anchor="middle" x="92" y="-37.5" font-family="Helvetica,sans-Serif" font-size="10.00">Entry\__construct</text>
</a>
</g>
</g>
<!-- Node2 -->
<g id="node2" class="node">
<title>Node2</title>
<g id="a_node2"><a xlink:href="../../dd/db7/classpocketmine_1_1world_1_1format_1_1io_1_1_writable_world_provider_manager_entry.html#a9ec9f1fae3078d54e7730ce62db3dd4f" target="_top" xlink:title=" ">
<polygon fill="white" stroke="black" points="220,-60.5 220,-101.5 404,-101.5 404,-60.5 220,-60.5"/>
<text text-anchor="start" x="228" y="-89.5" font-family="Helvetica,sans-Serif" font-size="10.00">pocketmine\world\format</text>
<text text-anchor="start" x="228" y="-78.5" font-family="Helvetica,sans-Serif" font-size="10.00">\io\WritableWorldProviderManager</text>
<text text-anchor="middle" x="312" y="-67.5" font-family="Helvetica,sans-Serif" font-size="10.00">Entry\fromPath</text>
</a>
</g>
</g>
<!-- Node1&#45;&gt;Node2 -->
<g id="edge1" class="edge">
<title>Node1&#45;&gt;Node2</title>
<path fill="none" stroke="midnightblue" d="M184.19,-63.55C192.66,-64.71 201.28,-65.9 209.83,-67.08"/>
<polygon fill="midnightblue" stroke="midnightblue" points="209.44,-70.56 219.83,-68.45 210.4,-63.62 209.44,-70.56"/>
</g>
<!-- Node3 -->
<g id="node3" class="node">
<title>Node3</title>
<g id="a_node3"><a xlink:href="../../dd/db7/classpocketmine_1_1world_1_1format_1_1io_1_1_writable_world_provider_manager_entry.html#a6b286b18c28a5c872d17f752f575ed80" target="_top" xlink:title=" ">
<polygon fill="white" stroke="black" points="220,-0.5 220,-41.5 404,-41.5 404,-0.5 220,-0.5"/>
<text text-anchor="start" x="228" y="-29.5" font-family="Helvetica,sans-Serif" font-size="10.00">pocketmine\world\format</text>
<text text-anchor="start" x="228" y="-18.5" font-family="Helvetica,sans-Serif" font-size="10.00">\io\WritableWorldProviderManager</text>
<text text-anchor="middle" x="312" y="-7.5" font-family="Helvetica,sans-Serif" font-size="10.00">Entry\generate</text>
</a>
</g>
</g>
<!-- Node1&#45;&gt;Node3 -->
<g id="edge2" class="edge">
<title>Node1&#45;&gt;Node3</title>
<path fill="none" stroke="midnightblue" d="M184.19,-38.45C192.66,-37.29 201.28,-36.1 209.83,-34.92"/>
<polygon fill="midnightblue" stroke="midnightblue" points="210.4,-38.38 219.83,-33.55 209.44,-31.44 210.4,-38.38"/>
</g>
</g>
</svg>
