<?xml version="1.0" encoding="UTF-8" standalone="no"?>
<!DOCTYPE svg PUBLIC "-//W3C//DTD SVG 1.1//EN"
 "http://www.w3.org/Graphics/SVG/1.1/DTD/svg11.dtd">
<!-- Generated by graphviz version 2.43.0 (0)
 -->
<!-- Title: pocketmine\player\Player\resetItemCooldown Pages: 1 -->
<svg width="438pt" height="39pt"
 viewBox="0.00 0.00 438.00 39.00" xmlns="http://www.w3.org/2000/svg" xmlns:xlink="http://www.w3.org/1999/xlink">
<g id="graph0" class="graph" transform="scale(1 1) rotate(0) translate(4 35)">
<title>pocketmine\player\Player\resetItemCooldown</title>
<polygon fill="white" stroke="transparent" points="-4,4 -4,-35 434,-35 434,4 -4,4"/>
<!-- Node1 -->
<g id="node1" class="node">
<title>Node1</title>
<g id="a_node1"><a xlink:title=" ">
<polygon fill="#bfbfbf" stroke="black" points="0,-0.5 0,-30.5 141,-30.5 141,-0.5 0,-0.5"/>
<text text-anchor="start" x="8" y="-18.5" font-family="Helvetica,sans-Serif" font-size="10.00">pocketmine\player\Player</text>
<text text-anchor="middle" x="70.5" y="-7.5" font-family="Helvetica,sans-Serif" font-size="10.00">\resetItemCooldown</text>
</a>
</g>
</g>
<!-- Node2 -->
<g id="node2" class="node">
<title>Node2</title>
<g id="a_node2"><a xlink:href="../../d2/d69/namespacepocketmine.html#ac8040f61ade1040754abb856b9707674" target="_top" xlink:title=" ">
<polygon fill="white" stroke="black" points="177,-6 177,-25 284,-25 284,-6 177,-6"/>
<text text-anchor="middle" x="230.5" y="-13" font-family="Helvetica,sans-Serif" font-size="10.00">pocketmine\server</text>
</a>
</g>
</g>
<!-- Node1&#45;&gt;Node2 -->
<g id="edge1" class="edge">
<title>Node1&#45;&gt;Node2</title>
<path fill="none" stroke="midnightblue" d="M141.26,-15.5C149.72,-15.5 158.33,-15.5 166.68,-15.5"/>
<polygon fill="midnightblue" stroke="midnightblue" points="166.72,-19 176.72,-15.5 166.72,-12 166.72,-19"/>
</g>
<!-- Node3 -->
<g id="node3" class="node">
<title>Node3</title>
<g id="a_node3"><a xlink:href="../../d2/d69/namespacepocketmine.html#a4917b9fbb96d9758f51845080b142b69" target="_top" xlink:title=" ">
<polygon fill="white" stroke="black" points="320,-0.5 320,-30.5 430,-30.5 430,-0.5 320,-0.5"/>
<text text-anchor="start" x="328" y="-18.5" font-family="Helvetica,sans-Serif" font-size="10.00">pocketmine\critical</text>
<text text-anchor="middle" x="375" y="-7.5" font-family="Helvetica,sans-Serif" font-size="10.00">_error</text>
</a>
</g>
</g>
<!-- Node2&#45;&gt;Node3 -->
<g id="edge2" class="edge">
<title>Node2&#45;&gt;Node3</title>
<path fill="none" stroke="midnightblue" d="M284.16,-15.5C292.39,-15.5 300.97,-15.5 309.43,-15.5"/>
<polygon fill="midnightblue" stroke="midnightblue" points="309.65,-19 319.65,-15.5 309.65,-12 309.65,-19"/>
</g>
</g>
</svg>
