<?xml version="1.0" encoding="UTF-8" standalone="no"?>
<!DOCTYPE svg PUBLIC "-//W3C//DTD SVG 1.1//EN"
 "http://www.w3.org/Graphics/SVG/1.1/DTD/svg11.dtd">
<!-- Generated by graphviz version 2.43.0 (0)
 -->
<!-- Title: pocketmine\block\tile\Container Pages: 1 -->
<svg width="1272pt" height="612pt"
 viewBox="0.00 0.00 1272.00 612.00" xmlns="http://www.w3.org/2000/svg" xmlns:xlink="http://www.w3.org/1999/xlink">
<g id="graph0" class="graph" transform="scale(1 1) rotate(0) translate(4 608)">
<title>pocketmine\block\tile\Container</title>
<polygon fill="white" stroke="transparent" points="-4,4 -4,-608 1268,-608 1268,4 -4,4"/>
<!-- Node1 -->
<g id="node1" class="node">
<title>Node1</title>
<g id="a_node1"><a xlink:title=" ">
<polygon fill="#bfbfbf" stroke="black" points="593,-408.5 593,-498.5 715,-498.5 715,-408.5 593,-408.5"/>
<text text-anchor="start" x="601" y="-486.5" font-family="Helvetica,sans-Serif" font-size="10.00">pocketmine\block\tile</text>
<text text-anchor="middle" x="654" y="-475.5" font-family="Helvetica,sans-Serif" font-size="10.00">\Container</text>
<polyline fill="none" stroke="black" points="593,-468.5 715,-468.5 "/>
<text text-anchor="start" x="601" y="-456.5" font-family="Helvetica,sans-Serif" font-size="10.00">+ TAG_ITEMS</text>
<text text-anchor="start" x="601" y="-445.5" font-family="Helvetica,sans-Serif" font-size="10.00">+ TAG_LOCK</text>
<polyline fill="none" stroke="black" points="593,-438.5 715,-438.5 "/>
<text text-anchor="start" x="601" y="-426.5" font-family="Helvetica,sans-Serif" font-size="10.00">+ canOpenWith()</text>
<text text-anchor="start" x="601" y="-415.5" font-family="Helvetica,sans-Serif" font-size="10.00">+ getRealInventory()</text>
</a>
</g>
</g>
<!-- Node3 -->
<g id="node3" class="node">
<title>Node3</title>
<g id="a_node3"><a xlink:href="../../d4/dcc/classpocketmine_1_1block_1_1tile_1_1_barrel.html" target="_top" xlink:title=" ">
<polygon fill="white" stroke="#bfbfbf" points="0,-171.5 0,-305.5 122,-305.5 122,-171.5 0,-171.5"/>
<text text-anchor="start" x="8" y="-293.5" font-family="Helvetica,sans-Serif" font-size="10.00">pocketmine\block\tile</text>
<text text-anchor="middle" x="61" y="-282.5" font-family="Helvetica,sans-Serif" font-size="10.00">\Barrel</text>
<polyline fill="none" stroke="#bfbfbf" points="0,-275.5 122,-275.5 "/>
<text text-anchor="start" x="8" y="-263.5" font-family="Helvetica,sans-Serif" font-size="10.00"># $inventory</text>
<polyline fill="none" stroke="#bfbfbf" points="0,-256.5 122,-256.5 "/>
<text text-anchor="start" x="8" y="-244.5" font-family="Helvetica,sans-Serif" font-size="10.00">+ __construct()</text>
<text text-anchor="start" x="8" y="-233.5" font-family="Helvetica,sans-Serif" font-size="10.00">+ close()</text>
<text text-anchor="start" x="8" y="-222.5" font-family="Helvetica,sans-Serif" font-size="10.00">+ getDefaultName()</text>
<text text-anchor="start" x="8" y="-211.5" font-family="Helvetica,sans-Serif" font-size="10.00">+ getInventory()</text>
<text text-anchor="start" x="8" y="-200.5" font-family="Helvetica,sans-Serif" font-size="10.00">+ getRealInventory()</text>
<text text-anchor="start" x="8" y="-189.5" font-family="Helvetica,sans-Serif" font-size="10.00">+ readSaveData()</text>
<text text-anchor="start" x="8" y="-178.5" font-family="Helvetica,sans-Serif" font-size="10.00"># writeSaveData()</text>
</a>
</g>
</g>
<!-- Node1&#45;&gt;Node3 -->
<g id="edge2" class="edge">
<title>Node1&#45;&gt;Node3</title>
<path fill="none" stroke="midnightblue" d="M582.6,-449.34C456.81,-442.53 202.24,-422.73 131,-372 108.43,-355.93 92.52,-330.3 81.64,-305.84"/>
<polygon fill="none" stroke="midnightblue" points="582.73,-452.86 592.9,-449.89 583.1,-445.86 582.73,-452.86"/>
</g>
<!-- Node4 -->
<g id="node4" class="node">
<title>Node4</title>
<g id="a_node4"><a xlink:href="../../d3/d41/classpocketmine_1_1block_1_1tile_1_1_brewing_stand.html" target="_top" xlink:title=" ">
<polygon fill="white" stroke="#bfbfbf" points="140,-160.5 140,-316.5 298,-316.5 298,-160.5 140,-160.5"/>
<text text-anchor="start" x="148" y="-304.5" font-family="Helvetica,sans-Serif" font-size="10.00">pocketmine\block\tile</text>
<text text-anchor="middle" x="219" y="-293.5" font-family="Helvetica,sans-Serif" font-size="10.00">\BrewingStand</text>
<polyline fill="none" stroke="#bfbfbf" points="140,-286.5 298,-286.5 "/>
<text text-anchor="start" x="148" y="-274.5" font-family="Helvetica,sans-Serif" font-size="10.00">+ BREW_TIME_TICKS</text>
<polyline fill="none" stroke="#bfbfbf" points="140,-267.5 298,-267.5 "/>
<text text-anchor="start" x="148" y="-255.5" font-family="Helvetica,sans-Serif" font-size="10.00">+ __construct()</text>
<text text-anchor="start" x="148" y="-244.5" font-family="Helvetica,sans-Serif" font-size="10.00">+ close()</text>
<text text-anchor="start" x="148" y="-233.5" font-family="Helvetica,sans-Serif" font-size="10.00">+ getDefaultName()</text>
<text text-anchor="start" x="148" y="-222.5" font-family="Helvetica,sans-Serif" font-size="10.00">+ getInventory()</text>
<text text-anchor="start" x="148" y="-211.5" font-family="Helvetica,sans-Serif" font-size="10.00">+ getRealInventory()</text>
<text text-anchor="start" x="148" y="-200.5" font-family="Helvetica,sans-Serif" font-size="10.00">+ onUpdate()</text>
<text text-anchor="start" x="148" y="-189.5" font-family="Helvetica,sans-Serif" font-size="10.00">+ readSaveData()</text>
<text text-anchor="start" x="148" y="-178.5" font-family="Helvetica,sans-Serif" font-size="10.00"># addAdditionalSpawnData()</text>
<text text-anchor="start" x="148" y="-167.5" font-family="Helvetica,sans-Serif" font-size="10.00"># writeSaveData()</text>
</a>
</g>
</g>
<!-- Node1&#45;&gt;Node4 -->
<g id="edge3" class="edge">
<title>Node1&#45;&gt;Node4</title>
<path fill="none" stroke="midnightblue" d="M582.47,-451.07C507.64,-446.33 389.76,-429.38 307,-372 286.58,-357.84 269.64,-337.26 256.25,-316.52"/>
<polygon fill="none" stroke="midnightblue" points="582.55,-454.58 592.73,-451.66 582.95,-447.6 582.55,-454.58"/>
</g>
<!-- Node5 -->
<g id="node5" class="node">
<title>Node5</title>
<g id="a_node5"><a xlink:href="../../d5/d8b/classpocketmine_1_1block_1_1tile_1_1_campfire.html" target="_top" xlink:title=" ">
<polygon fill="white" stroke="#bfbfbf" points="316,-166 316,-311 474,-311 474,-166 316,-166"/>
<text text-anchor="start" x="324" y="-299" font-family="Helvetica,sans-Serif" font-size="10.00">pocketmine\block\tile</text>
<text text-anchor="middle" x="395" y="-288" font-family="Helvetica,sans-Serif" font-size="10.00">\Campfire</text>
<polyline fill="none" stroke="#bfbfbf" points="316,-281 474,-281 "/>
<text text-anchor="start" x="324" y="-269" font-family="Helvetica,sans-Serif" font-size="10.00"># $inventory</text>
<polyline fill="none" stroke="#bfbfbf" points="316,-262 474,-262 "/>
<text text-anchor="start" x="324" y="-250" font-family="Helvetica,sans-Serif" font-size="10.00">+ __construct()</text>
<text text-anchor="start" x="324" y="-239" font-family="Helvetica,sans-Serif" font-size="10.00">+ getCookingTimes()</text>
<text text-anchor="start" x="324" y="-228" font-family="Helvetica,sans-Serif" font-size="10.00">+ getInventory()</text>
<text text-anchor="start" x="324" y="-217" font-family="Helvetica,sans-Serif" font-size="10.00">+ getRealInventory()</text>
<text text-anchor="start" x="324" y="-206" font-family="Helvetica,sans-Serif" font-size="10.00">+ readSaveData()</text>
<text text-anchor="start" x="324" y="-195" font-family="Helvetica,sans-Serif" font-size="10.00">+ setCookingTimes()</text>
<text text-anchor="start" x="324" y="-184" font-family="Helvetica,sans-Serif" font-size="10.00"># addAdditionalSpawnData()</text>
<text text-anchor="start" x="324" y="-173" font-family="Helvetica,sans-Serif" font-size="10.00"># writeSaveData()</text>
</a>
</g>
</g>
<!-- Node1&#45;&gt;Node5 -->
<g id="edge4" class="edge">
<title>Node1&#45;&gt;Node5</title>
<path fill="none" stroke="midnightblue" d="M583.17,-429.25C550.24,-416.05 512.05,-397.08 483,-372 463.35,-355.04 446.27,-332.66 432.52,-311.15"/>
<polygon fill="none" stroke="midnightblue" points="582.16,-432.61 592.75,-432.99 584.71,-426.09 582.16,-432.61"/>
</g>
<!-- Node6 -->
<g id="node6" class="node">
<title>Node6</title>
<g id="a_node6"><a xlink:href="../../d9/d64/classpocketmine_1_1block_1_1tile_1_1_chest.html" target="_top" xlink:title=" ">
<polygon fill="white" stroke="#bfbfbf" points="492,-105.5 492,-371.5 650,-371.5 650,-105.5 492,-105.5"/>
<text text-anchor="start" x="500" y="-359.5" font-family="Helvetica,sans-Serif" font-size="10.00">pocketmine\block\tile</text>
<text text-anchor="middle" x="571" y="-348.5" font-family="Helvetica,sans-Serif" font-size="10.00">\Chest</text>
<polyline fill="none" stroke="#bfbfbf" points="492,-341.5 650,-341.5 "/>
<text text-anchor="start" x="500" y="-329.5" font-family="Helvetica,sans-Serif" font-size="10.00">+ TAG_PAIR_LEAD</text>
<text text-anchor="start" x="500" y="-318.5" font-family="Helvetica,sans-Serif" font-size="10.00">+ TAG_PAIRX</text>
<text text-anchor="start" x="500" y="-307.5" font-family="Helvetica,sans-Serif" font-size="10.00">+ TAG_PAIRZ</text>
<text text-anchor="start" x="500" y="-296.5" font-family="Helvetica,sans-Serif" font-size="10.00"># $doubleInventory</text>
<text text-anchor="start" x="500" y="-285.5" font-family="Helvetica,sans-Serif" font-size="10.00"># $inventory</text>
<polyline fill="none" stroke="#bfbfbf" points="492,-278.5 650,-278.5 "/>
<text text-anchor="start" x="500" y="-266.5" font-family="Helvetica,sans-Serif" font-size="10.00">+ __construct()</text>
<text text-anchor="start" x="500" y="-255.5" font-family="Helvetica,sans-Serif" font-size="10.00">+ close()</text>
<text text-anchor="start" x="500" y="-244.5" font-family="Helvetica,sans-Serif" font-size="10.00">+ getCleanedNBT()</text>
<text text-anchor="start" x="500" y="-233.5" font-family="Helvetica,sans-Serif" font-size="10.00">+ getDefaultName()</text>
<text text-anchor="start" x="500" y="-222.5" font-family="Helvetica,sans-Serif" font-size="10.00">+ getInventory()</text>
<text text-anchor="start" x="500" y="-211.5" font-family="Helvetica,sans-Serif" font-size="10.00">+ getPair()</text>
<text text-anchor="start" x="500" y="-200.5" font-family="Helvetica,sans-Serif" font-size="10.00">+ getRealInventory()</text>
<text text-anchor="start" x="500" y="-189.5" font-family="Helvetica,sans-Serif" font-size="10.00">+ isPaired()</text>
<text text-anchor="start" x="500" y="-178.5" font-family="Helvetica,sans-Serif" font-size="10.00">+ pairWith()</text>
<text text-anchor="start" x="500" y="-167.5" font-family="Helvetica,sans-Serif" font-size="10.00">+ readSaveData()</text>
<text text-anchor="start" x="500" y="-156.5" font-family="Helvetica,sans-Serif" font-size="10.00">+ unpair()</text>
<text text-anchor="start" x="500" y="-145.5" font-family="Helvetica,sans-Serif" font-size="10.00"># addAdditionalSpawnData()</text>
<text text-anchor="start" x="500" y="-134.5" font-family="Helvetica,sans-Serif" font-size="10.00"># checkPairing()</text>
<text text-anchor="start" x="500" y="-123.5" font-family="Helvetica,sans-Serif" font-size="10.00"># onBlockDestroyedHook()</text>
<text text-anchor="start" x="500" y="-112.5" font-family="Helvetica,sans-Serif" font-size="10.00"># writeSaveData()</text>
</a>
</g>
</g>
<!-- Node1&#45;&gt;Node6 -->
<g id="edge5" class="edge">
<title>Node1&#45;&gt;Node6</title>
<path fill="none" stroke="midnightblue" d="M633.14,-398.97C629.81,-390.41 626.23,-381.23 622.54,-371.77"/>
<polygon fill="none" stroke="midnightblue" points="629.91,-400.32 636.8,-408.37 636.43,-397.78 629.91,-400.32"/>
</g>
<!-- Node7 -->
<g id="node7" class="node">
<title>Node7</title>
<g id="a_node7"><a xlink:href="../../d5/ddf/classpocketmine_1_1block_1_1tile_1_1_chiseled_bookshelf.html" target="_top" xlink:title=" ">
<polygon fill="white" stroke="#bfbfbf" points="668,-160.5 668,-316.5 808,-316.5 808,-160.5 668,-160.5"/>
<text text-anchor="start" x="676" y="-304.5" font-family="Helvetica,sans-Serif" font-size="10.00">pocketmine\block\tile</text>
<text text-anchor="middle" x="738" y="-293.5" font-family="Helvetica,sans-Serif" font-size="10.00">\ChiseledBookshelf</text>
<polyline fill="none" stroke="#bfbfbf" points="668,-286.5 808,-286.5 "/>
<text text-anchor="middle" x="738" y="-274.5" font-family="Helvetica,sans-Serif" font-size="10.00"> </text>
<polyline fill="none" stroke="#bfbfbf" points="668,-267.5 808,-267.5 "/>
<text text-anchor="start" x="676" y="-255.5" font-family="Helvetica,sans-Serif" font-size="10.00">+ __construct()</text>
<text text-anchor="start" x="676" y="-244.5" font-family="Helvetica,sans-Serif" font-size="10.00">+ getInventory()</text>
<text text-anchor="start" x="676" y="-233.5" font-family="Helvetica,sans-Serif" font-size="10.00">+ getLastInteractedSlot()</text>
<text text-anchor="start" x="676" y="-222.5" font-family="Helvetica,sans-Serif" font-size="10.00">+ getRealInventory()</text>
<text text-anchor="start" x="676" y="-211.5" font-family="Helvetica,sans-Serif" font-size="10.00">+ readSaveData()</text>
<text text-anchor="start" x="676" y="-200.5" font-family="Helvetica,sans-Serif" font-size="10.00">+ setLastInteractedSlot()</text>
<text text-anchor="start" x="676" y="-189.5" font-family="Helvetica,sans-Serif" font-size="10.00"># loadItems()</text>
<text text-anchor="start" x="676" y="-178.5" font-family="Helvetica,sans-Serif" font-size="10.00"># saveItems()</text>
<text text-anchor="start" x="676" y="-167.5" font-family="Helvetica,sans-Serif" font-size="10.00"># writeSaveData()</text>
</a>
</g>
</g>
<!-- Node1&#45;&gt;Node7 -->
<g id="edge6" class="edge">
<title>Node1&#45;&gt;Node7</title>
<path fill="none" stroke="midnightblue" d="M675.19,-398.76C684.99,-373.92 696.81,-343.95 707.54,-316.74"/>
<polygon fill="none" stroke="midnightblue" points="671.82,-397.78 671.4,-408.37 678.33,-400.35 671.82,-397.78"/>
</g>
<!-- Node8 -->
<g id="node8" class="node">
<title>Node8</title>
<g id="a_node8"><a xlink:href="../../db/d1f/classpocketmine_1_1block_1_1tile_1_1_furnace.html" target="_top" xlink:title=" ">
<polygon fill="white" stroke="#bfbfbf" points="826,-127.5 826,-349.5 948,-349.5 948,-127.5 826,-127.5"/>
<text text-anchor="start" x="834" y="-337.5" font-family="Helvetica,sans-Serif" font-size="10.00">pocketmine\block\tile</text>
<text text-anchor="middle" x="887" y="-326.5" font-family="Helvetica,sans-Serif" font-size="10.00">\Furnace</text>
<polyline fill="none" stroke="#bfbfbf" points="826,-319.5 948,-319.5 "/>
<text text-anchor="start" x="834" y="-307.5" font-family="Helvetica,sans-Serif" font-size="10.00">+ TAG_BURN_TIME</text>
<text text-anchor="start" x="834" y="-296.5" font-family="Helvetica,sans-Serif" font-size="10.00">+ TAG_COOK_TIME</text>
<text text-anchor="start" x="834" y="-285.5" font-family="Helvetica,sans-Serif" font-size="10.00">+ TAG_MAX_TIME</text>
<text text-anchor="start" x="834" y="-274.5" font-family="Helvetica,sans-Serif" font-size="10.00"># $inventory</text>
<polyline fill="none" stroke="#bfbfbf" points="826,-267.5 948,-267.5 "/>
<text text-anchor="start" x="834" y="-255.5" font-family="Helvetica,sans-Serif" font-size="10.00">+ __construct()</text>
<text text-anchor="start" x="834" y="-244.5" font-family="Helvetica,sans-Serif" font-size="10.00">+ close()</text>
<text text-anchor="start" x="834" y="-233.5" font-family="Helvetica,sans-Serif" font-size="10.00">+ getDefaultName()</text>
<text text-anchor="start" x="834" y="-222.5" font-family="Helvetica,sans-Serif" font-size="10.00">+ getFurnaceType()</text>
<text text-anchor="start" x="834" y="-211.5" font-family="Helvetica,sans-Serif" font-size="10.00">+ getInventory()</text>
<text text-anchor="start" x="834" y="-200.5" font-family="Helvetica,sans-Serif" font-size="10.00">+ getRealInventory()</text>
<text text-anchor="start" x="834" y="-189.5" font-family="Helvetica,sans-Serif" font-size="10.00">+ onUpdate()</text>
<text text-anchor="start" x="834" y="-178.5" font-family="Helvetica,sans-Serif" font-size="10.00">+ readSaveData()</text>
<text text-anchor="start" x="834" y="-167.5" font-family="Helvetica,sans-Serif" font-size="10.00"># checkFuel()</text>
<text text-anchor="start" x="834" y="-156.5" font-family="Helvetica,sans-Serif" font-size="10.00"># onStartSmelting()</text>
<text text-anchor="start" x="834" y="-145.5" font-family="Helvetica,sans-Serif" font-size="10.00"># onStopSmelting()</text>
<text text-anchor="start" x="834" y="-134.5" font-family="Helvetica,sans-Serif" font-size="10.00"># writeSaveData()</text>
</a>
</g>
</g>
<!-- Node1&#45;&gt;Node8 -->
<g id="edge7" class="edge">
<title>Node1&#45;&gt;Node8</title>
<path fill="none" stroke="midnightblue" d="M724.86,-428.9C755.95,-415.86 791.17,-397.13 817,-372 823.9,-365.29 830.27,-357.75 836.11,-349.76"/>
<polygon fill="none" stroke="midnightblue" points="723.31,-425.75 715.36,-432.76 725.94,-432.24 723.31,-425.75"/>
</g>
<!-- Node12 -->
<g id="node12" class="node">
<title>Node12</title>
<g id="a_node12"><a xlink:href="../../d2/d1d/classpocketmine_1_1block_1_1tile_1_1_hopper.html" target="_top" xlink:title=" ">
<polygon fill="white" stroke="#bfbfbf" points="966,-171.5 966,-305.5 1088,-305.5 1088,-171.5 966,-171.5"/>
<text text-anchor="start" x="974" y="-293.5" font-family="Helvetica,sans-Serif" font-size="10.00">pocketmine\block\tile</text>
<text text-anchor="middle" x="1027" y="-282.5" font-family="Helvetica,sans-Serif" font-size="10.00">\Hopper</text>
<polyline fill="none" stroke="#bfbfbf" points="966,-275.5 1088,-275.5 "/>
<text text-anchor="middle" x="1027" y="-263.5" font-family="Helvetica,sans-Serif" font-size="10.00"> </text>
<polyline fill="none" stroke="#bfbfbf" points="966,-256.5 1088,-256.5 "/>
<text text-anchor="start" x="974" y="-244.5" font-family="Helvetica,sans-Serif" font-size="10.00">+ __construct()</text>
<text text-anchor="start" x="974" y="-233.5" font-family="Helvetica,sans-Serif" font-size="10.00">+ close()</text>
<text text-anchor="start" x="974" y="-222.5" font-family="Helvetica,sans-Serif" font-size="10.00">+ getDefaultName()</text>
<text text-anchor="start" x="974" y="-211.5" font-family="Helvetica,sans-Serif" font-size="10.00">+ getInventory()</text>
<text text-anchor="start" x="974" y="-200.5" font-family="Helvetica,sans-Serif" font-size="10.00">+ getRealInventory()</text>
<text text-anchor="start" x="974" y="-189.5" font-family="Helvetica,sans-Serif" font-size="10.00">+ readSaveData()</text>
<text text-anchor="start" x="974" y="-178.5" font-family="Helvetica,sans-Serif" font-size="10.00"># writeSaveData()</text>
</a>
</g>
</g>
<!-- Node1&#45;&gt;Node12 -->
<g id="edge11" class="edge">
<title>Node1&#45;&gt;Node12</title>
<path fill="none" stroke="midnightblue" d="M724.97,-449.56C791.39,-443.42 890.16,-425.19 957,-372 978.37,-354.99 993.99,-329.64 1004.98,-305.66"/>
<polygon fill="none" stroke="midnightblue" points="724.67,-446.08 715,-450.42 725.27,-453.05 724.67,-446.08"/>
</g>
<!-- Node13 -->
<g id="node13" class="node">
<title>Node13</title>
<g id="a_node13"><a xlink:href="../../dd/dd0/classpocketmine_1_1block_1_1tile_1_1_shulker_box.html" target="_top" xlink:title=" ">
<polygon fill="white" stroke="#bfbfbf" points="1106,-127.5 1106,-349.5 1264,-349.5 1264,-127.5 1106,-127.5"/>
<text text-anchor="start" x="1114" y="-337.5" font-family="Helvetica,sans-Serif" font-size="10.00">pocketmine\block\tile</text>
<text text-anchor="middle" x="1185" y="-326.5" font-family="Helvetica,sans-Serif" font-size="10.00">\ShulkerBox</text>
<polyline fill="none" stroke="#bfbfbf" points="1106,-319.5 1264,-319.5 "/>
<text text-anchor="start" x="1114" y="-307.5" font-family="Helvetica,sans-Serif" font-size="10.00">+ TAG_FACING</text>
<text text-anchor="start" x="1114" y="-296.5" font-family="Helvetica,sans-Serif" font-size="10.00"># $facing</text>
<text text-anchor="start" x="1114" y="-285.5" font-family="Helvetica,sans-Serif" font-size="10.00"># $inventory</text>
<polyline fill="none" stroke="#bfbfbf" points="1106,-278.5 1264,-278.5 "/>
<text text-anchor="start" x="1114" y="-266.5" font-family="Helvetica,sans-Serif" font-size="10.00">+ __construct()</text>
<text text-anchor="start" x="1114" y="-255.5" font-family="Helvetica,sans-Serif" font-size="10.00">+ close()</text>
<text text-anchor="start" x="1114" y="-244.5" font-family="Helvetica,sans-Serif" font-size="10.00">+ copyDataFromItem()</text>
<text text-anchor="start" x="1114" y="-233.5" font-family="Helvetica,sans-Serif" font-size="10.00">+ getCleanedNBT()</text>
<text text-anchor="start" x="1114" y="-222.5" font-family="Helvetica,sans-Serif" font-size="10.00">+ getDefaultName()</text>
<text text-anchor="start" x="1114" y="-211.5" font-family="Helvetica,sans-Serif" font-size="10.00">+ getFacing()</text>
<text text-anchor="start" x="1114" y="-200.5" font-family="Helvetica,sans-Serif" font-size="10.00">+ getInventory()</text>
<text text-anchor="start" x="1114" y="-189.5" font-family="Helvetica,sans-Serif" font-size="10.00">+ getRealInventory()</text>
<text text-anchor="start" x="1114" y="-178.5" font-family="Helvetica,sans-Serif" font-size="10.00">+ readSaveData()</text>
<text text-anchor="start" x="1114" y="-167.5" font-family="Helvetica,sans-Serif" font-size="10.00">+ setFacing()</text>
<text text-anchor="start" x="1114" y="-156.5" font-family="Helvetica,sans-Serif" font-size="10.00"># addAdditionalSpawnData()</text>
<text text-anchor="start" x="1114" y="-145.5" font-family="Helvetica,sans-Serif" font-size="10.00"># onBlockDestroyedHook()</text>
<text text-anchor="start" x="1114" y="-134.5" font-family="Helvetica,sans-Serif" font-size="10.00"># writeSaveData()</text>
</a>
</g>
</g>
<!-- Node1&#45;&gt;Node13 -->
<g id="edge12" class="edge">
<title>Node1&#45;&gt;Node13</title>
<path fill="none" stroke="midnightblue" d="M725.48,-446.33C834.75,-435.78 1036.99,-411.5 1097,-372 1106.46,-365.77 1115.14,-358.15 1123.06,-349.72"/>
<polygon fill="none" stroke="midnightblue" points="724.83,-442.88 715.2,-447.31 725.49,-449.85 724.83,-442.88"/>
</g>
<!-- Node2 -->
<g id="node2" class="node">
<title>Node2</title>
<g id="a_node2"><a xlink:href="../../d2/d91/interfacepocketmine_1_1inventory_1_1_inventory_holder.html" target="_top" xlink:title=" ">
<polygon fill="white" stroke="#bfbfbf" points="592.5,-535.5 592.5,-603.5 715.5,-603.5 715.5,-535.5 592.5,-535.5"/>
<text text-anchor="start" x="600.5" y="-591.5" font-family="Helvetica,sans-Serif" font-size="10.00">pocketmine\inventory</text>
<text text-anchor="middle" x="654" y="-580.5" font-family="Helvetica,sans-Serif" font-size="10.00">\InventoryHolder</text>
<polyline fill="none" stroke="#bfbfbf" points="592.5,-573.5 715.5,-573.5 "/>
<text text-anchor="middle" x="654" y="-561.5" font-family="Helvetica,sans-Serif" font-size="10.00"> </text>
<polyline fill="none" stroke="#bfbfbf" points="592.5,-554.5 715.5,-554.5 "/>
<text text-anchor="start" x="600.5" y="-542.5" font-family="Helvetica,sans-Serif" font-size="10.00">+ getInventory()</text>
</a>
</g>
</g>
<!-- Node2&#45;&gt;Node1 -->
<g id="edge1" class="edge">
<title>Node2&#45;&gt;Node1</title>
<path fill="none" stroke="midnightblue" d="M654,-524.97C654,-516.35 654,-507.28 654,-498.64"/>
<polygon fill="none" stroke="midnightblue" points="650.5,-525.22 654,-535.22 657.5,-525.22 650.5,-525.22"/>
</g>
<!-- Node9 -->
<g id="node9" class="node">
<title>Node9</title>
<g id="a_node9"><a xlink:href="../../dc/dd8/classpocketmine_1_1block_1_1tile_1_1_blast_furnace.html" target="_top" xlink:title=" ">
<polygon fill="white" stroke="#bfbfbf" points="686,-0.5 686,-68.5 808,-68.5 808,-0.5 686,-0.5"/>
<text text-anchor="start" x="694" y="-56.5" font-family="Helvetica,sans-Serif" font-size="10.00">pocketmine\block\tile</text>
<text text-anchor="middle" x="747" y="-45.5" font-family="Helvetica,sans-Serif" font-size="10.00">\BlastFurnace</text>
<polyline fill="none" stroke="#bfbfbf" points="686,-38.5 808,-38.5 "/>
<text text-anchor="middle" x="747" y="-26.5" font-family="Helvetica,sans-Serif" font-size="10.00"> </text>
<polyline fill="none" stroke="#bfbfbf" points="686,-19.5 808,-19.5 "/>
<text text-anchor="start" x="694" y="-7.5" font-family="Helvetica,sans-Serif" font-size="10.00">+ getFurnaceType()</text>
</a>
</g>
</g>
<!-- Node8&#45;&gt;Node9 -->
<g id="edge8" class="edge">
<title>Node8&#45;&gt;Node9</title>
<path fill="none" stroke="midnightblue" d="M826.67,-118.79C823.52,-114.06 820.29,-109.44 817,-105 807.52,-92.2 795.69,-79.53 784.47,-68.58"/>
<polygon fill="none" stroke="midnightblue" points="823.88,-120.93 832.25,-127.43 829.76,-117.13 823.88,-120.93"/>
</g>
<!-- Node10 -->
<g id="node10" class="node">
<title>Node10</title>
<g id="a_node10"><a xlink:href="../../df/d73/classpocketmine_1_1block_1_1tile_1_1_normal_furnace.html" target="_top" xlink:title=" ">
<polygon fill="white" stroke="#bfbfbf" points="826,-0.5 826,-68.5 948,-68.5 948,-0.5 826,-0.5"/>
<text text-anchor="start" x="834" y="-56.5" font-family="Helvetica,sans-Serif" font-size="10.00">pocketmine\block\tile</text>
<text text-anchor="middle" x="887" y="-45.5" font-family="Helvetica,sans-Serif" font-size="10.00">\NormalFurnace</text>
<polyline fill="none" stroke="#bfbfbf" points="826,-38.5 948,-38.5 "/>
<text text-anchor="middle" x="887" y="-26.5" font-family="Helvetica,sans-Serif" font-size="10.00"> </text>
<polyline fill="none" stroke="#bfbfbf" points="826,-19.5 948,-19.5 "/>
<text text-anchor="start" x="834" y="-7.5" font-family="Helvetica,sans-Serif" font-size="10.00">+ getFurnaceType()</text>
</a>
</g>
</g>
<!-- Node8&#45;&gt;Node10 -->
<g id="edge9" class="edge">
<title>Node8&#45;&gt;Node10</title>
<path fill="none" stroke="midnightblue" d="M887,-116.86C887,-99.19 887,-82.36 887,-68.64"/>
<polygon fill="none" stroke="midnightblue" points="883.5,-117.34 887,-127.34 890.5,-117.34 883.5,-117.34"/>
</g>
<!-- Node11 -->
<g id="node11" class="node">
<title>Node11</title>
<g id="a_node11"><a xlink:href="../../db/d5c/classpocketmine_1_1block_1_1tile_1_1_smoker.html" target="_top" xlink:title=" ">
<polygon fill="white" stroke="#bfbfbf" points="966,-0.5 966,-68.5 1088,-68.5 1088,-0.5 966,-0.5"/>
<text text-anchor="start" x="974" y="-56.5" font-family="Helvetica,sans-Serif" font-size="10.00">pocketmine\block\tile</text>
<text text-anchor="middle" x="1027" y="-45.5" font-family="Helvetica,sans-Serif" font-size="10.00">\Smoker</text>
<polyline fill="none" stroke="#bfbfbf" points="966,-38.5 1088,-38.5 "/>
<text text-anchor="middle" x="1027" y="-26.5" font-family="Helvetica,sans-Serif" font-size="10.00"> </text>
<polyline fill="none" stroke="#bfbfbf" points="966,-19.5 1088,-19.5 "/>
<text text-anchor="start" x="974" y="-7.5" font-family="Helvetica,sans-Serif" font-size="10.00">+ getFurnaceType()</text>
</a>
</g>
</g>
<!-- Node8&#45;&gt;Node11 -->
<g id="edge10" class="edge">
<title>Node8&#45;&gt;Node11</title>
<path fill="none" stroke="midnightblue" d="M947.33,-118.79C950.48,-114.06 953.71,-109.44 957,-105 966.48,-92.2 978.31,-79.53 989.53,-68.58"/>
<polygon fill="none" stroke="midnightblue" points="944.24,-117.13 941.75,-127.43 950.12,-120.93 944.24,-117.13"/>
</g>
</g>
</svg>
