<?xml version="1.0" encoding="UTF-8" standalone="no"?>
<!DOCTYPE svg PUBLIC "-//W3C//DTD SVG 1.1//EN"
 "http://www.w3.org/Graphics/SVG/1.1/DTD/svg11.dtd">
<!-- Generated by graphviz version 2.43.0 (0)
 -->
<!-- Title: pocketmine\utils\MainLogger Pages: 1 -->
<!--zoomable 694 -->

<svg id="main" version="1.1" xmlns="http://www.w3.org/2000/svg" xmlns:xlink="http://www.w3.org/1999/xlink" xml:space="preserve" onload="init(evt)">

<style type="text/css"><![CDATA[
.node, .edge {opacity: 0.7;}
.node.selected, .edge.selected {opacity: 1;}
.edge:hover path { stroke: red; }
.edge:hover polygon { stroke: red; fill: red; }
]]></style>

<defs>
  <circle id="rim" cx="0" cy="0" r="7"/>
  <circle id="rim2" cx="0" cy="0" r="3.5"/>
  <g id="zoomPlus">
    <use xlink:href="#rim" fill="#404040"><set attributeName="fill" to="#808080" begin="zoomplus.mouseover" end="zoomplus.mouseout"/></use>
    <path d="M-4,0h8M0,-4v8" fill="none" stroke="white" stroke-width="1.5" pointer-events="none"/>
  </g>
  <g id="zoomMin">
    <use xlink:href="#rim" fill="#404040"><set attributeName="fill" to="#808080" begin="zoomminus.mouseover" end="zoomminus.mouseout"/></use>
    <path d="M-4,0h8" fill="none" stroke="white" stroke-width="1.5" pointer-events="none"/>
  </g>
  <g id="arrowUp" transform="translate(30 24)">
    <use xlink:href="#rim"/>
    <path pointer-events="none" fill="none" stroke="white" stroke-width="1.5" d="M0,-3.0v7 M-2.5,-0.5L0,-3.0L2.5,-0.5"/>
  </g>
  <g id="arrowRight" transform="rotate(90) translate(36 -43)">
    <use xlink:href="#rim"/>
    <path pointer-events="none" fill="none" stroke="white" stroke-width="1.5" d="M0,-3.0v7 M-2.5,-0.5L0,-3.0L2.5,-0.5"/>
  </g>
  <g id="arrowDown" transform="rotate(180) translate(-30 -48)">
    <use xlink:href="#rim"/>
    <path pointer-events="none" fill="none" stroke="white" stroke-width="1.5" d="M0,-3.0v7 M-2.5,-0.5L0,-3.0L2.5,-0.5"/>
  </g>
  <g id="arrowLeft" transform="rotate(270) translate(-36 17)">
    <use xlink:href="#rim"/>
    <path pointer-events="none" fill="none" stroke="white" stroke-width="1.5" d="M0,-3.0v7 M-2.5,-0.5L0,-3.0L2.5,-0.5"/>
  </g>
  <g id="resetDef">
    <use xlink:href="#rim2" fill="#404040"><set attributeName="fill" to="#808080" begin="reset.mouseover" end="reset.mouseout"/></use>
  </g>
</defs>
<script type="application/ecmascript">
var viewWidth = 266;
var viewHeight = 694;
var sectionId = 'dynsection-0';
</script>
<script type="application/ecmascript" xlink:href="../../svg.min.js"/>
<svg id="graph" class="graph">
<g id="viewport">
<title>pocketmine\utils\MainLogger</title>
<!-- Node1 -->
<g id="Node000001" class="node">
<title>Node1</title>
<g id="a_Node000001"><a xlink:title=" ">
<polygon fill="#999999" stroke="transparent" points="222.5,-214 70.5,-214 70.5,0 222.5,0 222.5,-214"/>
<text text-anchor="start" x="75.5" y="-202" font-family="Helvetica,sans-Serif" font-size="10.00">pocketmine\utils\MainLogger</text>
<text text-anchor="start" x="91" y="-187" font-family="Helvetica,sans-Serif" font-size="10.00">#</text>
<text text-anchor="start" x="120.5" y="-187" font-family="Helvetica,sans-Serif" font-size="10.00">$logDebug</text>
<text text-anchor="start" x="91" y="-172" font-family="Helvetica,sans-Serif" font-size="10.00">+</text>
<text text-anchor="start" x="120.5" y="-172" font-family="Helvetica,sans-Serif" font-size="10.00">__construct()</text>
<text text-anchor="start" x="91" y="-157" font-family="Helvetica,sans-Serif" font-size="10.00">+</text>
<text text-anchor="start" x="120.5" y="-157" font-family="Helvetica,sans-Serif" font-size="10.00">__destruct()</text>
<text text-anchor="start" x="91" y="-142" font-family="Helvetica,sans-Serif" font-size="10.00">+</text>
<text text-anchor="start" x="120.5" y="-142" font-family="Helvetica,sans-Serif" font-size="10.00">alert()</text>
<text text-anchor="start" x="91" y="-127" font-family="Helvetica,sans-Serif" font-size="10.00">+</text>
<text text-anchor="start" x="120.5" y="-127" font-family="Helvetica,sans-Serif" font-size="10.00">buffer()</text>
<text text-anchor="start" x="91" y="-112" font-family="Helvetica,sans-Serif" font-size="10.00">+</text>
<text text-anchor="start" x="120.5" y="-112" font-family="Helvetica,sans-Serif" font-size="10.00">critical()</text>
<text text-anchor="start" x="91" y="-97" font-family="Helvetica,sans-Serif" font-size="10.00">+</text>
<text text-anchor="start" x="120.5" y="-97" font-family="Helvetica,sans-Serif" font-size="10.00">debug()</text>
<text text-anchor="start" x="91" y="-82" font-family="Helvetica,sans-Serif" font-size="10.00">+</text>
<text text-anchor="start" x="120.5" y="-82" font-family="Helvetica,sans-Serif" font-size="10.00">emergency()</text>
<text text-anchor="start" x="91" y="-67" font-family="Helvetica,sans-Serif" font-size="10.00">+</text>
<text text-anchor="start" x="120.5" y="-67" font-family="Helvetica,sans-Serif" font-size="10.00">error()</text>
<text text-anchor="start" x="91" y="-52" font-family="Helvetica,sans-Serif" font-size="10.00">+</text>
<text text-anchor="start" x="120.5" y="-52" font-family="Helvetica,sans-Serif" font-size="10.00">getFormat()</text>
<text text-anchor="start" x="91" y="-37" font-family="Helvetica,sans-Serif" font-size="10.00">+</text>
<text text-anchor="start" x="120.5" y="-37" font-family="Helvetica,sans-Serif" font-size="10.00">info()</text>
<text text-anchor="start" x="120.5" y="-22" font-family="Helvetica,sans-Serif" font-size="10.00">and 8 more...</text>
<text text-anchor="start" x="91" y="-7" font-family="Helvetica,sans-Serif" font-size="10.00">#</text>
<text text-anchor="start" x="120.5" y="-7" font-family="Helvetica,sans-Serif" font-size="10.00">send()</text>
<polygon fill="#666666" stroke="#666666" points="70.5,-197 70.5,-197 222.5,-197 222.5,-197 70.5,-197"/>
<polygon fill="#666666" stroke="#666666" points="70.5,-182 70.5,-182 118.5,-182 118.5,-182 70.5,-182"/>
<polygon fill="#666666" stroke="#666666" points="118.5,-182 118.5,-182 222.5,-182 222.5,-182 118.5,-182"/>
<polygon fill="none" stroke="#666666" points="70.5,0 70.5,-214 222.5,-214 222.5,0 70.5,0"/>
</a>
</g>
</g>
<!-- Node2 -->
<g id="Node000002" class="node">
<title>Node2</title>
<g id="a_Node000002"><a xlink:href="../../d8/daf/classpocketmine_1_1thread_1_1log_1_1_attachable_thread_safe_logger.html" target="_top" xlink:title=" ">
<polygon fill="white" stroke="transparent" points="155,-370 0,-370 0,-250 155,-250 155,-370"/>
<text text-anchor="start" x="5.5" y="-358" font-family="Helvetica,sans-Serif" font-size="10.00">pocketmine\thread\log</text>
<text text-anchor="start" x="5.5" y="-347" font-family="Helvetica,sans-Serif" font-size="10.00">\AttachableThreadSafeLogger</text>
<text text-anchor="start" x="11" y="-332" font-family="Helvetica,sans-Serif" font-size="10.00">#</text>
<text text-anchor="start" x="30.5" y="-332" font-family="Helvetica,sans-Serif" font-size="10.00">$attachments</text>
<text text-anchor="start" x="11" y="-317" font-family="Helvetica,sans-Serif" font-size="10.00">+</text>
<text text-anchor="start" x="30.5" y="-317" font-family="Helvetica,sans-Serif" font-size="10.00">__construct()</text>
<text text-anchor="start" x="11" y="-302" font-family="Helvetica,sans-Serif" font-size="10.00">+</text>
<text text-anchor="start" x="30.5" y="-302" font-family="Helvetica,sans-Serif" font-size="10.00">addAttachment()</text>
<text text-anchor="start" x="11" y="-287" font-family="Helvetica,sans-Serif" font-size="10.00">+</text>
<text text-anchor="start" x="30.5" y="-287" font-family="Helvetica,sans-Serif" font-size="10.00">getAttachments()</text>
<text text-anchor="start" x="11" y="-272" font-family="Helvetica,sans-Serif" font-size="10.00">+</text>
<text text-anchor="start" x="30.5" y="-272" font-family="Helvetica,sans-Serif" font-size="10.00">removeAttachment()</text>
<text text-anchor="start" x="11" y="-257" font-family="Helvetica,sans-Serif" font-size="10.00">+</text>
<text text-anchor="start" x="30.5" y="-257" font-family="Helvetica,sans-Serif" font-size="10.00">removeAttachments()</text>
<polygon fill="#bfbfbf" stroke="#bfbfbf" points="0.5,-342 0.5,-342 155.5,-342 155.5,-342 0.5,-342"/>
<polygon fill="#bfbfbf" stroke="#bfbfbf" points="0.5,-327 0.5,-327 28.5,-327 28.5,-327 0.5,-327"/>
<polygon fill="#bfbfbf" stroke="#bfbfbf" points="28.5,-327 28.5,-327 155.5,-327 155.5,-327 28.5,-327"/>
<polygon fill="none" stroke="#bfbfbf" points="0,-250 0,-370 155,-370 155,-250 0,-250"/>
</a>
</g>
</g>
<!-- Node2&#45;&gt;Node1 -->
<g id="edge1_Node000001_Node000002" class="edge">
<title>Node2&#45;&gt;Node1</title>
<g id="a_edge1_Node000001_Node000002"><a xlink:title=" ">
<path fill="none" stroke="#63b8ff" d="M101.14,-240.12C104.02,-231.75 107,-223.06 110.01,-214.3"/>
<polygon fill="none" stroke="#63b8ff" points="97.77,-239.19 97.83,-249.78 104.39,-241.46 97.77,-239.19"/>
</a>
</g>
</g>
<!-- Node3 -->
<g id="Node000003" class="node">
<title>Node3</title>
<g id="a_Node000003"><a xlink:href="../../da/df4/classpocketmine_1_1thread_1_1log_1_1_thread_safe_logger.html" target="_top" xlink:title=" ">
<polygon fill="white" stroke="transparent" points="157.5,-466 37.5,-466 37.5,-406 157.5,-406 157.5,-466"/>
<text text-anchor="start" x="42.5" y="-454" font-family="Helvetica,sans-Serif" font-size="10.00">pocketmine\thread\log</text>
<text text-anchor="start" x="51.5" y="-443" font-family="Helvetica,sans-Serif" font-size="10.00">\ThreadSafeLogger</text>
<text text-anchor="start" x="95.5" y="-428" font-family="Helvetica,sans-Serif" font-size="10.00"> </text>
<text text-anchor="start" x="95.5" y="-413" font-family="Helvetica,sans-Serif" font-size="10.00"> </text>
<polygon fill="#bfbfbf" stroke="#bfbfbf" points="37.5,-438 37.5,-438 157.5,-438 157.5,-438 37.5,-438"/>
<polygon fill="#bfbfbf" stroke="#bfbfbf" points="37.5,-423 37.5,-423 157.5,-423 157.5,-423 37.5,-423"/>
<polygon fill="none" stroke="#bfbfbf" points="37.5,-406 37.5,-466 157.5,-466 157.5,-406 37.5,-406"/>
</a>
</g>
</g>
<!-- Node3&#45;&gt;Node2 -->
<g id="edge2_Node000002_Node000003" class="edge">
<title>Node3&#45;&gt;Node2</title>
<g id="a_edge2_Node000002_Node000003"><a xlink:title=" ">
<path fill="none" stroke="#63b8ff" d="M91.2,-395.93C89.88,-387.73 88.45,-378.9 87.04,-370.16"/>
<polygon fill="none" stroke="#63b8ff" points="87.76,-396.61 92.81,-405.93 94.67,-395.5 87.76,-396.61"/>
</a>
</g>
</g>
<!-- Node4 -->
<g id="Node000004" class="node">
<title>Node4</title>
<g id="a_Node000004"><a xlink:title=" ">
<polygon fill="white" stroke="transparent" points="130.5,-618.5 64.5,-618.5 64.5,-569.5 130.5,-569.5 130.5,-618.5"/>
<text text-anchor="start" x="69.5" y="-606" font-family="Helvetica,sans-Serif" font-size="10.00">ThreadSafe</text>
<text text-anchor="start" x="95.5" y="-591" font-family="Helvetica,sans-Serif" font-size="10.00"> </text>
<text text-anchor="start" x="95.5" y="-576" font-family="Helvetica,sans-Serif" font-size="10.00"> </text>
<polygon fill="#bfbfbf" stroke="#bfbfbf" points="64.5,-601 64.5,-601 130.5,-601 130.5,-601 64.5,-601"/>
<polygon fill="#bfbfbf" stroke="#bfbfbf" points="64.5,-586 64.5,-586 130.5,-586 130.5,-586 64.5,-586"/>
<polygon fill="none" stroke="#bfbfbf" points="64.5,-569.5 64.5,-618.5 130.5,-618.5 130.5,-569.5 64.5,-569.5"/>
</a>
</g>
</g>
<!-- Node4&#45;&gt;Node3 -->
<g id="edge3_Node000003_Node000004" class="edge">
<title>Node4&#45;&gt;Node3</title>
<g id="a_edge3_Node000003_Node000004"><a xlink:title=" ">
<path fill="none" stroke="#63b8ff" d="M97.5,-559.28C97.5,-531.55 97.5,-492.67 97.5,-466.25"/>
<polygon fill="none" stroke="#63b8ff" points="94,-559.31 97.5,-569.31 101,-559.31 94,-559.31"/>
</a>
</g>
</g>
<!-- Node5 -->
<g id="Node000005" class="node">
<title>Node5</title>
<g id="a_Node000005"><a xlink:href="../../d4/d00/interface_logger.html" target="_top" xlink:title=" ">
<polygon fill="white" stroke="transparent" points="250.5,-686 158.5,-686 158.5,-502 250.5,-502 250.5,-686"/>
<text text-anchor="start" x="187.5" y="-674" font-family="Helvetica,sans-Serif" font-size="10.00">Logger</text>
<text text-anchor="start" x="202.5" y="-659" font-family="Helvetica,sans-Serif" font-size="10.00"> </text>
<text text-anchor="start" x="162.5" y="-644" font-family="Helvetica,sans-Serif" font-size="10.00">+</text>
<text text-anchor="start" x="175.5" y="-644" font-family="Helvetica,sans-Serif" font-size="10.00">alert()</text>
<text text-anchor="start" x="162.5" y="-629" font-family="Helvetica,sans-Serif" font-size="10.00">+</text>
<text text-anchor="start" x="175.5" y="-629" font-family="Helvetica,sans-Serif" font-size="10.00">critical()</text>
<text text-anchor="start" x="162.5" y="-614" font-family="Helvetica,sans-Serif" font-size="10.00">+</text>
<text text-anchor="start" x="175.5" y="-614" font-family="Helvetica,sans-Serif" font-size="10.00">debug()</text>
<text text-anchor="start" x="162.5" y="-599" font-family="Helvetica,sans-Serif" font-size="10.00">+</text>
<text text-anchor="start" x="175.5" y="-599" font-family="Helvetica,sans-Serif" font-size="10.00">emergency()</text>
<text text-anchor="start" x="162.5" y="-584" font-family="Helvetica,sans-Serif" font-size="10.00">+</text>
<text text-anchor="start" x="175.5" y="-584" font-family="Helvetica,sans-Serif" font-size="10.00">error()</text>
<text text-anchor="start" x="162.5" y="-569" font-family="Helvetica,sans-Serif" font-size="10.00">+</text>
<text text-anchor="start" x="175.5" y="-569" font-family="Helvetica,sans-Serif" font-size="10.00">info()</text>
<text text-anchor="start" x="162.5" y="-554" font-family="Helvetica,sans-Serif" font-size="10.00">+</text>
<text text-anchor="start" x="175.5" y="-554" font-family="Helvetica,sans-Serif" font-size="10.00">log()</text>
<text text-anchor="start" x="162.5" y="-539" font-family="Helvetica,sans-Serif" font-size="10.00">+</text>
<text text-anchor="start" x="175.5" y="-539" font-family="Helvetica,sans-Serif" font-size="10.00">logException()</text>
<text text-anchor="start" x="162.5" y="-524" font-family="Helvetica,sans-Serif" font-size="10.00">+</text>
<text text-anchor="start" x="175.5" y="-524" font-family="Helvetica,sans-Serif" font-size="10.00">notice()</text>
<text text-anchor="start" x="162.5" y="-509" font-family="Helvetica,sans-Serif" font-size="10.00">+</text>
<text text-anchor="start" x="175.5" y="-509" font-family="Helvetica,sans-Serif" font-size="10.00">warning()</text>
<polygon fill="#bfbfbf" stroke="#bfbfbf" points="158.5,-669 158.5,-669 250.5,-669 250.5,-669 158.5,-669"/>
<polygon fill="#bfbfbf" stroke="#bfbfbf" points="158.5,-654 158.5,-654 250.5,-654 250.5,-654 158.5,-654"/>
<polygon fill="none" stroke="#bfbfbf" points="158.5,-502 158.5,-686 250.5,-686 250.5,-502 158.5,-502"/>
</a>
</g>
</g>
<!-- Node5&#45;&gt;Node3 -->
<g id="edge4_Node000003_Node000005" class="edge">
<title>Node5&#45;&gt;Node3</title>
<g id="a_edge4_Node000003_Node000005"><a xlink:title=" ">
<path fill="none" stroke="#63b8ff" d="M152.49,-517.18C140.05,-499.04 127.51,-480.75 117.55,-466.23"/>
<polygon fill="none" stroke="#63b8ff" points="149.65,-519.22 158.19,-525.48 155.42,-515.26 149.65,-519.22"/>
</a>
</g>
</g>
<!-- Node6 -->
<g id="Node000006" class="node">
<title>Node6</title>
<g id="a_Node000006"><a xlink:href="../../d3/d4b/interface_buffered_logger.html" target="_top" xlink:title=" ">
<polygon fill="white" stroke="transparent" points="258,-334.5 173,-334.5 173,-285.5 258,-285.5 258,-334.5"/>
<text text-anchor="start" x="178.5" y="-322" font-family="Helvetica,sans-Serif" font-size="10.00">BufferedLogger</text>
<text text-anchor="start" x="214" y="-307" font-family="Helvetica,sans-Serif" font-size="10.00"> </text>
<text text-anchor="start" x="184" y="-292" font-family="Helvetica,sans-Serif" font-size="10.00">+</text>
<text text-anchor="start" x="203.5" y="-292" font-family="Helvetica,sans-Serif" font-size="10.00">buffer()</text>
<polygon fill="#bfbfbf" stroke="#bfbfbf" points="173.5,-317 173.5,-317 258.5,-317 258.5,-317 173.5,-317"/>
<polygon fill="#bfbfbf" stroke="#bfbfbf" points="173.5,-302 173.5,-302 258.5,-302 258.5,-302 173.5,-302"/>
<polygon fill="none" stroke="#bfbfbf" points="173,-285.5 173,-334.5 258,-334.5 258,-285.5 173,-285.5"/>
</a>
</g>
</g>
<!-- Node5&#45;&gt;Node6 -->
<g id="edge6_Node000006_Node000005" class="edge">
<title>Node5&#45;&gt;Node6</title>
<g id="a_edge6_Node000006_Node000005"><a xlink:title=" ">
<path fill="none" stroke="#63b8ff" d="M208.45,-491.73C210.66,-435.06 213.24,-369.06 214.58,-334.63"/>
<polygon fill="none" stroke="#63b8ff" points="204.95,-491.7 208.06,-501.83 211.94,-491.98 204.95,-491.7"/>
</a>
</g>
</g>
<!-- Node6&#45;&gt;Node1 -->
<g id="edge5_Node000001_Node000006" class="edge">
<title>Node6&#45;&gt;Node1</title>
<g id="a_edge5_Node000001_Node000006"><a xlink:title=" ">
<path fill="none" stroke="#63b8ff" d="M204.04,-275.62C198.14,-258.43 190.58,-236.41 182.9,-214.02"/>
<polygon fill="none" stroke="#63b8ff" points="200.76,-276.83 207.31,-285.15 207.38,-274.56 200.76,-276.83"/>
</a>
</g>
</g>
</g>
</svg>

<g id="navigator" transform="translate(0 0)" fill="#404254">
  <rect fill="#f2f5e9" fill-opacity="0.5" stroke="#606060" stroke-width=".5" x="0" y="0" width="60" height="60"/>
  <use id="zoomplus" xlink:href="#zoomPlus" x="17" y="9" onmousedown="handleZoom(evt,'in')"/>
  <use id="zoomminus" xlink:href="#zoomMin" x="42" y="9" onmousedown="handleZoom(evt,'out')"/>
  <use id="reset" xlink:href="#resetDef" x="30" y="36" onmousedown="handleReset()"/>
   <use id="arrowup" xlink:href="#arrowUp" x="0" y="0" onmousedown="handlePan(0,-1)"/>
  <use id="arrowright" xlink:href="#arrowRight" x="0" y="0" onmousedown="handlePan(1,0)"/>
  <use id="arrowdown" xlink:href="#arrowDown" x="0" y="0" onmousedown="handlePan(0,1)"/>
  <use id="arrowleft" xlink:href="#arrowLeft" x="0" y="0" onmousedown="handlePan(-1,0)"/>
</g>
<svg viewBox="0 0 15 15" width="100%" height="30px" preserveAspectRatio="xMaxYMin meet">
 <g id="arrow_out" transform="scale(0.3 0.3)">
  <a xlink:href="classpocketmine_1_1utils_1_1_main_logger__inherit__graph_org.svg" target="_base">
   <rect id="button" ry="5" rx="5" y="6" x="6" height="38" width="38"
        fill="#f2f5e9" fill-opacity="0.5" stroke="#606060" stroke-width="1.0"/>
   <path id="arrow"
     d="M 11.500037,31.436501 C 11.940474,20.09759 22.043105,11.32322 32.158766,21.979434 L 37.068811,17.246167 C 37.068811,17.246167 37.088388,32 37.088388,32 L 22.160133,31.978069 C 22.160133,31.978069 26.997745,27.140456 26.997745,27.140456 C 18.528582,18.264221 13.291696,25.230495 11.500037,31.436501 z"
     style="fill:#404040;"/>
  </a>
 </g>
</svg>

<style type='text/css'>
<![CDATA[
[data-mouse-over-selected='false'] { opacity: 0.7; }
[data-mouse-over-selected='true']  { opacity: 1.0; }
]]>
</style>
<script type="application/ecmascript"><![CDATA[
document.addEventListener('DOMContentLoaded', (event) => {
  highlightEdges();
  highlightAdjacentNodes();
});
]]></script>
</svg>
