<?xml version="1.0" encoding="UTF-8" standalone="no"?>
<!DOCTYPE svg PUBLIC "-//W3C//DTD SVG 1.1//EN"
 "http://www.w3.org/Graphics/SVG/1.1/DTD/svg11.dtd">
<!-- Generated by graphviz version 2.43.0 (0)
 -->
<!-- Title: pocketmine\network\mcpe\protocol\PassengerJumpPacket Pages: 1 -->
<svg width="486pt" height="530pt"
 viewBox="0.00 0.00 486.00 530.00" xmlns="http://www.w3.org/2000/svg" xmlns:xlink="http://www.w3.org/1999/xlink">
<g id="graph0" class="graph" transform="scale(1 1) rotate(0) translate(4 526)">
<title>pocketmine\network\mcpe\protocol\PassengerJumpPacket</title>
<polygon fill="white" stroke="transparent" points="-4,4 -4,-526 482,-526 482,4 -4,4"/>
<!-- Node1 -->
<g id="node1" class="node">
<title>Node1</title>
<g id="a_node1"><a xlink:title=" ">
<polygon fill="#bfbfbf" stroke="black" points="162.5,-0.5 162.5,-112.5 329.5,-112.5 329.5,-0.5 162.5,-0.5"/>
<text text-anchor="start" x="170.5" y="-100.5" font-family="Helvetica,sans-Serif" font-size="10.00">pocketmine\network</text>
<text text-anchor="start" x="170.5" y="-89.5" font-family="Helvetica,sans-Serif" font-size="10.00">\mcpe\protocol\PassengerJump</text>
<text text-anchor="middle" x="246" y="-78.5" font-family="Helvetica,sans-Serif" font-size="10.00">Packet</text>
<polyline fill="none" stroke="black" points="162.5,-71.5 329.5,-71.5 "/>
<text text-anchor="start" x="170.5" y="-59.5" font-family="Helvetica,sans-Serif" font-size="10.00">+ $jumpStrength</text>
<polyline fill="none" stroke="black" points="162.5,-52.5 329.5,-52.5 "/>
<text text-anchor="start" x="170.5" y="-40.5" font-family="Helvetica,sans-Serif" font-size="10.00">+ handle()</text>
<text text-anchor="start" x="170.5" y="-29.5" font-family="Helvetica,sans-Serif" font-size="10.00">+ create()</text>
<text text-anchor="start" x="170.5" y="-18.5" font-family="Helvetica,sans-Serif" font-size="10.00"># decodePayload()</text>
<text text-anchor="start" x="170.5" y="-7.5" font-family="Helvetica,sans-Serif" font-size="10.00"># encodePayload()</text>
</a>
</g>
</g>
<!-- Node2 -->
<g id="node2" class="node">
<title>Node2</title>
<g id="a_node2"><a xlink:href="../../d1/ddb/classpocketmine_1_1network_1_1mcpe_1_1protocol_1_1_data_packet.html" target="_top" xlink:title=" ">
<polygon fill="white" stroke="#bfbfbf" points="172.5,-150.5 172.5,-339.5 319.5,-339.5 319.5,-150.5 172.5,-150.5"/>
<text text-anchor="start" x="180.5" y="-327.5" font-family="Helvetica,sans-Serif" font-size="10.00">pocketmine\network</text>
<text text-anchor="middle" x="246" y="-316.5" font-family="Helvetica,sans-Serif" font-size="10.00">\mcpe\protocol\DataPacket</text>
<polyline fill="none" stroke="#bfbfbf" points="172.5,-309.5 319.5,-309.5 "/>
<text text-anchor="start" x="180.5" y="-297.5" font-family="Helvetica,sans-Serif" font-size="10.00">+ $recipientSubId</text>
<text text-anchor="start" x="180.5" y="-286.5" font-family="Helvetica,sans-Serif" font-size="10.00">+ $senderSubId</text>
<polyline fill="none" stroke="#bfbfbf" points="172.5,-279.5 319.5,-279.5 "/>
<text text-anchor="start" x="180.5" y="-267.5" font-family="Helvetica,sans-Serif" font-size="10.00">+ __get()</text>
<text text-anchor="start" x="180.5" y="-256.5" font-family="Helvetica,sans-Serif" font-size="10.00">+ __set()</text>
<text text-anchor="start" x="180.5" y="-245.5" font-family="Helvetica,sans-Serif" font-size="10.00">+ canBeSentBeforeLogin()</text>
<text text-anchor="start" x="180.5" y="-234.5" font-family="Helvetica,sans-Serif" font-size="10.00">+ decode()</text>
<text text-anchor="start" x="180.5" y="-223.5" font-family="Helvetica,sans-Serif" font-size="10.00">+ encode()</text>
<text text-anchor="start" x="180.5" y="-212.5" font-family="Helvetica,sans-Serif" font-size="10.00">+ getName()</text>
<text text-anchor="start" x="180.5" y="-201.5" font-family="Helvetica,sans-Serif" font-size="10.00">+ pid()</text>
<text text-anchor="start" x="180.5" y="-190.5" font-family="Helvetica,sans-Serif" font-size="10.00"># decodeHeader()</text>
<text text-anchor="start" x="180.5" y="-179.5" font-family="Helvetica,sans-Serif" font-size="10.00"># decodePayload()</text>
<text text-anchor="start" x="180.5" y="-168.5" font-family="Helvetica,sans-Serif" font-size="10.00"># encodeHeader()</text>
<text text-anchor="start" x="180.5" y="-157.5" font-family="Helvetica,sans-Serif" font-size="10.00"># encodePayload()</text>
</a>
</g>
</g>
<!-- Node2&#45;&gt;Node1 -->
<g id="edge1" class="edge">
<title>Node2&#45;&gt;Node1</title>
<path fill="none" stroke="midnightblue" d="M246,-140.44C246,-130.85 246,-121.4 246,-112.52"/>
<polygon fill="none" stroke="midnightblue" points="242.5,-140.48 246,-150.48 249.5,-140.48 242.5,-140.48"/>
</g>
<!-- Node3 -->
<g id="node3" class="node">
<title>Node3</title>
<g id="a_node3"><a xlink:href="../../d4/d5d/interfacepocketmine_1_1network_1_1mcpe_1_1protocol_1_1_packet.html" target="_top" xlink:title=" ">
<polygon fill="white" stroke="#bfbfbf" points="69,-398.5 69,-521.5 215,-521.5 215,-398.5 69,-398.5"/>
<text text-anchor="start" x="77" y="-509.5" font-family="Helvetica,sans-Serif" font-size="10.00">pocketmine\network</text>
<text text-anchor="middle" x="142" y="-498.5" font-family="Helvetica,sans-Serif" font-size="10.00">\mcpe\protocol\Packet</text>
<polyline fill="none" stroke="#bfbfbf" points="69,-491.5 215,-491.5 "/>
<text text-anchor="middle" x="142" y="-479.5" font-family="Helvetica,sans-Serif" font-size="10.00"> </text>
<polyline fill="none" stroke="#bfbfbf" points="69,-472.5 215,-472.5 "/>
<text text-anchor="start" x="77" y="-460.5" font-family="Helvetica,sans-Serif" font-size="10.00">+ canBeSentBeforeLogin()</text>
<text text-anchor="start" x="77" y="-449.5" font-family="Helvetica,sans-Serif" font-size="10.00">+ decode()</text>
<text text-anchor="start" x="77" y="-438.5" font-family="Helvetica,sans-Serif" font-size="10.00">+ encode()</text>
<text text-anchor="start" x="77" y="-427.5" font-family="Helvetica,sans-Serif" font-size="10.00">+ getName()</text>
<text text-anchor="start" x="77" y="-416.5" font-family="Helvetica,sans-Serif" font-size="10.00">+ handle()</text>
<text text-anchor="start" x="77" y="-405.5" font-family="Helvetica,sans-Serif" font-size="10.00">+ pid()</text>
</a>
</g>
</g>
<!-- Node3&#45;&gt;Node2 -->
<g id="edge2" class="edge">
<title>Node3&#45;&gt;Node2</title>
<path fill="none" stroke="midnightblue" d="M176.12,-389.13C183.81,-373.37 192.1,-356.4 200.18,-339.84"/>
<polygon fill="none" stroke="midnightblue" points="172.91,-387.73 171.66,-398.25 179.2,-390.8 172.91,-387.73"/>
</g>
<!-- Node5 -->
<g id="node5" class="node">
<title>Node5</title>
<g id="a_node5"><a xlink:href="../../dd/de6/interfacepocketmine_1_1network_1_1mcpe_1_1protocol_1_1_serverbound_packet.html" target="_top" xlink:title=" ">
<polygon fill="white" stroke="#bfbfbf" points="0,-205.5 0,-284.5 154,-284.5 154,-205.5 0,-205.5"/>
<text text-anchor="start" x="8" y="-272.5" font-family="Helvetica,sans-Serif" font-size="10.00">pocketmine\network</text>
<text text-anchor="start" x="8" y="-261.5" font-family="Helvetica,sans-Serif" font-size="10.00">\mcpe\protocol\Serverbound</text>
<text text-anchor="middle" x="77" y="-250.5" font-family="Helvetica,sans-Serif" font-size="10.00">Packet</text>
<polyline fill="none" stroke="#bfbfbf" points="0,-243.5 154,-243.5 "/>
<text text-anchor="middle" x="77" y="-231.5" font-family="Helvetica,sans-Serif" font-size="10.00"> </text>
<polyline fill="none" stroke="#bfbfbf" points="0,-224.5 154,-224.5 "/>
<text text-anchor="middle" x="77" y="-212.5" font-family="Helvetica,sans-Serif" font-size="10.00"> </text>
</a>
</g>
</g>
<!-- Node3&#45;&gt;Node5 -->
<g id="edge5" class="edge">
<title>Node3&#45;&gt;Node5</title>
<path fill="none" stroke="midnightblue" d="M120.53,-388.65C109.97,-354.03 97.64,-313.62 88.8,-284.67"/>
<polygon fill="none" stroke="midnightblue" points="117.19,-389.7 123.46,-398.25 123.89,-387.66 117.19,-389.7"/>
</g>
<!-- Node4 -->
<g id="node4" class="node">
<title>Node4</title>
<g id="a_node4"><a xlink:title=" ">
<polygon fill="white" stroke="#bfbfbf" points="254.5,-431.5 254.5,-488.5 297.5,-488.5 297.5,-431.5 254.5,-431.5"/>
<text text-anchor="middle" x="276" y="-476.5" font-family="Helvetica,sans-Serif" font-size="10.00">const</text>
<polyline fill="none" stroke="#bfbfbf" points="254.5,-469.5 297.5,-469.5 "/>
<text text-anchor="middle" x="276" y="-457.5" font-family="Helvetica,sans-Serif" font-size="10.00"> </text>
<polyline fill="none" stroke="#bfbfbf" points="254.5,-450.5 297.5,-450.5 "/>
<text text-anchor="middle" x="276" y="-438.5" font-family="Helvetica,sans-Serif" font-size="10.00"> </text>
</a>
</g>
</g>
<!-- Node4&#45;&gt;Node1 -->
<g id="edge6" class="edge">
<title>Node4&#45;&gt;Node1</title>
<path fill="none" stroke="#404040" d="M297.81,-440.76C313.44,-426.16 333.22,-404.19 342,-380 360.7,-328.45 488.21,-529.87 329,-150 324.94,-140.31 319.42,-130.97 313.15,-122.18"/>
<polygon fill="none" stroke="#404040" points="313.05,-122.05 306.24,-119.7 305.78,-112.51 312.6,-114.86 313.05,-122.05"/>
<text text-anchor="middle" x="439" y="-242.5" font-family="Helvetica,sans-Serif" font-size="10.00"> +NETWORK_ID</text>
</g>
<!-- Node4&#45;&gt;Node2 -->
<g id="edge3" class="edge">
<title>Node4&#45;&gt;Node2</title>
<path fill="none" stroke="#404040" d="M271.66,-431.23C269.33,-416.1 266.44,-397.03 264,-380 262.69,-370.85 261.36,-361.35 260.04,-351.81"/>
<polygon fill="none" stroke="#404040" points="260.02,-351.63 255.24,-346.23 258.38,-339.74 263.16,-345.14 260.02,-351.63"/>
<text text-anchor="middle" x="303" y="-372" font-family="Helvetica,sans-Serif" font-size="10.00"> +NETWORK_ID</text>
<text text-anchor="middle" x="303" y="-361" font-family="Helvetica,sans-Serif" font-size="10.00">+PID_MASK</text>
</g>
<!-- Node5&#45;&gt;Node1 -->
<g id="edge4" class="edge">
<title>Node5&#45;&gt;Node1</title>
<path fill="none" stroke="midnightblue" d="M118.75,-197.93C142.11,-172.15 171.38,-139.84 195.96,-112.72"/>
<polygon fill="none" stroke="midnightblue" points="116.14,-195.6 112.02,-205.36 121.33,-200.3 116.14,-195.6"/>
</g>
</g>
</svg>
