<?xml version="1.0" encoding="UTF-8" standalone="no"?>
<!DOCTYPE svg PUBLIC "-//W3C//DTD SVG 1.1//EN"
 "http://www.w3.org/Graphics/SVG/1.1/DTD/svg11.dtd">
<!-- Generated by graphviz version 2.43.0 (0)
 -->
<!-- Title: pocketmine\item\Potion Pages: 1 -->
<!--zoomable 1010 -->
<svg id="main" version="1.1" xmlns="http://www.w3.org/2000/svg" xmlns:xlink="http://www.w3.org/1999/xlink" xml:space="preserve" onload="init(evt)">
<style type="text/css"><![CDATA[
.edge:hover path { stroke: red; }
.edge:hover polygon { stroke: red; fill: red; }
]]></style>
<script type="text/javascript"><![CDATA[
var edges = document.getElementsByTagName('g');
if (edges && edges.length) {
  for (var i=0;i<edges.length;i++) {
    if (edges[i].id.substr(0,4)=='edge') {
      edges[i].setAttribute('class','edge');
    }
  }
}
]]></script>
        <defs>
                <circle id="rim" cx="0" cy="0" r="7"/>
                <circle id="rim2" cx="0" cy="0" r="3.5"/>
                <g id="zoomPlus">
                        <use xlink:href="#rim" fill="#404040">
                                <set attributeName="fill" to="#808080" begin="zoomplus.mouseover" end="zoomplus.mouseout"/>
                        </use>
                        <path d="M-4,0h8M0,-4v8" fill="none" stroke="white" stroke-width="1.5" pointer-events="none"/>
                </g>
                <g id="zoomMin">
                        <use xlink:href="#rim" fill="#404040">
                                <set attributeName="fill" to="#808080" begin="zoomminus.mouseover" end="zoomminus.mouseout"/>
                        </use>
                        <path d="M-4,0h8" fill="none" stroke="white" stroke-width="1.5" pointer-events="none"/>
                </g>
                <g id="dirArrow">
                        <path fill="none" stroke="white" stroke-width="1.5" d="M0,-3.0v7 M-2.5,-0.5L0,-3.0L2.5,-0.5"/>
                </g>
               <g id="resetDef">
                       <use xlink:href="#rim2" fill="#404040">
                               <set attributeName="fill" to="#808080" begin="reset.mouseover" end="reset.mouseout"/>
                       </use>
               </g>
        </defs>

<script type="text/javascript">
var viewWidth = 692;
var viewHeight = 1010;
var sectionId = 'dynsection-1';
</script>
<script xlink:href="../../svgpan.js"/>
<svg id="graph" class="graph">
<g id="viewport">
<title>pocketmine\item\Potion</title>
<polygon fill="white" stroke="transparent" points="-4,4 -4,-1006 688,-1006 688,4 -4,4"/>
<!-- Node1 -->
<g id="node1" class="node">
<title>Node1</title>
<g id="a_node1"><a xlink:title=" ">
<polygon fill="#bfbfbf" stroke="black" points="212,-0.5 212,-145.5 346,-145.5 346,-0.5 212,-0.5"/>
<text text-anchor="middle" x="279" y="-133.5" font-family="Helvetica,sans-Serif" font-size="10.00">pocketmine\item\Potion</text>
<polyline fill="none" stroke="black" points="212,-126.5 346,-126.5 "/>
<text text-anchor="middle" x="279" y="-114.5" font-family="Helvetica,sans-Serif" font-size="10.00"> </text>
<polyline fill="none" stroke="black" points="212,-107.5 346,-107.5 "/>
<text text-anchor="start" x="220" y="-95.5" font-family="Helvetica,sans-Serif" font-size="10.00">+ __construct()</text>
<text text-anchor="start" x="220" y="-84.5" font-family="Helvetica,sans-Serif" font-size="10.00">+ canStartUsingItem()</text>
<text text-anchor="start" x="220" y="-73.5" font-family="Helvetica,sans-Serif" font-size="10.00">+ getAdditionalEffects()</text>
<text text-anchor="start" x="220" y="-62.5" font-family="Helvetica,sans-Serif" font-size="10.00">+ getMaxStackSize()</text>
<text text-anchor="start" x="220" y="-51.5" font-family="Helvetica,sans-Serif" font-size="10.00">+ getResidue()</text>
<text text-anchor="start" x="220" y="-40.5" font-family="Helvetica,sans-Serif" font-size="10.00">+ getType()</text>
<text text-anchor="start" x="220" y="-29.5" font-family="Helvetica,sans-Serif" font-size="10.00">+ onConsume()</text>
<text text-anchor="start" x="220" y="-18.5" font-family="Helvetica,sans-Serif" font-size="10.00">+ setType()</text>
<text text-anchor="start" x="220" y="-7.5" font-family="Helvetica,sans-Serif" font-size="10.00"># describeState()</text>
</a>
</g>
</g>
<!-- Node2 -->
<g id="node2" class="node">
<title>Node2</title>
<g id="a_node2"><a xlink:href="../../d5/d8a/classpocketmine_1_1item_1_1_item.html" target="_top" xlink:title=" ">
<polygon fill="white" stroke="#bfbfbf" points="106,-183.5 106,-460.5 264,-460.5 264,-183.5 106,-183.5"/>
<text text-anchor="middle" x="185" y="-448.5" font-family="Helvetica,sans-Serif" font-size="10.00">pocketmine\item\Item</text>
<polyline fill="none" stroke="#bfbfbf" points="106,-441.5 264,-441.5 "/>
<text text-anchor="start" x="114" y="-429.5" font-family="Helvetica,sans-Serif" font-size="10.00"># $canDestroy</text>
<text text-anchor="start" x="114" y="-418.5" font-family="Helvetica,sans-Serif" font-size="10.00"># $canPlaceOn</text>
<text text-anchor="start" x="114" y="-407.5" font-family="Helvetica,sans-Serif" font-size="10.00"># $count</text>
<text text-anchor="start" x="114" y="-396.5" font-family="Helvetica,sans-Serif" font-size="10.00"># $customName</text>
<text text-anchor="start" x="114" y="-385.5" font-family="Helvetica,sans-Serif" font-size="10.00"># $keepOnDeath</text>
<text text-anchor="start" x="114" y="-374.5" font-family="Helvetica,sans-Serif" font-size="10.00"># $lore</text>
<polyline fill="none" stroke="#bfbfbf" points="106,-367.5 264,-367.5 "/>
<text text-anchor="start" x="114" y="-355.5" font-family="Helvetica,sans-Serif" font-size="10.00">+ __construct()</text>
<text text-anchor="start" x="114" y="-344.5" font-family="Helvetica,sans-Serif" font-size="10.00">+ __clone()</text>
<text text-anchor="start" x="114" y="-333.5" font-family="Helvetica,sans-Serif" font-size="10.00">+ __toString()</text>
<text text-anchor="start" x="114" y="-322.5" font-family="Helvetica,sans-Serif" font-size="10.00">+ canBePlaced()</text>
<text text-anchor="start" x="114" y="-311.5" font-family="Helvetica,sans-Serif" font-size="10.00">+ canStackWith()</text>
<text text-anchor="start" x="114" y="-300.5" font-family="Helvetica,sans-Serif" font-size="10.00">+ clearCustomBlockData()</text>
<text text-anchor="start" x="114" y="-289.5" font-family="Helvetica,sans-Serif" font-size="10.00">+ clearCustomName()</text>
<text text-anchor="start" x="114" y="-278.5" font-family="Helvetica,sans-Serif" font-size="10.00">+ clearNamedTag()</text>
<text text-anchor="start" x="114" y="-267.5" font-family="Helvetica,sans-Serif" font-size="10.00">+ equals()</text>
<text text-anchor="start" x="114" y="-256.5" font-family="Helvetica,sans-Serif" font-size="10.00">+ equalsExact()</text>
<text text-anchor="start" x="114" y="-245.5" font-family="Helvetica,sans-Serif" font-size="10.00">and 47 more...</text>
<text text-anchor="start" x="114" y="-234.5" font-family="Helvetica,sans-Serif" font-size="10.00">+ legacyJsonDeserialize()</text>
<text text-anchor="start" x="114" y="-223.5" font-family="Helvetica,sans-Serif" font-size="10.00">+ nbtDeserialize()</text>
<text text-anchor="start" x="114" y="-212.5" font-family="Helvetica,sans-Serif" font-size="10.00"># describeState()</text>
<text text-anchor="start" x="114" y="-201.5" font-family="Helvetica,sans-Serif" font-size="10.00"># deserializeCompoundTag()</text>
<text text-anchor="start" x="114" y="-190.5" font-family="Helvetica,sans-Serif" font-size="10.00"># serializeCompoundTag()</text>
</a>
</g>
</g>
<!-- Node2&#45;&gt;Node1 -->
<g id="edge1" class="edge">
<title>Node2&#45;&gt;Node1</title>
<path fill="none" stroke="midnightblue" d="M240.93,-174.05C244.62,-164.33 248.25,-154.81 251.7,-145.75"/>
<polygon fill="none" stroke="midnightblue" points="237.65,-172.83 237.36,-183.42 244.19,-175.32 237.65,-172.83"/>
</g>
<!-- Node3 -->
<g id="node3" class="node">
<title>Node3</title>
<g id="a_node3"><a xlink:title=" ">
<polygon fill="white" stroke="#bfbfbf" points="0,-651.5 0,-708.5 94,-708.5 94,-651.5 0,-651.5"/>
<text text-anchor="middle" x="47" y="-696.5" font-family="Helvetica,sans-Serif" font-size="10.00">JsonSerializable</text>
<polyline fill="none" stroke="#bfbfbf" points="0,-689.5 94,-689.5 "/>
<text text-anchor="middle" x="47" y="-677.5" font-family="Helvetica,sans-Serif" font-size="10.00"> </text>
<polyline fill="none" stroke="#bfbfbf" points="0,-670.5 94,-670.5 "/>
<text text-anchor="middle" x="47" y="-658.5" font-family="Helvetica,sans-Serif" font-size="10.00"> </text>
</a>
</g>
</g>
<!-- Node3&#45;&gt;Node2 -->
<g id="edge2" class="edge">
<title>Node3&#45;&gt;Node2</title>
<path fill="none" stroke="midnightblue" d="M61.37,-641.92C77.97,-599.11 106.24,-526.19 131.56,-460.87"/>
<polygon fill="none" stroke="midnightblue" points="58.06,-640.77 57.71,-651.36 64.59,-643.3 58.06,-640.77"/>
</g>
<!-- Node4 -->
<g id="node4" class="node">
<title>Node4</title>
<g id="a_node4"><a xlink:title=" ">
<polygon fill="white" stroke="#bfbfbf" points="112.5,-651.5 112.5,-708.5 155.5,-708.5 155.5,-651.5 112.5,-651.5"/>
<text text-anchor="middle" x="134" y="-696.5" font-family="Helvetica,sans-Serif" font-size="10.00">const</text>
<polyline fill="none" stroke="#bfbfbf" points="112.5,-689.5 155.5,-689.5 "/>
<text text-anchor="middle" x="134" y="-677.5" font-family="Helvetica,sans-Serif" font-size="10.00"> </text>
<polyline fill="none" stroke="#bfbfbf" points="112.5,-670.5 155.5,-670.5 "/>
<text text-anchor="middle" x="134" y="-658.5" font-family="Helvetica,sans-Serif" font-size="10.00"> </text>
</a>
</g>
</g>
<!-- Node4&#45;&gt;Node2 -->
<g id="edge3" class="edge">
<title>Node4&#45;&gt;Node2</title>
<path fill="none" stroke="#404040" d="M131.5,-651.29C128.59,-612.48 125.33,-539.87 135,-479 135.34,-476.83 135.71,-474.65 136.11,-472.46"/>
<polygon fill="none" stroke="#404040" points="136.11,-472.46 133.34,-465.8 138.41,-460.68 141.19,-467.34 136.11,-472.46"/>
<text text-anchor="middle" x="202" y="-537" font-family="Helvetica,sans-Serif" font-size="10.00"> +TAG_BLOCK_ENTITY_TAG</text>
<text text-anchor="middle" x="202" y="-526" font-family="Helvetica,sans-Serif" font-size="10.00">+TAG_DISPLAY</text>
<text text-anchor="middle" x="202" y="-515" font-family="Helvetica,sans-Serif" font-size="10.00">+TAG_DISPLAY_LORE</text>
<text text-anchor="middle" x="202" y="-504" font-family="Helvetica,sans-Serif" font-size="10.00">+TAG_DISPLAY_NAME</text>
<text text-anchor="middle" x="202" y="-493" font-family="Helvetica,sans-Serif" font-size="10.00">+TAG_ENCH</text>
<text text-anchor="middle" x="202" y="-482" font-family="Helvetica,sans-Serif" font-size="10.00">+TAG_KEEP_ON_DEATH</text>
</g>
<!-- Node5 -->
<g id="node5" class="node">
<title>Node5</title>
<g id="a_node5"><a xlink:href="../../de/d67/classpocketmine_1_1nbt_1_1tag_1_1_compound_tag.html" target="_top" xlink:title=" ">
<polygon fill="white" stroke="black" points="202,-563.5 202,-796.5 322,-796.5 322,-563.5 202,-563.5"/>
<text text-anchor="start" x="210" y="-784.5" font-family="Helvetica,sans-Serif" font-size="10.00">pocketmine\nbt\tag</text>
<text text-anchor="middle" x="262" y="-773.5" font-family="Helvetica,sans-Serif" font-size="10.00">\CompoundTag</text>
<polyline fill="none" stroke="black" points="202,-766.5 322,-766.5 "/>
<text text-anchor="middle" x="262" y="-754.5" font-family="Helvetica,sans-Serif" font-size="10.00"> </text>
<polyline fill="none" stroke="black" points="202,-747.5 322,-747.5 "/>
<text text-anchor="start" x="210" y="-735.5" font-family="Helvetica,sans-Serif" font-size="10.00">+ __construct()</text>
<text text-anchor="start" x="210" y="-724.5" font-family="Helvetica,sans-Serif" font-size="10.00">+ __clone()</text>
<text text-anchor="start" x="210" y="-713.5" font-family="Helvetica,sans-Serif" font-size="10.00">+ count()</text>
<text text-anchor="start" x="210" y="-702.5" font-family="Helvetica,sans-Serif" font-size="10.00">+ equals()</text>
<text text-anchor="start" x="210" y="-691.5" font-family="Helvetica,sans-Serif" font-size="10.00">+ getByte()</text>
<text text-anchor="start" x="210" y="-680.5" font-family="Helvetica,sans-Serif" font-size="10.00">+ getByteArray()</text>
<text text-anchor="start" x="210" y="-669.5" font-family="Helvetica,sans-Serif" font-size="10.00">+ getCompoundTag()</text>
<text text-anchor="start" x="210" y="-658.5" font-family="Helvetica,sans-Serif" font-size="10.00">+ getCount()</text>
<text text-anchor="start" x="210" y="-647.5" font-family="Helvetica,sans-Serif" font-size="10.00">+ getDouble()</text>
<text text-anchor="start" x="210" y="-636.5" font-family="Helvetica,sans-Serif" font-size="10.00">+ getFloat()</text>
<text text-anchor="start" x="210" y="-625.5" font-family="Helvetica,sans-Serif" font-size="10.00">and 23 more...</text>
<text text-anchor="start" x="210" y="-614.5" font-family="Helvetica,sans-Serif" font-size="10.00">+ create()</text>
<text text-anchor="start" x="210" y="-603.5" font-family="Helvetica,sans-Serif" font-size="10.00">+ read()</text>
<text text-anchor="start" x="210" y="-592.5" font-family="Helvetica,sans-Serif" font-size="10.00"># getTypeName()</text>
<text text-anchor="start" x="210" y="-581.5" font-family="Helvetica,sans-Serif" font-size="10.00"># makeCopy()</text>
<text text-anchor="start" x="210" y="-570.5" font-family="Helvetica,sans-Serif" font-size="10.00"># stringifyValue()</text>
</a>
</g>
</g>
<!-- Node5&#45;&gt;Node2 -->
<g id="edge4" class="edge">
<title>Node5&#45;&gt;Node2</title>
<path fill="none" stroke="#404040" d="M277.02,-563.34C277.65,-535.4 275.77,-505.87 269,-479 268.42,-476.71 267.8,-474.41 267.15,-472.11"/>
<polygon fill="none" stroke="#404040" points="267.14,-472.09 261.53,-467.56 263.56,-460.64 269.16,-465.17 267.14,-472.09"/>
<text text-anchor="middle" x="322.5" y="-509.5" font-family="Helvetica,sans-Serif" font-size="10.00"> #$blockEntityTag</text>
</g>
<!-- Node6 -->
<g id="node6" class="node">
<title>Node6</title>
<g id="a_node6"><a xlink:href="../../dc/d26/classpocketmine_1_1nbt_1_1tag_1_1_tag.html" target="_top" xlink:title=" ">
<polygon fill="white" stroke="#bfbfbf" points="79.5,-834.5 79.5,-1001.5 210.5,-1001.5 210.5,-834.5 79.5,-834.5"/>
<text text-anchor="middle" x="145" y="-989.5" font-family="Helvetica,sans-Serif" font-size="10.00">pocketmine\nbt\tag\Tag</text>
<polyline fill="none" stroke="#bfbfbf" points="79.5,-982.5 210.5,-982.5 "/>
<text text-anchor="start" x="87.5" y="-970.5" font-family="Helvetica,sans-Serif" font-size="10.00"># $cloning</text>
<polyline fill="none" stroke="#bfbfbf" points="79.5,-963.5 210.5,-963.5 "/>
<text text-anchor="start" x="87.5" y="-951.5" font-family="Helvetica,sans-Serif" font-size="10.00">+ __toString()</text>
<text text-anchor="start" x="87.5" y="-940.5" font-family="Helvetica,sans-Serif" font-size="10.00">+ equals()</text>
<text text-anchor="start" x="87.5" y="-929.5" font-family="Helvetica,sans-Serif" font-size="10.00">+ getType()</text>
<text text-anchor="start" x="87.5" y="-918.5" font-family="Helvetica,sans-Serif" font-size="10.00">+ getValue()</text>
<text text-anchor="start" x="87.5" y="-907.5" font-family="Helvetica,sans-Serif" font-size="10.00">+ safeClone()</text>
<text text-anchor="start" x="87.5" y="-896.5" font-family="Helvetica,sans-Serif" font-size="10.00">+ toString()</text>
<text text-anchor="start" x="87.5" y="-885.5" font-family="Helvetica,sans-Serif" font-size="10.00">+ write()</text>
<text text-anchor="start" x="87.5" y="-874.5" font-family="Helvetica,sans-Serif" font-size="10.00"># getTypeName()</text>
<text text-anchor="start" x="87.5" y="-863.5" font-family="Helvetica,sans-Serif" font-size="10.00"># makeCopy()</text>
<text text-anchor="start" x="87.5" y="-852.5" font-family="Helvetica,sans-Serif" font-size="10.00"># stringifyValue()</text>
<text text-anchor="start" x="87.5" y="-841.5" font-family="Helvetica,sans-Serif" font-size="10.00"># restrictArgCount()</text>
</a>
</g>
</g>
<!-- Node6&#45;&gt;Node5 -->
<g id="edge5" class="edge">
<title>Node6&#45;&gt;Node5</title>
<path fill="none" stroke="midnightblue" d="M190.37,-825.48C195.05,-816.04 199.85,-806.35 204.65,-796.69"/>
<polygon fill="none" stroke="midnightblue" points="187.23,-823.94 185.92,-834.46 193.5,-827.05 187.23,-823.94"/>
</g>
<!-- Node7 -->
<g id="node7" class="node">
<title>Node7</title>
<g id="a_node7"><a xlink:title=" ">
<polygon fill="white" stroke="#bfbfbf" points="229,-889.5 229,-946.5 295,-946.5 295,-889.5 229,-889.5"/>
<text text-anchor="middle" x="262" y="-934.5" font-family="Helvetica,sans-Serif" font-size="10.00">Countable</text>
<polyline fill="none" stroke="#bfbfbf" points="229,-927.5 295,-927.5 "/>
<text text-anchor="middle" x="262" y="-915.5" font-family="Helvetica,sans-Serif" font-size="10.00"> </text>
<polyline fill="none" stroke="#bfbfbf" points="229,-908.5 295,-908.5 "/>
<text text-anchor="middle" x="262" y="-896.5" font-family="Helvetica,sans-Serif" font-size="10.00"> </text>
</a>
</g>
</g>
<!-- Node7&#45;&gt;Node5 -->
<g id="edge6" class="edge">
<title>Node7&#45;&gt;Node5</title>
<path fill="none" stroke="midnightblue" d="M262,-879.32C262,-856.7 262,-826.6 262,-796.69"/>
<polygon fill="none" stroke="midnightblue" points="258.5,-879.47 262,-889.47 265.5,-879.47 258.5,-879.47"/>
</g>
<!-- Node8 -->
<g id="node8" class="node">
<title>Node8</title>
<g id="a_node8"><a xlink:title=" ">
<polygon fill="white" stroke="#bfbfbf" points="313.5,-889.5 313.5,-946.5 416.5,-946.5 416.5,-889.5 313.5,-889.5"/>
<text text-anchor="middle" x="365" y="-934.5" font-family="Helvetica,sans-Serif" font-size="10.00">IteratorAggregate</text>
<polyline fill="none" stroke="#bfbfbf" points="313.5,-927.5 416.5,-927.5 "/>
<text text-anchor="middle" x="365" y="-915.5" font-family="Helvetica,sans-Serif" font-size="10.00"> </text>
<polyline fill="none" stroke="#bfbfbf" points="313.5,-908.5 416.5,-908.5 "/>
<text text-anchor="middle" x="365" y="-896.5" font-family="Helvetica,sans-Serif" font-size="10.00"> </text>
</a>
</g>
</g>
<!-- Node8&#45;&gt;Node5 -->
<g id="edge7" class="edge">
<title>Node8&#45;&gt;Node5</title>
<path fill="none" stroke="midnightblue" d="M348.95,-880.23C339.04,-857.52 325.72,-827 312.49,-796.69"/>
<polygon fill="none" stroke="midnightblue" points="345.78,-881.7 352.98,-889.47 352.19,-878.9 345.78,-881.7"/>
</g>
<!-- Node9 -->
<g id="node9" class="node">
<title>Node9</title>
<g id="a_node9"><a xlink:href="../../d2/de2/interfacepocketmine_1_1item_1_1_consumable_item.html" target="_top" xlink:title=" ">
<polygon fill="white" stroke="black" points="332.5,-293.5 332.5,-350.5 517.5,-350.5 517.5,-293.5 332.5,-293.5"/>
<text text-anchor="middle" x="425" y="-338.5" font-family="Helvetica,sans-Serif" font-size="10.00">pocketmine\item\ConsumableItem</text>
<polyline fill="none" stroke="black" points="332.5,-331.5 517.5,-331.5 "/>
<text text-anchor="middle" x="425" y="-319.5" font-family="Helvetica,sans-Serif" font-size="10.00"> </text>
<polyline fill="none" stroke="black" points="332.5,-312.5 517.5,-312.5 "/>
<text text-anchor="start" x="340.5" y="-300.5" font-family="Helvetica,sans-Serif" font-size="10.00">+ getResidue()</text>
</a>
</g>
</g>
<!-- Node9&#45;&gt;Node1 -->
<g id="edge8" class="edge">
<title>Node9&#45;&gt;Node1</title>
<path fill="none" stroke="midnightblue" d="M403.33,-284.34C381.8,-247.91 348.2,-191.07 321.36,-145.66"/>
<polygon fill="none" stroke="midnightblue" points="400.43,-286.32 408.54,-293.15 406.46,-282.76 400.43,-286.32"/>
</g>
<!-- Node10 -->
<g id="node10" class="node">
<title>Node10</title>
<g id="a_node10"><a xlink:href="../../db/d3f/interfacepocketmine_1_1entity_1_1_consumable.html" target="_top" xlink:title=" ">
<polygon fill="white" stroke="black" points="340.5,-646 340.5,-714 509.5,-714 509.5,-646 340.5,-646"/>
<text text-anchor="middle" x="425" y="-702" font-family="Helvetica,sans-Serif" font-size="10.00">pocketmine\entity\Consumable</text>
<polyline fill="none" stroke="black" points="340.5,-695 509.5,-695 "/>
<text text-anchor="middle" x="425" y="-683" font-family="Helvetica,sans-Serif" font-size="10.00"> </text>
<polyline fill="none" stroke="black" points="340.5,-676 509.5,-676 "/>
<text text-anchor="start" x="348.5" y="-664" font-family="Helvetica,sans-Serif" font-size="10.00">+ getAdditionalEffects()</text>
<text text-anchor="start" x="348.5" y="-653" font-family="Helvetica,sans-Serif" font-size="10.00">+ onConsume()</text>
</a>
</g>
</g>
<!-- Node10&#45;&gt;Node9 -->
<g id="edge9" class="edge">
<title>Node10&#45;&gt;Node9</title>
<path fill="none" stroke="midnightblue" d="M425,-635.44C425,-561.24 425,-412.38 425,-350.72"/>
<polygon fill="none" stroke="midnightblue" points="421.5,-635.83 425,-645.83 428.5,-635.83 421.5,-635.83"/>
</g>
<!-- Node11 -->
<g id="node11" class="node">
<title>Node11</title>
<g id="a_node11"><a xlink:href="../../d4/d35/interfacepocketmine_1_1item_1_1_releasable.html" target="_top" xlink:title=" ">
<polygon fill="white" stroke="black" points="528,-651.5 528,-708.5 684,-708.5 684,-651.5 528,-651.5"/>
<text text-anchor="middle" x="606" y="-696.5" font-family="Helvetica,sans-Serif" font-size="10.00">pocketmine\item\Releasable</text>
<polyline fill="none" stroke="black" points="528,-689.5 684,-689.5 "/>
<text text-anchor="middle" x="606" y="-677.5" font-family="Helvetica,sans-Serif" font-size="10.00"> </text>
<polyline fill="none" stroke="black" points="528,-670.5 684,-670.5 "/>
<text text-anchor="start" x="536" y="-658.5" font-family="Helvetica,sans-Serif" font-size="10.00">+ canStartUsingItem()</text>
</a>
</g>
</g>
<!-- Node11&#45;&gt;Node9 -->
<g id="edge10" class="edge">
<title>Node11&#45;&gt;Node9</title>
<path fill="none" stroke="midnightblue" d="M587.32,-642.27C551,-570.82 471.55,-414.56 439.17,-350.87"/>
<polygon fill="none" stroke="midnightblue" points="584.3,-644.03 591.95,-651.36 590.54,-640.86 584.3,-644.03"/>
</g>
</g>
</svg>
        <g id="navigator" transform="translate(0 0)" fill="#404254">
                <rect fill="#f2f5e9" fill-opacity="0.5" stroke="#606060" stroke-width=".5" x="0" y="0" width="60" height="60"/>
                <use id="zoomplus" xlink:href="#zoomPlus" x="17" y="9" onmousedown="handleZoom(evt,'in')"/>
                <use id="zoomminus" xlink:href="#zoomMin" x="42" y="9" onmousedown="handleZoom(evt,'out')"/>
                <use id="reset" xlink:href="#resetDef" x="30" y="36" onmousedown="handleReset()"/>
                <g id="arrowUp" xlink:href="#dirArrow" transform="translate(30 24)" onmousedown="handlePan(0,-1)">
                  <use xlink:href="#rim" fill="#404040">
                        <set attributeName="fill" to="#808080" begin="arrowUp.mouseover" end="arrowUp.mouseout"/>
                  </use>
                  <path fill="none" stroke="white" stroke-width="1.5" d="M0,-3.0v7 M-2.5,-0.5L0,-3.0L2.5,-0.5"/>
                </g>
                <g id="arrowRight" xlink:href="#dirArrow" transform="rotate(90) translate(36 -43)" onmousedown="handlePan(1,0)">
                  <use xlink:href="#rim" fill="#404040">
                        <set attributeName="fill" to="#808080" begin="arrowRight.mouseover" end="arrowRight.mouseout"/>
                  </use>
                  <path fill="none" stroke="white" stroke-width="1.5" d="M0,-3.0v7 M-2.5,-0.5L0,-3.0L2.5,-0.5"/>
                </g>
                <g id="arrowDown" xlink:href="#dirArrow" transform="rotate(180) translate(-30 -48)" onmousedown="handlePan(0,1)">
                  <use xlink:href="#rim" fill="#404040">
                        <set attributeName="fill" to="#808080" begin="arrowDown.mouseover" end="arrowDown.mouseout"/>
                  </use>
                  <path fill="none" stroke="white" stroke-width="1.5" d="M0,-3.0v7 M-2.5,-0.5L0,-3.0L2.5,-0.5"/>
                </g>
                <g id="arrowLeft" xlink:href="#dirArrow" transform="rotate(270) translate(-36 17)" onmousedown="handlePan(-1,0)">
                  <use xlink:href="#rim" fill="#404040">
                        <set attributeName="fill" to="#808080" begin="arrowLeft.mouseover" end="arrowLeft.mouseout"/>
                  </use>
                  <path fill="none" stroke="white" stroke-width="1.5" d="M0,-3.0v7 M-2.5,-0.5L0,-3.0L2.5,-0.5"/>
                </g>
        </g>
        <svg viewBox="0 0 15 15" width="100%" height="30px" preserveAspectRatio="xMaxYMin meet">
         <g id="arrow_out" transform="scale(0.3 0.3)">
          <a xlink:href="classpocketmine_1_1item_1_1_potion__coll__graph_org.svg" target="_base">
           <rect id="button" ry="5" rx="5" y="6" x="6" height="38" width="38"
                fill="#f2f5e9" fill-opacity="0.5" stroke="#606060" stroke-width="1.0"/>
           <path id="arrow"
             d="M 11.500037,31.436501 C 11.940474,20.09759 22.043105,11.32322 32.158766,21.979434 L 37.068811,17.246167 C 37.068811,17.246167 37.088388,32 37.088388,32 L 22.160133,31.978069 C 22.160133,31.978069 26.997745,27.140456 26.997745,27.140456 C 18.528582,18.264221 13.291696,25.230495 11.500037,31.436501 z"
             style="fill:#404040;"/>
          </a>
         </g>
        </svg>
</svg>
