<?xml version="1.0" encoding="UTF-8" standalone="no"?>
<!DOCTYPE svg PUBLIC "-//W3C//DTD SVG 1.1//EN"
 "http://www.w3.org/Graphics/SVG/1.1/DTD/svg11.dtd">
<!-- Generated by graphviz version 2.43.0 (0)
 -->
<!-- Title: pocketmine\network\mcpe\protocol\AddItemActorPacket Pages: 1 -->
<svg width="777pt" height="606pt"
 viewBox="0.00 0.00 776.50 606.00" xmlns="http://www.w3.org/2000/svg" xmlns:xlink="http://www.w3.org/1999/xlink">
<g id="graph0" class="graph" transform="scale(1 1) rotate(0) translate(4 602)">
<title>pocketmine\network\mcpe\protocol\AddItemActorPacket</title>
<polygon fill="white" stroke="transparent" points="-4,4 -4,-602 772.5,-602 772.5,4 -4,4"/>
<!-- Node1 -->
<g id="node1" class="node">
<title>Node1</title>
<g id="a_node1"><a xlink:title=" ">
<polygon fill="#bfbfbf" stroke="black" points="273,-0.5 273,-145.5 432,-145.5 432,-0.5 273,-0.5"/>
<text text-anchor="start" x="281" y="-133.5" font-family="Helvetica,sans-Serif" font-size="10.00">pocketmine\network</text>
<text text-anchor="start" x="281" y="-122.5" font-family="Helvetica,sans-Serif" font-size="10.00">\mcpe\protocol\AddItemActor</text>
<text text-anchor="middle" x="352.5" y="-111.5" font-family="Helvetica,sans-Serif" font-size="10.00">Packet</text>
<polyline fill="none" stroke="black" points="273,-104.5 432,-104.5 "/>
<text text-anchor="start" x="281" y="-92.5" font-family="Helvetica,sans-Serif" font-size="10.00">+ $actorRuntimeId</text>
<text text-anchor="start" x="281" y="-81.5" font-family="Helvetica,sans-Serif" font-size="10.00">+ $actorUniqueId</text>
<text text-anchor="start" x="281" y="-70.5" font-family="Helvetica,sans-Serif" font-size="10.00">+ $isFromFishing</text>
<text text-anchor="start" x="281" y="-59.5" font-family="Helvetica,sans-Serif" font-size="10.00">+ $metadata</text>
<polyline fill="none" stroke="black" points="273,-52.5 432,-52.5 "/>
<text text-anchor="start" x="281" y="-40.5" font-family="Helvetica,sans-Serif" font-size="10.00">+ handle()</text>
<text text-anchor="start" x="281" y="-29.5" font-family="Helvetica,sans-Serif" font-size="10.00">+ create()</text>
<text text-anchor="start" x="281" y="-18.5" font-family="Helvetica,sans-Serif" font-size="10.00"># decodePayload()</text>
<text text-anchor="start" x="281" y="-7.5" font-family="Helvetica,sans-Serif" font-size="10.00"># encodePayload()</text>
</a>
</g>
</g>
<!-- Node2 -->
<g id="node2" class="node">
<title>Node2</title>
<g id="a_node2"><a xlink:href="../../d1/ddb/classpocketmine_1_1network_1_1mcpe_1_1protocol_1_1_data_packet.html" target="_top" xlink:title=" ">
<polygon fill="white" stroke="#bfbfbf" points="169,-215.5 169,-404.5 316,-404.5 316,-215.5 169,-215.5"/>
<text text-anchor="start" x="177" y="-392.5" font-family="Helvetica,sans-Serif" font-size="10.00">pocketmine\network</text>
<text text-anchor="middle" x="242.5" y="-381.5" font-family="Helvetica,sans-Serif" font-size="10.00">\mcpe\protocol\DataPacket</text>
<polyline fill="none" stroke="#bfbfbf" points="169,-374.5 316,-374.5 "/>
<text text-anchor="start" x="177" y="-362.5" font-family="Helvetica,sans-Serif" font-size="10.00">+ $recipientSubId</text>
<text text-anchor="start" x="177" y="-351.5" font-family="Helvetica,sans-Serif" font-size="10.00">+ $senderSubId</text>
<polyline fill="none" stroke="#bfbfbf" points="169,-344.5 316,-344.5 "/>
<text text-anchor="start" x="177" y="-332.5" font-family="Helvetica,sans-Serif" font-size="10.00">+ __get()</text>
<text text-anchor="start" x="177" y="-321.5" font-family="Helvetica,sans-Serif" font-size="10.00">+ __set()</text>
<text text-anchor="start" x="177" y="-310.5" font-family="Helvetica,sans-Serif" font-size="10.00">+ canBeSentBeforeLogin()</text>
<text text-anchor="start" x="177" y="-299.5" font-family="Helvetica,sans-Serif" font-size="10.00">+ decode()</text>
<text text-anchor="start" x="177" y="-288.5" font-family="Helvetica,sans-Serif" font-size="10.00">+ encode()</text>
<text text-anchor="start" x="177" y="-277.5" font-family="Helvetica,sans-Serif" font-size="10.00">+ getName()</text>
<text text-anchor="start" x="177" y="-266.5" font-family="Helvetica,sans-Serif" font-size="10.00">+ pid()</text>
<text text-anchor="start" x="177" y="-255.5" font-family="Helvetica,sans-Serif" font-size="10.00"># decodeHeader()</text>
<text text-anchor="start" x="177" y="-244.5" font-family="Helvetica,sans-Serif" font-size="10.00"># decodePayload()</text>
<text text-anchor="start" x="177" y="-233.5" font-family="Helvetica,sans-Serif" font-size="10.00"># encodeHeader()</text>
<text text-anchor="start" x="177" y="-222.5" font-family="Helvetica,sans-Serif" font-size="10.00"># encodePayload()</text>
</a>
</g>
</g>
<!-- Node2&#45;&gt;Node1 -->
<g id="edge1" class="edge">
<title>Node2&#45;&gt;Node1</title>
<path fill="none" stroke="midnightblue" d="M290.53,-206.38C300.14,-185.85 310.04,-164.7 319.03,-145.5"/>
<polygon fill="none" stroke="midnightblue" points="287.36,-204.91 286.29,-215.45 293.7,-207.87 287.36,-204.91"/>
</g>
<!-- Node3 -->
<g id="node3" class="node">
<title>Node3</title>
<g id="a_node3"><a xlink:href="../../d4/d5d/interfacepocketmine_1_1network_1_1mcpe_1_1protocol_1_1_packet.html" target="_top" xlink:title=" ">
<polygon fill="white" stroke="#bfbfbf" points="65.5,-474.5 65.5,-597.5 211.5,-597.5 211.5,-474.5 65.5,-474.5"/>
<text text-anchor="start" x="73.5" y="-585.5" font-family="Helvetica,sans-Serif" font-size="10.00">pocketmine\network</text>
<text text-anchor="middle" x="138.5" y="-574.5" font-family="Helvetica,sans-Serif" font-size="10.00">\mcpe\protocol\Packet</text>
<polyline fill="none" stroke="#bfbfbf" points="65.5,-567.5 211.5,-567.5 "/>
<text text-anchor="middle" x="138.5" y="-555.5" font-family="Helvetica,sans-Serif" font-size="10.00"> </text>
<polyline fill="none" stroke="#bfbfbf" points="65.5,-548.5 211.5,-548.5 "/>
<text text-anchor="start" x="73.5" y="-536.5" font-family="Helvetica,sans-Serif" font-size="10.00">+ canBeSentBeforeLogin()</text>
<text text-anchor="start" x="73.5" y="-525.5" font-family="Helvetica,sans-Serif" font-size="10.00">+ decode()</text>
<text text-anchor="start" x="73.5" y="-514.5" font-family="Helvetica,sans-Serif" font-size="10.00">+ encode()</text>
<text text-anchor="start" x="73.5" y="-503.5" font-family="Helvetica,sans-Serif" font-size="10.00">+ getName()</text>
<text text-anchor="start" x="73.5" y="-492.5" font-family="Helvetica,sans-Serif" font-size="10.00">+ handle()</text>
<text text-anchor="start" x="73.5" y="-481.5" font-family="Helvetica,sans-Serif" font-size="10.00">+ pid()</text>
</a>
</g>
</g>
<!-- Node3&#45;&gt;Node2 -->
<g id="edge2" class="edge">
<title>Node3&#45;&gt;Node2</title>
<path fill="none" stroke="midnightblue" d="M170.94,-465.13C179.85,-445.94 189.66,-424.82 199.08,-404.53"/>
<polygon fill="none" stroke="midnightblue" points="167.68,-463.84 166.64,-474.38 174.03,-466.79 167.68,-463.84"/>
</g>
<!-- Node5 -->
<g id="node5" class="node">
<title>Node5</title>
<g id="a_node5"><a xlink:href="../../da/d77/interfacepocketmine_1_1network_1_1mcpe_1_1protocol_1_1_clientbound_packet.html" target="_top" xlink:title=" ">
<polygon fill="white" stroke="#bfbfbf" points="0,-270.5 0,-349.5 151,-349.5 151,-270.5 0,-270.5"/>
<text text-anchor="start" x="8" y="-337.5" font-family="Helvetica,sans-Serif" font-size="10.00">pocketmine\network</text>
<text text-anchor="start" x="8" y="-326.5" font-family="Helvetica,sans-Serif" font-size="10.00">\mcpe\protocol\Clientbound</text>
<text text-anchor="middle" x="75.5" y="-315.5" font-family="Helvetica,sans-Serif" font-size="10.00">Packet</text>
<polyline fill="none" stroke="#bfbfbf" points="0,-308.5 151,-308.5 "/>
<text text-anchor="middle" x="75.5" y="-296.5" font-family="Helvetica,sans-Serif" font-size="10.00"> </text>
<polyline fill="none" stroke="#bfbfbf" points="0,-289.5 151,-289.5 "/>
<text text-anchor="middle" x="75.5" y="-277.5" font-family="Helvetica,sans-Serif" font-size="10.00"> </text>
</a>
</g>
</g>
<!-- Node3&#45;&gt;Node5 -->
<g id="edge5" class="edge">
<title>Node3&#45;&gt;Node5</title>
<path fill="none" stroke="midnightblue" d="M118.65,-464.42C108,-426.54 95.27,-381.3 86.41,-349.81"/>
<polygon fill="none" stroke="midnightblue" points="115.37,-465.7 121.45,-474.38 122.11,-463.81 115.37,-465.7"/>
</g>
<!-- Node4 -->
<g id="node4" class="node">
<title>Node4</title>
<g id="a_node4"><a xlink:title=" ">
<polygon fill="white" stroke="#bfbfbf" points="251,-507.5 251,-564.5 294,-564.5 294,-507.5 251,-507.5"/>
<text text-anchor="middle" x="272.5" y="-552.5" font-family="Helvetica,sans-Serif" font-size="10.00">const</text>
<polyline fill="none" stroke="#bfbfbf" points="251,-545.5 294,-545.5 "/>
<text text-anchor="middle" x="272.5" y="-533.5" font-family="Helvetica,sans-Serif" font-size="10.00"> </text>
<polyline fill="none" stroke="#bfbfbf" points="251,-526.5 294,-526.5 "/>
<text text-anchor="middle" x="272.5" y="-514.5" font-family="Helvetica,sans-Serif" font-size="10.00"> </text>
</a>
</g>
</g>
<!-- Node4&#45;&gt;Node1 -->
<g id="edge6" class="edge">
<title>Node4&#45;&gt;Node1</title>
<path fill="none" stroke="#404040" d="M294.05,-516.67C309.55,-502.02 329.28,-480.03 338.5,-456 358.6,-403.62 358.25,-253.78 355.7,-158.08"/>
<polygon fill="none" stroke="#404040" points="355.7,-157.81 351.53,-151.93 355.36,-145.82 359.52,-151.7 355.7,-157.81"/>
<text text-anchor="middle" x="396.5" y="-307.5" font-family="Helvetica,sans-Serif" font-size="10.00"> +NETWORK_ID</text>
</g>
<!-- Node4&#45;&gt;Node2 -->
<g id="edge3" class="edge">
<title>Node4&#45;&gt;Node2</title>
<path fill="none" stroke="#404040" d="M268.09,-507.24C265.74,-492.11 262.85,-473.04 260.5,-456 258.75,-443.3 256.99,-429.97 255.29,-416.74"/>
<polygon fill="none" stroke="#404040" points="255.26,-416.55 250.54,-411.11 253.75,-404.65 258.47,-410.1 255.26,-416.55"/>
<text text-anchor="middle" x="299.5" y="-448" font-family="Helvetica,sans-Serif" font-size="10.00"> +NETWORK_ID</text>
<text text-anchor="middle" x="299.5" y="-437" font-family="Helvetica,sans-Serif" font-size="10.00">+PID_MASK</text>
</g>
<!-- Node5&#45;&gt;Node1 -->
<g id="edge4" class="edge">
<title>Node5&#45;&gt;Node1</title>
<path fill="none" stroke="midnightblue" d="M107.95,-262.38C122.51,-243.16 140.65,-221.37 159.5,-204 193.82,-172.39 236.46,-142.84 272.92,-119.92"/>
<polygon fill="none" stroke="midnightblue" points="105.11,-260.33 101.93,-270.44 110.72,-264.52 105.11,-260.33"/>
</g>
<!-- Node6 -->
<g id="node6" class="node">
<title>Node6</title>
<g id="a_node6"><a xlink:href="../../dd/ded/classpocketmine_1_1network_1_1mcpe_1_1protocol_1_1types_1_1inventory_1_1_item_stack_wrapper.html" target="_top" xlink:title=" ">
<polygon fill="white" stroke="#bfbfbf" points="448.5,-254 448.5,-366 608.5,-366 608.5,-254 448.5,-254"/>
<text text-anchor="start" x="456.5" y="-354" font-family="Helvetica,sans-Serif" font-size="10.00">pocketmine\network</text>
<text text-anchor="start" x="456.5" y="-343" font-family="Helvetica,sans-Serif" font-size="10.00">\mcpe\protocol\types</text>
<text text-anchor="middle" x="528.5" y="-332" font-family="Helvetica,sans-Serif" font-size="10.00">\inventory\ItemStackWrapper</text>
<polyline fill="none" stroke="#bfbfbf" points="448.5,-325 608.5,-325 "/>
<text text-anchor="middle" x="528.5" y="-313" font-family="Helvetica,sans-Serif" font-size="10.00"> </text>
<polyline fill="none" stroke="#bfbfbf" points="448.5,-306 608.5,-306 "/>
<text text-anchor="start" x="456.5" y="-294" font-family="Helvetica,sans-Serif" font-size="10.00">+ __construct()</text>
<text text-anchor="start" x="456.5" y="-283" font-family="Helvetica,sans-Serif" font-size="10.00">+ getItemStack()</text>
<text text-anchor="start" x="456.5" y="-272" font-family="Helvetica,sans-Serif" font-size="10.00">+ getStackId()</text>
<text text-anchor="start" x="456.5" y="-261" font-family="Helvetica,sans-Serif" font-size="10.00">+ legacy()</text>
</a>
</g>
</g>
<!-- Node6&#45;&gt;Node1 -->
<g id="edge7" class="edge">
<title>Node6&#45;&gt;Node1</title>
<path fill="none" stroke="#404040" d="M487.24,-253.9C465.32,-224.64 437.96,-188.11 413.63,-155.62"/>
<polygon fill="none" stroke="#404040" points="413.38,-155.29 406.58,-152.88 406.19,-145.68 412.98,-148.09 413.38,-155.29"/>
<text text-anchor="middle" x="455.5" y="-172.5" font-family="Helvetica,sans-Serif" font-size="10.00"> +$item</text>
</g>
<!-- Node7 -->
<g id="node7" class="node">
<title>Node7</title>
<g id="a_node7"><a xlink:href="../../d2/d90/classpocketmine_1_1math_1_1_vector3.html" target="_top" xlink:title=" ">
<polygon fill="white" stroke="#bfbfbf" points="626.5,-204.5 626.5,-415.5 768.5,-415.5 768.5,-204.5 626.5,-204.5"/>
<text text-anchor="middle" x="697.5" y="-403.5" font-family="Helvetica,sans-Serif" font-size="10.00">pocketmine\math\Vector3</text>
<polyline fill="none" stroke="#bfbfbf" points="626.5,-396.5 768.5,-396.5 "/>
<text text-anchor="middle" x="697.5" y="-384.5" font-family="Helvetica,sans-Serif" font-size="10.00"> </text>
<polyline fill="none" stroke="#bfbfbf" points="626.5,-377.5 768.5,-377.5 "/>
<text text-anchor="start" x="634.5" y="-365.5" font-family="Helvetica,sans-Serif" font-size="10.00">+ __construct()</text>
<text text-anchor="start" x="634.5" y="-354.5" font-family="Helvetica,sans-Serif" font-size="10.00">+ __toString()</text>
<text text-anchor="start" x="634.5" y="-343.5" font-family="Helvetica,sans-Serif" font-size="10.00">+ abs()</text>
<text text-anchor="start" x="634.5" y="-332.5" font-family="Helvetica,sans-Serif" font-size="10.00">+ add()</text>
<text text-anchor="start" x="634.5" y="-321.5" font-family="Helvetica,sans-Serif" font-size="10.00">+ addVector()</text>
<text text-anchor="start" x="634.5" y="-310.5" font-family="Helvetica,sans-Serif" font-size="10.00">+ asVector3()</text>
<text text-anchor="start" x="634.5" y="-299.5" font-family="Helvetica,sans-Serif" font-size="10.00">+ ceil()</text>
<text text-anchor="start" x="634.5" y="-288.5" font-family="Helvetica,sans-Serif" font-size="10.00">+ cross()</text>
<text text-anchor="start" x="634.5" y="-277.5" font-family="Helvetica,sans-Serif" font-size="10.00">+ distance()</text>
<text text-anchor="start" x="634.5" y="-266.5" font-family="Helvetica,sans-Serif" font-size="10.00">+ distanceSquared()</text>
<text text-anchor="start" x="634.5" y="-255.5" font-family="Helvetica,sans-Serif" font-size="10.00">and 32 more...</text>
<text text-anchor="start" x="634.5" y="-244.5" font-family="Helvetica,sans-Serif" font-size="10.00">+ maxComponents()</text>
<text text-anchor="start" x="634.5" y="-233.5" font-family="Helvetica,sans-Serif" font-size="10.00">+ minComponents()</text>
<text text-anchor="start" x="634.5" y="-222.5" font-family="Helvetica,sans-Serif" font-size="10.00">+ sum()</text>
<text text-anchor="start" x="634.5" y="-211.5" font-family="Helvetica,sans-Serif" font-size="10.00">+ zero()</text>
</a>
</g>
</g>
<!-- Node7&#45;&gt;Node1 -->
<g id="edge8" class="edge">
<title>Node7&#45;&gt;Node1</title>
<path fill="none" stroke="#404040" d="M626.38,-211.8C623.47,-209.08 620.51,-206.47 617.5,-204 565.75,-161.47 497.77,-128.49 443.62,-106.38"/>
<polygon fill="none" stroke="#404040" points="443.42,-106.3 436.36,-107.78 432.28,-101.83 439.34,-100.35 443.42,-106.3"/>
<text text-anchor="middle" x="618.5" y="-178" font-family="Helvetica,sans-Serif" font-size="10.00"> +$motion</text>
<text text-anchor="middle" x="618.5" y="-167" font-family="Helvetica,sans-Serif" font-size="10.00">+$position</text>
</g>
</g>
</svg>
