<?xml version="1.0" encoding="UTF-8" standalone="no"?>
<!DOCTYPE svg PUBLIC "-//W3C//DTD SVG 1.1//EN"
 "http://www.w3.org/Graphics/SVG/1.1/DTD/svg11.dtd">
<!-- Generated by graphviz version 2.43.0 (0)
 -->
<!-- Title: pocketmine\network\mcpe\protocol\PlayerAuthInputPacket Pages: 1 -->
<svg width="328pt" height="639pt"
 viewBox="0.00 0.00 327.50 639.00" xmlns="http://www.w3.org/2000/svg" xmlns:xlink="http://www.w3.org/1999/xlink">
<g id="graph0" class="graph" transform="scale(1 1) rotate(0) translate(4 635)">
<title>pocketmine\network\mcpe\protocol\PlayerAuthInputPacket</title>
<polygon fill="white" stroke="transparent" points="-4,4 -4,-635 323.5,-635 323.5,4 -4,4"/>
<!-- Node1 -->
<g id="node1" class="node">
<title>Node1</title>
<g id="a_node1"><a xlink:title=" ">
<polygon fill="#bfbfbf" stroke="black" points="72.5,-0.5 72.5,-222.5 242.5,-222.5 242.5,-0.5 72.5,-0.5"/>
<text text-anchor="start" x="80.5" y="-210.5" font-family="Helvetica,sans-Serif" font-size="10.00">pocketmine\network</text>
<text text-anchor="start" x="80.5" y="-199.5" font-family="Helvetica,sans-Serif" font-size="10.00">\mcpe\protocol\PlayerAuthInput</text>
<text text-anchor="middle" x="157.5" y="-188.5" font-family="Helvetica,sans-Serif" font-size="10.00">Packet</text>
<polyline fill="none" stroke="black" points="72.5,-181.5 242.5,-181.5 "/>
<text text-anchor="start" x="80.5" y="-169.5" font-family="Helvetica,sans-Serif" font-size="10.00">+ NETWORK_ID</text>
<polyline fill="none" stroke="black" points="72.5,-162.5 242.5,-162.5 "/>
<text text-anchor="start" x="80.5" y="-150.5" font-family="Helvetica,sans-Serif" font-size="10.00">+ getAnalogMoveVecX()</text>
<text text-anchor="start" x="80.5" y="-139.5" font-family="Helvetica,sans-Serif" font-size="10.00">+ getAnalogMoveVecZ()</text>
<text text-anchor="start" x="80.5" y="-128.5" font-family="Helvetica,sans-Serif" font-size="10.00">+ getBlockActions()</text>
<text text-anchor="start" x="80.5" y="-117.5" font-family="Helvetica,sans-Serif" font-size="10.00">+ getCameraOrientation()</text>
<text text-anchor="start" x="80.5" y="-106.5" font-family="Helvetica,sans-Serif" font-size="10.00">+ getDelta()</text>
<text text-anchor="start" x="80.5" y="-95.5" font-family="Helvetica,sans-Serif" font-size="10.00">+ getHeadYaw()</text>
<text text-anchor="start" x="80.5" y="-84.5" font-family="Helvetica,sans-Serif" font-size="10.00">+ getInputFlags()</text>
<text text-anchor="start" x="80.5" y="-73.5" font-family="Helvetica,sans-Serif" font-size="10.00">+ getInputMode()</text>
<text text-anchor="start" x="80.5" y="-62.5" font-family="Helvetica,sans-Serif" font-size="10.00">+ getInteractionMode()</text>
<text text-anchor="start" x="80.5" y="-51.5" font-family="Helvetica,sans-Serif" font-size="10.00">+ getInteractRotation()</text>
<text text-anchor="start" x="80.5" y="-40.5" font-family="Helvetica,sans-Serif" font-size="10.00">and 12 more...</text>
<text text-anchor="start" x="80.5" y="-29.5" font-family="Helvetica,sans-Serif" font-size="10.00">+ create()</text>
<text text-anchor="start" x="80.5" y="-18.5" font-family="Helvetica,sans-Serif" font-size="10.00"># decodePayload()</text>
<text text-anchor="start" x="80.5" y="-7.5" font-family="Helvetica,sans-Serif" font-size="10.00"># encodePayload()</text>
</a>
</g>
</g>
<!-- Node2 -->
<g id="node2" class="node">
<title>Node2</title>
<g id="a_node2"><a xlink:href="../../d1/ddb/classpocketmine_1_1network_1_1mcpe_1_1protocol_1_1_data_packet.html" target="_top" xlink:title=" ">
<polygon fill="white" stroke="#bfbfbf" points="0,-259.5 0,-470.5 147,-470.5 147,-259.5 0,-259.5"/>
<text text-anchor="start" x="8" y="-458.5" font-family="Helvetica,sans-Serif" font-size="10.00">pocketmine\network</text>
<text text-anchor="middle" x="73.5" y="-447.5" font-family="Helvetica,sans-Serif" font-size="10.00">\mcpe\protocol\DataPacket</text>
<polyline fill="none" stroke="#bfbfbf" points="0,-440.5 147,-440.5 "/>
<text text-anchor="start" x="8" y="-428.5" font-family="Helvetica,sans-Serif" font-size="10.00">+ $recipientSubId</text>
<text text-anchor="start" x="8" y="-417.5" font-family="Helvetica,sans-Serif" font-size="10.00">+ $senderSubId</text>
<text text-anchor="start" x="8" y="-406.5" font-family="Helvetica,sans-Serif" font-size="10.00">+ NETWORK_ID</text>
<text text-anchor="start" x="8" y="-395.5" font-family="Helvetica,sans-Serif" font-size="10.00">+ PID_MASK</text>
<polyline fill="none" stroke="#bfbfbf" points="0,-388.5 147,-388.5 "/>
<text text-anchor="start" x="8" y="-376.5" font-family="Helvetica,sans-Serif" font-size="10.00">+ __get()</text>
<text text-anchor="start" x="8" y="-365.5" font-family="Helvetica,sans-Serif" font-size="10.00">+ __set()</text>
<text text-anchor="start" x="8" y="-354.5" font-family="Helvetica,sans-Serif" font-size="10.00">+ canBeSentBeforeLogin()</text>
<text text-anchor="start" x="8" y="-343.5" font-family="Helvetica,sans-Serif" font-size="10.00">+ decode()</text>
<text text-anchor="start" x="8" y="-332.5" font-family="Helvetica,sans-Serif" font-size="10.00">+ encode()</text>
<text text-anchor="start" x="8" y="-321.5" font-family="Helvetica,sans-Serif" font-size="10.00">+ getName()</text>
<text text-anchor="start" x="8" y="-310.5" font-family="Helvetica,sans-Serif" font-size="10.00">+ pid()</text>
<text text-anchor="start" x="8" y="-299.5" font-family="Helvetica,sans-Serif" font-size="10.00"># decodeHeader()</text>
<text text-anchor="start" x="8" y="-288.5" font-family="Helvetica,sans-Serif" font-size="10.00"># decodePayload()</text>
<text text-anchor="start" x="8" y="-277.5" font-family="Helvetica,sans-Serif" font-size="10.00"># encodeHeader()</text>
<text text-anchor="start" x="8" y="-266.5" font-family="Helvetica,sans-Serif" font-size="10.00"># encodePayload()</text>
</a>
</g>
</g>
<!-- Node2&#45;&gt;Node1 -->
<g id="edge1" class="edge">
<title>Node2&#45;&gt;Node1</title>
<path fill="none" stroke="midnightblue" d="M111.72,-249.56C114.69,-240.67 117.69,-231.71 120.65,-222.85"/>
<polygon fill="none" stroke="midnightblue" points="108.36,-248.57 108.52,-259.16 115,-250.79 108.36,-248.57"/>
</g>
<!-- Node3 -->
<g id="node3" class="node">
<title>Node3</title>
<g id="a_node3"><a xlink:href="../../d4/d5d/interfacepocketmine_1_1network_1_1mcpe_1_1protocol_1_1_packet.html" target="_top" xlink:title=" ">
<polygon fill="white" stroke="#bfbfbf" points="84.5,-507.5 84.5,-630.5 230.5,-630.5 230.5,-507.5 84.5,-507.5"/>
<text text-anchor="start" x="92.5" y="-618.5" font-family="Helvetica,sans-Serif" font-size="10.00">pocketmine\network</text>
<text text-anchor="middle" x="157.5" y="-607.5" font-family="Helvetica,sans-Serif" font-size="10.00">\mcpe\protocol\Packet</text>
<polyline fill="none" stroke="#bfbfbf" points="84.5,-600.5 230.5,-600.5 "/>
<text text-anchor="middle" x="157.5" y="-588.5" font-family="Helvetica,sans-Serif" font-size="10.00"> </text>
<polyline fill="none" stroke="#bfbfbf" points="84.5,-581.5 230.5,-581.5 "/>
<text text-anchor="start" x="92.5" y="-569.5" font-family="Helvetica,sans-Serif" font-size="10.00">+ canBeSentBeforeLogin()</text>
<text text-anchor="start" x="92.5" y="-558.5" font-family="Helvetica,sans-Serif" font-size="10.00">+ decode()</text>
<text text-anchor="start" x="92.5" y="-547.5" font-family="Helvetica,sans-Serif" font-size="10.00">+ encode()</text>
<text text-anchor="start" x="92.5" y="-536.5" font-family="Helvetica,sans-Serif" font-size="10.00">+ getName()</text>
<text text-anchor="start" x="92.5" y="-525.5" font-family="Helvetica,sans-Serif" font-size="10.00">+ handle()</text>
<text text-anchor="start" x="92.5" y="-514.5" font-family="Helvetica,sans-Serif" font-size="10.00">+ pid()</text>
</a>
</g>
</g>
<!-- Node3&#45;&gt;Node2 -->
<g id="edge2" class="edge">
<title>Node3&#45;&gt;Node2</title>
<path fill="none" stroke="midnightblue" d="M128.38,-497.97C124.71,-489.14 120.89,-479.96 117.06,-470.74"/>
<polygon fill="none" stroke="midnightblue" points="125.23,-499.5 132.3,-507.39 131.69,-496.82 125.23,-499.5"/>
</g>
<!-- Node4 -->
<g id="node4" class="node">
<title>Node4</title>
<g id="a_node4"><a xlink:href="../../dd/de6/interfacepocketmine_1_1network_1_1mcpe_1_1protocol_1_1_serverbound_packet.html" target="_top" xlink:title=" ">
<polygon fill="white" stroke="#bfbfbf" points="165.5,-325.5 165.5,-404.5 319.5,-404.5 319.5,-325.5 165.5,-325.5"/>
<text text-anchor="start" x="173.5" y="-392.5" font-family="Helvetica,sans-Serif" font-size="10.00">pocketmine\network</text>
<text text-anchor="start" x="173.5" y="-381.5" font-family="Helvetica,sans-Serif" font-size="10.00">\mcpe\protocol\Serverbound</text>
<text text-anchor="middle" x="242.5" y="-370.5" font-family="Helvetica,sans-Serif" font-size="10.00">Packet</text>
<polyline fill="none" stroke="#bfbfbf" points="165.5,-363.5 319.5,-363.5 "/>
<text text-anchor="middle" x="242.5" y="-351.5" font-family="Helvetica,sans-Serif" font-size="10.00"> </text>
<polyline fill="none" stroke="#bfbfbf" points="165.5,-344.5 319.5,-344.5 "/>
<text text-anchor="middle" x="242.5" y="-332.5" font-family="Helvetica,sans-Serif" font-size="10.00"> </text>
</a>
</g>
</g>
<!-- Node3&#45;&gt;Node4 -->
<g id="edge4" class="edge">
<title>Node3&#45;&gt;Node4</title>
<path fill="none" stroke="midnightblue" d="M187.02,-497.84C200.18,-466.57 215.18,-430.93 226.26,-404.59"/>
<polygon fill="none" stroke="midnightblue" points="183.66,-496.82 183,-507.39 190.11,-499.53 183.66,-496.82"/>
</g>
<!-- Node4&#45;&gt;Node1 -->
<g id="edge3" class="edge">
<title>Node4&#45;&gt;Node1</title>
<path fill="none" stroke="midnightblue" d="M226.1,-315.49C217.15,-289 205.68,-255.05 194.69,-222.53"/>
<polygon fill="none" stroke="midnightblue" points="222.89,-316.9 229.41,-325.25 229.52,-314.66 222.89,-316.9"/>
</g>
</g>
</svg>
