<?xml version="1.0" encoding="UTF-8" standalone="no"?>
<!DOCTYPE svg PUBLIC "-//W3C//DTD SVG 1.1//EN"
 "http://www.w3.org/Graphics/SVG/1.1/DTD/svg11.dtd">
<!-- Generated by graphviz version 2.43.0 (0)
 -->
<!-- Title: pocketmine\network\mcpe\protocol\SetSpawnPositionPacket Pages: 1 -->
<svg width="613pt" height="573pt"
 viewBox="0.00 0.00 613.00 573.00" xmlns="http://www.w3.org/2000/svg" xmlns:xlink="http://www.w3.org/1999/xlink">
<g id="graph0" class="graph" transform="scale(1 1) rotate(0) translate(4 569)">
<title>pocketmine\network\mcpe\protocol\SetSpawnPositionPacket</title>
<polygon fill="white" stroke="transparent" points="-4,4 -4,-569 609,-569 609,4 -4,4"/>
<!-- Node1 -->
<g id="node1" class="node">
<title>Node1</title>
<g id="a_node1"><a xlink:title=" ">
<polygon fill="#bfbfbf" stroke="black" points="235,-0.5 235,-134.5 414,-134.5 414,-0.5 235,-0.5"/>
<text text-anchor="start" x="243" y="-122.5" font-family="Helvetica,sans-Serif" font-size="10.00">pocketmine\network</text>
<text text-anchor="start" x="243" y="-111.5" font-family="Helvetica,sans-Serif" font-size="10.00">\mcpe\protocol\SetSpawnPosition</text>
<text text-anchor="middle" x="324.5" y="-100.5" font-family="Helvetica,sans-Serif" font-size="10.00">Packet</text>
<polyline fill="none" stroke="black" points="235,-93.5 414,-93.5 "/>
<text text-anchor="start" x="243" y="-81.5" font-family="Helvetica,sans-Serif" font-size="10.00">+ $dimension</text>
<text text-anchor="start" x="243" y="-70.5" font-family="Helvetica,sans-Serif" font-size="10.00">+ $spawnType</text>
<polyline fill="none" stroke="black" points="235,-63.5 414,-63.5 "/>
<text text-anchor="start" x="243" y="-51.5" font-family="Helvetica,sans-Serif" font-size="10.00">+ handle()</text>
<text text-anchor="start" x="243" y="-40.5" font-family="Helvetica,sans-Serif" font-size="10.00">+ playerSpawn()</text>
<text text-anchor="start" x="243" y="-29.5" font-family="Helvetica,sans-Serif" font-size="10.00">+ worldSpawn()</text>
<text text-anchor="start" x="243" y="-18.5" font-family="Helvetica,sans-Serif" font-size="10.00"># decodePayload()</text>
<text text-anchor="start" x="243" y="-7.5" font-family="Helvetica,sans-Serif" font-size="10.00"># encodePayload()</text>
</a>
</g>
</g>
<!-- Node2 -->
<g id="node2" class="node">
<title>Node2</title>
<g id="a_node2"><a xlink:href="../../d1/ddb/classpocketmine_1_1network_1_1mcpe_1_1protocol_1_1_data_packet.html" target="_top" xlink:title=" ">
<polygon fill="white" stroke="#bfbfbf" points="169,-193.5 169,-382.5 316,-382.5 316,-193.5 169,-193.5"/>
<text text-anchor="start" x="177" y="-370.5" font-family="Helvetica,sans-Serif" font-size="10.00">pocketmine\network</text>
<text text-anchor="middle" x="242.5" y="-359.5" font-family="Helvetica,sans-Serif" font-size="10.00">\mcpe\protocol\DataPacket</text>
<polyline fill="none" stroke="#bfbfbf" points="169,-352.5 316,-352.5 "/>
<text text-anchor="start" x="177" y="-340.5" font-family="Helvetica,sans-Serif" font-size="10.00">+ $recipientSubId</text>
<text text-anchor="start" x="177" y="-329.5" font-family="Helvetica,sans-Serif" font-size="10.00">+ $senderSubId</text>
<polyline fill="none" stroke="#bfbfbf" points="169,-322.5 316,-322.5 "/>
<text text-anchor="start" x="177" y="-310.5" font-family="Helvetica,sans-Serif" font-size="10.00">+ __get()</text>
<text text-anchor="start" x="177" y="-299.5" font-family="Helvetica,sans-Serif" font-size="10.00">+ __set()</text>
<text text-anchor="start" x="177" y="-288.5" font-family="Helvetica,sans-Serif" font-size="10.00">+ canBeSentBeforeLogin()</text>
<text text-anchor="start" x="177" y="-277.5" font-family="Helvetica,sans-Serif" font-size="10.00">+ decode()</text>
<text text-anchor="start" x="177" y="-266.5" font-family="Helvetica,sans-Serif" font-size="10.00">+ encode()</text>
<text text-anchor="start" x="177" y="-255.5" font-family="Helvetica,sans-Serif" font-size="10.00">+ getName()</text>
<text text-anchor="start" x="177" y="-244.5" font-family="Helvetica,sans-Serif" font-size="10.00">+ pid()</text>
<text text-anchor="start" x="177" y="-233.5" font-family="Helvetica,sans-Serif" font-size="10.00"># decodeHeader()</text>
<text text-anchor="start" x="177" y="-222.5" font-family="Helvetica,sans-Serif" font-size="10.00"># decodePayload()</text>
<text text-anchor="start" x="177" y="-211.5" font-family="Helvetica,sans-Serif" font-size="10.00"># encodeHeader()</text>
<text text-anchor="start" x="177" y="-200.5" font-family="Helvetica,sans-Serif" font-size="10.00"># encodePayload()</text>
</a>
</g>
</g>
<!-- Node2&#45;&gt;Node1 -->
<g id="edge1" class="edge">
<title>Node2&#45;&gt;Node1</title>
<path fill="none" stroke="midnightblue" d="M281.31,-183.59C287.57,-166.9 293.9,-150.03 299.72,-134.54"/>
<polygon fill="none" stroke="midnightblue" points="277.87,-182.79 277.63,-193.39 284.42,-185.25 277.87,-182.79"/>
</g>
<!-- Node3 -->
<g id="node3" class="node">
<title>Node3</title>
<g id="a_node3"><a xlink:href="../../d4/d5d/interfacepocketmine_1_1network_1_1mcpe_1_1protocol_1_1_packet.html" target="_top" xlink:title=" ">
<polygon fill="white" stroke="#bfbfbf" points="65.5,-441.5 65.5,-564.5 211.5,-564.5 211.5,-441.5 65.5,-441.5"/>
<text text-anchor="start" x="73.5" y="-552.5" font-family="Helvetica,sans-Serif" font-size="10.00">pocketmine\network</text>
<text text-anchor="middle" x="138.5" y="-541.5" font-family="Helvetica,sans-Serif" font-size="10.00">\mcpe\protocol\Packet</text>
<polyline fill="none" stroke="#bfbfbf" points="65.5,-534.5 211.5,-534.5 "/>
<text text-anchor="middle" x="138.5" y="-522.5" font-family="Helvetica,sans-Serif" font-size="10.00"> </text>
<polyline fill="none" stroke="#bfbfbf" points="65.5,-515.5 211.5,-515.5 "/>
<text text-anchor="start" x="73.5" y="-503.5" font-family="Helvetica,sans-Serif" font-size="10.00">+ canBeSentBeforeLogin()</text>
<text text-anchor="start" x="73.5" y="-492.5" font-family="Helvetica,sans-Serif" font-size="10.00">+ decode()</text>
<text text-anchor="start" x="73.5" y="-481.5" font-family="Helvetica,sans-Serif" font-size="10.00">+ encode()</text>
<text text-anchor="start" x="73.5" y="-470.5" font-family="Helvetica,sans-Serif" font-size="10.00">+ getName()</text>
<text text-anchor="start" x="73.5" y="-459.5" font-family="Helvetica,sans-Serif" font-size="10.00">+ handle()</text>
<text text-anchor="start" x="73.5" y="-448.5" font-family="Helvetica,sans-Serif" font-size="10.00">+ pid()</text>
</a>
</g>
</g>
<!-- Node3&#45;&gt;Node2 -->
<g id="edge2" class="edge">
<title>Node3&#45;&gt;Node2</title>
<path fill="none" stroke="midnightblue" d="M172.62,-432.13C180.31,-416.37 188.6,-399.4 196.68,-382.84"/>
<polygon fill="none" stroke="midnightblue" points="169.41,-430.73 168.16,-441.25 175.7,-433.8 169.41,-430.73"/>
</g>
<!-- Node5 -->
<g id="node5" class="node">
<title>Node5</title>
<g id="a_node5"><a xlink:href="../../da/d77/interfacepocketmine_1_1network_1_1mcpe_1_1protocol_1_1_clientbound_packet.html" target="_top" xlink:title=" ">
<polygon fill="white" stroke="#bfbfbf" points="0,-248.5 0,-327.5 151,-327.5 151,-248.5 0,-248.5"/>
<text text-anchor="start" x="8" y="-315.5" font-family="Helvetica,sans-Serif" font-size="10.00">pocketmine\network</text>
<text text-anchor="start" x="8" y="-304.5" font-family="Helvetica,sans-Serif" font-size="10.00">\mcpe\protocol\Clientbound</text>
<text text-anchor="middle" x="75.5" y="-293.5" font-family="Helvetica,sans-Serif" font-size="10.00">Packet</text>
<polyline fill="none" stroke="#bfbfbf" points="0,-286.5 151,-286.5 "/>
<text text-anchor="middle" x="75.5" y="-274.5" font-family="Helvetica,sans-Serif" font-size="10.00"> </text>
<polyline fill="none" stroke="#bfbfbf" points="0,-267.5 151,-267.5 "/>
<text text-anchor="middle" x="75.5" y="-255.5" font-family="Helvetica,sans-Serif" font-size="10.00"> </text>
</a>
</g>
</g>
<!-- Node3&#45;&gt;Node5 -->
<g id="edge5" class="edge">
<title>Node3&#45;&gt;Node5</title>
<path fill="none" stroke="midnightblue" d="M117.69,-431.65C107.45,-397.03 95.5,-356.62 86.94,-327.67"/>
<polygon fill="none" stroke="midnightblue" points="114.34,-432.65 120.53,-441.25 121.05,-430.67 114.34,-432.65"/>
</g>
<!-- Node4 -->
<g id="node4" class="node">
<title>Node4</title>
<g id="a_node4"><a xlink:title=" ">
<polygon fill="white" stroke="#bfbfbf" points="251,-474.5 251,-531.5 294,-531.5 294,-474.5 251,-474.5"/>
<text text-anchor="middle" x="272.5" y="-519.5" font-family="Helvetica,sans-Serif" font-size="10.00">const</text>
<polyline fill="none" stroke="#bfbfbf" points="251,-512.5 294,-512.5 "/>
<text text-anchor="middle" x="272.5" y="-500.5" font-family="Helvetica,sans-Serif" font-size="10.00"> </text>
<polyline fill="none" stroke="#bfbfbf" points="251,-493.5 294,-493.5 "/>
<text text-anchor="middle" x="272.5" y="-481.5" font-family="Helvetica,sans-Serif" font-size="10.00"> </text>
</a>
</g>
</g>
<!-- Node4&#45;&gt;Node1 -->
<g id="edge6" class="edge">
<title>Node4&#45;&gt;Node1</title>
<path fill="none" stroke="#404040" d="M294.31,-483.76C309.94,-469.16 329.72,-447.19 338.5,-423 371.33,-332.5 358.85,-220.36 344.15,-146.75"/>
<polygon fill="none" stroke="#404040" points="344.12,-146.57 338.99,-141.51 341.69,-134.82 346.82,-139.89 344.12,-146.57"/>
<text text-anchor="middle" x="417" y="-296.5" font-family="Helvetica,sans-Serif" font-size="10.00"> +NETWORK_ID</text>
<text text-anchor="middle" x="417" y="-285.5" font-family="Helvetica,sans-Serif" font-size="10.00">+TYPE_PLAYER_SPAWN</text>
<text text-anchor="middle" x="417" y="-274.5" font-family="Helvetica,sans-Serif" font-size="10.00">+TYPE_WORLD_SPAWN</text>
</g>
<!-- Node4&#45;&gt;Node2 -->
<g id="edge3" class="edge">
<title>Node4&#45;&gt;Node2</title>
<path fill="none" stroke="#404040" d="M268.16,-474.23C265.83,-459.1 262.94,-440.03 260.5,-423 259.19,-413.85 257.86,-404.35 256.54,-394.81"/>
<polygon fill="none" stroke="#404040" points="256.52,-394.63 251.74,-389.23 254.88,-382.74 259.66,-388.14 256.52,-394.63"/>
<text text-anchor="middle" x="299.5" y="-415" font-family="Helvetica,sans-Serif" font-size="10.00"> +NETWORK_ID</text>
<text text-anchor="middle" x="299.5" y="-404" font-family="Helvetica,sans-Serif" font-size="10.00">+PID_MASK</text>
</g>
<!-- Node5&#45;&gt;Node1 -->
<g id="edge4" class="edge">
<title>Node5&#45;&gt;Node1</title>
<path fill="none" stroke="midnightblue" d="M113.61,-240.77C127.44,-225 143.59,-207.65 159.5,-193 182.74,-171.61 209.49,-150.22 234.61,-131.35"/>
<polygon fill="none" stroke="midnightblue" points="110.93,-238.53 107.02,-248.38 116.22,-243.11 110.93,-238.53"/>
</g>
<!-- Node6 -->
<g id="node6" class="node">
<title>Node6</title>
<g id="a_node6"><a xlink:href="../../d1/d5f/classpocketmine_1_1network_1_1mcpe_1_1protocol_1_1types_1_1_block_position.html" target="_top" xlink:title=" ">
<polygon fill="white" stroke="#bfbfbf" points="486,-221 486,-355 605,-355 605,-221 486,-221"/>
<text text-anchor="start" x="494" y="-343" font-family="Helvetica,sans-Serif" font-size="10.00">pocketmine\network</text>
<text text-anchor="start" x="494" y="-332" font-family="Helvetica,sans-Serif" font-size="10.00">\mcpe\protocol\types</text>
<text text-anchor="middle" x="545.5" y="-321" font-family="Helvetica,sans-Serif" font-size="10.00">\BlockPosition</text>
<polyline fill="none" stroke="#bfbfbf" points="486,-314 605,-314 "/>
<text text-anchor="middle" x="545.5" y="-302" font-family="Helvetica,sans-Serif" font-size="10.00"> </text>
<polyline fill="none" stroke="#bfbfbf" points="486,-295 605,-295 "/>
<text text-anchor="start" x="494" y="-283" font-family="Helvetica,sans-Serif" font-size="10.00">+ __construct()</text>
<text text-anchor="start" x="494" y="-272" font-family="Helvetica,sans-Serif" font-size="10.00">+ equals()</text>
<text text-anchor="start" x="494" y="-261" font-family="Helvetica,sans-Serif" font-size="10.00">+ getX()</text>
<text text-anchor="start" x="494" y="-250" font-family="Helvetica,sans-Serif" font-size="10.00">+ getY()</text>
<text text-anchor="start" x="494" y="-239" font-family="Helvetica,sans-Serif" font-size="10.00">+ getZ()</text>
<text text-anchor="start" x="494" y="-228" font-family="Helvetica,sans-Serif" font-size="10.00">+ fromVector3()</text>
</a>
</g>
</g>
<!-- Node6&#45;&gt;Node1 -->
<g id="edge7" class="edge">
<title>Node6&#45;&gt;Node1</title>
<path fill="none" stroke="#404040" d="M496.18,-220.85C488.24,-211.24 479.86,-201.67 471.5,-193 454.91,-175.81 436.14,-158.52 417.69,-142.52"/>
<polygon fill="none" stroke="#404040" points="417.48,-142.34 410.32,-141.47 408.37,-134.53 415.53,-135.4 417.48,-142.34"/>
<text text-anchor="middle" x="514" y="-167" font-family="Helvetica,sans-Serif" font-size="10.00"> +$causingBlockPosition</text>
<text text-anchor="middle" x="514" y="-156" font-family="Helvetica,sans-Serif" font-size="10.00">+$spawnPosition</text>
</g>
</g>
</svg>
