<?xml version="1.0" encoding="UTF-8" standalone="no"?>
<!DOCTYPE svg PUBLIC "-//W3C//DTD SVG 1.1//EN"
 "http://www.w3.org/Graphics/SVG/1.1/DTD/svg11.dtd">
<!-- Generated by graphviz version 2.43.0 (0)
 -->
<!-- Title: pocketmine\network\mcpe\protocol\types\login\legacy\LegacyAuthJwtBody Pages: 1 -->
<svg width="181pt" height="276pt"
 viewBox="0.00 0.00 181.00 276.00" xmlns="http://www.w3.org/2000/svg" xmlns:xlink="http://www.w3.org/1999/xlink">
<g id="graph0" class="graph" transform="scale(1 1) rotate(0) translate(4 272)">
<title>pocketmine\network\mcpe\protocol\types\login\legacy\LegacyAuthJwtBody</title>
<!-- Node1 -->
<g id="Node000001" class="node">
<title>Node1</title>
<g id="a_Node000001"><a xlink:title=" ">
<polygon fill="#999999" stroke="transparent" points="173,-71 0,-71 0,0 173,0 173,-71"/>
<text text-anchor="start" x="5.5" y="-58.5" font-family="Helvetica,sans-Serif" font-size="10.00">pocketmine\network</text>
<text text-anchor="start" x="5.5" y="-47.5" font-family="Helvetica,sans-Serif" font-size="10.00">\mcpe\protocol\types</text>
<text text-anchor="start" x="5.5" y="-36.5" font-family="Helvetica,sans-Serif" font-size="10.00">\login\legacy\LegacyAuthJwtBody</text>
<text text-anchor="start" x="19.5" y="-21.5" font-family="Helvetica,sans-Serif" font-size="10.00">+</text>
<text text-anchor="start" x="47.5" y="-21.5" font-family="Helvetica,sans-Serif" font-size="10.00">$identityPublicKey</text>
<text text-anchor="start" x="85" y="-6.5" font-family="Helvetica,sans-Serif" font-size="10.00"> </text>
<polygon fill="#666666" stroke="#666666" points="0.5,-31.5 0.5,-31.5 173.5,-31.5 173.5,-31.5 0.5,-31.5"/>
<polygon fill="#666666" stroke="#666666" points="0.5,-16.5 0.5,-16.5 45.5,-16.5 45.5,-16.5 0.5,-16.5"/>
<polygon fill="#666666" stroke="#666666" points="45.5,-16.5 45.5,-16.5 173.5,-16.5 173.5,-16.5 45.5,-16.5"/>
<polygon fill="none" stroke="#666666" points="0,0 0,-71 173,-71 173,0 0,0"/>
</a>
</g>
</g>
<!-- Node2 -->
<g id="Node000002" class="node">
<title>Node2</title>
<g id="a_Node000002"><a xlink:href="../../d8/df3/classpocketmine_1_1network_1_1mcpe_1_1protocol_1_1types_1_1login_1_1_jwt_body_rfc7519.html" target="_top" xlink:title=" ">
<polygon fill="white" stroke="transparent" points="146.5,-268 26.5,-268 26.5,-107 146.5,-107 146.5,-268"/>
<text text-anchor="start" x="31.5" y="-255.5" font-family="Helvetica,sans-Serif" font-size="10.00">pocketmine\network</text>
<text text-anchor="start" x="31.5" y="-244.5" font-family="Helvetica,sans-Serif" font-size="10.00">\mcpe\protocol\types</text>
<text text-anchor="start" x="31.5" y="-233.5" font-family="Helvetica,sans-Serif" font-size="10.00">\login\JwtBodyRfc7519</text>
<text text-anchor="start" x="49" y="-218.5" font-family="Helvetica,sans-Serif" font-size="10.00">+</text>
<text text-anchor="start" x="80.5" y="-218.5" font-family="Helvetica,sans-Serif" font-size="10.00">$aud</text>
<text text-anchor="start" x="49" y="-203.5" font-family="Helvetica,sans-Serif" font-size="10.00">+</text>
<text text-anchor="start" x="80.5" y="-203.5" font-family="Helvetica,sans-Serif" font-size="10.00">$exp</text>
<text text-anchor="start" x="49" y="-188.5" font-family="Helvetica,sans-Serif" font-size="10.00">+</text>
<text text-anchor="start" x="80.5" y="-188.5" font-family="Helvetica,sans-Serif" font-size="10.00">$iat</text>
<text text-anchor="start" x="49" y="-173.5" font-family="Helvetica,sans-Serif" font-size="10.00">+</text>
<text text-anchor="start" x="80.5" y="-173.5" font-family="Helvetica,sans-Serif" font-size="10.00">$iss</text>
<text text-anchor="start" x="49" y="-158.5" font-family="Helvetica,sans-Serif" font-size="10.00">+</text>
<text text-anchor="start" x="80.5" y="-158.5" font-family="Helvetica,sans-Serif" font-size="10.00">$jti</text>
<text text-anchor="start" x="49" y="-143.5" font-family="Helvetica,sans-Serif" font-size="10.00">+</text>
<text text-anchor="start" x="80.5" y="-143.5" font-family="Helvetica,sans-Serif" font-size="10.00">$nbf</text>
<text text-anchor="start" x="49" y="-128.5" font-family="Helvetica,sans-Serif" font-size="10.00">+</text>
<text text-anchor="start" x="80.5" y="-128.5" font-family="Helvetica,sans-Serif" font-size="10.00">$sub</text>
<text text-anchor="start" x="84.5" y="-113.5" font-family="Helvetica,sans-Serif" font-size="10.00"> </text>
<polygon fill="#666666" stroke="#666666" points="26.5,-228.5 26.5,-228.5 146.5,-228.5 146.5,-228.5 26.5,-228.5"/>
<polygon fill="#666666" stroke="#666666" points="26.5,-123.5 26.5,-123.5 78.5,-123.5 78.5,-123.5 26.5,-123.5"/>
<polygon fill="#666666" stroke="#666666" points="78.5,-123.5 78.5,-123.5 146.5,-123.5 146.5,-123.5 78.5,-123.5"/>
<polygon fill="none" stroke="#666666" points="26.5,-107 26.5,-268 146.5,-268 146.5,-107 26.5,-107"/>
</a>
</g>
</g>
<!-- Node2&#45;&gt;Node1 -->
<g id="edge1_Node000001_Node000002" class="edge">
<title>Node2&#45;&gt;Node1</title>
<g id="a_edge1_Node000001_Node000002"><a xlink:title=" ">
<path fill="none" stroke="#63b8ff" d="M86.5,-96.52C86.5,-87.62 86.5,-79.01 86.5,-71.22"/>
<polygon fill="none" stroke="#63b8ff" points="83,-96.67 86.5,-106.67 90,-96.67 83,-96.67"/>
</a>
</g>
</g>
</g>
</svg>
