<?xml version="1.0" encoding="UTF-8" standalone="no"?>
<!DOCTYPE svg PUBLIC "-//W3C//DTD SVG 1.1//EN"
 "http://www.w3.org/Graphics/SVG/1.1/DTD/svg11.dtd">
<!-- Generated by graphviz version 2.43.0 (0)
 -->
<!-- Title: raklib\client\ClientSocket Pages: 1 -->
<svg width="198pt" height="293pt"
 viewBox="0.00 0.00 197.50 293.00" xmlns="http://www.w3.org/2000/svg" xmlns:xlink="http://www.w3.org/1999/xlink">
<g id="graph0" class="graph" transform="scale(1 1) rotate(0) translate(4 289)">
<title>raklib\client\ClientSocket</title>
<!-- Node1 -->
<g id="Node000001" class="node">
<title>Node1</title>
<g id="a_Node000001"><a xlink:title=" ">
<polygon fill="#999999" stroke="transparent" points="132,-94 0,-94 0,0 132,0 132,-94"/>
<text text-anchor="start" x="5" y="-82" font-family="Helvetica,sans-Serif" font-size="10.00">raklib\client\ClientSocket</text>
<text text-anchor="start" x="64" y="-67" font-family="Helvetica,sans-Serif" font-size="10.00"> </text>
<text text-anchor="start" x="6" y="-52" font-family="Helvetica,sans-Serif" font-size="10.00">+</text>
<text text-anchor="start" x="21" y="-52" font-family="Helvetica,sans-Serif" font-size="10.00">__construct()</text>
<text text-anchor="start" x="6" y="-37" font-family="Helvetica,sans-Serif" font-size="10.00">+</text>
<text text-anchor="start" x="21" y="-37" font-family="Helvetica,sans-Serif" font-size="10.00">getConnectAddress()</text>
<text text-anchor="start" x="6" y="-22" font-family="Helvetica,sans-Serif" font-size="10.00">+</text>
<text text-anchor="start" x="21" y="-22" font-family="Helvetica,sans-Serif" font-size="10.00">readPacket()</text>
<text text-anchor="start" x="6" y="-7" font-family="Helvetica,sans-Serif" font-size="10.00">+</text>
<text text-anchor="start" x="21" y="-7" font-family="Helvetica,sans-Serif" font-size="10.00">writePacket()</text>
<polygon fill="#666666" stroke="#666666" points="0,-77 0,-77 132,-77 132,-77 0,-77"/>
<polygon fill="#666666" stroke="#666666" points="0,-62 0,-62 132,-62 132,-62 0,-62"/>
<polygon fill="none" stroke="#666666" points="0,0 0,-94 132,-94 132,0 0,0"/>
</a>
</g>
</g>
<!-- Node2 -->
<g id="Node000002" class="node">
<title>Node2</title>
<g id="a_Node000002"><a xlink:href="../../d9/d5c/classraklib_1_1generic_1_1_socket.html" target="_top" xlink:title=" ">
<polygon fill="white" stroke="transparent" points="122.5,-285 9.5,-285 9.5,-131 122.5,-131 122.5,-285"/>
<text text-anchor="start" x="15" y="-273" font-family="Helvetica,sans-Serif" font-size="10.00">raklib\generic\Socket</text>
<text text-anchor="start" x="64.5" y="-258" font-family="Helvetica,sans-Serif" font-size="10.00"> </text>
<text text-anchor="start" x="15" y="-243" font-family="Helvetica,sans-Serif" font-size="10.00">+</text>
<text text-anchor="start" x="29" y="-243" font-family="Helvetica,sans-Serif" font-size="10.00">close()</text>
<text text-anchor="start" x="15" y="-228" font-family="Helvetica,sans-Serif" font-size="10.00">+</text>
<text text-anchor="start" x="29" y="-228" font-family="Helvetica,sans-Serif" font-size="10.00">getLastError()</text>
<text text-anchor="start" x="15" y="-213" font-family="Helvetica,sans-Serif" font-size="10.00">+</text>
<text text-anchor="start" x="29" y="-213" font-family="Helvetica,sans-Serif" font-size="10.00">getSocket()</text>
<text text-anchor="start" x="15" y="-198" font-family="Helvetica,sans-Serif" font-size="10.00">+</text>
<text text-anchor="start" x="29" y="-198" font-family="Helvetica,sans-Serif" font-size="10.00">setBlocking()</text>
<text text-anchor="start" x="15" y="-183" font-family="Helvetica,sans-Serif" font-size="10.00">+</text>
<text text-anchor="start" x="29" y="-183" font-family="Helvetica,sans-Serif" font-size="10.00">setRecvBuffer()</text>
<text text-anchor="start" x="15" y="-168" font-family="Helvetica,sans-Serif" font-size="10.00">+</text>
<text text-anchor="start" x="29" y="-168" font-family="Helvetica,sans-Serif" font-size="10.00">setRecvTimeout()</text>
<text text-anchor="start" x="15" y="-153" font-family="Helvetica,sans-Serif" font-size="10.00">+</text>
<text text-anchor="start" x="29" y="-153" font-family="Helvetica,sans-Serif" font-size="10.00">setSendBuffer()</text>
<text text-anchor="start" x="15" y="-138" font-family="Helvetica,sans-Serif" font-size="10.00">#</text>
<text text-anchor="start" x="29" y="-138" font-family="Helvetica,sans-Serif" font-size="10.00">__construct()</text>
<polygon fill="#bfbfbf" stroke="#bfbfbf" points="10,-268 10,-268 123,-268 123,-268 10,-268"/>
<polygon fill="#bfbfbf" stroke="#bfbfbf" points="10,-253 10,-253 123,-253 123,-253 10,-253"/>
<polygon fill="none" stroke="#bfbfbf" points="9.5,-131 9.5,-285 122.5,-285 122.5,-131 9.5,-131"/>
</a>
</g>
</g>
<!-- Node2&#45;&gt;Node1 -->
<g id="edge1_Node000001_Node000002" class="edge">
<title>Node2&#45;&gt;Node1</title>
<g id="a_edge1_Node000001_Node000002"><a xlink:title=" ">
<path fill="none" stroke="#63b8ff" d="M66,-120.56C66,-111.55 66,-102.66 66,-94.36"/>
<polygon fill="none" stroke="#63b8ff" points="62.5,-120.76 66,-130.76 69.5,-120.76 62.5,-120.76"/>
</a>
</g>
</g>
<!-- Node2&#45;&gt;Node2 -->
<g id="edge2_Node000002_Node000002" class="edge">
<title>Node2&#45;&gt;Node2</title>
<g id="a_edge2_Node000002_Node000002"><a xlink:title=" ">
<path fill="none" stroke="#63b8ff" d="M122.53,-224.72C133.07,-222.66 140.5,-217.09 140.5,-208 140.5,-202.75 138.02,-198.67 133.88,-195.76"/>
<polygon fill="none" stroke="#63b8ff" points="133.69,-195.68 126.64,-197.2 122.53,-191.28 129.57,-189.76 133.69,-195.68"/>
</a>
</g>
<text text-anchor="middle" x="165" y="-205.5" font-family="Helvetica,sans-Serif" font-size="10.00" fill="grey"> #$socket</text>
</g>
</g>
</svg>
