<?xml version="1.0" encoding="UTF-8" standalone="no"?>
<!DOCTYPE svg PUBLIC "-//W3C//DTD SVG 1.1//EN"
 "http://www.w3.org/Graphics/SVG/1.1/DTD/svg11.dtd">
<!-- Generated by graphviz version 2.43.0 (0)
 -->
<!-- Title: pocketmine\item\PoisonousPotato Pages: 1 -->
<svg width="516pt" height="978pt"
 viewBox="0.00 0.00 515.50 978.00" xmlns="http://www.w3.org/2000/svg" xmlns:xlink="http://www.w3.org/1999/xlink">
<g id="graph0" class="graph" transform="scale(1 1) rotate(0) translate(4 974)">
<title>pocketmine\item\PoisonousPotato</title>
<!-- Node1 -->
<g id="Node000001" class="node">
<title>Node1</title>
<g id="a_Node000001"><a xlink:title=" ">
<polygon fill="#999999" stroke="transparent" points="238.5,-90 92.5,-90 92.5,0 238.5,0 238.5,-90"/>
<text text-anchor="start" x="97.5" y="-78" font-family="Helvetica,sans-Serif" font-size="10.00">pocketmine\item\Poisonous</text>
<text text-anchor="start" x="149.5" y="-67" font-family="Helvetica,sans-Serif" font-size="10.00">Potato</text>
<text text-anchor="start" x="163.5" y="-52" font-family="Helvetica,sans-Serif" font-size="10.00"> </text>
<text text-anchor="start" x="99.5" y="-37" font-family="Helvetica,sans-Serif" font-size="10.00">+</text>
<text text-anchor="start" x="115.5" y="-37" font-family="Helvetica,sans-Serif" font-size="10.00">getAdditionalEffects()</text>
<text text-anchor="start" x="99.5" y="-22" font-family="Helvetica,sans-Serif" font-size="10.00">+</text>
<text text-anchor="start" x="115.5" y="-22" font-family="Helvetica,sans-Serif" font-size="10.00">getFoodRestore()</text>
<text text-anchor="start" x="99.5" y="-7" font-family="Helvetica,sans-Serif" font-size="10.00">+</text>
<text text-anchor="start" x="115.5" y="-7" font-family="Helvetica,sans-Serif" font-size="10.00">getSaturationRestore()</text>
<polygon fill="#666666" stroke="#666666" points="92.5,-62 92.5,-62 238.5,-62 238.5,-62 92.5,-62"/>
<polygon fill="#666666" stroke="#666666" points="92.5,-47 92.5,-47 238.5,-47 238.5,-47 92.5,-47"/>
<polygon fill="none" stroke="#666666" points="92.5,0 92.5,-90 238.5,-90 238.5,0 92.5,0"/>
</a>
</g>
</g>
<!-- Node2 -->
<g id="Node000002" class="node">
<title>Node2</title>
<g id="a_Node000002"><a xlink:href="../../dc/de1/classpocketmine_1_1item_1_1_food.html" target="_top" xlink:title=" ">
<polygon fill="white" stroke="transparent" points="229,-235 102,-235 102,-126 229,-126 229,-235"/>
<text text-anchor="start" x="111.5" y="-222.5" font-family="Helvetica,sans-Serif" font-size="10.00">pocketmine\item\Food</text>
<text text-anchor="start" x="164" y="-207.5" font-family="Helvetica,sans-Serif" font-size="10.00"> </text>
<text text-anchor="start" x="106.5" y="-192.5" font-family="Helvetica,sans-Serif" font-size="10.00">+</text>
<text text-anchor="start" x="119.5" y="-192.5" font-family="Helvetica,sans-Serif" font-size="10.00">canStartUsingItem()</text>
<text text-anchor="start" x="106.5" y="-177.5" font-family="Helvetica,sans-Serif" font-size="10.00">+</text>
<text text-anchor="start" x="119.5" y="-177.5" font-family="Helvetica,sans-Serif" font-size="10.00">getAdditionalEffects()</text>
<text text-anchor="start" x="106.5" y="-162.5" font-family="Helvetica,sans-Serif" font-size="10.00">+</text>
<text text-anchor="start" x="119.5" y="-162.5" font-family="Helvetica,sans-Serif" font-size="10.00">getResidue()</text>
<text text-anchor="start" x="106.5" y="-147.5" font-family="Helvetica,sans-Serif" font-size="10.00">+</text>
<text text-anchor="start" x="119.5" y="-147.5" font-family="Helvetica,sans-Serif" font-size="10.00">onConsume()</text>
<text text-anchor="start" x="106.5" y="-132.5" font-family="Helvetica,sans-Serif" font-size="10.00">+</text>
<text text-anchor="start" x="119.5" y="-132.5" font-family="Helvetica,sans-Serif" font-size="10.00">requiresHunger()</text>
<polygon fill="#bfbfbf" stroke="#bfbfbf" points="102.5,-217.5 102.5,-217.5 229.5,-217.5 229.5,-217.5 102.5,-217.5"/>
<polygon fill="#bfbfbf" stroke="#bfbfbf" points="102.5,-202.5 102.5,-202.5 229.5,-202.5 229.5,-202.5 102.5,-202.5"/>
<polygon fill="none" stroke="#bfbfbf" points="102,-126 102,-235 229,-235 229,-126 102,-126"/>
</a>
</g>
</g>
<!-- Node2&#45;&gt;Node1 -->
<g id="edge1_Node000001_Node000002" class="edge">
<title>Node2&#45;&gt;Node1</title>
<g id="a_edge1_Node000001_Node000002"><a xlink:title=" ">
<path fill="none" stroke="#63b8ff" d="M165.5,-115.83C165.5,-107.13 165.5,-98.37 165.5,-90.12"/>
<polygon fill="none" stroke="#63b8ff" points="162,-115.97 165.5,-125.97 169,-115.97 162,-115.97"/>
</a>
</g>
</g>
<!-- Node3 -->
<g id="Node000003" class="node">
<title>Node3</title>
<g id="a_Node000003"><a xlink:href="../../d5/d8a/classpocketmine_1_1item_1_1_item.html" target="_top" xlink:title=" ">
<polygon fill="white" stroke="transparent" points="151,-755 0,-755 0,-271 151,-271 151,-755"/>
<text text-anchor="start" x="21.5" y="-743" font-family="Helvetica,sans-Serif" font-size="10.00">pocketmine\item\Item</text>
<text text-anchor="start" x="4.5" y="-728" font-family="Helvetica,sans-Serif" font-size="10.00">+</text>
<text text-anchor="start" x="17.5" y="-728" font-family="Helvetica,sans-Serif" font-size="10.00">TAG_BLOCK_ENTITY_TAG</text>
<text text-anchor="start" x="4.5" y="-713" font-family="Helvetica,sans-Serif" font-size="10.00">+</text>
<text text-anchor="start" x="17.5" y="-713" font-family="Helvetica,sans-Serif" font-size="10.00">TAG_DISPLAY</text>
<text text-anchor="start" x="4.5" y="-698" font-family="Helvetica,sans-Serif" font-size="10.00">+</text>
<text text-anchor="start" x="17.5" y="-698" font-family="Helvetica,sans-Serif" font-size="10.00">TAG_DISPLAY_LORE</text>
<text text-anchor="start" x="4.5" y="-683" font-family="Helvetica,sans-Serif" font-size="10.00">+</text>
<text text-anchor="start" x="17.5" y="-683" font-family="Helvetica,sans-Serif" font-size="10.00">TAG_DISPLAY_NAME</text>
<text text-anchor="start" x="4.5" y="-668" font-family="Helvetica,sans-Serif" font-size="10.00">+</text>
<text text-anchor="start" x="17.5" y="-668" font-family="Helvetica,sans-Serif" font-size="10.00">TAG_ENCH</text>
<text text-anchor="start" x="4.5" y="-653" font-family="Helvetica,sans-Serif" font-size="10.00">+</text>
<text text-anchor="start" x="17.5" y="-653" font-family="Helvetica,sans-Serif" font-size="10.00">TAG_KEEP_ON_DEATH</text>
<text text-anchor="start" x="4.5" y="-638" font-family="Helvetica,sans-Serif" font-size="10.00">#</text>
<text text-anchor="start" x="17.5" y="-638" font-family="Helvetica,sans-Serif" font-size="10.00">$blockEntityTag</text>
<text text-anchor="start" x="4.5" y="-623" font-family="Helvetica,sans-Serif" font-size="10.00">#</text>
<text text-anchor="start" x="17.5" y="-623" font-family="Helvetica,sans-Serif" font-size="10.00">$canDestroy</text>
<text text-anchor="start" x="4.5" y="-608" font-family="Helvetica,sans-Serif" font-size="10.00">#</text>
<text text-anchor="start" x="17.5" y="-608" font-family="Helvetica,sans-Serif" font-size="10.00">$canPlaceOn</text>
<text text-anchor="start" x="4.5" y="-593" font-family="Helvetica,sans-Serif" font-size="10.00">#</text>
<text text-anchor="start" x="17.5" y="-593" font-family="Helvetica,sans-Serif" font-size="10.00">$count</text>
<text text-anchor="start" x="4.5" y="-578" font-family="Helvetica,sans-Serif" font-size="10.00">#</text>
<text text-anchor="start" x="17.5" y="-578" font-family="Helvetica,sans-Serif" font-size="10.00">$customName</text>
<text text-anchor="start" x="4.5" y="-563" font-family="Helvetica,sans-Serif" font-size="10.00">#</text>
<text text-anchor="start" x="17.5" y="-563" font-family="Helvetica,sans-Serif" font-size="10.00">$keepOnDeath</text>
<text text-anchor="start" x="4.5" y="-548" font-family="Helvetica,sans-Serif" font-size="10.00">#</text>
<text text-anchor="start" x="17.5" y="-548" font-family="Helvetica,sans-Serif" font-size="10.00">$lore</text>
<text text-anchor="start" x="4.5" y="-533" font-family="Helvetica,sans-Serif" font-size="10.00">+</text>
<text text-anchor="start" x="17.5" y="-533" font-family="Helvetica,sans-Serif" font-size="10.00">__construct()</text>
<text text-anchor="start" x="4.5" y="-518" font-family="Helvetica,sans-Serif" font-size="10.00">+</text>
<text text-anchor="start" x="17.5" y="-518" font-family="Helvetica,sans-Serif" font-size="10.00">__clone()</text>
<text text-anchor="start" x="4.5" y="-503" font-family="Helvetica,sans-Serif" font-size="10.00">+</text>
<text text-anchor="start" x="17.5" y="-503" font-family="Helvetica,sans-Serif" font-size="10.00">__toString()</text>
<text text-anchor="start" x="4.5" y="-488" font-family="Helvetica,sans-Serif" font-size="10.00">+</text>
<text text-anchor="start" x="17.5" y="-488" font-family="Helvetica,sans-Serif" font-size="10.00">canBePlaced()</text>
<text text-anchor="start" x="4.5" y="-473" font-family="Helvetica,sans-Serif" font-size="10.00">+</text>
<text text-anchor="start" x="17.5" y="-473" font-family="Helvetica,sans-Serif" font-size="10.00">canStackWith()</text>
<text text-anchor="start" x="4.5" y="-458" font-family="Helvetica,sans-Serif" font-size="10.00">+</text>
<text text-anchor="start" x="17.5" y="-458" font-family="Helvetica,sans-Serif" font-size="10.00">clearCustomBlockData()</text>
<text text-anchor="start" x="4.5" y="-443" font-family="Helvetica,sans-Serif" font-size="10.00">+</text>
<text text-anchor="start" x="17.5" y="-443" font-family="Helvetica,sans-Serif" font-size="10.00">clearCustomName()</text>
<text text-anchor="start" x="4.5" y="-428" font-family="Helvetica,sans-Serif" font-size="10.00">+</text>
<text text-anchor="start" x="17.5" y="-428" font-family="Helvetica,sans-Serif" font-size="10.00">clearNamedTag()</text>
<text text-anchor="start" x="4.5" y="-413" font-family="Helvetica,sans-Serif" font-size="10.00">+</text>
<text text-anchor="start" x="17.5" y="-413" font-family="Helvetica,sans-Serif" font-size="10.00">equals()</text>
<text text-anchor="start" x="4.5" y="-398" font-family="Helvetica,sans-Serif" font-size="10.00">+</text>
<text text-anchor="start" x="17.5" y="-398" font-family="Helvetica,sans-Serif" font-size="10.00">equalsExact()</text>
<text text-anchor="start" x="17.5" y="-383" font-family="Helvetica,sans-Serif" font-size="10.00">and 49 more...</text>
<text text-anchor="start" x="4.5" y="-368" font-family="Helvetica,sans-Serif" font-size="10.00">+</text>
<text text-anchor="start" x="17.5" y="-368" font-family="Helvetica,sans-Serif" font-size="10.00">legacyJsonDeserialize()</text>
<text text-anchor="start" x="4.5" y="-353" font-family="Helvetica,sans-Serif" font-size="10.00">+</text>
<text text-anchor="start" x="17.5" y="-353" font-family="Helvetica,sans-Serif" font-size="10.00">nbtDeserialize()</text>
<text text-anchor="start" x="4.5" y="-338" font-family="Helvetica,sans-Serif" font-size="10.00">+</text>
<text text-anchor="start" x="17.5" y="-338" font-family="Helvetica,sans-Serif" font-size="10.00">safeNbtDeserialize()</text>
<text text-anchor="start" x="4.5" y="-323" font-family="Helvetica,sans-Serif" font-size="10.00">#</text>
<text text-anchor="start" x="17.5" y="-323" font-family="Helvetica,sans-Serif" font-size="10.00">describeState()</text>
<text text-anchor="start" x="4.5" y="-308" font-family="Helvetica,sans-Serif" font-size="10.00">#</text>
<text text-anchor="start" x="17.5" y="-308" font-family="Helvetica,sans-Serif" font-size="10.00">deserializeCompoundTag()</text>
<text text-anchor="start" x="4.5" y="-293" font-family="Helvetica,sans-Serif" font-size="10.00">#</text>
<text text-anchor="start" x="17.5" y="-293" font-family="Helvetica,sans-Serif" font-size="10.00">serializeCompoundTag()</text>
<text text-anchor="start" x="4.5" y="-278" font-family="Helvetica,sans-Serif" font-size="10.00">#</text>
<text text-anchor="start" x="17.5" y="-278" font-family="Helvetica,sans-Serif" font-size="10.00">tryPlacementTransaction()</text>
<polygon fill="#bfbfbf" stroke="#bfbfbf" points="0.5,-738 0.5,-738 151.5,-738 151.5,-738 0.5,-738"/>
<polygon fill="#bfbfbf" stroke="#bfbfbf" points="0.5,-543 0.5,-543 15.5,-543 15.5,-543 0.5,-543"/>
<polygon fill="#bfbfbf" stroke="#bfbfbf" points="15.5,-543 15.5,-543 151.5,-543 151.5,-543 15.5,-543"/>
<polygon fill="none" stroke="#bfbfbf" points="0,-271 0,-755 151,-755 151,-271 0,-271"/>
</a>
</g>
</g>
<!-- Node3&#45;&gt;Node2 -->
<g id="edge2_Node000002_Node000003" class="edge">
<title>Node3&#45;&gt;Node2</title>
<g id="a_edge2_Node000002_Node000003"><a xlink:title=" ">
<path fill="none" stroke="#63b8ff" d="M143.82,-261.12C146.34,-251.87 148.72,-243.11 150.93,-235.02"/>
<polygon fill="none" stroke="#63b8ff" points="140.4,-260.37 141.14,-270.94 147.15,-262.21 140.4,-260.37"/>
</a>
</g>
</g>
<!-- Node4 -->
<g id="Node000004" class="node">
<title>Node4</title>
<g id="a_Node000004"><a xlink:title=" ">
<polygon fill="white" stroke="transparent" points="119.5,-855 31.5,-855 31.5,-806 119.5,-806 119.5,-855"/>
<text text-anchor="start" x="36.5" y="-842.5" font-family="Helvetica,sans-Serif" font-size="10.00">JsonSerializable</text>
<text text-anchor="start" x="73.5" y="-827.5" font-family="Helvetica,sans-Serif" font-size="10.00"> </text>
<text text-anchor="start" x="73.5" y="-812.5" font-family="Helvetica,sans-Serif" font-size="10.00"> </text>
<polygon fill="#bfbfbf" stroke="#bfbfbf" points="31.5,-837.5 31.5,-837.5 119.5,-837.5 119.5,-837.5 31.5,-837.5"/>
<polygon fill="#bfbfbf" stroke="#bfbfbf" points="31.5,-822.5 31.5,-822.5 119.5,-822.5 119.5,-822.5 31.5,-822.5"/>
<polygon fill="none" stroke="#bfbfbf" points="31.5,-806 31.5,-855 119.5,-855 119.5,-806 31.5,-806"/>
</a>
</g>
</g>
<!-- Node4&#45;&gt;Node3 -->
<g id="edge3_Node000003_Node000004" class="edge">
<title>Node4&#45;&gt;Node3</title>
<g id="a_edge3_Node000003_Node000004"><a xlink:title=" ">
<path fill="none" stroke="#63b8ff" d="M75.5,-795.59C75.5,-784.19 75.5,-770.47 75.5,-755.29"/>
<polygon fill="none" stroke="#63b8ff" points="72,-795.79 75.5,-805.79 79,-795.79 72,-795.79"/>
</a>
</g>
</g>
<!-- Node5 -->
<g id="Node000005" class="node">
<title>Node5</title>
<g id="a_Node000005"><a xlink:href="../../de/d44/interfacepocketmine_1_1item_1_1_food_source_item.html" target="_top" xlink:title=" ">
<polygon fill="white" stroke="transparent" points="344,-537.5 169,-537.5 169,-488.5 344,-488.5 344,-537.5"/>
<text text-anchor="start" x="174.5" y="-525" font-family="Helvetica,sans-Serif" font-size="10.00">pocketmine\item\FoodSourceItem</text>
<text text-anchor="start" x="255" y="-510" font-family="Helvetica,sans-Serif" font-size="10.00"> </text>
<text text-anchor="start" x="255" y="-495" font-family="Helvetica,sans-Serif" font-size="10.00"> </text>
<polygon fill="#bfbfbf" stroke="#bfbfbf" points="169.5,-520 169.5,-520 344.5,-520 344.5,-520 169.5,-520"/>
<polygon fill="#bfbfbf" stroke="#bfbfbf" points="169.5,-505 169.5,-505 344.5,-505 344.5,-505 169.5,-505"/>
<polygon fill="none" stroke="#bfbfbf" points="169,-488.5 169,-537.5 344,-537.5 344,-488.5 169,-488.5"/>
</a>
</g>
</g>
<!-- Node5&#45;&gt;Node2 -->
<g id="edge4_Node000002_Node000005" class="edge">
<title>Node5&#45;&gt;Node2</title>
<g id="a_edge4_Node000002_Node000005"><a xlink:title=" ">
<path fill="none" stroke="#63b8ff" d="M247.28,-478.52C231.5,-421.19 199.17,-303.8 180.23,-235.01"/>
<polygon fill="none" stroke="#63b8ff" points="244,-479.78 250.03,-488.5 250.75,-477.93 244,-479.78"/>
</a>
</g>
</g>
<!-- Node6 -->
<g id="Node000006" class="node">
<title>Node6</title>
<g id="a_Node000006"><a xlink:href="../../d2/de2/interfacepocketmine_1_1item_1_1_consumable_item.html" target="_top" xlink:title=" ">
<polygon fill="white" stroke="transparent" points="331,-855 152,-855 152,-806 331,-806 331,-855"/>
<text text-anchor="start" x="157.5" y="-842.5" font-family="Helvetica,sans-Serif" font-size="10.00">pocketmine\item\ConsumableItem</text>
<text text-anchor="start" x="240" y="-827.5" font-family="Helvetica,sans-Serif" font-size="10.00"> </text>
<text text-anchor="start" x="180" y="-812.5" font-family="Helvetica,sans-Serif" font-size="10.00">+</text>
<text text-anchor="start" x="216.5" y="-812.5" font-family="Helvetica,sans-Serif" font-size="10.00">getResidue()</text>
<polygon fill="#666666" stroke="#666666" points="152.5,-837.5 152.5,-837.5 331.5,-837.5 331.5,-837.5 152.5,-837.5"/>
<polygon fill="#666666" stroke="#666666" points="152.5,-822.5 152.5,-822.5 331.5,-822.5 331.5,-822.5 152.5,-822.5"/>
<polygon fill="none" stroke="#666666" points="152,-806 152,-855 331,-855 331,-806 152,-806"/>
</a>
</g>
</g>
<!-- Node6&#45;&gt;Node5 -->
<g id="edge5_Node000005_Node000006" class="edge">
<title>Node6&#45;&gt;Node5</title>
<g id="a_edge5_Node000005_Node000006"><a xlink:title=" ">
<path fill="none" stroke="#63b8ff" d="M243.1,-795.77C246.16,-731.49 252.75,-592.93 255.38,-537.56"/>
<polygon fill="none" stroke="#63b8ff" points="239.61,-795.63 242.63,-805.79 246.6,-795.96 239.61,-795.63"/>
</a>
</g>
</g>
<!-- Node7 -->
<g id="Node000007" class="node">
<title>Node7</title>
<g id="a_Node000007"><a xlink:href="../../db/d3f/interfacepocketmine_1_1entity_1_1_consumable.html" target="_top" xlink:title=" ">
<polygon fill="white" stroke="transparent" points="504,-970 341,-970 341,-906 504,-906 504,-970"/>
<text text-anchor="start" x="346.5" y="-958" font-family="Helvetica,sans-Serif" font-size="10.00">pocketmine\entity\Consumable</text>
<text text-anchor="start" x="421" y="-943" font-family="Helvetica,sans-Serif" font-size="10.00"> </text>
<text text-anchor="start" x="354.5" y="-928" font-family="Helvetica,sans-Serif" font-size="10.00">+</text>
<text text-anchor="start" x="376.5" y="-928" font-family="Helvetica,sans-Serif" font-size="10.00">getAdditionalEffects()</text>
<text text-anchor="start" x="354.5" y="-913" font-family="Helvetica,sans-Serif" font-size="10.00">+</text>
<text text-anchor="start" x="376.5" y="-913" font-family="Helvetica,sans-Serif" font-size="10.00">onConsume()</text>
<polygon fill="#666666" stroke="#666666" points="341.5,-953 341.5,-953 504.5,-953 504.5,-953 341.5,-953"/>
<polygon fill="#666666" stroke="#666666" points="341.5,-938 341.5,-938 504.5,-938 504.5,-938 341.5,-938"/>
<polygon fill="none" stroke="#666666" points="341,-906 341,-970 504,-970 504,-906 341,-906"/>
</a>
</g>
</g>
<!-- Node7&#45;&gt;Node6 -->
<g id="edge6_Node000006_Node000007" class="edge">
<title>Node7&#45;&gt;Node6</title>
<g id="a_edge6_Node000006_Node000007"><a xlink:title=" ">
<path fill="none" stroke="#63b8ff" d="M360.53,-900.88C334.6,-885.77 305.2,-868.63 282.1,-855.16"/>
<polygon fill="none" stroke="#63b8ff" points="358.77,-903.91 369.17,-905.92 362.3,-897.86 358.77,-903.91"/>
</a>
</g>
</g>
<!-- Node9 -->
<g id="Node000009" class="node">
<title>Node9</title>
<g id="a_Node000009"><a xlink:href="../../df/dfd/interfacepocketmine_1_1entity_1_1_food_source.html" target="_top" xlink:title=" ">
<polygon fill="white" stroke="transparent" points="507.5,-870 349.5,-870 349.5,-791 507.5,-791 507.5,-870"/>
<text text-anchor="start" x="354.5" y="-857.5" font-family="Helvetica,sans-Serif" font-size="10.00">pocketmine\entity\FoodSource</text>
<text text-anchor="start" x="426.5" y="-842.5" font-family="Helvetica,sans-Serif" font-size="10.00"> </text>
<text text-anchor="start" x="359.5" y="-827.5" font-family="Helvetica,sans-Serif" font-size="10.00">+</text>
<text text-anchor="start" x="378.5" y="-827.5" font-family="Helvetica,sans-Serif" font-size="10.00">getFoodRestore()</text>
<text text-anchor="start" x="359.5" y="-812.5" font-family="Helvetica,sans-Serif" font-size="10.00">+</text>
<text text-anchor="start" x="378.5" y="-812.5" font-family="Helvetica,sans-Serif" font-size="10.00">getSaturationRestore()</text>
<text text-anchor="start" x="359.5" y="-797.5" font-family="Helvetica,sans-Serif" font-size="10.00">+</text>
<text text-anchor="start" x="378.5" y="-797.5" font-family="Helvetica,sans-Serif" font-size="10.00">requiresHunger()</text>
<polygon fill="#666666" stroke="#666666" points="349.5,-852.5 349.5,-852.5 507.5,-852.5 507.5,-852.5 349.5,-852.5"/>
<polygon fill="#666666" stroke="#666666" points="349.5,-837.5 349.5,-837.5 507.5,-837.5 507.5,-837.5 349.5,-837.5"/>
<polygon fill="none" stroke="#666666" points="349.5,-791 349.5,-870 507.5,-870 507.5,-791 349.5,-791"/>
</a>
</g>
</g>
<!-- Node7&#45;&gt;Node9 -->
<g id="edge9_Node000009_Node000007" class="edge">
<title>Node7&#45;&gt;Node9</title>
<g id="a_edge9_Node000009_Node000007"><a xlink:title=" ">
<path fill="none" stroke="#63b8ff" d="M424.84,-895.89C425.32,-887.44 425.82,-878.58 426.3,-870.22"/>
<polygon fill="none" stroke="#63b8ff" points="421.34,-895.73 424.27,-905.92 428.33,-896.13 421.34,-895.73"/>
</a>
</g>
</g>
<!-- Node8 -->
<g id="Node000008" class="node">
<title>Node8</title>
<g id="a_Node000008"><a xlink:href="../../d4/d35/interfacepocketmine_1_1item_1_1_releasable.html" target="_top" xlink:title=" ">
<polygon fill="white" stroke="transparent" points="316.5,-962.5 166.5,-962.5 166.5,-913.5 316.5,-913.5 316.5,-962.5"/>
<text text-anchor="start" x="171.5" y="-950" font-family="Helvetica,sans-Serif" font-size="10.00">pocketmine\item\Releasable</text>
<text text-anchor="start" x="239.5" y="-935" font-family="Helvetica,sans-Serif" font-size="10.00"> </text>
<text text-anchor="start" x="178" y="-920" font-family="Helvetica,sans-Serif" font-size="10.00">+</text>
<text text-anchor="start" x="198.5" y="-920" font-family="Helvetica,sans-Serif" font-size="10.00">canStartUsingItem()</text>
<polygon fill="#666666" stroke="#666666" points="166.5,-945 166.5,-945 316.5,-945 316.5,-945 166.5,-945"/>
<polygon fill="#666666" stroke="#666666" points="166.5,-930 166.5,-930 316.5,-930 316.5,-930 166.5,-930"/>
<polygon fill="none" stroke="#666666" points="166.5,-913.5 166.5,-962.5 316.5,-962.5 316.5,-913.5 166.5,-913.5"/>
</a>
</g>
</g>
<!-- Node8&#45;&gt;Node6 -->
<g id="edge7_Node000006_Node000008" class="edge">
<title>Node8&#45;&gt;Node6</title>
<g id="a_edge7_Node000006_Node000008"><a xlink:title=" ">
<path fill="none" stroke="#63b8ff" d="M241.5,-902.99C241.5,-887.35 241.5,-869.2 241.5,-855.1"/>
<polygon fill="none" stroke="#63b8ff" points="238,-903.32 241.5,-913.32 245,-903.32 238,-903.32"/>
</a>
</g>
</g>
<!-- Node9&#45;&gt;Node5 -->
<g id="edge8_Node000005_Node000009" class="edge">
<title>Node9&#45;&gt;Node5</title>
<g id="a_edge8_Node000005_Node000009"><a xlink:title=" ">
<path fill="none" stroke="#63b8ff" d="M402.57,-781.93C365.2,-713.39 297.62,-589.42 269.41,-537.68"/>
<polygon fill="none" stroke="#63b8ff" points="399.55,-783.71 407.41,-790.81 405.7,-780.36 399.55,-783.71"/>
</a>
</g>
</g>
</g>
</svg>
