<?xml version="1.0" encoding="UTF-8" standalone="no"?>
<!DOCTYPE svg PUBLIC "-//W3C//DTD SVG 1.1//EN"
 "http://www.w3.org/Graphics/SVG/1.1/DTD/svg11.dtd">
<!-- Generated by graphviz version 2.43.0 (0)
 -->
<!-- Title: pocketmine\utils\ServerKiller Pages: 1 -->
<svg width="166pt" height="287pt"
 viewBox="0.00 0.00 166.00 287.00" xmlns="http://www.w3.org/2000/svg" xmlns:xlink="http://www.w3.org/1999/xlink">
<g id="graph0" class="graph" transform="scale(1 1) rotate(0) translate(4 283)">
<title>pocketmine\utils\ServerKiller</title>
<polygon fill="white" stroke="transparent" points="-4,4 -4,-283 162,-283 162,4 -4,4"/>
<!-- Node1 -->
<g id="node1" class="node">
<title>Node1</title>
<g id="a_node1"><a xlink:title=" ">
<polygon fill="#bfbfbf" stroke="black" points="0,-0.5 0,-90.5 158,-90.5 158,-0.5 0,-0.5"/>
<text text-anchor="middle" x="79" y="-78.5" font-family="Helvetica,sans-Serif" font-size="10.00">pocketmine\utils\ServerKiller</text>
<polyline fill="none" stroke="black" points="0,-71.5 158,-71.5 "/>
<text text-anchor="middle" x="79" y="-59.5" font-family="Helvetica,sans-Serif" font-size="10.00"> </text>
<polyline fill="none" stroke="black" points="0,-52.5 158,-52.5 "/>
<text text-anchor="start" x="8" y="-40.5" font-family="Helvetica,sans-Serif" font-size="10.00">+ __construct()</text>
<text text-anchor="start" x="8" y="-29.5" font-family="Helvetica,sans-Serif" font-size="10.00">+ getThreadName()</text>
<text text-anchor="start" x="8" y="-18.5" font-family="Helvetica,sans-Serif" font-size="10.00">+ quit()</text>
<text text-anchor="start" x="8" y="-7.5" font-family="Helvetica,sans-Serif" font-size="10.00"># onRun()</text>
</a>
</g>
</g>
<!-- Node2 -->
<g id="node2" class="node">
<title>Node2</title>
<g id="a_node2"><a xlink:href="../../d0/d6e/classpocketmine_1_1thread_1_1_thread.html" target="_top" xlink:title=" ">
<polygon fill="white" stroke="black" points="6.5,-127.5 6.5,-184.5 151.5,-184.5 151.5,-127.5 6.5,-127.5"/>
<text text-anchor="middle" x="79" y="-172.5" font-family="Helvetica,sans-Serif" font-size="10.00">pocketmine\thread\Thread</text>
<polyline fill="none" stroke="black" points="6.5,-165.5 151.5,-165.5 "/>
<text text-anchor="middle" x="79" y="-153.5" font-family="Helvetica,sans-Serif" font-size="10.00"> </text>
<polyline fill="none" stroke="black" points="6.5,-146.5 151.5,-146.5 "/>
<text text-anchor="middle" x="79" y="-134.5" font-family="Helvetica,sans-Serif" font-size="10.00"> </text>
</a>
</g>
</g>
<!-- Node2&#45;&gt;Node1 -->
<g id="edge1" class="edge">
<title>Node2&#45;&gt;Node1</title>
<path fill="none" stroke="midnightblue" d="M79,-117.21C79,-108.61 79,-99.39 79,-90.55"/>
<polygon fill="none" stroke="midnightblue" points="75.5,-117.34 79,-127.34 82.5,-117.34 75.5,-117.34"/>
</g>
<!-- Node3 -->
<g id="node3" class="node">
<title>Node3</title>
<g id="a_node3"><a xlink:title=" ">
<polygon fill="white" stroke="#bfbfbf" points="37.5,-221.5 37.5,-278.5 120.5,-278.5 120.5,-221.5 37.5,-221.5"/>
<text text-anchor="middle" x="79" y="-266.5" font-family="Helvetica,sans-Serif" font-size="10.00">NativeThread</text>
<polyline fill="none" stroke="#bfbfbf" points="37.5,-259.5 120.5,-259.5 "/>
<text text-anchor="middle" x="79" y="-247.5" font-family="Helvetica,sans-Serif" font-size="10.00"> </text>
<polyline fill="none" stroke="#bfbfbf" points="37.5,-240.5 120.5,-240.5 "/>
<text text-anchor="middle" x="79" y="-228.5" font-family="Helvetica,sans-Serif" font-size="10.00"> </text>
</a>
</g>
</g>
<!-- Node3&#45;&gt;Node2 -->
<g id="edge2" class="edge">
<title>Node3&#45;&gt;Node2</title>
<path fill="none" stroke="midnightblue" d="M79,-211.21C79,-202.29 79,-192.95 79,-184.58"/>
<polygon fill="none" stroke="midnightblue" points="75.5,-211.4 79,-221.4 82.5,-211.4 75.5,-211.4"/>
</g>
</g>
</svg>
