<?xml version="1.0" encoding="UTF-8" standalone="no"?>
<!DOCTYPE svg PUBLIC "-//W3C//DTD SVG 1.1//EN"
 "http://www.w3.org/Graphics/SVG/1.1/DTD/svg11.dtd">
<!-- Generated by graphviz version 2.43.0 (0)
 -->
<!-- Title: pocketmine\world\format\io\region\RegionWorldProvider Pages: 1 -->
<!--zoomable 662 -->
<svg id="main" version="1.1" xmlns="http://www.w3.org/2000/svg" xmlns:xlink="http://www.w3.org/1999/xlink" xml:space="preserve" onload="init(evt)">
<style type="text/css"><![CDATA[
.edge:hover path { stroke: red; }
.edge:hover polygon { stroke: red; fill: red; }
]]></style>
<script type="text/javascript"><![CDATA[
var edges = document.getElementsByTagName('g');
if (edges && edges.length) {
  for (var i=0;i<edges.length;i++) {
    if (edges[i].id.substr(0,4)=='edge') {
      edges[i].setAttribute('class','edge');
    }
  }
}
]]></script>
        <defs>
                <circle id="rim" cx="0" cy="0" r="7"/>
                <circle id="rim2" cx="0" cy="0" r="3.5"/>
                <g id="zoomPlus">
                        <use xlink:href="#rim" fill="#404040">
                                <set attributeName="fill" to="#808080" begin="zoomplus.mouseover" end="zoomplus.mouseout"/>
                        </use>
                        <path d="M-4,0h8M0,-4v8" fill="none" stroke="white" stroke-width="1.5" pointer-events="none"/>
                </g>
                <g id="zoomMin">
                        <use xlink:href="#rim" fill="#404040">
                                <set attributeName="fill" to="#808080" begin="zoomminus.mouseover" end="zoomminus.mouseout"/>
                        </use>
                        <path d="M-4,0h8" fill="none" stroke="white" stroke-width="1.5" pointer-events="none"/>
                </g>
                <g id="dirArrow">
                        <path fill="none" stroke="white" stroke-width="1.5" d="M0,-3.0v7 M-2.5,-0.5L0,-3.0L2.5,-0.5"/>
                </g>
               <g id="resetDef">
                       <use xlink:href="#rim2" fill="#404040">
                               <set attributeName="fill" to="#808080" begin="reset.mouseover" end="reset.mouseout"/>
                       </use>
               </g>
        </defs>

<script type="text/javascript">
var viewWidth = 855;
var viewHeight = 662;
var sectionId = 'dynsection-1';
</script>
<script xlink:href="../../svgpan.js"/>
<svg id="graph" class="graph">
<g id="viewport">
<title>pocketmine\world\format\io\region\RegionWorldProvider</title>
<polygon fill="white" stroke="transparent" points="-4,4 -4,-658 850.5,-658 850.5,4 -4,4"/>
<!-- Node1 -->
<g id="node1" class="node">
<title>Node1</title>
<g id="a_node1"><a xlink:title=" ">
<polygon fill="#bfbfbf" stroke="black" points="312.5,-0.5 312.5,-244.5 479.5,-244.5 479.5,-0.5 312.5,-0.5"/>
<text text-anchor="start" x="320.5" y="-232.5" font-family="Helvetica,sans-Serif" font-size="10.00">pocketmine\world\format</text>
<text text-anchor="middle" x="396" y="-221.5" font-family="Helvetica,sans-Serif" font-size="10.00">\io\region\RegionWorldProvider</text>
<polyline fill="none" stroke="black" points="312.5,-214.5 479.5,-214.5 "/>
<text text-anchor="start" x="320.5" y="-202.5" font-family="Helvetica,sans-Serif" font-size="10.00"># $regions</text>
<polyline fill="none" stroke="black" points="312.5,-195.5 479.5,-195.5 "/>
<text text-anchor="start" x="320.5" y="-183.5" font-family="Helvetica,sans-Serif" font-size="10.00">+ calculateChunkCount()</text>
<text text-anchor="start" x="320.5" y="-172.5" font-family="Helvetica,sans-Serif" font-size="10.00">+ close()</text>
<text text-anchor="start" x="320.5" y="-161.5" font-family="Helvetica,sans-Serif" font-size="10.00">+ doGarbageCollection()</text>
<text text-anchor="start" x="320.5" y="-150.5" font-family="Helvetica,sans-Serif" font-size="10.00">+ getAllChunks()</text>
<text text-anchor="start" x="320.5" y="-139.5" font-family="Helvetica,sans-Serif" font-size="10.00">+ loadChunk()</text>
<text text-anchor="start" x="320.5" y="-128.5" font-family="Helvetica,sans-Serif" font-size="10.00">+ getRegionIndex()</text>
<text text-anchor="start" x="320.5" y="-117.5" font-family="Helvetica,sans-Serif" font-size="10.00">+ isValid()</text>
<text text-anchor="start" x="320.5" y="-106.5" font-family="Helvetica,sans-Serif" font-size="10.00"># deserializeChunk()</text>
<text text-anchor="start" x="320.5" y="-95.5" font-family="Helvetica,sans-Serif" font-size="10.00"># getRegion()</text>
<text text-anchor="start" x="320.5" y="-84.5" font-family="Helvetica,sans-Serif" font-size="10.00"># loadLevelData()</text>
<text text-anchor="start" x="320.5" y="-73.5" font-family="Helvetica,sans-Serif" font-size="10.00"># loadRegion()</text>
<text text-anchor="start" x="320.5" y="-62.5" font-family="Helvetica,sans-Serif" font-size="10.00"># pathToRegion()</text>
<text text-anchor="start" x="320.5" y="-51.5" font-family="Helvetica,sans-Serif" font-size="10.00"># unloadRegion()</text>
<text text-anchor="start" x="320.5" y="-40.5" font-family="Helvetica,sans-Serif" font-size="10.00"># getCompoundList()</text>
<text text-anchor="start" x="320.5" y="-29.5" font-family="Helvetica,sans-Serif" font-size="10.00"># getPcWorldFormatVersion()</text>
<text text-anchor="start" x="320.5" y="-18.5" font-family="Helvetica,sans-Serif" font-size="10.00"># getRegionFileExtension()</text>
<text text-anchor="start" x="320.5" y="-7.5" font-family="Helvetica,sans-Serif" font-size="10.00"># readFixedSizeByteArray()</text>
</a>
</g>
</g>
<!-- Node2 -->
<g id="node2" class="node">
<title>Node2</title>
<g id="a_node2"><a xlink:href="../../d6/dfa/classpocketmine_1_1world_1_1format_1_1io_1_1_base_world_provider.html" target="_top" xlink:title=" ">
<polygon fill="white" stroke="#bfbfbf" points="305.5,-282.5 305.5,-427.5 486.5,-427.5 486.5,-282.5 305.5,-282.5"/>
<text text-anchor="start" x="313.5" y="-415.5" font-family="Helvetica,sans-Serif" font-size="10.00">pocketmine\world\format</text>
<text text-anchor="middle" x="396" y="-404.5" font-family="Helvetica,sans-Serif" font-size="10.00">\io\BaseWorldProvider</text>
<polyline fill="none" stroke="#bfbfbf" points="305.5,-397.5 486.5,-397.5 "/>
<text text-anchor="middle" x="396" y="-385.5" font-family="Helvetica,sans-Serif" font-size="10.00"> </text>
<polyline fill="none" stroke="#bfbfbf" points="305.5,-378.5 486.5,-378.5 "/>
<text text-anchor="start" x="313.5" y="-366.5" font-family="Helvetica,sans-Serif" font-size="10.00">+ __construct()</text>
<text text-anchor="start" x="313.5" y="-355.5" font-family="Helvetica,sans-Serif" font-size="10.00">+ getPath()</text>
<text text-anchor="start" x="313.5" y="-344.5" font-family="Helvetica,sans-Serif" font-size="10.00">+ getWorldData()</text>
<text text-anchor="start" x="313.5" y="-333.5" font-family="Helvetica,sans-Serif" font-size="10.00"># loadLevelData()</text>
<text text-anchor="start" x="313.5" y="-322.5" font-family="Helvetica,sans-Serif" font-size="10.00"># palettizeLegacySubChunkFrom</text>
<text text-anchor="start" x="313.5" y="-311.5" font-family="Helvetica,sans-Serif" font-size="10.00">Column()</text>
<text text-anchor="start" x="313.5" y="-300.5" font-family="Helvetica,sans-Serif" font-size="10.00"># palettizeLegacySubChunkXZY()</text>
<text text-anchor="start" x="313.5" y="-289.5" font-family="Helvetica,sans-Serif" font-size="10.00"># palettizeLegacySubChunkYZX()</text>
</a>
</g>
</g>
<!-- Node2&#45;&gt;Node1 -->
<g id="edge1" class="edge">
<title>Node2&#45;&gt;Node1</title>
<path fill="none" stroke="midnightblue" d="M396,-272.31C396,-263.32 396,-254.02 396,-244.67"/>
<polygon fill="none" stroke="midnightblue" points="392.5,-272.33 396,-282.33 399.5,-272.33 392.5,-272.33"/>
</g>
<!-- Node3 -->
<g id="node3" class="node">
<title>Node3</title>
<g id="a_node3"><a xlink:href="../../d8/d94/interfacepocketmine_1_1world_1_1format_1_1io_1_1_world_provider.html" target="_top" xlink:title=" ">
<polygon fill="white" stroke="#bfbfbf" points="0,-486.5 0,-642.5 140,-642.5 140,-486.5 0,-486.5"/>
<text text-anchor="start" x="8" y="-630.5" font-family="Helvetica,sans-Serif" font-size="10.00">pocketmine\world\format</text>
<text text-anchor="middle" x="70" y="-619.5" font-family="Helvetica,sans-Serif" font-size="10.00">\io\WorldProvider</text>
<polyline fill="none" stroke="#bfbfbf" points="0,-612.5 140,-612.5 "/>
<text text-anchor="middle" x="70" y="-600.5" font-family="Helvetica,sans-Serif" font-size="10.00"> </text>
<polyline fill="none" stroke="#bfbfbf" points="0,-593.5 140,-593.5 "/>
<text text-anchor="start" x="8" y="-581.5" font-family="Helvetica,sans-Serif" font-size="10.00">+ calculateChunkCount()</text>
<text text-anchor="start" x="8" y="-570.5" font-family="Helvetica,sans-Serif" font-size="10.00">+ close()</text>
<text text-anchor="start" x="8" y="-559.5" font-family="Helvetica,sans-Serif" font-size="10.00">+ doGarbageCollection()</text>
<text text-anchor="start" x="8" y="-548.5" font-family="Helvetica,sans-Serif" font-size="10.00">+ getAllChunks()</text>
<text text-anchor="start" x="8" y="-537.5" font-family="Helvetica,sans-Serif" font-size="10.00">+ getPath()</text>
<text text-anchor="start" x="8" y="-526.5" font-family="Helvetica,sans-Serif" font-size="10.00">+ getWorldData()</text>
<text text-anchor="start" x="8" y="-515.5" font-family="Helvetica,sans-Serif" font-size="10.00">+ getWorldMaxY()</text>
<text text-anchor="start" x="8" y="-504.5" font-family="Helvetica,sans-Serif" font-size="10.00">+ getWorldMinY()</text>
<text text-anchor="start" x="8" y="-493.5" font-family="Helvetica,sans-Serif" font-size="10.00">+ loadChunk()</text>
</a>
</g>
</g>
<!-- Node3&#45;&gt;Node2 -->
<g id="edge2" class="edge">
<title>Node3&#45;&gt;Node2</title>
<path fill="none" stroke="midnightblue" d="M143.42,-479.37C145.27,-477.87 147.13,-476.41 149,-475 196.53,-439.21 256.53,-409.99 305.5,-389.47"/>
<polygon fill="none" stroke="midnightblue" points="140.75,-477.05 135.41,-486.2 145.29,-482.37 140.75,-477.05"/>
</g>
<!-- Node4 -->
<g id="node4" class="node">
<title>Node4</title>
<g id="a_node4"><a xlink:href="../../d7/d4e/interfacepocketmine_1_1world_1_1format_1_1io_1_1_world_data.html" target="_top" xlink:title=" ">
<polygon fill="white" stroke="#bfbfbf" points="158,-475.5 158,-653.5 298,-653.5 298,-475.5 158,-475.5"/>
<text text-anchor="start" x="166" y="-641.5" font-family="Helvetica,sans-Serif" font-size="10.00">pocketmine\world\format</text>
<text text-anchor="middle" x="228" y="-630.5" font-family="Helvetica,sans-Serif" font-size="10.00">\io\WorldData</text>
<polyline fill="none" stroke="#bfbfbf" points="158,-623.5 298,-623.5 "/>
<text text-anchor="middle" x="228" y="-611.5" font-family="Helvetica,sans-Serif" font-size="10.00"> </text>
<polyline fill="none" stroke="#bfbfbf" points="158,-604.5 298,-604.5 "/>
<text text-anchor="start" x="166" y="-592.5" font-family="Helvetica,sans-Serif" font-size="10.00">+ getDifficulty()</text>
<text text-anchor="start" x="166" y="-581.5" font-family="Helvetica,sans-Serif" font-size="10.00">+ getGenerator()</text>
<text text-anchor="start" x="166" y="-570.5" font-family="Helvetica,sans-Serif" font-size="10.00">+ getGeneratorOptions()</text>
<text text-anchor="start" x="166" y="-559.5" font-family="Helvetica,sans-Serif" font-size="10.00">+ getLightningLevel()</text>
<text text-anchor="start" x="166" y="-548.5" font-family="Helvetica,sans-Serif" font-size="10.00">+ getLightningTime()</text>
<text text-anchor="start" x="166" y="-537.5" font-family="Helvetica,sans-Serif" font-size="10.00">+ getName()</text>
<text text-anchor="start" x="166" y="-526.5" font-family="Helvetica,sans-Serif" font-size="10.00">+ getRainLevel()</text>
<text text-anchor="start" x="166" y="-515.5" font-family="Helvetica,sans-Serif" font-size="10.00">+ getRainTime()</text>
<text text-anchor="start" x="166" y="-504.5" font-family="Helvetica,sans-Serif" font-size="10.00">+ getSeed()</text>
<text text-anchor="start" x="166" y="-493.5" font-family="Helvetica,sans-Serif" font-size="10.00">+ getSpawn()</text>
<text text-anchor="start" x="166" y="-482.5" font-family="Helvetica,sans-Serif" font-size="10.00">and 10 more...</text>
</a>
</g>
</g>
<!-- Node4&#45;&gt;Node2 -->
<g id="edge3" class="edge">
<title>Node4&#45;&gt;Node2</title>
<path fill="none" stroke="#404040" d="M298.03,-477C308.75,-463.76 319.79,-450.13 330.41,-437.01"/>
<polygon fill="none" stroke="#404040" points="330.51,-436.89 331.18,-429.71 338.06,-427.56 337.39,-434.74 330.51,-436.89"/>
<text text-anchor="middle" x="357" y="-449" font-family="Helvetica,sans-Serif" font-size="10.00"> #$worldData</text>
</g>
<!-- Node5 -->
<g id="node5" class="node">
<title>Node5</title>
<g id="a_node5"><a xlink:href="../../dd/d67/interfacepocketmine_1_1data_1_1bedrock_1_1block_1_1_block_state_deserializer.html" target="_top" xlink:title=" ">
<polygon fill="white" stroke="black" points="316,-530.5 316,-598.5 476,-598.5 476,-530.5 316,-530.5"/>
<text text-anchor="start" x="324" y="-586.5" font-family="Helvetica,sans-Serif" font-size="10.00">pocketmine\data\bedrock</text>
<text text-anchor="middle" x="396" y="-575.5" font-family="Helvetica,sans-Serif" font-size="10.00">\block\BlockStateDeserializer</text>
<polyline fill="none" stroke="black" points="316,-568.5 476,-568.5 "/>
<text text-anchor="middle" x="396" y="-556.5" font-family="Helvetica,sans-Serif" font-size="10.00"> </text>
<polyline fill="none" stroke="black" points="316,-549.5 476,-549.5 "/>
<text text-anchor="start" x="324" y="-537.5" font-family="Helvetica,sans-Serif" font-size="10.00">+ deserialize()</text>
</a>
</g>
</g>
<!-- Node5&#45;&gt;Node2 -->
<g id="edge4" class="edge">
<title>Node5&#45;&gt;Node2</title>
<path fill="none" stroke="#404040" d="M396,-530.16C396,-505.68 396,-471.29 396,-439.54"/>
<polygon fill="none" stroke="#404040" points="396,-439.52 392,-433.52 396,-427.52 400,-433.52 396,-439.52"/>
<text text-anchor="middle" x="460" y="-449" font-family="Helvetica,sans-Serif" font-size="10.00"> #$blockStateDeserializer</text>
</g>
<!-- Node6 -->
<g id="node6" class="node">
<title>Node6</title>
<g id="a_node6"><a xlink:href="../../d2/dcf/classpocketmine_1_1data_1_1bedrock_1_1block_1_1upgrade_1_1_block_data_upgrader.html" target="_top" xlink:title=" ">
<polygon fill="white" stroke="#bfbfbf" points="494.5,-503 494.5,-626 681.5,-626 681.5,-503 494.5,-503"/>
<text text-anchor="start" x="502.5" y="-614" font-family="Helvetica,sans-Serif" font-size="10.00">pocketmine\data\bedrock</text>
<text text-anchor="middle" x="588" y="-603" font-family="Helvetica,sans-Serif" font-size="10.00">\block\upgrade\BlockDataUpgrader</text>
<polyline fill="none" stroke="#bfbfbf" points="494.5,-596 681.5,-596 "/>
<text text-anchor="middle" x="588" y="-584" font-family="Helvetica,sans-Serif" font-size="10.00"> </text>
<polyline fill="none" stroke="#bfbfbf" points="494.5,-577 681.5,-577 "/>
<text text-anchor="start" x="502.5" y="-565" font-family="Helvetica,sans-Serif" font-size="10.00">+ __construct()</text>
<text text-anchor="start" x="502.5" y="-554" font-family="Helvetica,sans-Serif" font-size="10.00">+ getBlockIdMetaUpgrader()</text>
<text text-anchor="start" x="502.5" y="-543" font-family="Helvetica,sans-Serif" font-size="10.00">+ getBlockStateUpgrader()</text>
<text text-anchor="start" x="502.5" y="-532" font-family="Helvetica,sans-Serif" font-size="10.00">+ upgradeBlockStateNbt()</text>
<text text-anchor="start" x="502.5" y="-521" font-family="Helvetica,sans-Serif" font-size="10.00">+ upgradeIntIdMeta()</text>
<text text-anchor="start" x="502.5" y="-510" font-family="Helvetica,sans-Serif" font-size="10.00">+ upgradeStringIdMeta()</text>
</a>
</g>
</g>
<!-- Node6&#45;&gt;Node2 -->
<g id="edge5" class="edge">
<title>Node6&#45;&gt;Node2</title>
<path fill="none" stroke="#404040" d="M564.17,-502.81C554.73,-483.36 542.61,-462.58 528,-446 518.62,-435.35 507.71,-425.36 496.27,-416.2"/>
<polygon fill="none" stroke="#404040" points="496.05,-416.03 488.85,-415.53 486.55,-408.69 493.74,-409.19 496.05,-416.03"/>
<text text-anchor="middle" x="590" y="-449" font-family="Helvetica,sans-Serif" font-size="10.00"> #$blockDataUpgrader</text>
</g>
<!-- Node7 -->
<g id="node7" class="node">
<title>Node7</title>
<g id="a_node7"><a xlink:href="../../db/dc6/interfacepocketmine_1_1data_1_1bedrock_1_1block_1_1_block_state_serializer.html" target="_top" xlink:title=" ">
<polygon fill="white" stroke="black" points="699.5,-530.5 699.5,-598.5 846.5,-598.5 846.5,-530.5 699.5,-530.5"/>
<text text-anchor="start" x="707.5" y="-586.5" font-family="Helvetica,sans-Serif" font-size="10.00">pocketmine\data\bedrock</text>
<text text-anchor="middle" x="773" y="-575.5" font-family="Helvetica,sans-Serif" font-size="10.00">\block\BlockStateSerializer</text>
<polyline fill="none" stroke="black" points="699.5,-568.5 846.5,-568.5 "/>
<text text-anchor="middle" x="773" y="-556.5" font-family="Helvetica,sans-Serif" font-size="10.00"> </text>
<polyline fill="none" stroke="black" points="699.5,-549.5 846.5,-549.5 "/>
<text text-anchor="start" x="707.5" y="-537.5" font-family="Helvetica,sans-Serif" font-size="10.00">+ serialize()</text>
</a>
</g>
</g>
<!-- Node7&#45;&gt;Node2 -->
<g id="edge6" class="edge">
<title>Node7&#45;&gt;Node2</title>
<path fill="none" stroke="#404040" d="M745.29,-530.41C730.06,-513.07 710.38,-491.98 691,-475 636.27,-427.04 559.74,-396.93 498.34,-378.99"/>
<polygon fill="none" stroke="#404040" points="498.21,-378.96 491.34,-381.17 486.66,-375.68 493.53,-373.47 498.21,-378.96"/>
<text text-anchor="middle" x="721.5" y="-449" font-family="Helvetica,sans-Serif" font-size="10.00"> #$blockStateSerializer</text>
</g>
</g>
</svg>
        <g id="navigator" transform="translate(0 0)" fill="#404254">
                <rect fill="#f2f5e9" fill-opacity="0.5" stroke="#606060" stroke-width=".5" x="0" y="0" width="60" height="60"/>
                <use id="zoomplus" xlink:href="#zoomPlus" x="17" y="9" onmousedown="handleZoom(evt,'in')"/>
                <use id="zoomminus" xlink:href="#zoomMin" x="42" y="9" onmousedown="handleZoom(evt,'out')"/>
                <use id="reset" xlink:href="#resetDef" x="30" y="36" onmousedown="handleReset()"/>
                <g id="arrowUp" xlink:href="#dirArrow" transform="translate(30 24)" onmousedown="handlePan(0,-1)">
                  <use xlink:href="#rim" fill="#404040">
                        <set attributeName="fill" to="#808080" begin="arrowUp.mouseover" end="arrowUp.mouseout"/>
                  </use>
                  <path fill="none" stroke="white" stroke-width="1.5" d="M0,-3.0v7 M-2.5,-0.5L0,-3.0L2.5,-0.5"/>
                </g>
                <g id="arrowRight" xlink:href="#dirArrow" transform="rotate(90) translate(36 -43)" onmousedown="handlePan(1,0)">
                  <use xlink:href="#rim" fill="#404040">
                        <set attributeName="fill" to="#808080" begin="arrowRight.mouseover" end="arrowRight.mouseout"/>
                  </use>
                  <path fill="none" stroke="white" stroke-width="1.5" d="M0,-3.0v7 M-2.5,-0.5L0,-3.0L2.5,-0.5"/>
                </g>
                <g id="arrowDown" xlink:href="#dirArrow" transform="rotate(180) translate(-30 -48)" onmousedown="handlePan(0,1)">
                  <use xlink:href="#rim" fill="#404040">
                        <set attributeName="fill" to="#808080" begin="arrowDown.mouseover" end="arrowDown.mouseout"/>
                  </use>
                  <path fill="none" stroke="white" stroke-width="1.5" d="M0,-3.0v7 M-2.5,-0.5L0,-3.0L2.5,-0.5"/>
                </g>
                <g id="arrowLeft" xlink:href="#dirArrow" transform="rotate(270) translate(-36 17)" onmousedown="handlePan(-1,0)">
                  <use xlink:href="#rim" fill="#404040">
                        <set attributeName="fill" to="#808080" begin="arrowLeft.mouseover" end="arrowLeft.mouseout"/>
                  </use>
                  <path fill="none" stroke="white" stroke-width="1.5" d="M0,-3.0v7 M-2.5,-0.5L0,-3.0L2.5,-0.5"/>
                </g>
        </g>
        <svg viewBox="0 0 15 15" width="100%" height="30px" preserveAspectRatio="xMaxYMin meet">
         <g id="arrow_out" transform="scale(0.3 0.3)">
          <a xlink:href="classpocketmine_1_1world_1_1format_1_1io_1_1region_1_1_region_world_provider__coll__graph_org.svg" target="_base">
           <rect id="button" ry="5" rx="5" y="6" x="6" height="38" width="38"
                fill="#f2f5e9" fill-opacity="0.5" stroke="#606060" stroke-width="1.0"/>
           <path id="arrow"
             d="M 11.500037,31.436501 C 11.940474,20.09759 22.043105,11.32322 32.158766,21.979434 L 37.068811,17.246167 C 37.068811,17.246167 37.088388,32 37.088388,32 L 22.160133,31.978069 C 22.160133,31.978069 26.997745,27.140456 26.997745,27.140456 C 18.528582,18.264221 13.291696,25.230495 11.500037,31.436501 z"
             style="fill:#404040;"/>
          </a>
         </g>
        </svg>
</svg>
