<?xml version="1.0" encoding="UTF-8" standalone="no"?>
<!DOCTYPE svg PUBLIC "-//W3C//DTD SVG 1.1//EN"
 "http://www.w3.org/Graphics/SVG/1.1/DTD/svg11.dtd">
<!-- Generated by graphviz version 2.43.0 (0)
 -->
<!-- Title: pocketmine\data\bedrock\LegacyToStringBidirectionalIdMap Pages: 1 -->
<svg width="702pt" height="226pt"
 viewBox="0.00 0.00 701.50 226.00" xmlns="http://www.w3.org/2000/svg" xmlns:xlink="http://www.w3.org/1999/xlink">
<g id="graph0" class="graph" transform="scale(1 1) rotate(0) translate(4 222)">
<title>pocketmine\data\bedrock\LegacyToStringBidirectionalIdMap</title>
<polygon fill="white" stroke="transparent" points="-4,4 -4,-222 697.5,-222 697.5,4 -4,4"/>
<!-- Node1 -->
<g id="node1" class="node">
<title>Node1</title>
<g id="a_node1"><a xlink:title=" ">
<polygon fill="#bfbfbf" stroke="black" points="258.5,-105.5 258.5,-217.5 443.5,-217.5 443.5,-105.5 258.5,-105.5"/>
<text text-anchor="start" x="266.5" y="-205.5" font-family="Helvetica,sans-Serif" font-size="10.00">pocketmine\data\bedrock</text>
<text text-anchor="middle" x="351" y="-194.5" font-family="Helvetica,sans-Serif" font-size="10.00">\LegacyToStringBidirectionalIdMap</text>
<polyline fill="none" stroke="black" points="258.5,-187.5 443.5,-187.5 "/>
<text text-anchor="middle" x="351" y="-175.5" font-family="Helvetica,sans-Serif" font-size="10.00"> </text>
<polyline fill="none" stroke="black" points="258.5,-168.5 443.5,-168.5 "/>
<text text-anchor="start" x="266.5" y="-156.5" font-family="Helvetica,sans-Serif" font-size="10.00">+ __construct()</text>
<text text-anchor="start" x="266.5" y="-145.5" font-family="Helvetica,sans-Serif" font-size="10.00">+ getLegacyToStringMap()</text>
<text text-anchor="start" x="266.5" y="-134.5" font-family="Helvetica,sans-Serif" font-size="10.00">+ getStringToLegacyMap()</text>
<text text-anchor="start" x="266.5" y="-123.5" font-family="Helvetica,sans-Serif" font-size="10.00">+ legacyToString()</text>
<text text-anchor="start" x="266.5" y="-112.5" font-family="Helvetica,sans-Serif" font-size="10.00">+ stringToLegacy()</text>
</a>
</g>
</g>
<!-- Node2 -->
<g id="node2" class="node">
<title>Node2</title>
<g id="a_node2"><a xlink:href="../../d2/d33/classpocketmine_1_1data_1_1bedrock_1_1_legacy_biome_id_to_string_id_map.html" target="_top" xlink:title=" ">
<polygon fill="white" stroke="#bfbfbf" points="0,-0.5 0,-68.5 164,-68.5 164,-0.5 0,-0.5"/>
<text text-anchor="start" x="8" y="-56.5" font-family="Helvetica,sans-Serif" font-size="10.00">pocketmine\data\bedrock</text>
<text text-anchor="middle" x="82" y="-45.5" font-family="Helvetica,sans-Serif" font-size="10.00">\LegacyBiomeIdToStringIdMap</text>
<polyline fill="none" stroke="#bfbfbf" points="0,-38.5 164,-38.5 "/>
<text text-anchor="middle" x="82" y="-26.5" font-family="Helvetica,sans-Serif" font-size="10.00"> </text>
<polyline fill="none" stroke="#bfbfbf" points="0,-19.5 164,-19.5 "/>
<text text-anchor="start" x="8" y="-7.5" font-family="Helvetica,sans-Serif" font-size="10.00">+ __construct()</text>
</a>
</g>
</g>
<!-- Node1&#45;&gt;Node2 -->
<g id="edge1" class="edge">
<title>Node1&#45;&gt;Node2</title>
<path fill="none" stroke="midnightblue" d="M249.04,-113.12C217.04,-98.25 182.44,-82.17 153.07,-68.52"/>
<polygon fill="none" stroke="midnightblue" points="247.88,-116.44 258.43,-117.48 250.83,-110.09 247.88,-116.44"/>
</g>
<!-- Node3 -->
<g id="node3" class="node">
<title>Node3</title>
<g id="a_node3"><a xlink:href="../../de/db4/classpocketmine_1_1data_1_1bedrock_1_1_legacy_block_id_to_string_id_map.html" target="_top" xlink:title=" ">
<polygon fill="white" stroke="#bfbfbf" points="182.5,-0.5 182.5,-68.5 341.5,-68.5 341.5,-0.5 182.5,-0.5"/>
<text text-anchor="start" x="190.5" y="-56.5" font-family="Helvetica,sans-Serif" font-size="10.00">pocketmine\data\bedrock</text>
<text text-anchor="middle" x="262" y="-45.5" font-family="Helvetica,sans-Serif" font-size="10.00">\LegacyBlockIdToStringIdMap</text>
<polyline fill="none" stroke="#bfbfbf" points="182.5,-38.5 341.5,-38.5 "/>
<text text-anchor="middle" x="262" y="-26.5" font-family="Helvetica,sans-Serif" font-size="10.00"> </text>
<polyline fill="none" stroke="#bfbfbf" points="182.5,-19.5 341.5,-19.5 "/>
<text text-anchor="start" x="190.5" y="-7.5" font-family="Helvetica,sans-Serif" font-size="10.00">+ __construct()</text>
</a>
</g>
</g>
<!-- Node1&#45;&gt;Node3 -->
<g id="edge2" class="edge">
<title>Node1&#45;&gt;Node3</title>
<path fill="none" stroke="midnightblue" d="M305.81,-97.03C298.78,-87.16 291.78,-77.33 285.5,-68.51"/>
<polygon fill="none" stroke="midnightblue" points="303.05,-99.19 311.7,-105.31 308.76,-95.13 303.05,-99.19"/>
</g>
<!-- Node4 -->
<g id="node4" class="node">
<title>Node4</title>
<g id="a_node4"><a xlink:href="../../d4/d9b/classpocketmine_1_1data_1_1bedrock_1_1_legacy_entity_id_to_string_id_map.html" target="_top" xlink:title=" ">
<polygon fill="white" stroke="#bfbfbf" points="359.5,-0.5 359.5,-68.5 520.5,-68.5 520.5,-0.5 359.5,-0.5"/>
<text text-anchor="start" x="367.5" y="-56.5" font-family="Helvetica,sans-Serif" font-size="10.00">pocketmine\data\bedrock</text>
<text text-anchor="middle" x="440" y="-45.5" font-family="Helvetica,sans-Serif" font-size="10.00">\LegacyEntityIdToStringIdMap</text>
<polyline fill="none" stroke="#bfbfbf" points="359.5,-38.5 520.5,-38.5 "/>
<text text-anchor="middle" x="440" y="-26.5" font-family="Helvetica,sans-Serif" font-size="10.00"> </text>
<polyline fill="none" stroke="#bfbfbf" points="359.5,-19.5 520.5,-19.5 "/>
<text text-anchor="start" x="367.5" y="-7.5" font-family="Helvetica,sans-Serif" font-size="10.00">+ __construct()</text>
</a>
</g>
</g>
<!-- Node1&#45;&gt;Node4 -->
<g id="edge3" class="edge">
<title>Node1&#45;&gt;Node4</title>
<path fill="none" stroke="midnightblue" d="M396.19,-97.03C403.22,-87.16 410.22,-77.33 416.5,-68.51"/>
<polygon fill="none" stroke="midnightblue" points="393.24,-95.13 390.3,-105.31 398.95,-99.19 393.24,-95.13"/>
</g>
<!-- Node5 -->
<g id="node5" class="node">
<title>Node5</title>
<g id="a_node5"><a xlink:href="../../d7/d1a/classpocketmine_1_1data_1_1bedrock_1_1_legacy_item_id_to_string_id_map.html" target="_top" xlink:title=" ">
<polygon fill="white" stroke="#bfbfbf" points="538.5,-0.5 538.5,-68.5 693.5,-68.5 693.5,-0.5 538.5,-0.5"/>
<text text-anchor="start" x="546.5" y="-56.5" font-family="Helvetica,sans-Serif" font-size="10.00">pocketmine\data\bedrock</text>
<text text-anchor="middle" x="616" y="-45.5" font-family="Helvetica,sans-Serif" font-size="10.00">\LegacyItemIdToStringIdMap</text>
<polyline fill="none" stroke="#bfbfbf" points="538.5,-38.5 693.5,-38.5 "/>
<text text-anchor="middle" x="616" y="-26.5" font-family="Helvetica,sans-Serif" font-size="10.00"> </text>
<polyline fill="none" stroke="#bfbfbf" points="538.5,-19.5 693.5,-19.5 "/>
<text text-anchor="start" x="546.5" y="-7.5" font-family="Helvetica,sans-Serif" font-size="10.00">+ __construct()</text>
</a>
</g>
</g>
<!-- Node1&#45;&gt;Node5 -->
<g id="edge4" class="edge">
<title>Node1&#45;&gt;Node5</title>
<path fill="none" stroke="midnightblue" d="M452.82,-112.47C483.93,-97.8 517.42,-82 545.92,-68.55"/>
<polygon fill="none" stroke="midnightblue" points="451.24,-109.35 443.68,-116.78 454.22,-115.68 451.24,-109.35"/>
</g>
</g>
</svg>
