<?xml version="1.0" encoding="UTF-8" standalone="no"?>
<!DOCTYPE svg PUBLIC "-//W3C//DTD SVG 1.1//EN"
 "http://www.w3.org/Graphics/SVG/1.1/DTD/svg11.dtd">
<!-- Generated by graphviz version 2.43.0 (0)
 -->
<!-- Title: pocketmine\world\sound\ArmorEquipDiamondSound Pages: 1 -->
<svg width="153pt" height="164pt"
 viewBox="0.00 0.00 153.00 164.00" xmlns="http://www.w3.org/2000/svg" xmlns:xlink="http://www.w3.org/1999/xlink">

<svg id="main" version="1.1" xmlns="http://www.w3.org/2000/svg" xmlns:xlink="http://www.w3.org/1999/xlink" xml:space="preserve">

<style type="text/css"><![CDATA[
.node, .edge {opacity: 0.7;}
.node.selected, .edge.selected {opacity: 1;}
.edge:hover path { stroke: red; }
.edge:hover polygon { stroke: red; fill: red; }
]]></style>
<script type="application/ecmascript" xlink:href="../../svg.min.js"/>
<svg id="graph" class="graph">
<g id="graph0" class="graph" transform="scale(1 1) rotate(0) translate(4 160)">
<title>pocketmine\world\sound\ArmorEquipDiamondSound</title>
<!-- Node1 -->
<g id="Node000001" class="node">
<title>Node1</title>
<g id="a_Node000001"><a xlink:title=" ">
<polygon fill="#999999" stroke="transparent" points="145,-60 0,-60 0,0 145,0 145,-60"/>
<text text-anchor="start" x="5.5" y="-48" font-family="Helvetica,sans-Serif" font-size="10.00">pocketmine\world\sound</text>
<text text-anchor="start" x="5.5" y="-37" font-family="Helvetica,sans-Serif" font-size="10.00">\ArmorEquipDiamondSound</text>
<text text-anchor="start" x="71" y="-22" font-family="Helvetica,sans-Serif" font-size="10.00"> </text>
<text text-anchor="start" x="24.5" y="-7" font-family="Helvetica,sans-Serif" font-size="10.00">+</text>
<text text-anchor="start" x="57.5" y="-7" font-family="Helvetica,sans-Serif" font-size="10.00">encode()</text>
<polygon fill="#666666" stroke="#666666" points="0.5,-32 0.5,-32 145.5,-32 145.5,-32 0.5,-32"/>
<polygon fill="#666666" stroke="#666666" points="0.5,-17 0.5,-17 145.5,-17 145.5,-17 0.5,-17"/>
<polygon fill="none" stroke="#666666" points="0,0 0,-60 145,-60 145,0 0,0"/>
</a>
</g>
</g>
<!-- Node2 -->
<g id="Node000002" class="node">
<title>Node2</title>
<g id="a_Node000002"><a xlink:href="../../d7/dbd/interfacepocketmine_1_1world_1_1sound_1_1_sound.html" target="_top" xlink:title=" ">
<polygon fill="white" stroke="transparent" points="137.5,-156 7.5,-156 7.5,-96 137.5,-96 137.5,-156"/>
<text text-anchor="start" x="12.5" y="-144" font-family="Helvetica,sans-Serif" font-size="10.00">pocketmine\world\sound</text>
<text text-anchor="start" x="55.5" y="-133" font-family="Helvetica,sans-Serif" font-size="10.00">\Sound</text>
<text text-anchor="start" x="70.5" y="-118" font-family="Helvetica,sans-Serif" font-size="10.00"> </text>
<text text-anchor="start" x="28" y="-103" font-family="Helvetica,sans-Serif" font-size="10.00">+</text>
<text text-anchor="start" x="57.5" y="-103" font-family="Helvetica,sans-Serif" font-size="10.00">encode()</text>
<polygon fill="#bfbfbf" stroke="#bfbfbf" points="7.5,-128 7.5,-128 137.5,-128 137.5,-128 7.5,-128"/>
<polygon fill="#bfbfbf" stroke="#bfbfbf" points="7.5,-113 7.5,-113 137.5,-113 137.5,-113 7.5,-113"/>
<polygon fill="none" stroke="#bfbfbf" points="7.5,-96 7.5,-156 137.5,-156 137.5,-96 7.5,-96"/>
</a>
</g>
</g>
<!-- Node2&#45;&gt;Node1 -->
<g id="edge1_Node000001_Node000002" class="edge">
<title>Node2&#45;&gt;Node1</title>
<g id="a_edge1_Node000001_Node000002"><a xlink:title=" ">
<path fill="none" stroke="#63b8ff" d="M72.5,-85.63C72.5,-77.11 72.5,-68.25 72.5,-60.21"/>
<polygon fill="none" stroke="#63b8ff" points="69,-85.77 72.5,-95.77 76,-85.77 69,-85.77"/>
</a>
</g>
</g>
</g>
</svg>
</svg>

<style type='text/css'>
<![CDATA[
[data-mouse-over-selected='false'] { opacity: 0.7; }
[data-mouse-over-selected='true']  { opacity: 1.0; }
]]>
</style>
<script type="application/ecmascript"><![CDATA[
document.addEventListener('DOMContentLoaded', (event) => {
  highlightEdges();
  highlightAdjacentNodes();
});
]]></script>
</svg>
