<?xml version="1.0" encoding="UTF-8" standalone="no"?>
<!DOCTYPE svg PUBLIC "-//W3C//DTD SVG 1.1//EN"
 "http://www.w3.org/Graphics/SVG/1.1/DTD/svg11.dtd">
<!-- Generated by graphviz version 2.43.0 (0)
 -->
<!-- Title: pocketmine\item\PumpkinSeeds Pages: 1 -->
<!--zoomable 632 -->

<svg id="main" version="1.1" xmlns="http://www.w3.org/2000/svg" xmlns:xlink="http://www.w3.org/1999/xlink" xml:space="preserve" onload="init(evt)">

<style type="text/css"><![CDATA[
.node, .edge {opacity: 0.7;}
.node.selected, .edge.selected {opacity: 1;}
.edge:hover path { stroke: red; }
.edge:hover polygon { stroke: red; fill: red; }
]]></style>

<defs>
  <circle id="rim" cx="0" cy="0" r="7"/>
  <circle id="rim2" cx="0" cy="0" r="3.5"/>
  <g id="zoomPlus">
    <use xlink:href="#rim" fill="#404040"><set attributeName="fill" to="#808080" begin="zoomplus.mouseover" end="zoomplus.mouseout"/></use>
    <path d="M-4,0h8M0,-4v8" fill="none" stroke="white" stroke-width="1.5" pointer-events="none"/>
  </g>
  <g id="zoomMin">
    <use xlink:href="#rim" fill="#404040"><set attributeName="fill" to="#808080" begin="zoomminus.mouseover" end="zoomminus.mouseout"/></use>
    <path d="M-4,0h8" fill="none" stroke="white" stroke-width="1.5" pointer-events="none"/>
  </g>
  <g id="arrowUp" transform="translate(30 24)">
    <use xlink:href="#rim"/>
    <path pointer-events="none" fill="none" stroke="white" stroke-width="1.5" d="M0,-3.0v7 M-2.5,-0.5L0,-3.0L2.5,-0.5"/>
  </g>
  <g id="arrowRight" transform="rotate(90) translate(36 -43)">
    <use xlink:href="#rim"/>
    <path pointer-events="none" fill="none" stroke="white" stroke-width="1.5" d="M0,-3.0v7 M-2.5,-0.5L0,-3.0L2.5,-0.5"/>
  </g>
  <g id="arrowDown" transform="rotate(180) translate(-30 -48)">
    <use xlink:href="#rim"/>
    <path pointer-events="none" fill="none" stroke="white" stroke-width="1.5" d="M0,-3.0v7 M-2.5,-0.5L0,-3.0L2.5,-0.5"/>
  </g>
  <g id="arrowLeft" transform="rotate(270) translate(-36 17)">
    <use xlink:href="#rim"/>
    <path pointer-events="none" fill="none" stroke="white" stroke-width="1.5" d="M0,-3.0v7 M-2.5,-0.5L0,-3.0L2.5,-0.5"/>
  </g>
  <g id="resetDef">
    <use xlink:href="#rim2" fill="#404040"><set attributeName="fill" to="#808080" begin="reset.mouseover" end="reset.mouseout"/></use>
  </g>
</defs>
<script type="application/ecmascript">
var viewWidth = 176;
var viewHeight = 632;
var sectionId = 'dynsection-0';
</script>
<script type="application/ecmascript" xlink:href="../../svg.min.js"/>
<svg id="graph" class="graph">
<g id="viewport">
<title>pocketmine\item\PumpkinSeeds</title>
<!-- Node1 -->
<g id="Node000001" class="node">
<title>Node1</title>
<g id="a_Node000001"><a xlink:title=" ">
<polygon fill="#999999" stroke="transparent" points="168,-49 0,-49 0,0 168,0 168,-49"/>
<text text-anchor="start" x="5" y="-36.5" font-family="Helvetica,sans-Serif" font-size="10.00">pocketmine\item\PumpkinSeeds</text>
<text text-anchor="start" x="82" y="-21.5" font-family="Helvetica,sans-Serif" font-size="10.00"> </text>
<text text-anchor="start" x="28" y="-6.5" font-family="Helvetica,sans-Serif" font-size="10.00">+</text>
<text text-anchor="start" x="65" y="-6.5" font-family="Helvetica,sans-Serif" font-size="10.00">getBlock()</text>
<polygon fill="#666666" stroke="#666666" points="0,-31.5 0,-31.5 168,-31.5 168,-31.5 0,-31.5"/>
<polygon fill="#666666" stroke="#666666" points="0,-16.5 0,-16.5 168,-16.5 168,-16.5 0,-16.5"/>
<polygon fill="none" stroke="#666666" points="0,0 0,-49 168,-49 168,0 0,0"/>
</a>
</g>
</g>
<!-- Node2 -->
<g id="Node000002" class="node">
<title>Node2</title>
<g id="a_Node000002"><a xlink:href="../../d5/d8a/classpocketmine_1_1item_1_1_item.html" target="_top" xlink:title=" ">
<polygon fill="white" stroke="transparent" points="159.5,-539 8.5,-539 8.5,-85 159.5,-85 159.5,-539"/>
<text text-anchor="start" x="30" y="-527" font-family="Helvetica,sans-Serif" font-size="10.00">pocketmine\item\Item</text>
<text text-anchor="start" x="13" y="-512" font-family="Helvetica,sans-Serif" font-size="10.00">+</text>
<text text-anchor="start" x="26" y="-512" font-family="Helvetica,sans-Serif" font-size="10.00">TAG_BLOCK_ENTITY_TAG</text>
<text text-anchor="start" x="13" y="-497" font-family="Helvetica,sans-Serif" font-size="10.00">+</text>
<text text-anchor="start" x="26" y="-497" font-family="Helvetica,sans-Serif" font-size="10.00">TAG_DISPLAY</text>
<text text-anchor="start" x="13" y="-482" font-family="Helvetica,sans-Serif" font-size="10.00">+</text>
<text text-anchor="start" x="26" y="-482" font-family="Helvetica,sans-Serif" font-size="10.00">TAG_DISPLAY_LORE</text>
<text text-anchor="start" x="13" y="-467" font-family="Helvetica,sans-Serif" font-size="10.00">+</text>
<text text-anchor="start" x="26" y="-467" font-family="Helvetica,sans-Serif" font-size="10.00">TAG_DISPLAY_NAME</text>
<text text-anchor="start" x="13" y="-452" font-family="Helvetica,sans-Serif" font-size="10.00">+</text>
<text text-anchor="start" x="26" y="-452" font-family="Helvetica,sans-Serif" font-size="10.00">TAG_ENCH</text>
<text text-anchor="start" x="13" y="-437" font-family="Helvetica,sans-Serif" font-size="10.00">+</text>
<text text-anchor="start" x="26" y="-437" font-family="Helvetica,sans-Serif" font-size="10.00">TAG_KEEP_ON_DEATH</text>
<text text-anchor="start" x="13" y="-422" font-family="Helvetica,sans-Serif" font-size="10.00">#</text>
<text text-anchor="start" x="26" y="-422" font-family="Helvetica,sans-Serif" font-size="10.00">$blockEntityTag</text>
<text text-anchor="start" x="13" y="-407" font-family="Helvetica,sans-Serif" font-size="10.00">#</text>
<text text-anchor="start" x="26" y="-407" font-family="Helvetica,sans-Serif" font-size="10.00">$canDestroy</text>
<text text-anchor="start" x="13" y="-392" font-family="Helvetica,sans-Serif" font-size="10.00">#</text>
<text text-anchor="start" x="26" y="-392" font-family="Helvetica,sans-Serif" font-size="10.00">$canPlaceOn</text>
<text text-anchor="start" x="13" y="-377" font-family="Helvetica,sans-Serif" font-size="10.00">#</text>
<text text-anchor="start" x="26" y="-377" font-family="Helvetica,sans-Serif" font-size="10.00">$count</text>
<text text-anchor="start" x="13" y="-362" font-family="Helvetica,sans-Serif" font-size="10.00">#</text>
<text text-anchor="start" x="26" y="-362" font-family="Helvetica,sans-Serif" font-size="10.00">$customName</text>
<text text-anchor="start" x="13" y="-347" font-family="Helvetica,sans-Serif" font-size="10.00">#</text>
<text text-anchor="start" x="26" y="-347" font-family="Helvetica,sans-Serif" font-size="10.00">$keepOnDeath</text>
<text text-anchor="start" x="13" y="-332" font-family="Helvetica,sans-Serif" font-size="10.00">#</text>
<text text-anchor="start" x="26" y="-332" font-family="Helvetica,sans-Serif" font-size="10.00">$lore</text>
<text text-anchor="start" x="13" y="-317" font-family="Helvetica,sans-Serif" font-size="10.00">+</text>
<text text-anchor="start" x="26" y="-317" font-family="Helvetica,sans-Serif" font-size="10.00">__construct()</text>
<text text-anchor="start" x="13" y="-302" font-family="Helvetica,sans-Serif" font-size="10.00">+</text>
<text text-anchor="start" x="26" y="-302" font-family="Helvetica,sans-Serif" font-size="10.00">__clone()</text>
<text text-anchor="start" x="13" y="-287" font-family="Helvetica,sans-Serif" font-size="10.00">+</text>
<text text-anchor="start" x="26" y="-287" font-family="Helvetica,sans-Serif" font-size="10.00">__toString()</text>
<text text-anchor="start" x="13" y="-272" font-family="Helvetica,sans-Serif" font-size="10.00">+</text>
<text text-anchor="start" x="26" y="-272" font-family="Helvetica,sans-Serif" font-size="10.00">canBePlaced()</text>
<text text-anchor="start" x="13" y="-257" font-family="Helvetica,sans-Serif" font-size="10.00">+</text>
<text text-anchor="start" x="26" y="-257" font-family="Helvetica,sans-Serif" font-size="10.00">canStackWith()</text>
<text text-anchor="start" x="13" y="-242" font-family="Helvetica,sans-Serif" font-size="10.00">+</text>
<text text-anchor="start" x="26" y="-242" font-family="Helvetica,sans-Serif" font-size="10.00">clearCustomBlockData()</text>
<text text-anchor="start" x="13" y="-227" font-family="Helvetica,sans-Serif" font-size="10.00">+</text>
<text text-anchor="start" x="26" y="-227" font-family="Helvetica,sans-Serif" font-size="10.00">clearCustomName()</text>
<text text-anchor="start" x="13" y="-212" font-family="Helvetica,sans-Serif" font-size="10.00">+</text>
<text text-anchor="start" x="26" y="-212" font-family="Helvetica,sans-Serif" font-size="10.00">clearNamedTag()</text>
<text text-anchor="start" x="13" y="-197" font-family="Helvetica,sans-Serif" font-size="10.00">+</text>
<text text-anchor="start" x="26" y="-197" font-family="Helvetica,sans-Serif" font-size="10.00">equals()</text>
<text text-anchor="start" x="13" y="-182" font-family="Helvetica,sans-Serif" font-size="10.00">+</text>
<text text-anchor="start" x="26" y="-182" font-family="Helvetica,sans-Serif" font-size="10.00">equalsExact()</text>
<text text-anchor="start" x="26" y="-167" font-family="Helvetica,sans-Serif" font-size="10.00">and 48 more...</text>
<text text-anchor="start" x="13" y="-152" font-family="Helvetica,sans-Serif" font-size="10.00">+</text>
<text text-anchor="start" x="26" y="-152" font-family="Helvetica,sans-Serif" font-size="10.00">legacyJsonDeserialize()</text>
<text text-anchor="start" x="13" y="-137" font-family="Helvetica,sans-Serif" font-size="10.00">+</text>
<text text-anchor="start" x="26" y="-137" font-family="Helvetica,sans-Serif" font-size="10.00">nbtDeserialize()</text>
<text text-anchor="start" x="13" y="-122" font-family="Helvetica,sans-Serif" font-size="10.00">#</text>
<text text-anchor="start" x="26" y="-122" font-family="Helvetica,sans-Serif" font-size="10.00">describeState()</text>
<text text-anchor="start" x="13" y="-107" font-family="Helvetica,sans-Serif" font-size="10.00">#</text>
<text text-anchor="start" x="26" y="-107" font-family="Helvetica,sans-Serif" font-size="10.00">deserializeCompoundTag()</text>
<text text-anchor="start" x="13" y="-92" font-family="Helvetica,sans-Serif" font-size="10.00">#</text>
<text text-anchor="start" x="26" y="-92" font-family="Helvetica,sans-Serif" font-size="10.00">serializeCompoundTag()</text>
<polygon fill="#bfbfbf" stroke="#bfbfbf" points="9,-522 9,-522 160,-522 160,-522 9,-522"/>
<polygon fill="#bfbfbf" stroke="#bfbfbf" points="9,-327 9,-327 24,-327 24,-327 9,-327"/>
<polygon fill="#bfbfbf" stroke="#bfbfbf" points="24,-327 24,-327 160,-327 160,-327 24,-327"/>
<polygon fill="none" stroke="#bfbfbf" points="8.5,-85 8.5,-539 159.5,-539 159.5,-85 8.5,-85"/>
</a>
</g>
</g>
<!-- Node2&#45;&gt;Node1 -->
<g id="edge1_Node000001_Node000002" class="edge">
<title>Node2&#45;&gt;Node1</title>
<g id="a_edge1_Node000001_Node000002"><a xlink:title=" ">
<path fill="none" stroke="#63b8ff" d="M84,-74.41C84,-64.91 84,-56.41 84,-49.26"/>
<polygon fill="none" stroke="#63b8ff" points="80.5,-74.66 84,-84.66 87.5,-74.66 80.5,-74.66"/>
</a>
</g>
</g>
<!-- Node3 -->
<g id="Node000003" class="node">
<title>Node3</title>
<g id="a_Node000003"><a xlink:title=" ">
<polygon fill="white" stroke="transparent" points="128,-624 40,-624 40,-575 128,-575 128,-624"/>
<text text-anchor="start" x="45" y="-611.5" font-family="Helvetica,sans-Serif" font-size="10.00">JsonSerializable</text>
<text text-anchor="start" x="82" y="-596.5" font-family="Helvetica,sans-Serif" font-size="10.00"> </text>
<text text-anchor="start" x="82" y="-581.5" font-family="Helvetica,sans-Serif" font-size="10.00"> </text>
<polygon fill="#bfbfbf" stroke="#bfbfbf" points="40,-606.5 40,-606.5 128,-606.5 128,-606.5 40,-606.5"/>
<polygon fill="#bfbfbf" stroke="#bfbfbf" points="40,-591.5 40,-591.5 128,-591.5 128,-591.5 40,-591.5"/>
<polygon fill="none" stroke="#bfbfbf" points="40,-575 40,-624 128,-624 128,-575 40,-575"/>
</a>
</g>
</g>
<!-- Node3&#45;&gt;Node2 -->
<g id="edge2_Node000002_Node000003" class="edge">
<title>Node3&#45;&gt;Node2</title>
<g id="a_edge2_Node000002_Node000003"><a xlink:title=" ">
<path fill="none" stroke="#63b8ff" d="M84,-564.65C84,-557.08 84,-548.51 84,-539.2"/>
<polygon fill="none" stroke="#63b8ff" points="80.5,-564.65 84,-574.65 87.5,-564.65 80.5,-564.65"/>
</a>
</g>
</g>
</g>
</svg>

<g id="navigator" transform="translate(0 0)" fill="#404254">
  <rect fill="#f2f5e9" fill-opacity="0.5" stroke="#606060" stroke-width=".5" x="0" y="0" width="60" height="60"/>
  <use id="zoomplus" xlink:href="#zoomPlus" x="17" y="9" onmousedown="handleZoom(evt,'in')"/>
  <use id="zoomminus" xlink:href="#zoomMin" x="42" y="9" onmousedown="handleZoom(evt,'out')"/>
  <use id="reset" xlink:href="#resetDef" x="30" y="36" onmousedown="handleReset()"/>
   <use id="arrowup" xlink:href="#arrowUp" x="0" y="0" onmousedown="handlePan(0,-1)"/>
  <use id="arrowright" xlink:href="#arrowRight" x="0" y="0" onmousedown="handlePan(1,0)"/>
  <use id="arrowdown" xlink:href="#arrowDown" x="0" y="0" onmousedown="handlePan(0,1)"/>
  <use id="arrowleft" xlink:href="#arrowLeft" x="0" y="0" onmousedown="handlePan(-1,0)"/>
</g>
<svg viewBox="0 0 15 15" width="100%" height="30px" preserveAspectRatio="xMaxYMin meet">
 <g id="arrow_out" transform="scale(0.3 0.3)">
  <a xlink:href="classpocketmine_1_1item_1_1_pumpkin_seeds__inherit__graph_org.svg" target="_base">
   <rect id="button" ry="5" rx="5" y="6" x="6" height="38" width="38"
        fill="#f2f5e9" fill-opacity="0.5" stroke="#606060" stroke-width="1.0"/>
   <path id="arrow"
     d="M 11.500037,31.436501 C 11.940474,20.09759 22.043105,11.32322 32.158766,21.979434 L 37.068811,17.246167 C 37.068811,17.246167 37.088388,32 37.088388,32 L 22.160133,31.978069 C 22.160133,31.978069 26.997745,27.140456 26.997745,27.140456 C 18.528582,18.264221 13.291696,25.230495 11.500037,31.436501 z"
     style="fill:#404040;"/>
  </a>
 </g>
</svg>

<style type='text/css'>
<![CDATA[
[data-mouse-over-selected='false'] { opacity: 0.7; }
[data-mouse-over-selected='true']  { opacity: 1.0; }
]]>
</style>
<script type="application/ecmascript"><![CDATA[
document.addEventListener('DOMContentLoaded', (event) => {
  highlightEdges();
  highlightAdjacentNodes();
});
]]></script>
</svg>
