<?xml version="1.0" encoding="UTF-8" standalone="no"?>
<!DOCTYPE svg PUBLIC "-//W3C//DTD SVG 1.1//EN"
 "http://www.w3.org/Graphics/SVG/1.1/DTD/svg11.dtd">
<!-- Generated by graphviz version 2.43.0 (0)
 -->
<!-- Title: pocketmine\item\MilkBucket Pages: 1 -->
<svg width="560pt" height="618pt"
 viewBox="0.00 0.00 560.00 618.00" xmlns="http://www.w3.org/2000/svg" xmlns:xlink="http://www.w3.org/1999/xlink">
<g id="graph0" class="graph" transform="scale(1 1) rotate(0) translate(4 614)">
<title>pocketmine\item\MilkBucket</title>
<polygon fill="white" stroke="transparent" points="-4,4 -4,-614 556,-614 556,4 -4,4"/>
<!-- Node1 -->
<g id="node1" class="node">
<title>Node1</title>
<g id="a_node1"><a xlink:title=" ">
<polygon fill="#bfbfbf" stroke="black" points="140,-0.5 140,-101.5 296,-101.5 296,-0.5 140,-0.5"/>
<text text-anchor="middle" x="218" y="-89.5" font-family="Helvetica,sans-Serif" font-size="10.00">pocketmine\item\MilkBucket</text>
<polyline fill="none" stroke="black" points="140,-82.5 296,-82.5 "/>
<text text-anchor="middle" x="218" y="-70.5" font-family="Helvetica,sans-Serif" font-size="10.00"> </text>
<polyline fill="none" stroke="black" points="140,-63.5 296,-63.5 "/>
<text text-anchor="start" x="148" y="-51.5" font-family="Helvetica,sans-Serif" font-size="10.00">+ canStartUsingItem()</text>
<text text-anchor="start" x="148" y="-40.5" font-family="Helvetica,sans-Serif" font-size="10.00">+ getAdditionalEffects()</text>
<text text-anchor="start" x="148" y="-29.5" font-family="Helvetica,sans-Serif" font-size="10.00">+ getMaxStackSize()</text>
<text text-anchor="start" x="148" y="-18.5" font-family="Helvetica,sans-Serif" font-size="10.00">+ getResidue()</text>
<text text-anchor="start" x="148" y="-7.5" font-family="Helvetica,sans-Serif" font-size="10.00">+ onConsume()</text>
</a>
</g>
</g>
<!-- Node2 -->
<g id="node2" class="node">
<title>Node2</title>
<g id="a_node2"><a xlink:href="../../d5/d8a/classpocketmine_1_1item_1_1_item.html" target="_top" xlink:title=" ">
<polygon fill="white" stroke="#bfbfbf" points="45,-139.5 45,-427.5 203,-427.5 203,-139.5 45,-139.5"/>
<text text-anchor="middle" x="124" y="-415.5" font-family="Helvetica,sans-Serif" font-size="10.00">pocketmine\item\Item</text>
<polyline fill="none" stroke="#bfbfbf" points="45,-408.5 203,-408.5 "/>
<text text-anchor="start" x="53" y="-396.5" font-family="Helvetica,sans-Serif" font-size="10.00"># $blockEntityTag</text>
<text text-anchor="start" x="53" y="-385.5" font-family="Helvetica,sans-Serif" font-size="10.00"># $canDestroy</text>
<text text-anchor="start" x="53" y="-374.5" font-family="Helvetica,sans-Serif" font-size="10.00"># $canPlaceOn</text>
<text text-anchor="start" x="53" y="-363.5" font-family="Helvetica,sans-Serif" font-size="10.00"># $count</text>
<text text-anchor="start" x="53" y="-352.5" font-family="Helvetica,sans-Serif" font-size="10.00"># $customName</text>
<text text-anchor="start" x="53" y="-341.5" font-family="Helvetica,sans-Serif" font-size="10.00"># $keepOnDeath</text>
<text text-anchor="start" x="53" y="-330.5" font-family="Helvetica,sans-Serif" font-size="10.00"># $lore</text>
<text text-anchor="start" x="53" y="-319.5" font-family="Helvetica,sans-Serif" font-size="10.00"># $name</text>
<polyline fill="none" stroke="#bfbfbf" points="45,-312.5 203,-312.5 "/>
<text text-anchor="start" x="53" y="-300.5" font-family="Helvetica,sans-Serif" font-size="10.00">+ __construct()</text>
<text text-anchor="start" x="53" y="-289.5" font-family="Helvetica,sans-Serif" font-size="10.00">+ __clone()</text>
<text text-anchor="start" x="53" y="-278.5" font-family="Helvetica,sans-Serif" font-size="10.00">+ __toString()</text>
<text text-anchor="start" x="53" y="-267.5" font-family="Helvetica,sans-Serif" font-size="10.00">+ canBePlaced()</text>
<text text-anchor="start" x="53" y="-256.5" font-family="Helvetica,sans-Serif" font-size="10.00">+ canStackWith()</text>
<text text-anchor="start" x="53" y="-245.5" font-family="Helvetica,sans-Serif" font-size="10.00">+ clearCustomBlockData()</text>
<text text-anchor="start" x="53" y="-234.5" font-family="Helvetica,sans-Serif" font-size="10.00">+ clearCustomName()</text>
<text text-anchor="start" x="53" y="-223.5" font-family="Helvetica,sans-Serif" font-size="10.00">+ clearNamedTag()</text>
<text text-anchor="start" x="53" y="-212.5" font-family="Helvetica,sans-Serif" font-size="10.00">+ equals()</text>
<text text-anchor="start" x="53" y="-201.5" font-family="Helvetica,sans-Serif" font-size="10.00">+ equalsExact()</text>
<text text-anchor="start" x="53" y="-190.5" font-family="Helvetica,sans-Serif" font-size="10.00">and 44 more...</text>
<text text-anchor="start" x="53" y="-179.5" font-family="Helvetica,sans-Serif" font-size="10.00">+ jsonDeserialize()</text>
<text text-anchor="start" x="53" y="-168.5" font-family="Helvetica,sans-Serif" font-size="10.00">+ nbtDeserialize()</text>
<text text-anchor="start" x="53" y="-157.5" font-family="Helvetica,sans-Serif" font-size="10.00"># deserializeCompoundTag()</text>
<text text-anchor="start" x="53" y="-146.5" font-family="Helvetica,sans-Serif" font-size="10.00"># serializeCompoundTag()</text>
</a>
</g>
</g>
<!-- Node2&#45;&gt;Node1 -->
<g id="edge1" class="edge">
<title>Node2&#45;&gt;Node1</title>
<path fill="none" stroke="midnightblue" d="M186.13,-130.14C190.23,-120.1 194.15,-110.48 197.76,-101.64"/>
<polygon fill="none" stroke="midnightblue" points="182.86,-128.89 182.33,-139.47 189.35,-131.53 182.86,-128.89"/>
</g>
<!-- Node3 -->
<g id="node3" class="node">
<title>Node3</title>
<g id="a_node3"><a xlink:title=" ">
<polygon fill="white" stroke="#bfbfbf" points="0,-547 0,-604 94,-604 94,-547 0,-547"/>
<text text-anchor="middle" x="47" y="-592" font-family="Helvetica,sans-Serif" font-size="10.00">JsonSerializable</text>
<polyline fill="none" stroke="#bfbfbf" points="0,-585 94,-585 "/>
<text text-anchor="middle" x="47" y="-573" font-family="Helvetica,sans-Serif" font-size="10.00"> </text>
<polyline fill="none" stroke="#bfbfbf" points="0,-566 94,-566 "/>
<text text-anchor="middle" x="47" y="-554" font-family="Helvetica,sans-Serif" font-size="10.00"> </text>
</a>
</g>
</g>
<!-- Node3&#45;&gt;Node2 -->
<g id="edge2" class="edge">
<title>Node3&#45;&gt;Node2</title>
<path fill="none" stroke="midnightblue" d="M56.92,-537.14C64.42,-508.89 75.23,-468.16 86,-427.63"/>
<polygon fill="none" stroke="midnightblue" points="53.5,-536.39 54.31,-546.96 60.26,-538.19 53.5,-536.39"/>
</g>
<!-- Node4 -->
<g id="node4" class="node">
<title>Node4</title>
<g id="a_node4"><a xlink:title=" ">
<polygon fill="white" stroke="#bfbfbf" points="112.5,-547 112.5,-604 155.5,-604 155.5,-547 112.5,-547"/>
<text text-anchor="middle" x="134" y="-592" font-family="Helvetica,sans-Serif" font-size="10.00">const</text>
<polyline fill="none" stroke="#bfbfbf" points="112.5,-585 155.5,-585 "/>
<text text-anchor="middle" x="134" y="-573" font-family="Helvetica,sans-Serif" font-size="10.00"> </text>
<polyline fill="none" stroke="#bfbfbf" points="112.5,-566 155.5,-566 "/>
<text text-anchor="middle" x="134" y="-554" font-family="Helvetica,sans-Serif" font-size="10.00"> </text>
</a>
</g>
</g>
<!-- Node4&#45;&gt;Node2 -->
<g id="edge3" class="edge">
<title>Node4&#45;&gt;Node2</title>
<path fill="none" stroke="#404040" d="M133.05,-546.96C132.17,-521.41 130.78,-481.22 129.36,-439.89"/>
<polygon fill="none" stroke="#404040" points="129.35,-439.62 125.14,-433.77 128.94,-427.63 133.14,-433.49 129.35,-439.62"/>
<text text-anchor="middle" x="200" y="-515" font-family="Helvetica,sans-Serif" font-size="10.00"> +TAG_BLOCK_ENTITY_TAG</text>
<text text-anchor="middle" x="200" y="-504" font-family="Helvetica,sans-Serif" font-size="10.00">+TAG_DISPLAY</text>
<text text-anchor="middle" x="200" y="-493" font-family="Helvetica,sans-Serif" font-size="10.00">+TAG_DISPLAY_LORE</text>
<text text-anchor="middle" x="200" y="-482" font-family="Helvetica,sans-Serif" font-size="10.00">+TAG_DISPLAY_NAME</text>
<text text-anchor="middle" x="200" y="-471" font-family="Helvetica,sans-Serif" font-size="10.00">+TAG_ENCH</text>
<text text-anchor="middle" x="200" y="-460" font-family="Helvetica,sans-Serif" font-size="10.00">+TAG_KEEP_ON_DEATH</text>
<text text-anchor="middle" x="200" y="-449" font-family="Helvetica,sans-Serif" font-size="10.00">+TAG_SLOT</text>
</g>
<!-- Node5 -->
<g id="node5" class="node">
<title>Node5</title>
<g id="a_node5"><a xlink:href="../../d2/de2/interfacepocketmine_1_1item_1_1_consumable_item.html" target="_top" xlink:title=" ">
<polygon fill="white" stroke="black" points="220.5,-255 220.5,-312 405.5,-312 405.5,-255 220.5,-255"/>
<text text-anchor="middle" x="313" y="-300" font-family="Helvetica,sans-Serif" font-size="10.00">pocketmine\item\ConsumableItem</text>
<polyline fill="none" stroke="black" points="220.5,-293 405.5,-293 "/>
<text text-anchor="middle" x="313" y="-281" font-family="Helvetica,sans-Serif" font-size="10.00"> </text>
<polyline fill="none" stroke="black" points="220.5,-274 405.5,-274 "/>
<text text-anchor="start" x="228.5" y="-262" font-family="Helvetica,sans-Serif" font-size="10.00">+ getResidue()</text>
</a>
</g>
</g>
<!-- Node5&#45;&gt;Node1 -->
<g id="edge4" class="edge">
<title>Node5&#45;&gt;Node1</title>
<path fill="none" stroke="midnightblue" d="M297.67,-245.29C281.6,-206.31 256.27,-144.86 238.5,-101.74"/>
<polygon fill="none" stroke="midnightblue" points="294.49,-246.78 301.54,-254.7 300.97,-244.12 294.49,-246.78"/>
</g>
<!-- Node6 -->
<g id="node6" class="node">
<title>Node6</title>
<g id="a_node6"><a xlink:href="../../db/d3f/interfacepocketmine_1_1entity_1_1_consumable.html" target="_top" xlink:title=" ">
<polygon fill="white" stroke="black" points="208.5,-541.5 208.5,-609.5 377.5,-609.5 377.5,-541.5 208.5,-541.5"/>
<text text-anchor="middle" x="293" y="-597.5" font-family="Helvetica,sans-Serif" font-size="10.00">pocketmine\entity\Consumable</text>
<polyline fill="none" stroke="black" points="208.5,-590.5 377.5,-590.5 "/>
<text text-anchor="middle" x="293" y="-578.5" font-family="Helvetica,sans-Serif" font-size="10.00"> </text>
<polyline fill="none" stroke="black" points="208.5,-571.5 377.5,-571.5 "/>
<text text-anchor="start" x="216.5" y="-559.5" font-family="Helvetica,sans-Serif" font-size="10.00">+ getAdditionalEffects()</text>
<text text-anchor="start" x="216.5" y="-548.5" font-family="Helvetica,sans-Serif" font-size="10.00">+ onConsume()</text>
</a>
</g>
</g>
<!-- Node6&#45;&gt;Node5 -->
<g id="edge5" class="edge">
<title>Node6&#45;&gt;Node5</title>
<path fill="none" stroke="midnightblue" d="M295.98,-531.25C300.15,-470.83 307.59,-362.9 311.09,-312.22"/>
<polygon fill="none" stroke="midnightblue" points="292.49,-531.02 295.29,-541.23 299.47,-531.5 292.49,-531.02"/>
</g>
<!-- Node7 -->
<g id="node7" class="node">
<title>Node7</title>
<g id="a_node7"><a xlink:href="../../d4/d35/interfacepocketmine_1_1item_1_1_releasable.html" target="_top" xlink:title=" ">
<polygon fill="white" stroke="black" points="396,-547 396,-604 552,-604 552,-547 396,-547"/>
<text text-anchor="middle" x="474" y="-592" font-family="Helvetica,sans-Serif" font-size="10.00">pocketmine\item\Releasable</text>
<polyline fill="none" stroke="black" points="396,-585 552,-585 "/>
<text text-anchor="middle" x="474" y="-573" font-family="Helvetica,sans-Serif" font-size="10.00"> </text>
<polyline fill="none" stroke="black" points="396,-566 552,-566 "/>
<text text-anchor="start" x="404" y="-554" font-family="Helvetica,sans-Serif" font-size="10.00">+ canStartUsingItem()</text>
</a>
</g>
</g>
<!-- Node7&#45;&gt;Node5 -->
<g id="edge6" class="edge">
<title>Node7&#45;&gt;Node5</title>
<path fill="none" stroke="midnightblue" d="M453.75,-538.02C421.13,-479.27 357.66,-364.95 328.43,-312.28"/>
<polygon fill="none" stroke="midnightblue" points="450.79,-539.91 458.71,-546.96 456.91,-536.51 450.79,-539.91"/>
</g>
</g>
</svg>
