<?xml version="1.0" encoding="UTF-8" standalone="no"?>
<!DOCTYPE svg PUBLIC "-//W3C//DTD SVG 1.1//EN"
 "http://www.w3.org/Graphics/SVG/1.1/DTD/svg11.dtd">
<!-- Generated by graphviz version 2.43.0 (0)
 -->
<!-- Title: pocketmine\block\ShulkerBox Pages: 1 -->
<svg width="859pt" height="2128pt"
 viewBox="0.00 0.00 859.00 2128.00" xmlns="http://www.w3.org/2000/svg" xmlns:xlink="http://www.w3.org/1999/xlink">
<g id="graph0" class="graph" transform="scale(1 1) rotate(0) translate(4 2124)">
<title>pocketmine\block\ShulkerBox</title>
<!-- Node1 -->
<g id="Node000001" class="node">
<title>Node1</title>
<g id="a_Node000001"><a xlink:title=" ">
<polygon fill="#999999" stroke="transparent" points="427,-169 263,-169 263,0 427,0 427,-169"/>
<text text-anchor="start" x="272.5" y="-156.5" font-family="Helvetica,sans-Serif" font-size="10.00">pocketmine\block\ShulkerBox</text>
<text text-anchor="start" x="343" y="-141.5" font-family="Helvetica,sans-Serif" font-size="10.00"> </text>
<text text-anchor="start" x="267" y="-126.5" font-family="Helvetica,sans-Serif" font-size="10.00">+</text>
<text text-anchor="start" x="280" y="-126.5" font-family="Helvetica,sans-Serif" font-size="10.00">getDropsForCompatibleTool()</text>
<text text-anchor="start" x="267" y="-111.5" font-family="Helvetica,sans-Serif" font-size="10.00">+</text>
<text text-anchor="start" x="280" y="-111.5" font-family="Helvetica,sans-Serif" font-size="10.00">getMaxStackSize()</text>
<text text-anchor="start" x="267" y="-96.5" font-family="Helvetica,sans-Serif" font-size="10.00">+</text>
<text text-anchor="start" x="280" y="-96.5" font-family="Helvetica,sans-Serif" font-size="10.00">getPickedItem()</text>
<text text-anchor="start" x="267" y="-81.5" font-family="Helvetica,sans-Serif" font-size="10.00">+</text>
<text text-anchor="start" x="280" y="-81.5" font-family="Helvetica,sans-Serif" font-size="10.00">getSupportType()</text>
<text text-anchor="start" x="267" y="-66.5" font-family="Helvetica,sans-Serif" font-size="10.00">+</text>
<text text-anchor="start" x="280" y="-66.5" font-family="Helvetica,sans-Serif" font-size="10.00">onInteract()</text>
<text text-anchor="start" x="267" y="-51.5" font-family="Helvetica,sans-Serif" font-size="10.00">+</text>
<text text-anchor="start" x="280" y="-51.5" font-family="Helvetica,sans-Serif" font-size="10.00">place()</text>
<text text-anchor="start" x="267" y="-36.5" font-family="Helvetica,sans-Serif" font-size="10.00">+</text>
<text text-anchor="start" x="280" y="-36.5" font-family="Helvetica,sans-Serif" font-size="10.00">readStateFromWorld()</text>
<text text-anchor="start" x="267" y="-21.5" font-family="Helvetica,sans-Serif" font-size="10.00">+</text>
<text text-anchor="start" x="280" y="-21.5" font-family="Helvetica,sans-Serif" font-size="10.00">writeStateToWorld()</text>
<text text-anchor="start" x="267" y="-6.5" font-family="Helvetica,sans-Serif" font-size="10.00">#</text>
<text text-anchor="start" x="280" y="-6.5" font-family="Helvetica,sans-Serif" font-size="10.00">describeBlockOnlyState()</text>
<polygon fill="#666666" stroke="#666666" points="263,-151.5 263,-151.5 427,-151.5 427,-151.5 263,-151.5"/>
<polygon fill="#666666" stroke="#666666" points="263,-136.5 263,-136.5 427,-136.5 427,-136.5 263,-136.5"/>
<polygon fill="none" stroke="#666666" points="263,0 263,-169 427,-169 427,0 263,0"/>
</a>
</g>
</g>
<!-- Node2 -->
<g id="Node000002" class="node">
<title>Node2</title>
<g id="a_Node000002"><a xlink:href="../../db/dc5/classpocketmine_1_1block_1_1_opaque.html" target="_top" xlink:title=" ">
<polygon fill="white" stroke="transparent" points="340.5,-268 203.5,-268 203.5,-219 340.5,-219 340.5,-268"/>
<text text-anchor="start" x="209" y="-255.5" font-family="Helvetica,sans-Serif" font-size="10.00">pocketmine\block\Opaque</text>
<text text-anchor="start" x="270.5" y="-240.5" font-family="Helvetica,sans-Serif" font-size="10.00"> </text>
<text text-anchor="start" x="227" y="-225.5" font-family="Helvetica,sans-Serif" font-size="10.00">+</text>
<text text-anchor="start" x="259" y="-225.5" font-family="Helvetica,sans-Serif" font-size="10.00">isSolid()</text>
<polygon fill="#666666" stroke="#666666" points="204,-250.5 204,-250.5 341,-250.5 341,-250.5 204,-250.5"/>
<polygon fill="#666666" stroke="#666666" points="204,-235.5 204,-235.5 341,-235.5 341,-235.5 204,-235.5"/>
<polygon fill="none" stroke="#666666" points="203.5,-219 203.5,-268 340.5,-268 340.5,-219 203.5,-219"/>
</a>
</g>
</g>
<!-- Node2&#45;&gt;Node1 -->
<g id="edge1_Node000001_Node000002" class="edge">
<title>Node2&#45;&gt;Node1</title>
<g id="a_edge1_Node000001_Node000002"><a xlink:title=" ">
<path fill="none" stroke="#63b8ff" d="M287.16,-209.9C292.73,-197.92 299.32,-183.74 306.03,-169.32"/>
<polygon fill="none" stroke="#63b8ff" points="283.97,-208.45 282.93,-219 290.32,-211.4 283.97,-208.45"/>
</a>
</g>
</g>
<!-- Node3 -->
<g id="Node000003" class="node">
<title>Node3</title>
<g id="a_Node000003"><a xlink:href="../../d7/d27/classpocketmine_1_1block_1_1_block.html" target="_top" xlink:title=" ">
<polygon fill="white" stroke="transparent" points="356.5,-637 187.5,-637 187.5,-318 356.5,-318 356.5,-637"/>
<text text-anchor="start" x="214" y="-624.5" font-family="Helvetica,sans-Serif" font-size="10.00">pocketmine\block\Block</text>
<text text-anchor="start" x="192" y="-609.5" font-family="Helvetica,sans-Serif" font-size="10.00">+</text>
<text text-anchor="start" x="205" y="-609.5" font-family="Helvetica,sans-Serif" font-size="10.00">EMPTY_STATE_ID</text>
<text text-anchor="start" x="192" y="-594.5" font-family="Helvetica,sans-Serif" font-size="10.00">+</text>
<text text-anchor="start" x="205" y="-594.5" font-family="Helvetica,sans-Serif" font-size="10.00">INTERNAL_STATE_DATA_BITS</text>
<text text-anchor="start" x="192" y="-579.5" font-family="Helvetica,sans-Serif" font-size="10.00">+</text>
<text text-anchor="start" x="205" y="-579.5" font-family="Helvetica,sans-Serif" font-size="10.00">INTERNAL_STATE_DATA_MASK</text>
<text text-anchor="start" x="192" y="-564.5" font-family="Helvetica,sans-Serif" font-size="10.00">#</text>
<text text-anchor="start" x="205" y="-564.5" font-family="Helvetica,sans-Serif" font-size="10.00">$collisionBoxes</text>
<text text-anchor="start" x="192" y="-549.5" font-family="Helvetica,sans-Serif" font-size="10.00">#</text>
<text text-anchor="start" x="205" y="-549.5" font-family="Helvetica,sans-Serif" font-size="10.00">$fallbackName</text>
<text text-anchor="start" x="192" y="-534.5" font-family="Helvetica,sans-Serif" font-size="10.00">+</text>
<text text-anchor="start" x="205" y="-534.5" font-family="Helvetica,sans-Serif" font-size="10.00">__construct()</text>
<text text-anchor="start" x="192" y="-519.5" font-family="Helvetica,sans-Serif" font-size="10.00">+</text>
<text text-anchor="start" x="205" y="-519.5" font-family="Helvetica,sans-Serif" font-size="10.00">__clone()</text>
<text text-anchor="start" x="192" y="-504.5" font-family="Helvetica,sans-Serif" font-size="10.00">+</text>
<text text-anchor="start" x="205" y="-504.5" font-family="Helvetica,sans-Serif" font-size="10.00">__toString()</text>
<text text-anchor="start" x="192" y="-489.5" font-family="Helvetica,sans-Serif" font-size="10.00">+</text>
<text text-anchor="start" x="205" y="-489.5" font-family="Helvetica,sans-Serif" font-size="10.00">addVelocityToEntity()</text>
<text text-anchor="start" x="192" y="-474.5" font-family="Helvetica,sans-Serif" font-size="10.00">+</text>
<text text-anchor="start" x="205" y="-474.5" font-family="Helvetica,sans-Serif" font-size="10.00">asItem()</text>
<text text-anchor="start" x="192" y="-459.5" font-family="Helvetica,sans-Serif" font-size="10.00">+</text>
<text text-anchor="start" x="205" y="-459.5" font-family="Helvetica,sans-Serif" font-size="10.00">blocksDirectSkyLight()</text>
<text text-anchor="start" x="192" y="-444.5" font-family="Helvetica,sans-Serif" font-size="10.00">+</text>
<text text-anchor="start" x="205" y="-444.5" font-family="Helvetica,sans-Serif" font-size="10.00">burnsForever()</text>
<text text-anchor="start" x="192" y="-429.5" font-family="Helvetica,sans-Serif" font-size="10.00">+</text>
<text text-anchor="start" x="205" y="-429.5" font-family="Helvetica,sans-Serif" font-size="10.00">calculateIntercept()</text>
<text text-anchor="start" x="192" y="-414.5" font-family="Helvetica,sans-Serif" font-size="10.00">+</text>
<text text-anchor="start" x="205" y="-414.5" font-family="Helvetica,sans-Serif" font-size="10.00">canBeFlowedInto()</text>
<text text-anchor="start" x="192" y="-399.5" font-family="Helvetica,sans-Serif" font-size="10.00">+</text>
<text text-anchor="start" x="205" y="-399.5" font-family="Helvetica,sans-Serif" font-size="10.00">canBePlaced()</text>
<text text-anchor="start" x="205" y="-384.5" font-family="Helvetica,sans-Serif" font-size="10.00">and 60 more...</text>
<text text-anchor="start" x="192" y="-369.5" font-family="Helvetica,sans-Serif" font-size="10.00">#</text>
<text text-anchor="start" x="205" y="-369.5" font-family="Helvetica,sans-Serif" font-size="10.00">describeBlockOnlyState()</text>
<text text-anchor="start" x="192" y="-354.5" font-family="Helvetica,sans-Serif" font-size="10.00">#</text>
<text text-anchor="start" x="205" y="-354.5" font-family="Helvetica,sans-Serif" font-size="10.00">getAdjacentSupportType()</text>
<text text-anchor="start" x="192" y="-339.5" font-family="Helvetica,sans-Serif" font-size="10.00">#</text>
<text text-anchor="start" x="205" y="-339.5" font-family="Helvetica,sans-Serif" font-size="10.00">getXpDropAmount()</text>
<text text-anchor="start" x="192" y="-324.5" font-family="Helvetica,sans-Serif" font-size="10.00">#</text>
<text text-anchor="start" x="205" y="-324.5" font-family="Helvetica,sans-Serif" font-size="10.00">recalculateCollisionBoxes()</text>
<polygon fill="#bfbfbf" stroke="#bfbfbf" points="188,-619.5 188,-619.5 357,-619.5 357,-619.5 188,-619.5"/>
<polygon fill="#bfbfbf" stroke="#bfbfbf" points="188,-544.5 188,-544.5 203,-544.5 203,-544.5 188,-544.5"/>
<polygon fill="#bfbfbf" stroke="#bfbfbf" points="203,-544.5 203,-544.5 357,-544.5 357,-544.5 203,-544.5"/>
<polygon fill="none" stroke="#bfbfbf" points="187.5,-318 187.5,-637 356.5,-637 356.5,-318 187.5,-318"/>
</a>
</g>
</g>
<!-- Node3&#45;&gt;Node2 -->
<g id="edge2_Node000002_Node000003" class="edge">
<title>Node3&#45;&gt;Node2</title>
<g id="a_edge2_Node000002_Node000003"><a xlink:title=" ">
<path fill="none" stroke="#63b8ff" d="M272,-307.71C272,-292.5 272,-278.83 272,-268.13"/>
<polygon fill="none" stroke="#63b8ff" points="268.5,-307.91 272,-317.91 275.5,-307.91 268.5,-307.91"/>
</a>
</g>
</g>
<!-- Node4 -->
<g id="Node000004" class="node">
<title>Node4</title>
<g id="a_Node000004"><a xlink:href="../../dd/d18/classpocketmine_1_1block_1_1_block_identifier.html" target="_top" xlink:title=" ">
<polygon fill="white" stroke="transparent" points="170,-800.5 0,-800.5 0,-721.5 170,-721.5 170,-800.5"/>
<text text-anchor="start" x="5" y="-788" font-family="Helvetica,sans-Serif" font-size="10.00">pocketmine\block\BlockIdentifier</text>
<text text-anchor="start" x="83" y="-773" font-family="Helvetica,sans-Serif" font-size="10.00"> </text>
<text text-anchor="start" x="20.5" y="-758" font-family="Helvetica,sans-Serif" font-size="10.00">+</text>
<text text-anchor="start" x="50" y="-758" font-family="Helvetica,sans-Serif" font-size="10.00">__construct()</text>
<text text-anchor="start" x="20.5" y="-743" font-family="Helvetica,sans-Serif" font-size="10.00">+</text>
<text text-anchor="start" x="50" y="-743" font-family="Helvetica,sans-Serif" font-size="10.00">getBlockTypeId()</text>
<text text-anchor="start" x="20.5" y="-728" font-family="Helvetica,sans-Serif" font-size="10.00">+</text>
<text text-anchor="start" x="50" y="-728" font-family="Helvetica,sans-Serif" font-size="10.00">getTileClass()</text>
<polygon fill="#bfbfbf" stroke="#bfbfbf" points="0,-783 0,-783 170,-783 170,-783 0,-783"/>
<polygon fill="#bfbfbf" stroke="#bfbfbf" points="0,-768 0,-768 170,-768 170,-768 0,-768"/>
<polygon fill="none" stroke="#bfbfbf" points="0,-721.5 0,-800.5 170,-800.5 170,-721.5 0,-721.5"/>
</a>
</g>
</g>
<!-- Node4&#45;&gt;Node3 -->
<g id="edge3_Node000003_Node000004" class="edge">
<title>Node4&#45;&gt;Node3</title>
<g id="a_edge3_Node000003_Node000004"><a xlink:title=" ">
<path fill="none" stroke="#63b8ff" d="M110.61,-721.45C128.93,-693.87 154.79,-654.94 180.46,-616.31"/>
<polygon fill="none" stroke="#63b8ff" points="180.69,-615.96 180.67,-608.75 187.33,-605.96 187.34,-613.17 180.69,-615.96"/>
</a>
</g>
<text text-anchor="middle" x="174" y="-658" font-family="Helvetica,sans-Serif" font-size="10.00" fill="grey"> #$idInfo</text>
</g>
<!-- Node5 -->
<g id="Node000005" class="node">
<title>Node5</title>
<g id="a_Node000005"><a xlink:href="../../de/d9a/classpocketmine_1_1block_1_1_block_type_info.html" target="_top" xlink:title=" ">
<polygon fill="white" stroke="transparent" points="356,-815.5 188,-815.5 188,-706.5 356,-706.5 356,-815.5"/>
<text text-anchor="start" x="193" y="-803" font-family="Helvetica,sans-Serif" font-size="10.00">pocketmine\block\BlockTypeInfo</text>
<text text-anchor="start" x="270" y="-788" font-family="Helvetica,sans-Serif" font-size="10.00"> </text>
<text text-anchor="start" x="201" y="-773" font-family="Helvetica,sans-Serif" font-size="10.00">+</text>
<text text-anchor="start" x="223" y="-773" font-family="Helvetica,sans-Serif" font-size="10.00">__construct()</text>
<text text-anchor="start" x="201" y="-758" font-family="Helvetica,sans-Serif" font-size="10.00">+</text>
<text text-anchor="start" x="223" y="-758" font-family="Helvetica,sans-Serif" font-size="10.00">getBreakInfo()</text>
<text text-anchor="start" x="201" y="-743" font-family="Helvetica,sans-Serif" font-size="10.00">+</text>
<text text-anchor="start" x="223" y="-743" font-family="Helvetica,sans-Serif" font-size="10.00">getEnchantmentTags()</text>
<text text-anchor="start" x="201" y="-728" font-family="Helvetica,sans-Serif" font-size="10.00">+</text>
<text text-anchor="start" x="223" y="-728" font-family="Helvetica,sans-Serif" font-size="10.00">getTypeTags()</text>
<text text-anchor="start" x="201" y="-713" font-family="Helvetica,sans-Serif" font-size="10.00">+</text>
<text text-anchor="start" x="223" y="-713" font-family="Helvetica,sans-Serif" font-size="10.00">hasTypeTag()</text>
<polygon fill="#bfbfbf" stroke="#bfbfbf" points="188,-798 188,-798 356,-798 356,-798 188,-798"/>
<polygon fill="#bfbfbf" stroke="#bfbfbf" points="188,-783 188,-783 356,-783 356,-783 188,-783"/>
<polygon fill="none" stroke="#bfbfbf" points="188,-706.5 188,-815.5 356,-815.5 356,-706.5 188,-706.5"/>
</a>
</g>
</g>
<!-- Node5&#45;&gt;Node3 -->
<g id="edge4_Node000003_Node000005" class="edge">
<title>Node5&#45;&gt;Node3</title>
<g id="a_edge4_Node000003_Node000005"><a xlink:title=" ">
<path fill="none" stroke="#63b8ff" d="M272,-706.39C272,-689.52 272,-669.9 272,-649.38"/>
<polygon fill="none" stroke="#63b8ff" points="272,-649.21 268,-643.21 272,-637.21 276,-643.21 272,-649.21"/>
</a>
</g>
<text text-anchor="middle" x="301" y="-658" font-family="Helvetica,sans-Serif" font-size="10.00" fill="grey"> #$typeInfo</text>
</g>
<!-- Node6 -->
<g id="Node000006" class="node">
<title>Node6</title>
<g id="a_Node000006"><a xlink:href="../../d5/dd2/classpocketmine_1_1world_1_1_position.html" target="_top" xlink:title=" ">
<polygon fill="white" stroke="transparent" points="514,-838 374,-838 374,-684 514,-684 514,-838"/>
<text text-anchor="start" x="379" y="-826" font-family="Helvetica,sans-Serif" font-size="10.00">pocketmine\world\Position</text>
<text text-anchor="start" x="442" y="-811" font-family="Helvetica,sans-Serif" font-size="10.00"> </text>
<text text-anchor="start" x="391.5" y="-796" font-family="Helvetica,sans-Serif" font-size="10.00">+</text>
<text text-anchor="start" x="418" y="-796" font-family="Helvetica,sans-Serif" font-size="10.00">__construct()</text>
<text text-anchor="start" x="391.5" y="-781" font-family="Helvetica,sans-Serif" font-size="10.00">+</text>
<text text-anchor="start" x="418" y="-781" font-family="Helvetica,sans-Serif" font-size="10.00">__toString()</text>
<text text-anchor="start" x="391.5" y="-766" font-family="Helvetica,sans-Serif" font-size="10.00">+</text>
<text text-anchor="start" x="418" y="-766" font-family="Helvetica,sans-Serif" font-size="10.00">asPosition()</text>
<text text-anchor="start" x="391.5" y="-751" font-family="Helvetica,sans-Serif" font-size="10.00">+</text>
<text text-anchor="start" x="418" y="-751" font-family="Helvetica,sans-Serif" font-size="10.00">equals()</text>
<text text-anchor="start" x="391.5" y="-736" font-family="Helvetica,sans-Serif" font-size="10.00">+</text>
<text text-anchor="start" x="418" y="-736" font-family="Helvetica,sans-Serif" font-size="10.00">getSide()</text>
<text text-anchor="start" x="391.5" y="-721" font-family="Helvetica,sans-Serif" font-size="10.00">+</text>
<text text-anchor="start" x="418" y="-721" font-family="Helvetica,sans-Serif" font-size="10.00">getWorld()</text>
<text text-anchor="start" x="391.5" y="-706" font-family="Helvetica,sans-Serif" font-size="10.00">+</text>
<text text-anchor="start" x="418" y="-706" font-family="Helvetica,sans-Serif" font-size="10.00">isValid()</text>
<text text-anchor="start" x="391.5" y="-691" font-family="Helvetica,sans-Serif" font-size="10.00">+</text>
<text text-anchor="start" x="418" y="-691" font-family="Helvetica,sans-Serif" font-size="10.00">fromObject()</text>
<polygon fill="#bfbfbf" stroke="#bfbfbf" points="374,-821 374,-821 514,-821 514,-821 374,-821"/>
<polygon fill="#bfbfbf" stroke="#bfbfbf" points="374,-806 374,-806 514,-806 514,-806 374,-806"/>
<polygon fill="none" stroke="#bfbfbf" points="374,-684 374,-838 514,-838 514,-684 374,-684"/>
</a>
</g>
</g>
<!-- Node6&#45;&gt;Node3 -->
<g id="edge5_Node000003_Node000006" class="edge">
<title>Node6&#45;&gt;Node3</title>
<g id="a_edge5_Node000003_Node000006"><a xlink:title=" ">
<path fill="none" stroke="#63b8ff" d="M397.45,-683.82C386.65,-666.14 374.79,-646.73 362.8,-627.11"/>
<polygon fill="none" stroke="#63b8ff" points="362.78,-627.08 356.24,-624.05 356.53,-616.84 363.07,-619.88 362.78,-627.08"/>
</a>
</g>
<text text-anchor="middle" x="412.5" y="-658" font-family="Helvetica,sans-Serif" font-size="10.00" fill="grey"> #$position</text>
</g>
<!-- Node7 -->
<g id="Node000007" class="node">
<title>Node7</title>
<g id="a_Node000007"><a xlink:href="../../d2/d90/classpocketmine_1_1math_1_1_vector3.html" target="_top" xlink:title=" ">
<polygon fill="white" stroke="transparent" points="461,-1247 325,-1247 325,-988 461,-988 461,-1247"/>
<text text-anchor="start" x="330" y="-1234.5" font-family="Helvetica,sans-Serif" font-size="10.00">pocketmine\math\Vector3</text>
<text text-anchor="start" x="391" y="-1219.5" font-family="Helvetica,sans-Serif" font-size="10.00"> </text>
<text text-anchor="start" x="335" y="-1204.5" font-family="Helvetica,sans-Serif" font-size="10.00">+</text>
<text text-anchor="start" x="354" y="-1204.5" font-family="Helvetica,sans-Serif" font-size="10.00">__construct()</text>
<text text-anchor="start" x="335" y="-1189.5" font-family="Helvetica,sans-Serif" font-size="10.00">+</text>
<text text-anchor="start" x="354" y="-1189.5" font-family="Helvetica,sans-Serif" font-size="10.00">__toString()</text>
<text text-anchor="start" x="335" y="-1174.5" font-family="Helvetica,sans-Serif" font-size="10.00">+</text>
<text text-anchor="start" x="354" y="-1174.5" font-family="Helvetica,sans-Serif" font-size="10.00">abs()</text>
<text text-anchor="start" x="335" y="-1159.5" font-family="Helvetica,sans-Serif" font-size="10.00">+</text>
<text text-anchor="start" x="354" y="-1159.5" font-family="Helvetica,sans-Serif" font-size="10.00">add()</text>
<text text-anchor="start" x="335" y="-1144.5" font-family="Helvetica,sans-Serif" font-size="10.00">+</text>
<text text-anchor="start" x="354" y="-1144.5" font-family="Helvetica,sans-Serif" font-size="10.00">addVector()</text>
<text text-anchor="start" x="335" y="-1129.5" font-family="Helvetica,sans-Serif" font-size="10.00">+</text>
<text text-anchor="start" x="354" y="-1129.5" font-family="Helvetica,sans-Serif" font-size="10.00">asVector3()</text>
<text text-anchor="start" x="335" y="-1114.5" font-family="Helvetica,sans-Serif" font-size="10.00">+</text>
<text text-anchor="start" x="354" y="-1114.5" font-family="Helvetica,sans-Serif" font-size="10.00">ceil()</text>
<text text-anchor="start" x="335" y="-1099.5" font-family="Helvetica,sans-Serif" font-size="10.00">+</text>
<text text-anchor="start" x="354" y="-1099.5" font-family="Helvetica,sans-Serif" font-size="10.00">cross()</text>
<text text-anchor="start" x="335" y="-1084.5" font-family="Helvetica,sans-Serif" font-size="10.00">+</text>
<text text-anchor="start" x="354" y="-1084.5" font-family="Helvetica,sans-Serif" font-size="10.00">distance()</text>
<text text-anchor="start" x="335" y="-1069.5" font-family="Helvetica,sans-Serif" font-size="10.00">+</text>
<text text-anchor="start" x="354" y="-1069.5" font-family="Helvetica,sans-Serif" font-size="10.00">distanceSquared()</text>
<text text-anchor="start" x="354" y="-1054.5" font-family="Helvetica,sans-Serif" font-size="10.00">and 32 more...</text>
<text text-anchor="start" x="335" y="-1039.5" font-family="Helvetica,sans-Serif" font-size="10.00">+</text>
<text text-anchor="start" x="354" y="-1039.5" font-family="Helvetica,sans-Serif" font-size="10.00">maxComponents()</text>
<text text-anchor="start" x="335" y="-1024.5" font-family="Helvetica,sans-Serif" font-size="10.00">+</text>
<text text-anchor="start" x="354" y="-1024.5" font-family="Helvetica,sans-Serif" font-size="10.00">minComponents()</text>
<text text-anchor="start" x="335" y="-1009.5" font-family="Helvetica,sans-Serif" font-size="10.00">+</text>
<text text-anchor="start" x="354" y="-1009.5" font-family="Helvetica,sans-Serif" font-size="10.00">sum()</text>
<text text-anchor="start" x="335" y="-994.5" font-family="Helvetica,sans-Serif" font-size="10.00">+</text>
<text text-anchor="start" x="354" y="-994.5" font-family="Helvetica,sans-Serif" font-size="10.00">zero()</text>
<polygon fill="#bfbfbf" stroke="#bfbfbf" points="325,-1229.5 325,-1229.5 461,-1229.5 461,-1229.5 325,-1229.5"/>
<polygon fill="#bfbfbf" stroke="#bfbfbf" points="325,-1214.5 325,-1214.5 461,-1214.5 461,-1214.5 325,-1214.5"/>
<polygon fill="none" stroke="#bfbfbf" points="325,-988 325,-1247 461,-1247 461,-988 325,-988"/>
</a>
</g>
</g>
<!-- Node7&#45;&gt;Node6 -->
<g id="edge6_Node000006_Node000007" class="edge">
<title>Node7&#45;&gt;Node6</title>
<g id="a_edge6_Node000006_Node000007"><a xlink:title=" ">
<path fill="none" stroke="#63b8ff" d="M412.97,-977.69C419.8,-930.2 427.19,-878.83 433.05,-838.14"/>
<polygon fill="none" stroke="#63b8ff" points="409.48,-977.37 411.52,-987.77 416.41,-978.37 409.48,-977.37"/>
</a>
</g>
</g>
<!-- Node8 -->
<g id="Node000008" class="node">
<title>Node8</title>
<g id="a_Node000008"><a xlink:href="../../d4/d2b/classpocketmine_1_1world_1_1_world.html" target="_top" xlink:title=" ">
<polygon fill="white" stroke="transparent" points="645,-1350 479,-1350 479,-885 645,-885 645,-1350"/>
<text text-anchor="start" x="503" y="-1337.5" font-family="Helvetica,sans-Serif" font-size="10.00">pocketmine\world\World</text>
<text text-anchor="start" x="483" y="-1322.5" font-family="Helvetica,sans-Serif" font-size="10.00">+</text>
<text text-anchor="start" x="496" y="-1322.5" font-family="Helvetica,sans-Serif" font-size="10.00">$stopTime</text>
<text text-anchor="start" x="483" y="-1307.5" font-family="Helvetica,sans-Serif" font-size="10.00">+</text>
<text text-anchor="start" x="496" y="-1307.5" font-family="Helvetica,sans-Serif" font-size="10.00">$tickRateTime</text>
<text text-anchor="start" x="483" y="-1292.5" font-family="Helvetica,sans-Serif" font-size="10.00">+</text>
<text text-anchor="start" x="496" y="-1292.5" font-family="Helvetica,sans-Serif" font-size="10.00">$updateEntities</text>
<text text-anchor="start" x="483" y="-1277.5" font-family="Helvetica,sans-Serif" font-size="10.00">+</text>
<text text-anchor="start" x="496" y="-1277.5" font-family="Helvetica,sans-Serif" font-size="10.00">DEFAULT_TICKED_BLOCKS</text>
<text text-anchor="start" x="496" y="-1266.5" font-family="Helvetica,sans-Serif" font-size="10.00">_PER_SUBCHUNK_PER_TICK</text>
<text text-anchor="start" x="483" y="-1251.5" font-family="Helvetica,sans-Serif" font-size="10.00">+</text>
<text text-anchor="start" x="496" y="-1251.5" font-family="Helvetica,sans-Serif" font-size="10.00">DIFFICULTY_EASY</text>
<text text-anchor="start" x="483" y="-1236.5" font-family="Helvetica,sans-Serif" font-size="10.00">+</text>
<text text-anchor="start" x="496" y="-1236.5" font-family="Helvetica,sans-Serif" font-size="10.00">DIFFICULTY_HARD</text>
<text text-anchor="start" x="483" y="-1221.5" font-family="Helvetica,sans-Serif" font-size="10.00">+</text>
<text text-anchor="start" x="496" y="-1221.5" font-family="Helvetica,sans-Serif" font-size="10.00">DIFFICULTY_NORMAL</text>
<text text-anchor="start" x="483" y="-1206.5" font-family="Helvetica,sans-Serif" font-size="10.00">+</text>
<text text-anchor="start" x="496" y="-1206.5" font-family="Helvetica,sans-Serif" font-size="10.00">DIFFICULTY_PEACEFUL</text>
<text text-anchor="start" x="483" y="-1191.5" font-family="Helvetica,sans-Serif" font-size="10.00">+</text>
<text text-anchor="start" x="496" y="-1191.5" font-family="Helvetica,sans-Serif" font-size="10.00">TIME_DAY</text>
<text text-anchor="start" x="483" y="-1176.5" font-family="Helvetica,sans-Serif" font-size="10.00">+</text>
<text text-anchor="start" x="496" y="-1176.5" font-family="Helvetica,sans-Serif" font-size="10.00">TIME_FULL</text>
<text text-anchor="start" x="496" y="-1161.5" font-family="Helvetica,sans-Serif" font-size="10.00">and 7 more...</text>
<text text-anchor="start" x="483" y="-1146.5" font-family="Helvetica,sans-Serif" font-size="10.00">+</text>
<text text-anchor="start" x="496" y="-1146.5" font-family="Helvetica,sans-Serif" font-size="10.00">__construct()</text>
<text text-anchor="start" x="483" y="-1131.5" font-family="Helvetica,sans-Serif" font-size="10.00">+</text>
<text text-anchor="start" x="496" y="-1131.5" font-family="Helvetica,sans-Serif" font-size="10.00">__debugInfo()</text>
<text text-anchor="start" x="483" y="-1116.5" font-family="Helvetica,sans-Serif" font-size="10.00">+</text>
<text text-anchor="start" x="496" y="-1116.5" font-family="Helvetica,sans-Serif" font-size="10.00">addEntity()</text>
<text text-anchor="start" x="483" y="-1101.5" font-family="Helvetica,sans-Serif" font-size="10.00">+</text>
<text text-anchor="start" x="496" y="-1101.5" font-family="Helvetica,sans-Serif" font-size="10.00">addOnUnloadCallback()</text>
<text text-anchor="start" x="483" y="-1086.5" font-family="Helvetica,sans-Serif" font-size="10.00">+</text>
<text text-anchor="start" x="496" y="-1086.5" font-family="Helvetica,sans-Serif" font-size="10.00">addParticle()</text>
<text text-anchor="start" x="483" y="-1071.5" font-family="Helvetica,sans-Serif" font-size="10.00">+</text>
<text text-anchor="start" x="496" y="-1071.5" font-family="Helvetica,sans-Serif" font-size="10.00">addRandomTickedBlock()</text>
<text text-anchor="start" x="483" y="-1056.5" font-family="Helvetica,sans-Serif" font-size="10.00">+</text>
<text text-anchor="start" x="496" y="-1056.5" font-family="Helvetica,sans-Serif" font-size="10.00">addSound()</text>
<text text-anchor="start" x="483" y="-1041.5" font-family="Helvetica,sans-Serif" font-size="10.00">+</text>
<text text-anchor="start" x="496" y="-1041.5" font-family="Helvetica,sans-Serif" font-size="10.00">addTile()</text>
<text text-anchor="start" x="483" y="-1026.5" font-family="Helvetica,sans-Serif" font-size="10.00">+</text>
<text text-anchor="start" x="496" y="-1026.5" font-family="Helvetica,sans-Serif" font-size="10.00">broadcastPacketToViewers()</text>
<text text-anchor="start" x="483" y="-1011.5" font-family="Helvetica,sans-Serif" font-size="10.00">+</text>
<text text-anchor="start" x="496" y="-1011.5" font-family="Helvetica,sans-Serif" font-size="10.00">cancelUnloadChunkRequest()</text>
<text text-anchor="start" x="496" y="-996.5" font-family="Helvetica,sans-Serif" font-size="10.00">and 122 more...</text>
<text text-anchor="start" x="483" y="-981.5" font-family="Helvetica,sans-Serif" font-size="10.00">+</text>
<text text-anchor="start" x="496" y="-981.5" font-family="Helvetica,sans-Serif" font-size="10.00">blockHash()</text>
<text text-anchor="start" x="483" y="-966.5" font-family="Helvetica,sans-Serif" font-size="10.00">+</text>
<text text-anchor="start" x="496" y="-966.5" font-family="Helvetica,sans-Serif" font-size="10.00">chunkBlockHash()</text>
<text text-anchor="start" x="483" y="-951.5" font-family="Helvetica,sans-Serif" font-size="10.00">+</text>
<text text-anchor="start" x="496" y="-951.5" font-family="Helvetica,sans-Serif" font-size="10.00">chunkHash()</text>
<text text-anchor="start" x="483" y="-936.5" font-family="Helvetica,sans-Serif" font-size="10.00">+</text>
<text text-anchor="start" x="496" y="-936.5" font-family="Helvetica,sans-Serif" font-size="10.00">getBlockXYZ()</text>
<text text-anchor="start" x="483" y="-921.5" font-family="Helvetica,sans-Serif" font-size="10.00">+</text>
<text text-anchor="start" x="496" y="-921.5" font-family="Helvetica,sans-Serif" font-size="10.00">getDifficultyFromString()</text>
<text text-anchor="start" x="483" y="-906.5" font-family="Helvetica,sans-Serif" font-size="10.00">+</text>
<text text-anchor="start" x="496" y="-906.5" font-family="Helvetica,sans-Serif" font-size="10.00">getXZ()</text>
<text text-anchor="start" x="483" y="-891.5" font-family="Helvetica,sans-Serif" font-size="10.00">#</text>
<text text-anchor="start" x="496" y="-891.5" font-family="Helvetica,sans-Serif" font-size="10.00">actuallyDoTick()</text>
<polygon fill="#666666" stroke="#666666" points="479,-1332.5 479,-1332.5 645,-1332.5 645,-1332.5 479,-1332.5"/>
<polygon fill="#666666" stroke="#666666" points="479,-1156.5 479,-1156.5 494,-1156.5 494,-1156.5 479,-1156.5"/>
<polygon fill="#666666" stroke="#666666" points="494,-1156.5 494,-1156.5 645,-1156.5 645,-1156.5 494,-1156.5"/>
<polygon fill="none" stroke="#666666" points="479,-885 479,-1350 645,-1350 645,-885 479,-885"/>
</a>
</g>
</g>
<!-- Node8&#45;&gt;Node6 -->
<g id="edge7_Node000006_Node000008" class="edge">
<title>Node8&#45;&gt;Node6</title>
<g id="a_edge7_Node000006_Node000008"><a xlink:title=" ">
<path fill="none" stroke="#63b8ff" d="M484.94,-884.99C480.85,-872.71 476.89,-860.81 473.15,-849.56"/>
<polygon fill="none" stroke="#63b8ff" points="473.12,-849.47 467.43,-845.04 469.33,-838.09 475.02,-842.52 473.12,-849.47"/>
</a>
</g>
<text text-anchor="middle" x="500.5" y="-859" font-family="Helvetica,sans-Serif" font-size="10.00" fill="grey"> +$world</text>
</g>
<!-- Node9 -->
<g id="Node000009" class="node">
<title>Node9</title>
<g id="a_Node000009"><a xlink:href="../../d0/d03/interfacepocketmine_1_1world_1_1_chunk_manager.html" target="_top" xlink:title=" ">
<polygon fill="white" stroke="transparent" points="594,-1592 420,-1592 420,-1453 594,-1453 594,-1592"/>
<text text-anchor="start" x="425" y="-1579.5" font-family="Helvetica,sans-Serif" font-size="10.00">pocketmine\world\ChunkManager</text>
<text text-anchor="start" x="505" y="-1564.5" font-family="Helvetica,sans-Serif" font-size="10.00"> </text>
<text text-anchor="start" x="447" y="-1549.5" font-family="Helvetica,sans-Serif" font-size="10.00">+</text>
<text text-anchor="start" x="483" y="-1549.5" font-family="Helvetica,sans-Serif" font-size="10.00">getBlockAt()</text>
<text text-anchor="start" x="447" y="-1534.5" font-family="Helvetica,sans-Serif" font-size="10.00">+</text>
<text text-anchor="start" x="483" y="-1534.5" font-family="Helvetica,sans-Serif" font-size="10.00">getChunk()</text>
<text text-anchor="start" x="447" y="-1519.5" font-family="Helvetica,sans-Serif" font-size="10.00">+</text>
<text text-anchor="start" x="483" y="-1519.5" font-family="Helvetica,sans-Serif" font-size="10.00">getMaxY()</text>
<text text-anchor="start" x="447" y="-1504.5" font-family="Helvetica,sans-Serif" font-size="10.00">+</text>
<text text-anchor="start" x="483" y="-1504.5" font-family="Helvetica,sans-Serif" font-size="10.00">getMinY()</text>
<text text-anchor="start" x="447" y="-1489.5" font-family="Helvetica,sans-Serif" font-size="10.00">+</text>
<text text-anchor="start" x="483" y="-1489.5" font-family="Helvetica,sans-Serif" font-size="10.00">isInWorld()</text>
<text text-anchor="start" x="447" y="-1474.5" font-family="Helvetica,sans-Serif" font-size="10.00">+</text>
<text text-anchor="start" x="483" y="-1474.5" font-family="Helvetica,sans-Serif" font-size="10.00">setBlockAt()</text>
<text text-anchor="start" x="447" y="-1459.5" font-family="Helvetica,sans-Serif" font-size="10.00">+</text>
<text text-anchor="start" x="483" y="-1459.5" font-family="Helvetica,sans-Serif" font-size="10.00">setChunk()</text>
<polygon fill="#bfbfbf" stroke="#bfbfbf" points="420,-1574.5 420,-1574.5 594,-1574.5 594,-1574.5 420,-1574.5"/>
<polygon fill="#bfbfbf" stroke="#bfbfbf" points="420,-1559.5 420,-1559.5 594,-1559.5 594,-1559.5 420,-1559.5"/>
<polygon fill="none" stroke="#bfbfbf" points="420,-1453 420,-1592 594,-1592 594,-1453 420,-1453"/>
</a>
</g>
</g>
<!-- Node9&#45;&gt;Node8 -->
<g id="edge8_Node000008_Node000009" class="edge">
<title>Node9&#45;&gt;Node8</title>
<g id="a_edge8_Node000008_Node000009"><a xlink:title=" ">
<path fill="none" stroke="#63b8ff" d="M517.78,-1442.5C521.49,-1415.3 525.86,-1383.3 530.38,-1350.18"/>
<polygon fill="none" stroke="#63b8ff" points="514.28,-1442.3 516.39,-1452.68 521.21,-1443.24 514.28,-1442.3"/>
</a>
</g>
</g>
<!-- Node10 -->
<g id="Node000010" class="node">
<title>Node10</title>
<g id="a_Node000010"><a xlink:href="../../d7/d08/classpocketmine_1_1world_1_1_world_timings.html" target="_top" xlink:title=" ">
<polygon fill="white" stroke="transparent" points="779.5,-1648 612.5,-1648 612.5,-1397 779.5,-1397 779.5,-1648"/>
<text text-anchor="start" x="618" y="-1635.5" font-family="Helvetica,sans-Serif" font-size="10.00">pocketmine\world\WorldTimings</text>
<text text-anchor="start" x="617" y="-1620.5" font-family="Helvetica,sans-Serif" font-size="10.00">+</text>
<text text-anchor="start" x="630" y="-1620.5" font-family="Helvetica,sans-Serif" font-size="10.00">$randomChunkUpdatesChunk</text>
<text text-anchor="start" x="630" y="-1609.5" font-family="Helvetica,sans-Serif" font-size="10.00">Selection</text>
<text text-anchor="start" x="617" y="-1594.5" font-family="Helvetica,sans-Serif" font-size="10.00">+</text>
<text text-anchor="start" x="630" y="-1594.5" font-family="Helvetica,sans-Serif" font-size="10.00">$scheduledBlockUpdates</text>
<text text-anchor="start" x="617" y="-1579.5" font-family="Helvetica,sans-Serif" font-size="10.00">+</text>
<text text-anchor="start" x="630" y="-1579.5" font-family="Helvetica,sans-Serif" font-size="10.00">$setBlock</text>
<text text-anchor="start" x="617" y="-1564.5" font-family="Helvetica,sans-Serif" font-size="10.00">+</text>
<text text-anchor="start" x="630" y="-1564.5" font-family="Helvetica,sans-Serif" font-size="10.00">$syncChunkLoad</text>
<text text-anchor="start" x="617" y="-1549.5" font-family="Helvetica,sans-Serif" font-size="10.00">+</text>
<text text-anchor="start" x="630" y="-1549.5" font-family="Helvetica,sans-Serif" font-size="10.00">$syncChunkLoadData</text>
<text text-anchor="start" x="617" y="-1534.5" font-family="Helvetica,sans-Serif" font-size="10.00">+</text>
<text text-anchor="start" x="630" y="-1534.5" font-family="Helvetica,sans-Serif" font-size="10.00">$syncChunkLoadEntities</text>
<text text-anchor="start" x="617" y="-1519.5" font-family="Helvetica,sans-Serif" font-size="10.00">+</text>
<text text-anchor="start" x="630" y="-1519.5" font-family="Helvetica,sans-Serif" font-size="10.00">$syncChunkLoadFixInvalid</text>
<text text-anchor="start" x="630" y="-1508.5" font-family="Helvetica,sans-Serif" font-size="10.00">Blocks</text>
<text text-anchor="start" x="617" y="-1493.5" font-family="Helvetica,sans-Serif" font-size="10.00">+</text>
<text text-anchor="start" x="630" y="-1493.5" font-family="Helvetica,sans-Serif" font-size="10.00">$syncChunkLoadTileEntities</text>
<text text-anchor="start" x="617" y="-1478.5" font-family="Helvetica,sans-Serif" font-size="10.00">+</text>
<text text-anchor="start" x="630" y="-1478.5" font-family="Helvetica,sans-Serif" font-size="10.00">$syncChunkSave</text>
<text text-anchor="start" x="617" y="-1463.5" font-family="Helvetica,sans-Serif" font-size="10.00">+</text>
<text text-anchor="start" x="630" y="-1463.5" font-family="Helvetica,sans-Serif" font-size="10.00">$syncChunkSend</text>
<text text-anchor="start" x="617" y="-1448.5" font-family="Helvetica,sans-Serif" font-size="10.00">+</text>
<text text-anchor="start" x="630" y="-1448.5" font-family="Helvetica,sans-Serif" font-size="10.00">$syncChunkSendPrepare</text>
<text text-anchor="start" x="617" y="-1433.5" font-family="Helvetica,sans-Serif" font-size="10.00">+</text>
<text text-anchor="start" x="630" y="-1433.5" font-family="Helvetica,sans-Serif" font-size="10.00">$syncDataSave</text>
<text text-anchor="start" x="617" y="-1418.5" font-family="Helvetica,sans-Serif" font-size="10.00">+</text>
<text text-anchor="start" x="630" y="-1418.5" font-family="Helvetica,sans-Serif" font-size="10.00">$tileTick</text>
<text text-anchor="start" x="617" y="-1403.5" font-family="Helvetica,sans-Serif" font-size="10.00">+</text>
<text text-anchor="start" x="630" y="-1403.5" font-family="Helvetica,sans-Serif" font-size="10.00">__construct()</text>
<polygon fill="#bfbfbf" stroke="#bfbfbf" points="613,-1630.5 613,-1630.5 780,-1630.5 780,-1630.5 613,-1630.5"/>
<polygon fill="#bfbfbf" stroke="#bfbfbf" points="613,-1413.5 613,-1413.5 628,-1413.5 628,-1413.5 613,-1413.5"/>
<polygon fill="#bfbfbf" stroke="#bfbfbf" points="628,-1413.5 628,-1413.5 780,-1413.5 780,-1413.5 628,-1413.5"/>
<polygon fill="none" stroke="#bfbfbf" points="612.5,-1397 612.5,-1648 779.5,-1648 779.5,-1397 612.5,-1397"/>
</a>
</g>
</g>
<!-- Node10&#45;&gt;Node8 -->
<g id="edge9_Node000008_Node000010" class="edge">
<title>Node10&#45;&gt;Node8</title>
<g id="a_edge9_Node000008_Node000010"><a xlink:title=" ">
<path fill="none" stroke="#63b8ff" d="M654.52,-1396.75C650.73,-1385.36 646.82,-1373.59 642.84,-1361.61"/>
<polygon fill="none" stroke="#63b8ff" points="642.79,-1361.46 637.1,-1357.03 639,-1350.07 644.69,-1354.51 642.79,-1361.46"/>
</a>
</g>
<text text-anchor="middle" x="673.5" y="-1371" font-family="Helvetica,sans-Serif" font-size="10.00" fill="grey"> +$timings</text>
</g>
<!-- Node11 -->
<g id="Node000011" class="node">
<title>Node11</title>
<g id="a_Node000011"><a xlink:href="../../d7/d9b/classpocketmine_1_1timings_1_1_timings_handler.html" target="_top" xlink:title=" ">
<polygon fill="white" stroke="transparent" points="776,-2120 616,-2120 616,-1805 776,-1805 776,-2120"/>
<text text-anchor="start" x="647.5" y="-2107.5" font-family="Helvetica,sans-Serif" font-size="10.00">pocketmine\timings</text>
<text text-anchor="start" x="655.5" y="-2096.5" font-family="Helvetica,sans-Serif" font-size="10.00">\TimingsHandler</text>
<text text-anchor="start" x="694" y="-2081.5" font-family="Helvetica,sans-Serif" font-size="10.00"> </text>
<text text-anchor="start" x="620" y="-2066.5" font-family="Helvetica,sans-Serif" font-size="10.00">+</text>
<text text-anchor="start" x="633" y="-2066.5" font-family="Helvetica,sans-Serif" font-size="10.00">__construct()</text>
<text text-anchor="start" x="620" y="-2051.5" font-family="Helvetica,sans-Serif" font-size="10.00">+</text>
<text text-anchor="start" x="633" y="-2051.5" font-family="Helvetica,sans-Serif" font-size="10.00">getGroup()</text>
<text text-anchor="start" x="620" y="-2036.5" font-family="Helvetica,sans-Serif" font-size="10.00">+</text>
<text text-anchor="start" x="633" y="-2036.5" font-family="Helvetica,sans-Serif" font-size="10.00">getName()</text>
<text text-anchor="start" x="620" y="-2021.5" font-family="Helvetica,sans-Serif" font-size="10.00">+</text>
<text text-anchor="start" x="633" y="-2021.5" font-family="Helvetica,sans-Serif" font-size="10.00">reset()</text>
<text text-anchor="start" x="620" y="-2006.5" font-family="Helvetica,sans-Serif" font-size="10.00">+</text>
<text text-anchor="start" x="633" y="-2006.5" font-family="Helvetica,sans-Serif" font-size="10.00">startTiming()</text>
<text text-anchor="start" x="620" y="-1991.5" font-family="Helvetica,sans-Serif" font-size="10.00">+</text>
<text text-anchor="start" x="633" y="-1991.5" font-family="Helvetica,sans-Serif" font-size="10.00">stopTiming()</text>
<text text-anchor="start" x="620" y="-1976.5" font-family="Helvetica,sans-Serif" font-size="10.00">+</text>
<text text-anchor="start" x="633" y="-1976.5" font-family="Helvetica,sans-Serif" font-size="10.00">time()</text>
<text text-anchor="start" x="620" y="-1961.5" font-family="Helvetica,sans-Serif" font-size="10.00">+</text>
<text text-anchor="start" x="633" y="-1961.5" font-family="Helvetica,sans-Serif" font-size="10.00">getCollectCallbacks()</text>
<text text-anchor="start" x="620" y="-1946.5" font-family="Helvetica,sans-Serif" font-size="10.00">+</text>
<text text-anchor="start" x="633" y="-1946.5" font-family="Helvetica,sans-Serif" font-size="10.00">getReloadCallbacks()</text>
<text text-anchor="start" x="620" y="-1931.5" font-family="Helvetica,sans-Serif" font-size="10.00">+</text>
<text text-anchor="start" x="633" y="-1931.5" font-family="Helvetica,sans-Serif" font-size="10.00">getStartTime()</text>
<text text-anchor="start" x="620" y="-1916.5" font-family="Helvetica,sans-Serif" font-size="10.00">+</text>
<text text-anchor="start" x="633" y="-1916.5" font-family="Helvetica,sans-Serif" font-size="10.00">getToggleCallbacks()</text>
<text text-anchor="start" x="620" y="-1901.5" font-family="Helvetica,sans-Serif" font-size="10.00">+</text>
<text text-anchor="start" x="633" y="-1901.5" font-family="Helvetica,sans-Serif" font-size="10.00">isEnabled()</text>
<text text-anchor="start" x="620" y="-1886.5" font-family="Helvetica,sans-Serif" font-size="10.00">+</text>
<text text-anchor="start" x="633" y="-1886.5" font-family="Helvetica,sans-Serif" font-size="10.00">printCurrentThreadRecords()</text>
<text text-anchor="start" x="620" y="-1871.5" font-family="Helvetica,sans-Serif" font-size="10.00">+</text>
<text text-anchor="start" x="633" y="-1871.5" font-family="Helvetica,sans-Serif" font-size="10.00">printTimings()</text>
<text text-anchor="start" x="620" y="-1856.5" font-family="Helvetica,sans-Serif" font-size="10.00">+</text>
<text text-anchor="start" x="633" y="-1856.5" font-family="Helvetica,sans-Serif" font-size="10.00">reload()</text>
<text text-anchor="start" x="620" y="-1841.5" font-family="Helvetica,sans-Serif" font-size="10.00">+</text>
<text text-anchor="start" x="633" y="-1841.5" font-family="Helvetica,sans-Serif" font-size="10.00">requestPrintTimings()</text>
<text text-anchor="start" x="620" y="-1826.5" font-family="Helvetica,sans-Serif" font-size="10.00">+</text>
<text text-anchor="start" x="633" y="-1826.5" font-family="Helvetica,sans-Serif" font-size="10.00">setEnabled()</text>
<text text-anchor="start" x="620" y="-1811.5" font-family="Helvetica,sans-Serif" font-size="10.00">+</text>
<text text-anchor="start" x="633" y="-1811.5" font-family="Helvetica,sans-Serif" font-size="10.00">tick()</text>
<polygon fill="#666666" stroke="#666666" points="616,-2091.5 616,-2091.5 776,-2091.5 776,-2091.5 616,-2091.5"/>
<polygon fill="#666666" stroke="#666666" points="616,-2076.5 616,-2076.5 776,-2076.5 776,-2076.5 616,-2076.5"/>
<polygon fill="none" stroke="#666666" points="616,-1805 616,-2120 776,-2120 776,-1805 616,-1805"/>
</a>
</g>
</g>
<!-- Node11&#45;&gt;Node10 -->
<g id="edge10_Node000010_Node000011" class="edge">
<title>Node11&#45;&gt;Node10</title>
<g id="a_edge10_Node000010_Node000011"><a xlink:title=" ">
<path fill="none" stroke="#63b8ff" d="M696,-1804.92C696,-1757.69 696,-1706.24 696,-1660.4"/>
<polygon fill="none" stroke="#63b8ff" points="696,-1660.25 692,-1654.25 696,-1648.25 700,-1654.25 696,-1660.25"/>
</a>
</g>
<text text-anchor="middle" x="773.5" y="-1779" font-family="Helvetica,sans-Serif" font-size="10.00" fill="grey"> +$chunkPopulationCompletion</text>
<text text-anchor="middle" x="773.5" y="-1768" font-family="Helvetica,sans-Serif" font-size="10.00" fill="grey">+$chunkPopulationOrder</text>
<text text-anchor="middle" x="773.5" y="-1757" font-family="Helvetica,sans-Serif" font-size="10.00" fill="grey">+$doBlockLightUpdates</text>
<text text-anchor="middle" x="773.5" y="-1746" font-family="Helvetica,sans-Serif" font-size="10.00" fill="grey">+$doBlockSkyLightUpdates</text>
<text text-anchor="middle" x="773.5" y="-1735" font-family="Helvetica,sans-Serif" font-size="10.00" fill="grey">+$doChunkGC</text>
<text text-anchor="middle" x="773.5" y="-1724" font-family="Helvetica,sans-Serif" font-size="10.00" fill="grey">+$doChunkUnload</text>
<text text-anchor="middle" x="773.5" y="-1713" font-family="Helvetica,sans-Serif" font-size="10.00" fill="grey">+$doTick</text>
<text text-anchor="middle" x="773.5" y="-1702" font-family="Helvetica,sans-Serif" font-size="10.00" fill="grey">+$entityTick</text>
<text text-anchor="middle" x="773.5" y="-1691" font-family="Helvetica,sans-Serif" font-size="10.00" fill="grey">+$neighbourBlockUpdates</text>
<text text-anchor="middle" x="773.5" y="-1680" font-family="Helvetica,sans-Serif" font-size="10.00" fill="grey">+$randomChunkUpdates</text>
<text text-anchor="middle" x="773.5" y="-1669" font-family="Helvetica,sans-Serif" font-size="10.00" fill="grey">...</text>
</g>
<!-- Node12 -->
<g id="Node000012" class="node">
<title>Node12</title>
<g id="a_Node000012"><a xlink:href="../../d2/df5/interfacepocketmine_1_1block_1_1utils_1_1_any_facing.html" target="_top" xlink:title=" ">
<polygon fill="white" stroke="transparent" points="479.5,-281 358.5,-281 358.5,-206 479.5,-206 479.5,-281"/>
<text text-anchor="start" x="364" y="-268.5" font-family="Helvetica,sans-Serif" font-size="10.00">pocketmine\block\utils</text>
<text text-anchor="start" x="393" y="-257.5" font-family="Helvetica,sans-Serif" font-size="10.00">\AnyFacing</text>
<text text-anchor="start" x="417.5" y="-242.5" font-family="Helvetica,sans-Serif" font-size="10.00"> </text>
<text text-anchor="start" x="374" y="-227.5" font-family="Helvetica,sans-Serif" font-size="10.00">+</text>
<text text-anchor="start" x="398" y="-227.5" font-family="Helvetica,sans-Serif" font-size="10.00">getFacing()</text>
<text text-anchor="start" x="374" y="-212.5" font-family="Helvetica,sans-Serif" font-size="10.00">+</text>
<text text-anchor="start" x="398" y="-212.5" font-family="Helvetica,sans-Serif" font-size="10.00">setFacing()</text>
<polygon fill="#bfbfbf" stroke="#bfbfbf" points="359,-252.5 359,-252.5 480,-252.5 480,-252.5 359,-252.5"/>
<polygon fill="#bfbfbf" stroke="#bfbfbf" points="359,-237.5 359,-237.5 480,-237.5 480,-237.5 359,-237.5"/>
<polygon fill="none" stroke="#bfbfbf" points="358.5,-206 358.5,-281 479.5,-281 479.5,-206 358.5,-206"/>
</a>
</g>
</g>
<!-- Node12&#45;&gt;Node1 -->
<g id="edge11_Node000001_Node000012" class="edge">
<title>Node12&#45;&gt;Node1</title>
<g id="a_edge11_Node000001_Node000012"><a xlink:title=" ">
<path fill="none" stroke="#63b8ff" d="M397.35,-196.58C393.27,-187.92 388.89,-178.62 384.46,-169.22"/>
<polygon fill="none" stroke="#63b8ff" points="394.22,-198.14 401.65,-205.69 400.55,-195.15 394.22,-198.14"/>
</a>
</g>
</g>
</g>
</svg>
