<?xml version="1.0" encoding="UTF-8" standalone="no"?>
<!DOCTYPE svg PUBLIC "-//W3C//DTD SVG 1.1//EN"
 "http://www.w3.org/Graphics/SVG/1.1/DTD/svg11.dtd">
<!-- Generated by graphviz version 2.43.0 (0)
 -->
<!-- Title: pocketmine\network\mcpe\protocol\types\SyncWorldClocksAddTimeMarker Pages: 1 -->
<svg width="182pt" height="276pt"
 viewBox="0.00 0.00 182.00 276.00" xmlns="http://www.w3.org/2000/svg" xmlns:xlink="http://www.w3.org/1999/xlink">

<svg id="main" version="1.1" xmlns="http://www.w3.org/2000/svg" xmlns:xlink="http://www.w3.org/1999/xlink" xml:space="preserve">

<style type="text/css"><![CDATA[
.node, .edge {opacity: 0.7;}
.node.selected, .edge.selected {opacity: 1;}
.edge:hover path { stroke: red; }
.edge:hover polygon { stroke: red; fill: red; }
]]></style>
<script type="application/ecmascript" xlink:href="../../svg.min.js"/>
<svg id="graph" class="graph">
<g id="graph0" class="graph" transform="scale(1 1) rotate(0) translate(4 272)">
<title>pocketmine\network\mcpe\protocol\types\SyncWorldClocksAddTimeMarker</title>
<!-- Node1 -->
<g id="Node000001" class="node">
<title>Node1</title>
<g id="a_Node000001"><a xlink:title=" ">
<polygon fill="#999999" stroke="transparent" points="174,-146 0,-146 0,0 174,0 174,-146"/>
<text text-anchor="start" x="5" y="-134" font-family="Helvetica,sans-Serif" font-size="10.00">pocketmine\network</text>
<text text-anchor="start" x="5" y="-123" font-family="Helvetica,sans-Serif" font-size="10.00">\mcpe\protocol\types</text>
<text text-anchor="start" x="5" y="-112" font-family="Helvetica,sans-Serif" font-size="10.00">\SyncWorldClocksAddTimeMarker</text>
<text text-anchor="start" x="26" y="-97" font-family="Helvetica,sans-Serif" font-size="10.00">+</text>
<text text-anchor="start" x="61" y="-97" font-family="Helvetica,sans-Serif" font-size="10.00">ID</text>
<text text-anchor="start" x="26" y="-82" font-family="Helvetica,sans-Serif" font-size="10.00">+</text>
<text text-anchor="start" x="61" y="-82" font-family="Helvetica,sans-Serif" font-size="10.00">__construct()</text>
<text text-anchor="start" x="26" y="-67" font-family="Helvetica,sans-Serif" font-size="10.00">+</text>
<text text-anchor="start" x="61" y="-67" font-family="Helvetica,sans-Serif" font-size="10.00">getClockId()</text>
<text text-anchor="start" x="26" y="-52" font-family="Helvetica,sans-Serif" font-size="10.00">+</text>
<text text-anchor="start" x="61" y="-52" font-family="Helvetica,sans-Serif" font-size="10.00">getMarkers()</text>
<text text-anchor="start" x="26" y="-37" font-family="Helvetica,sans-Serif" font-size="10.00">+</text>
<text text-anchor="start" x="61" y="-37" font-family="Helvetica,sans-Serif" font-size="10.00">getTypeId()</text>
<text text-anchor="start" x="26" y="-22" font-family="Helvetica,sans-Serif" font-size="10.00">+</text>
<text text-anchor="start" x="61" y="-22" font-family="Helvetica,sans-Serif" font-size="10.00">write()</text>
<text text-anchor="start" x="26" y="-7" font-family="Helvetica,sans-Serif" font-size="10.00">+</text>
<text text-anchor="start" x="61" y="-7" font-family="Helvetica,sans-Serif" font-size="10.00">read()</text>
<polygon fill="#666666" stroke="#666666" points="0,-107 0,-107 174,-107 174,-107 0,-107"/>
<polygon fill="#666666" stroke="#666666" points="0,-92 0,-92 59,-92 59,-92 0,-92"/>
<polygon fill="#666666" stroke="#666666" points="59,-92 59,-92 174,-92 174,-92 59,-92"/>
<polygon fill="none" stroke="#666666" points="0,0 0,-146 174,-146 174,0 0,0"/>
</a>
</g>
</g>
<!-- Node2 -->
<g id="Node000002" class="node">
<title>Node2</title>
<g id="a_Node000002"><a xlink:href="../../d9/dad/classpocketmine_1_1network_1_1mcpe_1_1protocol_1_1types_1_1_sync_world_clocks_payload.html" target="_top" xlink:title=" ">
<polygon fill="white" stroke="transparent" points="154.5,-268 19.5,-268 19.5,-182 154.5,-182 154.5,-268"/>
<text text-anchor="start" x="25" y="-256" font-family="Helvetica,sans-Serif" font-size="10.00">pocketmine\network</text>
<text text-anchor="start" x="25" y="-245" font-family="Helvetica,sans-Serif" font-size="10.00">\mcpe\protocol\types</text>
<text text-anchor="start" x="25" y="-234" font-family="Helvetica,sans-Serif" font-size="10.00">\SyncWorldClocksPayload</text>
<text text-anchor="start" x="85.5" y="-219" font-family="Helvetica,sans-Serif" font-size="10.00"> </text>
<text text-anchor="start" x="38.5" y="-204" font-family="Helvetica,sans-Serif" font-size="10.00">+</text>
<text text-anchor="start" x="66" y="-204" font-family="Helvetica,sans-Serif" font-size="10.00">getTypeId()</text>
<text text-anchor="start" x="38.5" y="-189" font-family="Helvetica,sans-Serif" font-size="10.00">+</text>
<text text-anchor="start" x="66" y="-189" font-family="Helvetica,sans-Serif" font-size="10.00">write()</text>
<polygon fill="#666666" stroke="#666666" points="20,-229 20,-229 155,-229 155,-229 20,-229"/>
<polygon fill="#666666" stroke="#666666" points="20,-214 20,-214 155,-214 155,-214 20,-214"/>
<polygon fill="none" stroke="#666666" points="19.5,-182 19.5,-268 154.5,-268 154.5,-182 19.5,-182"/>
</a>
</g>
</g>
<!-- Node2&#45;&gt;Node1 -->
<g id="edge1_Node000001_Node000002" class="edge">
<title>Node2&#45;&gt;Node1</title>
<g id="a_edge1_Node000001_Node000002"><a xlink:title=" ">
<path fill="none" stroke="#63b8ff" d="M87,-171.66C87,-163.44 87,-154.82 87,-146.25"/>
<polygon fill="none" stroke="#63b8ff" points="83.5,-171.82 87,-181.82 90.5,-171.82 83.5,-171.82"/>
</a>
</g>
</g>
</g>
</svg>
</svg>

<style type='text/css'>
<![CDATA[
[data-mouse-over-selected='false'] { opacity: 0.7; }
[data-mouse-over-selected='true']  { opacity: 1.0; }
]]>
</style>
<script type="application/ecmascript"><![CDATA[
document.addEventListener('DOMContentLoaded', (event) => {
  highlightEdges();
  highlightAdjacentNodes();
});
]]></script>
</svg>
