<?xml version="1.0" encoding="UTF-8" standalone="no"?>
<!DOCTYPE svg PUBLIC "-//W3C//DTD SVG 1.1//EN"
 "http://www.w3.org/Graphics/SVG/1.1/DTD/svg11.dtd">
<!-- Generated by graphviz version 2.43.0 (0)
 -->
<!-- Title: pocketmine\data\bedrock\block\convert\BlockStateToObjectDeserializer\deserializeBlock Pages: 1 -->
<svg width="410pt" height="50pt"
 viewBox="0.00 0.00 410.00 50.00" xmlns="http://www.w3.org/2000/svg" xmlns:xlink="http://www.w3.org/1999/xlink">
<g id="graph0" class="graph" transform="scale(1 1) rotate(0) translate(4 46)">
<title>pocketmine\data\bedrock\block\convert\BlockStateToObjectDeserializer\deserializeBlock</title>
<polygon fill="white" stroke="transparent" points="-4,4 -4,-46 406,-46 406,4 -4,4"/>
<!-- Node1 -->
<g id="node1" class="node">
<title>Node1</title>
<g id="a_node1"><a xlink:title=" ">
<polygon fill="#bfbfbf" stroke="black" points="219,-0.5 219,-41.5 402,-41.5 402,-0.5 219,-0.5"/>
<text text-anchor="start" x="227" y="-29.5" font-family="Helvetica,sans-Serif" font-size="10.00">pocketmine\data\bedrock</text>
<text text-anchor="start" x="227" y="-18.5" font-family="Helvetica,sans-Serif" font-size="10.00">\block\convert\BlockStateToObject</text>
<text text-anchor="middle" x="310.5" y="-7.5" font-family="Helvetica,sans-Serif" font-size="10.00">Deserializer\deserializeBlock</text>
</a>
</g>
</g>
<!-- Node2 -->
<g id="node2" class="node">
<title>Node2</title>
<g id="a_node2"><a xlink:href="../../d1/d9c/classpocketmine_1_1data_1_1bedrock_1_1block_1_1convert_1_1_block_state_to_object_deserializer.html#a97fff696d9921f374e9f0d84311b2921" target="_top" xlink:title=" ">
<polygon fill="white" stroke="black" points="0,-0.5 0,-41.5 183,-41.5 183,-0.5 0,-0.5"/>
<text text-anchor="start" x="8" y="-29.5" font-family="Helvetica,sans-Serif" font-size="10.00">pocketmine\data\bedrock</text>
<text text-anchor="start" x="8" y="-18.5" font-family="Helvetica,sans-Serif" font-size="10.00">\block\convert\BlockStateToObject</text>
<text text-anchor="middle" x="91.5" y="-7.5" font-family="Helvetica,sans-Serif" font-size="10.00">Deserializer\deserialize</text>
</a>
</g>
</g>
<!-- Node1&#45;&gt;Node2 -->
<g id="edge1" class="edge">
<title>Node1&#45;&gt;Node2</title>
<path fill="none" stroke="midnightblue" d="M208.5,-21C200.08,-21 191.59,-21 183.26,-21"/>
<polygon fill="midnightblue" stroke="midnightblue" points="208.73,-24.5 218.73,-21 208.73,-17.5 208.73,-24.5"/>
</g>
</g>
</svg>
