<?xml version="1.0" encoding="UTF-8" standalone="no"?>
<!DOCTYPE svg PUBLIC "-//W3C//DTD SVG 1.1//EN"
 "http://www.w3.org/Graphics/SVG/1.1/DTD/svg11.dtd">
<!-- Generated by graphviz version 2.43.0 (0)
 -->
<!-- Title: pocketmine Pages: 1 -->
<!--zoomable 94 -->

<svg id="main" version="1.1" xmlns="http://www.w3.org/2000/svg" xmlns:xlink="http://www.w3.org/1999/xlink" xml:space="preserve" onload="init(evt)">

<style type="text/css"><![CDATA[
.node, .edge {opacity: 0.7;}
.node.selected, .edge.selected {opacity: 1;}
.edge:hover path { stroke: red; }
.edge:hover polygon { stroke: red; fill: red; }
]]></style>

<defs>
  <circle id="rim" cx="0" cy="0" r="7"/>
  <circle id="rim2" cx="0" cy="0" r="3.5"/>
  <g id="zoomPlus">
    <use xlink:href="#rim" fill="#404040"><set attributeName="fill" to="#808080" begin="zoomplus.mouseover" end="zoomplus.mouseout"/></use>
    <path d="M-4,0h8M0,-4v8" fill="none" stroke="white" stroke-width="1.5" pointer-events="none"/>
  </g>
  <g id="zoomMin">
    <use xlink:href="#rim" fill="#404040"><set attributeName="fill" to="#808080" begin="zoomminus.mouseover" end="zoomminus.mouseout"/></use>
    <path d="M-4,0h8" fill="none" stroke="white" stroke-width="1.5" pointer-events="none"/>
  </g>
  <g id="arrowUp" transform="translate(30 24)">
    <use xlink:href="#rim"/>
    <path pointer-events="none" fill="none" stroke="white" stroke-width="1.5" d="M0,-3.0v7 M-2.5,-0.5L0,-3.0L2.5,-0.5"/>
  </g>
  <g id="arrowRight" transform="rotate(90) translate(36 -43)">
    <use xlink:href="#rim"/>
    <path pointer-events="none" fill="none" stroke="white" stroke-width="1.5" d="M0,-3.0v7 M-2.5,-0.5L0,-3.0L2.5,-0.5"/>
  </g>
  <g id="arrowDown" transform="rotate(180) translate(-30 -48)">
    <use xlink:href="#rim"/>
    <path pointer-events="none" fill="none" stroke="white" stroke-width="1.5" d="M0,-3.0v7 M-2.5,-0.5L0,-3.0L2.5,-0.5"/>
  </g>
  <g id="arrowLeft" transform="rotate(270) translate(-36 17)">
    <use xlink:href="#rim"/>
    <path pointer-events="none" fill="none" stroke="white" stroke-width="1.5" d="M0,-3.0v7 M-2.5,-0.5L0,-3.0L2.5,-0.5"/>
  </g>
  <g id="resetDef">
    <use xlink:href="#rim2" fill="#404040"><set attributeName="fill" to="#808080" begin="reset.mouseover" end="reset.mouseout"/></use>
  </g>
</defs>
<script type="application/ecmascript">
var viewWidth = 1082;
var viewHeight = 94;
var sectionId = 'dynsection-0';
</script>
<script type="application/ecmascript" xlink:href="svg.min.js"/>
<svg id="graph" class="graph">
<g id="viewport">
<title>pocketmine</title>
<g id="clust1" class="cluster">
<title>clusterdir_c5da75fdc1d6c57999112ed830c87a3c</title>
<g id="a_clust1"><a xlink:href="dir_c5da75fdc1d6c57999112ed830c87a3c.html" target="_top" xlink:title="vendor">
<polygon fill="#edf0f7" stroke="#404040" stroke-dasharray="5,2" points="8,-8 8,-78 1066,-78 1066,-8 8,-8"/>
<text text-anchor="middle" x="537" y="-66" font-family="Helvetica,sans-Serif" font-size="10.00">vendor</text>
</a>
</g>
</g>
<g id="clust2" class="cluster">
<title>clusterdir_67ec95640dccd85af7425ce27c77136c</title>
<g id="a_clust2"><a xlink:href="dir_67ec95640dccd85af7425ce27c77136c.html" target="_top">
<polygon fill="#edf0f7" stroke="#404040" stroke-width="2" points="16,-16 16,-51 1058,-51 1058,-16 16,-16"/>
</a>
</g>
</g>
<!-- dir_67ec95640dccd85af7425ce27c77136c -->
<g id="node1" class="node">
<title>dir_67ec95640dccd85af7425ce27c77136c</title>
<text text-anchor="middle" x="1013" y="-31" font-family="Helvetica,sans-Serif" font-size="10.00">pocketmine</text>
</g>
<!-- dir_376e7bdaa6d4a6cea7bb583dcbf64fc9 -->
<g id="node2" class="node">
<title>dir_376e7bdaa6d4a6cea7bb583dcbf64fc9</title>
<g id="a_node2"><a xlink:href="dir_376e7bdaa6d4a6cea7bb583dcbf64fc9.html" target="_top" xlink:title="bedrock&#45;data">
<polygon fill="#a2b4d6" stroke="#404040" points="957.5,-43 876.5,-43 876.5,-24 957.5,-24 957.5,-43"/>
<text text-anchor="middle" x="917" y="-31" font-family="Helvetica,sans-Serif" font-size="10.00">bedrock&#45;data</text>
</a>
</g>
</g>
<!-- dir_35c25ee8b73bfc2a0e7ec3dc66e7b1c9 -->
<g id="node3" class="node">
<title>dir_35c25ee8b73bfc2a0e7ec3dc66e7b1c9</title>
<g id="a_node3"><a xlink:href="dir_35c25ee8b73bfc2a0e7ec3dc66e7b1c9.html" target="_top" xlink:title="bedrock&#45;protocol">
<polygon fill="#a2b4d6" stroke="#404040" points="858.5,-43 759.5,-43 759.5,-24 858.5,-24 858.5,-43"/>
<text text-anchor="middle" x="809" y="-31" font-family="Helvetica,sans-Serif" font-size="10.00">bedrock&#45;protocol</text>
</a>
</g>
</g>
<!-- dir_20d97ab9eb4f51a93ceb36f1352bd8f0 -->
<g id="node4" class="node">
<title>dir_20d97ab9eb4f51a93ceb36f1352bd8f0</title>
<g id="a_node4"><a xlink:href="dir_20d97ab9eb4f51a93ceb36f1352bd8f0.html" target="_top" xlink:title="binaryutils">
<polygon fill="#a2b4d6" stroke="#404040" points="741,-43 673,-43 673,-24 741,-24 741,-43"/>
<text text-anchor="middle" x="707" y="-31" font-family="Helvetica,sans-Serif" font-size="10.00">binaryutils</text>
</a>
</g>
</g>
<!-- dir_4d4b67f10f5c573de213794e1c34a860 -->
<g id="node5" class="node">
<title>dir_4d4b67f10f5c573de213794e1c34a860</title>
<g id="a_node5"><a xlink:href="dir_4d4b67f10f5c573de213794e1c34a860.html" target="_top" xlink:title="callback&#45;validator">
<polygon fill="#a2b4d6" stroke="#404040" points="655,-43 551,-43 551,-24 655,-24 655,-43"/>
<text text-anchor="middle" x="603" y="-31" font-family="Helvetica,sans-Serif" font-size="10.00">callback&#45;validator</text>
</a>
</g>
</g>
<!-- dir_a63ebcc2f7b1a63914b5dceb3f4b5e8b -->
<g id="node6" class="node">
<title>dir_a63ebcc2f7b1a63914b5dceb3f4b5e8b</title>
<g id="a_node6"><a xlink:href="dir_a63ebcc2f7b1a63914b5dceb3f4b5e8b.html" target="_top" xlink:title="color">
<polygon fill="#a2b4d6" stroke="#404040" points="532.5,-43 491.5,-43 491.5,-24 532.5,-24 532.5,-43"/>
<text text-anchor="middle" x="512" y="-31" font-family="Helvetica,sans-Serif" font-size="10.00">color</text>
</a>
</g>
</g>
<!-- dir_582ef234c2298aaaef29e10a5ae7bbce -->
<g id="node7" class="node">
<title>dir_582ef234c2298aaaef29e10a5ae7bbce</title>
<g id="a_node7"><a xlink:href="dir_582ef234c2298aaaef29e10a5ae7bbce.html" target="_top" xlink:title="errorhandler">
<polygon fill="#a2b4d6" stroke="#404040" points="473.5,-43 396.5,-43 396.5,-24 473.5,-24 473.5,-43"/>
<text text-anchor="middle" x="435" y="-31" font-family="Helvetica,sans-Serif" font-size="10.00">errorhandler</text>
</a>
</g>
</g>
<!-- dir_efb60bdb276935829773856a552a996d -->
<g id="node8" class="node">
<title>dir_efb60bdb276935829773856a552a996d</title>
<g id="a_node8"><a xlink:href="dir_efb60bdb276935829773856a552a996d.html" target="_top" xlink:title="log">
<polygon fill="#a2b4d6" stroke="#404040" points="378,-43 346,-43 346,-24 378,-24 378,-43"/>
<text text-anchor="middle" x="362" y="-31" font-family="Helvetica,sans-Serif" font-size="10.00">log</text>
</a>
</g>
</g>
<!-- dir_6af29372318209bdbb325ad6a4576b13 -->
<g id="node9" class="node">
<title>dir_6af29372318209bdbb325ad6a4576b13</title>
<g id="a_node9"><a xlink:href="dir_6af29372318209bdbb325ad6a4576b13.html" target="_top" xlink:title="math">
<polygon fill="#a2b4d6" stroke="#404040" points="328,-43 286,-43 286,-24 328,-24 328,-43"/>
<text text-anchor="middle" x="307" y="-31" font-family="Helvetica,sans-Serif" font-size="10.00">math</text>
</a>
</g>
</g>
<!-- dir_1a17901ef04850eab3788e99ea4fdab1 -->
<g id="node10" class="node">
<title>dir_1a17901ef04850eab3788e99ea4fdab1</title>
<g id="a_node10"><a xlink:href="dir_1a17901ef04850eab3788e99ea4fdab1.html" target="_top" xlink:title="nbt">
<polygon fill="#a2b4d6" stroke="#404040" points="268,-43 236,-43 236,-24 268,-24 268,-43"/>
<text text-anchor="middle" x="252" y="-31" font-family="Helvetica,sans-Serif" font-size="10.00">nbt</text>
</a>
</g>
</g>
<!-- dir_b8c246ef830a7a3f40b614f5ad5d50aa -->
<g id="node11" class="node">
<title>dir_b8c246ef830a7a3f40b614f5ad5d50aa</title>
<g id="a_node11"><a xlink:href="dir_b8c246ef830a7a3f40b614f5ad5d50aa.html" target="_top" xlink:title="raklib">
<polygon fill="#a2b4d6" stroke="#404040" points="218,-43 174,-43 174,-24 218,-24 218,-43"/>
<text text-anchor="middle" x="196" y="-31" font-family="Helvetica,sans-Serif" font-size="10.00">raklib</text>
</a>
</g>
</g>
<!-- dir_b1b6a6773bf528619d8e5723c685dbd0 -->
<g id="node12" class="node">
<title>dir_b1b6a6773bf528619d8e5723c685dbd0</title>
<g id="a_node12"><a xlink:href="dir_b1b6a6773bf528619d8e5723c685dbd0.html" target="_top" xlink:title="raklib&#45;ipc">
<polygon fill="#a2b4d6" stroke="#404040" points="156,-43 94,-43 94,-24 156,-24 156,-43"/>
<text text-anchor="middle" x="125" y="-31" font-family="Helvetica,sans-Serif" font-size="10.00">raklib&#45;ipc</text>
</a>
</g>
</g>
<!-- dir_54570eb7b05a375cad27a3697bad1cc0 -->
<g id="node13" class="node">
<title>dir_54570eb7b05a375cad27a3697bad1cc0</title>
<g id="a_node13"><a xlink:href="dir_54570eb7b05a375cad27a3697bad1cc0.html" target="_top" xlink:title="snooze">
<polygon fill="#a2b4d6" stroke="#404040" points="75.5,-43 24.5,-43 24.5,-24 75.5,-24 75.5,-43"/>
<text text-anchor="middle" x="50" y="-31" font-family="Helvetica,sans-Serif" font-size="10.00">snooze</text>
</a>
</g>
</g>
</g>
</svg>

<g id="navigator" transform="translate(0 0)" fill="#404254">
  <rect fill="#f2f5e9" fill-opacity="0.5" stroke="#606060" stroke-width=".5" x="0" y="0" width="60" height="60"/>
  <use id="zoomplus" xlink:href="#zoomPlus" x="17" y="9" onmousedown="handleZoom(evt,'in')"/>
  <use id="zoomminus" xlink:href="#zoomMin" x="42" y="9" onmousedown="handleZoom(evt,'out')"/>
  <use id="reset" xlink:href="#resetDef" x="30" y="36" onmousedown="handleReset()"/>
   <use id="arrowup" xlink:href="#arrowUp" x="0" y="0" onmousedown="handlePan(0,-1)"/>
  <use id="arrowright" xlink:href="#arrowRight" x="0" y="0" onmousedown="handlePan(1,0)"/>
  <use id="arrowdown" xlink:href="#arrowDown" x="0" y="0" onmousedown="handlePan(0,1)"/>
  <use id="arrowleft" xlink:href="#arrowLeft" x="0" y="0" onmousedown="handlePan(-1,0)"/>
</g>
<svg viewBox="0 0 15 15" width="100%" height="30px" preserveAspectRatio="xMaxYMin meet">
 <g id="arrow_out" transform="scale(0.3 0.3)">
  <a xlink:href="dir_67ec95640dccd85af7425ce27c77136c_dep_org.svg" target="_base">
   <rect id="button" ry="5" rx="5" y="6" x="6" height="38" width="38"
        fill="#f2f5e9" fill-opacity="0.5" stroke="#606060" stroke-width="1.0"/>
   <path id="arrow"
     d="M 11.500037,31.436501 C 11.940474,20.09759 22.043105,11.32322 32.158766,21.979434 L 37.068811,17.246167 C 37.068811,17.246167 37.088388,32 37.088388,32 L 22.160133,31.978069 C 22.160133,31.978069 26.997745,27.140456 26.997745,27.140456 C 18.528582,18.264221 13.291696,25.230495 11.500037,31.436501 z"
     style="fill:#404040;"/>
  </a>
 </g>
</svg>

<style type='text/css'>
<![CDATA[
[data-mouse-over-selected='false'] { opacity: 0.7; }
[data-mouse-over-selected='true']  { opacity: 1.0; }
]]>
</style>
<script type="application/ecmascript"><![CDATA[
document.addEventListener('DOMContentLoaded', (event) => {
  highlightEdges();
  highlightAdjacentNodes();
});
]]></script>
</svg>
