<?xml version="1.0" encoding="UTF-8" standalone="no"?>
<!DOCTYPE svg PUBLIC "-//W3C//DTD SVG 1.1//EN"
 "http://www.w3.org/Graphics/SVG/1.1/DTD/svg11.dtd">
<!-- Generated by graphviz version 2.43.0 (0)
 -->
<!-- Title: Graphical Class Hierarchy Pages: 1 -->
<svg width="352pt" height="326pt"
 viewBox="0.00 0.00 352.00 326.00" xmlns="http://www.w3.org/2000/svg" xmlns:xlink="http://www.w3.org/1999/xlink">
<g id="graph0" class="graph" transform="scale(1 1) rotate(0) translate(4 322)">
<title>Graphical Class Hierarchy</title>
<!-- Node0 -->
<g id="Node000000" class="node">
<title>Node0</title>
<g id="a_Node000000"><a xlink:href="d2/da7/classpocketmine_1_1world_1_1generator_1_1object_1_1_tree.html" target="_top" xlink:title=" ">
<polygon fill="white" stroke="#666666" points="154,-174 0,-174 0,-144 154,-144 154,-174"/>
<text text-anchor="start" x="8" y="-162" font-family="Helvetica,sans-Serif" font-size="10.00">pocketmine\world\generator</text>
<text text-anchor="middle" x="77" y="-151" font-family="Helvetica,sans-Serif" font-size="10.00">\object\Tree</text>
</a>
</g>
</g>
<!-- Node1 -->
<g id="Node000001" class="node">
<title>Node1</title>
<g id="a_Node000001"><a xlink:href="dd/d40/classpocketmine_1_1world_1_1generator_1_1object_1_1_acacia_tree.html" target="_top" xlink:title=" ">
<polygon fill="white" stroke="#666666" points="344,-318 190,-318 190,-288 344,-288 344,-318"/>
<text text-anchor="start" x="198" y="-306" font-family="Helvetica,sans-Serif" font-size="10.00">pocketmine\world\generator</text>
<text text-anchor="middle" x="267" y="-295" font-family="Helvetica,sans-Serif" font-size="10.00">\object\AcaciaTree</text>
</a>
</g>
</g>
<!-- Node0&#45;&gt;Node1 -->
<g id="edge1672_Node000000_Node000001" class="edge">
<title>Node0&#45;&gt;Node1</title>
<g id="a_edge1672_Node000000_Node000001"><a xlink:title=" ">
<path fill="none" stroke="#63b8ff" d="M94.25,-182.73C113.93,-209.75 149.51,-253.45 190,-279 195.38,-282.4 201.29,-285.35 207.35,-287.9"/>
<polygon fill="#63b8ff" stroke="#63b8ff" points="96.86,-180.36 88.2,-174.26 91.16,-184.43 96.86,-180.36"/>
</a>
</g>
</g>
<!-- Node2 -->
<g id="Node000002" class="node">
<title>Node2</title>
<g id="a_Node000002"><a xlink:href="d5/d42/classpocketmine_1_1world_1_1generator_1_1object_1_1_azalea_tree.html" target="_top" xlink:title=" ">
<polygon fill="white" stroke="#666666" points="344,-270 190,-270 190,-240 344,-240 344,-270"/>
<text text-anchor="start" x="198" y="-258" font-family="Helvetica,sans-Serif" font-size="10.00">pocketmine\world\generator</text>
<text text-anchor="middle" x="267" y="-247" font-family="Helvetica,sans-Serif" font-size="10.00">\object\AzaleaTree</text>
</a>
</g>
</g>
<!-- Node0&#45;&gt;Node2 -->
<g id="edge1673_Node000000_Node000002" class="edge">
<title>Node0&#45;&gt;Node2</title>
<g id="a_edge1673_Node000000_Node000002"><a xlink:title=" ">
<path fill="none" stroke="#63b8ff" d="M106.3,-180.2C128.24,-195.88 159.89,-216.87 190,-231 197.02,-234.29 204.6,-237.29 212.16,-239.97"/>
<polygon fill="#63b8ff" stroke="#63b8ff" points="108.25,-177.3 98.1,-174.27 104.15,-182.97 108.25,-177.3"/>
</a>
</g>
</g>
<!-- Node3 -->
<g id="Node000003" class="node">
<title>Node3</title>
<g id="a_Node000003"><a xlink:href="d6/d75/classpocketmine_1_1world_1_1generator_1_1object_1_1_birch_tree.html" target="_top" xlink:title=" ">
<polygon fill="white" stroke="#666666" points="344,-222 190,-222 190,-192 344,-192 344,-222"/>
<text text-anchor="start" x="198" y="-210" font-family="Helvetica,sans-Serif" font-size="10.00">pocketmine\world\generator</text>
<text text-anchor="middle" x="267" y="-199" font-family="Helvetica,sans-Serif" font-size="10.00">\object\BirchTree</text>
</a>
</g>
</g>
<!-- Node0&#45;&gt;Node3 -->
<g id="edge1674_Node000000_Node000003" class="edge">
<title>Node0&#45;&gt;Node3</title>
<g id="a_edge1674_Node000000_Node000003"><a xlink:title=" ">
<path fill="none" stroke="#63b8ff" d="M146.86,-176.58C166.67,-181.64 188.1,-187.11 207.24,-192"/>
<polygon fill="#63b8ff" stroke="#63b8ff" points="147.52,-173.14 136.97,-174.06 145.79,-179.92 147.52,-173.14"/>
</a>
</g>
</g>
<!-- Node4 -->
<g id="Node000004" class="node">
<title>Node4</title>
<g id="a_Node000004"><a xlink:href="dc/ded/classpocketmine_1_1world_1_1generator_1_1object_1_1_jungle_tree.html" target="_top" xlink:title=" ">
<polygon fill="white" stroke="#666666" points="344,-174 190,-174 190,-144 344,-144 344,-174"/>
<text text-anchor="start" x="198" y="-162" font-family="Helvetica,sans-Serif" font-size="10.00">pocketmine\world\generator</text>
<text text-anchor="middle" x="267" y="-151" font-family="Helvetica,sans-Serif" font-size="10.00">\object\JungleTree</text>
</a>
</g>
</g>
<!-- Node0&#45;&gt;Node4 -->
<g id="edge1675_Node000000_Node000004" class="edge">
<title>Node0&#45;&gt;Node4</title>
<g id="a_edge1675_Node000000_Node000004"><a xlink:title=" ">
<path fill="none" stroke="#63b8ff" d="M164.42,-159C172.86,-159 181.37,-159 189.7,-159"/>
<polygon fill="#63b8ff" stroke="#63b8ff" points="164.2,-155.5 154.2,-159 164.2,-162.5 164.2,-155.5"/>
</a>
</g>
</g>
<!-- Node5 -->
<g id="Node000005" class="node">
<title>Node5</title>
<g id="a_Node000005"><a xlink:href="d8/d21/classpocketmine_1_1world_1_1generator_1_1object_1_1_nether_tree.html" target="_top" xlink:title=" ">
<polygon fill="white" stroke="#666666" points="344,-126 190,-126 190,-96 344,-96 344,-126"/>
<text text-anchor="start" x="198" y="-114" font-family="Helvetica,sans-Serif" font-size="10.00">pocketmine\world\generator</text>
<text text-anchor="middle" x="267" y="-103" font-family="Helvetica,sans-Serif" font-size="10.00">\object\NetherTree</text>
</a>
</g>
</g>
<!-- Node0&#45;&gt;Node5 -->
<g id="edge1676_Node000000_Node000005" class="edge">
<title>Node0&#45;&gt;Node5</title>
<g id="a_edge1676_Node000000_Node000005"><a xlink:title=" ">
<path fill="none" stroke="#63b8ff" d="M146.86,-141.42C166.67,-136.36 188.1,-130.89 207.24,-126"/>
<polygon fill="#63b8ff" stroke="#63b8ff" points="145.79,-138.08 136.97,-143.94 147.52,-144.86 145.79,-138.08"/>
</a>
</g>
</g>
<!-- Node6 -->
<g id="Node000006" class="node">
<title>Node6</title>
<g id="a_Node000006"><a xlink:href="d5/d61/classpocketmine_1_1world_1_1generator_1_1object_1_1_oak_tree.html" target="_top" xlink:title=" ">
<polygon fill="white" stroke="#666666" points="344,-78 190,-78 190,-48 344,-48 344,-78"/>
<text text-anchor="start" x="198" y="-66" font-family="Helvetica,sans-Serif" font-size="10.00">pocketmine\world\generator</text>
<text text-anchor="middle" x="267" y="-55" font-family="Helvetica,sans-Serif" font-size="10.00">\object\OakTree</text>
</a>
</g>
</g>
<!-- Node0&#45;&gt;Node6 -->
<g id="edge1677_Node000000_Node000006" class="edge">
<title>Node0&#45;&gt;Node6</title>
<g id="a_edge1677_Node000000_Node000006"><a xlink:title=" ">
<path fill="none" stroke="#63b8ff" d="M106.3,-137.8C128.24,-122.12 159.89,-101.13 190,-87 197.02,-83.71 204.6,-80.71 212.16,-78.03"/>
<polygon fill="#63b8ff" stroke="#63b8ff" points="104.15,-135.03 98.1,-143.73 108.25,-140.7 104.15,-135.03"/>
</a>
</g>
</g>
<!-- Node7 -->
<g id="Node000007" class="node">
<title>Node7</title>
<g id="a_Node000007"><a xlink:href="dd/dff/classpocketmine_1_1world_1_1generator_1_1object_1_1_spruce_tree.html" target="_top" xlink:title=" ">
<polygon fill="white" stroke="#666666" points="344,-30 190,-30 190,0 344,0 344,-30"/>
<text text-anchor="start" x="198" y="-18" font-family="Helvetica,sans-Serif" font-size="10.00">pocketmine\world\generator</text>
<text text-anchor="middle" x="267" y="-7" font-family="Helvetica,sans-Serif" font-size="10.00">\object\SpruceTree</text>
</a>
</g>
</g>
<!-- Node0&#45;&gt;Node7 -->
<g id="edge1678_Node000000_Node000007" class="edge">
<title>Node0&#45;&gt;Node7</title>
<g id="a_edge1678_Node000000_Node000007"><a xlink:title=" ">
<path fill="none" stroke="#63b8ff" d="M94.25,-135.27C113.93,-108.25 149.51,-64.55 190,-39 195.38,-35.6 201.29,-32.65 207.35,-30.1"/>
<polygon fill="#63b8ff" stroke="#63b8ff" points="91.16,-133.57 88.2,-143.74 96.86,-137.64 91.16,-133.57"/>
</a>
</g>
</g>
</g>
</svg>
