<?xml version="1.0" encoding="UTF-8" standalone="no"?>
<!DOCTYPE svg PUBLIC "-//W3C//DTD SVG 1.1//EN"
 "http://www.w3.org/Graphics/SVG/1.1/DTD/svg11.dtd">
<!-- Generated by graphviz version 2.43.0 (0)
 -->
<!-- Title: Graphical Class Hierarchy Pages: 1 -->
<svg width="293pt" height="167pt"
 viewBox="0.00 0.00 293.00 167.00" xmlns="http://www.w3.org/2000/svg" xmlns:xlink="http://www.w3.org/1999/xlink">
<g id="graph0" class="graph" transform="scale(1 1) rotate(0) translate(4 163)">
<title>Graphical Class Hierarchy</title>
<!-- Node0 -->
<g id="Node000000" class="node">
<title>Node0</title>
<g id="a_Node000000"><a xlink:href="dc/d4c/classpocketmine_1_1network_1_1mcpe_1_1protocol_1_1types_1_1_data_store_value.html" target="_top" xlink:title=" ">
<polygon fill="white" stroke="#666666" points="119,-100 0,-100 0,-59 119,-59 119,-100"/>
<text text-anchor="start" x="8" y="-88" font-family="Helvetica,sans-Serif" font-size="10.00">pocketmine\network</text>
<text text-anchor="start" x="8" y="-77" font-family="Helvetica,sans-Serif" font-size="10.00">\mcpe\protocol\types</text>
<text text-anchor="middle" x="59.5" y="-66" font-family="Helvetica,sans-Serif" font-size="10.00">\DataStoreValue</text>
</a>
</g>
</g>
<!-- Node1 -->
<g id="Node000001" class="node">
<title>Node1</title>
<g id="a_Node000001"><a xlink:href="d0/d6c/classpocketmine_1_1network_1_1mcpe_1_1protocol_1_1types_1_1_bool_data_store_value.html" target="_top" xlink:title=" ">
<polygon fill="white" stroke="#666666" points="279.5,-159 160.5,-159 160.5,-118 279.5,-118 279.5,-159"/>
<text text-anchor="start" x="168.5" y="-147" font-family="Helvetica,sans-Serif" font-size="10.00">pocketmine\network</text>
<text text-anchor="start" x="168.5" y="-136" font-family="Helvetica,sans-Serif" font-size="10.00">\mcpe\protocol\types</text>
<text text-anchor="middle" x="220" y="-125" font-family="Helvetica,sans-Serif" font-size="10.00">\BoolDataStoreValue</text>
</a>
</g>
</g>
<!-- Node0&#45;&gt;Node1 -->
<g id="edge1535_Node000000_Node000001" class="edge">
<title>Node0&#45;&gt;Node1</title>
<g id="a_edge1535_Node000000_Node000001"><a xlink:title=" ">
<path fill="none" stroke="#63b8ff" d="M125.54,-103.71C138.27,-108.45 151.5,-113.37 163.86,-117.98"/>
<polygon fill="#63b8ff" stroke="#63b8ff" points="126.53,-100.34 115.94,-100.14 124.09,-106.9 126.53,-100.34"/>
</a>
</g>
</g>
<!-- Node2 -->
<g id="Node000002" class="node">
<title>Node2</title>
<g id="a_Node000002"><a xlink:href="d5/d06/classpocketmine_1_1network_1_1mcpe_1_1protocol_1_1types_1_1_double_data_store_value.html" target="_top" xlink:title=" ">
<polygon fill="white" stroke="#666666" points="285,-100 155,-100 155,-59 285,-59 285,-100"/>
<text text-anchor="start" x="163" y="-88" font-family="Helvetica,sans-Serif" font-size="10.00">pocketmine\network</text>
<text text-anchor="start" x="163" y="-77" font-family="Helvetica,sans-Serif" font-size="10.00">\mcpe\protocol\types</text>
<text text-anchor="middle" x="220" y="-66" font-family="Helvetica,sans-Serif" font-size="10.00">\DoubleDataStoreValue</text>
</a>
</g>
</g>
<!-- Node0&#45;&gt;Node2 -->
<g id="edge1536_Node000000_Node000002" class="edge">
<title>Node0&#45;&gt;Node2</title>
<g id="a_edge1536_Node000000_Node000002"><a xlink:title=" ">
<path fill="none" stroke="#63b8ff" d="M129.3,-79.5C137.77,-79.5 146.41,-79.5 154.81,-79.5"/>
<polygon fill="#63b8ff" stroke="#63b8ff" points="129.07,-76 119.07,-79.5 129.07,-83 129.07,-76"/>
</a>
</g>
</g>
<!-- Node3 -->
<g id="Node000003" class="node">
<title>Node3</title>
<g id="a_Node000003"><a xlink:href="df/d72/classpocketmine_1_1network_1_1mcpe_1_1protocol_1_1types_1_1_string_data_store_value.html" target="_top" xlink:title=" ">
<polygon fill="white" stroke="#666666" points="282,-41 158,-41 158,0 282,0 282,-41"/>
<text text-anchor="start" x="166" y="-29" font-family="Helvetica,sans-Serif" font-size="10.00">pocketmine\network</text>
<text text-anchor="start" x="166" y="-18" font-family="Helvetica,sans-Serif" font-size="10.00">\mcpe\protocol\types</text>
<text text-anchor="middle" x="220" y="-7" font-family="Helvetica,sans-Serif" font-size="10.00">\StringDataStoreValue</text>
</a>
</g>
</g>
<!-- Node0&#45;&gt;Node3 -->
<g id="edge1537_Node000000_Node000003" class="edge">
<title>Node0&#45;&gt;Node3</title>
<g id="a_edge1537_Node000000_Node000003"><a xlink:title=" ">
<path fill="none" stroke="#63b8ff" d="M125.54,-55.29C138.27,-50.55 151.5,-45.63 163.86,-41.02"/>
<polygon fill="#63b8ff" stroke="#63b8ff" points="124.09,-52.1 115.94,-58.86 126.53,-58.66 124.09,-52.1"/>
</a>
</g>
</g>
</g>
</svg>
