<?xml version="1.0" encoding="UTF-8" standalone="no"?>
<!DOCTYPE svg PUBLIC "-//W3C//DTD SVG 1.1//EN"
 "http://www.w3.org/Graphics/SVG/1.1/DTD/svg11.dtd">
<!-- Generated by graphviz version 2.43.0 (0)
 -->
<!-- Title: Graphical Class Hierarchy Pages: 1 -->
<svg width="349pt" height="167pt"
 viewBox="0.00 0.00 349.00 167.00" xmlns="http://www.w3.org/2000/svg" xmlns:xlink="http://www.w3.org/1999/xlink">
<g id="graph0" class="graph" transform="scale(1 1) rotate(0) translate(4 163)">
<title>Graphical Class Hierarchy</title>
<!-- Node0 -->
<g id="Node000000" class="node">
<title>Node0</title>
<g id="a_Node000000"><a xlink:href="d8/df3/classpocketmine_1_1network_1_1mcpe_1_1protocol_1_1types_1_1login_1_1_jwt_body_rfc7519.html" target="_top" xlink:title=" ">
<polygon fill="white" stroke="#666666" points="126,-100 0,-100 0,-59 126,-59 126,-100"/>
<text text-anchor="start" x="8" y="-88" font-family="Helvetica,sans-Serif" font-size="10.00">pocketmine\network</text>
<text text-anchor="start" x="8" y="-77" font-family="Helvetica,sans-Serif" font-size="10.00">\mcpe\protocol\types</text>
<text text-anchor="middle" x="63" y="-66" font-family="Helvetica,sans-Serif" font-size="10.00">\login\JwtBodyRfc7519</text>
</a>
</g>
</g>
<!-- Node1 -->
<g id="Node000001" class="node">
<title>Node1</title>
<g id="a_Node000001"><a xlink:href="db/d48/classpocketmine_1_1network_1_1mcpe_1_1protocol_1_1types_1_1login_1_1legacy_1_1_legacy_auth_jwt_body.html" target="_top" xlink:title=" ">
<polygon fill="white" stroke="#666666" points="341,-159 162,-159 162,-118 341,-118 341,-159"/>
<text text-anchor="start" x="170" y="-147" font-family="Helvetica,sans-Serif" font-size="10.00">pocketmine\network</text>
<text text-anchor="start" x="170" y="-136" font-family="Helvetica,sans-Serif" font-size="10.00">\mcpe\protocol\types</text>
<text text-anchor="middle" x="251.5" y="-125" font-family="Helvetica,sans-Serif" font-size="10.00">\login\legacy\LegacyAuthJwtBody</text>
</a>
</g>
</g>
<!-- Node0&#45;&gt;Node1 -->
<g id="edge1618_Node000000_Node000001" class="edge">
<title>Node0&#45;&gt;Node1</title>
<g id="a_edge1618_Node000000_Node000001"><a xlink:title=" ">
<path fill="none" stroke="#63b8ff" d="M136.09,-102.31C152.35,-107.45 169.52,-112.88 185.48,-117.93"/>
<polygon fill="#63b8ff" stroke="#63b8ff" points="136.69,-98.83 126.1,-99.15 134.58,-105.5 136.69,-98.83"/>
</a>
</g>
</g>
<!-- Node2 -->
<g id="Node000002" class="node">
<title>Node2</title>
<g id="a_Node000002"><a xlink:href="d1/dd3/classpocketmine_1_1network_1_1mcpe_1_1protocol_1_1types_1_1login_1_1openid_1_1_self_signed_jwt_body.html" target="_top" xlink:title=" ">
<polygon fill="white" stroke="#666666" points="338.5,-100 164.5,-100 164.5,-59 338.5,-59 338.5,-100"/>
<text text-anchor="start" x="172.5" y="-88" font-family="Helvetica,sans-Serif" font-size="10.00">pocketmine\network</text>
<text text-anchor="start" x="172.5" y="-77" font-family="Helvetica,sans-Serif" font-size="10.00">\mcpe\protocol\types</text>
<text text-anchor="middle" x="251.5" y="-66" font-family="Helvetica,sans-Serif" font-size="10.00">\login\openid\SelfSignedJwtBody</text>
</a>
</g>
</g>
<!-- Node0&#45;&gt;Node2 -->
<g id="edge1619_Node000000_Node000002" class="edge">
<title>Node0&#45;&gt;Node2</title>
<g id="a_edge1619_Node000000_Node000002"><a xlink:title=" ">
<path fill="none" stroke="#63b8ff" d="M136.35,-79.5C145.55,-79.5 155.03,-79.5 164.42,-79.5"/>
<polygon fill="#63b8ff" stroke="#63b8ff" points="136.1,-76 126.1,-79.5 136.1,-83 136.1,-76"/>
</a>
</g>
</g>
<!-- Node3 -->
<g id="Node000003" class="node">
<title>Node3</title>
<g id="a_Node000003"><a xlink:href="d4/ddd/classpocketmine_1_1network_1_1mcpe_1_1protocol_1_1types_1_1login_1_1openid_1_1_xbox_auth_jwt_body.html" target="_top" xlink:title=" ">
<polygon fill="white" stroke="#666666" points="336.5,-41 166.5,-41 166.5,0 336.5,0 336.5,-41"/>
<text text-anchor="start" x="174.5" y="-29" font-family="Helvetica,sans-Serif" font-size="10.00">pocketmine\network</text>
<text text-anchor="start" x="174.5" y="-18" font-family="Helvetica,sans-Serif" font-size="10.00">\mcpe\protocol\types</text>
<text text-anchor="middle" x="251.5" y="-7" font-family="Helvetica,sans-Serif" font-size="10.00">\login\openid\XboxAuthJwtBody</text>
</a>
</g>
</g>
<!-- Node0&#45;&gt;Node3 -->
<g id="edge1620_Node000000_Node000003" class="edge">
<title>Node0&#45;&gt;Node3</title>
<g id="a_edge1620_Node000000_Node000003"><a xlink:title=" ">
<path fill="none" stroke="#63b8ff" d="M136.09,-56.69C152.35,-51.55 169.52,-46.12 185.48,-41.07"/>
<polygon fill="#63b8ff" stroke="#63b8ff" points="134.58,-53.5 126.1,-59.85 136.69,-60.17 134.58,-53.5"/>
</a>
</g>
</g>
</g>
</svg>
