<?xml version="1.0" encoding="UTF-8" standalone="no"?>
<!DOCTYPE svg PUBLIC "-//W3C//DTD SVG 1.1//EN"
 "http://www.w3.org/Graphics/SVG/1.1/DTD/svg11.dtd">
<!-- Generated by graphviz version 2.43.0 (0)
 -->
<!-- Title: Graphical Class Hierarchy Pages: 1 -->
<svg width="348pt" height="205pt"
 viewBox="0.00 0.00 348.00 204.50" xmlns="http://www.w3.org/2000/svg" xmlns:xlink="http://www.w3.org/1999/xlink">
<g id="graph0" class="graph" transform="scale(1 1) rotate(0) translate(4 200.5)">
<title>Graphical Class Hierarchy</title>
<!-- Node0 -->
<g id="Node000000" class="node">
<title>Node0</title>
<g id="a_Node000000"><a xlink:href="d1/d8a/classpocketmine_1_1data_1_1bedrock_1_1_legacy_to_string_id_map.html" target="_top" xlink:title=" ">
<polygon fill="white" stroke="#666666" points="140,-121.5 0,-121.5 0,-91.5 140,-91.5 140,-121.5"/>
<text text-anchor="start" x="8" y="-109.5" font-family="Helvetica,sans-Serif" font-size="10.00">pocketmine\data\bedrock</text>
<text text-anchor="middle" x="70" y="-98.5" font-family="Helvetica,sans-Serif" font-size="10.00">\LegacyToStringIdMap</text>
</a>
</g>
</g>
<!-- Node1 -->
<g id="Node000001" class="node">
<title>Node1</title>
<g id="a_Node000001"><a xlink:href="d2/d33/classpocketmine_1_1data_1_1bedrock_1_1_legacy_biome_id_to_string_id_map.html" target="_top" xlink:title=" ">
<polygon fill="white" stroke="#666666" points="340,-196.5 176,-196.5 176,-166.5 340,-166.5 340,-196.5"/>
<text text-anchor="start" x="184" y="-184.5" font-family="Helvetica,sans-Serif" font-size="10.00">pocketmine\data\bedrock</text>
<text text-anchor="middle" x="258" y="-173.5" font-family="Helvetica,sans-Serif" font-size="10.00">\LegacyBiomeIdToStringIdMap</text>
</a>
</g>
</g>
<!-- Node0&#45;&gt;Node1 -->
<g id="edge491_Node000000_Node000001" class="edge">
<title>Node0&#45;&gt;Node1</title>
<g id="a_edge491_Node000000_Node000001"><a xlink:title=" ">
<path fill="none" stroke="#63b8ff" d="M107.96,-126.3C127.78,-136.44 152.84,-148.51 176,-157.5 184.2,-160.68 193.01,-163.69 201.69,-166.43"/>
<polygon fill="#63b8ff" stroke="#63b8ff" points="109.45,-123.13 98.96,-121.64 106.23,-129.34 109.45,-123.13"/>
</a>
</g>
</g>
<!-- Node2 -->
<g id="Node000002" class="node">
<title>Node2</title>
<g id="a_Node000002"><a xlink:href="d4/d9b/classpocketmine_1_1data_1_1bedrock_1_1_legacy_entity_id_to_string_id_map.html" target="_top" xlink:title=" ">
<polygon fill="white" stroke="#666666" points="338.5,-148.5 177.5,-148.5 177.5,-118.5 338.5,-118.5 338.5,-148.5"/>
<text text-anchor="start" x="185.5" y="-136.5" font-family="Helvetica,sans-Serif" font-size="10.00">pocketmine\data\bedrock</text>
<text text-anchor="middle" x="258" y="-125.5" font-family="Helvetica,sans-Serif" font-size="10.00">\LegacyEntityIdToStringIdMap</text>
</a>
</g>
</g>
<!-- Node0&#45;&gt;Node2 -->
<g id="edge492_Node000000_Node000002" class="edge">
<title>Node0&#45;&gt;Node2</title>
<g id="a_edge492_Node000000_Node000002"><a xlink:title=" ">
<path fill="none" stroke="#63b8ff" d="M150.28,-118.01C159.24,-119.31 168.38,-120.64 177.34,-121.94"/>
<polygon fill="#63b8ff" stroke="#63b8ff" points="150.66,-114.53 140.26,-116.55 149.65,-121.45 150.66,-114.53"/>
</a>
</g>
</g>
<!-- Node3 -->
<g id="Node000003" class="node">
<title>Node3</title>
<g id="a_Node000003"><a xlink:href="d1/d10/classpocketmine_1_1data_1_1bedrock_1_1block_1_1upgrade_1_1_legacy_block_id_to_string_id_map.html" target="_top" xlink:title=" ">
<polygon fill="white" stroke="#666666" points="339,-100 177,-100 177,-59 339,-59 339,-100"/>
<text text-anchor="start" x="185" y="-88" font-family="Helvetica,sans-Serif" font-size="10.00">pocketmine\data\bedrock</text>
<text text-anchor="start" x="185" y="-77" font-family="Helvetica,sans-Serif" font-size="10.00">\block\upgrade\LegacyBlockId</text>
<text text-anchor="middle" x="258" y="-66" font-family="Helvetica,sans-Serif" font-size="10.00">ToStringIdMap</text>
</a>
</g>
</g>
<!-- Node0&#45;&gt;Node3 -->
<g id="edge493_Node000000_Node000003" class="edge">
<title>Node0&#45;&gt;Node3</title>
<g id="a_edge493_Node000000_Node000003"><a xlink:title=" ">
<path fill="none" stroke="#63b8ff" d="M150.39,-94.98C159.11,-93.71 167.98,-92.42 176.71,-91.16"/>
<polygon fill="#63b8ff" stroke="#63b8ff" points="149.65,-91.55 140.26,-96.45 150.66,-98.47 149.65,-91.55"/>
</a>
</g>
</g>
<!-- Node4 -->
<g id="Node000004" class="node">
<title>Node4</title>
<g id="a_Node000004"><a xlink:href="df/d5c/classpocketmine_1_1data_1_1bedrock_1_1item_1_1upgrade_1_1_legacy_item_id_to_string_id_map.html" target="_top" xlink:title=" ">
<polygon fill="white" stroke="#666666" points="340,-41 176,-41 176,0 340,0 340,-41"/>
<text text-anchor="start" x="184" y="-29" font-family="Helvetica,sans-Serif" font-size="10.00">pocketmine\data\bedrock</text>
<text text-anchor="start" x="184" y="-18" font-family="Helvetica,sans-Serif" font-size="10.00">\item\upgrade\LegacyItemIdTo</text>
<text text-anchor="middle" x="258" y="-7" font-family="Helvetica,sans-Serif" font-size="10.00">StringIdMap</text>
</a>
</g>
</g>
<!-- Node0&#45;&gt;Node4 -->
<g id="edge494_Node000000_Node000004" class="edge">
<title>Node0&#45;&gt;Node4</title>
<g id="a_edge494_Node000000_Node000004"><a xlink:title=" ">
<path fill="none" stroke="#63b8ff" d="M105.66,-86.49C125.84,-75.22 151.98,-61.29 176,-50.5 183.25,-47.24 190.97,-44.05 198.65,-41.03"/>
<polygon fill="#63b8ff" stroke="#63b8ff" points="103.83,-83.5 96.83,-91.46 107.26,-89.6 103.83,-83.5"/>
</a>
</g>
</g>
</g>
</svg>
