<?xml version="1.0" encoding="UTF-8" standalone="no"?>
<!DOCTYPE svg PUBLIC "-//W3C//DTD SVG 1.1//EN"
 "http://www.w3.org/Graphics/SVG/1.1/DTD/svg11.dtd">
<!-- Generated by graphviz version 2.43.0 (0)
 -->
<!-- Title: Graphical Class Hierarchy Pages: 1 -->
<svg width="387pt" height="226pt"
 viewBox="0.00 0.00 387.00 226.00" xmlns="http://www.w3.org/2000/svg" xmlns:xlink="http://www.w3.org/1999/xlink">
<g id="graph0" class="graph" transform="scale(1 1) rotate(0) translate(4 222)">
<title>Graphical Class Hierarchy</title>
<!-- Node0 -->
<g id="Node000000" class="node">
<title>Node0</title>
<g id="a_Node000000"><a xlink:href="d9/dad/classpocketmine_1_1network_1_1mcpe_1_1protocol_1_1types_1_1_sync_world_clocks_payload.html" target="_top" xlink:title=" ">
<polygon fill="white" stroke="#666666" points="141,-129 0,-129 0,-88 141,-88 141,-129"/>
<text text-anchor="start" x="8" y="-117" font-family="Helvetica,sans-Serif" font-size="10.00">pocketmine\network</text>
<text text-anchor="start" x="8" y="-106" font-family="Helvetica,sans-Serif" font-size="10.00">\mcpe\protocol\types</text>
<text text-anchor="middle" x="70.5" y="-95" font-family="Helvetica,sans-Serif" font-size="10.00">\SyncWorldClocksPayload</text>
</a>
</g>
</g>
<!-- Node1 -->
<g id="Node000001" class="node">
<title>Node1</title>
<g id="a_Node000001"><a xlink:href="d0/d4c/classpocketmine_1_1network_1_1mcpe_1_1protocol_1_1types_1_1_sync_world_clocks_add_time_marker.html" target="_top" xlink:title=" ">
<polygon fill="white" stroke="#666666" points="368,-218 188,-218 188,-177 368,-177 368,-218"/>
<text text-anchor="start" x="196" y="-206" font-family="Helvetica,sans-Serif" font-size="10.00">pocketmine\network</text>
<text text-anchor="start" x="196" y="-195" font-family="Helvetica,sans-Serif" font-size="10.00">\mcpe\protocol\types</text>
<text text-anchor="middle" x="278" y="-184" font-family="Helvetica,sans-Serif" font-size="10.00">\SyncWorldClocksAddTimeMarker</text>
</a>
</g>
</g>
<!-- Node0&#45;&gt;Node1 -->
<g id="edge1636_Node000000_Node000001" class="edge">
<title>Node0&#45;&gt;Node1</title>
<g id="a_edge1636_Node000000_Node000001"><a xlink:title=" ">
<path fill="none" stroke="#63b8ff" d="M112.04,-134.53C131.2,-146.05 154.71,-159.09 177,-168.5 184.16,-171.52 191.74,-174.35 199.39,-176.96"/>
<polygon fill="#63b8ff" stroke="#63b8ff" points="113.64,-131.41 103.28,-129.19 110,-137.39 113.64,-131.41"/>
</a>
</g>
</g>
<!-- Node2 -->
<g id="Node000002" class="node">
<title>Node2</title>
<g id="a_Node000002"><a xlink:href="dd/d3b/classpocketmine_1_1network_1_1mcpe_1_1protocol_1_1types_1_1_sync_world_clocks_initialize_registry.html" target="_top" xlink:title=" ">
<polygon fill="white" stroke="#666666" points="370.5,-159 185.5,-159 185.5,-118 370.5,-118 370.5,-159"/>
<text text-anchor="start" x="193.5" y="-147" font-family="Helvetica,sans-Serif" font-size="10.00">pocketmine\network</text>
<text text-anchor="start" x="193.5" y="-136" font-family="Helvetica,sans-Serif" font-size="10.00">\mcpe\protocol\types</text>
<text text-anchor="middle" x="278" y="-125" font-family="Helvetica,sans-Serif" font-size="10.00">\SyncWorldClocksInitializeRegistry</text>
</a>
</g>
</g>
<!-- Node0&#45;&gt;Node2 -->
<g id="edge1637_Node000000_Node000002" class="edge">
<title>Node0&#45;&gt;Node2</title>
<g id="a_edge1637_Node000000_Node000002"><a xlink:title=" ">
<path fill="none" stroke="#63b8ff" d="M151.2,-120.14C162.36,-121.76 173.91,-123.45 185.27,-125.11"/>
<polygon fill="#63b8ff" stroke="#63b8ff" points="151.47,-116.64 141.07,-118.66 150.46,-123.56 151.47,-116.64"/>
</a>
</g>
</g>
<!-- Node3 -->
<g id="Node000003" class="node">
<title>Node3</title>
<g id="a_Node000003"><a xlink:href="dd/df6/classpocketmine_1_1network_1_1mcpe_1_1protocol_1_1types_1_1_sync_world_clocks_remove_time_marker.html" target="_top" xlink:title=" ">
<polygon fill="white" stroke="#666666" points="379,-100 177,-100 177,-59 379,-59 379,-100"/>
<text text-anchor="start" x="185" y="-88" font-family="Helvetica,sans-Serif" font-size="10.00">pocketmine\network</text>
<text text-anchor="start" x="185" y="-77" font-family="Helvetica,sans-Serif" font-size="10.00">\mcpe\protocol\types</text>
<text text-anchor="middle" x="278" y="-66" font-family="Helvetica,sans-Serif" font-size="10.00">\SyncWorldClocksRemoveTimeMarker</text>
</a>
</g>
</g>
<!-- Node0&#45;&gt;Node3 -->
<g id="edge1638_Node000000_Node000003" class="edge">
<title>Node0&#45;&gt;Node3</title>
<g id="a_edge1638_Node000000_Node000003"><a xlink:title=" ">
<path fill="none" stroke="#63b8ff" d="M151.21,-97.25C159.62,-96.06 168.25,-94.85 176.86,-93.63"/>
<polygon fill="#63b8ff" stroke="#63b8ff" points="150.49,-93.82 141.07,-98.68 151.46,-100.75 150.49,-93.82"/>
</a>
</g>
</g>
<!-- Node4 -->
<g id="Node000004" class="node">
<title>Node4</title>
<g id="a_Node000004"><a xlink:href="dd/d65/classpocketmine_1_1network_1_1mcpe_1_1protocol_1_1types_1_1_sync_world_clocks_sync_state.html" target="_top" xlink:title=" ">
<polygon fill="white" stroke="#666666" points="354,-41 202,-41 202,0 354,0 354,-41"/>
<text text-anchor="start" x="210" y="-29" font-family="Helvetica,sans-Serif" font-size="10.00">pocketmine\network</text>
<text text-anchor="start" x="210" y="-18" font-family="Helvetica,sans-Serif" font-size="10.00">\mcpe\protocol\types</text>
<text text-anchor="middle" x="278" y="-7" font-family="Helvetica,sans-Serif" font-size="10.00">\SyncWorldClocksSyncState</text>
</a>
</g>
</g>
<!-- Node0&#45;&gt;Node4 -->
<g id="edge1639_Node000000_Node000004" class="edge">
<title>Node0&#45;&gt;Node4</title>
<g id="a_edge1639_Node000000_Node000004"><a xlink:title=" ">
<path fill="none" stroke="#63b8ff" d="M113.48,-82.75C132.43,-71.84 155.37,-59.57 177,-50.5 185.02,-47.14 193.55,-43.98 202.12,-41.07"/>
<polygon fill="#63b8ff" stroke="#63b8ff" points="111.68,-79.75 104.8,-87.82 115.2,-85.8 111.68,-79.75"/>
</a>
</g>
</g>
</g>
</svg>
