<?xml version="1.0" encoding="UTF-8" standalone="no"?>
<!DOCTYPE svg PUBLIC "-//W3C//DTD SVG 1.1//EN"
 "http://www.w3.org/Graphics/SVG/1.1/DTD/svg11.dtd">
<!-- Generated by graphviz version 2.43.0 (0)
 -->
<!-- Title: Graphical Class Hierarchy Pages: 1 -->
<svg width="514pt" height="134pt"
 viewBox="0.00 0.00 514.00 134.00" xmlns="http://www.w3.org/2000/svg" xmlns:xlink="http://www.w3.org/1999/xlink">
<g id="graph0" class="graph" transform="scale(1 1) rotate(0) translate(4 130)">
<title>Graphical Class Hierarchy</title>
<!-- Node0 -->
<g id="Node000000" class="node">
<title>Node0</title>
<g id="a_Node000000"><a xlink:href="dc/d84/interfacepocketmine_1_1data_1_1runtime_1_1_runtime_enum_describer.html" target="_top" xlink:title=" ">
<polygon fill="white" stroke="#666666" points="140,-78 0,-78 0,-48 140,-48 140,-78"/>
<text text-anchor="start" x="8" y="-66" font-family="Helvetica,sans-Serif" font-size="10.00">pocketmine\data\runtime</text>
<text text-anchor="middle" x="70" y="-55" font-family="Helvetica,sans-Serif" font-size="10.00">\RuntimeEnumDescriber</text>
</a>
</g>
</g>
<!-- Node1 -->
<g id="Node000001" class="node">
<title>Node1</title>
<g id="a_Node000001"><a xlink:href="d8/d5e/interfacepocketmine_1_1data_1_1runtime_1_1_runtime_data_describer.html" target="_top" xlink:title=" ">
<polygon fill="white" stroke="#666666" points="316,-78 176,-78 176,-48 316,-48 316,-78"/>
<text text-anchor="start" x="184" y="-66" font-family="Helvetica,sans-Serif" font-size="10.00">pocketmine\data\runtime</text>
<text text-anchor="middle" x="246" y="-55" font-family="Helvetica,sans-Serif" font-size="10.00">\RuntimeDataDescriber</text>
</a>
</g>
</g>
<!-- Node0&#45;&gt;Node1 -->
<g id="edge639_Node000000_Node000001" class="edge">
<title>Node0&#45;&gt;Node1</title>
<g id="a_edge639_Node000000_Node000001"><a xlink:title=" ">
<path fill="none" stroke="#63b8ff" d="M150.03,-63C158.62,-63 167.32,-63 175.78,-63"/>
<polygon fill="#63b8ff" stroke="#63b8ff" points="150.02,-59.5 140.02,-63 150.02,-66.5 150.02,-59.5"/>
</a>
</g>
</g>
<!-- Node2 -->
<g id="Node000002" class="node">
<title>Node2</title>
<g id="a_Node000002"><a xlink:href="de/d4d/classpocketmine_1_1data_1_1runtime_1_1_runtime_data_reader.html" target="_top" xlink:title=" ">
<polygon fill="white" stroke="#666666" points="499,-126 359,-126 359,-96 499,-96 499,-126"/>
<text text-anchor="start" x="367" y="-114" font-family="Helvetica,sans-Serif" font-size="10.00">pocketmine\data\runtime</text>
<text text-anchor="middle" x="429" y="-103" font-family="Helvetica,sans-Serif" font-size="10.00">\RuntimeDataReader</text>
</a>
</g>
</g>
<!-- Node1&#45;&gt;Node2 -->
<g id="edge640_Node000001_Node000002" class="edge">
<title>Node1&#45;&gt;Node2</title>
<g id="a_edge640_Node000001_Node000002"><a xlink:title=" ">
<path fill="none" stroke="#63b8ff" d="M313.55,-80.65C332.56,-85.69 353.08,-91.13 371.43,-96"/>
<polygon fill="#63b8ff" stroke="#63b8ff" points="314.34,-77.24 303.77,-78.06 312.54,-84 314.34,-77.24"/>
</a>
</g>
</g>
<!-- Node3 -->
<g id="Node000003" class="node">
<title>Node3</title>
<g id="a_Node000003"><a xlink:href="db/dff/classpocketmine_1_1data_1_1runtime_1_1_runtime_data_size_calculator.html" target="_top" xlink:title=" ">
<polygon fill="white" stroke="#666666" points="506,-78 352,-78 352,-48 506,-48 506,-78"/>
<text text-anchor="start" x="360" y="-66" font-family="Helvetica,sans-Serif" font-size="10.00">pocketmine\data\runtime</text>
<text text-anchor="middle" x="429" y="-55" font-family="Helvetica,sans-Serif" font-size="10.00">\RuntimeDataSizeCalculator</text>
</a>
</g>
</g>
<!-- Node1&#45;&gt;Node3 -->
<g id="edge641_Node000001_Node000003" class="edge">
<title>Node1&#45;&gt;Node3</title>
<g id="a_edge641_Node000001_Node000003"><a xlink:title=" ">
<path fill="none" stroke="#63b8ff" d="M326.43,-63C334.89,-63 343.48,-63 351.9,-63"/>
<polygon fill="#63b8ff" stroke="#63b8ff" points="326.2,-59.5 316.2,-63 326.2,-66.5 326.2,-59.5"/>
</a>
</g>
</g>
<!-- Node4 -->
<g id="Node000004" class="node">
<title>Node4</title>
<g id="a_Node000004"><a xlink:href="dd/d76/classpocketmine_1_1data_1_1runtime_1_1_runtime_data_writer.html" target="_top" xlink:title=" ">
<polygon fill="white" stroke="#666666" points="499,-30 359,-30 359,0 499,0 499,-30"/>
<text text-anchor="start" x="367" y="-18" font-family="Helvetica,sans-Serif" font-size="10.00">pocketmine\data\runtime</text>
<text text-anchor="middle" x="429" y="-7" font-family="Helvetica,sans-Serif" font-size="10.00">\RuntimeDataWriter</text>
</a>
</g>
</g>
<!-- Node1&#45;&gt;Node4 -->
<g id="edge642_Node000001_Node000004" class="edge">
<title>Node1&#45;&gt;Node4</title>
<g id="a_edge642_Node000001_Node000004"><a xlink:title=" ">
<path fill="none" stroke="#63b8ff" d="M313.55,-45.35C332.56,-40.31 353.08,-34.87 371.43,-30"/>
<polygon fill="#63b8ff" stroke="#63b8ff" points="312.54,-42 303.77,-47.94 314.34,-48.76 312.54,-42"/>
</a>
</g>
</g>
</g>
</svg>
