<?xml version="1.0" encoding="UTF-8" standalone="no"?>
<!DOCTYPE svg PUBLIC "-//W3C//DTD SVG 1.1//EN"
 "http://www.w3.org/Graphics/SVG/1.1/DTD/svg11.dtd">
<!-- Generated by graphviz version 2.43.0 (0)
 -->
<!-- Title: Graphical Class Hierarchy Pages: 1 -->
<svg width="352pt" height="230pt"
 viewBox="0.00 0.00 352.00 230.00" xmlns="http://www.w3.org/2000/svg" xmlns:xlink="http://www.w3.org/1999/xlink">
<g id="graph0" class="graph" transform="scale(1 1) rotate(0) translate(4 226)">
<title>Graphical Class Hierarchy</title>
<!-- Node0 -->
<g id="Node000000" class="node">
<title>Node0</title>
<g id="a_Node000000"><a xlink:href="d2/da7/classpocketmine_1_1world_1_1generator_1_1object_1_1_tree.html" target="_top" xlink:title=" ">
<polygon fill="white" stroke="#666666" points="154,-126 0,-126 0,-96 154,-96 154,-126"/>
<text text-anchor="start" x="8" y="-114" font-family="Helvetica,sans-Serif" font-size="10.00">pocketmine\world\generator</text>
<text text-anchor="middle" x="77" y="-103" font-family="Helvetica,sans-Serif" font-size="10.00">\object\Tree</text>
</a>
</g>
</g>
<!-- Node1 -->
<g id="Node000001" class="node">
<title>Node1</title>
<g id="a_Node000001"><a xlink:href="dd/d40/classpocketmine_1_1world_1_1generator_1_1object_1_1_acacia_tree.html" target="_top" xlink:title=" ">
<polygon fill="white" stroke="#666666" points="344,-222 190,-222 190,-192 344,-192 344,-222"/>
<text text-anchor="start" x="198" y="-210" font-family="Helvetica,sans-Serif" font-size="10.00">pocketmine\world\generator</text>
<text text-anchor="middle" x="267" y="-199" font-family="Helvetica,sans-Serif" font-size="10.00">\object\AcaciaTree</text>
</a>
</g>
</g>
<!-- Node0&#45;&gt;Node1 -->
<g id="edge1617_Node000000_Node000001" class="edge">
<title>Node0&#45;&gt;Node1</title>
<g id="a_edge1617_Node000000_Node000001"><a xlink:title=" ">
<path fill="none" stroke="#63b8ff" d="M106.3,-132.2C128.24,-147.88 159.89,-168.87 190,-183 197.02,-186.29 204.6,-189.29 212.16,-191.97"/>
<polygon fill="#63b8ff" stroke="#63b8ff" points="108.25,-129.3 98.1,-126.27 104.15,-134.97 108.25,-129.3"/>
</a>
</g>
</g>
<!-- Node2 -->
<g id="Node000002" class="node">
<title>Node2</title>
<g id="a_Node000002"><a xlink:href="d6/d75/classpocketmine_1_1world_1_1generator_1_1object_1_1_birch_tree.html" target="_top" xlink:title=" ">
<polygon fill="white" stroke="#666666" points="344,-174 190,-174 190,-144 344,-144 344,-174"/>
<text text-anchor="start" x="198" y="-162" font-family="Helvetica,sans-Serif" font-size="10.00">pocketmine\world\generator</text>
<text text-anchor="middle" x="267" y="-151" font-family="Helvetica,sans-Serif" font-size="10.00">\object\BirchTree</text>
</a>
</g>
</g>
<!-- Node0&#45;&gt;Node2 -->
<g id="edge1618_Node000000_Node000002" class="edge">
<title>Node0&#45;&gt;Node2</title>
<g id="a_edge1618_Node000000_Node000002"><a xlink:title=" ">
<path fill="none" stroke="#63b8ff" d="M146.86,-128.58C166.67,-133.64 188.1,-139.11 207.24,-144"/>
<polygon fill="#63b8ff" stroke="#63b8ff" points="147.52,-125.14 136.97,-126.06 145.79,-131.92 147.52,-125.14"/>
</a>
</g>
</g>
<!-- Node3 -->
<g id="Node000003" class="node">
<title>Node3</title>
<g id="a_Node000003"><a xlink:href="dc/ded/classpocketmine_1_1world_1_1generator_1_1object_1_1_jungle_tree.html" target="_top" xlink:title=" ">
<polygon fill="white" stroke="#666666" points="344,-126 190,-126 190,-96 344,-96 344,-126"/>
<text text-anchor="start" x="198" y="-114" font-family="Helvetica,sans-Serif" font-size="10.00">pocketmine\world\generator</text>
<text text-anchor="middle" x="267" y="-103" font-family="Helvetica,sans-Serif" font-size="10.00">\object\JungleTree</text>
</a>
</g>
</g>
<!-- Node0&#45;&gt;Node3 -->
<g id="edge1619_Node000000_Node000003" class="edge">
<title>Node0&#45;&gt;Node3</title>
<g id="a_edge1619_Node000000_Node000003"><a xlink:title=" ">
<path fill="none" stroke="#63b8ff" d="M164.42,-111C172.86,-111 181.37,-111 189.7,-111"/>
<polygon fill="#63b8ff" stroke="#63b8ff" points="164.2,-107.5 154.2,-111 164.2,-114.5 164.2,-107.5"/>
</a>
</g>
</g>
<!-- Node4 -->
<g id="Node000004" class="node">
<title>Node4</title>
<g id="a_Node000004"><a xlink:href="d5/d61/classpocketmine_1_1world_1_1generator_1_1object_1_1_oak_tree.html" target="_top" xlink:title=" ">
<polygon fill="white" stroke="#666666" points="344,-78 190,-78 190,-48 344,-48 344,-78"/>
<text text-anchor="start" x="198" y="-66" font-family="Helvetica,sans-Serif" font-size="10.00">pocketmine\world\generator</text>
<text text-anchor="middle" x="267" y="-55" font-family="Helvetica,sans-Serif" font-size="10.00">\object\OakTree</text>
</a>
</g>
</g>
<!-- Node0&#45;&gt;Node4 -->
<g id="edge1620_Node000000_Node000004" class="edge">
<title>Node0&#45;&gt;Node4</title>
<g id="a_edge1620_Node000000_Node000004"><a xlink:title=" ">
<path fill="none" stroke="#63b8ff" d="M146.86,-93.42C166.67,-88.36 188.1,-82.89 207.24,-78"/>
<polygon fill="#63b8ff" stroke="#63b8ff" points="145.79,-90.08 136.97,-95.94 147.52,-96.86 145.79,-90.08"/>
</a>
</g>
</g>
<!-- Node5 -->
<g id="Node000005" class="node">
<title>Node5</title>
<g id="a_Node000005"><a xlink:href="dd/dff/classpocketmine_1_1world_1_1generator_1_1object_1_1_spruce_tree.html" target="_top" xlink:title=" ">
<polygon fill="white" stroke="#666666" points="344,-30 190,-30 190,0 344,0 344,-30"/>
<text text-anchor="start" x="198" y="-18" font-family="Helvetica,sans-Serif" font-size="10.00">pocketmine\world\generator</text>
<text text-anchor="middle" x="267" y="-7" font-family="Helvetica,sans-Serif" font-size="10.00">\object\SpruceTree</text>
</a>
</g>
</g>
<!-- Node0&#45;&gt;Node5 -->
<g id="edge1621_Node000000_Node000005" class="edge">
<title>Node0&#45;&gt;Node5</title>
<g id="a_edge1621_Node000000_Node000005"><a xlink:title=" ">
<path fill="none" stroke="#63b8ff" d="M106.3,-89.8C128.24,-74.12 159.89,-53.13 190,-39 197.02,-35.71 204.6,-32.71 212.16,-30.03"/>
<polygon fill="#63b8ff" stroke="#63b8ff" points="104.15,-87.03 98.1,-95.73 108.25,-92.7 104.15,-87.03"/>
</a>
</g>
</g>
</g>
</svg>
