<?xml version="1.0" encoding="UTF-8" standalone="no"?>
<!DOCTYPE svg PUBLIC "-//W3C//DTD SVG 1.1//EN"
 "http://www.w3.org/Graphics/SVG/1.1/DTD/svg11.dtd">
<!-- Generated by graphviz version 2.43.0 (0)
 -->
<!-- Title: Graphical Class Hierarchy Pages: 1 -->
<svg width="672pt" height="497pt"
 viewBox="0.00 0.00 672.00 496.50" xmlns="http://www.w3.org/2000/svg" xmlns:xlink="http://www.w3.org/1999/xlink">
<g id="graph0" class="graph" transform="scale(1 1) rotate(0) translate(4 492.5)">
<title>Graphical Class Hierarchy</title>
<polygon fill="white" stroke="transparent" points="-4,4 -4,-492.5 668,-492.5 668,4 -4,4"/>
<!-- Node0 -->
<g id="node1" class="node">
<title>Node0</title>
<g id="a_node1"><a xlink:href="d4/d00/interface_logger.html" target="_top" xlink:title=" ">
<polygon fill="white" stroke="black" points="11,-412 11,-431 61,-431 61,-412 11,-412"/>
<text text-anchor="middle" x="36" y="-419" font-family="Helvetica,sans-Serif" font-size="10.00">Logger</text>
</a>
</g>
</g>
<!-- Node1 -->
<g id="node2" class="node">
<title>Node1</title>
<g id="a_node2"><a xlink:href="d9/d4f/interface_attachable_logger.html" target="_top" xlink:title=" ">
<polygon fill="white" stroke="black" points="338.5,-431 338.5,-450 440.5,-450 440.5,-431 338.5,-431"/>
<text text-anchor="middle" x="389.5" y="-438" font-family="Helvetica,sans-Serif" font-size="10.00">AttachableLogger</text>
</a>
</g>
</g>
<!-- Node0&#45;&gt;Node1 -->
<g id="edge1" class="edge">
<title>Node0&#45;&gt;Node1</title>
<path fill="none" stroke="midnightblue" d="M71.25,-423.35C133.58,-426.72 265.78,-433.87 338.3,-437.79"/>
<polygon fill="midnightblue" stroke="midnightblue" points="71.33,-419.85 61.16,-422.81 70.96,-426.84 71.33,-419.85"/>
</g>
<!-- Node5 -->
<g id="node4" class="node">
<title>Node5</title>
<g id="a_node4"><a xlink:href="d3/d4b/interface_buffered_logger.html" target="_top" xlink:title=" ">
<polygon fill="white" stroke="black" points="344,-393 344,-412 435,-412 435,-393 344,-393"/>
<text text-anchor="middle" x="389.5" y="-400" font-family="Helvetica,sans-Serif" font-size="10.00">BufferedLogger</text>
</a>
</g>
</g>
<!-- Node0&#45;&gt;Node5 -->
<g id="edge3" class="edge">
<title>Node0&#45;&gt;Node5</title>
<path fill="none" stroke="midnightblue" d="M71.52,-419.63C135.58,-416.17 272.79,-408.75 343.83,-404.91"/>
<polygon fill="midnightblue" stroke="midnightblue" points="70.96,-416.16 61.16,-420.19 71.33,-423.15 70.96,-416.16"/>
</g>
<!-- Node4 -->
<g id="node6" class="node">
<title>Node4</title>
<g id="a_node6"><a xlink:href="d9/df4/class_simple_logger.html" target="_top" xlink:title=" ">
<polygon fill="white" stroke="black" points="149,-469 149,-488 232,-488 232,-469 149,-469"/>
<text text-anchor="middle" x="190.5" y="-476" font-family="Helvetica,sans-Serif" font-size="10.00">SimpleLogger</text>
</a>
</g>
</g>
<!-- Node0&#45;&gt;Node4 -->
<g id="edge5" class="edge">
<title>Node0&#45;&gt;Node4</title>
<path fill="none" stroke="midnightblue" d="M64.93,-435.66C77.85,-441.89 93.51,-449.03 108,-454.5 122.35,-459.91 138.49,-464.89 152.6,-468.89"/>
<polygon fill="midnightblue" stroke="midnightblue" points="66.18,-432.37 55.66,-431.1 63.09,-438.65 66.18,-432.37"/>
</g>
<!-- Node8 -->
<g id="node8" class="node">
<title>Node8</title>
<g id="a_node8"><a xlink:href="da/df4/classpocketmine_1_1thread_1_1log_1_1_thread_safe_logger.html" target="_top" xlink:title=" ">
<polygon fill="white" stroke="black" points="127.5,-343.5 127.5,-373.5 253.5,-373.5 253.5,-343.5 127.5,-343.5"/>
<text text-anchor="start" x="135.5" y="-361.5" font-family="Helvetica,sans-Serif" font-size="10.00">pocketmine\thread\log</text>
<text text-anchor="middle" x="190.5" y="-350.5" font-family="Helvetica,sans-Serif" font-size="10.00">\ThreadSafeLogger</text>
</a>
</g>
</g>
<!-- Node0&#45;&gt;Node8 -->
<g id="edge8" class="edge">
<title>Node0&#45;&gt;Node8</title>
<path fill="none" stroke="midnightblue" d="M65.65,-407.53C78.5,-401.43 93.9,-394.36 108,-388.5 120.39,-383.35 134.02,-378.15 146.52,-373.57"/>
<polygon fill="midnightblue" stroke="midnightblue" points="63.91,-404.48 56.4,-411.96 66.93,-410.8 63.91,-404.48"/>
</g>
<!-- Node2 -->
<g id="node3" class="node">
<title>Node2</title>
<g id="a_node3"><a xlink:href="de/dc8/classpocketmine_1_1plugin_1_1_plugin_logger.html" target="_top" xlink:title=" ">
<polygon fill="white" stroke="black" points="515,-437.5 515,-467.5 655,-467.5 655,-437.5 515,-437.5"/>
<text text-anchor="start" x="523" y="-455.5" font-family="Helvetica,sans-Serif" font-size="10.00">pocketmine\plugin\Plugin</text>
<text text-anchor="middle" x="585" y="-444.5" font-family="Helvetica,sans-Serif" font-size="10.00">Logger</text>
</a>
</g>
</g>
<!-- Node1&#45;&gt;Node2 -->
<g id="edge2" class="edge">
<title>Node1&#45;&gt;Node2</title>
<path fill="none" stroke="midnightblue" d="M450.65,-444.23C470.98,-445.49 493.84,-446.91 514.82,-448.21"/>
<polygon fill="midnightblue" stroke="midnightblue" points="450.78,-440.73 440.58,-443.61 450.35,-447.72 450.78,-440.73"/>
</g>
<!-- Node6 -->
<g id="node5" class="node">
<title>Node6</title>
<g id="a_node5"><a xlink:href="d9/d27/classpocketmine_1_1utils_1_1_main_logger.html" target="_top" xlink:title=" ">
<polygon fill="white" stroke="black" points="506,-380 506,-399 664,-399 664,-380 506,-380"/>
<text text-anchor="middle" x="585" y="-387" font-family="Helvetica,sans-Serif" font-size="10.00">pocketmine\utils\MainLogger</text>
</a>
</g>
</g>
<!-- Node5&#45;&gt;Node6 -->
<g id="edge4" class="edge">
<title>Node5&#45;&gt;Node6</title>
<path fill="none" stroke="midnightblue" d="M445.53,-398.8C464.33,-397.54 485.73,-396.1 505.99,-394.74"/>
<polygon fill="midnightblue" stroke="midnightblue" points="445.12,-395.32 435.38,-399.48 445.59,-402.31 445.12,-395.32"/>
</g>
<!-- Node3 -->
<g id="node7" class="node">
<title>Node3</title>
<g id="a_node7"><a xlink:href="d9/d00/class_prefixed_logger.html" target="_top" xlink:title=" ">
<polygon fill="white" stroke="black" points="345,-469 345,-488 434,-488 434,-469 345,-469"/>
<text text-anchor="middle" x="389.5" y="-476" font-family="Helvetica,sans-Serif" font-size="10.00">PrefixedLogger</text>
</a>
</g>
</g>
<!-- Node4&#45;&gt;Node3 -->
<g id="edge6" class="edge">
<title>Node4&#45;&gt;Node3</title>
<path fill="none" stroke="midnightblue" d="M242.69,-478.5C274.32,-478.5 314.49,-478.5 344.66,-478.5"/>
<polygon fill="midnightblue" stroke="midnightblue" points="242.32,-475 232.32,-478.5 242.32,-482 242.32,-475"/>
</g>
<!-- Node3&#45;&gt;Node2 -->
<g id="edge7" class="edge">
<title>Node3&#45;&gt;Node2</title>
<path fill="none" stroke="midnightblue" d="M444.47,-471.25C466.27,-468.32 491.7,-464.9 514.84,-461.79"/>
<polygon fill="midnightblue" stroke="midnightblue" points="443.85,-467.8 434.41,-472.6 444.79,-474.74 443.85,-467.8"/>
</g>
<!-- Node7 -->
<g id="node9" class="node">
<title>Node7</title>
<g id="a_node9"><a xlink:href="d8/daf/classpocketmine_1_1thread_1_1log_1_1_attachable_thread_safe_logger.html" target="_top" xlink:title=" ">
<polygon fill="white" stroke="black" points="309,-343.5 309,-373.5 470,-373.5 470,-343.5 309,-343.5"/>
<text text-anchor="start" x="317" y="-361.5" font-family="Helvetica,sans-Serif" font-size="10.00">pocketmine\thread\log</text>
<text text-anchor="middle" x="389.5" y="-350.5" font-family="Helvetica,sans-Serif" font-size="10.00">\AttachableThreadSafeLogger</text>
</a>
</g>
</g>
<!-- Node8&#45;&gt;Node7 -->
<g id="edge9" class="edge">
<title>Node8&#45;&gt;Node7</title>
<path fill="none" stroke="midnightblue" d="M263.57,-358.5C278.24,-358.5 293.75,-358.5 308.67,-358.5"/>
<polygon fill="midnightblue" stroke="midnightblue" points="263.56,-355 253.56,-358.5 263.56,-362 263.56,-355"/>
</g>
<!-- Node7&#45;&gt;Node6 -->
<g id="edge10" class="edge">
<title>Node7&#45;&gt;Node6</title>
<path fill="none" stroke="midnightblue" d="M479.94,-372.83C495.08,-375.25 510.46,-377.72 524.59,-379.98"/>
<polygon fill="midnightblue" stroke="midnightblue" points="480.47,-369.37 470.04,-371.24 479.36,-376.28 480.47,-369.37"/>
</g>
<!-- Node9 -->
<g id="node10" class="node">
<title>Node9</title>
<g id="a_node10"><a xlink:title=" ">
<polygon fill="white" stroke="#bfbfbf" points="0,-178 0,-197 72,-197 72,-178 0,-178"/>
<text text-anchor="middle" x="36" y="-185" font-family="Helvetica,sans-Serif" font-size="10.00">ThreadSafe</text>
</a>
</g>
</g>
<!-- Node9&#45;&gt;Node8 -->
<g id="edge17" class="edge">
<title>Node9&#45;&gt;Node8</title>
<path fill="none" stroke="midnightblue" d="M41.29,-207.46C49.08,-238.87 68.52,-299.71 108,-333.5 113.73,-338.41 120.42,-342.35 127.45,-345.52"/>
<polygon fill="midnightblue" stroke="midnightblue" points="44.61,-206.28 38.94,-197.33 37.79,-207.86 44.61,-206.28"/>
</g>
<!-- Node10 -->
<g id="node11" class="node">
<title>Node10</title>
<g id="a_node11"><a xlink:href="d8/d3f/classpocketmine_1_1snooze_1_1_sleeper_handler_entry.html" target="_top" xlink:title=" ">
<polygon fill="white" stroke="black" points="115,-98.5 115,-128.5 266,-128.5 266,-98.5 115,-98.5"/>
<text text-anchor="start" x="123" y="-116.5" font-family="Helvetica,sans-Serif" font-size="10.00">pocketmine\snooze\Sleeper</text>
<text text-anchor="middle" x="190.5" y="-105.5" font-family="Helvetica,sans-Serif" font-size="10.00">HandlerEntry</text>
</a>
</g>
</g>
<!-- Node9&#45;&gt;Node10 -->
<g id="edge11" class="edge">
<title>Node9&#45;&gt;Node10</title>
<path fill="none" stroke="midnightblue" d="M56.46,-171.15C70.15,-160.33 89.29,-146.54 108,-137.5 114.91,-134.16 122.37,-131.19 129.88,-128.58"/>
<polygon fill="midnightblue" stroke="midnightblue" points="53.89,-168.73 48.32,-177.74 58.29,-174.17 53.89,-168.73"/>
</g>
<!-- Node11 -->
<g id="node12" class="node">
<title>Node11</title>
<g id="a_node12"><a xlink:href="d4/d69/classpocketmine_1_1thread_1_1_non_thread_safe_value.html" target="_top" xlink:title=" ">
<polygon fill="white" stroke="black" points="108.5,-49.5 108.5,-79.5 272.5,-79.5 272.5,-49.5 108.5,-49.5"/>
<text text-anchor="start" x="116.5" y="-67.5" font-family="Helvetica,sans-Serif" font-size="10.00">pocketmine\thread\NonThread</text>
<text text-anchor="middle" x="190.5" y="-56.5" font-family="Helvetica,sans-Serif" font-size="10.00">SafeValue</text>
</a>
</g>
</g>
<!-- Node9&#45;&gt;Node11 -->
<g id="edge12" class="edge">
<title>Node9&#45;&gt;Node11</title>
<path fill="none" stroke="midnightblue" d="M45.56,-168.87C56.78,-146.51 78.54,-109.42 108,-88.5 112.81,-85.08 118.11,-82.15 123.62,-79.63"/>
<polygon fill="midnightblue" stroke="midnightblue" points="42.35,-167.47 41.16,-177.99 48.66,-170.51 42.35,-167.47"/>
</g>
<!-- Node12 -->
<g id="node13" class="node">
<title>Node12</title>
<g id="a_node13"><a xlink:href="d4/dd3/classpocketmine_1_1thread_1_1_thread_crash_info.html" target="_top" xlink:title=" ">
<polygon fill="white" stroke="black" points="118,-0.5 118,-30.5 263,-30.5 263,-0.5 118,-0.5"/>
<text text-anchor="start" x="126" y="-18.5" font-family="Helvetica,sans-Serif" font-size="10.00">pocketmine\thread\Thread</text>
<text text-anchor="middle" x="190.5" y="-7.5" font-family="Helvetica,sans-Serif" font-size="10.00">CrashInfo</text>
</a>
</g>
</g>
<!-- Node9&#45;&gt;Node12 -->
<g id="edge13" class="edge">
<title>Node9&#45;&gt;Node12</title>
<path fill="none" stroke="midnightblue" d="M40.96,-168.09C48.43,-136.45 67.61,-73.86 108,-39.5 112.04,-36.06 116.56,-33.11 121.34,-30.59"/>
<polygon fill="midnightblue" stroke="midnightblue" points="37.53,-167.37 38.79,-177.89 44.37,-168.89 37.53,-167.37"/>
</g>
<!-- Node13 -->
<g id="node14" class="node">
<title>Node13</title>
<g id="a_node14"><a xlink:href="d8/d9f/classpocketmine_1_1thread_1_1_thread_crash_info_frame.html" target="_top" xlink:title=" ">
<polygon fill="white" stroke="black" points="118,-294.5 118,-324.5 263,-324.5 263,-294.5 118,-294.5"/>
<text text-anchor="start" x="126" y="-312.5" font-family="Helvetica,sans-Serif" font-size="10.00">pocketmine\thread\Thread</text>
<text text-anchor="middle" x="190.5" y="-301.5" font-family="Helvetica,sans-Serif" font-size="10.00">CrashInfoFrame</text>
</a>
</g>
</g>
<!-- Node9&#45;&gt;Node13 -->
<g id="edge14" class="edge">
<title>Node9&#45;&gt;Node13</title>
<path fill="none" stroke="midnightblue" d="M45.87,-206.04C57.27,-227.92 79.1,-263.94 108,-284.5 113.43,-288.36 119.46,-291.64 125.73,-294.41"/>
<polygon fill="midnightblue" stroke="midnightblue" points="48.99,-204.45 41.38,-197.08 42.74,-207.59 48.99,-204.45"/>
</g>
<!-- Node14 -->
<g id="node15" class="node">
<title>Node14</title>
<g id="a_node15"><a xlink:href="df/dca/classpocketmine_1_1thread_1_1_thread_manager.html" target="_top" xlink:title=" ">
<polygon fill="white" stroke="black" points="118,-245.5 118,-275.5 263,-275.5 263,-245.5 118,-245.5"/>
<text text-anchor="start" x="126" y="-263.5" font-family="Helvetica,sans-Serif" font-size="10.00">pocketmine\thread\Thread</text>
<text text-anchor="middle" x="190.5" y="-252.5" font-family="Helvetica,sans-Serif" font-size="10.00">Manager</text>
</a>
</g>
</g>
<!-- Node9&#45;&gt;Node14 -->
<g id="edge15" class="edge">
<title>Node9&#45;&gt;Node14</title>
<path fill="none" stroke="midnightblue" d="M57.09,-203.46C70.8,-213.74 89.72,-226.76 108,-235.5 115.74,-239.2 124.16,-242.51 132.55,-245.41"/>
<polygon fill="midnightblue" stroke="midnightblue" points="58.96,-200.48 48.89,-197.18 54.7,-206.04 58.96,-200.48"/>
</g>
<!-- Node15 -->
<g id="node16" class="node">
<title>Node15</title>
<g id="a_node16"><a xlink:href="df/d2b/classpocketmine_1_1thread_1_1_thread_safe_class_loader.html" target="_top" xlink:title=" ">
<polygon fill="white" stroke="black" points="118,-196.5 118,-226.5 263,-226.5 263,-196.5 118,-196.5"/>
<text text-anchor="start" x="126" y="-214.5" font-family="Helvetica,sans-Serif" font-size="10.00">pocketmine\thread\Thread</text>
<text text-anchor="middle" x="190.5" y="-203.5" font-family="Helvetica,sans-Serif" font-size="10.00">SafeClassLoader</text>
</a>
</g>
</g>
<!-- Node9&#45;&gt;Node15 -->
<g id="edge16" class="edge">
<title>Node9&#45;&gt;Node15</title>
<path fill="none" stroke="midnightblue" d="M82.33,-194.63C93.55,-196.4 105.84,-198.33 117.97,-200.24"/>
<polygon fill="midnightblue" stroke="midnightblue" points="82.79,-191.16 72.37,-193.07 81.7,-198.08 82.79,-191.16"/>
</g>
<!-- Node16 -->
<g id="node17" class="node">
<title>Node16</title>
<g id="a_node17"><a xlink:href="df/d2c/classpocketmine_1_1thread_1_1log_1_1_thread_safe_logger_attachment.html" target="_top" xlink:title=" ">
<polygon fill="white" stroke="black" points="108,-147.5 108,-177.5 273,-177.5 273,-147.5 108,-147.5"/>
<text text-anchor="start" x="116" y="-165.5" font-family="Helvetica,sans-Serif" font-size="10.00">pocketmine\thread\log</text>
<text text-anchor="middle" x="190.5" y="-154.5" font-family="Helvetica,sans-Serif" font-size="10.00">\ThreadSafeLoggerAttachment</text>
</a>
</g>
</g>
<!-- Node9&#45;&gt;Node16 -->
<g id="edge18" class="edge">
<title>Node9&#45;&gt;Node16</title>
<path fill="none" stroke="midnightblue" d="M82.3,-180.07C90.41,-178.74 99.07,-177.32 107.84,-175.89"/>
<polygon fill="midnightblue" stroke="midnightblue" points="81.67,-176.63 72.37,-181.7 82.8,-183.54 81.67,-176.63"/>
</g>
</g>
</svg>
