<?xml version="1.0" encoding="UTF-8" standalone="no"?>
<!DOCTYPE svg PUBLIC "-//W3C//DTD SVG 1.1//EN"
 "http://www.w3.org/Graphics/SVG/1.1/DTD/svg11.dtd">
<!-- Generated by graphviz version 2.43.0 (0)
 -->
<!-- Title: Graphical Class Hierarchy Pages: 1 -->
<svg width="352pt" height="230pt"
 viewBox="0.00 0.00 352.00 230.00" xmlns="http://www.w3.org/2000/svg" xmlns:xlink="http://www.w3.org/1999/xlink">
<g id="graph0" class="graph" transform="scale(1 1) rotate(0) translate(4 226)">
<title>Graphical Class Hierarchy</title>
<!-- Node0 -->
<g id="Node000000" class="node">
<title>Node0</title>
<g id="a_Node000000"><a xlink:href="d6/dd9/classpocketmine_1_1utils_1_1_registry_source.html" target="_top" xlink:title=" ">
<polygon fill="white" stroke="#666666" points="141,-126 0,-126 0,-96 141,-96 141,-126"/>
<text text-anchor="start" x="8" y="-114" font-family="Helvetica,sans-Serif" font-size="10.00">pocketmine\utils\Registry</text>
<text text-anchor="middle" x="70.5" y="-103" font-family="Helvetica,sans-Serif" font-size="10.00">Source</text>
</a>
</g>
</g>
<!-- Node1 -->
<g id="Node000001" class="node">
<title>Node1</title>
<g id="a_Node000001"><a xlink:href="d9/d11/classpocketmine_1_1block_1_1_vanilla_blocks_inputs.html" target="_top" xlink:title=" ">
<polygon fill="white" stroke="#666666" points="330,-222 191,-222 191,-192 330,-192 330,-222"/>
<text text-anchor="start" x="199" y="-210" font-family="Helvetica,sans-Serif" font-size="10.00">pocketmine\block\Vanilla</text>
<text text-anchor="middle" x="260.5" y="-199" font-family="Helvetica,sans-Serif" font-size="10.00">BlocksInputs</text>
</a>
</g>
</g>
<!-- Node0&#45;&gt;Node1 -->
<g id="edge1626_Node000000_Node000001" class="edge">
<title>Node0&#45;&gt;Node1</title>
<g id="a_edge1626_Node000000_Node000001"><a xlink:title=" ">
<path fill="none" stroke="#63b8ff" d="M97.77,-132.41C118.29,-148.25 148.09,-169.36 177,-183 184.01,-186.31 191.58,-189.27 199.19,-191.88"/>
<polygon fill="#63b8ff" stroke="#63b8ff" points="99.87,-129.61 89.84,-126.2 95.55,-135.12 99.87,-129.61"/>
</a>
</g>
</g>
<!-- Node2 -->
<g id="Node000002" class="node">
<title>Node2</title>
<g id="a_Node000002"><a xlink:href="db/d34/classpocketmine_1_1entity_1_1effect_1_1_vanilla_effects_inputs.html" target="_top" xlink:title=" ">
<polygon fill="white" stroke="#666666" points="328.5,-174 192.5,-174 192.5,-144 328.5,-144 328.5,-174"/>
<text text-anchor="start" x="200.5" y="-162" font-family="Helvetica,sans-Serif" font-size="10.00">pocketmine\entity\effect</text>
<text text-anchor="middle" x="260.5" y="-151" font-family="Helvetica,sans-Serif" font-size="10.00">\VanillaEffectsInputs</text>
</a>
</g>
</g>
<!-- Node0&#45;&gt;Node2 -->
<g id="edge1627_Node000000_Node000002" class="edge">
<title>Node0&#45;&gt;Node2</title>
<g id="a_edge1627_Node000000_Node000002"><a xlink:title=" ">
<path fill="none" stroke="#63b8ff" d="M140.36,-128.58C160.17,-133.64 181.6,-139.11 200.74,-144"/>
<polygon fill="#63b8ff" stroke="#63b8ff" points="141.02,-125.14 130.47,-126.06 139.29,-131.92 141.02,-125.14"/>
</a>
</g>
</g>
<!-- Node3 -->
<g id="Node000003" class="node">
<title>Node3</title>
<g id="a_Node000003"><a xlink:href="d2/d96/classpocketmine_1_1item_1_1_vanilla_armor_materials_inputs.html" target="_top" xlink:title=" ">
<polygon fill="white" stroke="#666666" points="343,-126 178,-126 178,-96 343,-96 343,-126"/>
<text text-anchor="start" x="186" y="-114" font-family="Helvetica,sans-Serif" font-size="10.00">pocketmine\item\VanillaArmor</text>
<text text-anchor="middle" x="260.5" y="-103" font-family="Helvetica,sans-Serif" font-size="10.00">MaterialsInputs</text>
</a>
</g>
</g>
<!-- Node0&#45;&gt;Node3 -->
<g id="edge1628_Node000000_Node000003" class="edge">
<title>Node0&#45;&gt;Node3</title>
<g id="a_edge1628_Node000000_Node000003"><a xlink:title=" ">
<path fill="none" stroke="#63b8ff" d="M151.4,-111C160.14,-111 169.05,-111 177.81,-111"/>
<polygon fill="#63b8ff" stroke="#63b8ff" points="151.24,-107.5 141.24,-111 151.24,-114.5 151.24,-107.5"/>
</a>
</g>
</g>
<!-- Node4 -->
<g id="Node000004" class="node">
<title>Node4</title>
<g id="a_Node000004"><a xlink:href="d7/d60/classpocketmine_1_1item_1_1_vanilla_items_inputs.html" target="_top" xlink:title=" ">
<polygon fill="white" stroke="#666666" points="342,-78 179,-78 179,-48 342,-48 342,-78"/>
<text text-anchor="start" x="187" y="-66" font-family="Helvetica,sans-Serif" font-size="10.00">pocketmine\item\VanillaItems</text>
<text text-anchor="middle" x="260.5" y="-55" font-family="Helvetica,sans-Serif" font-size="10.00">Inputs</text>
</a>
</g>
</g>
<!-- Node0&#45;&gt;Node4 -->
<g id="edge1629_Node000000_Node000004" class="edge">
<title>Node0&#45;&gt;Node4</title>
<g id="a_edge1629_Node000000_Node000004"><a xlink:title=" ">
<path fill="none" stroke="#63b8ff" d="M140.36,-93.42C160.17,-88.36 181.6,-82.89 200.74,-78"/>
<polygon fill="#63b8ff" stroke="#63b8ff" points="139.29,-90.08 130.47,-95.94 141.02,-96.86 139.29,-90.08"/>
</a>
</g>
</g>
<!-- Node5 -->
<g id="Node000005" class="node">
<title>Node5</title>
<g id="a_Node000005"><a xlink:href="d0/dbf/classpocketmine_1_1item_1_1enchantment_1_1_vanilla_enchantments_inputs.html" target="_top" xlink:title=" ">
<polygon fill="white" stroke="#666666" points="344,-30 177,-30 177,0 344,0 344,-30"/>
<text text-anchor="start" x="185" y="-18" font-family="Helvetica,sans-Serif" font-size="10.00">pocketmine\item\enchantment</text>
<text text-anchor="middle" x="260.5" y="-7" font-family="Helvetica,sans-Serif" font-size="10.00">\VanillaEnchantmentsInputs</text>
</a>
</g>
</g>
<!-- Node0&#45;&gt;Node5 -->
<g id="edge1630_Node000000_Node000005" class="edge">
<title>Node0&#45;&gt;Node5</title>
<g id="a_edge1630_Node000000_Node000005"><a xlink:title=" ">
<path fill="none" stroke="#63b8ff" d="M97.77,-89.59C118.29,-73.75 148.09,-52.64 177,-39 184.01,-35.69 191.58,-32.73 199.19,-30.12"/>
<polygon fill="#63b8ff" stroke="#63b8ff" points="95.55,-86.88 89.84,-95.8 99.87,-92.39 95.55,-86.88"/>
</a>
</g>
</g>
</g>
</svg>
