<?xml version="1.0" encoding="UTF-8" standalone="no"?>
<!DOCTYPE svg PUBLIC "-//W3C//DTD SVG 1.1//EN"
 "http://www.w3.org/Graphics/SVG/1.1/DTD/svg11.dtd">
<!-- Generated by graphviz version 2.43.0 (0)
 -->
<!-- Title: Graphical Class Hierarchy Pages: 1 -->
<svg width="407pt" height="566pt"
 viewBox="0.00 0.00 407.00 566.00" xmlns="http://www.w3.org/2000/svg" xmlns:xlink="http://www.w3.org/1999/xlink">
<g id="graph0" class="graph" transform="scale(1 1) rotate(0) translate(4 562)">
<title>Graphical Class Hierarchy</title>
<!-- Node0 -->
<g id="Node000000" class="node">
<title>Node0</title>
<g id="a_Node000000"><a xlink:href="db/da9/interfacepocketmine_1_1entity_1_1animation_1_1_animation.html" target="_top" xlink:title=" ">
<polygon fill="white" stroke="#666666" points="158,-294 0,-294 0,-264 158,-264 158,-294"/>
<text text-anchor="start" x="8" y="-282" font-family="Helvetica,sans-Serif" font-size="10.00">pocketmine\entity\animation</text>
<text text-anchor="middle" x="79" y="-271" font-family="Helvetica,sans-Serif" font-size="10.00">\Animation</text>
</a>
</g>
</g>
<!-- Node1 -->
<g id="Node000001" class="node">
<title>Node1</title>
<g id="a_Node000001"><a xlink:href="d7/dfc/classpocketmine_1_1entity_1_1animation_1_1_arm_swing_animation.html" target="_top" xlink:title=" ">
<polygon fill="white" stroke="#666666" points="375.5,-558 217.5,-558 217.5,-528 375.5,-528 375.5,-558"/>
<text text-anchor="start" x="225.5" y="-546" font-family="Helvetica,sans-Serif" font-size="10.00">pocketmine\entity\animation</text>
<text text-anchor="middle" x="296.5" y="-535" font-family="Helvetica,sans-Serif" font-size="10.00">\ArmSwingAnimation</text>
</a>
</g>
</g>
<!-- Node0&#45;&gt;Node1 -->
<g id="edge797_Node000000_Node000001" class="edge">
<title>Node0&#45;&gt;Node1</title>
<g id="a_edge797_Node000000_Node000001"><a xlink:title=" ">
<path fill="none" stroke="#63b8ff" d="M84.53,-304.28C94.73,-353.58 124.29,-462.66 194,-519 200.9,-524.58 208.88,-528.9 217.27,-532.24"/>
<polygon fill="#63b8ff" stroke="#63b8ff" points="87.9,-303.31 82.53,-294.17 81.03,-304.66 87.9,-303.31"/>
</a>
</g>
</g>
<!-- Node2 -->
<g id="Node000002" class="node">
<title>Node2</title>
<g id="a_Node000002"><a xlink:href="dc/d85/classpocketmine_1_1entity_1_1animation_1_1_arrow_shake_animation.html" target="_top" xlink:title=" ">
<polygon fill="white" stroke="#666666" points="375.5,-510 217.5,-510 217.5,-480 375.5,-480 375.5,-510"/>
<text text-anchor="start" x="225.5" y="-498" font-family="Helvetica,sans-Serif" font-size="10.00">pocketmine\entity\animation</text>
<text text-anchor="middle" x="296.5" y="-487" font-family="Helvetica,sans-Serif" font-size="10.00">\ArrowShakeAnimation</text>
</a>
</g>
</g>
<!-- Node0&#45;&gt;Node2 -->
<g id="edge798_Node000000_Node000002" class="edge">
<title>Node0&#45;&gt;Node2</title>
<g id="a_edge798_Node000000_Node000002"><a xlink:title=" ">
<path fill="none" stroke="#63b8ff" d="M87.51,-303.57C101.46,-344.88 135.39,-427.94 194,-471 201.08,-476.2 209.12,-480.29 217.5,-483.51"/>
<polygon fill="#63b8ff" stroke="#63b8ff" points="90.83,-302.44 84.4,-294.02 84.17,-304.61 90.83,-302.44"/>
</a>
</g>
</g>
<!-- Node3 -->
<g id="Node000003" class="node">
<title>Node3</title>
<g id="a_Node000003"><a xlink:href="d7/df9/classpocketmine_1_1entity_1_1animation_1_1_consuming_item_animation.html" target="_top" xlink:title=" ">
<polygon fill="white" stroke="#666666" points="375.5,-462 217.5,-462 217.5,-432 375.5,-432 375.5,-462"/>
<text text-anchor="start" x="225.5" y="-450" font-family="Helvetica,sans-Serif" font-size="10.00">pocketmine\entity\animation</text>
<text text-anchor="middle" x="296.5" y="-439" font-family="Helvetica,sans-Serif" font-size="10.00">\ConsumingItemAnimation</text>
</a>
</g>
</g>
<!-- Node0&#45;&gt;Node3 -->
<g id="edge799_Node000000_Node000003" class="edge">
<title>Node0&#45;&gt;Node3</title>
<g id="a_edge799_Node000000_Node000003"><a xlink:title=" ">
<path fill="none" stroke="#63b8ff" d="M92.4,-303.26C110.29,-335.74 146.5,-392.78 194,-423 201.18,-427.57 209.15,-431.27 217.36,-434.27"/>
<polygon fill="#63b8ff" stroke="#63b8ff" points="95.45,-301.56 87.64,-294.4 89.29,-304.87 95.45,-301.56"/>
</a>
</g>
</g>
<!-- Node4 -->
<g id="Node000004" class="node">
<title>Node4</title>
<g id="a_Node000004"><a xlink:href="dd/d0b/classpocketmine_1_1entity_1_1animation_1_1_critical_hit_animation.html" target="_top" xlink:title=" ">
<polygon fill="white" stroke="#666666" points="375.5,-414 217.5,-414 217.5,-384 375.5,-384 375.5,-414"/>
<text text-anchor="start" x="225.5" y="-402" font-family="Helvetica,sans-Serif" font-size="10.00">pocketmine\entity\animation</text>
<text text-anchor="middle" x="296.5" y="-391" font-family="Helvetica,sans-Serif" font-size="10.00">\CriticalHitAnimation</text>
</a>
</g>
</g>
<!-- Node0&#45;&gt;Node4 -->
<g id="edge800_Node000000_Node000004" class="edge">
<title>Node0&#45;&gt;Node4</title>
<g id="a_edge800_Node000000_Node000004"><a xlink:title=" ">
<path fill="none" stroke="#63b8ff" d="M100.42,-301.48C121.68,-323.5 156.99,-356.38 194,-375 201.36,-378.7 209.31,-381.85 217.41,-384.51"/>
<polygon fill="#63b8ff" stroke="#63b8ff" points="102.93,-299.03 93.51,-294.18 97.84,-303.85 102.93,-299.03"/>
</a>
</g>
</g>
<!-- Node5 -->
<g id="Node000005" class="node">
<title>Node5</title>
<g id="a_Node000005"><a xlink:href="d5/d2e/classpocketmine_1_1entity_1_1animation_1_1_death_animation.html" target="_top" xlink:title=" ">
<polygon fill="white" stroke="#666666" points="375.5,-366 217.5,-366 217.5,-336 375.5,-336 375.5,-366"/>
<text text-anchor="start" x="225.5" y="-354" font-family="Helvetica,sans-Serif" font-size="10.00">pocketmine\entity\animation</text>
<text text-anchor="middle" x="296.5" y="-343" font-family="Helvetica,sans-Serif" font-size="10.00">\DeathAnimation</text>
</a>
</g>
</g>
<!-- Node0&#45;&gt;Node5 -->
<g id="edge801_Node000000_Node000005" class="edge">
<title>Node0&#45;&gt;Node5</title>
<g id="a_edge801_Node000000_Node000005"><a xlink:title=" ">
<path fill="none" stroke="#63b8ff" d="M121.02,-298.22C142.44,-307.76 169.28,-318.94 194,-327 203.98,-330.26 214.65,-333.27 225.19,-335.98"/>
<polygon fill="#63b8ff" stroke="#63b8ff" points="122.44,-295.03 111.89,-294.11 119.57,-301.41 122.44,-295.03"/>
</a>
</g>
</g>
<!-- Node6 -->
<g id="Node000006" class="node">
<title>Node6</title>
<g id="a_Node000006"><a xlink:href="d5/dab/classpocketmine_1_1entity_1_1animation_1_1_firework_particles_animation.html" target="_top" xlink:title=" ">
<polygon fill="white" stroke="#666666" points="375.5,-318 217.5,-318 217.5,-288 375.5,-288 375.5,-318"/>
<text text-anchor="start" x="225.5" y="-306" font-family="Helvetica,sans-Serif" font-size="10.00">pocketmine\entity\animation</text>
<text text-anchor="middle" x="296.5" y="-295" font-family="Helvetica,sans-Serif" font-size="10.00">\FireworkParticlesAnimation</text>
</a>
</g>
</g>
<!-- Node0&#45;&gt;Node6 -->
<g id="edge802_Node000000_Node000006" class="edge">
<title>Node0&#45;&gt;Node6</title>
<g id="a_edge802_Node000000_Node000006"><a xlink:title=" ">
<path fill="none" stroke="#63b8ff" d="M168.15,-288.82C184.43,-290.63 201.34,-292.51 217.3,-294.29"/>
<polygon fill="#63b8ff" stroke="#63b8ff" points="168.43,-285.33 158.11,-287.7 167.66,-292.28 168.43,-285.33"/>
</a>
</g>
</g>
<!-- Node7 -->
<g id="Node000007" class="node">
<title>Node7</title>
<g id="a_Node000007"><a xlink:href="d5/de7/classpocketmine_1_1entity_1_1animation_1_1_hurt_animation.html" target="_top" xlink:title=" ">
<polygon fill="white" stroke="#666666" points="375.5,-270 217.5,-270 217.5,-240 375.5,-240 375.5,-270"/>
<text text-anchor="start" x="225.5" y="-258" font-family="Helvetica,sans-Serif" font-size="10.00">pocketmine\entity\animation</text>
<text text-anchor="middle" x="296.5" y="-247" font-family="Helvetica,sans-Serif" font-size="10.00">\HurtAnimation</text>
</a>
</g>
</g>
<!-- Node0&#45;&gt;Node7 -->
<g id="edge803_Node000000_Node000007" class="edge">
<title>Node0&#45;&gt;Node7</title>
<g id="a_edge803_Node000000_Node000007"><a xlink:title=" ">
<path fill="none" stroke="#63b8ff" d="M168.15,-269.18C184.43,-267.37 201.34,-265.49 217.3,-263.71"/>
<polygon fill="#63b8ff" stroke="#63b8ff" points="167.66,-265.72 158.11,-270.3 168.43,-272.67 167.66,-265.72"/>
</a>
</g>
</g>
<!-- Node8 -->
<g id="Node000008" class="node">
<title>Node8</title>
<g id="a_Node000008"><a xlink:href="da/dc8/classpocketmine_1_1entity_1_1animation_1_1_item_entity_stack_size_change_animation.html" target="_top" xlink:title=" ">
<polygon fill="white" stroke="#666666" points="399,-222 194,-222 194,-192 399,-192 399,-222"/>
<text text-anchor="start" x="202" y="-210" font-family="Helvetica,sans-Serif" font-size="10.00">pocketmine\entity\animation</text>
<text text-anchor="middle" x="296.5" y="-199" font-family="Helvetica,sans-Serif" font-size="10.00">\ItemEntityStackSizeChangeAnimation</text>
</a>
</g>
</g>
<!-- Node0&#45;&gt;Node8 -->
<g id="edge804_Node000000_Node000008" class="edge">
<title>Node0&#45;&gt;Node8</title>
<g id="a_edge804_Node000000_Node000008"><a xlink:title=" ">
<path fill="none" stroke="#63b8ff" d="M121.02,-259.78C142.44,-250.24 169.28,-239.06 194,-231 203.98,-227.74 214.65,-224.73 225.19,-222.02"/>
<polygon fill="#63b8ff" stroke="#63b8ff" points="119.57,-256.59 111.89,-263.89 122.44,-262.97 119.57,-256.59"/>
</a>
</g>
</g>
<!-- Node9 -->
<g id="Node000009" class="node">
<title>Node9</title>
<g id="a_Node000009"><a xlink:href="df/df7/classpocketmine_1_1entity_1_1animation_1_1_magic_hit_animation.html" target="_top" xlink:title=" ">
<polygon fill="white" stroke="#666666" points="375.5,-174 217.5,-174 217.5,-144 375.5,-144 375.5,-174"/>
<text text-anchor="start" x="225.5" y="-162" font-family="Helvetica,sans-Serif" font-size="10.00">pocketmine\entity\animation</text>
<text text-anchor="middle" x="296.5" y="-151" font-family="Helvetica,sans-Serif" font-size="10.00">\MagicHitAnimation</text>
</a>
</g>
</g>
<!-- Node0&#45;&gt;Node9 -->
<g id="edge805_Node000000_Node000009" class="edge">
<title>Node0&#45;&gt;Node9</title>
<g id="a_edge805_Node000000_Node000009"><a xlink:title=" ">
<path fill="none" stroke="#63b8ff" d="M100.42,-256.52C121.68,-234.5 156.99,-201.62 194,-183 201.36,-179.3 209.31,-176.15 217.41,-173.49"/>
<polygon fill="#63b8ff" stroke="#63b8ff" points="97.84,-254.15 93.51,-263.82 102.93,-258.97 97.84,-254.15"/>
</a>
</g>
</g>
<!-- Node10 -->
<g id="Node000010" class="node">
<title>Node10</title>
<g id="a_Node000010"><a xlink:href="d3/d4f/classpocketmine_1_1entity_1_1animation_1_1_respawn_animation.html" target="_top" xlink:title=" ">
<polygon fill="white" stroke="#666666" points="375.5,-126 217.5,-126 217.5,-96 375.5,-96 375.5,-126"/>
<text text-anchor="start" x="225.5" y="-114" font-family="Helvetica,sans-Serif" font-size="10.00">pocketmine\entity\animation</text>
<text text-anchor="middle" x="296.5" y="-103" font-family="Helvetica,sans-Serif" font-size="10.00">\RespawnAnimation</text>
</a>
</g>
</g>
<!-- Node0&#45;&gt;Node10 -->
<g id="edge806_Node000000_Node000010" class="edge">
<title>Node0&#45;&gt;Node10</title>
<g id="a_edge806_Node000000_Node000010"><a xlink:title=" ">
<path fill="none" stroke="#63b8ff" d="M92.4,-254.74C110.29,-222.26 146.5,-165.22 194,-135 201.18,-130.43 209.15,-126.73 217.36,-123.73"/>
<polygon fill="#63b8ff" stroke="#63b8ff" points="89.29,-253.13 87.64,-263.6 95.45,-256.44 89.29,-253.13"/>
</a>
</g>
</g>
<!-- Node11 -->
<g id="Node000011" class="node">
<title>Node11</title>
<g id="a_Node000011"><a xlink:href="d7/d98/classpocketmine_1_1entity_1_1animation_1_1_squid_ink_cloud_animation.html" target="_top" xlink:title=" ">
<polygon fill="white" stroke="#666666" points="375.5,-78 217.5,-78 217.5,-48 375.5,-48 375.5,-78"/>
<text text-anchor="start" x="225.5" y="-66" font-family="Helvetica,sans-Serif" font-size="10.00">pocketmine\entity\animation</text>
<text text-anchor="middle" x="296.5" y="-55" font-family="Helvetica,sans-Serif" font-size="10.00">\SquidInkCloudAnimation</text>
</a>
</g>
</g>
<!-- Node0&#45;&gt;Node11 -->
<g id="edge807_Node000000_Node000011" class="edge">
<title>Node0&#45;&gt;Node11</title>
<g id="a_edge807_Node000000_Node000011"><a xlink:title=" ">
<path fill="none" stroke="#63b8ff" d="M87.51,-254.43C101.46,-213.12 135.39,-130.06 194,-87 201.08,-81.8 209.12,-77.71 217.5,-74.49"/>
<polygon fill="#63b8ff" stroke="#63b8ff" points="84.17,-253.39 84.4,-263.98 90.83,-255.56 84.17,-253.39"/>
</a>
</g>
</g>
<!-- Node12 -->
<g id="Node000012" class="node">
<title>Node12</title>
<g id="a_Node000012"><a xlink:href="db/dca/classpocketmine_1_1entity_1_1animation_1_1_totem_use_animation.html" target="_top" xlink:title=" ">
<polygon fill="white" stroke="#666666" points="375.5,-30 217.5,-30 217.5,0 375.5,0 375.5,-30"/>
<text text-anchor="start" x="225.5" y="-18" font-family="Helvetica,sans-Serif" font-size="10.00">pocketmine\entity\animation</text>
<text text-anchor="middle" x="296.5" y="-7" font-family="Helvetica,sans-Serif" font-size="10.00">\TotemUseAnimation</text>
</a>
</g>
</g>
<!-- Node0&#45;&gt;Node12 -->
<g id="edge808_Node000000_Node000012" class="edge">
<title>Node0&#45;&gt;Node12</title>
<g id="a_edge808_Node000000_Node000012"><a xlink:title=" ">
<path fill="none" stroke="#63b8ff" d="M84.53,-253.72C94.73,-204.42 124.29,-95.34 194,-39 200.9,-33.42 208.88,-29.1 217.27,-25.76"/>
<polygon fill="#63b8ff" stroke="#63b8ff" points="81.03,-253.34 82.53,-263.83 87.9,-254.69 81.03,-253.34"/>
</a>
</g>
</g>
</g>
</svg>
