<?xml version="1.0" encoding="UTF-8" standalone="no"?>
<!DOCTYPE svg PUBLIC "-//W3C//DTD SVG 1.1//EN"
 "http://www.w3.org/Graphics/SVG/1.1/DTD/svg11.dtd">
<!-- Generated by graphviz version 2.43.0 (0)
 -->
<!-- Title: Graphical Class Hierarchy Pages: 1 -->
<svg width="282pt" height="167pt"
 viewBox="0.00 0.00 282.00 167.00" xmlns="http://www.w3.org/2000/svg" xmlns:xlink="http://www.w3.org/1999/xlink">
<g id="graph0" class="graph" transform="scale(1 1) rotate(0) translate(4 163)">
<title>Graphical Class Hierarchy</title>
<!-- Node0 -->
<g id="Node000000" class="node">
<title>Node0</title>
<g id="a_Node000000"><a xlink:href="da/d0c/classpocketmine_1_1network_1_1mcpe_1_1protocol_1_1types_1_1_game_rule.html" target="_top" xlink:title=" ">
<polygon fill="white" stroke="#666666" points="119,-100 0,-100 0,-59 119,-59 119,-100"/>
<text text-anchor="start" x="8" y="-88" font-family="Helvetica,sans-Serif" font-size="10.00">pocketmine\network</text>
<text text-anchor="start" x="8" y="-77" font-family="Helvetica,sans-Serif" font-size="10.00">\mcpe\protocol\types</text>
<text text-anchor="middle" x="59.5" y="-66" font-family="Helvetica,sans-Serif" font-size="10.00">\GameRule</text>
</a>
</g>
</g>
<!-- Node1 -->
<g id="Node000001" class="node">
<title>Node1</title>
<g id="a_Node000001"><a xlink:href="d0/d17/classpocketmine_1_1network_1_1mcpe_1_1protocol_1_1types_1_1_bool_game_rule.html" target="_top" xlink:title=" ">
<polygon fill="white" stroke="#666666" points="274,-159 155,-159 155,-118 274,-118 274,-159"/>
<text text-anchor="start" x="163" y="-147" font-family="Helvetica,sans-Serif" font-size="10.00">pocketmine\network</text>
<text text-anchor="start" x="163" y="-136" font-family="Helvetica,sans-Serif" font-size="10.00">\mcpe\protocol\types</text>
<text text-anchor="middle" x="214.5" y="-125" font-family="Helvetica,sans-Serif" font-size="10.00">\BoolGameRule</text>
</a>
</g>
</g>
<!-- Node0&#45;&gt;Node1 -->
<g id="edge1532_Node000000_Node000001" class="edge">
<title>Node0&#45;&gt;Node1</title>
<g id="a_edge1532_Node000000_Node000001"><a xlink:title=" ">
<path fill="none" stroke="#63b8ff" d="M123.65,-103.85C135.82,-108.55 148.46,-113.42 160.28,-117.98"/>
<polygon fill="#63b8ff" stroke="#63b8ff" points="124.6,-100.47 114.01,-100.14 122.08,-107 124.6,-100.47"/>
</a>
</g>
</g>
<!-- Node2 -->
<g id="Node000002" class="node">
<title>Node2</title>
<g id="a_Node000002"><a xlink:href="d0/d39/classpocketmine_1_1network_1_1mcpe_1_1protocol_1_1types_1_1_float_game_rule.html" target="_top" xlink:title=" ">
<polygon fill="white" stroke="#666666" points="274,-100 155,-100 155,-59 274,-59 274,-100"/>
<text text-anchor="start" x="163" y="-88" font-family="Helvetica,sans-Serif" font-size="10.00">pocketmine\network</text>
<text text-anchor="start" x="163" y="-77" font-family="Helvetica,sans-Serif" font-size="10.00">\mcpe\protocol\types</text>
<text text-anchor="middle" x="214.5" y="-66" font-family="Helvetica,sans-Serif" font-size="10.00">\FloatGameRule</text>
</a>
</g>
</g>
<!-- Node0&#45;&gt;Node2 -->
<g id="edge1533_Node000000_Node000002" class="edge">
<title>Node0&#45;&gt;Node2</title>
<g id="a_edge1533_Node000000_Node000002"><a xlink:title=" ">
<path fill="none" stroke="#63b8ff" d="M129.49,-79.5C137.99,-79.5 146.62,-79.5 154.94,-79.5"/>
<polygon fill="#63b8ff" stroke="#63b8ff" points="129.22,-76 119.22,-79.5 129.22,-83 129.22,-76"/>
</a>
</g>
</g>
<!-- Node3 -->
<g id="Node000003" class="node">
<title>Node3</title>
<g id="a_Node000003"><a xlink:href="d5/db4/classpocketmine_1_1network_1_1mcpe_1_1protocol_1_1types_1_1_int_game_rule.html" target="_top" xlink:title=" ">
<polygon fill="white" stroke="#666666" points="274,-41 155,-41 155,0 274,0 274,-41"/>
<text text-anchor="start" x="163" y="-29" font-family="Helvetica,sans-Serif" font-size="10.00">pocketmine\network</text>
<text text-anchor="start" x="163" y="-18" font-family="Helvetica,sans-Serif" font-size="10.00">\mcpe\protocol\types</text>
<text text-anchor="middle" x="214.5" y="-7" font-family="Helvetica,sans-Serif" font-size="10.00">\IntGameRule</text>
</a>
</g>
</g>
<!-- Node0&#45;&gt;Node3 -->
<g id="edge1534_Node000000_Node000003" class="edge">
<title>Node0&#45;&gt;Node3</title>
<g id="a_edge1534_Node000000_Node000003"><a xlink:title=" ">
<path fill="none" stroke="#63b8ff" d="M123.65,-55.15C135.82,-50.45 148.46,-45.58 160.28,-41.02"/>
<polygon fill="#63b8ff" stroke="#63b8ff" points="122.08,-52 114.01,-58.86 124.6,-58.53 122.08,-52"/>
</a>
</g>
</g>
</g>
</svg>
