<?xml version="1.0" encoding="UTF-8" standalone="no"?>
<!DOCTYPE svg PUBLIC "-//W3C//DTD SVG 1.1//EN"
 "http://www.w3.org/Graphics/SVG/1.1/DTD/svg11.dtd">
<!-- Generated by graphviz version 2.43.0 (0)
 -->
<!-- Title: Graphical Class Hierarchy Pages: 1 -->
<svg width="664pt" height="398pt"
 viewBox="0.00 0.00 664.00 398.00" xmlns="http://www.w3.org/2000/svg" xmlns:xlink="http://www.w3.org/1999/xlink">
<g id="graph0" class="graph" transform="scale(1 1) rotate(0) translate(4 394)">
<title>Graphical Class Hierarchy</title>
<!-- Node0 -->
<g id="Node000000" class="node">
<title>Node0</title>
<g id="a_Node000000"><a xlink:href="d8/d20/classpocketmine_1_1world_1_1biome_1_1_biome.html" target="_top" xlink:title=" ">
<polygon fill="white" stroke="#666666" points="137,-174 0,-174 0,-144 137,-144 137,-174"/>
<text text-anchor="start" x="8" y="-162" font-family="Helvetica,sans-Serif" font-size="10.00">pocketmine\world\biome</text>
<text text-anchor="middle" x="68.5" y="-151" font-family="Helvetica,sans-Serif" font-size="10.00">\Biome</text>
</a>
</g>
</g>
<!-- Node1 -->
<g id="Node000001" class="node">
<title>Node1</title>
<g id="a_Node000001"><a xlink:href="d8/db5/classpocketmine_1_1world_1_1biome_1_1_grassy_biome.html" target="_top" xlink:title=" ">
<polygon fill="white" stroke="#666666" points="310,-318 173,-318 173,-288 310,-288 310,-318"/>
<text text-anchor="start" x="181" y="-306" font-family="Helvetica,sans-Serif" font-size="10.00">pocketmine\world\biome</text>
<text text-anchor="middle" x="241.5" y="-295" font-family="Helvetica,sans-Serif" font-size="10.00">\GrassyBiome</text>
</a>
</g>
</g>
<!-- Node0&#45;&gt;Node1 -->
<g id="edge1421_Node000000_Node000001" class="edge">
<title>Node0&#45;&gt;Node1</title>
<g id="a_edge1421_Node000000_Node000001"><a xlink:title=" ">
<path fill="none" stroke="#63b8ff" d="M84.26,-182.53C102.2,-209.36 134.86,-252.89 173,-279 177.93,-282.37 183.38,-285.32 188.99,-287.89"/>
<polygon fill="#63b8ff" stroke="#63b8ff" points="87.16,-180.57 78.75,-174.12 81.3,-184.4 87.16,-180.57"/>
</a>
</g>
</g>
<!-- Node7 -->
<g id="Node000007" class="node">
<title>Node7</title>
<g id="a_Node000007"><a xlink:href="da/d10/classpocketmine_1_1world_1_1biome_1_1_hell_biome.html" target="_top" xlink:title=" ">
<polygon fill="white" stroke="#666666" points="310,-270 173,-270 173,-240 310,-240 310,-270"/>
<text text-anchor="start" x="181" y="-258" font-family="Helvetica,sans-Serif" font-size="10.00">pocketmine\world\biome</text>
<text text-anchor="middle" x="241.5" y="-247" font-family="Helvetica,sans-Serif" font-size="10.00">\HellBiome</text>
</a>
</g>
</g>
<!-- Node0&#45;&gt;Node7 -->
<g id="edge1427_Node000000_Node000007" class="edge">
<title>Node0&#45;&gt;Node7</title>
<g id="a_edge1427_Node000000_Node000007"><a xlink:title=" ">
<path fill="none" stroke="#63b8ff" d="M96.08,-180.46C116.28,-196.01 145.23,-216.73 173,-231 179.31,-234.24 186.15,-237.23 192.98,-239.91"/>
<polygon fill="#63b8ff" stroke="#63b8ff" points="98.03,-177.54 87.99,-174.15 93.72,-183.06 98.03,-177.54"/>
</a>
</g>
</g>
<!-- Node8 -->
<g id="Node000008" class="node">
<title>Node8</title>
<g id="a_Node000008"><a xlink:href="dd/df1/classpocketmine_1_1world_1_1biome_1_1_ocean_biome.html" target="_top" xlink:title=" ">
<polygon fill="white" stroke="#666666" points="310,-222 173,-222 173,-192 310,-192 310,-222"/>
<text text-anchor="start" x="181" y="-210" font-family="Helvetica,sans-Serif" font-size="10.00">pocketmine\world\biome</text>
<text text-anchor="middle" x="241.5" y="-199" font-family="Helvetica,sans-Serif" font-size="10.00">\OceanBiome</text>
</a>
</g>
</g>
<!-- Node0&#45;&gt;Node8 -->
<g id="edge1428_Node000000_Node000008" class="edge">
<title>Node0&#45;&gt;Node8</title>
<g id="a_edge1428_Node000000_Node000008"><a xlink:title=" ">
<path fill="none" stroke="#63b8ff" d="M132.87,-176.79C150.69,-181.79 169.88,-187.18 187.05,-192"/>
<polygon fill="#63b8ff" stroke="#63b8ff" points="133.71,-173.39 123.14,-174.06 131.82,-180.13 133.71,-173.39"/>
</a>
</g>
</g>
<!-- Node9 -->
<g id="Node000009" class="node">
<title>Node9</title>
<g id="a_Node000009"><a xlink:href="d5/d52/classpocketmine_1_1world_1_1biome_1_1_river_biome.html" target="_top" xlink:title=" ">
<polygon fill="white" stroke="#666666" points="310,-174 173,-174 173,-144 310,-144 310,-174"/>
<text text-anchor="start" x="181" y="-162" font-family="Helvetica,sans-Serif" font-size="10.00">pocketmine\world\biome</text>
<text text-anchor="middle" x="241.5" y="-151" font-family="Helvetica,sans-Serif" font-size="10.00">\RiverBiome</text>
</a>
</g>
</g>
<!-- Node0&#45;&gt;Node9 -->
<g id="edge1429_Node000000_Node000009" class="edge">
<title>Node0&#45;&gt;Node9</title>
<g id="a_edge1429_Node000000_Node000009"><a xlink:title=" ">
<path fill="none" stroke="#63b8ff" d="M147.1,-159C155.69,-159 164.39,-159 172.85,-159"/>
<polygon fill="#63b8ff" stroke="#63b8ff" points="147.08,-155.5 137.08,-159 147.08,-162.5 147.08,-155.5"/>
</a>
</g>
</g>
<!-- Node10 -->
<g id="Node000010" class="node">
<title>Node10</title>
<g id="a_Node000010"><a xlink:href="d4/dce/classpocketmine_1_1world_1_1biome_1_1_sandy_biome.html" target="_top" xlink:title=" ">
<polygon fill="white" stroke="#666666" points="310,-126 173,-126 173,-96 310,-96 310,-126"/>
<text text-anchor="start" x="181" y="-114" font-family="Helvetica,sans-Serif" font-size="10.00">pocketmine\world\biome</text>
<text text-anchor="middle" x="241.5" y="-103" font-family="Helvetica,sans-Serif" font-size="10.00">\SandyBiome</text>
</a>
</g>
</g>
<!-- Node0&#45;&gt;Node10 -->
<g id="edge1430_Node000000_Node000010" class="edge">
<title>Node0&#45;&gt;Node10</title>
<g id="a_edge1430_Node000000_Node000010"><a xlink:title=" ">
<path fill="none" stroke="#63b8ff" d="M132.87,-141.21C150.69,-136.21 169.88,-130.82 187.05,-126"/>
<polygon fill="#63b8ff" stroke="#63b8ff" points="131.82,-137.87 123.14,-143.94 133.71,-144.61 131.82,-137.87"/>
</a>
</g>
</g>
<!-- Node12 -->
<g id="Node000012" class="node">
<title>Node12</title>
<g id="a_Node000012"><a xlink:href="dd/d55/classpocketmine_1_1world_1_1biome_1_1_snowy_biome.html" target="_top" xlink:title=" ">
<polygon fill="white" stroke="#666666" points="310,-78 173,-78 173,-48 310,-48 310,-78"/>
<text text-anchor="start" x="181" y="-66" font-family="Helvetica,sans-Serif" font-size="10.00">pocketmine\world\biome</text>
<text text-anchor="middle" x="241.5" y="-55" font-family="Helvetica,sans-Serif" font-size="10.00">\SnowyBiome</text>
</a>
</g>
</g>
<!-- Node0&#45;&gt;Node12 -->
<g id="edge1432_Node000000_Node000012" class="edge">
<title>Node0&#45;&gt;Node12</title>
<g id="a_edge1432_Node000000_Node000012"><a xlink:title=" ">
<path fill="none" stroke="#63b8ff" d="M96.08,-137.54C116.28,-121.99 145.23,-101.27 173,-87 179.31,-83.76 186.15,-80.77 192.98,-78.09"/>
<polygon fill="#63b8ff" stroke="#63b8ff" points="93.72,-134.94 87.99,-143.85 98.03,-140.46 93.72,-134.94"/>
</a>
</g>
</g>
<!-- Node15 -->
<g id="Node000015" class="node">
<title>Node15</title>
<g id="a_Node000015"><a xlink:href="d8/d8c/classpocketmine_1_1world_1_1biome_1_1_unknown_biome.html" target="_top" xlink:title=" ">
<polygon fill="white" stroke="#666666" points="310,-30 173,-30 173,0 310,0 310,-30"/>
<text text-anchor="start" x="181" y="-18" font-family="Helvetica,sans-Serif" font-size="10.00">pocketmine\world\biome</text>
<text text-anchor="middle" x="241.5" y="-7" font-family="Helvetica,sans-Serif" font-size="10.00">\UnknownBiome</text>
</a>
</g>
</g>
<!-- Node0&#45;&gt;Node15 -->
<g id="edge1435_Node000000_Node000015" class="edge">
<title>Node0&#45;&gt;Node15</title>
<g id="a_edge1435_Node000000_Node000015"><a xlink:title=" ">
<path fill="none" stroke="#63b8ff" d="M84.26,-135.47C102.2,-108.64 134.86,-65.11 173,-39 177.93,-35.63 183.38,-32.68 188.99,-30.11"/>
<polygon fill="#63b8ff" stroke="#63b8ff" points="81.3,-133.6 78.75,-143.88 87.16,-137.43 81.3,-133.6"/>
</a>
</g>
</g>
<!-- Node2 -->
<g id="Node000002" class="node">
<title>Node2</title>
<g id="a_Node000002"><a xlink:href="de/df1/classpocketmine_1_1world_1_1biome_1_1_forest_biome.html" target="_top" xlink:title=" ">
<polygon fill="white" stroke="#666666" points="483,-390 346,-390 346,-360 483,-360 483,-390"/>
<text text-anchor="start" x="354" y="-378" font-family="Helvetica,sans-Serif" font-size="10.00">pocketmine\world\biome</text>
<text text-anchor="middle" x="414.5" y="-367" font-family="Helvetica,sans-Serif" font-size="10.00">\ForestBiome</text>
</a>
</g>
</g>
<!-- Node1&#45;&gt;Node2 -->
<g id="edge1422_Node000001_Node000002" class="edge">
<title>Node1&#45;&gt;Node2</title>
<g id="a_edge1422_Node000001_Node000002"><a xlink:title=" ">
<path fill="none" stroke="#63b8ff" d="M281.99,-322.36C301.14,-331.48 324.57,-342.24 346,-351 353.48,-354.06 361.52,-357.11 369.34,-359.96"/>
<polygon fill="#63b8ff" stroke="#63b8ff" points="283.5,-319.2 272.97,-318.04 280.47,-325.51 283.5,-319.2"/>
</a>
</g>
</g>
<!-- Node3 -->
<g id="Node000003" class="node">
<title>Node3</title>
<g id="a_Node000003"><a xlink:href="d8/da8/classpocketmine_1_1world_1_1biome_1_1_mountains_biome.html" target="_top" xlink:title=" ">
<polygon fill="white" stroke="#666666" points="483,-342 346,-342 346,-312 483,-312 483,-342"/>
<text text-anchor="start" x="354" y="-330" font-family="Helvetica,sans-Serif" font-size="10.00">pocketmine\world\biome</text>
<text text-anchor="middle" x="414.5" y="-319" font-family="Helvetica,sans-Serif" font-size="10.00">\MountainsBiome</text>
</a>
</g>
</g>
<!-- Node1&#45;&gt;Node3 -->
<g id="edge1423_Node000001_Node000003" class="edge">
<title>Node1&#45;&gt;Node3</title>
<g id="a_edge1423_Node000001_Node000003"><a xlink:title=" ">
<path fill="none" stroke="#63b8ff" d="M320.1,-313.89C328.69,-315.1 337.39,-316.32 345.85,-317.5"/>
<polygon fill="#63b8ff" stroke="#63b8ff" points="320.47,-310.41 310.08,-312.49 319.5,-317.34 320.47,-310.41"/>
</a>
</g>
</g>
<!-- Node5 -->
<g id="Node000005" class="node">
<title>Node5</title>
<g id="a_Node000005"><a xlink:href="d7/d60/classpocketmine_1_1world_1_1biome_1_1_plain_biome.html" target="_top" xlink:title=" ">
<polygon fill="white" stroke="#666666" points="483,-294 346,-294 346,-264 483,-264 483,-294"/>
<text text-anchor="start" x="354" y="-282" font-family="Helvetica,sans-Serif" font-size="10.00">pocketmine\world\biome</text>
<text text-anchor="middle" x="414.5" y="-271" font-family="Helvetica,sans-Serif" font-size="10.00">\PlainBiome</text>
</a>
</g>
</g>
<!-- Node1&#45;&gt;Node5 -->
<g id="edge1425_Node000001_Node000005" class="edge">
<title>Node1&#45;&gt;Node5</title>
<g id="a_edge1425_Node000001_Node000005"><a xlink:title=" ">
<path fill="none" stroke="#63b8ff" d="M320.1,-292.11C328.69,-290.9 337.39,-289.68 345.85,-288.5"/>
<polygon fill="#63b8ff" stroke="#63b8ff" points="319.5,-288.66 310.08,-293.51 320.47,-295.59 319.5,-288.66"/>
</a>
</g>
</g>
<!-- Node6 -->
<g id="Node000006" class="node">
<title>Node6</title>
<g id="a_Node000006"><a xlink:href="d1/dd8/classpocketmine_1_1world_1_1biome_1_1_swamp_biome.html" target="_top" xlink:title=" ">
<polygon fill="white" stroke="#666666" points="483,-246 346,-246 346,-216 483,-216 483,-246"/>
<text text-anchor="start" x="354" y="-234" font-family="Helvetica,sans-Serif" font-size="10.00">pocketmine\world\biome</text>
<text text-anchor="middle" x="414.5" y="-223" font-family="Helvetica,sans-Serif" font-size="10.00">\SwampBiome</text>
</a>
</g>
</g>
<!-- Node1&#45;&gt;Node6 -->
<g id="edge1426_Node000001_Node000006" class="edge">
<title>Node1&#45;&gt;Node6</title>
<g id="a_edge1426_Node000001_Node000006"><a xlink:title=" ">
<path fill="none" stroke="#63b8ff" d="M299.03,-284.09C302.78,-282.47 306.47,-280.77 310,-279 327.19,-270.38 328.81,-263.62 346,-255 352.45,-251.77 359.44,-248.77 366.4,-246.06"/>
<polygon fill="#63b8ff" stroke="#63b8ff" points="297.53,-280.92 289.6,-287.94 300.18,-287.39 297.53,-280.92"/>
</a>
</g>
</g>
<!-- Node4 -->
<g id="Node000004" class="node">
<title>Node4</title>
<g id="a_Node000004"><a xlink:href="d9/dae/classpocketmine_1_1world_1_1biome_1_1_small_mountains_biome.html" target="_top" xlink:title=" ">
<polygon fill="white" stroke="#666666" points="656,-342 519,-342 519,-312 656,-312 656,-342"/>
<text text-anchor="start" x="527" y="-330" font-family="Helvetica,sans-Serif" font-size="10.00">pocketmine\world\biome</text>
<text text-anchor="middle" x="587.5" y="-319" font-family="Helvetica,sans-Serif" font-size="10.00">\SmallMountainsBiome</text>
</a>
</g>
</g>
<!-- Node3&#45;&gt;Node4 -->
<g id="edge1424_Node000003_Node000004" class="edge">
<title>Node3&#45;&gt;Node4</title>
<g id="a_edge1424_Node000003_Node000004"><a xlink:title=" ">
<path fill="none" stroke="#63b8ff" d="M493.1,-327C501.69,-327 510.39,-327 518.85,-327"/>
<polygon fill="#63b8ff" stroke="#63b8ff" points="493.08,-323.5 483.08,-327 493.08,-330.5 493.08,-323.5"/>
</a>
</g>
</g>
<!-- Node11 -->
<g id="Node000011" class="node">
<title>Node11</title>
<g id="a_Node000011"><a xlink:href="d3/d39/classpocketmine_1_1world_1_1biome_1_1_desert_biome.html" target="_top" xlink:title=" ">
<polygon fill="white" stroke="#666666" points="483,-126 346,-126 346,-96 483,-96 483,-126"/>
<text text-anchor="start" x="354" y="-114" font-family="Helvetica,sans-Serif" font-size="10.00">pocketmine\world\biome</text>
<text text-anchor="middle" x="414.5" y="-103" font-family="Helvetica,sans-Serif" font-size="10.00">\DesertBiome</text>
</a>
</g>
</g>
<!-- Node10&#45;&gt;Node11 -->
<g id="edge1431_Node000010_Node000011" class="edge">
<title>Node10&#45;&gt;Node11</title>
<g id="a_edge1431_Node000010_Node000011"><a xlink:title=" ">
<path fill="none" stroke="#63b8ff" d="M320.1,-111C328.69,-111 337.39,-111 345.85,-111"/>
<polygon fill="#63b8ff" stroke="#63b8ff" points="320.08,-107.5 310.08,-111 320.08,-114.5 320.08,-107.5"/>
</a>
</g>
</g>
<!-- Node13 -->
<g id="Node000013" class="node">
<title>Node13</title>
<g id="a_Node000013"><a xlink:href="d9/d42/classpocketmine_1_1world_1_1biome_1_1_ice_plains_biome.html" target="_top" xlink:title=" ">
<polygon fill="white" stroke="#666666" points="483,-78 346,-78 346,-48 483,-48 483,-78"/>
<text text-anchor="start" x="354" y="-66" font-family="Helvetica,sans-Serif" font-size="10.00">pocketmine\world\biome</text>
<text text-anchor="middle" x="414.5" y="-55" font-family="Helvetica,sans-Serif" font-size="10.00">\IcePlainsBiome</text>
</a>
</g>
</g>
<!-- Node12&#45;&gt;Node13 -->
<g id="edge1433_Node000012_Node000013" class="edge">
<title>Node12&#45;&gt;Node13</title>
<g id="a_edge1433_Node000012_Node000013"><a xlink:title=" ">
<path fill="none" stroke="#63b8ff" d="M320.1,-63C328.69,-63 337.39,-63 345.85,-63"/>
<polygon fill="#63b8ff" stroke="#63b8ff" points="320.08,-59.5 310.08,-63 320.08,-66.5 320.08,-59.5"/>
</a>
</g>
</g>
<!-- Node14 -->
<g id="Node000014" class="node">
<title>Node14</title>
<g id="a_Node000014"><a xlink:href="da/d14/classpocketmine_1_1world_1_1biome_1_1_taiga_biome.html" target="_top" xlink:title=" ">
<polygon fill="white" stroke="#666666" points="483,-30 346,-30 346,0 483,0 483,-30"/>
<text text-anchor="start" x="354" y="-18" font-family="Helvetica,sans-Serif" font-size="10.00">pocketmine\world\biome</text>
<text text-anchor="middle" x="414.5" y="-7" font-family="Helvetica,sans-Serif" font-size="10.00">\TaigaBiome</text>
</a>
</g>
</g>
<!-- Node12&#45;&gt;Node14 -->
<g id="edge1434_Node000012_Node000014" class="edge">
<title>Node12&#45;&gt;Node14</title>
<g id="a_edge1434_Node000012_Node000014"><a xlink:title=" ">
<path fill="none" stroke="#63b8ff" d="M305.87,-45.21C323.69,-40.21 342.88,-34.82 360.05,-30"/>
<polygon fill="#63b8ff" stroke="#63b8ff" points="304.82,-41.87 296.14,-47.94 306.71,-48.61 304.82,-41.87"/>
</a>
</g>
</g>
</g>
</svg>
