<?xml version="1.0" encoding="UTF-8" standalone="no"?>
<!DOCTYPE svg PUBLIC "-//W3C//DTD SVG 1.1//EN"
 "http://www.w3.org/Graphics/SVG/1.1/DTD/svg11.dtd">
<!-- Generated by graphviz version 2.43.0 (0)
 -->
<!-- Title: Graphical Class Hierarchy Pages: 1 -->
<svg width="362pt" height="285pt"
 viewBox="0.00 0.00 362.00 285.00" xmlns="http://www.w3.org/2000/svg" xmlns:xlink="http://www.w3.org/1999/xlink">
<g id="graph0" class="graph" transform="scale(1 1) rotate(0) translate(4 281)">
<title>Graphical Class Hierarchy</title>
<!-- Node0 -->
<g id="Node000000" class="node">
<title>Node0</title>
<g id="a_Node000000"><a xlink:href="dc/d76/classpocketmine_1_1network_1_1mcpe_1_1protocol_1_1types_1_1recipe_1_1_recipe_with_type_id.html" target="_top" xlink:title=" ">
<polygon fill="white" stroke="#666666" points="140,-159 0,-159 0,-118 140,-118 140,-159"/>
<text text-anchor="start" x="8" y="-147" font-family="Helvetica,sans-Serif" font-size="10.00">pocketmine\network</text>
<text text-anchor="start" x="8" y="-136" font-family="Helvetica,sans-Serif" font-size="10.00">\mcpe\protocol\types</text>
<text text-anchor="middle" x="70" y="-125" font-family="Helvetica,sans-Serif" font-size="10.00">\recipe\RecipeWithTypeId</text>
</a>
</g>
</g>
<!-- Node1 -->
<g id="Node000001" class="node">
<title>Node1</title>
<g id="a_Node000001"><a xlink:href="d1/da0/classpocketmine_1_1network_1_1mcpe_1_1protocol_1_1types_1_1recipe_1_1_multi_recipe.html" target="_top" xlink:title=" ">
<polygon fill="white" stroke="#666666" points="324.5,-277 205.5,-277 205.5,-236 324.5,-236 324.5,-277"/>
<text text-anchor="start" x="213.5" y="-265" font-family="Helvetica,sans-Serif" font-size="10.00">pocketmine\network</text>
<text text-anchor="start" x="213.5" y="-254" font-family="Helvetica,sans-Serif" font-size="10.00">\mcpe\protocol\types</text>
<text text-anchor="middle" x="265" y="-243" font-family="Helvetica,sans-Serif" font-size="10.00">\recipe\MultiRecipe</text>
</a>
</g>
</g>
<!-- Node0&#45;&gt;Node1 -->
<g id="edge1631_Node000000_Node000001" class="edge">
<title>Node0&#45;&gt;Node1</title>
<g id="a_edge1631_Node000000_Node000001"><a xlink:title=" ">
<path fill="none" stroke="#63b8ff" d="M97.74,-166.28C117.74,-185.71 146.61,-211.03 176,-227.5 185.12,-232.61 195.28,-237 205.37,-240.69"/>
<polygon fill="#63b8ff" stroke="#63b8ff" points="100.1,-163.69 90.52,-159.15 95.18,-168.67 100.1,-163.69"/>
</a>
</g>
</g>
<!-- Node2 -->
<g id="Node000002" class="node">
<title>Node2</title>
<g id="a_Node000002"><a xlink:href="d3/d06/classpocketmine_1_1network_1_1mcpe_1_1protocol_1_1types_1_1recipe_1_1_shaped_recipe.html" target="_top" xlink:title=" ">
<polygon fill="white" stroke="#666666" points="326,-218 204,-218 204,-177 326,-177 326,-218"/>
<text text-anchor="start" x="212" y="-206" font-family="Helvetica,sans-Serif" font-size="10.00">pocketmine\network</text>
<text text-anchor="start" x="212" y="-195" font-family="Helvetica,sans-Serif" font-size="10.00">\mcpe\protocol\types</text>
<text text-anchor="middle" x="265" y="-184" font-family="Helvetica,sans-Serif" font-size="10.00">\recipe\ShapedRecipe</text>
</a>
</g>
</g>
<!-- Node0&#45;&gt;Node2 -->
<g id="edge1632_Node000000_Node000002" class="edge">
<title>Node0&#45;&gt;Node2</title>
<g id="a_edge1632_Node000000_Node000002"><a xlink:title=" ">
<path fill="none" stroke="#63b8ff" d="M147.85,-161.99C166.45,-167.68 186.07,-173.68 203.78,-179.09"/>
<polygon fill="#63b8ff" stroke="#63b8ff" points="148.82,-158.63 138.23,-159.05 146.77,-165.32 148.82,-158.63"/>
</a>
</g>
</g>
<!-- Node3 -->
<g id="Node000003" class="node">
<title>Node3</title>
<g id="a_Node000003"><a xlink:href="da/d6d/classpocketmine_1_1network_1_1mcpe_1_1protocol_1_1types_1_1recipe_1_1_shapeless_recipe.html" target="_top" xlink:title=" ">
<polygon fill="white" stroke="#666666" points="332.5,-159 197.5,-159 197.5,-118 332.5,-118 332.5,-159"/>
<text text-anchor="start" x="205.5" y="-147" font-family="Helvetica,sans-Serif" font-size="10.00">pocketmine\network</text>
<text text-anchor="start" x="205.5" y="-136" font-family="Helvetica,sans-Serif" font-size="10.00">\mcpe\protocol\types</text>
<text text-anchor="middle" x="265" y="-125" font-family="Helvetica,sans-Serif" font-size="10.00">\recipe\ShapelessRecipe</text>
</a>
</g>
</g>
<!-- Node0&#45;&gt;Node3 -->
<g id="edge1633_Node000000_Node000003" class="edge">
<title>Node0&#45;&gt;Node3</title>
<g id="a_edge1633_Node000000_Node000003"><a xlink:title=" ">
<path fill="none" stroke="#63b8ff" d="M150.29,-138.5C165.9,-138.5 182.14,-138.5 197.29,-138.5"/>
<polygon fill="#63b8ff" stroke="#63b8ff" points="150.13,-135 140.13,-138.5 150.13,-142 150.13,-135"/>
</a>
</g>
</g>
<!-- Node4 -->
<g id="Node000004" class="node">
<title>Node4</title>
<g id="a_Node000004"><a xlink:href="de/dae/classpocketmine_1_1network_1_1mcpe_1_1protocol_1_1types_1_1recipe_1_1_smithing_transform_recipe.html" target="_top" xlink:title=" ">
<polygon fill="white" stroke="#666666" points="354,-100 176,-100 176,-59 354,-59 354,-100"/>
<text text-anchor="start" x="184" y="-88" font-family="Helvetica,sans-Serif" font-size="10.00">pocketmine\network</text>
<text text-anchor="start" x="184" y="-77" font-family="Helvetica,sans-Serif" font-size="10.00">\mcpe\protocol\types</text>
<text text-anchor="middle" x="265" y="-66" font-family="Helvetica,sans-Serif" font-size="10.00">\recipe\SmithingTransformRecipe</text>
</a>
</g>
</g>
<!-- Node0&#45;&gt;Node4 -->
<g id="edge1634_Node000000_Node000004" class="edge">
<title>Node0&#45;&gt;Node4</title>
<g id="a_edge1634_Node000000_Node000004"><a xlink:title=" ">
<path fill="none" stroke="#63b8ff" d="M148.12,-114.92C164.19,-110.01 181,-104.87 196.68,-100.08"/>
<polygon fill="#63b8ff" stroke="#63b8ff" points="146.77,-111.68 138.23,-117.95 148.82,-118.37 146.77,-111.68"/>
</a>
</g>
</g>
<!-- Node5 -->
<g id="Node000005" class="node">
<title>Node5</title>
<g id="a_Node000005"><a xlink:href="d3/d1c/classpocketmine_1_1network_1_1mcpe_1_1protocol_1_1types_1_1recipe_1_1_smithing_trim_recipe.html" target="_top" xlink:title=" ">
<polygon fill="white" stroke="#666666" points="340,-41 190,-41 190,0 340,0 340,-41"/>
<text text-anchor="start" x="198" y="-29" font-family="Helvetica,sans-Serif" font-size="10.00">pocketmine\network</text>
<text text-anchor="start" x="198" y="-18" font-family="Helvetica,sans-Serif" font-size="10.00">\mcpe\protocol\types</text>
<text text-anchor="middle" x="265" y="-7" font-family="Helvetica,sans-Serif" font-size="10.00">\recipe\SmithingTrimRecipe</text>
</a>
</g>
</g>
<!-- Node0&#45;&gt;Node5 -->
<g id="edge1635_Node000000_Node000005" class="edge">
<title>Node0&#45;&gt;Node5</title>
<g id="a_edge1635_Node000000_Node000005"><a xlink:title=" ">
<path fill="none" stroke="#63b8ff" d="M98.23,-110.78C118.26,-91.67 146.97,-66.86 176,-50.5 182.05,-47.09 188.55,-43.98 195.17,-41.17"/>
<polygon fill="#63b8ff" stroke="#63b8ff" points="95.73,-108.32 90.99,-117.79 100.6,-113.35 95.73,-108.32"/>
</a>
</g>
</g>
</g>
</svg>
