<?xml version="1.0" encoding="UTF-8" standalone="no"?>
<!DOCTYPE svg PUBLIC "-//W3C//DTD SVG 1.1//EN"
 "http://www.w3.org/Graphics/SVG/1.1/DTD/svg11.dtd">
<!-- Generated by graphviz version 2.43.0 (0)
 -->
<!-- Title: Graphical Class Hierarchy Pages: 1 -->
<svg width="335pt" height="1754pt"
 viewBox="0.00 0.00 335.00 1754.00" xmlns="http://www.w3.org/2000/svg" xmlns:xlink="http://www.w3.org/1999/xlink">
<g id="graph0" class="graph" transform="scale(1 1) rotate(0) translate(4 1750)">
<title>Graphical Class Hierarchy</title>
<polygon fill="white" stroke="transparent" points="-4,4 -4,-1750 331,-1750 331,4 -4,4"/>
<!-- Node0 -->
<g id="node1" class="node">
<title>Node0</title>
<g id="a_node1"><a xlink:href="d1/dac/interfacepocketmine_1_1world_1_1particle_1_1_particle.html" target="_top" xlink:title=" ">
<polygon fill="white" stroke="black" points="0,-857.5 0,-887.5 143,-887.5 143,-857.5 0,-857.5"/>
<text text-anchor="start" x="8" y="-875.5" font-family="Helvetica,sans-Serif" font-size="10.00">pocketmine\world\particle</text>
<text text-anchor="middle" x="71.5" y="-864.5" font-family="Helvetica,sans-Serif" font-size="10.00">\Particle</text>
</a>
</g>
</g>
<!-- Node1 -->
<g id="node2" class="node">
<title>Node1</title>
<g id="a_node2"><a xlink:href="d9/dc1/classpocketmine_1_1world_1_1particle_1_1_angry_villager_particle.html" target="_top" xlink:title=" ">
<polygon fill="white" stroke="black" points="181.5,-1715.5 181.5,-1745.5 324.5,-1745.5 324.5,-1715.5 181.5,-1715.5"/>
<text text-anchor="start" x="189.5" y="-1733.5" font-family="Helvetica,sans-Serif" font-size="10.00">pocketmine\world\particle</text>
<text text-anchor="middle" x="253" y="-1722.5" font-family="Helvetica,sans-Serif" font-size="10.00">\AngryVillagerParticle</text>
</a>
</g>
</g>
<!-- Node0&#45;&gt;Node1 -->
<g id="edge1" class="edge">
<title>Node0&#45;&gt;Node1</title>
<path fill="none" stroke="midnightblue" d="M72.23,-897.83C71.37,-1023.48 73.69,-1578.93 179,-1706.5 181.8,-1709.9 185.1,-1712.81 188.71,-1715.32"/>
<polygon fill="midnightblue" stroke="midnightblue" points="75.73,-897.68 72.31,-887.65 68.73,-897.62 75.73,-897.68"/>
</g>
<!-- Node2 -->
<g id="node3" class="node">
<title>Node2</title>
<g id="a_node3"><a xlink:href="db/df5/classpocketmine_1_1world_1_1particle_1_1_block_break_particle.html" target="_top" xlink:title=" ">
<polygon fill="white" stroke="black" points="181.5,-1666.5 181.5,-1696.5 324.5,-1696.5 324.5,-1666.5 181.5,-1666.5"/>
<text text-anchor="start" x="189.5" y="-1684.5" font-family="Helvetica,sans-Serif" font-size="10.00">pocketmine\world\particle</text>
<text text-anchor="middle" x="253" y="-1673.5" font-family="Helvetica,sans-Serif" font-size="10.00">\BlockBreakParticle</text>
</a>
</g>
</g>
<!-- Node0&#45;&gt;Node2 -->
<g id="edge2" class="edge">
<title>Node0&#45;&gt;Node2</title>
<path fill="none" stroke="midnightblue" d="M72.45,-897.87C72.72,-1019.07 79.73,-1538.19 179,-1657.5 181.82,-1660.88 185.12,-1663.79 188.74,-1666.3"/>
<polygon fill="midnightblue" stroke="midnightblue" points="75.95,-897.7 72.44,-887.7 68.95,-897.71 75.95,-897.7"/>
</g>
<!-- Node3 -->
<g id="node4" class="node">
<title>Node3</title>
<g id="a_node4"><a xlink:href="d9/d4d/classpocketmine_1_1world_1_1particle_1_1_block_force_field_particle.html" target="_top" xlink:title=" ">
<polygon fill="white" stroke="black" points="181.5,-1617.5 181.5,-1647.5 324.5,-1647.5 324.5,-1617.5 181.5,-1617.5"/>
<text text-anchor="start" x="189.5" y="-1635.5" font-family="Helvetica,sans-Serif" font-size="10.00">pocketmine\world\particle</text>
<text text-anchor="middle" x="253" y="-1624.5" font-family="Helvetica,sans-Serif" font-size="10.00">\BlockForceFieldParticle</text>
</a>
</g>
</g>
<!-- Node0&#45;&gt;Node3 -->
<g id="edge3" class="edge">
<title>Node0&#45;&gt;Node3</title>
<path fill="none" stroke="midnightblue" d="M72.7,-897.76C74.14,-1014.09 85.71,-1497.39 179,-1608.5 181.92,-1611.97 185.35,-1614.95 189.1,-1617.49"/>
<polygon fill="midnightblue" stroke="midnightblue" points="76.2,-897.63 72.59,-887.67 69.2,-897.71 76.2,-897.63"/>
</g>
<!-- Node4 -->
<g id="node5" class="node">
<title>Node4</title>
<g id="a_node5"><a xlink:href="de/dca/classpocketmine_1_1world_1_1particle_1_1_block_punch_particle.html" target="_top" xlink:title=" ">
<polygon fill="white" stroke="black" points="181.5,-1568.5 181.5,-1598.5 324.5,-1598.5 324.5,-1568.5 181.5,-1568.5"/>
<text text-anchor="start" x="189.5" y="-1586.5" font-family="Helvetica,sans-Serif" font-size="10.00">pocketmine\world\particle</text>
<text text-anchor="middle" x="253" y="-1575.5" font-family="Helvetica,sans-Serif" font-size="10.00">\BlockPunchParticle</text>
</a>
</g>
</g>
<!-- Node0&#45;&gt;Node4 -->
<g id="edge4" class="edge">
<title>Node0&#45;&gt;Node4</title>
<path fill="none" stroke="midnightblue" d="M72.99,-897.83C75.66,-1009.46 91.72,-1456.61 179,-1559.5 181.93,-1562.96 185.38,-1565.92 189.14,-1568.46"/>
<polygon fill="midnightblue" stroke="midnightblue" points="76.49,-897.46 72.76,-887.54 69.49,-897.61 76.49,-897.46"/>
</g>
<!-- Node5 -->
<g id="node6" class="node">
<title>Node5</title>
<g id="a_node6"><a xlink:href="de/d02/classpocketmine_1_1world_1_1particle_1_1_bubble_particle.html" target="_top" xlink:title=" ">
<polygon fill="white" stroke="black" points="181.5,-1519.5 181.5,-1549.5 324.5,-1549.5 324.5,-1519.5 181.5,-1519.5"/>
<text text-anchor="start" x="189.5" y="-1537.5" font-family="Helvetica,sans-Serif" font-size="10.00">pocketmine\world\particle</text>
<text text-anchor="middle" x="253" y="-1526.5" font-family="Helvetica,sans-Serif" font-size="10.00">\BubbleParticle</text>
</a>
</g>
</g>
<!-- Node0&#45;&gt;Node5 -->
<g id="edge5" class="edge">
<title>Node0&#45;&gt;Node5</title>
<path fill="none" stroke="midnightblue" d="M73.32,-897.72C77.28,-1004.18 97.68,-1415.75 179,-1510.5 181.95,-1513.94 185.41,-1516.89 189.19,-1519.42"/>
<polygon fill="midnightblue" stroke="midnightblue" points="76.81,-897.46 72.96,-887.59 69.82,-897.71 76.81,-897.46"/>
</g>
<!-- Node6 -->
<g id="node7" class="node">
<title>Node6</title>
<g id="a_node7"><a xlink:href="de/d96/classpocketmine_1_1world_1_1particle_1_1_critical_particle.html" target="_top" xlink:title=" ">
<polygon fill="white" stroke="black" points="181.5,-1470.5 181.5,-1500.5 324.5,-1500.5 324.5,-1470.5 181.5,-1470.5"/>
<text text-anchor="start" x="189.5" y="-1488.5" font-family="Helvetica,sans-Serif" font-size="10.00">pocketmine\world\particle</text>
<text text-anchor="middle" x="253" y="-1477.5" font-family="Helvetica,sans-Serif" font-size="10.00">\CriticalParticle</text>
</a>
</g>
</g>
<!-- Node0&#45;&gt;Node6 -->
<g id="edge6" class="edge">
<title>Node0&#45;&gt;Node6</title>
<path fill="none" stroke="midnightblue" d="M73.7,-897.71C79.03,-998.97 103.64,-1374.89 179,-1461.5 181.98,-1464.92 185.45,-1467.86 189.24,-1470.38"/>
<polygon fill="midnightblue" stroke="midnightblue" points="77.19,-897.31 73.18,-887.51 70.2,-897.67 77.19,-897.31"/>
</g>
<!-- Node7 -->
<g id="node8" class="node">
<title>Node7</title>
<g id="a_node8"><a xlink:href="de/d3b/classpocketmine_1_1world_1_1particle_1_1_dragon_egg_teleport_particle.html" target="_top" xlink:title=" ">
<polygon fill="white" stroke="black" points="179,-1421.5 179,-1451.5 327,-1451.5 327,-1421.5 179,-1421.5"/>
<text text-anchor="start" x="187" y="-1439.5" font-family="Helvetica,sans-Serif" font-size="10.00">pocketmine\world\particle</text>
<text text-anchor="middle" x="253" y="-1428.5" font-family="Helvetica,sans-Serif" font-size="10.00">\DragonEggTeleportParticle</text>
</a>
</g>
</g>
<!-- Node0&#45;&gt;Node7 -->
<g id="edge7" class="edge">
<title>Node0&#45;&gt;Node7</title>
<path fill="none" stroke="midnightblue" d="M74.16,-897.75C80.94,-993.67 109.6,-1334 179,-1412.5 182,-1415.9 185.5,-1418.82 189.3,-1421.32"/>
<polygon fill="midnightblue" stroke="midnightblue" points="77.63,-897.27 73.45,-887.54 70.65,-897.75 77.63,-897.27"/>
</g>
<!-- Node8 -->
<g id="node9" class="node">
<title>Node8</title>
<g id="a_node9"><a xlink:href="da/de7/classpocketmine_1_1world_1_1particle_1_1_dust_particle.html" target="_top" xlink:title=" ">
<polygon fill="white" stroke="black" points="181.5,-1372.5 181.5,-1402.5 324.5,-1402.5 324.5,-1372.5 181.5,-1372.5"/>
<text text-anchor="start" x="189.5" y="-1390.5" font-family="Helvetica,sans-Serif" font-size="10.00">pocketmine\world\particle</text>
<text text-anchor="middle" x="253" y="-1379.5" font-family="Helvetica,sans-Serif" font-size="10.00">\DustParticle</text>
</a>
</g>
</g>
<!-- Node0&#45;&gt;Node8 -->
<g id="edge8" class="edge">
<title>Node0&#45;&gt;Node8</title>
<path fill="none" stroke="midnightblue" d="M74.7,-897.78C83.05,-988.08 115.52,-1293.05 179,-1363.5 182.13,-1366.97 185.76,-1369.94 189.71,-1372.48"/>
<polygon fill="midnightblue" stroke="midnightblue" points="78.17,-897.28 73.78,-887.63 71.2,-897.91 78.17,-897.28"/>
</g>
<!-- Node9 -->
<g id="node10" class="node">
<title>Node9</title>
<g id="a_node10"><a xlink:href="d6/d58/classpocketmine_1_1world_1_1particle_1_1_enchant_particle.html" target="_top" xlink:title=" ">
<polygon fill="white" stroke="black" points="181.5,-1323.5 181.5,-1353.5 324.5,-1353.5 324.5,-1323.5 181.5,-1323.5"/>
<text text-anchor="start" x="189.5" y="-1341.5" font-family="Helvetica,sans-Serif" font-size="10.00">pocketmine\world\particle</text>
<text text-anchor="middle" x="253" y="-1330.5" font-family="Helvetica,sans-Serif" font-size="10.00">\EnchantParticle</text>
</a>
</g>
</g>
<!-- Node0&#45;&gt;Node9 -->
<g id="edge9" class="edge">
<title>Node0&#45;&gt;Node9</title>
<path fill="none" stroke="midnightblue" d="M75.35,-897.69C85.35,-981.93 121.4,-1252.02 179,-1314.5 182.17,-1317.93 185.83,-1320.88 189.8,-1323.4"/>
<polygon fill="midnightblue" stroke="midnightblue" points="78.79,-897.03 74.16,-887.5 71.84,-897.84 78.79,-897.03"/>
</g>
<!-- Node10 -->
<g id="node11" class="node">
<title>Node10</title>
<g id="a_node11"><a xlink:href="da/dc8/classpocketmine_1_1world_1_1particle_1_1_enchantment_table_particle.html" target="_top" xlink:title=" ">
<polygon fill="white" stroke="black" points="180,-1274.5 180,-1304.5 326,-1304.5 326,-1274.5 180,-1274.5"/>
<text text-anchor="start" x="188" y="-1292.5" font-family="Helvetica,sans-Serif" font-size="10.00">pocketmine\world\particle</text>
<text text-anchor="middle" x="253" y="-1281.5" font-family="Helvetica,sans-Serif" font-size="10.00">\EnchantmentTableParticle</text>
</a>
</g>
</g>
<!-- Node0&#45;&gt;Node10 -->
<g id="edge10" class="edge">
<title>Node0&#45;&gt;Node10</title>
<path fill="none" stroke="midnightblue" d="M71.65,-898.06C70.79,-967.07 78.09,-1159.09 179,-1265.5 182.21,-1268.89 185.91,-1271.8 189.9,-1274.3"/>
<polygon fill="midnightblue" stroke="midnightblue" points="75.16,-897.78 71.86,-887.72 68.16,-897.64 75.16,-897.78"/>
</g>
<!-- Node11 -->
<g id="node12" class="node">
<title>Node11</title>
<g id="a_node12"><a xlink:href="df/d8c/classpocketmine_1_1world_1_1particle_1_1_enderman_teleport_particle.html" target="_top" xlink:title=" ">
<polygon fill="white" stroke="black" points="181,-1225.5 181,-1255.5 325,-1255.5 325,-1225.5 181,-1225.5"/>
<text text-anchor="start" x="189" y="-1243.5" font-family="Helvetica,sans-Serif" font-size="10.00">pocketmine\world\particle</text>
<text text-anchor="middle" x="253" y="-1232.5" font-family="Helvetica,sans-Serif" font-size="10.00">\EndermanTeleportParticle</text>
</a>
</g>
</g>
<!-- Node0&#45;&gt;Node11 -->
<g id="edge11" class="edge">
<title>Node0&#45;&gt;Node11</title>
<path fill="none" stroke="midnightblue" d="M72.82,-897.83C75.02,-960.72 89.5,-1125.43 179,-1216.5 182.37,-1219.93 186.23,-1222.86 190.38,-1225.38"/>
<polygon fill="midnightblue" stroke="midnightblue" points="76.32,-897.55 72.55,-887.65 69.32,-897.74 76.32,-897.55"/>
</g>
<!-- Node12 -->
<g id="node13" class="node">
<title>Node12</title>
<g id="a_node13"><a xlink:href="db/db3/classpocketmine_1_1world_1_1particle_1_1_entity_flame_particle.html" target="_top" xlink:title=" ">
<polygon fill="white" stroke="black" points="181.5,-1176.5 181.5,-1206.5 324.5,-1206.5 324.5,-1176.5 181.5,-1176.5"/>
<text text-anchor="start" x="189.5" y="-1194.5" font-family="Helvetica,sans-Serif" font-size="10.00">pocketmine\world\particle</text>
<text text-anchor="middle" x="253" y="-1183.5" font-family="Helvetica,sans-Serif" font-size="10.00">\EntityFlameParticle</text>
</a>
</g>
</g>
<!-- Node0&#45;&gt;Node12 -->
<g id="edge12" class="edge">
<title>Node0&#45;&gt;Node12</title>
<path fill="none" stroke="midnightblue" d="M74.37,-898.04C79.89,-954.67 101.02,-1091.73 179,-1167.5 182.54,-1170.94 186.58,-1173.89 190.91,-1176.41"/>
<polygon fill="midnightblue" stroke="midnightblue" points="77.84,-897.48 73.46,-887.83 70.86,-898.1 77.84,-897.48"/>
</g>
<!-- Node13 -->
<g id="node14" class="node">
<title>Node13</title>
<g id="a_node14"><a xlink:href="d1/db5/classpocketmine_1_1world_1_1particle_1_1_explode_particle.html" target="_top" xlink:title=" ">
<polygon fill="white" stroke="black" points="181.5,-1127.5 181.5,-1157.5 324.5,-1157.5 324.5,-1127.5 181.5,-1127.5"/>
<text text-anchor="start" x="189.5" y="-1145.5" font-family="Helvetica,sans-Serif" font-size="10.00">pocketmine\world\particle</text>
<text text-anchor="middle" x="253" y="-1134.5" font-family="Helvetica,sans-Serif" font-size="10.00">\ExplodeParticle</text>
</a>
</g>
</g>
<!-- Node0&#45;&gt;Node13 -->
<g id="edge13" class="edge">
<title>Node0&#45;&gt;Node13</title>
<path fill="none" stroke="midnightblue" d="M76.44,-897.85C85.46,-947.4 112.22,-1057.53 179,-1118.5 182.74,-1121.92 186.98,-1124.85 191.49,-1127.37"/>
<polygon fill="midnightblue" stroke="midnightblue" points="79.84,-896.96 74.69,-887.7 72.94,-898.15 79.84,-896.96"/>
</g>
<!-- Node14 -->
<g id="node15" class="node">
<title>Node14</title>
<g id="a_node15"><a xlink:href="d9/dd7/classpocketmine_1_1world_1_1particle_1_1_flame_particle.html" target="_top" xlink:title=" ">
<polygon fill="white" stroke="black" points="181.5,-1078.5 181.5,-1108.5 324.5,-1108.5 324.5,-1078.5 181.5,-1078.5"/>
<text text-anchor="start" x="189.5" y="-1096.5" font-family="Helvetica,sans-Serif" font-size="10.00">pocketmine\world\particle</text>
<text text-anchor="middle" x="253" y="-1085.5" font-family="Helvetica,sans-Serif" font-size="10.00">\FlameParticle</text>
</a>
</g>
</g>
<!-- Node0&#45;&gt;Node14 -->
<g id="edge14" class="edge">
<title>Node0&#45;&gt;Node14</title>
<path fill="none" stroke="midnightblue" d="M79.26,-897.15C91.91,-938.7 123.05,-1022.71 179,-1069.5 183.09,-1072.92 187.69,-1075.86 192.53,-1078.39"/>
<polygon fill="midnightblue" stroke="midnightblue" points="82.62,-896.16 76.44,-887.55 75.9,-898.14 82.62,-896.16"/>
</g>
<!-- Node15 -->
<g id="node16" class="node">
<title>Node15</title>
<g id="a_node16"><a xlink:href="dc/d9d/classpocketmine_1_1world_1_1particle_1_1_floating_text_particle.html" target="_top" xlink:title=" ">
<polygon fill="white" stroke="black" points="181.5,-1029.5 181.5,-1059.5 324.5,-1059.5 324.5,-1029.5 181.5,-1029.5"/>
<text text-anchor="start" x="189.5" y="-1047.5" font-family="Helvetica,sans-Serif" font-size="10.00">pocketmine\world\particle</text>
<text text-anchor="middle" x="253" y="-1036.5" font-family="Helvetica,sans-Serif" font-size="10.00">\FloatingTextParticle</text>
</a>
</g>
</g>
<!-- Node0&#45;&gt;Node15 -->
<g id="edge15" class="edge">
<title>Node0&#45;&gt;Node15</title>
<path fill="none" stroke="midnightblue" d="M84.09,-897.28C100.65,-930.09 134.11,-987.61 179,-1020.5 183.63,-1023.89 188.76,-1026.82 194.1,-1029.35"/>
<polygon fill="midnightblue" stroke="midnightblue" points="87.05,-895.38 79.5,-887.95 80.77,-898.47 87.05,-895.38"/>
</g>
<!-- Node16 -->
<g id="node17" class="node">
<title>Node16</title>
<g id="a_node17"><a xlink:href="dc/dff/classpocketmine_1_1world_1_1particle_1_1_happy_villager_particle.html" target="_top" xlink:title=" ">
<polygon fill="white" stroke="black" points="181.5,-980.5 181.5,-1010.5 324.5,-1010.5 324.5,-980.5 181.5,-980.5"/>
<text text-anchor="start" x="189.5" y="-998.5" font-family="Helvetica,sans-Serif" font-size="10.00">pocketmine\world\particle</text>
<text text-anchor="middle" x="253" y="-987.5" font-family="Helvetica,sans-Serif" font-size="10.00">\HappyVillagerParticle</text>
</a>
</g>
</g>
<!-- Node0&#45;&gt;Node16 -->
<g id="edge16" class="edge">
<title>Node0&#45;&gt;Node16</title>
<path fill="none" stroke="midnightblue" d="M91.74,-895.4C111.55,-917.67 144.34,-951.04 179,-971.5 184.74,-974.89 191.03,-977.87 197.43,-980.48"/>
<polygon fill="midnightblue" stroke="midnightblue" points="94.26,-892.97 85.05,-887.75 88.99,-897.58 94.26,-892.97"/>
</g>
<!-- Node17 -->
<g id="node18" class="node">
<title>Node17</title>
<g id="a_node18"><a xlink:href="da/dd7/classpocketmine_1_1world_1_1particle_1_1_heart_particle.html" target="_top" xlink:title=" ">
<polygon fill="white" stroke="black" points="181.5,-931.5 181.5,-961.5 324.5,-961.5 324.5,-931.5 181.5,-931.5"/>
<text text-anchor="start" x="189.5" y="-949.5" font-family="Helvetica,sans-Serif" font-size="10.00">pocketmine\world\particle</text>
<text text-anchor="middle" x="253" y="-938.5" font-family="Helvetica,sans-Serif" font-size="10.00">\HeartParticle</text>
</a>
</g>
</g>
<!-- Node0&#45;&gt;Node17 -->
<g id="edge17" class="edge">
<title>Node0&#45;&gt;Node17</title>
<path fill="none" stroke="midnightblue" d="M111.45,-892.18C131.4,-901.9 156.22,-913.45 179,-922.5 186.81,-925.6 195.2,-928.63 203.41,-931.44"/>
<polygon fill="midnightblue" stroke="midnightblue" points="112.89,-888.98 102.37,-887.71 109.8,-895.27 112.89,-888.98"/>
</g>
<!-- Node18 -->
<g id="node19" class="node">
<title>Node18</title>
<g id="a_node19"><a xlink:href="d6/d15/classpocketmine_1_1world_1_1particle_1_1_huge_explode_particle.html" target="_top" xlink:title=" ">
<polygon fill="white" stroke="black" points="181.5,-882.5 181.5,-912.5 324.5,-912.5 324.5,-882.5 181.5,-882.5"/>
<text text-anchor="start" x="189.5" y="-900.5" font-family="Helvetica,sans-Serif" font-size="10.00">pocketmine\world\particle</text>
<text text-anchor="middle" x="253" y="-889.5" font-family="Helvetica,sans-Serif" font-size="10.00">\HugeExplodeParticle</text>
</a>
</g>
</g>
<!-- Node0&#45;&gt;Node18 -->
<g id="edge18" class="edge">
<title>Node0&#45;&gt;Node18</title>
<path fill="none" stroke="midnightblue" d="M153.28,-883.75C162.65,-885.06 172.16,-886.38 181.38,-887.66"/>
<polygon fill="midnightblue" stroke="midnightblue" points="153.57,-880.26 143.19,-882.34 152.61,-887.19 153.57,-880.26"/>
</g>
<!-- Node19 -->
<g id="node20" class="node">
<title>Node19</title>
<g id="a_node20"><a xlink:href="de/d4e/classpocketmine_1_1world_1_1particle_1_1_huge_explode_seed_particle.html" target="_top" xlink:title=" ">
<polygon fill="white" stroke="black" points="181,-833.5 181,-863.5 325,-863.5 325,-833.5 181,-833.5"/>
<text text-anchor="start" x="189" y="-851.5" font-family="Helvetica,sans-Serif" font-size="10.00">pocketmine\world\particle</text>
<text text-anchor="middle" x="253" y="-840.5" font-family="Helvetica,sans-Serif" font-size="10.00">\HugeExplodeSeedParticle</text>
</a>
</g>
</g>
<!-- Node0&#45;&gt;Node19 -->
<g id="edge19" class="edge">
<title>Node0&#45;&gt;Node19</title>
<path fill="none" stroke="midnightblue" d="M153.12,-861.72C162.35,-860.49 171.7,-859.24 180.79,-858.02"/>
<polygon fill="midnightblue" stroke="midnightblue" points="152.63,-858.25 143.19,-863.05 153.56,-865.19 152.63,-858.25"/>
</g>
<!-- Node20 -->
<g id="node21" class="node">
<title>Node20</title>
<g id="a_node21"><a xlink:href="d8/d3f/classpocketmine_1_1world_1_1particle_1_1_ink_particle.html" target="_top" xlink:title=" ">
<polygon fill="white" stroke="black" points="181.5,-784.5 181.5,-814.5 324.5,-814.5 324.5,-784.5 181.5,-784.5"/>
<text text-anchor="start" x="189.5" y="-802.5" font-family="Helvetica,sans-Serif" font-size="10.00">pocketmine\world\particle</text>
<text text-anchor="middle" x="253" y="-791.5" font-family="Helvetica,sans-Serif" font-size="10.00">\InkParticle</text>
</a>
</g>
</g>
<!-- Node0&#45;&gt;Node20 -->
<g id="edge20" class="edge">
<title>Node0&#45;&gt;Node20</title>
<path fill="none" stroke="midnightblue" d="M113.15,-853.1C132.85,-843.98 156.96,-833.22 179,-824.5 187.6,-821.1 196.86,-817.72 205.81,-814.59"/>
<polygon fill="midnightblue" stroke="midnightblue" points="111.44,-850.04 103.86,-857.44 114.4,-856.38 111.44,-850.04"/>
</g>
<!-- Node21 -->
<g id="node22" class="node">
<title>Node21</title>
<g id="a_node22"><a xlink:href="d0/deb/classpocketmine_1_1world_1_1particle_1_1_instant_enchant_particle.html" target="_top" xlink:title=" ">
<polygon fill="white" stroke="black" points="181.5,-735.5 181.5,-765.5 324.5,-765.5 324.5,-735.5 181.5,-735.5"/>
<text text-anchor="start" x="189.5" y="-753.5" font-family="Helvetica,sans-Serif" font-size="10.00">pocketmine\world\particle</text>
<text text-anchor="middle" x="253" y="-742.5" font-family="Helvetica,sans-Serif" font-size="10.00">\InstantEnchantParticle</text>
</a>
</g>
</g>
<!-- Node0&#45;&gt;Node21 -->
<g id="edge21" class="edge">
<title>Node0&#45;&gt;Node21</title>
<path fill="none" stroke="midnightblue" d="M92.22,-849.8C112.18,-828.07 144.88,-795.69 179,-775.5 185.34,-771.75 192.33,-768.45 199.39,-765.59"/>
<polygon fill="midnightblue" stroke="midnightblue" points="89.57,-847.52 85.47,-857.29 94.77,-852.21 89.57,-847.52"/>
</g>
<!-- Node22 -->
<g id="node23" class="node">
<title>Node22</title>
<g id="a_node23"><a xlink:href="de/d3d/classpocketmine_1_1world_1_1particle_1_1_item_break_particle.html" target="_top" xlink:title=" ">
<polygon fill="white" stroke="black" points="181.5,-686.5 181.5,-716.5 324.5,-716.5 324.5,-686.5 181.5,-686.5"/>
<text text-anchor="start" x="189.5" y="-704.5" font-family="Helvetica,sans-Serif" font-size="10.00">pocketmine\world\particle</text>
<text text-anchor="middle" x="253" y="-693.5" font-family="Helvetica,sans-Serif" font-size="10.00">\ItemBreakParticle</text>
</a>
</g>
</g>
<!-- Node0&#45;&gt;Node22 -->
<g id="edge22" class="edge">
<title>Node0&#45;&gt;Node22</title>
<path fill="none" stroke="midnightblue" d="M84.23,-848.13C100.95,-815.87 134.6,-759.23 179,-726.5 184.18,-722.68 189.98,-719.42 195.99,-716.64"/>
<polygon fill="midnightblue" stroke="midnightblue" points="80.98,-846.81 79.59,-857.31 87.23,-849.97 80.98,-846.81"/>
</g>
<!-- Node23 -->
<g id="node24" class="node">
<title>Node23</title>
<g id="a_node24"><a xlink:href="d8/d79/classpocketmine_1_1world_1_1particle_1_1_lava_drip_particle.html" target="_top" xlink:title=" ">
<polygon fill="white" stroke="black" points="181.5,-637.5 181.5,-667.5 324.5,-667.5 324.5,-637.5 181.5,-637.5"/>
<text text-anchor="start" x="189.5" y="-655.5" font-family="Helvetica,sans-Serif" font-size="10.00">pocketmine\world\particle</text>
<text text-anchor="middle" x="253" y="-644.5" font-family="Helvetica,sans-Serif" font-size="10.00">\LavaDripParticle</text>
</a>
</g>
</g>
<!-- Node0&#45;&gt;Node23 -->
<g id="edge23" class="edge">
<title>Node0&#45;&gt;Node23</title>
<path fill="none" stroke="midnightblue" d="M79.57,-847.6C92.53,-806.39 123.92,-723.93 179,-677.5 183.61,-673.61 188.85,-670.32 194.37,-667.54"/>
<polygon fill="midnightblue" stroke="midnightblue" points="76.16,-846.79 76.61,-857.38 82.86,-848.82 76.16,-846.79"/>
</g>
<!-- Node24 -->
<g id="node25" class="node">
<title>Node24</title>
<g id="a_node25"><a xlink:href="d1/dad/classpocketmine_1_1world_1_1particle_1_1_lava_particle.html" target="_top" xlink:title=" ">
<polygon fill="white" stroke="black" points="181.5,-588.5 181.5,-618.5 324.5,-618.5 324.5,-588.5 181.5,-588.5"/>
<text text-anchor="start" x="189.5" y="-606.5" font-family="Helvetica,sans-Serif" font-size="10.00">pocketmine\world\particle</text>
<text text-anchor="middle" x="253" y="-595.5" font-family="Helvetica,sans-Serif" font-size="10.00">\LavaParticle</text>
</a>
</g>
</g>
<!-- Node0&#45;&gt;Node24 -->
<g id="edge24" class="edge">
<title>Node0&#45;&gt;Node24</title>
<path fill="none" stroke="midnightblue" d="M76.57,-847.42C85.82,-798.4 112.96,-689.36 179,-628.5 183.24,-624.6 188.11,-621.3 193.28,-618.51"/>
<polygon fill="midnightblue" stroke="midnightblue" points="73.09,-847.01 74.77,-857.47 79.98,-848.24 73.09,-847.01"/>
</g>
<!-- Node25 -->
<g id="node26" class="node">
<title>Node25</title>
<g id="a_node26"><a xlink:href="dc/d11/classpocketmine_1_1world_1_1particle_1_1_mob_spawn_particle.html" target="_top" xlink:title=" ">
<polygon fill="white" stroke="black" points="181.5,-539.5 181.5,-569.5 324.5,-569.5 324.5,-539.5 181.5,-539.5"/>
<text text-anchor="start" x="189.5" y="-557.5" font-family="Helvetica,sans-Serif" font-size="10.00">pocketmine\world\particle</text>
<text text-anchor="middle" x="253" y="-546.5" font-family="Helvetica,sans-Serif" font-size="10.00">\MobSpawnParticle</text>
</a>
</g>
</g>
<!-- Node0&#45;&gt;Node25 -->
<g id="edge25" class="edge">
<title>Node0&#45;&gt;Node25</title>
<path fill="none" stroke="midnightblue" d="M74.5,-847.19C80.27,-791.08 101.87,-655.21 179,-579.5 182.92,-575.65 187.46,-572.4 192.31,-569.64"/>
<polygon fill="midnightblue" stroke="midnightblue" points="71,-847.03 73.54,-857.31 77.96,-847.69 71,-847.03"/>
</g>
<!-- Node26 -->
<g id="node27" class="node">
<title>Node26</title>
<g id="a_node27"><a xlink:href="d1/d29/classpocketmine_1_1world_1_1particle_1_1_portal_particle.html" target="_top" xlink:title=" ">
<polygon fill="white" stroke="black" points="181.5,-490.5 181.5,-520.5 324.5,-520.5 324.5,-490.5 181.5,-490.5"/>
<text text-anchor="start" x="189.5" y="-508.5" font-family="Helvetica,sans-Serif" font-size="10.00">pocketmine\world\particle</text>
<text text-anchor="middle" x="253" y="-497.5" font-family="Helvetica,sans-Serif" font-size="10.00">\PortalParticle</text>
</a>
</g>
</g>
<!-- Node0&#45;&gt;Node26 -->
<g id="edge26" class="edge">
<title>Node0&#45;&gt;Node26</title>
<path fill="none" stroke="midnightblue" d="M72.94,-847.38C75.41,-785 90.46,-621.56 179,-530.5 182.74,-526.66 187.09,-523.41 191.77,-520.65"/>
<polygon fill="midnightblue" stroke="midnightblue" points="69.44,-847.37 72.62,-857.48 76.44,-847.6 69.44,-847.37"/>
</g>
<!-- Node27 -->
<g id="node28" class="node">
<title>Node27</title>
<g id="a_node28"><a xlink:href="d2/dfa/classpocketmine_1_1world_1_1particle_1_1_potion_splash_particle.html" target="_top" xlink:title=" ">
<polygon fill="white" stroke="black" points="181.5,-441.5 181.5,-471.5 324.5,-471.5 324.5,-441.5 181.5,-441.5"/>
<text text-anchor="start" x="189.5" y="-459.5" font-family="Helvetica,sans-Serif" font-size="10.00">pocketmine\world\particle</text>
<text text-anchor="middle" x="253" y="-448.5" font-family="Helvetica,sans-Serif" font-size="10.00">\PotionSplashParticle</text>
</a>
</g>
</g>
<!-- Node0&#45;&gt;Node27 -->
<g id="edge27" class="edge">
<title>Node0&#45;&gt;Node27</title>
<path fill="none" stroke="midnightblue" d="M71.76,-847.13C71.19,-778.64 79.15,-587.95 179,-481.5 182.67,-477.59 186.97,-474.29 191.62,-471.51"/>
<polygon fill="midnightblue" stroke="midnightblue" points="68.27,-847.46 71.93,-857.4 75.27,-847.35 68.27,-847.46"/>
</g>
<!-- Node28 -->
<g id="node29" class="node">
<title>Node28</title>
<g id="a_node29"><a xlink:href="d1/d0a/classpocketmine_1_1world_1_1particle_1_1_rain_splash_particle.html" target="_top" xlink:title=" ">
<polygon fill="white" stroke="black" points="181.5,-392.5 181.5,-422.5 324.5,-422.5 324.5,-392.5 181.5,-392.5"/>
<text text-anchor="start" x="189.5" y="-410.5" font-family="Helvetica,sans-Serif" font-size="10.00">pocketmine\world\particle</text>
<text text-anchor="middle" x="253" y="-399.5" font-family="Helvetica,sans-Serif" font-size="10.00">\RainSplashParticle</text>
</a>
</g>
</g>
<!-- Node0&#45;&gt;Node28 -->
<g id="edge28" class="edge">
<title>Node0&#45;&gt;Node28</title>
<path fill="none" stroke="midnightblue" d="M75.43,-847.15C85.63,-763.03 122.06,-494.96 179,-432.5 182.52,-428.64 186.66,-425.37 191.15,-422.61"/>
<polygon fill="midnightblue" stroke="midnightblue" points="71.95,-846.77 74.24,-857.12 78.9,-847.6 71.95,-846.77"/>
</g>
<!-- Node29 -->
<g id="node30" class="node">
<title>Node29</title>
<g id="a_node30"><a xlink:href="d8/d7b/classpocketmine_1_1world_1_1particle_1_1_redstone_particle.html" target="_top" xlink:title=" ">
<polygon fill="white" stroke="black" points="181.5,-343.5 181.5,-373.5 324.5,-373.5 324.5,-343.5 181.5,-343.5"/>
<text text-anchor="start" x="189.5" y="-361.5" font-family="Helvetica,sans-Serif" font-size="10.00">pocketmine\world\particle</text>
<text text-anchor="middle" x="253" y="-350.5" font-family="Helvetica,sans-Serif" font-size="10.00">\RedstoneParticle</text>
</a>
</g>
</g>
<!-- Node0&#45;&gt;Node29 -->
<g id="edge29" class="edge">
<title>Node0&#45;&gt;Node29</title>
<path fill="none" stroke="midnightblue" d="M74.75,-847.35C83.24,-757.51 116.17,-454.04 179,-383.5 182.47,-379.6 186.59,-376.31 191.06,-373.53"/>
<polygon fill="midnightblue" stroke="midnightblue" points="71.25,-847.16 73.81,-857.44 78.22,-847.81 71.25,-847.16"/>
</g>
<!-- Node30 -->
<g id="node31" class="node">
<title>Node30</title>
<g id="a_node31"><a xlink:href="dc/df4/classpocketmine_1_1world_1_1particle_1_1_smoke_particle.html" target="_top" xlink:title=" ">
<polygon fill="white" stroke="black" points="181.5,-294.5 181.5,-324.5 324.5,-324.5 324.5,-294.5 181.5,-294.5"/>
<text text-anchor="start" x="189.5" y="-312.5" font-family="Helvetica,sans-Serif" font-size="10.00">pocketmine\world\particle</text>
<text text-anchor="middle" x="253" y="-301.5" font-family="Helvetica,sans-Serif" font-size="10.00">\SmokeParticle</text>
</a>
</g>
</g>
<!-- Node0&#45;&gt;Node30 -->
<g id="edge30" class="edge">
<title>Node0&#45;&gt;Node30</title>
<path fill="none" stroke="midnightblue" d="M74.22,-847.05C81.21,-751.15 110.37,-413.04 179,-334.5 182.35,-330.67 186.31,-327.42 190.63,-324.67"/>
<polygon fill="midnightblue" stroke="midnightblue" points="70.72,-847.05 73.5,-857.27 77.7,-847.55 70.72,-847.05"/>
</g>
<!-- Node31 -->
<g id="node32" class="node">
<title>Node31</title>
<g id="a_node32"><a xlink:href="d6/d9f/classpocketmine_1_1world_1_1particle_1_1_snowball_poof_particle.html" target="_top" xlink:title=" ">
<polygon fill="white" stroke="black" points="181.5,-245.5 181.5,-275.5 324.5,-275.5 324.5,-245.5 181.5,-245.5"/>
<text text-anchor="start" x="189.5" y="-263.5" font-family="Helvetica,sans-Serif" font-size="10.00">pocketmine\world\particle</text>
<text text-anchor="middle" x="253" y="-252.5" font-family="Helvetica,sans-Serif" font-size="10.00">\SnowballPoofParticle</text>
</a>
</g>
</g>
<!-- Node0&#45;&gt;Node31 -->
<g id="edge31" class="edge">
<title>Node0&#45;&gt;Node31</title>
<path fill="none" stroke="midnightblue" d="M73.76,-847.07C79.29,-745.76 104.48,-372.17 179,-285.5 182.32,-281.64 186.26,-278.38 190.57,-275.61"/>
<polygon fill="midnightblue" stroke="midnightblue" points="70.26,-847.12 73.22,-857.29 77.25,-847.49 70.26,-847.12"/>
</g>
<!-- Node32 -->
<g id="node33" class="node">
<title>Node32</title>
<g id="a_node33"><a xlink:href="d7/dcc/classpocketmine_1_1world_1_1particle_1_1_splash_particle.html" target="_top" xlink:title=" ">
<polygon fill="white" stroke="black" points="181.5,-196.5 181.5,-226.5 324.5,-226.5 324.5,-196.5 181.5,-196.5"/>
<text text-anchor="start" x="189.5" y="-214.5" font-family="Helvetica,sans-Serif" font-size="10.00">pocketmine\world\particle</text>
<text text-anchor="middle" x="253" y="-203.5" font-family="Helvetica,sans-Serif" font-size="10.00">\SplashParticle</text>
</a>
</g>
</g>
<!-- Node0&#45;&gt;Node32 -->
<g id="edge32" class="edge">
<title>Node0&#45;&gt;Node32</title>
<path fill="none" stroke="midnightblue" d="M73.36,-847.39C77.49,-741.36 98.49,-331.44 179,-236.5 182.29,-232.62 186.22,-229.34 190.51,-226.57"/>
<polygon fill="midnightblue" stroke="midnightblue" points="69.86,-847.35 72.99,-857.47 76.86,-847.61 69.86,-847.35"/>
</g>
<!-- Node33 -->
<g id="node34" class="node">
<title>Node33</title>
<g id="a_node34"><a xlink:href="d5/d5d/classpocketmine_1_1world_1_1particle_1_1_spore_particle.html" target="_top" xlink:title=" ">
<polygon fill="white" stroke="black" points="181.5,-147.5 181.5,-177.5 324.5,-177.5 324.5,-147.5 181.5,-147.5"/>
<text text-anchor="start" x="189.5" y="-165.5" font-family="Helvetica,sans-Serif" font-size="10.00">pocketmine\world\particle</text>
<text text-anchor="middle" x="253" y="-154.5" font-family="Helvetica,sans-Serif" font-size="10.00">\SporeParticle</text>
</a>
</g>
</g>
<!-- Node0&#45;&gt;Node33 -->
<g id="edge33" class="edge">
<title>Node0&#45;&gt;Node33</title>
<path fill="none" stroke="midnightblue" d="M73.04,-846.91C75.91,-735.11 92.68,-290.5 179,-187.5 182.27,-183.6 186.18,-180.3 190.46,-177.52"/>
<polygon fill="midnightblue" stroke="midnightblue" points="69.54,-847.14 72.79,-857.23 76.53,-847.31 69.54,-847.14"/>
</g>
<!-- Node34 -->
<g id="node35" class="node">
<title>Node34</title>
<g id="a_node35"><a xlink:href="dc/d7b/classpocketmine_1_1world_1_1particle_1_1_terrain_particle.html" target="_top" xlink:title=" ">
<polygon fill="white" stroke="black" points="181.5,-98.5 181.5,-128.5 324.5,-128.5 324.5,-98.5 181.5,-98.5"/>
<text text-anchor="start" x="189.5" y="-116.5" font-family="Helvetica,sans-Serif" font-size="10.00">pocketmine\world\particle</text>
<text text-anchor="middle" x="253" y="-105.5" font-family="Helvetica,sans-Serif" font-size="10.00">\TerrainParticle</text>
</a>
</g>
</g>
<!-- Node0&#45;&gt;Node34 -->
<g id="edge34" class="edge">
<title>Node0&#45;&gt;Node34</title>
<path fill="none" stroke="midnightblue" d="M72.74,-847.34C74.36,-731.43 86.62,-249.87 179,-138.5 182.16,-134.69 185.94,-131.45 190.08,-128.71"/>
<polygon fill="midnightblue" stroke="midnightblue" points="69.24,-847.34 72.62,-857.39 76.24,-847.43 69.24,-847.34"/>
</g>
<!-- Node35 -->
<g id="node36" class="node">
<title>Node35</title>
<g id="a_node36"><a xlink:href="dd/db5/classpocketmine_1_1world_1_1particle_1_1_water_drip_particle.html" target="_top" xlink:title=" ">
<polygon fill="white" stroke="black" points="181.5,-49.5 181.5,-79.5 324.5,-79.5 324.5,-49.5 181.5,-49.5"/>
<text text-anchor="start" x="189.5" y="-67.5" font-family="Helvetica,sans-Serif" font-size="10.00">pocketmine\world\particle</text>
<text text-anchor="middle" x="253" y="-56.5" font-family="Helvetica,sans-Serif" font-size="10.00">\WaterDripParticle</text>
</a>
</g>
</g>
<!-- Node0&#45;&gt;Node35 -->
<g id="edge35" class="edge">
<title>Node0&#45;&gt;Node35</title>
<path fill="none" stroke="midnightblue" d="M72.49,-847.22C72.95,-726.45 80.69,-209.1 179,-89.5 182.15,-85.67 185.91,-82.43 190.04,-79.68"/>
<polygon fill="midnightblue" stroke="midnightblue" points="68.99,-847.34 72.47,-857.35 75.99,-847.36 68.99,-847.34"/>
</g>
<!-- Node36 -->
<g id="node37" class="node">
<title>Node36</title>
<g id="a_node37"><a xlink:href="de/dd7/classpocketmine_1_1world_1_1particle_1_1_water_particle.html" target="_top" xlink:title=" ">
<polygon fill="white" stroke="black" points="181.5,-0.5 181.5,-30.5 324.5,-30.5 324.5,-0.5 181.5,-0.5"/>
<text text-anchor="start" x="189.5" y="-18.5" font-family="Helvetica,sans-Serif" font-size="10.00">pocketmine\world\particle</text>
<text text-anchor="middle" x="253" y="-7.5" font-family="Helvetica,sans-Serif" font-size="10.00">\WaterParticle</text>
</a>
</g>
</g>
<!-- Node0&#45;&gt;Node36 -->
<g id="edge36" class="edge">
<title>Node0&#45;&gt;Node36</title>
<path fill="none" stroke="midnightblue" d="M72.27,-847.26C71.61,-722.03 74.7,-168.4 179,-40.5 182.13,-36.66 185.88,-33.41 190.01,-30.65"/>
<polygon fill="midnightblue" stroke="midnightblue" points="68.77,-847.43 72.33,-857.4 75.77,-847.38 68.77,-847.43"/>
</g>
</g>
</svg>
