<?xml version="1.0" encoding="UTF-8" standalone="no"?>
<!DOCTYPE svg PUBLIC "-//W3C//DTD SVG 1.1//EN"
 "http://www.w3.org/Graphics/SVG/1.1/DTD/svg11.dtd">
<!-- Generated by graphviz version 2.43.0 (0)
 -->
<!-- Title: Graphical Class Hierarchy Pages: 1 -->
<svg width="319pt" height="230pt"
 viewBox="0.00 0.00 319.00 230.00" xmlns="http://www.w3.org/2000/svg" xmlns:xlink="http://www.w3.org/1999/xlink">
<g id="graph0" class="graph" transform="scale(1 1) rotate(0) translate(4 226)">
<title>Graphical Class Hierarchy</title>
<polygon fill="white" stroke="transparent" points="-4,4 -4,-226 315,-226 315,4 -4,4"/>
<!-- Node0 -->
<g id="node1" class="node">
<title>Node0</title>
<g id="a_node1"><a xlink:href="dc/d76/classpocketmine_1_1network_1_1mcpe_1_1protocol_1_1types_1_1recipe_1_1_recipe_with_type_id.html" target="_top" xlink:title=" ">
<polygon fill="white" stroke="black" points="0,-90.5 0,-131.5 140,-131.5 140,-90.5 0,-90.5"/>
<text text-anchor="start" x="8" y="-119.5" font-family="Helvetica,sans-Serif" font-size="10.00">pocketmine\network</text>
<text text-anchor="start" x="8" y="-108.5" font-family="Helvetica,sans-Serif" font-size="10.00">\mcpe\protocol\types</text>
<text text-anchor="middle" x="70" y="-97.5" font-family="Helvetica,sans-Serif" font-size="10.00">\recipe\RecipeWithTypeId</text>
</a>
</g>
</g>
<!-- Node1 -->
<g id="node2" class="node">
<title>Node1</title>
<g id="a_node2"><a xlink:href="db/d68/classpocketmine_1_1network_1_1mcpe_1_1protocol_1_1types_1_1recipe_1_1_furnace_recipe.html" target="_top" xlink:title=" ">
<polygon fill="white" stroke="black" points="181.5,-180.5 181.5,-221.5 305.5,-221.5 305.5,-180.5 181.5,-180.5"/>
<text text-anchor="start" x="189.5" y="-209.5" font-family="Helvetica,sans-Serif" font-size="10.00">pocketmine\network</text>
<text text-anchor="start" x="189.5" y="-198.5" font-family="Helvetica,sans-Serif" font-size="10.00">\mcpe\protocol\types</text>
<text text-anchor="middle" x="243.5" y="-187.5" font-family="Helvetica,sans-Serif" font-size="10.00">\recipe\FurnaceRecipe</text>
</a>
</g>
</g>
<!-- Node0&#45;&gt;Node1 -->
<g id="edge1" class="edge">
<title>Node0&#45;&gt;Node1</title>
<path fill="none" stroke="midnightblue" d="M113.73,-136.65C132.59,-147.65 155.17,-160.38 176,-171 182.21,-174.16 188.81,-177.35 195.37,-180.41"/>
<polygon fill="midnightblue" stroke="midnightblue" points="115.47,-133.61 105.07,-131.57 111.92,-139.64 115.47,-133.61"/>
</g>
<!-- Node2 -->
<g id="node3" class="node">
<title>Node2</title>
<g id="a_node3"><a xlink:href="d1/da0/classpocketmine_1_1network_1_1mcpe_1_1protocol_1_1types_1_1recipe_1_1_multi_recipe.html" target="_top" xlink:title=" ">
<polygon fill="white" stroke="black" points="184,-120.5 184,-161.5 303,-161.5 303,-120.5 184,-120.5"/>
<text text-anchor="start" x="192" y="-149.5" font-family="Helvetica,sans-Serif" font-size="10.00">pocketmine\network</text>
<text text-anchor="start" x="192" y="-138.5" font-family="Helvetica,sans-Serif" font-size="10.00">\mcpe\protocol\types</text>
<text text-anchor="middle" x="243.5" y="-127.5" font-family="Helvetica,sans-Serif" font-size="10.00">\recipe\MultiRecipe</text>
</a>
</g>
</g>
<!-- Node0&#45;&gt;Node2 -->
<g id="edge2" class="edge">
<title>Node0&#45;&gt;Node2</title>
<path fill="none" stroke="midnightblue" d="M150.2,-124.85C161.58,-126.84 173.11,-128.86 183.99,-130.76"/>
<polygon fill="midnightblue" stroke="midnightblue" points="150.71,-121.39 140.26,-123.12 149.51,-128.29 150.71,-121.39"/>
</g>
<!-- Node3 -->
<g id="node4" class="node">
<title>Node3</title>
<g id="a_node4"><a xlink:href="d3/d06/classpocketmine_1_1network_1_1mcpe_1_1protocol_1_1types_1_1recipe_1_1_shaped_recipe.html" target="_top" xlink:title=" ">
<polygon fill="white" stroke="black" points="182.5,-60.5 182.5,-101.5 304.5,-101.5 304.5,-60.5 182.5,-60.5"/>
<text text-anchor="start" x="190.5" y="-89.5" font-family="Helvetica,sans-Serif" font-size="10.00">pocketmine\network</text>
<text text-anchor="start" x="190.5" y="-78.5" font-family="Helvetica,sans-Serif" font-size="10.00">\mcpe\protocol\types</text>
<text text-anchor="middle" x="243.5" y="-67.5" font-family="Helvetica,sans-Serif" font-size="10.00">\recipe\ShapedRecipe</text>
</a>
</g>
</g>
<!-- Node0&#45;&gt;Node3 -->
<g id="edge3" class="edge">
<title>Node0&#45;&gt;Node3</title>
<path fill="none" stroke="midnightblue" d="M150.15,-97.16C160.97,-95.26 171.94,-93.34 182.36,-91.52"/>
<polygon fill="midnightblue" stroke="midnightblue" points="149.51,-93.71 140.26,-98.88 150.71,-100.61 149.51,-93.71"/>
</g>
<!-- Node4 -->
<g id="node5" class="node">
<title>Node4</title>
<g id="a_node5"><a xlink:href="da/d6d/classpocketmine_1_1network_1_1mcpe_1_1protocol_1_1types_1_1recipe_1_1_shapeless_recipe.html" target="_top" xlink:title=" ">
<polygon fill="white" stroke="black" points="176,-0.5 176,-41.5 311,-41.5 311,-0.5 176,-0.5"/>
<text text-anchor="start" x="184" y="-29.5" font-family="Helvetica,sans-Serif" font-size="10.00">pocketmine\network</text>
<text text-anchor="start" x="184" y="-18.5" font-family="Helvetica,sans-Serif" font-size="10.00">\mcpe\protocol\types</text>
<text text-anchor="middle" x="243.5" y="-7.5" font-family="Helvetica,sans-Serif" font-size="10.00">\recipe\ShapelessRecipe</text>
</a>
</g>
</g>
<!-- Node0&#45;&gt;Node4 -->
<g id="edge4" class="edge">
<title>Node0&#45;&gt;Node4</title>
<path fill="none" stroke="midnightblue" d="M113.73,-85.35C132.59,-74.35 155.17,-61.62 176,-51 182.21,-47.84 188.81,-44.65 195.37,-41.59"/>
<polygon fill="midnightblue" stroke="midnightblue" points="111.92,-82.36 105.07,-90.43 115.47,-88.39 111.92,-82.36"/>
</g>
</g>
</svg>
