<?xml version="1.0" encoding="UTF-8" standalone="no"?>
<!DOCTYPE svg PUBLIC "-//W3C//DTD SVG 1.1//EN"
 "http://www.w3.org/Graphics/SVG/1.1/DTD/svg11.dtd">
<!-- Generated by graphviz version 2.43.0 (0)
 -->
<!-- Title: pocketmine\block\PressurePlate Pages: 1 -->
<!--zoomable 772 -->
<svg id="main" version="1.1" xmlns="http://www.w3.org/2000/svg" xmlns:xlink="http://www.w3.org/1999/xlink" xml:space="preserve" onload="init(evt)">
<style type="text/css"><![CDATA[
.edge:hover path { stroke: red; }
.edge:hover polygon { stroke: red; fill: red; }
]]></style>
<script type="text/javascript"><![CDATA[
var edges = document.getElementsByTagName('g');
if (edges && edges.length) {
  for (var i=0;i<edges.length;i++) {
    if (edges[i].id.substr(0,4)=='edge') {
      edges[i].setAttribute('class','edge');
    }
  }
}
]]></script>
        <defs>
                <circle id="rim" cx="0" cy="0" r="7"/>
                <circle id="rim2" cx="0" cy="0" r="3.5"/>
                <g id="zoomPlus">
                        <use xlink:href="#rim" fill="#404040">
                                <set attributeName="fill" to="#808080" begin="zoomplus.mouseover" end="zoomplus.mouseout"/>
                        </use>
                        <path d="M-4,0h8M0,-4v8" fill="none" stroke="white" stroke-width="1.5" pointer-events="none"/>
                </g>
                <g id="zoomMin">
                        <use xlink:href="#rim" fill="#404040">
                                <set attributeName="fill" to="#808080" begin="zoomminus.mouseover" end="zoomminus.mouseout"/>
                        </use>
                        <path d="M-4,0h8" fill="none" stroke="white" stroke-width="1.5" pointer-events="none"/>
                </g>
                <g id="dirArrow">
                        <path fill="none" stroke="white" stroke-width="1.5" d="M0,-3.0v7 M-2.5,-0.5L0,-3.0L2.5,-0.5"/>
                </g>
               <g id="resetDef">
                       <use xlink:href="#rim2" fill="#404040">
                               <set attributeName="fill" to="#808080" begin="reset.mouseover" end="reset.mouseout"/>
                       </use>
               </g>
        </defs>

<script type="text/javascript">
var viewWidth = 729;
var viewHeight = 772;
var sectionId = 'dynsection-0';
</script>
<script xlink:href="../../svgpan.js"/>
<svg id="graph" class="graph">
<g id="viewport">
<title>pocketmine\block\PressurePlate</title>
<polygon fill="white" stroke="transparent" points="-4,4 -4,-768 725,-768 725,4 -4,4"/>
<!-- Node1 -->
<g id="node1" class="node">
<title>Node1</title>
<g id="a_node1"><a xlink:title=" ">
<polygon fill="#bfbfbf" stroke="black" points="300.5,-254.5 300.5,-355.5 461.5,-355.5 461.5,-254.5 300.5,-254.5"/>
<text text-anchor="start" x="308.5" y="-343.5" font-family="Helvetica,sans-Serif" font-size="10.00">pocketmine\block\Pressure</text>
<text text-anchor="middle" x="381" y="-332.5" font-family="Helvetica,sans-Serif" font-size="10.00">Plate</text>
<polyline fill="none" stroke="black" points="300.5,-325.5 461.5,-325.5 "/>
<text text-anchor="middle" x="381" y="-313.5" font-family="Helvetica,sans-Serif" font-size="10.00"> </text>
<polyline fill="none" stroke="black" points="300.5,-306.5 461.5,-306.5 "/>
<text text-anchor="start" x="308.5" y="-294.5" font-family="Helvetica,sans-Serif" font-size="10.00">+ getSupportType()</text>
<text text-anchor="start" x="308.5" y="-283.5" font-family="Helvetica,sans-Serif" font-size="10.00">+ isSolid()</text>
<text text-anchor="start" x="308.5" y="-272.5" font-family="Helvetica,sans-Serif" font-size="10.00">+ place()</text>
<text text-anchor="start" x="308.5" y="-261.5" font-family="Helvetica,sans-Serif" font-size="10.00"># recalculateCollisionBoxes()</text>
</a>
</g>
</g>
<!-- Node4 -->
<g id="node4" class="node">
<title>Node4</title>
<g id="a_node4"><a xlink:href="../../dd/dc4/classpocketmine_1_1block_1_1_simple_pressure_plate.html" target="_top" xlink:title=" ">
<polygon fill="white" stroke="#bfbfbf" points="196,-105.5 196,-217.5 378,-217.5 378,-105.5 196,-105.5"/>
<text text-anchor="start" x="204" y="-205.5" font-family="Helvetica,sans-Serif" font-size="10.00">pocketmine\block\SimplePressure</text>
<text text-anchor="middle" x="287" y="-194.5" font-family="Helvetica,sans-Serif" font-size="10.00">Plate</text>
<polyline fill="none" stroke="#bfbfbf" points="196,-187.5 378,-187.5 "/>
<text text-anchor="start" x="204" y="-175.5" font-family="Helvetica,sans-Serif" font-size="10.00"># $pressed</text>
<polyline fill="none" stroke="#bfbfbf" points="196,-168.5 378,-168.5 "/>
<text text-anchor="start" x="204" y="-156.5" font-family="Helvetica,sans-Serif" font-size="10.00">+ getStateBitmask()</text>
<text text-anchor="start" x="204" y="-145.5" font-family="Helvetica,sans-Serif" font-size="10.00">+ isPressed()</text>
<text text-anchor="start" x="204" y="-134.5" font-family="Helvetica,sans-Serif" font-size="10.00">+ readStateFromData()</text>
<text text-anchor="start" x="204" y="-123.5" font-family="Helvetica,sans-Serif" font-size="10.00">+ setPressed()</text>
<text text-anchor="start" x="204" y="-112.5" font-family="Helvetica,sans-Serif" font-size="10.00"># writeStateToMeta()</text>
</a>
</g>
</g>
<!-- Node1&#45;&gt;Node4 -->
<g id="edge3" class="edge">
<title>Node1&#45;&gt;Node4</title>
<path fill="none" stroke="midnightblue" d="M342.28,-245.71C336.13,-236.45 329.78,-226.9 323.68,-217.72"/>
<polygon fill="none" stroke="midnightblue" points="339.41,-247.72 347.86,-254.11 345.24,-243.85 339.41,-247.72"/>
</g>
<!-- Node7 -->
<g id="node7" class="node">
<title>Node7</title>
<g id="a_node7"><a xlink:href="../../d6/dc1/classpocketmine_1_1block_1_1_weighted_pressure_plate.html" target="_top" xlink:title=" ">
<polygon fill="white" stroke="#bfbfbf" points="399,-116.5 399,-206.5 551,-206.5 551,-116.5 399,-116.5"/>
<text text-anchor="start" x="407" y="-194.5" font-family="Helvetica,sans-Serif" font-size="10.00">pocketmine\block\Weighted</text>
<text text-anchor="middle" x="475" y="-183.5" font-family="Helvetica,sans-Serif" font-size="10.00">PressurePlate</text>
<polyline fill="none" stroke="#bfbfbf" points="399,-176.5 551,-176.5 "/>
<text text-anchor="middle" x="475" y="-164.5" font-family="Helvetica,sans-Serif" font-size="10.00"> </text>
<polyline fill="none" stroke="#bfbfbf" points="399,-157.5 551,-157.5 "/>
<text text-anchor="start" x="407" y="-145.5" font-family="Helvetica,sans-Serif" font-size="10.00">+ getStateBitmask()</text>
<text text-anchor="start" x="407" y="-134.5" font-family="Helvetica,sans-Serif" font-size="10.00">+ readStateFromData()</text>
<text text-anchor="start" x="407" y="-123.5" font-family="Helvetica,sans-Serif" font-size="10.00"># writeStateToMeta()</text>
</a>
</g>
</g>
<!-- Node1&#45;&gt;Node7 -->
<g id="edge6" class="edge">
<title>Node1&#45;&gt;Node7</title>
<path fill="none" stroke="midnightblue" d="M419.75,-245.67C428.39,-232.67 437.41,-219.08 445.6,-206.76"/>
<polygon fill="none" stroke="midnightblue" points="416.76,-243.85 414.14,-254.11 422.59,-247.72 416.76,-243.85"/>
</g>
<!-- Node2 -->
<g id="node2" class="node">
<title>Node2</title>
<g id="a_node2"><a xlink:href="../../d5/d1b/classpocketmine_1_1block_1_1_transparent.html" target="_top" xlink:title=" ">
<polygon fill="white" stroke="black" points="299.5,-392.5 299.5,-449.5 462.5,-449.5 462.5,-392.5 299.5,-392.5"/>
<text text-anchor="middle" x="381" y="-437.5" font-family="Helvetica,sans-Serif" font-size="10.00">pocketmine\block\Transparent</text>
<polyline fill="none" stroke="black" points="299.5,-430.5 462.5,-430.5 "/>
<text text-anchor="middle" x="381" y="-418.5" font-family="Helvetica,sans-Serif" font-size="10.00"> </text>
<polyline fill="none" stroke="black" points="299.5,-411.5 462.5,-411.5 "/>
<text text-anchor="start" x="307.5" y="-399.5" font-family="Helvetica,sans-Serif" font-size="10.00">+ isTransparent()</text>
</a>
</g>
</g>
<!-- Node2&#45;&gt;Node1 -->
<g id="edge1" class="edge">
<title>Node2&#45;&gt;Node1</title>
<path fill="none" stroke="midnightblue" d="M381,-382.35C381,-373.8 381,-364.58 381,-355.61"/>
<polygon fill="none" stroke="midnightblue" points="377.5,-382.4 381,-392.4 384.5,-382.4 377.5,-382.4"/>
</g>
<!-- Node3 -->
<g id="node3" class="node">
<title>Node3</title>
<g id="a_node3"><a xlink:href="../../d7/d27/classpocketmine_1_1block_1_1_block.html" target="_top" xlink:title=" ">
<polygon fill="white" stroke="#bfbfbf" points="297,-486.5 297,-763.5 465,-763.5 465,-486.5 297,-486.5"/>
<text text-anchor="middle" x="381" y="-751.5" font-family="Helvetica,sans-Serif" font-size="10.00">pocketmine\block\Block</text>
<polyline fill="none" stroke="#bfbfbf" points="297,-744.5 465,-744.5 "/>
<text text-anchor="start" x="305" y="-732.5" font-family="Helvetica,sans-Serif" font-size="10.00">+ INTERNAL_METADATA_BITS</text>
<text text-anchor="start" x="305" y="-721.5" font-family="Helvetica,sans-Serif" font-size="10.00">+ INTERNAL_METADATA_MASK</text>
<text text-anchor="start" x="305" y="-710.5" font-family="Helvetica,sans-Serif" font-size="10.00"># $breakInfo</text>
<text text-anchor="start" x="305" y="-699.5" font-family="Helvetica,sans-Serif" font-size="10.00"># $collisionBoxes</text>
<text text-anchor="start" x="305" y="-688.5" font-family="Helvetica,sans-Serif" font-size="10.00"># $fallbackName</text>
<text text-anchor="start" x="305" y="-677.5" font-family="Helvetica,sans-Serif" font-size="10.00"># $idInfo</text>
<text text-anchor="start" x="305" y="-666.5" font-family="Helvetica,sans-Serif" font-size="10.00"># $position</text>
<polyline fill="none" stroke="#bfbfbf" points="297,-659.5 465,-659.5 "/>
<text text-anchor="start" x="305" y="-647.5" font-family="Helvetica,sans-Serif" font-size="10.00">+ __construct()</text>
<text text-anchor="start" x="305" y="-636.5" font-family="Helvetica,sans-Serif" font-size="10.00">+ __clone()</text>
<text text-anchor="start" x="305" y="-625.5" font-family="Helvetica,sans-Serif" font-size="10.00">+ __toString()</text>
<text text-anchor="start" x="305" y="-614.5" font-family="Helvetica,sans-Serif" font-size="10.00">+ addVelocityToEntity()</text>
<text text-anchor="start" x="305" y="-603.5" font-family="Helvetica,sans-Serif" font-size="10.00">+ asItem()</text>
<text text-anchor="start" x="305" y="-592.5" font-family="Helvetica,sans-Serif" font-size="10.00">+ blocksDirectSkyLight()</text>
<text text-anchor="start" x="305" y="-581.5" font-family="Helvetica,sans-Serif" font-size="10.00">+ burnsForever()</text>
<text text-anchor="start" x="305" y="-570.5" font-family="Helvetica,sans-Serif" font-size="10.00">+ calculateIntercept()</text>
<text text-anchor="start" x="305" y="-559.5" font-family="Helvetica,sans-Serif" font-size="10.00">+ canBeFlowedInto()</text>
<text text-anchor="start" x="305" y="-548.5" font-family="Helvetica,sans-Serif" font-size="10.00">+ canBePlaced()</text>
<text text-anchor="start" x="305" y="-537.5" font-family="Helvetica,sans-Serif" font-size="10.00">and 57 more...</text>
<text text-anchor="start" x="305" y="-526.5" font-family="Helvetica,sans-Serif" font-size="10.00"># getXpDropAmount()</text>
<text text-anchor="start" x="305" y="-515.5" font-family="Helvetica,sans-Serif" font-size="10.00"># recalculateCollisionBoxes()</text>
<text text-anchor="start" x="305" y="-504.5" font-family="Helvetica,sans-Serif" font-size="10.00"># writeStateToItemMeta()</text>
<text text-anchor="start" x="305" y="-493.5" font-family="Helvetica,sans-Serif" font-size="10.00"># writeStateToMeta()</text>
</a>
</g>
</g>
<!-- Node3&#45;&gt;Node2 -->
<g id="edge2" class="edge">
<title>Node3&#45;&gt;Node2</title>
<path fill="none" stroke="midnightblue" d="M381,-476.41C381,-466.59 381,-457.52 381,-449.71"/>
<polygon fill="none" stroke="midnightblue" points="377.5,-476.47 381,-486.47 384.5,-476.47 377.5,-476.47"/>
</g>
<!-- Node5 -->
<g id="node5" class="node">
<title>Node5</title>
<g id="a_node5"><a xlink:href="../../d5/d8e/classpocketmine_1_1block_1_1_stone_pressure_plate.html" target="_top" xlink:title=" ">
<polygon fill="white" stroke="#bfbfbf" points="0,-0.5 0,-68.5 176,-68.5 176,-0.5 0,-0.5"/>
<text text-anchor="start" x="8" y="-56.5" font-family="Helvetica,sans-Serif" font-size="10.00">pocketmine\block\StonePressure</text>
<text text-anchor="middle" x="88" y="-45.5" font-family="Helvetica,sans-Serif" font-size="10.00">Plate</text>
<polyline fill="none" stroke="#bfbfbf" points="0,-38.5 176,-38.5 "/>
<text text-anchor="middle" x="88" y="-26.5" font-family="Helvetica,sans-Serif" font-size="10.00"> </text>
<polyline fill="none" stroke="#bfbfbf" points="0,-19.5 176,-19.5 "/>
<text text-anchor="middle" x="88" y="-7.5" font-family="Helvetica,sans-Serif" font-size="10.00"> </text>
</a>
</g>
</g>
<!-- Node4&#45;&gt;Node5 -->
<g id="edge4" class="edge">
<title>Node4&#45;&gt;Node5</title>
<path fill="none" stroke="midnightblue" d="M190.95,-100.17C173.64,-89.3 156.2,-78.34 140.71,-68.61"/>
<polygon fill="none" stroke="midnightblue" points="189.1,-103.14 199.43,-105.49 192.82,-97.21 189.1,-103.14"/>
</g>
<!-- Node6 -->
<g id="node6" class="node">
<title>Node6</title>
<g id="a_node6"><a xlink:href="../../d0/d98/classpocketmine_1_1block_1_1_wooden_pressure_plate.html" target="_top" xlink:title=" ">
<polygon fill="white" stroke="#bfbfbf" points="193.5,-0.5 193.5,-68.5 380.5,-68.5 380.5,-0.5 193.5,-0.5"/>
<text text-anchor="start" x="201.5" y="-56.5" font-family="Helvetica,sans-Serif" font-size="10.00">pocketmine\block\WoodenPressure</text>
<text text-anchor="middle" x="287" y="-45.5" font-family="Helvetica,sans-Serif" font-size="10.00">Plate</text>
<polyline fill="none" stroke="#bfbfbf" points="193.5,-38.5 380.5,-38.5 "/>
<text text-anchor="middle" x="287" y="-26.5" font-family="Helvetica,sans-Serif" font-size="10.00"> </text>
<polyline fill="none" stroke="#bfbfbf" points="193.5,-19.5 380.5,-19.5 "/>
<text text-anchor="start" x="201.5" y="-7.5" font-family="Helvetica,sans-Serif" font-size="10.00">+ getFuelTime()</text>
</a>
</g>
</g>
<!-- Node4&#45;&gt;Node6 -->
<g id="edge5" class="edge">
<title>Node4&#45;&gt;Node6</title>
<path fill="none" stroke="midnightblue" d="M287,-95.26C287,-85.99 287,-76.8 287,-68.51"/>
<polygon fill="none" stroke="midnightblue" points="283.5,-95.31 287,-105.31 290.5,-95.31 283.5,-95.31"/>
</g>
<!-- Node8 -->
<g id="node8" class="node">
<title>Node8</title>
<g id="a_node8"><a xlink:href="../../db/dfc/classpocketmine_1_1block_1_1_weighted_pressure_plate_heavy.html" target="_top" xlink:title=" ">
<polygon fill="white" stroke="#bfbfbf" points="399,-0.5 399,-68.5 551,-68.5 551,-0.5 399,-0.5"/>
<text text-anchor="start" x="407" y="-56.5" font-family="Helvetica,sans-Serif" font-size="10.00">pocketmine\block\Weighted</text>
<text text-anchor="middle" x="475" y="-45.5" font-family="Helvetica,sans-Serif" font-size="10.00">PressurePlateHeavy</text>
<polyline fill="none" stroke="#bfbfbf" points="399,-38.5 551,-38.5 "/>
<text text-anchor="middle" x="475" y="-26.5" font-family="Helvetica,sans-Serif" font-size="10.00"> </text>
<polyline fill="none" stroke="#bfbfbf" points="399,-19.5 551,-19.5 "/>
<text text-anchor="middle" x="475" y="-7.5" font-family="Helvetica,sans-Serif" font-size="10.00"> </text>
</a>
</g>
</g>
<!-- Node7&#45;&gt;Node8 -->
<g id="edge7" class="edge">
<title>Node7&#45;&gt;Node8</title>
<path fill="none" stroke="midnightblue" d="M475,-106.28C475,-93.44 475,-80.13 475,-68.57"/>
<polygon fill="none" stroke="midnightblue" points="471.5,-106.43 475,-116.43 478.5,-106.43 471.5,-106.43"/>
</g>
<!-- Node9 -->
<g id="node9" class="node">
<title>Node9</title>
<g id="a_node9"><a xlink:href="../../dc/d22/classpocketmine_1_1block_1_1_weighted_pressure_plate_light.html" target="_top" xlink:title=" ">
<polygon fill="white" stroke="#bfbfbf" points="569,-0.5 569,-68.5 721,-68.5 721,-0.5 569,-0.5"/>
<text text-anchor="start" x="577" y="-56.5" font-family="Helvetica,sans-Serif" font-size="10.00">pocketmine\block\Weighted</text>
<text text-anchor="middle" x="645" y="-45.5" font-family="Helvetica,sans-Serif" font-size="10.00">PressurePlateLight</text>
<polyline fill="none" stroke="#bfbfbf" points="569,-38.5 721,-38.5 "/>
<text text-anchor="middle" x="645" y="-26.5" font-family="Helvetica,sans-Serif" font-size="10.00"> </text>
<polyline fill="none" stroke="#bfbfbf" points="569,-19.5 721,-19.5 "/>
<text text-anchor="middle" x="645" y="-7.5" font-family="Helvetica,sans-Serif" font-size="10.00"> </text>
</a>
</g>
</g>
<!-- Node7&#45;&gt;Node9 -->
<g id="edge8" class="edge">
<title>Node7&#45;&gt;Node9</title>
<path fill="none" stroke="midnightblue" d="M543.06,-110.45C562.23,-96.36 582.58,-81.39 600.03,-68.57"/>
<polygon fill="none" stroke="midnightblue" points="540.92,-107.69 534.94,-116.43 545.07,-113.33 540.92,-107.69"/>
</g>
</g>
</svg>
        <g id="navigator" transform="translate(0 0)" fill="#404254">
                <rect fill="#f2f5e9" fill-opacity="0.5" stroke="#606060" stroke-width=".5" x="0" y="0" width="60" height="60"/>
                <use id="zoomplus" xlink:href="#zoomPlus" x="17" y="9" onmousedown="handleZoom(evt,'in')"/>
                <use id="zoomminus" xlink:href="#zoomMin" x="42" y="9" onmousedown="handleZoom(evt,'out')"/>
                <use id="reset" xlink:href="#resetDef" x="30" y="36" onmousedown="handleReset()"/>
                <g id="arrowUp" xlink:href="#dirArrow" transform="translate(30 24)" onmousedown="handlePan(0,-1)">
                  <use xlink:href="#rim" fill="#404040">
                        <set attributeName="fill" to="#808080" begin="arrowUp.mouseover" end="arrowUp.mouseout"/>
                  </use>
                  <path fill="none" stroke="white" stroke-width="1.5" d="M0,-3.0v7 M-2.5,-0.5L0,-3.0L2.5,-0.5"/>
                </g>
                <g id="arrowRight" xlink:href="#dirArrow" transform="rotate(90) translate(36 -43)" onmousedown="handlePan(1,0)">
                  <use xlink:href="#rim" fill="#404040">
                        <set attributeName="fill" to="#808080" begin="arrowRight.mouseover" end="arrowRight.mouseout"/>
                  </use>
                  <path fill="none" stroke="white" stroke-width="1.5" d="M0,-3.0v7 M-2.5,-0.5L0,-3.0L2.5,-0.5"/>
                </g>
                <g id="arrowDown" xlink:href="#dirArrow" transform="rotate(180) translate(-30 -48)" onmousedown="handlePan(0,1)">
                  <use xlink:href="#rim" fill="#404040">
                        <set attributeName="fill" to="#808080" begin="arrowDown.mouseover" end="arrowDown.mouseout"/>
                  </use>
                  <path fill="none" stroke="white" stroke-width="1.5" d="M0,-3.0v7 M-2.5,-0.5L0,-3.0L2.5,-0.5"/>
                </g>
                <g id="arrowLeft" xlink:href="#dirArrow" transform="rotate(270) translate(-36 17)" onmousedown="handlePan(-1,0)">
                  <use xlink:href="#rim" fill="#404040">
                        <set attributeName="fill" to="#808080" begin="arrowLeft.mouseover" end="arrowLeft.mouseout"/>
                  </use>
                  <path fill="none" stroke="white" stroke-width="1.5" d="M0,-3.0v7 M-2.5,-0.5L0,-3.0L2.5,-0.5"/>
                </g>
        </g>
        <svg viewBox="0 0 15 15" width="100%" height="30px" preserveAspectRatio="xMaxYMin meet">
         <g id="arrow_out" transform="scale(0.3 0.3)">
          <a xlink:href="classpocketmine_1_1block_1_1_pressure_plate__inherit__graph_org.svg" target="_base">
           <rect id="button" ry="5" rx="5" y="6" x="6" height="38" width="38"
                fill="#f2f5e9" fill-opacity="0.5" stroke="#606060" stroke-width="1.0"/>
           <path id="arrow"
             d="M 11.500037,31.436501 C 11.940474,20.09759 22.043105,11.32322 32.158766,21.979434 L 37.068811,17.246167 C 37.068811,17.246167 37.088388,32 37.088388,32 L 22.160133,31.978069 C 22.160133,31.978069 26.997745,27.140456 26.997745,27.140456 C 18.528582,18.264221 13.291696,25.230495 11.500037,31.436501 z"
             style="fill:#404040;"/>
          </a>
         </g>
        </svg>
</svg>
