<?xml version="1.0" encoding="UTF-8" standalone="no"?>
<!DOCTYPE svg PUBLIC "-//W3C//DTD SVG 1.1//EN"
 "http://www.w3.org/Graphics/SVG/1.1/DTD/svg11.dtd">
<!-- Generated by graphviz version 2.43.0 (0)
 -->
<!-- Title: pocketmine\world\format\io\region\RegionWorldProvider Pages: 1 -->
<!--zoomable 744 -->
<svg id="main" version="1.1" xmlns="http://www.w3.org/2000/svg" xmlns:xlink="http://www.w3.org/1999/xlink" xml:space="preserve" onload="init(evt)">
<style type="text/css"><![CDATA[
.edge:hover path { stroke: red; }
.edge:hover polygon { stroke: red; fill: red; }
]]></style>
<script type="text/javascript"><![CDATA[
var edges = document.getElementsByTagName('g');
if (edges && edges.length) {
  for (var i=0;i<edges.length;i++) {
    if (edges[i].id.substr(0,4)=='edge') {
      edges[i].setAttribute('class','edge');
    }
  }
}
]]></script>
        <defs>
                <circle id="rim" cx="0" cy="0" r="7"/>
                <circle id="rim2" cx="0" cy="0" r="3.5"/>
                <g id="zoomPlus">
                        <use xlink:href="#rim" fill="#404040">
                                <set attributeName="fill" to="#808080" begin="zoomplus.mouseover" end="zoomplus.mouseout"/>
                        </use>
                        <path d="M-4,0h8M0,-4v8" fill="none" stroke="white" stroke-width="1.5" pointer-events="none"/>
                </g>
                <g id="zoomMin">
                        <use xlink:href="#rim" fill="#404040">
                                <set attributeName="fill" to="#808080" begin="zoomminus.mouseover" end="zoomminus.mouseout"/>
                        </use>
                        <path d="M-4,0h8" fill="none" stroke="white" stroke-width="1.5" pointer-events="none"/>
                </g>
                <g id="dirArrow">
                        <path fill="none" stroke="white" stroke-width="1.5" d="M0,-3.0v7 M-2.5,-0.5L0,-3.0L2.5,-0.5"/>
                </g>
               <g id="resetDef">
                       <use xlink:href="#rim2" fill="#404040">
                               <set attributeName="fill" to="#808080" begin="reset.mouseover" end="reset.mouseout"/>
                       </use>
               </g>
        </defs>

<script type="text/javascript">
var viewWidth = 714;
var viewHeight = 744;
var sectionId = 'dynsection-0';
</script>
<script xlink:href="../../svgpan.js"/>
<svg id="graph" class="graph">
<g id="viewport">
<title>pocketmine\world\format\io\region\RegionWorldProvider</title>
<polygon fill="white" stroke="transparent" points="-4,4 -4,-740 709.5,-740 709.5,4 -4,4"/>
<!-- Node1 -->
<g id="node1" class="node">
<title>Node1</title>
<g id="a_node1"><a xlink:title=" ">
<polygon fill="#bfbfbf" stroke="black" points="265,-149.5 265,-393.5 432,-393.5 432,-149.5 265,-149.5"/>
<text text-anchor="start" x="273" y="-381.5" font-family="Helvetica,sans-Serif" font-size="10.00">pocketmine\world\format</text>
<text text-anchor="middle" x="348.5" y="-370.5" font-family="Helvetica,sans-Serif" font-size="10.00">\io\region\RegionWorldProvider</text>
<polyline fill="none" stroke="black" points="265,-363.5 432,-363.5 "/>
<text text-anchor="start" x="273" y="-351.5" font-family="Helvetica,sans-Serif" font-size="10.00"># $regions</text>
<polyline fill="none" stroke="black" points="265,-344.5 432,-344.5 "/>
<text text-anchor="start" x="273" y="-332.5" font-family="Helvetica,sans-Serif" font-size="10.00">+ calculateChunkCount()</text>
<text text-anchor="start" x="273" y="-321.5" font-family="Helvetica,sans-Serif" font-size="10.00">+ close()</text>
<text text-anchor="start" x="273" y="-310.5" font-family="Helvetica,sans-Serif" font-size="10.00">+ doGarbageCollection()</text>
<text text-anchor="start" x="273" y="-299.5" font-family="Helvetica,sans-Serif" font-size="10.00">+ getAllChunks()</text>
<text text-anchor="start" x="273" y="-288.5" font-family="Helvetica,sans-Serif" font-size="10.00">+ loadChunk()</text>
<text text-anchor="start" x="273" y="-277.5" font-family="Helvetica,sans-Serif" font-size="10.00">+ getRegionIndex()</text>
<text text-anchor="start" x="273" y="-266.5" font-family="Helvetica,sans-Serif" font-size="10.00">+ isValid()</text>
<text text-anchor="start" x="273" y="-255.5" font-family="Helvetica,sans-Serif" font-size="10.00"># deserializeChunk()</text>
<text text-anchor="start" x="273" y="-244.5" font-family="Helvetica,sans-Serif" font-size="10.00"># getRegion()</text>
<text text-anchor="start" x="273" y="-233.5" font-family="Helvetica,sans-Serif" font-size="10.00"># loadLevelData()</text>
<text text-anchor="start" x="273" y="-222.5" font-family="Helvetica,sans-Serif" font-size="10.00"># loadRegion()</text>
<text text-anchor="start" x="273" y="-211.5" font-family="Helvetica,sans-Serif" font-size="10.00"># pathToRegion()</text>
<text text-anchor="start" x="273" y="-200.5" font-family="Helvetica,sans-Serif" font-size="10.00"># unloadRegion()</text>
<text text-anchor="start" x="273" y="-189.5" font-family="Helvetica,sans-Serif" font-size="10.00"># getCompoundList()</text>
<text text-anchor="start" x="273" y="-178.5" font-family="Helvetica,sans-Serif" font-size="10.00"># getPcWorldFormatVersion()</text>
<text text-anchor="start" x="273" y="-167.5" font-family="Helvetica,sans-Serif" font-size="10.00"># getRegionFileExtension()</text>
<text text-anchor="start" x="273" y="-156.5" font-family="Helvetica,sans-Serif" font-size="10.00"># readFixedSizeByteArray()</text>
</a>
</g>
</g>
<!-- Node4 -->
<g id="node4" class="node">
<title>Node4</title>
<g id="a_node4"><a xlink:href="../../d9/d75/classpocketmine_1_1world_1_1format_1_1io_1_1region_1_1_anvil.html" target="_top" xlink:title=" ">
<polygon fill="white" stroke="#bfbfbf" points="0,-0.5 0,-112.5 161,-112.5 161,-0.5 0,-0.5"/>
<text text-anchor="start" x="8" y="-100.5" font-family="Helvetica,sans-Serif" font-size="10.00">pocketmine\world\format</text>
<text text-anchor="middle" x="80.5" y="-89.5" font-family="Helvetica,sans-Serif" font-size="10.00">\io\region\Anvil</text>
<polyline fill="none" stroke="#bfbfbf" points="0,-82.5 161,-82.5 "/>
<text text-anchor="middle" x="80.5" y="-70.5" font-family="Helvetica,sans-Serif" font-size="10.00"> </text>
<polyline fill="none" stroke="#bfbfbf" points="0,-63.5 161,-63.5 "/>
<text text-anchor="start" x="8" y="-51.5" font-family="Helvetica,sans-Serif" font-size="10.00">+ getWorldMaxY()</text>
<text text-anchor="start" x="8" y="-40.5" font-family="Helvetica,sans-Serif" font-size="10.00">+ getWorldMinY()</text>
<text text-anchor="start" x="8" y="-29.5" font-family="Helvetica,sans-Serif" font-size="10.00"># deserializeSubChunk()</text>
<text text-anchor="start" x="8" y="-18.5" font-family="Helvetica,sans-Serif" font-size="10.00"># getPcWorldFormatVersion()</text>
<text text-anchor="start" x="8" y="-7.5" font-family="Helvetica,sans-Serif" font-size="10.00"># getRegionFileExtension()</text>
</a>
</g>
</g>
<!-- Node1&#45;&gt;Node4 -->
<g id="edge3" class="edge">
<title>Node1&#45;&gt;Node4</title>
<path fill="none" stroke="midnightblue" d="M256.95,-197.74C221.97,-169.93 182.68,-138.71 150.07,-112.79"/>
<polygon fill="none" stroke="midnightblue" points="254.8,-200.5 264.81,-203.98 259.15,-195.02 254.8,-200.5"/>
</g>
<!-- Node5 -->
<g id="node5" class="node">
<title>Node5</title>
<g id="a_node5"><a xlink:href="../../da/d3f/classpocketmine_1_1world_1_1format_1_1io_1_1region_1_1_mc_region.html" target="_top" xlink:title=" ">
<polygon fill="white" stroke="#bfbfbf" points="179,-0.5 179,-112.5 340,-112.5 340,-0.5 179,-0.5"/>
<text text-anchor="start" x="187" y="-100.5" font-family="Helvetica,sans-Serif" font-size="10.00">pocketmine\world\format</text>
<text text-anchor="middle" x="259.5" y="-89.5" font-family="Helvetica,sans-Serif" font-size="10.00">\io\region\McRegion</text>
<polyline fill="none" stroke="#bfbfbf" points="179,-82.5 340,-82.5 "/>
<text text-anchor="middle" x="259.5" y="-70.5" font-family="Helvetica,sans-Serif" font-size="10.00"> </text>
<polyline fill="none" stroke="#bfbfbf" points="179,-63.5 340,-63.5 "/>
<text text-anchor="start" x="187" y="-51.5" font-family="Helvetica,sans-Serif" font-size="10.00">+ getWorldMaxY()</text>
<text text-anchor="start" x="187" y="-40.5" font-family="Helvetica,sans-Serif" font-size="10.00">+ getWorldMinY()</text>
<text text-anchor="start" x="187" y="-29.5" font-family="Helvetica,sans-Serif" font-size="10.00"># deserializeChunk()</text>
<text text-anchor="start" x="187" y="-18.5" font-family="Helvetica,sans-Serif" font-size="10.00"># getPcWorldFormatVersion()</text>
<text text-anchor="start" x="187" y="-7.5" font-family="Helvetica,sans-Serif" font-size="10.00"># getRegionFileExtension()</text>
</a>
</g>
</g>
<!-- Node1&#45;&gt;Node5 -->
<g id="edge4" class="edge">
<title>Node1&#45;&gt;Node5</title>
<path fill="none" stroke="midnightblue" d="M294.02,-140.12C290.02,-130.53 286.12,-121.22 282.49,-112.51"/>
<polygon fill="none" stroke="midnightblue" points="290.8,-141.5 297.89,-149.38 297.26,-138.8 290.8,-141.5"/>
</g>
<!-- Node6 -->
<g id="node6" class="node">
<title>Node6</title>
<g id="a_node6"><a xlink:href="../../d6/df1/classpocketmine_1_1world_1_1format_1_1io_1_1region_1_1_p_m_anvil.html" target="_top" xlink:title=" ">
<polygon fill="white" stroke="black" points="358,-0.5 358,-112.5 519,-112.5 519,-0.5 358,-0.5"/>
<text text-anchor="start" x="366" y="-100.5" font-family="Helvetica,sans-Serif" font-size="10.00">pocketmine\world\format</text>
<text text-anchor="middle" x="438.5" y="-89.5" font-family="Helvetica,sans-Serif" font-size="10.00">\io\region\PMAnvil</text>
<polyline fill="none" stroke="black" points="358,-82.5 519,-82.5 "/>
<text text-anchor="middle" x="438.5" y="-70.5" font-family="Helvetica,sans-Serif" font-size="10.00"> </text>
<polyline fill="none" stroke="black" points="358,-63.5 519,-63.5 "/>
<text text-anchor="start" x="366" y="-51.5" font-family="Helvetica,sans-Serif" font-size="10.00">+ getWorldMaxY()</text>
<text text-anchor="start" x="366" y="-40.5" font-family="Helvetica,sans-Serif" font-size="10.00">+ getWorldMinY()</text>
<text text-anchor="start" x="366" y="-29.5" font-family="Helvetica,sans-Serif" font-size="10.00"># deserializeSubChunk()</text>
<text text-anchor="start" x="366" y="-18.5" font-family="Helvetica,sans-Serif" font-size="10.00"># getPcWorldFormatVersion()</text>
<text text-anchor="start" x="366" y="-7.5" font-family="Helvetica,sans-Serif" font-size="10.00"># getRegionFileExtension()</text>
</a>
</g>
</g>
<!-- Node1&#45;&gt;Node6 -->
<g id="edge5" class="edge">
<title>Node1&#45;&gt;Node6</title>
<path fill="none" stroke="midnightblue" d="M403.59,-140.12C407.64,-130.53 411.58,-121.22 415.26,-112.51"/>
<polygon fill="none" stroke="midnightblue" points="400.35,-138.8 399.68,-149.38 406.8,-141.53 400.35,-138.8"/>
</g>
<!-- Node7 -->
<g id="node7" class="node">
<title>Node7</title>
<g id="a_node7"><a xlink:href="../../df/da7/classpocketmine_1_1world_1_1format_1_1io_1_1region_1_1_writable_region_world_provider.html" target="_top" xlink:title=" ">
<polygon fill="white" stroke="black" points="537.5,-6 537.5,-107 705.5,-107 705.5,-6 537.5,-6"/>
<text text-anchor="start" x="545.5" y="-95" font-family="Helvetica,sans-Serif" font-size="10.00">pocketmine\world\format</text>
<text text-anchor="start" x="545.5" y="-84" font-family="Helvetica,sans-Serif" font-size="10.00">\io\region\WritableRegionWorld</text>
<text text-anchor="middle" x="621.5" y="-73" font-family="Helvetica,sans-Serif" font-size="10.00">Provider</text>
<polyline fill="none" stroke="black" points="537.5,-66 705.5,-66 "/>
<text text-anchor="middle" x="621.5" y="-54" font-family="Helvetica,sans-Serif" font-size="10.00"> </text>
<polyline fill="none" stroke="black" points="537.5,-47 705.5,-47 "/>
<text text-anchor="start" x="545.5" y="-35" font-family="Helvetica,sans-Serif" font-size="10.00">+ saveChunk()</text>
<text text-anchor="start" x="545.5" y="-24" font-family="Helvetica,sans-Serif" font-size="10.00">+ generate()</text>
<text text-anchor="start" x="545.5" y="-13" font-family="Helvetica,sans-Serif" font-size="10.00"># serializeChunk()</text>
</a>
</g>
</g>
<!-- Node1&#45;&gt;Node7 -->
<g id="edge6" class="edge">
<title>Node1&#45;&gt;Node7</title>
<path fill="none" stroke="midnightblue" d="M440.41,-198.79C479,-168.68 522.92,-134.41 557.85,-107.16"/>
<polygon fill="none" stroke="midnightblue" points="438,-196.23 432.26,-205.15 442.3,-201.75 438,-196.23"/>
</g>
<!-- Node2 -->
<g id="node2" class="node">
<title>Node2</title>
<g id="a_node2"><a xlink:href="../../d6/dfa/classpocketmine_1_1world_1_1format_1_1io_1_1_base_world_provider.html" target="_top" xlink:title=" ">
<polygon fill="white" stroke="#bfbfbf" points="278.5,-430.5 278.5,-542.5 418.5,-542.5 418.5,-430.5 278.5,-430.5"/>
<text text-anchor="start" x="286.5" y="-530.5" font-family="Helvetica,sans-Serif" font-size="10.00">pocketmine\world\format</text>
<text text-anchor="middle" x="348.5" y="-519.5" font-family="Helvetica,sans-Serif" font-size="10.00">\io\BaseWorldProvider</text>
<polyline fill="none" stroke="#bfbfbf" points="278.5,-512.5 418.5,-512.5 "/>
<text text-anchor="start" x="286.5" y="-500.5" font-family="Helvetica,sans-Serif" font-size="10.00"># $path</text>
<text text-anchor="start" x="286.5" y="-489.5" font-family="Helvetica,sans-Serif" font-size="10.00"># $worldData</text>
<polyline fill="none" stroke="#bfbfbf" points="278.5,-482.5 418.5,-482.5 "/>
<text text-anchor="start" x="286.5" y="-470.5" font-family="Helvetica,sans-Serif" font-size="10.00">+ __construct()</text>
<text text-anchor="start" x="286.5" y="-459.5" font-family="Helvetica,sans-Serif" font-size="10.00">+ getPath()</text>
<text text-anchor="start" x="286.5" y="-448.5" font-family="Helvetica,sans-Serif" font-size="10.00">+ getWorldData()</text>
<text text-anchor="start" x="286.5" y="-437.5" font-family="Helvetica,sans-Serif" font-size="10.00"># loadLevelData()</text>
</a>
</g>
</g>
<!-- Node2&#45;&gt;Node1 -->
<g id="edge1" class="edge">
<title>Node2&#45;&gt;Node1</title>
<path fill="none" stroke="midnightblue" d="M348.5,-420.19C348.5,-411.65 348.5,-402.7 348.5,-393.6"/>
<polygon fill="none" stroke="midnightblue" points="345,-420.37 348.5,-430.37 352,-420.37 345,-420.37"/>
</g>
<!-- Node3 -->
<g id="node3" class="node">
<title>Node3</title>
<g id="a_node3"><a xlink:href="../../d8/d94/interfacepocketmine_1_1world_1_1format_1_1io_1_1_world_provider.html" target="_top" xlink:title=" ">
<polygon fill="white" stroke="#bfbfbf" points="278.5,-579.5 278.5,-735.5 418.5,-735.5 418.5,-579.5 278.5,-579.5"/>
<text text-anchor="start" x="286.5" y="-723.5" font-family="Helvetica,sans-Serif" font-size="10.00">pocketmine\world\format</text>
<text text-anchor="middle" x="348.5" y="-712.5" font-family="Helvetica,sans-Serif" font-size="10.00">\io\WorldProvider</text>
<polyline fill="none" stroke="#bfbfbf" points="278.5,-705.5 418.5,-705.5 "/>
<text text-anchor="middle" x="348.5" y="-693.5" font-family="Helvetica,sans-Serif" font-size="10.00"> </text>
<polyline fill="none" stroke="#bfbfbf" points="278.5,-686.5 418.5,-686.5 "/>
<text text-anchor="start" x="286.5" y="-674.5" font-family="Helvetica,sans-Serif" font-size="10.00">+ calculateChunkCount()</text>
<text text-anchor="start" x="286.5" y="-663.5" font-family="Helvetica,sans-Serif" font-size="10.00">+ close()</text>
<text text-anchor="start" x="286.5" y="-652.5" font-family="Helvetica,sans-Serif" font-size="10.00">+ doGarbageCollection()</text>
<text text-anchor="start" x="286.5" y="-641.5" font-family="Helvetica,sans-Serif" font-size="10.00">+ getAllChunks()</text>
<text text-anchor="start" x="286.5" y="-630.5" font-family="Helvetica,sans-Serif" font-size="10.00">+ getPath()</text>
<text text-anchor="start" x="286.5" y="-619.5" font-family="Helvetica,sans-Serif" font-size="10.00">+ getWorldData()</text>
<text text-anchor="start" x="286.5" y="-608.5" font-family="Helvetica,sans-Serif" font-size="10.00">+ getWorldMaxY()</text>
<text text-anchor="start" x="286.5" y="-597.5" font-family="Helvetica,sans-Serif" font-size="10.00">+ getWorldMinY()</text>
<text text-anchor="start" x="286.5" y="-586.5" font-family="Helvetica,sans-Serif" font-size="10.00">+ loadChunk()</text>
</a>
</g>
</g>
<!-- Node3&#45;&gt;Node2 -->
<g id="edge2" class="edge">
<title>Node3&#45;&gt;Node2</title>
<path fill="none" stroke="midnightblue" d="M348.5,-569.25C348.5,-560.24 348.5,-551.28 348.5,-542.76"/>
<polygon fill="none" stroke="midnightblue" points="345,-569.42 348.5,-579.42 352,-569.42 345,-569.42"/>
</g>
</g>
</svg>
        <g id="navigator" transform="translate(0 0)" fill="#404254">
                <rect fill="#f2f5e9" fill-opacity="0.5" stroke="#606060" stroke-width=".5" x="0" y="0" width="60" height="60"/>
                <use id="zoomplus" xlink:href="#zoomPlus" x="17" y="9" onmousedown="handleZoom(evt,'in')"/>
                <use id="zoomminus" xlink:href="#zoomMin" x="42" y="9" onmousedown="handleZoom(evt,'out')"/>
                <use id="reset" xlink:href="#resetDef" x="30" y="36" onmousedown="handleReset()"/>
                <g id="arrowUp" xlink:href="#dirArrow" transform="translate(30 24)" onmousedown="handlePan(0,-1)">
                  <use xlink:href="#rim" fill="#404040">
                        <set attributeName="fill" to="#808080" begin="arrowUp.mouseover" end="arrowUp.mouseout"/>
                  </use>
                  <path fill="none" stroke="white" stroke-width="1.5" d="M0,-3.0v7 M-2.5,-0.5L0,-3.0L2.5,-0.5"/>
                </g>
                <g id="arrowRight" xlink:href="#dirArrow" transform="rotate(90) translate(36 -43)" onmousedown="handlePan(1,0)">
                  <use xlink:href="#rim" fill="#404040">
                        <set attributeName="fill" to="#808080" begin="arrowRight.mouseover" end="arrowRight.mouseout"/>
                  </use>
                  <path fill="none" stroke="white" stroke-width="1.5" d="M0,-3.0v7 M-2.5,-0.5L0,-3.0L2.5,-0.5"/>
                </g>
                <g id="arrowDown" xlink:href="#dirArrow" transform="rotate(180) translate(-30 -48)" onmousedown="handlePan(0,1)">
                  <use xlink:href="#rim" fill="#404040">
                        <set attributeName="fill" to="#808080" begin="arrowDown.mouseover" end="arrowDown.mouseout"/>
                  </use>
                  <path fill="none" stroke="white" stroke-width="1.5" d="M0,-3.0v7 M-2.5,-0.5L0,-3.0L2.5,-0.5"/>
                </g>
                <g id="arrowLeft" xlink:href="#dirArrow" transform="rotate(270) translate(-36 17)" onmousedown="handlePan(-1,0)">
                  <use xlink:href="#rim" fill="#404040">
                        <set attributeName="fill" to="#808080" begin="arrowLeft.mouseover" end="arrowLeft.mouseout"/>
                  </use>
                  <path fill="none" stroke="white" stroke-width="1.5" d="M0,-3.0v7 M-2.5,-0.5L0,-3.0L2.5,-0.5"/>
                </g>
        </g>
        <svg viewBox="0 0 15 15" width="100%" height="30px" preserveAspectRatio="xMaxYMin meet">
         <g id="arrow_out" transform="scale(0.3 0.3)">
          <a xlink:href="classpocketmine_1_1world_1_1format_1_1io_1_1region_1_1_region_world_provider__inherit__graph_org.svg" target="_base">
           <rect id="button" ry="5" rx="5" y="6" x="6" height="38" width="38"
                fill="#f2f5e9" fill-opacity="0.5" stroke="#606060" stroke-width="1.0"/>
           <path id="arrow"
             d="M 11.500037,31.436501 C 11.940474,20.09759 22.043105,11.32322 32.158766,21.979434 L 37.068811,17.246167 C 37.068811,17.246167 37.088388,32 37.088388,32 L 22.160133,31.978069 C 22.160133,31.978069 26.997745,27.140456 26.997745,27.140456 C 18.528582,18.264221 13.291696,25.230495 11.500037,31.436501 z"
             style="fill:#404040;"/>
          </a>
         </g>
        </svg>
</svg>
