<?xml version="1.0" encoding="UTF-8" standalone="no"?>
<!DOCTYPE svg PUBLIC "-//W3C//DTD SVG 1.1//EN"
 "http://www.w3.org/Graphics/SVG/1.1/DTD/svg11.dtd">
<!-- Generated by graphviz version 2.43.0 (0)
 -->
<!-- Title: pocketmine\world\format\io\leveldb\LevelDB Pages: 1 -->
<!--zoomable 900 -->

<svg id="main" version="1.1" xmlns="http://www.w3.org/2000/svg" xmlns:xlink="http://www.w3.org/1999/xlink" xml:space="preserve" onload="init(evt)">

<style type="text/css"><![CDATA[
.node, .edge {opacity: 0.7;}
.node.selected, .edge.selected {opacity: 1;}
.edge:hover path { stroke: red; }
.edge:hover polygon { stroke: red; fill: red; }
]]></style>

<defs>
  <circle id="rim" cx="0" cy="0" r="7"/>
  <circle id="rim2" cx="0" cy="0" r="3.5"/>
  <g id="zoomPlus">
    <use xlink:href="#rim" fill="#404040"><set attributeName="fill" to="#808080" begin="zoomplus.mouseover" end="zoomplus.mouseout"/></use>
    <path d="M-4,0h8M0,-4v8" fill="none" stroke="white" stroke-width="1.5" pointer-events="none"/>
  </g>
  <g id="zoomMin">
    <use xlink:href="#rim" fill="#404040"><set attributeName="fill" to="#808080" begin="zoomminus.mouseover" end="zoomminus.mouseout"/></use>
    <path d="M-4,0h8" fill="none" stroke="white" stroke-width="1.5" pointer-events="none"/>
  </g>
  <g id="arrowUp" transform="translate(30 24)">
    <use xlink:href="#rim"/>
    <path pointer-events="none" fill="none" stroke="white" stroke-width="1.5" d="M0,-3.0v7 M-2.5,-0.5L0,-3.0L2.5,-0.5"/>
  </g>
  <g id="arrowRight" transform="rotate(90) translate(36 -43)">
    <use xlink:href="#rim"/>
    <path pointer-events="none" fill="none" stroke="white" stroke-width="1.5" d="M0,-3.0v7 M-2.5,-0.5L0,-3.0L2.5,-0.5"/>
  </g>
  <g id="arrowDown" transform="rotate(180) translate(-30 -48)">
    <use xlink:href="#rim"/>
    <path pointer-events="none" fill="none" stroke="white" stroke-width="1.5" d="M0,-3.0v7 M-2.5,-0.5L0,-3.0L2.5,-0.5"/>
  </g>
  <g id="arrowLeft" transform="rotate(270) translate(-36 17)">
    <use xlink:href="#rim"/>
    <path pointer-events="none" fill="none" stroke="white" stroke-width="1.5" d="M0,-3.0v7 M-2.5,-0.5L0,-3.0L2.5,-0.5"/>
  </g>
  <g id="resetDef">
    <use xlink:href="#rim2" fill="#404040"><set attributeName="fill" to="#808080" begin="reset.mouseover" end="reset.mouseout"/></use>
  </g>
</defs>
<script type="application/ecmascript">
var viewWidth = 336;
var viewHeight = 900;
var sectionId = 'dynsection-0';
</script>
<script type="application/ecmascript" xlink:href="../../svg.min.js"/>
<svg id="graph" class="graph">
<g id="viewport">
<title>pocketmine\world\format\io\leveldb\LevelDB</title>
<!-- Node1 -->
<g id="Node000001" class="node">
<title>Node1</title>
<g id="a_Node000001"><a xlink:title=" ">
<polygon fill="#999999" stroke="transparent" points="256.5,-434 90.5,-434 90.5,0 256.5,0 256.5,-434"/>
<text text-anchor="start" x="111.5" y="-422" font-family="Helvetica,sans-Serif" font-size="10.00">pocketmine\world\format</text>
<text text-anchor="start" x="126" y="-411" font-family="Helvetica,sans-Serif" font-size="10.00">\io\leveldb\LevelDB</text>
<text text-anchor="start" x="94.5" y="-396" font-family="Helvetica,sans-Serif" font-size="10.00">#</text>
<text text-anchor="start" x="107.5" y="-396" font-family="Helvetica,sans-Serif" font-size="10.00">$db</text>
<text text-anchor="start" x="94.5" y="-381" font-family="Helvetica,sans-Serif" font-size="10.00">#</text>
<text text-anchor="start" x="107.5" y="-381" font-family="Helvetica,sans-Serif" font-size="10.00">CURRENT_LEVEL_CHUNK</text>
<text text-anchor="start" x="107.5" y="-370" font-family="Helvetica,sans-Serif" font-size="10.00">_VERSION</text>
<text text-anchor="start" x="94.5" y="-355" font-family="Helvetica,sans-Serif" font-size="10.00">#</text>
<text text-anchor="start" x="107.5" y="-355" font-family="Helvetica,sans-Serif" font-size="10.00">CURRENT_LEVEL_SUBCHUNK</text>
<text text-anchor="start" x="107.5" y="-344" font-family="Helvetica,sans-Serif" font-size="10.00">_VERSION</text>
<text text-anchor="start" x="94.5" y="-329" font-family="Helvetica,sans-Serif" font-size="10.00">#</text>
<text text-anchor="start" x="107.5" y="-329" font-family="Helvetica,sans-Serif" font-size="10.00">ENTRY_FLAT_WORLD_LAYERS</text>
<text text-anchor="start" x="94.5" y="-314" font-family="Helvetica,sans-Serif" font-size="10.00">#</text>
<text text-anchor="start" x="107.5" y="-314" font-family="Helvetica,sans-Serif" font-size="10.00">FINALISATION_DONE</text>
<text text-anchor="start" x="94.5" y="-299" font-family="Helvetica,sans-Serif" font-size="10.00">#</text>
<text text-anchor="start" x="107.5" y="-299" font-family="Helvetica,sans-Serif" font-size="10.00">FINALISATION_NEEDS</text>
<text text-anchor="start" x="107.5" y="-288" font-family="Helvetica,sans-Serif" font-size="10.00">_INSTATICKING</text>
<text text-anchor="start" x="94.5" y="-273" font-family="Helvetica,sans-Serif" font-size="10.00">#</text>
<text text-anchor="start" x="107.5" y="-273" font-family="Helvetica,sans-Serif" font-size="10.00">FINALISATION_NEEDS</text>
<text text-anchor="start" x="107.5" y="-262" font-family="Helvetica,sans-Serif" font-size="10.00">_POPULATION</text>
<text text-anchor="start" x="94.5" y="-247" font-family="Helvetica,sans-Serif" font-size="10.00">+</text>
<text text-anchor="start" x="107.5" y="-247" font-family="Helvetica,sans-Serif" font-size="10.00">__construct()</text>
<text text-anchor="start" x="94.5" y="-232" font-family="Helvetica,sans-Serif" font-size="10.00">+</text>
<text text-anchor="start" x="107.5" y="-232" font-family="Helvetica,sans-Serif" font-size="10.00">calculateChunkCount()</text>
<text text-anchor="start" x="94.5" y="-217" font-family="Helvetica,sans-Serif" font-size="10.00">+</text>
<text text-anchor="start" x="107.5" y="-217" font-family="Helvetica,sans-Serif" font-size="10.00">close()</text>
<text text-anchor="start" x="94.5" y="-202" font-family="Helvetica,sans-Serif" font-size="10.00">+</text>
<text text-anchor="start" x="107.5" y="-202" font-family="Helvetica,sans-Serif" font-size="10.00">doGarbageCollection()</text>
<text text-anchor="start" x="94.5" y="-187" font-family="Helvetica,sans-Serif" font-size="10.00">+</text>
<text text-anchor="start" x="107.5" y="-187" font-family="Helvetica,sans-Serif" font-size="10.00">getAllChunks()</text>
<text text-anchor="start" x="94.5" y="-172" font-family="Helvetica,sans-Serif" font-size="10.00">+</text>
<text text-anchor="start" x="107.5" y="-172" font-family="Helvetica,sans-Serif" font-size="10.00">getDatabase()</text>
<text text-anchor="start" x="94.5" y="-157" font-family="Helvetica,sans-Serif" font-size="10.00">+</text>
<text text-anchor="start" x="107.5" y="-157" font-family="Helvetica,sans-Serif" font-size="10.00">getWorldMaxY()</text>
<text text-anchor="start" x="94.5" y="-142" font-family="Helvetica,sans-Serif" font-size="10.00">+</text>
<text text-anchor="start" x="107.5" y="-142" font-family="Helvetica,sans-Serif" font-size="10.00">getWorldMinY()</text>
<text text-anchor="start" x="94.5" y="-127" font-family="Helvetica,sans-Serif" font-size="10.00">+</text>
<text text-anchor="start" x="107.5" y="-127" font-family="Helvetica,sans-Serif" font-size="10.00">loadChunk()</text>
<text text-anchor="start" x="94.5" y="-112" font-family="Helvetica,sans-Serif" font-size="10.00">+</text>
<text text-anchor="start" x="107.5" y="-112" font-family="Helvetica,sans-Serif" font-size="10.00">saveChunk()</text>
<text text-anchor="start" x="94.5" y="-97" font-family="Helvetica,sans-Serif" font-size="10.00">+</text>
<text text-anchor="start" x="107.5" y="-97" font-family="Helvetica,sans-Serif" font-size="10.00">chunkIndex()</text>
<text text-anchor="start" x="94.5" y="-82" font-family="Helvetica,sans-Serif" font-size="10.00">+</text>
<text text-anchor="start" x="107.5" y="-82" font-family="Helvetica,sans-Serif" font-size="10.00">generate()</text>
<text text-anchor="start" x="94.5" y="-67" font-family="Helvetica,sans-Serif" font-size="10.00">+</text>
<text text-anchor="start" x="107.5" y="-67" font-family="Helvetica,sans-Serif" font-size="10.00">isValid()</text>
<text text-anchor="start" x="94.5" y="-52" font-family="Helvetica,sans-Serif" font-size="10.00">#</text>
<text text-anchor="start" x="107.5" y="-52" font-family="Helvetica,sans-Serif" font-size="10.00">deserializeBlockPalette()</text>
<text text-anchor="start" x="94.5" y="-37" font-family="Helvetica,sans-Serif" font-size="10.00">#</text>
<text text-anchor="start" x="107.5" y="-37" font-family="Helvetica,sans-Serif" font-size="10.00">deserializeLegacyExtraData()</text>
<text text-anchor="start" x="94.5" y="-22" font-family="Helvetica,sans-Serif" font-size="10.00">#</text>
<text text-anchor="start" x="107.5" y="-22" font-family="Helvetica,sans-Serif" font-size="10.00">loadLevelData()</text>
<text text-anchor="start" x="94.5" y="-7" font-family="Helvetica,sans-Serif" font-size="10.00">#</text>
<text text-anchor="start" x="107.5" y="-7" font-family="Helvetica,sans-Serif" font-size="10.00">deserializeExtraDataKey()</text>
<polygon fill="#666666" stroke="#666666" points="90.5,-406 90.5,-406 256.5,-406 256.5,-406 90.5,-406"/>
<polygon fill="#666666" stroke="#666666" points="90.5,-257 90.5,-257 105.5,-257 105.5,-257 90.5,-257"/>
<polygon fill="#666666" stroke="#666666" points="105.5,-257 105.5,-257 256.5,-257 256.5,-257 105.5,-257"/>
<polygon fill="none" stroke="#666666" points="90.5,0 90.5,-434 256.5,-434 256.5,0 90.5,0"/>
</a>
</g>
</g>
<!-- Node2 -->
<g id="Node000002" class="node">
<title>Node2</title>
<g id="a_Node000002"><a xlink:href="../../d6/dfa/classpocketmine_1_1world_1_1format_1_1io_1_1_base_world_provider.html" target="_top" xlink:title=" ">
<polygon fill="white" stroke="transparent" points="175,-676 0,-676 0,-470 175,-470 175,-676"/>
<text text-anchor="start" x="26" y="-664" font-family="Helvetica,sans-Serif" font-size="10.00">pocketmine\world\format</text>
<text text-anchor="start" x="34" y="-653" font-family="Helvetica,sans-Serif" font-size="10.00">\io\BaseWorldProvider</text>
<text text-anchor="start" x="4.5" y="-638" font-family="Helvetica,sans-Serif" font-size="10.00">#</text>
<text text-anchor="start" x="17.5" y="-638" font-family="Helvetica,sans-Serif" font-size="10.00">$blockDataUpgrader</text>
<text text-anchor="start" x="4.5" y="-623" font-family="Helvetica,sans-Serif" font-size="10.00">#</text>
<text text-anchor="start" x="17.5" y="-623" font-family="Helvetica,sans-Serif" font-size="10.00">$blockStateDeserializer</text>
<text text-anchor="start" x="4.5" y="-608" font-family="Helvetica,sans-Serif" font-size="10.00">#</text>
<text text-anchor="start" x="17.5" y="-608" font-family="Helvetica,sans-Serif" font-size="10.00">$blockStateSerializer</text>
<text text-anchor="start" x="4.5" y="-593" font-family="Helvetica,sans-Serif" font-size="10.00">#</text>
<text text-anchor="start" x="17.5" y="-593" font-family="Helvetica,sans-Serif" font-size="10.00">$worldData</text>
<text text-anchor="start" x="4.5" y="-578" font-family="Helvetica,sans-Serif" font-size="10.00">+</text>
<text text-anchor="start" x="17.5" y="-578" font-family="Helvetica,sans-Serif" font-size="10.00">__construct()</text>
<text text-anchor="start" x="4.5" y="-563" font-family="Helvetica,sans-Serif" font-size="10.00">+</text>
<text text-anchor="start" x="17.5" y="-563" font-family="Helvetica,sans-Serif" font-size="10.00">getPath()</text>
<text text-anchor="start" x="4.5" y="-548" font-family="Helvetica,sans-Serif" font-size="10.00">+</text>
<text text-anchor="start" x="17.5" y="-548" font-family="Helvetica,sans-Serif" font-size="10.00">getWorldData()</text>
<text text-anchor="start" x="4.5" y="-533" font-family="Helvetica,sans-Serif" font-size="10.00">#</text>
<text text-anchor="start" x="17.5" y="-533" font-family="Helvetica,sans-Serif" font-size="10.00">loadLevelData()</text>
<text text-anchor="start" x="4.5" y="-518" font-family="Helvetica,sans-Serif" font-size="10.00">#</text>
<text text-anchor="start" x="17.5" y="-518" font-family="Helvetica,sans-Serif" font-size="10.00">palettizeLegacySubChunkFrom</text>
<text text-anchor="start" x="17.5" y="-507" font-family="Helvetica,sans-Serif" font-size="10.00">Column()</text>
<text text-anchor="start" x="4.5" y="-492" font-family="Helvetica,sans-Serif" font-size="10.00">#</text>
<text text-anchor="start" x="17.5" y="-492" font-family="Helvetica,sans-Serif" font-size="10.00">palettizeLegacySubChunkXZY()</text>
<text text-anchor="start" x="4.5" y="-477" font-family="Helvetica,sans-Serif" font-size="10.00">#</text>
<text text-anchor="start" x="17.5" y="-477" font-family="Helvetica,sans-Serif" font-size="10.00">palettizeLegacySubChunkYZX()</text>
<polygon fill="#bfbfbf" stroke="#bfbfbf" points="0.5,-648 0.5,-648 175.5,-648 175.5,-648 0.5,-648"/>
<polygon fill="#bfbfbf" stroke="#bfbfbf" points="0.5,-588 0.5,-588 15.5,-588 15.5,-588 0.5,-588"/>
<polygon fill="#bfbfbf" stroke="#bfbfbf" points="15.5,-588 15.5,-588 175.5,-588 175.5,-588 15.5,-588"/>
<polygon fill="none" stroke="#bfbfbf" points="0,-470 0,-676 175,-676 175,-470 0,-470"/>
</a>
</g>
</g>
<!-- Node2&#45;&gt;Node1 -->
<g id="edge1_Node000001_Node000002" class="edge">
<title>Node2&#45;&gt;Node1</title>
<g id="a_edge1_Node000001_Node000002"><a xlink:title=" ">
<path fill="none" stroke="#63b8ff" d="M114.75,-459.84C116.79,-451.43 118.89,-442.8 121.02,-434.03"/>
<polygon fill="none" stroke="#63b8ff" points="111.33,-459.06 112.37,-469.61 118.14,-460.72 111.33,-459.06"/>
</a>
</g>
</g>
<!-- Node3 -->
<g id="Node000003" class="node">
<title>Node3</title>
<g id="a_Node000003"><a xlink:href="../../d8/d94/interfacepocketmine_1_1world_1_1format_1_1io_1_1_world_provider.html" target="_top" xlink:title=" ">
<polygon fill="white" stroke="transparent" points="240.5,-892 106.5,-892 106.5,-712 240.5,-712 240.5,-892"/>
<text text-anchor="start" x="111.5" y="-880" font-family="Helvetica,sans-Serif" font-size="10.00">pocketmine\world\format</text>
<text text-anchor="start" x="131.5" y="-869" font-family="Helvetica,sans-Serif" font-size="10.00">\io\WorldProvider</text>
<text text-anchor="start" x="171.5" y="-854" font-family="Helvetica,sans-Serif" font-size="10.00"> </text>
<text text-anchor="start" x="110.5" y="-839" font-family="Helvetica,sans-Serif" font-size="10.00">+</text>
<text text-anchor="start" x="123.5" y="-839" font-family="Helvetica,sans-Serif" font-size="10.00">calculateChunkCount()</text>
<text text-anchor="start" x="110.5" y="-824" font-family="Helvetica,sans-Serif" font-size="10.00">+</text>
<text text-anchor="start" x="123.5" y="-824" font-family="Helvetica,sans-Serif" font-size="10.00">close()</text>
<text text-anchor="start" x="110.5" y="-809" font-family="Helvetica,sans-Serif" font-size="10.00">+</text>
<text text-anchor="start" x="123.5" y="-809" font-family="Helvetica,sans-Serif" font-size="10.00">doGarbageCollection()</text>
<text text-anchor="start" x="110.5" y="-794" font-family="Helvetica,sans-Serif" font-size="10.00">+</text>
<text text-anchor="start" x="123.5" y="-794" font-family="Helvetica,sans-Serif" font-size="10.00">getAllChunks()</text>
<text text-anchor="start" x="110.5" y="-779" font-family="Helvetica,sans-Serif" font-size="10.00">+</text>
<text text-anchor="start" x="123.5" y="-779" font-family="Helvetica,sans-Serif" font-size="10.00">getPath()</text>
<text text-anchor="start" x="110.5" y="-764" font-family="Helvetica,sans-Serif" font-size="10.00">+</text>
<text text-anchor="start" x="123.5" y="-764" font-family="Helvetica,sans-Serif" font-size="10.00">getWorldData()</text>
<text text-anchor="start" x="110.5" y="-749" font-family="Helvetica,sans-Serif" font-size="10.00">+</text>
<text text-anchor="start" x="123.5" y="-749" font-family="Helvetica,sans-Serif" font-size="10.00">getWorldMaxY()</text>
<text text-anchor="start" x="110.5" y="-734" font-family="Helvetica,sans-Serif" font-size="10.00">+</text>
<text text-anchor="start" x="123.5" y="-734" font-family="Helvetica,sans-Serif" font-size="10.00">getWorldMinY()</text>
<text text-anchor="start" x="110.5" y="-719" font-family="Helvetica,sans-Serif" font-size="10.00">+</text>
<text text-anchor="start" x="123.5" y="-719" font-family="Helvetica,sans-Serif" font-size="10.00">loadChunk()</text>
<polygon fill="#bfbfbf" stroke="#bfbfbf" points="106.5,-864 106.5,-864 240.5,-864 240.5,-864 106.5,-864"/>
<polygon fill="#bfbfbf" stroke="#bfbfbf" points="106.5,-849 106.5,-849 240.5,-849 240.5,-849 106.5,-849"/>
<polygon fill="none" stroke="#bfbfbf" points="106.5,-712 106.5,-892 240.5,-892 240.5,-712 106.5,-712"/>
</a>
</g>
</g>
<!-- Node3&#45;&gt;Node2 -->
<g id="edge2_Node000002_Node000003" class="edge">
<title>Node3&#45;&gt;Node2</title>
<g id="a_edge2_Node000002_Node000003"><a xlink:title=" ">
<path fill="none" stroke="#63b8ff" d="M136.21,-702.56C132.92,-693.88 129.58,-685.07 126.28,-676.35"/>
<polygon fill="none" stroke="#63b8ff" points="132.94,-703.82 139.76,-711.94 139.49,-701.34 132.94,-703.82"/>
</a>
</g>
</g>
<!-- Node4 -->
<g id="Node000004" class="node">
<title>Node4</title>
<g id="a_Node000004"><a xlink:href="../../d1/d1b/interfacepocketmine_1_1world_1_1format_1_1io_1_1_writable_world_provider.html" target="_top" xlink:title=" ">
<polygon fill="white" stroke="transparent" points="328,-603 193,-603 193,-543 328,-543 328,-603"/>
<text text-anchor="start" x="198.5" y="-591" font-family="Helvetica,sans-Serif" font-size="10.00">pocketmine\world\format</text>
<text text-anchor="start" x="198.5" y="-580" font-family="Helvetica,sans-Serif" font-size="10.00">\io\WritableWorldProvider</text>
<text text-anchor="start" x="259" y="-565" font-family="Helvetica,sans-Serif" font-size="10.00"> </text>
<text text-anchor="start" x="210.5" y="-550" font-family="Helvetica,sans-Serif" font-size="10.00">+</text>
<text text-anchor="start" x="236.5" y="-550" font-family="Helvetica,sans-Serif" font-size="10.00">saveChunk()</text>
<polygon fill="#bfbfbf" stroke="#bfbfbf" points="193.5,-575 193.5,-575 328.5,-575 328.5,-575 193.5,-575"/>
<polygon fill="#bfbfbf" stroke="#bfbfbf" points="193.5,-560 193.5,-560 328.5,-560 328.5,-560 193.5,-560"/>
<polygon fill="none" stroke="#bfbfbf" points="193,-543 193,-603 328,-603 328,-543 193,-543"/>
</a>
</g>
</g>
<!-- Node3&#45;&gt;Node4 -->
<g id="edge4_Node000004_Node000003" class="edge">
<title>Node3&#45;&gt;Node4</title>
<g id="a_edge4_Node000004_Node000003"><a xlink:title=" ">
<path fill="none" stroke="#63b8ff" d="M211.31,-702.36C225.08,-666.42 239.63,-628.46 249.3,-603.22"/>
<polygon fill="none" stroke="#63b8ff" points="207.95,-701.34 207.64,-711.94 214.48,-703.85 207.95,-701.34"/>
</a>
</g>
</g>
<!-- Node4&#45;&gt;Node1 -->
<g id="edge3_Node000001_Node000004" class="edge">
<title>Node4&#45;&gt;Node1</title>
<g id="a_edge3_Node000001_Node000004"><a xlink:title=" ">
<path fill="none" stroke="#63b8ff" d="M250.87,-532.8C244.61,-507.34 235.91,-471.94 226.59,-434.02"/>
<polygon fill="none" stroke="#63b8ff" points="247.52,-533.85 253.31,-542.73 254.32,-532.18 247.52,-533.85"/>
</a>
</g>
</g>
</g>
</svg>

<g id="navigator" transform="translate(0 0)" fill="#404254">
  <rect fill="#f2f5e9" fill-opacity="0.5" stroke="#606060" stroke-width=".5" x="0" y="0" width="60" height="60"/>
  <use id="zoomplus" xlink:href="#zoomPlus" x="17" y="9" onmousedown="handleZoom(evt,'in')"/>
  <use id="zoomminus" xlink:href="#zoomMin" x="42" y="9" onmousedown="handleZoom(evt,'out')"/>
  <use id="reset" xlink:href="#resetDef" x="30" y="36" onmousedown="handleReset()"/>
   <use id="arrowup" xlink:href="#arrowUp" x="0" y="0" onmousedown="handlePan(0,-1)"/>
  <use id="arrowright" xlink:href="#arrowRight" x="0" y="0" onmousedown="handlePan(1,0)"/>
  <use id="arrowdown" xlink:href="#arrowDown" x="0" y="0" onmousedown="handlePan(0,1)"/>
  <use id="arrowleft" xlink:href="#arrowLeft" x="0" y="0" onmousedown="handlePan(-1,0)"/>
</g>
<svg viewBox="0 0 15 15" width="100%" height="30px" preserveAspectRatio="xMaxYMin meet">
 <g id="arrow_out" transform="scale(0.3 0.3)">
  <a xlink:href="classpocketmine_1_1world_1_1format_1_1io_1_1leveldb_1_1_level_d_b__inherit__graph_org.svg" target="_base">
   <rect id="button" ry="5" rx="5" y="6" x="6" height="38" width="38"
        fill="#f2f5e9" fill-opacity="0.5" stroke="#606060" stroke-width="1.0"/>
   <path id="arrow"
     d="M 11.500037,31.436501 C 11.940474,20.09759 22.043105,11.32322 32.158766,21.979434 L 37.068811,17.246167 C 37.068811,17.246167 37.088388,32 37.088388,32 L 22.160133,31.978069 C 22.160133,31.978069 26.997745,27.140456 26.997745,27.140456 C 18.528582,18.264221 13.291696,25.230495 11.500037,31.436501 z"
     style="fill:#404040;"/>
  </a>
 </g>
</svg>

<style type='text/css'>
<![CDATA[
[data-mouse-over-selected='false'] { opacity: 0.7; }
[data-mouse-over-selected='true']  { opacity: 1.0; }
]]>
</style>
<script type="application/ecmascript"><![CDATA[
document.addEventListener('DOMContentLoaded', (event) => {
  highlightEdges();
  highlightAdjacentNodes();
});
]]></script>
</svg>
