<?xml version="1.0" encoding="UTF-8" standalone="no"?>
<!DOCTYPE svg PUBLIC "-//W3C//DTD SVG 1.1//EN"
 "http://www.w3.org/Graphics/SVG/1.1/DTD/svg11.dtd">
<!-- Generated by graphviz version 2.43.0 (0)
 -->
<!-- Title: pocketmine\world\format\io\region\WritableRegionWorldProvider Pages: 1 -->
<svg width="322pt" height="903pt"
 viewBox="0.00 0.00 322.00 903.00" xmlns="http://www.w3.org/2000/svg" xmlns:xlink="http://www.w3.org/1999/xlink">
<g id="graph0" class="graph" transform="scale(1 1) rotate(0) translate(4 899)">
<title>pocketmine\world\format\io\region\WritableRegionWorldProvider</title>
<!-- Node1 -->
<g id="Node000001" class="node">
<title>Node1</title>
<g id="a_Node000001"><a xlink:title=" ">
<polygon fill="#999999" stroke="transparent" points="244.5,-101 82.5,-101 82.5,0 244.5,0 244.5,-101"/>
<text text-anchor="start" x="87.5" y="-88.5" font-family="Helvetica,sans-Serif" font-size="10.00">pocketmine\world\format</text>
<text text-anchor="start" x="87.5" y="-77.5" font-family="Helvetica,sans-Serif" font-size="10.00">\io\region\WritableRegionWorld</text>
<text text-anchor="start" x="143" y="-66.5" font-family="Helvetica,sans-Serif" font-size="10.00">Provider</text>
<text text-anchor="start" x="161.5" y="-51.5" font-family="Helvetica,sans-Serif" font-size="10.00"> </text>
<text text-anchor="start" x="101.5" y="-36.5" font-family="Helvetica,sans-Serif" font-size="10.00">+</text>
<text text-anchor="start" x="129.5" y="-36.5" font-family="Helvetica,sans-Serif" font-size="10.00">saveChunk()</text>
<text text-anchor="start" x="101.5" y="-21.5" font-family="Helvetica,sans-Serif" font-size="10.00">+</text>
<text text-anchor="start" x="129.5" y="-21.5" font-family="Helvetica,sans-Serif" font-size="10.00">generate()</text>
<text text-anchor="start" x="101.5" y="-6.5" font-family="Helvetica,sans-Serif" font-size="10.00">#</text>
<text text-anchor="start" x="129.5" y="-6.5" font-family="Helvetica,sans-Serif" font-size="10.00">serializeChunk()</text>
<polygon fill="#666666" stroke="#666666" points="82.5,-61.5 82.5,-61.5 244.5,-61.5 244.5,-61.5 82.5,-61.5"/>
<polygon fill="#666666" stroke="#666666" points="82.5,-46.5 82.5,-46.5 244.5,-46.5 244.5,-46.5 82.5,-46.5"/>
<polygon fill="none" stroke="#666666" points="82.5,0 82.5,-101 244.5,-101 244.5,0 82.5,0"/>
</a>
</g>
</g>
<!-- Node2 -->
<g id="Node000002" class="node">
<title>Node2</title>
<g id="a_Node000002"><a xlink:href="../../d6/d16/classpocketmine_1_1world_1_1format_1_1io_1_1region_1_1_region_world_provider.html" target="_top" xlink:title=" ">
<polygon fill="white" stroke="transparent" points="161,-437 0,-437 0,-137 161,-137 161,-437"/>
<text text-anchor="start" x="5.5" y="-425" font-family="Helvetica,sans-Serif" font-size="10.00">pocketmine\world\format</text>
<text text-anchor="start" x="5.5" y="-414" font-family="Helvetica,sans-Serif" font-size="10.00">\io\region\RegionWorldProvider</text>
<text text-anchor="start" x="6" y="-399" font-family="Helvetica,sans-Serif" font-size="10.00">#</text>
<text text-anchor="start" x="20.5" y="-399" font-family="Helvetica,sans-Serif" font-size="10.00">$regions</text>
<text text-anchor="start" x="6" y="-384" font-family="Helvetica,sans-Serif" font-size="10.00">+</text>
<text text-anchor="start" x="20.5" y="-384" font-family="Helvetica,sans-Serif" font-size="10.00">calculateChunkCount()</text>
<text text-anchor="start" x="6" y="-369" font-family="Helvetica,sans-Serif" font-size="10.00">+</text>
<text text-anchor="start" x="20.5" y="-369" font-family="Helvetica,sans-Serif" font-size="10.00">close()</text>
<text text-anchor="start" x="6" y="-354" font-family="Helvetica,sans-Serif" font-size="10.00">+</text>
<text text-anchor="start" x="20.5" y="-354" font-family="Helvetica,sans-Serif" font-size="10.00">doGarbageCollection()</text>
<text text-anchor="start" x="6" y="-339" font-family="Helvetica,sans-Serif" font-size="10.00">+</text>
<text text-anchor="start" x="20.5" y="-339" font-family="Helvetica,sans-Serif" font-size="10.00">getAllChunks()</text>
<text text-anchor="start" x="6" y="-324" font-family="Helvetica,sans-Serif" font-size="10.00">+</text>
<text text-anchor="start" x="20.5" y="-324" font-family="Helvetica,sans-Serif" font-size="10.00">loadChunk()</text>
<text text-anchor="start" x="6" y="-309" font-family="Helvetica,sans-Serif" font-size="10.00">+</text>
<text text-anchor="start" x="20.5" y="-309" font-family="Helvetica,sans-Serif" font-size="10.00">getRegionIndex()</text>
<text text-anchor="start" x="6" y="-294" font-family="Helvetica,sans-Serif" font-size="10.00">+</text>
<text text-anchor="start" x="20.5" y="-294" font-family="Helvetica,sans-Serif" font-size="10.00">isValid()</text>
<text text-anchor="start" x="6" y="-279" font-family="Helvetica,sans-Serif" font-size="10.00">#</text>
<text text-anchor="start" x="20.5" y="-279" font-family="Helvetica,sans-Serif" font-size="10.00">deserializeChunk()</text>
<text text-anchor="start" x="6" y="-264" font-family="Helvetica,sans-Serif" font-size="10.00">#</text>
<text text-anchor="start" x="20.5" y="-264" font-family="Helvetica,sans-Serif" font-size="10.00">getRegion()</text>
<text text-anchor="start" x="6" y="-249" font-family="Helvetica,sans-Serif" font-size="10.00">#</text>
<text text-anchor="start" x="20.5" y="-249" font-family="Helvetica,sans-Serif" font-size="10.00">loadLevelData()</text>
<text text-anchor="start" x="6" y="-234" font-family="Helvetica,sans-Serif" font-size="10.00">#</text>
<text text-anchor="start" x="20.5" y="-234" font-family="Helvetica,sans-Serif" font-size="10.00">loadRegion()</text>
<text text-anchor="start" x="6" y="-219" font-family="Helvetica,sans-Serif" font-size="10.00">#</text>
<text text-anchor="start" x="20.5" y="-219" font-family="Helvetica,sans-Serif" font-size="10.00">pathToRegion()</text>
<text text-anchor="start" x="6" y="-204" font-family="Helvetica,sans-Serif" font-size="10.00">#</text>
<text text-anchor="start" x="20.5" y="-204" font-family="Helvetica,sans-Serif" font-size="10.00">unloadRegion()</text>
<text text-anchor="start" x="6" y="-189" font-family="Helvetica,sans-Serif" font-size="10.00">#</text>
<text text-anchor="start" x="20.5" y="-189" font-family="Helvetica,sans-Serif" font-size="10.00">getCompoundList()</text>
<text text-anchor="start" x="6" y="-174" font-family="Helvetica,sans-Serif" font-size="10.00">#</text>
<text text-anchor="start" x="20.5" y="-174" font-family="Helvetica,sans-Serif" font-size="10.00">getPcWorldFormatVersion()</text>
<text text-anchor="start" x="6" y="-159" font-family="Helvetica,sans-Serif" font-size="10.00">#</text>
<text text-anchor="start" x="20.5" y="-159" font-family="Helvetica,sans-Serif" font-size="10.00">getRegionFileExtension()</text>
<text text-anchor="start" x="6" y="-144" font-family="Helvetica,sans-Serif" font-size="10.00">#</text>
<text text-anchor="start" x="20.5" y="-144" font-family="Helvetica,sans-Serif" font-size="10.00">readFixedSizeByteArray()</text>
<polygon fill="#bfbfbf" stroke="#bfbfbf" points="0.5,-409 0.5,-409 161.5,-409 161.5,-409 0.5,-409"/>
<polygon fill="#bfbfbf" stroke="#bfbfbf" points="0.5,-394 0.5,-394 18.5,-394 18.5,-394 0.5,-394"/>
<polygon fill="#bfbfbf" stroke="#bfbfbf" points="18.5,-394 18.5,-394 161.5,-394 161.5,-394 18.5,-394"/>
<polygon fill="none" stroke="#bfbfbf" points="0,-137 0,-437 161,-437 161,-137 0,-137"/>
</a>
</g>
</g>
<!-- Node2&#45;&gt;Node1 -->
<g id="edge1_Node000001_Node000002" class="edge">
<title>Node2&#45;&gt;Node1</title>
<g id="a_edge1_Node000001_Node000002"><a xlink:title=" ">
<path fill="none" stroke="#63b8ff" d="M136.72,-127.16C139.96,-118.01 143.06,-109.25 145.93,-101.15"/>
<polygon fill="none" stroke="#63b8ff" points="133.34,-126.23 133.3,-136.82 139.94,-128.56 133.34,-126.23"/>
</a>
</g>
</g>
<!-- Node3 -->
<g id="Node000003" class="node">
<title>Node3</title>
<g id="a_Node000003"><a xlink:href="../../d6/dfa/classpocketmine_1_1world_1_1format_1_1io_1_1_base_world_provider.html" target="_top" xlink:title=" ">
<polygon fill="white" stroke="transparent" points="193,-679 18,-679 18,-473 193,-473 193,-679"/>
<text text-anchor="start" x="44" y="-667" font-family="Helvetica,sans-Serif" font-size="10.00">pocketmine\world\format</text>
<text text-anchor="start" x="52" y="-656" font-family="Helvetica,sans-Serif" font-size="10.00">\io\BaseWorldProvider</text>
<text text-anchor="start" x="22.5" y="-641" font-family="Helvetica,sans-Serif" font-size="10.00">#</text>
<text text-anchor="start" x="35.5" y="-641" font-family="Helvetica,sans-Serif" font-size="10.00">$blockDataUpgrader</text>
<text text-anchor="start" x="22.5" y="-626" font-family="Helvetica,sans-Serif" font-size="10.00">#</text>
<text text-anchor="start" x="35.5" y="-626" font-family="Helvetica,sans-Serif" font-size="10.00">$blockStateDeserializer</text>
<text text-anchor="start" x="22.5" y="-611" font-family="Helvetica,sans-Serif" font-size="10.00">#</text>
<text text-anchor="start" x="35.5" y="-611" font-family="Helvetica,sans-Serif" font-size="10.00">$blockStateSerializer</text>
<text text-anchor="start" x="22.5" y="-596" font-family="Helvetica,sans-Serif" font-size="10.00">#</text>
<text text-anchor="start" x="35.5" y="-596" font-family="Helvetica,sans-Serif" font-size="10.00">$worldData</text>
<text text-anchor="start" x="22.5" y="-581" font-family="Helvetica,sans-Serif" font-size="10.00">+</text>
<text text-anchor="start" x="35.5" y="-581" font-family="Helvetica,sans-Serif" font-size="10.00">__construct()</text>
<text text-anchor="start" x="22.5" y="-566" font-family="Helvetica,sans-Serif" font-size="10.00">+</text>
<text text-anchor="start" x="35.5" y="-566" font-family="Helvetica,sans-Serif" font-size="10.00">getPath()</text>
<text text-anchor="start" x="22.5" y="-551" font-family="Helvetica,sans-Serif" font-size="10.00">+</text>
<text text-anchor="start" x="35.5" y="-551" font-family="Helvetica,sans-Serif" font-size="10.00">getWorldData()</text>
<text text-anchor="start" x="22.5" y="-536" font-family="Helvetica,sans-Serif" font-size="10.00">#</text>
<text text-anchor="start" x="35.5" y="-536" font-family="Helvetica,sans-Serif" font-size="10.00">loadLevelData()</text>
<text text-anchor="start" x="22.5" y="-521" font-family="Helvetica,sans-Serif" font-size="10.00">#</text>
<text text-anchor="start" x="35.5" y="-521" font-family="Helvetica,sans-Serif" font-size="10.00">palettizeLegacySubChunkFrom</text>
<text text-anchor="start" x="35.5" y="-510" font-family="Helvetica,sans-Serif" font-size="10.00">Column()</text>
<text text-anchor="start" x="22.5" y="-495" font-family="Helvetica,sans-Serif" font-size="10.00">#</text>
<text text-anchor="start" x="35.5" y="-495" font-family="Helvetica,sans-Serif" font-size="10.00">palettizeLegacySubChunkXZY()</text>
<text text-anchor="start" x="22.5" y="-480" font-family="Helvetica,sans-Serif" font-size="10.00">#</text>
<text text-anchor="start" x="35.5" y="-480" font-family="Helvetica,sans-Serif" font-size="10.00">palettizeLegacySubChunkYZX()</text>
<polygon fill="#bfbfbf" stroke="#bfbfbf" points="18.5,-651 18.5,-651 193.5,-651 193.5,-651 18.5,-651"/>
<polygon fill="#bfbfbf" stroke="#bfbfbf" points="18.5,-591 18.5,-591 33.5,-591 33.5,-591 18.5,-591"/>
<polygon fill="#bfbfbf" stroke="#bfbfbf" points="33.5,-591 33.5,-591 193.5,-591 193.5,-591 33.5,-591"/>
<polygon fill="none" stroke="#bfbfbf" points="18,-473 18,-679 193,-679 193,-473 18,-473"/>
</a>
</g>
</g>
<!-- Node3&#45;&gt;Node2 -->
<g id="edge2_Node000002_Node000003" class="edge">
<title>Node3&#45;&gt;Node2</title>
<g id="a_edge2_Node000002_Node000003"><a xlink:title=" ">
<path fill="none" stroke="#63b8ff" d="M95.7,-462.53C94.98,-454.21 94.24,-445.74 93.5,-437.25"/>
<polygon fill="none" stroke="#63b8ff" points="92.23,-462.94 96.58,-472.6 99.2,-462.34 92.23,-462.94"/>
</a>
</g>
</g>
<!-- Node4 -->
<g id="Node000004" class="node">
<title>Node4</title>
<g id="a_Node000004"><a xlink:href="../../d8/d94/interfacepocketmine_1_1world_1_1format_1_1io_1_1_world_provider.html" target="_top" xlink:title=" ">
<polygon fill="white" stroke="transparent" points="230.5,-895 96.5,-895 96.5,-715 230.5,-715 230.5,-895"/>
<text text-anchor="start" x="101.5" y="-883" font-family="Helvetica,sans-Serif" font-size="10.00">pocketmine\world\format</text>
<text text-anchor="start" x="121.5" y="-872" font-family="Helvetica,sans-Serif" font-size="10.00">\io\WorldProvider</text>
<text text-anchor="start" x="161.5" y="-857" font-family="Helvetica,sans-Serif" font-size="10.00"> </text>
<text text-anchor="start" x="100.5" y="-842" font-family="Helvetica,sans-Serif" font-size="10.00">+</text>
<text text-anchor="start" x="113.5" y="-842" font-family="Helvetica,sans-Serif" font-size="10.00">calculateChunkCount()</text>
<text text-anchor="start" x="100.5" y="-827" font-family="Helvetica,sans-Serif" font-size="10.00">+</text>
<text text-anchor="start" x="113.5" y="-827" font-family="Helvetica,sans-Serif" font-size="10.00">close()</text>
<text text-anchor="start" x="100.5" y="-812" font-family="Helvetica,sans-Serif" font-size="10.00">+</text>
<text text-anchor="start" x="113.5" y="-812" font-family="Helvetica,sans-Serif" font-size="10.00">doGarbageCollection()</text>
<text text-anchor="start" x="100.5" y="-797" font-family="Helvetica,sans-Serif" font-size="10.00">+</text>
<text text-anchor="start" x="113.5" y="-797" font-family="Helvetica,sans-Serif" font-size="10.00">getAllChunks()</text>
<text text-anchor="start" x="100.5" y="-782" font-family="Helvetica,sans-Serif" font-size="10.00">+</text>
<text text-anchor="start" x="113.5" y="-782" font-family="Helvetica,sans-Serif" font-size="10.00">getPath()</text>
<text text-anchor="start" x="100.5" y="-767" font-family="Helvetica,sans-Serif" font-size="10.00">+</text>
<text text-anchor="start" x="113.5" y="-767" font-family="Helvetica,sans-Serif" font-size="10.00">getWorldData()</text>
<text text-anchor="start" x="100.5" y="-752" font-family="Helvetica,sans-Serif" font-size="10.00">+</text>
<text text-anchor="start" x="113.5" y="-752" font-family="Helvetica,sans-Serif" font-size="10.00">getWorldMaxY()</text>
<text text-anchor="start" x="100.5" y="-737" font-family="Helvetica,sans-Serif" font-size="10.00">+</text>
<text text-anchor="start" x="113.5" y="-737" font-family="Helvetica,sans-Serif" font-size="10.00">getWorldMinY()</text>
<text text-anchor="start" x="100.5" y="-722" font-family="Helvetica,sans-Serif" font-size="10.00">+</text>
<text text-anchor="start" x="113.5" y="-722" font-family="Helvetica,sans-Serif" font-size="10.00">loadChunk()</text>
<polygon fill="#bfbfbf" stroke="#bfbfbf" points="96.5,-867 96.5,-867 230.5,-867 230.5,-867 96.5,-867"/>
<polygon fill="#bfbfbf" stroke="#bfbfbf" points="96.5,-852 96.5,-852 230.5,-852 230.5,-852 96.5,-852"/>
<polygon fill="none" stroke="#bfbfbf" points="96.5,-715 96.5,-895 230.5,-895 230.5,-715 96.5,-715"/>
</a>
</g>
</g>
<!-- Node4&#45;&gt;Node3 -->
<g id="edge3_Node000003_Node000004" class="edge">
<title>Node4&#45;&gt;Node3</title>
<g id="a_edge3_Node000003_Node000004"><a xlink:title=" ">
<path fill="none" stroke="#63b8ff" d="M138.21,-705.01C136.03,-696.5 133.83,-687.88 131.65,-679.35"/>
<polygon fill="none" stroke="#63b8ff" points="134.88,-706.11 140.74,-714.94 141.66,-704.38 134.88,-706.11"/>
</a>
</g>
</g>
<!-- Node5 -->
<g id="Node000005" class="node">
<title>Node5</title>
<g id="a_Node000005"><a xlink:href="../../d1/d1b/interfacepocketmine_1_1world_1_1format_1_1io_1_1_writable_world_provider.html" target="_top" xlink:title=" ">
<polygon fill="white" stroke="transparent" points="314,-317 179,-317 179,-257 314,-257 314,-317"/>
<text text-anchor="start" x="184.5" y="-305" font-family="Helvetica,sans-Serif" font-size="10.00">pocketmine\world\format</text>
<text text-anchor="start" x="184.5" y="-294" font-family="Helvetica,sans-Serif" font-size="10.00">\io\WritableWorldProvider</text>
<text text-anchor="start" x="245" y="-279" font-family="Helvetica,sans-Serif" font-size="10.00"> </text>
<text text-anchor="start" x="196.5" y="-264" font-family="Helvetica,sans-Serif" font-size="10.00">+</text>
<text text-anchor="start" x="222.5" y="-264" font-family="Helvetica,sans-Serif" font-size="10.00">saveChunk()</text>
<polygon fill="#bfbfbf" stroke="#bfbfbf" points="179.5,-289 179.5,-289 314.5,-289 314.5,-289 179.5,-289"/>
<polygon fill="#bfbfbf" stroke="#bfbfbf" points="179.5,-274 179.5,-274 314.5,-274 314.5,-274 179.5,-274"/>
<polygon fill="none" stroke="#bfbfbf" points="179,-257 179,-317 314,-317 314,-257 179,-257"/>
</a>
</g>
</g>
<!-- Node4&#45;&gt;Node5 -->
<g id="edge5_Node000005_Node000004" class="edge">
<title>Node4&#45;&gt;Node5</title>
<g id="a_edge5_Node000005_Node000004"><a xlink:title=" ">
<path fill="none" stroke="#63b8ff" d="M195.4,-704.9C197.66,-696.19 199.74,-687.47 201.5,-679 229.23,-545.53 241.07,-382.63 244.94,-317.23"/>
<polygon fill="none" stroke="#63b8ff" points="191.97,-704.15 192.77,-714.72 198.74,-705.96 191.97,-704.15"/>
</a>
</g>
</g>
<!-- Node5&#45;&gt;Node1 -->
<g id="edge4_Node000001_Node000005" class="edge">
<title>Node5&#45;&gt;Node1</title>
<g id="a_edge4_Node000001_Node000005"><a xlink:title=" ">
<path fill="none" stroke="#63b8ff" d="M232.74,-247.12C218.59,-207.14 196.51,-144.75 181.09,-101.21"/>
<polygon fill="none" stroke="#63b8ff" points="229.52,-248.52 236.16,-256.77 236.12,-246.18 229.52,-248.52"/>
</a>
</g>
</g>
</g>
</svg>
