<?xml version="1.0" encoding="UTF-8" standalone="no"?>
<!DOCTYPE svg PUBLIC "-//W3C//DTD SVG 1.1//EN"
 "http://www.w3.org/Graphics/SVG/1.1/DTD/svg11.dtd">
<!-- Generated by graphviz version 2.43.0 (0)
 -->
<!-- Title: pocketmine\event\entity\EntityDamageEvent\getBaseDamage Pages: 1 -->
<svg width="387pt" height="88pt"
 viewBox="0.00 0.00 387.00 88.00" xmlns="http://www.w3.org/2000/svg" xmlns:xlink="http://www.w3.org/1999/xlink">
<g id="graph0" class="graph" transform="scale(1 1) rotate(0) translate(4 84)">
<title>pocketmine\event\entity\EntityDamageEvent\getBaseDamage</title>
<polygon fill="white" stroke="transparent" points="-4,4 -4,-84 383,-84 383,4 -4,4"/>
<!-- Node1 -->
<g id="node1" class="node">
<title>Node1</title>
<g id="a_node1"><a xlink:title=" ">
<polygon fill="#bfbfbf" stroke="black" points="178,-24.5 178,-54.5 379,-54.5 379,-24.5 178,-24.5"/>
<text text-anchor="start" x="186" y="-42.5" font-family="Helvetica,sans-Serif" font-size="10.00">pocketmine\event\entity</text>
<text text-anchor="middle" x="278.5" y="-31.5" font-family="Helvetica,sans-Serif" font-size="10.00">\EntityDamageEvent\getBaseDamage</text>
</a>
</g>
</g>
<!-- Node2 -->
<g id="node2" class="node">
<title>Node2</title>
<g id="a_node2"><a xlink:href="../../df/d0c/classpocketmine_1_1entity_1_1_living.html#a755bb02c83a70658de4339e2c97affa1" target="_top" xlink:title=" ">
<polygon fill="white" stroke="black" points="2.5,-49.5 2.5,-79.5 139.5,-79.5 139.5,-49.5 2.5,-49.5"/>
<text text-anchor="start" x="10.5" y="-67.5" font-family="Helvetica,sans-Serif" font-size="10.00">pocketmine\entity\Living</text>
<text text-anchor="middle" x="71" y="-56.5" font-family="Helvetica,sans-Serif" font-size="10.00">\applyDamageModifiers</text>
</a>
</g>
</g>
<!-- Node1&#45;&gt;Node2 -->
<g id="edge1" class="edge">
<title>Node1&#45;&gt;Node2</title>
<path fill="none" stroke="midnightblue" d="M167.8,-52.85C158.25,-54.01 148.78,-55.16 139.73,-56.26"/>
<polygon fill="midnightblue" stroke="midnightblue" points="168.26,-56.32 177.76,-51.63 167.41,-49.37 168.26,-56.32"/>
</g>
<!-- Node3 -->
<g id="node3" class="node">
<title>Node3</title>
<g id="a_node3"><a xlink:href="../../df/d0c/classpocketmine_1_1entity_1_1_living.html#a273bd4bd28a437291326bf1546e7f5cd" target="_top" xlink:title=" ">
<polygon fill="white" stroke="black" points="0,-0.5 0,-30.5 142,-30.5 142,-0.5 0,-0.5"/>
<text text-anchor="start" x="8" y="-18.5" font-family="Helvetica,sans-Serif" font-size="10.00">pocketmine\entity\Living</text>
<text text-anchor="middle" x="71" y="-7.5" font-family="Helvetica,sans-Serif" font-size="10.00">\applyPostDamageEffects</text>
</a>
</g>
</g>
<!-- Node1&#45;&gt;Node3 -->
<g id="edge2" class="edge">
<title>Node1&#45;&gt;Node3</title>
<path fill="none" stroke="midnightblue" d="M167.58,-26.66C158.92,-25.65 150.33,-24.65 142.06,-23.68"/>
<polygon fill="midnightblue" stroke="midnightblue" points="167.42,-30.17 177.76,-27.85 168.23,-23.22 167.42,-30.17"/>
</g>
</g>
</svg>
