<?xml version="1.0" encoding="UTF-8" standalone="no"?>
<!DOCTYPE svg PUBLIC "-//W3C//DTD SVG 1.1//EN"
 "http://www.w3.org/Graphics/SVG/1.1/DTD/svg11.dtd">
<!-- Generated by graphviz version 2.43.0 (0)
 -->
<!-- Title: pocketmine\utils\BinaryStream\getLFloat Pages: 1 -->
<svg width="411pt" height="285pt"
 viewBox="0.00 0.00 411.00 285.00" xmlns="http://www.w3.org/2000/svg" xmlns:xlink="http://www.w3.org/1999/xlink">
<g id="graph0" class="graph" transform="scale(1 1) rotate(0) translate(4 281)">
<title>pocketmine\utils\BinaryStream\getLFloat</title>
<!-- Node1 -->
<g id="Node000001" class="node">
<title>Node1</title>
<g id="a_Node000001"><a xlink:title=" ">
<polygon fill="#999999" stroke="#666666" points="403,-153.5 236,-153.5 236,-123.5 403,-123.5 403,-153.5"/>
<text text-anchor="start" x="244" y="-141.5" font-family="Helvetica,sans-Serif" font-size="10.00">pocketmine\utils\BinaryStream</text>
<text text-anchor="middle" x="319.5" y="-130.5" font-family="Helvetica,sans-Serif" font-size="10.00">\getLFloat</text>
</a>
</g>
</g>
<!-- Node2 -->
<g id="Node000002" class="node">
<title>Node2</title>
<g id="a_Node000002"><a xlink:href="../../d2/dd1/classpocketmine_1_1network_1_1mcpe_1_1protocol_1_1_add_actor_packet.html#a9bc03d23390132126c36b5653d46fee1" target="_top" xlink:title=" ">
<polygon fill="white" stroke="#666666" points="184,-277 16,-277 16,-236 184,-236 184,-277"/>
<text text-anchor="start" x="24" y="-265" font-family="Helvetica,sans-Serif" font-size="10.00">pocketmine\network</text>
<text text-anchor="start" x="24" y="-254" font-family="Helvetica,sans-Serif" font-size="10.00">\mcpe\protocol\AddActorPacket</text>
<text text-anchor="middle" x="100" y="-243" font-family="Helvetica,sans-Serif" font-size="10.00">\decodePayload</text>
</a>
</g>
</g>
<!-- Node1&#45;&gt;Node2 -->
<g id="edge1_Node000001_Node000002" class="edge">
<title>Node1&#45;&gt;Node2</title>
<g id="a_edge1_Node000001_Node000002"><a xlink:title=" ">
<path fill="none" stroke="#63b8ff" d="M295.04,-160.19C272.29,-180.2 236.01,-209.45 200,-227.5 193.84,-230.59 187.29,-233.41 180.61,-235.96"/>
<polygon fill="#63b8ff" stroke="#63b8ff" points="297.38,-162.8 302.51,-153.53 292.72,-157.58 297.38,-162.8"/>
</a>
</g>
</g>
<!-- Node3 -->
<g id="Node000003" class="node">
<title>Node3</title>
<g id="a_Node000003"><a xlink:href="../../d6/dcd/classpocketmine_1_1network_1_1mcpe_1_1protocol_1_1_animate_packet.html#ab82117b8714f0552c03e555e037a0919" target="_top" xlink:title=" ">
<polygon fill="white" stroke="#666666" points="182.5,-218 17.5,-218 17.5,-177 182.5,-177 182.5,-218"/>
<text text-anchor="start" x="25.5" y="-206" font-family="Helvetica,sans-Serif" font-size="10.00">pocketmine\network</text>
<text text-anchor="start" x="25.5" y="-195" font-family="Helvetica,sans-Serif" font-size="10.00">\mcpe\protocol\AnimatePacket</text>
<text text-anchor="middle" x="100" y="-184" font-family="Helvetica,sans-Serif" font-size="10.00">\decodePayload</text>
</a>
</g>
</g>
<!-- Node1&#45;&gt;Node3 -->
<g id="edge2_Node000001_Node000003" class="edge">
<title>Node1&#45;&gt;Node3</title>
<g id="a_edge2_Node000001_Node000003"><a xlink:title=" ">
<path fill="none" stroke="#63b8ff" d="M253.32,-156.18C229.26,-162.71 201.79,-170.16 176.86,-176.92"/>
<polygon fill="#63b8ff" stroke="#63b8ff" points="254.32,-159.54 263.05,-153.54 252.49,-152.78 254.32,-159.54"/>
</a>
</g>
</g>
<!-- Node4 -->
<g id="Node000004" class="node">
<title>Node4</title>
<g id="a_Node000004"><a xlink:href="../../da/d87/classpocketmine_1_1network_1_1mcpe_1_1protocol_1_1_boss_event_packet.html#a915e8dcc7b734e14ecae04df68ee1c49" target="_top" xlink:title=" ">
<polygon fill="white" stroke="#666666" points="187.5,-159 12.5,-159 12.5,-118 187.5,-118 187.5,-159"/>
<text text-anchor="start" x="20.5" y="-147" font-family="Helvetica,sans-Serif" font-size="10.00">pocketmine\network</text>
<text text-anchor="start" x="20.5" y="-136" font-family="Helvetica,sans-Serif" font-size="10.00">\mcpe\protocol\BossEventPacket</text>
<text text-anchor="middle" x="100" y="-125" font-family="Helvetica,sans-Serif" font-size="10.00">\decodePayload</text>
</a>
</g>
</g>
<!-- Node1&#45;&gt;Node4 -->
<g id="edge3_Node000001_Node000004" class="edge">
<title>Node1&#45;&gt;Node4</title>
<g id="a_edge3_Node000001_Node000004"><a xlink:title=" ">
<path fill="none" stroke="#63b8ff" d="M225.91,-138.5C213.28,-138.5 200.35,-138.5 187.83,-138.5"/>
<polygon fill="#63b8ff" stroke="#63b8ff" points="225.96,-142 235.96,-138.5 225.96,-135 225.96,-142"/>
</a>
</g>
</g>
<!-- Node5 -->
<g id="Node000005" class="node">
<title>Node5</title>
<g id="a_Node000005"><a xlink:href="../../da/def/classpocketmine_1_1network_1_1mcpe_1_1protocol_1_1_clientbound_debug_renderer_packet.html#a8d0929b5aca9f36242af4c80eb99026a" target="_top" xlink:title=" ">
<polygon fill="white" stroke="#666666" points="200,-100 0,-100 0,-59 200,-59 200,-100"/>
<text text-anchor="start" x="8" y="-88" font-family="Helvetica,sans-Serif" font-size="10.00">pocketmine\network</text>
<text text-anchor="start" x="8" y="-77" font-family="Helvetica,sans-Serif" font-size="10.00">\mcpe\protocol\Clientbound</text>
<text text-anchor="middle" x="100" y="-66" font-family="Helvetica,sans-Serif" font-size="10.00">DebugRendererPacket\decodePayload</text>
</a>
</g>
</g>
<!-- Node1&#45;&gt;Node5 -->
<g id="edge4_Node000001_Node000005" class="edge">
<title>Node1&#45;&gt;Node5</title>
<g id="a_edge4_Node000001_Node000005"><a xlink:title=" ">
<path fill="none" stroke="#63b8ff" d="M253.32,-120.82C229.26,-114.29 201.79,-106.84 176.86,-100.08"/>
<polygon fill="#63b8ff" stroke="#63b8ff" points="252.49,-124.22 263.05,-123.46 254.32,-117.46 252.49,-124.22"/>
</a>
</g>
</g>
<!-- Node6 -->
<g id="Node000006" class="node">
<title>Node6</title>
<g id="a_Node000006"><a xlink:href="../../d8/d05/classpocketmine_1_1network_1_1mcpe_1_1protocol_1_1_interact_packet.html#aadf90107c34bebd5e9d0c0b4a0265fb7" target="_top" xlink:title=" ">
<polygon fill="white" stroke="#666666" points="180.5,-41 19.5,-41 19.5,0 180.5,0 180.5,-41"/>
<text text-anchor="start" x="27.5" y="-29" font-family="Helvetica,sans-Serif" font-size="10.00">pocketmine\network</text>
<text text-anchor="start" x="27.5" y="-18" font-family="Helvetica,sans-Serif" font-size="10.00">\mcpe\protocol\InteractPacket</text>
<text text-anchor="middle" x="100" y="-7" font-family="Helvetica,sans-Serif" font-size="10.00">\decodePayload</text>
</a>
</g>
</g>
<!-- Node1&#45;&gt;Node6 -->
<g id="edge5_Node000001_Node000006" class="edge">
<title>Node1&#45;&gt;Node6</title>
<g id="a_edge5_Node000001_Node000006"><a xlink:title=" ">
<path fill="none" stroke="#63b8ff" d="M294.27,-116.55C271.42,-96.84 235.47,-68.36 200,-50.5 193.1,-47.03 185.73,-43.87 178.23,-41.03"/>
<polygon fill="#63b8ff" stroke="#63b8ff" points="292.24,-119.42 302.07,-123.37 296.85,-114.15 292.24,-119.42"/>
</a>
</g>
</g>
</g>
</svg>
