<?xml version="1.0" encoding="UTF-8" standalone="no"?>
<!DOCTYPE svg PUBLIC "-//W3C//DTD SVG 1.1//EN"
 "http://www.w3.org/Graphics/SVG/1.1/DTD/svg11.dtd">
<!-- Generated by graphviz version 2.43.0 (0)
 -->
<!-- Title: pocketmine\utils\BinaryStream\getByte Pages: 1 -->
<svg width="404pt" height="157pt"
 viewBox="0.00 0.00 404.00 157.00" xmlns="http://www.w3.org/2000/svg" xmlns:xlink="http://www.w3.org/1999/xlink">
<g id="graph0" class="graph" transform="scale(1 1) rotate(0) translate(4 153)">
<title>pocketmine\utils\BinaryStream\getByte</title>
<!-- Node1 -->
<g id="Node000001" class="node">
<title>Node1</title>
<g id="a_Node000001"><a xlink:title=" ">
<polygon fill="#999999" stroke="#666666" points="396,-89.5 229,-89.5 229,-59.5 396,-59.5 396,-89.5"/>
<text text-anchor="start" x="237" y="-77.5" font-family="Helvetica,sans-Serif" font-size="10.00">pocketmine\utils\BinaryStream</text>
<text text-anchor="middle" x="312.5" y="-66.5" font-family="Helvetica,sans-Serif" font-size="10.00">\getByte</text>
</a>
</g>
</g>
<!-- Node2 -->
<g id="Node000002" class="node">
<title>Node2</title>
<g id="a_Node000002"><a xlink:href="../../d1/db1/classpocketmine_1_1network_1_1mcpe_1_1protocol_1_1_book_edit_packet.html#adace0bc1476a9e29961dd84c6df50d23" target="_top" xlink:title=" ">
<polygon fill="white" stroke="#666666" points="180,-149 13,-149 13,-108 180,-108 180,-149"/>
<text text-anchor="start" x="21" y="-137" font-family="Helvetica,sans-Serif" font-size="10.00">pocketmine\network</text>
<text text-anchor="start" x="21" y="-126" font-family="Helvetica,sans-Serif" font-size="10.00">\mcpe\protocol\BookEditPacket</text>
<text text-anchor="middle" x="96.5" y="-115" font-family="Helvetica,sans-Serif" font-size="10.00">\decodePayload</text>
</a>
</g>
</g>
<!-- Node1&#45;&gt;Node2 -->
<g id="edge1_Node000001_Node000002" class="edge">
<title>Node1&#45;&gt;Node2</title>
<g id="a_edge1_Node000001_Node000002"><a xlink:title=" ">
<path fill="none" stroke="#63b8ff" d="M242.15,-92C221.93,-97.1 199.66,-102.72 178.78,-107.99"/>
<polygon fill="#63b8ff" stroke="#63b8ff" points="243.05,-95.38 251.89,-89.54 241.34,-88.6 243.05,-95.38"/>
</a>
</g>
</g>
<!-- Node3 -->
<g id="Node000003" class="node">
<title>Node3</title>
<g id="a_Node000003"><a xlink:href="../../d1/dac/classraklib_1_1protocol_1_1_acknowledge_packet.html#a2b68647227d2955b341e335dbe06d709" target="_top" xlink:title=" ">
<polygon fill="white" stroke="#666666" points="174,-89.5 19,-89.5 19,-59.5 174,-59.5 174,-89.5"/>
<text text-anchor="start" x="27" y="-77.5" font-family="Helvetica,sans-Serif" font-size="10.00">raklib\protocol\Acknowledge</text>
<text text-anchor="middle" x="96.5" y="-66.5" font-family="Helvetica,sans-Serif" font-size="10.00">Packet\decodePayload</text>
</a>
</g>
</g>
<!-- Node1&#45;&gt;Node3 -->
<g id="edge2_Node000001_Node000003" class="edge">
<title>Node1&#45;&gt;Node3</title>
<g id="a_edge2_Node000001_Node000003"><a xlink:title=" ">
<path fill="none" stroke="#63b8ff" d="M218.55,-74.5C203.7,-74.5 188.48,-74.5 174.06,-74.5"/>
<polygon fill="#63b8ff" stroke="#63b8ff" points="218.76,-78 228.76,-74.5 218.76,-71 218.76,-78"/>
</a>
</g>
</g>
<!-- Node4 -->
<g id="Node000004" class="node">
<title>Node4</title>
<g id="a_Node000004"><a xlink:href="../../d7/deb/classpocketmine_1_1network_1_1mcpe_1_1protocol_1_1_available_commands_packet.html#a9512a74d97dc779af259c98769d4f63d" target="_top" xlink:title=" ">
<polygon fill="white" stroke="#666666" points="193,-41 0,-41 0,0 193,0 193,-41"/>
<text text-anchor="start" x="8" y="-29" font-family="Helvetica,sans-Serif" font-size="10.00">pocketmine\network</text>
<text text-anchor="start" x="8" y="-18" font-family="Helvetica,sans-Serif" font-size="10.00">\mcpe\protocol\AvailableCommands</text>
<text text-anchor="middle" x="96.5" y="-7" font-family="Helvetica,sans-Serif" font-size="10.00">Packet\getEnumValueIndex</text>
</a>
</g>
</g>
<!-- Node1&#45;&gt;Node4 -->
<g id="edge3_Node000001_Node000004" class="edge">
<title>Node1&#45;&gt;Node4</title>
<g id="a_edge3_Node000001_Node000004"><a xlink:title=" ">
<path fill="none" stroke="#63b8ff" d="M242.15,-57C221.93,-51.9 199.66,-46.28 178.78,-41.01"/>
<polygon fill="#63b8ff" stroke="#63b8ff" points="241.34,-60.4 251.89,-59.46 243.05,-53.62 241.34,-60.4"/>
</a>
</g>
</g>
</g>
</svg>
