<?xml version="1.0" encoding="UTF-8" standalone="no"?>
<!DOCTYPE svg PUBLIC "-//W3C//DTD SVG 1.1//EN"
 "http://www.w3.org/Graphics/SVG/1.1/DTD/svg11.dtd">
<!-- Generated by graphviz version 2.43.0 (0)
 -->
<!-- Title: pocketmine\utils\BinaryStream\getVarInt Pages: 1 -->
<svg width="368pt" height="120pt"
 viewBox="0.00 0.00 368.00 119.50" xmlns="http://www.w3.org/2000/svg" xmlns:xlink="http://www.w3.org/1999/xlink">
<g id="graph0" class="graph" transform="scale(1 1) rotate(0) translate(4 115.5)">
<title>pocketmine\utils\BinaryStream\getVarInt</title>
<!-- Node1 -->
<g id="Node000001" class="node">
<title>Node1</title>
<g id="a_Node000001"><a xlink:title=" ">
<polygon fill="#999999" stroke="#666666" points="360,-73 193,-73 193,-43 360,-43 360,-73"/>
<text text-anchor="start" x="201" y="-61" font-family="Helvetica,sans-Serif" font-size="10.00">pocketmine\utils\BinaryStream</text>
<text text-anchor="middle" x="276.5" y="-50" font-family="Helvetica,sans-Serif" font-size="10.00">\getVarInt</text>
</a>
</g>
</g>
<!-- Node2 -->
<g id="Node000002" class="node">
<title>Node2</title>
<g id="a_Node000002"><a xlink:href="../../d1/d7f/classpocketmine_1_1network_1_1mcpe_1_1protocol_1_1_crafting_data_packet.html#a7b1c0db639373417b07b908ef5bdec67" target="_top" xlink:title=" ">
<polygon fill="white" stroke="#666666" points="155.5,-111.5 1.5,-111.5 1.5,-70.5 155.5,-70.5 155.5,-111.5"/>
<text text-anchor="start" x="9.5" y="-99.5" font-family="Helvetica,sans-Serif" font-size="10.00">pocketmine\network</text>
<text text-anchor="start" x="9.5" y="-88.5" font-family="Helvetica,sans-Serif" font-size="10.00">\mcpe\protocol\CraftingData</text>
<text text-anchor="middle" x="78.5" y="-77.5" font-family="Helvetica,sans-Serif" font-size="10.00">Packet\decodePayload</text>
</a>
</g>
</g>
<!-- Node1&#45;&gt;Node2 -->
<g id="edge1_Node000001_Node000002" class="edge">
<title>Node1&#45;&gt;Node2</title>
<g id="a_edge1_Node000001_Node000002"><a xlink:title=" ">
<path fill="none" stroke="#63b8ff" d="M183.05,-73.57C173.9,-75.11 164.68,-76.66 155.71,-78.17"/>
<polygon fill="#63b8ff" stroke="#63b8ff" points="183.67,-77.01 192.95,-71.9 182.5,-70.11 183.67,-77.01"/>
</a>
</g>
</g>
<!-- Node3 -->
<g id="Node000003" class="node">
<title>Node3</title>
<g id="a_Node000003"><a xlink:href="../../d5/da8/classpocketmine_1_1network_1_1mcpe_1_1protocol_1_1types_1_1inventory_1_1_network_inventory_action.html#a9b1b43e669c2b77f58c0942a13c34681" target="_top" xlink:title=" ">
<polygon fill="white" stroke="#666666" points="157,-52 0,-52 0,0 157,0 157,-52"/>
<text text-anchor="start" x="8" y="-40" font-family="Helvetica,sans-Serif" font-size="10.00">pocketmine\network</text>
<text text-anchor="start" x="8" y="-29" font-family="Helvetica,sans-Serif" font-size="10.00">\mcpe\protocol\types</text>
<text text-anchor="start" x="8" y="-18" font-family="Helvetica,sans-Serif" font-size="10.00">\inventory\NetworkInventory</text>
<text text-anchor="middle" x="78.5" y="-7" font-family="Helvetica,sans-Serif" font-size="10.00">Action\read</text>
</a>
</g>
</g>
<!-- Node1&#45;&gt;Node3 -->
<g id="edge2_Node000001_Node000003" class="edge">
<title>Node1&#45;&gt;Node3</title>
<g id="a_edge2_Node000001_Node000003"><a xlink:title=" ">
<path fill="none" stroke="#63b8ff" d="M182.91,-42.88C174.33,-41.48 165.7,-40.07 157.27,-38.7"/>
<polygon fill="#63b8ff" stroke="#63b8ff" points="182.51,-46.36 192.95,-44.52 183.64,-39.46 182.51,-46.36"/>
</a>
</g>
</g>
</g>
</svg>
