<?xml version="1.0" encoding="UTF-8" standalone="no"?>
<!DOCTYPE svg PUBLIC "-//W3C//DTD SVG 1.1//EN"
 "http://www.w3.org/Graphics/SVG/1.1/DTD/svg11.dtd">
<!-- Generated by graphviz version 2.43.0 (0)
 -->
<!-- Title: pocketmine\network\mcpe\protocol\types\recipe\MultiRecipe Pages: 1 -->
<svg width="210pt" height="463pt"
 viewBox="0.00 0.00 210.00 463.00" xmlns="http://www.w3.org/2000/svg" xmlns:xlink="http://www.w3.org/1999/xlink">
<g id="graph0" class="graph" transform="scale(1 1) rotate(0) translate(4 459)">
<title>pocketmine\network\mcpe\protocol\types\recipe\MultiRecipe</title>
<!-- Node1 -->
<g id="Node000001" class="node">
<title>Node1</title>
<g id="a_Node000001"><a xlink:title=" ">
<polygon fill="#999999" stroke="transparent" points="202,-318 0,-318 0,0 202,0 202,-318"/>
<text text-anchor="start" x="49.5" y="-306" font-family="Helvetica,sans-Serif" font-size="10.00">pocketmine\network</text>
<text text-anchor="start" x="49.5" y="-295" font-family="Helvetica,sans-Serif" font-size="10.00">\mcpe\protocol\types</text>
<text text-anchor="start" x="54" y="-284" font-family="Helvetica,sans-Serif" font-size="10.00">\recipe\MultiRecipe</text>
<text text-anchor="start" x="4" y="-269" font-family="Helvetica,sans-Serif" font-size="10.00">+</text>
<text text-anchor="start" x="17" y="-269" font-family="Helvetica,sans-Serif" font-size="10.00">TYPE_BANNER_ADD_PATTERN</text>
<text text-anchor="start" x="4" y="-254" font-family="Helvetica,sans-Serif" font-size="10.00">+</text>
<text text-anchor="start" x="17" y="-254" font-family="Helvetica,sans-Serif" font-size="10.00">TYPE_BANNER_DUPLICATE</text>
<text text-anchor="start" x="4" y="-239" font-family="Helvetica,sans-Serif" font-size="10.00">+</text>
<text text-anchor="start" x="17" y="-239" font-family="Helvetica,sans-Serif" font-size="10.00">TYPE_BOOK_CLONING</text>
<text text-anchor="start" x="4" y="-224" font-family="Helvetica,sans-Serif" font-size="10.00">+</text>
<text text-anchor="start" x="17" y="-224" font-family="Helvetica,sans-Serif" font-size="10.00">TYPE_FIREWORKS</text>
<text text-anchor="start" x="4" y="-209" font-family="Helvetica,sans-Serif" font-size="10.00">+</text>
<text text-anchor="start" x="17" y="-209" font-family="Helvetica,sans-Serif" font-size="10.00">TYPE_MAP_CLONING</text>
<text text-anchor="start" x="4" y="-194" font-family="Helvetica,sans-Serif" font-size="10.00">+</text>
<text text-anchor="start" x="17" y="-194" font-family="Helvetica,sans-Serif" font-size="10.00">TYPE_MAP_CLONING_CARTOGRAPHY</text>
<text text-anchor="start" x="4" y="-179" font-family="Helvetica,sans-Serif" font-size="10.00">+</text>
<text text-anchor="start" x="17" y="-179" font-family="Helvetica,sans-Serif" font-size="10.00">TYPE_MAP_EXTENDING</text>
<text text-anchor="start" x="4" y="-164" font-family="Helvetica,sans-Serif" font-size="10.00">+</text>
<text text-anchor="start" x="17" y="-164" font-family="Helvetica,sans-Serif" font-size="10.00">TYPE_MAP_EXTENDING</text>
<text text-anchor="start" x="17" y="-153" font-family="Helvetica,sans-Serif" font-size="10.00">_CARTOGRAPHY</text>
<text text-anchor="start" x="4" y="-138" font-family="Helvetica,sans-Serif" font-size="10.00">+</text>
<text text-anchor="start" x="17" y="-138" font-family="Helvetica,sans-Serif" font-size="10.00">TYPE_MAP_LOCKING_CARTOGRAPHY</text>
<text text-anchor="start" x="4" y="-123" font-family="Helvetica,sans-Serif" font-size="10.00">+</text>
<text text-anchor="start" x="17" y="-123" font-family="Helvetica,sans-Serif" font-size="10.00">TYPE_MAP_UPGRADING</text>
<text text-anchor="start" x="4" y="-108" font-family="Helvetica,sans-Serif" font-size="10.00">+</text>
<text text-anchor="start" x="17" y="-108" font-family="Helvetica,sans-Serif" font-size="10.00">TYPE_MAP_UPGRADING</text>
<text text-anchor="start" x="17" y="-97" font-family="Helvetica,sans-Serif" font-size="10.00">_CARTOGRAPHY</text>
<text text-anchor="start" x="4" y="-82" font-family="Helvetica,sans-Serif" font-size="10.00">+</text>
<text text-anchor="start" x="17" y="-82" font-family="Helvetica,sans-Serif" font-size="10.00">TYPE_REPAIR_ITEM</text>
<text text-anchor="start" x="4" y="-67" font-family="Helvetica,sans-Serif" font-size="10.00">+</text>
<text text-anchor="start" x="17" y="-67" font-family="Helvetica,sans-Serif" font-size="10.00">__construct()</text>
<text text-anchor="start" x="4" y="-52" font-family="Helvetica,sans-Serif" font-size="10.00">+</text>
<text text-anchor="start" x="17" y="-52" font-family="Helvetica,sans-Serif" font-size="10.00">encode()</text>
<text text-anchor="start" x="4" y="-37" font-family="Helvetica,sans-Serif" font-size="10.00">+</text>
<text text-anchor="start" x="17" y="-37" font-family="Helvetica,sans-Serif" font-size="10.00">getRecipeId()</text>
<text text-anchor="start" x="4" y="-22" font-family="Helvetica,sans-Serif" font-size="10.00">+</text>
<text text-anchor="start" x="17" y="-22" font-family="Helvetica,sans-Serif" font-size="10.00">getRecipeNetId()</text>
<text text-anchor="start" x="4" y="-7" font-family="Helvetica,sans-Serif" font-size="10.00">+</text>
<text text-anchor="start" x="17" y="-7" font-family="Helvetica,sans-Serif" font-size="10.00">decode()</text>
<polygon fill="#666666" stroke="#666666" points="0,-279 0,-279 202,-279 202,-279 0,-279"/>
<polygon fill="#666666" stroke="#666666" points="0,-77 0,-77 15,-77 15,-77 0,-77"/>
<polygon fill="#666666" stroke="#666666" points="15,-77 15,-77 202,-77 202,-77 15,-77"/>
<polygon fill="none" stroke="#666666" points="0,0 0,-318 202,-318 202,0 0,0"/>
</a>
</g>
</g>
<!-- Node2 -->
<g id="Node000002" class="node">
<title>Node2</title>
<g id="a_Node000002"><a xlink:href="../../dc/d76/classpocketmine_1_1network_1_1mcpe_1_1protocol_1_1types_1_1recipe_1_1_recipe_with_type_id.html" target="_top" xlink:title=" ">
<polygon fill="white" stroke="transparent" points="168,-455 34,-455 34,-354 168,-354 168,-455"/>
<text text-anchor="start" x="39" y="-442.5" font-family="Helvetica,sans-Serif" font-size="10.00">pocketmine\network</text>
<text text-anchor="start" x="39" y="-431.5" font-family="Helvetica,sans-Serif" font-size="10.00">\mcpe\protocol\types</text>
<text text-anchor="start" x="39" y="-420.5" font-family="Helvetica,sans-Serif" font-size="10.00">\recipe\RecipeWithTypeId</text>
<text text-anchor="start" x="99" y="-405.5" font-family="Helvetica,sans-Serif" font-size="10.00"> </text>
<text text-anchor="start" x="50" y="-390.5" font-family="Helvetica,sans-Serif" font-size="10.00">+</text>
<text text-anchor="start" x="75" y="-390.5" font-family="Helvetica,sans-Serif" font-size="10.00">encode()</text>
<text text-anchor="start" x="50" y="-375.5" font-family="Helvetica,sans-Serif" font-size="10.00">+</text>
<text text-anchor="start" x="75" y="-375.5" font-family="Helvetica,sans-Serif" font-size="10.00">getTypeId()</text>
<text text-anchor="start" x="50" y="-360.5" font-family="Helvetica,sans-Serif" font-size="10.00">#</text>
<text text-anchor="start" x="75" y="-360.5" font-family="Helvetica,sans-Serif" font-size="10.00">__construct()</text>
<polygon fill="#bfbfbf" stroke="#bfbfbf" points="34,-415.5 34,-415.5 168,-415.5 168,-415.5 34,-415.5"/>
<polygon fill="#bfbfbf" stroke="#bfbfbf" points="34,-400.5 34,-400.5 168,-400.5 168,-400.5 34,-400.5"/>
<polygon fill="none" stroke="#bfbfbf" points="34,-354 34,-455 168,-455 168,-354 34,-354"/>
</a>
</g>
</g>
<!-- Node2&#45;&gt;Node1 -->
<g id="edge1_Node000001_Node000002" class="edge">
<title>Node2&#45;&gt;Node1</title>
<g id="a_edge1_Node000001_Node000002"><a xlink:title=" ">
<path fill="none" stroke="#63b8ff" d="M101,-343.7C101,-335.69 101,-327.2 101,-318.42"/>
<polygon fill="none" stroke="#63b8ff" points="97.5,-343.93 101,-353.93 104.5,-343.93 97.5,-343.93"/>
</a>
</g>
</g>
</g>
</svg>
