<?xml version="1.0" encoding="UTF-8" standalone="no"?>
<!DOCTYPE svg PUBLIC "-//W3C//DTD SVG 1.1//EN"
 "http://www.w3.org/Graphics/SVG/1.1/DTD/svg11.dtd">
<!-- Generated by graphviz version 2.43.0 (0)
 -->
<!-- Title: pocketmine\block\WoodenPressurePlate Pages: 1 -->
<svg width="323pt" height="970pt"
 viewBox="0.00 0.00 322.50 970.00" xmlns="http://www.w3.org/2000/svg" xmlns:xlink="http://www.w3.org/1999/xlink">
<g id="graph0" class="graph" transform="scale(1 1) rotate(0) translate(4 966)">
<title>pocketmine\block\WoodenPressurePlate</title>
<!-- Node1 -->
<g id="Node000001" class="node">
<title>Node1</title>
<g id="a_Node000001"><a xlink:title=" ">
<polygon fill="#999999" stroke="transparent" points="261.5,-75 80.5,-75 80.5,0 261.5,0 261.5,-75"/>
<text text-anchor="start" x="86" y="-62.5" font-family="Helvetica,sans-Serif" font-size="10.00">pocketmine\block\WoodenPressure</text>
<text text-anchor="start" x="159" y="-51.5" font-family="Helvetica,sans-Serif" font-size="10.00">Plate</text>
<text text-anchor="start" x="169.5" y="-36.5" font-family="Helvetica,sans-Serif" font-size="10.00"> </text>
<text text-anchor="start" x="107.5" y="-21.5" font-family="Helvetica,sans-Serif" font-size="10.00">+</text>
<text text-anchor="start" x="143" y="-21.5" font-family="Helvetica,sans-Serif" font-size="10.00">__construct()</text>
<text text-anchor="start" x="107.5" y="-6.5" font-family="Helvetica,sans-Serif" font-size="10.00">+</text>
<text text-anchor="start" x="143" y="-6.5" font-family="Helvetica,sans-Serif" font-size="10.00">getFuelTime()</text>
<polygon fill="#666666" stroke="#666666" points="81,-46.5 81,-46.5 262,-46.5 262,-46.5 81,-46.5"/>
<polygon fill="#666666" stroke="#666666" points="81,-31.5 81,-31.5 262,-31.5 262,-31.5 81,-31.5"/>
<polygon fill="none" stroke="#666666" points="80.5,0 80.5,-75 261.5,-75 261.5,0 80.5,0"/>
</a>
</g>
</g>
<!-- Node2 -->
<g id="Node000002" class="node">
<title>Node2</title>
<g id="a_Node000002"><a xlink:href="../../dd/dc4/classpocketmine_1_1block_1_1_simple_pressure_plate.html" target="_top" xlink:title=" ">
<polygon fill="white" stroke="transparent" points="176,-231 0,-231 0,-111 176,-111 176,-231"/>
<text text-anchor="start" x="5" y="-219" font-family="Helvetica,sans-Serif" font-size="10.00">pocketmine\block\SimplePressure</text>
<text text-anchor="start" x="75.5" y="-208" font-family="Helvetica,sans-Serif" font-size="10.00">Plate</text>
<text text-anchor="start" x="11.5" y="-193" font-family="Helvetica,sans-Serif" font-size="10.00">#</text>
<text text-anchor="start" x="32" y="-193" font-family="Helvetica,sans-Serif" font-size="10.00">$pressed</text>
<text text-anchor="start" x="11.5" y="-178" font-family="Helvetica,sans-Serif" font-size="10.00">+</text>
<text text-anchor="start" x="32" y="-178" font-family="Helvetica,sans-Serif" font-size="10.00">isPressed()</text>
<text text-anchor="start" x="11.5" y="-163" font-family="Helvetica,sans-Serif" font-size="10.00">+</text>
<text text-anchor="start" x="32" y="-163" font-family="Helvetica,sans-Serif" font-size="10.00">setPressed()</text>
<text text-anchor="start" x="11.5" y="-148" font-family="Helvetica,sans-Serif" font-size="10.00">#</text>
<text text-anchor="start" x="32" y="-148" font-family="Helvetica,sans-Serif" font-size="10.00">calculatePlateState()</text>
<text text-anchor="start" x="11.5" y="-133" font-family="Helvetica,sans-Serif" font-size="10.00">#</text>
<text text-anchor="start" x="32" y="-133" font-family="Helvetica,sans-Serif" font-size="10.00">describeBlockOnlyState()</text>
<text text-anchor="start" x="11.5" y="-118" font-family="Helvetica,sans-Serif" font-size="10.00">#</text>
<text text-anchor="start" x="32" y="-118" font-family="Helvetica,sans-Serif" font-size="10.00">hasOutputSignal()</text>
<polygon fill="#bfbfbf" stroke="#bfbfbf" points="0,-203 0,-203 176,-203 176,-203 0,-203"/>
<polygon fill="#bfbfbf" stroke="#bfbfbf" points="0,-188 0,-188 30,-188 30,-188 0,-188"/>
<polygon fill="#bfbfbf" stroke="#bfbfbf" points="30,-188 30,-188 176,-188 176,-188 30,-188"/>
<polygon fill="none" stroke="#bfbfbf" points="0,-111 0,-231 176,-231 176,-111 0,-111"/>
</a>
</g>
</g>
<!-- Node2&#45;&gt;Node1 -->
<g id="edge1_Node000001_Node000002" class="edge">
<title>Node2&#45;&gt;Node1</title>
<g id="a_edge1_Node000001_Node000002"><a xlink:title=" ">
<path fill="none" stroke="#63b8ff" d="M130.78,-102.23C136.66,-92.9 142.52,-83.63 147.86,-75.16"/>
<polygon fill="none" stroke="#63b8ff" points="127.75,-100.47 125.37,-110.79 133.67,-104.2 127.75,-100.47"/>
</a>
</g>
</g>
<!-- Node3 -->
<g id="Node000003" class="node">
<title>Node3</title>
<g id="a_Node000003"><a xlink:href="../../de/d89/classpocketmine_1_1block_1_1_pressure_plate.html" target="_top" xlink:title=" ">
<polygon fill="white" stroke="transparent" points="165,-477 11,-477 11,-267 165,-267 165,-477"/>
<text text-anchor="start" x="22" y="-465" font-family="Helvetica,sans-Serif" font-size="10.00">pocketmine\block\Pressure</text>
<text text-anchor="start" x="75.5" y="-454" font-family="Helvetica,sans-Serif" font-size="10.00">Plate</text>
<text text-anchor="start" x="86" y="-439" font-family="Helvetica,sans-Serif" font-size="10.00"> </text>
<text text-anchor="start" x="15" y="-424" font-family="Helvetica,sans-Serif" font-size="10.00">+</text>
<text text-anchor="start" x="28" y="-424" font-family="Helvetica,sans-Serif" font-size="10.00">__construct()</text>
<text text-anchor="start" x="15" y="-409" font-family="Helvetica,sans-Serif" font-size="10.00">+</text>
<text text-anchor="start" x="28" y="-409" font-family="Helvetica,sans-Serif" font-size="10.00">getSupportType()</text>
<text text-anchor="start" x="15" y="-394" font-family="Helvetica,sans-Serif" font-size="10.00">+</text>
<text text-anchor="start" x="28" y="-394" font-family="Helvetica,sans-Serif" font-size="10.00">hasEntityCollision()</text>
<text text-anchor="start" x="15" y="-379" font-family="Helvetica,sans-Serif" font-size="10.00">+</text>
<text text-anchor="start" x="28" y="-379" font-family="Helvetica,sans-Serif" font-size="10.00">isSolid()</text>
<text text-anchor="start" x="15" y="-364" font-family="Helvetica,sans-Serif" font-size="10.00">+</text>
<text text-anchor="start" x="28" y="-364" font-family="Helvetica,sans-Serif" font-size="10.00">onEntityInside()</text>
<text text-anchor="start" x="15" y="-349" font-family="Helvetica,sans-Serif" font-size="10.00">+</text>
<text text-anchor="start" x="28" y="-349" font-family="Helvetica,sans-Serif" font-size="10.00">onScheduledUpdate()</text>
<text text-anchor="start" x="15" y="-334" font-family="Helvetica,sans-Serif" font-size="10.00">#</text>
<text text-anchor="start" x="28" y="-334" font-family="Helvetica,sans-Serif" font-size="10.00">calculatePlateState()</text>
<text text-anchor="start" x="15" y="-319" font-family="Helvetica,sans-Serif" font-size="10.00">#</text>
<text text-anchor="start" x="28" y="-319" font-family="Helvetica,sans-Serif" font-size="10.00">filterIrrelevantEntities()</text>
<text text-anchor="start" x="15" y="-304" font-family="Helvetica,sans-Serif" font-size="10.00">#</text>
<text text-anchor="start" x="28" y="-304" font-family="Helvetica,sans-Serif" font-size="10.00">getActivationBox()</text>
<text text-anchor="start" x="15" y="-289" font-family="Helvetica,sans-Serif" font-size="10.00">#</text>
<text text-anchor="start" x="28" y="-289" font-family="Helvetica,sans-Serif" font-size="10.00">hasOutputSignal()</text>
<text text-anchor="start" x="15" y="-274" font-family="Helvetica,sans-Serif" font-size="10.00">#</text>
<text text-anchor="start" x="28" y="-274" font-family="Helvetica,sans-Serif" font-size="10.00">recalculateCollisionBoxes()</text>
<polygon fill="#bfbfbf" stroke="#bfbfbf" points="11,-449 11,-449 165,-449 165,-449 11,-449"/>
<polygon fill="#bfbfbf" stroke="#bfbfbf" points="11,-434 11,-434 165,-434 165,-434 11,-434"/>
<polygon fill="none" stroke="#bfbfbf" points="11,-267 11,-477 165,-477 165,-267 11,-267"/>
</a>
</g>
</g>
<!-- Node3&#45;&gt;Node2 -->
<g id="edge2_Node000002_Node000003" class="edge">
<title>Node3&#45;&gt;Node2</title>
<g id="a_edge2_Node000002_Node000003"><a xlink:title=" ">
<path fill="none" stroke="#63b8ff" d="M88,-256.56C88,-247.85 88,-239.3 88,-231.18"/>
<polygon fill="none" stroke="#63b8ff" points="84.5,-256.84 88,-266.84 91.5,-256.84 84.5,-256.84"/>
</a>
</g>
</g>
<!-- Node4 -->
<g id="Node000004" class="node">
<title>Node4</title>
<g id="a_Node000004"><a xlink:href="../../d5/d1b/classpocketmine_1_1block_1_1_transparent.html" target="_top" xlink:title=" ">
<polygon fill="white" stroke="transparent" points="166.5,-562 9.5,-562 9.5,-513 166.5,-513 166.5,-562"/>
<text text-anchor="start" x="15" y="-549.5" font-family="Helvetica,sans-Serif" font-size="10.00">pocketmine\block\Transparent</text>
<text text-anchor="start" x="86.5" y="-534.5" font-family="Helvetica,sans-Serif" font-size="10.00"> </text>
<text text-anchor="start" x="29.5" y="-519.5" font-family="Helvetica,sans-Serif" font-size="10.00">+</text>
<text text-anchor="start" x="58" y="-519.5" font-family="Helvetica,sans-Serif" font-size="10.00">isTransparent()</text>
<polygon fill="#666666" stroke="#666666" points="10,-544.5 10,-544.5 167,-544.5 167,-544.5 10,-544.5"/>
<polygon fill="#666666" stroke="#666666" points="10,-529.5 10,-529.5 167,-529.5 167,-529.5 10,-529.5"/>
<polygon fill="none" stroke="#666666" points="9.5,-513 9.5,-562 166.5,-562 166.5,-513 9.5,-513"/>
</a>
</g>
</g>
<!-- Node4&#45;&gt;Node3 -->
<g id="edge3_Node000003_Node000004" class="edge">
<title>Node4&#45;&gt;Node3</title>
<g id="a_edge3_Node000003_Node000004"><a xlink:title=" ">
<path fill="none" stroke="#63b8ff" d="M88,-502.69C88,-494.89 88,-486.18 88,-477.08"/>
<polygon fill="none" stroke="#63b8ff" points="84.5,-502.73 88,-512.73 91.5,-502.73 84.5,-502.73"/>
</a>
</g>
</g>
<!-- Node5 -->
<g id="Node000005" class="node">
<title>Node5</title>
<g id="a_Node000005"><a xlink:href="../../d7/d27/classpocketmine_1_1block_1_1_block.html" target="_top" xlink:title=" ">
<polygon fill="white" stroke="transparent" points="172.5,-962 3.5,-962 3.5,-598 172.5,-598 172.5,-962"/>
<text text-anchor="start" x="30" y="-950" font-family="Helvetica,sans-Serif" font-size="10.00">pocketmine\block\Block</text>
<text text-anchor="start" x="8" y="-935" font-family="Helvetica,sans-Serif" font-size="10.00">+</text>
<text text-anchor="start" x="21" y="-935" font-family="Helvetica,sans-Serif" font-size="10.00">EMPTY_STATE_ID</text>
<text text-anchor="start" x="8" y="-920" font-family="Helvetica,sans-Serif" font-size="10.00">+</text>
<text text-anchor="start" x="21" y="-920" font-family="Helvetica,sans-Serif" font-size="10.00">INTERNAL_STATE_DATA_BITS</text>
<text text-anchor="start" x="8" y="-905" font-family="Helvetica,sans-Serif" font-size="10.00">+</text>
<text text-anchor="start" x="21" y="-905" font-family="Helvetica,sans-Serif" font-size="10.00">INTERNAL_STATE_DATA_MASK</text>
<text text-anchor="start" x="8" y="-890" font-family="Helvetica,sans-Serif" font-size="10.00">#</text>
<text text-anchor="start" x="21" y="-890" font-family="Helvetica,sans-Serif" font-size="10.00">$collisionBoxes</text>
<text text-anchor="start" x="8" y="-875" font-family="Helvetica,sans-Serif" font-size="10.00">#</text>
<text text-anchor="start" x="21" y="-875" font-family="Helvetica,sans-Serif" font-size="10.00">$fallbackName</text>
<text text-anchor="start" x="8" y="-860" font-family="Helvetica,sans-Serif" font-size="10.00">#</text>
<text text-anchor="start" x="21" y="-860" font-family="Helvetica,sans-Serif" font-size="10.00">$idInfo</text>
<text text-anchor="start" x="8" y="-845" font-family="Helvetica,sans-Serif" font-size="10.00">#</text>
<text text-anchor="start" x="21" y="-845" font-family="Helvetica,sans-Serif" font-size="10.00">$position</text>
<text text-anchor="start" x="8" y="-830" font-family="Helvetica,sans-Serif" font-size="10.00">#</text>
<text text-anchor="start" x="21" y="-830" font-family="Helvetica,sans-Serif" font-size="10.00">$typeInfo</text>
<text text-anchor="start" x="8" y="-815" font-family="Helvetica,sans-Serif" font-size="10.00">+</text>
<text text-anchor="start" x="21" y="-815" font-family="Helvetica,sans-Serif" font-size="10.00">__construct()</text>
<text text-anchor="start" x="8" y="-800" font-family="Helvetica,sans-Serif" font-size="10.00">+</text>
<text text-anchor="start" x="21" y="-800" font-family="Helvetica,sans-Serif" font-size="10.00">__clone()</text>
<text text-anchor="start" x="8" y="-785" font-family="Helvetica,sans-Serif" font-size="10.00">+</text>
<text text-anchor="start" x="21" y="-785" font-family="Helvetica,sans-Serif" font-size="10.00">__toString()</text>
<text text-anchor="start" x="8" y="-770" font-family="Helvetica,sans-Serif" font-size="10.00">+</text>
<text text-anchor="start" x="21" y="-770" font-family="Helvetica,sans-Serif" font-size="10.00">addVelocityToEntity()</text>
<text text-anchor="start" x="8" y="-755" font-family="Helvetica,sans-Serif" font-size="10.00">+</text>
<text text-anchor="start" x="21" y="-755" font-family="Helvetica,sans-Serif" font-size="10.00">asItem()</text>
<text text-anchor="start" x="8" y="-740" font-family="Helvetica,sans-Serif" font-size="10.00">+</text>
<text text-anchor="start" x="21" y="-740" font-family="Helvetica,sans-Serif" font-size="10.00">blocksDirectSkyLight()</text>
<text text-anchor="start" x="8" y="-725" font-family="Helvetica,sans-Serif" font-size="10.00">+</text>
<text text-anchor="start" x="21" y="-725" font-family="Helvetica,sans-Serif" font-size="10.00">burnsForever()</text>
<text text-anchor="start" x="8" y="-710" font-family="Helvetica,sans-Serif" font-size="10.00">+</text>
<text text-anchor="start" x="21" y="-710" font-family="Helvetica,sans-Serif" font-size="10.00">calculateIntercept()</text>
<text text-anchor="start" x="8" y="-695" font-family="Helvetica,sans-Serif" font-size="10.00">+</text>
<text text-anchor="start" x="21" y="-695" font-family="Helvetica,sans-Serif" font-size="10.00">canBeFlowedInto()</text>
<text text-anchor="start" x="8" y="-680" font-family="Helvetica,sans-Serif" font-size="10.00">+</text>
<text text-anchor="start" x="21" y="-680" font-family="Helvetica,sans-Serif" font-size="10.00">canBePlaced()</text>
<text text-anchor="start" x="21" y="-665" font-family="Helvetica,sans-Serif" font-size="10.00">and 60 more...</text>
<text text-anchor="start" x="8" y="-650" font-family="Helvetica,sans-Serif" font-size="10.00">#</text>
<text text-anchor="start" x="21" y="-650" font-family="Helvetica,sans-Serif" font-size="10.00">describeBlockOnlyState()</text>
<text text-anchor="start" x="8" y="-635" font-family="Helvetica,sans-Serif" font-size="10.00">#</text>
<text text-anchor="start" x="21" y="-635" font-family="Helvetica,sans-Serif" font-size="10.00">getAdjacentSupportType()</text>
<text text-anchor="start" x="8" y="-620" font-family="Helvetica,sans-Serif" font-size="10.00">#</text>
<text text-anchor="start" x="21" y="-620" font-family="Helvetica,sans-Serif" font-size="10.00">getXpDropAmount()</text>
<text text-anchor="start" x="8" y="-605" font-family="Helvetica,sans-Serif" font-size="10.00">#</text>
<text text-anchor="start" x="21" y="-605" font-family="Helvetica,sans-Serif" font-size="10.00">recalculateCollisionBoxes()</text>
<polygon fill="#bfbfbf" stroke="#bfbfbf" points="4,-945 4,-945 173,-945 173,-945 4,-945"/>
<polygon fill="#bfbfbf" stroke="#bfbfbf" points="4,-825 4,-825 19,-825 19,-825 4,-825"/>
<polygon fill="#bfbfbf" stroke="#bfbfbf" points="19,-825 19,-825 173,-825 173,-825 19,-825"/>
<polygon fill="none" stroke="#bfbfbf" points="3.5,-598 3.5,-962 172.5,-962 172.5,-598 3.5,-598"/>
</a>
</g>
</g>
<!-- Node5&#45;&gt;Node4 -->
<g id="edge4_Node000004_Node000005" class="edge">
<title>Node5&#45;&gt;Node4</title>
<g id="a_edge4_Node000004_Node000005"><a xlink:title=" ">
<path fill="none" stroke="#63b8ff" d="M88,-587.93C88,-578.2 88,-569.44 88,-562.09"/>
<polygon fill="none" stroke="#63b8ff" points="84.5,-587.95 88,-597.95 91.5,-587.95 84.5,-587.95"/>
</a>
</g>
</g>
<!-- Node6 -->
<g id="Node000006" class="node">
<title>Node6</title>
<g id="a_Node000006"><a xlink:href="../../d0/df3/interfacepocketmine_1_1block_1_1utils_1_1_wood_material.html" target="_top" xlink:title=" ">
<polygon fill="white" stroke="transparent" points="314.5,-201 193.5,-201 193.5,-141 314.5,-141 314.5,-201"/>
<text text-anchor="start" x="199" y="-189" font-family="Helvetica,sans-Serif" font-size="10.00">pocketmine\block\utils</text>
<text text-anchor="start" x="219" y="-178" font-family="Helvetica,sans-Serif" font-size="10.00">\WoodMaterial</text>
<text text-anchor="start" x="252.5" y="-163" font-family="Helvetica,sans-Serif" font-size="10.00"> </text>
<text text-anchor="start" x="204.5" y="-148" font-family="Helvetica,sans-Serif" font-size="10.00">+</text>
<text text-anchor="start" x="224" y="-148" font-family="Helvetica,sans-Serif" font-size="10.00">getWoodType()</text>
<polygon fill="#bfbfbf" stroke="#bfbfbf" points="194,-173 194,-173 315,-173 315,-173 194,-173"/>
<polygon fill="#bfbfbf" stroke="#bfbfbf" points="194,-158 194,-158 315,-158 315,-158 194,-158"/>
<polygon fill="none" stroke="#bfbfbf" points="193.5,-141 193.5,-201 314.5,-201 314.5,-141 193.5,-141"/>
</a>
</g>
</g>
<!-- Node6&#45;&gt;Node1 -->
<g id="edge5_Node000001_Node000006" class="edge">
<title>Node6&#45;&gt;Node1</title>
<g id="a_edge5_Node000001_Node000006"><a xlink:title=" ">
<path fill="none" stroke="#63b8ff" d="M230.21,-132.31C218.87,-114.35 205.37,-92.95 194.12,-75.13"/>
<polygon fill="none" stroke="#63b8ff" points="227.28,-134.23 235.58,-140.82 233.2,-130.49 227.28,-134.23"/>
</a>
</g>
</g>
</g>
</svg>
