<?xml version="1.0" encoding="UTF-8" standalone="no"?>
<!DOCTYPE svg PUBLIC "-//W3C//DTD SVG 1.1//EN"
 "http://www.w3.org/Graphics/SVG/1.1/DTD/svg11.dtd">
<!-- Generated by graphviz version 2.43.0 (0)
 -->
<!-- Title: pocketmine\block\Ice Pages: 1 -->
<svg width="177pt" height="762pt"
 viewBox="0.00 0.00 177.00 762.00" xmlns="http://www.w3.org/2000/svg" xmlns:xlink="http://www.w3.org/1999/xlink">
<g id="graph0" class="graph" transform="scale(1 1) rotate(0) translate(4 758)">
<title>pocketmine\block\Ice</title>
<!-- Node1 -->
<g id="Node000001" class="node">
<title>Node1</title>
<g id="a_Node000001"><a xlink:title=" ">
<polygon fill="#999999" stroke="transparent" points="166.5,-269 2.5,-269 2.5,-130 166.5,-130 166.5,-269"/>
<text text-anchor="start" x="32.5" y="-256.5" font-family="Helvetica,sans-Serif" font-size="10.00">pocketmine\block\Ice</text>
<text text-anchor="start" x="82.5" y="-241.5" font-family="Helvetica,sans-Serif" font-size="10.00"> </text>
<text text-anchor="start" x="6.5" y="-226.5" font-family="Helvetica,sans-Serif" font-size="10.00">+</text>
<text text-anchor="start" x="19.5" y="-226.5" font-family="Helvetica,sans-Serif" font-size="10.00">getDropsForCompatibleTool()</text>
<text text-anchor="start" x="6.5" y="-211.5" font-family="Helvetica,sans-Serif" font-size="10.00">+</text>
<text text-anchor="start" x="19.5" y="-211.5" font-family="Helvetica,sans-Serif" font-size="10.00">getFrictionFactor()</text>
<text text-anchor="start" x="6.5" y="-196.5" font-family="Helvetica,sans-Serif" font-size="10.00">+</text>
<text text-anchor="start" x="19.5" y="-196.5" font-family="Helvetica,sans-Serif" font-size="10.00">getLightFilter()</text>
<text text-anchor="start" x="6.5" y="-181.5" font-family="Helvetica,sans-Serif" font-size="10.00">+</text>
<text text-anchor="start" x="19.5" y="-181.5" font-family="Helvetica,sans-Serif" font-size="10.00">isAffectedBySilkTouch()</text>
<text text-anchor="start" x="6.5" y="-166.5" font-family="Helvetica,sans-Serif" font-size="10.00">+</text>
<text text-anchor="start" x="19.5" y="-166.5" font-family="Helvetica,sans-Serif" font-size="10.00">onBreak()</text>
<text text-anchor="start" x="6.5" y="-151.5" font-family="Helvetica,sans-Serif" font-size="10.00">+</text>
<text text-anchor="start" x="19.5" y="-151.5" font-family="Helvetica,sans-Serif" font-size="10.00">onRandomTick()</text>
<text text-anchor="start" x="6.5" y="-136.5" font-family="Helvetica,sans-Serif" font-size="10.00">+</text>
<text text-anchor="start" x="19.5" y="-136.5" font-family="Helvetica,sans-Serif" font-size="10.00">ticksRandomly()</text>
<polygon fill="#666666" stroke="#666666" points="2.5,-251.5 2.5,-251.5 166.5,-251.5 166.5,-251.5 2.5,-251.5"/>
<polygon fill="#666666" stroke="#666666" points="2.5,-236.5 2.5,-236.5 166.5,-236.5 166.5,-236.5 2.5,-236.5"/>
<polygon fill="none" stroke="#666666" points="2.5,-130 2.5,-269 166.5,-269 166.5,-130 2.5,-130"/>
</a>
</g>
</g>
<!-- Node4 -->
<g id="Node000004" class="node">
<title>Node4</title>
<g id="a_Node000004"><a xlink:href="../../d9/d1a/classpocketmine_1_1block_1_1_frosted_ice.html" target="_top" xlink:title=" ">
<polygon fill="white" stroke="transparent" points="159.5,-94 9.5,-94 9.5,0 159.5,0 159.5,-94"/>
<text text-anchor="start" x="14.5" y="-82" font-family="Helvetica,sans-Serif" font-size="10.00">pocketmine\block\FrostedIce</text>
<text text-anchor="start" x="16" y="-67" font-family="Helvetica,sans-Serif" font-size="10.00">+</text>
<text text-anchor="start" x="31.5" y="-67" font-family="Helvetica,sans-Serif" font-size="10.00">MAX_AGE</text>
<text text-anchor="start" x="16" y="-52" font-family="Helvetica,sans-Serif" font-size="10.00">+</text>
<text text-anchor="start" x="31.5" y="-52" font-family="Helvetica,sans-Serif" font-size="10.00">isAffectedBySilkTouch()</text>
<text text-anchor="start" x="16" y="-37" font-family="Helvetica,sans-Serif" font-size="10.00">+</text>
<text text-anchor="start" x="31.5" y="-37" font-family="Helvetica,sans-Serif" font-size="10.00">onNearbyBlockChange()</text>
<text text-anchor="start" x="16" y="-22" font-family="Helvetica,sans-Serif" font-size="10.00">+</text>
<text text-anchor="start" x="31.5" y="-22" font-family="Helvetica,sans-Serif" font-size="10.00">onRandomTick()</text>
<text text-anchor="start" x="16" y="-7" font-family="Helvetica,sans-Serif" font-size="10.00">+</text>
<text text-anchor="start" x="31.5" y="-7" font-family="Helvetica,sans-Serif" font-size="10.00">onScheduledUpdate()</text>
<polygon fill="#bfbfbf" stroke="#bfbfbf" points="9.5,-77 9.5,-77 159.5,-77 159.5,-77 9.5,-77"/>
<polygon fill="#bfbfbf" stroke="#bfbfbf" points="9.5,-62 9.5,-62 29.5,-62 29.5,-62 9.5,-62"/>
<polygon fill="#bfbfbf" stroke="#bfbfbf" points="29.5,-62 29.5,-62 159.5,-62 159.5,-62 29.5,-62"/>
<polygon fill="none" stroke="#bfbfbf" points="9.5,0 9.5,-94 159.5,-94 159.5,0 9.5,0"/>
</a>
</g>
</g>
<!-- Node1&#45;&gt;Node4 -->
<g id="edge3_Node000001_Node000004" class="edge">
<title>Node1&#45;&gt;Node4</title>
<g id="a_edge3_Node000001_Node000004"><a xlink:title=" ">
<path fill="none" stroke="#63b8ff" d="M84.5,-119.63C84.5,-110.91 84.5,-102.26 84.5,-94.15"/>
<polygon fill="none" stroke="#63b8ff" points="81,-119.86 84.5,-129.86 88,-119.86 81,-119.86"/>
</a>
</g>
</g>
<!-- Node2 -->
<g id="Node000002" class="node">
<title>Node2</title>
<g id="a_Node000002"><a xlink:href="../../d5/d1b/classpocketmine_1_1block_1_1_transparent.html" target="_top" xlink:title=" ">
<polygon fill="white" stroke="transparent" points="163,-354 6,-354 6,-305 163,-305 163,-354"/>
<text text-anchor="start" x="11.5" y="-341.5" font-family="Helvetica,sans-Serif" font-size="10.00">pocketmine\block\Transparent</text>
<text text-anchor="start" x="83" y="-326.5" font-family="Helvetica,sans-Serif" font-size="10.00"> </text>
<text text-anchor="start" x="26" y="-311.5" font-family="Helvetica,sans-Serif" font-size="10.00">+</text>
<text text-anchor="start" x="54.5" y="-311.5" font-family="Helvetica,sans-Serif" font-size="10.00">isTransparent()</text>
<polygon fill="#666666" stroke="#666666" points="6.5,-336.5 6.5,-336.5 163.5,-336.5 163.5,-336.5 6.5,-336.5"/>
<polygon fill="#666666" stroke="#666666" points="6.5,-321.5 6.5,-321.5 163.5,-321.5 163.5,-321.5 6.5,-321.5"/>
<polygon fill="none" stroke="#666666" points="6,-305 6,-354 163,-354 163,-305 6,-305"/>
</a>
</g>
</g>
<!-- Node2&#45;&gt;Node1 -->
<g id="edge1_Node000001_Node000002" class="edge">
<title>Node2&#45;&gt;Node1</title>
<g id="a_edge1_Node000001_Node000002"><a xlink:title=" ">
<path fill="none" stroke="#63b8ff" d="M84.5,-294.48C84.5,-286.57 84.5,-277.86 84.5,-269.04"/>
<polygon fill="none" stroke="#63b8ff" points="81,-294.72 84.5,-304.72 88,-294.72 81,-294.72"/>
</a>
</g>
</g>
<!-- Node3 -->
<g id="Node000003" class="node">
<title>Node3</title>
<g id="a_Node000003"><a xlink:href="../../d7/d27/classpocketmine_1_1block_1_1_block.html" target="_top" xlink:title=" ">
<polygon fill="white" stroke="transparent" points="169,-754 0,-754 0,-390 169,-390 169,-754"/>
<text text-anchor="start" x="26.5" y="-742" font-family="Helvetica,sans-Serif" font-size="10.00">pocketmine\block\Block</text>
<text text-anchor="start" x="4.5" y="-727" font-family="Helvetica,sans-Serif" font-size="10.00">+</text>
<text text-anchor="start" x="17.5" y="-727" font-family="Helvetica,sans-Serif" font-size="10.00">EMPTY_STATE_ID</text>
<text text-anchor="start" x="4.5" y="-712" font-family="Helvetica,sans-Serif" font-size="10.00">+</text>
<text text-anchor="start" x="17.5" y="-712" font-family="Helvetica,sans-Serif" font-size="10.00">INTERNAL_STATE_DATA_BITS</text>
<text text-anchor="start" x="4.5" y="-697" font-family="Helvetica,sans-Serif" font-size="10.00">+</text>
<text text-anchor="start" x="17.5" y="-697" font-family="Helvetica,sans-Serif" font-size="10.00">INTERNAL_STATE_DATA_MASK</text>
<text text-anchor="start" x="4.5" y="-682" font-family="Helvetica,sans-Serif" font-size="10.00">#</text>
<text text-anchor="start" x="17.5" y="-682" font-family="Helvetica,sans-Serif" font-size="10.00">$collisionBoxes</text>
<text text-anchor="start" x="4.5" y="-667" font-family="Helvetica,sans-Serif" font-size="10.00">#</text>
<text text-anchor="start" x="17.5" y="-667" font-family="Helvetica,sans-Serif" font-size="10.00">$fallbackName</text>
<text text-anchor="start" x="4.5" y="-652" font-family="Helvetica,sans-Serif" font-size="10.00">#</text>
<text text-anchor="start" x="17.5" y="-652" font-family="Helvetica,sans-Serif" font-size="10.00">$idInfo</text>
<text text-anchor="start" x="4.5" y="-637" font-family="Helvetica,sans-Serif" font-size="10.00">#</text>
<text text-anchor="start" x="17.5" y="-637" font-family="Helvetica,sans-Serif" font-size="10.00">$position</text>
<text text-anchor="start" x="4.5" y="-622" font-family="Helvetica,sans-Serif" font-size="10.00">#</text>
<text text-anchor="start" x="17.5" y="-622" font-family="Helvetica,sans-Serif" font-size="10.00">$typeInfo</text>
<text text-anchor="start" x="4.5" y="-607" font-family="Helvetica,sans-Serif" font-size="10.00">+</text>
<text text-anchor="start" x="17.5" y="-607" font-family="Helvetica,sans-Serif" font-size="10.00">__construct()</text>
<text text-anchor="start" x="4.5" y="-592" font-family="Helvetica,sans-Serif" font-size="10.00">+</text>
<text text-anchor="start" x="17.5" y="-592" font-family="Helvetica,sans-Serif" font-size="10.00">__clone()</text>
<text text-anchor="start" x="4.5" y="-577" font-family="Helvetica,sans-Serif" font-size="10.00">+</text>
<text text-anchor="start" x="17.5" y="-577" font-family="Helvetica,sans-Serif" font-size="10.00">__toString()</text>
<text text-anchor="start" x="4.5" y="-562" font-family="Helvetica,sans-Serif" font-size="10.00">+</text>
<text text-anchor="start" x="17.5" y="-562" font-family="Helvetica,sans-Serif" font-size="10.00">addVelocityToEntity()</text>
<text text-anchor="start" x="4.5" y="-547" font-family="Helvetica,sans-Serif" font-size="10.00">+</text>
<text text-anchor="start" x="17.5" y="-547" font-family="Helvetica,sans-Serif" font-size="10.00">asItem()</text>
<text text-anchor="start" x="4.5" y="-532" font-family="Helvetica,sans-Serif" font-size="10.00">+</text>
<text text-anchor="start" x="17.5" y="-532" font-family="Helvetica,sans-Serif" font-size="10.00">blocksDirectSkyLight()</text>
<text text-anchor="start" x="4.5" y="-517" font-family="Helvetica,sans-Serif" font-size="10.00">+</text>
<text text-anchor="start" x="17.5" y="-517" font-family="Helvetica,sans-Serif" font-size="10.00">burnsForever()</text>
<text text-anchor="start" x="4.5" y="-502" font-family="Helvetica,sans-Serif" font-size="10.00">+</text>
<text text-anchor="start" x="17.5" y="-502" font-family="Helvetica,sans-Serif" font-size="10.00">calculateIntercept()</text>
<text text-anchor="start" x="4.5" y="-487" font-family="Helvetica,sans-Serif" font-size="10.00">+</text>
<text text-anchor="start" x="17.5" y="-487" font-family="Helvetica,sans-Serif" font-size="10.00">canBeFlowedInto()</text>
<text text-anchor="start" x="4.5" y="-472" font-family="Helvetica,sans-Serif" font-size="10.00">+</text>
<text text-anchor="start" x="17.5" y="-472" font-family="Helvetica,sans-Serif" font-size="10.00">canBePlaced()</text>
<text text-anchor="start" x="17.5" y="-457" font-family="Helvetica,sans-Serif" font-size="10.00">and 60 more...</text>
<text text-anchor="start" x="4.5" y="-442" font-family="Helvetica,sans-Serif" font-size="10.00">#</text>
<text text-anchor="start" x="17.5" y="-442" font-family="Helvetica,sans-Serif" font-size="10.00">describeBlockOnlyState()</text>
<text text-anchor="start" x="4.5" y="-427" font-family="Helvetica,sans-Serif" font-size="10.00">#</text>
<text text-anchor="start" x="17.5" y="-427" font-family="Helvetica,sans-Serif" font-size="10.00">getAdjacentSupportType()</text>
<text text-anchor="start" x="4.5" y="-412" font-family="Helvetica,sans-Serif" font-size="10.00">#</text>
<text text-anchor="start" x="17.5" y="-412" font-family="Helvetica,sans-Serif" font-size="10.00">getXpDropAmount()</text>
<text text-anchor="start" x="4.5" y="-397" font-family="Helvetica,sans-Serif" font-size="10.00">#</text>
<text text-anchor="start" x="17.5" y="-397" font-family="Helvetica,sans-Serif" font-size="10.00">recalculateCollisionBoxes()</text>
<polygon fill="#bfbfbf" stroke="#bfbfbf" points="0.5,-737 0.5,-737 169.5,-737 169.5,-737 0.5,-737"/>
<polygon fill="#bfbfbf" stroke="#bfbfbf" points="0.5,-617 0.5,-617 15.5,-617 15.5,-617 0.5,-617"/>
<polygon fill="#bfbfbf" stroke="#bfbfbf" points="15.5,-617 15.5,-617 169.5,-617 169.5,-617 15.5,-617"/>
<polygon fill="none" stroke="#bfbfbf" points="0,-390 0,-754 169,-754 169,-390 0,-390"/>
</a>
</g>
</g>
<!-- Node3&#45;&gt;Node2 -->
<g id="edge2_Node000002_Node000003" class="edge">
<title>Node3&#45;&gt;Node2</title>
<g id="a_edge2_Node000002_Node000003"><a xlink:title=" ">
<path fill="none" stroke="#63b8ff" d="M84.5,-379.93C84.5,-370.2 84.5,-361.44 84.5,-354.09"/>
<polygon fill="none" stroke="#63b8ff" points="81,-379.95 84.5,-389.95 88,-379.95 81,-379.95"/>
</a>
</g>
</g>
</g>
</svg>
