<?xml version="1.0" encoding="UTF-8" standalone="no"?>
<!DOCTYPE svg PUBLIC "-//W3C//DTD SVG 1.1//EN"
 "http://www.w3.org/Graphics/SVG/1.1/DTD/svg11.dtd">
<!-- Generated by graphviz version 2.43.0 (0)
 -->
<!-- Title: pocketmine\network\mcpe\protocol\types\login\JwtBodyRfc7519 Pages: 1 -->
<svg width="550pt" height="411pt"
 viewBox="0.00 0.00 549.50 411.00" xmlns="http://www.w3.org/2000/svg" xmlns:xlink="http://www.w3.org/1999/xlink">
<g id="graph0" class="graph" transform="scale(1 1) rotate(0) translate(4 407)">
<title>pocketmine\network\mcpe\protocol\types\login\JwtBodyRfc7519</title>
<!-- Node1 -->
<g id="Node000001" class="node">
<title>Node1</title>
<g id="a_Node000001"><a xlink:title=" ">
<polygon fill="#999999" stroke="transparent" points="335.5,-403 215.5,-403 215.5,-242 335.5,-242 335.5,-403"/>
<text text-anchor="start" x="220.5" y="-390.5" font-family="Helvetica,sans-Serif" font-size="10.00">pocketmine\network</text>
<text text-anchor="start" x="220.5" y="-379.5" font-family="Helvetica,sans-Serif" font-size="10.00">\mcpe\protocol\types</text>
<text text-anchor="start" x="220.5" y="-368.5" font-family="Helvetica,sans-Serif" font-size="10.00">\login\JwtBodyRfc7519</text>
<text text-anchor="start" x="238" y="-353.5" font-family="Helvetica,sans-Serif" font-size="10.00">+</text>
<text text-anchor="start" x="269.5" y="-353.5" font-family="Helvetica,sans-Serif" font-size="10.00">$aud</text>
<text text-anchor="start" x="238" y="-338.5" font-family="Helvetica,sans-Serif" font-size="10.00">+</text>
<text text-anchor="start" x="269.5" y="-338.5" font-family="Helvetica,sans-Serif" font-size="10.00">$exp</text>
<text text-anchor="start" x="238" y="-323.5" font-family="Helvetica,sans-Serif" font-size="10.00">+</text>
<text text-anchor="start" x="269.5" y="-323.5" font-family="Helvetica,sans-Serif" font-size="10.00">$iat</text>
<text text-anchor="start" x="238" y="-308.5" font-family="Helvetica,sans-Serif" font-size="10.00">+</text>
<text text-anchor="start" x="269.5" y="-308.5" font-family="Helvetica,sans-Serif" font-size="10.00">$iss</text>
<text text-anchor="start" x="238" y="-293.5" font-family="Helvetica,sans-Serif" font-size="10.00">+</text>
<text text-anchor="start" x="269.5" y="-293.5" font-family="Helvetica,sans-Serif" font-size="10.00">$jti</text>
<text text-anchor="start" x="238" y="-278.5" font-family="Helvetica,sans-Serif" font-size="10.00">+</text>
<text text-anchor="start" x="269.5" y="-278.5" font-family="Helvetica,sans-Serif" font-size="10.00">$nbf</text>
<text text-anchor="start" x="238" y="-263.5" font-family="Helvetica,sans-Serif" font-size="10.00">+</text>
<text text-anchor="start" x="269.5" y="-263.5" font-family="Helvetica,sans-Serif" font-size="10.00">$sub</text>
<text text-anchor="start" x="273.5" y="-248.5" font-family="Helvetica,sans-Serif" font-size="10.00"> </text>
<polygon fill="#666666" stroke="#666666" points="215.5,-363.5 215.5,-363.5 335.5,-363.5 335.5,-363.5 215.5,-363.5"/>
<polygon fill="#666666" stroke="#666666" points="215.5,-258.5 215.5,-258.5 267.5,-258.5 267.5,-258.5 215.5,-258.5"/>
<polygon fill="#666666" stroke="#666666" points="267.5,-258.5 267.5,-258.5 335.5,-258.5 335.5,-258.5 267.5,-258.5"/>
<polygon fill="none" stroke="#666666" points="215.5,-242 215.5,-403 335.5,-403 335.5,-242 215.5,-242"/>
</a>
</g>
</g>
<!-- Node2 -->
<g id="Node000002" class="node">
<title>Node2</title>
<g id="a_Node000002"><a xlink:href="../../db/d48/classpocketmine_1_1network_1_1mcpe_1_1protocol_1_1types_1_1login_1_1legacy_1_1_legacy_auth_jwt_body.html" target="_top" xlink:title=" ">
<polygon fill="white" stroke="transparent" points="173,-138.5 0,-138.5 0,-67.5 173,-67.5 173,-138.5"/>
<text text-anchor="start" x="5.5" y="-126" font-family="Helvetica,sans-Serif" font-size="10.00">pocketmine\network</text>
<text text-anchor="start" x="5.5" y="-115" font-family="Helvetica,sans-Serif" font-size="10.00">\mcpe\protocol\types</text>
<text text-anchor="start" x="5.5" y="-104" font-family="Helvetica,sans-Serif" font-size="10.00">\login\legacy\LegacyAuthJwtBody</text>
<text text-anchor="start" x="19.5" y="-89" font-family="Helvetica,sans-Serif" font-size="10.00">+</text>
<text text-anchor="start" x="47.5" y="-89" font-family="Helvetica,sans-Serif" font-size="10.00">$identityPublicKey</text>
<text text-anchor="start" x="85" y="-74" font-family="Helvetica,sans-Serif" font-size="10.00"> </text>
<polygon fill="#666666" stroke="#666666" points="0.5,-99 0.5,-99 173.5,-99 173.5,-99 0.5,-99"/>
<polygon fill="#666666" stroke="#666666" points="0.5,-84 0.5,-84 45.5,-84 45.5,-84 0.5,-84"/>
<polygon fill="#666666" stroke="#666666" points="45.5,-84 45.5,-84 173.5,-84 173.5,-84 45.5,-84"/>
<polygon fill="none" stroke="#666666" points="0,-67.5 0,-138.5 173,-138.5 173,-67.5 0,-67.5"/>
</a>
</g>
</g>
<!-- Node1&#45;&gt;Node2 -->
<g id="edge1_Node000001_Node000002" class="edge">
<title>Node1&#45;&gt;Node2</title>
<g id="a_edge1_Node000001_Node000002"><a xlink:title=" ">
<path fill="none" stroke="#63b8ff" d="M208.79,-244.73C177.29,-208.48 141.27,-167.02 116.52,-138.55"/>
<polygon fill="none" stroke="#63b8ff" points="206.24,-247.13 215.44,-252.38 211.52,-242.54 206.24,-247.13"/>
</a>
</g>
</g>
<!-- Node3 -->
<g id="Node000003" class="node">
<title>Node3</title>
<g id="a_Node000003"><a xlink:href="../../d1/dd3/classpocketmine_1_1network_1_1mcpe_1_1protocol_1_1types_1_1login_1_1openid_1_1_self_signed_jwt_body.html" target="_top" xlink:title=" ">
<polygon fill="white" stroke="transparent" points="359.5,-206 191.5,-206 191.5,0 359.5,0 359.5,-206"/>
<text text-anchor="start" x="196.5" y="-194" font-family="Helvetica,sans-Serif" font-size="10.00">pocketmine\network</text>
<text text-anchor="start" x="196.5" y="-183" font-family="Helvetica,sans-Serif" font-size="10.00">\mcpe\protocol\types</text>
<text text-anchor="start" x="196.5" y="-172" font-family="Helvetica,sans-Serif" font-size="10.00">\login\openid\SelfSignedJwtBody</text>
<text text-anchor="start" x="221.5" y="-157" font-family="Helvetica,sans-Serif" font-size="10.00">+</text>
<text text-anchor="start" x="260.5" y="-157" font-family="Helvetica,sans-Serif" font-size="10.00">$ap</text>
<text text-anchor="start" x="221.5" y="-142" font-family="Helvetica,sans-Serif" font-size="10.00">+</text>
<text text-anchor="start" x="260.5" y="-142" font-family="Helvetica,sans-Serif" font-size="10.00">$cpk</text>
<text text-anchor="start" x="221.5" y="-127" font-family="Helvetica,sans-Serif" font-size="10.00">+</text>
<text text-anchor="start" x="260.5" y="-127" font-family="Helvetica,sans-Serif" font-size="10.00">$leguuid</text>
<text text-anchor="start" x="221.5" y="-112" font-family="Helvetica,sans-Serif" font-size="10.00">+</text>
<text text-anchor="start" x="260.5" y="-112" font-family="Helvetica,sans-Serif" font-size="10.00">$mid</text>
<text text-anchor="start" x="221.5" y="-97" font-family="Helvetica,sans-Serif" font-size="10.00">+</text>
<text text-anchor="start" x="260.5" y="-97" font-family="Helvetica,sans-Serif" font-size="10.00">$nid</text>
<text text-anchor="start" x="221.5" y="-82" font-family="Helvetica,sans-Serif" font-size="10.00">+</text>
<text text-anchor="start" x="260.5" y="-82" font-family="Helvetica,sans-Serif" font-size="10.00">$nname</text>
<text text-anchor="start" x="221.5" y="-67" font-family="Helvetica,sans-Serif" font-size="10.00">+</text>
<text text-anchor="start" x="260.5" y="-67" font-family="Helvetica,sans-Serif" font-size="10.00">$pid</text>
<text text-anchor="start" x="221.5" y="-52" font-family="Helvetica,sans-Serif" font-size="10.00">+</text>
<text text-anchor="start" x="260.5" y="-52" font-family="Helvetica,sans-Serif" font-size="10.00">$pname</text>
<text text-anchor="start" x="221.5" y="-37" font-family="Helvetica,sans-Serif" font-size="10.00">+</text>
<text text-anchor="start" x="260.5" y="-37" font-family="Helvetica,sans-Serif" font-size="10.00">$xid</text>
<text text-anchor="start" x="221.5" y="-22" font-family="Helvetica,sans-Serif" font-size="10.00">+</text>
<text text-anchor="start" x="260.5" y="-22" font-family="Helvetica,sans-Serif" font-size="10.00">$xname</text>
<text text-anchor="start" x="273.5" y="-7" font-family="Helvetica,sans-Serif" font-size="10.00"> </text>
<polygon fill="#666666" stroke="#666666" points="191.5,-167 191.5,-167 359.5,-167 359.5,-167 191.5,-167"/>
<polygon fill="#666666" stroke="#666666" points="191.5,-17 191.5,-17 258.5,-17 258.5,-17 191.5,-17"/>
<polygon fill="#666666" stroke="#666666" points="258.5,-17 258.5,-17 359.5,-17 359.5,-17 258.5,-17"/>
<polygon fill="none" stroke="#666666" points="191.5,0 191.5,-206 359.5,-206 359.5,0 191.5,0"/>
</a>
</g>
</g>
<!-- Node1&#45;&gt;Node3 -->
<g id="edge2_Node000001_Node000003" class="edge">
<title>Node1&#45;&gt;Node3</title>
<g id="a_edge2_Node000001_Node000003"><a xlink:title=" ">
<path fill="none" stroke="#63b8ff" d="M275.5,-231.65C275.5,-223.31 275.5,-214.81 275.5,-206.36"/>
<polygon fill="none" stroke="#63b8ff" points="272,-231.75 275.5,-241.75 279,-231.75 272,-231.75"/>
</a>
</g>
</g>
<!-- Node4 -->
<g id="Node000004" class="node">
<title>Node4</title>
<g id="a_Node000004"><a xlink:href="../../d4/ddd/classpocketmine_1_1network_1_1mcpe_1_1protocol_1_1types_1_1login_1_1openid_1_1_xbox_auth_jwt_body.html" target="_top" xlink:title=" ">
<polygon fill="white" stroke="transparent" points="541.5,-206 377.5,-206 377.5,0 541.5,0 541.5,-206"/>
<text text-anchor="start" x="382.5" y="-194" font-family="Helvetica,sans-Serif" font-size="10.00">pocketmine\network</text>
<text text-anchor="start" x="382.5" y="-183" font-family="Helvetica,sans-Serif" font-size="10.00">\mcpe\protocol\types</text>
<text text-anchor="start" x="382.5" y="-172" font-family="Helvetica,sans-Serif" font-size="10.00">\login\openid\XboxAuthJwtBody</text>
<text text-anchor="start" x="407" y="-157" font-family="Helvetica,sans-Serif" font-size="10.00">+</text>
<text text-anchor="start" x="445.5" y="-157" font-family="Helvetica,sans-Serif" font-size="10.00">$ap</text>
<text text-anchor="start" x="407" y="-142" font-family="Helvetica,sans-Serif" font-size="10.00">+</text>
<text text-anchor="start" x="445.5" y="-142" font-family="Helvetica,sans-Serif" font-size="10.00">$cpk</text>
<text text-anchor="start" x="407" y="-127" font-family="Helvetica,sans-Serif" font-size="10.00">+</text>
<text text-anchor="start" x="445.5" y="-127" font-family="Helvetica,sans-Serif" font-size="10.00">$ipt</text>
<text text-anchor="start" x="407" y="-112" font-family="Helvetica,sans-Serif" font-size="10.00">+</text>
<text text-anchor="start" x="445.5" y="-112" font-family="Helvetica,sans-Serif" font-size="10.00">$mid</text>
<text text-anchor="start" x="407" y="-97" font-family="Helvetica,sans-Serif" font-size="10.00">+</text>
<text text-anchor="start" x="445.5" y="-97" font-family="Helvetica,sans-Serif" font-size="10.00">$pfcd</text>
<text text-anchor="start" x="407" y="-82" font-family="Helvetica,sans-Serif" font-size="10.00">+</text>
<text text-anchor="start" x="445.5" y="-82" font-family="Helvetica,sans-Serif" font-size="10.00">$pid</text>
<text text-anchor="start" x="407" y="-67" font-family="Helvetica,sans-Serif" font-size="10.00">+</text>
<text text-anchor="start" x="445.5" y="-67" font-family="Helvetica,sans-Serif" font-size="10.00">$pname</text>
<text text-anchor="start" x="407" y="-52" font-family="Helvetica,sans-Serif" font-size="10.00">+</text>
<text text-anchor="start" x="445.5" y="-52" font-family="Helvetica,sans-Serif" font-size="10.00">$tid</text>
<text text-anchor="start" x="407" y="-37" font-family="Helvetica,sans-Serif" font-size="10.00">+</text>
<text text-anchor="start" x="445.5" y="-37" font-family="Helvetica,sans-Serif" font-size="10.00">$xid</text>
<text text-anchor="start" x="407" y="-22" font-family="Helvetica,sans-Serif" font-size="10.00">+</text>
<text text-anchor="start" x="445.5" y="-22" font-family="Helvetica,sans-Serif" font-size="10.00">$xname</text>
<text text-anchor="start" x="457.5" y="-7" font-family="Helvetica,sans-Serif" font-size="10.00"> </text>
<polygon fill="#666666" stroke="#666666" points="377.5,-167 377.5,-167 541.5,-167 541.5,-167 377.5,-167"/>
<polygon fill="#666666" stroke="#666666" points="377.5,-17 377.5,-17 443.5,-17 443.5,-17 377.5,-17"/>
<polygon fill="#666666" stroke="#666666" points="443.5,-17 443.5,-17 541.5,-17 541.5,-17 443.5,-17"/>
<polygon fill="none" stroke="#666666" points="377.5,0 377.5,-206 541.5,-206 541.5,0 377.5,0"/>
</a>
</g>
</g>
<!-- Node1&#45;&gt;Node4 -->
<g id="edge3_Node000001_Node000004" class="edge">
<title>Node1&#45;&gt;Node4</title>
<g id="a_edge3_Node000001_Node000004"><a xlink:title=" ">
<path fill="none" stroke="#63b8ff" d="M342.38,-242.45C353.75,-229 365.68,-214.9 377.39,-201.06"/>
<polygon fill="none" stroke="#63b8ff" points="339.54,-240.39 335.75,-250.28 344.88,-244.91 339.54,-240.39"/>
</a>
</g>
</g>
</g>
</svg>
