<?xml version="1.0" encoding="UTF-8" standalone="no"?>
<!DOCTYPE svg PUBLIC "-//W3C//DTD SVG 1.1//EN"
 "http://www.w3.org/Graphics/SVG/1.1/DTD/svg11.dtd">
<!-- Generated by graphviz version 2.43.0 (0)
 -->
<!-- Title: pocketmine\network\mcpe\protocol\CommandOutputPacket Pages: 1 -->
<!--zoomable 769 -->

<svg id="main" version="1.1" xmlns="http://www.w3.org/2000/svg" xmlns:xlink="http://www.w3.org/1999/xlink" xml:space="preserve" onload="init(evt)">

<style type="text/css"><![CDATA[
.node, .edge {opacity: 0.7;}
.node.selected, .edge.selected {opacity: 1;}
.edge:hover path { stroke: red; }
.edge:hover polygon { stroke: red; fill: red; }
]]></style>

<defs>
  <circle id="rim" cx="0" cy="0" r="7"/>
  <circle id="rim2" cx="0" cy="0" r="3.5"/>
  <g id="zoomPlus">
    <use xlink:href="#rim" fill="#404040"><set attributeName="fill" to="#808080" begin="zoomplus.mouseover" end="zoomplus.mouseout"/></use>
    <path d="M-4,0h8M0,-4v8" fill="none" stroke="white" stroke-width="1.5" pointer-events="none"/>
  </g>
  <g id="zoomMin">
    <use xlink:href="#rim" fill="#404040"><set attributeName="fill" to="#808080" begin="zoomminus.mouseover" end="zoomminus.mouseout"/></use>
    <path d="M-4,0h8" fill="none" stroke="white" stroke-width="1.5" pointer-events="none"/>
  </g>
  <g id="arrowUp" transform="translate(30 24)">
    <use xlink:href="#rim"/>
    <path pointer-events="none" fill="none" stroke="white" stroke-width="1.5" d="M0,-3.0v7 M-2.5,-0.5L0,-3.0L2.5,-0.5"/>
  </g>
  <g id="arrowRight" transform="rotate(90) translate(36 -43)">
    <use xlink:href="#rim"/>
    <path pointer-events="none" fill="none" stroke="white" stroke-width="1.5" d="M0,-3.0v7 M-2.5,-0.5L0,-3.0L2.5,-0.5"/>
  </g>
  <g id="arrowDown" transform="rotate(180) translate(-30 -48)">
    <use xlink:href="#rim"/>
    <path pointer-events="none" fill="none" stroke="white" stroke-width="1.5" d="M0,-3.0v7 M-2.5,-0.5L0,-3.0L2.5,-0.5"/>
  </g>
  <g id="arrowLeft" transform="rotate(270) translate(-36 17)">
    <use xlink:href="#rim"/>
    <path pointer-events="none" fill="none" stroke="white" stroke-width="1.5" d="M0,-3.0v7 M-2.5,-0.5L0,-3.0L2.5,-0.5"/>
  </g>
  <g id="resetDef">
    <use xlink:href="#rim2" fill="#404040"><set attributeName="fill" to="#808080" begin="reset.mouseover" end="reset.mouseout"/></use>
  </g>
</defs>
<script type="application/ecmascript">
var viewWidth = 501;
var viewHeight = 769;
var sectionId = 'dynsection-1';
</script>
<script type="application/ecmascript" xlink:href="../../svg.min.js"/>
<svg id="graph" class="graph">
<g id="viewport">
<title>pocketmine\network\mcpe\protocol\CommandOutputPacket</title>
<!-- Node1 -->
<g id="Node000001" class="node">
<title>Node1</title>
<g id="a_Node000001"><a xlink:title=" ">
<polygon fill="#999999" stroke="transparent" points="316.5,-251 146.5,-251 146.5,0 316.5,0 316.5,-251"/>
<text text-anchor="start" x="151.5" y="-238.5" font-family="Helvetica,sans-Serif" font-size="10.00">pocketmine\network</text>
<text text-anchor="start" x="151.5" y="-227.5" font-family="Helvetica,sans-Serif" font-size="10.00">\mcpe\protocol\CommandOutput</text>
<text text-anchor="start" x="215.5" y="-216.5" font-family="Helvetica,sans-Serif" font-size="10.00">Packet</text>
<text text-anchor="start" x="158" y="-201.5" font-family="Helvetica,sans-Serif" font-size="10.00">+</text>
<text text-anchor="start" x="178.5" y="-201.5" font-family="Helvetica,sans-Serif" font-size="10.00">$messages</text>
<text text-anchor="start" x="158" y="-186.5" font-family="Helvetica,sans-Serif" font-size="10.00">+</text>
<text text-anchor="start" x="178.5" y="-186.5" font-family="Helvetica,sans-Serif" font-size="10.00">$outputType</text>
<text text-anchor="start" x="158" y="-171.5" font-family="Helvetica,sans-Serif" font-size="10.00">+</text>
<text text-anchor="start" x="178.5" y="-171.5" font-family="Helvetica,sans-Serif" font-size="10.00">$successCount</text>
<text text-anchor="start" x="158" y="-156.5" font-family="Helvetica,sans-Serif" font-size="10.00">+</text>
<text text-anchor="start" x="178.5" y="-156.5" font-family="Helvetica,sans-Serif" font-size="10.00">$unknownString</text>
<text text-anchor="start" x="158" y="-141.5" font-family="Helvetica,sans-Serif" font-size="10.00">+</text>
<text text-anchor="start" x="178.5" y="-141.5" font-family="Helvetica,sans-Serif" font-size="10.00">NETWORK_ID</text>
<text text-anchor="start" x="158" y="-126.5" font-family="Helvetica,sans-Serif" font-size="10.00">+</text>
<text text-anchor="start" x="178.5" y="-126.5" font-family="Helvetica,sans-Serif" font-size="10.00">TYPE_ALL</text>
<text text-anchor="start" x="158" y="-111.5" font-family="Helvetica,sans-Serif" font-size="10.00">+</text>
<text text-anchor="start" x="178.5" y="-111.5" font-family="Helvetica,sans-Serif" font-size="10.00">TYPE_DATA_SET</text>
<text text-anchor="start" x="158" y="-96.5" font-family="Helvetica,sans-Serif" font-size="10.00">+</text>
<text text-anchor="start" x="178.5" y="-96.5" font-family="Helvetica,sans-Serif" font-size="10.00">TYPE_LAST</text>
<text text-anchor="start" x="158" y="-81.5" font-family="Helvetica,sans-Serif" font-size="10.00">+</text>
<text text-anchor="start" x="178.5" y="-81.5" font-family="Helvetica,sans-Serif" font-size="10.00">TYPE_SILENT</text>
<text text-anchor="start" x="158" y="-66.5" font-family="Helvetica,sans-Serif" font-size="10.00">+</text>
<text text-anchor="start" x="178.5" y="-66.5" font-family="Helvetica,sans-Serif" font-size="10.00">handle()</text>
<text text-anchor="start" x="158" y="-51.5" font-family="Helvetica,sans-Serif" font-size="10.00">#</text>
<text text-anchor="start" x="178.5" y="-51.5" font-family="Helvetica,sans-Serif" font-size="10.00">decodePayload()</text>
<text text-anchor="start" x="158" y="-36.5" font-family="Helvetica,sans-Serif" font-size="10.00">#</text>
<text text-anchor="start" x="178.5" y="-36.5" font-family="Helvetica,sans-Serif" font-size="10.00">encodePayload()</text>
<text text-anchor="start" x="158" y="-21.5" font-family="Helvetica,sans-Serif" font-size="10.00">#</text>
<text text-anchor="start" x="178.5" y="-21.5" font-family="Helvetica,sans-Serif" font-size="10.00">getCommandMessage()</text>
<text text-anchor="start" x="158" y="-6.5" font-family="Helvetica,sans-Serif" font-size="10.00">#</text>
<text text-anchor="start" x="178.5" y="-6.5" font-family="Helvetica,sans-Serif" font-size="10.00">putCommandMessage()</text>
<polygon fill="#666666" stroke="#666666" points="146.5,-211.5 146.5,-211.5 316.5,-211.5 316.5,-211.5 146.5,-211.5"/>
<polygon fill="#666666" stroke="#666666" points="146.5,-76.5 146.5,-76.5 176.5,-76.5 176.5,-76.5 146.5,-76.5"/>
<polygon fill="#666666" stroke="#666666" points="176.5,-76.5 176.5,-76.5 316.5,-76.5 316.5,-76.5 176.5,-76.5"/>
<polygon fill="none" stroke="#666666" points="146.5,0 146.5,-251 316.5,-251 316.5,0 146.5,0"/>
</a>
</g>
</g>
<!-- Node2 -->
<g id="Node000002" class="node">
<title>Node2</title>
<g id="a_Node000002"><a xlink:href="../../d1/ddb/classpocketmine_1_1network_1_1mcpe_1_1protocol_1_1_data_packet.html" target="_top" xlink:title=" ">
<polygon fill="white" stroke="transparent" points="141,-566 0,-566 0,-311 141,-311 141,-566"/>
<text text-anchor="start" x="5.5" y="-553.5" font-family="Helvetica,sans-Serif" font-size="10.00">pocketmine\network</text>
<text text-anchor="start" x="5.5" y="-542.5" font-family="Helvetica,sans-Serif" font-size="10.00">\mcpe\protocol\DataPacket</text>
<text text-anchor="start" x="5" y="-527.5" font-family="Helvetica,sans-Serif" font-size="10.00">+</text>
<text text-anchor="start" x="18.5" y="-527.5" font-family="Helvetica,sans-Serif" font-size="10.00">$recipientSubId</text>
<text text-anchor="start" x="5" y="-512.5" font-family="Helvetica,sans-Serif" font-size="10.00">+</text>
<text text-anchor="start" x="18.5" y="-512.5" font-family="Helvetica,sans-Serif" font-size="10.00">$senderSubId</text>
<text text-anchor="start" x="5" y="-497.5" font-family="Helvetica,sans-Serif" font-size="10.00">+</text>
<text text-anchor="start" x="18.5" y="-497.5" font-family="Helvetica,sans-Serif" font-size="10.00">NETWORK_ID</text>
<text text-anchor="start" x="5" y="-482.5" font-family="Helvetica,sans-Serif" font-size="10.00">+</text>
<text text-anchor="start" x="18.5" y="-482.5" font-family="Helvetica,sans-Serif" font-size="10.00">PID_MASK</text>
<text text-anchor="start" x="5" y="-467.5" font-family="Helvetica,sans-Serif" font-size="10.00">+</text>
<text text-anchor="start" x="18.5" y="-467.5" font-family="Helvetica,sans-Serif" font-size="10.00">__get()</text>
<text text-anchor="start" x="5" y="-452.5" font-family="Helvetica,sans-Serif" font-size="10.00">+</text>
<text text-anchor="start" x="18.5" y="-452.5" font-family="Helvetica,sans-Serif" font-size="10.00">__set()</text>
<text text-anchor="start" x="5" y="-437.5" font-family="Helvetica,sans-Serif" font-size="10.00">+</text>
<text text-anchor="start" x="18.5" y="-437.5" font-family="Helvetica,sans-Serif" font-size="10.00">canBeSentBeforeLogin()</text>
<text text-anchor="start" x="5" y="-422.5" font-family="Helvetica,sans-Serif" font-size="10.00">+</text>
<text text-anchor="start" x="18.5" y="-422.5" font-family="Helvetica,sans-Serif" font-size="10.00">decode()</text>
<text text-anchor="start" x="5" y="-407.5" font-family="Helvetica,sans-Serif" font-size="10.00">+</text>
<text text-anchor="start" x="18.5" y="-407.5" font-family="Helvetica,sans-Serif" font-size="10.00">encode()</text>
<text text-anchor="start" x="5" y="-392.5" font-family="Helvetica,sans-Serif" font-size="10.00">+</text>
<text text-anchor="start" x="18.5" y="-392.5" font-family="Helvetica,sans-Serif" font-size="10.00">getName()</text>
<text text-anchor="start" x="5" y="-377.5" font-family="Helvetica,sans-Serif" font-size="10.00">+</text>
<text text-anchor="start" x="18.5" y="-377.5" font-family="Helvetica,sans-Serif" font-size="10.00">pid()</text>
<text text-anchor="start" x="5" y="-362.5" font-family="Helvetica,sans-Serif" font-size="10.00">#</text>
<text text-anchor="start" x="18.5" y="-362.5" font-family="Helvetica,sans-Serif" font-size="10.00">decodeHeader()</text>
<text text-anchor="start" x="5" y="-347.5" font-family="Helvetica,sans-Serif" font-size="10.00">#</text>
<text text-anchor="start" x="18.5" y="-347.5" font-family="Helvetica,sans-Serif" font-size="10.00">decodePayload()</text>
<text text-anchor="start" x="5" y="-332.5" font-family="Helvetica,sans-Serif" font-size="10.00">#</text>
<text text-anchor="start" x="18.5" y="-332.5" font-family="Helvetica,sans-Serif" font-size="10.00">encodeHeader()</text>
<text text-anchor="start" x="5" y="-317.5" font-family="Helvetica,sans-Serif" font-size="10.00">#</text>
<text text-anchor="start" x="18.5" y="-317.5" font-family="Helvetica,sans-Serif" font-size="10.00">encodePayload()</text>
<polygon fill="#bfbfbf" stroke="#bfbfbf" points="0.5,-537.5 0.5,-537.5 141.5,-537.5 141.5,-537.5 0.5,-537.5"/>
<polygon fill="#bfbfbf" stroke="#bfbfbf" points="0.5,-477.5 0.5,-477.5 16.5,-477.5 16.5,-477.5 0.5,-477.5"/>
<polygon fill="#bfbfbf" stroke="#bfbfbf" points="16.5,-477.5 16.5,-477.5 141.5,-477.5 141.5,-477.5 16.5,-477.5"/>
<polygon fill="none" stroke="#bfbfbf" points="0,-311 0,-566 141,-566 141,-311 0,-311"/>
</a>
</g>
</g>
<!-- Node2&#45;&gt;Node1 -->
<g id="edge1_Node000001_Node000002" class="edge">
<title>Node2&#45;&gt;Node1</title>
<g id="a_edge1_Node000001_Node000002"><a xlink:title=" ">
<path fill="none" stroke="#63b8ff" d="M141.01,-301.3C149.66,-284.58 158.47,-267.56 167.03,-251.03"/>
<polygon fill="none" stroke="#63b8ff" points="137.71,-300.07 136.22,-310.56 143.92,-303.28 137.71,-300.07"/>
</a>
</g>
</g>
<!-- Node3 -->
<g id="Node000003" class="node">
<title>Node3</title>
<g id="a_Node000003"><a xlink:href="../../d4/d5d/interfacepocketmine_1_1network_1_1mcpe_1_1protocol_1_1_packet.html" target="_top" xlink:title=" ">
<polygon fill="white" stroke="transparent" points="221,-761 82,-761 82,-626 221,-626 221,-761"/>
<text text-anchor="start" x="98" y="-748.5" font-family="Helvetica,sans-Serif" font-size="10.00">pocketmine\network</text>
<text text-anchor="start" x="98" y="-737.5" font-family="Helvetica,sans-Serif" font-size="10.00">\mcpe\protocol\Packet</text>
<text text-anchor="start" x="150" y="-722.5" font-family="Helvetica,sans-Serif" font-size="10.00"> </text>
<text text-anchor="start" x="86.5" y="-707.5" font-family="Helvetica,sans-Serif" font-size="10.00">+</text>
<text text-anchor="start" x="99.5" y="-707.5" font-family="Helvetica,sans-Serif" font-size="10.00">canBeSentBeforeLogin()</text>
<text text-anchor="start" x="86.5" y="-692.5" font-family="Helvetica,sans-Serif" font-size="10.00">+</text>
<text text-anchor="start" x="99.5" y="-692.5" font-family="Helvetica,sans-Serif" font-size="10.00">decode()</text>
<text text-anchor="start" x="86.5" y="-677.5" font-family="Helvetica,sans-Serif" font-size="10.00">+</text>
<text text-anchor="start" x="99.5" y="-677.5" font-family="Helvetica,sans-Serif" font-size="10.00">encode()</text>
<text text-anchor="start" x="86.5" y="-662.5" font-family="Helvetica,sans-Serif" font-size="10.00">+</text>
<text text-anchor="start" x="99.5" y="-662.5" font-family="Helvetica,sans-Serif" font-size="10.00">getName()</text>
<text text-anchor="start" x="86.5" y="-647.5" font-family="Helvetica,sans-Serif" font-size="10.00">+</text>
<text text-anchor="start" x="99.5" y="-647.5" font-family="Helvetica,sans-Serif" font-size="10.00">handle()</text>
<text text-anchor="start" x="86.5" y="-632.5" font-family="Helvetica,sans-Serif" font-size="10.00">+</text>
<text text-anchor="start" x="99.5" y="-632.5" font-family="Helvetica,sans-Serif" font-size="10.00">pid()</text>
<polygon fill="#bfbfbf" stroke="#bfbfbf" points="82.5,-732.5 82.5,-732.5 221.5,-732.5 221.5,-732.5 82.5,-732.5"/>
<polygon fill="#bfbfbf" stroke="#bfbfbf" points="82.5,-717.5 82.5,-717.5 221.5,-717.5 221.5,-717.5 82.5,-717.5"/>
<polygon fill="none" stroke="#bfbfbf" points="82,-626 82,-761 221,-761 221,-626 82,-626"/>
</a>
</g>
</g>
<!-- Node3&#45;&gt;Node2 -->
<g id="edge2_Node000002_Node000003" class="edge">
<title>Node3&#45;&gt;Node2</title>
<g id="a_edge2_Node000002_Node000003"><a xlink:title=" ">
<path fill="none" stroke="#63b8ff" d="M127.03,-616.08C122,-600.36 116.58,-583.41 111.15,-566.46"/>
<polygon fill="none" stroke="#63b8ff" points="123.73,-617.24 130.11,-625.7 130.4,-615.11 123.73,-617.24"/>
</a>
</g>
</g>
<!-- Node4 -->
<g id="Node000004" class="node">
<title>Node4</title>
<g id="a_Node000004"><a xlink:href="../../da/d77/interfacepocketmine_1_1network_1_1mcpe_1_1protocol_1_1_clientbound_packet.html" target="_top" xlink:title=" ">
<polygon fill="white" stroke="transparent" points="304,-474 159,-474 159,-403 304,-403 304,-474"/>
<text text-anchor="start" x="164.5" y="-461.5" font-family="Helvetica,sans-Serif" font-size="10.00">pocketmine\network</text>
<text text-anchor="start" x="164.5" y="-450.5" font-family="Helvetica,sans-Serif" font-size="10.00">\mcpe\protocol\Clientbound</text>
<text text-anchor="start" x="216" y="-439.5" font-family="Helvetica,sans-Serif" font-size="10.00">Packet</text>
<text text-anchor="start" x="230" y="-424.5" font-family="Helvetica,sans-Serif" font-size="10.00"> </text>
<text text-anchor="start" x="230" y="-409.5" font-family="Helvetica,sans-Serif" font-size="10.00"> </text>
<polygon fill="#bfbfbf" stroke="#bfbfbf" points="159.5,-434.5 159.5,-434.5 304.5,-434.5 304.5,-434.5 159.5,-434.5"/>
<polygon fill="#bfbfbf" stroke="#bfbfbf" points="159.5,-419.5 159.5,-419.5 304.5,-419.5 304.5,-419.5 159.5,-419.5"/>
<polygon fill="none" stroke="#bfbfbf" points="159,-403 159,-474 304,-474 304,-403 159,-403"/>
</a>
</g>
</g>
<!-- Node3&#45;&gt;Node4 -->
<g id="edge4_Node000004_Node000003" class="edge">
<title>Node3&#45;&gt;Node4</title>
<g id="a_edge4_Node000004_Node000003"><a xlink:title=" ">
<path fill="none" stroke="#63b8ff" d="M175.65,-616.12C190.56,-568.96 208.98,-510.72 220.48,-474.34"/>
<polygon fill="none" stroke="#63b8ff" points="172.3,-615.11 172.62,-625.7 178.98,-617.22 172.3,-615.11"/>
</a>
</g>
</g>
<!-- Node4&#45;&gt;Node1 -->
<g id="edge3_Node000001_Node000004" class="edge">
<title>Node4&#45;&gt;Node1</title>
<g id="a_edge3_Node000001_Node000004"><a xlink:title=" ">
<path fill="none" stroke="#63b8ff" d="M231.5,-392.3C231.5,-355.3 231.5,-301.14 231.5,-251.34"/>
<polygon fill="none" stroke="#63b8ff" points="228,-392.73 231.5,-402.73 235,-392.73 228,-392.73"/>
</a>
</g>
</g>
<!-- Node5 -->
<g id="Node000005" class="node">
<title>Node5</title>
<g id="a_Node000005"><a xlink:href="../../d9/dec/classpocketmine_1_1network_1_1mcpe_1_1protocol_1_1types_1_1command_1_1_command_origin_data.html" target="_top" xlink:title=" ">
<polygon fill="white" stroke="transparent" points="493,-579 322,-579 322,-298 493,-298 493,-579"/>
<text text-anchor="start" x="329" y="-566.5" font-family="Helvetica,sans-Serif" font-size="10.00">pocketmine\network</text>
<text text-anchor="start" x="329" y="-555.5" font-family="Helvetica,sans-Serif" font-size="10.00">\mcpe\protocol\types</text>
<text text-anchor="start" x="329" y="-544.5" font-family="Helvetica,sans-Serif" font-size="10.00">\command\CommandOriginData</text>
<text text-anchor="start" x="326.5" y="-529.5" font-family="Helvetica,sans-Serif" font-size="10.00">+</text>
<text text-anchor="start" x="339.5" y="-529.5" font-family="Helvetica,sans-Serif" font-size="10.00">$playerActorUniqueId</text>
<text text-anchor="start" x="326.5" y="-514.5" font-family="Helvetica,sans-Serif" font-size="10.00">+</text>
<text text-anchor="start" x="339.5" y="-514.5" font-family="Helvetica,sans-Serif" font-size="10.00">$requestId</text>
<text text-anchor="start" x="326.5" y="-499.5" font-family="Helvetica,sans-Serif" font-size="10.00">+</text>
<text text-anchor="start" x="339.5" y="-499.5" font-family="Helvetica,sans-Serif" font-size="10.00">$type</text>
<text text-anchor="start" x="326.5" y="-484.5" font-family="Helvetica,sans-Serif" font-size="10.00">+</text>
<text text-anchor="start" x="339.5" y="-484.5" font-family="Helvetica,sans-Serif" font-size="10.00">ORIGIN_AUTOMATION_PLAYER</text>
<text text-anchor="start" x="326.5" y="-469.5" font-family="Helvetica,sans-Serif" font-size="10.00">+</text>
<text text-anchor="start" x="339.5" y="-469.5" font-family="Helvetica,sans-Serif" font-size="10.00">ORIGIN_BLOCK</text>
<text text-anchor="start" x="326.5" y="-454.5" font-family="Helvetica,sans-Serif" font-size="10.00">+</text>
<text text-anchor="start" x="339.5" y="-454.5" font-family="Helvetica,sans-Serif" font-size="10.00">ORIGIN_CLIENT_AUTOMATION</text>
<text text-anchor="start" x="326.5" y="-439.5" font-family="Helvetica,sans-Serif" font-size="10.00">+</text>
<text text-anchor="start" x="339.5" y="-439.5" font-family="Helvetica,sans-Serif" font-size="10.00">ORIGIN_DEDICATED_SERVER</text>
<text text-anchor="start" x="326.5" y="-424.5" font-family="Helvetica,sans-Serif" font-size="10.00">+</text>
<text text-anchor="start" x="339.5" y="-424.5" font-family="Helvetica,sans-Serif" font-size="10.00">ORIGIN_DEV_CONSOLE</text>
<text text-anchor="start" x="326.5" y="-409.5" font-family="Helvetica,sans-Serif" font-size="10.00">+</text>
<text text-anchor="start" x="339.5" y="-409.5" font-family="Helvetica,sans-Serif" font-size="10.00">ORIGIN_ENTITY</text>
<text text-anchor="start" x="326.5" y="-394.5" font-family="Helvetica,sans-Serif" font-size="10.00">+</text>
<text text-anchor="start" x="339.5" y="-394.5" font-family="Helvetica,sans-Serif" font-size="10.00">ORIGIN_ENTITY_SERVER</text>
<text text-anchor="start" x="326.5" y="-379.5" font-family="Helvetica,sans-Serif" font-size="10.00">+</text>
<text text-anchor="start" x="339.5" y="-379.5" font-family="Helvetica,sans-Serif" font-size="10.00">ORIGIN_GAME_ARGUMENT</text>
<text text-anchor="start" x="326.5" y="-364.5" font-family="Helvetica,sans-Serif" font-size="10.00">+</text>
<text text-anchor="start" x="339.5" y="-364.5" font-family="Helvetica,sans-Serif" font-size="10.00">ORIGIN_MINECART_BLOCK</text>
<text text-anchor="start" x="326.5" y="-349.5" font-family="Helvetica,sans-Serif" font-size="10.00">+</text>
<text text-anchor="start" x="339.5" y="-349.5" font-family="Helvetica,sans-Serif" font-size="10.00">ORIGIN_PLAYER</text>
<text text-anchor="start" x="326.5" y="-334.5" font-family="Helvetica,sans-Serif" font-size="10.00">+</text>
<text text-anchor="start" x="339.5" y="-334.5" font-family="Helvetica,sans-Serif" font-size="10.00">ORIGIN_TEST</text>
<text text-anchor="start" x="326.5" y="-319.5" font-family="Helvetica,sans-Serif" font-size="10.00">+</text>
<text text-anchor="start" x="339.5" y="-319.5" font-family="Helvetica,sans-Serif" font-size="10.00">ORIGIN_VIRTUAL</text>
<text text-anchor="start" x="406" y="-304.5" font-family="Helvetica,sans-Serif" font-size="10.00"> </text>
<polygon fill="#bfbfbf" stroke="#bfbfbf" points="322.5,-539.5 322.5,-539.5 493.5,-539.5 493.5,-539.5 322.5,-539.5"/>
<polygon fill="#bfbfbf" stroke="#bfbfbf" points="322.5,-314.5 322.5,-314.5 337.5,-314.5 337.5,-314.5 322.5,-314.5"/>
<polygon fill="#bfbfbf" stroke="#bfbfbf" points="337.5,-314.5 337.5,-314.5 493.5,-314.5 493.5,-314.5 337.5,-314.5"/>
<polygon fill="none" stroke="#bfbfbf" points="322,-298 322,-579 493,-579 493,-298 322,-298"/>
</a>
</g>
</g>
<!-- Node5&#45;&gt;Node1 -->
<g id="edge5_Node000001_Node000005" class="edge">
<title>Node5&#45;&gt;Node1</title>
<g id="a_edge5_Node000001_Node000005"><a xlink:title=" ">
<path fill="none" stroke="#63b8ff" d="M328.51,-297.92C321.72,-285.93 314.87,-273.81 308.1,-261.86"/>
<polygon fill="none" stroke="#63b8ff" points="308.09,-261.84 301.66,-258.59 302.18,-251.4 308.62,-254.65 308.09,-261.84"/>
</a>
</g>
<text text-anchor="middle" x="349" y="-272" font-family="Helvetica,sans-Serif" font-size="10.00" fill="grey"> +$originData</text>
</g>
<!-- Node6 -->
<g id="Node000006" class="node">
<title>Node6</title>
<g id="a_Node000006"><a xlink:title=" ">
<polygon fill="white" stroke="transparent" points="446,-718 369,-718 369,-669 446,-669 446,-718"/>
<text text-anchor="start" x="374.5" y="-705.5" font-family="Helvetica,sans-Serif" font-size="10.00">UuidInterface</text>
<text text-anchor="start" x="406" y="-690.5" font-family="Helvetica,sans-Serif" font-size="10.00"> </text>
<text text-anchor="start" x="406" y="-675.5" font-family="Helvetica,sans-Serif" font-size="10.00"> </text>
<polygon fill="#bfbfbf" stroke="#bfbfbf" points="369.5,-700.5 369.5,-700.5 446.5,-700.5 446.5,-700.5 369.5,-700.5"/>
<polygon fill="#bfbfbf" stroke="#bfbfbf" points="369.5,-685.5 369.5,-685.5 446.5,-685.5 446.5,-685.5 369.5,-685.5"/>
<polygon fill="none" stroke="#bfbfbf" points="369,-669 369,-718 446,-718 446,-669 369,-669"/>
</a>
</g>
</g>
<!-- Node6&#45;&gt;Node5 -->
<g id="edge6_Node000005_Node000006" class="edge">
<title>Node6&#45;&gt;Node5</title>
<g id="a_edge6_Node000005_Node000006"><a xlink:title=" ">
<path fill="none" stroke="#63b8ff" d="M407.5,-668.7C407.5,-649.8 407.5,-621.62 407.5,-591.41"/>
<polygon fill="none" stroke="#63b8ff" points="407.5,-591.29 403.5,-585.29 407.5,-579.29 411.5,-585.29 407.5,-591.29"/>
</a>
</g>
<text text-anchor="middle" x="427" y="-600" font-family="Helvetica,sans-Serif" font-size="10.00" fill="grey"> +$uuid</text>
</g>
</g>
</svg>

<g id="navigator" transform="translate(0 0)" fill="#404254">
  <rect fill="#f2f5e9" fill-opacity="0.5" stroke="#606060" stroke-width=".5" x="0" y="0" width="60" height="60"/>
  <use id="zoomplus" xlink:href="#zoomPlus" x="17" y="9" onmousedown="handleZoom(evt,'in')"/>
  <use id="zoomminus" xlink:href="#zoomMin" x="42" y="9" onmousedown="handleZoom(evt,'out')"/>
  <use id="reset" xlink:href="#resetDef" x="30" y="36" onmousedown="handleReset()"/>
   <use id="arrowup" xlink:href="#arrowUp" x="0" y="0" onmousedown="handlePan(0,-1)"/>
  <use id="arrowright" xlink:href="#arrowRight" x="0" y="0" onmousedown="handlePan(1,0)"/>
  <use id="arrowdown" xlink:href="#arrowDown" x="0" y="0" onmousedown="handlePan(0,1)"/>
  <use id="arrowleft" xlink:href="#arrowLeft" x="0" y="0" onmousedown="handlePan(-1,0)"/>
</g>
<svg viewBox="0 0 15 15" width="100%" height="30px" preserveAspectRatio="xMaxYMin meet">
 <g id="arrow_out" transform="scale(0.3 0.3)">
  <a xlink:href="classpocketmine_1_1network_1_1mcpe_1_1protocol_1_1_command_output_packet__coll__graph_org.svg" target="_base">
   <rect id="button" ry="5" rx="5" y="6" x="6" height="38" width="38"
        fill="#f2f5e9" fill-opacity="0.5" stroke="#606060" stroke-width="1.0"/>
   <path id="arrow"
     d="M 11.500037,31.436501 C 11.940474,20.09759 22.043105,11.32322 32.158766,21.979434 L 37.068811,17.246167 C 37.068811,17.246167 37.088388,32 37.088388,32 L 22.160133,31.978069 C 22.160133,31.978069 26.997745,27.140456 26.997745,27.140456 C 18.528582,18.264221 13.291696,25.230495 11.500037,31.436501 z"
     style="fill:#404040;"/>
  </a>
 </g>
</svg>

<style type='text/css'>
<![CDATA[
[data-mouse-over-selected='false'] { opacity: 0.7; }
[data-mouse-over-selected='true']  { opacity: 1.0; }
]]>
</style>
<script type="application/ecmascript"><![CDATA[
document.addEventListener('DOMContentLoaded', (event) => {
  highlightEdges();
  highlightAdjacentNodes();
});
]]></script>
</svg>
