<?xml version="1.0" encoding="UTF-8" standalone="no"?>
<!DOCTYPE svg PUBLIC "-//W3C//DTD SVG 1.1//EN"
 "http://www.w3.org/Graphics/SVG/1.1/DTD/svg11.dtd">
<!-- Generated by graphviz version 2.43.0 (0)
 -->
<!-- Title: pocketmine\network\mcpe\protocol\InventoryTransactionPacket Pages: 1 -->
<svg width="809pt" height="551pt"
 viewBox="0.00 0.00 809.00 551.00" xmlns="http://www.w3.org/2000/svg" xmlns:xlink="http://www.w3.org/1999/xlink">
<g id="graph0" class="graph" transform="scale(1 1) rotate(0) translate(4 547)">
<title>pocketmine\network\mcpe\protocol\InventoryTransactionPacket</title>
<polygon fill="white" stroke="transparent" points="-4,4 -4,-547 805,-547 805,4 -4,4"/>
<!-- Node1 -->
<g id="node1" class="node">
<title>Node1</title>
<g id="a_node1"><a xlink:title=" ">
<polygon fill="#bfbfbf" stroke="black" points="318,-0.5 318,-123.5 512,-123.5 512,-0.5 318,-0.5"/>
<text text-anchor="start" x="326" y="-111.5" font-family="Helvetica,sans-Serif" font-size="10.00">pocketmine\network</text>
<text text-anchor="start" x="326" y="-100.5" font-family="Helvetica,sans-Serif" font-size="10.00">\mcpe\protocol\InventoryTransaction</text>
<text text-anchor="middle" x="415" y="-89.5" font-family="Helvetica,sans-Serif" font-size="10.00">Packet</text>
<polyline fill="none" stroke="black" points="318,-82.5 512,-82.5 "/>
<text text-anchor="start" x="326" y="-70.5" font-family="Helvetica,sans-Serif" font-size="10.00">+ $requestChangedSlots</text>
<text text-anchor="start" x="326" y="-59.5" font-family="Helvetica,sans-Serif" font-size="10.00">+ $requestId</text>
<polyline fill="none" stroke="black" points="318,-52.5 512,-52.5 "/>
<text text-anchor="start" x="326" y="-40.5" font-family="Helvetica,sans-Serif" font-size="10.00">+ handle()</text>
<text text-anchor="start" x="326" y="-29.5" font-family="Helvetica,sans-Serif" font-size="10.00">+ create()</text>
<text text-anchor="start" x="326" y="-18.5" font-family="Helvetica,sans-Serif" font-size="10.00"># decodePayload()</text>
<text text-anchor="start" x="326" y="-7.5" font-family="Helvetica,sans-Serif" font-size="10.00"># encodePayload()</text>
</a>
</g>
</g>
<!-- Node2 -->
<g id="node2" class="node">
<title>Node2</title>
<g id="a_node2"><a xlink:href="../../d1/ddb/classpocketmine_1_1network_1_1mcpe_1_1protocol_1_1_data_packet.html" target="_top" xlink:title=" ">
<polygon fill="white" stroke="#bfbfbf" points="341.5,-171.5 341.5,-360.5 488.5,-360.5 488.5,-171.5 341.5,-171.5"/>
<text text-anchor="start" x="349.5" y="-348.5" font-family="Helvetica,sans-Serif" font-size="10.00">pocketmine\network</text>
<text text-anchor="middle" x="415" y="-337.5" font-family="Helvetica,sans-Serif" font-size="10.00">\mcpe\protocol\DataPacket</text>
<polyline fill="none" stroke="#bfbfbf" points="341.5,-330.5 488.5,-330.5 "/>
<text text-anchor="start" x="349.5" y="-318.5" font-family="Helvetica,sans-Serif" font-size="10.00">+ $recipientSubId</text>
<text text-anchor="start" x="349.5" y="-307.5" font-family="Helvetica,sans-Serif" font-size="10.00">+ $senderSubId</text>
<polyline fill="none" stroke="#bfbfbf" points="341.5,-300.5 488.5,-300.5 "/>
<text text-anchor="start" x="349.5" y="-288.5" font-family="Helvetica,sans-Serif" font-size="10.00">+ __get()</text>
<text text-anchor="start" x="349.5" y="-277.5" font-family="Helvetica,sans-Serif" font-size="10.00">+ __set()</text>
<text text-anchor="start" x="349.5" y="-266.5" font-family="Helvetica,sans-Serif" font-size="10.00">+ canBeSentBeforeLogin()</text>
<text text-anchor="start" x="349.5" y="-255.5" font-family="Helvetica,sans-Serif" font-size="10.00">+ decode()</text>
<text text-anchor="start" x="349.5" y="-244.5" font-family="Helvetica,sans-Serif" font-size="10.00">+ encode()</text>
<text text-anchor="start" x="349.5" y="-233.5" font-family="Helvetica,sans-Serif" font-size="10.00">+ getName()</text>
<text text-anchor="start" x="349.5" y="-222.5" font-family="Helvetica,sans-Serif" font-size="10.00">+ pid()</text>
<text text-anchor="start" x="349.5" y="-211.5" font-family="Helvetica,sans-Serif" font-size="10.00"># decodeHeader()</text>
<text text-anchor="start" x="349.5" y="-200.5" font-family="Helvetica,sans-Serif" font-size="10.00"># decodePayload()</text>
<text text-anchor="start" x="349.5" y="-189.5" font-family="Helvetica,sans-Serif" font-size="10.00"># encodeHeader()</text>
<text text-anchor="start" x="349.5" y="-178.5" font-family="Helvetica,sans-Serif" font-size="10.00"># encodePayload()</text>
</a>
</g>
</g>
<!-- Node2&#45;&gt;Node1 -->
<g id="edge1" class="edge">
<title>Node2&#45;&gt;Node1</title>
<path fill="none" stroke="midnightblue" d="M415,-161.12C415,-148.31 415,-135.56 415,-123.7"/>
<polygon fill="none" stroke="midnightblue" points="411.5,-161.39 415,-171.39 418.5,-161.39 411.5,-161.39"/>
</g>
<!-- Node3 -->
<g id="node3" class="node">
<title>Node3</title>
<g id="a_node3"><a xlink:href="../../d4/d5d/interfacepocketmine_1_1network_1_1mcpe_1_1protocol_1_1_packet.html" target="_top" xlink:title=" ">
<polygon fill="white" stroke="#bfbfbf" points="175,-419.5 175,-542.5 321,-542.5 321,-419.5 175,-419.5"/>
<text text-anchor="start" x="183" y="-530.5" font-family="Helvetica,sans-Serif" font-size="10.00">pocketmine\network</text>
<text text-anchor="middle" x="248" y="-519.5" font-family="Helvetica,sans-Serif" font-size="10.00">\mcpe\protocol\Packet</text>
<polyline fill="none" stroke="#bfbfbf" points="175,-512.5 321,-512.5 "/>
<text text-anchor="middle" x="248" y="-500.5" font-family="Helvetica,sans-Serif" font-size="10.00"> </text>
<polyline fill="none" stroke="#bfbfbf" points="175,-493.5 321,-493.5 "/>
<text text-anchor="start" x="183" y="-481.5" font-family="Helvetica,sans-Serif" font-size="10.00">+ canBeSentBeforeLogin()</text>
<text text-anchor="start" x="183" y="-470.5" font-family="Helvetica,sans-Serif" font-size="10.00">+ decode()</text>
<text text-anchor="start" x="183" y="-459.5" font-family="Helvetica,sans-Serif" font-size="10.00">+ encode()</text>
<text text-anchor="start" x="183" y="-448.5" font-family="Helvetica,sans-Serif" font-size="10.00">+ getName()</text>
<text text-anchor="start" x="183" y="-437.5" font-family="Helvetica,sans-Serif" font-size="10.00">+ handle()</text>
<text text-anchor="start" x="183" y="-426.5" font-family="Helvetica,sans-Serif" font-size="10.00">+ pid()</text>
</a>
</g>
</g>
<!-- Node3&#45;&gt;Node2 -->
<g id="edge2" class="edge">
<title>Node3&#45;&gt;Node2</title>
<path fill="none" stroke="midnightblue" d="M302.09,-411.01C314.64,-395.01 328.2,-377.71 341.42,-360.84"/>
<polygon fill="none" stroke="midnightblue" points="299.05,-409.22 295.63,-419.25 304.56,-413.54 299.05,-409.22"/>
</g>
<!-- Node5 -->
<g id="node5" class="node">
<title>Node5</title>
<g id="a_node5"><a xlink:href="../../da/d77/interfacepocketmine_1_1network_1_1mcpe_1_1protocol_1_1_clientbound_packet.html" target="_top" xlink:title=" ">
<polygon fill="white" stroke="#bfbfbf" points="172.5,-226.5 172.5,-305.5 323.5,-305.5 323.5,-226.5 172.5,-226.5"/>
<text text-anchor="start" x="180.5" y="-293.5" font-family="Helvetica,sans-Serif" font-size="10.00">pocketmine\network</text>
<text text-anchor="start" x="180.5" y="-282.5" font-family="Helvetica,sans-Serif" font-size="10.00">\mcpe\protocol\Clientbound</text>
<text text-anchor="middle" x="248" y="-271.5" font-family="Helvetica,sans-Serif" font-size="10.00">Packet</text>
<polyline fill="none" stroke="#bfbfbf" points="172.5,-264.5 323.5,-264.5 "/>
<text text-anchor="middle" x="248" y="-252.5" font-family="Helvetica,sans-Serif" font-size="10.00"> </text>
<polyline fill="none" stroke="#bfbfbf" points="172.5,-245.5 323.5,-245.5 "/>
<text text-anchor="middle" x="248" y="-233.5" font-family="Helvetica,sans-Serif" font-size="10.00"> </text>
</a>
</g>
</g>
<!-- Node3&#45;&gt;Node5 -->
<g id="edge5" class="edge">
<title>Node3&#45;&gt;Node5</title>
<path fill="none" stroke="midnightblue" d="M248,-409.21C248,-374.68 248,-334.5 248,-305.67"/>
<polygon fill="none" stroke="midnightblue" points="244.5,-409.25 248,-419.25 251.5,-409.25 244.5,-409.25"/>
</g>
<!-- Node6 -->
<g id="node6" class="node">
<title>Node6</title>
<g id="a_node6"><a xlink:href="../../dd/de6/interfacepocketmine_1_1network_1_1mcpe_1_1protocol_1_1_serverbound_packet.html" target="_top" xlink:title=" ">
<polygon fill="white" stroke="#bfbfbf" points="0,-226.5 0,-305.5 154,-305.5 154,-226.5 0,-226.5"/>
<text text-anchor="start" x="8" y="-293.5" font-family="Helvetica,sans-Serif" font-size="10.00">pocketmine\network</text>
<text text-anchor="start" x="8" y="-282.5" font-family="Helvetica,sans-Serif" font-size="10.00">\mcpe\protocol\Serverbound</text>
<text text-anchor="middle" x="77" y="-271.5" font-family="Helvetica,sans-Serif" font-size="10.00">Packet</text>
<polyline fill="none" stroke="#bfbfbf" points="0,-264.5 154,-264.5 "/>
<text text-anchor="middle" x="77" y="-252.5" font-family="Helvetica,sans-Serif" font-size="10.00"> </text>
<polyline fill="none" stroke="#bfbfbf" points="0,-245.5 154,-245.5 "/>
<text text-anchor="middle" x="77" y="-233.5" font-family="Helvetica,sans-Serif" font-size="10.00"> </text>
</a>
</g>
</g>
<!-- Node3&#45;&gt;Node6 -->
<g id="edge7" class="edge">
<title>Node3&#45;&gt;Node6</title>
<path fill="none" stroke="midnightblue" d="M192.94,-411.42C164.84,-376.41 131.69,-335.12 108.05,-305.67"/>
<polygon fill="none" stroke="midnightblue" points="190.24,-413.64 199.23,-419.25 195.7,-409.26 190.24,-413.64"/>
</g>
<!-- Node4 -->
<g id="node4" class="node">
<title>Node4</title>
<g id="a_node4"><a xlink:title=" ">
<polygon fill="white" stroke="#bfbfbf" points="456.5,-452.5 456.5,-509.5 499.5,-509.5 499.5,-452.5 456.5,-452.5"/>
<text text-anchor="middle" x="478" y="-497.5" font-family="Helvetica,sans-Serif" font-size="10.00">const</text>
<polyline fill="none" stroke="#bfbfbf" points="456.5,-490.5 499.5,-490.5 "/>
<text text-anchor="middle" x="478" y="-478.5" font-family="Helvetica,sans-Serif" font-size="10.00"> </text>
<polyline fill="none" stroke="#bfbfbf" points="456.5,-471.5 499.5,-471.5 "/>
<text text-anchor="middle" x="478" y="-459.5" font-family="Helvetica,sans-Serif" font-size="10.00"> </text>
</a>
</g>
</g>
<!-- Node4&#45;&gt;Node1 -->
<g id="edge8" class="edge">
<title>Node4&#45;&gt;Node1</title>
<path fill="none" stroke="#404040" d="M492.73,-452.34C499.77,-437.56 507.44,-418.78 511,-401 517.34,-369.37 547.43,-305.67 497,-171 492.18,-158.13 485.29,-145.51 477.53,-133.69"/>
<polygon fill="none" stroke="#404040" points="477.33,-133.41 470.63,-130.74 470.51,-123.53 477.21,-126.2 477.33,-133.41"/>
<text text-anchor="middle" x="581" y="-296.5" font-family="Helvetica,sans-Serif" font-size="10.00"> +NETWORK_ID</text>
<text text-anchor="middle" x="581" y="-285.5" font-family="Helvetica,sans-Serif" font-size="10.00">+TYPE_MISMATCH</text>
<text text-anchor="middle" x="581" y="-274.5" font-family="Helvetica,sans-Serif" font-size="10.00">+TYPE_NORMAL</text>
<text text-anchor="middle" x="581" y="-263.5" font-family="Helvetica,sans-Serif" font-size="10.00">+TYPE_RELEASE_ITEM</text>
<text text-anchor="middle" x="581" y="-252.5" font-family="Helvetica,sans-Serif" font-size="10.00">+TYPE_USE_ITEM</text>
<text text-anchor="start" x="526" y="-241.5" font-family="Helvetica,sans-Serif" font-size="10.00">+TYPE_USE_ITEM_ON</text>
<text text-anchor="middle" x="581" y="-230.5" font-family="Helvetica,sans-Serif" font-size="10.00">_ENTITY</text>
</g>
<!-- Node4&#45;&gt;Node2 -->
<g id="edge3" class="edge">
<title>Node4&#45;&gt;Node2</title>
<path fill="none" stroke="#404040" d="M458.75,-452.36C449.5,-437.73 439.11,-419.1 433,-401 429.93,-391.91 427.38,-382.3 425.27,-372.58"/>
<polygon fill="none" stroke="#404040" points="425.24,-372.46 420.15,-367.36 422.9,-360.69 427.99,-365.79 425.24,-372.46"/>
<text text-anchor="middle" x="472" y="-393" font-family="Helvetica,sans-Serif" font-size="10.00"> +NETWORK_ID</text>
<text text-anchor="middle" x="472" y="-382" font-family="Helvetica,sans-Serif" font-size="10.00">+PID_MASK</text>
</g>
<!-- Node5&#45;&gt;Node1 -->
<g id="edge4" class="edge">
<title>Node5&#45;&gt;Node1</title>
<path fill="none" stroke="midnightblue" d="M286.58,-218.34C309.84,-190.2 339.73,-154.04 364.82,-123.69"/>
<polygon fill="none" stroke="midnightblue" points="283.87,-216.12 280.2,-226.05 289.27,-220.58 283.87,-216.12"/>
</g>
<!-- Node6&#45;&gt;Node1 -->
<g id="edge6" class="edge">
<title>Node6&#45;&gt;Node1</title>
<path fill="none" stroke="midnightblue" d="M112.84,-218.18C127.12,-201.73 144.56,-184.09 163,-171 209.96,-137.66 268.83,-111.71 317.85,-93.61"/>
<polygon fill="none" stroke="midnightblue" points="109.89,-216.25 106.09,-226.14 115.22,-220.78 109.89,-216.25"/>
</g>
<!-- Node7 -->
<g id="node7" class="node">
<title>Node7</title>
<g id="a_node7"><a xlink:href="../../d6/da6/classpocketmine_1_1network_1_1mcpe_1_1protocol_1_1types_1_1inventory_1_1_transaction_data.html" target="_top" xlink:title=" ">
<polygon fill="white" stroke="#bfbfbf" points="653,-199 653,-333 801,-333 801,-199 653,-199"/>
<text text-anchor="start" x="661" y="-321" font-family="Helvetica,sans-Serif" font-size="10.00">pocketmine\network</text>
<text text-anchor="start" x="661" y="-310" font-family="Helvetica,sans-Serif" font-size="10.00">\mcpe\protocol\types</text>
<text text-anchor="middle" x="727" y="-299" font-family="Helvetica,sans-Serif" font-size="10.00">\inventory\TransactionData</text>
<polyline fill="none" stroke="#bfbfbf" points="653,-292 801,-292 "/>
<text text-anchor="start" x="661" y="-280" font-family="Helvetica,sans-Serif" font-size="10.00"># $actions</text>
<polyline fill="none" stroke="#bfbfbf" points="653,-273 801,-273 "/>
<text text-anchor="start" x="661" y="-261" font-family="Helvetica,sans-Serif" font-size="10.00">+ decode()</text>
<text text-anchor="start" x="661" y="-250" font-family="Helvetica,sans-Serif" font-size="10.00">+ encode()</text>
<text text-anchor="start" x="661" y="-239" font-family="Helvetica,sans-Serif" font-size="10.00">+ getActions()</text>
<text text-anchor="start" x="661" y="-228" font-family="Helvetica,sans-Serif" font-size="10.00">+ getTypeId()</text>
<text text-anchor="start" x="661" y="-217" font-family="Helvetica,sans-Serif" font-size="10.00"># decodeData()</text>
<text text-anchor="start" x="661" y="-206" font-family="Helvetica,sans-Serif" font-size="10.00"># encodeData()</text>
</a>
</g>
</g>
<!-- Node7&#45;&gt;Node1 -->
<g id="edge9" class="edge">
<title>Node7&#45;&gt;Node1</title>
<path fill="none" stroke="#404040" d="M670.73,-198.52C660.74,-188.64 649.99,-179.08 639,-171 603.85,-145.17 561.56,-122.91 523.24,-105.42"/>
<polygon fill="none" stroke="#404040" points="522.96,-105.29 515.85,-106.49 512.02,-100.38 519.13,-99.19 522.96,-105.29"/>
<text text-anchor="middle" x="636.5" y="-145" font-family="Helvetica,sans-Serif" font-size="10.00"> +$trData</text>
</g>
</g>
</svg>
