<?xml version="1.0" encoding="UTF-8" standalone="no"?>
<!DOCTYPE svg PUBLIC "-//W3C//DTD SVG 1.1//EN"
 "http://www.w3.org/Graphics/SVG/1.1/DTD/svg11.dtd">
<!-- Generated by graphviz version 2.43.0 (0)
 -->
<!-- Title: pocketmine\network\mcpe\handler\SpawnResponsePacketHandler Pages: 1 -->
<svg width="202pt" height="447pt"
 viewBox="0.00 0.00 202.00 447.00" xmlns="http://www.w3.org/2000/svg" xmlns:xlink="http://www.w3.org/1999/xlink">
<g id="graph0" class="graph" transform="scale(1 1) rotate(0) translate(4 443)">
<title>pocketmine\network\mcpe\handler\SpawnResponsePacketHandler</title>
<!-- Node1 -->
<g id="Node000001" class="node">
<title>Node1</title>
<g id="a_Node000001"><a xlink:title=" ">
<polygon fill="#999999" stroke="transparent" points="194,-86 0,-86 0,0 194,0 194,-86"/>
<text text-anchor="start" x="20.5" y="-74" font-family="Helvetica,sans-Serif" font-size="10.00">pocketmine\network</text>
<text text-anchor="start" x="20.5" y="-63" font-family="Helvetica,sans-Serif" font-size="10.00">\mcpe\handler\SpawnResponse</text>
<text text-anchor="start" x="62" y="-52" font-family="Helvetica,sans-Serif" font-size="10.00">PacketHandler</text>
<text text-anchor="start" x="95" y="-37" font-family="Helvetica,sans-Serif" font-size="10.00"> </text>
<text text-anchor="start" x="4" y="-22" font-family="Helvetica,sans-Serif" font-size="10.00">+</text>
<text text-anchor="start" x="17" y="-22" font-family="Helvetica,sans-Serif" font-size="10.00">__construct()</text>
<text text-anchor="start" x="4" y="-7" font-family="Helvetica,sans-Serif" font-size="10.00">+</text>
<text text-anchor="start" x="17" y="-7" font-family="Helvetica,sans-Serif" font-size="10.00">handleSetLocalPlayerAsInitialized()</text>
<polygon fill="#666666" stroke="#666666" points="0,-47 0,-47 194,-47 194,-47 0,-47"/>
<polygon fill="#666666" stroke="#666666" points="0,-32 0,-32 194,-32 194,-32 0,-32"/>
<polygon fill="none" stroke="#666666" points="0,0 0,-86 194,-86 194,0 0,0"/>
</a>
</g>
</g>
<!-- Node2 -->
<g id="Node000002" class="node">
<title>Node2</title>
<g id="a_Node000002"><a xlink:href="../../d5/d23/classpocketmine_1_1network_1_1mcpe_1_1handler_1_1_packet_handler.html" target="_top" xlink:title=" ">
<polygon fill="white" stroke="transparent" points="173.5,-182 20.5,-182 20.5,-122 173.5,-122 173.5,-182"/>
<text text-anchor="start" x="26" y="-170" font-family="Helvetica,sans-Serif" font-size="10.00">pocketmine\network</text>
<text text-anchor="start" x="26" y="-159" font-family="Helvetica,sans-Serif" font-size="10.00">\mcpe\handler\PacketHandler</text>
<text text-anchor="start" x="95.5" y="-144" font-family="Helvetica,sans-Serif" font-size="10.00"> </text>
<text text-anchor="start" x="48.5" y="-129" font-family="Helvetica,sans-Serif" font-size="10.00">+</text>
<text text-anchor="start" x="85" y="-129" font-family="Helvetica,sans-Serif" font-size="10.00">setUp()</text>
<polygon fill="#666666" stroke="#666666" points="21,-154 21,-154 174,-154 174,-154 21,-154"/>
<polygon fill="#666666" stroke="#666666" points="21,-139 21,-139 174,-139 174,-139 21,-139"/>
<polygon fill="none" stroke="#666666" points="20.5,-122 20.5,-182 173.5,-182 173.5,-122 20.5,-122"/>
</a>
</g>
</g>
<!-- Node2&#45;&gt;Node1 -->
<g id="edge1_Node000001_Node000002" class="edge">
<title>Node2&#45;&gt;Node1</title>
<g id="a_edge1_Node000001_Node000002"><a xlink:title=" ">
<path fill="none" stroke="#63b8ff" d="M97,-111.56C97,-103.25 97,-94.44 97,-86.04"/>
<polygon fill="none" stroke="#63b8ff" points="93.5,-111.76 97,-121.76 100.5,-111.76 93.5,-111.76"/>
</a>
</g>
</g>
<!-- Node3 -->
<g id="Node000003" class="node">
<title>Node3</title>
<g id="a_Node000003"><a xlink:href="../../d1/d7c/interfacepocketmine_1_1network_1_1mcpe_1_1protocol_1_1_packet_handler_interface.html" target="_top" xlink:title=" ">
<polygon fill="white" stroke="transparent" points="175,-439 19,-439 19,-218 175,-218 175,-439"/>
<text text-anchor="start" x="24" y="-426.5" font-family="Helvetica,sans-Serif" font-size="10.00">pocketmine\network</text>
<text text-anchor="start" x="24" y="-415.5" font-family="Helvetica,sans-Serif" font-size="10.00">\mcpe\protocol\PacketHandler</text>
<text text-anchor="start" x="75" y="-404.5" font-family="Helvetica,sans-Serif" font-size="10.00">Interface</text>
<text text-anchor="start" x="95" y="-389.5" font-family="Helvetica,sans-Serif" font-size="10.00"> </text>
<text text-anchor="start" x="24.5" y="-374.5" font-family="Helvetica,sans-Serif" font-size="10.00">+</text>
<text text-anchor="start" x="39" y="-374.5" font-family="Helvetica,sans-Serif" font-size="10.00">handleActorEvent()</text>
<text text-anchor="start" x="24.5" y="-359.5" font-family="Helvetica,sans-Serif" font-size="10.00">+</text>
<text text-anchor="start" x="39" y="-359.5" font-family="Helvetica,sans-Serif" font-size="10.00">handleActorPickRequest()</text>
<text text-anchor="start" x="24.5" y="-344.5" font-family="Helvetica,sans-Serif" font-size="10.00">+</text>
<text text-anchor="start" x="39" y="-344.5" font-family="Helvetica,sans-Serif" font-size="10.00">handleAddActor()</text>
<text text-anchor="start" x="24.5" y="-329.5" font-family="Helvetica,sans-Serif" font-size="10.00">+</text>
<text text-anchor="start" x="39" y="-329.5" font-family="Helvetica,sans-Serif" font-size="10.00">handleAddBehaviorTree()</text>
<text text-anchor="start" x="24.5" y="-314.5" font-family="Helvetica,sans-Serif" font-size="10.00">+</text>
<text text-anchor="start" x="39" y="-314.5" font-family="Helvetica,sans-Serif" font-size="10.00">handleAddItemActor()</text>
<text text-anchor="start" x="24.5" y="-299.5" font-family="Helvetica,sans-Serif" font-size="10.00">+</text>
<text text-anchor="start" x="39" y="-299.5" font-family="Helvetica,sans-Serif" font-size="10.00">handleAddPainting()</text>
<text text-anchor="start" x="24.5" y="-284.5" font-family="Helvetica,sans-Serif" font-size="10.00">+</text>
<text text-anchor="start" x="39" y="-284.5" font-family="Helvetica,sans-Serif" font-size="10.00">handleAddPlayer()</text>
<text text-anchor="start" x="24.5" y="-269.5" font-family="Helvetica,sans-Serif" font-size="10.00">+</text>
<text text-anchor="start" x="39" y="-269.5" font-family="Helvetica,sans-Serif" font-size="10.00">handleAddVolumeEntity()</text>
<text text-anchor="start" x="24.5" y="-254.5" font-family="Helvetica,sans-Serif" font-size="10.00">+</text>
<text text-anchor="start" x="39" y="-254.5" font-family="Helvetica,sans-Serif" font-size="10.00">handleAgentActionEvent()</text>
<text text-anchor="start" x="24.5" y="-239.5" font-family="Helvetica,sans-Serif" font-size="10.00">+</text>
<text text-anchor="start" x="39" y="-239.5" font-family="Helvetica,sans-Serif" font-size="10.00">handleAgentAnimation()</text>
<text text-anchor="start" x="39" y="-224.5" font-family="Helvetica,sans-Serif" font-size="10.00">and 208 more...</text>
<polygon fill="#666666" stroke="#666666" points="19,-399.5 19,-399.5 175,-399.5 175,-399.5 19,-399.5"/>
<polygon fill="#666666" stroke="#666666" points="19,-384.5 19,-384.5 175,-384.5 175,-384.5 19,-384.5"/>
<polygon fill="none" stroke="#666666" points="19,-218 19,-439 175,-439 175,-218 19,-218"/>
</a>
</g>
</g>
<!-- Node3&#45;&gt;Node2 -->
<g id="edge2_Node000002_Node000003" class="edge">
<title>Node3&#45;&gt;Node2</title>
<g id="a_edge2_Node000002_Node000003"><a xlink:title=" ">
<path fill="none" stroke="#63b8ff" d="M97,-207.98C97,-198.56 97,-189.73 97,-182.01"/>
<polygon fill="none" stroke="#63b8ff" points="93.5,-207.98 97,-217.98 100.5,-207.98 93.5,-207.98"/>
</a>
</g>
</g>
</g>
</svg>
