<?xml version="1.0" encoding="UTF-8" standalone="no"?>
<!DOCTYPE svg PUBLIC "-//W3C//DTD SVG 1.1//EN"
 "http://www.w3.org/Graphics/SVG/1.1/DTD/svg11.dtd">
<!-- Generated by graphviz version 2.43.0 (0)
 -->
<!-- Title: pocketmine\block\Water Pages: 1 -->
<svg width="180pt" height="1043pt"
 viewBox="0.00 0.00 180.00 1043.00" xmlns="http://www.w3.org/2000/svg" xmlns:xlink="http://www.w3.org/1999/xlink">
<g id="graph0" class="graph" transform="scale(1 1) rotate(0) translate(4 1039)">
<title>pocketmine\block\Water</title>
<!-- Node1 -->
<g id="Node000001" class="node">
<title>Node1</title>
<g id="a_Node000001"><a xlink:title=" ">
<polygon fill="#999999" stroke="transparent" points="172,-135 0,-135 0,0 172,0 172,-135"/>
<text text-anchor="start" x="27" y="-122.5" font-family="Helvetica,sans-Serif" font-size="10.00">pocketmine\block\Water</text>
<text text-anchor="start" x="84" y="-107.5" font-family="Helvetica,sans-Serif" font-size="10.00"> </text>
<text text-anchor="start" x="4" y="-92.5" font-family="Helvetica,sans-Serif" font-size="10.00">+</text>
<text text-anchor="start" x="17" y="-92.5" font-family="Helvetica,sans-Serif" font-size="10.00">getBucketEmptySound()</text>
<text text-anchor="start" x="4" y="-77.5" font-family="Helvetica,sans-Serif" font-size="10.00">+</text>
<text text-anchor="start" x="17" y="-77.5" font-family="Helvetica,sans-Serif" font-size="10.00">getBucketFillSound()</text>
<text text-anchor="start" x="4" y="-62.5" font-family="Helvetica,sans-Serif" font-size="10.00">+</text>
<text text-anchor="start" x="17" y="-62.5" font-family="Helvetica,sans-Serif" font-size="10.00">getLightFilter()</text>
<text text-anchor="start" x="4" y="-47.5" font-family="Helvetica,sans-Serif" font-size="10.00">+</text>
<text text-anchor="start" x="17" y="-47.5" font-family="Helvetica,sans-Serif" font-size="10.00">getMinAdjacentSourcesToForm</text>
<text text-anchor="start" x="17" y="-36.5" font-family="Helvetica,sans-Serif" font-size="10.00">Source()</text>
<text text-anchor="start" x="4" y="-21.5" font-family="Helvetica,sans-Serif" font-size="10.00">+</text>
<text text-anchor="start" x="17" y="-21.5" font-family="Helvetica,sans-Serif" font-size="10.00">onEntityInside()</text>
<text text-anchor="start" x="4" y="-6.5" font-family="Helvetica,sans-Serif" font-size="10.00">+</text>
<text text-anchor="start" x="17" y="-6.5" font-family="Helvetica,sans-Serif" font-size="10.00">tickRate()</text>
<polygon fill="#666666" stroke="#666666" points="0,-117.5 0,-117.5 172,-117.5 172,-117.5 0,-117.5"/>
<polygon fill="#666666" stroke="#666666" points="0,-102.5 0,-102.5 172,-102.5 172,-102.5 0,-102.5"/>
<polygon fill="none" stroke="#666666" points="0,0 0,-135 172,-135 172,0 0,0"/>
</a>
</g>
</g>
<!-- Node2 -->
<g id="Node000002" class="node">
<title>Node2</title>
<g id="a_Node000002"><a xlink:href="../../d8/d57/classpocketmine_1_1block_1_1_liquid.html" target="_top" xlink:title=" ">
<polygon fill="white" stroke="transparent" points="168,-550 4,-550 4,-171 168,-171 168,-550"/>
<text text-anchor="start" x="26.5" y="-537.5" font-family="Helvetica,sans-Serif" font-size="10.00">pocketmine\block\Liquid</text>
<text text-anchor="start" x="8" y="-522.5" font-family="Helvetica,sans-Serif" font-size="10.00">+</text>
<text text-anchor="start" x="21" y="-522.5" font-family="Helvetica,sans-Serif" font-size="10.00">$adjacentSources</text>
<text text-anchor="start" x="8" y="-507.5" font-family="Helvetica,sans-Serif" font-size="10.00">+</text>
<text text-anchor="start" x="21" y="-507.5" font-family="Helvetica,sans-Serif" font-size="10.00">MAX_DECAY</text>
<text text-anchor="start" x="8" y="-492.5" font-family="Helvetica,sans-Serif" font-size="10.00">#</text>
<text text-anchor="start" x="21" y="-492.5" font-family="Helvetica,sans-Serif" font-size="10.00">$decay</text>
<text text-anchor="start" x="8" y="-477.5" font-family="Helvetica,sans-Serif" font-size="10.00">#</text>
<text text-anchor="start" x="21" y="-477.5" font-family="Helvetica,sans-Serif" font-size="10.00">$falling</text>
<text text-anchor="start" x="8" y="-462.5" font-family="Helvetica,sans-Serif" font-size="10.00">#</text>
<text text-anchor="start" x="21" y="-462.5" font-family="Helvetica,sans-Serif" font-size="10.00">$flowVector</text>
<text text-anchor="start" x="8" y="-447.5" font-family="Helvetica,sans-Serif" font-size="10.00">#</text>
<text text-anchor="start" x="21" y="-447.5" font-family="Helvetica,sans-Serif" font-size="10.00">$still</text>
<text text-anchor="start" x="8" y="-432.5" font-family="Helvetica,sans-Serif" font-size="10.00">+</text>
<text text-anchor="start" x="21" y="-432.5" font-family="Helvetica,sans-Serif" font-size="10.00">addVelocityToEntity()</text>
<text text-anchor="start" x="8" y="-417.5" font-family="Helvetica,sans-Serif" font-size="10.00">+</text>
<text text-anchor="start" x="21" y="-417.5" font-family="Helvetica,sans-Serif" font-size="10.00">canBeFlowedInto()</text>
<text text-anchor="start" x="8" y="-402.5" font-family="Helvetica,sans-Serif" font-size="10.00">+</text>
<text text-anchor="start" x="21" y="-402.5" font-family="Helvetica,sans-Serif" font-size="10.00">canBeReplaced()</text>
<text text-anchor="start" x="8" y="-387.5" font-family="Helvetica,sans-Serif" font-size="10.00">+</text>
<text text-anchor="start" x="21" y="-387.5" font-family="Helvetica,sans-Serif" font-size="10.00">getBucketEmptySound()</text>
<text text-anchor="start" x="8" y="-372.5" font-family="Helvetica,sans-Serif" font-size="10.00">+</text>
<text text-anchor="start" x="21" y="-372.5" font-family="Helvetica,sans-Serif" font-size="10.00">getBucketFillSound()</text>
<text text-anchor="start" x="8" y="-357.5" font-family="Helvetica,sans-Serif" font-size="10.00">+</text>
<text text-anchor="start" x="21" y="-357.5" font-family="Helvetica,sans-Serif" font-size="10.00">getDecay()</text>
<text text-anchor="start" x="8" y="-342.5" font-family="Helvetica,sans-Serif" font-size="10.00">+</text>
<text text-anchor="start" x="21" y="-342.5" font-family="Helvetica,sans-Serif" font-size="10.00">getDropsForCompatibleTool()</text>
<text text-anchor="start" x="8" y="-327.5" font-family="Helvetica,sans-Serif" font-size="10.00">+</text>
<text text-anchor="start" x="21" y="-327.5" font-family="Helvetica,sans-Serif" font-size="10.00">getFlowDecayPerBlock()</text>
<text text-anchor="start" x="8" y="-312.5" font-family="Helvetica,sans-Serif" font-size="10.00">+</text>
<text text-anchor="start" x="21" y="-312.5" font-family="Helvetica,sans-Serif" font-size="10.00">getFlowingForm()</text>
<text text-anchor="start" x="8" y="-297.5" font-family="Helvetica,sans-Serif" font-size="10.00">+</text>
<text text-anchor="start" x="21" y="-297.5" font-family="Helvetica,sans-Serif" font-size="10.00">getFlowVector()</text>
<text text-anchor="start" x="21" y="-282.5" font-family="Helvetica,sans-Serif" font-size="10.00">and 16 more...</text>
<text text-anchor="start" x="8" y="-267.5" font-family="Helvetica,sans-Serif" font-size="10.00">#</text>
<text text-anchor="start" x="21" y="-267.5" font-family="Helvetica,sans-Serif" font-size="10.00">canFlowInto()</text>
<text text-anchor="start" x="8" y="-252.5" font-family="Helvetica,sans-Serif" font-size="10.00">#</text>
<text text-anchor="start" x="21" y="-252.5" font-family="Helvetica,sans-Serif" font-size="10.00">checkForHarden()</text>
<text text-anchor="start" x="8" y="-237.5" font-family="Helvetica,sans-Serif" font-size="10.00">#</text>
<text text-anchor="start" x="21" y="-237.5" font-family="Helvetica,sans-Serif" font-size="10.00">describeBlockOnlyState()</text>
<text text-anchor="start" x="8" y="-222.5" font-family="Helvetica,sans-Serif" font-size="10.00">#</text>
<text text-anchor="start" x="21" y="-222.5" font-family="Helvetica,sans-Serif" font-size="10.00">flowIntoBlock()</text>
<text text-anchor="start" x="8" y="-207.5" font-family="Helvetica,sans-Serif" font-size="10.00">#</text>
<text text-anchor="start" x="21" y="-207.5" font-family="Helvetica,sans-Serif" font-size="10.00">getEffectiveFlowDecay()</text>
<text text-anchor="start" x="8" y="-192.5" font-family="Helvetica,sans-Serif" font-size="10.00">#</text>
<text text-anchor="start" x="21" y="-192.5" font-family="Helvetica,sans-Serif" font-size="10.00">liquidCollide()</text>
<text text-anchor="start" x="8" y="-177.5" font-family="Helvetica,sans-Serif" font-size="10.00">#</text>
<text text-anchor="start" x="21" y="-177.5" font-family="Helvetica,sans-Serif" font-size="10.00">recalculateCollisionBoxes()</text>
<polygon fill="#bfbfbf" stroke="#bfbfbf" points="4,-532.5 4,-532.5 168,-532.5 168,-532.5 4,-532.5"/>
<polygon fill="#bfbfbf" stroke="#bfbfbf" points="4,-442.5 4,-442.5 19,-442.5 19,-442.5 4,-442.5"/>
<polygon fill="#bfbfbf" stroke="#bfbfbf" points="19,-442.5 19,-442.5 168,-442.5 168,-442.5 19,-442.5"/>
<polygon fill="none" stroke="#bfbfbf" points="4,-171 4,-550 168,-550 168,-171 4,-171"/>
</a>
</g>
</g>
<!-- Node2&#45;&gt;Node1 -->
<g id="edge1_Node000001_Node000002" class="edge">
<title>Node2&#45;&gt;Node1</title>
<g id="a_edge1_Node000001_Node000002"><a xlink:title=" ">
<path fill="none" stroke="#63b8ff" d="M86,-160.61C86,-151.8 86,-143.29 86,-135.24"/>
<polygon fill="none" stroke="#63b8ff" points="82.5,-160.69 86,-170.69 89.5,-160.69 82.5,-160.69"/>
</a>
</g>
</g>
<!-- Node3 -->
<g id="Node000003" class="node">
<title>Node3</title>
<g id="a_Node000003"><a xlink:href="../../d5/d1b/classpocketmine_1_1block_1_1_transparent.html" target="_top" xlink:title=" ">
<polygon fill="white" stroke="transparent" points="164.5,-635 7.5,-635 7.5,-586 164.5,-586 164.5,-635"/>
<text text-anchor="start" x="13" y="-622.5" font-family="Helvetica,sans-Serif" font-size="10.00">pocketmine\block\Transparent</text>
<text text-anchor="start" x="84.5" y="-607.5" font-family="Helvetica,sans-Serif" font-size="10.00"> </text>
<text text-anchor="start" x="27.5" y="-592.5" font-family="Helvetica,sans-Serif" font-size="10.00">+</text>
<text text-anchor="start" x="56" y="-592.5" font-family="Helvetica,sans-Serif" font-size="10.00">isTransparent()</text>
<polygon fill="#666666" stroke="#666666" points="8,-617.5 8,-617.5 165,-617.5 165,-617.5 8,-617.5"/>
<polygon fill="#666666" stroke="#666666" points="8,-602.5 8,-602.5 165,-602.5 165,-602.5 8,-602.5"/>
<polygon fill="none" stroke="#666666" points="7.5,-586 7.5,-635 164.5,-635 164.5,-586 7.5,-586"/>
</a>
</g>
</g>
<!-- Node3&#45;&gt;Node2 -->
<g id="edge2_Node000002_Node000003" class="edge">
<title>Node3&#45;&gt;Node2</title>
<g id="a_edge2_Node000002_Node000003"><a xlink:title=" ">
<path fill="none" stroke="#63b8ff" d="M86,-575.61C86,-567.98 86,-559.34 86,-550.04"/>
<polygon fill="none" stroke="#63b8ff" points="82.5,-575.72 86,-585.72 89.5,-575.72 82.5,-575.72"/>
</a>
</g>
</g>
<!-- Node4 -->
<g id="Node000004" class="node">
<title>Node4</title>
<g id="a_Node000004"><a xlink:href="../../d7/d27/classpocketmine_1_1block_1_1_block.html" target="_top" xlink:title=" ">
<polygon fill="white" stroke="transparent" points="170.5,-1035 1.5,-1035 1.5,-671 170.5,-671 170.5,-1035"/>
<text text-anchor="start" x="28" y="-1023" font-family="Helvetica,sans-Serif" font-size="10.00">pocketmine\block\Block</text>
<text text-anchor="start" x="6" y="-1008" font-family="Helvetica,sans-Serif" font-size="10.00">+</text>
<text text-anchor="start" x="19" y="-1008" font-family="Helvetica,sans-Serif" font-size="10.00">EMPTY_STATE_ID</text>
<text text-anchor="start" x="6" y="-993" font-family="Helvetica,sans-Serif" font-size="10.00">+</text>
<text text-anchor="start" x="19" y="-993" font-family="Helvetica,sans-Serif" font-size="10.00">INTERNAL_STATE_DATA_BITS</text>
<text text-anchor="start" x="6" y="-978" font-family="Helvetica,sans-Serif" font-size="10.00">+</text>
<text text-anchor="start" x="19" y="-978" font-family="Helvetica,sans-Serif" font-size="10.00">INTERNAL_STATE_DATA_MASK</text>
<text text-anchor="start" x="6" y="-963" font-family="Helvetica,sans-Serif" font-size="10.00">#</text>
<text text-anchor="start" x="19" y="-963" font-family="Helvetica,sans-Serif" font-size="10.00">$collisionBoxes</text>
<text text-anchor="start" x="6" y="-948" font-family="Helvetica,sans-Serif" font-size="10.00">#</text>
<text text-anchor="start" x="19" y="-948" font-family="Helvetica,sans-Serif" font-size="10.00">$fallbackName</text>
<text text-anchor="start" x="6" y="-933" font-family="Helvetica,sans-Serif" font-size="10.00">#</text>
<text text-anchor="start" x="19" y="-933" font-family="Helvetica,sans-Serif" font-size="10.00">$idInfo</text>
<text text-anchor="start" x="6" y="-918" font-family="Helvetica,sans-Serif" font-size="10.00">#</text>
<text text-anchor="start" x="19" y="-918" font-family="Helvetica,sans-Serif" font-size="10.00">$position</text>
<text text-anchor="start" x="6" y="-903" font-family="Helvetica,sans-Serif" font-size="10.00">#</text>
<text text-anchor="start" x="19" y="-903" font-family="Helvetica,sans-Serif" font-size="10.00">$typeInfo</text>
<text text-anchor="start" x="6" y="-888" font-family="Helvetica,sans-Serif" font-size="10.00">+</text>
<text text-anchor="start" x="19" y="-888" font-family="Helvetica,sans-Serif" font-size="10.00">__construct()</text>
<text text-anchor="start" x="6" y="-873" font-family="Helvetica,sans-Serif" font-size="10.00">+</text>
<text text-anchor="start" x="19" y="-873" font-family="Helvetica,sans-Serif" font-size="10.00">__clone()</text>
<text text-anchor="start" x="6" y="-858" font-family="Helvetica,sans-Serif" font-size="10.00">+</text>
<text text-anchor="start" x="19" y="-858" font-family="Helvetica,sans-Serif" font-size="10.00">__toString()</text>
<text text-anchor="start" x="6" y="-843" font-family="Helvetica,sans-Serif" font-size="10.00">+</text>
<text text-anchor="start" x="19" y="-843" font-family="Helvetica,sans-Serif" font-size="10.00">addVelocityToEntity()</text>
<text text-anchor="start" x="6" y="-828" font-family="Helvetica,sans-Serif" font-size="10.00">+</text>
<text text-anchor="start" x="19" y="-828" font-family="Helvetica,sans-Serif" font-size="10.00">asItem()</text>
<text text-anchor="start" x="6" y="-813" font-family="Helvetica,sans-Serif" font-size="10.00">+</text>
<text text-anchor="start" x="19" y="-813" font-family="Helvetica,sans-Serif" font-size="10.00">blocksDirectSkyLight()</text>
<text text-anchor="start" x="6" y="-798" font-family="Helvetica,sans-Serif" font-size="10.00">+</text>
<text text-anchor="start" x="19" y="-798" font-family="Helvetica,sans-Serif" font-size="10.00">burnsForever()</text>
<text text-anchor="start" x="6" y="-783" font-family="Helvetica,sans-Serif" font-size="10.00">+</text>
<text text-anchor="start" x="19" y="-783" font-family="Helvetica,sans-Serif" font-size="10.00">calculateIntercept()</text>
<text text-anchor="start" x="6" y="-768" font-family="Helvetica,sans-Serif" font-size="10.00">+</text>
<text text-anchor="start" x="19" y="-768" font-family="Helvetica,sans-Serif" font-size="10.00">canBeFlowedInto()</text>
<text text-anchor="start" x="6" y="-753" font-family="Helvetica,sans-Serif" font-size="10.00">+</text>
<text text-anchor="start" x="19" y="-753" font-family="Helvetica,sans-Serif" font-size="10.00">canBePlaced()</text>
<text text-anchor="start" x="19" y="-738" font-family="Helvetica,sans-Serif" font-size="10.00">and 60 more...</text>
<text text-anchor="start" x="6" y="-723" font-family="Helvetica,sans-Serif" font-size="10.00">#</text>
<text text-anchor="start" x="19" y="-723" font-family="Helvetica,sans-Serif" font-size="10.00">describeBlockOnlyState()</text>
<text text-anchor="start" x="6" y="-708" font-family="Helvetica,sans-Serif" font-size="10.00">#</text>
<text text-anchor="start" x="19" y="-708" font-family="Helvetica,sans-Serif" font-size="10.00">getAdjacentSupportType()</text>
<text text-anchor="start" x="6" y="-693" font-family="Helvetica,sans-Serif" font-size="10.00">#</text>
<text text-anchor="start" x="19" y="-693" font-family="Helvetica,sans-Serif" font-size="10.00">getXpDropAmount()</text>
<text text-anchor="start" x="6" y="-678" font-family="Helvetica,sans-Serif" font-size="10.00">#</text>
<text text-anchor="start" x="19" y="-678" font-family="Helvetica,sans-Serif" font-size="10.00">recalculateCollisionBoxes()</text>
<polygon fill="#bfbfbf" stroke="#bfbfbf" points="2,-1018 2,-1018 171,-1018 171,-1018 2,-1018"/>
<polygon fill="#bfbfbf" stroke="#bfbfbf" points="2,-898 2,-898 17,-898 17,-898 2,-898"/>
<polygon fill="#bfbfbf" stroke="#bfbfbf" points="17,-898 17,-898 171,-898 171,-898 17,-898"/>
<polygon fill="none" stroke="#bfbfbf" points="1.5,-671 1.5,-1035 170.5,-1035 170.5,-671 1.5,-671"/>
</a>
</g>
</g>
<!-- Node4&#45;&gt;Node3 -->
<g id="edge3_Node000003_Node000004" class="edge">
<title>Node4&#45;&gt;Node3</title>
<g id="a_edge3_Node000003_Node000004"><a xlink:title=" ">
<path fill="none" stroke="#63b8ff" d="M86,-660.93C86,-651.2 86,-642.44 86,-635.09"/>
<polygon fill="none" stroke="#63b8ff" points="82.5,-660.95 86,-670.95 89.5,-660.95 82.5,-660.95"/>
</a>
</g>
</g>
</g>
</svg>
