<?xml version="1.0" encoding="UTF-8" standalone="no"?>
<!DOCTYPE svg PUBLIC "-//W3C//DTD SVG 1.1//EN"
 "http://www.w3.org/Graphics/SVG/1.1/DTD/svg11.dtd">
<!-- Generated by graphviz version 2.43.0 (0)
 -->
<!-- Title: pocketmine\block\PumpkinStem Pages: 1 -->
<svg width="704pt" height="2160pt"
 viewBox="0.00 0.00 704.00 2160.00" xmlns="http://www.w3.org/2000/svg" xmlns:xlink="http://www.w3.org/1999/xlink">
<g id="graph0" class="graph" transform="scale(1 1) rotate(0) translate(4 2156)">
<title>pocketmine\block\PumpkinStem</title>
<polygon fill="white" stroke="transparent" points="-4,4 -4,-2156 700,-2156 700,4 -4,4"/>
<!-- Node1 -->
<g id="node1" class="node">
<title>Node1</title>
<g id="a_node1"><a xlink:title=" ">
<polygon fill="#bfbfbf" stroke="black" points="0,-0.5 0,-68.5 174,-68.5 174,-0.5 0,-0.5"/>
<text text-anchor="middle" x="87" y="-56.5" font-family="Helvetica,sans-Serif" font-size="10.00">pocketmine\block\PumpkinStem</text>
<polyline fill="none" stroke="black" points="0,-49.5 174,-49.5 "/>
<text text-anchor="middle" x="87" y="-37.5" font-family="Helvetica,sans-Serif" font-size="10.00"> </text>
<polyline fill="none" stroke="black" points="0,-30.5 174,-30.5 "/>
<text text-anchor="start" x="8" y="-18.5" font-family="Helvetica,sans-Serif" font-size="10.00">+ asItem()</text>
<text text-anchor="start" x="8" y="-7.5" font-family="Helvetica,sans-Serif" font-size="10.00"># getPlant()</text>
</a>
</g>
</g>
<!-- Node2 -->
<g id="node2" class="node">
<title>Node2</title>
<g id="a_node2"><a xlink:href="../../dc/d0c/classpocketmine_1_1block_1_1_stem.html" target="_top" xlink:title=" ">
<polygon fill="white" stroke="#bfbfbf" points="2,-106.5 2,-240.5 172,-240.5 172,-106.5 2,-106.5"/>
<text text-anchor="middle" x="87" y="-228.5" font-family="Helvetica,sans-Serif" font-size="10.00">pocketmine\block\Stem</text>
<polyline fill="none" stroke="#bfbfbf" points="2,-221.5 172,-221.5 "/>
<text text-anchor="start" x="10" y="-209.5" font-family="Helvetica,sans-Serif" font-size="10.00"># $facing</text>
<polyline fill="none" stroke="#bfbfbf" points="2,-202.5 172,-202.5 "/>
<text text-anchor="start" x="10" y="-190.5" font-family="Helvetica,sans-Serif" font-size="10.00">+ getDropsForCompatibleTool()</text>
<text text-anchor="start" x="10" y="-179.5" font-family="Helvetica,sans-Serif" font-size="10.00">+ getFacing()</text>
<text text-anchor="start" x="10" y="-168.5" font-family="Helvetica,sans-Serif" font-size="10.00">+ onNearbyBlockChange()</text>
<text text-anchor="start" x="10" y="-157.5" font-family="Helvetica,sans-Serif" font-size="10.00">+ onRandomTick()</text>
<text text-anchor="start" x="10" y="-146.5" font-family="Helvetica,sans-Serif" font-size="10.00">+ setFacing()</text>
<text text-anchor="start" x="10" y="-135.5" font-family="Helvetica,sans-Serif" font-size="10.00">+ ticksRandomly()</text>
<text text-anchor="start" x="10" y="-124.5" font-family="Helvetica,sans-Serif" font-size="10.00"># describeBlockOnlyState()</text>
<text text-anchor="start" x="10" y="-113.5" font-family="Helvetica,sans-Serif" font-size="10.00"># getPlant()</text>
</a>
</g>
</g>
<!-- Node2&#45;&gt;Node1 -->
<g id="edge1" class="edge">
<title>Node2&#45;&gt;Node1</title>
<path fill="none" stroke="midnightblue" d="M87,-96.26C87,-86.56 87,-77.07 87,-68.58"/>
<polygon fill="none" stroke="midnightblue" points="83.5,-96.41 87,-106.41 90.5,-96.41 83.5,-96.41"/>
</g>
<!-- Node3 -->
<g id="node3" class="node">
<title>Node3</title>
<g id="a_node3"><a xlink:href="../../d2/d70/classpocketmine_1_1block_1_1_crops.html" target="_top" xlink:title=" ">
<polygon fill="white" stroke="#bfbfbf" points="20,-278.5 20,-357.5 154,-357.5 154,-278.5 20,-278.5"/>
<text text-anchor="middle" x="87" y="-345.5" font-family="Helvetica,sans-Serif" font-size="10.00">pocketmine\block\Crops</text>
<polyline fill="none" stroke="#bfbfbf" points="20,-338.5 154,-338.5 "/>
<text text-anchor="middle" x="87" y="-326.5" font-family="Helvetica,sans-Serif" font-size="10.00"> </text>
<polyline fill="none" stroke="#bfbfbf" points="20,-319.5 154,-319.5 "/>
<text text-anchor="start" x="28" y="-307.5" font-family="Helvetica,sans-Serif" font-size="10.00">+ onInteract()</text>
<text text-anchor="start" x="28" y="-296.5" font-family="Helvetica,sans-Serif" font-size="10.00">+ onRandomTick()</text>
<text text-anchor="start" x="28" y="-285.5" font-family="Helvetica,sans-Serif" font-size="10.00">+ ticksRandomly()</text>
</a>
</g>
</g>
<!-- Node3&#45;&gt;Node2 -->
<g id="edge2" class="edge">
<title>Node3&#45;&gt;Node2</title>
<path fill="none" stroke="midnightblue" d="M87,-268.24C87,-259.32 87,-249.88 87,-240.55"/>
<polygon fill="none" stroke="midnightblue" points="83.5,-268.44 87,-278.44 90.5,-268.44 83.5,-268.44"/>
</g>
<!-- Node4 -->
<g id="node4" class="node">
<title>Node4</title>
<g id="a_node4"><a xlink:href="../../d3/d1e/classpocketmine_1_1block_1_1_flowable.html" target="_top" xlink:title=" ">
<polygon fill="white" stroke="black" points="97.5,-395.5 97.5,-485.5 258.5,-485.5 258.5,-395.5 97.5,-395.5"/>
<text text-anchor="middle" x="178" y="-473.5" font-family="Helvetica,sans-Serif" font-size="10.00">pocketmine\block\Flowable</text>
<polyline fill="none" stroke="black" points="97.5,-466.5 258.5,-466.5 "/>
<text text-anchor="middle" x="178" y="-454.5" font-family="Helvetica,sans-Serif" font-size="10.00"> </text>
<polyline fill="none" stroke="black" points="97.5,-447.5 258.5,-447.5 "/>
<text text-anchor="start" x="105.5" y="-435.5" font-family="Helvetica,sans-Serif" font-size="10.00">+ canBeFlowedInto()</text>
<text text-anchor="start" x="105.5" y="-424.5" font-family="Helvetica,sans-Serif" font-size="10.00">+ getSupportType()</text>
<text text-anchor="start" x="105.5" y="-413.5" font-family="Helvetica,sans-Serif" font-size="10.00">+ isSolid()</text>
<text text-anchor="start" x="105.5" y="-402.5" font-family="Helvetica,sans-Serif" font-size="10.00"># recalculateCollisionBoxes()</text>
</a>
</g>
</g>
<!-- Node4&#45;&gt;Node3 -->
<g id="edge3" class="edge">
<title>Node4&#45;&gt;Node3</title>
<path fill="none" stroke="midnightblue" d="M138.42,-387.09C130.94,-377.19 123.25,-367 116.16,-357.61"/>
<polygon fill="none" stroke="midnightblue" points="135.81,-389.44 144.63,-395.31 141.4,-385.23 135.81,-389.44"/>
</g>
<!-- Node5 -->
<g id="node5" class="node">
<title>Node5</title>
<g id="a_node5"><a xlink:href="../../d5/d1b/classpocketmine_1_1block_1_1_transparent.html" target="_top" xlink:title=" ">
<polygon fill="white" stroke="black" points="116.5,-523.5 116.5,-580.5 279.5,-580.5 279.5,-523.5 116.5,-523.5"/>
<text text-anchor="middle" x="198" y="-568.5" font-family="Helvetica,sans-Serif" font-size="10.00">pocketmine\block\Transparent</text>
<polyline fill="none" stroke="black" points="116.5,-561.5 279.5,-561.5 "/>
<text text-anchor="middle" x="198" y="-549.5" font-family="Helvetica,sans-Serif" font-size="10.00"> </text>
<polyline fill="none" stroke="black" points="116.5,-542.5 279.5,-542.5 "/>
<text text-anchor="start" x="124.5" y="-530.5" font-family="Helvetica,sans-Serif" font-size="10.00">+ isTransparent()</text>
</a>
</g>
</g>
<!-- Node5&#45;&gt;Node4 -->
<g id="edge4" class="edge">
<title>Node5&#45;&gt;Node4</title>
<path fill="none" stroke="midnightblue" d="M191.12,-513.31C189.49,-504.43 187.75,-494.88 186.08,-485.74"/>
<polygon fill="none" stroke="midnightblue" points="187.71,-514.16 192.95,-523.37 194.6,-512.9 187.71,-514.16"/>
</g>
<!-- Node6 -->
<g id="node6" class="node">
<title>Node6</title>
<g id="a_node6"><a xlink:href="../../d7/d27/classpocketmine_1_1block_1_1_block.html" target="_top" xlink:title=" ">
<polygon fill="white" stroke="#bfbfbf" points="156.5,-618.5 156.5,-840.5 317.5,-840.5 317.5,-618.5 156.5,-618.5"/>
<text text-anchor="middle" x="237" y="-828.5" font-family="Helvetica,sans-Serif" font-size="10.00">pocketmine\block\Block</text>
<polyline fill="none" stroke="#bfbfbf" points="156.5,-821.5 317.5,-821.5 "/>
<text text-anchor="start" x="164.5" y="-809.5" font-family="Helvetica,sans-Serif" font-size="10.00"># $collisionBoxes</text>
<text text-anchor="start" x="164.5" y="-798.5" font-family="Helvetica,sans-Serif" font-size="10.00"># $fallbackName</text>
<polyline fill="none" stroke="#bfbfbf" points="156.5,-791.5 317.5,-791.5 "/>
<text text-anchor="start" x="164.5" y="-779.5" font-family="Helvetica,sans-Serif" font-size="10.00">+ __construct()</text>
<text text-anchor="start" x="164.5" y="-768.5" font-family="Helvetica,sans-Serif" font-size="10.00">+ __clone()</text>
<text text-anchor="start" x="164.5" y="-757.5" font-family="Helvetica,sans-Serif" font-size="10.00">+ __toString()</text>
<text text-anchor="start" x="164.5" y="-746.5" font-family="Helvetica,sans-Serif" font-size="10.00">+ addVelocityToEntity()</text>
<text text-anchor="start" x="164.5" y="-735.5" font-family="Helvetica,sans-Serif" font-size="10.00">+ asItem()</text>
<text text-anchor="start" x="164.5" y="-724.5" font-family="Helvetica,sans-Serif" font-size="10.00">+ blocksDirectSkyLight()</text>
<text text-anchor="start" x="164.5" y="-713.5" font-family="Helvetica,sans-Serif" font-size="10.00">+ burnsForever()</text>
<text text-anchor="start" x="164.5" y="-702.5" font-family="Helvetica,sans-Serif" font-size="10.00">+ calculateIntercept()</text>
<text text-anchor="start" x="164.5" y="-691.5" font-family="Helvetica,sans-Serif" font-size="10.00">+ canBeFlowedInto()</text>
<text text-anchor="start" x="164.5" y="-680.5" font-family="Helvetica,sans-Serif" font-size="10.00">+ canBePlaced()</text>
<text text-anchor="start" x="164.5" y="-669.5" font-family="Helvetica,sans-Serif" font-size="10.00">and 60 more...</text>
<text text-anchor="start" x="164.5" y="-658.5" font-family="Helvetica,sans-Serif" font-size="10.00"># describeBlockOnlyState()</text>
<text text-anchor="start" x="164.5" y="-647.5" font-family="Helvetica,sans-Serif" font-size="10.00"># getAdjacentSupportType()</text>
<text text-anchor="start" x="164.5" y="-636.5" font-family="Helvetica,sans-Serif" font-size="10.00"># getXpDropAmount()</text>
<text text-anchor="start" x="164.5" y="-625.5" font-family="Helvetica,sans-Serif" font-size="10.00"># recalculateCollisionBoxes()</text>
</a>
</g>
</g>
<!-- Node6&#45;&gt;Node5 -->
<g id="edge5" class="edge">
<title>Node6&#45;&gt;Node5</title>
<path fill="none" stroke="midnightblue" d="M210.31,-608.41C208.05,-598.23 205.94,-588.72 204.12,-580.56"/>
<polygon fill="none" stroke="midnightblue" points="206.94,-609.35 212.52,-618.35 213.77,-607.83 206.94,-609.35"/>
</g>
<!-- Node7 -->
<g id="node7" class="node">
<title>Node7</title>
<g id="a_node7"><a xlink:title=" ">
<polygon fill="white" stroke="#bfbfbf" points="65.5,-1659.5 65.5,-1716.5 108.5,-1716.5 108.5,-1659.5 65.5,-1659.5"/>
<text text-anchor="middle" x="87" y="-1704.5" font-family="Helvetica,sans-Serif" font-size="10.00">const</text>
<polyline fill="none" stroke="#bfbfbf" points="65.5,-1697.5 108.5,-1697.5 "/>
<text text-anchor="middle" x="87" y="-1685.5" font-family="Helvetica,sans-Serif" font-size="10.00"> </text>
<polyline fill="none" stroke="#bfbfbf" points="65.5,-1678.5 108.5,-1678.5 "/>
<text text-anchor="middle" x="87" y="-1666.5" font-family="Helvetica,sans-Serif" font-size="10.00"> </text>
</a>
</g>
</g>
<!-- Node7&#45;&gt;Node3 -->
<g id="edge16" class="edge">
<title>Node7&#45;&gt;Node3</title>
<path fill="none" stroke="#404040" d="M82.82,-1659.32C72.95,-1591.39 49,-1410.94 49,-1259.5 49,-1259.5 49,-1259.5 49,-439.5 49,-415.62 55.87,-390.27 63.77,-369.01"/>
<polygon fill="none" stroke="#404040" points="63.84,-368.82 62.31,-361.78 68.22,-357.65 69.75,-364.7 63.84,-368.82"/>
<text text-anchor="middle" x="79" y="-727" font-family="Helvetica,sans-Serif" font-size="10.00"> +MAX_AGE</text>
</g>
<!-- Node7&#45;&gt;Node6 -->
<g id="edge6" class="edge">
<title>Node7&#45;&gt;Node6</title>
<path fill="none" stroke="#404040" d="M85.33,-1659.42C79.09,-1551.99 58.73,-1161.54 85,-1041 99.41,-974.89 130.6,-906.79 161,-851.28"/>
<polygon fill="none" stroke="#404040" points="161.05,-851.2 160.46,-844.01 166.87,-840.7 167.45,-847.89 161.05,-851.2"/>
<text text-anchor="middle" x="163.5" y="-1077" font-family="Helvetica,sans-Serif" font-size="10.00"> +EMPTY_STATE_ID</text>
<text text-anchor="start" x="85" y="-1066" font-family="Helvetica,sans-Serif" font-size="10.00">+INTERNAL_STATE_DATA</text>
<text text-anchor="middle" x="163.5" y="-1055" font-family="Helvetica,sans-Serif" font-size="10.00">_BITS</text>
<text text-anchor="middle" x="163.5" y="-1044" font-family="Helvetica,sans-Serif" font-size="10.00">+INTERNAL_STATE_DATA_MASK</text>
</g>
<!-- Node12 -->
<g id="node12" class="node">
<title>Node12</title>
<g id="a_node12"><a xlink:href="../../d4/d2b/classpocketmine_1_1world_1_1_world.html" target="_top" xlink:title=" ">
<polygon fill="white" stroke="black" points="181,-1103.5 181,-1413.5 353,-1413.5 353,-1103.5 181,-1103.5"/>
<text text-anchor="middle" x="267" y="-1401.5" font-family="Helvetica,sans-Serif" font-size="10.00">pocketmine\world\World</text>
<polyline fill="none" stroke="black" points="181,-1394.5 353,-1394.5 "/>
<text text-anchor="start" x="189" y="-1382.5" font-family="Helvetica,sans-Serif" font-size="10.00">+ $stopTime</text>
<text text-anchor="start" x="189" y="-1371.5" font-family="Helvetica,sans-Serif" font-size="10.00">+ $tickRateTime</text>
<text text-anchor="start" x="189" y="-1360.5" font-family="Helvetica,sans-Serif" font-size="10.00">+ $updateEntities</text>
<text text-anchor="start" x="189" y="-1349.5" font-family="Helvetica,sans-Serif" font-size="10.00">+ TIME_SUNRISE</text>
<text text-anchor="start" x="189" y="-1338.5" font-family="Helvetica,sans-Serif" font-size="10.00">+ TIME_SUNSET</text>
<text text-anchor="start" x="189" y="-1327.5" font-family="Helvetica,sans-Serif" font-size="10.00">+ Y_MAX</text>
<text text-anchor="start" x="189" y="-1316.5" font-family="Helvetica,sans-Serif" font-size="10.00">+ Y_MIN</text>
<polyline fill="none" stroke="black" points="181,-1309.5 353,-1309.5 "/>
<text text-anchor="start" x="189" y="-1297.5" font-family="Helvetica,sans-Serif" font-size="10.00">+ __construct()</text>
<text text-anchor="start" x="189" y="-1286.5" font-family="Helvetica,sans-Serif" font-size="10.00">+ __debugInfo()</text>
<text text-anchor="start" x="189" y="-1275.5" font-family="Helvetica,sans-Serif" font-size="10.00">+ addEntity()</text>
<text text-anchor="start" x="189" y="-1264.5" font-family="Helvetica,sans-Serif" font-size="10.00">+ addOnUnloadCallback()</text>
<text text-anchor="start" x="189" y="-1253.5" font-family="Helvetica,sans-Serif" font-size="10.00">+ addParticle()</text>
<text text-anchor="start" x="189" y="-1242.5" font-family="Helvetica,sans-Serif" font-size="10.00">+ addRandomTickedBlock()</text>
<text text-anchor="start" x="189" y="-1231.5" font-family="Helvetica,sans-Serif" font-size="10.00">+ addSound()</text>
<text text-anchor="start" x="189" y="-1220.5" font-family="Helvetica,sans-Serif" font-size="10.00">+ addTile()</text>
<text text-anchor="start" x="189" y="-1209.5" font-family="Helvetica,sans-Serif" font-size="10.00">+ broadcastPacketToViewers()</text>
<text text-anchor="start" x="189" y="-1198.5" font-family="Helvetica,sans-Serif" font-size="10.00">+ cancelUnloadChunkRequest()</text>
<text text-anchor="start" x="189" y="-1187.5" font-family="Helvetica,sans-Serif" font-size="10.00">and 124 more...</text>
<text text-anchor="start" x="189" y="-1176.5" font-family="Helvetica,sans-Serif" font-size="10.00">+ blockHash()</text>
<text text-anchor="start" x="189" y="-1165.5" font-family="Helvetica,sans-Serif" font-size="10.00">+ chunkBlockHash()</text>
<text text-anchor="start" x="189" y="-1154.5" font-family="Helvetica,sans-Serif" font-size="10.00">+ chunkHash()</text>
<text text-anchor="start" x="189" y="-1143.5" font-family="Helvetica,sans-Serif" font-size="10.00">+ getBlockXYZ()</text>
<text text-anchor="start" x="189" y="-1132.5" font-family="Helvetica,sans-Serif" font-size="10.00">+ getDifficultyFromString()</text>
<text text-anchor="start" x="189" y="-1121.5" font-family="Helvetica,sans-Serif" font-size="10.00">+ getXZ()</text>
<text text-anchor="start" x="189" y="-1110.5" font-family="Helvetica,sans-Serif" font-size="10.00"># actuallyDoTick()</text>
</a>
</g>
</g>
<!-- Node7&#45;&gt;Node12 -->
<g id="edge13" class="edge">
<title>Node7&#45;&gt;Node12</title>
<path fill="none" stroke="#404040" d="M89.49,-1659.47C94.97,-1602.25 109.01,-1472.43 127,-1432 138.71,-1405.67 155.51,-1380.02 173.43,-1356.9"/>
<polygon fill="none" stroke="#404040" points="173.44,-1356.89 174.03,-1349.7 180.89,-1347.48 180.3,-1354.67 173.44,-1356.89"/>
<text text-anchor="start" x="127" y="-1556" font-family="Helvetica,sans-Serif" font-size="10.00"> +DEFAULT_TICKED_BLOCKS</text>
<text text-anchor="middle" x="197" y="-1545" font-family="Helvetica,sans-Serif" font-size="10.00">_PER_SUBCHUNK_PER_TICK</text>
<text text-anchor="middle" x="197" y="-1534" font-family="Helvetica,sans-Serif" font-size="10.00">+DIFFICULTY_EASY</text>
<text text-anchor="middle" x="197" y="-1523" font-family="Helvetica,sans-Serif" font-size="10.00">+DIFFICULTY_HARD</text>
<text text-anchor="middle" x="197" y="-1512" font-family="Helvetica,sans-Serif" font-size="10.00">+DIFFICULTY_NORMAL</text>
<text text-anchor="middle" x="197" y="-1501" font-family="Helvetica,sans-Serif" font-size="10.00">+DIFFICULTY_PEACEFUL</text>
<text text-anchor="middle" x="197" y="-1490" font-family="Helvetica,sans-Serif" font-size="10.00">+TIME_DAY</text>
<text text-anchor="middle" x="197" y="-1479" font-family="Helvetica,sans-Serif" font-size="10.00">+TIME_FULL</text>
<text text-anchor="middle" x="197" y="-1468" font-family="Helvetica,sans-Serif" font-size="10.00">+TIME_MIDNIGHT</text>
<text text-anchor="middle" x="197" y="-1457" font-family="Helvetica,sans-Serif" font-size="10.00">+TIME_NIGHT</text>
<text text-anchor="middle" x="197" y="-1446" font-family="Helvetica,sans-Serif" font-size="10.00">+TIME_NOON</text>
<text text-anchor="middle" x="197" y="-1435" font-family="Helvetica,sans-Serif" font-size="10.00">...</text>
</g>
<!-- Node8 -->
<g id="node8" class="node">
<title>Node8</title>
<g id="a_node8"><a xlink:href="../../dd/d18/classpocketmine_1_1block_1_1_block_identifier.html" target="_top" xlink:title=" ">
<polygon fill="white" stroke="#bfbfbf" points="328,-916 328,-995 504,-995 504,-916 328,-916"/>
<text text-anchor="middle" x="416" y="-983" font-family="Helvetica,sans-Serif" font-size="10.00">pocketmine\block\BlockIdentifier</text>
<polyline fill="none" stroke="#bfbfbf" points="328,-976 504,-976 "/>
<text text-anchor="middle" x="416" y="-964" font-family="Helvetica,sans-Serif" font-size="10.00"> </text>
<polyline fill="none" stroke="#bfbfbf" points="328,-957 504,-957 "/>
<text text-anchor="start" x="336" y="-945" font-family="Helvetica,sans-Serif" font-size="10.00">+ __construct()</text>
<text text-anchor="start" x="336" y="-934" font-family="Helvetica,sans-Serif" font-size="10.00">+ getBlockTypeId()</text>
<text text-anchor="start" x="336" y="-923" font-family="Helvetica,sans-Serif" font-size="10.00">+ getTileClass()</text>
</a>
</g>
</g>
<!-- Node8&#45;&gt;Node6 -->
<g id="edge7" class="edge">
<title>Node8&#45;&gt;Node6</title>
<path fill="none" stroke="#404040" d="M385.23,-915.99C368.51,-895.07 346.89,-868.02 325.36,-841.08"/>
<polygon fill="none" stroke="#404040" points="325.25,-840.94 318.38,-838.74 317.76,-831.56 324.63,-833.75 325.25,-840.94"/>
<text text-anchor="middle" x="371" y="-862" font-family="Helvetica,sans-Serif" font-size="10.00"> #$idInfo</text>
</g>
<!-- Node9 -->
<g id="node9" class="node">
<title>Node9</title>
<g id="a_node9"><a xlink:href="../../de/d9a/classpocketmine_1_1block_1_1_block_type_info.html" target="_top" xlink:title=" ">
<polygon fill="white" stroke="#bfbfbf" points="522,-905 522,-1006 696,-1006 696,-905 522,-905"/>
<text text-anchor="middle" x="609" y="-994" font-family="Helvetica,sans-Serif" font-size="10.00">pocketmine\block\BlockTypeInfo</text>
<polyline fill="none" stroke="#bfbfbf" points="522,-987 696,-987 "/>
<text text-anchor="middle" x="609" y="-975" font-family="Helvetica,sans-Serif" font-size="10.00"> </text>
<polyline fill="none" stroke="#bfbfbf" points="522,-968 696,-968 "/>
<text text-anchor="start" x="530" y="-956" font-family="Helvetica,sans-Serif" font-size="10.00">+ __construct()</text>
<text text-anchor="start" x="530" y="-945" font-family="Helvetica,sans-Serif" font-size="10.00">+ getBreakInfo()</text>
<text text-anchor="start" x="530" y="-934" font-family="Helvetica,sans-Serif" font-size="10.00">+ getEnchantmentTags()</text>
<text text-anchor="start" x="530" y="-923" font-family="Helvetica,sans-Serif" font-size="10.00">+ getTypeTags()</text>
<text text-anchor="start" x="530" y="-912" font-family="Helvetica,sans-Serif" font-size="10.00">+ hasTypeTag()</text>
</a>
</g>
</g>
<!-- Node9&#45;&gt;Node6 -->
<g id="edge8" class="edge">
<title>Node9&#45;&gt;Node6</title>
<path fill="none" stroke="#404040" d="M538.95,-904.94C530.29,-899.12 521.49,-893.35 513,-888 452.5,-849.89 382.51,-809.99 328.16,-779.89"/>
<polygon fill="none" stroke="#404040" points="328,-779.81 320.82,-780.41 317.5,-774.01 324.69,-773.41 328,-779.81"/>
<text text-anchor="middle" x="513" y="-862" font-family="Helvetica,sans-Serif" font-size="10.00"> #$typeInfo</text>
</g>
<!-- Node10 -->
<g id="node10" class="node">
<title>Node10</title>
<g id="a_node10"><a xlink:href="../../d5/dd2/classpocketmine_1_1world_1_1_position.html" target="_top" xlink:title=" ">
<polygon fill="white" stroke="#bfbfbf" points="164,-888.5 164,-1022.5 310,-1022.5 310,-888.5 164,-888.5"/>
<text text-anchor="middle" x="237" y="-1010.5" font-family="Helvetica,sans-Serif" font-size="10.00">pocketmine\world\Position</text>
<polyline fill="none" stroke="#bfbfbf" points="164,-1003.5 310,-1003.5 "/>
<text text-anchor="middle" x="237" y="-991.5" font-family="Helvetica,sans-Serif" font-size="10.00"> </text>
<polyline fill="none" stroke="#bfbfbf" points="164,-984.5 310,-984.5 "/>
<text text-anchor="start" x="172" y="-972.5" font-family="Helvetica,sans-Serif" font-size="10.00">+ __construct()</text>
<text text-anchor="start" x="172" y="-961.5" font-family="Helvetica,sans-Serif" font-size="10.00">+ __toString()</text>
<text text-anchor="start" x="172" y="-950.5" font-family="Helvetica,sans-Serif" font-size="10.00">+ asPosition()</text>
<text text-anchor="start" x="172" y="-939.5" font-family="Helvetica,sans-Serif" font-size="10.00">+ equals()</text>
<text text-anchor="start" x="172" y="-928.5" font-family="Helvetica,sans-Serif" font-size="10.00">+ getSide()</text>
<text text-anchor="start" x="172" y="-917.5" font-family="Helvetica,sans-Serif" font-size="10.00">+ getWorld()</text>
<text text-anchor="start" x="172" y="-906.5" font-family="Helvetica,sans-Serif" font-size="10.00">+ isValid()</text>
<text text-anchor="start" x="172" y="-895.5" font-family="Helvetica,sans-Serif" font-size="10.00">+ fromObject()</text>
</a>
</g>
</g>
<!-- Node10&#45;&gt;Node6 -->
<g id="edge9" class="edge">
<title>Node10&#45;&gt;Node6</title>
<path fill="none" stroke="#404040" d="M237,-888.2C237,-876.98 237,-865.02 237,-852.89"/>
<polygon fill="none" stroke="#404040" points="237,-852.73 233,-846.73 237,-840.73 241,-846.73 237,-852.73"/>
<text text-anchor="middle" x="265.5" y="-862" font-family="Helvetica,sans-Serif" font-size="10.00"> #$position</text>
</g>
<!-- Node11 -->
<g id="node11" class="node">
<title>Node11</title>
<g id="a_node11"><a xlink:href="../../d2/d90/classpocketmine_1_1math_1_1_vector3.html" target="_top" xlink:title=" ">
<polygon fill="white" stroke="#bfbfbf" points="371,-1153 371,-1364 513,-1364 513,-1153 371,-1153"/>
<text text-anchor="middle" x="442" y="-1352" font-family="Helvetica,sans-Serif" font-size="10.00">pocketmine\math\Vector3</text>
<polyline fill="none" stroke="#bfbfbf" points="371,-1345 513,-1345 "/>
<text text-anchor="middle" x="442" y="-1333" font-family="Helvetica,sans-Serif" font-size="10.00"> </text>
<polyline fill="none" stroke="#bfbfbf" points="371,-1326 513,-1326 "/>
<text text-anchor="start" x="379" y="-1314" font-family="Helvetica,sans-Serif" font-size="10.00">+ __construct()</text>
<text text-anchor="start" x="379" y="-1303" font-family="Helvetica,sans-Serif" font-size="10.00">+ __toString()</text>
<text text-anchor="start" x="379" y="-1292" font-family="Helvetica,sans-Serif" font-size="10.00">+ abs()</text>
<text text-anchor="start" x="379" y="-1281" font-family="Helvetica,sans-Serif" font-size="10.00">+ add()</text>
<text text-anchor="start" x="379" y="-1270" font-family="Helvetica,sans-Serif" font-size="10.00">+ addVector()</text>
<text text-anchor="start" x="379" y="-1259" font-family="Helvetica,sans-Serif" font-size="10.00">+ asVector3()</text>
<text text-anchor="start" x="379" y="-1248" font-family="Helvetica,sans-Serif" font-size="10.00">+ ceil()</text>
<text text-anchor="start" x="379" y="-1237" font-family="Helvetica,sans-Serif" font-size="10.00">+ cross()</text>
<text text-anchor="start" x="379" y="-1226" font-family="Helvetica,sans-Serif" font-size="10.00">+ distance()</text>
<text text-anchor="start" x="379" y="-1215" font-family="Helvetica,sans-Serif" font-size="10.00">+ distanceSquared()</text>
<text text-anchor="start" x="379" y="-1204" font-family="Helvetica,sans-Serif" font-size="10.00">and 32 more...</text>
<text text-anchor="start" x="379" y="-1193" font-family="Helvetica,sans-Serif" font-size="10.00">+ maxComponents()</text>
<text text-anchor="start" x="379" y="-1182" font-family="Helvetica,sans-Serif" font-size="10.00">+ minComponents()</text>
<text text-anchor="start" x="379" y="-1171" font-family="Helvetica,sans-Serif" font-size="10.00">+ sum()</text>
<text text-anchor="start" x="379" y="-1160" font-family="Helvetica,sans-Serif" font-size="10.00">+ zero()</text>
</a>
</g>
</g>
<!-- Node11&#45;&gt;Node10 -->
<g id="edge10" class="edge">
<title>Node11&#45;&gt;Node10</title>
<path fill="none" stroke="midnightblue" d="M387.15,-1144.16C379.19,-1130.01 370.72,-1115.97 362,-1103 343.43,-1075.4 320.42,-1047.12 299.21,-1022.86"/>
<polygon fill="none" stroke="midnightblue" points="384.13,-1145.93 392.03,-1152.98 390.25,-1142.54 384.13,-1145.93"/>
</g>
<!-- Node12&#45;&gt;Node10 -->
<g id="edge11" class="edge">
<title>Node12&#45;&gt;Node10</title>
<path fill="none" stroke="#404040" d="M251.65,-1103.47C249.27,-1079.65 246.91,-1055.95 244.8,-1034.76"/>
<polygon fill="none" stroke="#404040" points="244.78,-1034.53 240.2,-1028.95 243.59,-1022.58 248.16,-1028.16 244.78,-1034.53"/>
<text text-anchor="middle" x="272.5" y="-1060.5" font-family="Helvetica,sans-Serif" font-size="10.00"> +$world</text>
</g>
<!-- Node13 -->
<g id="node13" class="node">
<title>Node13</title>
<g id="a_node13"><a xlink:href="../../d0/d03/interfacepocketmine_1_1world_1_1_chunk_manager.html" target="_top" xlink:title=" ">
<polygon fill="white" stroke="#bfbfbf" points="185,-1626.5 185,-1749.5 365,-1749.5 365,-1626.5 185,-1626.5"/>
<text text-anchor="middle" x="275" y="-1737.5" font-family="Helvetica,sans-Serif" font-size="10.00">pocketmine\world\ChunkManager</text>
<polyline fill="none" stroke="#bfbfbf" points="185,-1730.5 365,-1730.5 "/>
<text text-anchor="middle" x="275" y="-1718.5" font-family="Helvetica,sans-Serif" font-size="10.00"> </text>
<polyline fill="none" stroke="#bfbfbf" points="185,-1711.5 365,-1711.5 "/>
<text text-anchor="start" x="193" y="-1699.5" font-family="Helvetica,sans-Serif" font-size="10.00">+ getBlockAt()</text>
<text text-anchor="start" x="193" y="-1688.5" font-family="Helvetica,sans-Serif" font-size="10.00">+ getChunk()</text>
<text text-anchor="start" x="193" y="-1677.5" font-family="Helvetica,sans-Serif" font-size="10.00">+ getMaxY()</text>
<text text-anchor="start" x="193" y="-1666.5" font-family="Helvetica,sans-Serif" font-size="10.00">+ getMinY()</text>
<text text-anchor="start" x="193" y="-1655.5" font-family="Helvetica,sans-Serif" font-size="10.00">+ isInWorld()</text>
<text text-anchor="start" x="193" y="-1644.5" font-family="Helvetica,sans-Serif" font-size="10.00">+ setBlockAt()</text>
<text text-anchor="start" x="193" y="-1633.5" font-family="Helvetica,sans-Serif" font-size="10.00">+ setChunk()</text>
</a>
</g>
</g>
<!-- Node13&#45;&gt;Node12 -->
<g id="edge12" class="edge">
<title>Node13&#45;&gt;Node12</title>
<path fill="none" stroke="midnightblue" d="M273.67,-1615.87C272.64,-1560.88 271.18,-1482.74 269.88,-1413.64"/>
<polygon fill="none" stroke="midnightblue" points="270.18,-1616.27 273.86,-1626.2 277.17,-1616.14 270.18,-1616.27"/>
</g>
<!-- Node14 -->
<g id="node14" class="node">
<title>Node14</title>
<g id="a_node14"><a xlink:href="../../d7/d08/classpocketmine_1_1world_1_1_world_timings.html" target="_top" xlink:title=" ">
<polygon fill="white" stroke="#bfbfbf" points="383.5,-1582.5 383.5,-1793.5 556.5,-1793.5 556.5,-1582.5 383.5,-1582.5"/>
<text text-anchor="middle" x="470" y="-1781.5" font-family="Helvetica,sans-Serif" font-size="10.00">pocketmine\world\WorldTimings</text>
<polyline fill="none" stroke="#bfbfbf" points="383.5,-1774.5 556.5,-1774.5 "/>
<text text-anchor="start" x="391.5" y="-1762.5" font-family="Helvetica,sans-Serif" font-size="10.00">+ $randomChunkUpdatesChunk</text>
<text text-anchor="start" x="391.5" y="-1751.5" font-family="Helvetica,sans-Serif" font-size="10.00">Selection</text>
<text text-anchor="start" x="391.5" y="-1740.5" font-family="Helvetica,sans-Serif" font-size="10.00">+ $scheduledBlockUpdates</text>
<text text-anchor="start" x="391.5" y="-1729.5" font-family="Helvetica,sans-Serif" font-size="10.00">+ $setBlock</text>
<text text-anchor="start" x="391.5" y="-1718.5" font-family="Helvetica,sans-Serif" font-size="10.00">+ $syncChunkLoad</text>
<text text-anchor="start" x="391.5" y="-1707.5" font-family="Helvetica,sans-Serif" font-size="10.00">+ $syncChunkLoadData</text>
<text text-anchor="start" x="391.5" y="-1696.5" font-family="Helvetica,sans-Serif" font-size="10.00">+ $syncChunkLoadEntities</text>
<text text-anchor="start" x="391.5" y="-1685.5" font-family="Helvetica,sans-Serif" font-size="10.00">+ $syncChunkLoadFixInvalid</text>
<text text-anchor="start" x="391.5" y="-1674.5" font-family="Helvetica,sans-Serif" font-size="10.00">Blocks</text>
<text text-anchor="start" x="391.5" y="-1663.5" font-family="Helvetica,sans-Serif" font-size="10.00">+ $syncChunkLoadTileEntities</text>
<text text-anchor="start" x="391.5" y="-1652.5" font-family="Helvetica,sans-Serif" font-size="10.00">+ $syncChunkSave</text>
<text text-anchor="start" x="391.5" y="-1641.5" font-family="Helvetica,sans-Serif" font-size="10.00">+ $syncChunkSend</text>
<text text-anchor="start" x="391.5" y="-1630.5" font-family="Helvetica,sans-Serif" font-size="10.00">+ $syncChunkSendPrepare</text>
<text text-anchor="start" x="391.5" y="-1619.5" font-family="Helvetica,sans-Serif" font-size="10.00">+ $syncDataSave</text>
<text text-anchor="start" x="391.5" y="-1608.5" font-family="Helvetica,sans-Serif" font-size="10.00">+ $tileTick</text>
<polyline fill="none" stroke="#bfbfbf" points="383.5,-1601.5 556.5,-1601.5 "/>
<text text-anchor="start" x="391.5" y="-1589.5" font-family="Helvetica,sans-Serif" font-size="10.00">+ __construct()</text>
</a>
</g>
</g>
<!-- Node14&#45;&gt;Node12 -->
<g id="edge14" class="edge">
<title>Node14&#45;&gt;Node12</title>
<path fill="none" stroke="#404040" d="M420.34,-1582.42C397.77,-1534.9 370.53,-1477.53 345.31,-1424.42"/>
<polygon fill="none" stroke="#404040" points="345.28,-1424.35 339.09,-1420.64 340.13,-1413.51 346.32,-1417.21 345.28,-1424.35"/>
<text text-anchor="middle" x="438.5" y="-1495.5" font-family="Helvetica,sans-Serif" font-size="10.00"> +$timings</text>
</g>
<!-- Node15 -->
<g id="node15" class="node">
<title>Node15</title>
<g id="a_node15"><a xlink:href="../../d7/d9b/classpocketmine_1_1timings_1_1_timings_handler.html" target="_top" xlink:title=" ">
<polygon fill="white" stroke="#bfbfbf" points="413.5,-1951.5 413.5,-2151.5 526.5,-2151.5 526.5,-1951.5 413.5,-1951.5"/>
<text text-anchor="start" x="421.5" y="-2139.5" font-family="Helvetica,sans-Serif" font-size="10.00">pocketmine\timings</text>
<text text-anchor="middle" x="470" y="-2128.5" font-family="Helvetica,sans-Serif" font-size="10.00">\TimingsHandler</text>
<polyline fill="none" stroke="#bfbfbf" points="413.5,-2121.5 526.5,-2121.5 "/>
<text text-anchor="middle" x="470" y="-2109.5" font-family="Helvetica,sans-Serif" font-size="10.00"> </text>
<polyline fill="none" stroke="#bfbfbf" points="413.5,-2102.5 526.5,-2102.5 "/>
<text text-anchor="start" x="421.5" y="-2090.5" font-family="Helvetica,sans-Serif" font-size="10.00">+ __construct()</text>
<text text-anchor="start" x="421.5" y="-2079.5" font-family="Helvetica,sans-Serif" font-size="10.00">+ getGroup()</text>
<text text-anchor="start" x="421.5" y="-2068.5" font-family="Helvetica,sans-Serif" font-size="10.00">+ getName()</text>
<text text-anchor="start" x="421.5" y="-2057.5" font-family="Helvetica,sans-Serif" font-size="10.00">+ reset()</text>
<text text-anchor="start" x="421.5" y="-2046.5" font-family="Helvetica,sans-Serif" font-size="10.00">+ startTiming()</text>
<text text-anchor="start" x="421.5" y="-2035.5" font-family="Helvetica,sans-Serif" font-size="10.00">+ stopTiming()</text>
<text text-anchor="start" x="421.5" y="-2024.5" font-family="Helvetica,sans-Serif" font-size="10.00">+ time()</text>
<text text-anchor="start" x="421.5" y="-2013.5" font-family="Helvetica,sans-Serif" font-size="10.00">+ getStartTime()</text>
<text text-anchor="start" x="421.5" y="-2002.5" font-family="Helvetica,sans-Serif" font-size="10.00">+ isEnabled()</text>
<text text-anchor="start" x="421.5" y="-1991.5" font-family="Helvetica,sans-Serif" font-size="10.00">+ printTimings()</text>
<text text-anchor="start" x="421.5" y="-1980.5" font-family="Helvetica,sans-Serif" font-size="10.00">+ reload()</text>
<text text-anchor="start" x="421.5" y="-1969.5" font-family="Helvetica,sans-Serif" font-size="10.00">+ setEnabled()</text>
<text text-anchor="start" x="421.5" y="-1958.5" font-family="Helvetica,sans-Serif" font-size="10.00">+ tick()</text>
</a>
</g>
</g>
<!-- Node15&#45;&gt;Node14 -->
<g id="edge15" class="edge">
<title>Node15&#45;&gt;Node14</title>
<path fill="none" stroke="#404040" d="M470,-1951.24C470,-1906.25 470,-1852.73 470,-1805.81"/>
<polygon fill="none" stroke="#404040" points="470,-1805.72 466,-1799.72 470,-1793.72 474,-1799.72 470,-1805.72"/>
<text text-anchor="middle" x="547.5" y="-1925" font-family="Helvetica,sans-Serif" font-size="10.00"> +$chunkPopulationCompletion</text>
<text text-anchor="middle" x="547.5" y="-1914" font-family="Helvetica,sans-Serif" font-size="10.00">+$chunkPopulationOrder</text>
<text text-anchor="middle" x="547.5" y="-1903" font-family="Helvetica,sans-Serif" font-size="10.00">+$doBlockLightUpdates</text>
<text text-anchor="middle" x="547.5" y="-1892" font-family="Helvetica,sans-Serif" font-size="10.00">+$doBlockSkyLightUpdates</text>
<text text-anchor="middle" x="547.5" y="-1881" font-family="Helvetica,sans-Serif" font-size="10.00">+$doChunkGC</text>
<text text-anchor="middle" x="547.5" y="-1870" font-family="Helvetica,sans-Serif" font-size="10.00">+$doChunkUnload</text>
<text text-anchor="middle" x="547.5" y="-1859" font-family="Helvetica,sans-Serif" font-size="10.00">+$doTick</text>
<text text-anchor="middle" x="547.5" y="-1848" font-family="Helvetica,sans-Serif" font-size="10.00">+$entityTick</text>
<text text-anchor="middle" x="547.5" y="-1837" font-family="Helvetica,sans-Serif" font-size="10.00">+$neighbourBlockUpdates</text>
<text text-anchor="middle" x="547.5" y="-1826" font-family="Helvetica,sans-Serif" font-size="10.00">+$randomChunkUpdates</text>
<text text-anchor="middle" x="547.5" y="-1815" font-family="Helvetica,sans-Serif" font-size="10.00">...</text>
</g>
</g>
</svg>
