<?xml version="1.0" encoding="UTF-8" standalone="no"?>
<!DOCTYPE svg PUBLIC "-//W3C//DTD SVG 1.1//EN"
 "http://www.w3.org/Graphics/SVG/1.1/DTD/svg11.dtd">
<!-- Generated by graphviz version 2.43.0 (0)
 -->
<!-- Title: pocketmine\network\mcpe\protocol\CommandBlockUpdatePacket Pages: 1 -->
<svg width="447pt" height="748pt"
 viewBox="0.00 0.00 447.00 748.00" xmlns="http://www.w3.org/2000/svg" xmlns:xlink="http://www.w3.org/1999/xlink">
<g id="graph0" class="graph" transform="scale(1 1) rotate(0) translate(4 744)">
<title>pocketmine\network\mcpe\protocol\CommandBlockUpdatePacket</title>
<!-- Node1 -->
<g id="Node000001" class="node">
<title>Node1</title>
<g id="a_Node000001"><a xlink:title=" ">
<polygon fill="#999999" stroke="transparent" points="315.5,-266 151.5,-266 151.5,0 315.5,0 315.5,-266"/>
<text text-anchor="start" x="156.5" y="-254" font-family="Helvetica,sans-Serif" font-size="10.00">pocketmine\network</text>
<text text-anchor="start" x="156.5" y="-243" font-family="Helvetica,sans-Serif" font-size="10.00">\mcpe\protocol\CommandBlock</text>
<text text-anchor="start" x="200" y="-232" font-family="Helvetica,sans-Serif" font-size="10.00">UpdatePacket</text>
<text text-anchor="start" x="159.5" y="-217" font-family="Helvetica,sans-Serif" font-size="10.00">+</text>
<text text-anchor="start" x="176.5" y="-217" font-family="Helvetica,sans-Serif" font-size="10.00">$command</text>
<text text-anchor="start" x="159.5" y="-202" font-family="Helvetica,sans-Serif" font-size="10.00">+</text>
<text text-anchor="start" x="176.5" y="-202" font-family="Helvetica,sans-Serif" font-size="10.00">$commandBlockMode</text>
<text text-anchor="start" x="159.5" y="-187" font-family="Helvetica,sans-Serif" font-size="10.00">+</text>
<text text-anchor="start" x="176.5" y="-187" font-family="Helvetica,sans-Serif" font-size="10.00">$executeOnFirstTick</text>
<text text-anchor="start" x="159.5" y="-172" font-family="Helvetica,sans-Serif" font-size="10.00">+</text>
<text text-anchor="start" x="176.5" y="-172" font-family="Helvetica,sans-Serif" font-size="10.00">$isBlock</text>
<text text-anchor="start" x="159.5" y="-157" font-family="Helvetica,sans-Serif" font-size="10.00">+</text>
<text text-anchor="start" x="176.5" y="-157" font-family="Helvetica,sans-Serif" font-size="10.00">$isConditional</text>
<text text-anchor="start" x="159.5" y="-142" font-family="Helvetica,sans-Serif" font-size="10.00">+</text>
<text text-anchor="start" x="176.5" y="-142" font-family="Helvetica,sans-Serif" font-size="10.00">$isRedstoneMode</text>
<text text-anchor="start" x="159.5" y="-127" font-family="Helvetica,sans-Serif" font-size="10.00">+</text>
<text text-anchor="start" x="176.5" y="-127" font-family="Helvetica,sans-Serif" font-size="10.00">$lastOutput</text>
<text text-anchor="start" x="159.5" y="-112" font-family="Helvetica,sans-Serif" font-size="10.00">+</text>
<text text-anchor="start" x="176.5" y="-112" font-family="Helvetica,sans-Serif" font-size="10.00">$minecartActorRuntimeId</text>
<text text-anchor="start" x="159.5" y="-97" font-family="Helvetica,sans-Serif" font-size="10.00">+</text>
<text text-anchor="start" x="176.5" y="-97" font-family="Helvetica,sans-Serif" font-size="10.00">$name</text>
<text text-anchor="start" x="159.5" y="-82" font-family="Helvetica,sans-Serif" font-size="10.00">+</text>
<text text-anchor="start" x="176.5" y="-82" font-family="Helvetica,sans-Serif" font-size="10.00">$shouldTrackOutput</text>
<text text-anchor="start" x="159.5" y="-67" font-family="Helvetica,sans-Serif" font-size="10.00">+</text>
<text text-anchor="start" x="176.5" y="-67" font-family="Helvetica,sans-Serif" font-size="10.00">$tickDelay</text>
<text text-anchor="start" x="159.5" y="-52" font-family="Helvetica,sans-Serif" font-size="10.00">+</text>
<text text-anchor="start" x="176.5" y="-52" font-family="Helvetica,sans-Serif" font-size="10.00">NETWORK_ID</text>
<text text-anchor="start" x="159.5" y="-37" font-family="Helvetica,sans-Serif" font-size="10.00">+</text>
<text text-anchor="start" x="176.5" y="-37" font-family="Helvetica,sans-Serif" font-size="10.00">handle()</text>
<text text-anchor="start" x="159.5" y="-22" font-family="Helvetica,sans-Serif" font-size="10.00">#</text>
<text text-anchor="start" x="176.5" y="-22" font-family="Helvetica,sans-Serif" font-size="10.00">decodePayload()</text>
<text text-anchor="start" x="159.5" y="-7" font-family="Helvetica,sans-Serif" font-size="10.00">#</text>
<text text-anchor="start" x="176.5" y="-7" font-family="Helvetica,sans-Serif" font-size="10.00">encodePayload()</text>
<polygon fill="#666666" stroke="#666666" points="151.5,-227 151.5,-227 315.5,-227 315.5,-227 151.5,-227"/>
<polygon fill="#666666" stroke="#666666" points="151.5,-47 151.5,-47 174.5,-47 174.5,-47 151.5,-47"/>
<polygon fill="#666666" stroke="#666666" points="174.5,-47 174.5,-47 315.5,-47 315.5,-47 174.5,-47"/>
<polygon fill="none" stroke="#666666" points="151.5,0 151.5,-266 315.5,-266 315.5,0 151.5,0"/>
</a>
</g>
</g>
<!-- Node2 -->
<g id="Node000002" class="node">
<title>Node2</title>
<g id="a_Node000002"><a xlink:href="../../d1/ddb/classpocketmine_1_1network_1_1mcpe_1_1protocol_1_1_data_packet.html" target="_top" xlink:title=" ">
<polygon fill="white" stroke="transparent" points="141,-568 0,-568 0,-313 141,-313 141,-568"/>
<text text-anchor="start" x="5.5" y="-555.5" font-family="Helvetica,sans-Serif" font-size="10.00">pocketmine\network</text>
<text text-anchor="start" x="5.5" y="-544.5" font-family="Helvetica,sans-Serif" font-size="10.00">\mcpe\protocol\DataPacket</text>
<text text-anchor="start" x="5" y="-529.5" font-family="Helvetica,sans-Serif" font-size="10.00">+</text>
<text text-anchor="start" x="18.5" y="-529.5" font-family="Helvetica,sans-Serif" font-size="10.00">$recipientSubId</text>
<text text-anchor="start" x="5" y="-514.5" font-family="Helvetica,sans-Serif" font-size="10.00">+</text>
<text text-anchor="start" x="18.5" y="-514.5" font-family="Helvetica,sans-Serif" font-size="10.00">$senderSubId</text>
<text text-anchor="start" x="5" y="-499.5" font-family="Helvetica,sans-Serif" font-size="10.00">+</text>
<text text-anchor="start" x="18.5" y="-499.5" font-family="Helvetica,sans-Serif" font-size="10.00">NETWORK_ID</text>
<text text-anchor="start" x="5" y="-484.5" font-family="Helvetica,sans-Serif" font-size="10.00">+</text>
<text text-anchor="start" x="18.5" y="-484.5" font-family="Helvetica,sans-Serif" font-size="10.00">PID_MASK</text>
<text text-anchor="start" x="5" y="-469.5" font-family="Helvetica,sans-Serif" font-size="10.00">+</text>
<text text-anchor="start" x="18.5" y="-469.5" font-family="Helvetica,sans-Serif" font-size="10.00">__get()</text>
<text text-anchor="start" x="5" y="-454.5" font-family="Helvetica,sans-Serif" font-size="10.00">+</text>
<text text-anchor="start" x="18.5" y="-454.5" font-family="Helvetica,sans-Serif" font-size="10.00">__set()</text>
<text text-anchor="start" x="5" y="-439.5" font-family="Helvetica,sans-Serif" font-size="10.00">+</text>
<text text-anchor="start" x="18.5" y="-439.5" font-family="Helvetica,sans-Serif" font-size="10.00">canBeSentBeforeLogin()</text>
<text text-anchor="start" x="5" y="-424.5" font-family="Helvetica,sans-Serif" font-size="10.00">+</text>
<text text-anchor="start" x="18.5" y="-424.5" font-family="Helvetica,sans-Serif" font-size="10.00">decode()</text>
<text text-anchor="start" x="5" y="-409.5" font-family="Helvetica,sans-Serif" font-size="10.00">+</text>
<text text-anchor="start" x="18.5" y="-409.5" font-family="Helvetica,sans-Serif" font-size="10.00">encode()</text>
<text text-anchor="start" x="5" y="-394.5" font-family="Helvetica,sans-Serif" font-size="10.00">+</text>
<text text-anchor="start" x="18.5" y="-394.5" font-family="Helvetica,sans-Serif" font-size="10.00">getName()</text>
<text text-anchor="start" x="5" y="-379.5" font-family="Helvetica,sans-Serif" font-size="10.00">+</text>
<text text-anchor="start" x="18.5" y="-379.5" font-family="Helvetica,sans-Serif" font-size="10.00">pid()</text>
<text text-anchor="start" x="5" y="-364.5" font-family="Helvetica,sans-Serif" font-size="10.00">#</text>
<text text-anchor="start" x="18.5" y="-364.5" font-family="Helvetica,sans-Serif" font-size="10.00">decodeHeader()</text>
<text text-anchor="start" x="5" y="-349.5" font-family="Helvetica,sans-Serif" font-size="10.00">#</text>
<text text-anchor="start" x="18.5" y="-349.5" font-family="Helvetica,sans-Serif" font-size="10.00">decodePayload()</text>
<text text-anchor="start" x="5" y="-334.5" font-family="Helvetica,sans-Serif" font-size="10.00">#</text>
<text text-anchor="start" x="18.5" y="-334.5" font-family="Helvetica,sans-Serif" font-size="10.00">encodeHeader()</text>
<text text-anchor="start" x="5" y="-319.5" font-family="Helvetica,sans-Serif" font-size="10.00">#</text>
<text text-anchor="start" x="18.5" y="-319.5" font-family="Helvetica,sans-Serif" font-size="10.00">encodePayload()</text>
<polygon fill="#bfbfbf" stroke="#bfbfbf" points="0.5,-539.5 0.5,-539.5 141.5,-539.5 141.5,-539.5 0.5,-539.5"/>
<polygon fill="#bfbfbf" stroke="#bfbfbf" points="0.5,-479.5 0.5,-479.5 16.5,-479.5 16.5,-479.5 0.5,-479.5"/>
<polygon fill="#bfbfbf" stroke="#bfbfbf" points="16.5,-479.5 16.5,-479.5 141.5,-479.5 141.5,-479.5 16.5,-479.5"/>
<polygon fill="none" stroke="#bfbfbf" points="0,-313 0,-568 141,-568 141,-313 0,-313"/>
</a>
</g>
</g>
<!-- Node2&#45;&gt;Node1 -->
<g id="edge1_Node000001_Node000002" class="edge">
<title>Node2&#45;&gt;Node1</title>
<g id="a_edge1_Node000001_Node000002"><a xlink:title=" ">
<path fill="none" stroke="#63b8ff" d="M143,-303.63C149.59,-291.27 156.27,-278.76 162.84,-266.43"/>
<polygon fill="none" stroke="#63b8ff" points="139.83,-302.12 138.21,-312.59 146.01,-305.42 139.83,-302.12"/>
</a>
</g>
</g>
<!-- Node3 -->
<g id="Node000003" class="node">
<title>Node3</title>
<g id="a_Node000003"><a xlink:href="../../d4/d5d/interfacepocketmine_1_1network_1_1mcpe_1_1protocol_1_1_packet.html" target="_top" xlink:title=" ">
<polygon fill="white" stroke="transparent" points="221,-740 82,-740 82,-605 221,-605 221,-740"/>
<text text-anchor="start" x="98" y="-727.5" font-family="Helvetica,sans-Serif" font-size="10.00">pocketmine\network</text>
<text text-anchor="start" x="98" y="-716.5" font-family="Helvetica,sans-Serif" font-size="10.00">\mcpe\protocol\Packet</text>
<text text-anchor="start" x="150" y="-701.5" font-family="Helvetica,sans-Serif" font-size="10.00"> </text>
<text text-anchor="start" x="86.5" y="-686.5" font-family="Helvetica,sans-Serif" font-size="10.00">+</text>
<text text-anchor="start" x="99.5" y="-686.5" font-family="Helvetica,sans-Serif" font-size="10.00">canBeSentBeforeLogin()</text>
<text text-anchor="start" x="86.5" y="-671.5" font-family="Helvetica,sans-Serif" font-size="10.00">+</text>
<text text-anchor="start" x="99.5" y="-671.5" font-family="Helvetica,sans-Serif" font-size="10.00">decode()</text>
<text text-anchor="start" x="86.5" y="-656.5" font-family="Helvetica,sans-Serif" font-size="10.00">+</text>
<text text-anchor="start" x="99.5" y="-656.5" font-family="Helvetica,sans-Serif" font-size="10.00">encode()</text>
<text text-anchor="start" x="86.5" y="-641.5" font-family="Helvetica,sans-Serif" font-size="10.00">+</text>
<text text-anchor="start" x="99.5" y="-641.5" font-family="Helvetica,sans-Serif" font-size="10.00">getName()</text>
<text text-anchor="start" x="86.5" y="-626.5" font-family="Helvetica,sans-Serif" font-size="10.00">+</text>
<text text-anchor="start" x="99.5" y="-626.5" font-family="Helvetica,sans-Serif" font-size="10.00">handle()</text>
<text text-anchor="start" x="86.5" y="-611.5" font-family="Helvetica,sans-Serif" font-size="10.00">+</text>
<text text-anchor="start" x="99.5" y="-611.5" font-family="Helvetica,sans-Serif" font-size="10.00">pid()</text>
<polygon fill="#bfbfbf" stroke="#bfbfbf" points="82.5,-711.5 82.5,-711.5 221.5,-711.5 221.5,-711.5 82.5,-711.5"/>
<polygon fill="#bfbfbf" stroke="#bfbfbf" points="82.5,-696.5 82.5,-696.5 221.5,-696.5 221.5,-696.5 82.5,-696.5"/>
<polygon fill="none" stroke="#bfbfbf" points="82,-605 82,-740 221,-740 221,-605 82,-605"/>
</a>
</g>
</g>
<!-- Node3&#45;&gt;Node2 -->
<g id="edge2_Node000002_Node000003" class="edge">
<title>Node3&#45;&gt;Node2</title>
<g id="a_edge2_Node000002_Node000003"><a xlink:title=" ">
<path fill="none" stroke="#63b8ff" d="M124.74,-595.51C121.62,-586.65 118.37,-577.44 115.09,-568.13"/>
<polygon fill="none" stroke="#63b8ff" points="121.45,-596.7 128.07,-604.97 128.05,-594.38 121.45,-596.7"/>
</a>
</g>
</g>
<!-- Node4 -->
<g id="Node000004" class="node">
<title>Node4</title>
<g id="a_Node000004"><a xlink:href="../../dd/de6/interfacepocketmine_1_1network_1_1mcpe_1_1protocol_1_1_serverbound_packet.html" target="_top" xlink:title=" ">
<polygon fill="white" stroke="transparent" points="307.5,-476 159.5,-476 159.5,-405 307.5,-405 307.5,-476"/>
<text text-anchor="start" x="164.5" y="-463.5" font-family="Helvetica,sans-Serif" font-size="10.00">pocketmine\network</text>
<text text-anchor="start" x="164.5" y="-452.5" font-family="Helvetica,sans-Serif" font-size="10.00">\mcpe\protocol\Serverbound</text>
<text text-anchor="start" x="217.5" y="-441.5" font-family="Helvetica,sans-Serif" font-size="10.00">Packet</text>
<text text-anchor="start" x="231.5" y="-426.5" font-family="Helvetica,sans-Serif" font-size="10.00"> </text>
<text text-anchor="start" x="231.5" y="-411.5" font-family="Helvetica,sans-Serif" font-size="10.00"> </text>
<polygon fill="#bfbfbf" stroke="#bfbfbf" points="159.5,-436.5 159.5,-436.5 307.5,-436.5 307.5,-436.5 159.5,-436.5"/>
<polygon fill="#bfbfbf" stroke="#bfbfbf" points="159.5,-421.5 159.5,-421.5 307.5,-421.5 307.5,-421.5 159.5,-421.5"/>
<polygon fill="none" stroke="#bfbfbf" points="159.5,-405 159.5,-476 307.5,-476 307.5,-405 159.5,-405"/>
</a>
</g>
</g>
<!-- Node3&#45;&gt;Node4 -->
<g id="edge4_Node000004_Node000003" class="edge">
<title>Node3&#45;&gt;Node4</title>
<g id="a_edge4_Node000004_Node000003"><a xlink:title=" ">
<path fill="none" stroke="#63b8ff" d="M178.61,-595.45C192.96,-555.21 209.88,-507.75 221.1,-476.27"/>
<polygon fill="none" stroke="#63b8ff" points="175.28,-594.38 175.22,-604.97 181.87,-596.73 175.28,-594.38"/>
</a>
</g>
</g>
<!-- Node4&#45;&gt;Node1 -->
<g id="edge3_Node000001_Node000004" class="edge">
<title>Node4&#45;&gt;Node1</title>
<g id="a_edge3_Node000001_Node000004"><a xlink:title=" ">
<path fill="none" stroke="#63b8ff" d="M233.5,-394.7C233.5,-360.75 233.5,-312.25 233.5,-266.27"/>
<polygon fill="none" stroke="#63b8ff" points="230,-394.75 233.5,-404.75 237,-394.75 230,-394.75"/>
</a>
</g>
</g>
<!-- Node5 -->
<g id="Node000005" class="node">
<title>Node5</title>
<g id="a_Node000005"><a xlink:href="../../d1/d5f/classpocketmine_1_1network_1_1mcpe_1_1protocol_1_1types_1_1_block_position.html" target="_top" xlink:title=" ">
<polygon fill="white" stroke="transparent" points="439,-513.5 326,-513.5 326,-367.5 439,-367.5 439,-513.5"/>
<text text-anchor="start" x="331.5" y="-501.5" font-family="Helvetica,sans-Serif" font-size="10.00">pocketmine\network</text>
<text text-anchor="start" x="331.5" y="-490.5" font-family="Helvetica,sans-Serif" font-size="10.00">\mcpe\protocol\types</text>
<text text-anchor="start" x="348" y="-479.5" font-family="Helvetica,sans-Serif" font-size="10.00">\BlockPosition</text>
<text text-anchor="start" x="381" y="-464.5" font-family="Helvetica,sans-Serif" font-size="10.00"> </text>
<text text-anchor="start" x="336.5" y="-449.5" font-family="Helvetica,sans-Serif" font-size="10.00">+</text>
<text text-anchor="start" x="355.5" y="-449.5" font-family="Helvetica,sans-Serif" font-size="10.00">__construct()</text>
<text text-anchor="start" x="336.5" y="-434.5" font-family="Helvetica,sans-Serif" font-size="10.00">+</text>
<text text-anchor="start" x="355.5" y="-434.5" font-family="Helvetica,sans-Serif" font-size="10.00">equals()</text>
<text text-anchor="start" x="336.5" y="-419.5" font-family="Helvetica,sans-Serif" font-size="10.00">+</text>
<text text-anchor="start" x="355.5" y="-419.5" font-family="Helvetica,sans-Serif" font-size="10.00">getX()</text>
<text text-anchor="start" x="336.5" y="-404.5" font-family="Helvetica,sans-Serif" font-size="10.00">+</text>
<text text-anchor="start" x="355.5" y="-404.5" font-family="Helvetica,sans-Serif" font-size="10.00">getY()</text>
<text text-anchor="start" x="336.5" y="-389.5" font-family="Helvetica,sans-Serif" font-size="10.00">+</text>
<text text-anchor="start" x="355.5" y="-389.5" font-family="Helvetica,sans-Serif" font-size="10.00">getZ()</text>
<text text-anchor="start" x="336.5" y="-374.5" font-family="Helvetica,sans-Serif" font-size="10.00">+</text>
<text text-anchor="start" x="355.5" y="-374.5" font-family="Helvetica,sans-Serif" font-size="10.00">fromVector3()</text>
<polygon fill="#bfbfbf" stroke="#bfbfbf" points="326.5,-474.5 326.5,-474.5 439.5,-474.5 439.5,-474.5 326.5,-474.5"/>
<polygon fill="#bfbfbf" stroke="#bfbfbf" points="326.5,-459.5 326.5,-459.5 439.5,-459.5 439.5,-459.5 326.5,-459.5"/>
<polygon fill="none" stroke="#bfbfbf" points="326,-367.5 326,-513.5 439,-513.5 439,-367.5 326,-367.5"/>
</a>
</g>
</g>
<!-- Node5&#45;&gt;Node1 -->
<g id="edge5_Node000001_Node000005" class="edge">
<title>Node5&#45;&gt;Node1</title>
<g id="a_edge5_Node000001_Node000005"><a xlink:title=" ">
<path fill="none" stroke="#63b8ff" d="M347.38,-367.49C334.14,-340.35 318.57,-308.43 303.28,-277.06"/>
<polygon fill="none" stroke="#63b8ff" points="303.14,-276.79 296.92,-273.15 297.88,-266 304.11,-269.64 303.14,-276.79"/>
</a>
</g>
<text text-anchor="middle" x="350" y="-287" font-family="Helvetica,sans-Serif" font-size="10.00" fill="grey"> +$blockPosition</text>
</g>
</g>
</svg>
